<?xml version="1.0" encoding="UTF-8" standalone="no"?>
<!DOCTYPE svg PUBLIC "-//W3C//DTD SVG 1.1//EN"
 "http://www.w3.org/Graphics/SVG/1.1/DTD/svg11.dtd">
<!-- Generated by graphviz version 3.0.0 (20220226.1711)
 -->
<!-- Title: graphname Pages: 1 -->
<svg width="921pt" height="485pt"
 viewBox="0.00 0.00 921.00 485.00" xmlns="http://www.w3.org/2000/svg" xmlns:xlink="http://www.w3.org/1999/xlink">
<g id="graph0" class="graph" transform="scale(1 1) rotate(0) translate(4 481)">
<title>graphname</title>
<polygon fill="#fafafa" stroke="transparent" points="-4,4 -4,-481 917,-481 917,4 -4,4"/>
<text text-anchor="start" x="345.5" y="-452.4" font-family="Helvetica,sans-Serif" font-weight="bold" font-size="22.00" fill="#383838">Project flow&#45;logs&#45;vpc</text>
<text text-anchor="start" x="453" y="-436.8" font-family="Helvetica,sans-Serif" font-size="14.00"> &#160;</text>
<text text-anchor="start" x="345.5" y="-415.2" font-family="Helvetica,sans-Serif" font-weight="bold" font-size="16.00" fill="#707070">Target Diagram</text>
<g id="clust1" class="cluster">
<title>cluster_aws</title>
<polygon fill="#f5f5f5" stroke="#f5f5f5" points="8,-8 8,-393 905,-393 905,-8 8,-8"/>
<text text-anchor="start" x="394.5" y="-23" font-family="Helvetica,sans-Serif" font-weight="bold" font-size="20.00" fill="#707070">Provider aws</text>
</g>
<g id="clust2" class="cluster">
<title>cluster_aws_</title>
<polygon fill="#eeeeee" stroke="#eeeeee" points="16,-54 16,-385 897,-385 897,-54 16,-54"/>
<text text-anchor="start" x="456.36" y="-58.3" font-family="Helvetica,sans-Serif" font-size="1.00" fill="#383838"> </text>
</g>
<!-- LogGroup::flowlog -->
<g id="node1" class="node">
<title>LogGroup::flowlog</title>
<polygon fill="#e5e5e5" stroke="#dddddd" points="889,-377 646,-377 646,-319 889,-319 889,-377"/>
<text text-anchor="start" x="658.5" y="-357.2" font-family="Helvetica,sans-Serif" font-weight="bold" font-size="16.00" fill="#707070">CloudWatchLogs::LogGroup</text>
<text text-anchor="start" x="658.5" y="-332.2" font-family="Helvetica,sans-Serif" font-size="16.00" fill="#383838">flowlog</text>
</g>
<!-- FlowLogs::fl4vpc -->
<g id="node2" class="node">
<title>FlowLogs::fl4vpc</title>
<polygon fill="#e5e5e5" stroke="#dddddd" points="545,-377 404,-377 404,-319 545,-319 545,-377"/>
<text text-anchor="start" x="416.5" y="-357.2" font-family="Helvetica,sans-Serif" font-weight="bold" font-size="16.00" fill="#707070">EC2::FlowLogs</text>
<text text-anchor="start" x="416.5" y="-332.2" font-family="Helvetica,sans-Serif" font-size="16.00" fill="#383838">fl4vpc</text>
</g>
<!-- FlowLogs::fl4vpc&#45;&gt;LogGroup::flowlog -->
<g id="edge3" class="edge">
<title>FlowLogs::fl4vpc&#45;&gt;LogGroup::flowlog</title>
<path fill="none" stroke="#707070" d="M545.2,-348C572.44,-348 604.59,-348 635.82,-348"/>
<polygon fill="#707070" stroke="#707070" points="635.92,-351.5 645.92,-348 635.92,-344.5 635.92,-351.5"/>
</g>
<!-- Vpc::project&#45;vpc -->
<g id="node3" class="node">
<title>Vpc::project&#45;vpc</title>
<polygon fill="#e5e5e5" stroke="#dddddd" points="819.5,-215 715.5,-215 715.5,-157 819.5,-157 819.5,-215"/>
<text text-anchor="start" x="727.5" y="-195.2" font-family="Helvetica,sans-Serif" font-weight="bold" font-size="16.00" fill="#707070">EC2::Vpc</text>
<text text-anchor="start" x="727.5" y="-170.2" font-family="Helvetica,sans-Serif" font-size="16.00" fill="#383838">project&#45;vpc</text>
</g>
<!-- FlowLogs::fl4vpc&#45;&gt;Vpc::project&#45;vpc -->
<g id="edge1" class="edge">
<title>FlowLogs::fl4vpc&#45;&gt;Vpc::project&#45;vpc</title>
<path fill="none" stroke="#707070" d="M545.06,-336.88C567.71,-330.53 591.71,-320.58 610,-305 636.93,-282.06 619.88,-257.86 646,-234 662.72,-218.72 684.9,-208.04 705.67,-200.7"/>
<polygon fill="#707070" stroke="#707070" points="707.02,-203.94 715.41,-197.46 704.81,-197.3 707.02,-203.94"/>
</g>
<!-- Role::flow&#45;role -->
<g id="node10" class="node">
<title>Role::flow&#45;role</title>
<polygon fill="#e5e5e5" stroke="#dddddd" points="817,-301 718,-301 718,-243 817,-243 817,-301"/>
<text text-anchor="start" x="730.5" y="-281.2" font-family="Helvetica,sans-Serif" font-weight="bold" font-size="16.00" fill="#707070">IAM::Role</text>
<text text-anchor="start" x="730.5" y="-256.2" font-family="Helvetica,sans-Serif" font-size="16.00" fill="#383838">flow&#45;role</text>
</g>
<!-- FlowLogs::fl4vpc&#45;&gt;Role::flow&#45;role -->
<g id="edge2" class="edge">
<title>FlowLogs::fl4vpc&#45;&gt;Role::flow&#45;role</title>
<path fill="none" stroke="#707070" d="M545.2,-329.8C594.96,-316.8 661.14,-299.52 708.12,-287.25"/>
<polygon fill="#707070" stroke="#707070" points="709.05,-290.62 717.85,-284.71 707.29,-283.85 709.05,-290.62"/>
</g>
<!-- InternetGateway::project&#45;igw -->
<g id="node4" class="node">
<title>InternetGateway::project&#45;igw</title>
<polygon fill="#e5e5e5" stroke="#dddddd" points="570,-281 379,-281 379,-223 570,-223 570,-281"/>
<text text-anchor="start" x="391.5" y="-261.2" font-family="Helvetica,sans-Serif" font-weight="bold" font-size="16.00" fill="#707070">EC2::InternetGateway</text>
<text text-anchor="start" x="391.5" y="-236.2" font-family="Helvetica,sans-Serif" font-size="16.00" fill="#383838">project&#45;igw</text>
</g>
<!-- InternetGatewayAttachment::ig&#45;attach::project&#45;igw::project&#45;vpc -->
<g id="node5" class="node">
<title>InternetGatewayAttachment::ig&#45;attach::project&#45;igw::project&#45;vpc</title>
<polygon fill="#e5e5e5" stroke="#dddddd" points="303,-305 24,-305 24,-247 303,-247 303,-305"/>
<text text-anchor="start" x="36.5" y="-285.2" font-family="Helvetica,sans-Serif" font-weight="bold" font-size="16.00" fill="#707070">EC2::InternetGatewayAttachment</text>
<text text-anchor="start" x="36.5" y="-260.2" font-family="Helvetica,sans-Serif" font-size="16.00" fill="#383838">ig&#45;attach::project&#45;igw::project&#45;...</text>
</g>
<!-- InternetGatewayAttachment::ig&#45;attach::project&#45;igw::project&#45;vpc&#45;&gt;Vpc::project&#45;vpc -->
<g id="edge4" class="edge">
<title>InternetGatewayAttachment::ig&#45;attach::project&#45;igw::project&#45;vpc&#45;&gt;Vpc::project&#45;vpc</title>
<path fill="none" stroke="#707070" d="M303.08,-295.39C413.9,-308.16 558.89,-317.9 610,-290 635.97,-275.82 623.17,-252.82 646,-234 663.25,-219.78 685.25,-209.37 705.71,-201.96"/>
<polygon fill="#707070" stroke="#707070" points="706.98,-205.22 715.29,-198.66 704.7,-198.6 706.98,-205.22"/>
</g>
<!-- InternetGatewayAttachment::ig&#45;attach::project&#45;igw::project&#45;vpc&#45;&gt;InternetGateway::project&#45;igw -->
<g id="edge5" class="edge">
<title>InternetGatewayAttachment::ig&#45;attach::project&#45;igw::project&#45;vpc&#45;&gt;InternetGateway::project&#45;igw</title>
<path fill="none" stroke="#707070" d="M303.18,-265.23C325.1,-263.53 347.46,-261.79 368.45,-260.16"/>
<polygon fill="#707070" stroke="#707070" points="368.94,-263.63 378.63,-259.37 368.39,-256.65 368.94,-263.63"/>
</g>
<!-- Subnet::project&#45;subnet&#45;public1&#45;us&#45;east&#45;1a -->
<g id="node6" class="node">
<title>Subnet::project&#45;subnet&#45;public1&#45;us&#45;east&#45;1a</title>
<polygon fill="#e5e5e5" stroke="#dddddd" points="610,-129 339,-129 339,-71 610,-71 610,-129"/>
<text text-anchor="start" x="351.5" y="-109.2" font-family="Helvetica,sans-Serif" font-weight="bold" font-size="16.00" fill="#707070">EC2::Subnet</text>
<text text-anchor="start" x="351.5" y="-84.2" font-family="Helvetica,sans-Serif" font-size="16.00" fill="#383838">project&#45;subnet&#45;public1&#45;us&#45;east&#45;1...</text>
</g>
<!-- Subnet::project&#45;subnet&#45;public1&#45;us&#45;east&#45;1a&#45;&gt;Vpc::project&#45;vpc -->
<g id="edge6" class="edge">
<title>Subnet::project&#45;subnet&#45;public1&#45;us&#45;east&#45;1a&#45;&gt;Vpc::project&#45;vpc</title>
<path fill="none" stroke="#707070" d="M579.1,-129.02C589.55,-132.02 599.99,-135.05 610,-138 641.72,-147.34 676.93,-158.11 705.91,-167.07"/>
<polygon fill="#707070" stroke="#707070" points="704.9,-170.42 715.49,-170.04 706.97,-163.74 704.9,-170.42"/>
</g>
<!-- RouteTable::project&#45;rtb&#45;public -->
<g id="node7" class="node">
<title>RouteTable::project&#45;rtb&#45;public</title>
<polygon fill="#e5e5e5" stroke="#dddddd" points="550,-205 399,-205 399,-147 550,-147 550,-205"/>
<text text-anchor="start" x="411.5" y="-185.2" font-family="Helvetica,sans-Serif" font-weight="bold" font-size="16.00" fill="#707070">EC2::RouteTable</text>
<text text-anchor="start" x="411.5" y="-160.2" font-family="Helvetica,sans-Serif" font-size="16.00" fill="#383838">project&#45;rtb&#45;public</text>
</g>
<!-- RouteTable::project&#45;rtb&#45;public&#45;&gt;Vpc::project&#45;vpc -->
<g id="edge7" class="edge">
<title>RouteTable::project&#45;rtb&#45;public&#45;&gt;Vpc::project&#45;vpc</title>
<path fill="none" stroke="#707070" d="M550.06,-178.56C598.02,-180.21 659.6,-182.33 704.8,-183.88"/>
<polygon fill="#707070" stroke="#707070" points="704.94,-187.39 715.06,-184.23 705.18,-180.39 704.94,-187.39"/>
</g>
<!-- RouteTableAssociation::rt&#45;assoc::project&#45;rtb&#45;public::project&#45;subnet&#45;public1&#45;us&#45;east&#45;1a -->
<g id="node8" class="node">
<title>RouteTableAssociation::rt&#45;assoc::project&#45;rtb&#45;public::project&#45;subnet&#45;public1&#45;us&#45;east&#45;1a</title>
<polygon fill="#e5e5e5" stroke="#dddddd" points="287.5,-153 39.5,-153 39.5,-95 287.5,-95 287.5,-153"/>
<text text-anchor="start" x="51.5" y="-133.2" font-family="Helvetica,sans-Serif" font-weight="bold" font-size="16.00" fill="#707070">EC2::RouteTableAssociation</text>
<text text-anchor="start" x="51.5" y="-108.2" font-family="Helvetica,sans-Serif" font-size="16.00" fill="#383838">rt&#45;assoc::project&#45;rtb&#45;public::pr...</text>
</g>
<!-- RouteTableAssociation::rt&#45;assoc::project&#45;rtb&#45;public::project&#45;subnet&#45;public1&#45;us&#45;east&#45;1a&#45;&gt;Subnet::project&#45;subnet&#45;public1&#45;us&#45;east&#45;1a -->
<g id="edge9" class="edge">
<title>RouteTableAssociation::rt&#45;assoc::project&#45;rtb&#45;public::project&#45;subnet&#45;public1&#45;us&#45;east&#45;1a&#45;&gt;Subnet::project&#45;subnet&#45;public1&#45;us&#45;east&#45;1a</title>
<path fill="none" stroke="#707070" d="M287.51,-114.45C301.12,-113.39 315.07,-112.3 328.92,-111.23"/>
<polygon fill="#707070" stroke="#707070" points="329.28,-114.71 338.97,-110.45 328.73,-107.73 329.28,-114.71"/>
</g>
<!-- RouteTableAssociation::rt&#45;assoc::project&#45;rtb&#45;public::project&#45;subnet&#45;public1&#45;us&#45;east&#45;1a&#45;&gt;RouteTable::project&#45;rtb&#45;public -->
<g id="edge8" class="edge">
<title>RouteTableAssociation::rt&#45;assoc::project&#45;rtb&#45;public::project&#45;subnet&#45;public1&#45;us&#45;east&#45;1a&#45;&gt;RouteTable::project&#45;rtb&#45;public</title>
<path fill="none" stroke="#707070" d="M287.51,-144.7C321.53,-150.43 357.68,-156.51 388.97,-161.77"/>
<polygon fill="#707070" stroke="#707070" points="388.5,-165.25 398.95,-163.45 389.67,-158.34 388.5,-165.25"/>
</g>
<!-- Route::project&#45;rtb&#45;public&#45;igw&#45;0.0.0.0/0 -->
<g id="node9" class="node">
<title>Route::project&#45;rtb&#45;public&#45;igw&#45;0.0.0.0/0</title>
<polygon fill="#e5e5e5" stroke="#dddddd" points="291.5,-229 35.5,-229 35.5,-171 291.5,-171 291.5,-229"/>
<text text-anchor="start" x="47.5" y="-209.2" font-family="Helvetica,sans-Serif" font-weight="bold" font-size="16.00" fill="#707070">EC2::Route</text>
<text text-anchor="start" x="47.5" y="-184.2" font-family="Helvetica,sans-Serif" font-size="16.00" fill="#383838">project&#45;rtb&#45;public&#45;igw&#45;0.0.0.0/0...</text>
</g>
<!-- Route::project&#45;rtb&#45;public&#45;igw&#45;0.0.0.0/0&#45;&gt;InternetGateway::project&#45;igw -->
<g id="edge11" class="edge">
<title>Route::project&#45;rtb&#45;public&#45;igw&#45;0.0.0.0/0&#45;&gt;InternetGateway::project&#45;igw</title>
<path fill="none" stroke="#707070" d="M291.52,-221.38C317.12,-225.68 343.77,-230.17 368.51,-234.33"/>
<polygon fill="#707070" stroke="#707070" points="368.18,-237.83 378.63,-236.03 369.35,-230.92 368.18,-237.83"/>
</g>
<!-- Route::project&#45;rtb&#45;public&#45;igw&#45;0.0.0.0/0&#45;&gt;RouteTable::project&#45;rtb&#45;public -->
<g id="edge10" class="edge">
<title>Route::project&#45;rtb&#45;public&#45;igw&#45;0.0.0.0/0&#45;&gt;RouteTable::project&#45;rtb&#45;public</title>
<path fill="none" stroke="#707070" d="M291.52,-190.13C324.27,-187.59 358.73,-184.91 388.74,-182.58"/>
<polygon fill="#707070" stroke="#707070" points="389.04,-186.07 398.74,-181.81 388.49,-179.09 389.04,-186.07"/>
</g>
</g>
</svg>
