<?xml version="1.0" encoding="UTF-8" standalone="no"?>
<!DOCTYPE svg PUBLIC "-//W3C//DTD SVG 1.1//EN"
 "http://www.w3.org/Graphics/SVG/1.1/DTD/svg11.dtd">
<!-- Generated by graphviz version 3.0.0 (20220226.1711)
 -->
<!-- Title: graphname Pages: 1 -->
<svg width="942pt" height="458pt"
 viewBox="0.00 0.00 942.00 458.00" xmlns="http://www.w3.org/2000/svg" xmlns:xlink="http://www.w3.org/1999/xlink">
<g id="graph0" class="graph" transform="scale(1 1) rotate(0) translate(4 454)">
<title>graphname</title>
<polygon fill="#fafafa" stroke="transparent" points="-4,4 -4,-454 938,-454 938,4 -4,4"/>
<text text-anchor="start" x="272" y="-425.4" font-family="Helvetica,sans-Serif" font-weight="bold" font-size="22.00" fill="#383838">Project vpc&#45;association&#45;authorization</text>
<text text-anchor="start" x="463.5" y="-409.8" font-family="Helvetica,sans-Serif" font-size="14.00"> &#160;</text>
<text text-anchor="start" x="272" y="-388.2" font-family="Helvetica,sans-Serif" font-weight="bold" font-size="16.00" fill="#707070">Live Diagram</text>
<g id="clust1" class="cluster">
<title>cluster_aws&#45;primary</title>
<polygon fill="#f5f5f5" stroke="#f5f5f5" points="8,-8 8,-221 926,-221 926,-8 8,-8"/>
<text text-anchor="start" x="365" y="-23" font-family="Helvetica,sans-Serif" font-weight="bold" font-size="20.00" fill="#707070">Provider aws&#45;primary</text>
</g>
<g id="clust2" class="cluster">
<title>cluster_aws&#45;primary_</title>
<polygon fill="#eeeeee" stroke="#eeeeee" points="16,-54 16,-213 918,-213 918,-54 16,-54"/>
<text text-anchor="start" x="466.86" y="-58.3" font-family="Helvetica,sans-Serif" font-size="1.00" fill="#383838"> </text>
</g>
<g id="clust3" class="cluster">
<title>cluster_aws&#45;secondary</title>
<polygon fill="#f5f5f5" stroke="#f5f5f5" points="36,-229 36,-366 579,-366 579,-229 36,-229"/>
<text text-anchor="start" x="192.5" y="-244" font-family="Helvetica,sans-Serif" font-weight="bold" font-size="20.00" fill="#707070">Provider aws&#45;secondary</text>
</g>
<g id="clust4" class="cluster">
<title>cluster_aws&#45;secondary_</title>
<polygon fill="#eeeeee" stroke="#eeeeee" points="44,-275 44,-358 571,-358 571,-275 44,-275"/>
<text text-anchor="start" x="307.36" y="-279.3" font-family="Helvetica,sans-Serif" font-size="1.00" fill="#383838"> </text>
</g>
<!-- Vpc::::vpc&#45;hostedzone -->
<g id="node1" class="node">
<title>Vpc::::vpc&#45;hostedzone</title>
<polygon fill="#e5e5e5" stroke="#dddddd" points="867.5,-129 728.5,-129 728.5,-71 867.5,-71 867.5,-129"/>
<text text-anchor="start" x="741" y="-109.2" font-family="Helvetica,sans-Serif" font-weight="bold" font-size="16.00" fill="#707070">EC2::Vpc</text>
<text text-anchor="start" x="741" y="-84.2" font-family="Helvetica,sans-Serif" font-size="16.00" fill="#383838">vpc&#45;hostedzone</text>
</g>
<!-- HostedZone::::test.grucloud.org.::vpc&#45;hostedzone -->
<g id="node2" class="node">
<title>HostedZone::::test.grucloud.org.::vpc&#45;hostedzone</title>
<polygon fill="#e5e5e5" stroke="#dddddd" points="650,-167 381,-167 381,-109 650,-109 650,-167"/>
<text text-anchor="start" x="393.5" y="-147.2" font-family="Helvetica,sans-Serif" font-weight="bold" font-size="16.00" fill="#707070">Route53::HostedZone</text>
<text text-anchor="start" x="393.5" y="-122.2" font-family="Helvetica,sans-Serif" font-size="16.00" fill="#383838">test.grucloud.org.::vpc&#45;hostedzo...</text>
</g>
<!-- HostedZone::::test.grucloud.org.::vpc&#45;hostedzone&#45;&gt;Vpc::::vpc&#45;hostedzone -->
<g id="edge2" class="edge">
<title>HostedZone::::test.grucloud.org.::vpc&#45;hostedzone&#45;&gt;Vpc::::vpc&#45;hostedzone</title>
<path fill="none" stroke="#707070" d="M650.18,-119.89C673.57,-116.72 697.2,-113.52 718.47,-110.64"/>
<polygon fill="#707070" stroke="#707070" points="718.94,-114.11 728.38,-109.3 718,-107.17 718.94,-114.11"/>
</g>
<!-- Domain::::grucloud.org -->
<g id="node4" class="node">
<title>Domain::::grucloud.org</title>
<polygon fill="#e5e5e5" stroke="#dddddd" points="910,-205 686,-205 686,-147 910,-147 910,-205"/>
<text text-anchor="start" x="698" y="-185.2" font-family="Helvetica,sans-Serif" font-weight="bold" font-size="16.00" fill="#707070">Route53Domains::Domain</text>
<text text-anchor="start" x="698" y="-160.2" font-family="Helvetica,sans-Serif" font-size="16.00" fill="#383838">grucloud.org</text>
</g>
<!-- HostedZone::::test.grucloud.org.::vpc&#45;hostedzone&#45;&gt;Domain::::grucloud.org -->
<g id="edge1" class="edge">
<title>HostedZone::::test.grucloud.org.::vpc&#45;hostedzone&#45;&gt;Domain::::grucloud.org</title>
<path fill="none" stroke="#707070" d="M650.18,-156.11C658.6,-157.25 667.06,-158.4 675.43,-159.53"/>
<polygon fill="#707070" stroke="#707070" points="675.21,-163.03 685.58,-160.91 676.15,-156.1 675.21,-163.03"/>
</g>
<!-- VpcAssociationAuthorization::::vpc&#45;assoc&#45;auth::test.grucloud.org.::vpc&#45;hostedzone::vpc&#45;dev -->
<g id="node3" class="node">
<title>VpcAssociationAuthorization::::vpc&#45;assoc&#45;auth::test.grucloud.org.::vpc&#45;hostedzone::vpc&#45;dev</title>
<polygon fill="#e5e5e5" stroke="#dddddd" points="345,-167 24,-167 24,-109 345,-109 345,-167"/>
<text text-anchor="start" x="36.5" y="-147.2" font-family="Helvetica,sans-Serif" font-weight="bold" font-size="16.00" fill="#707070">Route53::VpcAssociationAuthorization</text>
<text text-anchor="start" x="36.5" y="-122.2" font-family="Helvetica,sans-Serif" font-size="16.00" fill="#383838">vpc&#45;assoc&#45;auth::test.grucloud.or...</text>
</g>
<!-- VpcAssociationAuthorization::::vpc&#45;assoc&#45;auth::test.grucloud.org.::vpc&#45;hostedzone::vpc&#45;dev&#45;&gt;HostedZone::::test.grucloud.org.::vpc&#45;hostedzone -->
<g id="edge3" class="edge">
<title>VpcAssociationAuthorization::::vpc&#45;assoc&#45;auth::test.grucloud.org.::vpc&#45;hostedzone::vpc&#45;dev&#45;&gt;HostedZone::::test.grucloud.org.::vpc&#45;hostedzone</title>
<path fill="none" stroke="#707070" d="M345.18,-138C353.68,-138 362.19,-138 370.63,-138"/>
<polygon fill="#707070" stroke="#707070" points="370.89,-141.5 380.89,-138 370.89,-134.5 370.89,-141.5"/>
</g>
<!-- Vpc::::vpc&#45;dev -->
<g id="node5" class="node">
<title>Vpc::::vpc&#45;dev</title>
<polygon fill="#e5e5e5" stroke="#dddddd" points="563,-350 468,-350 468,-292 563,-292 563,-350"/>
<text text-anchor="start" x="480.5" y="-330.2" font-family="Helvetica,sans-Serif" font-weight="bold" font-size="16.00" fill="#707070">EC2::Vpc</text>
<text text-anchor="start" x="480.5" y="-305.2" font-family="Helvetica,sans-Serif" font-size="16.00" fill="#383838">vpc&#45;dev</text>
</g>
<!-- ZoneVpcAssociation::::zone&#45;assoc::test.grucloud.org.::vpc&#45;hostedzone::vpc&#45;dev -->
<g id="node6" class="node">
<title>ZoneVpcAssociation::::zone&#45;assoc::test.grucloud.org.::vpc&#45;hostedzone::vpc&#45;dev</title>
<polygon fill="#e5e5e5" stroke="#dddddd" points="317,-350 52,-350 52,-292 317,-292 317,-350"/>
<text text-anchor="start" x="64.5" y="-330.2" font-family="Helvetica,sans-Serif" font-weight="bold" font-size="16.00" fill="#707070">Route53::ZoneVpcAssociation</text>
<text text-anchor="start" x="64.5" y="-305.2" font-family="Helvetica,sans-Serif" font-size="16.00" fill="#383838">zone&#45;assoc::test.grucloud.org.::...</text>
</g>
<!-- ZoneVpcAssociation::::zone&#45;assoc::test.grucloud.org.::vpc&#45;hostedzone::vpc&#45;dev&#45;&gt;Vpc::::vpc&#45;dev -->
<g id="edge4" class="edge">
<title>ZoneVpcAssociation::::zone&#45;assoc::test.grucloud.org.::vpc&#45;hostedzone::vpc&#45;dev&#45;&gt;Vpc::::vpc&#45;dev</title>
<path fill="none" stroke="#707070" d="M317.42,-321C366.32,-321 419.23,-321 457.9,-321"/>
<polygon fill="#707070" stroke="#707070" points="457.91,-324.5 467.91,-321 457.91,-317.5 457.91,-324.5"/>
</g>
</g>
</svg>
