<?xml version="1.0" encoding="UTF-8" standalone="no"?>
<!DOCTYPE svg PUBLIC "-//W3C//DTD SVG 1.1//EN"
 "http://www.w3.org/Graphics/SVG/1.1/DTD/svg11.dtd">
<!-- Generated by graphviz version 3.0.0 (20220226.1711)
 -->
<!-- Title: graphname Pages: 1 -->
<svg width="863pt" height="458pt"
 viewBox="0.00 0.00 863.00 458.00" xmlns="http://www.w3.org/2000/svg" xmlns:xlink="http://www.w3.org/1999/xlink">
<g id="graph0" class="graph" transform="scale(1 1) rotate(0) translate(4 454)">
<title>graphname</title>
<polygon fill="#fafafa" stroke="transparent" points="-4,4 -4,-454 859,-454 859,4 -4,4"/>
<text text-anchor="start" x="232.5" y="-425.4" font-family="Helvetica,sans-Serif" font-weight="bold" font-size="22.00" fill="#383838">Project vpc&#45;association&#45;authorization</text>
<text text-anchor="start" x="424" y="-409.8" font-family="Helvetica,sans-Serif" font-size="14.00"> &#160;</text>
<text text-anchor="start" x="232.5" y="-388.2" font-family="Helvetica,sans-Serif" font-weight="bold" font-size="16.00" fill="#707070">Live Diagram</text>
<g id="clust1" class="cluster">
<title>cluster_aws&#45;primary</title>
<polygon fill="#f5f5f5" stroke="#f5f5f5" points="8,-8 8,-221 847,-221 847,-8 8,-8"/>
<text text-anchor="start" x="325.5" y="-23" font-family="Helvetica,sans-Serif" font-weight="bold" font-size="20.00" fill="#707070">Provider aws&#45;primary</text>
</g>
<g id="clust2" class="cluster">
<title>cluster_aws&#45;primary_</title>
<polygon fill="#eeeeee" stroke="#eeeeee" points="16,-54 16,-213 839,-213 839,-54 16,-54"/>
<text text-anchor="start" x="427.36" y="-58.3" font-family="Helvetica,sans-Serif" font-size="1.00" fill="#383838"> </text>
</g>
<g id="clust3" class="cluster">
<title>cluster_aws&#45;secondary</title>
<polygon fill="#f5f5f5" stroke="#f5f5f5" points="36,-229 36,-366 539.5,-366 539.5,-229 36,-229"/>
<text text-anchor="start" x="172.75" y="-244" font-family="Helvetica,sans-Serif" font-weight="bold" font-size="20.00" fill="#707070">Provider aws&#45;secondary</text>
</g>
<g id="clust4" class="cluster">
<title>cluster_aws&#45;secondary_</title>
<polygon fill="#eeeeee" stroke="#eeeeee" points="44,-275 44,-358 531.5,-358 531.5,-275 44,-275"/>
<text text-anchor="start" x="287.61" y="-279.3" font-family="Helvetica,sans-Serif" font-size="1.00" fill="#383838"> </text>
</g>
<!-- Vpc::::vpc&#45;hostedzone -->
<g id="node1" class="node">
<title>Vpc::::vpc&#45;hostedzone</title>
<polygon fill="#e5e5e5" stroke="#dddddd" points="788.5,-129 649.5,-129 649.5,-71 788.5,-71 788.5,-129"/>
<text text-anchor="start" x="662" y="-109.2" font-family="Helvetica,sans-Serif" font-weight="bold" font-size="16.00" fill="#707070">EC2::Vpc</text>
<text text-anchor="start" x="662" y="-84.2" font-family="Helvetica,sans-Serif" font-size="16.00" fill="#383838">vpc&#45;hostedzone</text>
</g>
<!-- HostedZone::::test.grucloud.org. -->
<g id="node2" class="node">
<title>HostedZone::::test.grucloud.org.</title>
<polygon fill="#e5e5e5" stroke="#dddddd" points="571,-167 381,-167 381,-109 571,-109 571,-167"/>
<text text-anchor="start" x="393" y="-147.2" font-family="Helvetica,sans-Serif" font-weight="bold" font-size="16.00" fill="#707070">Route53::HostedZone</text>
<text text-anchor="start" x="393" y="-122.2" font-family="Helvetica,sans-Serif" font-size="16.00" fill="#383838">test.grucloud.org.</text>
</g>
<!-- HostedZone::::test.grucloud.org.&#45;&gt;Vpc::::vpc&#45;hostedzone -->
<g id="edge2" class="edge">
<title>HostedZone::::test.grucloud.org.&#45;&gt;Vpc::::vpc&#45;hostedzone</title>
<path fill="none" stroke="#707070" d="M571.21,-123.14C593.66,-119.6 617.4,-115.86 639.08,-112.44"/>
<polygon fill="#707070" stroke="#707070" points="639.88,-115.86 649.22,-110.85 638.79,-108.95 639.88,-115.86"/>
</g>
<!-- Domain::::grucloud.org -->
<g id="node4" class="node">
<title>Domain::::grucloud.org</title>
<polygon fill="#e5e5e5" stroke="#dddddd" points="831,-205 607,-205 607,-147 831,-147 831,-205"/>
<text text-anchor="start" x="619" y="-185.2" font-family="Helvetica,sans-Serif" font-weight="bold" font-size="16.00" fill="#707070">Route53Domains::Domain</text>
<text text-anchor="start" x="619" y="-160.2" font-family="Helvetica,sans-Serif" font-size="16.00" fill="#383838">grucloud.org</text>
</g>
<!-- HostedZone::::test.grucloud.org.&#45;&gt;Domain::::grucloud.org -->
<g id="edge1" class="edge">
<title>HostedZone::::test.grucloud.org.&#45;&gt;Domain::::grucloud.org</title>
<path fill="none" stroke="#707070" d="M571.21,-152.86C579.56,-154.17 588.09,-155.52 596.62,-156.86"/>
<polygon fill="#707070" stroke="#707070" points="596.21,-160.34 606.63,-158.44 597.3,-153.43 596.21,-160.34"/>
</g>
<!-- VpcAssociationAuthorization::::vpc&#45;assoc&#45;auth::test.grucloud.org.::vpc&#45;dev -->
<g id="node3" class="node">
<title>VpcAssociationAuthorization::::vpc&#45;assoc&#45;auth::test.grucloud.org.::vpc&#45;dev</title>
<polygon fill="#e5e5e5" stroke="#dddddd" points="345,-167 24,-167 24,-109 345,-109 345,-167"/>
<text text-anchor="start" x="36.5" y="-147.2" font-family="Helvetica,sans-Serif" font-weight="bold" font-size="16.00" fill="#707070">Route53::VpcAssociationAuthorization</text>
<text text-anchor="start" x="36.5" y="-122.2" font-family="Helvetica,sans-Serif" font-size="16.00" fill="#383838">vpc&#45;assoc&#45;auth::test.grucloud.or...</text>
</g>
<!-- VpcAssociationAuthorization::::vpc&#45;assoc&#45;auth::test.grucloud.org.::vpc&#45;dev&#45;&gt;HostedZone::::test.grucloud.org. -->
<g id="edge3" class="edge">
<title>VpcAssociationAuthorization::::vpc&#45;assoc&#45;auth::test.grucloud.org.::vpc&#45;dev&#45;&gt;HostedZone::::test.grucloud.org.</title>
<path fill="none" stroke="#707070" d="M345.07,-138C353.74,-138 362.33,-138 370.73,-138"/>
<polygon fill="#707070" stroke="#707070" points="370.86,-141.5 380.86,-138 370.86,-134.5 370.86,-141.5"/>
</g>
<!-- Vpc::::vpc&#45;dev -->
<g id="node5" class="node">
<title>Vpc::::vpc&#45;dev</title>
<polygon fill="#e5e5e5" stroke="#dddddd" points="523.5,-350 428.5,-350 428.5,-292 523.5,-292 523.5,-350"/>
<text text-anchor="start" x="441" y="-330.2" font-family="Helvetica,sans-Serif" font-weight="bold" font-size="16.00" fill="#707070">EC2::Vpc</text>
<text text-anchor="start" x="441" y="-305.2" font-family="Helvetica,sans-Serif" font-size="16.00" fill="#383838">vpc&#45;dev</text>
</g>
<!-- ZoneVpcAssociation::::zone&#45;assoc::test.grucloud.org.::vpc&#45;dev -->
<g id="node6" class="node">
<title>ZoneVpcAssociation::::zone&#45;assoc::test.grucloud.org.::vpc&#45;dev</title>
<polygon fill="#e5e5e5" stroke="#dddddd" points="317,-350 52,-350 52,-292 317,-292 317,-350"/>
<text text-anchor="start" x="64.5" y="-330.2" font-family="Helvetica,sans-Serif" font-weight="bold" font-size="16.00" fill="#707070">Route53::ZoneVpcAssociation</text>
<text text-anchor="start" x="64.5" y="-305.2" font-family="Helvetica,sans-Serif" font-size="16.00" fill="#383838">zone&#45;assoc::test.grucloud.org.::...</text>
</g>
<!-- ZoneVpcAssociation::::zone&#45;assoc::test.grucloud.org.::vpc&#45;dev&#45;&gt;Vpc::::vpc&#45;dev -->
<g id="edge4" class="edge">
<title>ZoneVpcAssociation::::zone&#45;assoc::test.grucloud.org.::vpc&#45;dev&#45;&gt;Vpc::::vpc&#45;dev</title>
<path fill="none" stroke="#707070" d="M317.12,-321C352.51,-321 388.95,-321 417.89,-321"/>
<polygon fill="#707070" stroke="#707070" points="418.2,-324.5 428.2,-321 418.2,-317.5 418.2,-324.5"/>
</g>
</g>
</svg>
