<?xml version="1.0" encoding="UTF-8" standalone="no"?>
<!DOCTYPE svg PUBLIC "-//W3C//DTD SVG 1.1//EN"
 "http://www.w3.org/Graphics/SVG/1.1/DTD/svg11.dtd">
<!-- Generated by graphviz version 2.44.1 (20200629.0846)
 -->
<!-- Title: graphname Pages: 1 -->
<svg width="421pt" height="768pt"
 viewBox="0.00 0.00 421.00 768.00" xmlns="http://www.w3.org/2000/svg" xmlns:xlink="http://www.w3.org/1999/xlink">
<g id="graph0" class="graph" transform="scale(1 1) rotate(0) translate(4 764)">
<title>graphname</title>
<polygon fill="white" stroke="transparent" points="-4,4 -4,-764 417,-764 417,4 -4,4"/>
<g id="clust1" class="cluster">
<title>cluster_aws</title>
<polygon fill="none" stroke="#383838" points="8,-8 8,-752 405,-752 405,-8 8,-8"/>
<text text-anchor="start" x="187" y="-733" font-family="Helvetica,sans-Serif" font-weight="bold" font-size="20.00" fill="#383838">aws</text>
</g>
<!-- S3Bucket::grucloud&#45;test&#45;basic -->
<g id="node1" class="node">
<title>S3Bucket::grucloud&#45;test&#45;basic</title>
<polygon fill="none" stroke="#383838" points="397,-648.5 258,-648.5 258,-601.5 397,-601.5 397,-648.5"/>
<text text-anchor="start" x="270.5" y="-633" font-family="Helvetica,sans-Serif" font-weight="bold" font-size="10.00" fill="#707070">S3Bucket</text>
<text text-anchor="start" x="270.5" y="-612.6" font-family="Helvetica,sans-Serif" font-size="13.00" fill="#383838">grucloud&#45;test&#45;basic</text>
</g>
<!-- S3Bucket::grucloud&#45;log&#45;destination -->
<g id="node2" class="node">
<title>S3Bucket::grucloud&#45;log&#45;destination</title>
<polygon fill="none" stroke="#383838" points="203.5,-713.5 34.5,-713.5 34.5,-666.5 203.5,-666.5 203.5,-713.5"/>
<text text-anchor="start" x="47" y="-698" font-family="Helvetica,sans-Serif" font-weight="bold" font-size="10.00" fill="#707070">S3Bucket</text>
<text text-anchor="start" x="47" y="-677.6" font-family="Helvetica,sans-Serif" font-size="13.00" fill="#383838">grucloud&#45;log&#45;destination</text>
</g>
<!-- S3Object::file&#45;test -->
<g id="node3" class="node">
<title>S3Object::file&#45;test</title>
<polygon fill="none" stroke="#383838" points="153,-648.5 85,-648.5 85,-601.5 153,-601.5 153,-648.5"/>
<text text-anchor="start" x="97" y="-633" font-family="Helvetica,sans-Serif" font-weight="bold" font-size="10.00" fill="#707070">S3Object</text>
<text text-anchor="start" x="97" y="-612.6" font-family="Helvetica,sans-Serif" font-size="13.00" fill="#383838">file&#45;test</text>
</g>
<!-- S3Object::file&#45;test&#45;&gt;S3Bucket::grucloud&#45;test&#45;basic -->
<g id="edge1" class="edge">
<title>S3Object::file&#45;test&#45;&gt;S3Bucket::grucloud&#45;test&#45;basic</title>
<path fill="none" stroke="#383838" d="M153.18,-625C178.7,-625 215.03,-625 247.85,-625"/>
<polygon fill="#383838" stroke="#383838" points="247.9,-628.5 257.9,-625 247.9,-621.5 247.9,-628.5"/>
</g>
<!-- S3Bucket::grucloud&#45;acceleration -->
<g id="node4" class="node">
<title>S3Bucket::grucloud&#45;acceleration</title>
<polygon fill="none" stroke="#383838" points="196,-583.5 42,-583.5 42,-536.5 196,-536.5 196,-583.5"/>
<text text-anchor="start" x="54" y="-568" font-family="Helvetica,sans-Serif" font-weight="bold" font-size="10.00" fill="#707070">S3Bucket</text>
<text text-anchor="start" x="54" y="-547.6" font-family="Helvetica,sans-Serif" font-size="13.00" fill="#383838">grucloud&#45;acceleration</text>
</g>
<!-- S3Bucket::grucloud&#45;cors -->
<g id="node5" class="node">
<title>S3Bucket::grucloud&#45;cors</title>
<polygon fill="none" stroke="#383838" points="172,-518.5 66,-518.5 66,-471.5 172,-471.5 172,-518.5"/>
<text text-anchor="start" x="78" y="-503" font-family="Helvetica,sans-Serif" font-weight="bold" font-size="10.00" fill="#707070">S3Bucket</text>
<text text-anchor="start" x="78" y="-482.6" font-family="Helvetica,sans-Serif" font-size="13.00" fill="#383838">grucloud&#45;cors</text>
</g>
<!-- S3Bucket::grucloud&#45;encryption -->
<g id="node6" class="node">
<title>S3Bucket::grucloud&#45;encryption</title>
<polygon fill="none" stroke="#383838" points="190.5,-453.5 47.5,-453.5 47.5,-406.5 190.5,-406.5 190.5,-453.5"/>
<text text-anchor="start" x="60" y="-438" font-family="Helvetica,sans-Serif" font-weight="bold" font-size="10.00" fill="#707070">S3Bucket</text>
<text text-anchor="start" x="60" y="-417.6" font-family="Helvetica,sans-Serif" font-size="13.00" fill="#383838">grucloud&#45;encryption</text>
</g>
<!-- S3Bucket::grucloud&#45;lifecycleconfiguration -->
<g id="node7" class="node">
<title>S3Bucket::grucloud&#45;lifecycleconfiguration</title>
<polygon fill="none" stroke="#383838" points="222,-388.5 16,-388.5 16,-341.5 222,-341.5 222,-388.5"/>
<text text-anchor="start" x="28" y="-373" font-family="Helvetica,sans-Serif" font-weight="bold" font-size="10.00" fill="#707070">S3Bucket</text>
<text text-anchor="start" x="28" y="-352.6" font-family="Helvetica,sans-Serif" font-size="13.00" fill="#383838">grucloud&#45;lifecycleconfiguration</text>
</g>
<!-- S3Bucket::grucloud&#45;policy -->
<g id="node8" class="node">
<title>S3Bucket::grucloud&#45;policy</title>
<polygon fill="none" stroke="#383838" points="176.5,-323.5 61.5,-323.5 61.5,-276.5 176.5,-276.5 176.5,-323.5"/>
<text text-anchor="start" x="74" y="-308" font-family="Helvetica,sans-Serif" font-weight="bold" font-size="10.00" fill="#707070">S3Bucket</text>
<text text-anchor="start" x="74" y="-287.6" font-family="Helvetica,sans-Serif" font-size="13.00" fill="#383838">grucloud&#45;policy</text>
</g>
<!-- S3Bucket::grucloud&#45;request&#45;payment -->
<g id="node9" class="node">
<title>S3Bucket::grucloud&#45;request&#45;payment</title>
<polygon fill="none" stroke="#383838" points="209.5,-258.5 28.5,-258.5 28.5,-211.5 209.5,-211.5 209.5,-258.5"/>
<text text-anchor="start" x="41" y="-243" font-family="Helvetica,sans-Serif" font-weight="bold" font-size="10.00" fill="#707070">S3Bucket</text>
<text text-anchor="start" x="41" y="-222.6" font-family="Helvetica,sans-Serif" font-size="13.00" fill="#383838">grucloud&#45;request&#45;payment</text>
</g>
<!-- S3Bucket::grucloud&#45;tag -->
<g id="node10" class="node">
<title>S3Bucket::grucloud&#45;tag</title>
<polygon fill="none" stroke="#383838" points="169,-193.5 69,-193.5 69,-146.5 169,-146.5 169,-193.5"/>
<text text-anchor="start" x="81" y="-178" font-family="Helvetica,sans-Serif" font-weight="bold" font-size="10.00" fill="#707070">S3Bucket</text>
<text text-anchor="start" x="81" y="-157.6" font-family="Helvetica,sans-Serif" font-size="13.00" fill="#383838">grucloud&#45;tag</text>
</g>
<!-- S3Bucket::grucloud&#45;versioning -->
<g id="node11" class="node">
<title>S3Bucket::grucloud&#45;versioning</title>
<polygon fill="none" stroke="#383838" points="190,-128.5 48,-128.5 48,-81.5 190,-81.5 190,-128.5"/>
<text text-anchor="start" x="60" y="-113" font-family="Helvetica,sans-Serif" font-weight="bold" font-size="10.00" fill="#707070">S3Bucket</text>
<text text-anchor="start" x="60" y="-92.6" font-family="Helvetica,sans-Serif" font-size="13.00" fill="#383838">grucloud&#45;versioning</text>
</g>
<!-- S3Bucket::grucloud&#45;website -->
<g id="node12" class="node">
<title>S3Bucket::grucloud&#45;website</title>
<polygon fill="none" stroke="#383838" points="182.5,-63.5 55.5,-63.5 55.5,-16.5 182.5,-16.5 182.5,-63.5"/>
<text text-anchor="start" x="68" y="-48" font-family="Helvetica,sans-Serif" font-weight="bold" font-size="10.00" fill="#707070">S3Bucket</text>
<text text-anchor="start" x="68" y="-27.6" font-family="Helvetica,sans-Serif" font-size="13.00" fill="#383838">grucloud&#45;website</text>
</g>
</g>
</svg>
