<?xml version="1.0" encoding="UTF-8" standalone="no"?>
<!DOCTYPE svg PUBLIC "-//W3C//DTD SVG 1.1//EN"
 "http://www.w3.org/Graphics/SVG/1.1/DTD/svg11.dtd">
<!-- Generated by graphviz version 3.0.0 (20220226.1711)
 -->
<!-- Title: graphname Pages: 1 -->
<svg width="934pt" height="693pt"
 viewBox="0.00 0.00 934.00 693.00" xmlns="http://www.w3.org/2000/svg" xmlns:xlink="http://www.w3.org/1999/xlink">
<g id="graph0" class="graph" transform="scale(1 1) rotate(0) translate(4 689)">
<title>graphname</title>
<polygon fill="#fafafa" stroke="transparent" points="-4,4 -4,-689 930,-689 930,4 -4,4"/>
<text text-anchor="start" x="377" y="-660.4" font-family="Helvetica,sans-Serif" font-weight="bold" font-size="22.00" fill="#383838">Project postgres</text>
<text text-anchor="start" x="459.5" y="-644.8" font-family="Helvetica,sans-Serif" font-size="14.00"> &#160;</text>
<text text-anchor="start" x="377" y="-623.2" font-family="Helvetica,sans-Serif" font-weight="bold" font-size="16.00" fill="#707070">Live Diagram</text>
<g id="clust1" class="cluster">
<title>cluster_aws</title>
<polygon fill="#f5f5f5" stroke="#f5f5f5" points="8,-8 8,-601 918,-601 918,-8 8,-8"/>
<text text-anchor="start" x="401" y="-23" font-family="Helvetica,sans-Serif" font-weight="bold" font-size="20.00" fill="#707070">Provider aws</text>
</g>
<g id="clust2" class="cluster">
<title>cluster_aws_</title>
<polygon fill="#eeeeee" stroke="#eeeeee" points="16,-54 16,-593 910,-593 910,-54 16,-54"/>
<text text-anchor="start" x="462.86" y="-58.3" font-family="Helvetica,sans-Serif" font-size="1.00" fill="#383838"> </text>
</g>
<!-- InternetGateway::::ig&#45;postgres -->
<g id="node1" class="node">
<title>InternetGateway::::ig&#45;postgres</title>
<polygon fill="#e5e5e5" stroke="#dddddd" points="748,-585 557,-585 557,-527 748,-527 748,-585"/>
<text text-anchor="start" x="569.5" y="-565.2" font-family="Helvetica,sans-Serif" font-weight="bold" font-size="16.00" fill="#707070">EC2::InternetGateway</text>
<text text-anchor="start" x="569.5" y="-540.2" font-family="Helvetica,sans-Serif" font-size="16.00" fill="#383838">ig&#45;postgres</text>
</g>
<!-- Vpc::::vpc&#45;postgres -->
<g id="node8" class="node">
<title>Vpc::::vpc&#45;postgres</title>
<polygon fill="#e5e5e5" stroke="#dddddd" points="902,-461 784,-461 784,-403 902,-403 902,-461"/>
<text text-anchor="start" x="796" y="-441.2" font-family="Helvetica,sans-Serif" font-weight="bold" font-size="16.00" fill="#707070">EC2::Vpc</text>
<text text-anchor="start" x="796" y="-416.2" font-family="Helvetica,sans-Serif" font-size="16.00" fill="#383838">vpc&#45;postgres</text>
</g>
<!-- InternetGateway::::ig&#45;postgres&#45;&gt;Vpc::::vpc&#45;postgres -->
<g id="edge1" class="edge">
<title>InternetGateway::::ig&#45;postgres&#45;&gt;Vpc::::vpc&#45;postgres</title>
<path fill="none" stroke="#707070" d="M732.45,-526.81C737.83,-524.05 743.06,-521.11 748,-518 769.75,-504.31 791.13,-485.33 807.98,-468.68"/>
<polygon fill="#707070" stroke="#707070" points="810.83,-470.78 815.39,-461.22 805.86,-465.85 810.83,-470.78"/>
</g>
<!-- Route::::route&#45;table&#45;public&#45;igw -->
<g id="node2" class="node">
<title>Route::::route&#45;table&#45;public&#45;igw</title>
<polygon fill="#e5e5e5" stroke="#dddddd" points="247.5,-585 68.5,-585 68.5,-527 247.5,-527 247.5,-585"/>
<text text-anchor="start" x="81" y="-565.2" font-family="Helvetica,sans-Serif" font-weight="bold" font-size="16.00" fill="#707070">EC2::Route</text>
<text text-anchor="start" x="81" y="-540.2" font-family="Helvetica,sans-Serif" font-size="16.00" fill="#383838">route&#45;table&#45;public&#45;igw</text>
</g>
<!-- Route::::route&#45;table&#45;public&#45;igw&#45;&gt;InternetGateway::::ig&#45;postgres -->
<g id="edge3" class="edge">
<title>Route::::route&#45;table&#45;public&#45;igw&#45;&gt;InternetGateway::::ig&#45;postgres</title>
<path fill="none" stroke="#707070" d="M247.62,-556C331.62,-556 457.83,-556 546.77,-556"/>
<polygon fill="#707070" stroke="#707070" points="546.88,-559.5 556.88,-556 546.88,-552.5 546.88,-559.5"/>
</g>
<!-- RouteTable::::route&#45;table&#45;public -->
<g id="node3" class="node">
<title>RouteTable::::route&#45;table&#45;public</title>
<polygon fill="#e5e5e5" stroke="#dddddd" points="500,-461 349,-461 349,-403 500,-403 500,-461"/>
<text text-anchor="start" x="361.5" y="-441.2" font-family="Helvetica,sans-Serif" font-weight="bold" font-size="16.00" fill="#707070">EC2::RouteTable</text>
<text text-anchor="start" x="361.5" y="-416.2" font-family="Helvetica,sans-Serif" font-size="16.00" fill="#383838">route&#45;table&#45;public</text>
</g>
<!-- Route::::route&#45;table&#45;public&#45;igw&#45;&gt;RouteTable::::route&#45;table&#45;public -->
<g id="edge2" class="edge">
<title>Route::::route&#45;table&#45;public&#45;igw&#45;&gt;RouteTable::::route&#45;table&#45;public</title>
<path fill="none" stroke="#707070" d="M247.63,-534.72C262.72,-529.96 278.02,-524.39 292,-518 322.07,-504.25 353.15,-484.25 377.53,-466.99"/>
<polygon fill="#707070" stroke="#707070" points="379.78,-469.68 385.87,-461.01 375.7,-463.99 379.78,-469.68"/>
</g>
<!-- Subnet::::subnet&#45;1 -->
<g id="node6" class="node">
<title>Subnet::::subnet&#45;1</title>
<polygon fill="#e5e5e5" stroke="#dddddd" points="712.5,-509 592.5,-509 592.5,-451 712.5,-451 712.5,-509"/>
<text text-anchor="start" x="604.5" y="-489.2" font-family="Helvetica,sans-Serif" font-weight="bold" font-size="16.00" fill="#707070">EC2::Subnet</text>
<text text-anchor="start" x="604.5" y="-464.2" font-family="Helvetica,sans-Serif" font-size="16.00" fill="#383838">subnet&#45;1</text>
</g>
<!-- RouteTable::::route&#45;table&#45;public&#45;&gt;Subnet::::subnet&#45;1 -->
<g id="edge6" class="edge">
<title>RouteTable::::route&#45;table&#45;public&#45;&gt;Subnet::::subnet&#45;1</title>
<path fill="none" stroke="#707070" d="M500.13,-447.85C526.69,-453.49 556.46,-459.82 582.53,-465.35"/>
<polygon fill="#707070" stroke="#707070" points="581.82,-468.78 592.33,-467.43 583.27,-461.93 581.82,-468.78"/>
</g>
<!-- Subnet::::subnet&#45;2 -->
<g id="node7" class="node">
<title>Subnet::::subnet&#45;2</title>
<polygon fill="#e5e5e5" stroke="#dddddd" points="712.5,-413 592.5,-413 592.5,-355 712.5,-355 712.5,-413"/>
<text text-anchor="start" x="604.5" y="-393.2" font-family="Helvetica,sans-Serif" font-weight="bold" font-size="16.00" fill="#707070">EC2::Subnet</text>
<text text-anchor="start" x="604.5" y="-368.2" font-family="Helvetica,sans-Serif" font-size="16.00" fill="#383838">subnet&#45;2</text>
</g>
<!-- RouteTable::::route&#45;table&#45;public&#45;&gt;Subnet::::subnet&#45;2 -->
<g id="edge5" class="edge">
<title>RouteTable::::route&#45;table&#45;public&#45;&gt;Subnet::::subnet&#45;2</title>
<path fill="none" stroke="#707070" d="M500.13,-416.15C526.69,-410.51 556.46,-404.18 582.53,-398.65"/>
<polygon fill="#707070" stroke="#707070" points="583.27,-402.07 592.33,-396.57 581.82,-395.22 583.27,-402.07"/>
</g>
<!-- RouteTable::::route&#45;table&#45;public&#45;&gt;Vpc::::vpc&#45;postgres -->
<g id="edge4" class="edge">
<title>RouteTable::::route&#45;table&#45;public&#45;&gt;Vpc::::vpc&#45;postgres</title>
<path fill="none" stroke="#707070" d="M500.44,-432C578.06,-432 698.3,-432 773.47,-432"/>
<polygon fill="#707070" stroke="#707070" points="773.77,-435.5 783.77,-432 773.77,-428.5 773.77,-435.5"/>
</g>
<!-- RouteTableAssociation::::rt&#45;assoc::route&#45;table&#45;public::subnet&#45;1 -->
<g id="node4" class="node">
<title>RouteTableAssociation::::rt&#45;assoc::route&#45;table&#45;public::subnet&#45;1</title>
<polygon fill="#e5e5e5" stroke="#dddddd" points="286,-509 30,-509 30,-451 286,-451 286,-509"/>
<text text-anchor="start" x="42" y="-489.2" font-family="Helvetica,sans-Serif" font-weight="bold" font-size="16.00" fill="#707070">EC2::RouteTableAssociation</text>
<text text-anchor="start" x="42" y="-464.2" font-family="Helvetica,sans-Serif" font-size="16.00" fill="#383838">rt&#45;assoc::route&#45;table&#45;public::su...</text>
</g>
<!-- RouteTableAssociation::::rt&#45;assoc::route&#45;table&#45;public::subnet&#45;1&#45;&gt;RouteTable::::route&#45;table&#45;public -->
<g id="edge7" class="edge">
<title>RouteTableAssociation::::rt&#45;assoc::route&#45;table&#45;public::subnet&#45;1&#45;&gt;RouteTable::::route&#45;table&#45;public</title>
<path fill="none" stroke="#707070" d="M286.21,-456.91C303.97,-453.69 321.85,-450.45 338.56,-447.41"/>
<polygon fill="#707070" stroke="#707070" points="339.59,-450.78 348.81,-445.56 338.34,-443.9 339.59,-450.78"/>
</g>
<!-- RouteTableAssociation::::rt&#45;assoc::route&#45;table&#45;public::subnet&#45;1&#45;&gt;Subnet::::subnet&#45;1 -->
<g id="edge8" class="edge">
<title>RouteTableAssociation::::rt&#45;assoc::route&#45;table&#45;public::subnet&#45;1&#45;&gt;Subnet::::subnet&#45;1</title>
<path fill="none" stroke="#707070" d="M286.15,-480C380.53,-480 505.65,-480 582.27,-480"/>
<polygon fill="#707070" stroke="#707070" points="582.29,-483.5 592.29,-480 582.29,-476.5 582.29,-483.5"/>
</g>
<!-- RouteTableAssociation::::rt&#45;assoc::route&#45;table&#45;public::subnet&#45;2 -->
<g id="node5" class="node">
<title>RouteTableAssociation::::rt&#45;assoc::route&#45;table&#45;public::subnet&#45;2</title>
<polygon fill="#e5e5e5" stroke="#dddddd" points="286,-433 30,-433 30,-375 286,-375 286,-433"/>
<text text-anchor="start" x="42" y="-413.2" font-family="Helvetica,sans-Serif" font-weight="bold" font-size="16.00" fill="#707070">EC2::RouteTableAssociation</text>
<text text-anchor="start" x="42" y="-388.2" font-family="Helvetica,sans-Serif" font-size="16.00" fill="#383838">rt&#45;assoc::route&#45;table&#45;public::su...</text>
</g>
<!-- RouteTableAssociation::::rt&#45;assoc::route&#45;table&#45;public::subnet&#45;2&#45;&gt;RouteTable::::route&#45;table&#45;public -->
<g id="edge9" class="edge">
<title>RouteTableAssociation::::rt&#45;assoc::route&#45;table&#45;public::subnet&#45;2&#45;&gt;RouteTable::::route&#45;table&#45;public</title>
<path fill="none" stroke="#707070" d="M286.21,-417.47C303.97,-419.35 321.85,-421.24 338.56,-423.01"/>
<polygon fill="#707070" stroke="#707070" points="338.49,-426.52 348.81,-424.09 339.23,-419.56 338.49,-426.52"/>
</g>
<!-- RouteTableAssociation::::rt&#45;assoc::route&#45;table&#45;public::subnet&#45;2&#45;&gt;Subnet::::subnet&#45;2 -->
<g id="edge10" class="edge">
<title>RouteTableAssociation::::rt&#45;assoc::route&#45;table&#45;public::subnet&#45;2&#45;&gt;Subnet::::subnet&#45;2</title>
<path fill="none" stroke="#707070" d="M286.33,-396.08C300.38,-395.32 314.49,-394.61 328,-394 415.65,-390.05 516.73,-387.2 582.25,-385.58"/>
<polygon fill="#707070" stroke="#707070" points="582.54,-389.07 592.45,-385.33 582.37,-382.07 582.54,-389.07"/>
</g>
<!-- Subnet::::subnet&#45;1&#45;&gt;Vpc::::vpc&#45;postgres -->
<g id="edge13" class="edge">
<title>Subnet::::subnet&#45;1&#45;&gt;Vpc::::vpc&#45;postgres</title>
<path fill="none" stroke="#707070" d="M712.63,-464.94C732.11,-459.98 753.93,-454.43 774.02,-449.31"/>
<polygon fill="#707070" stroke="#707070" points="774.9,-452.7 783.73,-446.84 773.18,-445.91 774.9,-452.7"/>
</g>
<!-- Subnet::::subnet&#45;2&#45;&gt;Vpc::::vpc&#45;postgres -->
<g id="edge14" class="edge">
<title>Subnet::::subnet&#45;2&#45;&gt;Vpc::::vpc&#45;postgres</title>
<path fill="none" stroke="#707070" d="M712.63,-399.06C732.11,-404.02 753.93,-409.57 774.02,-414.69"/>
<polygon fill="#707070" stroke="#707070" points="773.18,-418.09 783.73,-417.16 774.9,-411.3 773.18,-418.09"/>
</g>
<!-- Policy::::lambda&#45;policy -->
<g id="node9" class="node">
<title>Policy::::lambda&#45;policy</title>
<polygon fill="#e5e5e5" stroke="#dddddd" points="220.5,-357 95.5,-357 95.5,-299 220.5,-299 220.5,-357"/>
<text text-anchor="start" x="108" y="-337.2" font-family="Helvetica,sans-Serif" font-weight="bold" font-size="16.00" fill="#707070">IAM::Policy</text>
<text text-anchor="start" x="108" y="-312.2" font-family="Helvetica,sans-Serif" font-size="16.00" fill="#383838">lambda&#45;policy</text>
</g>
<!-- Key::::secret&#45;key&#45;test -->
<g id="node10" class="node">
<title>Key::::secret&#45;key&#45;test</title>
<polygon fill="#e5e5e5" stroke="#dddddd" points="223.5,-281 92.5,-281 92.5,-223 223.5,-223 223.5,-281"/>
<text text-anchor="start" x="105" y="-261.2" font-family="Helvetica,sans-Serif" font-weight="bold" font-size="16.00" fill="#707070">KMS::Key</text>
<text text-anchor="start" x="105" y="-236.2" font-family="Helvetica,sans-Serif" font-size="16.00" fill="#383838">secret&#45;key&#45;test</text>
</g>
<!-- DBInstance::::db&#45;instance -->
<g id="node11" class="node">
<title>DBInstance::::db&#45;instance</title>
<polygon fill="#e5e5e5" stroke="#dddddd" points="236,-205 80,-205 80,-147 236,-147 236,-205"/>
<text text-anchor="start" x="92" y="-185.2" font-family="Helvetica,sans-Serif" font-weight="bold" font-size="16.00" fill="#707070">RDS::DBInstance</text>
<text text-anchor="start" x="92" y="-160.2" font-family="Helvetica,sans-Serif" font-size="16.00" fill="#383838">db&#45;instance</text>
</g>
<!-- DBSubnetGroup::::subnet&#45;group&#45;postgres -->
<g id="node12" class="node">
<title>DBSubnetGroup::::subnet&#45;group&#45;postgres</title>
<polygon fill="#e5e5e5" stroke="#dddddd" points="521,-365 328,-365 328,-307 521,-307 521,-365"/>
<text text-anchor="start" x="340.5" y="-345.2" font-family="Helvetica,sans-Serif" font-weight="bold" font-size="16.00" fill="#707070">RDS::DBSubnetGroup</text>
<text text-anchor="start" x="340.5" y="-320.2" font-family="Helvetica,sans-Serif" font-size="16.00" fill="#383838">subnet&#45;group&#45;postgres</text>
</g>
<!-- DBInstance::::db&#45;instance&#45;&gt;DBSubnetGroup::::subnet&#45;group&#45;postgres -->
<g id="edge15" class="edge">
<title>DBInstance::::db&#45;instance&#45;&gt;DBSubnetGroup::::subnet&#45;group&#45;postgres</title>
<path fill="none" stroke="#707070" d="M236.03,-191.4C255.03,-196.96 274.84,-204.33 292,-214 331.14,-236.05 367.93,-271.99 392.58,-299.17"/>
<polygon fill="#707070" stroke="#707070" points="390.25,-301.81 399.52,-306.93 395.47,-297.14 390.25,-301.81"/>
</g>
<!-- SecurityGroup::::security&#45;group -->
<g id="node13" class="node">
<title>SecurityGroup::::security&#45;group</title>
<polygon fill="#e5e5e5" stroke="#dddddd" points="513,-205 336,-205 336,-147 513,-147 513,-205"/>
<text text-anchor="start" x="348.5" y="-185.2" font-family="Helvetica,sans-Serif" font-weight="bold" font-size="16.00" fill="#707070">EC2::SecurityGroup</text>
<text text-anchor="start" x="348.5" y="-160.2" font-family="Helvetica,sans-Serif" font-size="16.00" fill="#383838">security&#45;group</text>
</g>
<!-- DBInstance::::db&#45;instance&#45;&gt;SecurityGroup::::security&#45;group -->
<g id="edge16" class="edge">
<title>DBInstance::::db&#45;instance&#45;&gt;SecurityGroup::::security&#45;group</title>
<path fill="none" stroke="#707070" d="M236.22,-176C264.18,-176 296.13,-176 325.64,-176"/>
<polygon fill="#707070" stroke="#707070" points="325.96,-179.5 335.96,-176 325.96,-172.5 325.96,-179.5"/>
</g>
<!-- DBSubnetGroup::::subnet&#45;group&#45;postgres&#45;&gt;Subnet::::subnet&#45;1 -->
<g id="edge18" class="edge">
<title>DBSubnetGroup::::subnet&#45;group&#45;postgres&#45;&gt;Subnet::::subnet&#45;1</title>
<path fill="none" stroke="#707070" d="M475.76,-365.04C490.55,-373.98 506.62,-384.09 521,-394 537.69,-405.5 540.34,-410.46 557,-422 568.46,-429.94 581,-438.03 593.09,-445.54"/>
<polygon fill="#707070" stroke="#707070" points="591.44,-448.64 601.79,-450.91 595.12,-442.68 591.44,-448.64"/>
</g>
<!-- DBSubnetGroup::::subnet&#45;group&#45;postgres&#45;&gt;Subnet::::subnet&#45;2 -->
<g id="edge17" class="edge">
<title>DBSubnetGroup::::subnet&#45;group&#45;postgres&#45;&gt;Subnet::::subnet&#45;2</title>
<path fill="none" stroke="#707070" d="M521.02,-356.29C541.64,-360.67 563.05,-365.21 582.43,-369.33"/>
<polygon fill="#707070" stroke="#707070" points="581.85,-372.79 592.36,-371.44 583.3,-365.94 581.85,-372.79"/>
</g>
<!-- SecurityGroup::::security&#45;group&#45;&gt;Vpc::::vpc&#45;postgres -->
<g id="edge11" class="edge">
<title>SecurityGroup::::security&#45;group&#45;&gt;Vpc::::vpc&#45;postgres</title>
<path fill="none" stroke="#707070" d="M492.28,-205.06C559.57,-235.73 665.04,-287.64 748,-346 768.71,-360.57 789.69,-379.3 806.56,-395.56"/>
<polygon fill="#707070" stroke="#707070" points="804.41,-398.36 814.01,-402.84 809.3,-393.35 804.41,-398.36"/>
</g>
<!-- SecurityGroupRuleIngress::::security&#45;group&#45;rule&#45;ingress&#45;tcp&#45;5432 -->
<g id="node14" class="node">
<title>SecurityGroupRuleIngress::::security&#45;group&#45;rule&#45;ingress&#45;tcp&#45;5432</title>
<polygon fill="#e5e5e5" stroke="#dddddd" points="292,-129 24,-129 24,-71 292,-71 292,-129"/>
<text text-anchor="start" x="36" y="-109.2" font-family="Helvetica,sans-Serif" font-weight="bold" font-size="16.00" fill="#707070">EC2::SecurityGroupRuleIngress</text>
<text text-anchor="start" x="36" y="-84.2" font-family="Helvetica,sans-Serif" font-size="16.00" fill="#383838">security&#45;group&#45;rule&#45;ingress&#45;tcp&#45;...</text>
</g>
<!-- SecurityGroupRuleIngress::::security&#45;group&#45;rule&#45;ingress&#45;tcp&#45;5432&#45;&gt;SecurityGroup::::security&#45;group -->
<g id="edge12" class="edge">
<title>SecurityGroupRuleIngress::::security&#45;group&#45;rule&#45;ingress&#45;tcp&#45;5432&#45;&gt;SecurityGroup::::security&#45;group</title>
<path fill="none" stroke="#707070" d="M260.67,-129.01C271.25,-132.04 281.84,-135.08 292,-138 303.06,-141.18 314.65,-144.52 326.16,-147.84"/>
<polygon fill="#707070" stroke="#707070" points="325.22,-151.21 335.8,-150.62 327.16,-144.48 325.22,-151.21"/>
</g>
</g>
</svg>
