<?xml version="1.0" encoding="UTF-8" standalone="no"?>
<!DOCTYPE svg PUBLIC "-//W3C//DTD SVG 1.1//EN"
 "http://www.w3.org/Graphics/SVG/1.1/DTD/svg11.dtd">
<!-- Generated by graphviz version 3.0.0 (20220226.1711)
 -->
<!-- Title: graphname Pages: 1 -->
<svg width="1021pt" height="693pt"
 viewBox="0.00 0.00 1021.00 693.00" xmlns="http://www.w3.org/2000/svg" xmlns:xlink="http://www.w3.org/1999/xlink">
<g id="graph0" class="graph" transform="scale(1 1) rotate(0) translate(4 689)">
<title>graphname</title>
<polygon fill="#fafafa" stroke="transparent" points="-4,4 -4,-689 1017,-689 1017,4 -4,4"/>
<text text-anchor="start" x="420.5" y="-660.4" font-family="Helvetica,sans-Serif" font-weight="bold" font-size="22.00" fill="#383838">Project postgres</text>
<text text-anchor="start" x="503" y="-644.8" font-family="Helvetica,sans-Serif" font-size="14.00"> &#160;</text>
<text text-anchor="start" x="420.5" y="-623.2" font-family="Helvetica,sans-Serif" font-weight="bold" font-size="16.00" fill="#707070">Live Diagram</text>
<g id="clust1" class="cluster">
<title>cluster_aws</title>
<polygon fill="#f5f5f5" stroke="#f5f5f5" points="8,-8 8,-601 1005,-601 1005,-8 8,-8"/>
<text text-anchor="start" x="444.5" y="-23" font-family="Helvetica,sans-Serif" font-weight="bold" font-size="20.00" fill="#707070">Provider aws</text>
</g>
<g id="clust2" class="cluster">
<title>cluster_aws_</title>
<polygon fill="#eeeeee" stroke="#eeeeee" points="16,-54 16,-593 997,-593 997,-54 16,-54"/>
<text text-anchor="start" x="506.36" y="-58.3" font-family="Helvetica,sans-Serif" font-size="1.00" fill="#383838"> </text>
</g>
<!-- LogGroup::::RDSOSMetrics -->
<g id="node1" class="node">
<title>LogGroup::::RDSOSMetrics</title>
<polygon fill="#e5e5e5" stroke="#dddddd" points="280,-585 37,-585 37,-527 280,-527 280,-585"/>
<text text-anchor="start" x="49.5" y="-565.2" font-family="Helvetica,sans-Serif" font-weight="bold" font-size="16.00" fill="#707070">CloudWatchLogs::LogGroup</text>
<text text-anchor="start" x="49.5" y="-540.2" font-family="Helvetica,sans-Serif" font-size="16.00" fill="#383838">RDSOSMetrics</text>
</g>
<!-- InternetGateway::::ig&#45;postgres -->
<g id="node2" class="node">
<title>InternetGateway::::ig&#45;postgres</title>
<polygon fill="#e5e5e5" stroke="#dddddd" points="835,-509 644,-509 644,-451 835,-451 835,-509"/>
<text text-anchor="start" x="656.5" y="-489.2" font-family="Helvetica,sans-Serif" font-weight="bold" font-size="16.00" fill="#707070">EC2::InternetGateway</text>
<text text-anchor="start" x="656.5" y="-464.2" font-family="Helvetica,sans-Serif" font-size="16.00" fill="#383838">ig&#45;postgres</text>
</g>
<!-- Vpc::::vpc&#45;postgres -->
<g id="node10" class="node">
<title>Vpc::::vpc&#45;postgres</title>
<polygon fill="#e5e5e5" stroke="#dddddd" points="989,-409 871,-409 871,-351 989,-351 989,-409"/>
<text text-anchor="start" x="883" y="-389.2" font-family="Helvetica,sans-Serif" font-weight="bold" font-size="16.00" fill="#707070">EC2::Vpc</text>
<text text-anchor="start" x="883" y="-364.2" font-family="Helvetica,sans-Serif" font-size="16.00" fill="#383838">vpc&#45;postgres</text>
</g>
<!-- InternetGateway::::ig&#45;postgres&#45;&gt;Vpc::::vpc&#45;postgres -->
<g id="edge1" class="edge">
<title>InternetGateway::::ig&#45;postgres&#45;&gt;Vpc::::vpc&#45;postgres</title>
<path fill="none" stroke="#707070" d="M816.67,-450.93C822.95,-448.07 829.13,-445.08 835,-442 850.2,-434.03 866.03,-424.24 880.27,-414.81"/>
<polygon fill="#707070" stroke="#707070" points="882.56,-417.49 888.91,-409.01 878.65,-411.68 882.56,-417.49"/>
</g>
<!-- InternetGatewayAttachment::::ig&#45;attach::ig&#45;postgres::vpc&#45;postgres -->
<g id="node3" class="node">
<title>InternetGatewayAttachment::::ig&#45;attach::ig&#45;postgres::vpc&#45;postgres</title>
<polygon fill="#e5e5e5" stroke="#dddddd" points="608,-557 329,-557 329,-499 608,-499 608,-557"/>
<text text-anchor="start" x="341.5" y="-537.2" font-family="Helvetica,sans-Serif" font-weight="bold" font-size="16.00" fill="#707070">EC2::InternetGatewayAttachment</text>
<text text-anchor="start" x="341.5" y="-512.2" font-family="Helvetica,sans-Serif" font-size="16.00" fill="#383838">ig&#45;attach::ig&#45;postgres::vpc&#45;post...</text>
</g>
<!-- InternetGatewayAttachment::::ig&#45;attach::ig&#45;postgres::vpc&#45;postgres&#45;&gt;InternetGateway::::ig&#45;postgres -->
<g id="edge3" class="edge">
<title>InternetGatewayAttachment::::ig&#45;attach::ig&#45;postgres::vpc&#45;postgres&#45;&gt;InternetGateway::::ig&#45;postgres</title>
<path fill="none" stroke="#707070" d="M608.33,-503.23C616.83,-501.71 625.3,-500.2 633.61,-498.72"/>
<polygon fill="#707070" stroke="#707070" points="634.43,-502.13 643.66,-496.92 633.2,-495.23 634.43,-502.13"/>
</g>
<!-- InternetGatewayAttachment::::ig&#45;attach::ig&#45;postgres::vpc&#45;postgres&#45;&gt;Vpc::::vpc&#45;postgres -->
<g id="edge2" class="edge">
<title>InternetGatewayAttachment::::ig&#45;attach::ig&#45;postgres::vpc&#45;postgres&#45;&gt;Vpc::::vpc&#45;postgres</title>
<path fill="none" stroke="#707070" d="M608.35,-553.1C680.14,-559.18 766.76,-555.29 835,-518 874.01,-496.68 900.02,-451.38 914.6,-418.48"/>
<polygon fill="#707070" stroke="#707070" points="917.88,-419.71 918.58,-409.14 911.44,-416.96 917.88,-419.71"/>
</g>
<!-- Route::::vpc&#45;postgres::route&#45;table&#45;public&#45;igw&#45;0.0.0.0/0 -->
<g id="node4" class="node">
<title>Route::::vpc&#45;postgres::route&#45;table&#45;public&#45;igw&#45;0.0.0.0/0</title>
<polygon fill="#e5e5e5" stroke="#dddddd" points="291,-509 26,-509 26,-451 291,-451 291,-509"/>
<text text-anchor="start" x="38.5" y="-489.2" font-family="Helvetica,sans-Serif" font-weight="bold" font-size="16.00" fill="#707070">EC2::Route</text>
<text text-anchor="start" x="38.5" y="-464.2" font-family="Helvetica,sans-Serif" font-size="16.00" fill="#383838">vpc&#45;postgres::route&#45;table&#45;public...</text>
</g>
<!-- Route::::vpc&#45;postgres::route&#45;table&#45;public&#45;igw&#45;0.0.0.0/0&#45;&gt;InternetGateway::::ig&#45;postgres -->
<g id="edge5" class="edge">
<title>Route::::vpc&#45;postgres::route&#45;table&#45;public&#45;igw&#45;0.0.0.0/0&#45;&gt;InternetGateway::::ig&#45;postgres</title>
<path fill="none" stroke="#707070" d="M291.25,-480C395.03,-480 537.75,-480 633.81,-480"/>
<polygon fill="#707070" stroke="#707070" points="633.83,-483.5 643.83,-480 633.83,-476.5 633.83,-483.5"/>
</g>
<!-- RouteTable::::vpc&#45;postgres::route&#45;table&#45;public -->
<g id="node5" class="node">
<title>RouteTable::::vpc&#45;postgres::route&#45;table&#45;public</title>
<polygon fill="#e5e5e5" stroke="#dddddd" points="601,-385 336,-385 336,-327 601,-327 601,-385"/>
<text text-anchor="start" x="348.5" y="-365.2" font-family="Helvetica,sans-Serif" font-weight="bold" font-size="16.00" fill="#707070">EC2::RouteTable</text>
<text text-anchor="start" x="348.5" y="-340.2" font-family="Helvetica,sans-Serif" font-size="16.00" fill="#383838">vpc&#45;postgres::route&#45;table&#45;public...</text>
</g>
<!-- Route::::vpc&#45;postgres::route&#45;table&#45;public&#45;igw&#45;0.0.0.0/0&#45;&gt;RouteTable::::vpc&#45;postgres::route&#45;table&#45;public -->
<g id="edge4" class="edge">
<title>Route::::vpc&#45;postgres::route&#45;table&#45;public&#45;igw&#45;0.0.0.0/0&#45;&gt;RouteTable::::vpc&#45;postgres::route&#45;table&#45;public</title>
<path fill="none" stroke="#707070" d="M267.89,-450.95C276.45,-448.11 284.9,-445.12 293,-442 331.46,-427.19 372.9,-406.96 405.75,-389.84"/>
<polygon fill="#707070" stroke="#707070" points="407.55,-392.85 414.77,-385.1 404.29,-386.65 407.55,-392.85"/>
</g>
<!-- Subnet::::vpc&#45;postgres::subnet&#45;1 -->
<g id="node8" class="node">
<title>Subnet::::vpc&#45;postgres::subnet&#45;1</title>
<polygon fill="#e5e5e5" stroke="#dddddd" points="834.5,-433 644.5,-433 644.5,-375 834.5,-375 834.5,-433"/>
<text text-anchor="start" x="656.5" y="-413.2" font-family="Helvetica,sans-Serif" font-weight="bold" font-size="16.00" fill="#707070">EC2::Subnet</text>
<text text-anchor="start" x="656.5" y="-388.2" font-family="Helvetica,sans-Serif" font-size="16.00" fill="#383838">vpc&#45;postgres::subnet&#45;1</text>
</g>
<!-- RouteTable::::vpc&#45;postgres::route&#45;table&#45;public&#45;&gt;Subnet::::vpc&#45;postgres::subnet&#45;1 -->
<g id="edge7" class="edge">
<title>RouteTable::::vpc&#45;postgres::route&#45;table&#45;public&#45;&gt;Subnet::::vpc&#45;postgres::subnet&#45;1</title>
<path fill="none" stroke="#707070" d="M601.24,-379.51C612.35,-381.49 623.49,-383.48 634.34,-385.41"/>
<polygon fill="#707070" stroke="#707070" points="633.76,-388.87 644.22,-387.18 634.99,-381.98 633.76,-388.87"/>
</g>
<!-- Subnet::::vpc&#45;postgres::subnet&#45;2 -->
<g id="node9" class="node">
<title>Subnet::::vpc&#45;postgres::subnet&#45;2</title>
<polygon fill="#e5e5e5" stroke="#dddddd" points="834.5,-337 644.5,-337 644.5,-279 834.5,-279 834.5,-337"/>
<text text-anchor="start" x="656.5" y="-317.2" font-family="Helvetica,sans-Serif" font-weight="bold" font-size="16.00" fill="#707070">EC2::Subnet</text>
<text text-anchor="start" x="656.5" y="-292.2" font-family="Helvetica,sans-Serif" font-size="16.00" fill="#383838">vpc&#45;postgres::subnet&#45;2</text>
</g>
<!-- RouteTable::::vpc&#45;postgres::route&#45;table&#45;public&#45;&gt;Subnet::::vpc&#45;postgres::subnet&#45;2 -->
<g id="edge8" class="edge">
<title>RouteTable::::vpc&#45;postgres::route&#45;table&#45;public&#45;&gt;Subnet::::vpc&#45;postgres::subnet&#45;2</title>
<path fill="none" stroke="#707070" d="M601.24,-332.49C612.35,-330.51 623.49,-328.52 634.34,-326.59"/>
<polygon fill="#707070" stroke="#707070" points="634.99,-330.02 644.22,-324.82 633.76,-323.13 634.99,-330.02"/>
</g>
<!-- RouteTable::::vpc&#45;postgres::route&#45;table&#45;public&#45;&gt;Vpc::::vpc&#45;postgres -->
<g id="edge6" class="edge">
<title>RouteTable::::vpc&#45;postgres::route&#45;table&#45;public&#45;&gt;Vpc::::vpc&#45;postgres</title>
<path fill="none" stroke="#707070" d="M601.25,-355.78C670.87,-356.63 757.69,-359.21 835,-366 843.39,-366.74 852.17,-367.74 860.85,-368.86"/>
<polygon fill="#707070" stroke="#707070" points="860.58,-372.36 870.96,-370.24 861.53,-365.42 860.58,-372.36"/>
</g>
<!-- RouteTableAssociation::::rt&#45;assoc::vpc&#45;postgres::route&#45;table&#45;public::vpc&#45;postgres::subnet&#45;1 -->
<g id="node6" class="node">
<title>RouteTableAssociation::::rt&#45;assoc::vpc&#45;postgres::route&#45;table&#45;public::vpc&#45;postgres::subnet&#45;1</title>
<polygon fill="#e5e5e5" stroke="#dddddd" points="289.5,-433 27.5,-433 27.5,-375 289.5,-375 289.5,-433"/>
<text text-anchor="start" x="39.5" y="-413.2" font-family="Helvetica,sans-Serif" font-weight="bold" font-size="16.00" fill="#707070">EC2::RouteTableAssociation</text>
<text text-anchor="start" x="39.5" y="-388.2" font-family="Helvetica,sans-Serif" font-size="16.00" fill="#383838">rt&#45;assoc::vpc&#45;postgres::route&#45;ta...</text>
</g>
<!-- RouteTableAssociation::::rt&#45;assoc::vpc&#45;postgres::route&#45;table&#45;public::vpc&#45;postgres::subnet&#45;1&#45;&gt;RouteTable::::vpc&#45;postgres::route&#45;table&#45;public -->
<g id="edge9" class="edge">
<title>RouteTableAssociation::::rt&#45;assoc::vpc&#45;postgres::route&#45;table&#45;public::vpc&#45;postgres::subnet&#45;1&#45;&gt;RouteTable::::vpc&#45;postgres::route&#45;table&#45;public</title>
<path fill="none" stroke="#707070" d="M289.67,-383.71C301.6,-381.85 313.73,-379.96 325.75,-378.09"/>
<polygon fill="#707070" stroke="#707070" points="326.48,-381.52 335.82,-376.52 325.4,-374.6 326.48,-381.52"/>
</g>
<!-- RouteTableAssociation::::rt&#45;assoc::vpc&#45;postgres::route&#45;table&#45;public::vpc&#45;postgres::subnet&#45;1&#45;&gt;Subnet::::vpc&#45;postgres::subnet&#45;1 -->
<g id="edge10" class="edge">
<title>RouteTableAssociation::::rt&#45;assoc::vpc&#45;postgres::route&#45;table&#45;public::vpc&#45;postgres::subnet&#45;1&#45;&gt;Subnet::::vpc&#45;postgres::subnet&#45;1</title>
<path fill="none" stroke="#707070" d="M289.8,-404C393.83,-404 537.67,-404 634.18,-404"/>
<polygon fill="#707070" stroke="#707070" points="634.25,-407.5 644.25,-404 634.25,-400.5 634.25,-407.5"/>
</g>
<!-- RouteTableAssociation::::rt&#45;assoc::vpc&#45;postgres::route&#45;table&#45;public::vpc&#45;postgres::subnet&#45;2 -->
<g id="node7" class="node">
<title>RouteTableAssociation::::rt&#45;assoc::vpc&#45;postgres::route&#45;table&#45;public::vpc&#45;postgres::subnet&#45;2</title>
<polygon fill="#e5e5e5" stroke="#dddddd" points="289.5,-357 27.5,-357 27.5,-299 289.5,-299 289.5,-357"/>
<text text-anchor="start" x="39.5" y="-337.2" font-family="Helvetica,sans-Serif" font-weight="bold" font-size="16.00" fill="#707070">EC2::RouteTableAssociation</text>
<text text-anchor="start" x="39.5" y="-312.2" font-family="Helvetica,sans-Serif" font-size="16.00" fill="#383838">rt&#45;assoc::vpc&#45;postgres::route&#45;ta...</text>
</g>
<!-- RouteTableAssociation::::rt&#45;assoc::vpc&#45;postgres::route&#45;table&#45;public::vpc&#45;postgres::subnet&#45;2&#45;&gt;RouteTable::::vpc&#45;postgres::route&#45;table&#45;public -->
<g id="edge11" class="edge">
<title>RouteTableAssociation::::rt&#45;assoc::vpc&#45;postgres::route&#45;table&#45;public::vpc&#45;postgres::subnet&#45;2&#45;&gt;RouteTable::::vpc&#45;postgres::route&#45;table&#45;public</title>
<path fill="none" stroke="#707070" d="M289.67,-339.83C301.6,-340.92 313.73,-342.02 325.75,-343.11"/>
<polygon fill="#707070" stroke="#707070" points="325.54,-346.61 335.82,-344.03 326.18,-339.64 325.54,-346.61"/>
</g>
<!-- RouteTableAssociation::::rt&#45;assoc::vpc&#45;postgres::route&#45;table&#45;public::vpc&#45;postgres::subnet&#45;2&#45;&gt;Subnet::::vpc&#45;postgres::subnet&#45;2 -->
<g id="edge12" class="edge">
<title>RouteTableAssociation::::rt&#45;assoc::vpc&#45;postgres::route&#45;table&#45;public::vpc&#45;postgres::subnet&#45;2&#45;&gt;Subnet::::vpc&#45;postgres::subnet&#45;2</title>
<path fill="none" stroke="#707070" d="M289.96,-319.85C303.14,-319.16 316.34,-318.53 329,-318 432.68,-313.68 551.2,-311.03 633.97,-309.56"/>
<polygon fill="#707070" stroke="#707070" points="634.2,-313.06 644.13,-309.38 634.07,-306.06 634.2,-313.06"/>
</g>
<!-- Subnet::::vpc&#45;postgres::subnet&#45;1&#45;&gt;Vpc::::vpc&#45;postgres -->
<g id="edge15" class="edge">
<title>Subnet::::vpc&#45;postgres::subnet&#45;1&#45;&gt;Vpc::::vpc&#45;postgres</title>
<path fill="none" stroke="#707070" d="M834.75,-392C843.52,-390.88 852.29,-389.77 860.75,-388.69"/>
<polygon fill="#707070" stroke="#707070" points="861.43,-392.13 870.91,-387.4 860.54,-385.19 861.43,-392.13"/>
</g>
<!-- Subnet::::vpc&#45;postgres::subnet&#45;2&#45;&gt;Vpc::::vpc&#45;postgres -->
<g id="edge16" class="edge">
<title>Subnet::::vpc&#45;postgres::subnet&#45;2&#45;&gt;Vpc::::vpc&#45;postgres</title>
<path fill="none" stroke="#707070" d="M816.63,-337.08C831.46,-342.74 846.92,-348.65 861.46,-354.2"/>
<polygon fill="#707070" stroke="#707070" points="860.27,-357.49 870.86,-357.79 862.77,-350.95 860.27,-357.49"/>
</g>
<!-- Policy::::lambda&#45;policy -->
<g id="node11" class="node">
<title>Policy::::lambda&#45;policy</title>
<polygon fill="#e5e5e5" stroke="#dddddd" points="221,-281 96,-281 96,-223 221,-223 221,-281"/>
<text text-anchor="start" x="108.5" y="-261.2" font-family="Helvetica,sans-Serif" font-weight="bold" font-size="16.00" fill="#707070">IAM::Policy</text>
<text text-anchor="start" x="108.5" y="-236.2" font-family="Helvetica,sans-Serif" font-size="16.00" fill="#383838">lambda&#45;policy</text>
</g>
<!-- DBInstance::::db&#45;instance -->
<g id="node12" class="node">
<title>DBInstance::::db&#45;instance</title>
<polygon fill="#e5e5e5" stroke="#dddddd" points="236.5,-205 80.5,-205 80.5,-147 236.5,-147 236.5,-205"/>
<text text-anchor="start" x="92.5" y="-185.2" font-family="Helvetica,sans-Serif" font-weight="bold" font-size="16.00" fill="#707070">RDS::DBInstance</text>
<text text-anchor="start" x="92.5" y="-160.2" font-family="Helvetica,sans-Serif" font-size="16.00" fill="#383838">db&#45;instance</text>
</g>
<!-- DBSubnetGroup::::subnet&#45;group&#45;postgres -->
<g id="node13" class="node">
<title>DBSubnetGroup::::subnet&#45;group&#45;postgres</title>
<polygon fill="#e5e5e5" stroke="#dddddd" points="565,-289 372,-289 372,-231 565,-231 565,-289"/>
<text text-anchor="start" x="384.5" y="-269.2" font-family="Helvetica,sans-Serif" font-weight="bold" font-size="16.00" fill="#707070">RDS::DBSubnetGroup</text>
<text text-anchor="start" x="384.5" y="-244.2" font-family="Helvetica,sans-Serif" font-size="16.00" fill="#383838">subnet&#45;group&#45;postgres</text>
</g>
<!-- DBInstance::::db&#45;instance&#45;&gt;DBSubnetGroup::::subnet&#45;group&#45;postgres -->
<g id="edge17" class="edge">
<title>DBInstance::::db&#45;instance&#45;&gt;DBSubnetGroup::::subnet&#45;group&#45;postgres</title>
<path fill="none" stroke="#707070" d="M236.82,-197.09C274.77,-207.44 321.05,-220.06 362.17,-231.27"/>
<polygon fill="#707070" stroke="#707070" points="361.38,-234.69 371.95,-233.94 363.22,-227.93 361.38,-234.69"/>
</g>
<!-- SecurityGroup::::sg::vpc&#45;postgres::security&#45;group -->
<g id="node14" class="node">
<title>SecurityGroup::::sg::vpc&#45;postgres::security&#45;group</title>
<polygon fill="#e5e5e5" stroke="#dddddd" points="603,-205 334,-205 334,-147 603,-147 603,-205"/>
<text text-anchor="start" x="346.5" y="-185.2" font-family="Helvetica,sans-Serif" font-weight="bold" font-size="16.00" fill="#707070">EC2::SecurityGroup</text>
<text text-anchor="start" x="346.5" y="-160.2" font-family="Helvetica,sans-Serif" font-size="16.00" fill="#383838">sg::vpc&#45;postgres::security&#45;group...</text>
</g>
<!-- DBInstance::::db&#45;instance&#45;&gt;SecurityGroup::::sg::vpc&#45;postgres::security&#45;group -->
<g id="edge18" class="edge">
<title>DBInstance::::db&#45;instance&#45;&gt;SecurityGroup::::sg::vpc&#45;postgres::security&#45;group</title>
<path fill="none" stroke="#707070" d="M236.82,-176C263.24,-176 293.7,-176 323.64,-176"/>
<polygon fill="#707070" stroke="#707070" points="323.77,-179.5 333.77,-176 323.77,-172.5 323.77,-179.5"/>
</g>
<!-- DBSubnetGroup::::subnet&#45;group&#45;postgres&#45;&gt;Subnet::::vpc&#45;postgres::subnet&#45;1 -->
<g id="edge20" class="edge">
<title>DBSubnetGroup::::subnet&#45;group&#45;postgres&#45;&gt;Subnet::::vpc&#45;postgres::subnet&#45;1</title>
<path fill="none" stroke="#707070" d="M548.89,-289.01C568.7,-297.39 589.54,-307.22 608,-318 625.5,-328.23 627.34,-334.46 644,-346 655.46,-353.94 668,-362.03 680.09,-369.54"/>
<polygon fill="#707070" stroke="#707070" points="678.44,-372.64 688.79,-374.91 682.12,-366.68 678.44,-372.64"/>
</g>
<!-- DBSubnetGroup::::subnet&#45;group&#45;postgres&#45;&gt;Subnet::::vpc&#45;postgres::subnet&#45;2 -->
<g id="edge19" class="edge">
<title>DBSubnetGroup::::subnet&#45;group&#45;postgres&#45;&gt;Subnet::::vpc&#45;postgres::subnet&#45;2</title>
<path fill="none" stroke="#707070" d="M565.1,-277.06C587.46,-281.05 611.39,-285.32 634.12,-289.37"/>
<polygon fill="#707070" stroke="#707070" points="633.66,-292.85 644.12,-291.16 634.89,-285.96 633.66,-292.85"/>
</g>
<!-- SecurityGroup::::sg::vpc&#45;postgres::security&#45;group&#45;&gt;Vpc::::vpc&#45;postgres -->
<g id="edge13" class="edge">
<title>SecurityGroup::::sg::vpc&#45;postgres::security&#45;group&#45;&gt;Vpc::::vpc&#45;postgres</title>
<path fill="none" stroke="#707070" d="M603.21,-190.45C676.03,-203.04 765.23,-226.48 835,-270 864.04,-288.12 888.8,-318.11 905.61,-342.21"/>
<polygon fill="#707070" stroke="#707070" points="902.92,-344.48 911.43,-350.79 908.71,-340.55 902.92,-344.48"/>
</g>
<!-- SecurityGroupRuleIngress::::sg::vpc&#45;postgres::security&#45;group&#45;rule&#45;ingress&#45;tcp&#45;5432 -->
<g id="node15" class="node">
<title>SecurityGroupRuleIngress::::sg::vpc&#45;postgres::security&#45;group&#45;rule&#45;ingress&#45;tcp&#45;5432</title>
<polygon fill="#e5e5e5" stroke="#dddddd" points="293,-129 24,-129 24,-71 293,-71 293,-129"/>
<text text-anchor="start" x="36.5" y="-109.2" font-family="Helvetica,sans-Serif" font-weight="bold" font-size="16.00" fill="#707070">EC2::SecurityGroupRuleIngress</text>
<text text-anchor="start" x="36.5" y="-84.2" font-family="Helvetica,sans-Serif" font-size="16.00" fill="#383838">sg::vpc&#45;postgres::security&#45;group...</text>
</g>
<!-- SecurityGroupRuleIngress::::sg::vpc&#45;postgres::security&#45;group&#45;rule&#45;ingress&#45;tcp&#45;5432&#45;&gt;SecurityGroup::::sg::vpc&#45;postgres::security&#45;group -->
<g id="edge14" class="edge">
<title>SecurityGroupRuleIngress::::sg::vpc&#45;postgres::security&#45;group&#45;rule&#45;ingress&#45;tcp&#45;5432&#45;&gt;SecurityGroup::::sg::vpc&#45;postgres::security&#45;group</title>
<path fill="none" stroke="#707070" d="M277.26,-129.06C297.78,-134.12 319.22,-139.41 339.99,-144.54"/>
<polygon fill="#707070" stroke="#707070" points="339.26,-147.96 349.81,-146.96 340.94,-141.16 339.26,-147.96"/>
</g>
</g>
</svg>
