<?xml version="1.0" encoding="UTF-8" standalone="no"?><svg xmlns="http://www.w3.org/2000/svg" xmlns:xlink="http://www.w3.org/1999/xlink" contentScriptType="application/ecmascript" contentStyleType="text/css" height="850px" preserveAspectRatio="none" style="width:557px;height:850px;background:#FFFFFF;" version="1.1" viewBox="0 0 557 850" width="557px" zoomAndPan="magnify"><defs><filter height="300%" id="f6euv5n7j840r" width="300%" x="-1" y="-1"><feGaussianBlur result="blurOut" stdDeviation="2.0"/><feColorMatrix in="blurOut" result="blurOut2" type="matrix" values="0 0 0 0 0 0 0 0 0 0 0 0 0 0 0 0 0 0 .4 0"/><feOffset dx="4.0" dy="4.0" in="blurOut2" result="blurOut3"/><feBlend in="SourceGraphic" in2="blurOut3" mode="normal"/></filter></defs><g><rect fill="none" height="26.4883" style="stroke:none;stroke-width:1.0;" width="266" x="115.5" y="15"/><text fill="#000000" font-family="sans-serif" font-size="14" font-weight="bold" lengthAdjust="spacing" textLength="256" x="120.5" y="33.5352">Resources for project RDS Postgres</text><rect fill="#F8F8F8" filter="url(#f6euv5n7j840r)" height="36.4883" rx="12.5" ry="12.5" style="stroke:#383838;stroke-width:1.5;" width="52" x="10" y="424.6621"/><text fill="#000000" font-family="sans-serif" font-size="14" lengthAdjust="spacing" textLength="32" x="20" y="448.1973">Infra</text><rect fill="#F8F8F8" filter="url(#f6euv5n7j840r)" height="36.4883" rx="12.5" ry="12.5" style="stroke:#383838;stroke-width:1.5;" width="46" x="112" y="424.6621"/><text fill="#000000" font-family="sans-serif" font-size="14" lengthAdjust="spacing" textLength="26" x="122" y="448.1973">aws</text><rect fill="#F8F8F8" filter="url(#f6euv5n7j840r)" height="36.4883" rx="12.5" ry="12.5" style="stroke:#383838;stroke-width:1.5;" width="134" x="208" y="57.4883"/><text fill="#000000" font-family="sans-serif" font-size="14" lengthAdjust="spacing" textLength="114" x="218" y="81.0234">CloudWatchLogs</text><rect fill="#F8F8F8" filter="url(#f6euv5n7j840r)" height="36.4883" rx="12.5" ry="12.5" style="stroke:#383838;stroke-width:1.5;" width="111" x="392" y="57.4883"/><text fill="#000000" font-family="sans-serif" font-size="14" lengthAdjust="spacing" textLength="91" x="402" y="81.0234">LogGroup (1)</text><path d="M342,75.7324 L352,75.7324 C367,75.7324 367,75.7324 382,75.7324 L392,75.7324 " fill="none" style="stroke:#383838;stroke-width:1.0;"/><path d="M158,442.9063 L168,442.9063 C183,442.9063 183,75.7324 198,75.7324 L208,75.7324 " fill="none" style="stroke:#383838;stroke-width:1.0;"/><rect fill="#F8F8F8" filter="url(#f6euv5n7j840r)" height="36.4883" rx="12.5" ry="12.5" style="stroke:#383838;stroke-width:1.5;" width="47" x="208" y="339.9297"/><text fill="#000000" font-family="sans-serif" font-size="14" lengthAdjust="spacing" textLength="27" x="218" y="363.4648">EC2</text><rect fill="#F8F8F8" filter="url(#f6euv5n7j840r)" height="36.4883" rx="12.5" ry="12.5" style="stroke:#383838;stroke-width:1.5;" width="68" x="305" y="113.9766"/><text fill="#000000" font-family="sans-serif" font-size="14" lengthAdjust="spacing" textLength="48" x="315" y="137.5117">Vpc (1)</text><path d="M255,358.1738 L265,358.1738 C280,358.1738 280,132.2207 295,132.2207 L305,132.2207 " fill="none" style="stroke:#383838;stroke-width:1.0;"/><rect fill="#F8F8F8" filter="url(#f6euv5n7j840r)" height="36.4883" rx="12.5" ry="12.5" style="stroke:#383838;stroke-width:1.5;" width="154" x="305" y="170.4648"/><text fill="#000000" font-family="sans-serif" font-size="14" lengthAdjust="spacing" textLength="134" x="315" y="194">InternetGateway (1)</text><path d="M255,358.1738 L265,358.1738 C280,358.1738 280,188.709 295,188.709 L305,188.709 " fill="none" style="stroke:#383838;stroke-width:1.0;"/><rect fill="#F8F8F8" filter="url(#f6euv5n7j840r)" height="36.4883" rx="12.5" ry="12.5" style="stroke:#383838;stroke-width:1.5;" width="233" x="305" y="226.9531"/><text fill="#000000" font-family="sans-serif" font-size="14" lengthAdjust="spacing" textLength="213" x="315" y="250.4883">InternetGatewayAttachment (1)</text><path d="M255,358.1738 L265,358.1738 C280,358.1738 280,245.1973 295,245.1973 L305,245.1973 " fill="none" style="stroke:#383838;stroke-width:1.0;"/><rect fill="#F8F8F8" filter="url(#f6euv5n7j840r)" height="36.4883" rx="12.5" ry="12.5" style="stroke:#383838;stroke-width:1.5;" width="91" x="305" y="283.4414"/><text fill="#000000" font-family="sans-serif" font-size="14" lengthAdjust="spacing" textLength="71" x="315" y="306.9766">Subnet (2)</text><path d="M255,358.1738 L265,358.1738 C280,358.1738 280,301.6855 295,301.6855 L305,301.6855 " fill="none" style="stroke:#383838;stroke-width:1.0;"/><rect fill="#F8F8F8" filter="url(#f6euv5n7j840r)" height="36.4883" rx="12.5" ry="12.5" style="stroke:#383838;stroke-width:1.5;" width="121" x="305" y="339.9297"/><text fill="#000000" font-family="sans-serif" font-size="14" lengthAdjust="spacing" textLength="101" x="315" y="363.4648">RouteTable (1)</text><path d="M255,358.1738 L265,358.1738 C280,358.1738 280,358.1738 295,358.1738 L305,358.1738 " fill="none" style="stroke:#383838;stroke-width:1.0;"/><rect fill="#F8F8F8" filter="url(#f6euv5n7j840r)" height="36.4883" rx="12.5" ry="12.5" style="stroke:#383838;stroke-width:1.5;" width="200" x="305" y="396.418"/><text fill="#000000" font-family="sans-serif" font-size="14" lengthAdjust="spacing" textLength="180" x="315" y="419.9531">RouteTableAssociation (2)</text><path d="M255,358.1738 L265,358.1738 C280,358.1738 280,414.6621 295,414.6621 L305,414.6621 " fill="none" style="stroke:#383838;stroke-width:1.0;"/><rect fill="#F8F8F8" filter="url(#f6euv5n7j840r)" height="36.4883" rx="12.5" ry="12.5" style="stroke:#383838;stroke-width:1.5;" width="83" x="305" y="452.9063"/><text fill="#000000" font-family="sans-serif" font-size="14" lengthAdjust="spacing" textLength="63" x="315" y="476.4414">Route (1)</text><path d="M255,358.1738 L265,358.1738 C280,358.1738 280,471.1504 295,471.1504 L305,471.1504 " fill="none" style="stroke:#383838;stroke-width:1.0;"/><rect fill="#F8F8F8" filter="url(#f6euv5n7j840r)" height="36.4883" rx="12.5" ry="12.5" style="stroke:#383838;stroke-width:1.5;" width="140" x="305" y="509.3945"/><text fill="#000000" font-family="sans-serif" font-size="14" lengthAdjust="spacing" textLength="120" x="315" y="532.9297">SecurityGroup (1)</text><path d="M255,358.1738 L265,358.1738 C280,358.1738 280,527.6387 295,527.6387 L305,527.6387 " fill="none" style="stroke:#383838;stroke-width:1.0;"/><rect fill="#F8F8F8" filter="url(#f6euv5n7j840r)" height="36.4883" rx="12.5" ry="12.5" style="stroke:#383838;stroke-width:1.5;" width="220" x="305" y="565.8828"/><text fill="#000000" font-family="sans-serif" font-size="14" lengthAdjust="spacing" textLength="200" x="315" y="589.418">SecurityGroupRuleIngress (1)</text><path d="M255,358.1738 L265,358.1738 C280,358.1738 280,584.127 295,584.127 L305,584.127 " fill="none" style="stroke:#383838;stroke-width:1.0;"/><path d="M158,442.9063 L168,442.9063 C183,442.9063 183,358.1738 198,358.1738 L208,358.1738 " fill="none" style="stroke:#383838;stroke-width:1.0;"/><rect fill="#F8F8F8" filter="url(#f6euv5n7j840r)" height="36.4883" rx="12.5" ry="12.5" style="stroke:#383838;stroke-width:1.5;" width="46" x="208" y="622.3711"/><text fill="#000000" font-family="sans-serif" font-size="14" lengthAdjust="spacing" textLength="26" x="218" y="645.9063">IAM</text><rect fill="#F8F8F8" filter="url(#f6euv5n7j840r)" height="36.4883" rx="12.5" ry="12.5" style="stroke:#383838;stroke-width:1.5;" width="82" x="304" y="622.3711"/><text fill="#000000" font-family="sans-serif" font-size="14" lengthAdjust="spacing" textLength="62" x="314" y="645.9063">Policy (1)</text><path d="M254,640.6152 L264,640.6152 C279,640.6152 279,640.6152 294,640.6152 L304,640.6152 " fill="none" style="stroke:#383838;stroke-width:1.0;"/><path d="M158,442.9063 L168,442.9063 C183,442.9063 183,640.6152 198,640.6152 L208,640.6152 " fill="none" style="stroke:#383838;stroke-width:1.0;"/><rect fill="#F8F8F8" filter="url(#f6euv5n7j840r)" height="36.4883" rx="12.5" ry="12.5" style="stroke:#383838;stroke-width:1.5;" width="49" x="208" y="678.8594"/><text fill="#000000" font-family="sans-serif" font-size="14" lengthAdjust="spacing" textLength="29" x="218" y="702.3945">KMS</text><rect fill="#F8F8F8" filter="url(#f6euv5n7j840r)" height="36.4883" rx="12.5" ry="12.5" style="stroke:#383838;stroke-width:1.5;" width="67" x="307" y="678.8594"/><text fill="#000000" font-family="sans-serif" font-size="14" lengthAdjust="spacing" textLength="47" x="317" y="702.3945">Key (1)</text><path d="M257,697.1035 L267,697.1035 C282,697.1035 282,697.1035 297,697.1035 L307,697.1035 " fill="none" style="stroke:#383838;stroke-width:1.0;"/><path d="M158,442.9063 L168,442.9063 C183,442.9063 183,697.1035 198,697.1035 L208,697.1035 " fill="none" style="stroke:#383838;stroke-width:1.0;"/><rect fill="#F8F8F8" filter="url(#f6euv5n7j840r)" height="36.4883" rx="12.5" ry="12.5" style="stroke:#383838;stroke-width:1.5;" width="47" x="208" y="763.5918"/><text fill="#000000" font-family="sans-serif" font-size="14" lengthAdjust="spacing" textLength="27" x="218" y="787.127">RDS</text><rect fill="#F8F8F8" filter="url(#f6euv5n7j840r)" height="36.4883" rx="12.5" ry="12.5" style="stroke:#383838;stroke-width:1.5;" width="152" x="305" y="735.3477"/><text fill="#000000" font-family="sans-serif" font-size="14" lengthAdjust="spacing" textLength="132" x="315" y="758.8828">DBSubnetGroup (1)</text><path d="M255,781.8359 L265,781.8359 C280,781.8359 280,753.5918 295,753.5918 L305,753.5918 " fill="none" style="stroke:#383838;stroke-width:1.0;"/><rect fill="#F8F8F8" filter="url(#f6euv5n7j840r)" height="36.4883" rx="12.5" ry="12.5" style="stroke:#383838;stroke-width:1.5;" width="118" x="305" y="791.8359"/><text fill="#000000" font-family="sans-serif" font-size="14" lengthAdjust="spacing" textLength="98" x="315" y="815.3711">DBInstance (1)</text><path d="M255,781.8359 L265,781.8359 C280,781.8359 280,810.0801 295,810.0801 L305,810.0801 " fill="none" style="stroke:#383838;stroke-width:1.0;"/><path d="M158,442.9063 L168,442.9063 C183,442.9063 183,781.8359 198,781.8359 L208,781.8359 " fill="none" style="stroke:#383838;stroke-width:1.0;"/><path d="M62,442.9063 L72,442.9063 C87,442.9063 87,442.9063 102,442.9063 L112,442.9063 " fill="none" style="stroke:#383838;stroke-width:1.0;"/><!--MD5=[3a4b1ef5fc3e100e5ebfa50d97eedfb8]
@startmindmap
title Resources for project RDS Postgres
skinparam monochrome true
+ Infra
++ aws
+++ CloudWatchLogs
++++ LogGroup (1)
+++ EC2
++++ Vpc (1)
++++ InternetGateway (1)
++++ InternetGatewayAttachment (1)
++++ Subnet (2)
++++ RouteTable (1)
++++ RouteTableAssociation (2)
++++ Route (1)
++++ SecurityGroup (1)
++++ SecurityGroupRuleIngress (1)
+++ IAM
++++ Policy (1)
+++ KMS
++++ Key (1)
+++ RDS
++++ DBSubnetGroup (1)
++++ DBInstance (1)
@endmindmap

PlantUML version 1.2021.8(Sat Jun 26 10:20:59 CEST 2021)
(GPL source distribution)
Java Runtime: OpenJDK Runtime Environment
JVM: OpenJDK 64-Bit Server VM
Default Encoding: UTF-8
Language: en
Country: GB
--></g></svg>