<?xml version="1.0" encoding="UTF-8" standalone="no"?>
<!DOCTYPE svg PUBLIC "-//W3C//DTD SVG 1.1//EN"
 "http://www.w3.org/Graphics/SVG/1.1/DTD/svg11.dtd">
<!-- Generated by graphviz version 7.1.0 (20230121.1956)
 -->
<!-- Title: graphname Pages: 1 -->
<svg width="851pt" height="617pt"
 viewBox="0.00 0.00 851.00 617.00" xmlns="http://www.w3.org/2000/svg" xmlns:xlink="http://www.w3.org/1999/xlink">
<g id="graph0" class="graph" transform="scale(1 1) rotate(0) translate(4 613)">
<title>graphname</title>
<polygon fill="#fafafa" stroke="none" points="-4,4 -4,-613 847,-613 847,4 -4,4"/>
<text text-anchor="start" x="313.5" y="-584.4" font-family="Helvetica,sans-Serif" font-weight="bold" font-size="22.00" fill="#383838">Project globalcluster</text>
<text text-anchor="start" x="418" y="-568.8" font-family="Helvetica,sans-Serif" font-size="14.00"> &#160;</text>
<text text-anchor="start" x="313.5" y="-547.2" font-family="Helvetica,sans-Serif" font-weight="bold" font-size="16.00" fill="#707070">Target Diagram</text>
<g id="clust1" class="cluster">
<title>cluster_aws</title>
<polygon fill="#f5f5f5" stroke="#f5f5f5" points="8,-8 8,-525 835,-525 835,-8 8,-8"/>
<text text-anchor="start" x="359.5" y="-23" font-family="Helvetica,sans-Serif" font-weight="bold" font-size="20.00" fill="#707070">Provider aws</text>
</g>
<g id="clust2" class="cluster">
<title>cluster_aws_</title>
<polygon fill="#eeeeee" stroke="#eeeeee" points="16,-54 16,-517 827,-517 827,-54 16,-54"/>
<text text-anchor="start" x="421.36" y="-58.3" font-family="Helvetica,sans-Serif" font-size="1.00" fill="#383838"> </text>
</g>
<!-- Vpc::vpc&#45;default -->
<g id="node1" class="node">
<title>Vpc::vpc&#45;default</title>
<polygon fill="#e5e5e5" stroke="#dddddd" points="819,-319 715,-319 715,-261 819,-261 819,-319"/>
<text text-anchor="start" x="727" y="-299.2" font-family="Helvetica,sans-Serif" font-weight="bold" font-size="16.00" fill="#707070">EC2::Vpc</text>
<text text-anchor="start" x="727" y="-274.2" font-family="Helvetica,sans-Serif" font-size="16.00" fill="#383838">vpc&#45;default</text>
</g>
<!-- Subnet::vpc&#45;default::subnet&#45;default&#45;a -->
<g id="node2" class="node">
<title>Subnet::vpc&#45;default::subnet&#45;default&#45;a</title>
<polygon fill="#e5e5e5" stroke="#dddddd" points="679,-129 449,-129 449,-71 679,-71 679,-129"/>
<text text-anchor="start" x="461" y="-109.2" font-family="Helvetica,sans-Serif" font-weight="bold" font-size="16.00" fill="#707070">EC2::Subnet</text>
<text text-anchor="start" x="461" y="-84.2" font-family="Helvetica,sans-Serif" font-size="16.00" fill="#383838">vpc&#45;default::subnet&#45;default&#45;a</text>
</g>
<!-- Subnet::vpc&#45;default::subnet&#45;default&#45;a&#45;&gt;Vpc::vpc&#45;default -->
<g id="edge1" class="edge">
<title>Subnet::vpc&#45;default::subnet&#45;default&#45;a&#45;&gt;Vpc::vpc&#45;default</title>
<path fill="none" stroke="#707070" d="M666.91,-129.41C671.15,-132.04 675.21,-134.89 679,-138 714.87,-167.38 738.88,-215.7 752.42,-249.96"/>
<polygon fill="#707070" stroke="#707070" points="749.09,-251.04 755.92,-259.14 755.63,-248.54 749.09,-251.04"/>
</g>
<!-- Subnet::vpc&#45;default::subnet&#45;default&#45;b -->
<g id="node3" class="node">
<title>Subnet::vpc&#45;default::subnet&#45;default&#45;b</title>
<polygon fill="#e5e5e5" stroke="#dddddd" points="679,-205 449,-205 449,-147 679,-147 679,-205"/>
<text text-anchor="start" x="461" y="-185.2" font-family="Helvetica,sans-Serif" font-weight="bold" font-size="16.00" fill="#707070">EC2::Subnet</text>
<text text-anchor="start" x="461" y="-160.2" font-family="Helvetica,sans-Serif" font-size="16.00" fill="#383838">vpc&#45;default::subnet&#45;default&#45;b</text>
</g>
<!-- Subnet::vpc&#45;default::subnet&#45;default&#45;b&#45;&gt;Vpc::vpc&#45;default -->
<g id="edge2" class="edge">
<title>Subnet::vpc&#45;default::subnet&#45;default&#45;b&#45;&gt;Vpc::vpc&#45;default</title>
<path fill="none" stroke="#707070" d="M662.26,-205.42C668.03,-208.09 673.66,-210.94 679,-214 697.33,-224.49 715.31,-239.22 730.12,-252.92"/>
<polygon fill="#707070" stroke="#707070" points="727.69,-255.43 737.35,-259.78 732.5,-250.36 727.69,-255.43"/>
</g>
<!-- Subnet::vpc&#45;default::subnet&#45;default&#45;c -->
<g id="node4" class="node">
<title>Subnet::vpc&#45;default::subnet&#45;default&#45;c</title>
<polygon fill="#e5e5e5" stroke="#dddddd" points="678.5,-281 449.5,-281 449.5,-223 678.5,-223 678.5,-281"/>
<text text-anchor="start" x="462" y="-261.2" font-family="Helvetica,sans-Serif" font-weight="bold" font-size="16.00" fill="#707070">EC2::Subnet</text>
<text text-anchor="start" x="462" y="-236.2" font-family="Helvetica,sans-Serif" font-size="16.00" fill="#383838">vpc&#45;default::subnet&#45;default&#45;c</text>
</g>
<!-- Subnet::vpc&#45;default::subnet&#45;default&#45;c&#45;&gt;Vpc::vpc&#45;default -->
<g id="edge3" class="edge">
<title>Subnet::vpc&#45;default::subnet&#45;default&#45;c&#45;&gt;Vpc::vpc&#45;default</title>
<path fill="none" stroke="#707070" d="M678.72,-273.5C687.29,-275.12 695.73,-276.72 703.79,-278.24"/>
<polygon fill="#707070" stroke="#707070" points="702.93,-281.64 713.41,-280.06 704.23,-274.76 702.93,-281.64"/>
</g>
<!-- Subnet::vpc&#45;default::subnet&#45;default&#45;d -->
<g id="node5" class="node">
<title>Subnet::vpc&#45;default::subnet&#45;default&#45;d</title>
<polygon fill="#e5e5e5" stroke="#dddddd" points="679,-357 449,-357 449,-299 679,-299 679,-357"/>
<text text-anchor="start" x="461" y="-337.2" font-family="Helvetica,sans-Serif" font-weight="bold" font-size="16.00" fill="#707070">EC2::Subnet</text>
<text text-anchor="start" x="461" y="-312.2" font-family="Helvetica,sans-Serif" font-size="16.00" fill="#383838">vpc&#45;default::subnet&#45;default&#45;d</text>
</g>
<!-- Subnet::vpc&#45;default::subnet&#45;default&#45;d&#45;&gt;Vpc::vpc&#45;default -->
<g id="edge4" class="edge">
<title>Subnet::vpc&#45;default::subnet&#45;default&#45;d&#45;&gt;Vpc::vpc&#45;default</title>
<path fill="none" stroke="#707070" d="M679.3,-306.39C687.61,-304.82 695.8,-303.27 703.62,-301.79"/>
<polygon fill="#707070" stroke="#707070" points="704.13,-305.26 713.31,-299.96 702.83,-298.38 704.13,-305.26"/>
</g>
<!-- Subnet::vpc&#45;default::subnet&#45;default&#45;e -->
<g id="node6" class="node">
<title>Subnet::vpc&#45;default::subnet&#45;default&#45;e</title>
<polygon fill="#e5e5e5" stroke="#dddddd" points="679,-433 449,-433 449,-375 679,-375 679,-433"/>
<text text-anchor="start" x="461" y="-413.2" font-family="Helvetica,sans-Serif" font-weight="bold" font-size="16.00" fill="#707070">EC2::Subnet</text>
<text text-anchor="start" x="461" y="-388.2" font-family="Helvetica,sans-Serif" font-size="16.00" fill="#383838">vpc&#45;default::subnet&#45;default&#45;e</text>
</g>
<!-- Subnet::vpc&#45;default::subnet&#45;default&#45;e&#45;&gt;Vpc::vpc&#45;default -->
<g id="edge5" class="edge">
<title>Subnet::vpc&#45;default::subnet&#45;default&#45;e&#45;&gt;Vpc::vpc&#45;default</title>
<path fill="none" stroke="#707070" d="M662.26,-374.58C668.03,-371.91 673.66,-369.06 679,-366 697.33,-355.51 715.31,-340.78 730.12,-327.08"/>
<polygon fill="#707070" stroke="#707070" points="732.5,-329.64 737.35,-320.22 727.69,-324.57 732.5,-329.64"/>
</g>
<!-- Subnet::vpc&#45;default::subnet&#45;default&#45;f -->
<g id="node7" class="node">
<title>Subnet::vpc&#45;default::subnet&#45;default&#45;f</title>
<polygon fill="#e5e5e5" stroke="#dddddd" points="677,-509 451,-509 451,-451 677,-451 677,-509"/>
<text text-anchor="start" x="463" y="-489.2" font-family="Helvetica,sans-Serif" font-weight="bold" font-size="16.00" fill="#707070">EC2::Subnet</text>
<text text-anchor="start" x="463" y="-464.2" font-family="Helvetica,sans-Serif" font-size="16.00" fill="#383838">vpc&#45;default::subnet&#45;default&#45;f</text>
</g>
<!-- Subnet::vpc&#45;default::subnet&#45;default&#45;f&#45;&gt;Vpc::vpc&#45;default -->
<g id="edge6" class="edge">
<title>Subnet::vpc&#45;default::subnet&#45;default&#45;f&#45;&gt;Vpc::vpc&#45;default</title>
<path fill="none" stroke="#707070" d="M666.91,-450.59C671.15,-447.96 675.21,-445.11 679,-442 714.87,-412.62 738.88,-364.3 752.42,-330.04"/>
<polygon fill="#707070" stroke="#707070" points="755.63,-331.46 755.92,-320.86 749.09,-328.96 755.63,-331.46"/>
</g>
<!-- Role::rds&#45;monitoring&#45;role -->
<g id="node8" class="node">
<title>Role::rds&#45;monitoring&#45;role</title>
<polygon fill="#e5e5e5" stroke="#dddddd" points="184,-471 24,-471 24,-413 184,-413 184,-471"/>
<text text-anchor="start" x="36" y="-451.2" font-family="Helvetica,sans-Serif" font-weight="bold" font-size="16.00" fill="#707070">IAM::Role</text>
<text text-anchor="start" x="36" y="-426.2" font-family="Helvetica,sans-Serif" font-size="16.00" fill="#383838">rds&#45;monitoring&#45;role</text>
</g>
<!-- DBCluster::database&#45;1 -->
<g id="node9" class="node">
<title>DBCluster::database&#45;1</title>
<polygon fill="#e5e5e5" stroke="#dddddd" points="176.5,-319 31.5,-319 31.5,-261 176.5,-261 176.5,-319"/>
<text text-anchor="start" x="44" y="-299.2" font-family="Helvetica,sans-Serif" font-weight="bold" font-size="16.00" fill="#707070">RDS::DBCluster</text>
<text text-anchor="start" x="44" y="-274.2" font-family="Helvetica,sans-Serif" font-size="16.00" fill="#383838">database&#45;1</text>
</g>
<!-- DBSubnetGroup::default&#45;vpc&#45;faff3987 -->
<g id="node10" class="node">
<title>DBSubnetGroup::default&#45;vpc&#45;faff3987</title>
<polygon fill="#e5e5e5" stroke="#dddddd" points="413,-319 220,-319 220,-261 413,-261 413,-319"/>
<text text-anchor="start" x="232.5" y="-299.2" font-family="Helvetica,sans-Serif" font-weight="bold" font-size="16.00" fill="#707070">RDS::DBSubnetGroup</text>
<text text-anchor="start" x="232.5" y="-274.2" font-family="Helvetica,sans-Serif" font-size="16.00" fill="#383838">default&#45;vpc&#45;faff3987</text>
</g>
<!-- DBCluster::database&#45;1&#45;&gt;DBSubnetGroup::default&#45;vpc&#45;faff3987 -->
<g id="edge7" class="edge">
<title>DBCluster::database&#45;1&#45;&gt;DBSubnetGroup::default&#45;vpc&#45;faff3987</title>
<path fill="none" stroke="#707070" d="M176.85,-290C187.11,-290 197.83,-290 208.58,-290"/>
<polygon fill="#707070" stroke="#707070" points="208.26,-293.5 218.26,-290 208.26,-286.5 208.26,-293.5"/>
</g>
<!-- DBSubnetGroup::default&#45;vpc&#45;faff3987&#45;&gt;Subnet::vpc&#45;default::subnet&#45;default&#45;a -->
<g id="edge8" class="edge">
<title>DBSubnetGroup::default&#45;vpc&#45;faff3987&#45;&gt;Subnet::vpc&#45;default::subnet&#45;default&#45;a</title>
<path fill="none" stroke="#707070" d="M335.76,-260.63C358.38,-226.53 399.99,-170.79 449,-138 450.58,-136.94 452.19,-135.91 453.83,-134.91"/>
<polygon fill="#707070" stroke="#707070" points="455.19,-138.16 462.17,-130.2 451.74,-132.07 455.19,-138.16"/>
</g>
<!-- DBSubnetGroup::default&#45;vpc&#45;faff3987&#45;&gt;Subnet::vpc&#45;default::subnet&#45;default&#45;b -->
<g id="edge9" class="edge">
<title>DBSubnetGroup::default&#45;vpc&#45;faff3987&#45;&gt;Subnet::vpc&#45;default::subnet&#45;default&#45;b</title>
<path fill="none" stroke="#707070" d="M363.15,-260.55C387.91,-245.38 419.42,-227.31 449,-214 452.18,-212.57 455.43,-211.16 458.73,-209.79"/>
<polygon fill="#707070" stroke="#707070" points="460.03,-213.04 467.99,-206.05 457.41,-206.54 460.03,-213.04"/>
</g>
<!-- DBSubnetGroup::default&#45;vpc&#45;faff3987&#45;&gt;Subnet::vpc&#45;default::subnet&#45;default&#45;c -->
<g id="edge10" class="edge">
<title>DBSubnetGroup::default&#45;vpc&#45;faff3987&#45;&gt;Subnet::vpc&#45;default::subnet&#45;default&#45;c</title>
<path fill="none" stroke="#707070" d="M413.47,-275.14C421.52,-273.9 429.72,-272.63 437.94,-271.36"/>
<polygon fill="#707070" stroke="#707070" points="438.3,-274.84 447.65,-269.86 437.23,-267.93 438.3,-274.84"/>
</g>
<!-- DBSubnetGroup::default&#45;vpc&#45;faff3987&#45;&gt;Subnet::vpc&#45;default::subnet&#45;default&#45;d -->
<g id="edge11" class="edge">
<title>DBSubnetGroup::default&#45;vpc&#45;faff3987&#45;&gt;Subnet::vpc&#45;default::subnet&#45;default&#45;d</title>
<path fill="none" stroke="#707070" d="M413.47,-304.86C421.33,-306.07 429.35,-307.31 437.38,-308.56"/>
<polygon fill="#707070" stroke="#707070" points="436.82,-312.01 447.23,-310.08 437.89,-305.09 436.82,-312.01"/>
</g>
<!-- DBSubnetGroup::default&#45;vpc&#45;faff3987&#45;&gt;Subnet::vpc&#45;default::subnet&#45;default&#45;e -->
<g id="edge12" class="edge">
<title>DBSubnetGroup::default&#45;vpc&#45;faff3987&#45;&gt;Subnet::vpc&#45;default::subnet&#45;default&#45;e</title>
<path fill="none" stroke="#707070" d="M363.15,-319.45C387.91,-334.62 419.42,-352.69 449,-366 452.18,-367.43 455.43,-368.84 458.73,-370.21"/>
<polygon fill="#707070" stroke="#707070" points="457.41,-373.46 467.99,-373.95 460.03,-366.96 457.41,-373.46"/>
</g>
<!-- DBSubnetGroup::default&#45;vpc&#45;faff3987&#45;&gt;Subnet::vpc&#45;default::subnet&#45;default&#45;f -->
<g id="edge13" class="edge">
<title>DBSubnetGroup::default&#45;vpc&#45;faff3987&#45;&gt;Subnet::vpc&#45;default::subnet&#45;default&#45;f</title>
<path fill="none" stroke="#707070" d="M335.76,-319.37C358.38,-353.47 399.99,-409.21 449,-442 450.58,-443.06 452.19,-444.09 453.83,-445.09"/>
<polygon fill="#707070" stroke="#707070" points="451.74,-447.93 462.17,-449.8 455.19,-441.84 451.74,-447.93"/>
</g>
</g>
</svg>
