<?xml version="1.0" encoding="UTF-8" standalone="no"?>
<!DOCTYPE svg PUBLIC "-//W3C//DTD SVG 1.1//EN"
 "http://www.w3.org/Graphics/SVG/1.1/DTD/svg11.dtd">
<!-- Generated by graphviz version 7.1.0 (20230121.1956)
 -->
<!-- Title: graphname Pages: 1 -->
<svg width="1089pt" height="465pt"
 viewBox="0.00 0.00 1089.00 465.00" xmlns="http://www.w3.org/2000/svg" xmlns:xlink="http://www.w3.org/1999/xlink">
<g id="graph0" class="graph" transform="scale(1 1) rotate(0) translate(4 461)">
<title>graphname</title>
<polygon fill="#fafafa" stroke="none" points="-4,4 -4,-461 1085,-461 1085,4 -4,4"/>
<text text-anchor="start" x="238.5" y="-432.4" font-family="Helvetica,sans-Serif" font-weight="bold" font-size="22.00" fill="#383838">Project eventbridge&#45;schedule&#45;remove&#45;one&#45;time&#45;schedules</text>
<text text-anchor="start" x="536.5" y="-416.8" font-family="Helvetica,sans-Serif" font-size="14.00"> &#160;</text>
<text text-anchor="start" x="238.5" y="-395.2" font-family="Helvetica,sans-Serif" font-weight="bold" font-size="16.00" fill="#707070">Target Diagram</text>
<g id="clust1" class="cluster">
<title>cluster_aws</title>
<polygon fill="#f5f5f5" stroke="#f5f5f5" points="8,-8 8,-373 1073,-373 1073,-8 8,-8"/>
<text text-anchor="start" x="478.5" y="-23" font-family="Helvetica,sans-Serif" font-weight="bold" font-size="20.00" fill="#707070">Provider aws</text>
</g>
<g id="clust2" class="cluster">
<title>cluster_aws_</title>
<polygon fill="#eeeeee" stroke="#eeeeee" points="16,-54 16,-365 1065,-365 1065,-54 16,-54"/>
<text text-anchor="start" x="540.36" y="-58.3" font-family="Helvetica,sans-Serif" font-size="1.00" fill="#383838"> </text>
</g>
<!-- Role::sam&#45;app&#45;CleanUpOneTimeSchedulesRole&#45;1NZZZMS0AA7R4 -->
<g id="node1" class="node">
<title>Role::sam&#45;app&#45;CleanUpOneTimeSchedulesRole&#45;1NZZZMS0AA7R4</title>
<polygon fill="#e5e5e5" stroke="#dddddd" points="346,-357 24,-357 24,-299 346,-299 346,-357"/>
<text text-anchor="start" x="36" y="-337.2" font-family="Helvetica,sans-Serif" font-weight="bold" font-size="16.00" fill="#707070">IAM::Role</text>
<text text-anchor="start" x="36" y="-312.2" font-family="Helvetica,sans-Serif" font-size="16.00" fill="#383838">sam&#45;app&#45;CleanUpOneTimeSchedulesR...</text>
</g>
<!-- Role::sam&#45;app&#45;FindSchedulesRole&#45;M4O8IEK3GEFO -->
<g id="node2" class="node">
<title>Role::sam&#45;app&#45;FindSchedulesRole&#45;M4O8IEK3GEFO</title>
<polygon fill="#e5e5e5" stroke="#dddddd" points="702,-357 391,-357 391,-299 702,-299 702,-357"/>
<text text-anchor="start" x="403.5" y="-337.2" font-family="Helvetica,sans-Serif" font-weight="bold" font-size="16.00" fill="#707070">IAM::Role</text>
<text text-anchor="start" x="403.5" y="-312.2" font-family="Helvetica,sans-Serif" font-size="16.00" fill="#383838">sam&#45;app&#45;FindSchedulesRole&#45;M4O8IE...</text>
</g>
<!-- Role::sam&#45;app&#45;ProcessSchedulesRole&#45;DA0Y2BACICJC -->
<g id="node3" class="node">
<title>Role::sam&#45;app&#45;ProcessSchedulesRole&#45;DA0Y2BACICJC</title>
<polygon fill="#e5e5e5" stroke="#dddddd" points="1057,-281 747,-281 747,-223 1057,-223 1057,-281"/>
<text text-anchor="start" x="759" y="-261.2" font-family="Helvetica,sans-Serif" font-weight="bold" font-size="16.00" fill="#707070">IAM::Role</text>
<text text-anchor="start" x="759" y="-236.2" font-family="Helvetica,sans-Serif" font-size="16.00" fill="#383838">sam&#45;app&#45;ProcessSchedulesRole&#45;DA0...</text>
</g>
<!-- EventSourceMapping::mapping::sam&#45;app&#45;ProcessSchedules&#45;36SgkAOF1r92::sam&#45;app&#45;removal&#45;queue -->
<g id="node4" class="node">
<title>EventSourceMapping::mapping::sam&#45;app&#45;ProcessSchedules&#45;36SgkAOF1r92::sam&#45;app&#45;removal&#45;queue</title>
<polygon fill="#e5e5e5" stroke="#dddddd" points="337,-205 33,-205 33,-147 337,-147 337,-205"/>
<text text-anchor="start" x="45" y="-185.2" font-family="Helvetica,sans-Serif" font-weight="bold" font-size="16.00" fill="#707070">Lambda::EventSourceMapping</text>
<text text-anchor="start" x="45" y="-160.2" font-family="Helvetica,sans-Serif" font-size="16.00" fill="#383838">mapping::sam&#45;app&#45;ProcessSchedule...</text>
</g>
<!-- Function::sam&#45;app&#45;ProcessSchedules&#45;36SgkAOF1r92 -->
<g id="node6" class="node">
<title>Function::sam&#45;app&#45;ProcessSchedules&#45;36SgkAOF1r92</title>
<polygon fill="#e5e5e5" stroke="#dddddd" points="704,-281 389,-281 389,-223 704,-223 704,-281"/>
<text text-anchor="start" x="401.5" y="-261.2" font-family="Helvetica,sans-Serif" font-weight="bold" font-size="16.00" fill="#707070">Lambda::Function</text>
<text text-anchor="start" x="401.5" y="-236.2" font-family="Helvetica,sans-Serif" font-size="16.00" fill="#383838">sam&#45;app&#45;ProcessSchedules&#45;36SgkAO...</text>
</g>
<!-- EventSourceMapping::mapping::sam&#45;app&#45;ProcessSchedules&#45;36SgkAOF1r92::sam&#45;app&#45;removal&#45;queue&#45;&gt;Function::sam&#45;app&#45;ProcessSchedules&#45;36SgkAOF1r92 -->
<g id="edge1" class="edge">
<title>EventSourceMapping::mapping::sam&#45;app&#45;ProcessSchedules&#45;36SgkAOF1r92::sam&#45;app&#45;removal&#45;queue&#45;&gt;Function::sam&#45;app&#45;ProcessSchedules&#45;36SgkAOF1r92</title>
<path fill="none" stroke="#707070" d="M325.51,-205.49C348.23,-210.3 371.87,-215.29 394.85,-220.15"/>
<polygon fill="#707070" stroke="#707070" points="394.08,-223.57 404.59,-222.21 395.53,-216.72 394.08,-223.57"/>
</g>
<!-- Queue::sam&#45;app&#45;removal&#45;queue -->
<g id="node7" class="node">
<title>Queue::sam&#45;app&#45;removal&#45;queue</title>
<polygon fill="#e5e5e5" stroke="#dddddd" points="647,-205 446,-205 446,-147 647,-147 647,-205"/>
<text text-anchor="start" x="458.5" y="-185.2" font-family="Helvetica,sans-Serif" font-weight="bold" font-size="16.00" fill="#707070">SQS::Queue</text>
<text text-anchor="start" x="458.5" y="-160.2" font-family="Helvetica,sans-Serif" font-size="16.00" fill="#383838">sam&#45;app&#45;removal&#45;queue</text>
</g>
<!-- EventSourceMapping::mapping::sam&#45;app&#45;ProcessSchedules&#45;36SgkAOF1r92::sam&#45;app&#45;removal&#45;queue&#45;&gt;Queue::sam&#45;app&#45;removal&#45;queue -->
<g id="edge2" class="edge">
<title>EventSourceMapping::mapping::sam&#45;app&#45;ProcessSchedules&#45;36SgkAOF1r92::sam&#45;app&#45;removal&#45;queue&#45;&gt;Queue::sam&#45;app&#45;removal&#45;queue</title>
<path fill="none" stroke="#707070" d="M337.42,-176C369.98,-176 403.8,-176 434.49,-176"/>
<polygon fill="#707070" stroke="#707070" points="434.13,-179.5 444.13,-176 434.13,-172.5 434.13,-179.5"/>
</g>
<!-- Function::sam&#45;app&#45;FindSchedules&#45;OfzThGtSLZxQ -->
<g id="node5" class="node">
<title>Function::sam&#45;app&#45;FindSchedules&#45;OfzThGtSLZxQ</title>
<polygon fill="#e5e5e5" stroke="#dddddd" points="340,-281 30,-281 30,-223 340,-223 340,-281"/>
<text text-anchor="start" x="42" y="-261.2" font-family="Helvetica,sans-Serif" font-weight="bold" font-size="16.00" fill="#707070">Lambda::Function</text>
<text text-anchor="start" x="42" y="-236.2" font-family="Helvetica,sans-Serif" font-size="16.00" fill="#383838">sam&#45;app&#45;FindSchedules&#45;OfzThGtSLZ...</text>
</g>
<!-- Function::sam&#45;app&#45;FindSchedules&#45;OfzThGtSLZxQ&#45;&gt;Role::sam&#45;app&#45;FindSchedulesRole&#45;M4O8IEK3GEFO -->
<g id="edge3" class="edge">
<title>Function::sam&#45;app&#45;FindSchedules&#45;OfzThGtSLZxQ&#45;&gt;Role::sam&#45;app&#45;FindSchedulesRole&#45;M4O8IEK3GEFO</title>
<path fill="none" stroke="#707070" d="M325.51,-281.49C348.23,-286.3 371.87,-291.29 394.85,-296.15"/>
<polygon fill="#707070" stroke="#707070" points="394.08,-299.57 404.59,-298.21 395.53,-292.72 394.08,-299.57"/>
</g>
<!-- Function::sam&#45;app&#45;ProcessSchedules&#45;36SgkAOF1r92&#45;&gt;Role::sam&#45;app&#45;ProcessSchedulesRole&#45;DA0Y2BACICJC -->
<g id="edge4" class="edge">
<title>Function::sam&#45;app&#45;ProcessSchedules&#45;36SgkAOF1r92&#45;&gt;Role::sam&#45;app&#45;ProcessSchedulesRole&#45;DA0Y2BACICJC</title>
<path fill="none" stroke="#707070" d="M704.35,-252C714.65,-252 725.04,-252 735.38,-252"/>
<polygon fill="#707070" stroke="#707070" points="735.06,-255.5 745.06,-252 735.06,-248.5 735.06,-255.5"/>
</g>
<!-- Queue::sam&#45;app&#45;ScheduleQueueDLQ&#45;KkMrSD1QGclr -->
<g id="node8" class="node">
<title>Queue::sam&#45;app&#45;ScheduleQueueDLQ&#45;KkMrSD1QGclr</title>
<polygon fill="#e5e5e5" stroke="#dddddd" points="711,-129 382,-129 382,-71 711,-71 711,-129"/>
<text text-anchor="start" x="394.5" y="-109.2" font-family="Helvetica,sans-Serif" font-weight="bold" font-size="16.00" fill="#707070">SQS::Queue</text>
<text text-anchor="start" x="394.5" y="-84.2" font-family="Helvetica,sans-Serif" font-size="16.00" fill="#383838">sam&#45;app&#45;ScheduleQueueDLQ&#45;KkMrSD1...</text>
</g>
<!-- QueueRedrivePolicy::sam&#45;app&#45;removal&#45;queue -->
<g id="node9" class="node">
<title>QueueRedrivePolicy::sam&#45;app&#45;removal&#45;queue</title>
<polygon fill="#e5e5e5" stroke="#dddddd" points="297.5,-129 72.5,-129 72.5,-71 297.5,-71 297.5,-129"/>
<text text-anchor="start" x="85" y="-109.2" font-family="Helvetica,sans-Serif" font-weight="bold" font-size="16.00" fill="#707070">SQS::QueueRedrivePolicy</text>
<text text-anchor="start" x="85" y="-84.2" font-family="Helvetica,sans-Serif" font-size="16.00" fill="#383838">sam&#45;app&#45;removal&#45;queue</text>
</g>
<!-- QueueRedrivePolicy::sam&#45;app&#45;removal&#45;queue&#45;&gt;Queue::sam&#45;app&#45;removal&#45;queue -->
<g id="edge5" class="edge">
<title>QueueRedrivePolicy::sam&#45;app&#45;removal&#45;queue&#45;&gt;Queue::sam&#45;app&#45;removal&#45;queue</title>
<path fill="none" stroke="#707070" d="M297.78,-123.63C341.29,-132.83 391.04,-143.35 434.48,-152.53"/>
<polygon fill="#707070" stroke="#707070" points="433.69,-155.94 444.2,-154.58 435.14,-149.09 433.69,-155.94"/>
</g>
<!-- QueueRedrivePolicy::sam&#45;app&#45;removal&#45;queue&#45;&gt;Queue::sam&#45;app&#45;ScheduleQueueDLQ&#45;KkMrSD1QGclr -->
<g id="edge6" class="edge">
<title>QueueRedrivePolicy::sam&#45;app&#45;removal&#45;queue&#45;&gt;Queue::sam&#45;app&#45;ScheduleQueueDLQ&#45;KkMrSD1QGclr</title>
<path fill="none" stroke="#707070" d="M297.78,-100C320.84,-100 345.64,-100 370.34,-100"/>
<polygon fill="#707070" stroke="#707070" points="370.15,-103.5 380.15,-100 370.15,-96.5 370.15,-103.5"/>
</g>
</g>
</svg>
