<?xml version="1.0" encoding="UTF-8" standalone="no"?><svg xmlns="http://www.w3.org/2000/svg" xmlns:xlink="http://www.w3.org/1999/xlink" contentScriptType="application/ecmascript" contentStyleType="text/css" height="341px" preserveAspectRatio="none" style="width:477px;height:341px;background:#FFFFFF;" version="1.1" viewBox="0 0 477 341" width="477px" zoomAndPan="magnify"><defs><filter height="300%" id="f19twyc5thutwq" width="300%" x="-1" y="-1"><feGaussianBlur result="blurOut" stdDeviation="2.0"/><feColorMatrix in="blurOut" result="blurOut2" type="matrix" values="0 0 0 0 0 0 0 0 0 0 0 0 0 0 0 0 0 0 .4 0"/><feOffset dx="4.0" dy="4.0" in="blurOut2" result="blurOut3"/><feBlend in="SourceGraphic" in2="blurOut3" mode="normal"/></filter></defs><g><rect fill="none" height="26.4883" style="stroke:none;stroke-width:1.0;" width="261" x="78" y="15"/><text fill="#000000" font-family="sans-serif" font-size="14" font-weight="bold" lengthAdjust="spacing" textLength="251" x="83" y="33.5352">Resources for project appsync-sqs</text><rect fill="#F8F8F8" filter="url(#f19twyc5thutwq)" height="36.4883" rx="12.5" ry="12.5" style="stroke:#383838;stroke-width:1.5;" width="52" x="10" y="170.4648"/><text fill="#000000" font-family="sans-serif" font-size="14" lengthAdjust="spacing" textLength="32" x="20" y="194">Infra</text><rect fill="#F8F8F8" filter="url(#f19twyc5thutwq)" height="36.4883" rx="12.5" ry="12.5" style="stroke:#383838;stroke-width:1.5;" width="46" x="112" y="170.4648"/><text fill="#000000" font-family="sans-serif" font-size="14" lengthAdjust="spacing" textLength="26" x="122" y="194">aws</text><rect fill="#F8F8F8" filter="url(#f19twyc5thutwq)" height="36.4883" rx="12.5" ry="12.5" style="stroke:#383838;stroke-width:1.5;" width="79" x="208" y="113.9766"/><text fill="#000000" font-family="sans-serif" font-size="14" lengthAdjust="spacing" textLength="59" x="218" y="137.5117">AppSync</text><rect fill="#F8F8F8" filter="url(#f19twyc5thutwq)" height="36.4883" rx="12.5" ry="12.5" style="stroke:#383838;stroke-width:1.5;" width="121" x="337" y="57.4883"/><text fill="#000000" font-family="sans-serif" font-size="14" lengthAdjust="spacing" textLength="101" x="347" y="81.0234">GraphqlApi (1)</text><path d="M287,132.2207 L297,132.2207 C312,132.2207 312,75.7324 327,75.7324 L337,75.7324 " fill="none" style="stroke:#383838;stroke-width:1.0;"/><rect fill="#F8F8F8" filter="url(#f19twyc5thutwq)" height="36.4883" rx="12.5" ry="12.5" style="stroke:#383838;stroke-width:1.5;" width="121" x="337" y="113.9766"/><text fill="#000000" font-family="sans-serif" font-size="14" lengthAdjust="spacing" textLength="101" x="347" y="137.5117">DataSource (1)</text><path d="M287,132.2207 L297,132.2207 C312,132.2207 312,132.2207 327,132.2207 L337,132.2207 " fill="none" style="stroke:#383838;stroke-width:1.0;"/><rect fill="#F8F8F8" filter="url(#f19twyc5thutwq)" height="36.4883" rx="12.5" ry="12.5" style="stroke:#383838;stroke-width:1.5;" width="101" x="337" y="170.4648"/><text fill="#000000" font-family="sans-serif" font-size="14" lengthAdjust="spacing" textLength="81" x="347" y="194">Resolver (1)</text><path d="M287,132.2207 L297,132.2207 C312,132.2207 312,188.709 327,188.709 L337,188.709 " fill="none" style="stroke:#383838;stroke-width:1.0;"/><path d="M158,188.709 L168,188.709 C183,188.709 183,132.2207 198,132.2207 L208,132.2207 " fill="none" style="stroke:#383838;stroke-width:1.0;"/><rect fill="#F8F8F8" filter="url(#f19twyc5thutwq)" height="36.4883" rx="12.5" ry="12.5" style="stroke:#383838;stroke-width:1.5;" width="46" x="208" y="226.9531"/><text fill="#000000" font-family="sans-serif" font-size="14" lengthAdjust="spacing" textLength="26" x="218" y="250.4883">IAM</text><rect fill="#F8F8F8" filter="url(#f19twyc5thutwq)" height="36.4883" rx="12.5" ry="12.5" style="stroke:#383838;stroke-width:1.5;" width="73" x="304" y="226.9531"/><text fill="#000000" font-family="sans-serif" font-size="14" lengthAdjust="spacing" textLength="53" x="314" y="250.4883">Role (1)</text><path d="M254,245.1973 L264,245.1973 C279,245.1973 279,245.1973 294,245.1973 L304,245.1973 " fill="none" style="stroke:#383838;stroke-width:1.0;"/><path d="M158,188.709 L168,188.709 C183,188.709 183,245.1973 198,245.1973 L208,245.1973 " fill="none" style="stroke:#383838;stroke-width:1.0;"/><rect fill="#F8F8F8" filter="url(#f19twyc5thutwq)" height="36.4883" rx="12.5" ry="12.5" style="stroke:#383838;stroke-width:1.5;" width="47" x="208" y="283.4414"/><text fill="#000000" font-family="sans-serif" font-size="14" lengthAdjust="spacing" textLength="27" x="218" y="306.9766">SQS</text><rect fill="#F8F8F8" filter="url(#f19twyc5thutwq)" height="36.4883" rx="12.5" ry="12.5" style="stroke:#383838;stroke-width:1.5;" width="88" x="305" y="283.4414"/><text fill="#000000" font-family="sans-serif" font-size="14" lengthAdjust="spacing" textLength="68" x="315" y="306.9766">Queue (1)</text><path d="M255,301.6855 L265,301.6855 C280,301.6855 280,301.6855 295,301.6855 L305,301.6855 " fill="none" style="stroke:#383838;stroke-width:1.0;"/><path d="M158,188.709 L168,188.709 C183,188.709 183,301.6855 198,301.6855 L208,301.6855 " fill="none" style="stroke:#383838;stroke-width:1.0;"/><path d="M62,188.709 L72,188.709 C87,188.709 87,188.709 102,188.709 L112,188.709 " fill="none" style="stroke:#383838;stroke-width:1.0;"/><!--MD5=[826ad5f5ac1c2961154ceb3fdfee0c82]
@startmindmap
title Resources for project appsync-sqs
skinparam monochrome true
+ Infra
++ aws
+++ AppSync
++++ GraphqlApi (1)
++++ DataSource (1)
++++ Resolver (1)
+++ IAM
++++ Role (1)
+++ SQS
++++ Queue (1)
@endmindmap

PlantUML version 1.2021.8(Sat Jun 26 10:20:59 CEST 2021)
(GPL source distribution)
Java Runtime: OpenJDK Runtime Environment
JVM: OpenJDK 64-Bit Server VM
Default Encoding: UTF-8
Language: en
Country: GB
--></g></svg>