<?xml version="1.0" encoding="UTF-8" standalone="no"?>
<!DOCTYPE svg PUBLIC "-//W3C//DTD SVG 1.1//EN"
 "http://www.w3.org/Graphics/SVG/1.1/DTD/svg11.dtd">
<!-- Generated by graphviz version 3.0.0 (20220226.1711)
 -->
<!-- Title: graphname Pages: 1 -->
<svg width="1045pt" height="581pt"
 viewBox="0.00 0.00 1045.00 581.00" xmlns="http://www.w3.org/2000/svg" xmlns:xlink="http://www.w3.org/1999/xlink">
<g id="graph0" class="graph" transform="scale(1 1) rotate(0) translate(4 577)">
<title>graphname</title>
<polygon fill="#fafafa" stroke="transparent" points="-4,4 -4,-577 1041,-577 1041,4 -4,4"/>
<text text-anchor="start" x="398.5" y="-548.4" font-family="Helvetica,sans-Serif" font-weight="bold" font-size="22.00" fill="#383838">Project cognito&#45;httpapi</text>
<text text-anchor="start" x="515" y="-532.8" font-family="Helvetica,sans-Serif" font-size="14.00"> &#160;</text>
<text text-anchor="start" x="398.5" y="-511.2" font-family="Helvetica,sans-Serif" font-weight="bold" font-size="16.00" fill="#707070">Live Diagram</text>
<g id="clust1" class="cluster">
<title>cluster_aws</title>
<polygon fill="#f5f5f5" stroke="#f5f5f5" points="8,-8 8,-489 1029,-489 1029,-8 8,-8"/>
<text text-anchor="start" x="456.5" y="-23" font-family="Helvetica,sans-Serif" font-weight="bold" font-size="20.00" fill="#707070">Provider aws</text>
</g>
<g id="clust2" class="cluster">
<title>cluster_aws_</title>
<polygon fill="#eeeeee" stroke="#eeeeee" points="16,-54 16,-481 1021,-481 1021,-54 16,-54"/>
<text text-anchor="start" x="518.36" y="-58.3" font-family="Helvetica,sans-Serif" font-size="1.00" fill="#383838"> </text>
</g>
<!-- Api::::sam&#45;app -->
<g id="node1" class="node">
<title>Api::::sam&#45;app</title>
<polygon fill="#e5e5e5" stroke="#dddddd" points="1013,-401 841,-401 841,-343 1013,-343 1013,-401"/>
<text text-anchor="start" x="853" y="-381.2" font-family="Helvetica,sans-Serif" font-weight="bold" font-size="16.00" fill="#707070">ApiGatewayV2::Api</text>
<text text-anchor="start" x="853" y="-356.2" font-family="Helvetica,sans-Serif" font-size="16.00" fill="#383838">sam&#45;app</text>
</g>
<!-- Authorizer::::OAuth2Authorizer -->
<g id="node2" class="node">
<title>Authorizer::::OAuth2Authorizer</title>
<polygon fill="#e5e5e5" stroke="#dddddd" points="746.5,-301 520.5,-301 520.5,-243 746.5,-243 746.5,-301"/>
<text text-anchor="start" x="532.5" y="-281.2" font-family="Helvetica,sans-Serif" font-weight="bold" font-size="16.00" fill="#707070">ApiGatewayV2::Authorizer</text>
<text text-anchor="start" x="532.5" y="-256.2" font-family="Helvetica,sans-Serif" font-size="16.00" fill="#383838">OAuth2Authorizer</text>
</g>
<!-- Authorizer::::OAuth2Authorizer&#45;&gt;Api::::sam&#45;app -->
<g id="edge1" class="edge">
<title>Authorizer::::OAuth2Authorizer&#45;&gt;Api::::sam&#45;app</title>
<path fill="none" stroke="#707070" d="M746.64,-292.72C766.34,-297.56 786.46,-303.31 805,-310 825.99,-317.58 847.97,-328.01 867.36,-338.16"/>
<polygon fill="#707070" stroke="#707070" points="865.89,-341.34 876.36,-342.95 869.18,-335.16 865.89,-341.34"/>
</g>
<!-- Deployment::::deployment::sam&#45;app -->
<g id="node3" class="node">
<title>Deployment::::deployment::sam&#45;app</title>
<polygon fill="#e5e5e5" stroke="#dddddd" points="344,-433 106,-433 106,-375 344,-375 344,-433"/>
<text text-anchor="start" x="118" y="-413.2" font-family="Helvetica,sans-Serif" font-weight="bold" font-size="16.00" fill="#707070">ApiGatewayV2::Deployment</text>
<text text-anchor="start" x="118" y="-388.2" font-family="Helvetica,sans-Serif" font-size="16.00" fill="#383838">deployment::sam&#45;app</text>
</g>
<!-- Deployment::::deployment::sam&#45;app&#45;&gt;Api::::sam&#45;app -->
<g id="edge2" class="edge">
<title>Deployment::::deployment::sam&#45;app&#45;&gt;Api::::sam&#45;app</title>
<path fill="none" stroke="#707070" d="M344.25,-396.38C461.37,-392.79 645.77,-388.67 805,-377 813.34,-376.39 821.99,-375.63 830.65,-374.82"/>
<polygon fill="#707070" stroke="#707070" points="831.19,-378.29 840.81,-373.86 830.52,-371.32 831.19,-378.29"/>
</g>
<!-- Deployment::::deployment::sam&#45;app&#45;&gt;Api::::sam&#45;app -->
<g id="edge4" class="edge">
<title>Deployment::::deployment::sam&#45;app&#45;&gt;Api::::sam&#45;app</title>
<path fill="none" stroke="#707070" d="M344.25,-410.09C461.37,-410.79 645.77,-406.67 805,-395 813.34,-394.39 821.99,-393.63 830.65,-392.76"/>
<polygon fill="#707070" stroke="#707070" points="831.23,-396.22 840.81,-391.68 830.49,-389.25 831.23,-396.22"/>
</g>
<!-- Stage::::$default -->
<g id="node6" class="node">
<title>Stage::::$default</title>
<polygon fill="#e5e5e5" stroke="#dddddd" points="728.5,-473 538.5,-473 538.5,-415 728.5,-415 728.5,-473"/>
<text text-anchor="start" x="550.5" y="-453.2" font-family="Helvetica,sans-Serif" font-weight="bold" font-size="16.00" fill="#707070">ApiGatewayV2::Stage</text>
<text text-anchor="start" x="550.5" y="-428.2" font-family="Helvetica,sans-Serif" font-size="16.00" fill="#383838">$default</text>
</g>
<!-- Deployment::::deployment::sam&#45;app&#45;&gt;Stage::::$default -->
<g id="edge3" class="edge">
<title>Deployment::::deployment::sam&#45;app&#45;&gt;Stage::::$default</title>
<path fill="none" stroke="#707070" d="M344.12,-415.62C402.39,-421.36 472.06,-428.21 528.31,-433.75"/>
<polygon fill="#707070" stroke="#707070" points="528,-437.23 538.3,-434.73 528.69,-430.27 528,-437.23"/>
</g>
<!-- Integration::::integration::sam&#45;app::sam&#45;app&#45;AppFunction&#45;gKUxwsmxX2fK -->
<g id="node4" class="node">
<title>Integration::::integration::sam&#45;app::sam&#45;app&#45;AppFunction&#45;gKUxwsmxX2fK</title>
<polygon fill="#e5e5e5" stroke="#dddddd" points="775,-377 492,-377 492,-319 775,-319 775,-377"/>
<text text-anchor="start" x="504.5" y="-357.2" font-family="Helvetica,sans-Serif" font-weight="bold" font-size="16.00" fill="#707070">ApiGatewayV2::Integration</text>
<text text-anchor="start" x="504.5" y="-332.2" font-family="Helvetica,sans-Serif" font-size="16.00" fill="#383838">integration::sam&#45;app::sam&#45;app&#45;Ap...</text>
</g>
<!-- Integration::::integration::sam&#45;app::sam&#45;app&#45;AppFunction&#45;gKUxwsmxX2fK&#45;&gt;Api::::sam&#45;app -->
<g id="edge5" class="edge">
<title>Integration::::integration::sam&#45;app::sam&#45;app&#45;AppFunction&#45;gKUxwsmxX2fK&#45;&gt;Api::::sam&#45;app</title>
<path fill="none" stroke="#707070" d="M775.13,-359.58C793.87,-361.12 812.72,-362.67 830.45,-364.13"/>
<polygon fill="#707070" stroke="#707070" points="830.5,-367.65 840.75,-364.98 831.07,-360.67 830.5,-367.65"/>
</g>
<!-- Route::::route::sam&#45;app::GET / -->
<g id="node5" class="node">
<title>Route::::route::sam&#45;app::GET /</title>
<polygon fill="#e5e5e5" stroke="#dddddd" points="321,-357 129,-357 129,-299 321,-299 321,-357"/>
<text text-anchor="start" x="141" y="-337.2" font-family="Helvetica,sans-Serif" font-weight="bold" font-size="16.00" fill="#707070">ApiGatewayV2::Route</text>
<text text-anchor="start" x="141" y="-312.2" font-family="Helvetica,sans-Serif" font-size="16.00" fill="#383838">route::sam&#45;app::GET /</text>
</g>
<!-- Route::::route::sam&#45;app::GET /&#45;&gt;Api::::sam&#45;app -->
<g id="edge6" class="edge">
<title>Route::::route::sam&#45;app::GET /&#45;&gt;Api::::sam&#45;app</title>
<path fill="none" stroke="#707070" d="M321.06,-325.53C356.44,-320.78 395.38,-310.66 426,-290 450.53,-273.45 436.03,-248.18 462,-234 495.45,-215.74 770.29,-218.27 805,-234 850.03,-254.4 884.92,-300.76 905.42,-334.12"/>
<polygon fill="#707070" stroke="#707070" points="902.43,-335.94 910.57,-342.72 908.44,-332.34 902.43,-335.94"/>
</g>
<!-- Route::::route::sam&#45;app::GET /&#45;&gt;Authorizer::::OAuth2Authorizer -->
<g id="edge8" class="edge">
<title>Route::::route::sam&#45;app::GET /&#45;&gt;Authorizer::::OAuth2Authorizer</title>
<path fill="none" stroke="#707070" d="M321.05,-314.91C377.5,-307.13 449.68,-297.19 510.33,-288.83"/>
<polygon fill="#707070" stroke="#707070" points="510.92,-292.28 520.35,-287.45 509.97,-285.35 510.92,-292.28"/>
</g>
<!-- Route::::route::sam&#45;app::GET /&#45;&gt;Integration::::integration::sam&#45;app::sam&#45;app&#45;AppFunction&#45;gKUxwsmxX2fK -->
<g id="edge7" class="edge">
<title>Route::::route::sam&#45;app::GET /&#45;&gt;Integration::::integration::sam&#45;app::sam&#45;app&#45;AppFunction&#45;gKUxwsmxX2fK</title>
<path fill="none" stroke="#707070" d="M321.05,-332.68C368.77,-335.02 427.73,-337.93 481.46,-340.57"/>
<polygon fill="#707070" stroke="#707070" points="481.62,-344.08 491.78,-341.08 481.97,-337.09 481.62,-344.08"/>
</g>
<!-- Stage::::$default&#45;&gt;Api::::sam&#45;app -->
<g id="edge9" class="edge">
<title>Stage::::$default&#45;&gt;Api::::sam&#45;app</title>
<path fill="none" stroke="#707070" d="M728.74,-420.72C761.45,-412.64 798.14,-403.58 830.91,-395.49"/>
<polygon fill="#707070" stroke="#707070" points="832.08,-398.8 840.95,-393.01 830.41,-392.01 832.08,-398.8"/>
</g>
<!-- UserPool::::UserPool&#45;3Fx2HozhHSsp -->
<g id="node7" class="node">
<title>UserPool::::UserPool&#45;3Fx2HozhHSsp</title>
<polygon fill="#e5e5e5" stroke="#dddddd" points="805,-205 462,-205 462,-147 805,-147 805,-205"/>
<text text-anchor="start" x="474.5" y="-185.2" font-family="Helvetica,sans-Serif" font-weight="bold" font-size="16.00" fill="#707070">CognitoIdentityServiceProvider::UserPool</text>
<text text-anchor="start" x="474.5" y="-160.2" font-family="Helvetica,sans-Serif" font-size="16.00" fill="#383838">UserPool&#45;3Fx2HozhHSsp</text>
</g>
<!-- UserPoolClient::::UserPoolClient&#45;9x4glkNVEYDn -->
<g id="node8" class="node">
<title>UserPoolClient::::UserPoolClient&#45;9x4glkNVEYDn</title>
<polygon fill="#e5e5e5" stroke="#dddddd" points="419,-281 31,-281 31,-223 419,-223 419,-281"/>
<text text-anchor="start" x="43" y="-261.2" font-family="Helvetica,sans-Serif" font-weight="bold" font-size="16.00" fill="#707070">CognitoIdentityServiceProvider::UserPoolClient</text>
<text text-anchor="start" x="43" y="-236.2" font-family="Helvetica,sans-Serif" font-size="16.00" fill="#383838">UserPoolClient&#45;9x4glkNVEYDn</text>
</g>
<!-- UserPoolClient::::UserPoolClient&#45;9x4glkNVEYDn&#45;&gt;UserPool::::UserPool&#45;3Fx2HozhHSsp -->
<g id="edge10" class="edge">
<title>UserPoolClient::::UserPoolClient&#45;9x4glkNVEYDn&#45;&gt;UserPool::::UserPool&#45;3Fx2HozhHSsp</title>
<path fill="none" stroke="#707070" d="M381.13,-223C409.31,-217.73 438.81,-212.21 467.27,-206.89"/>
<polygon fill="#707070" stroke="#707070" points="468.11,-210.3 477.29,-205.02 466.82,-203.42 468.11,-210.3"/>
</g>
<!-- UserPoolDomain::::myauth840541460064 -->
<g id="node9" class="node">
<title>UserPoolDomain::::myauth840541460064</title>
<polygon fill="#e5e5e5" stroke="#dddddd" points="426,-205 24,-205 24,-147 426,-147 426,-205"/>
<text text-anchor="start" x="36" y="-185.2" font-family="Helvetica,sans-Serif" font-weight="bold" font-size="16.00" fill="#707070">CognitoIdentityServiceProvider::UserPoolDomain</text>
<text text-anchor="start" x="36" y="-160.2" font-family="Helvetica,sans-Serif" font-size="16.00" fill="#383838">myauth840541460064</text>
</g>
<!-- UserPoolDomain::::myauth840541460064&#45;&gt;UserPool::::UserPool&#45;3Fx2HozhHSsp -->
<g id="edge11" class="edge">
<title>UserPoolDomain::::myauth840541460064&#45;&gt;UserPool::::UserPool&#45;3Fx2HozhHSsp</title>
<path fill="none" stroke="#707070" d="M426.27,-176C434.75,-176 443.23,-176 451.67,-176"/>
<polygon fill="#707070" stroke="#707070" points="451.92,-179.5 461.92,-176 451.92,-172.5 451.92,-179.5"/>
</g>
<!-- Role::::sam&#45;app&#45;AppFunctionRole&#45;BXPIJ03LGY2Y -->
<g id="node10" class="node">
<title>Role::::sam&#45;app&#45;AppFunctionRole&#45;BXPIJ03LGY2Y</title>
<polygon fill="#e5e5e5" stroke="#dddddd" points="787,-129 480,-129 480,-71 787,-71 787,-129"/>
<text text-anchor="start" x="492.5" y="-109.2" font-family="Helvetica,sans-Serif" font-weight="bold" font-size="16.00" fill="#707070">IAM::Role</text>
<text text-anchor="start" x="492.5" y="-84.2" font-family="Helvetica,sans-Serif" font-size="16.00" fill="#383838">sam&#45;app&#45;AppFunctionRole&#45;BXPIJ03L...</text>
</g>
<!-- Function::::sam&#45;app&#45;AppFunction&#45;gKUxwsmxX2fK -->
<g id="node11" class="node">
<title>Function::::sam&#45;app&#45;AppFunction&#45;gKUxwsmxX2fK</title>
<polygon fill="#e5e5e5" stroke="#dddddd" points="383.5,-129 66.5,-129 66.5,-71 383.5,-71 383.5,-129"/>
<text text-anchor="start" x="79" y="-109.2" font-family="Helvetica,sans-Serif" font-weight="bold" font-size="16.00" fill="#707070">Lambda::Function</text>
<text text-anchor="start" x="79" y="-84.2" font-family="Helvetica,sans-Serif" font-size="16.00" fill="#383838">sam&#45;app&#45;AppFunction&#45;gKUxwsmxX2fK...</text>
</g>
<!-- Function::::sam&#45;app&#45;AppFunction&#45;gKUxwsmxX2fK&#45;&gt;Role::::sam&#45;app&#45;AppFunctionRole&#45;BXPIJ03LGY2Y -->
<g id="edge12" class="edge">
<title>Function::::sam&#45;app&#45;AppFunction&#45;gKUxwsmxX2fK&#45;&gt;Role::::sam&#45;app&#45;AppFunctionRole&#45;BXPIJ03LGY2Y</title>
<path fill="none" stroke="#707070" d="M383.75,-100C411.87,-100 441.22,-100 469.49,-100"/>
<polygon fill="#707070" stroke="#707070" points="469.85,-103.5 479.85,-100 469.85,-96.5 469.85,-103.5"/>
</g>
</g>
</svg>
