<?xml version="1.0" encoding="UTF-8" standalone="no"?><svg xmlns="http://www.w3.org/2000/svg" xmlns:xlink="http://www.w3.org/1999/xlink" contentScriptType="application/ecmascript" contentStyleType="text/css" height="285px" preserveAspectRatio="none" style="width:562px;height:285px;background:#FFFFFF;" version="1.1" viewBox="0 0 562 285" width="562px" zoomAndPan="magnify"><defs><filter height="300%" id="f1p32hckijayrr" width="300%" x="-1" y="-1"><feGaussianBlur result="blurOut" stdDeviation="2.0"/><feColorMatrix in="blurOut" result="blurOut2" type="matrix" values="0 0 0 0 0 0 0 0 0 0 0 0 0 0 0 0 0 0 .4 0"/><feOffset dx="4.0" dy="4.0" in="blurOut2" result="blurOut3"/><feBlend in="SourceGraphic" in2="blurOut3" mode="normal"/></filter></defs><g><rect fill="none" height="26.4883" style="stroke:none;stroke-width:1.0;" width="241" x="130.5" y="15"/><text fill="#000000" font-family="sans-serif" font-size="14" font-weight="bold" lengthAdjust="spacing" textLength="231" x="135.5" y="33.5352">Resources for project helloword</text><rect fill="#F8F8F8" filter="url(#f1p32hckijayrr)" height="36.4883" rx="12.5" ry="12.5" style="stroke:#383838;stroke-width:1.5;" width="52" x="10" y="142.2207"/><text fill="#000000" font-family="sans-serif" font-size="14" lengthAdjust="spacing" textLength="32" x="20" y="165.7559">Infra</text><rect fill="#F8F8F8" filter="url(#f1p32hckijayrr)" height="36.4883" rx="12.5" ry="12.5" style="stroke:#383838;stroke-width:1.5;" width="59" x="112" y="142.2207"/><text fill="#000000" font-family="sans-serif" font-size="14" lengthAdjust="spacing" textLength="39" x="122" y="165.7559">azure</text><rect fill="#F8F8F8" filter="url(#f1p32hckijayrr)" height="36.4883" rx="12.5" ry="12.5" style="stroke:#383838;stroke-width:1.5;" width="48" x="221" y="85.7324"/><text fill="#000000" font-family="sans-serif" font-size="14" lengthAdjust="spacing" textLength="28" x="231" y="109.2676">App</text><rect fill="#F8F8F8" filter="url(#f1p32hckijayrr)" height="36.4883" rx="12.5" ry="12.5" style="stroke:#383838;stroke-width:1.5;" width="139" x="319" y="57.4883"/><text fill="#000000" font-family="sans-serif" font-size="14" lengthAdjust="spacing" textLength="119" x="329" y="81.0234">ContainerApp (1)</text><path d="M269,103.9766 L279,103.9766 C294,103.9766 294,75.7324 309,75.7324 L319,75.7324 " fill="none" style="stroke:#383838;stroke-width:1.0;"/><rect fill="#F8F8F8" filter="url(#f1p32hckijayrr)" height="36.4883" rx="12.5" ry="12.5" style="stroke:#383838;stroke-width:1.5;" width="193" x="319" y="113.9766"/><text fill="#000000" font-family="sans-serif" font-size="14" lengthAdjust="spacing" textLength="173" x="329" y="137.5117">ManagedEnvironment (1)</text><path d="M269,103.9766 L279,103.9766 C294,103.9766 294,132.2207 309,132.2207 L319,132.2207 " fill="none" style="stroke:#383838;stroke-width:1.0;"/><path d="M171,160.4648 L181,160.4648 C196,160.4648 196,103.9766 211,103.9766 L221,103.9766 " fill="none" style="stroke:#383838;stroke-width:1.0;"/><rect fill="#F8F8F8" filter="url(#f1p32hckijayrr)" height="36.4883" rx="12.5" ry="12.5" style="stroke:#383838;stroke-width:1.5;" width="155" x="221" y="170.4648"/><text fill="#000000" font-family="sans-serif" font-size="14" lengthAdjust="spacing" textLength="135" x="231" y="194">OperationalInsights</text><rect fill="#F8F8F8" filter="url(#f1p32hckijayrr)" height="36.4883" rx="12.5" ry="12.5" style="stroke:#383838;stroke-width:1.5;" width="117" x="426" y="170.4648"/><text fill="#000000" font-family="sans-serif" font-size="14" lengthAdjust="spacing" textLength="97" x="436" y="194">Workspace (1)</text><path d="M376,188.709 L386,188.709 C401,188.709 401,188.709 416,188.709 L426,188.709 " fill="none" style="stroke:#383838;stroke-width:1.0;"/><path d="M171,160.4648 L181,160.4648 C196,160.4648 196,188.709 211,188.709 L221,188.709 " fill="none" style="stroke:#383838;stroke-width:1.0;"/><rect fill="#F8F8F8" filter="url(#f1p32hckijayrr)" height="36.4883" rx="12.5" ry="12.5" style="stroke:#383838;stroke-width:1.5;" width="90" x="221" y="226.9531"/><text fill="#000000" font-family="sans-serif" font-size="14" lengthAdjust="spacing" textLength="70" x="231" y="250.4883">Resources</text><rect fill="#F8F8F8" filter="url(#f1p32hckijayrr)" height="36.4883" rx="12.5" ry="12.5" style="stroke:#383838;stroke-width:1.5;" width="149" x="361" y="226.9531"/><text fill="#000000" font-family="sans-serif" font-size="14" lengthAdjust="spacing" textLength="129" x="371" y="250.4883">ResourceGroup (1)</text><path d="M311,245.1973 L321,245.1973 C336,245.1973 336,245.1973 351,245.1973 L361,245.1973 " fill="none" style="stroke:#383838;stroke-width:1.0;"/><path d="M171,160.4648 L181,160.4648 C196,160.4648 196,245.1973 211,245.1973 L221,245.1973 " fill="none" style="stroke:#383838;stroke-width:1.0;"/><path d="M62,160.4648 L72,160.4648 C87,160.4648 87,160.4648 102,160.4648 L112,160.4648 " fill="none" style="stroke:#383838;stroke-width:1.0;"/><!--MD5=[de164fefd6c167ebb9293442fba8b9d0]
@startmindmap
title Resources for project helloword
skinparam monochrome true
+ Infra
++ azure
+++ App
++++ ContainerApp (1)
++++ ManagedEnvironment (1)
+++ OperationalInsights
++++ Workspace (1)
+++ Resources
++++ ResourceGroup (1)
@endmindmap

PlantUML version 1.2021.8(Sat Jun 26 10:20:59 CEST 2021)
(GPL source distribution)
Java Runtime: OpenJDK Runtime Environment
JVM: OpenJDK 64-Bit Server VM
Default Encoding: UTF-8
Language: en
Country: GB
--></g></svg>