<?xml version="1.0" encoding="UTF-8" standalone="no"?>
<!DOCTYPE svg PUBLIC "-//W3C//DTD SVG 1.1//EN"
 "http://www.w3.org/Graphics/SVG/1.1/DTD/svg11.dtd">
<!-- Generated by graphviz version 6.0.0 (20220910.1538)
 -->
<!-- Title: graphname Pages: 1 -->
<svg width="1177pt" height="353pt"
 viewBox="0.00 0.00 1177.00 353.00" xmlns="http://www.w3.org/2000/svg" xmlns:xlink="http://www.w3.org/1999/xlink">
<g id="graph0" class="graph" transform="scale(1 1) rotate(0) translate(4 349)">
<title>graphname</title>
<polygon fill="#fafafa" stroke="none" points="-4,4 -4,-349 1173,-349 1173,4 -4,4"/>
<text text-anchor="start" x="453.5" y="-320.4" font-family="Helvetica,sans-Serif" font-weight="bold" font-size="22.00" fill="#383838">Project appconfig&#45;simple</text>
<text text-anchor="start" x="580.5" y="-304.8" font-family="Helvetica,sans-Serif" font-size="14.00"> &#160;</text>
<text text-anchor="start" x="453.5" y="-283.2" font-family="Helvetica,sans-Serif" font-weight="bold" font-size="16.00" fill="#707070">Target Diagram</text>
<g id="clust1" class="cluster">
<title>cluster_aws</title>
<polygon fill="#f5f5f5" stroke="#f5f5f5" points="8,-8 8,-261 1161,-261 1161,-8 8,-8"/>
<text text-anchor="start" x="522.5" y="-23" font-family="Helvetica,sans-Serif" font-weight="bold" font-size="20.00" fill="#707070">Provider aws</text>
</g>
<g id="clust2" class="cluster">
<title>cluster_aws_</title>
<polygon fill="#eeeeee" stroke="#eeeeee" points="16,-54 16,-253 1153,-253 1153,-54 16,-54"/>
<text text-anchor="start" x="584.36" y="-58.3" font-family="Helvetica,sans-Serif" font-size="1.00" fill="#383838"> </text>
</g>
<!-- Application::my&#45;appconfig -->
<g id="node1" class="node">
<title>Application::my&#45;appconfig</title>
<polygon fill="#e5e5e5" stroke="#dddddd" points="1145,-207 942,-207 942,-149 1145,-149 1145,-207"/>
<text text-anchor="start" x="954.5" y="-187.2" font-family="Helvetica,sans-Serif" font-weight="bold" font-size="16.00" fill="#707070">AppConfig::Application</text>
<text text-anchor="start" x="954.5" y="-162.2" font-family="Helvetica,sans-Serif" font-size="16.00" fill="#383838">my&#45;appconfig</text>
</g>
<!-- Deployment::my&#45;appconfig::env&#45;dev -->
<g id="node2" class="node">
<title>Deployment::my&#45;appconfig::env&#45;dev</title>
<polygon fill="#e5e5e5" stroke="#dddddd" points="232,-201 24,-201 24,-143 232,-143 232,-201"/>
<text text-anchor="start" x="36" y="-181.2" font-family="Helvetica,sans-Serif" font-weight="bold" font-size="16.00" fill="#707070">AppConfig::Deployment</text>
<text text-anchor="start" x="36" y="-156.2" font-family="Helvetica,sans-Serif" font-size="16.00" fill="#383838">my&#45;appconfig::env&#45;dev</text>
</g>
<!-- DeploymentStrategy::my&#45;stategy -->
<g id="node3" class="node">
<title>DeploymentStrategy::my&#45;stategy</title>
<polygon fill="#e5e5e5" stroke="#dddddd" points="569.5,-129 298.5,-129 298.5,-71 569.5,-71 569.5,-129"/>
<text text-anchor="start" x="311" y="-109.2" font-family="Helvetica,sans-Serif" font-weight="bold" font-size="16.00" fill="#707070">AppConfig::DeploymentStrategy</text>
<text text-anchor="start" x="311" y="-84.2" font-family="Helvetica,sans-Serif" font-size="16.00" fill="#383838">my&#45;stategy</text>
</g>
<!-- Deployment::my&#45;appconfig::env&#45;dev&#45;&gt;DeploymentStrategy::my&#45;stategy -->
<g id="edge2" class="edge">
<title>Deployment::my&#45;appconfig::env&#45;dev&#45;&gt;DeploymentStrategy::my&#45;stategy</title>
<path fill="none" stroke="#707070" d="M232.34,-147.52C254.33,-142.32 277.84,-136.75 300.74,-131.32"/>
<polygon fill="#707070" stroke="#707070" points="301.59,-134.72 310.51,-129.01 299.98,-127.91 301.59,-134.72"/>
</g>
<!-- ConfigurationProfile::my&#45;appconfig::profile&#45;freeform -->
<g id="node4" class="node">
<title>ConfigurationProfile::my&#45;appconfig::profile&#45;freeform</title>
<polygon fill="#e5e5e5" stroke="#dddddd" points="906,-169 636,-169 636,-111 906,-111 906,-169"/>
<text text-anchor="start" x="648" y="-149.2" font-family="Helvetica,sans-Serif" font-weight="bold" font-size="16.00" fill="#707070">AppConfig::ConfigurationProfile</text>
<text text-anchor="start" x="648" y="-124.2" font-family="Helvetica,sans-Serif" font-size="16.00" fill="#383838">my&#45;appconfig::profile&#45;freeform</text>
</g>
<!-- Deployment::my&#45;appconfig::env&#45;dev&#45;&gt;ConfigurationProfile::my&#45;appconfig::profile&#45;freeform -->
<g id="edge1" class="edge">
<title>Deployment::my&#45;appconfig::env&#45;dev&#45;&gt;ConfigurationProfile::my&#45;appconfig::profile&#45;freeform</title>
<path fill="none" stroke="#707070" d="M232.17,-160.86C244.24,-159.78 256.39,-158.79 268,-158 388.39,-149.79 525.3,-145.19 625.7,-142.71"/>
<polygon fill="#707070" stroke="#707070" points="626,-146.2 635.91,-142.46 625.83,-139.2 626,-146.2"/>
</g>
<!-- Environment::my&#45;appconfig::env&#45;dev -->
<g id="node5" class="node">
<title>Environment::my&#45;appconfig::env&#45;dev</title>
<polygon fill="#e5e5e5" stroke="#dddddd" points="878,-245 664,-245 664,-187 878,-187 878,-245"/>
<text text-anchor="start" x="676" y="-225.2" font-family="Helvetica,sans-Serif" font-weight="bold" font-size="16.00" fill="#707070">AppConfig::Environment</text>
<text text-anchor="start" x="676" y="-200.2" font-family="Helvetica,sans-Serif" font-size="16.00" fill="#383838">my&#45;appconfig::env&#45;dev</text>
</g>
<!-- Deployment::my&#45;appconfig::env&#45;dev&#45;&gt;Environment::my&#45;appconfig::env&#45;dev -->
<g id="edge3" class="edge">
<title>Deployment::my&#45;appconfig::env&#45;dev&#45;&gt;Environment::my&#45;appconfig::env&#45;dev</title>
<path fill="none" stroke="#707070" d="M180.37,-201.13C205.86,-213.94 237.63,-227.53 268,-234 398.01,-261.68 551.17,-250.02 653.82,-236.05"/>
<polygon fill="#707070" stroke="#707070" points="654.48,-239.49 663.9,-234.65 653.51,-232.56 654.48,-239.49"/>
</g>
<!-- HostedConfigurationVersion::my&#45;appconfig::profile&#45;freeform -->
<g id="node6" class="node">
<title>HostedConfigurationVersion::my&#45;appconfig::profile&#45;freeform</title>
<polygon fill="#e5e5e5" stroke="#dddddd" points="600,-225 268,-225 268,-167 600,-167 600,-225"/>
<text text-anchor="start" x="280" y="-205.2" font-family="Helvetica,sans-Serif" font-weight="bold" font-size="16.00" fill="#707070">AppConfig::HostedConfigurationVersion</text>
<text text-anchor="start" x="280" y="-180.2" font-family="Helvetica,sans-Serif" font-size="16.00" fill="#383838">my&#45;appconfig::profile&#45;freeform</text>
</g>
<!-- Deployment::my&#45;appconfig::env&#45;dev&#45;&gt;HostedConfigurationVersion::my&#45;appconfig::profile&#45;freeform -->
<g id="edge4" class="edge">
<title>Deployment::my&#45;appconfig::env&#45;dev&#45;&gt;HostedConfigurationVersion::my&#45;appconfig::profile&#45;freeform</title>
<path fill="none" stroke="#707070" d="M232.34,-180.16C240.63,-180.81 249.14,-181.48 257.75,-182.16"/>
<polygon fill="#707070" stroke="#707070" points="257.64,-185.67 267.89,-182.96 258.2,-178.69 257.64,-185.67"/>
</g>
<!-- ConfigurationProfile::my&#45;appconfig::profile&#45;freeform&#45;&gt;Application::my&#45;appconfig -->
<g id="edge5" class="edge">
<title>ConfigurationProfile::my&#45;appconfig::profile&#45;freeform&#45;&gt;Application::my&#45;appconfig</title>
<path fill="none" stroke="#707070" d="M906.06,-158.83C914.75,-160.05 923.45,-161.28 932,-162.48"/>
<polygon fill="#707070" stroke="#707070" points="931.59,-165.95 941.98,-163.88 932.56,-159.02 931.59,-165.95"/>
</g>
<!-- Environment::my&#45;appconfig::env&#45;dev&#45;&gt;Application::my&#45;appconfig -->
<g id="edge6" class="edge">
<title>Environment::my&#45;appconfig::env&#45;dev&#45;&gt;Application::my&#45;appconfig</title>
<path fill="none" stroke="#707070" d="M878.13,-201.09C895.7,-198.62 913.96,-196.06 931.64,-193.57"/>
<polygon fill="#707070" stroke="#707070" points="932.56,-196.98 941.98,-192.12 931.59,-190.05 932.56,-196.98"/>
</g>
<!-- HostedConfigurationVersion::my&#45;appconfig::profile&#45;freeform&#45;&gt;ConfigurationProfile::my&#45;appconfig::profile&#45;freeform -->
<g id="edge7" class="edge">
<title>HostedConfigurationVersion::my&#45;appconfig::profile&#45;freeform&#45;&gt;ConfigurationProfile::my&#45;appconfig::profile&#45;freeform</title>
<path fill="none" stroke="#707070" d="M600.05,-168.41C608.59,-166.98 617.15,-165.55 625.62,-164.13"/>
<polygon fill="#707070" stroke="#707070" points="626.24,-167.58 635.53,-162.48 625.09,-160.68 626.24,-167.58"/>
</g>
</g>
</svg>
