<?xml version="1.0" encoding="UTF-8" standalone="no"?>
<!DOCTYPE svg PUBLIC "-//W3C//DTD SVG 1.1//EN"
 "http://www.w3.org/Graphics/SVG/1.1/DTD/svg11.dtd">
<!-- Generated by graphviz version 2.44.1 (20200629.0846)
 -->
<!-- Title: graphname Pages: 1 -->
<svg width="654pt" height="313pt"
 viewBox="0.00 0.00 654.00 313.00" xmlns="http://www.w3.org/2000/svg" xmlns:xlink="http://www.w3.org/1999/xlink">
<g id="graph0" class="graph" transform="scale(1 1) rotate(0) translate(4 309)">
<title>graphname</title>
<polygon fill="#fafafa" stroke="transparent" points="-4,4 -4,-309 650,-309 650,4 -4,4"/>
<text text-anchor="start" x="107" y="-280.4" font-family="Helvetica,sans-Serif" font-weight="bold" font-size="22.00" fill="#383838">Project EC2 Instance with Security Group</text>
<text text-anchor="start" x="319.5" y="-264.8" font-family="Helvetica,sans-Serif" font-size="14.00"> &#160;</text>
<text text-anchor="start" x="107" y="-243.2" font-family="Helvetica,sans-Serif" font-weight="bold" font-size="16.00" fill="#707070">Target Diagram</text>
<g id="clust1" class="cluster">
<title>cluster_aws</title>
<polygon fill="#f5f5f5" stroke="#f5f5f5" points="8,-8 8,-221 638,-221 638,-8 8,-8"/>
<text text-anchor="start" x="261" y="-23" font-family="Helvetica,sans-Serif" font-weight="bold" font-size="20.00" fill="#707070">Provider aws</text>
</g>
<g id="clust2" class="cluster">
<title>cluster_aws_</title>
<polygon fill="#eeeeee" stroke="#eeeeee" points="16,-54 16,-213 630,-213 630,-54 16,-54"/>
<text text-anchor="start" x="322.86" y="-58.3" font-family="Helvetica,sans-Serif" font-size="1.00" fill="#383838"> </text>
</g>
<!-- KeyPair::kp&#45;ec2 -->
<g id="node1" class="node">
<title>KeyPair::kp&#45;ec2</title>
<polygon fill="#e5e5e5" stroke="#dddddd" points="447,-129 363,-129 363,-71 447,-71 447,-129"/>
<text text-anchor="start" x="375" y="-109.2" font-family="Helvetica,sans-Serif" font-weight="bold" font-size="16.00" fill="#707070">KeyPair</text>
<text text-anchor="start" x="375" y="-84.2" font-family="Helvetica,sans-Serif" font-size="16.00" fill="#383838">kp&#45;ec2</text>
</g>
<!-- Vpc::vpc&#45;default -->
<g id="node2" class="node">
<title>Vpc::vpc&#45;default</title>
<polygon fill="#e5e5e5" stroke="#dddddd" points="622,-205 518,-205 518,-147 622,-147 622,-205"/>
<text text-anchor="start" x="530" y="-185.2" font-family="Helvetica,sans-Serif" font-weight="bold" font-size="16.00" fill="#707070">Vpc</text>
<text text-anchor="start" x="530" y="-160.2" font-family="Helvetica,sans-Serif" font-size="16.00" fill="#383838">vpc&#45;default</text>
</g>
<!-- SecurityGroup::my&#45;security&#45;group -->
<g id="node3" class="node">
<title>SecurityGroup::my&#45;security&#45;group</title>
<polygon fill="#e5e5e5" stroke="#dddddd" points="482,-205 328,-205 328,-147 482,-147 482,-205"/>
<text text-anchor="start" x="340" y="-185.2" font-family="Helvetica,sans-Serif" font-weight="bold" font-size="16.00" fill="#707070">SecurityGroup</text>
<text text-anchor="start" x="340" y="-160.2" font-family="Helvetica,sans-Serif" font-size="16.00" fill="#383838">my&#45;security&#45;group</text>
</g>
<!-- SecurityGroup::my&#45;security&#45;group&#45;&gt;Vpc::vpc&#45;default -->
<g id="edge1" class="edge">
<title>SecurityGroup::my&#45;security&#45;group&#45;&gt;Vpc::vpc&#45;default</title>
<path fill="none" stroke="#707070" d="M482.25,-176C490.85,-176 499.53,-176 507.9,-176"/>
<polygon fill="#707070" stroke="#707070" points="507.93,-179.5 517.93,-176 507.93,-172.5 507.93,-179.5"/>
</g>
<!-- SecurityGroupRuleIngress::my&#45;security&#45;group&#45;rule&#45;ingress&#45;tcp&#45;22&#45;v4 -->
<g id="node4" class="node">
<title>SecurityGroupRuleIngress::my&#45;security&#45;group&#45;rule&#45;ingress&#45;tcp&#45;22&#45;v4</title>
<polygon fill="#e5e5e5" stroke="#dddddd" points="292,-205 24,-205 24,-147 292,-147 292,-205"/>
<text text-anchor="start" x="36" y="-185.2" font-family="Helvetica,sans-Serif" font-weight="bold" font-size="16.00" fill="#707070">SecurityGroupRuleIngress</text>
<text text-anchor="start" x="36" y="-160.2" font-family="Helvetica,sans-Serif" font-size="16.00" fill="#383838">my&#45;security&#45;group&#45;rule&#45;ingress&#45;t...</text>
</g>
<!-- SecurityGroupRuleIngress::my&#45;security&#45;group&#45;rule&#45;ingress&#45;tcp&#45;22&#45;v4&#45;&gt;SecurityGroup::my&#45;security&#45;group -->
<g id="edge2" class="edge">
<title>SecurityGroupRuleIngress::my&#45;security&#45;group&#45;rule&#45;ingress&#45;tcp&#45;22&#45;v4&#45;&gt;SecurityGroup::my&#45;security&#45;group</title>
<path fill="none" stroke="#707070" d="M292.25,-176C300.78,-176 309.23,-176 317.45,-176"/>
<polygon fill="#707070" stroke="#707070" points="317.71,-179.5 327.71,-176 317.71,-172.5 317.71,-179.5"/>
</g>
<!-- Instance::my&#45;ec2 -->
<g id="node5" class="node">
<title>Instance::my&#45;ec2</title>
<polygon fill="#e5e5e5" stroke="#dddddd" points="203,-129 113,-129 113,-71 203,-71 203,-129"/>
<text text-anchor="start" x="125" y="-109.2" font-family="Helvetica,sans-Serif" font-weight="bold" font-size="16.00" fill="#707070">Instance</text>
<text text-anchor="start" x="125" y="-84.2" font-family="Helvetica,sans-Serif" font-size="16.00" fill="#383838">my&#45;ec2</text>
</g>
<!-- Instance::my&#45;ec2&#45;&gt;KeyPair::kp&#45;ec2 -->
<g id="edge3" class="edge">
<title>Instance::my&#45;ec2&#45;&gt;KeyPair::kp&#45;ec2</title>
<path fill="none" stroke="#707070" d="M203.08,-100C245.05,-100 308.18,-100 352.45,-100"/>
<polygon fill="#707070" stroke="#707070" points="352.72,-103.5 362.72,-100 352.72,-96.5 352.72,-103.5"/>
</g>
<!-- Instance::my&#45;ec2&#45;&gt;SecurityGroup::my&#45;security&#45;group -->
<g id="edge4" class="edge">
<title>Instance::my&#45;ec2&#45;&gt;SecurityGroup::my&#45;security&#45;group</title>
<path fill="none" stroke="#707070" d="M203.19,-112.04C229.15,-119.26 262.54,-128.8 292,-138 300.56,-140.67 309.47,-143.54 318.35,-146.46"/>
<polygon fill="#707070" stroke="#707070" points="317.36,-149.82 327.95,-149.64 319.56,-143.18 317.36,-149.82"/>
</g>
</g>
</svg>
