<?xml version="1.0" encoding="UTF-8" standalone="no"?>
<!DOCTYPE svg PUBLIC "-//W3C//DTD SVG 1.1//EN"
 "http://www.w3.org/Graphics/SVG/1.1/DTD/svg11.dtd">
<!-- Generated by graphviz version 4.0.0 (20220529.0937)
 -->
<!-- Title: graphname Pages: 1 -->
<svg width="945pt" height="713pt"
 viewBox="0.00 0.00 945.00 713.00" xmlns="http://www.w3.org/2000/svg" xmlns:xlink="http://www.w3.org/1999/xlink">
<g id="graph0" class="graph" transform="scale(1 1) rotate(0) translate(4 709)">
<title>graphname</title>
<polygon fill="#fafafa" stroke="transparent" points="-4,4 -4,-709 941,-709 941,4 -4,4"/>
<text text-anchor="start" x="357.5" y="-680.4" font-family="Helvetica,sans-Serif" font-weight="bold" font-size="22.00" fill="#383838">Project website&#45;https</text>
<text text-anchor="start" x="465" y="-664.8" font-family="Helvetica,sans-Serif" font-size="14.00"> &#160;</text>
<text text-anchor="start" x="357.5" y="-643.2" font-family="Helvetica,sans-Serif" font-weight="bold" font-size="16.00" fill="#707070">Live Diagram</text>
<g id="clust1" class="cluster">
<title>cluster_aws</title>
<polygon fill="#f5f5f5" stroke="#f5f5f5" points="8,-8 8,-621 929,-621 929,-8 8,-8"/>
<text text-anchor="start" x="406.5" y="-23" font-family="Helvetica,sans-Serif" font-weight="bold" font-size="20.00" fill="#707070">Provider aws</text>
</g>
<g id="clust2" class="cluster">
<title>cluster_aws_</title>
<polygon fill="#eeeeee" stroke="#eeeeee" points="16,-54 16,-613 921,-613 921,-54 16,-54"/>
<text text-anchor="start" x="468.36" y="-58.3" font-family="Helvetica,sans-Serif" font-size="1.00" fill="#383838"> </text>
</g>
<!-- Certificate::::cloudfront.aws.test.grucloud.org -->
<g id="node1" class="node">
<title>Certificate::::cloudfront.aws.test.grucloud.org</title>
<polygon fill="#e5e5e5" stroke="#dddddd" points="913,-595 645,-595 645,-537 913,-537 913,-595"/>
<text text-anchor="start" x="657" y="-575.2" font-family="Helvetica,sans-Serif" font-weight="bold" font-size="16.00" fill="#707070">ACM::Certificate</text>
<text text-anchor="start" x="657" y="-550.2" font-family="Helvetica,sans-Serif" font-size="16.00" fill="#383838">cloudfront.aws.test.grucloud.org...</text>
</g>
<!-- Distribution::::S3&#45;cloudfront.aws.test.grucloud.org -->
<g id="node2" class="node">
<title>Distribution::::S3&#45;cloudfront.aws.test.grucloud.org</title>
<polygon fill="#e5e5e5" stroke="#dddddd" points="609,-585 340,-585 340,-527 609,-527 609,-585"/>
<text text-anchor="start" x="352.5" y="-565.2" font-family="Helvetica,sans-Serif" font-weight="bold" font-size="16.00" fill="#707070">CloudFront::Distribution</text>
<text text-anchor="start" x="352.5" y="-540.2" font-family="Helvetica,sans-Serif" font-size="16.00" fill="#383838">S3&#45;cloudfront.aws.test.grucloud....</text>
</g>
<!-- Distribution::::S3&#45;cloudfront.aws.test.grucloud.org&#45;&gt;Certificate::::cloudfront.aws.test.grucloud.org -->
<g id="edge1" class="edge">
<title>Distribution::::S3&#45;cloudfront.aws.test.grucloud.org&#45;&gt;Certificate::::cloudfront.aws.test.grucloud.org</title>
<path fill="none" stroke="#707070" d="M609.06,-560.42C617.59,-560.7 626.2,-560.98 634.77,-561.27"/>
<polygon fill="#707070" stroke="#707070" points="634.71,-564.76 644.82,-561.6 634.94,-557.77 634.71,-564.76"/>
</g>
<!-- Bucket::::cloudfront.aws.test.grucloud.org -->
<g id="node9" class="node">
<title>Bucket::::cloudfront.aws.test.grucloud.org</title>
<polygon fill="#e5e5e5" stroke="#dddddd" points="913,-319 645,-319 645,-261 913,-261 913,-319"/>
<text text-anchor="start" x="657" y="-299.2" font-family="Helvetica,sans-Serif" font-weight="bold" font-size="16.00" fill="#707070">S3::Bucket</text>
<text text-anchor="start" x="657" y="-274.2" font-family="Helvetica,sans-Serif" font-size="16.00" fill="#383838">cloudfront.aws.test.grucloud.org...</text>
</g>
<!-- Distribution::::S3&#45;cloudfront.aws.test.grucloud.org&#45;&gt;Bucket::::cloudfront.aws.test.grucloud.org -->
<g id="edge2" class="edge">
<title>Distribution::::S3&#45;cloudfront.aws.test.grucloud.org&#45;&gt;Bucket::::cloudfront.aws.test.grucloud.org</title>
<path fill="none" stroke="#707070" d="M596.69,-526.99C601.01,-524.26 605.14,-521.27 609,-518 637.52,-493.84 624.5,-473.25 645,-442 673.1,-399.16 712.45,-355.71 741.06,-326.29"/>
<polygon fill="#707070" stroke="#707070" points="743.58,-328.72 748.08,-319.13 738.58,-323.82 743.58,-328.72"/>
</g>
<!-- HostedZone::::cloudfront.aws.test.grucloud.org. -->
<g id="node3" class="node">
<title>HostedZone::::cloudfront.aws.test.grucloud.org.</title>
<polygon fill="#e5e5e5" stroke="#dddddd" points="608.5,-509 340.5,-509 340.5,-451 608.5,-451 608.5,-509"/>
<text text-anchor="start" x="352.5" y="-489.2" font-family="Helvetica,sans-Serif" font-weight="bold" font-size="16.00" fill="#707070">Route53::HostedZone</text>
<text text-anchor="start" x="352.5" y="-464.2" font-family="Helvetica,sans-Serif" font-size="16.00" fill="#383838">cloudfront.aws.test.grucloud.org...</text>
</g>
<!-- Domain::::grucloud.org -->
<g id="node8" class="node">
<title>Domain::::grucloud.org</title>
<polygon fill="#e5e5e5" stroke="#dddddd" points="891,-509 667,-509 667,-451 891,-451 891,-509"/>
<text text-anchor="start" x="679" y="-489.2" font-family="Helvetica,sans-Serif" font-weight="bold" font-size="16.00" fill="#707070">Route53Domains::Domain</text>
<text text-anchor="start" x="679" y="-464.2" font-family="Helvetica,sans-Serif" font-size="16.00" fill="#383838">grucloud.org</text>
</g>
<!-- HostedZone::::cloudfront.aws.test.grucloud.org.&#45;&gt;Domain::::grucloud.org -->
<g id="edge3" class="edge">
<title>HostedZone::::cloudfront.aws.test.grucloud.org.&#45;&gt;Domain::::grucloud.org</title>
<path fill="none" stroke="#707070" d="M608.62,-480C624.48,-480 640.62,-480 656.31,-480"/>
<polygon fill="#707070" stroke="#707070" points="656.55,-483.5 666.55,-480 656.55,-476.5 656.55,-483.5"/>
</g>
<!-- Record::::record::ACM::Certificate::CNAME::cloudfront.aws.test.grucloud.org -->
<g id="node4" class="node">
<title>Record::::record::ACM::Certificate::CNAME::cloudfront.aws.test.grucloud.org</title>
<polygon fill="#e5e5e5" stroke="#dddddd" points="304,-605 24,-605 24,-547 304,-547 304,-605"/>
<text text-anchor="start" x="36" y="-585.2" font-family="Helvetica,sans-Serif" font-weight="bold" font-size="16.00" fill="#707070">Route53::Record</text>
<text text-anchor="start" x="36" y="-560.2" font-family="Helvetica,sans-Serif" font-size="16.00" fill="#383838">record::ACM::Certificate::CNAME:...</text>
</g>
<!-- Record::::record::ACM::Certificate::CNAME::cloudfront.aws.test.grucloud.org&#45;&gt;Certificate::::cloudfront.aws.test.grucloud.org -->
<g id="edge5" class="edge">
<title>Record::::record::ACM::Certificate::CNAME::cloudfront.aws.test.grucloud.org&#45;&gt;Certificate::::cloudfront.aws.test.grucloud.org</title>
<path fill="none" stroke="#707070" d="M304.36,-591.63C316.4,-592.59 328.41,-593.41 340,-594 459.4,-600.12 489.85,-603.8 609,-594 617.51,-593.3 626.23,-592.41 635.01,-591.37"/>
<polygon fill="#707070" stroke="#707070" points="635.45,-594.84 644.95,-590.14 634.6,-587.89 635.45,-594.84"/>
</g>
<!-- Record::::record::ACM::Certificate::CNAME::cloudfront.aws.test.grucloud.org&#45;&gt;HostedZone::::cloudfront.aws.test.grucloud.org. -->
<g id="edge4" class="edge">
<title>Record::::record::ACM::Certificate::CNAME::cloudfront.aws.test.grucloud.org&#45;&gt;HostedZone::::cloudfront.aws.test.grucloud.org.</title>
<path fill="none" stroke="#707070" d="M279.89,-546.95C288.13,-544.15 296.24,-541.16 304,-538 320.95,-531.09 323.09,-525 340,-518 344.5,-516.14 349.11,-514.34 353.8,-512.6"/>
<polygon fill="#707070" stroke="#707070" points="355.29,-515.78 363.52,-509.1 352.93,-509.19 355.29,-515.78"/>
</g>
<!-- Record::::record::CloudFront::Distribution::A::S3&#45;cloudfront.aws.test.grucloud.org -->
<g id="node5" class="node">
<title>Record::::record::CloudFront::Distribution::A::S3&#45;cloudfront.aws.test.grucloud.org</title>
<polygon fill="#e5e5e5" stroke="#dddddd" points="295,-529 33,-529 33,-471 295,-471 295,-529"/>
<text text-anchor="start" x="45" y="-509.2" font-family="Helvetica,sans-Serif" font-weight="bold" font-size="16.00" fill="#707070">Route53::Record</text>
<text text-anchor="start" x="45" y="-484.2" font-family="Helvetica,sans-Serif" font-size="16.00" fill="#383838">record::CloudFront::Distribution...</text>
</g>
<!-- Record::::record::CloudFront::Distribution::A::S3&#45;cloudfront.aws.test.grucloud.org&#45;&gt;Distribution::::S3&#45;cloudfront.aws.test.grucloud.org -->
<g id="edge7" class="edge">
<title>Record::::record::CloudFront::Distribution::A::S3&#45;cloudfront.aws.test.grucloud.org&#45;&gt;Distribution::::S3&#45;cloudfront.aws.test.grucloud.org</title>
<path fill="none" stroke="#707070" d="M295.38,-523.67C306.7,-525.72 318.2,-527.81 329.62,-529.88"/>
<polygon fill="#707070" stroke="#707070" points="329.16,-533.36 339.63,-531.7 330.41,-526.47 329.16,-533.36"/>
</g>
<!-- Record::::record::CloudFront::Distribution::A::S3&#45;cloudfront.aws.test.grucloud.org&#45;&gt;HostedZone::::cloudfront.aws.test.grucloud.org. -->
<g id="edge6" class="edge">
<title>Record::::record::CloudFront::Distribution::A::S3&#45;cloudfront.aws.test.grucloud.org&#45;&gt;HostedZone::::cloudfront.aws.test.grucloud.org.</title>
<path fill="none" stroke="#707070" d="M295.38,-491.55C306.83,-490.81 318.46,-490.05 330,-489.3"/>
<polygon fill="#707070" stroke="#707070" points="330.37,-492.79 340.12,-488.65 329.92,-485.8 330.37,-492.79"/>
</g>
<!-- Record::::record::NS::cloudfront.aws.test.grucloud.org. -->
<g id="node6" class="node">
<title>Record::::record::NS::cloudfront.aws.test.grucloud.org.</title>
<polygon fill="#e5e5e5" stroke="#dddddd" points="295.5,-453 32.5,-453 32.5,-395 295.5,-395 295.5,-453"/>
<text text-anchor="start" x="45" y="-433.2" font-family="Helvetica,sans-Serif" font-weight="bold" font-size="16.00" fill="#707070">Route53::Record</text>
<text text-anchor="start" x="45" y="-408.2" font-family="Helvetica,sans-Serif" font-size="16.00" fill="#383838">record::NS::cloudfront.aws.test....</text>
</g>
<!-- Record::::record::NS::cloudfront.aws.test.grucloud.org.&#45;&gt;HostedZone::::cloudfront.aws.test.grucloud.org. -->
<g id="edge8" class="edge">
<title>Record::::record::NS::cloudfront.aws.test.grucloud.org.&#45;&gt;HostedZone::::cloudfront.aws.test.grucloud.org.</title>
<path fill="none" stroke="#707070" d="M295.83,-447.75C307.26,-449.82 318.87,-451.93 330.39,-454.02"/>
<polygon fill="#707070" stroke="#707070" points="330.03,-457.51 340.49,-455.86 331.28,-450.63 330.03,-457.51"/>
</g>
<!-- Record::::record::SOA::cloudfront.aws.test.grucloud.org. -->
<g id="node7" class="node">
<title>Record::::record::SOA::cloudfront.aws.test.grucloud.org.</title>
<polygon fill="#e5e5e5" stroke="#dddddd" points="299.5,-377 28.5,-377 28.5,-319 299.5,-319 299.5,-377"/>
<text text-anchor="start" x="41" y="-357.2" font-family="Helvetica,sans-Serif" font-weight="bold" font-size="16.00" fill="#707070">Route53::Record</text>
<text text-anchor="start" x="41" y="-332.2" font-family="Helvetica,sans-Serif" font-size="16.00" fill="#383838">record::SOA::cloudfront.aws.test...</text>
</g>
<!-- Record::::record::SOA::cloudfront.aws.test.grucloud.org.&#45;&gt;HostedZone::::cloudfront.aws.test.grucloud.org. -->
<g id="edge9" class="edge">
<title>Record::::record::SOA::cloudfront.aws.test.grucloud.org.&#45;&gt;HostedZone::::cloudfront.aws.test.grucloud.org.</title>
<path fill="none" stroke="#707070" d="M289.98,-377.04C294.86,-379.77 299.56,-382.74 304,-386 327.85,-403.51 316.24,-424.37 340,-442 341.63,-443.21 343.3,-444.38 345.01,-445.52"/>
<polygon fill="#707070" stroke="#707070" points="343.42,-448.66 353.78,-450.89 347.08,-442.69 343.42,-448.66"/>
</g>
<!-- Object::::build/bundle.css -->
<g id="node10" class="node">
<title>Object::::build/bundle.css</title>
<polygon fill="#e5e5e5" stroke="#dddddd" points="545.5,-281 403.5,-281 403.5,-223 545.5,-223 545.5,-281"/>
<text text-anchor="start" x="415.5" y="-261.2" font-family="Helvetica,sans-Serif" font-weight="bold" font-size="16.00" fill="#707070">S3::Object</text>
<text text-anchor="start" x="415.5" y="-236.2" font-family="Helvetica,sans-Serif" font-size="16.00" fill="#383838">build/bundle.css</text>
</g>
<!-- Object::::build/bundle.css&#45;&gt;Bucket::::cloudfront.aws.test.grucloud.org -->
<g id="edge10" class="edge">
<title>Object::::build/bundle.css&#45;&gt;Bucket::::cloudfront.aws.test.grucloud.org</title>
<path fill="none" stroke="#707070" d="M545.66,-260.81C572.35,-264.17 603.83,-268.12 634.86,-272.02"/>
<polygon fill="#707070" stroke="#707070" points="634.55,-275.51 644.91,-273.28 635.42,-268.56 634.55,-275.51"/>
</g>
<!-- Object::::build/bundle.js -->
<g id="node11" class="node">
<title>Object::::build/bundle.js</title>
<polygon fill="#e5e5e5" stroke="#dddddd" points="539,-205 410,-205 410,-147 539,-147 539,-205"/>
<text text-anchor="start" x="422.5" y="-185.2" font-family="Helvetica,sans-Serif" font-weight="bold" font-size="16.00" fill="#707070">S3::Object</text>
<text text-anchor="start" x="422.5" y="-160.2" font-family="Helvetica,sans-Serif" font-size="16.00" fill="#383838">build/bundle.js</text>
</g>
<!-- Object::::build/bundle.js&#45;&gt;Bucket::::cloudfront.aws.test.grucloud.org -->
<g id="edge11" class="edge">
<title>Object::::build/bundle.js&#45;&gt;Bucket::::cloudfront.aws.test.grucloud.org</title>
<path fill="none" stroke="#707070" d="M539.26,-192.12C561.55,-198.28 586.59,-205.82 609,-214 642.82,-226.34 679.37,-242.42 709.8,-256.61"/>
<polygon fill="#707070" stroke="#707070" points="708.5,-259.86 719.04,-260.94 711.48,-253.53 708.5,-259.86"/>
</g>
<!-- Object::::favicon.png -->
<g id="node12" class="node">
<title>Object::::favicon.png</title>
<polygon fill="#e5e5e5" stroke="#dddddd" points="528.5,-129 420.5,-129 420.5,-71 528.5,-71 528.5,-129"/>
<text text-anchor="start" x="432.5" y="-109.2" font-family="Helvetica,sans-Serif" font-weight="bold" font-size="16.00" fill="#707070">S3::Object</text>
<text text-anchor="start" x="432.5" y="-84.2" font-family="Helvetica,sans-Serif" font-size="16.00" fill="#383838">favicon.png</text>
</g>
<!-- Object::::favicon.png&#45;&gt;Bucket::::cloudfront.aws.test.grucloud.org -->
<g id="edge12" class="edge">
<title>Object::::favicon.png&#45;&gt;Bucket::::cloudfront.aws.test.grucloud.org</title>
<path fill="none" stroke="#707070" d="M528.68,-109.31C554.06,-115.17 584.22,-124.3 609,-138 663.43,-168.08 714.88,-218.72 746.4,-253.21"/>
<polygon fill="#707070" stroke="#707070" points="743.91,-255.67 753.21,-260.75 749.1,-250.98 743.91,-255.67"/>
</g>
<!-- Object::::global.css -->
<g id="node13" class="node">
<title>Object::::global.css</title>
<polygon fill="#e5e5e5" stroke="#dddddd" points="527,-433 422,-433 422,-375 527,-375 527,-433"/>
<text text-anchor="start" x="434.5" y="-413.2" font-family="Helvetica,sans-Serif" font-weight="bold" font-size="16.00" fill="#707070">S3::Object</text>
<text text-anchor="start" x="434.5" y="-388.2" font-family="Helvetica,sans-Serif" font-size="16.00" fill="#383838">global.css</text>
</g>
<!-- Object::::global.css&#45;&gt;Bucket::::cloudfront.aws.test.grucloud.org -->
<g id="edge13" class="edge">
<title>Object::::global.css&#45;&gt;Bucket::::cloudfront.aws.test.grucloud.org</title>
<path fill="none" stroke="#707070" d="M527.09,-391.19C552.1,-384.51 582.4,-375.71 609,-366 642.82,-353.66 679.37,-337.58 709.8,-323.39"/>
<polygon fill="#707070" stroke="#707070" points="711.48,-326.47 719.04,-319.06 708.5,-320.14 711.48,-326.47"/>
</g>
<!-- Object::::index.html -->
<g id="node14" class="node">
<title>Object::::index.html</title>
<polygon fill="#e5e5e5" stroke="#dddddd" points="527,-357 422,-357 422,-299 527,-299 527,-357"/>
<text text-anchor="start" x="434.5" y="-337.2" font-family="Helvetica,sans-Serif" font-weight="bold" font-size="16.00" fill="#707070">S3::Object</text>
<text text-anchor="start" x="434.5" y="-312.2" font-family="Helvetica,sans-Serif" font-size="16.00" fill="#383838">index.html</text>
</g>
<!-- Object::::index.html&#45;&gt;Bucket::::cloudfront.aws.test.grucloud.org -->
<g id="edge14" class="edge">
<title>Object::::index.html&#45;&gt;Bucket::::cloudfront.aws.test.grucloud.org</title>
<path fill="none" stroke="#707070" d="M527.16,-321.51C556.98,-317.76 596.09,-312.85 634.54,-308.02"/>
<polygon fill="#707070" stroke="#707070" points="635.33,-311.45 644.82,-306.73 634.46,-304.5 635.33,-311.45"/>
</g>
</g>
</svg>
