<?xml version="1.0" encoding="UTF-8" standalone="no"?>
<!DOCTYPE svg PUBLIC "-//W3C//DTD SVG 1.1//EN"
 "http://www.w3.org/Graphics/SVG/1.1/DTD/svg11.dtd">
<!-- Generated by graphviz version 2.44.1 (20200629.0846)
 -->
<!-- Title: graphname Pages: 1 -->
<svg width="885pt" height="505pt"
 viewBox="0.00 0.00 885.00 505.00" xmlns="http://www.w3.org/2000/svg" xmlns:xlink="http://www.w3.org/1999/xlink">
<g id="graph0" class="graph" transform="scale(1 1) rotate(0) translate(4 501)">
<title>graphname</title>
<polygon fill="#fafafa" stroke="transparent" points="-4,4 -4,-501 881,-501 881,4 -4,4"/>
<text text-anchor="start" x="288.5" y="-472.4" font-family="Helvetica,sans-Serif" font-weight="bold" font-size="22.00" fill="#383838">Project vm&#45;managed&#45;identity</text>
<text text-anchor="start" x="435" y="-456.8" font-family="Helvetica,sans-Serif" font-size="14.00"> &#160;</text>
<text text-anchor="start" x="288.5" y="-435.2" font-family="Helvetica,sans-Serif" font-weight="bold" font-size="16.00" fill="#707070">Target Diagram</text>
<g id="clust1" class="cluster">
<title>cluster_azure</title>
<polygon fill="#f5f5f5" stroke="#f5f5f5" points="8,-8 8,-413 869,-413 869,-8 8,-8"/>
<text text-anchor="start" x="369.5" y="-23" font-family="Helvetica,sans-Serif" font-weight="bold" font-size="20.00" fill="#707070">Provider azure</text>
</g>
<g id="clust2" class="cluster">
<title>cluster_azure_</title>
<polygon fill="#eeeeee" stroke="#eeeeee" points="16,-54 16,-405 861,-405 861,-54 16,-54"/>
<text text-anchor="start" x="438.36" y="-58.3" font-family="Helvetica,sans-Serif" font-size="1.00" fill="#383838"> </text>
</g>
<!-- SshPublicKey::AdminGruCloud -->
<g id="node1" class="node">
<title>SshPublicKey::AdminGruCloud</title>
<polygon fill="#e5e5e5" stroke="#dddddd" points="163,-397 24,-397 24,-339 163,-339 163,-397"/>
<text text-anchor="start" x="36.5" y="-377.2" font-family="Helvetica,sans-Serif" font-weight="bold" font-size="16.00" fill="#707070">SshPublicKey</text>
<text text-anchor="start" x="36.5" y="-352.2" font-family="Helvetica,sans-Serif" font-size="16.00" fill="#383838">AdminGruCloud</text>
</g>
<!-- VirtualMachine::vm -->
<g id="node2" class="node">
<title>VirtualMachine::vm</title>
<polygon fill="#e5e5e5" stroke="#dddddd" points="163,-321 24,-321 24,-263 163,-263 163,-321"/>
<text text-anchor="start" x="36.5" y="-301.2" font-family="Helvetica,sans-Serif" font-weight="bold" font-size="16.00" fill="#707070">VirtualMachine</text>
<text text-anchor="start" x="36.5" y="-276.2" font-family="Helvetica,sans-Serif" font-size="16.00" fill="#383838">vm</text>
</g>
<!-- NetworkInterface::vm376 -->
<g id="node4" class="node">
<title>NetworkInterface::vm376</title>
<polygon fill="#e5e5e5" stroke="#dddddd" points="353,-321 199,-321 199,-263 353,-263 353,-321"/>
<text text-anchor="start" x="211" y="-301.2" font-family="Helvetica,sans-Serif" font-weight="bold" font-size="16.00" fill="#707070">NetworkInterface</text>
<text text-anchor="start" x="211" y="-276.2" font-family="Helvetica,sans-Serif" font-size="16.00" fill="#383838">vm376</text>
</g>
<!-- VirtualMachine::vm&#45;&gt;NetworkInterface::vm376 -->
<g id="edge2" class="edge">
<title>VirtualMachine::vm&#45;&gt;NetworkInterface::vm376</title>
<path fill="none" stroke="#707070" d="M163.25,-292C171.63,-292 180.27,-292 188.86,-292"/>
<polygon fill="#707070" stroke="#707070" points="188.91,-295.5 198.91,-292 188.91,-288.5 188.91,-295.5"/>
</g>
<!-- ResourceGroup::rg&#45;vm&#45;managed&#45;identity -->
<g id="node8" class="node">
<title>ResourceGroup::rg&#45;vm&#45;managed&#45;identity</title>
<polygon fill="#e5e5e5" stroke="#dddddd" points="853,-319 657,-319 657,-261 853,-261 853,-319"/>
<text text-anchor="start" x="669" y="-299.2" font-family="Helvetica,sans-Serif" font-weight="bold" font-size="16.00" fill="#707070">ResourceGroup</text>
<text text-anchor="start" x="669" y="-274.2" font-family="Helvetica,sans-Serif" font-size="16.00" fill="#383838">rg&#45;vm&#45;managed&#45;identity</text>
</g>
<!-- VirtualMachine::vm&#45;&gt;ResourceGroup::rg&#45;vm&#45;managed&#45;identity -->
<g id="edge1" class="edge">
<title>VirtualMachine::vm&#45;&gt;ResourceGroup::rg&#45;vm&#45;managed&#45;identity</title>
<path fill="none" stroke="#707070" d="M157.34,-321.12C257.35,-363.38 458.05,-431.41 621,-381 656.33,-370.07 690.64,-346.16 715.56,-325.6"/>
<polygon fill="#707070" stroke="#707070" points="717.92,-328.18 723.31,-319.06 713.41,-322.83 717.92,-328.18"/>
</g>
<!-- UserAssignedIdentity::my&#45;identity -->
<g id="node3" class="node">
<title>UserAssignedIdentity::my&#45;identity</title>
<polygon fill="#e5e5e5" stroke="#dddddd" points="599.5,-129 410.5,-129 410.5,-71 599.5,-71 599.5,-129"/>
<text text-anchor="start" x="423" y="-109.2" font-family="Helvetica,sans-Serif" font-weight="bold" font-size="16.00" fill="#707070">UserAssignedIdentity</text>
<text text-anchor="start" x="423" y="-84.2" font-family="Helvetica,sans-Serif" font-size="16.00" fill="#383838">my&#45;identity</text>
</g>
<!-- UserAssignedIdentity::my&#45;identity&#45;&gt;ResourceGroup::rg&#45;vm&#45;managed&#45;identity -->
<g id="edge3" class="edge">
<title>UserAssignedIdentity::my&#45;identity&#45;&gt;ResourceGroup::rg&#45;vm&#45;managed&#45;identity</title>
<path fill="none" stroke="#707070" d="M599.66,-126.13C607.12,-129.64 614.34,-133.58 621,-138 666.66,-168.28 706.13,-218.23 729.96,-252.55"/>
<polygon fill="#707070" stroke="#707070" points="727.14,-254.63 735.67,-260.92 732.92,-250.68 727.14,-254.63"/>
</g>
<!-- NetworkSecurityGroup::vm&#45;nsg -->
<g id="node5" class="node">
<title>NetworkSecurityGroup::vm&#45;nsg</title>
<polygon fill="#e5e5e5" stroke="#dddddd" points="604.5,-205 405.5,-205 405.5,-147 604.5,-147 604.5,-205"/>
<text text-anchor="start" x="418" y="-185.2" font-family="Helvetica,sans-Serif" font-weight="bold" font-size="16.00" fill="#707070">NetworkSecurityGroup</text>
<text text-anchor="start" x="418" y="-160.2" font-family="Helvetica,sans-Serif" font-size="16.00" fill="#383838">vm&#45;nsg</text>
</g>
<!-- NetworkInterface::vm376&#45;&gt;NetworkSecurityGroup::vm&#45;nsg -->
<g id="edge7" class="edge">
<title>NetworkInterface::vm376&#45;&gt;NetworkSecurityGroup::vm&#45;nsg</title>
<path fill="none" stroke="#707070" d="M312.9,-262.99C334.09,-246.91 361.98,-227.51 389,-214 392.35,-212.33 395.78,-210.7 399.28,-209.13"/>
<polygon fill="#707070" stroke="#707070" points="400.87,-212.25 408.67,-205.08 398.1,-205.83 400.87,-212.25"/>
</g>
<!-- PublicIPAddress::vm&#45;ip -->
<g id="node6" class="node">
<title>PublicIPAddress::vm&#45;ip</title>
<polygon fill="#e5e5e5" stroke="#dddddd" points="580.5,-281 429.5,-281 429.5,-223 580.5,-223 580.5,-281"/>
<text text-anchor="start" x="442" y="-261.2" font-family="Helvetica,sans-Serif" font-weight="bold" font-size="16.00" fill="#707070">PublicIPAddress</text>
<text text-anchor="start" x="442" y="-236.2" font-family="Helvetica,sans-Serif" font-size="16.00" fill="#383838">vm&#45;ip</text>
</g>
<!-- NetworkInterface::vm376&#45;&gt;PublicIPAddress::vm&#45;ip -->
<g id="edge6" class="edge">
<title>NetworkInterface::vm376&#45;&gt;PublicIPAddress::vm&#45;ip</title>
<path fill="none" stroke="#707070" d="M353.22,-278.57C374.35,-274.85 397.41,-270.78 419,-266.98"/>
<polygon fill="#707070" stroke="#707070" points="419.9,-270.37 429.14,-265.19 418.68,-263.48 419.9,-270.37"/>
</g>
<!-- VirtualNetwork::rg&#45;vm&#45;managed&#45;identity&#45;vnet -->
<g id="node7" class="node">
<title>VirtualNetwork::rg&#45;vm&#45;managed&#45;identity&#45;vnet</title>
<polygon fill="#e5e5e5" stroke="#dddddd" points="621,-357 389,-357 389,-299 621,-299 621,-357"/>
<text text-anchor="start" x="401" y="-337.2" font-family="Helvetica,sans-Serif" font-weight="bold" font-size="16.00" fill="#707070">VirtualNetwork</text>
<text text-anchor="start" x="401" y="-312.2" font-family="Helvetica,sans-Serif" font-size="16.00" fill="#383838">rg&#45;vm&#45;managed&#45;identity&#45;vnet</text>
</g>
<!-- NetworkInterface::vm376&#45;&gt;VirtualNetwork::rg&#45;vm&#45;managed&#45;identity&#45;vnet -->
<g id="edge5" class="edge">
<title>NetworkInterface::vm376&#45;&gt;VirtualNetwork::rg&#45;vm&#45;managed&#45;identity&#45;vnet</title>
<path fill="none" stroke="#707070" d="M353.22,-304.09C361.46,-305.39 369.99,-306.75 378.62,-308.12"/>
<polygon fill="#707070" stroke="#707070" points="378.35,-311.62 388.78,-309.73 379.45,-304.7 378.35,-311.62"/>
</g>
<!-- NetworkInterface::vm376&#45;&gt;ResourceGroup::rg&#45;vm&#45;managed&#45;identity -->
<g id="edge4" class="edge">
<title>NetworkInterface::vm376&#45;&gt;ResourceGroup::rg&#45;vm&#45;managed&#45;identity</title>
<path fill="none" stroke="#707070" d="M309.64,-321.03C330.68,-337.75 359.54,-357.15 389,-366 487.75,-395.68 521.34,-392.47 621,-366 651.81,-357.82 682.93,-340.64 707.31,-324.68"/>
<polygon fill="#707070" stroke="#707070" points="709.28,-327.57 715.64,-319.1 705.38,-321.75 709.28,-327.57"/>
</g>
<!-- NetworkSecurityGroup::vm&#45;nsg&#45;&gt;ResourceGroup::rg&#45;vm&#45;managed&#45;identity -->
<g id="edge8" class="edge">
<title>NetworkSecurityGroup::vm&#45;nsg&#45;&gt;ResourceGroup::rg&#45;vm&#45;managed&#45;identity</title>
<path fill="none" stroke="#707070" d="M599.19,-205.01C606.64,-207.87 613.99,-210.88 621,-214 647.71,-225.9 676.01,-241.6 699.61,-255.64"/>
<polygon fill="#707070" stroke="#707070" points="698.04,-258.77 708.41,-260.92 701.64,-252.77 698.04,-258.77"/>
</g>
<!-- PublicIPAddress::vm&#45;ip&#45;&gt;ResourceGroup::rg&#45;vm&#45;managed&#45;identity -->
<g id="edge9" class="edge">
<title>PublicIPAddress::vm&#45;ip&#45;&gt;ResourceGroup::rg&#45;vm&#45;managed&#45;identity</title>
<path fill="none" stroke="#707070" d="M580.74,-263.45C601.52,-266.64 624.5,-270.16 646.75,-273.57"/>
<polygon fill="#707070" stroke="#707070" points="646.5,-277.07 656.91,-275.12 647.56,-270.15 646.5,-277.07"/>
</g>
<!-- VirtualNetwork::rg&#45;vm&#45;managed&#45;identity&#45;vnet&#45;&gt;ResourceGroup::rg&#45;vm&#45;managed&#45;identity -->
<g id="edge10" class="edge">
<title>VirtualNetwork::rg&#45;vm&#45;managed&#45;identity&#45;vnet&#45;&gt;ResourceGroup::rg&#45;vm&#45;managed&#45;identity</title>
<path fill="none" stroke="#707070" d="M621.29,-310.33C629.83,-309.03 638.44,-307.71 646.93,-306.41"/>
<polygon fill="#707070" stroke="#707070" points="647.49,-309.86 656.84,-304.89 646.43,-302.94 647.49,-309.86"/>
</g>
</g>
</svg>
