<?xml version="1.0" encoding="UTF-8" standalone="no"?>
<!DOCTYPE svg PUBLIC "-//W3C//DTD SVG 1.1//EN"
 "http://www.w3.org/Graphics/SVG/1.1/DTD/svg11.dtd">
<!-- Generated by graphviz version 2.44.1 (20200629.0846)
 -->
<!-- Title: graphname Pages: 1 -->
<svg width="1506pt" height="489pt"
 viewBox="0.00 0.00 1506.00 489.00" xmlns="http://www.w3.org/2000/svg" xmlns:xlink="http://www.w3.org/1999/xlink">
<g id="graph0" class="graph" transform="scale(1 1) rotate(0) translate(4 485)">
<title>graphname</title>
<polygon fill="#fafafa" stroke="transparent" points="-4,4 -4,-485 1502,-485 1502,4 -4,4"/>
<text text-anchor="start" x="599" y="-456.4" font-family="Helvetica,sans-Serif" font-weight="bold" font-size="22.00" fill="#383838">Project vm&#45;managed&#45;identity</text>
<text text-anchor="start" x="745.5" y="-440.8" font-family="Helvetica,sans-Serif" font-size="14.00"> &#160;</text>
<text text-anchor="start" x="599" y="-419.2" font-family="Helvetica,sans-Serif" font-weight="bold" font-size="16.00" fill="#707070">Live Diagram</text>
<g id="clust1" class="cluster">
<title>cluster_azure</title>
<polygon fill="#f5f5f5" stroke="#f5f5f5" points="8,-8 8,-397 1490,-397 1490,-8 8,-8"/>
<text text-anchor="start" x="680" y="-23" font-family="Helvetica,sans-Serif" font-weight="bold" font-size="20.00" fill="#707070">Provider azure</text>
</g>
<g id="clust2" class="cluster">
<title>cluster_azure_</title>
<polygon fill="#eeeeee" stroke="#eeeeee" points="16,-54 16,-389 1482,-389 1482,-54 16,-54"/>
<text text-anchor="start" x="748.86" y="-58.3" font-family="Helvetica,sans-Serif" font-size="1.00" fill="#383838"> </text>
</g>
<!-- SshPublicKey::::AdminGruCloud -->
<g id="node1" class="node">
<title>SshPublicKey::::AdminGruCloud</title>
<polygon fill="#e5e5e5" stroke="#dddddd" points="1189.5,-381 978.5,-381 978.5,-323 1189.5,-323 1189.5,-381"/>
<text text-anchor="start" x="991" y="-361.2" font-family="Helvetica,sans-Serif" font-weight="bold" font-size="16.00" fill="#707070">Compute::SshPublicKey</text>
<text text-anchor="start" x="991" y="-336.2" font-family="Helvetica,sans-Serif" font-size="16.00" fill="#383838">AdminGruCloud</text>
</g>
<!-- ResourceGroup::::rg&#45;vm&#45;managed&#45;identity -->
<g id="node10" class="node">
<title>ResourceGroup::::rg&#45;vm&#45;managed&#45;identity</title>
<polygon fill="#e5e5e5" stroke="#dddddd" points="1474,-227 1236,-227 1236,-169 1474,-169 1474,-227"/>
<text text-anchor="start" x="1248" y="-207.2" font-family="Helvetica,sans-Serif" font-weight="bold" font-size="16.00" fill="#707070">Resources::ResourceGroup</text>
<text text-anchor="start" x="1248" y="-182.2" font-family="Helvetica,sans-Serif" font-size="16.00" fill="#383838">rg&#45;vm&#45;managed&#45;identity</text>
</g>
<!-- SshPublicKey::::AdminGruCloud&#45;&gt;ResourceGroup::::rg&#45;vm&#45;managed&#45;identity -->
<g id="edge1" class="edge">
<title>SshPublicKey::::AdminGruCloud&#45;&gt;ResourceGroup::::rg&#45;vm&#45;managed&#45;identity</title>
<path fill="none" stroke="#707070" d="M1170.6,-322.92C1180.69,-318.64 1190.7,-313.98 1200,-309 1239.98,-287.62 1281.46,-257.16 1311.29,-233.56"/>
<polygon fill="#707070" stroke="#707070" points="1313.75,-236.07 1319.38,-227.1 1309.38,-230.6 1313.75,-236.07"/>
</g>
<!-- VirtualMachine::::vm -->
<g id="node2" class="node">
<title>VirtualMachine::::vm</title>
<polygon fill="#e5e5e5" stroke="#dddddd" points="252,-217 34,-217 34,-159 252,-159 252,-217"/>
<text text-anchor="start" x="46" y="-197.2" font-family="Helvetica,sans-Serif" font-weight="bold" font-size="16.00" fill="#707070">Compute::VirtualMachine</text>
<text text-anchor="start" x="46" y="-172.2" font-family="Helvetica,sans-Serif" font-size="16.00" fill="#383838">vm</text>
</g>
<!-- UserAssignedIdentity::::my&#45;identity -->
<g id="node3" class="node">
<title>UserAssignedIdentity::::my&#45;identity</title>
<polygon fill="#e5e5e5" stroke="#dddddd" points="624,-135 298,-135 298,-77 624,-77 624,-135"/>
<text text-anchor="start" x="310" y="-115.2" font-family="Helvetica,sans-Serif" font-weight="bold" font-size="16.00" fill="#707070">ManagedIdentity::UserAssignedIdentity</text>
<text text-anchor="start" x="310" y="-90.2" font-family="Helvetica,sans-Serif" font-size="16.00" fill="#383838">my&#45;identity</text>
</g>
<!-- VirtualMachine::::vm&#45;&gt;UserAssignedIdentity::::my&#45;identity -->
<g id="edge3" class="edge">
<title>VirtualMachine::::vm&#45;&gt;UserAssignedIdentity::::my&#45;identity</title>
<path fill="none" stroke="#707070" d="M252.31,-159.89C279.96,-152.72 309.87,-144.96 338.14,-137.62"/>
<polygon fill="#707070" stroke="#707070" points="339.27,-140.94 348.07,-135.05 337.51,-134.17 339.27,-140.94"/>
</g>
<!-- NetworkInterface::::vm376 -->
<g id="node4" class="node">
<title>NetworkInterface::::vm376</title>
<polygon fill="#e5e5e5" stroke="#dddddd" points="575,-217 347,-217 347,-159 575,-159 575,-217"/>
<text text-anchor="start" x="359" y="-197.2" font-family="Helvetica,sans-Serif" font-weight="bold" font-size="16.00" fill="#707070">Network::NetworkInterface</text>
<text text-anchor="start" x="359" y="-172.2" font-family="Helvetica,sans-Serif" font-size="16.00" fill="#383838">vm376</text>
</g>
<!-- VirtualMachine::::vm&#45;&gt;NetworkInterface::::vm376 -->
<g id="edge4" class="edge">
<title>VirtualMachine::::vm&#45;&gt;NetworkInterface::::vm376</title>
<path fill="none" stroke="#707070" d="M252.31,-188C279.52,-188 308.92,-188 336.79,-188"/>
<polygon fill="#707070" stroke="#707070" points="336.99,-191.5 346.99,-188 336.99,-184.5 336.99,-191.5"/>
</g>
<!-- VirtualMachine::::vm&#45;&gt;ResourceGroup::::rg&#45;vm&#45;managed&#45;identity -->
<g id="edge2" class="edge">
<title>VirtualMachine::::vm&#45;&gt;ResourceGroup::::rg&#45;vm&#45;managed&#45;identity</title>
<path fill="none" stroke="#707070" d="M252.29,-215.88C267.59,-219.48 283.16,-222.97 298,-226 494.94,-266.28 1006.74,-349.3 1200,-294 1241.53,-282.12 1282.75,-255.42 1312.08,-233.19"/>
<polygon fill="#707070" stroke="#707070" points="1314.25,-235.94 1320.03,-227.06 1309.97,-230.4 1314.25,-235.94"/>
</g>
<!-- UserAssignedIdentity::::my&#45;identity&#45;&gt;ResourceGroup::::rg&#45;vm&#45;managed&#45;identity -->
<g id="edge5" class="edge">
<title>UserAssignedIdentity::::my&#45;identity&#45;&gt;ResourceGroup::::rg&#45;vm&#45;managed&#45;identity</title>
<path fill="none" stroke="#707070" d="M578.83,-76.98C727.53,-45.58 990.26,-8.88 1200,-80 1247.29,-96.03 1291.45,-133.07 1320.25,-161.41"/>
<polygon fill="#707070" stroke="#707070" points="1318.06,-164.16 1327.6,-168.77 1323.02,-159.22 1318.06,-164.16"/>
</g>
<!-- NetworkSecurityGroup::::vm&#45;nsg -->
<g id="node5" class="node">
<title>NetworkSecurityGroup::::vm&#45;nsg</title>
<polygon fill="#e5e5e5" stroke="#dddddd" points="932,-265 660,-265 660,-207 932,-207 932,-265"/>
<text text-anchor="start" x="672" y="-245.2" font-family="Helvetica,sans-Serif" font-weight="bold" font-size="16.00" fill="#707070">Network::NetworkSecurityGroup</text>
<text text-anchor="start" x="672" y="-220.2" font-family="Helvetica,sans-Serif" font-size="16.00" fill="#383838">vm&#45;nsg</text>
</g>
<!-- NetworkInterface::::vm376&#45;&gt;NetworkSecurityGroup::::vm&#45;nsg -->
<g id="edge9" class="edge">
<title>NetworkInterface::::vm376&#45;&gt;NetworkSecurityGroup::::vm&#45;nsg</title>
<path fill="none" stroke="#707070" d="M575.2,-204.32C599.26,-207.78 624.97,-211.49 650.02,-215.1"/>
<polygon fill="#707070" stroke="#707070" points="649.56,-218.57 659.95,-216.53 650.55,-211.64 649.56,-218.57"/>
</g>
<!-- PublicIPAddress::::vm&#45;ip -->
<g id="node6" class="node">
<title>PublicIPAddress::::vm&#45;ip</title>
<polygon fill="#e5e5e5" stroke="#dddddd" points="1196,-285 972,-285 972,-227 1196,-227 1196,-285"/>
<text text-anchor="start" x="984" y="-265.2" font-family="Helvetica,sans-Serif" font-weight="bold" font-size="16.00" fill="#707070">Network::PublicIPAddress</text>
<text text-anchor="start" x="984" y="-240.2" font-family="Helvetica,sans-Serif" font-size="16.00" fill="#383838">vm&#45;ip</text>
</g>
<!-- NetworkInterface::::vm376&#45;&gt;PublicIPAddress::::vm&#45;ip -->
<g id="edge8" class="edge">
<title>NetworkInterface::::vm376&#45;&gt;PublicIPAddress::::vm&#45;ip</title>
<path fill="none" stroke="#707070" d="M513.01,-217.1C551.9,-237.54 607.53,-263.1 660,-274 760.2,-294.82 876.54,-287.67 961.82,-276.81"/>
<polygon fill="#707070" stroke="#707070" points="962.34,-280.27 971.8,-275.51 961.43,-273.33 962.34,-280.27"/>
</g>
<!-- Subnet::::default -->
<g id="node7" class="node">
<title>Subnet::::default</title>
<polygon fill="#e5e5e5" stroke="#dddddd" points="872,-149 720,-149 720,-91 872,-91 872,-149"/>
<text text-anchor="start" x="732" y="-129.2" font-family="Helvetica,sans-Serif" font-weight="bold" font-size="16.00" fill="#707070">Network::Subnet</text>
<text text-anchor="start" x="732" y="-104.2" font-family="Helvetica,sans-Serif" font-size="16.00" fill="#383838">default</text>
</g>
<!-- NetworkInterface::::vm376&#45;&gt;Subnet::::default -->
<g id="edge10" class="edge">
<title>NetworkInterface::::vm376&#45;&gt;Subnet::::default</title>
<path fill="none" stroke="#707070" d="M575.2,-164.88C619.27,-155.88 668.91,-145.75 709.85,-137.39"/>
<polygon fill="#707070" stroke="#707070" points="710.69,-140.79 719.79,-135.36 709.29,-133.93 710.69,-140.79"/>
</g>
<!-- VirtualNetwork::::rg&#45;vm&#45;managed&#45;identity&#45;vnet -->
<g id="node8" class="node">
<title>VirtualNetwork::::rg&#45;vm&#45;managed&#45;identity&#45;vnet</title>
<polygon fill="#e5e5e5" stroke="#dddddd" points="1200,-169 968,-169 968,-111 1200,-111 1200,-169"/>
<text text-anchor="start" x="980" y="-149.2" font-family="Helvetica,sans-Serif" font-weight="bold" font-size="16.00" fill="#707070">Network::VirtualNetwork</text>
<text text-anchor="start" x="980" y="-124.2" font-family="Helvetica,sans-Serif" font-size="16.00" fill="#383838">rg&#45;vm&#45;managed&#45;identity&#45;vnet</text>
</g>
<!-- NetworkInterface::::vm376&#45;&gt;VirtualNetwork::::rg&#45;vm&#45;managed&#45;identity&#45;vnet -->
<g id="edge7" class="edge">
<title>NetworkInterface::::vm376&#45;&gt;VirtualNetwork::::rg&#45;vm&#45;managed&#45;identity&#45;vnet</title>
<path fill="none" stroke="#707070" d="M575.15,-182.52C670.43,-177.49 810.27,-169.13 932,-158 940.31,-157.24 948.88,-156.39 957.51,-155.49"/>
<polygon fill="#707070" stroke="#707070" points="958.08,-158.95 967.65,-154.41 957.33,-151.99 958.08,-158.95"/>
</g>
<!-- NetworkInterface::::vm376&#45;&gt;ResourceGroup::::rg&#45;vm&#45;managed&#45;identity -->
<g id="edge6" class="edge">
<title>NetworkInterface::::vm376&#45;&gt;ResourceGroup::::rg&#45;vm&#45;managed&#45;identity</title>
<path fill="none" stroke="#707070" d="M575.43,-189.27C741.82,-191.14 1051.21,-194.61 1225.7,-196.56"/>
<polygon fill="#707070" stroke="#707070" points="1225.66,-200.06 1235.7,-196.67 1225.74,-193.06 1225.66,-200.06"/>
</g>
<!-- NetworkSecurityGroup::::vm&#45;nsg&#45;&gt;ResourceGroup::::rg&#45;vm&#45;managed&#45;identity -->
<g id="edge11" class="edge">
<title>NetworkSecurityGroup::::vm&#45;nsg&#45;&gt;ResourceGroup::::rg&#45;vm&#45;managed&#45;identity</title>
<path fill="none" stroke="#707070" d="M932.28,-221.09C944.35,-219.96 956.39,-218.91 968,-218 1053.62,-211.28 1150.1,-206.28 1225.19,-202.96"/>
<polygon fill="#707070" stroke="#707070" points="1225.8,-206.44 1235.64,-202.5 1225.49,-199.44 1225.8,-206.44"/>
</g>
<!-- PublicIPAddress::::vm&#45;ip&#45;&gt;ResourceGroup::::rg&#45;vm&#45;managed&#45;identity -->
<g id="edge12" class="edge">
<title>PublicIPAddress::::vm&#45;ip&#45;&gt;ResourceGroup::::rg&#45;vm&#45;managed&#45;identity</title>
<path fill="none" stroke="#707070" d="M1196.35,-231.99C1206.11,-229.89 1216.03,-227.75 1225.91,-225.62"/>
<polygon fill="#707070" stroke="#707070" points="1226.73,-229.02 1235.77,-223.49 1225.25,-222.18 1226.73,-229.02"/>
</g>
<!-- Subnet::::default&#45;&gt;VirtualNetwork::::rg&#45;vm&#45;managed&#45;identity&#45;vnet -->
<g id="edge14" class="edge">
<title>Subnet::::default&#45;&gt;VirtualNetwork::::rg&#45;vm&#45;managed&#45;identity&#45;vnet</title>
<path fill="none" stroke="#707070" d="M872.14,-125.25C898.35,-127.09 928.51,-129.2 957.67,-131.24"/>
<polygon fill="#707070" stroke="#707070" points="957.72,-134.75 967.94,-131.95 958.21,-127.76 957.72,-134.75"/>
</g>
<!-- Subnet::::default&#45;&gt;ResourceGroup::::rg&#45;vm&#45;managed&#45;identity -->
<g id="edge13" class="edge">
<title>Subnet::::default&#45;&gt;ResourceGroup::::rg&#45;vm&#45;managed&#45;identity</title>
<path fill="none" stroke="#707070" d="M872.2,-102.6C954.42,-86.77 1089.24,-70.3 1200,-102 1241.53,-113.88 1282.75,-140.58 1312.08,-162.81"/>
<polygon fill="#707070" stroke="#707070" points="1309.97,-165.6 1320.03,-168.94 1314.25,-160.06 1309.97,-165.6"/>
</g>
<!-- VirtualNetwork::::rg&#45;vm&#45;managed&#45;identity&#45;vnet&#45;&gt;ResourceGroup::::rg&#45;vm&#45;managed&#45;identity -->
<g id="edge15" class="edge">
<title>VirtualNetwork::::rg&#45;vm&#45;managed&#45;identity&#45;vnet&#45;&gt;ResourceGroup::::rg&#45;vm&#45;managed&#45;identity</title>
<path fill="none" stroke="#707070" d="M1200.25,-164.85C1208.76,-166.68 1217.37,-168.54 1225.95,-170.39"/>
<polygon fill="#707070" stroke="#707070" points="1225.48,-173.87 1235.99,-172.56 1226.95,-167.03 1225.48,-173.87"/>
</g>
<!-- ResourceGroup::::DefaultResourceGroup&#45;CUS -->
<g id="node9" class="node">
<title>ResourceGroup::::DefaultResourceGroup&#45;CUS</title>
<polygon fill="#e5e5e5" stroke="#dddddd" points="262,-135 24,-135 24,-77 262,-77 262,-135"/>
<text text-anchor="start" x="36" y="-115.2" font-family="Helvetica,sans-Serif" font-weight="bold" font-size="16.00" fill="#707070">Resources::ResourceGroup</text>
<text text-anchor="start" x="36" y="-90.2" font-family="Helvetica,sans-Serif" font-size="16.00" fill="#383838">DefaultResourceGroup&#45;CUS</text>
</g>
</g>
</svg>
