<?xml version="1.0" encoding="UTF-8" standalone="no"?>
<!DOCTYPE svg PUBLIC "-//W3C//DTD SVG 1.1//EN"
 "http://www.w3.org/Graphics/SVG/1.1/DTD/svg11.dtd">
<!-- Generated by graphviz version 2.44.1 (20200629.0846)
 -->
<!-- Title: graphname Pages: 1 -->
<svg width="494pt" height="237pt"
 viewBox="0.00 0.00 494.00 237.00" xmlns="http://www.w3.org/2000/svg" xmlns:xlink="http://www.w3.org/1999/xlink">
<g id="graph0" class="graph" transform="scale(1 1) rotate(0) translate(4 233)">
<title>graphname</title>
<polygon fill="#fafafa" stroke="transparent" points="-4,4 -4,-233 490,-233 490,4 -4,4"/>
<text text-anchor="start" x="147" y="-204.4" font-family="Helvetica,sans-Serif" font-weight="bold" font-size="22.00" fill="#383838">Project ec2&#45;simple</text>
<text text-anchor="start" x="239.5" y="-188.8" font-family="Helvetica,sans-Serif" font-size="14.00"> &#160;</text>
<text text-anchor="start" x="147" y="-167.2" font-family="Helvetica,sans-Serif" font-weight="bold" font-size="16.00" fill="#707070">Live Diagram</text>
<g id="clust1" class="cluster">
<title>cluster_aws</title>
<polygon fill="#f5f5f5" stroke="#f5f5f5" points="8,-8 8,-145 478,-145 478,-8 8,-8"/>
<text text-anchor="start" x="181" y="-23" font-family="Helvetica,sans-Serif" font-weight="bold" font-size="20.00" fill="#707070">Provider aws</text>
</g>
<g id="clust2" class="cluster">
<title>cluster_aws_</title>
<polygon fill="#eeeeee" stroke="#eeeeee" points="16,-54 16,-137 470,-137 470,-54 16,-54"/>
<text text-anchor="start" x="242.86" y="-58.3" font-family="Helvetica,sans-Serif" font-size="1.00" fill="#383838"> </text>
</g>
<!-- Instance::::web&#45;server&#45;ec2&#45;simple -->
<g id="node1" class="node">
<title>Instance::::web&#45;server&#45;ec2&#45;simple</title>
<polygon fill="#e5e5e5" stroke="#dddddd" points="212,-129 24,-129 24,-71 212,-71 212,-129"/>
<text text-anchor="start" x="36" y="-109.2" font-family="Helvetica,sans-Serif" font-weight="bold" font-size="16.00" fill="#707070">EC2::Instance</text>
<text text-anchor="start" x="36" y="-84.2" font-family="Helvetica,sans-Serif" font-size="16.00" fill="#383838">web&#45;server&#45;ec2&#45;simple</text>
</g>
<!-- Volume::::vol&#45;web&#45;server&#45;ec2&#45;simple -->
<g id="node2" class="node">
<title>Volume::::vol&#45;web&#45;server&#45;ec2&#45;simple</title>
<polygon fill="#e5e5e5" stroke="#dddddd" points="462,-129 248,-129 248,-71 462,-71 462,-129"/>
<text text-anchor="start" x="260" y="-109.2" font-family="Helvetica,sans-Serif" font-weight="bold" font-size="16.00" fill="#707070">EC2::Volume</text>
<text text-anchor="start" x="260" y="-84.2" font-family="Helvetica,sans-Serif" font-size="16.00" fill="#383838">vol&#45;web&#45;server&#45;ec2&#45;simple</text>
</g>
<!-- Instance::::web&#45;server&#45;ec2&#45;simple&#45;&gt;Volume::::vol&#45;web&#45;server&#45;ec2&#45;simple -->
<g id="edge1" class="edge">
<title>Instance::::web&#45;server&#45;ec2&#45;simple&#45;&gt;Volume::::vol&#45;web&#45;server&#45;ec2&#45;simple</title>
<path fill="none" stroke="#707070" d="M212.22,-100C220.6,-100 229.15,-100 237.7,-100"/>
<polygon fill="#707070" stroke="#707070" points="237.71,-103.5 247.71,-100 237.71,-96.5 237.71,-103.5"/>
</g>
</g>
</svg>
