<?xml version="1.0" encoding="UTF-8" standalone="no"?>
<!DOCTYPE svg PUBLIC "-//W3C//DTD SVG 1.1//EN"
 "http://www.w3.org/Graphics/SVG/1.1/DTD/svg11.dtd">
<!-- Generated by graphviz version 3.0.0 (20220226.1711)
 -->
<!-- Title: graphname Pages: 1 -->
<svg width="632pt" height="237pt"
 viewBox="0.00 0.00 632.00 237.00" xmlns="http://www.w3.org/2000/svg" xmlns:xlink="http://www.w3.org/1999/xlink">
<g id="graph0" class="graph" transform="scale(1 1) rotate(0) translate(4 233)">
<title>graphname</title>
<polygon fill="#fafafa" stroke="transparent" points="-4,4 -4,-233 628,-233 628,4 -4,4"/>
<text text-anchor="start" x="217" y="-204.4" font-family="Helvetica,sans-Serif" font-weight="bold" font-size="22.00" fill="#383838">Project cloud&#45;wan</text>
<text text-anchor="start" x="308" y="-188.8" font-family="Helvetica,sans-Serif" font-size="14.00"> &#160;</text>
<text text-anchor="start" x="217" y="-167.2" font-family="Helvetica,sans-Serif" font-weight="bold" font-size="16.00" fill="#707070">Target Diagram</text>
<g id="clust1" class="cluster">
<title>cluster_aws</title>
<polygon fill="#f5f5f5" stroke="#f5f5f5" points="8,-8 8,-145 616,-145 616,-8 8,-8"/>
<text text-anchor="start" x="250" y="-23" font-family="Helvetica,sans-Serif" font-weight="bold" font-size="20.00" fill="#707070">Provider aws</text>
</g>
<g id="clust2" class="cluster">
<title>cluster_aws_</title>
<polygon fill="#eeeeee" stroke="#eeeeee" points="16,-54 16,-137 608,-137 608,-54 16,-54"/>
<text text-anchor="start" x="311.86" y="-58.3" font-family="Helvetica,sans-Serif" font-size="1.00" fill="#383838"> </text>
</g>
<!-- GlobalNetwork::cloudwan&#45;module&#45;without -->
<g id="node1" class="node">
<title>GlobalNetwork::cloudwan&#45;module&#45;without</title>
<polygon fill="#e5e5e5" stroke="#dddddd" points="600,-129 323,-129 323,-71 600,-71 600,-129"/>
<text text-anchor="start" x="335.5" y="-109.2" font-family="Helvetica,sans-Serif" font-weight="bold" font-size="16.00" fill="#707070">NetworkManager::GlobalNetwork</text>
<text text-anchor="start" x="335.5" y="-84.2" font-family="Helvetica,sans-Serif" font-size="16.00" fill="#383838">cloudwan&#45;module&#45;without</text>
</g>
<!-- CoreNetwork::cloudwan&#45;module&#45;without -->
<g id="node2" class="node">
<title>CoreNetwork::cloudwan&#45;module&#45;without</title>
<polygon fill="#e5e5e5" stroke="#dddddd" points="287,-129 24,-129 24,-71 287,-71 287,-129"/>
<text text-anchor="start" x="36.5" y="-109.2" font-family="Helvetica,sans-Serif" font-weight="bold" font-size="16.00" fill="#707070">NetworkManager::CoreNetwork</text>
<text text-anchor="start" x="36.5" y="-84.2" font-family="Helvetica,sans-Serif" font-size="16.00" fill="#383838">cloudwan&#45;module&#45;without</text>
</g>
<!-- CoreNetwork::cloudwan&#45;module&#45;without&#45;&gt;GlobalNetwork::cloudwan&#45;module&#45;without -->
<g id="edge1" class="edge">
<title>CoreNetwork::cloudwan&#45;module&#45;without&#45;&gt;GlobalNetwork::cloudwan&#45;module&#45;without</title>
<path fill="none" stroke="#707070" d="M287.19,-100C295.54,-100 303.98,-100 312.4,-100"/>
<polygon fill="#707070" stroke="#707070" points="312.66,-103.5 322.66,-100 312.66,-96.5 312.66,-103.5"/>
</g>
</g>
</svg>
