<?xml version="1.0" encoding="UTF-8" standalone="no"?><svg xmlns="http://www.w3.org/2000/svg" xmlns:xlink="http://www.w3.org/1999/xlink" contentScriptType="application/ecmascript" contentStyleType="text/css" height="963px" preserveAspectRatio="none" style="width:634px;height:963px;background:#FFFFFF;" version="1.1" viewBox="0 0 634 963" width="634px" zoomAndPan="magnify"><defs><filter height="300%" id="f1p413wpuceg14" width="300%" x="-1" y="-1"><feGaussianBlur result="blurOut" stdDeviation="2.0"/><feColorMatrix in="blurOut" result="blurOut2" type="matrix" values="0 0 0 0 0 0 0 0 0 0 0 0 0 0 0 0 0 0 .4 0"/><feOffset dx="4.0" dy="4.0" in="blurOut2" result="blurOut3"/><feBlend in="SourceGraphic" in2="blurOut3" mode="normal"/></filter></defs><g><rect fill="none" height="26.4883" style="stroke:none;stroke-width:1.0;" width="195" x="189.5" y="15"/><text fill="#000000" font-family="sans-serif" font-size="14" font-weight="bold" lengthAdjust="spacing" textLength="185" x="194.5" y="33.5352">Resources for project k8s</text><rect fill="#F8F8F8" filter="url(#f1p413wpuceg14)" height="36.4883" rx="12.5" ry="12.5" style="stroke:#383838;stroke-width:1.5;" width="52" x="10" y="481.1504"/><text fill="#000000" font-family="sans-serif" font-size="14" lengthAdjust="spacing" textLength="32" x="20" y="504.6855">Infra</text><rect fill="#F8F8F8" filter="url(#f1p413wpuceg14)" height="36.4883" rx="12.5" ry="12.5" style="stroke:#383838;stroke-width:1.5;" width="44" x="112" y="481.1504"/><text fill="#000000" font-family="sans-serif" font-size="14" lengthAdjust="spacing" textLength="24" x="122" y="504.6855">k8s</text><rect fill="#F8F8F8" filter="url(#f1p413wpuceg14)" height="36.4883" rx="12.5" ry="12.5" style="stroke:#383838;stroke-width:1.5;" width="147" x="206" y="85.7324"/><text fill="#000000" font-family="sans-serif" font-size="14" lengthAdjust="spacing" textLength="127" x="216" y="109.2676">ServiceAccount (2)</text><rect fill="#F8F8F8" filter="url(#f1p413wpuceg14)" height="36.4883" rx="12.5" ry="12.5" style="stroke:#383838;stroke-width:1.5;" width="183" x="403" y="57.4883"/><text fill="#000000" font-family="sans-serif" font-size="14" lengthAdjust="spacing" textLength="163" x="413" y="81.0234">dashboard-admin-user</text><path d="M353,103.9766 L363,103.9766 C378,103.9766 378,75.7324 393,75.7324 L403,75.7324 " fill="none" style="stroke:#383838;stroke-width:1.0;"/><rect fill="#F8F8F8" filter="url(#f1p413wpuceg14)" height="36.4883" rx="12.5" ry="12.5" style="stroke:#383838;stroke-width:1.5;" width="179" x="403" y="113.9766"/><text fill="#000000" font-family="sans-serif" font-size="14" lengthAdjust="spacing" textLength="159" x="413" y="137.5117">kubernetes-dashboard</text><path d="M353,103.9766 L363,103.9766 C378,103.9766 378,132.2207 393,132.2207 L403,132.2207 " fill="none" style="stroke:#383838;stroke-width:1.0;"/><path d="M156,499.3945 L166,499.3945 C181,499.3945 181,103.9766 196,103.9766 L206,103.9766 " fill="none" style="stroke:#383838;stroke-width:1.0;"/><rect fill="#F8F8F8" filter="url(#f1p413wpuceg14)" height="36.4883" rx="12.5" ry="12.5" style="stroke:#383838;stroke-width:1.5;" width="174" x="206" y="198.709"/><text fill="#000000" font-family="sans-serif" font-size="14" lengthAdjust="spacing" textLength="154" x="216" y="222.2441">ClusterRoleBinding (2)</text><rect fill="#F8F8F8" filter="url(#f1p413wpuceg14)" height="36.4883" rx="12.5" ry="12.5" style="stroke:#383838;stroke-width:1.5;" width="183" x="430" y="170.4648"/><text fill="#000000" font-family="sans-serif" font-size="14" lengthAdjust="spacing" textLength="163" x="440" y="194">dashboard-admin-user</text><path d="M380,216.9531 L390,216.9531 C405,216.9531 405,188.709 420,188.709 L430,188.709 " fill="none" style="stroke:#383838;stroke-width:1.0;"/><rect fill="#F8F8F8" filter="url(#f1p413wpuceg14)" height="36.4883" rx="12.5" ry="12.5" style="stroke:#383838;stroke-width:1.5;" width="179" x="430" y="226.9531"/><text fill="#000000" font-family="sans-serif" font-size="14" lengthAdjust="spacing" textLength="159" x="440" y="250.4883">kubernetes-dashboard</text><path d="M380,216.9531 L390,216.9531 C405,216.9531 405,245.1973 420,245.1973 L430,245.1973 " fill="none" style="stroke:#383838;stroke-width:1.0;"/><path d="M156,499.3945 L166,499.3945 C181,499.3945 181,216.9531 196,216.9531 L206,216.9531 " fill="none" style="stroke:#383838;stroke-width:1.0;"/><rect fill="#F8F8F8" filter="url(#f1p413wpuceg14)" height="36.4883" rx="12.5" ry="12.5" style="stroke:#383838;stroke-width:1.5;" width="121" x="206" y="283.4414"/><text fill="#000000" font-family="sans-serif" font-size="14" lengthAdjust="spacing" textLength="101" x="216" y="306.9766">Namespace (1)</text><rect fill="#F8F8F8" filter="url(#f1p413wpuceg14)" height="36.4883" rx="12.5" ry="12.5" style="stroke:#383838;stroke-width:1.5;" width="179" x="377" y="283.4414"/><text fill="#000000" font-family="sans-serif" font-size="14" lengthAdjust="spacing" textLength="159" x="387" y="306.9766">kubernetes-dashboard</text><path d="M327,301.6855 L337,301.6855 C352,301.6855 352,301.6855 367,301.6855 L377,301.6855 " fill="none" style="stroke:#383838;stroke-width:1.0;"/><path d="M156,499.3945 L166,499.3945 C181,499.3945 181,301.6855 196,301.6855 L206,301.6855 " fill="none" style="stroke:#383838;stroke-width:1.0;"/><rect fill="#F8F8F8" filter="url(#f1p413wpuceg14)" height="36.4883" rx="12.5" ry="12.5" style="stroke:#383838;stroke-width:1.5;" width="91" x="206" y="368.1738"/><text fill="#000000" font-family="sans-serif" font-size="14" lengthAdjust="spacing" textLength="71" x="216" y="391.709">Service (2)</text><rect fill="#F8F8F8" filter="url(#f1p413wpuceg14)" height="36.4883" rx="12.5" ry="12.5" style="stroke:#383838;stroke-width:1.5;" width="179" x="347" y="339.9297"/><text fill="#000000" font-family="sans-serif" font-size="14" lengthAdjust="spacing" textLength="159" x="357" y="363.4648">kubernetes-dashboard</text><path d="M297,386.418 L307,386.418 C322,386.418 322,358.1738 337,358.1738 L347,358.1738 " fill="none" style="stroke:#383838;stroke-width:1.0;"/><rect fill="#F8F8F8" filter="url(#f1p413wpuceg14)" height="36.4883" rx="12.5" ry="12.5" style="stroke:#383838;stroke-width:1.5;" width="211" x="347" y="396.418"/><text fill="#000000" font-family="sans-serif" font-size="14" lengthAdjust="spacing" textLength="191" x="357" y="419.9531">dashboard-metrics-scraper</text><path d="M297,386.418 L307,386.418 C322,386.418 322,414.6621 337,414.6621 L347,414.6621 " fill="none" style="stroke:#383838;stroke-width:1.0;"/><path d="M156,499.3945 L166,499.3945 C181,499.3945 181,386.418 196,386.418 L206,386.418 " fill="none" style="stroke:#383838;stroke-width:1.0;"/><rect fill="#F8F8F8" filter="url(#f1p413wpuceg14)" height="36.4883" rx="12.5" ry="12.5" style="stroke:#383838;stroke-width:1.5;" width="85" x="206" y="509.3945"/><text fill="#000000" font-family="sans-serif" font-size="14" lengthAdjust="spacing" textLength="65" x="216" y="532.9297">Secret (3)</text><rect fill="#F8F8F8" filter="url(#f1p413wpuceg14)" height="36.4883" rx="12.5" ry="12.5" style="stroke:#383838;stroke-width:1.5;" width="220" x="341" y="452.9063"/><text fill="#000000" font-family="sans-serif" font-size="14" lengthAdjust="spacing" textLength="200" x="351" y="476.4414">kubernetes-dashboard-certs</text><path d="M291,527.6387 L301,527.6387 C316,527.6387 316,471.1504 331,471.1504 L341,471.1504 " fill="none" style="stroke:#383838;stroke-width:1.0;"/><rect fill="#F8F8F8" filter="url(#f1p413wpuceg14)" height="36.4883" rx="12.5" ry="12.5" style="stroke:#383838;stroke-width:1.5;" width="212" x="341" y="509.3945"/><text fill="#000000" font-family="sans-serif" font-size="14" lengthAdjust="spacing" textLength="192" x="351" y="532.9297">kubernetes-dashboard-csrf</text><path d="M291,527.6387 L301,527.6387 C316,527.6387 316,527.6387 331,527.6387 L341,527.6387 " fill="none" style="stroke:#383838;stroke-width:1.0;"/><rect fill="#F8F8F8" filter="url(#f1p413wpuceg14)" height="36.4883" rx="12.5" ry="12.5" style="stroke:#383838;stroke-width:1.5;" width="263" x="341" y="565.8828"/><text fill="#000000" font-family="sans-serif" font-size="14" lengthAdjust="spacing" textLength="243" x="351" y="589.418">kubernetes-dashboard-key-holder</text><path d="M291,527.6387 L301,527.6387 C316,527.6387 316,584.127 331,584.127 L341,584.127 " fill="none" style="stroke:#383838;stroke-width:1.0;"/><path d="M156,499.3945 L166,499.3945 C181,499.3945 181,527.6387 196,527.6387 L206,527.6387 " fill="none" style="stroke:#383838;stroke-width:1.0;"/><rect fill="#F8F8F8" filter="url(#f1p413wpuceg14)" height="36.4883" rx="12.5" ry="12.5" style="stroke:#383838;stroke-width:1.5;" width="118" x="206" y="622.3711"/><text fill="#000000" font-family="sans-serif" font-size="14" lengthAdjust="spacing" textLength="98" x="216" y="645.9063">ConfigMap (1)</text><rect fill="#F8F8F8" filter="url(#f1p413wpuceg14)" height="36.4883" rx="12.5" ry="12.5" style="stroke:#383838;stroke-width:1.5;" width="241" x="374" y="622.3711"/><text fill="#000000" font-family="sans-serif" font-size="14" lengthAdjust="spacing" textLength="221" x="384" y="645.9063">kubernetes-dashboard-settings</text><path d="M324,640.6152 L334,640.6152 C349,640.6152 349,640.6152 364,640.6152 L374,640.6152 " fill="none" style="stroke:#383838;stroke-width:1.0;"/><path d="M156,499.3945 L166,499.3945 C181,499.3945 181,640.6152 196,640.6152 L206,640.6152 " fill="none" style="stroke:#383838;stroke-width:1.0;"/><rect fill="#F8F8F8" filter="url(#f1p413wpuceg14)" height="36.4883" rx="12.5" ry="12.5" style="stroke:#383838;stroke-width:1.5;" width="73" x="206" y="678.8594"/><text fill="#000000" font-family="sans-serif" font-size="14" lengthAdjust="spacing" textLength="53" x="216" y="702.3945">Role (1)</text><rect fill="#F8F8F8" filter="url(#f1p413wpuceg14)" height="36.4883" rx="12.5" ry="12.5" style="stroke:#383838;stroke-width:1.5;" width="179" x="329" y="678.8594"/><text fill="#000000" font-family="sans-serif" font-size="14" lengthAdjust="spacing" textLength="159" x="339" y="702.3945">kubernetes-dashboard</text><path d="M279,697.1035 L289,697.1035 C304,697.1035 304,697.1035 319,697.1035 L329,697.1035 " fill="none" style="stroke:#383838;stroke-width:1.0;"/><path d="M156,499.3945 L166,499.3945 C181,499.3945 181,697.1035 196,697.1035 L206,697.1035 " fill="none" style="stroke:#383838;stroke-width:1.0;"/><rect fill="#F8F8F8" filter="url(#f1p413wpuceg14)" height="36.4883" rx="12.5" ry="12.5" style="stroke:#383838;stroke-width:1.5;" width="122" x="206" y="735.3477"/><text fill="#000000" font-family="sans-serif" font-size="14" lengthAdjust="spacing" textLength="102" x="216" y="758.8828">ClusterRole (1)</text><rect fill="#F8F8F8" filter="url(#f1p413wpuceg14)" height="36.4883" rx="12.5" ry="12.5" style="stroke:#383838;stroke-width:1.5;" width="179" x="378" y="735.3477"/><text fill="#000000" font-family="sans-serif" font-size="14" lengthAdjust="spacing" textLength="159" x="388" y="758.8828">kubernetes-dashboard</text><path d="M328,753.5918 L338,753.5918 C353,753.5918 353,753.5918 368,753.5918 L378,753.5918 " fill="none" style="stroke:#383838;stroke-width:1.0;"/><path d="M156,499.3945 L166,499.3945 C181,499.3945 181,753.5918 196,753.5918 L206,753.5918 " fill="none" style="stroke:#383838;stroke-width:1.0;"/><rect fill="#F8F8F8" filter="url(#f1p413wpuceg14)" height="36.4883" rx="12.5" ry="12.5" style="stroke:#383838;stroke-width:1.5;" width="125" x="206" y="791.8359"/><text fill="#000000" font-family="sans-serif" font-size="14" lengthAdjust="spacing" textLength="105" x="216" y="815.3711">RoleBinding (1)</text><rect fill="#F8F8F8" filter="url(#f1p413wpuceg14)" height="36.4883" rx="12.5" ry="12.5" style="stroke:#383838;stroke-width:1.5;" width="179" x="381" y="791.8359"/><text fill="#000000" font-family="sans-serif" font-size="14" lengthAdjust="spacing" textLength="159" x="391" y="815.3711">kubernetes-dashboard</text><path d="M331,810.0801 L341,810.0801 C356,810.0801 356,810.0801 371,810.0801 L381,810.0801 " fill="none" style="stroke:#383838;stroke-width:1.0;"/><path d="M156,499.3945 L166,499.3945 C181,499.3945 181,810.0801 196,810.0801 L206,810.0801 " fill="none" style="stroke:#383838;stroke-width:1.0;"/><rect fill="#F8F8F8" filter="url(#f1p413wpuceg14)" height="36.4883" rx="12.5" ry="12.5" style="stroke:#383838;stroke-width:1.5;" width="125" x="206" y="876.5684"/><text fill="#000000" font-family="sans-serif" font-size="14" lengthAdjust="spacing" textLength="105" x="216" y="900.1035">Deployment (2)</text><rect fill="#F8F8F8" filter="url(#f1p413wpuceg14)" height="36.4883" rx="12.5" ry="12.5" style="stroke:#383838;stroke-width:1.5;" width="179" x="381" y="848.3242"/><text fill="#000000" font-family="sans-serif" font-size="14" lengthAdjust="spacing" textLength="159" x="391" y="871.8594">kubernetes-dashboard</text><path d="M331,894.8125 L341,894.8125 C356,894.8125 356,866.5684 371,866.5684 L381,866.5684 " fill="none" style="stroke:#383838;stroke-width:1.0;"/><rect fill="#F8F8F8" filter="url(#f1p413wpuceg14)" height="36.4883" rx="12.5" ry="12.5" style="stroke:#383838;stroke-width:1.5;" width="211" x="381" y="904.8125"/><text fill="#000000" font-family="sans-serif" font-size="14" lengthAdjust="spacing" textLength="191" x="391" y="928.3477">dashboard-metrics-scraper</text><path d="M331,894.8125 L341,894.8125 C356,894.8125 356,923.0566 371,923.0566 L381,923.0566 " fill="none" style="stroke:#383838;stroke-width:1.0;"/><path d="M156,499.3945 L166,499.3945 C181,499.3945 181,894.8125 196,894.8125 L206,894.8125 " fill="none" style="stroke:#383838;stroke-width:1.0;"/><path d="M62,499.3945 L72,499.3945 C87,499.3945 87,499.3945 102,499.3945 L112,499.3945 " fill="none" style="stroke:#383838;stroke-width:1.0;"/><!--MD5=[54425ecdad2dc116d859a799b6adc069]
@startmindmap
title Resources for project k8s
skinparam monochrome true
+ Infra
++ k8s
+++ ServiceAccount (2)
++++ dashboard-admin-user
++++ kubernetes-dashboard
+++ ClusterRoleBinding (2)
++++ dashboard-admin-user
++++ kubernetes-dashboard
+++ Namespace (1)
++++ kubernetes-dashboard
+++ Service (2)
++++ kubernetes-dashboard
++++ dashboard-metrics-scraper
+++ Secret (3)
++++ kubernetes-dashboard-certs
++++ kubernetes-dashboard-csrf
++++ kubernetes-dashboard-key-holder
+++ ConfigMap (1)
++++ kubernetes-dashboard-settings
+++ Role (1)
++++ kubernetes-dashboard
+++ ClusterRole (1)
++++ kubernetes-dashboard
+++ RoleBinding (1)
++++ kubernetes-dashboard
+++ Deployment (2)
++++ kubernetes-dashboard
++++ dashboard-metrics-scraper
@endmindmap

PlantUML version 1.2021.8(Sat Jun 26 05:20:59 BRT 2021)
(GPL source distribution)
Java Runtime: OpenJDK Runtime Environment
JVM: OpenJDK 64-Bit Server VM
Default Encoding: UTF-8
Language: en
Country: GB
--></g></svg>