<?xml version="1.0" encoding="UTF-8" standalone="no"?>
<!DOCTYPE svg PUBLIC "-//W3C//DTD SVG 1.1//EN"
 "http://www.w3.org/Graphics/SVG/1.1/DTD/svg11.dtd">
<!-- Generated by graphviz version 2.44.1 (20200629.0846)
 -->
<!-- Title: graphname Pages: 1 -->
<svg width="642pt" height="541pt"
 viewBox="0.00 0.00 642.00 541.00" xmlns="http://www.w3.org/2000/svg" xmlns:xlink="http://www.w3.org/1999/xlink">
<g id="graph0" class="graph" transform="scale(1 1) rotate(0) translate(4 537)">
<title>graphname</title>
<polygon fill="#fafafa" stroke="transparent" points="-4,4 -4,-537 638,-537 638,4 -4,4"/>
<text text-anchor="start" x="194" y="-508.4" font-family="Helvetica,sans-Serif" font-weight="bold" font-size="22.00" fill="#383838">Project launchTemplate</text>
<text text-anchor="start" x="313" y="-492.8" font-family="Helvetica,sans-Serif" font-size="14.00"> &#160;</text>
<text text-anchor="start" x="194" y="-471.2" font-family="Helvetica,sans-Serif" font-weight="bold" font-size="16.00" fill="#707070">Target Diagram</text>
<g id="clust1" class="cluster">
<title>cluster_aws</title>
<polygon fill="#f5f5f5" stroke="#f5f5f5" points="8,-8 8,-449 626,-449 626,-8 8,-8"/>
<text text-anchor="start" x="255" y="-23" font-family="Helvetica,sans-Serif" font-weight="bold" font-size="20.00" fill="#707070">Provider aws</text>
</g>
<g id="clust2" class="cluster">
<title>cluster_aws_</title>
<polygon fill="#eeeeee" stroke="#eeeeee" points="16,-54 16,-441 618,-441 618,-54 16,-54"/>
<text text-anchor="start" x="316.86" y="-58.3" font-family="Helvetica,sans-Serif" font-size="1.00" fill="#383838"> </text>
</g>
<!-- Role::role&#45;ecs -->
<g id="node1" class="node">
<title>Role::role&#45;ecs</title>
<polygon fill="#e5e5e5" stroke="#dddddd" points="610,-129 528,-129 528,-71 610,-71 610,-129"/>
<text text-anchor="start" x="540" y="-109.2" font-family="Helvetica,sans-Serif" font-weight="bold" font-size="16.00" fill="#707070">Role</text>
<text text-anchor="start" x="540" y="-84.2" font-family="Helvetica,sans-Serif" font-size="16.00" fill="#383838">role&#45;ecs</text>
</g>
<!-- InstanceProfile::role&#45;ecs -->
<g id="node2" class="node">
<title>InstanceProfile::role&#45;ecs</title>
<polygon fill="#e5e5e5" stroke="#dddddd" points="484,-129 345,-129 345,-71 484,-71 484,-129"/>
<text text-anchor="start" x="357.5" y="-109.2" font-family="Helvetica,sans-Serif" font-weight="bold" font-size="16.00" fill="#707070">InstanceProfile</text>
<text text-anchor="start" x="357.5" y="-84.2" font-family="Helvetica,sans-Serif" font-size="16.00" fill="#383838">role&#45;ecs</text>
</g>
<!-- InstanceProfile::role&#45;ecs&#45;&gt;Role::role&#45;ecs -->
<g id="edge1" class="edge">
<title>InstanceProfile::role&#45;ecs&#45;&gt;Role::role&#45;ecs</title>
<path fill="none" stroke="#707070" d="M484.17,-100C495.43,-100 506.92,-100 517.63,-100"/>
<polygon fill="#707070" stroke="#707070" points="517.63,-103.5 527.63,-100 517.63,-96.5 517.63,-103.5"/>
</g>
<!-- Vpc::Vpc -->
<g id="node3" class="node">
<title>Vpc::Vpc</title>
<polygon fill="#e5e5e5" stroke="#dddddd" points="596,-357 542,-357 542,-299 596,-299 596,-357"/>
<text text-anchor="start" x="554" y="-337.2" font-family="Helvetica,sans-Serif" font-weight="bold" font-size="16.00" fill="#707070">Vpc</text>
<text text-anchor="start" x="554" y="-312.2" font-family="Helvetica,sans-Serif" font-size="16.00" fill="#383838">Vpc</text>
</g>
<!-- Subnet::PubSubnetAz1 -->
<g id="node4" class="node">
<title>Subnet::PubSubnetAz1</title>
<polygon fill="#e5e5e5" stroke="#dddddd" points="480.5,-433 348.5,-433 348.5,-375 480.5,-375 480.5,-433"/>
<text text-anchor="start" x="360.5" y="-413.2" font-family="Helvetica,sans-Serif" font-weight="bold" font-size="16.00" fill="#707070">Subnet</text>
<text text-anchor="start" x="360.5" y="-388.2" font-family="Helvetica,sans-Serif" font-size="16.00" fill="#383838">PubSubnetAz1</text>
</g>
<!-- Subnet::PubSubnetAz1&#45;&gt;Vpc::Vpc -->
<g id="edge2" class="edge">
<title>Subnet::PubSubnetAz1&#45;&gt;Vpc::Vpc</title>
<path fill="none" stroke="#707070" d="M473.98,-374.97C480.07,-371.94 486.16,-368.91 492,-366 505.39,-359.33 520.09,-351.98 532.97,-345.54"/>
<polygon fill="#707070" stroke="#707070" points="534.6,-348.64 541.98,-341.03 531.47,-342.38 534.6,-348.64"/>
</g>
<!-- Subnet::PubSubnetAz2 -->
<g id="node5" class="node">
<title>Subnet::PubSubnetAz2</title>
<polygon fill="#e5e5e5" stroke="#dddddd" points="480.5,-357 348.5,-357 348.5,-299 480.5,-299 480.5,-357"/>
<text text-anchor="start" x="360.5" y="-337.2" font-family="Helvetica,sans-Serif" font-weight="bold" font-size="16.00" fill="#707070">Subnet</text>
<text text-anchor="start" x="360.5" y="-312.2" font-family="Helvetica,sans-Serif" font-size="16.00" fill="#383838">PubSubnetAz2</text>
</g>
<!-- Subnet::PubSubnetAz2&#45;&gt;Vpc::Vpc -->
<g id="edge3" class="edge">
<title>Subnet::PubSubnetAz2&#45;&gt;Vpc::Vpc</title>
<path fill="none" stroke="#707070" d="M480.62,-328C498.11,-328 516.41,-328 531.71,-328"/>
<polygon fill="#707070" stroke="#707070" points="531.78,-331.5 541.78,-328 531.78,-324.5 531.78,-331.5"/>
</g>
<!-- KeyPair::kp&#45;ecs -->
<g id="node6" class="node">
<title>KeyPair::kp&#45;ecs</title>
<polygon fill="#e5e5e5" stroke="#dddddd" points="456.5,-205 372.5,-205 372.5,-147 456.5,-147 456.5,-205"/>
<text text-anchor="start" x="384.5" y="-185.2" font-family="Helvetica,sans-Serif" font-weight="bold" font-size="16.00" fill="#707070">KeyPair</text>
<text text-anchor="start" x="384.5" y="-160.2" font-family="Helvetica,sans-Serif" font-size="16.00" fill="#383838">kp&#45;ecs</text>
</g>
<!-- SecurityGroup::EcsSecurityGroup -->
<g id="node7" class="node">
<title>SecurityGroup::EcsSecurityGroup</title>
<polygon fill="#e5e5e5" stroke="#dddddd" points="492,-281 337,-281 337,-223 492,-223 492,-281"/>
<text text-anchor="start" x="349.5" y="-261.2" font-family="Helvetica,sans-Serif" font-weight="bold" font-size="16.00" fill="#707070">SecurityGroup</text>
<text text-anchor="start" x="349.5" y="-236.2" font-family="Helvetica,sans-Serif" font-size="16.00" fill="#383838">EcsSecurityGroup</text>
</g>
<!-- SecurityGroup::EcsSecurityGroup&#45;&gt;Vpc::Vpc -->
<g id="edge4" class="edge">
<title>SecurityGroup::EcsSecurityGroup&#45;&gt;Vpc::Vpc</title>
<path fill="none" stroke="#707070" d="M473.98,-281.03C480.07,-284.06 486.16,-287.09 492,-290 505.39,-296.67 520.09,-304.02 532.97,-310.46"/>
<polygon fill="#707070" stroke="#707070" points="531.47,-313.62 541.98,-314.97 534.6,-307.36 531.47,-313.62"/>
</g>
<!-- SecurityGroupRuleIngress::EcsSecurityGroup&#45;rule&#45;ingress&#45;tcp&#45;80&#45;v4 -->
<g id="node8" class="node">
<title>SecurityGroupRuleIngress::EcsSecurityGroup&#45;rule&#45;ingress&#45;tcp&#45;80&#45;v4</title>
<polygon fill="#e5e5e5" stroke="#dddddd" points="301,-281 24,-281 24,-223 301,-223 301,-281"/>
<text text-anchor="start" x="36.5" y="-261.2" font-family="Helvetica,sans-Serif" font-weight="bold" font-size="16.00" fill="#707070">SecurityGroupRuleIngress</text>
<text text-anchor="start" x="36.5" y="-236.2" font-family="Helvetica,sans-Serif" font-size="16.00" fill="#383838">EcsSecurityGroup&#45;rule&#45;ingress&#45;tc...</text>
</g>
<!-- SecurityGroupRuleIngress::EcsSecurityGroup&#45;rule&#45;ingress&#45;tcp&#45;80&#45;v4&#45;&gt;SecurityGroup::EcsSecurityGroup -->
<g id="edge5" class="edge">
<title>SecurityGroupRuleIngress::EcsSecurityGroup&#45;rule&#45;ingress&#45;tcp&#45;80&#45;v4&#45;&gt;SecurityGroup::EcsSecurityGroup</title>
<path fill="none" stroke="#707070" d="M301.3,-252C309.81,-252 318.25,-252 326.45,-252"/>
<polygon fill="#707070" stroke="#707070" points="326.69,-255.5 336.69,-252 326.69,-248.5 326.69,-255.5"/>
</g>
<!-- LaunchTemplate::lt&#45;ec2&#45;micro -->
<g id="node9" class="node">
<title>LaunchTemplate::lt&#45;ec2&#45;micro</title>
<polygon fill="#e5e5e5" stroke="#dddddd" points="238,-205 87,-205 87,-147 238,-147 238,-205"/>
<text text-anchor="start" x="99.5" y="-185.2" font-family="Helvetica,sans-Serif" font-weight="bold" font-size="16.00" fill="#707070">LaunchTemplate</text>
<text text-anchor="start" x="99.5" y="-160.2" font-family="Helvetica,sans-Serif" font-size="16.00" fill="#383838">lt&#45;ec2&#45;micro</text>
</g>
<!-- LaunchTemplate::lt&#45;ec2&#45;micro&#45;&gt;InstanceProfile::role&#45;ecs -->
<g id="edge8" class="edge">
<title>LaunchTemplate::lt&#45;ec2&#45;micro&#45;&gt;InstanceProfile::role&#45;ecs</title>
<path fill="none" stroke="#707070" d="M238.17,-153.3C268.68,-144.03 303.99,-133.29 334.9,-123.9"/>
<polygon fill="#707070" stroke="#707070" points="336.21,-127.15 344.76,-120.9 334.18,-120.46 336.21,-127.15"/>
</g>
<!-- LaunchTemplate::lt&#45;ec2&#45;micro&#45;&gt;KeyPair::kp&#45;ecs -->
<g id="edge6" class="edge">
<title>LaunchTemplate::lt&#45;ec2&#45;micro&#45;&gt;KeyPair::kp&#45;ecs</title>
<path fill="none" stroke="#707070" d="M238.17,-176C278.11,-176 326.28,-176 362.02,-176"/>
<polygon fill="#707070" stroke="#707070" points="362.22,-179.5 372.22,-176 362.22,-172.5 362.22,-179.5"/>
</g>
<!-- LaunchTemplate::lt&#45;ec2&#45;micro&#45;&gt;SecurityGroup::EcsSecurityGroup -->
<g id="edge7" class="edge">
<title>LaunchTemplate::lt&#45;ec2&#45;micro&#45;&gt;SecurityGroup::EcsSecurityGroup</title>
<path fill="none" stroke="#707070" d="M238.29,-195.85C258.7,-201.49 280.76,-207.79 301,-214 309.54,-216.62 318.41,-219.44 327.26,-222.32"/>
<polygon fill="#707070" stroke="#707070" points="326.24,-225.67 336.83,-225.46 328.42,-219.02 326.24,-225.67"/>
</g>
</g>
</svg>
