<?xml version="1.0" encoding="UTF-8" standalone="no"?>
<!DOCTYPE svg PUBLIC "-//W3C//DTD SVG 1.1//EN"
 "http://www.w3.org/Graphics/SVG/1.1/DTD/svg11.dtd">
<!-- Generated by graphviz version 2.44.1 (20200629.0846)
 -->
<!-- Title: graphname Pages: 1 -->
<svg width="614pt" height="465pt"
 viewBox="0.00 0.00 614.00 465.00" xmlns="http://www.w3.org/2000/svg" xmlns:xlink="http://www.w3.org/1999/xlink">
<g id="graph0" class="graph" transform="scale(1 1) rotate(0) translate(4 461)">
<title>graphname</title>
<polygon fill="#fafafa" stroke="transparent" points="-4,4 -4,-461 610,-461 610,4 -4,4"/>
<text text-anchor="start" x="180" y="-432.4" font-family="Helvetica,sans-Serif" font-weight="bold" font-size="22.00" fill="#383838">Project launchTemplate</text>
<text text-anchor="start" x="299" y="-416.8" font-family="Helvetica,sans-Serif" font-size="14.00"> &#160;</text>
<text text-anchor="start" x="180" y="-395.2" font-family="Helvetica,sans-Serif" font-weight="bold" font-size="16.00" fill="#707070">Target Diagram</text>
<g id="clust1" class="cluster">
<title>cluster_aws</title>
<polygon fill="#f5f5f5" stroke="#f5f5f5" points="8,-8 8,-373 598,-373 598,-8 8,-8"/>
<text text-anchor="start" x="241" y="-23" font-family="Helvetica,sans-Serif" font-weight="bold" font-size="20.00" fill="#707070">Provider aws</text>
</g>
<g id="clust2" class="cluster">
<title>cluster_aws_</title>
<polygon fill="#eeeeee" stroke="#eeeeee" points="16,-54 16,-365 590,-365 590,-54 16,-54"/>
<text text-anchor="start" x="302.86" y="-58.3" font-family="Helvetica,sans-Serif" font-size="1.00" fill="#383838"> </text>
</g>
<!-- Vpc::Vpc -->
<g id="node1" class="node">
<title>Vpc::Vpc</title>
<polygon fill="#e5e5e5" stroke="#dddddd" points="582,-281 528,-281 528,-223 582,-223 582,-281"/>
<text text-anchor="start" x="540" y="-261.2" font-family="Helvetica,sans-Serif" font-weight="bold" font-size="16.00" fill="#707070">Vpc</text>
<text text-anchor="start" x="540" y="-236.2" font-family="Helvetica,sans-Serif" font-size="16.00" fill="#383838">Vpc</text>
</g>
<!-- Subnet::PubSubnetAz1 -->
<g id="node2" class="node">
<title>Subnet::PubSubnetAz1</title>
<polygon fill="#e5e5e5" stroke="#dddddd" points="480.5,-357 348.5,-357 348.5,-299 480.5,-299 480.5,-357"/>
<text text-anchor="start" x="360.5" y="-337.2" font-family="Helvetica,sans-Serif" font-weight="bold" font-size="16.00" fill="#707070">Subnet</text>
<text text-anchor="start" x="360.5" y="-312.2" font-family="Helvetica,sans-Serif" font-size="16.00" fill="#383838">PubSubnetAz1</text>
</g>
<!-- Subnet::PubSubnetAz1&#45;&gt;Vpc::Vpc -->
<g id="edge1" class="edge">
<title>Subnet::PubSubnetAz1&#45;&gt;Vpc::Vpc</title>
<path fill="none" stroke="#707070" d="M475.48,-298.84C481.1,-295.92 486.68,-292.94 492,-290 500.95,-285.05 510.44,-279.43 519.24,-274.05"/>
<polygon fill="#707070" stroke="#707070" points="521.08,-277.03 527.76,-268.8 517.41,-271.07 521.08,-277.03"/>
</g>
<!-- Subnet::PubSubnetAz2 -->
<g id="node3" class="node">
<title>Subnet::PubSubnetAz2</title>
<polygon fill="#e5e5e5" stroke="#dddddd" points="480.5,-281 348.5,-281 348.5,-223 480.5,-223 480.5,-281"/>
<text text-anchor="start" x="360.5" y="-261.2" font-family="Helvetica,sans-Serif" font-weight="bold" font-size="16.00" fill="#707070">Subnet</text>
<text text-anchor="start" x="360.5" y="-236.2" font-family="Helvetica,sans-Serif" font-size="16.00" fill="#383838">PubSubnetAz2</text>
</g>
<!-- Subnet::PubSubnetAz2&#45;&gt;Vpc::Vpc -->
<g id="edge2" class="edge">
<title>Subnet::PubSubnetAz2&#45;&gt;Vpc::Vpc</title>
<path fill="none" stroke="#707070" d="M480.69,-252C493.35,-252 506.18,-252 517.5,-252"/>
<polygon fill="#707070" stroke="#707070" points="517.83,-255.5 527.83,-252 517.83,-248.5 517.83,-255.5"/>
</g>
<!-- KeyPair::kp&#45;ecs -->
<g id="node4" class="node">
<title>KeyPair::kp&#45;ecs</title>
<polygon fill="#e5e5e5" stroke="#dddddd" points="456.5,-129 372.5,-129 372.5,-71 456.5,-71 456.5,-129"/>
<text text-anchor="start" x="384.5" y="-109.2" font-family="Helvetica,sans-Serif" font-weight="bold" font-size="16.00" fill="#707070">KeyPair</text>
<text text-anchor="start" x="384.5" y="-84.2" font-family="Helvetica,sans-Serif" font-size="16.00" fill="#383838">kp&#45;ecs</text>
</g>
<!-- SecurityGroup::EcsSecurityGroup -->
<g id="node5" class="node">
<title>SecurityGroup::EcsSecurityGroup</title>
<polygon fill="#e5e5e5" stroke="#dddddd" points="492,-205 337,-205 337,-147 492,-147 492,-205"/>
<text text-anchor="start" x="349.5" y="-185.2" font-family="Helvetica,sans-Serif" font-weight="bold" font-size="16.00" fill="#707070">SecurityGroup</text>
<text text-anchor="start" x="349.5" y="-160.2" font-family="Helvetica,sans-Serif" font-size="16.00" fill="#383838">EcsSecurityGroup</text>
</g>
<!-- SecurityGroup::EcsSecurityGroup&#45;&gt;Vpc::Vpc -->
<g id="edge3" class="edge">
<title>SecurityGroup::EcsSecurityGroup&#45;&gt;Vpc::Vpc</title>
<path fill="none" stroke="#707070" d="M475.48,-205.16C481.1,-208.08 486.68,-211.06 492,-214 500.95,-218.95 510.44,-224.57 519.24,-229.95"/>
<polygon fill="#707070" stroke="#707070" points="517.41,-232.93 527.76,-235.2 521.08,-226.97 517.41,-232.93"/>
</g>
<!-- SecurityGroupRuleIngress::EcsSecurityGroup&#45;rule&#45;ingress&#45;tcp&#45;80&#45;v4 -->
<g id="node6" class="node">
<title>SecurityGroupRuleIngress::EcsSecurityGroup&#45;rule&#45;ingress&#45;tcp&#45;80&#45;v4</title>
<polygon fill="#e5e5e5" stroke="#dddddd" points="301,-205 24,-205 24,-147 301,-147 301,-205"/>
<text text-anchor="start" x="36.5" y="-185.2" font-family="Helvetica,sans-Serif" font-weight="bold" font-size="16.00" fill="#707070">SecurityGroupRuleIngress</text>
<text text-anchor="start" x="36.5" y="-160.2" font-family="Helvetica,sans-Serif" font-size="16.00" fill="#383838">EcsSecurityGroup&#45;rule&#45;ingress&#45;tc...</text>
</g>
<!-- SecurityGroupRuleIngress::EcsSecurityGroup&#45;rule&#45;ingress&#45;tcp&#45;80&#45;v4&#45;&gt;SecurityGroup::EcsSecurityGroup -->
<g id="edge4" class="edge">
<title>SecurityGroupRuleIngress::EcsSecurityGroup&#45;rule&#45;ingress&#45;tcp&#45;80&#45;v4&#45;&gt;SecurityGroup::EcsSecurityGroup</title>
<path fill="none" stroke="#707070" d="M301.3,-176C309.81,-176 318.25,-176 326.45,-176"/>
<polygon fill="#707070" stroke="#707070" points="326.69,-179.5 336.69,-176 326.69,-172.5 326.69,-179.5"/>
</g>
<!-- LaunchTemplate::lt&#45;ec2&#45;micro -->
<g id="node7" class="node">
<title>LaunchTemplate::lt&#45;ec2&#45;micro</title>
<polygon fill="#e5e5e5" stroke="#dddddd" points="238,-129 87,-129 87,-71 238,-71 238,-129"/>
<text text-anchor="start" x="99.5" y="-109.2" font-family="Helvetica,sans-Serif" font-weight="bold" font-size="16.00" fill="#707070">LaunchTemplate</text>
<text text-anchor="start" x="99.5" y="-84.2" font-family="Helvetica,sans-Serif" font-size="16.00" fill="#383838">lt&#45;ec2&#45;micro</text>
</g>
<!-- LaunchTemplate::lt&#45;ec2&#45;micro&#45;&gt;KeyPair::kp&#45;ecs -->
<g id="edge5" class="edge">
<title>LaunchTemplate::lt&#45;ec2&#45;micro&#45;&gt;KeyPair::kp&#45;ecs</title>
<path fill="none" stroke="#707070" d="M238.17,-100C278.11,-100 326.28,-100 362.02,-100"/>
<polygon fill="#707070" stroke="#707070" points="362.22,-103.5 372.22,-100 362.22,-96.5 362.22,-103.5"/>
</g>
</g>
</svg>
