<?xml version="1.0" encoding="UTF-8" standalone="no"?>
<!DOCTYPE svg PUBLIC "-//W3C//DTD SVG 1.1//EN"
 "http://www.w3.org/Graphics/SVG/1.1/DTD/svg11.dtd">
<!-- Generated by graphviz version 3.0.0 (20220226.1711)
 -->
<!-- Title: graphname Pages: 1 -->
<svg width="718pt" height="389pt"
 viewBox="0.00 0.00 718.00 389.00" xmlns="http://www.w3.org/2000/svg" xmlns:xlink="http://www.w3.org/1999/xlink">
<g id="graph0" class="graph" transform="scale(1 1) rotate(0) translate(4 385)">
<title>graphname</title>
<polygon fill="#fafafa" stroke="transparent" points="-4,4 -4,-385 714,-385 714,4 -4,4"/>
<text text-anchor="start" x="232" y="-356.4" font-family="Helvetica,sans-Serif" font-weight="bold" font-size="22.00" fill="#383838">Project launchTemplate</text>
<text text-anchor="start" x="351" y="-340.8" font-family="Helvetica,sans-Serif" font-size="14.00"> &#160;</text>
<text text-anchor="start" x="232" y="-319.2" font-family="Helvetica,sans-Serif" font-weight="bold" font-size="16.00" fill="#707070">Target Diagram</text>
<g id="clust1" class="cluster">
<title>cluster_aws</title>
<polygon fill="#f5f5f5" stroke="#f5f5f5" points="8,-8 8,-297 702,-297 702,-8 8,-8"/>
<text text-anchor="start" x="293" y="-23" font-family="Helvetica,sans-Serif" font-weight="bold" font-size="20.00" fill="#707070">Provider aws</text>
</g>
<g id="clust2" class="cluster">
<title>cluster_aws_</title>
<polygon fill="#eeeeee" stroke="#eeeeee" points="16,-54 16,-289 694,-289 694,-54 16,-54"/>
<text text-anchor="start" x="354.86" y="-58.3" font-family="Helvetica,sans-Serif" font-size="1.00" fill="#383838"> </text>
</g>
<!-- KeyPair::kp&#45;ecs -->
<g id="node1" class="node">
<title>KeyPair::kp&#45;ecs</title>
<polygon fill="#e5e5e5" stroke="#dddddd" points="504.5,-129 379.5,-129 379.5,-71 504.5,-71 504.5,-129"/>
<text text-anchor="start" x="392" y="-109.2" font-family="Helvetica,sans-Serif" font-weight="bold" font-size="16.00" fill="#707070">EC2::KeyPair</text>
<text text-anchor="start" x="392" y="-84.2" font-family="Helvetica,sans-Serif" font-size="16.00" fill="#383838">kp&#45;ecs</text>
</g>
<!-- Vpc::Vpc -->
<g id="node2" class="node">
<title>Vpc::Vpc</title>
<polygon fill="#e5e5e5" stroke="#dddddd" points="684,-281 589,-281 589,-223 684,-223 684,-281"/>
<text text-anchor="start" x="601.5" y="-261.2" font-family="Helvetica,sans-Serif" font-weight="bold" font-size="16.00" fill="#707070">EC2::Vpc</text>
<text text-anchor="start" x="601.5" y="-236.2" font-family="Helvetica,sans-Serif" font-size="16.00" fill="#383838">Vpc</text>
</g>
<!-- SecurityGroup::sg::Vpc::EcsSecurityGroup -->
<g id="node3" class="node">
<title>SecurityGroup::sg::Vpc::EcsSecurityGroup</title>
<polygon fill="#e5e5e5" stroke="#dddddd" points="551,-281 333,-281 333,-223 551,-223 551,-281"/>
<text text-anchor="start" x="345" y="-261.2" font-family="Helvetica,sans-Serif" font-weight="bold" font-size="16.00" fill="#707070">EC2::SecurityGroup</text>
<text text-anchor="start" x="345" y="-236.2" font-family="Helvetica,sans-Serif" font-size="16.00" fill="#383838">sg::Vpc::EcsSecurityGroup</text>
</g>
<!-- SecurityGroup::sg::Vpc::EcsSecurityGroup&#45;&gt;Vpc::Vpc -->
<g id="edge1" class="edge">
<title>SecurityGroup::sg::Vpc::EcsSecurityGroup&#45;&gt;Vpc::Vpc</title>
<path fill="none" stroke="#707070" d="M551.07,-252C560.55,-252 569.88,-252 578.68,-252"/>
<polygon fill="#707070" stroke="#707070" points="578.75,-255.5 588.75,-252 578.75,-248.5 578.75,-255.5"/>
</g>
<!-- SecurityGroupRuleIngress::sg::Vpc::EcsSecurityGroup&#45;rule&#45;ingress&#45;tcp&#45;80 -->
<g id="node4" class="node">
<title>SecurityGroupRuleIngress::sg::Vpc::EcsSecurityGroup&#45;rule&#45;ingress&#45;tcp&#45;80</title>
<polygon fill="#e5e5e5" stroke="#dddddd" points="297,-281 24,-281 24,-223 297,-223 297,-281"/>
<text text-anchor="start" x="36.5" y="-261.2" font-family="Helvetica,sans-Serif" font-weight="bold" font-size="16.00" fill="#707070">EC2::SecurityGroupRuleIngress</text>
<text text-anchor="start" x="36.5" y="-236.2" font-family="Helvetica,sans-Serif" font-size="16.00" fill="#383838">sg::Vpc::EcsSecurityGroup&#45;rule&#45;i...</text>
</g>
<!-- SecurityGroupRuleIngress::sg::Vpc::EcsSecurityGroup&#45;rule&#45;ingress&#45;tcp&#45;80&#45;&gt;SecurityGroup::sg::Vpc::EcsSecurityGroup -->
<g id="edge2" class="edge">
<title>SecurityGroupRuleIngress::sg::Vpc::EcsSecurityGroup&#45;rule&#45;ingress&#45;tcp&#45;80&#45;&gt;SecurityGroup::sg::Vpc::EcsSecurityGroup</title>
<path fill="none" stroke="#707070" d="M297.16,-252C305.66,-252 314.18,-252 322.6,-252"/>
<polygon fill="#707070" stroke="#707070" points="322.81,-255.5 332.81,-252 322.81,-248.5 322.81,-255.5"/>
</g>
<!-- LaunchTemplate::lt&#45;ec2&#45;micro -->
<g id="node5" class="node">
<title>LaunchTemplate::lt&#45;ec2&#45;micro</title>
<polygon fill="#e5e5e5" stroke="#dddddd" points="256.5,-205 64.5,-205 64.5,-147 256.5,-147 256.5,-205"/>
<text text-anchor="start" x="76.5" y="-185.2" font-family="Helvetica,sans-Serif" font-weight="bold" font-size="16.00" fill="#707070">EC2::LaunchTemplate</text>
<text text-anchor="start" x="76.5" y="-160.2" font-family="Helvetica,sans-Serif" font-size="16.00" fill="#383838">lt&#45;ec2&#45;micro</text>
</g>
<!-- LaunchTemplate::lt&#45;ec2&#45;micro&#45;&gt;KeyPair::kp&#45;ecs -->
<g id="edge3" class="edge">
<title>LaunchTemplate::lt&#45;ec2&#45;micro&#45;&gt;KeyPair::kp&#45;ecs</title>
<path fill="none" stroke="#707070" d="M256.52,-150.16C293.39,-140.14 334.91,-128.85 369.21,-119.52"/>
<polygon fill="#707070" stroke="#707070" points="370.41,-122.82 379.14,-116.82 368.58,-116.07 370.41,-122.82"/>
</g>
<!-- LaunchTemplate::lt&#45;ec2&#45;micro&#45;&gt;SecurityGroup::sg::Vpc::EcsSecurityGroup -->
<g id="edge5" class="edge">
<title>LaunchTemplate::lt&#45;ec2&#45;micro&#45;&gt;SecurityGroup::sg::Vpc::EcsSecurityGroup</title>
<path fill="none" stroke="#707070" d="M256.52,-201.84C278.39,-207.79 301.91,-214.18 324.58,-220.34"/>
<polygon fill="#707070" stroke="#707070" points="323.67,-223.72 334.24,-222.97 325.51,-216.97 323.67,-223.72"/>
</g>
<!-- InstanceProfile::role&#45;ecs -->
<g id="node7" class="node">
<title>InstanceProfile::role&#45;ecs</title>
<polygon fill="#e5e5e5" stroke="#dddddd" points="531.5,-205 352.5,-205 352.5,-147 531.5,-147 531.5,-205"/>
<text text-anchor="start" x="365" y="-185.2" font-family="Helvetica,sans-Serif" font-weight="bold" font-size="16.00" fill="#707070">IAM::InstanceProfile</text>
<text text-anchor="start" x="365" y="-160.2" font-family="Helvetica,sans-Serif" font-size="16.00" fill="#383838">role&#45;ecs</text>
</g>
<!-- LaunchTemplate::lt&#45;ec2&#45;micro&#45;&gt;InstanceProfile::role&#45;ecs -->
<g id="edge4" class="edge">
<title>LaunchTemplate::lt&#45;ec2&#45;micro&#45;&gt;InstanceProfile::role&#45;ecs</title>
<path fill="none" stroke="#707070" d="M256.52,-176C284.14,-176 314.37,-176 342.23,-176"/>
<polygon fill="#707070" stroke="#707070" points="342.37,-179.5 352.37,-176 342.37,-172.5 342.37,-179.5"/>
</g>
<!-- Role::role&#45;ecs -->
<g id="node6" class="node">
<title>Role::role&#45;ecs</title>
<polygon fill="#e5e5e5" stroke="#dddddd" points="686,-205 587,-205 587,-147 686,-147 686,-205"/>
<text text-anchor="start" x="599.5" y="-185.2" font-family="Helvetica,sans-Serif" font-weight="bold" font-size="16.00" fill="#707070">IAM::Role</text>
<text text-anchor="start" x="599.5" y="-160.2" font-family="Helvetica,sans-Serif" font-size="16.00" fill="#383838">role&#45;ecs</text>
</g>
<!-- InstanceProfile::role&#45;ecs&#45;&gt;Role::role&#45;ecs -->
<g id="edge6" class="edge">
<title>InstanceProfile::role&#45;ecs&#45;&gt;Role::role&#45;ecs</title>
<path fill="none" stroke="#707070" d="M531.64,-176C546.97,-176 562.55,-176 576.83,-176"/>
<polygon fill="#707070" stroke="#707070" points="576.97,-179.5 586.97,-176 576.97,-172.5 576.97,-179.5"/>
</g>
</g>
</svg>
