<?xml version="1.0" encoding="UTF-8" standalone="no"?><svg xmlns="http://www.w3.org/2000/svg" xmlns:xlink="http://www.w3.org/1999/xlink" contentScriptType="application/ecmascript" contentStyleType="text/css" height="398px" preserveAspectRatio="none" style="width:541px;height:398px;background:#FFFFFF;" version="1.1" viewBox="0 0 541 398" width="541px" zoomAndPan="magnify"><defs><filter height="300%" id="f1nqzkrbr17z4h" width="300%" x="-1" y="-1"><feGaussianBlur result="blurOut" stdDeviation="2.0"/><feColorMatrix in="blurOut" result="blurOut2" type="matrix" values="0 0 0 0 0 0 0 0 0 0 0 0 0 0 0 0 0 0 .4 0"/><feOffset dx="4.0" dy="4.0" in="blurOut2" result="blurOut3"/><feBlend in="SourceGraphic" in2="blurOut3" mode="normal"/></filter></defs><g><rect fill="none" height="26.4883" style="stroke:none;stroke-width:1.0;" width="284" x="98.5" y="15"/><text fill="#000000" font-family="sans-serif" font-size="14" font-weight="bold" lengthAdjust="spacing" textLength="274" x="103.5" y="33.5352">Resources for project launchTemplate</text><rect fill="#F8F8F8" filter="url(#f1nqzkrbr17z4h)" height="36.4883" rx="12.5" ry="12.5" style="stroke:#383838;stroke-width:1.5;" width="52" x="10" y="198.709"/><text fill="#000000" font-family="sans-serif" font-size="14" lengthAdjust="spacing" textLength="32" x="20" y="222.2441">Infra</text><rect fill="#F8F8F8" filter="url(#f1nqzkrbr17z4h)" height="36.4883" rx="12.5" ry="12.5" style="stroke:#383838;stroke-width:1.5;" width="46" x="112" y="198.709"/><text fill="#000000" font-family="sans-serif" font-size="14" lengthAdjust="spacing" textLength="26" x="122" y="222.2441">aws</text><rect fill="#F8F8F8" filter="url(#f1nqzkrbr17z4h)" height="36.4883" rx="12.5" ry="12.5" style="stroke:#383838;stroke-width:1.5;" width="44" x="208" y="198.709"/><text fill="#000000" font-family="sans-serif" font-size="14" lengthAdjust="spacing" textLength="24" x="218" y="222.2441">ec2</text><rect fill="#F8F8F8" filter="url(#f1nqzkrbr17z4h)" height="36.4883" rx="12.5" ry="12.5" style="stroke:#383838;stroke-width:1.5;" width="68" x="302" y="57.4883"/><text fill="#000000" font-family="sans-serif" font-size="14" lengthAdjust="spacing" textLength="48" x="312" y="81.0234">Vpc (1)</text><path d="M252,216.9531 L262,216.9531 C277,216.9531 277,75.7324 292,75.7324 L302,75.7324 " fill="none" style="stroke:#383838;stroke-width:1.0;"/><rect fill="#F8F8F8" filter="url(#f1nqzkrbr17z4h)" height="36.4883" rx="12.5" ry="12.5" style="stroke:#383838;stroke-width:1.5;" width="91" x="302" y="113.9766"/><text fill="#000000" font-family="sans-serif" font-size="14" lengthAdjust="spacing" textLength="71" x="312" y="137.5117">Subnet (2)</text><path d="M252,216.9531 L262,216.9531 C277,216.9531 277,132.2207 292,132.2207 L302,132.2207 " fill="none" style="stroke:#383838;stroke-width:1.0;"/><rect fill="#F8F8F8" filter="url(#f1nqzkrbr17z4h)" height="36.4883" rx="12.5" ry="12.5" style="stroke:#383838;stroke-width:1.5;" width="93" x="302" y="170.4648"/><text fill="#000000" font-family="sans-serif" font-size="14" lengthAdjust="spacing" textLength="73" x="312" y="194">KeyPair (1)</text><path d="M252,216.9531 L262,216.9531 C277,216.9531 277,188.709 292,188.709 L302,188.709 " fill="none" style="stroke:#383838;stroke-width:1.0;"/><rect fill="#F8F8F8" filter="url(#f1nqzkrbr17z4h)" height="36.4883" rx="12.5" ry="12.5" style="stroke:#383838;stroke-width:1.5;" width="140" x="302" y="226.9531"/><text fill="#000000" font-family="sans-serif" font-size="14" lengthAdjust="spacing" textLength="120" x="312" y="250.4883">SecurityGroup (1)</text><path d="M252,216.9531 L262,216.9531 C277,216.9531 277,245.1973 292,245.1973 L302,245.1973 " fill="none" style="stroke:#383838;stroke-width:1.0;"/><rect fill="#F8F8F8" filter="url(#f1nqzkrbr17z4h)" height="36.4883" rx="12.5" ry="12.5" style="stroke:#383838;stroke-width:1.5;" width="220" x="302" y="283.4414"/><text fill="#000000" font-family="sans-serif" font-size="14" lengthAdjust="spacing" textLength="200" x="312" y="306.9766">SecurityGroupRuleIngress (1)</text><path d="M252,216.9531 L262,216.9531 C277,216.9531 277,301.6855 292,301.6855 L302,301.6855 " fill="none" style="stroke:#383838;stroke-width:1.0;"/><rect fill="#F8F8F8" filter="url(#f1nqzkrbr17z4h)" height="36.4883" rx="12.5" ry="12.5" style="stroke:#383838;stroke-width:1.5;" width="156" x="302" y="339.9297"/><text fill="#000000" font-family="sans-serif" font-size="14" lengthAdjust="spacing" textLength="136" x="312" y="363.4648">LaunchTemplate (1)</text><path d="M252,216.9531 L262,216.9531 C277,216.9531 277,358.1738 292,358.1738 L302,358.1738 " fill="none" style="stroke:#383838;stroke-width:1.0;"/><path d="M158,216.9531 L168,216.9531 C183,216.9531 183,216.9531 198,216.9531 L208,216.9531 " fill="none" style="stroke:#383838;stroke-width:1.0;"/><path d="M62,216.9531 L72,216.9531 C87,216.9531 87,216.9531 102,216.9531 L112,216.9531 " fill="none" style="stroke:#383838;stroke-width:1.0;"/><!--MD5=[a1a766893f51a23f2d08f8ba47ebf6ac]
@startmindmap
title Resources for project launchTemplate
skinparam monochrome true
+ Infra
++ aws
+++ ec2
++++ Vpc (1)
++++ Subnet (2)
++++ KeyPair (1)
++++ SecurityGroup (1)
++++ SecurityGroupRuleIngress (1)
++++ LaunchTemplate (1)
@endmindmap

PlantUML version 1.2021.8(Sat Jun 26 05:20:59 BRT 2021)
(GPL source distribution)
Java Runtime: OpenJDK Runtime Environment
JVM: OpenJDK 64-Bit Server VM
Default Encoding: UTF-8
Language: en
Country: GB
--></g></svg>