<?xml version="1.0" encoding="UTF-8" standalone="no"?><svg xmlns="http://www.w3.org/2000/svg" xmlns:xlink="http://www.w3.org/1999/xlink" contentScriptType="application/ecmascript" contentStyleType="text/css" height="511px" preserveAspectRatio="none" style="width:544px;height:511px;background:#FFFFFF;" version="1.1" viewBox="0 0 544 511" width="544px" zoomAndPan="magnify"><defs><filter height="300%" id="f2o75vbxvdemi" width="300%" x="-1" y="-1"><feGaussianBlur result="blurOut" stdDeviation="2.0"/><feColorMatrix in="blurOut" result="blurOut2" type="matrix" values="0 0 0 0 0 0 0 0 0 0 0 0 0 0 0 0 0 0 .4 0"/><feOffset dx="4.0" dy="4.0" in="blurOut2" result="blurOut3"/><feBlend in="SourceGraphic" in2="blurOut3" mode="normal"/></filter></defs><g><rect fill="none" height="26.4883" style="stroke:none;stroke-width:1.0;" width="284" x="100" y="15"/><text fill="#000000" font-family="sans-serif" font-size="14" font-weight="bold" lengthAdjust="spacing" textLength="274" x="105" y="33.5352">Resources for project launchTemplate</text><rect fill="#F8F8F8" filter="url(#f2o75vbxvdemi)" height="36.4883" rx="12.5" ry="12.5" style="stroke:#383838;stroke-width:1.5;" width="52" x="10" y="255.1973"/><text fill="#000000" font-family="sans-serif" font-size="14" lengthAdjust="spacing" textLength="32" x="20" y="278.7324">Infra</text><rect fill="#F8F8F8" filter="url(#f2o75vbxvdemi)" height="36.4883" rx="12.5" ry="12.5" style="stroke:#383838;stroke-width:1.5;" width="46" x="112" y="255.1973"/><text fill="#000000" font-family="sans-serif" font-size="14" lengthAdjust="spacing" textLength="26" x="122" y="278.7324">aws</text><rect fill="#F8F8F8" filter="url(#f2o75vbxvdemi)" height="36.4883" rx="12.5" ry="12.5" style="stroke:#383838;stroke-width:1.5;" width="46" x="208" y="85.7324"/><text fill="#000000" font-family="sans-serif" font-size="14" lengthAdjust="spacing" textLength="26" x="218" y="109.2676">IAM</text><rect fill="#F8F8F8" filter="url(#f2o75vbxvdemi)" height="36.4883" rx="12.5" ry="12.5" style="stroke:#383838;stroke-width:1.5;" width="73" x="304" y="57.4883"/><text fill="#000000" font-family="sans-serif" font-size="14" lengthAdjust="spacing" textLength="53" x="314" y="81.0234">Role (1)</text><path d="M254,103.9766 L264,103.9766 C279,103.9766 279,75.7324 294,75.7324 L304,75.7324 " fill="none" style="stroke:#383838;stroke-width:1.0;"/><rect fill="#F8F8F8" filter="url(#f2o75vbxvdemi)" height="36.4883" rx="12.5" ry="12.5" style="stroke:#383838;stroke-width:1.5;" width="144" x="304" y="113.9766"/><text fill="#000000" font-family="sans-serif" font-size="14" lengthAdjust="spacing" textLength="124" x="314" y="137.5117">InstanceProfile (1)</text><path d="M254,103.9766 L264,103.9766 C279,103.9766 279,132.2207 294,132.2207 L304,132.2207 " fill="none" style="stroke:#383838;stroke-width:1.0;"/><path d="M158,273.4414 L168,273.4414 C183,273.4414 183,103.9766 198,103.9766 L208,103.9766 " fill="none" style="stroke:#383838;stroke-width:1.0;"/><rect fill="#F8F8F8" filter="url(#f2o75vbxvdemi)" height="36.4883" rx="12.5" ry="12.5" style="stroke:#383838;stroke-width:1.5;" width="47" x="208" y="311.6855"/><text fill="#000000" font-family="sans-serif" font-size="14" lengthAdjust="spacing" textLength="27" x="218" y="335.2207">EC2</text><rect fill="#F8F8F8" filter="url(#f2o75vbxvdemi)" height="36.4883" rx="12.5" ry="12.5" style="stroke:#383838;stroke-width:1.5;" width="68" x="305" y="170.4648"/><text fill="#000000" font-family="sans-serif" font-size="14" lengthAdjust="spacing" textLength="48" x="315" y="194">Vpc (1)</text><path d="M255,329.9297 L265,329.9297 C280,329.9297 280,188.709 295,188.709 L305,188.709 " fill="none" style="stroke:#383838;stroke-width:1.0;"/><rect fill="#F8F8F8" filter="url(#f2o75vbxvdemi)" height="36.4883" rx="12.5" ry="12.5" style="stroke:#383838;stroke-width:1.5;" width="91" x="305" y="226.9531"/><text fill="#000000" font-family="sans-serif" font-size="14" lengthAdjust="spacing" textLength="71" x="315" y="250.4883">Subnet (2)</text><path d="M255,329.9297 L265,329.9297 C280,329.9297 280,245.1973 295,245.1973 L305,245.1973 " fill="none" style="stroke:#383838;stroke-width:1.0;"/><rect fill="#F8F8F8" filter="url(#f2o75vbxvdemi)" height="36.4883" rx="12.5" ry="12.5" style="stroke:#383838;stroke-width:1.5;" width="93" x="305" y="283.4414"/><text fill="#000000" font-family="sans-serif" font-size="14" lengthAdjust="spacing" textLength="73" x="315" y="306.9766">KeyPair (1)</text><path d="M255,329.9297 L265,329.9297 C280,329.9297 280,301.6855 295,301.6855 L305,301.6855 " fill="none" style="stroke:#383838;stroke-width:1.0;"/><rect fill="#F8F8F8" filter="url(#f2o75vbxvdemi)" height="36.4883" rx="12.5" ry="12.5" style="stroke:#383838;stroke-width:1.5;" width="140" x="305" y="339.9297"/><text fill="#000000" font-family="sans-serif" font-size="14" lengthAdjust="spacing" textLength="120" x="315" y="363.4648">SecurityGroup (1)</text><path d="M255,329.9297 L265,329.9297 C280,329.9297 280,358.1738 295,358.1738 L305,358.1738 " fill="none" style="stroke:#383838;stroke-width:1.0;"/><rect fill="#F8F8F8" filter="url(#f2o75vbxvdemi)" height="36.4883" rx="12.5" ry="12.5" style="stroke:#383838;stroke-width:1.5;" width="220" x="305" y="396.418"/><text fill="#000000" font-family="sans-serif" font-size="14" lengthAdjust="spacing" textLength="200" x="315" y="419.9531">SecurityGroupRuleIngress (1)</text><path d="M255,329.9297 L265,329.9297 C280,329.9297 280,414.6621 295,414.6621 L305,414.6621 " fill="none" style="stroke:#383838;stroke-width:1.0;"/><rect fill="#F8F8F8" filter="url(#f2o75vbxvdemi)" height="36.4883" rx="12.5" ry="12.5" style="stroke:#383838;stroke-width:1.5;" width="156" x="305" y="452.9063"/><text fill="#000000" font-family="sans-serif" font-size="14" lengthAdjust="spacing" textLength="136" x="315" y="476.4414">LaunchTemplate (1)</text><path d="M255,329.9297 L265,329.9297 C280,329.9297 280,471.1504 295,471.1504 L305,471.1504 " fill="none" style="stroke:#383838;stroke-width:1.0;"/><path d="M158,273.4414 L168,273.4414 C183,273.4414 183,329.9297 198,329.9297 L208,329.9297 " fill="none" style="stroke:#383838;stroke-width:1.0;"/><path d="M62,273.4414 L72,273.4414 C87,273.4414 87,273.4414 102,273.4414 L112,273.4414 " fill="none" style="stroke:#383838;stroke-width:1.0;"/><!--MD5=[2f3ecae38f867827310cb08f024afdc4]
@startmindmap
title Resources for project launchTemplate
skinparam monochrome true
+ Infra
++ aws
+++ IAM
++++ Role (1)
++++ InstanceProfile (1)
+++ EC2
++++ Vpc (1)
++++ Subnet (2)
++++ KeyPair (1)
++++ SecurityGroup (1)
++++ SecurityGroupRuleIngress (1)
++++ LaunchTemplate (1)
@endmindmap

PlantUML version 1.2021.8(Sat Jun 26 05:20:59 BRT 2021)
(GPL source distribution)
Java Runtime: OpenJDK Runtime Environment
JVM: OpenJDK 64-Bit Server VM
Default Encoding: UTF-8
Language: en
Country: GB
--></g></svg>