<?xml version="1.0" encoding="UTF-8" standalone="no"?><svg xmlns="http://www.w3.org/2000/svg" xmlns:xlink="http://www.w3.org/1999/xlink" contentScriptType="application/ecmascript" contentStyleType="text/css" height="454px" preserveAspectRatio="none" style="width:544px;height:454px;background:#FFFFFF;" version="1.1" viewBox="0 0 544 454" width="544px" zoomAndPan="magnify"><defs><filter height="300%" id="f8famay5r3gzh" width="300%" x="-1" y="-1"><feGaussianBlur result="blurOut" stdDeviation="2.0"/><feColorMatrix in="blurOut" result="blurOut2" type="matrix" values="0 0 0 0 0 0 0 0 0 0 0 0 0 0 0 0 0 0 .4 0"/><feOffset dx="4.0" dy="4.0" in="blurOut2" result="blurOut3"/><feBlend in="SourceGraphic" in2="blurOut3" mode="normal"/></filter></defs><g><rect fill="none" height="26.4883" style="stroke:none;stroke-width:1.0;" width="284" x="100" y="15"/><text fill="#000000" font-family="sans-serif" font-size="14" font-weight="bold" lengthAdjust="spacing" textLength="274" x="105" y="33.5352">Resources for project launchTemplate</text><rect fill="#F8F8F8" filter="url(#f8famay5r3gzh)" height="36.4883" rx="12.5" ry="12.5" style="stroke:#383838;stroke-width:1.5;" width="52" x="10" y="226.9531"/><text fill="#000000" font-family="sans-serif" font-size="14" lengthAdjust="spacing" textLength="32" x="20" y="250.4883">Infra</text><rect fill="#F8F8F8" filter="url(#f8famay5r3gzh)" height="36.4883" rx="12.5" ry="12.5" style="stroke:#383838;stroke-width:1.5;" width="46" x="112" y="226.9531"/><text fill="#000000" font-family="sans-serif" font-size="14" lengthAdjust="spacing" textLength="26" x="122" y="250.4883">aws</text><rect fill="#F8F8F8" filter="url(#f8famay5r3gzh)" height="36.4883" rx="12.5" ry="12.5" style="stroke:#383838;stroke-width:1.5;" width="47" x="208" y="170.4648"/><text fill="#000000" font-family="sans-serif" font-size="14" lengthAdjust="spacing" textLength="27" x="218" y="194">EC2</text><rect fill="#F8F8F8" filter="url(#f8famay5r3gzh)" height="36.4883" rx="12.5" ry="12.5" style="stroke:#383838;stroke-width:1.5;" width="93" x="305" y="57.4883"/><text fill="#000000" font-family="sans-serif" font-size="14" lengthAdjust="spacing" textLength="73" x="315" y="81.0234">KeyPair (1)</text><path d="M255,188.709 L265,188.709 C280,188.709 280,75.7324 295,75.7324 L305,75.7324 " fill="none" style="stroke:#383838;stroke-width:1.0;"/><rect fill="#F8F8F8" filter="url(#f8famay5r3gzh)" height="36.4883" rx="12.5" ry="12.5" style="stroke:#383838;stroke-width:1.5;" width="68" x="305" y="113.9766"/><text fill="#000000" font-family="sans-serif" font-size="14" lengthAdjust="spacing" textLength="48" x="315" y="137.5117">Vpc (1)</text><path d="M255,188.709 L265,188.709 C280,188.709 280,132.2207 295,132.2207 L305,132.2207 " fill="none" style="stroke:#383838;stroke-width:1.0;"/><rect fill="#F8F8F8" filter="url(#f8famay5r3gzh)" height="36.4883" rx="12.5" ry="12.5" style="stroke:#383838;stroke-width:1.5;" width="140" x="305" y="170.4648"/><text fill="#000000" font-family="sans-serif" font-size="14" lengthAdjust="spacing" textLength="120" x="315" y="194">SecurityGroup (1)</text><path d="M255,188.709 L265,188.709 C280,188.709 280,188.709 295,188.709 L305,188.709 " fill="none" style="stroke:#383838;stroke-width:1.0;"/><rect fill="#F8F8F8" filter="url(#f8famay5r3gzh)" height="36.4883" rx="12.5" ry="12.5" style="stroke:#383838;stroke-width:1.5;" width="220" x="305" y="226.9531"/><text fill="#000000" font-family="sans-serif" font-size="14" lengthAdjust="spacing" textLength="200" x="315" y="250.4883">SecurityGroupRuleIngress (1)</text><path d="M255,188.709 L265,188.709 C280,188.709 280,245.1973 295,245.1973 L305,245.1973 " fill="none" style="stroke:#383838;stroke-width:1.0;"/><rect fill="#F8F8F8" filter="url(#f8famay5r3gzh)" height="36.4883" rx="12.5" ry="12.5" style="stroke:#383838;stroke-width:1.5;" width="156" x="305" y="283.4414"/><text fill="#000000" font-family="sans-serif" font-size="14" lengthAdjust="spacing" textLength="136" x="315" y="306.9766">LaunchTemplate (1)</text><path d="M255,188.709 L265,188.709 C280,188.709 280,301.6855 295,301.6855 L305,301.6855 " fill="none" style="stroke:#383838;stroke-width:1.0;"/><path d="M158,245.1973 L168,245.1973 C183,245.1973 183,188.709 198,188.709 L208,188.709 " fill="none" style="stroke:#383838;stroke-width:1.0;"/><rect fill="#F8F8F8" filter="url(#f8famay5r3gzh)" height="36.4883" rx="12.5" ry="12.5" style="stroke:#383838;stroke-width:1.5;" width="46" x="208" y="368.1738"/><text fill="#000000" font-family="sans-serif" font-size="14" lengthAdjust="spacing" textLength="26" x="218" y="391.709">IAM</text><rect fill="#F8F8F8" filter="url(#f8famay5r3gzh)" height="36.4883" rx="12.5" ry="12.5" style="stroke:#383838;stroke-width:1.5;" width="73" x="304" y="339.9297"/><text fill="#000000" font-family="sans-serif" font-size="14" lengthAdjust="spacing" textLength="53" x="314" y="363.4648">Role (1)</text><path d="M254,386.418 L264,386.418 C279,386.418 279,358.1738 294,358.1738 L304,358.1738 " fill="none" style="stroke:#383838;stroke-width:1.0;"/><rect fill="#F8F8F8" filter="url(#f8famay5r3gzh)" height="36.4883" rx="12.5" ry="12.5" style="stroke:#383838;stroke-width:1.5;" width="144" x="304" y="396.418"/><text fill="#000000" font-family="sans-serif" font-size="14" lengthAdjust="spacing" textLength="124" x="314" y="419.9531">InstanceProfile (1)</text><path d="M254,386.418 L264,386.418 C279,386.418 279,414.6621 294,414.6621 L304,414.6621 " fill="none" style="stroke:#383838;stroke-width:1.0;"/><path d="M158,245.1973 L168,245.1973 C183,245.1973 183,386.418 198,386.418 L208,386.418 " fill="none" style="stroke:#383838;stroke-width:1.0;"/><path d="M62,245.1973 L72,245.1973 C87,245.1973 87,245.1973 102,245.1973 L112,245.1973 " fill="none" style="stroke:#383838;stroke-width:1.0;"/><!--MD5=[6d9c75bf60d2e26ad149abd2bcdfd6e2]
@startmindmap
title Resources for project launchTemplate
skinparam monochrome true
+ Infra
++ aws
+++ EC2
++++ KeyPair (1)
++++ Vpc (1)
++++ SecurityGroup (1)
++++ SecurityGroupRuleIngress (1)
++++ LaunchTemplate (1)
+++ IAM
++++ Role (1)
++++ InstanceProfile (1)
@endmindmap

PlantUML version 1.2021.8(Sat Jun 26 05:20:59 BRT 2021)
(GPL source distribution)
Java Runtime: OpenJDK Runtime Environment
JVM: OpenJDK 64-Bit Server VM
Default Encoding: UTF-8
Language: en
Country: GB
--></g></svg>