<?xml version="1.0" encoding="UTF-8" standalone="no"?>
<!DOCTYPE svg PUBLIC "-//W3C//DTD SVG 1.1//EN"
 "http://www.w3.org/Graphics/SVG/1.1/DTD/svg11.dtd">
<!-- Generated by graphviz version 2.50.0 (20211204.2007)
 -->
<!-- Title: graphname Pages: 1 -->
<svg width="1099pt" height="465pt"
 viewBox="0.00 0.00 1099.00 465.00" xmlns="http://www.w3.org/2000/svg" xmlns:xlink="http://www.w3.org/1999/xlink">
<g id="graph0" class="graph" transform="scale(1 1) rotate(0) translate(4 461)">
<title>graphname</title>
<polygon fill="#fafafa" stroke="transparent" points="-4,4 -4,-461 1095,-461 1095,4 -4,4"/>
<text text-anchor="start" x="467.5" y="-432.4" font-family="Helvetica,sans-Serif" font-weight="bold" font-size="22.00" fill="#383838">Project firewall</text>
<text text-anchor="start" x="541.5" y="-416.8" font-family="Helvetica,sans-Serif" font-size="14.00"> &#160;</text>
<text text-anchor="start" x="467.5" y="-395.2" font-family="Helvetica,sans-Serif" font-weight="bold" font-size="16.00" fill="#707070">Live Diagram</text>
<g id="clust1" class="cluster">
<title>cluster_azure</title>
<polygon fill="#f5f5f5" stroke="#f5f5f5" points="8,-8 8,-373 1083,-373 1083,-8 8,-8"/>
<text text-anchor="start" x="476.5" y="-23" font-family="Helvetica,sans-Serif" font-weight="bold" font-size="20.00" fill="#707070">Provider azure</text>
</g>
<g id="clust2" class="cluster">
<title>cluster_azure_</title>
<polygon fill="#eeeeee" stroke="#eeeeee" points="16,-54 16,-365 1075,-365 1075,-54 16,-54"/>
<text text-anchor="start" x="545.36" y="-58.3" font-family="Helvetica,sans-Serif" font-size="1.00" fill="#383838"> </text>
</g>
<!-- AzureFirewall::::rg&#45;firewall::firewall -->
<g id="node1" class="node">
<title>AzureFirewall::::rg&#45;firewall::firewall</title>
<polygon fill="#e5e5e5" stroke="#dddddd" points="244,-357 42,-357 42,-299 244,-299 244,-357"/>
<text text-anchor="start" x="54" y="-337.2" font-family="Helvetica,sans-Serif" font-weight="bold" font-size="16.00" fill="#707070">Network::AzureFirewall</text>
<text text-anchor="start" x="54" y="-312.2" font-family="Helvetica,sans-Serif" font-size="16.00" fill="#383838">rg&#45;firewall::firewall</text>
</g>
<!-- FirewallPolicy::::rg&#45;firewall::firewall&#45;policy -->
<g id="node2" class="node">
<title>FirewallPolicy::::rg&#45;firewall::firewall&#45;policy</title>
<polygon fill="#e5e5e5" stroke="#dddddd" points="790,-213 585,-213 585,-155 790,-155 790,-213"/>
<text text-anchor="start" x="597.5" y="-193.2" font-family="Helvetica,sans-Serif" font-weight="bold" font-size="16.00" fill="#707070">Network::FirewallPolicy</text>
<text text-anchor="start" x="597.5" y="-168.2" font-family="Helvetica,sans-Serif" font-size="16.00" fill="#383838">rg&#45;firewall::firewall&#45;policy</text>
</g>
<!-- AzureFirewall::::rg&#45;firewall::firewall&#45;&gt;FirewallPolicy::::rg&#45;firewall::firewall&#45;policy -->
<g id="edge4" class="edge">
<title>AzureFirewall::::rg&#45;firewall::firewall&#45;&gt;FirewallPolicy::::rg&#45;firewall::firewall&#45;policy</title>
<path fill="none" stroke="#707070" d="M244.08,-303.39C250.56,-299.56 256.63,-295.12 262,-290 294.97,-258.55 260.88,-220.44 298,-194 377.35,-137.49 490.77,-141.54 574.59,-155.82"/>
<polygon fill="#707070" stroke="#707070" points="574.2,-159.3 584.66,-157.6 575.43,-152.41 574.2,-159.3"/>
</g>
<!-- PublicIPAddress::::rg&#45;firewall::ip&#45;address -->
<g id="node3" class="node">
<title>PublicIPAddress::::rg&#45;firewall::ip&#45;address</title>
<polygon fill="#e5e5e5" stroke="#dddddd" points="534,-261 310,-261 310,-203 534,-203 534,-261"/>
<text text-anchor="start" x="322" y="-241.2" font-family="Helvetica,sans-Serif" font-weight="bold" font-size="16.00" fill="#707070">Network::PublicIPAddress</text>
<text text-anchor="start" x="322" y="-216.2" font-family="Helvetica,sans-Serif" font-size="16.00" fill="#383838">rg&#45;firewall::ip&#45;address</text>
</g>
<!-- AzureFirewall::::rg&#45;firewall::firewall&#45;&gt;PublicIPAddress::::rg&#45;firewall::ip&#45;address -->
<g id="edge2" class="edge">
<title>AzureFirewall::::rg&#45;firewall::firewall&#45;&gt;PublicIPAddress::::rg&#45;firewall::ip&#45;address</title>
<path fill="none" stroke="#707070" d="M239.59,-298.99C247.24,-296.13 254.79,-293.13 262,-290 278.79,-282.72 281.17,-277.18 298,-270 302.33,-268.15 306.79,-266.35 311.31,-264.6"/>
<polygon fill="#707070" stroke="#707070" points="312.55,-267.87 320.68,-261.08 310.09,-261.32 312.55,-267.87"/>
</g>
<!-- Subnet::::rg&#45;firewall::virtual&#45;network::azurefirewallsubnet -->
<g id="node4" class="node">
<title>Subnet::::rg&#45;firewall::virtual&#45;network::azurefirewallsubnet</title>
<polygon fill="#e5e5e5" stroke="#dddddd" points="546,-337 298,-337 298,-279 546,-279 546,-337"/>
<text text-anchor="start" x="310" y="-317.2" font-family="Helvetica,sans-Serif" font-weight="bold" font-size="16.00" fill="#707070">Network::Subnet</text>
<text text-anchor="start" x="310" y="-292.2" font-family="Helvetica,sans-Serif" font-size="16.00" fill="#383838">rg&#45;firewall::virtual&#45;network::az...</text>
</g>
<!-- AzureFirewall::::rg&#45;firewall::firewall&#45;&gt;Subnet::::rg&#45;firewall::virtual&#45;network::azurefirewallsubnet -->
<g id="edge3" class="edge">
<title>AzureFirewall::::rg&#45;firewall::firewall&#45;&gt;Subnet::::rg&#45;firewall::virtual&#45;network::azurefirewallsubnet</title>
<path fill="none" stroke="#707070" d="M244,-320.78C258.23,-319.75 273.05,-318.68 287.78,-317.62"/>
<polygon fill="#707070" stroke="#707070" points="288.24,-321.09 297.97,-316.88 287.74,-314.11 288.24,-321.09"/>
</g>
<!-- ResourceGroup::::rg&#45;firewall -->
<g id="node9" class="node">
<title>ResourceGroup::::rg&#45;firewall</title>
<polygon fill="#e5e5e5" stroke="#dddddd" points="1067,-309 829,-309 829,-251 1067,-251 1067,-309"/>
<text text-anchor="start" x="841" y="-289.2" font-family="Helvetica,sans-Serif" font-weight="bold" font-size="16.00" fill="#707070">Resources::ResourceGroup</text>
<text text-anchor="start" x="841" y="-264.2" font-family="Helvetica,sans-Serif" font-size="16.00" fill="#383838">rg&#45;firewall</text>
</g>
<!-- AzureFirewall::::rg&#45;firewall::firewall&#45;&gt;ResourceGroup::::rg&#45;firewall -->
<g id="edge1" class="edge">
<title>AzureFirewall::::rg&#45;firewall::firewall&#45;&gt;ResourceGroup::::rg&#45;firewall</title>
<path fill="none" stroke="#707070" d="M244.09,-341.41C262.01,-343.32 280.53,-344.98 298,-346 517.81,-358.8 576.6,-366.62 793,-326 812.24,-322.39 832.5,-317.3 851.77,-311.82"/>
<polygon fill="#707070" stroke="#707070" points="852.82,-315.16 861.45,-309.02 850.87,-308.44 852.82,-315.16"/>
</g>
<!-- FirewallPolicy::::rg&#45;firewall::firewall&#45;policy&#45;&gt;ResourceGroup::::rg&#45;firewall -->
<g id="edge5" class="edge">
<title>FirewallPolicy::::rg&#45;firewall::firewall&#45;policy&#45;&gt;ResourceGroup::::rg&#45;firewall</title>
<path fill="none" stroke="#707070" d="M766.76,-213.06C795.86,-223.87 829.06,-236.2 858.97,-247.31"/>
<polygon fill="#707070" stroke="#707070" points="857.97,-250.67 868.56,-250.87 860.4,-244.11 857.97,-250.67"/>
</g>
<!-- PublicIPAddress::::rg&#45;firewall::ip&#45;address&#45;&gt;ResourceGroup::::rg&#45;firewall -->
<g id="edge6" class="edge">
<title>PublicIPAddress::::rg&#45;firewall::ip&#45;address&#45;&gt;ResourceGroup::::rg&#45;firewall</title>
<path fill="none" stroke="#707070" d="M534.41,-228.8C608.11,-228.21 706.71,-230.33 793,-242 805.83,-243.74 819.14,-246.12 832.33,-248.84"/>
<polygon fill="#707070" stroke="#707070" points="831.86,-252.32 842.37,-250.99 833.33,-245.48 831.86,-252.32"/>
</g>
<!-- VirtualNetwork::::rg&#45;firewall::virtual&#45;network -->
<g id="node5" class="node">
<title>VirtualNetwork::::rg&#45;firewall::virtual&#45;network</title>
<polygon fill="#e5e5e5" stroke="#dddddd" points="793,-309 582,-309 582,-251 793,-251 793,-309"/>
<text text-anchor="start" x="594.5" y="-289.2" font-family="Helvetica,sans-Serif" font-weight="bold" font-size="16.00" fill="#707070">Network::VirtualNetwork</text>
<text text-anchor="start" x="594.5" y="-264.2" font-family="Helvetica,sans-Serif" font-size="16.00" fill="#383838">rg&#45;firewall::virtual&#45;network</text>
</g>
<!-- Subnet::::rg&#45;firewall::virtual&#45;network::azurefirewallsubnet&#45;&gt;VirtualNetwork::::rg&#45;firewall::virtual&#45;network -->
<g id="edge8" class="edge">
<title>Subnet::::rg&#45;firewall::virtual&#45;network::azurefirewallsubnet&#45;&gt;VirtualNetwork::::rg&#45;firewall::virtual&#45;network</title>
<path fill="none" stroke="#707070" d="M546.26,-294.9C554.83,-293.99 563.45,-293.08 571.97,-292.17"/>
<polygon fill="#707070" stroke="#707070" points="572.34,-295.65 581.91,-291.11 571.6,-288.69 572.34,-295.65"/>
</g>
<!-- Subnet::::rg&#45;firewall::virtual&#45;network::azurefirewallsubnet&#45;&gt;ResourceGroup::::rg&#45;firewall -->
<g id="edge7" class="edge">
<title>Subnet::::rg&#45;firewall::virtual&#45;network::azurefirewallsubnet&#45;&gt;ResourceGroup::::rg&#45;firewall</title>
<path fill="none" stroke="#707070" d="M546.34,-320.41C618.49,-325.42 711.19,-327.94 793,-318 806.42,-316.37 820.35,-313.97 834.11,-311.15"/>
<polygon fill="#707070" stroke="#707070" points="835.04,-314.53 844.09,-309.03 833.58,-307.68 835.04,-314.53"/>
</g>
<!-- VirtualNetwork::::rg&#45;firewall::virtual&#45;network&#45;&gt;ResourceGroup::::rg&#45;firewall -->
<g id="edge9" class="edge">
<title>VirtualNetwork::::rg&#45;firewall::virtual&#45;network&#45;&gt;ResourceGroup::::rg&#45;firewall</title>
<path fill="none" stroke="#707070" d="M793.27,-280C801.72,-280 810.31,-280 818.9,-280"/>
<polygon fill="#707070" stroke="#707070" points="818.97,-283.5 828.97,-280 818.97,-276.5 818.97,-283.5"/>
</g>
<!-- ResourceGroup::::defaultresourcegroup&#45;ccan -->
<g id="node6" class="node">
<title>ResourceGroup::::defaultresourcegroup&#45;ccan</title>
<polygon fill="#e5e5e5" stroke="#dddddd" points="262,-281 24,-281 24,-223 262,-223 262,-281"/>
<text text-anchor="start" x="36" y="-261.2" font-family="Helvetica,sans-Serif" font-weight="bold" font-size="16.00" fill="#707070">Resources::ResourceGroup</text>
<text text-anchor="start" x="36" y="-236.2" font-family="Helvetica,sans-Serif" font-size="16.00" fill="#383838">defaultresourcegroup&#45;ccan</text>
</g>
<!-- ResourceGroup::::defaultresourcegroup&#45;cus -->
<g id="node7" class="node">
<title>ResourceGroup::::defaultresourcegroup&#45;cus</title>
<polygon fill="#e5e5e5" stroke="#dddddd" points="262,-205 24,-205 24,-147 262,-147 262,-205"/>
<text text-anchor="start" x="36" y="-185.2" font-family="Helvetica,sans-Serif" font-weight="bold" font-size="16.00" fill="#707070">Resources::ResourceGroup</text>
<text text-anchor="start" x="36" y="-160.2" font-family="Helvetica,sans-Serif" font-size="16.00" fill="#383838">defaultresourcegroup&#45;cus</text>
</g>
<!-- ResourceGroup::::defaultresourcegroup&#45;neu -->
<g id="node8" class="node">
<title>ResourceGroup::::defaultresourcegroup&#45;neu</title>
<polygon fill="#e5e5e5" stroke="#dddddd" points="262,-129 24,-129 24,-71 262,-71 262,-129"/>
<text text-anchor="start" x="36" y="-109.2" font-family="Helvetica,sans-Serif" font-weight="bold" font-size="16.00" fill="#707070">Resources::ResourceGroup</text>
<text text-anchor="start" x="36" y="-84.2" font-family="Helvetica,sans-Serif" font-size="16.00" fill="#383838">defaultresourcegroup&#45;neu</text>
</g>
</g>
</svg>
