<?xml version="1.0" encoding="UTF-8" standalone="no"?>
<!DOCTYPE svg PUBLIC "-//W3C//DTD SVG 1.1//EN"
 "http://www.w3.org/Graphics/SVG/1.1/DTD/svg11.dtd">
<!-- Generated by graphviz version 2.44.1 (20200629.0846)
 -->
<!-- Title: graphname Pages: 1 -->
<svg width="720pt" height="541pt"
 viewBox="0.00 0.00 720.00 541.00" xmlns="http://www.w3.org/2000/svg" xmlns:xlink="http://www.w3.org/1999/xlink">
<g id="graph0" class="graph" transform="scale(1 1) rotate(0) translate(4 537)">
<title>graphname</title>
<polygon fill="#fafafa" stroke="transparent" points="-4,4 -4,-537 716,-537 716,4 -4,4"/>
<text text-anchor="start" x="297" y="-508.4" font-family="Helvetica,sans-Serif" font-weight="bold" font-size="22.00" fill="#383838">Project iam</text>
<text text-anchor="start" x="352" y="-492.8" font-family="Helvetica,sans-Serif" font-size="14.00"> &#160;</text>
<text text-anchor="start" x="297" y="-471.2" font-family="Helvetica,sans-Serif" font-weight="bold" font-size="16.00" fill="#707070">Live Diagram</text>
<g id="clust1" class="cluster">
<title>cluster_aws</title>
<polygon fill="#f5f5f5" stroke="#f5f5f5" points="8,-8 8,-449 704,-449 704,-8 8,-8"/>
<text text-anchor="start" x="294" y="-23" font-family="Helvetica,sans-Serif" font-weight="bold" font-size="20.00" fill="#707070">Provider aws</text>
</g>
<g id="clust2" class="cluster">
<title>cluster_aws_</title>
<polygon fill="#eeeeee" stroke="#eeeeee" points="16,-54 16,-441 696,-441 696,-54 16,-54"/>
<text text-anchor="start" x="355.86" y="-58.3" font-family="Helvetica,sans-Serif" font-size="1.00" fill="#383838"> </text>
</g>
<!-- Image::::ami&#45;084a1f89b0bb0f729 -->
<g id="node1" class="node">
<title>Image::::ami&#45;084a1f89b0bb0f729</title>
<polygon fill="#e5e5e5" stroke="#dddddd" points="443,-433 302,-433 302,-375 443,-375 443,-433"/>
<text text-anchor="start" x="314.5" y="-413.2" font-family="Helvetica,sans-Serif" font-weight="bold" font-size="16.00" fill="#707070">Image</text>
<text text-anchor="start" x="314.5" y="-388.2" font-family="Helvetica,sans-Serif" font-size="16.00" fill="#383838">Amazon Linux 2</text>
</g>
<!-- Instance::::i&#45;04046c599b91b463c -->
<g id="node2" class="node">
<title>Instance::::i&#45;04046c599b91b463c</title>
<polygon fill="#e5e5e5" stroke="#dddddd" points="163,-433 73,-433 73,-375 163,-375 163,-433"/>
<text text-anchor="start" x="85" y="-413.2" font-family="Helvetica,sans-Serif" font-weight="bold" font-size="16.00" fill="#707070">Instance</text>
<text text-anchor="start" x="85" y="-388.2" font-family="Helvetica,sans-Serif" font-size="16.00" fill="#383838">web&#45;iam</text>
</g>
<!-- Instance::::i&#45;04046c599b91b463c&#45;&gt;Image::::ami&#45;084a1f89b0bb0f729 -->
<g id="edge1" class="edge">
<title>Instance::::i&#45;04046c599b91b463c&#45;&gt;Image::::ami&#45;084a1f89b0bb0f729</title>
<path fill="none" stroke="#707070" d="M163.27,-404C198.62,-404 249.09,-404 291.48,-404"/>
<polygon fill="#707070" stroke="#707070" points="291.51,-407.5 301.51,-404 291.51,-400.5 291.51,-407.5"/>
</g>
<!-- Group::::Admin -->
<g id="node3" class="node">
<title>Group::::Admin</title>
<polygon fill="#e5e5e5" stroke="#dddddd" points="409,-129 336,-129 336,-71 409,-71 409,-129"/>
<text text-anchor="start" x="348.5" y="-109.2" font-family="Helvetica,sans-Serif" font-weight="bold" font-size="16.00" fill="#707070">Group</text>
<text text-anchor="start" x="348.5" y="-84.2" font-family="Helvetica,sans-Serif" font-size="16.00" fill="#383838">Admin</text>
</g>
<!-- Policy::::arn:aws:iam::840541460064:policy/myPolicy&#45;to&#45;group -->
<g id="node5" class="node">
<title>Policy::::arn:aws:iam::840541460064:policy/myPolicy&#45;to&#45;group</title>
<polygon fill="#e5e5e5" stroke="#dddddd" points="688,-129 533,-129 533,-71 688,-71 688,-129"/>
<text text-anchor="start" x="545.5" y="-109.2" font-family="Helvetica,sans-Serif" font-weight="bold" font-size="16.00" fill="#707070">Policy</text>
<text text-anchor="start" x="545.5" y="-84.2" font-family="Helvetica,sans-Serif" font-size="16.00" fill="#383838">myPolicy&#45;to&#45;group</text>
</g>
<!-- Group::::Admin&#45;&gt;Policy::::arn:aws:iam::840541460064:policy/myPolicy&#45;to&#45;group -->
<g id="edge2" class="edge">
<title>Group::::Admin&#45;&gt;Policy::::arn:aws:iam::840541460064:policy/myPolicy&#45;to&#45;group</title>
<path fill="none" stroke="#707070" d="M409.09,-100C439.06,-100 483.19,-100 522.42,-100"/>
<polygon fill="#707070" stroke="#707070" points="522.54,-103.5 532.54,-100 522.54,-96.5 522.54,-103.5"/>
</g>
<!-- Policy::::arn:aws:iam::aws:policy/AmazonEKSWorkerNodePolicy -->
<g id="node4" class="node">
<title>Policy::::arn:aws:iam::aws:policy/AmazonEKSWorkerNodePolicy</title>
<polygon fill="#e5e5e5" stroke="#dddddd" points="497,-281 248,-281 248,-223 497,-223 497,-281"/>
<text text-anchor="start" x="260.5" y="-261.2" font-family="Helvetica,sans-Serif" font-weight="bold" font-size="16.00" fill="#707070">Policy</text>
<text text-anchor="start" x="260.5" y="-236.2" font-family="Helvetica,sans-Serif" font-size="16.00" fill="#383838">AmazonEKSWorkerNodePolicy</text>
</g>
<!-- Policy::::arn:aws:iam::840541460064:policy/myPolicy&#45;to&#45;role -->
<g id="node6" class="node">
<title>Policy::::arn:aws:iam::840541460064:policy/myPolicy&#45;to&#45;role</title>
<polygon fill="#e5e5e5" stroke="#dddddd" points="443,-357 302,-357 302,-299 443,-299 443,-357"/>
<text text-anchor="start" x="314.5" y="-337.2" font-family="Helvetica,sans-Serif" font-weight="bold" font-size="16.00" fill="#707070">Policy</text>
<text text-anchor="start" x="314.5" y="-312.2" font-family="Helvetica,sans-Serif" font-size="16.00" fill="#383838">myPolicy&#45;to&#45;role</text>
</g>
<!-- Policy::::arn:aws:iam::840541460064:policy/myPolicy&#45;to&#45;user -->
<g id="node7" class="node">
<title>Policy::::arn:aws:iam::840541460064:policy/myPolicy&#45;to&#45;user</title>
<polygon fill="#e5e5e5" stroke="#dddddd" points="445,-205 300,-205 300,-147 445,-147 445,-205"/>
<text text-anchor="start" x="312.5" y="-185.2" font-family="Helvetica,sans-Serif" font-weight="bold" font-size="16.00" fill="#707070">Policy</text>
<text text-anchor="start" x="312.5" y="-160.2" font-family="Helvetica,sans-Serif" font-size="16.00" fill="#383838">myPolicy&#45;to&#45;user</text>
</g>
<!-- Role::::arn:aws:iam::840541460064:role/role&#45;allow&#45;assume&#45;role -->
<g id="node8" class="node">
<title>Role::::arn:aws:iam::840541460064:role/role&#45;allow&#45;assume&#45;role</title>
<polygon fill="#e5e5e5" stroke="#dddddd" points="212,-300 24,-300 24,-242 212,-242 212,-300"/>
<text text-anchor="start" x="36" y="-280.2" font-family="Helvetica,sans-Serif" font-weight="bold" font-size="16.00" fill="#707070">Role</text>
<text text-anchor="start" x="36" y="-255.2" font-family="Helvetica,sans-Serif" font-size="16.00" fill="#383838">role&#45;allow&#45;assume&#45;role</text>
</g>
<!-- Role::::arn:aws:iam::840541460064:role/role&#45;allow&#45;assume&#45;role&#45;&gt;Policy::::arn:aws:iam::aws:policy/AmazonEKSWorkerNodePolicy -->
<g id="edge4" class="edge">
<title>Role::::arn:aws:iam::840541460064:role/role&#45;allow&#45;assume&#45;role&#45;&gt;Policy::::arn:aws:iam::aws:policy/AmazonEKSWorkerNodePolicy</title>
<path fill="none" stroke="#707070" d="M212.3,-263.98C220.58,-263.36 229.07,-262.72 237.6,-262.08"/>
<polygon fill="#707070" stroke="#707070" points="237.91,-265.56 247.62,-261.32 237.39,-258.58 237.91,-265.56"/>
</g>
<!-- Role::::arn:aws:iam::840541460064:role/role&#45;allow&#45;assume&#45;role&#45;&gt;Policy::::arn:aws:iam::840541460064:policy/myPolicy&#45;to&#45;role -->
<g id="edge3" class="edge">
<title>Role::::arn:aws:iam::840541460064:role/role&#45;allow&#45;assume&#45;role&#45;&gt;Policy::::arn:aws:iam::840541460064:policy/myPolicy&#45;to&#45;role</title>
<path fill="none" stroke="#707070" d="M212.3,-292.06C238.47,-297.97 266.67,-304.34 291.96,-310.04"/>
<polygon fill="#707070" stroke="#707070" points="291.34,-313.49 301.86,-312.28 292.88,-306.66 291.34,-313.49"/>
</g>
<!-- User::::Alice -->
<g id="node9" class="node">
<title>User::::Alice</title>
<polygon fill="#e5e5e5" stroke="#dddddd" points="148,-186 88,-186 88,-128 148,-128 148,-186"/>
<text text-anchor="start" x="100" y="-166.2" font-family="Helvetica,sans-Serif" font-weight="bold" font-size="16.00" fill="#707070">User</text>
<text text-anchor="start" x="100" y="-141.2" font-family="Helvetica,sans-Serif" font-size="16.00" fill="#383838">Alice</text>
</g>
<!-- User::::Alice&#45;&gt;Group::::Admin -->
<g id="edge6" class="edge">
<title>User::::Alice&#45;&gt;Group::::Admin</title>
<path fill="none" stroke="#707070" d="M148.46,-150.35C192.12,-140.49 274.38,-121.92 325.88,-110.3"/>
<polygon fill="#707070" stroke="#707070" points="326.76,-113.69 335.74,-108.07 325.22,-106.86 326.76,-113.69"/>
</g>
<!-- User::::Alice&#45;&gt;Policy::::arn:aws:iam::840541460064:policy/myPolicy&#45;to&#45;user -->
<g id="edge5" class="edge">
<title>User::::Alice&#45;&gt;Policy::::arn:aws:iam::840541460064:policy/myPolicy&#45;to&#45;user</title>
<path fill="none" stroke="#707070" d="M148.46,-159.22C182.89,-161.81 241.33,-166.2 289.75,-169.85"/>
<polygon fill="#707070" stroke="#707070" points="289.68,-173.35 299.92,-170.61 290.21,-166.37 289.68,-173.35"/>
</g>
</g>
</svg>
