<?xml version="1.0" encoding="UTF-8" standalone="no"?>
<!DOCTYPE svg PUBLIC "-//W3C//DTD SVG 1.1//EN"
 "http://www.w3.org/Graphics/SVG/1.1/DTD/svg11.dtd">
<!-- Generated by graphviz version 3.0.0 (20220226.1711)
 -->
<!-- Title: graphname Pages: 1 -->
<svg width="693pt" height="257pt"
 viewBox="0.00 0.00 693.00 257.00" xmlns="http://www.w3.org/2000/svg" xmlns:xlink="http://www.w3.org/1999/xlink">
<g id="graph0" class="graph" transform="scale(1 1) rotate(0) translate(4 253)">
<title>graphname</title>
<polygon fill="#fafafa" stroke="transparent" points="-4,4 -4,-253 689,-253 689,4 -4,4"/>
<text text-anchor="start" x="215.5" y="-224.4" font-family="Helvetica,sans-Serif" font-weight="bold" font-size="22.00" fill="#383838">Project internet&#45;gateway</text>
<text text-anchor="start" x="339" y="-208.8" font-family="Helvetica,sans-Serif" font-size="14.00"> &#160;</text>
<text text-anchor="start" x="215.5" y="-187.2" font-family="Helvetica,sans-Serif" font-weight="bold" font-size="16.00" fill="#707070">Live Diagram</text>
<g id="clust1" class="cluster">
<title>cluster_aws</title>
<polygon fill="#f5f5f5" stroke="#f5f5f5" points="8,-8 8,-165 677,-165 677,-8 8,-8"/>
<text text-anchor="start" x="280.5" y="-23" font-family="Helvetica,sans-Serif" font-weight="bold" font-size="20.00" fill="#707070">Provider aws</text>
</g>
<g id="clust2" class="cluster">
<title>cluster_aws_</title>
<polygon fill="#eeeeee" stroke="#eeeeee" points="16,-54 16,-157 669,-157 669,-54 16,-54"/>
<text text-anchor="start" x="342.36" y="-58.3" font-family="Helvetica,sans-Serif" font-size="1.00" fill="#383838"> </text>
</g>
<!-- InternetGateway::::internet&#45;gateway -->
<g id="node1" class="node">
<title>InternetGateway::::internet&#45;gateway</title>
<polygon fill="#e5e5e5" stroke="#dddddd" points="530,-129 339,-129 339,-71 530,-71 530,-129"/>
<text text-anchor="start" x="351.5" y="-109.2" font-family="Helvetica,sans-Serif" font-weight="bold" font-size="16.00" fill="#707070">EC2::InternetGateway</text>
<text text-anchor="start" x="351.5" y="-84.2" font-family="Helvetica,sans-Serif" font-size="16.00" fill="#383838">internet&#45;gateway</text>
</g>
<!-- Vpc::::vpc -->
<g id="node3" class="node">
<title>Vpc::::vpc</title>
<polygon fill="#e5e5e5" stroke="#dddddd" points="661,-139 566,-139 566,-81 661,-81 661,-139"/>
<text text-anchor="start" x="578.5" y="-119.2" font-family="Helvetica,sans-Serif" font-weight="bold" font-size="16.00" fill="#707070">EC2::Vpc</text>
<text text-anchor="start" x="578.5" y="-94.2" font-family="Helvetica,sans-Serif" font-size="16.00" fill="#383838">vpc</text>
</g>
<!-- InternetGateway::::internet&#45;gateway&#45;&gt;Vpc::::vpc -->
<g id="edge1" class="edge">
<title>InternetGateway::::internet&#45;gateway&#45;&gt;Vpc::::vpc</title>
<path fill="none" stroke="#707070" d="M530.22,-105.35C538.89,-105.84 547.48,-106.33 555.65,-106.79"/>
<polygon fill="#707070" stroke="#707070" points="555.58,-110.29 565.76,-107.36 555.97,-103.3 555.58,-110.29"/>
</g>
<!-- InternetGatewayAttachment::::ig&#45;attach::internet&#45;gateway::vpc -->
<g id="node2" class="node">
<title>InternetGatewayAttachment::::ig&#45;attach::internet&#45;gateway::vpc</title>
<polygon fill="#e5e5e5" stroke="#dddddd" points="303,-139 24,-139 24,-81 303,-81 303,-139"/>
<text text-anchor="start" x="36.5" y="-119.2" font-family="Helvetica,sans-Serif" font-weight="bold" font-size="16.00" fill="#707070">EC2::InternetGatewayAttachment</text>
<text text-anchor="start" x="36.5" y="-94.2" font-family="Helvetica,sans-Serif" font-size="16.00" fill="#383838">ig&#45;attach::internet&#45;gateway::vpc...</text>
</g>
<!-- InternetGatewayAttachment::::ig&#45;attach::internet&#45;gateway::vpc&#45;&gt;InternetGateway::::internet&#45;gateway -->
<g id="edge3" class="edge">
<title>InternetGatewayAttachment::::ig&#45;attach::internet&#45;gateway::vpc&#45;&gt;InternetGateway::::internet&#45;gateway</title>
<path fill="none" stroke="#707070" d="M303.33,-104.84C311.83,-104.52 320.3,-104.21 328.61,-103.9"/>
<polygon fill="#707070" stroke="#707070" points="328.8,-107.39 338.66,-103.53 328.54,-100.4 328.8,-107.39"/>
</g>
<!-- InternetGatewayAttachment::::ig&#45;attach::internet&#45;gateway::vpc&#45;&gt;Vpc::::vpc -->
<g id="edge2" class="edge">
<title>InternetGatewayAttachment::::ig&#45;attach::internet&#45;gateway::vpc&#45;&gt;Vpc::::vpc</title>
<path fill="none" stroke="#707070" d="M303.16,-136.19C371.76,-145.19 455.59,-150.28 530,-138 538.57,-136.59 547.44,-134.4 556.05,-131.86"/>
<polygon fill="#707070" stroke="#707070" points="557.13,-135.18 565.63,-128.86 555.04,-128.5 557.13,-135.18"/>
</g>
</g>
</svg>
