<?xml version="1.0" encoding="UTF-8" standalone="no"?>
<!DOCTYPE svg PUBLIC "-//W3C//DTD SVG 1.1//EN"
 "http://www.w3.org/Graphics/SVG/1.1/DTD/svg11.dtd">
<!-- Generated by graphviz version 7.1.0 (20230121.1956)
 -->
<!-- Title: graphname Pages: 1 -->
<svg width="1469pt" height="465pt"
 viewBox="0.00 0.00 1469.00 465.00" xmlns="http://www.w3.org/2000/svg" xmlns:xlink="http://www.w3.org/1999/xlink">
<g id="graph0" class="graph" transform="scale(1 1) rotate(0) translate(4 461)">
<title>graphname</title>
<polygon fill="#fafafa" stroke="none" points="-4,4 -4,-461 1465,-461 1465,4 -4,4"/>
<text text-anchor="start" x="515.5" y="-432.4" font-family="Helvetica,sans-Serif" font-weight="bold" font-size="22.00" fill="#383838">Project apigw&#45;websocket&#45;api&#45;sqs&#45;lambda</text>
<text text-anchor="start" x="726.5" y="-416.8" font-family="Helvetica,sans-Serif" font-size="14.00"> &#160;</text>
<text text-anchor="start" x="515.5" y="-395.2" font-family="Helvetica,sans-Serif" font-weight="bold" font-size="16.00" fill="#707070">Target Diagram</text>
<g id="clust1" class="cluster">
<title>cluster_aws</title>
<polygon fill="#f5f5f5" stroke="#f5f5f5" points="8,-8 8,-373 1453,-373 1453,-8 8,-8"/>
<text text-anchor="start" x="668.5" y="-23" font-family="Helvetica,sans-Serif" font-weight="bold" font-size="20.00" fill="#707070">Provider aws</text>
</g>
<g id="clust2" class="cluster">
<title>cluster_aws_</title>
<polygon fill="#eeeeee" stroke="#eeeeee" points="16,-54 16,-365 1445,-365 1445,-54 16,-54"/>
<text text-anchor="start" x="730.36" y="-58.3" font-family="Helvetica,sans-Serif" font-size="1.00" fill="#383838"> </text>
</g>
<!-- Api::APIGWWebsocketSQSLambda -->
<g id="node1" class="node">
<title>Api::APIGWWebsocketSQSLambda</title>
<polygon fill="#e5e5e5" stroke="#dddddd" points="1398,-237 1148,-237 1148,-179 1398,-179 1398,-237"/>
<text text-anchor="start" x="1160" y="-217.2" font-family="Helvetica,sans-Serif" font-weight="bold" font-size="16.00" fill="#707070">ApiGatewayV2::Api</text>
<text text-anchor="start" x="1160" y="-192.2" font-family="Helvetica,sans-Serif" font-size="16.00" fill="#383838">APIGWWebsocketSQSLambda</text>
</g>
<!-- Deployment::deployment::APIGWWebsocketSQSLambda -->
<g id="node2" class="node">
<title>Deployment::deployment::APIGWWebsocketSQSLambda</title>
<polygon fill="#e5e5e5" stroke="#dddddd" points="710,-281 380,-281 380,-223 710,-223 710,-281"/>
<text text-anchor="start" x="392" y="-261.2" font-family="Helvetica,sans-Serif" font-weight="bold" font-size="16.00" fill="#707070">ApiGatewayV2::Deployment</text>
<text text-anchor="start" x="392" y="-236.2" font-family="Helvetica,sans-Serif" font-size="16.00" fill="#383838">deployment::APIGWWebsocketSQSLam...</text>
</g>
<!-- Deployment::deployment::APIGWWebsocketSQSLambda&#45;&gt;Api::APIGWWebsocketSQSLambda -->
<g id="edge1" class="edge">
<title>Deployment::deployment::APIGWWebsocketSQSLambda&#45;&gt;Api::APIGWWebsocketSQSLambda</title>
<path fill="none" stroke="#707070" d="M685.5,-222.53C693.87,-219.89 702.09,-217.04 710,-214 727.08,-207.43 728.28,-198.59 746,-194 875.39,-160.47 1028.71,-169.84 1136.33,-184.03"/>
<polygon fill="#707070" stroke="#707070" points="1135.71,-187.48 1146.09,-185.35 1136.65,-180.54 1135.71,-187.48"/>
</g>
<!-- Stage::APIGWWebsocketSQSLambda::production -->
<g id="node5" class="node">
<title>Stage::APIGWWebsocketSQSLambda::production</title>
<polygon fill="#e5e5e5" stroke="#dddddd" points="1073,-261 746,-261 746,-203 1073,-203 1073,-261"/>
<text text-anchor="start" x="758.5" y="-241.2" font-family="Helvetica,sans-Serif" font-weight="bold" font-size="16.00" fill="#707070">ApiGatewayV2::Stage</text>
<text text-anchor="start" x="758.5" y="-216.2" font-family="Helvetica,sans-Serif" font-size="16.00" fill="#383838">APIGWWebsocketSQSLambda::product...</text>
</g>
<!-- Deployment::deployment::APIGWWebsocketSQSLambda&#45;&gt;Stage::APIGWWebsocketSQSLambda::production -->
<g id="edge2" class="edge">
<title>Deployment::deployment::APIGWWebsocketSQSLambda&#45;&gt;Stage::APIGWWebsocketSQSLambda::production</title>
<path fill="none" stroke="#707070" d="M710.28,-242.94C718.3,-242.49 726.37,-242.05 734.42,-241.6"/>
<polygon fill="#707070" stroke="#707070" points="734.47,-245.11 744.26,-241.06 734.08,-238.12 734.47,-245.11"/>
</g>
<!-- Integration::integration::APIGWWebsocketSQSLambda::arn:aws:apigateway:us&#45;east&#45;1:sqs:path/728713477404/APIGWWebsocketQueue.fifo -->
<g id="node3" class="node">
<title>Integration::integration::APIGWWebsocketSQSLambda::arn:aws:apigateway:us&#45;east&#45;1:sqs:path/728713477404/APIGWWebsocketQueue.fifo</title>
<polygon fill="#e5e5e5" stroke="#dddddd" points="1063.5,-357 755.5,-357 755.5,-299 1063.5,-299 1063.5,-357"/>
<text text-anchor="start" x="767.5" y="-337.2" font-family="Helvetica,sans-Serif" font-weight="bold" font-size="16.00" fill="#707070">ApiGatewayV2::Integration</text>
<text text-anchor="start" x="767.5" y="-312.2" font-family="Helvetica,sans-Serif" font-size="16.00" fill="#383838">integration::APIGWWebsocketSQSLa...</text>
</g>
<!-- Integration::integration::APIGWWebsocketSQSLambda::arn:aws:apigateway:us&#45;east&#45;1:sqs:path/728713477404/APIGWWebsocketQueue.fifo&#45;&gt;Api::APIGWWebsocketSQSLambda -->
<g id="edge3" class="edge">
<title>Integration::integration::APIGWWebsocketSQSLambda::arn:aws:apigateway:us&#45;east&#45;1:sqs:path/728713477404/APIGWWebsocketQueue.fifo&#45;&gt;Api::APIGWWebsocketSQSLambda</title>
<path fill="none" stroke="#707070" d="M1028.11,-298.53C1043.29,-294.24 1058.57,-289.69 1073,-285 1112.44,-272.19 1155.45,-255.86 1191.35,-241.54"/>
<polygon fill="#707070" stroke="#707070" points="1192.38,-244.9 1200.36,-237.92 1189.78,-238.4 1192.38,-244.9"/>
</g>
<!-- Role::sam&#45;app&#45;ApiGatewayWebsocketSQSRole&#45;1V39NB449HWBY -->
<g id="node6" class="node">
<title>Role::sam&#45;app&#45;ApiGatewayWebsocketSQSRole&#45;1V39NB449HWBY</title>
<polygon fill="#e5e5e5" stroke="#dddddd" points="1437,-357 1109,-357 1109,-299 1437,-299 1437,-357"/>
<text text-anchor="start" x="1121" y="-337.2" font-family="Helvetica,sans-Serif" font-weight="bold" font-size="16.00" fill="#707070">IAM::Role</text>
<text text-anchor="start" x="1121" y="-312.2" font-family="Helvetica,sans-Serif" font-size="16.00" fill="#383838">sam&#45;app&#45;ApiGatewayWebsocketSQSRo...</text>
</g>
<!-- Integration::integration::APIGWWebsocketSQSLambda::arn:aws:apigateway:us&#45;east&#45;1:sqs:path/728713477404/APIGWWebsocketQueue.fifo&#45;&gt;Role::sam&#45;app&#45;ApiGatewayWebsocketSQSRole&#45;1V39NB449HWBY -->
<g id="edge4" class="edge">
<title>Integration::integration::APIGWWebsocketSQSLambda::arn:aws:apigateway:us&#45;east&#45;1:sqs:path/728713477404/APIGWWebsocketQueue.fifo&#45;&gt;Role::sam&#45;app&#45;ApiGatewayWebsocketSQSRole&#45;1V39NB449HWBY</title>
<path fill="none" stroke="#707070" d="M1063.81,-328C1074.92,-328 1086.18,-328 1097.4,-328"/>
<polygon fill="#707070" stroke="#707070" points="1097.09,-331.5 1107.09,-328 1097.09,-324.5 1097.09,-331.5"/>
</g>
<!-- Route::route::APIGWWebsocketSQSLambda::$default -->
<g id="node4" class="node">
<title>Route::route::APIGWWebsocketSQSLambda::$default</title>
<polygon fill="#e5e5e5" stroke="#dddddd" points="704.5,-357 385.5,-357 385.5,-299 704.5,-299 704.5,-357"/>
<text text-anchor="start" x="398" y="-337.2" font-family="Helvetica,sans-Serif" font-weight="bold" font-size="16.00" fill="#707070">ApiGatewayV2::Route</text>
<text text-anchor="start" x="398" y="-312.2" font-family="Helvetica,sans-Serif" font-size="16.00" fill="#383838">route::APIGWWebsocketSQSLambda::...</text>
</g>
<!-- Route::route::APIGWWebsocketSQSLambda::$default&#45;&gt;Api::APIGWWebsocketSQSLambda -->
<g id="edge5" class="edge">
<title>Route::route::APIGWWebsocketSQSLambda::$default&#45;&gt;Api::APIGWWebsocketSQSLambda</title>
<path fill="none" stroke="#707070" d="M689.31,-298.5C708.32,-295.26 727.59,-292.3 746,-290 890.48,-271.93 929.79,-296.29 1073,-270 1109.45,-263.31 1148.59,-252.05 1182.43,-240.94"/>
<polygon fill="#707070" stroke="#707070" points="1183.4,-244.31 1191.78,-237.83 1181.19,-237.67 1183.4,-244.31"/>
</g>
<!-- Route::route::APIGWWebsocketSQSLambda::$default&#45;&gt;Integration::integration::APIGWWebsocketSQSLambda::arn:aws:apigateway:us&#45;east&#45;1:sqs:path/728713477404/APIGWWebsocketQueue.fifo -->
<g id="edge6" class="edge">
<title>Route::route::APIGWWebsocketSQSLambda::$default&#45;&gt;Integration::integration::APIGWWebsocketSQSLambda::arn:aws:apigateway:us&#45;east&#45;1:sqs:path/728713477404/APIGWWebsocketQueue.fifo</title>
<path fill="none" stroke="#707070" d="M705,-328C717.87,-328 730.9,-328 743.81,-328"/>
<polygon fill="#707070" stroke="#707070" points="743.61,-331.5 753.61,-328 743.61,-324.5 743.61,-331.5"/>
</g>
<!-- Stage::APIGWWebsocketSQSLambda::production&#45;&gt;Api::APIGWWebsocketSQSLambda -->
<g id="edge7" class="edge">
<title>Stage::APIGWWebsocketSQSLambda::production&#45;&gt;Api::APIGWWebsocketSQSLambda</title>
<path fill="none" stroke="#707070" d="M1073.27,-221.19C1094.3,-219.8 1115.66,-218.38 1136.19,-217.02"/>
<polygon fill="#707070" stroke="#707070" points="1136.25,-220.52 1146,-216.37 1135.79,-213.54 1136.25,-220.52"/>
</g>
<!-- Role::sam&#45;app&#45;SQSWebsocketResponseServiceRole&#45;13ZF133MLHMTF -->
<g id="node7" class="node">
<title>Role::sam&#45;app&#45;SQSWebsocketResponseServiceRole&#45;13ZF133MLHMTF</title>
<polygon fill="#e5e5e5" stroke="#dddddd" points="1072,-133 747,-133 747,-75 1072,-75 1072,-133"/>
<text text-anchor="start" x="759.5" y="-113.2" font-family="Helvetica,sans-Serif" font-weight="bold" font-size="16.00" fill="#707070">IAM::Role</text>
<text text-anchor="start" x="759.5" y="-88.2" font-family="Helvetica,sans-Serif" font-size="16.00" fill="#383838">sam&#45;app&#45;SQSWebsocketResponseServ...</text>
</g>
<!-- Role::sam&#45;app&#45;SQSWebsocketResponseServiceRole&#45;13ZF133MLHMTF&#45;&gt;Api::APIGWWebsocketSQSLambda -->
<g id="edge8" class="edge">
<title>Role::sam&#45;app&#45;SQSWebsocketResponseServiceRole&#45;13ZF133MLHMTF&#45;&gt;Api::APIGWWebsocketSQSLambda</title>
<path fill="none" stroke="#707070" d="M1012.64,-133.39C1058.16,-146.48 1111.94,-161.95 1158.69,-175.4"/>
<polygon fill="#707070" stroke="#707070" points="1157.45,-178.69 1168.03,-178.09 1159.39,-171.96 1157.45,-178.69"/>
</g>
<!-- EventSourceMapping::mapping::sam&#45;app&#45;SQSWebsocketResponse&#45;xvCVTmGEZ2xx::APIGWWebsocketQueue.fifo -->
<g id="node8" class="node">
<title>EventSourceMapping::mapping::sam&#45;app&#45;SQSWebsocketResponse&#45;xvCVTmGEZ2xx::APIGWWebsocketQueue.fifo</title>
<polygon fill="#e5e5e5" stroke="#dddddd" points="344,-167 24,-167 24,-109 344,-109 344,-167"/>
<text text-anchor="start" x="36" y="-147.2" font-family="Helvetica,sans-Serif" font-weight="bold" font-size="16.00" fill="#707070">Lambda::EventSourceMapping</text>
<text text-anchor="start" x="36" y="-122.2" font-family="Helvetica,sans-Serif" font-size="16.00" fill="#383838">mapping::sam&#45;app&#45;SQSWebsocketRes...</text>
</g>
<!-- Function::sam&#45;app&#45;SQSWebsocketResponse&#45;xvCVTmGEZ2xx -->
<g id="node9" class="node">
<title>Function::sam&#45;app&#45;SQSWebsocketResponse&#45;xvCVTmGEZ2xx</title>
<polygon fill="#e5e5e5" stroke="#dddddd" points="708,-129 382,-129 382,-71 708,-71 708,-129"/>
<text text-anchor="start" x="394" y="-109.2" font-family="Helvetica,sans-Serif" font-weight="bold" font-size="16.00" fill="#707070">Lambda::Function</text>
<text text-anchor="start" x="394" y="-84.2" font-family="Helvetica,sans-Serif" font-size="16.00" fill="#383838">sam&#45;app&#45;SQSWebsocketResponse&#45;xvC...</text>
</g>
<!-- EventSourceMapping::mapping::sam&#45;app&#45;SQSWebsocketResponse&#45;xvCVTmGEZ2xx::APIGWWebsocketQueue.fifo&#45;&gt;Function::sam&#45;app&#45;SQSWebsocketResponse&#45;xvCVTmGEZ2xx -->
<g id="edge9" class="edge">
<title>EventSourceMapping::mapping::sam&#45;app&#45;SQSWebsocketResponse&#45;xvCVTmGEZ2xx::APIGWWebsocketQueue.fifo&#45;&gt;Function::sam&#45;app&#45;SQSWebsocketResponse&#45;xvCVTmGEZ2xx</title>
<path fill="none" stroke="#707070" d="M344.29,-121.14C352.89,-120.23 361.56,-119.31 370.2,-118.4"/>
<polygon fill="#707070" stroke="#707070" points="370.47,-121.89 380.04,-117.35 369.73,-114.93 370.47,-121.89"/>
</g>
<!-- Queue::APIGWWebsocketQueue.fifo -->
<g id="node10" class="node">
<title>Queue::APIGWWebsocketQueue.fifo</title>
<polygon fill="#e5e5e5" stroke="#dddddd" points="661.5,-205 428.5,-205 428.5,-147 661.5,-147 661.5,-205"/>
<text text-anchor="start" x="441" y="-185.2" font-family="Helvetica,sans-Serif" font-weight="bold" font-size="16.00" fill="#707070">SQS::Queue</text>
<text text-anchor="start" x="441" y="-160.2" font-family="Helvetica,sans-Serif" font-size="16.00" fill="#383838">APIGWWebsocketQueue.fifo</text>
</g>
<!-- EventSourceMapping::mapping::sam&#45;app&#45;SQSWebsocketResponse&#45;xvCVTmGEZ2xx::APIGWWebsocketQueue.fifo&#45;&gt;Queue::APIGWWebsocketQueue.fifo -->
<g id="edge10" class="edge">
<title>EventSourceMapping::mapping::sam&#45;app&#45;SQSWebsocketResponse&#45;xvCVTmGEZ2xx::APIGWWebsocketQueue.fifo&#45;&gt;Queue::APIGWWebsocketQueue.fifo</title>
<path fill="none" stroke="#707070" d="M344.29,-154.86C368.53,-157.43 393.27,-160.04 416.7,-162.53"/>
<polygon fill="#707070" stroke="#707070" points="416.28,-166 426.59,-163.57 417.01,-159.04 416.28,-166"/>
</g>
<!-- Function::sam&#45;app&#45;SQSWebsocketResponse&#45;xvCVTmGEZ2xx&#45;&gt;Api::APIGWWebsocketSQSLambda -->
<g id="edge12" class="edge">
<title>Function::sam&#45;app&#45;SQSWebsocketResponse&#45;xvCVTmGEZ2xx&#45;&gt;Api::APIGWWebsocketSQSLambda</title>
<path fill="none" stroke="#707070" d="M674.13,-129.49C697.92,-134.23 722.64,-138.67 746,-142 890.3,-162.58 928.66,-146.7 1073,-167 1093.67,-169.91 1115.42,-173.66 1136.65,-177.72"/>
<polygon fill="#707070" stroke="#707070" points="1135.72,-181.1 1146.2,-179.57 1137.06,-174.23 1135.72,-181.1"/>
</g>
<!-- Function::sam&#45;app&#45;SQSWebsocketResponse&#45;xvCVTmGEZ2xx&#45;&gt;Role::sam&#45;app&#45;SQSWebsocketResponseServiceRole&#45;13ZF133MLHMTF -->
<g id="edge11" class="edge">
<title>Function::sam&#45;app&#45;SQSWebsocketResponse&#45;xvCVTmGEZ2xx&#45;&gt;Role::sam&#45;app&#45;SQSWebsocketResponseServiceRole&#45;13ZF133MLHMTF</title>
<path fill="none" stroke="#707070" d="M708.43,-101.79C717.37,-101.89 726.37,-101.99 735.35,-102.09"/>
<polygon fill="#707070" stroke="#707070" points="735.14,-105.59 745.18,-102.2 735.22,-98.59 735.14,-105.59"/>
</g>
</g>
</svg>
