<?xml version="1.0" encoding="UTF-8" standalone="no"?>
<!DOCTYPE svg PUBLIC "-//W3C//DTD SVG 1.1//EN"
 "http://www.w3.org/Graphics/SVG/1.1/DTD/svg11.dtd">
<!-- Generated by graphviz version 2.44.1 (20200629.0846)
 -->
<!-- Title: graphname Pages: 1 -->
<svg width="856pt" height="529pt"
 viewBox="0.00 0.00 856.00 529.00" xmlns="http://www.w3.org/2000/svg" xmlns:xlink="http://www.w3.org/1999/xlink">
<g id="graph0" class="graph" transform="scale(1 1) rotate(0) translate(4 525)">
<title>graphname</title>
<polygon fill="#fafafa" stroke="transparent" points="-4,4 -4,-525 852,-525 852,4 -4,4"/>
<text text-anchor="start" x="268" y="-496.4" font-family="Helvetica,sans-Serif" font-weight="bold" font-size="22.00" fill="#383838">Project Load Balancer Module</text>
<text text-anchor="start" x="268" y="-471.2" font-family="Helvetica,sans-Serif" font-weight="bold" font-size="16.00" fill="#707070">Target Diagram</text>
<g id="clust1" class="cluster">
<title>cluster_aws</title>
<polygon fill="#f5f5f5" stroke="#f5f5f5" points="8,-8 8,-449 840,-449 840,-8 8,-8"/>
<text text-anchor="start" x="362" y="-23" font-family="Helvetica,sans-Serif" font-weight="bold" font-size="20.00" fill="#707070">Provider aws</text>
</g>
<g id="clust2" class="cluster">
<title>cluster_aws_</title>
<polygon fill="#eeeeee" stroke="#eeeeee" points="16,-54 16,-441 832,-441 832,-54 16,-54"/>
<text text-anchor="start" x="423.86" y="-58.3" font-family="Helvetica,sans-Serif" font-size="1.00" fill="#383838"> </text>
</g>
<!-- KeyPair::kp -->
<g id="node1" class="node">
<title>KeyPair::kp</title>
<polygon fill="#e5e5e5" stroke="#dddddd" points="273.5,-129 189.5,-129 189.5,-71 273.5,-71 273.5,-129"/>
<text text-anchor="start" x="201.5" y="-109.2" font-family="Helvetica,sans-Serif" font-weight="bold" font-size="16.00" fill="#707070">KeyPair</text>
<text text-anchor="start" x="201.5" y="-84.2" font-family="Helvetica,sans-Serif" font-size="16.00" fill="#383838">kp</text>
</g>
<!-- IamPolicy::myPolicy&#45;to&#45;user -->
<g id="node2" class="node">
<title>IamPolicy::myPolicy&#45;to&#45;user</title>
<polygon fill="#e5e5e5" stroke="#dddddd" points="304,-357 159,-357 159,-299 304,-299 304,-357"/>
<text text-anchor="start" x="171.5" y="-337.2" font-family="Helvetica,sans-Serif" font-weight="bold" font-size="16.00" fill="#707070">IamPolicy</text>
<text text-anchor="start" x="171.5" y="-312.2" font-family="Helvetica,sans-Serif" font-size="16.00" fill="#383838">myPolicy&#45;to&#45;user</text>
</g>
<!-- IamPolicy::myPolicy&#45;to&#45;role -->
<g id="node3" class="node">
<title>IamPolicy::myPolicy&#45;to&#45;role</title>
<polygon fill="#e5e5e5" stroke="#dddddd" points="770,-167 629,-167 629,-109 770,-109 770,-167"/>
<text text-anchor="start" x="641.5" y="-147.2" font-family="Helvetica,sans-Serif" font-weight="bold" font-size="16.00" fill="#707070">IamPolicy</text>
<text text-anchor="start" x="641.5" y="-122.2" font-family="Helvetica,sans-Serif" font-size="16.00" fill="#383838">myPolicy&#45;to&#45;role</text>
</g>
<!-- IamPolicy::myPolicy&#45;to&#45;group -->
<g id="node4" class="node">
<title>IamPolicy::myPolicy&#45;to&#45;group</title>
<polygon fill="#e5e5e5" stroke="#dddddd" points="522.5,-433 367.5,-433 367.5,-375 522.5,-375 522.5,-433"/>
<text text-anchor="start" x="380" y="-413.2" font-family="Helvetica,sans-Serif" font-weight="bold" font-size="16.00" fill="#707070">IamPolicy</text>
<text text-anchor="start" x="380" y="-388.2" font-family="Helvetica,sans-Serif" font-size="16.00" fill="#383838">myPolicy&#45;to&#45;group</text>
</g>
<!-- IamPolicy::AmazonEKSWorkerNodePolicy -->
<g id="node5" class="node">
<title>IamPolicy::AmazonEKSWorkerNodePolicy</title>
<polygon fill="#e5e5e5" stroke="#dddddd" points="824,-243 575,-243 575,-185 824,-185 824,-243"/>
<text text-anchor="start" x="587.5" y="-223.2" font-family="Helvetica,sans-Serif" font-weight="bold" font-size="16.00" fill="#707070">IamPolicy</text>
<text text-anchor="start" x="587.5" y="-198.2" font-family="Helvetica,sans-Serif" font-size="16.00" fill="#383838">AmazonEKSWorkerNodePolicy</text>
</g>
<!-- IamGroup::Admin -->
<g id="node6" class="node">
<title>IamGroup::Admin</title>
<polygon fill="#e5e5e5" stroke="#dddddd" points="281.5,-433 181.5,-433 181.5,-375 281.5,-375 281.5,-433"/>
<text text-anchor="start" x="193.5" y="-413.2" font-family="Helvetica,sans-Serif" font-weight="bold" font-size="16.00" fill="#707070">IamGroup</text>
<text text-anchor="start" x="193.5" y="-388.2" font-family="Helvetica,sans-Serif" font-size="16.00" fill="#383838">Admin</text>
</g>
<!-- IamGroup::Admin&#45;&gt;IamPolicy::myPolicy&#45;to&#45;group -->
<g id="edge1" class="edge">
<title>IamGroup::Admin&#45;&gt;IamPolicy::myPolicy&#45;to&#45;group</title>
<path fill="none" stroke="#707070" d="M281.55,-404C304.07,-404 331.45,-404 357.27,-404"/>
<polygon fill="#707070" stroke="#707070" points="357.46,-407.5 367.46,-404 357.46,-400.5 357.46,-407.5"/>
</g>
<!-- IamUser::Alice -->
<g id="node7" class="node">
<title>IamUser::Alice</title>
<polygon fill="#e5e5e5" stroke="#dddddd" points="112,-395 24,-395 24,-337 112,-337 112,-395"/>
<text text-anchor="start" x="36" y="-375.2" font-family="Helvetica,sans-Serif" font-weight="bold" font-size="16.00" fill="#707070">IamUser</text>
<text text-anchor="start" x="36" y="-350.2" font-family="Helvetica,sans-Serif" font-size="16.00" fill="#383838">Alice</text>
</g>
<!-- IamUser::Alice&#45;&gt;IamPolicy::myPolicy&#45;to&#45;user -->
<g id="edge3" class="edge">
<title>IamUser::Alice&#45;&gt;IamPolicy::myPolicy&#45;to&#45;user</title>
<path fill="none" stroke="#707070" d="M112.28,-355.82C123.56,-353.16 136.09,-350.21 148.66,-347.26"/>
<polygon fill="#707070" stroke="#707070" points="149.79,-350.59 158.73,-344.89 148.19,-343.77 149.79,-350.59"/>
</g>
<!-- IamUser::Alice&#45;&gt;IamGroup::Admin -->
<g id="edge2" class="edge">
<title>IamUser::Alice&#45;&gt;IamGroup::Admin</title>
<path fill="none" stroke="#707070" d="M112.28,-376.18C130.5,-380.47 152,-385.53 171.63,-390.15"/>
<polygon fill="#707070" stroke="#707070" points="170.86,-393.56 181.39,-392.45 172.46,-386.75 170.86,-393.56"/>
</g>
<!-- IamRole::role&#45;allow&#45;assume&#45;role -->
<g id="node8" class="node">
<title>IamRole::role&#45;allow&#45;assume&#45;role</title>
<polygon fill="#e5e5e5" stroke="#dddddd" points="539,-205 351,-205 351,-147 539,-147 539,-205"/>
<text text-anchor="start" x="363" y="-185.2" font-family="Helvetica,sans-Serif" font-weight="bold" font-size="16.00" fill="#707070">IamRole</text>
<text text-anchor="start" x="363" y="-160.2" font-family="Helvetica,sans-Serif" font-size="16.00" fill="#383838">role&#45;allow&#45;assume&#45;role</text>
</g>
<!-- IamRole::role&#45;allow&#45;assume&#45;role&#45;&gt;IamPolicy::myPolicy&#45;to&#45;role -->
<g id="edge4" class="edge">
<title>IamRole::role&#45;allow&#45;assume&#45;role&#45;&gt;IamPolicy::myPolicy&#45;to&#45;role</title>
<path fill="none" stroke="#707070" d="M539.3,-161.96C565.47,-158.02 593.67,-153.78 618.96,-149.97"/>
<polygon fill="#707070" stroke="#707070" points="619.5,-153.43 628.86,-148.48 618.46,-146.51 619.5,-153.43"/>
</g>
<!-- IamRole::role&#45;allow&#45;assume&#45;role&#45;&gt;IamPolicy::AmazonEKSWorkerNodePolicy -->
<g id="edge5" class="edge">
<title>IamRole::role&#45;allow&#45;assume&#45;role&#45;&gt;IamPolicy::AmazonEKSWorkerNodePolicy</title>
<path fill="none" stroke="#707070" d="M539.3,-190.04C547.58,-191.29 556.07,-192.56 564.6,-193.85"/>
<polygon fill="#707070" stroke="#707070" points="564.21,-197.33 574.62,-195.36 565.25,-190.41 564.21,-197.33"/>
</g>
<!-- IamInstanceProfile::my&#45;profile -->
<g id="node9" class="node">
<title>IamInstanceProfile::my&#45;profile</title>
<polygon fill="#e5e5e5" stroke="#dddddd" points="315,-205 148,-205 148,-147 315,-147 315,-205"/>
<text text-anchor="start" x="160.5" y="-185.2" font-family="Helvetica,sans-Serif" font-weight="bold" font-size="16.00" fill="#707070">IamInstanceProfile</text>
<text text-anchor="start" x="160.5" y="-160.2" font-family="Helvetica,sans-Serif" font-size="16.00" fill="#383838">my&#45;profile</text>
</g>
<!-- IamInstanceProfile::my&#45;profile&#45;&gt;IamRole::role&#45;allow&#45;assume&#45;role -->
<g id="edge6" class="edge">
<title>IamInstanceProfile::my&#45;profile&#45;&gt;IamRole::role&#45;allow&#45;assume&#45;role</title>
<path fill="none" stroke="#707070" d="M315.18,-176C323.59,-176 332.21,-176 340.8,-176"/>
<polygon fill="#707070" stroke="#707070" points="340.86,-179.5 350.86,-176 340.86,-172.5 340.86,-179.5"/>
</g>
<!-- Image::Amazon Linux 2 -->
<g id="node10" class="node">
<title>Image::Amazon Linux 2</title>
<polygon fill="#e5e5e5" stroke="#dddddd" points="302,-281 161,-281 161,-223 302,-223 302,-281"/>
<text text-anchor="start" x="173.5" y="-261.2" font-family="Helvetica,sans-Serif" font-weight="bold" font-size="16.00" fill="#707070">Image</text>
<text text-anchor="start" x="173.5" y="-236.2" font-family="Helvetica,sans-Serif" font-size="16.00" fill="#383838">Amazon Linux 2</text>
</g>
<!-- EC2::web&#45;iam -->
<g id="node11" class="node">
<title>EC2::web&#45;iam</title>
<polygon fill="#e5e5e5" stroke="#dddddd" points="110.5,-205 25.5,-205 25.5,-147 110.5,-147 110.5,-205"/>
<text text-anchor="start" x="38" y="-185.2" font-family="Helvetica,sans-Serif" font-weight="bold" font-size="16.00" fill="#707070">EC2</text>
<text text-anchor="start" x="38" y="-160.2" font-family="Helvetica,sans-Serif" font-size="16.00" fill="#383838">web&#45;iam</text>
</g>
<!-- EC2::web&#45;iam&#45;&gt;KeyPair::kp -->
<g id="edge8" class="edge">
<title>EC2::web&#45;iam&#45;&gt;KeyPair::kp</title>
<path fill="none" stroke="#707070" d="M110.76,-155.75C122.76,-149.98 135.88,-143.7 148,-138 158.37,-133.12 169.51,-127.94 180.14,-123.04"/>
<polygon fill="#707070" stroke="#707070" points="181.7,-126.17 189.31,-118.81 178.77,-119.81 181.7,-126.17"/>
</g>
<!-- EC2::web&#45;iam&#45;&gt;IamInstanceProfile::my&#45;profile -->
<g id="edge9" class="edge">
<title>EC2::web&#45;iam&#45;&gt;IamInstanceProfile::my&#45;profile</title>
<path fill="none" stroke="#707070" d="M110.59,-176C119.03,-176 128.23,-176 137.65,-176"/>
<polygon fill="#707070" stroke="#707070" points="137.93,-179.5 147.93,-176 137.93,-172.5 137.93,-179.5"/>
</g>
<!-- EC2::web&#45;iam&#45;&gt;Image::Amazon Linux 2 -->
<g id="edge7" class="edge">
<title>EC2::web&#45;iam&#45;&gt;Image::Amazon Linux 2</title>
<path fill="none" stroke="#707070" d="M110.76,-196.25C122.76,-202.02 135.88,-208.3 148,-214 151.16,-215.49 154.4,-217.01 157.67,-218.53"/>
<polygon fill="#707070" stroke="#707070" points="156.4,-221.8 166.94,-222.85 159.36,-215.46 156.4,-221.8"/>
</g>
</g>
</svg>
