<?xml version="1.0" encoding="UTF-8" standalone="no"?>
<!DOCTYPE svg PUBLIC "-//W3C//DTD SVG 1.1//EN"
 "http://www.w3.org/Graphics/SVG/1.1/DTD/svg11.dtd">
<!-- Generated by graphviz version 2.50.0 (20211204.2007)
 -->
<!-- Title: graphname Pages: 1 -->
<svg width="1361pt" height="473pt"
 viewBox="0.00 0.00 1361.00 473.20" xmlns="http://www.w3.org/2000/svg" xmlns:xlink="http://www.w3.org/1999/xlink">
<g id="graph0" class="graph" transform="scale(1 1) rotate(0) translate(4 469.2)">
<title>graphname</title>
<polygon fill="#fafafa" stroke="transparent" points="-4,4 -4,-469.2 1357,-469.2 1357,4 -4,4"/>
<text text-anchor="start" x="565.5" y="-440.6" font-family="Helvetica,sans-Serif" font-weight="bold" font-size="22.00" fill="#383838">Project load&#45;balancer</text>
<text text-anchor="start" x="673" y="-425" font-family="Helvetica,sans-Serif" font-size="14.00"> &#160;</text>
<text text-anchor="start" x="565.5" y="-403.4" font-family="Helvetica,sans-Serif" font-weight="bold" font-size="16.00" fill="#707070">Target Diagram</text>
<g id="clust1" class="cluster">
<title>cluster_azure</title>
<polygon fill="#f5f5f5" stroke="#f5f5f5" points="8,-8 8,-357 1345,-357 1345,-8 8,-8"/>
<text text-anchor="start" x="607.5" y="-23" font-family="Helvetica,sans-Serif" font-weight="bold" font-size="20.00" fill="#707070">Provider azure</text>
</g>
<g id="clust2" class="cluster">
<title>cluster_azure_</title>
<polygon fill="#eeeeee" stroke="#eeeeee" points="16,-54 16,-349 1337,-349 1337,-54 16,-54"/>
<text text-anchor="start" x="676.36" y="-58.3" font-family="Helvetica,sans-Serif" font-size="1.00" fill="#383838"> </text>
</g>
<!-- SshPublicKey::rg&#45;load&#45;balancer::vm_key -->
<g id="node1" class="node">
<title>SshPublicKey::rg&#45;load&#45;balancer::vm_key</title>
<polygon fill="#e5e5e5" stroke="#dddddd" points="864,-129 656,-129 656,-71 864,-71 864,-129"/>
<text text-anchor="start" x="668" y="-109.2" font-family="Helvetica,sans-Serif" font-weight="bold" font-size="16.00" fill="#707070">SshPublicKey</text>
<text text-anchor="start" x="668" y="-84.2" font-family="Helvetica,sans-Serif" font-size="16.00" fill="#383838">rg&#45;load&#45;balancer::vm_key</text>
</g>
<!-- ResourceGroup::rg&#45;load&#45;balancer -->
<g id="node9" class="node">
<title>ResourceGroup::rg&#45;load&#45;balancer</title>
<polygon fill="#e5e5e5" stroke="#dddddd" points="1329,-243 1184,-243 1184,-185 1329,-185 1329,-243"/>
<text text-anchor="start" x="1196.5" y="-223.2" font-family="Helvetica,sans-Serif" font-weight="bold" font-size="16.00" fill="#707070">ResourceGroup</text>
<text text-anchor="start" x="1196.5" y="-198.2" font-family="Helvetica,sans-Serif" font-size="16.00" fill="#383838">rg&#45;load&#45;balancer</text>
</g>
<!-- SshPublicKey::rg&#45;load&#45;balancer::vm_key&#45;&gt;ResourceGroup::rg&#45;load&#45;balancer -->
<g id="edge1" class="edge">
<title>SshPublicKey::rg&#45;load&#45;balancer::vm_key&#45;&gt;ResourceGroup::rg&#45;load&#45;balancer</title>
<path fill="none" stroke="#707070" d="M864.16,-77.47C944.87,-64.92 1058.1,-58.75 1148,-98 1184.44,-113.91 1214.06,-148.95 1232.91,-176.37"/>
<polygon fill="#707070" stroke="#707070" points="1230.18,-178.6 1238.64,-184.98 1236.01,-174.72 1230.18,-178.6"/>
</g>
<!-- VirtualMachineScaleSet::rg&#45;load&#45;balancer::vm&#45;scale&#45;set -->
<g id="node2" class="node">
<title>VirtualMachineScaleSet::rg&#45;load&#45;balancer::vm&#45;scale&#45;set</title>
<polygon fill="#e5e5e5" stroke="#dddddd" points="268,-277 24,-277 24,-219 268,-219 268,-277"/>
<text text-anchor="start" x="36" y="-257.2" font-family="Helvetica,sans-Serif" font-weight="bold" font-size="16.00" fill="#707070">VirtualMachineScaleSet</text>
<text text-anchor="start" x="36" y="-232.2" font-family="Helvetica,sans-Serif" font-size="16.00" fill="#383838">rg&#45;load&#45;balancer::vm&#45;scale&#45;set</text>
</g>
<!-- VirtualMachineScaleSet::rg&#45;load&#45;balancer::vm&#45;scale&#45;set&#45;&gt;SshPublicKey::rg&#45;load&#45;balancer::vm_key -->
<g id="edge4" class="edge">
<title>VirtualMachineScaleSet::rg&#45;load&#45;balancer::vm&#45;scale&#45;set&#45;&gt;SshPublicKey::rg&#45;load&#45;balancer::vm_key</title>
<path fill="none" stroke="#707070" d="M176.16,-218.98C205.63,-191.7 253.87,-152.37 304,-134 415.05,-93.3 551.34,-88.51 645.65,-91.59"/>
<polygon fill="#707070" stroke="#707070" points="645.67,-95.09 655.79,-91.95 645.92,-88.09 645.67,-95.09"/>
</g>
<!-- LoadBalancerBackendAddressPool::rg&#45;load&#45;balancer::load&#45;balancer::backend&#45;pool -->
<g id="node4" class="node">
<title>LoadBalancerBackendAddressPool::rg&#45;load&#45;balancer::load&#45;balancer::backend&#45;pool</title>
<polygon fill="#e5e5e5" stroke="#dddddd" points="599,-201 304,-201 304,-143 599,-143 599,-201"/>
<text text-anchor="start" x="316.5" y="-181.2" font-family="Helvetica,sans-Serif" font-weight="bold" font-size="16.00" fill="#707070">LoadBalancerBackendAddressPool</text>
<text text-anchor="start" x="316.5" y="-156.2" font-family="Helvetica,sans-Serif" font-size="16.00" fill="#383838">rg&#45;load&#45;balancer::load&#45;balancer:...</text>
</g>
<!-- VirtualMachineScaleSet::rg&#45;load&#45;balancer::vm&#45;scale&#45;set&#45;&gt;LoadBalancerBackendAddressPool::rg&#45;load&#45;balancer::load&#45;balancer::backend&#45;pool -->
<g id="edge6" class="edge">
<title>VirtualMachineScaleSet::rg&#45;load&#45;balancer::vm&#45;scale&#45;set&#45;&gt;LoadBalancerBackendAddressPool::rg&#45;load&#45;balancer::load&#45;balancer::backend&#45;pool</title>
<path fill="none" stroke="#707070" d="M263.04,-218.94C283.17,-213.9 304.2,-208.64 324.58,-203.53"/>
<polygon fill="#707070" stroke="#707070" points="325.67,-206.87 334.52,-201.04 323.97,-200.08 325.67,-206.87"/>
</g>
<!-- NetworkSecurityGroup::rg&#45;load&#45;balancer::basicnsgvnet&#45;nic01 -->
<g id="node5" class="node">
<title>NetworkSecurityGroup::rg&#45;load&#45;balancer::basicnsgvnet&#45;nic01</title>
<polygon fill="#e5e5e5" stroke="#dddddd" points="588.5,-277 314.5,-277 314.5,-219 588.5,-219 588.5,-277"/>
<text text-anchor="start" x="326.5" y="-257.2" font-family="Helvetica,sans-Serif" font-weight="bold" font-size="16.00" fill="#707070">NetworkSecurityGroup</text>
<text text-anchor="start" x="326.5" y="-232.2" font-family="Helvetica,sans-Serif" font-size="16.00" fill="#383838">rg&#45;load&#45;balancer::basicnsgvnet&#45;n...</text>
</g>
<!-- VirtualMachineScaleSet::rg&#45;load&#45;balancer::vm&#45;scale&#45;set&#45;&gt;NetworkSecurityGroup::rg&#45;load&#45;balancer::basicnsgvnet&#45;nic01 -->
<g id="edge5" class="edge">
<title>VirtualMachineScaleSet::rg&#45;load&#45;balancer::vm&#45;scale&#45;set&#45;&gt;NetworkSecurityGroup::rg&#45;load&#45;balancer::basicnsgvnet&#45;nic01</title>
<path fill="none" stroke="#707070" d="M268.26,-248C280.13,-248 292.25,-248 304.33,-248"/>
<polygon fill="#707070" stroke="#707070" points="304.46,-251.5 314.46,-248 304.46,-244.5 304.46,-251.5"/>
</g>
<!-- Subnet::rg&#45;load&#45;balancer::vnet::default -->
<g id="node7" class="node">
<title>Subnet::rg&#45;load&#45;balancer::vnet::default</title>
<polygon fill="#e5e5e5" stroke="#dddddd" points="880,-321 640,-321 640,-263 880,-263 880,-321"/>
<text text-anchor="start" x="652" y="-301.2" font-family="Helvetica,sans-Serif" font-weight="bold" font-size="16.00" fill="#707070">Subnet</text>
<text text-anchor="start" x="652" y="-276.2" font-family="Helvetica,sans-Serif" font-size="16.00" fill="#383838">rg&#45;load&#45;balancer::vnet::default</text>
</g>
<!-- VirtualMachineScaleSet::rg&#45;load&#45;balancer::vm&#45;scale&#45;set&#45;&gt;Subnet::rg&#45;load&#45;balancer::vnet::default -->
<g id="edge3" class="edge">
<title>VirtualMachineScaleSet::rg&#45;load&#45;balancer::vm&#45;scale&#45;set&#45;&gt;Subnet::rg&#45;load&#45;balancer::vnet::default</title>
<path fill="none" stroke="#707070" d="M252.81,-277.02C269.81,-280.69 287.31,-283.9 304,-286 413.17,-299.75 538.23,-300.32 629.57,-297.97"/>
<polygon fill="#707070" stroke="#707070" points="629.8,-301.47 639.7,-297.7 629.61,-294.47 629.8,-301.47"/>
</g>
<!-- VirtualMachineScaleSet::rg&#45;load&#45;balancer::vm&#45;scale&#45;set&#45;&gt;ResourceGroup::rg&#45;load&#45;balancer -->
<g id="edge2" class="edge">
<title>VirtualMachineScaleSet::rg&#45;load&#45;balancer::vm&#45;scale&#45;set&#45;&gt;ResourceGroup::rg&#45;load&#45;balancer</title>
<path fill="none" stroke="#707070" d="M222.56,-277.08C395.03,-338.64 827.55,-465.49 1148,-326 1183.23,-310.66 1212.56,-277.67 1231.64,-251.45"/>
<polygon fill="#707070" stroke="#707070" points="1234.55,-253.39 1237.47,-243.2 1228.84,-249.35 1234.55,-253.39"/>
</g>
<!-- LoadBalancer::rg&#45;load&#45;balancer::load&#45;balancer -->
<g id="node3" class="node">
<title>LoadBalancer::rg&#45;load&#45;balancer::load&#45;balancer</title>
<polygon fill="#e5e5e5" stroke="#dddddd" points="885,-205 635,-205 635,-147 885,-147 885,-205"/>
<text text-anchor="start" x="647" y="-185.2" font-family="Helvetica,sans-Serif" font-weight="bold" font-size="16.00" fill="#707070">LoadBalancer</text>
<text text-anchor="start" x="647" y="-160.2" font-family="Helvetica,sans-Serif" font-size="16.00" fill="#383838">rg&#45;load&#45;balancer::load&#45;balancer</text>
</g>
<!-- PublicIPAddress::rg&#45;load&#45;balancer::ip&#45;address -->
<g id="node6" class="node">
<title>PublicIPAddress::rg&#45;load&#45;balancer::ip&#45;address</title>
<polygon fill="#e5e5e5" stroke="#dddddd" points="1148,-165 921,-165 921,-107 1148,-107 1148,-165"/>
<text text-anchor="start" x="933.5" y="-145.2" font-family="Helvetica,sans-Serif" font-weight="bold" font-size="16.00" fill="#707070">PublicIPAddress</text>
<text text-anchor="start" x="933.5" y="-120.2" font-family="Helvetica,sans-Serif" font-size="16.00" fill="#383838">rg&#45;load&#45;balancer::ip&#45;address</text>
</g>
<!-- LoadBalancer::rg&#45;load&#45;balancer::load&#45;balancer&#45;&gt;PublicIPAddress::rg&#45;load&#45;balancer::ip&#45;address -->
<g id="edge8" class="edge">
<title>LoadBalancer::rg&#45;load&#45;balancer::load&#45;balancer&#45;&gt;PublicIPAddress::rg&#45;load&#45;balancer::ip&#45;address</title>
<path fill="none" stroke="#707070" d="M885.29,-157.76C893.76,-156.51 902.3,-155.26 910.77,-154.02"/>
<polygon fill="#707070" stroke="#707070" points="911.28,-157.48 920.67,-152.56 910.26,-150.55 911.28,-157.48"/>
</g>
<!-- LoadBalancer::rg&#45;load&#45;balancer::load&#45;balancer&#45;&gt;ResourceGroup::rg&#45;load&#45;balancer -->
<g id="edge7" class="edge">
<title>LoadBalancer::rg&#45;load&#45;balancer::load&#45;balancer&#45;&gt;ResourceGroup::rg&#45;load&#45;balancer</title>
<path fill="none" stroke="#707070" d="M885.38,-180.88C961.36,-184.49 1060.43,-190.3 1148,-199 1156.36,-199.83 1165.06,-200.83 1173.74,-201.9"/>
<polygon fill="#707070" stroke="#707070" points="1173.53,-205.41 1183.89,-203.2 1174.42,-198.46 1173.53,-205.41"/>
</g>
<!-- LoadBalancerBackendAddressPool::rg&#45;load&#45;balancer::load&#45;balancer::backend&#45;pool&#45;&gt;LoadBalancer::rg&#45;load&#45;balancer::load&#45;balancer -->
<g id="edge10" class="edge">
<title>LoadBalancerBackendAddressPool::rg&#45;load&#45;balancer::load&#45;balancer::backend&#45;pool&#45;&gt;LoadBalancer::rg&#45;load&#45;balancer::load&#45;balancer</title>
<path fill="none" stroke="#707070" d="M599.02,-173.91C607.65,-174.02 616.3,-174.14 624.88,-174.25"/>
<polygon fill="#707070" stroke="#707070" points="624.86,-177.75 634.9,-174.38 624.95,-170.75 624.86,-177.75"/>
</g>
<!-- LoadBalancerBackendAddressPool::rg&#45;load&#45;balancer::load&#45;balancer::backend&#45;pool&#45;&gt;ResourceGroup::rg&#45;load&#45;balancer -->
<g id="edge9" class="edge">
<title>LoadBalancerBackendAddressPool::rg&#45;load&#45;balancer::load&#45;balancer::backend&#45;pool&#45;&gt;ResourceGroup::rg&#45;load&#45;balancer</title>
<path fill="none" stroke="#707070" d="M560.37,-201.06C584.73,-206.44 610.61,-211.23 635,-214 648.17,-215.5 1008.07,-214.69 1173.61,-214.24"/>
<polygon fill="#707070" stroke="#707070" points="1173.76,-217.74 1183.75,-214.21 1173.74,-210.74 1173.76,-217.74"/>
</g>
<!-- NetworkSecurityGroup::rg&#45;load&#45;balancer::basicnsgvnet&#45;nic01&#45;&gt;ResourceGroup::rg&#45;load&#45;balancer -->
<g id="edge11" class="edge">
<title>NetworkSecurityGroup::rg&#45;load&#45;balancer::basicnsgvnet&#45;nic01&#45;&gt;ResourceGroup::rg&#45;load&#45;balancer</title>
<path fill="none" stroke="#707070" d="M588.72,-242.23C756.46,-235.13 1036.01,-223.29 1173.73,-217.46"/>
<polygon fill="#707070" stroke="#707070" points="1173.95,-220.96 1183.79,-217.04 1173.65,-213.96 1173.95,-220.96"/>
</g>
<!-- PublicIPAddress::rg&#45;load&#45;balancer::ip&#45;address&#45;&gt;ResourceGroup::rg&#45;load&#45;balancer -->
<g id="edge12" class="edge">
<title>PublicIPAddress::rg&#45;load&#45;balancer::ip&#45;address&#45;&gt;ResourceGroup::rg&#45;load&#45;balancer</title>
<path fill="none" stroke="#707070" d="M1117.42,-165.04C1135.94,-171.61 1155.59,-178.58 1174.09,-185.14"/>
<polygon fill="#707070" stroke="#707070" points="1173.05,-188.48 1183.64,-188.52 1175.39,-181.88 1173.05,-188.48"/>
</g>
<!-- VirtualNetwork::rg&#45;load&#45;balancer::vnet -->
<g id="node8" class="node">
<title>VirtualNetwork::rg&#45;load&#45;balancer::vnet</title>
<polygon fill="#e5e5e5" stroke="#dddddd" points="1125.5,-301 943.5,-301 943.5,-243 1125.5,-243 1125.5,-301"/>
<text text-anchor="start" x="955.5" y="-281.2" font-family="Helvetica,sans-Serif" font-weight="bold" font-size="16.00" fill="#707070">VirtualNetwork</text>
<text text-anchor="start" x="955.5" y="-256.2" font-family="Helvetica,sans-Serif" font-size="16.00" fill="#383838">rg&#45;load&#45;balancer::vnet</text>
</g>
<!-- Subnet::rg&#45;load&#45;balancer::vnet::default&#45;&gt;VirtualNetwork::rg&#45;load&#45;balancer::vnet -->
<g id="edge14" class="edge">
<title>Subnet::rg&#45;load&#45;balancer::vnet::default&#45;&gt;VirtualNetwork::rg&#45;load&#45;balancer::vnet</title>
<path fill="none" stroke="#707070" d="M880.13,-283.26C897.84,-281.96 915.96,-280.63 933.23,-279.36"/>
<polygon fill="#707070" stroke="#707070" points="933.59,-282.84 943.3,-278.62 933.07,-275.86 933.59,-282.84"/>
</g>
<!-- Subnet::rg&#45;load&#45;balancer::vnet::default&#45;&gt;ResourceGroup::rg&#45;load&#45;balancer -->
<g id="edge13" class="edge">
<title>Subnet::rg&#45;load&#45;balancer::vnet::default&#45;&gt;ResourceGroup::rg&#45;load&#45;balancer</title>
<path fill="none" stroke="#707070" d="M876.59,-321.04C955.6,-335.27 1061.28,-343.09 1148,-310 1179.02,-298.16 1206.77,-272.8 1226.3,-251.12"/>
<polygon fill="#707070" stroke="#707070" points="1229.17,-253.16 1233.11,-243.33 1223.9,-248.55 1229.17,-253.16"/>
</g>
<!-- VirtualNetwork::rg&#45;load&#45;balancer::vnet&#45;&gt;ResourceGroup::rg&#45;load&#45;balancer -->
<g id="edge15" class="edge">
<title>VirtualNetwork::rg&#45;load&#45;balancer::vnet&#45;&gt;ResourceGroup::rg&#45;load&#45;balancer</title>
<path fill="none" stroke="#707070" d="M1125.62,-248.24C1141.63,-244.02 1158.23,-239.64 1174,-235.49"/>
<polygon fill="#707070" stroke="#707070" points="1174.91,-238.87 1183.69,-232.93 1173.13,-232.1 1174.91,-238.87"/>
</g>
</g>
</svg>
