<?xml version="1.0" encoding="UTF-8" standalone="no"?>
<!DOCTYPE svg PUBLIC "-//W3C//DTD SVG 1.1//EN"
 "http://www.w3.org/Graphics/SVG/1.1/DTD/svg11.dtd">
<!-- Generated by graphviz version 7.1.0 (20230121.1956)
 -->
<!-- Title: graphname Pages: 1 -->
<svg width="1130pt" height="277pt"
 viewBox="0.00 0.00 1130.00 277.00" xmlns="http://www.w3.org/2000/svg" xmlns:xlink="http://www.w3.org/1999/xlink">
<g id="graph0" class="graph" transform="scale(1 1) rotate(0) translate(4 273)">
<title>graphname</title>
<polygon fill="#fafafa" stroke="none" points="-4,4 -4,-273 1126,-273 1126,4 -4,4"/>
<text text-anchor="start" x="388" y="-244.4" font-family="Helvetica,sans-Serif" font-weight="bold" font-size="22.00" fill="#383838">Project lambda&#45;aurora&#45;serverless</text>
<text text-anchor="start" x="557" y="-228.8" font-family="Helvetica,sans-Serif" font-size="14.00"> &#160;</text>
<text text-anchor="start" x="388" y="-207.2" font-family="Helvetica,sans-Serif" font-weight="bold" font-size="16.00" fill="#707070">Target Diagram</text>
<g id="clust1" class="cluster">
<title>cluster_aws</title>
<polygon fill="#f5f5f5" stroke="#f5f5f5" points="8,-8 8,-185 1114,-185 1114,-8 8,-8"/>
<text text-anchor="start" x="499" y="-23" font-family="Helvetica,sans-Serif" font-weight="bold" font-size="20.00" fill="#707070">Provider aws</text>
</g>
<g id="clust2" class="cluster">
<title>cluster_aws_</title>
<polygon fill="#eeeeee" stroke="#eeeeee" points="16,-54 16,-177 1106,-177 1106,-54 16,-54"/>
<text text-anchor="start" x="560.86" y="-58.3" font-family="Helvetica,sans-Serif" font-size="1.00" fill="#383838"> </text>
</g>
<!-- Role::sam&#45;app&#45;LambdaFunctionRole&#45;1H8HS58WE9MGP -->
<g id="node1" class="node">
<title>Role::sam&#45;app&#45;LambdaFunctionRole&#45;1H8HS58WE9MGP</title>
<polygon fill="#e5e5e5" stroke="#dddddd" points="594,-129 278,-129 278,-71 594,-71 594,-129"/>
<text text-anchor="start" x="290" y="-109.2" font-family="Helvetica,sans-Serif" font-weight="bold" font-size="16.00" fill="#707070">IAM::Role</text>
<text text-anchor="start" x="290" y="-84.2" font-family="Helvetica,sans-Serif" font-size="16.00" fill="#383838">sam&#45;app&#45;LambdaFunctionRole&#45;1H8HS...</text>
</g>
<!-- DBCluster::aurora&#45;test&#45;cluster -->
<g id="node3" class="node">
<title>DBCluster::aurora&#45;test&#45;cluster</title>
<polygon fill="#e5e5e5" stroke="#dddddd" points="786,-149 630,-149 630,-91 786,-91 786,-149"/>
<text text-anchor="start" x="642" y="-129.2" font-family="Helvetica,sans-Serif" font-weight="bold" font-size="16.00" fill="#707070">RDS::DBCluster</text>
<text text-anchor="start" x="642" y="-104.2" font-family="Helvetica,sans-Serif" font-size="16.00" fill="#383838">aurora&#45;test&#45;cluster</text>
</g>
<!-- Role::sam&#45;app&#45;LambdaFunctionRole&#45;1H8HS58WE9MGP&#45;&gt;DBCluster::aurora&#45;test&#45;cluster -->
<g id="edge1" class="edge">
<title>Role::sam&#45;app&#45;LambdaFunctionRole&#45;1H8HS58WE9MGP&#45;&gt;DBCluster::aurora&#45;test&#45;cluster</title>
<path fill="none" stroke="#707070" d="M594.45,-111.66C602.61,-112.27 610.66,-112.86 618.48,-113.44"/>
<polygon fill="#707070" stroke="#707070" points="618,-116.92 628.23,-114.17 618.52,-109.94 618,-116.92"/>
</g>
<!-- Secret::aurora&#45;test&#45;cluster&#45;AuroraUserSecret -->
<g id="node4" class="node">
<title>Secret::aurora&#45;test&#45;cluster&#45;AuroraUserSecret</title>
<polygon fill="#e5e5e5" stroke="#dddddd" points="1098,-149 822,-149 822,-91 1098,-91 1098,-149"/>
<text text-anchor="start" x="834" y="-129.2" font-family="Helvetica,sans-Serif" font-weight="bold" font-size="16.00" fill="#707070">SecretsManager::Secret</text>
<text text-anchor="start" x="834" y="-104.2" font-family="Helvetica,sans-Serif" font-size="16.00" fill="#383838">aurora&#45;test&#45;cluster&#45;AuroraUserSe...</text>
</g>
<!-- Role::sam&#45;app&#45;LambdaFunctionRole&#45;1H8HS58WE9MGP&#45;&gt;Secret::aurora&#45;test&#45;cluster&#45;AuroraUserSecret -->
<g id="edge2" class="edge">
<title>Role::sam&#45;app&#45;LambdaFunctionRole&#45;1H8HS58WE9MGP&#45;&gt;Secret::aurora&#45;test&#45;cluster&#45;AuroraUserSecret</title>
<path fill="none" stroke="#707070" d="M594.09,-81.27C654.24,-76.88 723.42,-75.21 786,-82 800.25,-83.55 815.05,-85.79 829.72,-88.43"/>
<polygon fill="#707070" stroke="#707070" points="828.95,-91.84 839.42,-90.23 830.23,-84.96 828.95,-91.84"/>
</g>
<!-- Function::aurora&#45;test&#45;cluster&#45;function -->
<g id="node2" class="node">
<title>Function::aurora&#45;test&#45;cluster&#45;function</title>
<polygon fill="#e5e5e5" stroke="#dddddd" points="242,-169 24,-169 24,-111 242,-111 242,-169"/>
<text text-anchor="start" x="36" y="-149.2" font-family="Helvetica,sans-Serif" font-weight="bold" font-size="16.00" fill="#707070">Lambda::Function</text>
<text text-anchor="start" x="36" y="-124.2" font-family="Helvetica,sans-Serif" font-size="16.00" fill="#383838">aurora&#45;test&#45;cluster&#45;function</text>
</g>
<!-- Function::aurora&#45;test&#45;cluster&#45;function&#45;&gt;Role::sam&#45;app&#45;LambdaFunctionRole&#45;1H8HS58WE9MGP -->
<g id="edge3" class="edge">
<title>Function::aurora&#45;test&#45;cluster&#45;function&#45;&gt;Role::sam&#45;app&#45;LambdaFunctionRole&#45;1H8HS58WE9MGP</title>
<path fill="none" stroke="#707070" d="M242.24,-125.62C250.18,-124.56 258.29,-123.48 266.47,-122.4"/>
<polygon fill="#707070" stroke="#707070" points="266.71,-125.9 276.16,-121.11 265.78,-118.96 266.71,-125.9"/>
</g>
<!-- Function::aurora&#45;test&#45;cluster&#45;function&#45;&gt;DBCluster::aurora&#45;test&#45;cluster -->
<g id="edge4" class="edge">
<title>Function::aurora&#45;test&#45;cluster&#45;function&#45;&gt;DBCluster::aurora&#45;test&#45;cluster</title>
<path fill="none" stroke="#707070" d="M242.48,-144.21C335.82,-146.72 474,-147.76 594,-138 601.96,-137.35 610.21,-136.46 618.46,-135.43"/>
<polygon fill="#707070" stroke="#707070" points="618.74,-138.92 628.19,-134.13 617.81,-131.98 618.74,-138.92"/>
</g>
<!-- Function::aurora&#45;test&#45;cluster&#45;function&#45;&gt;Secret::aurora&#45;test&#45;cluster&#45;AuroraUserSecret -->
<g id="edge5" class="edge">
<title>Function::aurora&#45;test&#45;cluster&#45;function&#45;&gt;Secret::aurora&#45;test&#45;cluster&#45;AuroraUserSecret</title>
<path fill="none" stroke="#707070" d="M242.23,-151.92C371.88,-164.15 595.46,-178.68 786,-158 800.25,-156.45 815.05,-154.21 829.72,-151.57"/>
<polygon fill="#707070" stroke="#707070" points="830.23,-155.04 839.42,-149.77 828.95,-148.16 830.23,-155.04"/>
</g>
<!-- DBCluster::aurora&#45;test&#45;cluster&#45;&gt;Secret::aurora&#45;test&#45;cluster&#45;AuroraUserSecret -->
<g id="edge6" class="edge">
<title>DBCluster::aurora&#45;test&#45;cluster&#45;&gt;Secret::aurora&#45;test&#45;cluster&#45;AuroraUserSecret</title>
<path fill="none" stroke="#707070" d="M786.39,-120C794.18,-120 802.26,-120 810.48,-120"/>
<polygon fill="#707070" stroke="#707070" points="810.24,-123.5 820.24,-120 810.24,-116.5 810.24,-123.5"/>
</g>
</g>
</svg>
