<?xml version="1.0" encoding="UTF-8" standalone="no"?>
<!DOCTYPE svg PUBLIC "-//W3C//DTD SVG 1.1//EN"
 "http://www.w3.org/Graphics/SVG/1.1/DTD/svg11.dtd">
<!-- Generated by graphviz version 6.0.0 (20220910.1538)
 -->
<!-- Title: graphname Pages: 1 -->
<svg width="1130pt" height="277pt"
 viewBox="0.00 0.00 1130.00 277.00" xmlns="http://www.w3.org/2000/svg" xmlns:xlink="http://www.w3.org/1999/xlink">
<g id="graph0" class="graph" transform="scale(1 1) rotate(0) translate(4 273)">
<title>graphname</title>
<polygon fill="#fafafa" stroke="none" points="-4,4 -4,-273 1126,-273 1126,4 -4,4"/>
<text text-anchor="start" x="388" y="-244.4" font-family="Helvetica,sans-Serif" font-weight="bold" font-size="22.00" fill="#383838">Project lambda&#45;aurora&#45;serverless</text>
<text text-anchor="start" x="557" y="-228.8" font-family="Helvetica,sans-Serif" font-size="14.00"> &#160;</text>
<text text-anchor="start" x="388" y="-207.2" font-family="Helvetica,sans-Serif" font-weight="bold" font-size="16.00" fill="#707070">Target Diagram</text>
<g id="clust1" class="cluster">
<title>cluster_aws</title>
<polygon fill="#f5f5f5" stroke="#f5f5f5" points="8,-8 8,-185 1114,-185 1114,-8 8,-8"/>
<text text-anchor="start" x="499" y="-23" font-family="Helvetica,sans-Serif" font-weight="bold" font-size="20.00" fill="#707070">Provider aws</text>
</g>
<g id="clust2" class="cluster">
<title>cluster_aws_</title>
<polygon fill="#eeeeee" stroke="#eeeeee" points="16,-54 16,-177 1106,-177 1106,-54 16,-54"/>
<text text-anchor="start" x="560.86" y="-58.3" font-family="Helvetica,sans-Serif" font-size="1.00" fill="#383838"> </text>
</g>
<!-- Role::sam&#45;app&#45;LambdaFunctionRole&#45;1H8HS58WE9MGP -->
<g id="node1" class="node">
<title>Role::sam&#45;app&#45;LambdaFunctionRole&#45;1H8HS58WE9MGP</title>
<polygon fill="#e5e5e5" stroke="#dddddd" points="594,-129 278,-129 278,-71 594,-71 594,-129"/>
<text text-anchor="start" x="290" y="-109.2" font-family="Helvetica,sans-Serif" font-weight="bold" font-size="16.00" fill="#707070">IAM::Role</text>
<text text-anchor="start" x="290" y="-84.2" font-family="Helvetica,sans-Serif" font-size="16.00" fill="#383838">sam&#45;app&#45;LambdaFunctionRole&#45;1H8HS...</text>
</g>
<!-- DBCluster::aurora&#45;test&#45;cluster -->
<g id="node3" class="node">
<title>DBCluster::aurora&#45;test&#45;cluster</title>
<polygon fill="#e5e5e5" stroke="#dddddd" points="786,-149 630,-149 630,-91 786,-91 786,-149"/>
<text text-anchor="start" x="642" y="-129.2" font-family="Helvetica,sans-Serif" font-weight="bold" font-size="16.00" fill="#707070">RDS::DBCluster</text>
<text text-anchor="start" x="642" y="-104.2" font-family="Helvetica,sans-Serif" font-size="16.00" fill="#383838">aurora&#45;test&#45;cluster</text>
</g>
<!-- Role::sam&#45;app&#45;LambdaFunctionRole&#45;1H8HS58WE9MGP&#45;&gt;DBCluster::aurora&#45;test&#45;cluster -->
<g id="edge1" class="edge">
<title>Role::sam&#45;app&#45;LambdaFunctionRole&#45;1H8HS58WE9MGP&#45;&gt;DBCluster::aurora&#45;test&#45;cluster</title>
<path fill="none" stroke="#707070" d="M594.06,-111.63C602.8,-112.28 611.42,-112.92 619.76,-113.54"/>
<polygon fill="#707070" stroke="#707070" points="619.54,-117.03 629.78,-114.28 620.06,-110.05 619.54,-117.03"/>
</g>
<!-- Secret::aurora&#45;test&#45;cluster&#45;AuroraUserSecret -->
<g id="node4" class="node">
<title>Secret::aurora&#45;test&#45;cluster&#45;AuroraUserSecret</title>
<polygon fill="#e5e5e5" stroke="#dddddd" points="1098,-149 822,-149 822,-91 1098,-91 1098,-149"/>
<text text-anchor="start" x="834" y="-129.2" font-family="Helvetica,sans-Serif" font-weight="bold" font-size="16.00" fill="#707070">SecretsManager::Secret</text>
<text text-anchor="start" x="834" y="-104.2" font-family="Helvetica,sans-Serif" font-size="16.00" fill="#383838">aurora&#45;test&#45;cluster&#45;AuroraUserSe...</text>
</g>
<!-- Role::sam&#45;app&#45;LambdaFunctionRole&#45;1H8HS58WE9MGP&#45;&gt;Secret::aurora&#45;test&#45;cluster&#45;AuroraUserSecret -->
<g id="edge2" class="edge">
<title>Role::sam&#45;app&#45;LambdaFunctionRole&#45;1H8HS58WE9MGP&#45;&gt;Secret::aurora&#45;test&#45;cluster&#45;AuroraUserSecret</title>
<path fill="none" stroke="#707070" d="M594.09,-81.27C654.24,-76.88 723.42,-75.21 786,-82 801.44,-83.68 817.53,-86.17 833.4,-89.09"/>
<polygon fill="#707070" stroke="#707070" points="832.77,-92.54 843.25,-90.97 834.08,-85.66 832.77,-92.54"/>
</g>
<!-- Function::aurora&#45;test&#45;cluster&#45;function -->
<g id="node2" class="node">
<title>Function::aurora&#45;test&#45;cluster&#45;function</title>
<polygon fill="#e5e5e5" stroke="#dddddd" points="242,-169 24,-169 24,-111 242,-111 242,-169"/>
<text text-anchor="start" x="36" y="-149.2" font-family="Helvetica,sans-Serif" font-weight="bold" font-size="16.00" fill="#707070">Lambda::Function</text>
<text text-anchor="start" x="36" y="-124.2" font-family="Helvetica,sans-Serif" font-size="16.00" fill="#383838">aurora&#45;test&#45;cluster&#45;function</text>
</g>
<!-- Function::aurora&#45;test&#45;cluster&#45;function&#45;&gt;Role::sam&#45;app&#45;LambdaFunctionRole&#45;1H8HS58WE9MGP -->
<g id="edge3" class="edge">
<title>Function::aurora&#45;test&#45;cluster&#45;function&#45;&gt;Role::sam&#45;app&#45;LambdaFunctionRole&#45;1H8HS58WE9MGP</title>
<path fill="none" stroke="#707070" d="M242.24,-125.62C250.6,-124.5 259.15,-123.37 267.77,-122.22"/>
<polygon fill="#707070" stroke="#707070" points="268.47,-125.66 277.92,-120.87 267.55,-118.72 268.47,-125.66"/>
</g>
<!-- Function::aurora&#45;test&#45;cluster&#45;function&#45;&gt;DBCluster::aurora&#45;test&#45;cluster -->
<g id="edge4" class="edge">
<title>Function::aurora&#45;test&#45;cluster&#45;function&#45;&gt;DBCluster::aurora&#45;test&#45;cluster</title>
<path fill="none" stroke="#707070" d="M242.01,-144.2C335.36,-146.72 473.81,-147.78 594,-138 602.4,-137.32 611.11,-136.37 619.81,-135.26"/>
<polygon fill="#707070" stroke="#707070" points="620.55,-138.69 629.99,-133.88 619.62,-131.75 620.55,-138.69"/>
</g>
<!-- Function::aurora&#45;test&#45;cluster&#45;function&#45;&gt;Secret::aurora&#45;test&#45;cluster&#45;AuroraUserSecret -->
<g id="edge5" class="edge">
<title>Function::aurora&#45;test&#45;cluster&#45;function&#45;&gt;Secret::aurora&#45;test&#45;cluster&#45;AuroraUserSecret</title>
<path fill="none" stroke="#707070" d="M242.23,-151.92C371.88,-164.15 595.46,-178.68 786,-158 801.44,-156.32 817.53,-153.83 833.4,-150.91"/>
<polygon fill="#707070" stroke="#707070" points="834.08,-154.34 843.25,-149.03 832.77,-147.46 834.08,-154.34"/>
</g>
<!-- DBCluster::aurora&#45;test&#45;cluster&#45;&gt;Secret::aurora&#45;test&#45;cluster&#45;AuroraUserSecret -->
<g id="edge6" class="edge">
<title>DBCluster::aurora&#45;test&#45;cluster&#45;&gt;Secret::aurora&#45;test&#45;cluster&#45;AuroraUserSecret</title>
<path fill="none" stroke="#707070" d="M786.05,-120C794.39,-120 803.06,-120 811.89,-120"/>
<polygon fill="#707070" stroke="#707070" points="811.91,-123.5 821.91,-120 811.91,-116.5 811.91,-123.5"/>
</g>
</g>
</svg>
