<?xml version="1.0" encoding="UTF-8" standalone="no"?>
<!DOCTYPE svg PUBLIC "-//W3C//DTD SVG 1.1//EN"
 "http://www.w3.org/Graphics/SVG/1.1/DTD/svg11.dtd">
<!-- Generated by graphviz version 2.44.1 (20200629.0846)
 -->
<!-- Title: graphname Pages: 1 -->
<svg width="314pt" height="313pt"
 viewBox="0.00 0.00 314.00 313.00" xmlns="http://www.w3.org/2000/svg" xmlns:xlink="http://www.w3.org/1999/xlink">
<g id="graph0" class="graph" transform="scale(1 1) rotate(0) translate(4 309)">
<title>graphname</title>
<polygon fill="#fafafa" stroke="transparent" points="-4,4 -4,-309 310,-309 310,4 -4,4"/>
<text text-anchor="start" x="51" y="-280.4" font-family="Helvetica,sans-Serif" font-weight="bold" font-size="22.00" fill="#383838">Project iam&#45;binding</text>
<text text-anchor="start" x="149.5" y="-264.8" font-family="Helvetica,sans-Serif" font-size="14.00"> &#160;</text>
<text text-anchor="start" x="51" y="-243.2" font-family="Helvetica,sans-Serif" font-weight="bold" font-size="16.00" fill="#707070">Live Diagram</text>
<g id="clust1" class="cluster">
<title>cluster_google</title>
<polygon fill="#f5f5f5" stroke="#f5f5f5" points="8,-8 8,-221 298,-221 298,-8 8,-8"/>
<text text-anchor="start" x="78" y="-23" font-family="Helvetica,sans-Serif" font-weight="bold" font-size="20.00" fill="#707070">Provider google</text>
</g>
<g id="clust2" class="cluster">
<title>cluster_google_</title>
<polygon fill="#eeeeee" stroke="#eeeeee" points="16,-54 16,-213 290,-213 290,-54 16,-54"/>
<text text-anchor="start" x="152.86" y="-58.3" font-family="Helvetica,sans-Serif" font-size="1.00" fill="#383838"> </text>
</g>
<!-- Binding::::roles/firebasenotifications.viewer -->
<g id="node1" class="node">
<title>Binding::::roles/firebasenotifications.viewer</title>
<polygon fill="#e5e5e5" stroke="#dddddd" points="282,-205 24,-205 24,-147 282,-147 282,-205"/>
<text text-anchor="start" x="36" y="-185.2" font-family="Helvetica,sans-Serif" font-weight="bold" font-size="16.00" fill="#707070">Binding</text>
<text text-anchor="start" x="36" y="-160.2" font-family="Helvetica,sans-Serif" font-size="16.00" fill="#383838">roles/firebasenotifications.view...</text>
</g>
<!-- ServiceAccount::::sa&#45;dev -->
<g id="node2" class="node">
<title>ServiceAccount::::sa&#45;dev</title>
<polygon fill="#e5e5e5" stroke="#dddddd" points="225.5,-129 80.5,-129 80.5,-71 225.5,-71 225.5,-129"/>
<text text-anchor="start" x="93" y="-109.2" font-family="Helvetica,sans-Serif" font-weight="bold" font-size="16.00" fill="#707070">ServiceAccount</text>
<text text-anchor="start" x="93" y="-84.2" font-family="Helvetica,sans-Serif" font-size="16.00" fill="#383838">sa&#45;dev</text>
</g>
</g>
</svg>
