<?xml version="1.0" encoding="UTF-8" standalone="no"?>
<!DOCTYPE svg PUBLIC "-//W3C//DTD SVG 1.1//EN"
 "http://www.w3.org/Graphics/SVG/1.1/DTD/svg11.dtd">
<!-- Generated by graphviz version 7.1.0 (20230121.1956)
 -->
<!-- Title: graphname Pages: 1 -->
<svg width="1307pt" height="897pt"
 viewBox="0.00 0.00 1307.00 896.64" xmlns="http://www.w3.org/2000/svg" xmlns:xlink="http://www.w3.org/1999/xlink">
<g id="graph0" class="graph" transform="scale(1 1) rotate(0) translate(4 892.64)">
<title>graphname</title>
<polygon fill="#fafafa" stroke="none" points="-4,4 -4,-892.64 1303,-892.64 1303,4 -4,4"/>
<text text-anchor="start" x="559.5" y="-864.04" font-family="Helvetica,sans-Serif" font-weight="bold" font-size="22.00" fill="#383838">Project aurora&#45;v2</text>
<text text-anchor="start" x="645.5" y="-848.44" font-family="Helvetica,sans-Serif" font-size="14.00"> &#160;</text>
<text text-anchor="start" x="559.5" y="-826.84" font-family="Helvetica,sans-Serif" font-weight="bold" font-size="16.00" fill="#707070">Target Diagram</text>
<g id="clust1" class="cluster">
<title>cluster_aws</title>
<polygon fill="#f5f5f5" stroke="#f5f5f5" points="8,-8 8,-793 1291,-793 1291,-8 8,-8"/>
<text text-anchor="start" x="587.5" y="-23" font-family="Helvetica,sans-Serif" font-weight="bold" font-size="20.00" fill="#707070">Provider aws</text>
</g>
<g id="clust2" class="cluster">
<title>cluster_aws_</title>
<polygon fill="#eeeeee" stroke="#eeeeee" points="16,-54 16,-785 1283,-785 1283,-54 16,-54"/>
<text text-anchor="start" x="649.36" y="-58.3" font-family="Helvetica,sans-Serif" font-size="1.00" fill="#383838"> </text>
</g>
<!-- Vpc::pg&#45;vpc -->
<g id="node1" class="node">
<title>Vpc::pg&#45;vpc</title>
<polygon fill="#e5e5e5" stroke="#dddddd" points="1275,-509 1180,-509 1180,-451 1275,-451 1275,-509"/>
<text text-anchor="start" x="1192.5" y="-489.2" font-family="Helvetica,sans-Serif" font-weight="bold" font-size="16.00" fill="#707070">EC2::Vpc</text>
<text text-anchor="start" x="1192.5" y="-464.2" font-family="Helvetica,sans-Serif" font-size="16.00" fill="#383838">pg&#45;vpc</text>
</g>
<!-- InternetGateway::pg&#45;igw -->
<g id="node2" class="node">
<title>InternetGateway::pg&#45;igw</title>
<polygon fill="#e5e5e5" stroke="#dddddd" points="1100,-737 909,-737 909,-679 1100,-679 1100,-737"/>
<text text-anchor="start" x="921.5" y="-717.2" font-family="Helvetica,sans-Serif" font-weight="bold" font-size="16.00" fill="#707070">EC2::InternetGateway</text>
<text text-anchor="start" x="921.5" y="-692.2" font-family="Helvetica,sans-Serif" font-size="16.00" fill="#383838">pg&#45;igw</text>
</g>
<!-- InternetGatewayAttachment::ig&#45;attach::pg&#45;igw::pg&#45;vpc -->
<g id="node3" class="node">
<title>InternetGatewayAttachment::ig&#45;attach::pg&#45;igw::pg&#45;vpc</title>
<polygon fill="#e5e5e5" stroke="#dddddd" points="829,-701 550,-701 550,-643 829,-643 829,-701"/>
<text text-anchor="start" x="562.5" y="-681.2" font-family="Helvetica,sans-Serif" font-weight="bold" font-size="16.00" fill="#707070">EC2::InternetGatewayAttachment</text>
<text text-anchor="start" x="562.5" y="-656.2" font-family="Helvetica,sans-Serif" font-size="16.00" fill="#383838">ig&#45;attach::pg&#45;igw::pg&#45;vpc</text>
</g>
<!-- InternetGatewayAttachment::ig&#45;attach::pg&#45;igw::pg&#45;vpc&#45;&gt;Vpc::pg&#45;vpc -->
<g id="edge1" class="edge">
<title>InternetGatewayAttachment::ig&#45;attach::pg&#45;igw::pg&#45;vpc&#45;&gt;Vpc::pg&#45;vpc</title>
<path fill="none" stroke="#707070" d="M812.48,-701.49C818.18,-704.1 823.72,-706.93 829,-710 848.56,-721.37 844.09,-737.34 865,-746 922.28,-769.73 1094.09,-782.78 1144,-746 1180.61,-719.02 1207.97,-588.06 1219.9,-520.5"/>
<polygon fill="#707070" stroke="#707070" points="1223.3,-521.39 1221.55,-510.94 1216.4,-520.19 1223.3,-521.39"/>
</g>
<!-- InternetGatewayAttachment::ig&#45;attach::pg&#45;igw::pg&#45;vpc&#45;&gt;InternetGateway::pg&#45;igw -->
<g id="edge2" class="edge">
<title>InternetGatewayAttachment::ig&#45;attach::pg&#45;igw::pg&#45;vpc&#45;&gt;InternetGateway::pg&#45;igw</title>
<path fill="none" stroke="#707070" d="M829.15,-687.95C851.99,-690.57 875.34,-693.26 897.22,-695.78"/>
<polygon fill="#707070" stroke="#707070" points="896.69,-699.24 907.02,-696.9 897.49,-692.28 896.69,-699.24"/>
</g>
<!-- NatGateway::pg&#45;nat&#45;public1&#45;us&#45;east&#45;1a -->
<g id="node4" class="node">
<title>NatGateway::pg&#45;nat&#45;public1&#45;us&#45;east&#45;1a</title>
<polygon fill="#e5e5e5" stroke="#dddddd" points="794,-225 585,-225 585,-167 794,-167 794,-225"/>
<text text-anchor="start" x="597.5" y="-205.2" font-family="Helvetica,sans-Serif" font-weight="bold" font-size="16.00" fill="#707070">EC2::NatGateway</text>
<text text-anchor="start" x="597.5" y="-180.2" font-family="Helvetica,sans-Serif" font-size="16.00" fill="#383838">pg&#45;nat&#45;public1&#45;us&#45;east&#45;1a</text>
</g>
<!-- Subnet::pg&#45;vpc::pg&#45;subnet&#45;public1&#45;us&#45;east&#45;1a -->
<g id="node7" class="node">
<title>Subnet::pg&#45;vpc::pg&#45;subnet&#45;public1&#45;us&#45;east&#45;1a</title>
<polygon fill="#e5e5e5" stroke="#dddddd" points="1144,-357 865,-357 865,-299 1144,-299 1144,-357"/>
<text text-anchor="start" x="877.5" y="-337.2" font-family="Helvetica,sans-Serif" font-weight="bold" font-size="16.00" fill="#707070">EC2::Subnet</text>
<text text-anchor="start" x="877.5" y="-312.2" font-family="Helvetica,sans-Serif" font-size="16.00" fill="#383838">pg&#45;vpc::pg&#45;subnet&#45;public1&#45;us&#45;eas...</text>
</g>
<!-- NatGateway::pg&#45;nat&#45;public1&#45;us&#45;east&#45;1a&#45;&gt;Subnet::pg&#45;vpc::pg&#45;subnet&#45;public1&#45;us&#45;east&#45;1a -->
<g id="edge3" class="edge">
<title>NatGateway::pg&#45;nat&#45;public1&#45;us&#45;east&#45;1a&#45;&gt;Subnet::pg&#45;vpc::pg&#45;subnet&#45;public1&#45;us&#45;east&#45;1a</title>
<path fill="none" stroke="#707070" d="M794.27,-215.31C806.63,-220.2 818.55,-226.32 829,-234 852.84,-251.52 841.16,-272.48 865,-290 866.19,-290.87 867.39,-291.72 868.62,-292.56"/>
<polygon fill="#707070" stroke="#707070" points="866.68,-295.47 877.02,-297.77 870.37,-289.52 866.68,-295.47"/>
</g>
<!-- ElasticIpAddress::pg&#45;eip&#45;us&#45;east&#45;1a -->
<g id="node21" class="node">
<title>ElasticIpAddress::pg&#45;eip&#45;us&#45;east&#45;1a</title>
<polygon fill="#e5e5e5" stroke="#dddddd" points="1102.5,-205 906.5,-205 906.5,-147 1102.5,-147 1102.5,-205"/>
<text text-anchor="start" x="918.5" y="-185.2" font-family="Helvetica,sans-Serif" font-weight="bold" font-size="16.00" fill="#707070">EC2::ElasticIpAddress</text>
<text text-anchor="start" x="918.5" y="-160.2" font-family="Helvetica,sans-Serif" font-size="16.00" fill="#383838">pg&#45;eip&#45;us&#45;east&#45;1a</text>
</g>
<!-- NatGateway::pg&#45;nat&#45;public1&#45;us&#45;east&#45;1a&#45;&gt;ElasticIpAddress::pg&#45;eip&#45;us&#45;east&#45;1a -->
<g id="edge4" class="edge">
<title>NatGateway::pg&#45;nat&#45;public1&#45;us&#45;east&#45;1a&#45;&gt;ElasticIpAddress::pg&#45;eip&#45;us&#45;east&#45;1a</title>
<path fill="none" stroke="#707070" d="M794.29,-189.37C826.52,-187.31 862.14,-185.03 894.7,-182.95"/>
<polygon fill="#707070" stroke="#707070" points="894.82,-186.45 904.57,-182.32 894.37,-179.47 894.82,-186.45"/>
</g>
<!-- Subnet::pg&#45;vpc::pg&#45;subnet&#45;private1&#45;us&#45;east&#45;1a -->
<g id="node5" class="node">
<title>Subnet::pg&#45;vpc::pg&#45;subnet&#45;private1&#45;us&#45;east&#45;1a</title>
<polygon fill="#e5e5e5" stroke="#dddddd" points="1143,-509 866,-509 866,-451 1143,-451 1143,-509"/>
<text text-anchor="start" x="878.5" y="-489.2" font-family="Helvetica,sans-Serif" font-weight="bold" font-size="16.00" fill="#707070">EC2::Subnet</text>
<text text-anchor="start" x="878.5" y="-464.2" font-family="Helvetica,sans-Serif" font-size="16.00" fill="#383838">pg&#45;vpc::pg&#45;subnet&#45;private1&#45;us&#45;ea...</text>
</g>
<!-- Subnet::pg&#45;vpc::pg&#45;subnet&#45;private1&#45;us&#45;east&#45;1a&#45;&gt;Vpc::pg&#45;vpc -->
<g id="edge5" class="edge">
<title>Subnet::pg&#45;vpc::pg&#45;subnet&#45;private1&#45;us&#45;east&#45;1a&#45;&gt;Vpc::pg&#45;vpc</title>
<path fill="none" stroke="#707070" d="M1143.26,-480C1151.97,-480 1160.43,-480 1168.41,-480"/>
<polygon fill="#707070" stroke="#707070" points="1168.23,-483.5 1178.23,-480 1168.23,-476.5 1168.23,-483.5"/>
</g>
<!-- Subnet::pg&#45;vpc::pg&#45;subnet&#45;private2&#45;us&#45;east&#45;1b -->
<g id="node6" class="node">
<title>Subnet::pg&#45;vpc::pg&#45;subnet&#45;private2&#45;us&#45;east&#45;1b</title>
<polygon fill="#e5e5e5" stroke="#dddddd" points="1143,-281 866,-281 866,-223 1143,-223 1143,-281"/>
<text text-anchor="start" x="878.5" y="-261.2" font-family="Helvetica,sans-Serif" font-weight="bold" font-size="16.00" fill="#707070">EC2::Subnet</text>
<text text-anchor="start" x="878.5" y="-236.2" font-family="Helvetica,sans-Serif" font-size="16.00" fill="#383838">pg&#45;vpc::pg&#45;subnet&#45;private2&#45;us&#45;ea...</text>
</g>
<!-- Subnet::pg&#45;vpc::pg&#45;subnet&#45;private2&#45;us&#45;east&#45;1b&#45;&gt;Vpc::pg&#45;vpc -->
<g id="edge6" class="edge">
<title>Subnet::pg&#45;vpc::pg&#45;subnet&#45;private2&#45;us&#45;east&#45;1b&#45;&gt;Vpc::pg&#45;vpc</title>
<path fill="none" stroke="#707070" d="M1132.62,-281.42C1136.61,-284.04 1140.42,-286.9 1144,-290 1188.67,-328.74 1209.99,-396.1 1219.53,-439.33"/>
<polygon fill="#707070" stroke="#707070" points="1216.1,-440.01 1221.56,-449.09 1222.95,-438.59 1216.1,-440.01"/>
</g>
<!-- Subnet::pg&#45;vpc::pg&#45;subnet&#45;public1&#45;us&#45;east&#45;1a&#45;&gt;Vpc::pg&#45;vpc -->
<g id="edge7" class="edge">
<title>Subnet::pg&#45;vpc::pg&#45;subnet&#45;public1&#45;us&#45;east&#45;1a&#45;&gt;Vpc::pg&#45;vpc</title>
<path fill="none" stroke="#707070" d="M1129.81,-357.37C1134.74,-360.01 1139.49,-362.88 1144,-366 1171.27,-384.9 1192.82,-415.82 1207.05,-440.7"/>
<polygon fill="#707070" stroke="#707070" points="1203.88,-442.2 1211.78,-449.26 1210.01,-438.82 1203.88,-442.2"/>
</g>
<!-- Subnet::pg&#45;vpc::pg&#45;subnet&#45;public2&#45;us&#45;east&#45;1b -->
<g id="node8" class="node">
<title>Subnet::pg&#45;vpc::pg&#45;subnet&#45;public2&#45;us&#45;east&#45;1b</title>
<polygon fill="#e5e5e5" stroke="#dddddd" points="1144,-433 865,-433 865,-375 1144,-375 1144,-433"/>
<text text-anchor="start" x="877.5" y="-413.2" font-family="Helvetica,sans-Serif" font-weight="bold" font-size="16.00" fill="#707070">EC2::Subnet</text>
<text text-anchor="start" x="877.5" y="-388.2" font-family="Helvetica,sans-Serif" font-size="16.00" fill="#383838">pg&#45;vpc::pg&#45;subnet&#45;public2&#45;us&#45;eas...</text>
</g>
<!-- Subnet::pg&#45;vpc::pg&#45;subnet&#45;public2&#45;us&#45;east&#45;1b&#45;&gt;Vpc::pg&#45;vpc -->
<g id="edge8" class="edge">
<title>Subnet::pg&#45;vpc::pg&#45;subnet&#45;public2&#45;us&#45;east&#45;1b&#45;&gt;Vpc::pg&#45;vpc</title>
<path fill="none" stroke="#707070" d="M1118.98,-433.5C1127.5,-436.21 1135.92,-439.05 1144,-442 1152.23,-445 1160.77,-448.49 1169.1,-452.11"/>
<polygon fill="#707070" stroke="#707070" points="1167.56,-455.26 1178.12,-456.13 1170.41,-448.86 1167.56,-455.26"/>
</g>
<!-- RouteTable::pg&#45;vpc::pg&#45;rtb&#45;private1&#45;us&#45;east&#45;1a -->
<g id="node9" class="node">
<title>RouteTable::pg&#45;vpc::pg&#45;rtb&#45;private1&#45;us&#45;east&#45;1a</title>
<polygon fill="#e5e5e5" stroke="#dddddd" points="1137,-661 872,-661 872,-603 1137,-603 1137,-661"/>
<text text-anchor="start" x="884.5" y="-641.2" font-family="Helvetica,sans-Serif" font-weight="bold" font-size="16.00" fill="#707070">EC2::RouteTable</text>
<text text-anchor="start" x="884.5" y="-616.2" font-family="Helvetica,sans-Serif" font-size="16.00" fill="#383838">pg&#45;vpc::pg&#45;rtb&#45;private1&#45;us&#45;east&#45;...</text>
</g>
<!-- RouteTable::pg&#45;vpc::pg&#45;rtb&#45;private1&#45;us&#45;east&#45;1a&#45;&gt;Vpc::pg&#45;vpc -->
<g id="edge9" class="edge">
<title>RouteTable::pg&#45;vpc::pg&#45;rtb&#45;private1&#45;us&#45;east&#45;1a&#45;&gt;Vpc::pg&#45;vpc</title>
<path fill="none" stroke="#707070" d="M1129.81,-602.63C1134.74,-599.99 1139.49,-597.12 1144,-594 1171.27,-575.1 1192.82,-544.18 1207.05,-519.3"/>
<polygon fill="#707070" stroke="#707070" points="1210.01,-521.18 1211.78,-510.74 1203.88,-517.8 1210.01,-521.18"/>
</g>
<!-- RouteTable::pg&#45;vpc::pg&#45;rtb&#45;private2&#45;us&#45;east&#45;1b -->
<g id="node10" class="node">
<title>RouteTable::pg&#45;vpc::pg&#45;rtb&#45;private2&#45;us&#45;east&#45;1b</title>
<polygon fill="#e5e5e5" stroke="#dddddd" points="1137,-129 872,-129 872,-71 1137,-71 1137,-129"/>
<text text-anchor="start" x="884.5" y="-109.2" font-family="Helvetica,sans-Serif" font-weight="bold" font-size="16.00" fill="#707070">EC2::RouteTable</text>
<text text-anchor="start" x="884.5" y="-84.2" font-family="Helvetica,sans-Serif" font-size="16.00" fill="#383838">pg&#45;vpc::pg&#45;rtb&#45;private2&#45;us&#45;east&#45;...</text>
</g>
<!-- RouteTable::pg&#45;vpc::pg&#45;rtb&#45;private2&#45;us&#45;east&#45;1b&#45;&gt;Vpc::pg&#45;vpc -->
<g id="edge10" class="edge">
<title>RouteTable::pg&#45;vpc::pg&#45;rtb&#45;private2&#45;us&#45;east&#45;1b&#45;&gt;Vpc::pg&#45;vpc</title>
<path fill="none" stroke="#707070" d="M1134.24,-129.33C1137.69,-131.98 1140.96,-134.87 1144,-138 1185.63,-180.95 1211.85,-358.38 1221.87,-439.36"/>
<polygon fill="#707070" stroke="#707070" points="1218.37,-439.58 1223.05,-449.08 1225.32,-438.73 1218.37,-439.58"/>
</g>
<!-- RouteTable::pg&#45;vpc::pg&#45;rtb&#45;public -->
<g id="node11" class="node">
<title>RouteTable::pg&#45;vpc::pg&#45;rtb&#45;public</title>
<polygon fill="#e5e5e5" stroke="#dddddd" points="1090.5,-585 918.5,-585 918.5,-527 1090.5,-527 1090.5,-585"/>
<text text-anchor="start" x="930.5" y="-565.2" font-family="Helvetica,sans-Serif" font-weight="bold" font-size="16.00" fill="#707070">EC2::RouteTable</text>
<text text-anchor="start" x="930.5" y="-540.2" font-family="Helvetica,sans-Serif" font-size="16.00" fill="#383838">pg&#45;vpc::pg&#45;rtb&#45;public</text>
</g>
<!-- RouteTable::pg&#45;vpc::pg&#45;rtb&#45;public&#45;&gt;Vpc::pg&#45;vpc -->
<g id="edge11" class="edge">
<title>RouteTable::pg&#45;vpc::pg&#45;rtb&#45;public&#45;&gt;Vpc::pg&#45;vpc</title>
<path fill="none" stroke="#707070" d="M1090.79,-534.96C1108.55,-529.93 1127.02,-524.19 1144,-518 1152.23,-515 1160.77,-511.51 1169.1,-507.89"/>
<polygon fill="#707070" stroke="#707070" points="1170.41,-511.14 1178.12,-503.87 1167.56,-504.74 1170.41,-511.14"/>
</g>
<!-- RouteTableAssociation::rt&#45;assoc::pg&#45;vpc::pg&#45;rtb&#45;private1&#45;us&#45;east&#45;1a::pg&#45;vpc::pg&#45;subnet&#45;private1&#45;us&#45;east&#45;1a -->
<g id="node12" class="node">
<title>RouteTableAssociation::rt&#45;assoc::pg&#45;vpc::pg&#45;rtb&#45;private1&#45;us&#45;east&#45;1a::pg&#45;vpc::pg&#45;subnet&#45;private1&#45;us&#45;east&#45;1a</title>
<polygon fill="#e5e5e5" stroke="#dddddd" points="819,-529 560,-529 560,-471 819,-471 819,-529"/>
<text text-anchor="start" x="572.5" y="-509.2" font-family="Helvetica,sans-Serif" font-weight="bold" font-size="16.00" fill="#707070">EC2::RouteTableAssociation</text>
<text text-anchor="start" x="572.5" y="-484.2" font-family="Helvetica,sans-Serif" font-size="16.00" fill="#383838">rt&#45;assoc::pg&#45;vpc::pg&#45;rtb&#45;private...</text>
</g>
<!-- RouteTableAssociation::rt&#45;assoc::pg&#45;vpc::pg&#45;rtb&#45;private1&#45;us&#45;east&#45;1a::pg&#45;vpc::pg&#45;subnet&#45;private1&#45;us&#45;east&#45;1a&#45;&gt;Subnet::pg&#45;vpc::pg&#45;subnet&#45;private1&#45;us&#45;east&#45;1a -->
<g id="edge13" class="edge">
<title>RouteTableAssociation::rt&#45;assoc::pg&#45;vpc::pg&#45;rtb&#45;private1&#45;us&#45;east&#45;1a::pg&#45;vpc::pg&#45;subnet&#45;private1&#45;us&#45;east&#45;1a&#45;&gt;Subnet::pg&#45;vpc::pg&#45;subnet&#45;private1&#45;us&#45;east&#45;1a</title>
<path fill="none" stroke="#707070" d="M819.16,-491.78C830.79,-491.04 842.63,-490.28 854.41,-489.53"/>
<polygon fill="#707070" stroke="#707070" points="854.42,-493.03 864.18,-488.9 853.97,-486.05 854.42,-493.03"/>
</g>
<!-- RouteTableAssociation::rt&#45;assoc::pg&#45;vpc::pg&#45;rtb&#45;private1&#45;us&#45;east&#45;1a::pg&#45;vpc::pg&#45;subnet&#45;private1&#45;us&#45;east&#45;1a&#45;&gt;RouteTable::pg&#45;vpc::pg&#45;rtb&#45;private1&#45;us&#45;east&#45;1a -->
<g id="edge12" class="edge">
<title>RouteTableAssociation::rt&#45;assoc::pg&#45;vpc::pg&#45;rtb&#45;private1&#45;us&#45;east&#45;1a::pg&#45;vpc::pg&#45;subnet&#45;private1&#45;us&#45;east&#45;1a&#45;&gt;RouteTable::pg&#45;vpc::pg&#45;rtb&#45;private1&#45;us&#45;east&#45;1a</title>
<path fill="none" stroke="#707070" d="M806.35,-529.4C814.33,-533.38 821.97,-537.89 829,-543 851.44,-559.31 842.29,-578.06 865,-594 866.37,-594.96 867.77,-595.9 869.18,-596.81"/>
<polygon fill="#707070" stroke="#707070" points="867.12,-599.66 877.51,-601.74 870.68,-593.64 867.12,-599.66"/>
</g>
<!-- RouteTableAssociation::rt&#45;assoc::pg&#45;vpc::pg&#45;rtb&#45;private2&#45;us&#45;east&#45;1b::pg&#45;vpc::pg&#45;subnet&#45;private2&#45;us&#45;east&#45;1b -->
<g id="node13" class="node">
<title>RouteTableAssociation::rt&#45;assoc::pg&#45;vpc::pg&#45;rtb&#45;private2&#45;us&#45;east&#45;1b::pg&#45;vpc::pg&#45;subnet&#45;private2&#45;us&#45;east&#45;1b</title>
<polygon fill="#e5e5e5" stroke="#dddddd" points="819,-149 560,-149 560,-91 819,-91 819,-149"/>
<text text-anchor="start" x="572.5" y="-129.2" font-family="Helvetica,sans-Serif" font-weight="bold" font-size="16.00" fill="#707070">EC2::RouteTableAssociation</text>
<text text-anchor="start" x="572.5" y="-104.2" font-family="Helvetica,sans-Serif" font-size="16.00" fill="#383838">rt&#45;assoc::pg&#45;vpc::pg&#45;rtb&#45;private...</text>
</g>
<!-- RouteTableAssociation::rt&#45;assoc::pg&#45;vpc::pg&#45;rtb&#45;private2&#45;us&#45;east&#45;1b::pg&#45;vpc::pg&#45;subnet&#45;private2&#45;us&#45;east&#45;1b&#45;&gt;Subnet::pg&#45;vpc::pg&#45;subnet&#45;private2&#45;us&#45;east&#45;1b -->
<g id="edge15" class="edge">
<title>RouteTableAssociation::rt&#45;assoc::pg&#45;vpc::pg&#45;rtb&#45;private2&#45;us&#45;east&#45;1b::pg&#45;vpc::pg&#45;subnet&#45;private2&#45;us&#45;east&#45;1b&#45;&gt;Subnet::pg&#45;vpc::pg&#45;subnet&#45;private2&#45;us&#45;east&#45;1b</title>
<path fill="none" stroke="#707070" d="M815.69,-149.44C820.32,-152.05 824.78,-154.9 829,-158 852.84,-175.52 841.16,-196.48 865,-214 866.19,-214.87 867.39,-215.72 868.62,-216.56"/>
<polygon fill="#707070" stroke="#707070" points="866.68,-219.47 877.02,-221.77 870.37,-213.52 866.68,-219.47"/>
</g>
<!-- RouteTableAssociation::rt&#45;assoc::pg&#45;vpc::pg&#45;rtb&#45;private2&#45;us&#45;east&#45;1b::pg&#45;vpc::pg&#45;subnet&#45;private2&#45;us&#45;east&#45;1b&#45;&gt;RouteTable::pg&#45;vpc::pg&#45;rtb&#45;private2&#45;us&#45;east&#45;1b -->
<g id="edge14" class="edge">
<title>RouteTableAssociation::rt&#45;assoc::pg&#45;vpc::pg&#45;rtb&#45;private2&#45;us&#45;east&#45;1b::pg&#45;vpc::pg&#45;subnet&#45;private2&#45;us&#45;east&#45;1b&#45;&gt;RouteTable::pg&#45;vpc::pg&#45;rtb&#45;private2&#45;us&#45;east&#45;1b</title>
<path fill="none" stroke="#707070" d="M819.16,-111.78C832.67,-110.92 846.45,-110.03 860.11,-109.16"/>
<polygon fill="#707070" stroke="#707070" points="860.27,-112.66 870.03,-108.53 859.82,-105.67 860.27,-112.66"/>
</g>
<!-- RouteTableAssociation::rt&#45;assoc::pg&#45;vpc::pg&#45;rtb&#45;public::pg&#45;vpc::pg&#45;subnet&#45;public1&#45;us&#45;east&#45;1a -->
<g id="node14" class="node">
<title>RouteTableAssociation::rt&#45;assoc::pg&#45;vpc::pg&#45;rtb&#45;public::pg&#45;vpc::pg&#45;subnet&#45;public1&#45;us&#45;east&#45;1a</title>
<polygon fill="#e5e5e5" stroke="#dddddd" points="818,-377 561,-377 561,-319 818,-319 818,-377"/>
<text text-anchor="start" x="573.5" y="-357.2" font-family="Helvetica,sans-Serif" font-weight="bold" font-size="16.00" fill="#707070">EC2::RouteTableAssociation</text>
<text text-anchor="start" x="573.5" y="-332.2" font-family="Helvetica,sans-Serif" font-size="16.00" fill="#383838">rt&#45;assoc::pg&#45;vpc::pg&#45;rtb&#45;public:...</text>
</g>
<!-- RouteTableAssociation::rt&#45;assoc::pg&#45;vpc::pg&#45;rtb&#45;public::pg&#45;vpc::pg&#45;subnet&#45;public1&#45;us&#45;east&#45;1a&#45;&gt;Subnet::pg&#45;vpc::pg&#45;subnet&#45;public1&#45;us&#45;east&#45;1a -->
<g id="edge17" class="edge">
<title>RouteTableAssociation::rt&#45;assoc::pg&#45;vpc::pg&#45;rtb&#45;public::pg&#45;vpc::pg&#45;subnet&#45;public1&#45;us&#45;east&#45;1a&#45;&gt;Subnet::pg&#45;vpc::pg&#45;subnet&#45;public1&#45;us&#45;east&#45;1a</title>
<path fill="none" stroke="#707070" d="M818.26,-339.84C829.85,-339.1 841.66,-338.34 853.43,-337.59"/>
<polygon fill="#707070" stroke="#707070" points="853.41,-341.1 863.17,-336.97 852.97,-334.11 853.41,-341.1"/>
</g>
<!-- RouteTableAssociation::rt&#45;assoc::pg&#45;vpc::pg&#45;rtb&#45;public::pg&#45;vpc::pg&#45;subnet&#45;public1&#45;us&#45;east&#45;1a&#45;&gt;RouteTable::pg&#45;vpc::pg&#45;rtb&#45;public -->
<g id="edge16" class="edge">
<title>RouteTableAssociation::rt&#45;assoc::pg&#45;vpc::pg&#45;rtb&#45;public::pg&#45;vpc::pg&#45;subnet&#45;public1&#45;us&#45;east&#45;1a&#45;&gt;RouteTable::pg&#45;vpc::pg&#45;rtb&#45;public</title>
<path fill="none" stroke="#707070" d="M818.22,-376.78C822.04,-379.58 825.65,-382.65 829,-386 871.97,-429.03 822.03,-474.97 865,-518 876.78,-529.8 891.85,-538.02 907.69,-543.74"/>
<polygon fill="#707070" stroke="#707070" points="906.16,-546.92 916.75,-546.68 908.32,-540.26 906.16,-546.92"/>
</g>
<!-- RouteTableAssociation::rt&#45;assoc::pg&#45;vpc::pg&#45;rtb&#45;public::pg&#45;vpc::pg&#45;subnet&#45;public2&#45;us&#45;east&#45;1b -->
<g id="node15" class="node">
<title>RouteTableAssociation::rt&#45;assoc::pg&#45;vpc::pg&#45;rtb&#45;public::pg&#45;vpc::pg&#45;subnet&#45;public2&#45;us&#45;east&#45;1b</title>
<polygon fill="#e5e5e5" stroke="#dddddd" points="818,-453 561,-453 561,-395 818,-395 818,-453"/>
<text text-anchor="start" x="573.5" y="-433.2" font-family="Helvetica,sans-Serif" font-weight="bold" font-size="16.00" fill="#707070">EC2::RouteTableAssociation</text>
<text text-anchor="start" x="573.5" y="-408.2" font-family="Helvetica,sans-Serif" font-size="16.00" fill="#383838">rt&#45;assoc::pg&#45;vpc::pg&#45;rtb&#45;public:...</text>
</g>
<!-- RouteTableAssociation::rt&#45;assoc::pg&#45;vpc::pg&#45;rtb&#45;public::pg&#45;vpc::pg&#45;subnet&#45;public2&#45;us&#45;east&#45;1b&#45;&gt;Subnet::pg&#45;vpc::pg&#45;subnet&#45;public2&#45;us&#45;east&#45;1b -->
<g id="edge19" class="edge">
<title>RouteTableAssociation::rt&#45;assoc::pg&#45;vpc::pg&#45;rtb&#45;public::pg&#45;vpc::pg&#45;subnet&#45;public2&#45;us&#45;east&#45;1b&#45;&gt;Subnet::pg&#45;vpc::pg&#45;subnet&#45;public2&#45;us&#45;east&#45;1b</title>
<path fill="none" stroke="#707070" d="M818.26,-415.84C829.85,-415.1 841.66,-414.34 853.43,-413.59"/>
<polygon fill="#707070" stroke="#707070" points="853.41,-417.1 863.17,-412.97 852.97,-410.11 853.41,-417.1"/>
</g>
<!-- RouteTableAssociation::rt&#45;assoc::pg&#45;vpc::pg&#45;rtb&#45;public::pg&#45;vpc::pg&#45;subnet&#45;public2&#45;us&#45;east&#45;1b&#45;&gt;RouteTable::pg&#45;vpc::pg&#45;rtb&#45;public -->
<g id="edge18" class="edge">
<title>RouteTableAssociation::rt&#45;assoc::pg&#45;vpc::pg&#45;rtb&#45;public::pg&#45;vpc::pg&#45;subnet&#45;public2&#45;us&#45;east&#45;1b&#45;&gt;RouteTable::pg&#45;vpc::pg&#45;rtb&#45;public</title>
<path fill="none" stroke="#707070" d="M815.69,-453.44C820.32,-456.05 824.78,-458.9 829,-462 852.84,-479.52 841.16,-500.48 865,-518 877.53,-527.21 892.18,-534.18 907.16,-539.47"/>
<polygon fill="#707070" stroke="#707070" points="906.08,-542.8 916.67,-542.56 908.24,-536.14 906.08,-542.8"/>
</g>
<!-- Route::pg&#45;vpc::pg&#45;rtb&#45;private1&#45;us&#45;east&#45;1a::nat&#45;gateway::0.0.0.0/0 -->
<g id="node16" class="node">
<title>Route::pg&#45;vpc::pg&#45;rtb&#45;private1&#45;us&#45;east&#45;1a::nat&#45;gateway::0.0.0.0/0</title>
<polygon fill="#e5e5e5" stroke="#dddddd" points="512.5,-239 247.5,-239 247.5,-181 512.5,-181 512.5,-239"/>
<text text-anchor="start" x="260" y="-219.2" font-family="Helvetica,sans-Serif" font-weight="bold" font-size="16.00" fill="#707070">EC2::Route</text>
<text text-anchor="start" x="260" y="-194.2" font-family="Helvetica,sans-Serif" font-size="16.00" fill="#383838">pg&#45;vpc::pg&#45;rtb&#45;private1&#45;us&#45;east&#45;...</text>
</g>
<!-- Route::pg&#45;vpc::pg&#45;rtb&#45;private1&#45;us&#45;east&#45;1a::nat&#45;gateway::0.0.0.0/0&#45;&gt;NatGateway::pg&#45;nat&#45;public1&#45;us&#45;east&#45;1a -->
<g id="edge20" class="edge">
<title>Route::pg&#45;vpc::pg&#45;rtb&#45;private1&#45;us&#45;east&#45;1a::nat&#45;gateway::0.0.0.0/0&#45;&gt;NatGateway::pg&#45;nat&#45;public1&#45;us&#45;east&#45;1a</title>
<path fill="none" stroke="#707070" d="M512.75,-204C533.01,-203.08 553.79,-202.13 573.65,-201.23"/>
<polygon fill="#707070" stroke="#707070" points="573.55,-204.74 583.38,-200.79 573.23,-197.74 573.55,-204.74"/>
</g>
<!-- Route::pg&#45;vpc::pg&#45;rtb&#45;private1&#45;us&#45;east&#45;1a::nat&#45;gateway::0.0.0.0/0&#45;&gt;RouteTable::pg&#45;vpc::pg&#45;rtb&#45;private1&#45;us&#45;east&#45;1a -->
<g id="edge21" class="edge">
<title>Route::pg&#45;vpc::pg&#45;rtb&#45;private1&#45;us&#45;east&#45;1a::nat&#45;gateway::0.0.0.0/0&#45;&gt;RouteTable::pg&#45;vpc::pg&#45;rtb&#45;private1&#45;us&#45;east&#45;1a</title>
<path fill="none" stroke="#707070" d="M386.17,-239.09C399.64,-305.33 442.53,-467.08 550,-538 601.88,-572.24 772.46,-532.17 829,-558 849.58,-567.4 845.44,-582.63 865,-594 867.06,-595.2 869.17,-596.36 871.3,-597.49"/>
<polygon fill="#707070" stroke="#707070" points="869.64,-600.57 880.16,-601.84 872.73,-594.29 869.64,-600.57"/>
</g>
<!-- Route::pg&#45;vpc::pg&#45;rtb&#45;private2&#45;us&#45;east&#45;1b::nat&#45;gateway::0.0.0.0/0 -->
<g id="node17" class="node">
<title>Route::pg&#45;vpc::pg&#45;rtb&#45;private2&#45;us&#45;east&#45;1b::nat&#45;gateway::0.0.0.0/0</title>
<polygon fill="#e5e5e5" stroke="#dddddd" points="512.5,-153 247.5,-153 247.5,-95 512.5,-95 512.5,-153"/>
<text text-anchor="start" x="260" y="-133.2" font-family="Helvetica,sans-Serif" font-weight="bold" font-size="16.00" fill="#707070">EC2::Route</text>
<text text-anchor="start" x="260" y="-108.2" font-family="Helvetica,sans-Serif" font-size="16.00" fill="#383838">pg&#45;vpc::pg&#45;rtb&#45;private2&#45;us&#45;east&#45;...</text>
</g>
<!-- Route::pg&#45;vpc::pg&#45;rtb&#45;private2&#45;us&#45;east&#45;1b::nat&#45;gateway::0.0.0.0/0&#45;&gt;NatGateway::pg&#45;nat&#45;public1&#45;us&#45;east&#45;1a -->
<g id="edge22" class="edge">
<title>Route::pg&#45;vpc::pg&#45;rtb&#45;private2&#45;us&#45;east&#45;1b::nat&#45;gateway::0.0.0.0/0&#45;&gt;NatGateway::pg&#45;nat&#45;public1&#45;us&#45;east&#45;1a</title>
<path fill="none" stroke="#707070" d="M506.96,-153.49C529.09,-158.68 552.02,-164.04 573.83,-169.15"/>
<polygon fill="#707070" stroke="#707070" points="572.77,-172.5 583.3,-171.37 574.36,-165.68 572.77,-172.5"/>
</g>
<!-- Route::pg&#45;vpc::pg&#45;rtb&#45;private2&#45;us&#45;east&#45;1b::nat&#45;gateway::0.0.0.0/0&#45;&gt;RouteTable::pg&#45;vpc::pg&#45;rtb&#45;private2&#45;us&#45;east&#45;1b -->
<g id="edge23" class="edge">
<title>Route::pg&#45;vpc::pg&#45;rtb&#45;private2&#45;us&#45;east&#45;1b::nat&#45;gateway::0.0.0.0/0&#45;&gt;RouteTable::pg&#45;vpc::pg&#45;rtb&#45;private2&#45;us&#45;east&#45;1b</title>
<path fill="none" stroke="#707070" d="M482.58,-94.51C504.62,-89.31 527.94,-84.7 550,-82 653.32,-69.35 770.76,-74.55 860.24,-82.55"/>
<polygon fill="#707070" stroke="#707070" points="859.78,-86.02 870.06,-83.45 860.42,-79.05 859.78,-86.02"/>
</g>
<!-- Route::pg&#45;vpc::pg&#45;rtb&#45;public::igw::0.0.0.0/0 -->
<g id="node18" class="node">
<title>Route::pg&#45;vpc::pg&#45;rtb&#45;public::igw::0.0.0.0/0</title>
<polygon fill="#e5e5e5" stroke="#dddddd" points="817,-625 562,-625 562,-567 817,-567 817,-625"/>
<text text-anchor="start" x="574.5" y="-605.2" font-family="Helvetica,sans-Serif" font-weight="bold" font-size="16.00" fill="#707070">EC2::Route</text>
<text text-anchor="start" x="574.5" y="-580.2" font-family="Helvetica,sans-Serif" font-size="16.00" fill="#383838">pg&#45;vpc::pg&#45;rtb&#45;public::igw::0.0....</text>
</g>
<!-- Route::pg&#45;vpc::pg&#45;rtb&#45;public::igw::0.0.0.0/0&#45;&gt;InternetGateway::pg&#45;igw -->
<g id="edge24" class="edge">
<title>Route::pg&#45;vpc::pg&#45;rtb&#45;public::igw::0.0.0.0/0&#45;&gt;InternetGateway::pg&#45;igw</title>
<path fill="none" stroke="#707070" d="M812.48,-625.49C818.18,-628.1 823.72,-630.93 829,-634 848.56,-645.37 845.44,-658.63 865,-670 875.31,-676 886.61,-681.08 898.17,-685.38"/>
<polygon fill="#707070" stroke="#707070" points="896.8,-688.61 907.4,-688.61 899.12,-682 896.8,-688.61"/>
</g>
<!-- Route::pg&#45;vpc::pg&#45;rtb&#45;public::igw::0.0.0.0/0&#45;&gt;RouteTable::pg&#45;vpc::pg&#45;rtb&#45;public -->
<g id="edge25" class="edge">
<title>Route::pg&#45;vpc::pg&#45;rtb&#45;public::igw::0.0.0.0/0&#45;&gt;RouteTable::pg&#45;vpc::pg&#45;rtb&#45;public</title>
<path fill="none" stroke="#707070" d="M817.36,-579.79C847.28,-575.96 878.7,-571.95 907.03,-568.33"/>
<polygon fill="#707070" stroke="#707070" points="907.16,-571.84 916.63,-567.1 906.27,-564.9 907.16,-571.84"/>
</g>
<!-- SecurityGroup::sg::pg&#45;vpc::pg -->
<g id="node19" class="node">
<title>SecurityGroup::sg::pg&#45;vpc::pg</title>
<polygon fill="#e5e5e5" stroke="#dddddd" points="778,-777 601,-777 601,-719 778,-719 778,-777"/>
<text text-anchor="start" x="613.5" y="-757.2" font-family="Helvetica,sans-Serif" font-weight="bold" font-size="16.00" fill="#707070">EC2::SecurityGroup</text>
<text text-anchor="start" x="613.5" y="-732.2" font-family="Helvetica,sans-Serif" font-size="16.00" fill="#383838">sg::pg&#45;vpc::pg</text>
</g>
<!-- SecurityGroup::sg::pg&#45;vpc::pg&#45;&gt;Vpc::pg&#45;vpc -->
<g id="edge26" class="edge">
<title>SecurityGroup::sg::pg&#45;vpc::pg&#45;&gt;Vpc::pg&#45;vpc</title>
<path fill="none" stroke="#707070" d="M768.64,-777.37C866.67,-808.7 1035.11,-843.6 1144,-762 1182.86,-732.88 1209.55,-591.08 1220.68,-520.32"/>
<polygon fill="#707070" stroke="#707070" points="1224.1,-521.11 1222.16,-510.7 1217.18,-520.05 1224.1,-521.11"/>
</g>
<!-- SecurityGroupRuleIngress::sg::pg&#45;vpc::pg&#45;rule&#45;ingress&#45;tcp&#45;5432 -->
<g id="node20" class="node">
<title>SecurityGroupRuleIngress::sg::pg&#45;vpc::pg&#45;rule&#45;ingress&#45;tcp&#45;5432</title>
<polygon fill="#e5e5e5" stroke="#dddddd" points="514,-681 246,-681 246,-623 514,-623 514,-681"/>
<text text-anchor="start" x="258" y="-661.2" font-family="Helvetica,sans-Serif" font-weight="bold" font-size="16.00" fill="#707070">EC2::SecurityGroupRuleIngress</text>
<text text-anchor="start" x="258" y="-636.2" font-family="Helvetica,sans-Serif" font-size="16.00" fill="#383838">sg::pg&#45;vpc::pg&#45;rule&#45;ingress&#45;tcp&#45;...</text>
</g>
<!-- SecurityGroupRuleIngress::sg::pg&#45;vpc::pg&#45;rule&#45;ingress&#45;tcp&#45;5432&#45;&gt;SecurityGroup::sg::pg&#45;vpc::pg -->
<g id="edge27" class="edge">
<title>SecurityGroupRuleIngress::sg::pg&#45;vpc::pg&#45;rule&#45;ingress&#45;tcp&#45;5432&#45;&gt;SecurityGroup::sg::pg&#45;vpc::pg</title>
<path fill="none" stroke="#707070" d="M475.42,-681.47C488.44,-685.84 501.59,-690.42 514,-695 530.26,-701 533.61,-704.36 550,-710 562.84,-714.42 576.48,-718.67 590,-722.64"/>
<polygon fill="#707070" stroke="#707070" points="588.77,-725.92 599.35,-725.33 590.71,-719.2 588.77,-725.92"/>
</g>
<!-- Role::rds&#45;monitoring&#45;role -->
<g id="node22" class="node">
<title>Role::rds&#45;monitoring&#45;role</title>
<polygon fill="#e5e5e5" stroke="#dddddd" points="460,-777 300,-777 300,-719 460,-719 460,-777"/>
<text text-anchor="start" x="312" y="-757.2" font-family="Helvetica,sans-Serif" font-weight="bold" font-size="16.00" fill="#707070">IAM::Role</text>
<text text-anchor="start" x="312" y="-732.2" font-family="Helvetica,sans-Serif" font-size="16.00" fill="#383838">rds&#45;monitoring&#45;role</text>
</g>
<!-- DBCluster::database&#45;1 -->
<g id="node23" class="node">
<title>DBCluster::database&#45;1</title>
<polygon fill="#e5e5e5" stroke="#dddddd" points="452.5,-605 307.5,-605 307.5,-547 452.5,-547 452.5,-605"/>
<text text-anchor="start" x="320" y="-585.2" font-family="Helvetica,sans-Serif" font-weight="bold" font-size="16.00" fill="#707070">RDS::DBCluster</text>
<text text-anchor="start" x="320" y="-560.2" font-family="Helvetica,sans-Serif" font-size="16.00" fill="#383838">database&#45;1</text>
</g>
<!-- DBCluster::database&#45;1&#45;&gt;SecurityGroup::sg::pg&#45;vpc::pg -->
<g id="edge29" class="edge">
<title>DBCluster::database&#45;1&#45;&gt;SecurityGroup::sg::pg&#45;vpc::pg</title>
<path fill="none" stroke="#707070" d="M452.75,-583.83C474.59,-589.31 497.23,-598.53 514,-614 547.49,-644.9 516.35,-679.28 550,-710 561.41,-720.42 575.41,-728.02 590.08,-733.55"/>
<polygon fill="#707070" stroke="#707070" points="588.82,-736.82 599.42,-736.74 591.08,-730.2 588.82,-736.82"/>
</g>
<!-- DBSubnetGroup::default&#45;vpc&#45;07c0392e5e3359f2e -->
<g id="node25" class="node">
<title>DBSubnetGroup::default&#45;vpc&#45;07c0392e5e3359f2e</title>
<polygon fill="#e5e5e5" stroke="#dddddd" points="818,-301 561,-301 561,-243 818,-243 818,-301"/>
<text text-anchor="start" x="573.5" y="-281.2" font-family="Helvetica,sans-Serif" font-weight="bold" font-size="16.00" fill="#707070">RDS::DBSubnetGroup</text>
<text text-anchor="start" x="573.5" y="-256.2" font-family="Helvetica,sans-Serif" font-size="16.00" fill="#383838">default&#45;vpc&#45;07c0392e5e3359f2e</text>
</g>
<!-- DBCluster::database&#45;1&#45;&gt;DBSubnetGroup::default&#45;vpc&#45;07c0392e5e3359f2e -->
<g id="edge28" class="edge">
<title>DBCluster::database&#45;1&#45;&gt;DBSubnetGroup::default&#45;vpc&#45;07c0392e5e3359f2e</title>
<path fill="none" stroke="#707070" d="M408.22,-546.75C437.43,-514.17 483.71,-458.95 514,-405 536.11,-365.63 516.6,-340.38 550,-310 550.64,-309.42 551.29,-308.84 551.94,-308.28"/>
<polygon fill="#707070" stroke="#707070" points="553.88,-311.21 559.68,-302.34 549.61,-305.66 553.88,-311.21"/>
</g>
<!-- DBInstance::database&#45;1&#45;instance&#45;1 -->
<g id="node24" class="node">
<title>DBInstance::database&#45;1&#45;instance&#45;1</title>
<polygon fill="#e5e5e5" stroke="#dddddd" points="210,-667 24,-667 24,-609 210,-609 210,-667"/>
<text text-anchor="start" x="36" y="-647.2" font-family="Helvetica,sans-Serif" font-weight="bold" font-size="16.00" fill="#707070">RDS::DBInstance</text>
<text text-anchor="start" x="36" y="-622.2" font-family="Helvetica,sans-Serif" font-size="16.00" fill="#383838">database&#45;1&#45;instance&#45;1</text>
</g>
<!-- DBInstance::database&#45;1&#45;instance&#45;1&#45;&gt;SecurityGroup::sg::pg&#45;vpc::pg -->
<g id="edge31" class="edge">
<title>DBInstance::database&#45;1&#45;instance&#45;1&#45;&gt;SecurityGroup::sg::pg&#45;vpc::pg</title>
<path fill="none" stroke="#707070" d="M179.23,-667.39C199.98,-676.12 223.58,-684.75 246,-690 362.29,-717.25 395.8,-692.81 514,-710 538.61,-713.58 564.93,-718.65 589.47,-723.92"/>
<polygon fill="#707070" stroke="#707070" points="588.62,-727.31 599.13,-726.03 590.11,-720.48 588.62,-727.31"/>
</g>
<!-- DBInstance::database&#45;1&#45;instance&#45;1&#45;&gt;Role::rds&#45;monitoring&#45;role -->
<g id="edge33" class="edge">
<title>DBInstance::database&#45;1&#45;instance&#45;1&#45;&gt;Role::rds&#45;monitoring&#45;role</title>
<path fill="none" stroke="#707070" d="M169.35,-667.43C192.36,-679.94 220.1,-694.13 246,-705 259.77,-710.78 274.61,-716.27 289.21,-721.27"/>
<polygon fill="#707070" stroke="#707070" points="287.75,-724.47 298.34,-724.34 289.98,-717.84 287.75,-724.47"/>
</g>
<!-- DBInstance::database&#45;1&#45;instance&#45;1&#45;&gt;DBCluster::database&#45;1 -->
<g id="edge32" class="edge">
<title>DBInstance::database&#45;1&#45;instance&#45;1&#45;&gt;DBCluster::database&#45;1</title>
<path fill="none" stroke="#707070" d="M210.39,-616.05C238.35,-609.41 268.88,-602.16 296.18,-595.67"/>
<polygon fill="#707070" stroke="#707070" points="296.88,-599.11 305.8,-593.39 295.26,-592.3 296.88,-599.11"/>
</g>
<!-- DBInstance::database&#45;1&#45;instance&#45;1&#45;&gt;DBSubnetGroup::default&#45;vpc&#45;07c0392e5e3359f2e -->
<g id="edge30" class="edge">
<title>DBInstance::database&#45;1&#45;instance&#45;1&#45;&gt;DBSubnetGroup::default&#45;vpc&#45;07c0392e5e3359f2e</title>
<path fill="none" stroke="#707070" d="M147.69,-608.72C214.02,-544.92 381.72,-392.46 550,-310 552.94,-308.56 555.94,-307.17 558.99,-305.82"/>
<polygon fill="#707070" stroke="#707070" points="560.25,-309.09 568.13,-302.01 557.55,-302.63 560.25,-309.09"/>
</g>
<!-- DBSubnetGroup::default&#45;vpc&#45;07c0392e5e3359f2e&#45;&gt;Subnet::pg&#45;vpc::pg&#45;subnet&#45;private1&#45;us&#45;east&#45;1a -->
<g id="edge34" class="edge">
<title>DBSubnetGroup::default&#45;vpc&#45;07c0392e5e3359f2e&#45;&gt;Subnet::pg&#45;vpc::pg&#45;subnet&#45;private1&#45;us&#45;east&#45;1a</title>
<path fill="none" stroke="#707070" d="M818.22,-300.78C822.04,-303.58 825.65,-306.65 829,-310 871.97,-353.03 822.03,-398.97 865,-442 865.39,-442.39 865.77,-442.77 866.17,-443.15"/>
<polygon fill="#707070" stroke="#707070" points="863.84,-445.76 873.73,-449.57 868.37,-440.43 863.84,-445.76"/>
</g>
<!-- DBSubnetGroup::default&#45;vpc&#45;07c0392e5e3359f2e&#45;&gt;Subnet::pg&#45;vpc::pg&#45;subnet&#45;private2&#45;us&#45;east&#45;1b -->
<g id="edge35" class="edge">
<title>DBSubnetGroup::default&#45;vpc&#45;07c0392e5e3359f2e&#45;&gt;Subnet::pg&#45;vpc::pg&#45;subnet&#45;private2&#45;us&#45;east&#45;1b</title>
<path fill="none" stroke="#707070" d="M818.26,-263.84C830.23,-263.07 842.44,-262.29 854.58,-261.52"/>
<polygon fill="#707070" stroke="#707070" points="854.44,-265.03 864.19,-260.9 853.99,-258.05 854.44,-265.03"/>
</g>
<!-- DBSubnetGroup::default&#45;vpc&#45;07c0392e5e3359f2e&#45;&gt;Subnet::pg&#45;vpc::pg&#45;subnet&#45;public1&#45;us&#45;east&#45;1a -->
<g id="edge36" class="edge">
<title>DBSubnetGroup::default&#45;vpc&#45;07c0392e5e3359f2e&#45;&gt;Subnet::pg&#45;vpc::pg&#45;subnet&#45;public1&#45;us&#45;east&#45;1a</title>
<path fill="none" stroke="#707070" d="M818.26,-294.86C829.85,-296.93 841.66,-299.05 853.43,-301.15"/>
<polygon fill="#707070" stroke="#707070" points="852.73,-304.58 863.19,-302.9 853.96,-297.69 852.73,-304.58"/>
</g>
<!-- DBSubnetGroup::default&#45;vpc&#45;07c0392e5e3359f2e&#45;&gt;Subnet::pg&#45;vpc::pg&#45;subnet&#45;public2&#45;us&#45;east&#45;1b -->
<g id="edge37" class="edge">
<title>DBSubnetGroup::default&#45;vpc&#45;07c0392e5e3359f2e&#45;&gt;Subnet::pg&#45;vpc::pg&#45;subnet&#45;public2&#45;us&#45;east&#45;1b</title>
<path fill="none" stroke="#707070" d="M815.69,-301.44C820.32,-304.05 824.78,-306.9 829,-310 852.84,-327.52 841.16,-348.48 865,-366 866.19,-366.87 867.39,-367.72 868.62,-368.56"/>
<polygon fill="#707070" stroke="#707070" points="866.68,-371.47 877.02,-373.77 870.37,-365.52 866.68,-371.47"/>
</g>
</g>
</svg>
