<?xml version="1.0" encoding="UTF-8" standalone="no"?>
<!DOCTYPE svg PUBLIC "-//W3C//DTD SVG 1.1//EN"
 "http://www.w3.org/Graphics/SVG/1.1/DTD/svg11.dtd">
<!-- Generated by graphviz version 3.0.0 (20220226.1711)
 -->
<!-- Title: graphname Pages: 1 -->
<svg width="1269pt" height="961pt"
 viewBox="0.00 0.00 1269.00 961.00" xmlns="http://www.w3.org/2000/svg" xmlns:xlink="http://www.w3.org/1999/xlink">
<g id="graph0" class="graph" transform="scale(1 1) rotate(0) translate(4 957)">
<title>graphname</title>
<polygon fill="#fafafa" stroke="transparent" points="-4,4 -4,-957 1265,-957 1265,4 -4,4"/>
<text text-anchor="start" x="540.5" y="-928.4" font-family="Helvetica,sans-Serif" font-weight="bold" font-size="22.00" fill="#383838">Project aurora&#45;v2</text>
<text text-anchor="start" x="626.5" y="-912.8" font-family="Helvetica,sans-Serif" font-size="14.00"> &#160;</text>
<text text-anchor="start" x="540.5" y="-891.2" font-family="Helvetica,sans-Serif" font-weight="bold" font-size="16.00" fill="#707070">Live Diagram</text>
<g id="clust1" class="cluster">
<title>cluster_aws</title>
<polygon fill="#f5f5f5" stroke="#f5f5f5" points="8,-8 8,-869 1253,-869 1253,-8 8,-8"/>
<text text-anchor="start" x="568.5" y="-23" font-family="Helvetica,sans-Serif" font-weight="bold" font-size="20.00" fill="#707070">Provider aws</text>
</g>
<g id="clust2" class="cluster">
<title>cluster_aws_</title>
<polygon fill="#eeeeee" stroke="#eeeeee" points="16,-54 16,-861 1245,-861 1245,-54 16,-54"/>
<text text-anchor="start" x="630.36" y="-58.3" font-family="Helvetica,sans-Serif" font-size="1.00" fill="#383838"> </text>
</g>
<!-- ElasticIpAddress::::pg&#45;eip&#45;us&#45;east&#45;1a -->
<g id="node1" class="node">
<title>ElasticIpAddress::::pg&#45;eip&#45;us&#45;east&#45;1a</title>
<polygon fill="#e5e5e5" stroke="#dddddd" points="1083.5,-481 887.5,-481 887.5,-423 1083.5,-423 1083.5,-481"/>
<text text-anchor="start" x="899.5" y="-461.2" font-family="Helvetica,sans-Serif" font-weight="bold" font-size="16.00" fill="#707070">EC2::ElasticIpAddress</text>
<text text-anchor="start" x="899.5" y="-436.2" font-family="Helvetica,sans-Serif" font-size="16.00" fill="#383838">pg&#45;eip&#45;us&#45;east&#45;1a</text>
</g>
<!-- InternetGateway::::pg&#45;igw -->
<g id="node2" class="node">
<title>InternetGateway::::pg&#45;igw</title>
<polygon fill="#e5e5e5" stroke="#dddddd" points="1081,-213 890,-213 890,-155 1081,-155 1081,-213"/>
<text text-anchor="start" x="902.5" y="-193.2" font-family="Helvetica,sans-Serif" font-weight="bold" font-size="16.00" fill="#707070">EC2::InternetGateway</text>
<text text-anchor="start" x="902.5" y="-168.2" font-family="Helvetica,sans-Serif" font-size="16.00" fill="#383838">pg&#45;igw</text>
</g>
<!-- Vpc::::pg&#45;vpc -->
<g id="node21" class="node">
<title>Vpc::::pg&#45;vpc</title>
<polygon fill="#e5e5e5" stroke="#dddddd" points="1237,-467 1142,-467 1142,-409 1237,-409 1237,-467"/>
<text text-anchor="start" x="1154.5" y="-447.2" font-family="Helvetica,sans-Serif" font-weight="bold" font-size="16.00" fill="#707070">EC2::Vpc</text>
<text text-anchor="start" x="1154.5" y="-422.2" font-family="Helvetica,sans-Serif" font-size="16.00" fill="#383838">pg&#45;vpc</text>
</g>
<!-- InternetGateway::::pg&#45;igw&#45;&gt;Vpc::::pg&#45;vpc -->
<g id="edge1" class="edge">
<title>InternetGateway::::pg&#45;igw&#45;&gt;Vpc::::pg&#45;vpc</title>
<path fill="none" stroke="#707070" d="M1081.14,-209.05C1090.22,-214.01 1098.73,-219.93 1106,-227 1154.09,-273.79 1174.72,-351.92 1183.14,-398.84"/>
<polygon fill="#707070" stroke="#707070" points="1179.72,-399.65 1184.84,-408.93 1186.63,-398.48 1179.72,-399.65"/>
</g>
<!-- InternetGatewayAttachment::::ig&#45;attach::pg&#45;igw::pg&#45;vpc -->
<g id="node3" class="node">
<title>InternetGatewayAttachment::::ig&#45;attach::pg&#45;igw::pg&#45;vpc</title>
<polygon fill="#e5e5e5" stroke="#dddddd" points="829,-237 550,-237 550,-179 829,-179 829,-237"/>
<text text-anchor="start" x="562.5" y="-217.2" font-family="Helvetica,sans-Serif" font-weight="bold" font-size="16.00" fill="#707070">EC2::InternetGatewayAttachment</text>
<text text-anchor="start" x="562.5" y="-192.2" font-family="Helvetica,sans-Serif" font-size="16.00" fill="#383838">ig&#45;attach::pg&#45;igw::pg&#45;vpc</text>
</g>
<!-- InternetGatewayAttachment::::ig&#45;attach::pg&#45;igw::pg&#45;vpc&#45;&gt;InternetGateway::::pg&#45;igw -->
<g id="edge3" class="edge">
<title>InternetGatewayAttachment::::ig&#45;attach::pg&#45;igw::pg&#45;vpc&#45;&gt;InternetGateway::::pg&#45;igw</title>
<path fill="none" stroke="#707070" d="M829.32,-196.67C846.31,-195.28 863.45,-193.88 879.82,-192.55"/>
<polygon fill="#707070" stroke="#707070" points="880.23,-196.02 889.91,-191.72 879.66,-189.05 880.23,-196.02"/>
</g>
<!-- InternetGatewayAttachment::::ig&#45;attach::pg&#45;igw::pg&#45;vpc&#45;&gt;Vpc::::pg&#45;vpc -->
<g id="edge2" class="edge">
<title>InternetGatewayAttachment::::ig&#45;attach::pg&#45;igw::pg&#45;vpc&#45;&gt;Vpc::::pg&#45;vpc</title>
<path fill="none" stroke="#707070" d="M829.07,-219.26C949.36,-229.09 1104.57,-241.96 1106,-243 1156.39,-279.53 1176.21,-353.04 1183.86,-398.63"/>
<polygon fill="#707070" stroke="#707070" points="1180.44,-399.4 1185.43,-408.75 1187.36,-398.33 1180.44,-399.4"/>
</g>
<!-- NatGateway::::pg&#45;nat&#45;public1&#45;us&#45;east&#45;1a -->
<g id="node4" class="node">
<title>NatGateway::::pg&#45;nat&#45;public1&#45;us&#45;east&#45;1a</title>
<polygon fill="#e5e5e5" stroke="#dddddd" points="794,-433 585,-433 585,-375 794,-375 794,-433"/>
<text text-anchor="start" x="597.5" y="-413.2" font-family="Helvetica,sans-Serif" font-weight="bold" font-size="16.00" fill="#707070">EC2::NatGateway</text>
<text text-anchor="start" x="597.5" y="-388.2" font-family="Helvetica,sans-Serif" font-size="16.00" fill="#383838">pg&#45;nat&#45;public1&#45;us&#45;east&#45;1a</text>
</g>
<!-- NatGateway::::pg&#45;nat&#45;public1&#45;us&#45;east&#45;1a&#45;&gt;ElasticIpAddress::::pg&#45;eip&#45;us&#45;east&#45;1a -->
<g id="edge5" class="edge">
<title>NatGateway::::pg&#45;nat&#45;public1&#45;us&#45;east&#45;1a&#45;&gt;ElasticIpAddress::::pg&#45;eip&#45;us&#45;east&#45;1a</title>
<path fill="none" stroke="#707070" d="M794.15,-420.92C821.1,-425.32 850.18,-430.07 877.3,-434.5"/>
<polygon fill="#707070" stroke="#707070" points="876.76,-437.96 887.2,-436.11 877.89,-431.05 876.76,-437.96"/>
</g>
<!-- Subnet::::pg&#45;subnet&#45;public1&#45;us&#45;east&#45;1a -->
<g id="node19" class="node">
<title>Subnet::::pg&#45;subnet&#45;public1&#45;us&#45;east&#45;1a</title>
<polygon fill="#e5e5e5" stroke="#dddddd" points="1103,-329 868,-329 868,-271 1103,-271 1103,-329"/>
<text text-anchor="start" x="880.5" y="-309.2" font-family="Helvetica,sans-Serif" font-weight="bold" font-size="16.00" fill="#707070">EC2::Subnet</text>
<text text-anchor="start" x="880.5" y="-284.2" font-family="Helvetica,sans-Serif" font-size="16.00" fill="#383838">pg&#45;subnet&#45;public1&#45;us&#45;east&#45;1a</text>
</g>
<!-- NatGateway::::pg&#45;nat&#45;public1&#45;us&#45;east&#45;1a&#45;&gt;Subnet::::pg&#45;subnet&#45;public1&#45;us&#45;east&#45;1a -->
<g id="edge4" class="edge">
<title>NatGateway::::pg&#45;nat&#45;public1&#45;us&#45;east&#45;1a&#45;&gt;Subnet::::pg&#45;subnet&#45;public1&#45;us&#45;east&#45;1a</title>
<path fill="none" stroke="#707070" d="M764.9,-374.85C795.74,-363.03 831.96,-349.49 865,-338 870.47,-336.1 876.09,-334.18 881.77,-332.27"/>
<polygon fill="#707070" stroke="#707070" points="882.99,-335.56 891.38,-329.08 880.78,-328.91 882.99,-335.56"/>
</g>
<!-- Route::::pg&#45;rtb&#45;private1&#45;us&#45;east&#45;1a&#45;nat&#45;gateway -->
<g id="node5" class="node">
<title>Route::::pg&#45;rtb&#45;private1&#45;us&#45;east&#45;1a&#45;nat&#45;gateway</title>
<polygon fill="#e5e5e5" stroke="#dddddd" points="513.5,-585 246.5,-585 246.5,-527 513.5,-527 513.5,-585"/>
<text text-anchor="start" x="259" y="-565.2" font-family="Helvetica,sans-Serif" font-weight="bold" font-size="16.00" fill="#707070">EC2::Route</text>
<text text-anchor="start" x="259" y="-540.2" font-family="Helvetica,sans-Serif" font-size="16.00" fill="#383838">pg&#45;rtb&#45;private1&#45;us&#45;east&#45;1a&#45;nat&#45;g...</text>
</g>
<!-- Route::::pg&#45;rtb&#45;private1&#45;us&#45;east&#45;1a&#45;nat&#45;gateway&#45;&gt;NatGateway::::pg&#45;nat&#45;public1&#45;us&#45;east&#45;1a -->
<g id="edge7" class="edge">
<title>Route::::pg&#45;rtb&#45;private1&#45;us&#45;east&#45;1a&#45;nat&#45;gateway&#45;&gt;NatGateway::::pg&#45;nat&#45;public1&#45;us&#45;east&#45;1a</title>
<path fill="none" stroke="#707070" d="M501.74,-526.97C506.04,-524.24 510.15,-521.26 514,-518 542.51,-493.83 521.37,-466.02 550,-442 557.66,-435.57 566.33,-430.22 575.49,-425.77"/>
<polygon fill="#707070" stroke="#707070" points="577.09,-428.89 584.8,-421.62 574.24,-422.5 577.09,-428.89"/>
</g>
<!-- RouteTable::::pg&#45;rtb&#45;private1&#45;us&#45;east&#45;1a -->
<g id="node8" class="node">
<title>RouteTable::::pg&#45;rtb&#45;private1&#45;us&#45;east&#45;1a</title>
<polygon fill="#e5e5e5" stroke="#dddddd" points="795,-701 584,-701 584,-643 795,-643 795,-701"/>
<text text-anchor="start" x="596.5" y="-681.2" font-family="Helvetica,sans-Serif" font-weight="bold" font-size="16.00" fill="#707070">EC2::RouteTable</text>
<text text-anchor="start" x="596.5" y="-656.2" font-family="Helvetica,sans-Serif" font-size="16.00" fill="#383838">pg&#45;rtb&#45;private1&#45;us&#45;east&#45;1a</text>
</g>
<!-- Route::::pg&#45;rtb&#45;private1&#45;us&#45;east&#45;1a&#45;nat&#45;gateway&#45;&gt;RouteTable::::pg&#45;rtb&#45;private1&#45;us&#45;east&#45;1a -->
<g id="edge6" class="edge">
<title>Route::::pg&#45;rtb&#45;private1&#45;us&#45;east&#45;1a&#45;nat&#45;gateway&#45;&gt;RouteTable::::pg&#45;rtb&#45;private1&#45;us&#45;east&#45;1a</title>
<path fill="none" stroke="#707070" d="M458.2,-585.12C501.96,-601.63 556.84,-622.33 602.04,-639.39"/>
<polygon fill="#707070" stroke="#707070" points="600.94,-642.71 611.54,-642.97 603.42,-636.16 600.94,-642.71"/>
</g>
<!-- Route::::pg&#45;rtb&#45;private2&#45;us&#45;east&#45;1b&#45;nat&#45;gateway -->
<g id="node6" class="node">
<title>Route::::pg&#45;rtb&#45;private2&#45;us&#45;east&#45;1b&#45;nat&#45;gateway</title>
<polygon fill="#e5e5e5" stroke="#dddddd" points="513.5,-433 246.5,-433 246.5,-375 513.5,-375 513.5,-433"/>
<text text-anchor="start" x="259" y="-413.2" font-family="Helvetica,sans-Serif" font-weight="bold" font-size="16.00" fill="#707070">EC2::Route</text>
<text text-anchor="start" x="259" y="-388.2" font-family="Helvetica,sans-Serif" font-size="16.00" fill="#383838">pg&#45;rtb&#45;private2&#45;us&#45;east&#45;1b&#45;nat&#45;g...</text>
</g>
<!-- Route::::pg&#45;rtb&#45;private2&#45;us&#45;east&#45;1b&#45;nat&#45;gateway&#45;&gt;NatGateway::::pg&#45;nat&#45;public1&#45;us&#45;east&#45;1a -->
<g id="edge9" class="edge">
<title>Route::::pg&#45;rtb&#45;private2&#45;us&#45;east&#45;1b&#45;nat&#45;gateway&#45;&gt;NatGateway::::pg&#45;nat&#45;public1&#45;us&#45;east&#45;1a</title>
<path fill="none" stroke="#707070" d="M513.64,-404C533.85,-404 554.55,-404 574.32,-404"/>
<polygon fill="#707070" stroke="#707070" points="574.57,-407.5 584.57,-404 574.57,-400.5 574.57,-407.5"/>
</g>
<!-- RouteTable::::pg&#45;rtb&#45;private2&#45;us&#45;east&#45;1b -->
<g id="node9" class="node">
<title>RouteTable::::pg&#45;rtb&#45;private2&#45;us&#45;east&#45;1b</title>
<polygon fill="#e5e5e5" stroke="#dddddd" points="795,-509 584,-509 584,-451 795,-451 795,-509"/>
<text text-anchor="start" x="596.5" y="-489.2" font-family="Helvetica,sans-Serif" font-weight="bold" font-size="16.00" fill="#707070">EC2::RouteTable</text>
<text text-anchor="start" x="596.5" y="-464.2" font-family="Helvetica,sans-Serif" font-size="16.00" fill="#383838">pg&#45;rtb&#45;private2&#45;us&#45;east&#45;1b</text>
</g>
<!-- Route::::pg&#45;rtb&#45;private2&#45;us&#45;east&#45;1b&#45;nat&#45;gateway&#45;&gt;RouteTable::::pg&#45;rtb&#45;private2&#45;us&#45;east&#45;1b -->
<g id="edge8" class="edge">
<title>Route::::pg&#45;rtb&#45;private2&#45;us&#45;east&#45;1b&#45;nat&#45;gateway&#45;&gt;RouteTable::::pg&#45;rtb&#45;private2&#45;us&#45;east&#45;1b</title>
<path fill="none" stroke="#707070" d="M498.57,-433.06C523.27,-439.16 549.28,-445.59 573.87,-451.67"/>
<polygon fill="#707070" stroke="#707070" points="573.03,-455.07 583.58,-454.07 574.71,-448.27 573.03,-455.07"/>
</g>
<!-- Route::::pg&#45;rtb&#45;public&#45;igw -->
<g id="node7" class="node">
<title>Route::::pg&#45;rtb&#45;public&#45;igw</title>
<polygon fill="#e5e5e5" stroke="#dddddd" points="452,-281 308,-281 308,-223 452,-223 452,-281"/>
<text text-anchor="start" x="320" y="-261.2" font-family="Helvetica,sans-Serif" font-weight="bold" font-size="16.00" fill="#707070">EC2::Route</text>
<text text-anchor="start" x="320" y="-236.2" font-family="Helvetica,sans-Serif" font-size="16.00" fill="#383838">pg&#45;rtb&#45;public&#45;igw</text>
</g>
<!-- Route::::pg&#45;rtb&#45;public&#45;igw&#45;&gt;InternetGateway::::pg&#45;igw -->
<g id="edge11" class="edge">
<title>Route::::pg&#45;rtb&#45;public&#45;igw&#45;&gt;InternetGateway::::pg&#45;igw</title>
<path fill="none" stroke="#707070" d="M452.09,-240.14C473.17,-234.46 495.54,-226.14 514,-214 535.11,-200.12 527.17,-180.82 550,-170 653.97,-120.73 788.19,-135.1 879.77,-154.79"/>
<polygon fill="#707070" stroke="#707070" points="879.08,-158.23 889.6,-156.97 880.59,-151.39 879.08,-158.23"/>
</g>
<!-- RouteTable::::pg&#45;rtb&#45;public -->
<g id="node10" class="node">
<title>RouteTable::::pg&#45;rtb&#45;public</title>
<polygon fill="#e5e5e5" stroke="#dddddd" points="765,-333 614,-333 614,-275 765,-275 765,-333"/>
<text text-anchor="start" x="626.5" y="-313.2" font-family="Helvetica,sans-Serif" font-weight="bold" font-size="16.00" fill="#707070">EC2::RouteTable</text>
<text text-anchor="start" x="626.5" y="-288.2" font-family="Helvetica,sans-Serif" font-size="16.00" fill="#383838">pg&#45;rtb&#45;public</text>
</g>
<!-- Route::::pg&#45;rtb&#45;public&#45;igw&#45;&gt;RouteTable::::pg&#45;rtb&#45;public -->
<g id="edge10" class="edge">
<title>Route::::pg&#45;rtb&#45;public&#45;igw&#45;&gt;RouteTable::::pg&#45;rtb&#45;public</title>
<path fill="none" stroke="#707070" d="M452.32,-264.06C497.54,-271.71 556.26,-281.64 603.84,-289.68"/>
<polygon fill="#707070" stroke="#707070" points="603.37,-293.15 613.82,-291.37 604.54,-286.25 603.37,-293.15"/>
</g>
<!-- Subnet::::pg&#45;subnet&#45;private1&#45;us&#45;east&#45;1a -->
<g id="node17" class="node">
<title>Subnet::::pg&#45;subnet&#45;private1&#45;us&#45;east&#45;1a</title>
<polygon fill="#e5e5e5" stroke="#dddddd" points="1106,-653 865,-653 865,-595 1106,-595 1106,-653"/>
<text text-anchor="start" x="877.5" y="-633.2" font-family="Helvetica,sans-Serif" font-weight="bold" font-size="16.00" fill="#707070">EC2::Subnet</text>
<text text-anchor="start" x="877.5" y="-608.2" font-family="Helvetica,sans-Serif" font-size="16.00" fill="#383838">pg&#45;subnet&#45;private1&#45;us&#45;east&#45;1a</text>
</g>
<!-- RouteTable::::pg&#45;rtb&#45;private1&#45;us&#45;east&#45;1a&#45;&gt;Subnet::::pg&#45;subnet&#45;private1&#45;us&#45;east&#45;1a -->
<g id="edge13" class="edge">
<title>RouteTable::::pg&#45;rtb&#45;private1&#45;us&#45;east&#45;1a&#45;&gt;Subnet::::pg&#45;subnet&#45;private1&#45;us&#45;east&#45;1a</title>
<path fill="none" stroke="#707070" d="M795.4,-654.87C814.65,-651.73 834.96,-648.41 854.84,-645.17"/>
<polygon fill="#707070" stroke="#707070" points="855.57,-648.6 864.87,-643.53 854.44,-641.69 855.57,-648.6"/>
</g>
<!-- RouteTable::::pg&#45;rtb&#45;private1&#45;us&#45;east&#45;1a&#45;&gt;Vpc::::pg&#45;vpc -->
<g id="edge12" class="edge">
<title>RouteTable::::pg&#45;rtb&#45;private1&#45;us&#45;east&#45;1a&#45;&gt;Vpc::::pg&#45;vpc</title>
<path fill="none" stroke="#707070" d="M795,-699.73C885.76,-717.29 1016.36,-726.13 1106,-662 1165.44,-619.48 1182.14,-529.24 1186.77,-477.21"/>
<polygon fill="#707070" stroke="#707070" points="1190.28,-477.27 1187.57,-467.03 1183.3,-476.72 1190.28,-477.27"/>
</g>
<!-- Subnet::::pg&#45;subnet&#45;private2&#45;us&#45;east&#45;1b -->
<g id="node18" class="node">
<title>Subnet::::pg&#45;subnet&#45;private2&#45;us&#45;east&#45;1b</title>
<polygon fill="#e5e5e5" stroke="#dddddd" points="1106,-577 865,-577 865,-519 1106,-519 1106,-577"/>
<text text-anchor="start" x="877.5" y="-557.2" font-family="Helvetica,sans-Serif" font-weight="bold" font-size="16.00" fill="#707070">EC2::Subnet</text>
<text text-anchor="start" x="877.5" y="-532.2" font-family="Helvetica,sans-Serif" font-size="16.00" fill="#383838">pg&#45;subnet&#45;private2&#45;us&#45;east&#45;1b</text>
</g>
<!-- RouteTable::::pg&#45;rtb&#45;private2&#45;us&#45;east&#45;1b&#45;&gt;Subnet::::pg&#45;subnet&#45;private2&#45;us&#45;east&#45;1b -->
<g id="edge15" class="edge">
<title>RouteTable::::pg&#45;rtb&#45;private2&#45;us&#45;east&#45;1b&#45;&gt;Subnet::::pg&#45;subnet&#45;private2&#45;us&#45;east&#45;1b</title>
<path fill="none" stroke="#707070" d="M795.4,-504.26C814.74,-508.74 835.15,-513.46 855.11,-518.07"/>
<polygon fill="#707070" stroke="#707070" points="854.34,-521.49 864.87,-520.33 855.92,-514.67 854.34,-521.49"/>
</g>
<!-- RouteTable::::pg&#45;rtb&#45;private2&#45;us&#45;east&#45;1b&#45;&gt;Vpc::::pg&#45;vpc -->
<g id="edge14" class="edge">
<title>RouteTable::::pg&#45;rtb&#45;private2&#45;us&#45;east&#45;1b&#45;&gt;Vpc::::pg&#45;vpc</title>
<path fill="none" stroke="#707070" d="M795.19,-489.65C898.84,-497.93 1049.94,-506.19 1106,-490 1118.96,-486.26 1131.85,-479.8 1143.45,-472.69"/>
<polygon fill="#707070" stroke="#707070" points="1145.53,-475.51 1152.05,-467.16 1141.75,-469.63 1145.53,-475.51"/>
</g>
<!-- RouteTable::::pg&#45;rtb&#45;public&#45;&gt;Subnet::::pg&#45;subnet&#45;public1&#45;us&#45;east&#45;1a -->
<g id="edge17" class="edge">
<title>RouteTable::::pg&#45;rtb&#45;public&#45;&gt;Subnet::::pg&#45;subnet&#45;public1&#45;us&#45;east&#45;1a</title>
<path fill="none" stroke="#707070" d="M765.07,-302.99C793.24,-302.6 826.14,-302.15 857.76,-301.72"/>
<polygon fill="#707070" stroke="#707070" points="858.02,-305.22 867.97,-301.59 857.93,-298.22 858.02,-305.22"/>
</g>
<!-- Subnet::::pg&#45;subnet&#45;public2&#45;us&#45;east&#45;1b -->
<g id="node20" class="node">
<title>Subnet::::pg&#45;subnet&#45;public2&#45;us&#45;east&#45;1b</title>
<polygon fill="#e5e5e5" stroke="#dddddd" points="1103,-405 868,-405 868,-347 1103,-347 1103,-405"/>
<text text-anchor="start" x="880.5" y="-385.2" font-family="Helvetica,sans-Serif" font-weight="bold" font-size="16.00" fill="#707070">EC2::Subnet</text>
<text text-anchor="start" x="880.5" y="-360.2" font-family="Helvetica,sans-Serif" font-size="16.00" fill="#383838">pg&#45;subnet&#45;public2&#45;us&#45;east&#45;1b</text>
</g>
<!-- RouteTable::::pg&#45;rtb&#45;public&#45;&gt;Subnet::::pg&#45;subnet&#45;public2&#45;us&#45;east&#45;1b -->
<g id="edge18" class="edge">
<title>RouteTable::::pg&#45;rtb&#45;public&#45;&gt;Subnet::::pg&#45;subnet&#45;public2&#45;us&#45;east&#45;1b</title>
<path fill="none" stroke="#707070" d="M765.07,-322.26C793.36,-329.19 826.42,-337.29 858.17,-345.06"/>
<polygon fill="#707070" stroke="#707070" points="857.43,-348.48 867.97,-347.46 859.09,-341.68 857.43,-348.48"/>
</g>
<!-- RouteTable::::pg&#45;rtb&#45;public&#45;&gt;Vpc::::pg&#45;vpc -->
<g id="edge16" class="edge">
<title>RouteTable::::pg&#45;rtb&#45;public&#45;&gt;Vpc::::pg&#45;vpc</title>
<path fill="none" stroke="#707070" d="M765.38,-281.87C795.97,-273.91 831.89,-265.93 865,-262 918.18,-255.69 1060.8,-233.27 1106,-262 1153.23,-292.02 1173.89,-357 1182.58,-399.05"/>
<polygon fill="#707070" stroke="#707070" points="1179.16,-399.8 1184.5,-408.95 1186.03,-398.47 1179.16,-399.8"/>
</g>
<!-- RouteTableAssociation::::rt&#45;assoc::pg&#45;rtb&#45;private1&#45;us&#45;east&#45;1a::pg&#45;subnet&#45;private1&#45;us&#45;east&#45;1a -->
<g id="node11" class="node">
<title>RouteTableAssociation::::rt&#45;assoc::pg&#45;rtb&#45;private1&#45;us&#45;east&#45;1a::pg&#45;subnet&#45;private1&#45;us&#45;east&#45;1a</title>
<polygon fill="#e5e5e5" stroke="#dddddd" points="512,-757 248,-757 248,-699 512,-699 512,-757"/>
<text text-anchor="start" x="260" y="-737.2" font-family="Helvetica,sans-Serif" font-weight="bold" font-size="16.00" fill="#707070">EC2::RouteTableAssociation</text>
<text text-anchor="start" x="260" y="-712.2" font-family="Helvetica,sans-Serif" font-size="16.00" fill="#383838">rt&#45;assoc::pg&#45;rtb&#45;private1&#45;us&#45;eas...</text>
</g>
<!-- RouteTableAssociation::::rt&#45;assoc::pg&#45;rtb&#45;private1&#45;us&#45;east&#45;1a::pg&#45;subnet&#45;private1&#45;us&#45;east&#45;1a&#45;&gt;RouteTable::::pg&#45;rtb&#45;private1&#45;us&#45;east&#45;1a -->
<g id="edge19" class="edge">
<title>RouteTableAssociation::::rt&#45;assoc::pg&#45;rtb&#45;private1&#45;us&#45;east&#45;1a::pg&#45;subnet&#45;private1&#45;us&#45;east&#45;1a&#45;&gt;RouteTable::::pg&#45;rtb&#45;private1&#45;us&#45;east&#45;1a</title>
<path fill="none" stroke="#707070" d="M512.3,-704.09C532.69,-700.38 553.61,-696.56 573.6,-692.92"/>
<polygon fill="#707070" stroke="#707070" points="574.44,-696.33 583.65,-691.1 573.18,-689.44 574.44,-696.33"/>
</g>
<!-- RouteTableAssociation::::rt&#45;assoc::pg&#45;rtb&#45;private1&#45;us&#45;east&#45;1a::pg&#45;subnet&#45;private1&#45;us&#45;east&#45;1a&#45;&gt;Subnet::::pg&#45;subnet&#45;private1&#45;us&#45;east&#45;1a -->
<g id="edge20" class="edge">
<title>RouteTableAssociation::::rt&#45;assoc::pg&#45;rtb&#45;private1&#45;us&#45;east&#45;1a::pg&#45;subnet&#45;private1&#45;us&#45;east&#45;1a&#45;&gt;Subnet::::pg&#45;subnet&#45;private1&#45;us&#45;east&#45;1a</title>
<path fill="none" stroke="#707070" d="M500.27,-698.87C505.06,-696.17 509.66,-693.22 514,-690 537.75,-672.36 524.19,-648.48 550,-634 576.06,-619.38 736.19,-619.02 854.52,-620.88"/>
<polygon fill="#707070" stroke="#707070" points="854.7,-624.38 864.75,-621.04 854.81,-617.38 854.7,-624.38"/>
</g>
<!-- RouteTableAssociation::::rt&#45;assoc::pg&#45;rtb&#45;private2&#45;us&#45;east&#45;1b::pg&#45;subnet&#45;private2&#45;us&#45;east&#45;1b -->
<g id="node12" class="node">
<title>RouteTableAssociation::::rt&#45;assoc::pg&#45;rtb&#45;private2&#45;us&#45;east&#45;1b::pg&#45;subnet&#45;private2&#45;us&#45;east&#45;1b</title>
<polygon fill="#e5e5e5" stroke="#dddddd" points="512,-509 248,-509 248,-451 512,-451 512,-509"/>
<text text-anchor="start" x="260" y="-489.2" font-family="Helvetica,sans-Serif" font-weight="bold" font-size="16.00" fill="#707070">EC2::RouteTableAssociation</text>
<text text-anchor="start" x="260" y="-464.2" font-family="Helvetica,sans-Serif" font-size="16.00" fill="#383838">rt&#45;assoc::pg&#45;rtb&#45;private2&#45;us&#45;eas...</text>
</g>
<!-- RouteTableAssociation::::rt&#45;assoc::pg&#45;rtb&#45;private2&#45;us&#45;east&#45;1b::pg&#45;subnet&#45;private2&#45;us&#45;east&#45;1b&#45;&gt;RouteTable::::pg&#45;rtb&#45;private2&#45;us&#45;east&#45;1b -->
<g id="edge21" class="edge">
<title>RouteTableAssociation::::rt&#45;assoc::pg&#45;rtb&#45;private2&#45;us&#45;east&#45;1b::pg&#45;subnet&#45;private2&#45;us&#45;east&#45;1b&#45;&gt;RouteTable::::pg&#45;rtb&#45;private2&#45;us&#45;east&#45;1b</title>
<path fill="none" stroke="#707070" d="M512.3,-480C532.69,-480 553.61,-480 573.6,-480"/>
<polygon fill="#707070" stroke="#707070" points="573.65,-483.5 583.65,-480 573.65,-476.5 573.65,-483.5"/>
</g>
<!-- RouteTableAssociation::::rt&#45;assoc::pg&#45;rtb&#45;private2&#45;us&#45;east&#45;1b::pg&#45;subnet&#45;private2&#45;us&#45;east&#45;1b&#45;&gt;Subnet::::pg&#45;subnet&#45;private2&#45;us&#45;east&#45;1b -->
<g id="edge22" class="edge">
<title>RouteTableAssociation::::rt&#45;assoc::pg&#45;rtb&#45;private2&#45;us&#45;east&#45;1b::pg&#45;subnet&#45;private2&#45;us&#45;east&#45;1b&#45;&gt;Subnet::::pg&#45;subnet&#45;private2&#45;us&#45;east&#45;1b</title>
<path fill="none" stroke="#707070" d="M499.68,-509.07C516.5,-512.49 533.63,-515.61 550,-518 565.02,-520.19 732.22,-531.44 854.73,-539.52"/>
<polygon fill="#707070" stroke="#707070" points="854.75,-543.03 864.95,-540.2 855.21,-536.05 854.75,-543.03"/>
</g>
<!-- RouteTableAssociation::::rt&#45;assoc::pg&#45;rtb&#45;public::pg&#45;subnet&#45;public1&#45;us&#45;east&#45;1a -->
<g id="node13" class="node">
<title>RouteTableAssociation::::rt&#45;assoc::pg&#45;rtb&#45;public::pg&#45;subnet&#45;public1&#45;us&#45;east&#45;1a</title>
<polygon fill="#e5e5e5" stroke="#dddddd" points="511,-129 249,-129 249,-71 511,-71 511,-129"/>
<text text-anchor="start" x="261" y="-109.2" font-family="Helvetica,sans-Serif" font-weight="bold" font-size="16.00" fill="#707070">EC2::RouteTableAssociation</text>
<text text-anchor="start" x="261" y="-84.2" font-family="Helvetica,sans-Serif" font-size="16.00" fill="#383838">rt&#45;assoc::pg&#45;rtb&#45;public::pg&#45;subn...</text>
</g>
<!-- RouteTableAssociation::::rt&#45;assoc::pg&#45;rtb&#45;public::pg&#45;subnet&#45;public1&#45;us&#45;east&#45;1a&#45;&gt;RouteTable::::pg&#45;rtb&#45;public -->
<g id="edge23" class="edge">
<title>RouteTableAssociation::::rt&#45;assoc::pg&#45;rtb&#45;public::pg&#45;subnet&#45;public1&#45;us&#45;east&#45;1a&#45;&gt;RouteTable::::pg&#45;rtb&#45;public</title>
<path fill="none" stroke="#707070" d="M503.59,-129.13C507.27,-131.84 510.76,-134.78 514,-138 554.41,-178.15 510.05,-220.4 550,-261 564.57,-275.81 584.13,-285.54 603.95,-291.92"/>
<polygon fill="#707070" stroke="#707070" points="603.1,-295.32 613.69,-294.8 605.09,-288.61 603.1,-295.32"/>
</g>
<!-- RouteTableAssociation::::rt&#45;assoc::pg&#45;rtb&#45;public::pg&#45;subnet&#45;public1&#45;us&#45;east&#45;1a&#45;&gt;Subnet::::pg&#45;subnet&#45;public1&#45;us&#45;east&#45;1a -->
<g id="edge24" class="edge">
<title>RouteTableAssociation::::rt&#45;assoc::pg&#45;rtb&#45;public::pg&#45;subnet&#45;public1&#45;us&#45;east&#45;1a&#45;&gt;Subnet::::pg&#45;subnet&#45;public1&#45;us&#45;east&#45;1a</title>
<path fill="none" stroke="#707070" d="M503.14,-129.08C506.98,-131.8 510.62,-134.76 514,-138 550.55,-172.99 510.04,-214.97 550,-246 574.55,-265.06 798.24,-261.56 829,-266 838.34,-267.35 847.95,-268.94 857.6,-270.69"/>
<polygon fill="#707070" stroke="#707070" points="857.18,-274.17 867.66,-272.57 858.47,-267.29 857.18,-274.17"/>
</g>
<!-- RouteTableAssociation::::rt&#45;assoc::pg&#45;rtb&#45;public::pg&#45;subnet&#45;public2&#45;us&#45;east&#45;1b -->
<g id="node14" class="node">
<title>RouteTableAssociation::::rt&#45;assoc::pg&#45;rtb&#45;public::pg&#45;subnet&#45;public2&#45;us&#45;east&#45;1b</title>
<polygon fill="#e5e5e5" stroke="#dddddd" points="511,-357 249,-357 249,-299 511,-299 511,-357"/>
<text text-anchor="start" x="261" y="-337.2" font-family="Helvetica,sans-Serif" font-weight="bold" font-size="16.00" fill="#707070">EC2::RouteTableAssociation</text>
<text text-anchor="start" x="261" y="-312.2" font-family="Helvetica,sans-Serif" font-size="16.00" fill="#383838">rt&#45;assoc::pg&#45;rtb&#45;public::pg&#45;subn...</text>
</g>
<!-- RouteTableAssociation::::rt&#45;assoc::pg&#45;rtb&#45;public::pg&#45;subnet&#45;public2&#45;us&#45;east&#45;1b&#45;&gt;RouteTable::::pg&#45;rtb&#45;public -->
<g id="edge25" class="edge">
<title>RouteTableAssociation::::rt&#45;assoc::pg&#45;rtb&#45;public::pg&#45;subnet&#45;public2&#45;us&#45;east&#45;1b&#45;&gt;RouteTable::::pg&#45;rtb&#45;public</title>
<path fill="none" stroke="#707070" d="M511.41,-317.82C542.61,-315.39 575.12,-312.85 603.64,-310.62"/>
<polygon fill="#707070" stroke="#707070" points="604.26,-314.09 613.96,-309.82 603.72,-307.11 604.26,-314.09"/>
</g>
<!-- RouteTableAssociation::::rt&#45;assoc::pg&#45;rtb&#45;public::pg&#45;subnet&#45;public2&#45;us&#45;east&#45;1b&#45;&gt;Subnet::::pg&#45;subnet&#45;public2&#45;us&#45;east&#45;1b -->
<g id="edge26" class="edge">
<title>RouteTableAssociation::::rt&#45;assoc::pg&#45;rtb&#45;public::pg&#45;subnet&#45;public2&#45;us&#45;east&#45;1b&#45;&gt;Subnet::::pg&#45;subnet&#45;public2&#45;us&#45;east&#45;1b</title>
<path fill="none" stroke="#707070" d="M511.09,-338.84C524.23,-339.91 537.38,-340.98 550,-342 653.56,-350.34 771.03,-359.52 857.7,-366.23"/>
<polygon fill="#707070" stroke="#707070" points="857.6,-369.73 867.85,-367.02 858.15,-362.75 857.6,-369.73"/>
</g>
<!-- SecurityGroup::::sg::pg&#45;vpc::pg -->
<g id="node15" class="node">
<title>SecurityGroup::::sg::pg&#45;vpc::pg</title>
<polygon fill="#e5e5e5" stroke="#dddddd" points="778,-791 601,-791 601,-733 778,-733 778,-791"/>
<text text-anchor="start" x="613.5" y="-771.2" font-family="Helvetica,sans-Serif" font-weight="bold" font-size="16.00" fill="#707070">EC2::SecurityGroup</text>
<text text-anchor="start" x="613.5" y="-746.2" font-family="Helvetica,sans-Serif" font-size="16.00" fill="#383838">sg::pg&#45;vpc::pg</text>
</g>
<!-- SecurityGroup::::sg::pg&#45;vpc::pg&#45;&gt;Vpc::::pg&#45;vpc -->
<g id="edge27" class="edge">
<title>SecurityGroup::::sg::pg&#45;vpc::pg&#45;&gt;Vpc::::pg&#45;vpc</title>
<path fill="none" stroke="#707070" d="M778.14,-771.76C870.63,-777.03 1015.3,-770.25 1106,-692 1169.29,-637.4 1184.35,-533.74 1187.73,-477.19"/>
<polygon fill="#707070" stroke="#707070" points="1191.22,-477.37 1188.23,-467.2 1184.23,-477.01 1191.22,-477.37"/>
</g>
<!-- SecurityGroupRuleIngress::::sg::pg&#45;vpc::pg&#45;rule&#45;ingress&#45;tcp&#45;5432 -->
<g id="node16" class="node">
<title>SecurityGroupRuleIngress::::sg::pg&#45;vpc::pg&#45;rule&#45;ingress&#45;tcp&#45;5432</title>
<polygon fill="#e5e5e5" stroke="#dddddd" points="514,-853 246,-853 246,-795 514,-795 514,-853"/>
<text text-anchor="start" x="258" y="-833.2" font-family="Helvetica,sans-Serif" font-weight="bold" font-size="16.00" fill="#707070">EC2::SecurityGroupRuleIngress</text>
<text text-anchor="start" x="258" y="-808.2" font-family="Helvetica,sans-Serif" font-size="16.00" fill="#383838">sg::pg&#45;vpc::pg&#45;rule&#45;ingress&#45;tcp&#45;...</text>
</g>
<!-- SecurityGroupRuleIngress::::sg::pg&#45;vpc::pg&#45;rule&#45;ingress&#45;tcp&#45;5432&#45;&gt;SecurityGroup::::sg::pg&#45;vpc::pg -->
<g id="edge28" class="edge">
<title>SecurityGroupRuleIngress::::sg::pg&#45;vpc::pg&#45;rule&#45;ingress&#45;tcp&#45;5432&#45;&gt;SecurityGroup::::sg::pg&#45;vpc::pg</title>
<path fill="none" stroke="#707070" d="M514.09,-797.17C539.91,-791.96 566.52,-786.59 590.94,-781.67"/>
<polygon fill="#707070" stroke="#707070" points="591.79,-785.07 600.9,-779.66 590.41,-778.21 591.79,-785.07"/>
</g>
<!-- Subnet::::pg&#45;subnet&#45;private1&#45;us&#45;east&#45;1a&#45;&gt;Vpc::::pg&#45;vpc -->
<g id="edge29" class="edge">
<title>Subnet::::pg&#45;subnet&#45;private1&#45;us&#45;east&#45;1a&#45;&gt;Vpc::::pg&#45;vpc</title>
<path fill="none" stroke="#707070" d="M1093.36,-594.91C1097.8,-592.2 1102.04,-589.24 1106,-586 1140.94,-557.46 1163.62,-510 1176.2,-476.53"/>
<polygon fill="#707070" stroke="#707070" points="1179.51,-477.65 1179.63,-467.06 1172.93,-475.27 1179.51,-477.65"/>
</g>
<!-- Subnet::::pg&#45;subnet&#45;private2&#45;us&#45;east&#45;1b&#45;&gt;Vpc::::pg&#45;vpc -->
<g id="edge30" class="edge">
<title>Subnet::::pg&#45;subnet&#45;private2&#45;us&#45;east&#45;1b&#45;&gt;Vpc::::pg&#45;vpc</title>
<path fill="none" stroke="#707070" d="M1077.35,-519C1087.24,-514.76 1096.97,-510.09 1106,-505 1121.3,-496.36 1136.64,-484.88 1149.86,-473.87"/>
<polygon fill="#707070" stroke="#707070" points="1152.47,-476.25 1157.81,-467.1 1147.92,-470.92 1152.47,-476.25"/>
</g>
<!-- Subnet::::pg&#45;subnet&#45;public1&#45;us&#45;east&#45;1a&#45;&gt;Vpc::::pg&#45;vpc -->
<g id="edge31" class="edge">
<title>Subnet::::pg&#45;subnet&#45;public1&#45;us&#45;east&#45;1a&#45;&gt;Vpc::::pg&#45;vpc</title>
<path fill="none" stroke="#707070" d="M1090.9,-329.07C1096.15,-331.8 1101.22,-334.77 1106,-338 1129.93,-354.17 1150.6,-379.26 1165.26,-400.26"/>
<polygon fill="#707070" stroke="#707070" points="1162.46,-402.36 1170.97,-408.67 1168.25,-398.43 1162.46,-402.36"/>
</g>
<!-- Subnet::::pg&#45;subnet&#45;public2&#45;us&#45;east&#45;1b&#45;&gt;Vpc::::pg&#45;vpc -->
<g id="edge32" class="edge">
<title>Subnet::::pg&#45;subnet&#45;public2&#45;us&#45;east&#45;1b&#45;&gt;Vpc::::pg&#45;vpc</title>
<path fill="none" stroke="#707070" d="M1080.99,-405C1098.51,-410.38 1116.29,-415.84 1132.21,-420.72"/>
<polygon fill="#707070" stroke="#707070" points="1131.28,-424.1 1141.87,-423.69 1133.33,-417.41 1131.28,-424.1"/>
</g>
<!-- Role::::rds&#45;monitoring&#45;role -->
<g id="node22" class="node">
<title>Role::::rds&#45;monitoring&#45;role</title>
<polygon fill="#e5e5e5" stroke="#dddddd" points="460,-205 300,-205 300,-147 460,-147 460,-205"/>
<text text-anchor="start" x="312" y="-185.2" font-family="Helvetica,sans-Serif" font-weight="bold" font-size="16.00" fill="#707070">IAM::Role</text>
<text text-anchor="start" x="312" y="-160.2" font-family="Helvetica,sans-Serif" font-size="16.00" fill="#383838">rds&#45;monitoring&#45;role</text>
</g>
<!-- DBCluster::::database&#45;1 -->
<g id="node23" class="node">
<title>DBCluster::::database&#45;1</title>
<polygon fill="#e5e5e5" stroke="#dddddd" points="452.5,-681 307.5,-681 307.5,-623 452.5,-623 452.5,-681"/>
<text text-anchor="start" x="320" y="-661.2" font-family="Helvetica,sans-Serif" font-weight="bold" font-size="16.00" fill="#707070">RDS::DBCluster</text>
<text text-anchor="start" x="320" y="-636.2" font-family="Helvetica,sans-Serif" font-size="16.00" fill="#383838">database&#45;1</text>
</g>
<!-- DBCluster::::database&#45;1&#45;&gt;SecurityGroup::::sg::pg&#45;vpc::pg -->
<g id="edge34" class="edge">
<title>DBCluster::::database&#45;1&#45;&gt;SecurityGroup::::sg::pg&#45;vpc::pg</title>
<path fill="none" stroke="#707070" d="M452.78,-669.27C472.91,-674.98 494.59,-681.96 514,-690 530.91,-697 533.39,-702.32 550,-710 564.48,-716.7 580.08,-723.2 595.42,-729.22"/>
<polygon fill="#707070" stroke="#707070" points="594.33,-732.55 604.92,-732.9 596.86,-726.02 594.33,-732.55"/>
</g>
<!-- DBSubnetGroup::::default&#45;vpc&#45;07c0392e5e3359f2e -->
<g id="node25" class="node">
<title>DBSubnetGroup::::default&#45;vpc&#45;07c0392e5e3359f2e</title>
<polygon fill="#e5e5e5" stroke="#dddddd" points="818,-605 561,-605 561,-547 818,-547 818,-605"/>
<text text-anchor="start" x="573.5" y="-585.2" font-family="Helvetica,sans-Serif" font-weight="bold" font-size="16.00" fill="#707070">RDS::DBSubnetGroup</text>
<text text-anchor="start" x="573.5" y="-560.2" font-family="Helvetica,sans-Serif" font-size="16.00" fill="#383838">default&#45;vpc&#45;07c0392e5e3359f2e</text>
</g>
<!-- DBCluster::::database&#45;1&#45;&gt;DBSubnetGroup::::default&#45;vpc&#45;07c0392e5e3359f2e -->
<g id="edge33" class="edge">
<title>DBCluster::::database&#45;1&#45;&gt;DBSubnetGroup::::default&#45;vpc&#45;07c0392e5e3359f2e</title>
<path fill="none" stroke="#707070" d="M452.71,-634.28C484.96,-626.31 524.03,-616.65 561.01,-607.51"/>
<polygon fill="#707070" stroke="#707070" points="562,-610.87 570.87,-605.07 560.32,-604.07 562,-610.87"/>
</g>
<!-- DBInstance::::database&#45;1&#45;instance&#45;1 -->
<g id="node24" class="node">
<title>DBInstance::::database&#45;1&#45;instance&#45;1</title>
<polygon fill="#e5e5e5" stroke="#dddddd" points="210,-657 24,-657 24,-599 210,-599 210,-657"/>
<text text-anchor="start" x="36" y="-637.2" font-family="Helvetica,sans-Serif" font-weight="bold" font-size="16.00" fill="#707070">RDS::DBInstance</text>
<text text-anchor="start" x="36" y="-612.2" font-family="Helvetica,sans-Serif" font-size="16.00" fill="#383838">database&#45;1&#45;instance&#45;1</text>
</g>
<!-- DBInstance::::database&#45;1&#45;instance&#45;1&#45;&gt;SecurityGroup::::sg::pg&#45;vpc::pg -->
<g id="edge37" class="edge">
<title>DBInstance::::database&#45;1&#45;instance&#45;1&#45;&gt;SecurityGroup::::sg::pg&#45;vpc::pg</title>
<path fill="none" stroke="#707070" d="M134.58,-657.03C155.58,-690.53 195.23,-743.85 246,-766 305.49,-791.96 479.23,-781.91 590.48,-772.07"/>
<polygon fill="#707070" stroke="#707070" points="591.07,-775.53 600.71,-771.15 590.44,-768.56 591.07,-775.53"/>
</g>
<!-- DBInstance::::database&#45;1&#45;instance&#45;1&#45;&gt;Role::::rds&#45;monitoring&#45;role -->
<g id="edge38" class="edge">
<title>DBInstance::::database&#45;1&#45;instance&#45;1&#45;&gt;Role::::rds&#45;monitoring&#45;role</title>
<path fill="none" stroke="#707070" d="M118.07,-598.92C119.89,-523.93 135.37,-322.27 246,-214 258.19,-202.07 273.87,-193.83 290.14,-188.16"/>
<polygon fill="#707070" stroke="#707070" points="291.3,-191.46 299.78,-185.1 289.19,-184.79 291.3,-191.46"/>
</g>
<!-- DBInstance::::database&#45;1&#45;instance&#45;1&#45;&gt;DBCluster::::database&#45;1 -->
<g id="edge35" class="edge">
<title>DBInstance::::database&#45;1&#45;instance&#45;1&#45;&gt;DBCluster::::database&#45;1</title>
<path fill="none" stroke="#707070" d="M210.02,-636.46C238.51,-639.08 269.7,-641.95 297.43,-644.5"/>
<polygon fill="#707070" stroke="#707070" points="297.21,-647.99 307.48,-645.42 297.85,-641.02 297.21,-647.99"/>
</g>
<!-- DBInstance::::database&#45;1&#45;instance&#45;1&#45;&gt;DBSubnetGroup::::default&#45;vpc&#45;07c0392e5e3359f2e -->
<g id="edge36" class="edge">
<title>DBInstance::::database&#45;1&#45;instance&#45;1&#45;&gt;DBSubnetGroup::::default&#45;vpc&#45;07c0392e5e3359f2e</title>
<path fill="none" stroke="#707070" d="M210.25,-617.53C222.27,-616.27 234.42,-615.06 246,-614 364.94,-603.06 395.03,-604.57 514,-594 525.97,-592.94 538.39,-591.77 550.85,-590.57"/>
<polygon fill="#707070" stroke="#707070" points="551.22,-594.05 560.83,-589.59 550.54,-587.08 551.22,-594.05"/>
</g>
<!-- DBSubnetGroup::::default&#45;vpc&#45;07c0392e5e3359f2e&#45;&gt;Subnet::::pg&#45;subnet&#45;private1&#45;us&#45;east&#45;1a -->
<g id="edge40" class="edge">
<title>DBSubnetGroup::::default&#45;vpc&#45;07c0392e5e3359f2e&#45;&gt;Subnet::::pg&#45;subnet&#45;private1&#45;us&#45;east&#45;1a</title>
<path fill="none" stroke="#707070" d="M818.17,-596.84C830.28,-598.82 842.56,-600.83 854.69,-602.81"/>
<polygon fill="#707070" stroke="#707070" points="854.4,-606.3 864.83,-604.46 855.52,-599.4 854.4,-606.3"/>
</g>
<!-- DBSubnetGroup::::default&#45;vpc&#45;07c0392e5e3359f2e&#45;&gt;Subnet::::pg&#45;subnet&#45;private2&#45;us&#45;east&#45;1b -->
<g id="edge39" class="edge">
<title>DBSubnetGroup::::default&#45;vpc&#45;07c0392e5e3359f2e&#45;&gt;Subnet::::pg&#45;subnet&#45;private2&#45;us&#45;east&#45;1b</title>
<path fill="none" stroke="#707070" d="M818.17,-563.84C830.28,-562.69 842.56,-561.52 854.69,-560.36"/>
<polygon fill="#707070" stroke="#707070" points="855.21,-563.83 864.83,-559.4 854.54,-556.86 855.21,-563.83"/>
</g>
<!-- DBSubnetGroup::::default&#45;vpc&#45;07c0392e5e3359f2e&#45;&gt;Subnet::::pg&#45;subnet&#45;public1&#45;us&#45;east&#45;1a -->
<g id="edge42" class="edge">
<title>DBSubnetGroup::::default&#45;vpc&#45;07c0392e5e3359f2e&#45;&gt;Subnet::::pg&#45;subnet&#45;public1&#45;us&#45;east&#45;1a</title>
<path fill="none" stroke="#707070" d="M793.02,-546.97C806.65,-539.4 819.26,-529.9 829,-518 880.67,-454.86 810.58,-398.79 865,-338 865.64,-337.29 866.28,-336.59 866.94,-335.91"/>
<polygon fill="#707070" stroke="#707070" points="869.43,-338.38 874.48,-329.07 864.72,-333.2 869.43,-338.38"/>
</g>
<!-- DBSubnetGroup::::default&#45;vpc&#45;07c0392e5e3359f2e&#45;&gt;Subnet::::pg&#45;subnet&#45;public2&#45;us&#45;east&#45;1b -->
<g id="edge41" class="edge">
<title>DBSubnetGroup::::default&#45;vpc&#45;07c0392e5e3359f2e&#45;&gt;Subnet::::pg&#45;subnet&#45;public2&#45;us&#45;east&#45;1b</title>
<path fill="none" stroke="#707070" d="M789.51,-546.86C804.11,-539.26 817.94,-529.78 829,-518 862.47,-482.34 829.98,-448.15 865,-414 865.94,-413.08 866.91,-412.18 867.89,-411.31"/>
<polygon fill="#707070" stroke="#707070" points="870.17,-413.97 875.82,-405.02 865.81,-408.49 870.17,-413.97"/>
</g>
</g>
</svg>
