<?xml version="1.0" encoding="UTF-8" standalone="no"?>
<!DOCTYPE svg PUBLIC "-//W3C//DTD SVG 1.1//EN"
 "http://www.w3.org/Graphics/SVG/1.1/DTD/svg11.dtd">
<!-- Generated by graphviz version 7.1.0 (20230121.1956)
 -->
<!-- Title: graphname Pages: 1 -->
<svg width="754pt" height="389pt"
 viewBox="0.00 0.00 754.00 389.00" xmlns="http://www.w3.org/2000/svg" xmlns:xlink="http://www.w3.org/1999/xlink">
<g id="graph0" class="graph" transform="scale(1 1) rotate(0) translate(4 385)">
<title>graphname</title>
<polygon fill="#fafafa" stroke="none" points="-4,4 -4,-385 750,-385 750,4 -4,4"/>
<text text-anchor="start" x="274" y="-356.4" font-family="Helvetica,sans-Serif" font-weight="bold" font-size="22.00" fill="#383838">Project lambda&#45;sfn</text>
<text text-anchor="start" x="369" y="-340.8" font-family="Helvetica,sans-Serif" font-size="14.00"> &#160;</text>
<text text-anchor="start" x="274" y="-319.2" font-family="Helvetica,sans-Serif" font-weight="bold" font-size="16.00" fill="#707070">Target Diagram</text>
<g id="clust1" class="cluster">
<title>cluster_aws</title>
<polygon fill="#f5f5f5" stroke="#f5f5f5" points="8,-8 8,-297 738,-297 738,-8 8,-8"/>
<text text-anchor="start" x="311" y="-23" font-family="Helvetica,sans-Serif" font-weight="bold" font-size="20.00" fill="#707070">Provider aws</text>
</g>
<g id="clust2" class="cluster">
<title>cluster_aws_</title>
<polygon fill="#eeeeee" stroke="#eeeeee" points="16,-54 16,-289 730,-289 730,-54 16,-54"/>
<text text-anchor="start" x="372.86" y="-58.3" font-family="Helvetica,sans-Serif" font-size="1.00" fill="#383838"> </text>
</g>
<!-- LogGroup::stepfunctions/StateMachine -->
<g id="node1" class="node">
<title>LogGroup::stepfunctions/StateMachine</title>
<polygon fill="#e5e5e5" stroke="#dddddd" points="682.5,-129 439.5,-129 439.5,-71 682.5,-71 682.5,-129"/>
<text text-anchor="start" x="452" y="-109.2" font-family="Helvetica,sans-Serif" font-weight="bold" font-size="16.00" fill="#707070">CloudWatchLogs::LogGroup</text>
<text text-anchor="start" x="452" y="-84.2" font-family="Helvetica,sans-Serif" font-size="16.00" fill="#383838">stepfunctions/StateMachine</text>
</g>
<!-- Role::sam&#45;app&#45;LambdaProxyRole&#45;1Y0SLC4P2GYCW -->
<g id="node2" class="node">
<title>Role::sam&#45;app&#45;LambdaProxyRole&#45;1Y0SLC4P2GYCW</title>
<polygon fill="#e5e5e5" stroke="#dddddd" points="722,-281 400,-281 400,-223 722,-223 722,-281"/>
<text text-anchor="start" x="412" y="-261.2" font-family="Helvetica,sans-Serif" font-weight="bold" font-size="16.00" fill="#707070">IAM::Role</text>
<text text-anchor="start" x="412" y="-236.2" font-family="Helvetica,sans-Serif" font-size="16.00" fill="#383838">sam&#45;app&#45;LambdaProxyRole&#45;1Y0SLC4P...</text>
</g>
<!-- Role::sam&#45;app&#45;StateMachineRole&#45;1E15UFX2LMRYB -->
<g id="node3" class="node">
<title>Role::sam&#45;app&#45;StateMachineRole&#45;1E15UFX2LMRYB</title>
<polygon fill="#e5e5e5" stroke="#dddddd" points="717.5,-205 404.5,-205 404.5,-147 717.5,-147 717.5,-205"/>
<text text-anchor="start" x="417" y="-185.2" font-family="Helvetica,sans-Serif" font-weight="bold" font-size="16.00" fill="#707070">IAM::Role</text>
<text text-anchor="start" x="417" y="-160.2" font-family="Helvetica,sans-Serif" font-size="16.00" fill="#383838">sam&#45;app&#45;StateMachineRole&#45;1E15UFX...</text>
</g>
<!-- Function::sam&#45;app&#45;LambdaProxy&#45;3WUHNeLsP7OO -->
<g id="node4" class="node">
<title>Function::sam&#45;app&#45;LambdaProxy&#45;3WUHNeLsP7OO</title>
<polygon fill="#e5e5e5" stroke="#dddddd" points="364,-281 24,-281 24,-223 364,-223 364,-281"/>
<text text-anchor="start" x="36" y="-261.2" font-family="Helvetica,sans-Serif" font-weight="bold" font-size="16.00" fill="#707070">Lambda::Function</text>
<text text-anchor="start" x="36" y="-236.2" font-family="Helvetica,sans-Serif" font-size="16.00" fill="#383838">sam&#45;app&#45;LambdaProxy&#45;3WUHNeLsP7OO...</text>
</g>
<!-- Function::sam&#45;app&#45;LambdaProxy&#45;3WUHNeLsP7OO&#45;&gt;Role::sam&#45;app&#45;LambdaProxyRole&#45;1Y0SLC4P2GYCW -->
<g id="edge1" class="edge">
<title>Function::sam&#45;app&#45;LambdaProxy&#45;3WUHNeLsP7OO&#45;&gt;Role::sam&#45;app&#45;LambdaProxyRole&#45;1Y0SLC4P2GYCW</title>
<path fill="none" stroke="#707070" d="M364.41,-252C372.39,-252 380.4,-252 388.39,-252"/>
<polygon fill="#707070" stroke="#707070" points="388.13,-255.5 398.13,-252 388.13,-248.5 388.13,-255.5"/>
</g>
<!-- StateMachine::StateMachine&#45;QcjYVBBtLAi1 -->
<g id="node5" class="node">
<title>StateMachine::StateMachine&#45;QcjYVBBtLAi1</title>
<polygon fill="#e5e5e5" stroke="#dddddd" points="319,-167 69,-167 69,-109 319,-109 319,-167"/>
<text text-anchor="start" x="81" y="-147.2" font-family="Helvetica,sans-Serif" font-weight="bold" font-size="16.00" fill="#707070">StepFunctions::StateMachine</text>
<text text-anchor="start" x="81" y="-122.2" font-family="Helvetica,sans-Serif" font-size="16.00" fill="#383838">StateMachine&#45;QcjYVBBtLAi1</text>
</g>
<!-- StateMachine::StateMachine&#45;QcjYVBBtLAi1&#45;&gt;LogGroup::stepfunctions/StateMachine -->
<g id="edge3" class="edge">
<title>StateMachine::StateMachine&#45;QcjYVBBtLAi1&#45;&gt;LogGroup::stepfunctions/StateMachine</title>
<path fill="none" stroke="#707070" d="M319.34,-125.06C354.29,-121.42 392.42,-117.45 427.82,-113.76"/>
<polygon fill="#707070" stroke="#707070" points="428.11,-117.25 437.7,-112.73 427.39,-110.29 428.11,-117.25"/>
</g>
<!-- StateMachine::StateMachine&#45;QcjYVBBtLAi1&#45;&gt;Role::sam&#45;app&#45;StateMachineRole&#45;1E15UFX2LMRYB -->
<g id="edge2" class="edge">
<title>StateMachine::StateMachine&#45;QcjYVBBtLAi1&#45;&gt;Role::sam&#45;app&#45;StateMachineRole&#45;1E15UFX2LMRYB</title>
<path fill="none" stroke="#707070" d="M319.34,-150.94C342.99,-153.41 368.09,-156.02 392.81,-158.59"/>
<polygon fill="#707070" stroke="#707070" points="392.33,-162.06 402.64,-159.62 393.05,-155.1 392.33,-162.06"/>
</g>
</g>
</svg>
