<?xml version="1.0" encoding="UTF-8" standalone="no"?><svg xmlns="http://www.w3.org/2000/svg" xmlns:xlink="http://www.w3.org/1999/xlink" contentScriptType="application/ecmascript" contentStyleType="text/css" height="454px" preserveAspectRatio="none" style="width:565px;height:454px;background:#FFFFFF;" version="1.1" viewBox="0 0 565 454" width="565px" zoomAndPan="magnify"><defs><filter height="300%" id="f1v8osqx46apcc" width="300%" x="-1" y="-1"><feGaussianBlur result="blurOut" stdDeviation="2.0"/><feColorMatrix in="blurOut" result="blurOut2" type="matrix" values="0 0 0 0 0 0 0 0 0 0 0 0 0 0 0 0 0 0 .4 0"/><feOffset dx="4.0" dy="4.0" in="blurOut2" result="blurOut3"/><feBlend in="SourceGraphic" in2="blurOut3" mode="normal"/></filter></defs><g><rect fill="none" height="26.4883" style="stroke:none;stroke-width:1.0;" width="292" x="106.5" y="15"/><text fill="#000000" font-family="sans-serif" font-size="14" font-weight="bold" lengthAdjust="spacing" textLength="282" x="111.5" y="33.5352">Resources for project route53-resolver</text><rect fill="#F8F8F8" filter="url(#f1v8osqx46apcc)" height="36.4883" rx="12.5" ry="12.5" style="stroke:#383838;stroke-width:1.5;" width="52" x="10" y="226.9531"/><text fill="#000000" font-family="sans-serif" font-size="14" lengthAdjust="spacing" textLength="32" x="20" y="250.4883">Infra</text><rect fill="#F8F8F8" filter="url(#f1v8osqx46apcc)" height="36.4883" rx="12.5" ry="12.5" style="stroke:#383838;stroke-width:1.5;" width="46" x="112" y="226.9531"/><text fill="#000000" font-family="sans-serif" font-size="14" lengthAdjust="spacing" textLength="26" x="122" y="250.4883">aws</text><rect fill="#F8F8F8" filter="url(#f1v8osqx46apcc)" height="36.4883" rx="12.5" ry="12.5" style="stroke:#383838;stroke-width:1.5;" width="47" x="208" y="142.2207"/><text fill="#000000" font-family="sans-serif" font-size="14" lengthAdjust="spacing" textLength="27" x="218" y="165.7559">EC2</text><rect fill="#F8F8F8" filter="url(#f1v8osqx46apcc)" height="36.4883" rx="12.5" ry="12.5" style="stroke:#383838;stroke-width:1.5;" width="68" x="305" y="57.4883"/><text fill="#000000" font-family="sans-serif" font-size="14" lengthAdjust="spacing" textLength="48" x="315" y="81.0234">Vpc (1)</text><path d="M255,160.4648 L265,160.4648 C280,160.4648 280,75.7324 295,75.7324 L305,75.7324 " fill="none" style="stroke:#383838;stroke-width:1.0;"/><rect fill="#F8F8F8" filter="url(#f1v8osqx46apcc)" height="36.4883" rx="12.5" ry="12.5" style="stroke:#383838;stroke-width:1.5;" width="91" x="305" y="113.9766"/><text fill="#000000" font-family="sans-serif" font-size="14" lengthAdjust="spacing" textLength="71" x="315" y="137.5117">Subnet (2)</text><path d="M255,160.4648 L265,160.4648 C280,160.4648 280,132.2207 295,132.2207 L305,132.2207 " fill="none" style="stroke:#383838;stroke-width:1.0;"/><rect fill="#F8F8F8" filter="url(#f1v8osqx46apcc)" height="36.4883" rx="12.5" ry="12.5" style="stroke:#383838;stroke-width:1.5;" width="140" x="305" y="170.4648"/><text fill="#000000" font-family="sans-serif" font-size="14" lengthAdjust="spacing" textLength="120" x="315" y="194">SecurityGroup (1)</text><path d="M255,160.4648 L265,160.4648 C280,160.4648 280,188.709 295,188.709 L305,188.709 " fill="none" style="stroke:#383838;stroke-width:1.0;"/><rect fill="#F8F8F8" filter="url(#f1v8osqx46apcc)" height="36.4883" rx="12.5" ry="12.5" style="stroke:#383838;stroke-width:1.5;" width="220" x="305" y="226.9531"/><text fill="#000000" font-family="sans-serif" font-size="14" lengthAdjust="spacing" textLength="200" x="315" y="250.4883">SecurityGroupRuleIngress (1)</text><path d="M255,160.4648 L265,160.4648 C280,160.4648 280,245.1973 295,245.1973 L305,245.1973 " fill="none" style="stroke:#383838;stroke-width:1.0;"/><path d="M158,245.1973 L168,245.1973 C183,245.1973 183,160.4648 198,160.4648 L208,160.4648 " fill="none" style="stroke:#383838;stroke-width:1.0;"/><rect fill="#F8F8F8" filter="url(#f1v8osqx46apcc)" height="36.4883" rx="12.5" ry="12.5" style="stroke:#383838;stroke-width:1.5;" width="136" x="208" y="339.9297"/><text fill="#000000" font-family="sans-serif" font-size="14" lengthAdjust="spacing" textLength="116" x="218" y="363.4648">Route53Resolver</text><rect fill="#F8F8F8" filter="url(#f1v8osqx46apcc)" height="36.4883" rx="12.5" ry="12.5" style="stroke:#383838;stroke-width:1.5;" width="105" x="394" y="283.4414"/><text fill="#000000" font-family="sans-serif" font-size="14" lengthAdjust="spacing" textLength="85" x="404" y="306.9766">Endpoint (1)</text><path d="M344,358.1738 L354,358.1738 C369,358.1738 369,301.6855 384,301.6855 L394,301.6855 " fill="none" style="stroke:#383838;stroke-width:1.0;"/><rect fill="#F8F8F8" filter="url(#f1v8osqx46apcc)" height="36.4883" rx="12.5" ry="12.5" style="stroke:#383838;stroke-width:1.5;" width="73" x="394" y="339.9297"/><text fill="#000000" font-family="sans-serif" font-size="14" lengthAdjust="spacing" textLength="53" x="404" y="363.4648">Rule (1)</text><path d="M344,358.1738 L354,358.1738 C369,358.1738 369,358.1738 384,358.1738 L394,358.1738 " fill="none" style="stroke:#383838;stroke-width:1.0;"/><rect fill="#F8F8F8" filter="url(#f1v8osqx46apcc)" height="36.4883" rx="12.5" ry="12.5" style="stroke:#383838;stroke-width:1.5;" width="152" x="394" y="396.418"/><text fill="#000000" font-family="sans-serif" font-size="14" lengthAdjust="spacing" textLength="132" x="404" y="419.9531">RuleAssociation (1)</text><path d="M344,358.1738 L354,358.1738 C369,358.1738 369,414.6621 384,414.6621 L394,414.6621 " fill="none" style="stroke:#383838;stroke-width:1.0;"/><path d="M158,245.1973 L168,245.1973 C183,245.1973 183,358.1738 198,358.1738 L208,358.1738 " fill="none" style="stroke:#383838;stroke-width:1.0;"/><path d="M62,245.1973 L72,245.1973 C87,245.1973 87,245.1973 102,245.1973 L112,245.1973 " fill="none" style="stroke:#383838;stroke-width:1.0;"/><!--MD5=[42c4f8457b87c61cb4cef83e6e23a5fb]
@startmindmap
title Resources for project route53-resolver
skinparam monochrome true
+ Infra
++ aws
+++ EC2
++++ Vpc (1)
++++ Subnet (2)
++++ SecurityGroup (1)
++++ SecurityGroupRuleIngress (1)
+++ Route53Resolver
++++ Endpoint (1)
++++ Rule (1)
++++ RuleAssociation (1)
@endmindmap

PlantUML version 1.2021.8(Sat Jun 26 10:20:59 CEST 2021)
(GPL source distribution)
Java Runtime: OpenJDK Runtime Environment
JVM: OpenJDK 64-Bit Server VM
Default Encoding: UTF-8
Language: en
Country: GB
--></g></svg>