<?xml version="1.0" encoding="UTF-8" standalone="no"?><svg xmlns="http://www.w3.org/2000/svg" xmlns:xlink="http://www.w3.org/1999/xlink" contentScriptType="application/ecmascript" contentStyleType="text/css" height="172px" preserveAspectRatio="none" style="width:401px;height:172px;background:#FFFFFF;" version="1.1" viewBox="0 0 401 172" width="401px" zoomAndPan="magnify"><defs><filter height="300%" id="fkzwnsmt6qewa" width="300%" x="-1" y="-1"><feGaussianBlur result="blurOut" stdDeviation="2.0"/><feColorMatrix in="blurOut" result="blurOut2" type="matrix" values="0 0 0 0 0 0 0 0 0 0 0 0 0 0 0 0 0 0 .4 0"/><feOffset dx="4.0" dy="4.0" in="blurOut2" result="blurOut3"/><feBlend in="SourceGraphic" in2="blurOut3" mode="normal"/></filter></defs><g><rect fill="none" height="26.4883" style="stroke:none;stroke-width:1.0;" width="244" x="48.5" y="15"/><text fill="#000000" font-family="sans-serif" font-size="14" font-weight="bold" lengthAdjust="spacing" textLength="234" x="53.5" y="33.5352">Resources for project s3-simple</text><rect fill="#F8F8F8" filter="url(#fkzwnsmt6qewa)" height="36.4883" rx="12.5" ry="12.5" style="stroke:#383838;stroke-width:1.5;" width="52" x="10" y="85.7324"/><text fill="#000000" font-family="sans-serif" font-size="14" lengthAdjust="spacing" textLength="32" x="20" y="109.2676">Infra</text><rect fill="#F8F8F8" filter="url(#fkzwnsmt6qewa)" height="36.4883" rx="12.5" ry="12.5" style="stroke:#383838;stroke-width:1.5;" width="46" x="112" y="85.7324"/><text fill="#000000" font-family="sans-serif" font-size="14" lengthAdjust="spacing" textLength="26" x="122" y="109.2676">aws</text><rect fill="#F8F8F8" filter="url(#fkzwnsmt6qewa)" height="36.4883" rx="12.5" ry="12.5" style="stroke:#383838;stroke-width:1.5;" width="36" x="208" y="85.7324"/><text fill="#000000" font-family="sans-serif" font-size="14" lengthAdjust="spacing" textLength="16" x="218" y="109.2676">s3</text><rect fill="#F8F8F8" filter="url(#fkzwnsmt6qewa)" height="36.4883" rx="12.5" ry="12.5" style="stroke:#383838;stroke-width:1.5;" width="88" x="294" y="57.4883"/><text fill="#000000" font-family="sans-serif" font-size="14" lengthAdjust="spacing" textLength="68" x="304" y="81.0234">Bucket (1)</text><path d="M244,103.9766 L254,103.9766 C269,103.9766 269,75.7324 284,75.7324 L294,75.7324 " fill="none" style="stroke:#383838;stroke-width:1.0;"/><rect fill="#F8F8F8" filter="url(#fkzwnsmt6qewa)" height="36.4883" rx="12.5" ry="12.5" style="stroke:#383838;stroke-width:1.5;" width="87" x="294" y="113.9766"/><text fill="#000000" font-family="sans-serif" font-size="14" lengthAdjust="spacing" textLength="67" x="304" y="137.5117">Object (1)</text><path d="M244,103.9766 L254,103.9766 C269,103.9766 269,132.2207 284,132.2207 L294,132.2207 " fill="none" style="stroke:#383838;stroke-width:1.0;"/><path d="M158,103.9766 L168,103.9766 C183,103.9766 183,103.9766 198,103.9766 L208,103.9766 " fill="none" style="stroke:#383838;stroke-width:1.0;"/><path d="M62,103.9766 L72,103.9766 C87,103.9766 87,103.9766 102,103.9766 L112,103.9766 " fill="none" style="stroke:#383838;stroke-width:1.0;"/><!--MD5=[1155cf972cc0b85ce772540a6f4c6e0c]
@startmindmap
title Resources for project s3-simple
skinparam monochrome true
+ Infra
++ aws
+++ s3
++++ Bucket (1)
++++ Object (1)
@endmindmap

PlantUML version 1.2021.8(Sat Jun 26 05:20:59 BRT 2021)
(GPL source distribution)
Java Runtime: OpenJDK Runtime Environment
JVM: OpenJDK 64-Bit Server VM
Default Encoding: UTF-8
Language: en
Country: GB
--></g></svg>