<?xml version="1.0" encoding="UTF-8" standalone="no"?>
<!DOCTYPE svg PUBLIC "-//W3C//DTD SVG 1.1//EN"
 "http://www.w3.org/Graphics/SVG/1.1/DTD/svg11.dtd">
<!-- Generated by graphviz version 2.44.1 (20200629.0846)
 -->
<!-- Title: graphname Pages: 1 -->
<svg width="1184pt" height="1082pt"
 viewBox="0.00 0.00 1184.00 1082.00" xmlns="http://www.w3.org/2000/svg" xmlns:xlink="http://www.w3.org/1999/xlink">
<g id="graph0" class="graph" transform="scale(1 1) rotate(0) translate(4 1078)">
<title>graphname</title>
<polygon fill="white" stroke="transparent" points="-4,4 -4,-1078 1180,-1078 1180,4 -4,4"/>
<g id="clust1" class="cluster">
<title>cluster_aws</title>
<polygon fill="#f5f5f5" stroke="#f5f5f5" points="8,-8 8,-1066 1168,-1066 1168,-8 8,-8"/>
<text text-anchor="start" x="540" y="-1029.4" font-family="Helvetica,sans-Serif" font-weight="bold" font-size="42.00" fill="#383838">AWS</text>
</g>
<g id="clust2" class="cluster">
<title>cluster_aws_VPC</title>
<polygon fill="#eeeeee" stroke="#eeeeee" points="58,-512 58,-1004 1044,-1004 1044,-512 58,-512"/>
<text text-anchor="start" x="526.5" y="-981.8" font-family="Helvetica,sans-Serif" font-weight="bold" font-size="24.00" fill="#383838">VPC</text>
</g>
<g id="clust3" class="cluster">
<title>cluster_aws_EKS</title>
<polygon fill="#eeeeee" stroke="#eeeeee" points="16,-16 16,-504 1160,-504 1160,-16 16,-16"/>
<text text-anchor="start" x="563.5" y="-481.8" font-family="Helvetica,sans-Serif" font-weight="bold" font-size="24.00" fill="#383838">EKS</text>
</g>
<!-- Vpc::vpc -->
<g id="node1" class="node">
<title>Vpc::vpc</title>
<polygon fill="#e5e5e5" stroke="#dddddd" points="1036,-712 990,-712 990,-654 1036,-654 1036,-712"/>
<text text-anchor="start" x="998" y="-692.2" font-family="Helvetica,sans-Serif" font-weight="bold" font-size="16.00" fill="#707070">Vpc</text>
<text text-anchor="start" x="998" y="-667.2" font-family="Helvetica,sans-Serif" font-size="16.00" fill="#383838">vpc</text>
</g>
<!-- InternetGateway::internet&#45;gateway -->
<g id="node2" class="node">
<title>InternetGateway::internet&#45;gateway</title>
<polygon fill="#e5e5e5" stroke="#dddddd" points="450.5,-962 308.5,-962 308.5,-904 450.5,-904 450.5,-962"/>
<text text-anchor="start" x="316.5" y="-942.2" font-family="Helvetica,sans-Serif" font-weight="bold" font-size="16.00" fill="#707070">InternetGateway</text>
<text text-anchor="start" x="316.5" y="-917.2" font-family="Helvetica,sans-Serif" font-size="16.00" fill="#383838">internet&#45;gateway</text>
</g>
<!-- InternetGateway::internet&#45;gateway&#45;&gt;Vpc::vpc -->
<g id="edge1" class="edge">
<title>InternetGateway::internet&#45;gateway&#45;&gt;Vpc::vpc</title>
<path fill="none" stroke="#707070" d="M450.52,-955.41C544.77,-981.23 714.82,-1012.21 838,-946 927.08,-898.12 978.2,-782.41 999.76,-721.68"/>
<polygon fill="#707070" stroke="#707070" points="1003.12,-722.67 1003.09,-712.07 996.51,-720.38 1003.12,-722.67"/>
</g>
<!-- ElasticIpAddress::iep -->
<g id="node3" class="node">
<title>ElasticIpAddress::iep</title>
<polygon fill="#e5e5e5" stroke="#dddddd" points="756.5,-846 610.5,-846 610.5,-788 756.5,-788 756.5,-846"/>
<text text-anchor="start" x="618.5" y="-826.2" font-family="Helvetica,sans-Serif" font-weight="bold" font-size="16.00" fill="#707070">ElasticIpAddress</text>
<text text-anchor="start" x="618.5" y="-801.2" font-family="Helvetica,sans-Serif" font-size="16.00" fill="#383838">iep</text>
</g>
<!-- Subnet::subnet&#45;public&#45;a -->
<g id="node4" class="node">
<title>Subnet::subnet&#45;public&#45;a</title>
<polygon fill="#e5e5e5" stroke="#dddddd" points="747.5,-922 619.5,-922 619.5,-864 747.5,-864 747.5,-922"/>
<text text-anchor="start" x="627.5" y="-902.2" font-family="Helvetica,sans-Serif" font-weight="bold" font-size="16.00" fill="#707070">Subnet</text>
<text text-anchor="start" x="627.5" y="-877.2" font-family="Helvetica,sans-Serif" font-size="16.00" fill="#383838">subnet&#45;public&#45;a</text>
</g>
<!-- Subnet::subnet&#45;public&#45;a&#45;&gt;Vpc::vpc -->
<g id="edge2" class="edge">
<title>Subnet::subnet&#45;public&#45;a&#45;&gt;Vpc::vpc</title>
<path fill="none" stroke="#707070" d="M747.84,-885.17C776.69,-879.68 810.46,-870.44 838,-855 898.87,-820.86 953.29,-759.69 984.45,-720.25"/>
<polygon fill="#707070" stroke="#707070" points="987.36,-722.22 990.75,-712.18 981.84,-717.91 987.36,-722.22"/>
</g>
<!-- Subnet::subnet&#45;public&#45;b -->
<g id="node5" class="node">
<title>Subnet::subnet&#45;public&#45;b</title>
<polygon fill="#e5e5e5" stroke="#dddddd" points="747.5,-770 619.5,-770 619.5,-712 747.5,-712 747.5,-770"/>
<text text-anchor="start" x="627.5" y="-750.2" font-family="Helvetica,sans-Serif" font-weight="bold" font-size="16.00" fill="#707070">Subnet</text>
<text text-anchor="start" x="627.5" y="-725.2" font-family="Helvetica,sans-Serif" font-size="16.00" fill="#383838">subnet&#45;public&#45;b</text>
</g>
<!-- Subnet::subnet&#45;public&#45;b&#45;&gt;Vpc::vpc -->
<g id="edge3" class="edge">
<title>Subnet::subnet&#45;public&#45;b&#45;&gt;Vpc::vpc</title>
<path fill="none" stroke="#707070" d="M747.65,-729.82C817.17,-717.5 926.21,-698.19 979.92,-688.68"/>
<polygon fill="#707070" stroke="#707070" points="980.65,-692.11 989.89,-686.92 979.43,-685.21 980.65,-692.11"/>
</g>
<!-- RouteTable::route&#45;table&#45;public -->
<g id="node6" class="node">
<title>RouteTable::route&#45;table&#45;public</title>
<polygon fill="#e5e5e5" stroke="#dddddd" points="450.5,-886 308.5,-886 308.5,-828 450.5,-828 450.5,-886"/>
<text text-anchor="start" x="316.5" y="-866.2" font-family="Helvetica,sans-Serif" font-weight="bold" font-size="16.00" fill="#707070">RouteTable</text>
<text text-anchor="start" x="316.5" y="-841.2" font-family="Helvetica,sans-Serif" font-size="16.00" fill="#383838">route&#45;table&#45;public</text>
</g>
<!-- RouteTable::route&#45;table&#45;public&#45;&gt;Vpc::vpc -->
<g id="edge4" class="edge">
<title>RouteTable::route&#45;table&#45;public&#45;&gt;Vpc::vpc</title>
<path fill="none" stroke="#707070" d="M450.58,-875.11C465.17,-880.38 480.04,-886.95 493,-895 512.22,-906.93 508.09,-922.34 529,-931 592.44,-957.28 777.08,-962.68 838,-931 923.14,-886.73 975.3,-779.6 998.25,-721.69"/>
<polygon fill="#707070" stroke="#707070" points="1001.59,-722.75 1001.94,-712.16 995.06,-720.22 1001.59,-722.75"/>
</g>
<!-- RouteTable::route&#45;table&#45;public&#45;&gt;Subnet::subnet&#45;public&#45;a -->
<g id="edge5" class="edge">
<title>RouteTable::route&#45;table&#45;public&#45;&gt;Subnet::subnet&#45;public&#45;a</title>
<path fill="none" stroke="#707070" d="M450.54,-865.35C498.13,-871.02 560.94,-878.51 609.19,-884.26"/>
<polygon fill="#707070" stroke="#707070" points="608.92,-887.75 619.26,-885.46 609.74,-880.8 608.92,-887.75"/>
</g>
<!-- RouteTable::route&#45;table&#45;public&#45;&gt;Subnet::subnet&#45;public&#45;b -->
<g id="edge6" class="edge">
<title>RouteTable::route&#45;table&#45;public&#45;&gt;Subnet::subnet&#45;public&#45;b</title>
<path fill="none" stroke="#707070" d="M450.61,-839.51C465.28,-834.19 480.17,-827.44 493,-819 512.98,-805.86 508.49,-791.3 529,-779 553.22,-764.47 582.75,-755.49 609.43,-749.93"/>
<polygon fill="#707070" stroke="#707070" points="610.35,-753.32 619.49,-747.97 609.01,-746.45 610.35,-753.32"/>
</g>
<!-- Route::route&#45;public -->
<g id="node7" class="node">
<title>Route::route&#45;public</title>
<polygon fill="#e5e5e5" stroke="#dddddd" points="177.5,-908 76.5,-908 76.5,-850 177.5,-850 177.5,-908"/>
<text text-anchor="start" x="85" y="-888.2" font-family="Helvetica,sans-Serif" font-weight="bold" font-size="16.00" fill="#707070">Route</text>
<text text-anchor="start" x="85" y="-863.2" font-family="Helvetica,sans-Serif" font-size="16.00" fill="#383838">route&#45;public</text>
</g>
<!-- Route::route&#45;public&#45;&gt;InternetGateway::internet&#45;gateway -->
<g id="edge8" class="edge">
<title>Route::route&#45;public&#45;&gt;InternetGateway::internet&#45;gateway</title>
<path fill="none" stroke="#707070" d="M177.79,-889.73C212.25,-897.16 258.87,-907.21 298.5,-915.75"/>
<polygon fill="#707070" stroke="#707070" points="297.9,-919.21 308.41,-917.89 299.37,-912.36 297.9,-919.21"/>
</g>
<!-- Route::route&#45;public&#45;&gt;RouteTable::route&#45;table&#45;public -->
<g id="edge7" class="edge">
<title>Route::route&#45;public&#45;&gt;RouteTable::route&#45;table&#45;public</title>
<path fill="none" stroke="#707070" d="M177.79,-874.63C212.18,-871.61 258.67,-867.52 298.25,-864.05"/>
<polygon fill="#707070" stroke="#707070" points="298.76,-867.52 308.41,-863.16 298.14,-860.54 298.76,-867.52"/>
</g>
<!-- NatGateway::nat&#45;gateway -->
<g id="node8" class="node">
<title>NatGateway::nat&#45;gateway</title>
<polygon fill="#e5e5e5" stroke="#dddddd" points="434,-810 325,-810 325,-752 434,-752 434,-810"/>
<text text-anchor="start" x="333.5" y="-790.2" font-family="Helvetica,sans-Serif" font-weight="bold" font-size="16.00" fill="#707070">NatGateway</text>
<text text-anchor="start" x="333.5" y="-765.2" font-family="Helvetica,sans-Serif" font-size="16.00" fill="#383838">nat&#45;gateway</text>
</g>
<!-- NatGateway::nat&#45;gateway&#45;&gt;ElasticIpAddress::iep -->
<g id="edge10" class="edge">
<title>NatGateway::nat&#45;gateway&#45;&gt;ElasticIpAddress::iep</title>
<path fill="none" stroke="#707070" d="M434.14,-787.39C480.24,-792.89 547.44,-800.9 600.32,-807.2"/>
<polygon fill="#707070" stroke="#707070" points="600.01,-810.69 610.36,-808.4 600.84,-803.74 600.01,-810.69"/>
</g>
<!-- NatGateway::nat&#45;gateway&#45;&gt;Subnet::subnet&#45;public&#45;a -->
<g id="edge9" class="edge">
<title>NatGateway::nat&#45;gateway&#45;&gt;Subnet::subnet&#45;public&#45;a</title>
<path fill="none" stroke="#707070" d="M434.26,-793.67C453.65,-799.62 475.13,-807.91 493,-819 512.22,-830.93 509.3,-843.87 529,-855 553.48,-868.83 582.94,-877.67 609.48,-883.31"/>
<polygon fill="#707070" stroke="#707070" points="609,-886.78 619.49,-885.31 610.38,-879.92 609,-886.78"/>
</g>
<!-- Subnet::subnet&#45;private&#45;a -->
<g id="node9" class="node">
<title>Subnet::subnet&#45;private&#45;a</title>
<polygon fill="#e5e5e5" stroke="#dddddd" points="750.5,-654 616.5,-654 616.5,-596 750.5,-596 750.5,-654"/>
<text text-anchor="start" x="624.5" y="-634.2" font-family="Helvetica,sans-Serif" font-weight="bold" font-size="16.00" fill="#707070">Subnet</text>
<text text-anchor="start" x="624.5" y="-609.2" font-family="Helvetica,sans-Serif" font-size="16.00" fill="#383838">subnet&#45;private&#45;a</text>
</g>
<!-- Subnet::subnet&#45;private&#45;a&#45;&gt;Vpc::vpc -->
<g id="edge11" class="edge">
<title>Subnet::subnet&#45;private&#45;a&#45;&gt;Vpc::vpc</title>
<path fill="none" stroke="#707070" d="M750.77,-636.74C820.37,-649.06 926.9,-667.93 979.83,-677.3"/>
<polygon fill="#707070" stroke="#707070" points="979.52,-680.8 989.98,-679.1 980.74,-673.91 979.52,-680.8"/>
</g>
<!-- Subnet::subnet&#45;private&#45;b -->
<g id="node10" class="node">
<title>Subnet::subnet&#45;private&#45;b</title>
<polygon fill="#e5e5e5" stroke="#dddddd" points="750.5,-578 616.5,-578 616.5,-520 750.5,-520 750.5,-578"/>
<text text-anchor="start" x="624.5" y="-558.2" font-family="Helvetica,sans-Serif" font-weight="bold" font-size="16.00" fill="#707070">Subnet</text>
<text text-anchor="start" x="624.5" y="-533.2" font-family="Helvetica,sans-Serif" font-size="16.00" fill="#383838">subnet&#45;private&#45;b</text>
</g>
<!-- Subnet::subnet&#45;private&#45;b&#45;&gt;Vpc::vpc -->
<g id="edge12" class="edge">
<title>Subnet::subnet&#45;private&#45;b&#45;&gt;Vpc::vpc</title>
<path fill="none" stroke="#707070" d="M750.65,-561.4C778.17,-567.57 810.14,-576.08 838,-587 890.78,-607.68 947.49,-641.36 981.34,-662.84"/>
<polygon fill="#707070" stroke="#707070" points="979.54,-665.84 989.85,-668.28 983.32,-659.94 979.54,-665.84"/>
</g>
<!-- RouteTable::route&#45;table&#45;private&#45;a -->
<g id="node11" class="node">
<title>RouteTable::route&#45;table&#45;private&#45;a</title>
<polygon fill="#e5e5e5" stroke="#dddddd" points="460.5,-728 298.5,-728 298.5,-670 460.5,-670 460.5,-728"/>
<text text-anchor="start" x="306.5" y="-708.2" font-family="Helvetica,sans-Serif" font-weight="bold" font-size="16.00" fill="#707070">RouteTable</text>
<text text-anchor="start" x="306.5" y="-683.2" font-family="Helvetica,sans-Serif" font-size="16.00" fill="#383838">route&#45;table&#45;private&#45;a</text>
</g>
<!-- RouteTable::route&#45;table&#45;private&#45;a&#45;&gt;Vpc::vpc -->
<g id="edge13" class="edge">
<title>RouteTable::route&#45;table&#45;private&#45;a&#45;&gt;Vpc::vpc</title>
<path fill="none" stroke="#707070" d="M460.8,-696.97C600.9,-693.42 884.19,-686.24 979.72,-683.82"/>
<polygon fill="#707070" stroke="#707070" points="980,-687.31 989.9,-683.56 979.82,-680.31 980,-687.31"/>
</g>
<!-- RouteTable::route&#45;table&#45;private&#45;a&#45;&gt;Subnet::subnet&#45;private&#45;a -->
<g id="edge14" class="edge">
<title>RouteTable::route&#45;table&#45;private&#45;a&#45;&gt;Subnet::subnet&#45;private&#45;a</title>
<path fill="none" stroke="#707070" d="M460.64,-679.36C505.8,-668.3 561.9,-654.55 606.39,-643.65"/>
<polygon fill="#707070" stroke="#707070" points="607.39,-647.01 616.27,-641.23 605.73,-640.21 607.39,-647.01"/>
</g>
<!-- RouteTable::route&#45;table&#45;private&#45;b -->
<g id="node12" class="node">
<title>RouteTable::route&#45;table&#45;private&#45;b</title>
<polygon fill="#e5e5e5" stroke="#dddddd" points="460.5,-652 298.5,-652 298.5,-594 460.5,-594 460.5,-652"/>
<text text-anchor="start" x="306.5" y="-632.2" font-family="Helvetica,sans-Serif" font-weight="bold" font-size="16.00" fill="#707070">RouteTable</text>
<text text-anchor="start" x="306.5" y="-607.2" font-family="Helvetica,sans-Serif" font-size="16.00" fill="#383838">route&#45;table&#45;private&#45;b</text>
</g>
<!-- RouteTable::route&#45;table&#45;private&#45;b&#45;&gt;Vpc::vpc -->
<g id="edge15" class="edge">
<title>RouteTable::route&#45;table&#45;private&#45;b&#45;&gt;Vpc::vpc</title>
<path fill="none" stroke="#707070" d="M460.73,-648.09C482.66,-653.99 506.57,-659.56 529,-663 616.18,-676.38 885.78,-681.27 979.5,-682.59"/>
<polygon fill="#707070" stroke="#707070" points="979.73,-686.1 989.78,-682.73 979.83,-679.1 979.73,-686.1"/>
</g>
<!-- RouteTable::route&#45;table&#45;private&#45;b&#45;&gt;Subnet::subnet&#45;private&#45;b -->
<g id="edge16" class="edge">
<title>RouteTable::route&#45;table&#45;private&#45;b&#45;&gt;Subnet::subnet&#45;private&#45;b</title>
<path fill="none" stroke="#707070" d="M460.64,-603.36C505.8,-592.3 561.9,-578.55 606.39,-567.65"/>
<polygon fill="#707070" stroke="#707070" points="607.39,-571.01 616.27,-565.23 605.73,-564.21 607.39,-571.01"/>
</g>
<!-- Route::route&#45;private&#45;a -->
<g id="node13" class="node">
<title>Route::route&#45;private&#45;a</title>
<polygon fill="#e5e5e5" stroke="#dddddd" points="188,-788 66,-788 66,-730 188,-730 188,-788"/>
<text text-anchor="start" x="74" y="-768.2" font-family="Helvetica,sans-Serif" font-weight="bold" font-size="16.00" fill="#707070">Route</text>
<text text-anchor="start" x="74" y="-743.2" font-family="Helvetica,sans-Serif" font-size="16.00" fill="#383838">route&#45;private&#45;a</text>
</g>
<!-- Route::route&#45;private&#45;a&#45;&gt;NatGateway::nat&#45;gateway -->
<g id="edge18" class="edge">
<title>Route::route&#45;private&#45;a&#45;&gt;NatGateway::nat&#45;gateway</title>
<path fill="none" stroke="#707070" d="M188,-764.27C226.27,-767.63 275.81,-771.98 314.78,-775.4"/>
<polygon fill="#707070" stroke="#707070" points="314.69,-778.91 324.95,-776.3 315.3,-771.94 314.69,-778.91"/>
</g>
<!-- Route::route&#45;private&#45;a&#45;&gt;RouteTable::route&#45;table&#45;private&#45;a -->
<g id="edge17" class="edge">
<title>Route::route&#45;private&#45;a&#45;&gt;RouteTable::route&#45;table&#45;private&#45;a</title>
<path fill="none" stroke="#707070" d="M188,-744.63C218.04,-737.43 255.02,-728.58 288.38,-720.58"/>
<polygon fill="#707070" stroke="#707070" points="289.24,-723.98 298.15,-718.25 287.61,-717.17 289.24,-723.98"/>
</g>
<!-- Route::route&#45;private&#45;b -->
<g id="node14" class="node">
<title>Route::route&#45;private&#45;b</title>
<polygon fill="#e5e5e5" stroke="#dddddd" points="188,-682 66,-682 66,-624 188,-624 188,-682"/>
<text text-anchor="start" x="74" y="-662.2" font-family="Helvetica,sans-Serif" font-weight="bold" font-size="16.00" fill="#707070">Route</text>
<text text-anchor="start" x="74" y="-637.2" font-family="Helvetica,sans-Serif" font-size="16.00" fill="#383838">route&#45;private&#45;b</text>
</g>
<!-- Route::route&#45;private&#45;b&#45;&gt;NatGateway::nat&#45;gateway -->
<g id="edge20" class="edge">
<title>Route::route&#45;private&#45;b&#45;&gt;NatGateway::nat&#45;gateway</title>
<path fill="none" stroke="#707070" d="M171.33,-682.06C197.98,-699.25 233.2,-720.76 266,-737 281.63,-744.74 298.98,-752.1 315.28,-758.5"/>
<polygon fill="#707070" stroke="#707070" points="314.15,-761.81 324.74,-762.16 316.67,-755.29 314.15,-761.81"/>
</g>
<!-- Route::route&#45;private&#45;b&#45;&gt;RouteTable::route&#45;table&#45;private&#45;b -->
<g id="edge19" class="edge">
<title>Route::route&#45;private&#45;b&#45;&gt;RouteTable::route&#45;table&#45;private&#45;b</title>
<path fill="none" stroke="#707070" d="M188,-645.81C217.91,-642.23 254.7,-637.83 287.95,-633.84"/>
<polygon fill="#707070" stroke="#707070" points="288.63,-637.29 298.15,-632.62 287.8,-630.34 288.63,-637.29"/>
</g>
<!-- IamPolicy::AmazonEKSClusterPolicy -->
<g id="node15" class="node">
<title>IamPolicy::AmazonEKSClusterPolicy</title>
<polygon fill="#e5e5e5" stroke="#dddddd" points="1114,-424 912,-424 912,-366 1114,-366 1114,-424"/>
<text text-anchor="start" x="920" y="-404.2" font-family="Helvetica,sans-Serif" font-weight="bold" font-size="16.00" fill="#707070">IamPolicy</text>
<text text-anchor="start" x="920" y="-379.2" font-family="Helvetica,sans-Serif" font-size="16.00" fill="#383838">AmazonEKSClusterPolicy</text>
</g>
<!-- IamPolicy::AmazonEKSVPCResourceController -->
<g id="node16" class="node">
<title>IamPolicy::AmazonEKSVPCResourceController</title>
<polygon fill="#e5e5e5" stroke="#dddddd" points="1152,-348 874,-348 874,-290 1152,-290 1152,-348"/>
<text text-anchor="start" x="882" y="-328.2" font-family="Helvetica,sans-Serif" font-weight="bold" font-size="16.00" fill="#707070">IamPolicy</text>
<text text-anchor="start" x="882" y="-303.2" font-family="Helvetica,sans-Serif" font-size="16.00" fill="#383838">AmazonEKSVPCResourceController</text>
</g>
<!-- IamRole::role&#45;cluster -->
<g id="node17" class="node">
<title>IamRole::role&#45;cluster</title>
<polygon fill="#e5e5e5" stroke="#dddddd" points="732,-386 635,-386 635,-328 732,-328 732,-386"/>
<text text-anchor="start" x="643.5" y="-366.2" font-family="Helvetica,sans-Serif" font-weight="bold" font-size="16.00" fill="#707070">IamRole</text>
<text text-anchor="start" x="643.5" y="-341.2" font-family="Helvetica,sans-Serif" font-size="16.00" fill="#383838">role&#45;cluster</text>
</g>
<!-- IamRole::role&#45;cluster&#45;&gt;IamPolicy::AmazonEKSClusterPolicy -->
<g id="edge21" class="edge">
<title>IamRole::role&#45;cluster&#45;&gt;IamPolicy::AmazonEKSClusterPolicy</title>
<path fill="none" stroke="#707070" d="M732.12,-362.53C776.39,-367.66 843.98,-375.5 901.65,-382.2"/>
<polygon fill="#707070" stroke="#707070" points="901.59,-385.71 911.92,-383.39 902.39,-378.76 901.59,-385.71"/>
</g>
<!-- IamRole::role&#45;cluster&#45;&gt;IamPolicy::AmazonEKSVPCResourceController -->
<g id="edge22" class="edge">
<title>IamRole::role&#45;cluster&#45;&gt;IamPolicy::AmazonEKSVPCResourceController</title>
<path fill="none" stroke="#707070" d="M732.12,-351.47C766.99,-347.43 816.32,-341.7 863.88,-336.19"/>
<polygon fill="#707070" stroke="#707070" points="864.46,-339.64 873.99,-335.01 863.66,-332.69 864.46,-339.64"/>
</g>
<!-- IamPolicy::AmazonEKSWorkerNodePolicy -->
<g id="node18" class="node">
<title>IamPolicy::AmazonEKSWorkerNodePolicy</title>
<polygon fill="#e5e5e5" stroke="#dddddd" points="804,-82 563,-82 563,-24 804,-24 804,-82"/>
<text text-anchor="start" x="571.5" y="-62.2" font-family="Helvetica,sans-Serif" font-weight="bold" font-size="16.00" fill="#707070">IamPolicy</text>
<text text-anchor="start" x="571.5" y="-37.2" font-family="Helvetica,sans-Serif" font-size="16.00" fill="#383838">AmazonEKSWorkerNodePolicy</text>
</g>
<!-- IamPolicy::AmazonEC2ContainerRegistryReadOnly -->
<g id="node19" class="node">
<title>IamPolicy::AmazonEC2ContainerRegistryReadOnly</title>
<polygon fill="#e5e5e5" stroke="#dddddd" points="838,-158 529,-158 529,-100 838,-100 838,-158"/>
<text text-anchor="start" x="537.5" y="-138.2" font-family="Helvetica,sans-Serif" font-weight="bold" font-size="16.00" fill="#707070">IamPolicy</text>
<text text-anchor="start" x="537.5" y="-113.2" font-family="Helvetica,sans-Serif" font-size="16.00" fill="#383838">AmazonEC2ContainerRegistryReadOn...</text>
</g>
<!-- IamPolicy::AmazonEKS_CNI_Policy -->
<g id="node20" class="node">
<title>IamPolicy::AmazonEKS_CNI_Policy</title>
<polygon fill="#e5e5e5" stroke="#dddddd" points="781.5,-234 585.5,-234 585.5,-176 781.5,-176 781.5,-234"/>
<text text-anchor="start" x="593.5" y="-214.2" font-family="Helvetica,sans-Serif" font-weight="bold" font-size="16.00" fill="#707070">IamPolicy</text>
<text text-anchor="start" x="593.5" y="-189.2" font-family="Helvetica,sans-Serif" font-size="16.00" fill="#383838">AmazonEKS_CNI_Policy</text>
</g>
<!-- IamRole::role&#45;node&#45;group -->
<g id="node21" class="node">
<title>IamRole::role&#45;node&#45;group</title>
<polygon fill="#e5e5e5" stroke="#dddddd" points="445,-82 314,-82 314,-24 445,-24 445,-82"/>
<text text-anchor="start" x="322.5" y="-62.2" font-family="Helvetica,sans-Serif" font-weight="bold" font-size="16.00" fill="#707070">IamRole</text>
<text text-anchor="start" x="322.5" y="-37.2" font-family="Helvetica,sans-Serif" font-size="16.00" fill="#383838">role&#45;node&#45;group</text>
</g>
<!-- IamRole::role&#45;node&#45;group&#45;&gt;IamPolicy::AmazonEKSWorkerNodePolicy -->
<g id="edge23" class="edge">
<title>IamRole::role&#45;node&#45;group&#45;&gt;IamPolicy::AmazonEKSWorkerNodePolicy</title>
<path fill="none" stroke="#707070" d="M445.29,-53C476.65,-53 515.49,-53 552.59,-53"/>
<polygon fill="#707070" stroke="#707070" points="553,-56.5 563,-53 553,-49.5 553,-56.5"/>
</g>
<!-- IamRole::role&#45;node&#45;group&#45;&gt;IamPolicy::AmazonEC2ContainerRegistryReadOnly -->
<g id="edge24" class="edge">
<title>IamRole::role&#45;node&#45;group&#45;&gt;IamPolicy::AmazonEC2ContainerRegistryReadOnly</title>
<path fill="none" stroke="#707070" d="M445.16,-69.66C471.2,-76.34 501.52,-84.08 529,-91 537.41,-93.12 546.09,-95.29 554.84,-97.48"/>
<polygon fill="#707070" stroke="#707070" points="554.18,-100.92 564.73,-99.94 555.87,-94.13 554.18,-100.92"/>
</g>
<!-- IamRole::role&#45;node&#45;group&#45;&gt;IamPolicy::AmazonEKS_CNI_Policy -->
<g id="edge25" class="edge">
<title>IamRole::role&#45;node&#45;group&#45;&gt;IamPolicy::AmazonEKS_CNI_Policy</title>
<path fill="none" stroke="#707070" d="M445.04,-65.13C462.12,-70.78 479.52,-79.01 493,-91 520.92,-115.84 500.07,-143.34 529,-167 542.41,-177.97 558.54,-185.84 575.23,-191.47"/>
<polygon fill="#707070" stroke="#707070" points="574.52,-194.92 585.11,-194.54 576.59,-188.23 574.52,-194.92"/>
</g>
<!-- SecurityGroup::security&#45;group&#45;cluster -->
<g id="node22" class="node">
<title>SecurityGroup::security&#45;group&#45;cluster</title>
<polygon fill="#e5e5e5" stroke="#dddddd" points="770,-310 597,-310 597,-252 770,-252 770,-310"/>
<text text-anchor="start" x="605.5" y="-290.2" font-family="Helvetica,sans-Serif" font-weight="bold" font-size="16.00" fill="#707070">SecurityGroup</text>
<text text-anchor="start" x="605.5" y="-265.2" font-family="Helvetica,sans-Serif" font-size="16.00" fill="#383838">security&#45;group&#45;cluster</text>
</g>
<!-- SecurityGroup::security&#45;group&#45;cluster&#45;&gt;Vpc::vpc -->
<g id="edge26" class="edge">
<title>SecurityGroup::security&#45;group&#45;cluster&#45;&gt;Vpc::vpc</title>
<path fill="none" stroke="#707070" d="M770.19,-284.97C795.12,-290.27 820.35,-300.36 838,-319 896.8,-381.09 838.51,-430.2 874,-508 900.61,-566.34 950.6,-622.48 982.54,-654.82"/>
<polygon fill="#707070" stroke="#707070" points="980.31,-657.54 989.86,-662.13 985.26,-652.59 980.31,-657.54"/>
</g>
<!-- SecurityGroupRuleIngress::sg&#45;cluster&#45;rule&#45;ingress&#45;https -->
<g id="node23" class="node">
<title>SecurityGroupRuleIngress::sg&#45;cluster&#45;rule&#45;ingress&#45;https</title>
<polygon fill="#e5e5e5" stroke="#dddddd" points="489,-158 270,-158 270,-100 489,-100 489,-158"/>
<text text-anchor="start" x="278.5" y="-138.2" font-family="Helvetica,sans-Serif" font-weight="bold" font-size="16.00" fill="#707070">SecurityGroupRuleIngress</text>
<text text-anchor="start" x="278.5" y="-113.2" font-family="Helvetica,sans-Serif" font-size="16.00" fill="#383838">sg&#45;cluster&#45;rule&#45;ingress&#45;https</text>
</g>
<!-- SecurityGroupRuleIngress::sg&#45;cluster&#45;rule&#45;ingress&#45;https&#45;&gt;SecurityGroup::security&#45;group&#45;cluster -->
<g id="edge27" class="edge">
<title>SecurityGroupRuleIngress::sg&#45;cluster&#45;rule&#45;ingress&#45;https&#45;&gt;SecurityGroup::security&#45;group&#45;cluster</title>
<path fill="none" stroke="#707070" d="M481.37,-158.13C485.48,-160.83 489.38,-163.78 493,-167 520.92,-191.84 500.07,-219.34 529,-243 545.51,-256.5 566.14,-265.31 586.86,-271.03"/>
<polygon fill="#707070" stroke="#707070" points="586.15,-274.46 596.7,-273.52 587.87,-267.67 586.15,-274.46"/>
</g>
<!-- SecurityGroupRuleEgress::sg&#45;cluster&#45;rule&#45;egress -->
<g id="node24" class="node">
<title>SecurityGroupRuleEgress::sg&#45;cluster&#45;rule&#45;egress</title>
<polygon fill="#e5e5e5" stroke="#dddddd" points="487,-234 272,-234 272,-176 487,-176 487,-234"/>
<text text-anchor="start" x="280.5" y="-214.2" font-family="Helvetica,sans-Serif" font-weight="bold" font-size="16.00" fill="#707070">SecurityGroupRuleEgress</text>
<text text-anchor="start" x="280.5" y="-189.2" font-family="Helvetica,sans-Serif" font-size="16.00" fill="#383838">sg&#45;cluster&#45;rule&#45;egress</text>
</g>
<!-- SecurityGroupRuleEgress::sg&#45;cluster&#45;rule&#45;egress&#45;&gt;SecurityGroup::security&#45;group&#45;cluster -->
<g id="edge28" class="edge">
<title>SecurityGroupRuleEgress::sg&#45;cluster&#45;rule&#45;egress&#45;&gt;SecurityGroup::security&#45;group&#45;cluster</title>
<path fill="none" stroke="#707070" d="M487.14,-232.4C501.21,-235.98 515.45,-239.59 529,-243 547.7,-247.71 567.7,-252.69 586.88,-257.45"/>
<polygon fill="#707070" stroke="#707070" points="586.27,-260.91 596.82,-259.91 587.95,-254.11 586.27,-260.91"/>
</g>
<!-- SecurityGroup::security&#45;group&#45;node -->
<g id="node25" class="node">
<title>SecurityGroup::security&#45;group&#45;node</title>
<polygon fill="#e5e5e5" stroke="#dddddd" points="764,-462 603,-462 603,-404 764,-404 764,-462"/>
<text text-anchor="start" x="611.5" y="-442.2" font-family="Helvetica,sans-Serif" font-weight="bold" font-size="16.00" fill="#707070">SecurityGroup</text>
<text text-anchor="start" x="611.5" y="-417.2" font-family="Helvetica,sans-Serif" font-size="16.00" fill="#383838">security&#45;group&#45;node</text>
</g>
<!-- SecurityGroup::security&#45;group&#45;node&#45;&gt;Vpc::vpc -->
<g id="edge29" class="edge">
<title>SecurityGroup::security&#45;group&#45;node&#45;&gt;Vpc::vpc</title>
<path fill="none" stroke="#707070" d="M756.44,-462.11C783.17,-474.45 813.04,-490.13 838,-508 895.4,-549.1 951,-609.79 983.33,-647.83"/>
<polygon fill="#707070" stroke="#707070" points="980.75,-650.2 989.87,-655.59 986.1,-645.69 980.75,-650.2"/>
</g>
<!-- SecurityGroupRuleIngress::sg&#45;nodes&#45;rule&#45;ingress&#45;all -->
<g id="node26" class="node">
<title>SecurityGroupRuleIngress::sg&#45;nodes&#45;rule&#45;ingress&#45;all</title>
<polygon fill="#e5e5e5" stroke="#dddddd" points="489,-386 270,-386 270,-328 489,-328 489,-386"/>
<text text-anchor="start" x="278.5" y="-366.2" font-family="Helvetica,sans-Serif" font-weight="bold" font-size="16.00" fill="#707070">SecurityGroupRuleIngress</text>
<text text-anchor="start" x="278.5" y="-341.2" font-family="Helvetica,sans-Serif" font-size="16.00" fill="#383838">sg&#45;nodes&#45;rule&#45;ingress&#45;all</text>
</g>
<!-- SecurityGroupRuleIngress::sg&#45;nodes&#45;rule&#45;ingress&#45;all&#45;&gt;SecurityGroup::security&#45;group&#45;node -->
<g id="edge30" class="edge">
<title>SecurityGroupRuleIngress::sg&#45;nodes&#45;rule&#45;ingress&#45;all&#45;&gt;SecurityGroup::security&#45;group&#45;node</title>
<path fill="none" stroke="#707070" d="M489.15,-384.91C502.57,-388.32 516.1,-391.75 529,-395 549.69,-400.21 571.95,-405.75 592.94,-410.95"/>
<polygon fill="#707070" stroke="#707070" points="592.25,-414.39 602.8,-413.4 593.94,-407.59 592.25,-414.39"/>
</g>
<!-- SecurityGroupRuleIngress::sg&#45;nodes&#45;rule&#45;ingress&#45;cluster -->
<g id="node27" class="node">
<title>SecurityGroupRuleIngress::sg&#45;nodes&#45;rule&#45;ingress&#45;cluster</title>
<polygon fill="#e5e5e5" stroke="#dddddd" points="493,-310 266,-310 266,-252 493,-252 493,-310"/>
<text text-anchor="start" x="274.5" y="-290.2" font-family="Helvetica,sans-Serif" font-weight="bold" font-size="16.00" fill="#707070">SecurityGroupRuleIngress</text>
<text text-anchor="start" x="274.5" y="-265.2" font-family="Helvetica,sans-Serif" font-size="16.00" fill="#383838">sg&#45;nodes&#45;rule&#45;ingress&#45;cluster</text>
</g>
<!-- SecurityGroupRuleIngress::sg&#45;nodes&#45;rule&#45;ingress&#45;cluster&#45;&gt;SecurityGroup::security&#45;group&#45;cluster -->
<g id="edge32" class="edge">
<title>SecurityGroupRuleIngress::sg&#45;nodes&#45;rule&#45;ingress&#45;cluster&#45;&gt;SecurityGroup::security&#45;group&#45;cluster</title>
<path fill="none" stroke="#707070" d="M493.38,-281C523.96,-281 556.76,-281 586.32,-281"/>
<polygon fill="#707070" stroke="#707070" points="586.63,-284.5 596.63,-281 586.63,-277.5 586.63,-284.5"/>
</g>
<!-- SecurityGroupRuleIngress::sg&#45;nodes&#45;rule&#45;ingress&#45;cluster&#45;&gt;SecurityGroup::security&#45;group&#45;node -->
<g id="edge31" class="edge">
<title>SecurityGroupRuleIngress::sg&#45;nodes&#45;rule&#45;ingress&#45;cluster&#45;&gt;SecurityGroup::security&#45;group&#45;node</title>
<path fill="none" stroke="#707070" d="M481.37,-310.13C485.48,-312.83 489.38,-315.78 493,-319 520.92,-343.84 500.07,-371.34 529,-395 547.05,-409.76 570.02,-418.91 592.65,-424.55"/>
<polygon fill="#707070" stroke="#707070" points="592.14,-428.02 602.67,-426.83 593.69,-421.19 592.14,-428.02"/>
</g>
<!-- EKSCluster::cluster -->
<g id="node28" class="node">
<title>EKSCluster::cluster</title>
<polygon fill="#e5e5e5" stroke="#dddddd" points="431.5,-462 327.5,-462 327.5,-404 431.5,-404 431.5,-462"/>
<text text-anchor="start" x="335.5" y="-442.2" font-family="Helvetica,sans-Serif" font-weight="bold" font-size="16.00" fill="#707070">EKSCluster</text>
<text text-anchor="start" x="335.5" y="-417.2" font-family="Helvetica,sans-Serif" font-size="16.00" fill="#383838">cluster</text>
</g>
<!-- EKSCluster::cluster&#45;&gt;Subnet::subnet&#45;public&#45;a -->
<g id="edge33" class="edge">
<title>EKSCluster::cluster&#45;&gt;Subnet::subnet&#45;public&#45;a</title>
<path fill="none" stroke="#707070" d="M431.72,-454.68C454.3,-466.95 478.87,-484.59 493,-508 533.06,-574.37 478.13,-796.5 529,-855 548.82,-877.79 579.96,-888.01 609.02,-892.26"/>
<polygon fill="#707070" stroke="#707070" points="608.84,-895.76 619.2,-893.52 609.7,-888.82 608.84,-895.76"/>
</g>
<!-- EKSCluster::cluster&#45;&gt;Subnet::subnet&#45;public&#45;b -->
<g id="edge34" class="edge">
<title>EKSCluster::cluster&#45;&gt;Subnet::subnet&#45;public&#45;b</title>
<path fill="none" stroke="#707070" d="M431.59,-456.16C453.58,-468.57 477.7,-485.9 493,-508 533.25,-566.15 485.39,-607.32 529,-663 549.37,-689.01 580.77,-707.1 609.88,-719.26"/>
<polygon fill="#707070" stroke="#707070" points="608.64,-722.54 619.23,-723.01 611.24,-716.04 608.64,-722.54"/>
</g>
<!-- EKSCluster::cluster&#45;&gt;Subnet::subnet&#45;private&#45;a -->
<g id="edge35" class="edge">
<title>EKSCluster::cluster&#45;&gt;Subnet::subnet&#45;private&#45;a</title>
<path fill="none" stroke="#707070" d="M431.64,-458.83C452.72,-471.42 476.11,-488.16 493,-508 518.01,-537.38 499.31,-562.35 529,-587 550.54,-604.88 579.27,-614.55 606.05,-619.71"/>
<polygon fill="#707070" stroke="#707070" points="605.75,-623.21 616.2,-621.47 606.95,-616.31 605.75,-623.21"/>
</g>
<!-- EKSCluster::cluster&#45;&gt;Subnet::subnet&#45;private&#45;b -->
<g id="edge36" class="edge">
<title>EKSCluster::cluster&#45;&gt;Subnet::subnet&#45;private&#45;b</title>
<path fill="none" stroke="#707070" d="M431.54,-462.08C459.65,-477.24 495.54,-495.24 529,-508 553.69,-517.41 581.39,-525.52 606.39,-531.99"/>
<polygon fill="#707070" stroke="#707070" points="605.64,-535.41 616.2,-534.47 607.36,-528.62 605.64,-535.41"/>
</g>
<!-- EKSCluster::cluster&#45;&gt;IamRole::role&#45;cluster -->
<g id="edge39" class="edge">
<title>EKSCluster::cluster&#45;&gt;IamRole::role&#45;cluster</title>
<path fill="none" stroke="#707070" d="M431.68,-419.8C460.29,-412.44 496.61,-403.15 529,-395 560.67,-387.03 596.06,-378.26 624.87,-371.15"/>
<polygon fill="#707070" stroke="#707070" points="625.9,-374.51 634.77,-368.71 624.22,-367.71 625.9,-374.51"/>
</g>
<!-- EKSCluster::cluster&#45;&gt;SecurityGroup::security&#45;group&#45;cluster -->
<g id="edge37" class="edge">
<title>EKSCluster::cluster&#45;&gt;SecurityGroup::security&#45;group&#45;cluster</title>
<path fill="none" stroke="#707070" d="M431.72,-424.8C452.69,-419.29 475.98,-410.14 493,-395 520.92,-370.16 500.07,-342.66 529,-319 545.51,-305.5 566.14,-296.69 586.86,-290.97"/>
<polygon fill="#707070" stroke="#707070" points="587.87,-294.33 596.7,-288.48 586.15,-287.54 587.87,-294.33"/>
</g>
<!-- EKSCluster::cluster&#45;&gt;SecurityGroup::security&#45;group&#45;node -->
<g id="edge38" class="edge">
<title>EKSCluster::cluster&#45;&gt;SecurityGroup::security&#45;group&#45;node</title>
<path fill="none" stroke="#707070" d="M431.73,-433C475.76,-433 540.27,-433 592.84,-433"/>
<polygon fill="#707070" stroke="#707070" points="592.85,-436.5 602.85,-433 592.85,-429.5 592.85,-436.5"/>
</g>
<!-- EKSNodeGroup::node&#45;group&#45;private&#45;cluster -->
<g id="node29" class="node">
<title>EKSNodeGroup::node&#45;group&#45;private&#45;cluster</title>
<polygon fill="#e5e5e5" stroke="#dddddd" points="230,-462 24,-462 24,-404 230,-404 230,-462"/>
<text text-anchor="start" x="32" y="-442.2" font-family="Helvetica,sans-Serif" font-weight="bold" font-size="16.00" fill="#707070">EKSNodeGroup</text>
<text text-anchor="start" x="32" y="-417.2" font-family="Helvetica,sans-Serif" font-size="16.00" fill="#383838">node&#45;group&#45;private&#45;cluster</text>
</g>
<!-- EKSNodeGroup::node&#45;group&#45;private&#45;cluster&#45;&gt;Subnet::subnet&#45;private&#45;a -->
<g id="edge40" class="edge">
<title>EKSNodeGroup::node&#45;group&#45;private&#45;cluster&#45;&gt;Subnet::subnet&#45;private&#45;a</title>
<path fill="none" stroke="#707070" d="M184.7,-462.06C209.37,-474.19 238.8,-487.99 266,-499 380.26,-545.23 410.64,-552.61 529,-587 554.14,-594.3 581.84,-601.44 606.71,-607.52"/>
<polygon fill="#707070" stroke="#707070" points="605.91,-610.92 616.46,-609.88 607.56,-604.12 605.91,-610.92"/>
</g>
<!-- EKSNodeGroup::node&#45;group&#45;private&#45;cluster&#45;&gt;Subnet::subnet&#45;private&#45;b -->
<g id="edge41" class="edge">
<title>EKSNodeGroup::node&#45;group&#45;private&#45;cluster&#45;&gt;Subnet::subnet&#45;private&#45;b</title>
<path fill="none" stroke="#707070" d="M229.87,-462.08C242.01,-465.24 254.26,-468.29 266,-471 383.96,-498.24 522.37,-522.69 606.19,-536.68"/>
<polygon fill="#707070" stroke="#707070" points="605.7,-540.15 616.14,-538.33 606.85,-533.24 605.7,-540.15"/>
</g>
<!-- EKSNodeGroup::node&#45;group&#45;private&#45;cluster&#45;&gt;IamRole::role&#45;node&#45;group -->
<g id="edge43" class="edge">
<title>EKSNodeGroup::node&#45;group&#45;private&#45;cluster&#45;&gt;IamRole::role&#45;node&#45;group</title>
<path fill="none" stroke="#707070" d="M131.55,-403.68C141.03,-338.19 172.87,-178.89 266,-91 276.72,-80.88 290.23,-73.45 304.13,-68"/>
<polygon fill="#707070" stroke="#707070" points="305.56,-71.2 313.79,-64.53 303.19,-64.62 305.56,-71.2"/>
</g>
<!-- EKSNodeGroup::node&#45;group&#45;private&#45;cluster&#45;&gt;EKSCluster::cluster -->
<g id="edge42" class="edge">
<title>EKSNodeGroup::node&#45;group&#45;private&#45;cluster&#45;&gt;EKSCluster::cluster</title>
<path fill="none" stroke="#707070" d="M230.25,-433C259.75,-433 291.01,-433 317.18,-433"/>
<polygon fill="#707070" stroke="#707070" points="317.32,-436.5 327.32,-433 317.32,-429.5 317.32,-436.5"/>
</g>
</g>
</svg>
