<?xml version="1.0" encoding="UTF-8" standalone="no"?>
<!DOCTYPE svg PUBLIC "-//W3C//DTD SVG 1.1//EN"
 "http://www.w3.org/Graphics/SVG/1.1/DTD/svg11.dtd">
<!-- Generated by graphviz version 3.0.0 (20220226.1711)
 -->
<!-- Title: graphname Pages: 1 -->
<svg width="749pt" height="389pt"
 viewBox="0.00 0.00 749.00 389.00" xmlns="http://www.w3.org/2000/svg" xmlns:xlink="http://www.w3.org/1999/xlink">
<g id="graph0" class="graph" transform="scale(1 1) rotate(0) translate(4 385)">
<title>graphname</title>
<polygon fill="#fafafa" stroke="transparent" points="-4,4 -4,-385 745,-385 745,4 -4,4"/>
<text text-anchor="start" x="255.5" y="-356.4" font-family="Helvetica,sans-Serif" font-weight="bold" font-size="22.00" fill="#383838">Project securityGroup</text>
<text text-anchor="start" x="366.5" y="-340.8" font-family="Helvetica,sans-Serif" font-size="14.00"> &#160;</text>
<text text-anchor="start" x="255.5" y="-319.2" font-family="Helvetica,sans-Serif" font-weight="bold" font-size="16.00" fill="#707070">Target Diagram</text>
<g id="clust1" class="cluster">
<title>cluster_aws</title>
<polygon fill="#f5f5f5" stroke="#f5f5f5" points="8,-8 8,-297 733,-297 733,-8 8,-8"/>
<text text-anchor="start" x="308.5" y="-23" font-family="Helvetica,sans-Serif" font-weight="bold" font-size="20.00" fill="#707070">Provider aws</text>
</g>
<g id="clust2" class="cluster">
<title>cluster_aws_</title>
<polygon fill="#eeeeee" stroke="#eeeeee" points="16,-54 16,-289 725,-289 725,-54 16,-54"/>
<text text-anchor="start" x="370.36" y="-58.3" font-family="Helvetica,sans-Serif" font-size="1.00" fill="#383838"> </text>
</g>
<!-- Vpc::vpc&#45;test&#45;sg -->
<g id="node1" class="node">
<title>Vpc::vpc&#45;test&#45;sg</title>
<polygon fill="#e5e5e5" stroke="#dddddd" points="717,-243 613,-243 613,-185 717,-185 717,-243"/>
<text text-anchor="start" x="625" y="-223.2" font-family="Helvetica,sans-Serif" font-weight="bold" font-size="16.00" fill="#707070">Vpc</text>
<text text-anchor="start" x="625" y="-198.2" font-family="Helvetica,sans-Serif" font-size="16.00" fill="#383838">vpc&#45;test&#45;sg</text>
</g>
<!-- SecurityGroup::security&#45;group&#45;cluster&#45;test -->
<g id="node2" class="node">
<title>SecurityGroup::security&#45;group&#45;cluster&#45;test</title>
<polygon fill="#e5e5e5" stroke="#dddddd" points="559.5,-205 347.5,-205 347.5,-147 559.5,-147 559.5,-205"/>
<text text-anchor="start" x="359.5" y="-185.2" font-family="Helvetica,sans-Serif" font-weight="bold" font-size="16.00" fill="#707070">SecurityGroup</text>
<text text-anchor="start" x="359.5" y="-160.2" font-family="Helvetica,sans-Serif" font-size="16.00" fill="#383838">security&#45;group&#45;cluster&#45;test</text>
</g>
<!-- SecurityGroup::security&#45;group&#45;cluster&#45;test&#45;&gt;Vpc::vpc&#45;test&#45;sg -->
<g id="edge1" class="edge">
<title>SecurityGroup::security&#45;group&#45;cluster&#45;test&#45;&gt;Vpc::vpc&#45;test&#45;sg</title>
<path fill="none" stroke="#707070" d="M559.56,-195.06C574.36,-197.74 589.16,-200.43 602.77,-202.89"/>
<polygon fill="#707070" stroke="#707070" points="602.46,-206.39 612.92,-204.74 603.71,-199.51 602.46,-206.39"/>
</g>
<!-- SecurityGroup::security&#45;group&#45;node&#45;group&#45;test -->
<g id="node3" class="node">
<title>SecurityGroup::security&#45;group&#45;node&#45;group&#45;test</title>
<polygon fill="#e5e5e5" stroke="#dddddd" points="577,-281 330,-281 330,-223 577,-223 577,-281"/>
<text text-anchor="start" x="342.5" y="-261.2" font-family="Helvetica,sans-Serif" font-weight="bold" font-size="16.00" fill="#707070">SecurityGroup</text>
<text text-anchor="start" x="342.5" y="-236.2" font-family="Helvetica,sans-Serif" font-size="16.00" fill="#383838">security&#45;group&#45;node&#45;group&#45;test</text>
</g>
<!-- SecurityGroup::security&#45;group&#45;node&#45;group&#45;test&#45;&gt;Vpc::vpc&#45;test&#45;sg -->
<g id="edge2" class="edge">
<title>SecurityGroup::security&#45;group&#45;node&#45;group&#45;test&#45;&gt;Vpc::vpc&#45;test&#45;sg</title>
<path fill="none" stroke="#707070" d="M577.28,-229.73C586.16,-228.12 594.87,-226.54 603.14,-225.04"/>
<polygon fill="#707070" stroke="#707070" points="603.77,-228.48 612.98,-223.25 602.52,-221.59 603.77,-228.48"/>
</g>
<!-- SecurityGroupRuleIngress::security&#45;group&#45;cluster&#45;test&#45;rule&#45;ingress&#45;tcp&#45;22 -->
<g id="node4" class="node">
<title>SecurityGroupRuleIngress::security&#45;group&#45;cluster&#45;test&#45;rule&#45;ingress&#45;tcp&#45;22</title>
<polygon fill="#e5e5e5" stroke="#dddddd" points="288,-205 30,-205 30,-147 288,-147 288,-205"/>
<text text-anchor="start" x="42" y="-185.2" font-family="Helvetica,sans-Serif" font-weight="bold" font-size="16.00" fill="#707070">SecurityGroupRuleIngress</text>
<text text-anchor="start" x="42" y="-160.2" font-family="Helvetica,sans-Serif" font-size="16.00" fill="#383838">security&#45;group&#45;cluster&#45;test&#45;rule...</text>
</g>
<!-- SecurityGroupRuleIngress::security&#45;group&#45;cluster&#45;test&#45;rule&#45;ingress&#45;tcp&#45;22&#45;&gt;SecurityGroup::security&#45;group&#45;cluster&#45;test -->
<g id="edge3" class="edge">
<title>SecurityGroupRuleIngress::security&#45;group&#45;cluster&#45;test&#45;rule&#45;ingress&#45;tcp&#45;22&#45;&gt;SecurityGroup::security&#45;group&#45;cluster&#45;test</title>
<path fill="none" stroke="#707070" d="M288.29,-176C304.41,-176 320.82,-176 336.73,-176"/>
<polygon fill="#707070" stroke="#707070" points="337.11,-179.5 347.11,-176 337.11,-172.5 337.11,-179.5"/>
</g>
<!-- SecurityGroupRuleIngress::security&#45;group&#45;node&#45;group&#45;test&#45;rule&#45;ingress&#45;tcp&#45;0&#45;65535 -->
<g id="node5" class="node">
<title>SecurityGroupRuleIngress::security&#45;group&#45;node&#45;group&#45;test&#45;rule&#45;ingress&#45;tcp&#45;0&#45;65535</title>
<polygon fill="#e5e5e5" stroke="#dddddd" points="294,-281 24,-281 24,-223 294,-223 294,-281"/>
<text text-anchor="start" x="36" y="-261.2" font-family="Helvetica,sans-Serif" font-weight="bold" font-size="16.00" fill="#707070">SecurityGroupRuleIngress</text>
<text text-anchor="start" x="36" y="-236.2" font-family="Helvetica,sans-Serif" font-size="16.00" fill="#383838">security&#45;group&#45;node&#45;group&#45;test&#45;r...</text>
</g>
<!-- SecurityGroupRuleIngress::security&#45;group&#45;node&#45;group&#45;test&#45;rule&#45;ingress&#45;tcp&#45;0&#45;65535&#45;&gt;SecurityGroup::security&#45;group&#45;cluster&#45;test -->
<g id="edge5" class="edge">
<title>SecurityGroupRuleIngress::security&#45;group&#45;node&#45;group&#45;test&#45;rule&#45;ingress&#45;tcp&#45;0&#45;65535&#45;&gt;SecurityGroup::security&#45;group&#45;cluster&#45;test</title>
<path fill="none" stroke="#707070" d="M271.83,-222.94C293.37,-217.35 315.97,-211.48 337.6,-205.85"/>
<polygon fill="#707070" stroke="#707070" points="338.67,-209.19 347.46,-203.29 336.91,-202.42 338.67,-209.19"/>
</g>
<!-- SecurityGroupRuleIngress::security&#45;group&#45;node&#45;group&#45;test&#45;rule&#45;ingress&#45;tcp&#45;0&#45;65535&#45;&gt;SecurityGroup::security&#45;group&#45;node&#45;group&#45;test -->
<g id="edge4" class="edge">
<title>SecurityGroupRuleIngress::security&#45;group&#45;node&#45;group&#45;test&#45;rule&#45;ingress&#45;tcp&#45;0&#45;65535&#45;&gt;SecurityGroup::security&#45;group&#45;node&#45;group&#45;test</title>
<path fill="none" stroke="#707070" d="M294.26,-252C302.7,-252 311.19,-252 319.62,-252"/>
<polygon fill="#707070" stroke="#707070" points="319.86,-255.5 329.86,-252 319.86,-248.5 319.86,-255.5"/>
</g>
<!-- SecurityGroupRuleEgress::security&#45;group&#45;cluster&#45;test&#45;rule&#45;egress&#45;tcp&#45;1024&#45;65535 -->
<g id="node6" class="node">
<title>SecurityGroupRuleEgress::security&#45;group&#45;cluster&#45;test&#45;rule&#45;egress&#45;tcp&#45;1024&#45;65535</title>
<polygon fill="#e5e5e5" stroke="#dddddd" points="288,-129 30,-129 30,-71 288,-71 288,-129"/>
<text text-anchor="start" x="42" y="-109.2" font-family="Helvetica,sans-Serif" font-weight="bold" font-size="16.00" fill="#707070">SecurityGroupRuleEgress</text>
<text text-anchor="start" x="42" y="-84.2" font-family="Helvetica,sans-Serif" font-size="16.00" fill="#383838">security&#45;group&#45;cluster&#45;test&#45;rule...</text>
</g>
<!-- SecurityGroupRuleEgress::security&#45;group&#45;cluster&#45;test&#45;rule&#45;egress&#45;tcp&#45;1024&#45;65535&#45;&gt;SecurityGroup::security&#45;group&#45;cluster&#45;test -->
<g id="edge6" class="edge">
<title>SecurityGroupRuleEgress::security&#45;group&#45;cluster&#45;test&#45;rule&#45;egress&#45;tcp&#45;1024&#45;65535&#45;&gt;SecurityGroup::security&#45;group&#45;cluster&#45;test</title>
<path fill="none" stroke="#707070" d="M271.83,-129.06C293.37,-134.65 315.97,-140.52 337.6,-146.15"/>
<polygon fill="#707070" stroke="#707070" points="336.91,-149.58 347.46,-148.71 338.67,-142.81 336.91,-149.58"/>
</g>
</g>
</svg>
