<?xml version="1.0" encoding="UTF-8" standalone="no"?>
<!DOCTYPE svg PUBLIC "-//W3C//DTD SVG 1.1//EN"
 "http://www.w3.org/Graphics/SVG/1.1/DTD/svg11.dtd">
<!-- Generated by graphviz version 3.0.0 (20220226.1711)
 -->
<!-- Title: graphname Pages: 1 -->
<svg width="730pt" height="845pt"
 viewBox="0.00 0.00 730.00 845.00" xmlns="http://www.w3.org/2000/svg" xmlns:xlink="http://www.w3.org/1999/xlink">
<g id="graph0" class="graph" transform="scale(1 1) rotate(0) translate(4 841)">
<title>graphname</title>
<polygon fill="#fafafa" stroke="transparent" points="-4,4 -4,-841 726,-841 726,4 -4,4"/>
<text text-anchor="start" x="167" y="-812.4" font-family="Helvetica,sans-Serif" font-weight="bold" font-size="22.00" fill="#383838">Project fargate&#45;aurora&#45;serverless&#45;cdk</text>
<text text-anchor="start" x="357" y="-796.8" font-family="Helvetica,sans-Serif" font-size="14.00"> &#160;</text>
<text text-anchor="start" x="167" y="-775.2" font-family="Helvetica,sans-Serif" font-weight="bold" font-size="16.00" fill="#707070">Live Diagram</text>
<g id="clust1" class="cluster">
<title>cluster_aws</title>
<polygon fill="#f5f5f5" stroke="#f5f5f5" points="8,-8 8,-753 714,-753 714,-8 8,-8"/>
<text text-anchor="start" x="299" y="-23" font-family="Helvetica,sans-Serif" font-weight="bold" font-size="20.00" fill="#707070">Provider aws</text>
</g>
<g id="clust2" class="cluster">
<title>cluster_aws_</title>
<polygon fill="#eeeeee" stroke="#eeeeee" points="16,-54 16,-745 706,-745 706,-54 16,-54"/>
<text text-anchor="start" x="360.86" y="-58.3" font-family="Helvetica,sans-Serif" font-size="1.00" fill="#383838"> </text>
</g>
<!-- LogGroup::::/aws/apigateway/welcome -->
<g id="node1" class="node">
<title>LogGroup::::/aws/apigateway/welcome</title>
<polygon fill="#e5e5e5" stroke="#dddddd" points="290,-737 47,-737 47,-679 290,-679 290,-737"/>
<text text-anchor="start" x="59.5" y="-717.2" font-family="Helvetica,sans-Serif" font-weight="bold" font-size="16.00" fill="#707070">CloudWatchLogs::LogGroup</text>
<text text-anchor="start" x="59.5" y="-692.2" font-family="Helvetica,sans-Serif" font-size="16.00" fill="#383838">/aws/apigateway/welcome</text>
</g>
<!-- LogGroup::::/aws/lambda/ApiEventbridgeStack&#45;AWS679f53fac002430cb0da5b7982b&#45;57ndnTWa15y0 -->
<g id="node2" class="node">
<title>LogGroup::::/aws/lambda/ApiEventbridgeStack&#45;AWS679f53fac002430cb0da5b7982b&#45;57ndnTWa15y0</title>
<polygon fill="#e5e5e5" stroke="#dddddd" points="313,-661 24,-661 24,-603 313,-603 313,-661"/>
<text text-anchor="start" x="36.5" y="-641.2" font-family="Helvetica,sans-Serif" font-weight="bold" font-size="16.00" fill="#707070">CloudWatchLogs::LogGroup</text>
<text text-anchor="start" x="36.5" y="-616.2" font-family="Helvetica,sans-Serif" font-size="16.00" fill="#383838">/aws/lambda/ApiEventbridgeStack&#45;...</text>
</g>
<!-- LogGroup::::/aws/lambda/lambda&#45;fns -->
<g id="node3" class="node">
<title>LogGroup::::/aws/lambda/lambda&#45;fns</title>
<polygon fill="#e5e5e5" stroke="#dddddd" points="290,-585 47,-585 47,-527 290,-527 290,-585"/>
<text text-anchor="start" x="59.5" y="-565.2" font-family="Helvetica,sans-Serif" font-weight="bold" font-size="16.00" fill="#707070">CloudWatchLogs::LogGroup</text>
<text text-anchor="start" x="59.5" y="-540.2" font-family="Helvetica,sans-Serif" font-size="16.00" fill="#383838">/aws/lambda/lambda&#45;fns</text>
</g>
<!-- LogGroup::::/aws/lambda/my&#45;function -->
<g id="node4" class="node">
<title>LogGroup::::/aws/lambda/my&#45;function</title>
<polygon fill="#e5e5e5" stroke="#dddddd" points="290,-509 47,-509 47,-451 290,-451 290,-509"/>
<text text-anchor="start" x="59.5" y="-489.2" font-family="Helvetica,sans-Serif" font-weight="bold" font-size="16.00" fill="#707070">CloudWatchLogs::LogGroup</text>
<text text-anchor="start" x="59.5" y="-464.2" font-family="Helvetica,sans-Serif" font-size="16.00" fill="#383838">/aws/lambda/my&#45;function</text>
</g>
<!-- InternetGateway::::ig&#45;default -->
<g id="node5" class="node">
<title>InternetGateway::::ig&#45;default</title>
<polygon fill="#e5e5e5" stroke="#dddddd" points="549,-737 358,-737 358,-679 549,-679 549,-737"/>
<text text-anchor="start" x="370.5" y="-717.2" font-family="Helvetica,sans-Serif" font-weight="bold" font-size="16.00" fill="#707070">EC2::InternetGateway</text>
<text text-anchor="start" x="370.5" y="-692.2" font-family="Helvetica,sans-Serif" font-size="16.00" fill="#383838">ig&#45;default</text>
</g>
<!-- Vpc::::vpc&#45;default -->
<g id="node14" class="node">
<title>Vpc::::vpc&#45;default</title>
<polygon fill="#e5e5e5" stroke="#dddddd" points="698,-433 594,-433 594,-375 698,-375 698,-433"/>
<text text-anchor="start" x="606" y="-413.2" font-family="Helvetica,sans-Serif" font-weight="bold" font-size="16.00" fill="#707070">EC2::Vpc</text>
<text text-anchor="start" x="606" y="-388.2" font-family="Helvetica,sans-Serif" font-size="16.00" fill="#383838">vpc&#45;default</text>
</g>
<!-- InternetGateway::::ig&#45;default&#45;&gt;Vpc::::vpc&#45;default -->
<g id="edge1" class="edge">
<title>InternetGateway::::ig&#45;default&#45;&gt;Vpc::::vpc&#45;default</title>
<path fill="none" stroke="#707070" d="M548.05,-678.74C551.6,-676.07 554.94,-673.17 558,-670 618.82,-606.96 637.12,-500.8 642.63,-443.5"/>
<polygon fill="#707070" stroke="#707070" points="646.13,-443.66 643.52,-433.4 639.16,-443.05 646.13,-443.66"/>
</g>
<!-- Route::::rt&#45;default&#45;vpc&#45;default&#45;local -->
<g id="node6" class="node">
<title>Route::::rt&#45;default&#45;vpc&#45;default&#45;local</title>
<polygon fill="#e5e5e5" stroke="#dddddd" points="274.5,-433 62.5,-433 62.5,-375 274.5,-375 274.5,-433"/>
<text text-anchor="start" x="74.5" y="-413.2" font-family="Helvetica,sans-Serif" font-weight="bold" font-size="16.00" fill="#707070">EC2::Route</text>
<text text-anchor="start" x="74.5" y="-388.2" font-family="Helvetica,sans-Serif" font-size="16.00" fill="#383838">rt&#45;default&#45;vpc&#45;default&#45;local</text>
</g>
<!-- RouteTable::::rt&#45;default&#45;vpc&#45;default -->
<g id="node7" class="node">
<title>RouteTable::::rt&#45;default&#45;vpc&#45;default</title>
<polygon fill="#e5e5e5" stroke="#dddddd" points="540,-661 367,-661 367,-603 540,-603 540,-661"/>
<text text-anchor="start" x="379.5" y="-641.2" font-family="Helvetica,sans-Serif" font-weight="bold" font-size="16.00" fill="#707070">EC2::RouteTable</text>
<text text-anchor="start" x="379.5" y="-616.2" font-family="Helvetica,sans-Serif" font-size="16.00" fill="#383838">rt&#45;default&#45;vpc&#45;default</text>
</g>
<!-- Route::::rt&#45;default&#45;vpc&#45;default&#45;local&#45;&gt;RouteTable::::rt&#45;default&#45;vpc&#45;default -->
<g id="edge2" class="edge">
<title>Route::::rt&#45;default&#45;vpc&#45;default&#45;local&#45;&gt;RouteTable::::rt&#45;default&#45;vpc&#45;default</title>
<path fill="none" stroke="#707070" d="M274.8,-417.52C289.05,-423.22 302.39,-431.11 313,-442 361.44,-491.73 302.92,-542.07 349,-594 351.86,-597.22 355.01,-600.17 358.39,-602.87"/>
<polygon fill="#707070" stroke="#707070" points="356.46,-605.79 366.64,-608.73 360.51,-600.08 356.46,-605.79"/>
</g>
<!-- RouteTable::::rt&#45;default&#45;vpc&#45;default&#45;&gt;Vpc::::vpc&#45;default -->
<g id="edge3" class="edge">
<title>RouteTable::::rt&#45;default&#45;vpc&#45;default&#45;&gt;Vpc::::vpc&#45;default</title>
<path fill="none" stroke="#707070" d="M540.22,-607.01C546.63,-603.25 552.66,-598.94 558,-594 602.13,-553.17 625.58,-485.58 636.64,-442.99"/>
<polygon fill="#707070" stroke="#707070" points="640.04,-443.81 639.06,-433.26 633.25,-442.11 640.04,-443.81"/>
</g>
<!-- Subnet::::subnet&#45;default&#45;us&#45;east&#45;1a -->
<g id="node8" class="node">
<title>Subnet::::subnet&#45;default&#45;us&#45;east&#45;1a</title>
<polygon fill="#e5e5e5" stroke="#dddddd" points="558,-585 349,-585 349,-527 558,-527 558,-585"/>
<text text-anchor="start" x="361.5" y="-565.2" font-family="Helvetica,sans-Serif" font-weight="bold" font-size="16.00" fill="#707070">EC2::Subnet</text>
<text text-anchor="start" x="361.5" y="-540.2" font-family="Helvetica,sans-Serif" font-size="16.00" fill="#383838">subnet&#45;default&#45;us&#45;east&#45;1a</text>
</g>
<!-- Subnet::::subnet&#45;default&#45;us&#45;east&#45;1a&#45;&gt;Vpc::::vpc&#45;default -->
<g id="edge5" class="edge">
<title>Subnet::::subnet&#45;default&#45;us&#45;east&#45;1a&#45;&gt;Vpc::::vpc&#45;default</title>
<path fill="none" stroke="#707070" d="M544.03,-526.98C548.91,-524.23 553.61,-521.24 558,-518 585.48,-497.73 608.49,-466.46 623.93,-441.79"/>
<polygon fill="#707070" stroke="#707070" points="627.05,-443.39 629.27,-433.03 621.07,-439.75 627.05,-443.39"/>
</g>
<!-- Subnet::::subnet&#45;default&#45;us&#45;east&#45;1b -->
<g id="node9" class="node">
<title>Subnet::::subnet&#45;default&#45;us&#45;east&#45;1b</title>
<polygon fill="#e5e5e5" stroke="#dddddd" points="558,-509 349,-509 349,-451 558,-451 558,-509"/>
<text text-anchor="start" x="361.5" y="-489.2" font-family="Helvetica,sans-Serif" font-weight="bold" font-size="16.00" fill="#707070">EC2::Subnet</text>
<text text-anchor="start" x="361.5" y="-464.2" font-family="Helvetica,sans-Serif" font-size="16.00" fill="#383838">subnet&#45;default&#45;us&#45;east&#45;1b</text>
</g>
<!-- Subnet::::subnet&#45;default&#45;us&#45;east&#45;1b&#45;&gt;Vpc::::vpc&#45;default -->
<g id="edge6" class="edge">
<title>Subnet::::subnet&#45;default&#45;us&#45;east&#45;1b&#45;&gt;Vpc::::vpc&#45;default</title>
<path fill="none" stroke="#707070" d="M535.2,-450.91C542.93,-447.96 550.63,-444.96 558,-442 566.54,-438.57 575.49,-434.83 584.26,-431.08"/>
<polygon fill="#707070" stroke="#707070" points="585.89,-434.19 593.69,-427.02 583.12,-427.76 585.89,-434.19"/>
</g>
<!-- Subnet::::subnet&#45;default&#45;us&#45;east&#45;1c -->
<g id="node10" class="node">
<title>Subnet::::subnet&#45;default&#45;us&#45;east&#45;1c</title>
<polygon fill="#e5e5e5" stroke="#dddddd" points="557.5,-433 349.5,-433 349.5,-375 557.5,-375 557.5,-433"/>
<text text-anchor="start" x="361.5" y="-413.2" font-family="Helvetica,sans-Serif" font-weight="bold" font-size="16.00" fill="#707070">EC2::Subnet</text>
<text text-anchor="start" x="361.5" y="-388.2" font-family="Helvetica,sans-Serif" font-size="16.00" fill="#383838">subnet&#45;default&#45;us&#45;east&#45;1c</text>
</g>
<!-- Subnet::::subnet&#45;default&#45;us&#45;east&#45;1c&#45;&gt;Vpc::::vpc&#45;default -->
<g id="edge7" class="edge">
<title>Subnet::::subnet&#45;default&#45;us&#45;east&#45;1c&#45;&gt;Vpc::::vpc&#45;default</title>
<path fill="none" stroke="#707070" d="M557.56,-404C566.53,-404 575.41,-404 583.88,-404"/>
<polygon fill="#707070" stroke="#707070" points="583.98,-407.5 593.98,-404 583.98,-400.5 583.98,-407.5"/>
</g>
<!-- Subnet::::subnet&#45;default&#45;us&#45;east&#45;1d -->
<g id="node11" class="node">
<title>Subnet::::subnet&#45;default&#45;us&#45;east&#45;1d</title>
<polygon fill="#e5e5e5" stroke="#dddddd" points="558,-357 349,-357 349,-299 558,-299 558,-357"/>
<text text-anchor="start" x="361.5" y="-337.2" font-family="Helvetica,sans-Serif" font-weight="bold" font-size="16.00" fill="#707070">EC2::Subnet</text>
<text text-anchor="start" x="361.5" y="-312.2" font-family="Helvetica,sans-Serif" font-size="16.00" fill="#383838">subnet&#45;default&#45;us&#45;east&#45;1d</text>
</g>
<!-- Subnet::::subnet&#45;default&#45;us&#45;east&#45;1d&#45;&gt;Vpc::::vpc&#45;default -->
<g id="edge8" class="edge">
<title>Subnet::::subnet&#45;default&#45;us&#45;east&#45;1d&#45;&gt;Vpc::::vpc&#45;default</title>
<path fill="none" stroke="#707070" d="M535.2,-357.09C542.93,-360.04 550.63,-363.04 558,-366 566.54,-369.43 575.49,-373.17 584.26,-376.92"/>
<polygon fill="#707070" stroke="#707070" points="583.12,-380.24 593.69,-380.98 585.89,-373.81 583.12,-380.24"/>
</g>
<!-- Subnet::::subnet&#45;default&#45;us&#45;east&#45;1e -->
<g id="node12" class="node">
<title>Subnet::::subnet&#45;default&#45;us&#45;east&#45;1e</title>
<polygon fill="#e5e5e5" stroke="#dddddd" points="558,-281 349,-281 349,-223 558,-223 558,-281"/>
<text text-anchor="start" x="361.5" y="-261.2" font-family="Helvetica,sans-Serif" font-weight="bold" font-size="16.00" fill="#707070">EC2::Subnet</text>
<text text-anchor="start" x="361.5" y="-236.2" font-family="Helvetica,sans-Serif" font-size="16.00" fill="#383838">subnet&#45;default&#45;us&#45;east&#45;1e</text>
</g>
<!-- Subnet::::subnet&#45;default&#45;us&#45;east&#45;1e&#45;&gt;Vpc::::vpc&#45;default -->
<g id="edge9" class="edge">
<title>Subnet::::subnet&#45;default&#45;us&#45;east&#45;1e&#45;&gt;Vpc::::vpc&#45;default</title>
<path fill="none" stroke="#707070" d="M544.03,-281.02C548.91,-283.77 553.61,-286.76 558,-290 585.48,-310.27 608.49,-341.54 623.93,-366.21"/>
<polygon fill="#707070" stroke="#707070" points="621.07,-368.25 629.27,-374.97 627.05,-364.61 621.07,-368.25"/>
</g>
<!-- Subnet::::subnet&#45;default&#45;us&#45;east&#45;1f -->
<g id="node13" class="node">
<title>Subnet::::subnet&#45;default&#45;us&#45;east&#45;1f</title>
<polygon fill="#e5e5e5" stroke="#dddddd" points="556,-205 351,-205 351,-147 556,-147 556,-205"/>
<text text-anchor="start" x="363.5" y="-185.2" font-family="Helvetica,sans-Serif" font-weight="bold" font-size="16.00" fill="#707070">EC2::Subnet</text>
<text text-anchor="start" x="363.5" y="-160.2" font-family="Helvetica,sans-Serif" font-size="16.00" fill="#383838">subnet&#45;default&#45;us&#45;east&#45;1f</text>
</g>
<!-- Subnet::::subnet&#45;default&#45;us&#45;east&#45;1f&#45;&gt;Vpc::::vpc&#45;default -->
<g id="edge10" class="edge">
<title>Subnet::::subnet&#45;default&#45;us&#45;east&#45;1f&#45;&gt;Vpc::::vpc&#45;default</title>
<path fill="none" stroke="#707070" d="M546.65,-205.04C550.67,-207.77 554.49,-210.75 558,-214 602.13,-254.83 625.58,-322.42 636.64,-365.01"/>
<polygon fill="#707070" stroke="#707070" points="633.25,-365.89 639.06,-374.74 640.04,-364.19 633.25,-365.89"/>
</g>
<!-- SecurityGroup::::sg&#45;default&#45;vpc&#45;default -->
<g id="node15" class="node">
<title>SecurityGroup::::sg&#45;default&#45;vpc&#45;default</title>
<polygon fill="#e5e5e5" stroke="#dddddd" points="544,-129 363,-129 363,-71 544,-71 544,-129"/>
<text text-anchor="start" x="375.5" y="-109.2" font-family="Helvetica,sans-Serif" font-weight="bold" font-size="16.00" fill="#707070">EC2::SecurityGroup</text>
<text text-anchor="start" x="375.5" y="-84.2" font-family="Helvetica,sans-Serif" font-size="16.00" fill="#383838">sg&#45;default&#45;vpc&#45;default</text>
</g>
<!-- SecurityGroup::::sg&#45;default&#45;vpc&#45;default&#45;&gt;Vpc::::vpc&#45;default -->
<g id="edge4" class="edge">
<title>SecurityGroup::::sg&#45;default&#45;vpc&#45;default&#45;&gt;Vpc::::vpc&#45;default</title>
<path fill="none" stroke="#707070" d="M544.27,-126.57C549.24,-129.94 553.88,-133.73 558,-138 618.82,-201.04 637.12,-307.2 642.63,-364.5"/>
<polygon fill="#707070" stroke="#707070" points="639.16,-364.95 643.52,-374.6 646.13,-364.34 639.16,-364.95"/>
</g>
</g>
</svg>
