<?xml version="1.0" encoding="UTF-8" standalone="no"?>
<!DOCTYPE svg PUBLIC "-//W3C//DTD SVG 1.1//EN"
 "http://www.w3.org/Graphics/SVG/1.1/DTD/svg11.dtd">
<!-- Generated by graphviz version 2.44.1 (20200629.0846)
 -->
<!-- Title: graphname Pages: 1 -->
<svg width="940pt" height="313pt"
 viewBox="0.00 0.00 940.00 313.00" xmlns="http://www.w3.org/2000/svg" xmlns:xlink="http://www.w3.org/1999/xlink">
<g id="graph0" class="graph" transform="scale(1 1) rotate(0) translate(4 309)">
<title>graphname</title>
<polygon fill="#fafafa" stroke="transparent" points="-4,4 -4,-309 936,-309 936,4 -4,4"/>
<text text-anchor="start" x="355" y="-280.4" font-family="Helvetica,sans-Serif" font-weight="bold" font-size="22.00" fill="#383838">Project website&#45;https</text>
<text text-anchor="start" x="462.5" y="-264.8" font-family="Helvetica,sans-Serif" font-size="14.00"> &#160;</text>
<text text-anchor="start" x="355" y="-243.2" font-family="Helvetica,sans-Serif" font-weight="bold" font-size="16.00" fill="#707070">Target Diagram</text>
<g id="clust1" class="cluster">
<title>cluster_google</title>
<polygon fill="#f5f5f5" stroke="#f5f5f5" points="8,-8 8,-221 924,-221 924,-8 8,-8"/>
<text text-anchor="start" x="391" y="-23" font-family="Helvetica,sans-Serif" font-weight="bold" font-size="20.00" fill="#707070">Provider google</text>
</g>
<g id="clust2" class="cluster">
<title>cluster_google_</title>
<polygon fill="#eeeeee" stroke="#eeeeee" points="16,-54 16,-213 916,-213 916,-54 16,-54"/>
<text text-anchor="start" x="465.86" y="-58.3" font-family="Helvetica,sans-Serif" font-size="1.00" fill="#383838"> </text>
</g>
<!-- Bucket::grucloud.org -->
<g id="node1" class="node">
<title>Bucket::grucloud.org</title>
<polygon fill="#e5e5e5" stroke="#dddddd" points="908,-167 793,-167 793,-109 908,-109 908,-167"/>
<text text-anchor="start" x="805.5" y="-147.2" font-family="Helvetica,sans-Serif" font-weight="bold" font-size="16.00" fill="#707070">Bucket</text>
<text text-anchor="start" x="805.5" y="-122.2" font-family="Helvetica,sans-Serif" font-size="16.00" fill="#383838">grucloud.org</text>
</g>
<!-- Object::index.html -->
<g id="node2" class="node">
<title>Object::index.html</title>
<polygon fill="#e5e5e5" stroke="#dddddd" points="734,-205 635,-205 635,-147 734,-147 734,-205"/>
<text text-anchor="start" x="647.5" y="-185.2" font-family="Helvetica,sans-Serif" font-weight="bold" font-size="16.00" fill="#707070">Object</text>
<text text-anchor="start" x="647.5" y="-160.2" font-family="Helvetica,sans-Serif" font-size="16.00" fill="#383838">index.html</text>
</g>
<!-- Object::index.html&#45;&gt;Bucket::grucloud.org -->
<g id="edge1" class="edge">
<title>Object::index.html&#45;&gt;Bucket::grucloud.org</title>
<path fill="none" stroke="#707070" d="M734.26,-164.7C749.51,-161.17 766.6,-157.21 782.86,-153.44"/>
<polygon fill="#707070" stroke="#707070" points="783.9,-156.79 792.85,-151.13 782.32,-149.97 783.9,-156.79"/>
</g>
<!-- SslCertificate::ssl&#45;certificate -->
<g id="node3" class="node">
<title>SslCertificate::ssl&#45;certificate</title>
<polygon fill="#e5e5e5" stroke="#dddddd" points="576,-129 449,-129 449,-71 576,-71 576,-129"/>
<text text-anchor="start" x="461.5" y="-109.2" font-family="Helvetica,sans-Serif" font-weight="bold" font-size="16.00" fill="#707070">SslCertificate</text>
<text text-anchor="start" x="461.5" y="-84.2" font-family="Helvetica,sans-Serif" font-size="16.00" fill="#383838">ssl&#45;certificate</text>
</g>
<!-- BackendBucket::backend&#45;bucket -->
<g id="node4" class="node">
<title>BackendBucket::backend&#45;bucket</title>
<polygon fill="#e5e5e5" stroke="#dddddd" points="757,-129 612,-129 612,-71 757,-71 757,-129"/>
<text text-anchor="start" x="624.5" y="-109.2" font-family="Helvetica,sans-Serif" font-weight="bold" font-size="16.00" fill="#707070">BackendBucket</text>
<text text-anchor="start" x="624.5" y="-84.2" font-family="Helvetica,sans-Serif" font-size="16.00" fill="#383838">backend&#45;bucket</text>
</g>
<!-- BackendBucket::backend&#45;bucket&#45;&gt;Bucket::grucloud.org -->
<g id="edge2" class="edge">
<title>BackendBucket::backend&#45;bucket&#45;&gt;Bucket::grucloud.org</title>
<path fill="none" stroke="#707070" d="M757.43,-116.67C765.97,-118.65 774.65,-120.66 783.11,-122.62"/>
<polygon fill="#707070" stroke="#707070" points="782.37,-126.04 792.9,-124.89 783.95,-119.22 782.37,-126.04"/>
</g>
<!-- UrlMap::url&#45;map -->
<g id="node5" class="node">
<title>UrlMap::url&#45;map</title>
<polygon fill="#e5e5e5" stroke="#dddddd" points="552,-205 473,-205 473,-147 552,-147 552,-205"/>
<text text-anchor="start" x="485.5" y="-185.2" font-family="Helvetica,sans-Serif" font-weight="bold" font-size="16.00" fill="#707070">UrlMap</text>
<text text-anchor="start" x="485.5" y="-160.2" font-family="Helvetica,sans-Serif" font-size="16.00" fill="#383838">url&#45;map</text>
</g>
<!-- UrlMap::url&#45;map&#45;&gt;BackendBucket::backend&#45;bucket -->
<g id="edge3" class="edge">
<title>UrlMap::url&#45;map&#45;&gt;BackendBucket::backend&#45;bucket</title>
<path fill="none" stroke="#707070" d="M552.08,-158.75C568.99,-151.19 589.44,-142.05 609.12,-133.25"/>
<polygon fill="#707070" stroke="#707070" points="610.7,-136.38 618.4,-129.11 607.84,-129.99 610.7,-136.38"/>
</g>
<!-- HttpsTargetProxy::https&#45;target&#45;proxy -->
<g id="node6" class="node">
<title>HttpsTargetProxy::https&#45;target&#45;proxy</title>
<polygon fill="#e5e5e5" stroke="#dddddd" points="413,-167 256,-167 256,-109 413,-109 413,-167"/>
<text text-anchor="start" x="268.5" y="-147.2" font-family="Helvetica,sans-Serif" font-weight="bold" font-size="16.00" fill="#707070">HttpsTargetProxy</text>
<text text-anchor="start" x="268.5" y="-122.2" font-family="Helvetica,sans-Serif" font-size="16.00" fill="#383838">https&#45;target&#45;proxy</text>
</g>
<!-- HttpsTargetProxy::https&#45;target&#45;proxy&#45;&gt;SslCertificate::ssl&#45;certificate -->
<g id="edge4" class="edge">
<title>HttpsTargetProxy::https&#45;target&#45;proxy&#45;&gt;SslCertificate::ssl&#45;certificate</title>
<path fill="none" stroke="#707070" d="M413.21,-121.22C421.81,-119.36 430.55,-117.48 439.09,-115.63"/>
<polygon fill="#707070" stroke="#707070" points="439.96,-119.03 448.99,-113.5 438.48,-112.19 439.96,-119.03"/>
</g>
<!-- HttpsTargetProxy::https&#45;target&#45;proxy&#45;&gt;UrlMap::url&#45;map -->
<g id="edge5" class="edge">
<title>HttpsTargetProxy::https&#45;target&#45;proxy&#45;&gt;UrlMap::url&#45;map</title>
<path fill="none" stroke="#707070" d="M413.21,-154.78C430.13,-158.43 447.56,-162.2 462.97,-165.52"/>
<polygon fill="#707070" stroke="#707070" points="462.25,-168.95 472.77,-167.64 463.73,-162.11 462.25,-168.95"/>
</g>
<!-- GlobalForwardingRule::global&#45;forwarding&#45;rule -->
<g id="node7" class="node">
<title>GlobalForwardingRule::global&#45;forwarding&#45;rule</title>
<polygon fill="#e5e5e5" stroke="#dddddd" points="220,-167 24,-167 24,-109 220,-109 220,-167"/>
<text text-anchor="start" x="36" y="-147.2" font-family="Helvetica,sans-Serif" font-weight="bold" font-size="16.00" fill="#707070">GlobalForwardingRule</text>
<text text-anchor="start" x="36" y="-122.2" font-family="Helvetica,sans-Serif" font-size="16.00" fill="#383838">global&#45;forwarding&#45;rule</text>
</g>
<!-- GlobalForwardingRule::global&#45;forwarding&#45;rule&#45;&gt;HttpsTargetProxy::https&#45;target&#45;proxy -->
<g id="edge6" class="edge">
<title>GlobalForwardingRule::global&#45;forwarding&#45;rule&#45;&gt;HttpsTargetProxy::https&#45;target&#45;proxy</title>
<path fill="none" stroke="#707070" d="M220.24,-138C228.74,-138 237.31,-138 245.73,-138"/>
<polygon fill="#707070" stroke="#707070" points="245.91,-141.5 255.91,-138 245.91,-134.5 245.91,-141.5"/>
</g>
</g>
</svg>
