<?xml version="1.0" encoding="UTF-8" standalone="no"?><svg xmlns="http://www.w3.org/2000/svg" xmlns:xlink="http://www.w3.org/1999/xlink" contentStyleType="text/css" height="454px" preserveAspectRatio="none" style="width:515px;height:454px;background:#FFFFFF;" version="1.1" viewBox="0 0 515 454" width="515px" zoomAndPan="magnify"><defs/><g><rect height="26.4883" style="stroke:#00000000;stroke-width:1.0;fill:none;" width="367" x="47.5" y="15"/><text fill="#000000" font-family="sans-serif" font-size="14" font-weight="bold" lengthAdjust="spacing" textLength="357" x="52.5" y="33.5352">Resources for project eventbridge-codebuild-sns</text><rect fill="#F1F1F1" height="36.4883" rx="12.5" ry="12.5" style="stroke:#181818;stroke-width:1.5;" width="52" x="10" y="226.9531"/><text fill="#000000" font-family="sans-serif" font-size="14" lengthAdjust="spacing" textLength="32" x="20" y="250.4883">Infra</text><rect fill="#F1F1F1" height="36.4883" rx="12.5" ry="12.5" style="stroke:#181818;stroke-width:1.5;" width="46" x="112" y="226.9531"/><text fill="#000000" font-family="sans-serif" font-size="14" lengthAdjust="spacing" textLength="26" x="122" y="250.4883">aws</text><rect fill="#F1F1F1" height="36.4883" rx="12.5" ry="12.5" style="stroke:#181818;stroke-width:1.5;" width="146" x="208" y="85.7324"/><text fill="#000000" font-family="sans-serif" font-size="14" lengthAdjust="spacing" textLength="126" x="218" y="109.2676">CloudWatchEvents</text><rect fill="#F1F1F1" height="36.4883" rx="12.5" ry="12.5" style="stroke:#181818;stroke-width:1.5;" width="73" x="404" y="57.4883"/><text fill="#000000" font-family="sans-serif" font-size="14" lengthAdjust="spacing" textLength="53" x="414" y="81.0234">Rule (2)</text><path d="M354,103.9766 L364,103.9766 C379,103.9766 379,75.7324 394,75.7324 L404,75.7324 " fill="none" style="stroke:#181818;stroke-width:1.0;"/><rect fill="#F1F1F1" height="36.4883" rx="12.5" ry="12.5" style="stroke:#181818;stroke-width:1.5;" width="88" x="404" y="113.9766"/><text fill="#000000" font-family="sans-serif" font-size="14" lengthAdjust="spacing" textLength="68" x="414" y="137.5117">Target (2)</text><path d="M354,103.9766 L364,103.9766 C379,103.9766 379,132.2207 394,132.2207 L404,132.2207 " fill="none" style="stroke:#181818;stroke-width:1.0;"/><path d="M158,245.1973 L168,245.1973 C183,245.1973 183,103.9766 198,103.9766 L208,103.9766 " fill="none" style="stroke:#181818;stroke-width:1.0;"/><rect fill="#F1F1F1" height="36.4883" rx="12.5" ry="12.5" style="stroke:#181818;stroke-width:1.5;" width="134" x="208" y="170.4648"/><text fill="#000000" font-family="sans-serif" font-size="14" lengthAdjust="spacing" textLength="114" x="218" y="194">CloudWatchLogs</text><rect fill="#F1F1F1" height="36.4883" rx="12.5" ry="12.5" style="stroke:#181818;stroke-width:1.5;" width="111" x="392" y="170.4648"/><text fill="#000000" font-family="sans-serif" font-size="14" lengthAdjust="spacing" textLength="91" x="402" y="194">LogGroup (1)</text><path d="M342,188.709 L352,188.709 C367,188.709 367,188.709 382,188.709 L392,188.709 " fill="none" style="stroke:#181818;stroke-width:1.0;"/><path d="M158,245.1973 L168,245.1973 C183,245.1973 183,188.709 198,188.709 L208,188.709 " fill="none" style="stroke:#181818;stroke-width:1.0;"/><rect fill="#F1F1F1" height="36.4883" rx="12.5" ry="12.5" style="stroke:#181818;stroke-width:1.5;" width="90" x="208" y="226.9531"/><text fill="#000000" font-family="sans-serif" font-size="14" lengthAdjust="spacing" textLength="70" x="218" y="250.4883">CodeBuild</text><rect fill="#F1F1F1" height="36.4883" rx="12.5" ry="12.5" style="stroke:#181818;stroke-width:1.5;" width="90" x="348" y="226.9531"/><text fill="#000000" font-family="sans-serif" font-size="14" lengthAdjust="spacing" textLength="70" x="358" y="250.4883">Project (1)</text><path d="M298,245.1973 L308,245.1973 C323,245.1973 323,245.1973 338,245.1973 L348,245.1973 " fill="none" style="stroke:#181818;stroke-width:1.0;"/><path d="M158,245.1973 L168,245.1973 C183,245.1973 183,245.1973 198,245.1973 L208,245.1973 " fill="none" style="stroke:#181818;stroke-width:1.0;"/><rect fill="#F1F1F1" height="36.4883" rx="12.5" ry="12.5" style="stroke:#181818;stroke-width:1.5;" width="46" x="208" y="283.4414"/><text fill="#000000" font-family="sans-serif" font-size="14" lengthAdjust="spacing" textLength="26" x="218" y="306.9766">IAM</text><rect fill="#F1F1F1" height="36.4883" rx="12.5" ry="12.5" style="stroke:#181818;stroke-width:1.5;" width="73" x="304" y="283.4414"/><text fill="#000000" font-family="sans-serif" font-size="14" lengthAdjust="spacing" textLength="53" x="314" y="306.9766">Role (2)</text><path d="M254,301.6855 L264,301.6855 C279,301.6855 279,301.6855 294,301.6855 L304,301.6855 " fill="none" style="stroke:#181818;stroke-width:1.0;"/><path d="M158,245.1973 L168,245.1973 C183,245.1973 183,301.6855 198,301.6855 L208,301.6855 " fill="none" style="stroke:#181818;stroke-width:1.0;"/><rect fill="#F1F1F1" height="36.4883" rx="12.5" ry="12.5" style="stroke:#181818;stroke-width:1.5;" width="37" x="208" y="339.9297"/><text fill="#000000" font-family="sans-serif" font-size="14" lengthAdjust="spacing" textLength="17" x="218" y="363.4648">S3</text><rect fill="#F1F1F1" height="36.4883" rx="12.5" ry="12.5" style="stroke:#181818;stroke-width:1.5;" width="88" x="295" y="339.9297"/><text fill="#000000" font-family="sans-serif" font-size="14" lengthAdjust="spacing" textLength="68" x="305" y="363.4648">Bucket (1)</text><path d="M245,358.1738 L255,358.1738 C270,358.1738 270,358.1738 285,358.1738 L295,358.1738 " fill="none" style="stroke:#181818;stroke-width:1.0;"/><path d="M158,245.1973 L168,245.1973 C183,245.1973 183,358.1738 198,358.1738 L208,358.1738 " fill="none" style="stroke:#181818;stroke-width:1.0;"/><rect fill="#F1F1F1" height="36.4883" rx="12.5" ry="12.5" style="stroke:#181818;stroke-width:1.5;" width="46" x="208" y="396.418"/><text fill="#000000" font-family="sans-serif" font-size="14" lengthAdjust="spacing" textLength="26" x="218" y="419.9531">SNS</text><rect fill="#F1F1F1" height="36.4883" rx="12.5" ry="12.5" style="stroke:#181818;stroke-width:1.5;" width="81" x="304" y="396.418"/><text fill="#000000" font-family="sans-serif" font-size="14" lengthAdjust="spacing" textLength="61" x="314" y="419.9531">Topic (1)</text><path d="M254,414.6621 L264,414.6621 C279,414.6621 279,414.6621 294,414.6621 L304,414.6621 " fill="none" style="stroke:#181818;stroke-width:1.0;"/><path d="M158,245.1973 L168,245.1973 C183,245.1973 183,414.6621 198,414.6621 L208,414.6621 " fill="none" style="stroke:#181818;stroke-width:1.0;"/><path d="M62,245.1973 L72,245.1973 C87,245.1973 87,245.1973 102,245.1973 L112,245.1973 " fill="none" style="stroke:#181818;stroke-width:1.0;"/><!--MD5=[ad34772913302646254d1b5bf5cf56fa]
@startmindmap
title Resources for project eventbridge-codebuild-sns
skinparam monochrome true
+ Infra
++ aws
+++ CloudWatchEvents
++++ Rule (2)
++++ Target (2)
+++ CloudWatchLogs
++++ LogGroup (1)
+++ CodeBuild
++++ Project (1)
+++ IAM
++++ Role (2)
+++ S3
++++ Bucket (1)
+++ SNS
++++ Topic (1)
@endmindmap

PlantUML version 1.2022.6(Tue Jun 21 12:34:49 COT 2022)
(GPL source distribution)
Java Runtime: Java(TM) SE Runtime Environment
JVM: Java HotSpot(TM) 64-Bit Server VM
Default Encoding: UTF-8
Language: en
Country: GB
--></g></svg>