<?xml version="1.0" encoding="UTF-8" standalone="no"?>
<!DOCTYPE svg PUBLIC "-//W3C//DTD SVG 1.1//EN"
 "http://www.w3.org/Graphics/SVG/1.1/DTD/svg11.dtd">
<!-- Generated by graphviz version 6.0.0 (20220910.1538)
 -->
<!-- Title: graphname Pages: 1 -->
<svg width="961pt" height="485pt"
 viewBox="0.00 0.00 961.00 485.00" xmlns="http://www.w3.org/2000/svg" xmlns:xlink="http://www.w3.org/1999/xlink">
<g id="graph0" class="graph" transform="scale(1 1) rotate(0) translate(4 481)">
<title>graphname</title>
<polygon fill="#fafafa" stroke="none" points="-4,4 -4,-481 957,-481 957,4 -4,4"/>
<text text-anchor="start" x="175.5" y="-452.4" font-family="Helvetica,sans-Serif" font-weight="bold" font-size="22.00" fill="#383838">Project eventbridge&#45;pipes&#45;sqs&#45;enrich&#45;with&#45;api&#45;destination</text>
<text text-anchor="start" x="472.5" y="-436.8" font-family="Helvetica,sans-Serif" font-size="14.00"> &#160;</text>
<text text-anchor="start" x="175.5" y="-415.2" font-family="Helvetica,sans-Serif" font-weight="bold" font-size="16.00" fill="#707070">Target Diagram</text>
<g id="clust1" class="cluster">
<title>cluster_aws</title>
<polygon fill="#f5f5f5" stroke="#f5f5f5" points="8,-8 8,-393 945,-393 945,-8 8,-8"/>
<text text-anchor="start" x="414.5" y="-23" font-family="Helvetica,sans-Serif" font-weight="bold" font-size="20.00" fill="#707070">Provider aws</text>
</g>
<g id="clust2" class="cluster">
<title>cluster_aws_</title>
<polygon fill="#eeeeee" stroke="#eeeeee" points="16,-54 16,-385 937,-385 937,-54 16,-54"/>
<text text-anchor="start" x="476.36" y="-58.3" font-family="Helvetica,sans-Serif" font-size="1.00" fill="#383838"> </text>
</g>
<!-- ApiDestination::MyWebhookTest -->
<g id="node1" class="node">
<title>ApiDestination::MyWebhookTest</title>
<polygon fill="#e5e5e5" stroke="#dddddd" points="544,-377 252,-377 252,-319 544,-319 544,-377"/>
<text text-anchor="start" x="264" y="-357.2" font-family="Helvetica,sans-Serif" font-weight="bold" font-size="16.00" fill="#707070">CloudWatchEvents::ApiDestination</text>
<text text-anchor="start" x="264" y="-332.2" font-family="Helvetica,sans-Serif" font-size="16.00" fill="#383838">MyWebhookTest</text>
</g>
<!-- Connection::MyConnection&#45;v2tEYU29RuDM -->
<g id="node2" class="node">
<title>Connection::MyConnection&#45;v2tEYU29RuDM</title>
<polygon fill="#e5e5e5" stroke="#dddddd" points="897.5,-377 629.5,-377 629.5,-319 897.5,-319 897.5,-377"/>
<text text-anchor="start" x="641.5" y="-357.2" font-family="Helvetica,sans-Serif" font-weight="bold" font-size="16.00" fill="#707070">CloudWatchEvents::Connection</text>
<text text-anchor="start" x="641.5" y="-332.2" font-family="Helvetica,sans-Serif" font-size="16.00" fill="#383838">MyConnection&#45;v2tEYU29RuDM</text>
</g>
<!-- ApiDestination::MyWebhookTest&#45;&gt;Connection::MyConnection&#45;v2tEYU29RuDM -->
<g id="edge1" class="edge">
<title>ApiDestination::MyWebhookTest&#45;&gt;Connection::MyConnection&#45;v2tEYU29RuDM</title>
<path fill="none" stroke="#707070" d="M544.23,-348C568.91,-348 594.53,-348 619.16,-348"/>
<polygon fill="#707070" stroke="#707070" points="619.28,-351.5 629.28,-348 619.28,-344.5 619.28,-351.5"/>
</g>
<!-- LogGroup::sqs&#45;pipes&#45;api&#45;logs -->
<g id="node3" class="node">
<title>LogGroup::sqs&#45;pipes&#45;api&#45;logs</title>
<polygon fill="#e5e5e5" stroke="#dddddd" points="519.5,-205 276.5,-205 276.5,-147 519.5,-147 519.5,-205"/>
<text text-anchor="start" x="289" y="-185.2" font-family="Helvetica,sans-Serif" font-weight="bold" font-size="16.00" fill="#707070">CloudWatchLogs::LogGroup</text>
<text text-anchor="start" x="289" y="-160.2" font-family="Helvetica,sans-Serif" font-size="16.00" fill="#383838">sqs&#45;pipes&#45;api&#45;logs</text>
</g>
<!-- Role::sam&#45;app&#45;EventBridgePipesRole&#45;11Q90EJXBH31D -->
<g id="node4" class="node">
<title>Role::sam&#45;app&#45;EventBridgePipesRole&#45;11Q90EJXBH31D</title>
<polygon fill="#e5e5e5" stroke="#dddddd" points="549,-281 247,-281 247,-223 549,-223 549,-281"/>
<text text-anchor="start" x="259" y="-261.2" font-family="Helvetica,sans-Serif" font-weight="bold" font-size="16.00" fill="#707070">IAM::Role</text>
<text text-anchor="start" x="259" y="-236.2" font-family="Helvetica,sans-Serif" font-size="16.00" fill="#383838">sam&#45;app&#45;EventBridgePipesRole&#45;11Q...</text>
</g>
<!-- Queue::sam&#45;app&#45;SourceQueue&#45;ncHASMZwgjNq -->
<g id="node6" class="node">
<title>Queue::sam&#45;app&#45;SourceQueue&#45;ncHASMZwgjNq</title>
<polygon fill="#e5e5e5" stroke="#dddddd" points="927.5,-281 599.5,-281 599.5,-223 927.5,-223 927.5,-281"/>
<text text-anchor="start" x="611.5" y="-261.2" font-family="Helvetica,sans-Serif" font-weight="bold" font-size="16.00" fill="#707070">SQS::Queue</text>
<text text-anchor="start" x="611.5" y="-236.2" font-family="Helvetica,sans-Serif" font-size="16.00" fill="#383838">sam&#45;app&#45;SourceQueue&#45;ncHASMZwgjNq...</text>
</g>
<!-- Role::sam&#45;app&#45;EventBridgePipesRole&#45;11Q90EJXBH31D&#45;&gt;Queue::sam&#45;app&#45;SourceQueue&#45;ncHASMZwgjNq -->
<g id="edge2" class="edge">
<title>Role::sam&#45;app&#45;EventBridgePipesRole&#45;11Q90EJXBH31D&#45;&gt;Queue::sam&#45;app&#45;SourceQueue&#45;ncHASMZwgjNq</title>
<path fill="none" stroke="#707070" d="M549.21,-252C562.37,-252 575.76,-252 589.09,-252"/>
<polygon fill="#707070" stroke="#707070" points="589.26,-255.5 599.26,-252 589.26,-248.5 589.26,-255.5"/>
</g>
<!-- Pipe::SqsToApiDestination -->
<g id="node5" class="node">
<title>Pipe::SqsToApiDestination</title>
<polygon fill="#e5e5e5" stroke="#dddddd" points="198,-305 24,-305 24,-247 198,-247 198,-305"/>
<text text-anchor="start" x="36" y="-285.2" font-family="Helvetica,sans-Serif" font-weight="bold" font-size="16.00" fill="#707070">Pipes::Pipe</text>
<text text-anchor="start" x="36" y="-260.2" font-family="Helvetica,sans-Serif" font-size="16.00" fill="#383838">SqsToApiDestination</text>
</g>
<!-- Pipe::SqsToApiDestination&#45;&gt;ApiDestination::MyWebhookTest -->
<g id="edge5" class="edge">
<title>Pipe::SqsToApiDestination&#45;&gt;ApiDestination::MyWebhookTest</title>
<path fill="none" stroke="#707070" d="M198.28,-297.8C221.57,-303.68 247.24,-310.17 272.18,-316.47"/>
<polygon fill="#707070" stroke="#707070" points="271.51,-319.91 282.06,-318.96 273.22,-313.12 271.51,-319.91"/>
</g>
<!-- Pipe::SqsToApiDestination&#45;&gt;LogGroup::sqs&#45;pipes&#45;api&#45;logs -->
<g id="edge6" class="edge">
<title>Pipe::SqsToApiDestination&#45;&gt;LogGroup::sqs&#45;pipes&#45;api&#45;logs</title>
<path fill="none" stroke="#707070" d="M162.42,-246.92C183.94,-235.43 209.67,-222.87 234,-214 244.45,-210.19 255.42,-206.67 266.52,-203.44"/>
<polygon fill="#707070" stroke="#707070" points="267.63,-206.76 276.3,-200.67 265.73,-200.02 267.63,-206.76"/>
</g>
<!-- Pipe::SqsToApiDestination&#45;&gt;Role::sam&#45;app&#45;EventBridgePipesRole&#45;11Q90EJXBH31D -->
<g id="edge3" class="edge">
<title>Pipe::SqsToApiDestination&#45;&gt;Role::sam&#45;app&#45;EventBridgePipesRole&#45;11Q90EJXBH31D</title>
<path fill="none" stroke="#707070" d="M198.28,-268.73C210.62,-267.7 223.63,-266.6 236.84,-265.49"/>
<polygon fill="#707070" stroke="#707070" points="237.31,-268.96 246.98,-264.63 236.72,-261.99 237.31,-268.96"/>
</g>
<!-- Pipe::SqsToApiDestination&#45;&gt;Queue::sam&#45;app&#45;SourceQueue&#45;ncHASMZwgjNq -->
<g id="edge4" class="edge">
<title>Pipe::SqsToApiDestination&#45;&gt;Queue::sam&#45;app&#45;SourceQueue&#45;ncHASMZwgjNq</title>
<path fill="none" stroke="#707070" d="M198.21,-287.13C210.21,-288.32 222.4,-289.34 234,-290 379.54,-298.32 416.86,-303.63 562,-290 580.24,-288.29 599.29,-285.72 618.08,-282.7"/>
<polygon fill="#707070" stroke="#707070" points="618.88,-286.12 628.18,-281.04 617.74,-279.21 618.88,-286.12"/>
</g>
<!-- Queue::sam&#45;app&#45;SourceQueueDLQ&#45;ub8Wm1f28Dha -->
<g id="node7" class="node">
<title>Queue::sam&#45;app&#45;SourceQueueDLQ&#45;ub8Wm1f28Dha</title>
<polygon fill="#e5e5e5" stroke="#dddddd" points="929,-129 598,-129 598,-71 929,-71 929,-129"/>
<text text-anchor="start" x="610.5" y="-109.2" font-family="Helvetica,sans-Serif" font-weight="bold" font-size="16.00" fill="#707070">SQS::Queue</text>
<text text-anchor="start" x="610.5" y="-84.2" font-family="Helvetica,sans-Serif" font-size="16.00" fill="#383838">sam&#45;app&#45;SourceQueueDLQ&#45;ub8Wm1f28...</text>
</g>
<!-- QueueRedrivePolicy::sam&#45;app&#45;SourceQueue&#45;ncHASMZwgjNq -->
<g id="node8" class="node">
<title>QueueRedrivePolicy::sam&#45;app&#45;SourceQueue&#45;ncHASMZwgjNq</title>
<polygon fill="#e5e5e5" stroke="#dddddd" points="562,-129 234,-129 234,-71 562,-71 562,-129"/>
<text text-anchor="start" x="246" y="-109.2" font-family="Helvetica,sans-Serif" font-weight="bold" font-size="16.00" fill="#707070">SQS::QueueRedrivePolicy</text>
<text text-anchor="start" x="246" y="-84.2" font-family="Helvetica,sans-Serif" font-size="16.00" fill="#383838">sam&#45;app&#45;SourceQueue&#45;ncHASMZwgjNq...</text>
</g>
<!-- QueueRedrivePolicy::sam&#45;app&#45;SourceQueue&#45;ncHASMZwgjNq&#45;&gt;Queue::sam&#45;app&#45;SourceQueue&#45;ncHASMZwgjNq -->
<g id="edge7" class="edge">
<title>QueueRedrivePolicy::sam&#45;app&#45;SourceQueue&#45;ncHASMZwgjNq&#45;&gt;Queue::sam&#45;app&#45;SourceQueue&#45;ncHASMZwgjNq</title>
<path fill="none" stroke="#707070" d="M536.83,-129.13C545.43,-131.87 553.88,-134.82 562,-138 615.39,-158.89 671.77,-192.07 711.1,-217.26"/>
<polygon fill="#707070" stroke="#707070" points="709.42,-220.35 719.72,-222.83 713.22,-214.47 709.42,-220.35"/>
</g>
<!-- QueueRedrivePolicy::sam&#45;app&#45;SourceQueue&#45;ncHASMZwgjNq&#45;&gt;Queue::sam&#45;app&#45;SourceQueueDLQ&#45;ub8Wm1f28Dha -->
<g id="edge8" class="edge">
<title>QueueRedrivePolicy::sam&#45;app&#45;SourceQueue&#45;ncHASMZwgjNq&#45;&gt;Queue::sam&#45;app&#45;SourceQueueDLQ&#45;ub8Wm1f28Dha</title>
<path fill="none" stroke="#707070" d="M562.14,-100C570.69,-100 579.29,-100 587.87,-100"/>
<polygon fill="#707070" stroke="#707070" points="587.93,-103.5 597.93,-100 587.93,-96.5 587.93,-103.5"/>
</g>
</g>
</svg>
