<?xml version="1.0" encoding="UTF-8" standalone="no"?>
<!DOCTYPE svg PUBLIC "-//W3C//DTD SVG 1.1//EN"
 "http://www.w3.org/Graphics/SVG/1.1/DTD/svg11.dtd">
<!-- Generated by graphviz version 7.1.0 (20230121.1956)
 -->
<!-- Title: graphname Pages: 1 -->
<svg width="1383pt" height="485pt"
 viewBox="0.00 0.00 1383.00 485.00" xmlns="http://www.w3.org/2000/svg" xmlns:xlink="http://www.w3.org/1999/xlink">
<g id="graph0" class="graph" transform="scale(1 1) rotate(0) translate(4 481)">
<title>graphname</title>
<polygon fill="#fafafa" stroke="none" points="-4,4 -4,-481 1379,-481 1379,4 -4,4"/>
<text text-anchor="start" x="386.5" y="-452.4" font-family="Helvetica,sans-Serif" font-weight="bold" font-size="22.00" fill="#383838">Project eventbridge&#45;pipes&#45;sqs&#45;enrich&#45;with&#45;api&#45;destination</text>
<text text-anchor="start" x="683.5" y="-436.8" font-family="Helvetica,sans-Serif" font-size="14.00"> &#160;</text>
<text text-anchor="start" x="386.5" y="-415.2" font-family="Helvetica,sans-Serif" font-weight="bold" font-size="16.00" fill="#707070">Target Diagram</text>
<g id="clust1" class="cluster">
<title>cluster_aws</title>
<polygon fill="#f5f5f5" stroke="#f5f5f5" points="8,-8 8,-393 1367,-393 1367,-8 8,-8"/>
<text text-anchor="start" x="625.5" y="-23" font-family="Helvetica,sans-Serif" font-weight="bold" font-size="20.00" fill="#707070">Provider aws</text>
</g>
<g id="clust2" class="cluster">
<title>cluster_aws_</title>
<polygon fill="#eeeeee" stroke="#eeeeee" points="16,-54 16,-385 1359,-385 1359,-54 16,-54"/>
<text text-anchor="start" x="687.36" y="-58.3" font-family="Helvetica,sans-Serif" font-size="1.00" fill="#383838"> </text>
</g>
<!-- ApiDestination::MyWebhookTest -->
<g id="node1" class="node">
<title>ApiDestination::MyWebhookTest</title>
<polygon fill="#e5e5e5" stroke="#dddddd" points="1047,-305 755,-305 755,-247 1047,-247 1047,-305"/>
<text text-anchor="start" x="767" y="-285.2" font-family="Helvetica,sans-Serif" font-weight="bold" font-size="16.00" fill="#707070">CloudWatchEvents::ApiDestination</text>
<text text-anchor="start" x="767" y="-260.2" font-family="Helvetica,sans-Serif" font-size="16.00" fill="#383838">MyWebhookTest</text>
</g>
<!-- Connection::MyConnection&#45;v2tEYU29RuDM -->
<g id="node2" class="node">
<title>Connection::MyConnection&#45;v2tEYU29RuDM</title>
<polygon fill="#e5e5e5" stroke="#dddddd" points="1351,-305 1083,-305 1083,-247 1351,-247 1351,-305"/>
<text text-anchor="start" x="1095" y="-285.2" font-family="Helvetica,sans-Serif" font-weight="bold" font-size="16.00" fill="#707070">CloudWatchEvents::Connection</text>
<text text-anchor="start" x="1095" y="-260.2" font-family="Helvetica,sans-Serif" font-size="16.00" fill="#383838">MyConnection&#45;v2tEYU29RuDM</text>
</g>
<!-- ApiDestination::MyWebhookTest&#45;&gt;Connection::MyConnection&#45;v2tEYU29RuDM -->
<g id="edge1" class="edge">
<title>ApiDestination::MyWebhookTest&#45;&gt;Connection::MyConnection&#45;v2tEYU29RuDM</title>
<path fill="none" stroke="#707070" d="M1047.05,-276C1055.13,-276 1063.26,-276 1071.34,-276"/>
<polygon fill="#707070" stroke="#707070" points="1071.21,-279.5 1081.21,-276 1071.21,-272.5 1071.21,-279.5"/>
</g>
<!-- LogGroup::sqs&#45;pipes&#45;api&#45;logs -->
<g id="node3" class="node">
<title>LogGroup::sqs&#45;pipes&#45;api&#45;logs</title>
<polygon fill="#e5e5e5" stroke="#dddddd" points="675,-377 432,-377 432,-319 675,-319 675,-377"/>
<text text-anchor="start" x="444.5" y="-357.2" font-family="Helvetica,sans-Serif" font-weight="bold" font-size="16.00" fill="#707070">CloudWatchLogs::LogGroup</text>
<text text-anchor="start" x="444.5" y="-332.2" font-family="Helvetica,sans-Serif" font-size="16.00" fill="#383838">sqs&#45;pipes&#45;api&#45;logs</text>
</g>
<!-- Role::sam&#45;app&#45;EventBridgePipesRole&#45;11Q90EJXBH31D -->
<g id="node4" class="node">
<title>Role::sam&#45;app&#45;EventBridgePipesRole&#45;11Q90EJXBH31D</title>
<polygon fill="#e5e5e5" stroke="#dddddd" points="704.5,-281 402.5,-281 402.5,-223 704.5,-223 704.5,-281"/>
<text text-anchor="start" x="414.5" y="-261.2" font-family="Helvetica,sans-Serif" font-weight="bold" font-size="16.00" fill="#707070">IAM::Role</text>
<text text-anchor="start" x="414.5" y="-236.2" font-family="Helvetica,sans-Serif" font-size="16.00" fill="#383838">sam&#45;app&#45;EventBridgePipesRole&#45;11Q...</text>
</g>
<!-- Role::sam&#45;app&#45;EventBridgePipesRole&#45;11Q90EJXBH31D&#45;&gt;ApiDestination::MyWebhookTest -->
<g id="edge2" class="edge">
<title>Role::sam&#45;app&#45;EventBridgePipesRole&#45;11Q90EJXBH31D&#45;&gt;ApiDestination::MyWebhookTest</title>
<path fill="none" stroke="#707070" d="M704.79,-262.44C717.59,-263.33 730.57,-264.23 743.42,-265.12"/>
<polygon fill="#707070" stroke="#707070" points="742.95,-268.6 753.17,-265.8 743.44,-261.62 742.95,-268.6"/>
</g>
<!-- Pipe::SqsToApiDestination -->
<g id="node5" class="node">
<title>Pipe::SqsToApiDestination</title>
<polygon fill="#e5e5e5" stroke="#dddddd" points="275,-305 101,-305 101,-247 275,-247 275,-305"/>
<text text-anchor="start" x="113" y="-285.2" font-family="Helvetica,sans-Serif" font-weight="bold" font-size="16.00" fill="#707070">Pipes::Pipe</text>
<text text-anchor="start" x="113" y="-260.2" font-family="Helvetica,sans-Serif" font-size="16.00" fill="#383838">SqsToApiDestination</text>
</g>
<!-- Pipe::SqsToApiDestination&#45;&gt;ApiDestination::MyWebhookTest -->
<g id="edge5" class="edge">
<title>Pipe::SqsToApiDestination&#45;&gt;ApiDestination::MyWebhookTest</title>
<path fill="none" stroke="#707070" d="M275.13,-283.38C310.12,-286.04 350.96,-288.7 388,-290 535.02,-295.17 572,-295.68 719,-290 727.01,-289.69 735.22,-289.3 743.5,-288.86"/>
<polygon fill="#707070" stroke="#707070" points="743.54,-292.36 753.32,-288.3 743.14,-285.37 743.54,-292.36"/>
</g>
<!-- Pipe::SqsToApiDestination&#45;&gt;LogGroup::sqs&#45;pipes&#45;api&#45;logs -->
<g id="edge6" class="edge">
<title>Pipe::SqsToApiDestination&#45;&gt;LogGroup::sqs&#45;pipes&#45;api&#45;logs</title>
<path fill="none" stroke="#707070" d="M275.14,-293.06C318.48,-301.65 371.96,-312.24 420.35,-321.82"/>
<polygon fill="#707070" stroke="#707070" points="419.59,-325.24 430.08,-323.75 420.95,-318.37 419.59,-325.24"/>
</g>
<!-- Pipe::SqsToApiDestination&#45;&gt;Role::sam&#45;app&#45;EventBridgePipesRole&#45;11Q90EJXBH31D -->
<g id="edge3" class="edge">
<title>Pipe::SqsToApiDestination&#45;&gt;Role::sam&#45;app&#45;EventBridgePipesRole&#45;11Q90EJXBH31D</title>
<path fill="none" stroke="#707070" d="M275.14,-270.31C309.8,-268.02 350.95,-265.31 390.79,-262.68"/>
<polygon fill="#707070" stroke="#707070" points="391.01,-266.17 400.76,-262.02 390.55,-259.19 391.01,-266.17"/>
</g>
<!-- Queue::sam&#45;app&#45;SourceQueue&#45;ncHASMZwgjNq -->
<g id="node6" class="node">
<title>Queue::sam&#45;app&#45;SourceQueue&#45;ncHASMZwgjNq</title>
<polygon fill="#e5e5e5" stroke="#dddddd" points="717.5,-205 389.5,-205 389.5,-147 717.5,-147 717.5,-205"/>
<text text-anchor="start" x="401.5" y="-185.2" font-family="Helvetica,sans-Serif" font-weight="bold" font-size="16.00" fill="#707070">SQS::Queue</text>
<text text-anchor="start" x="401.5" y="-160.2" font-family="Helvetica,sans-Serif" font-size="16.00" fill="#383838">sam&#45;app&#45;SourceQueue&#45;ncHASMZwgjNq...</text>
</g>
<!-- Pipe::SqsToApiDestination&#45;&gt;Queue::sam&#45;app&#45;SourceQueue&#45;ncHASMZwgjNq -->
<g id="edge4" class="edge">
<title>Pipe::SqsToApiDestination&#45;&gt;Queue::sam&#45;app&#45;SourceQueue&#45;ncHASMZwgjNq</title>
<path fill="none" stroke="#707070" d="M275.28,-247.57C310.11,-236.5 350.8,-224.08 388,-214 395.22,-212.04 402.64,-210.1 410.15,-208.18"/>
<polygon fill="#707070" stroke="#707070" points="410.88,-211.61 419.72,-205.77 409.17,-204.82 410.88,-211.61"/>
</g>
<!-- Queue::sam&#45;app&#45;SourceQueueDLQ&#45;ub8Wm1f28Dha -->
<g id="node7" class="node">
<title>Queue::sam&#45;app&#45;SourceQueueDLQ&#45;ub8Wm1f28Dha</title>
<polygon fill="#e5e5e5" stroke="#dddddd" points="719,-129 388,-129 388,-71 719,-71 719,-129"/>
<text text-anchor="start" x="400.5" y="-109.2" font-family="Helvetica,sans-Serif" font-weight="bold" font-size="16.00" fill="#707070">SQS::Queue</text>
<text text-anchor="start" x="400.5" y="-84.2" font-family="Helvetica,sans-Serif" font-size="16.00" fill="#383838">sam&#45;app&#45;SourceQueueDLQ&#45;ub8Wm1f28...</text>
</g>
<!-- QueueRedrivePolicy::sam&#45;app&#45;SourceQueue&#45;ncHASMZwgjNq -->
<g id="node8" class="node">
<title>QueueRedrivePolicy::sam&#45;app&#45;SourceQueue&#45;ncHASMZwgjNq</title>
<polygon fill="#e5e5e5" stroke="#dddddd" points="352,-167 24,-167 24,-109 352,-109 352,-167"/>
<text text-anchor="start" x="36" y="-147.2" font-family="Helvetica,sans-Serif" font-weight="bold" font-size="16.00" fill="#707070">SQS::QueueRedrivePolicy</text>
<text text-anchor="start" x="36" y="-122.2" font-family="Helvetica,sans-Serif" font-size="16.00" fill="#383838">sam&#45;app&#45;SourceQueue&#45;ncHASMZwgjNq...</text>
</g>
<!-- QueueRedrivePolicy::sam&#45;app&#45;SourceQueue&#45;ncHASMZwgjNq&#45;&gt;Queue::sam&#45;app&#45;SourceQueue&#45;ncHASMZwgjNq -->
<g id="edge7" class="edge">
<title>QueueRedrivePolicy::sam&#45;app&#45;SourceQueue&#45;ncHASMZwgjNq&#45;&gt;Queue::sam&#45;app&#45;SourceQueue&#45;ncHASMZwgjNq</title>
<path fill="none" stroke="#707070" d="M352.41,-155.08C360.77,-155.96 369.19,-156.84 377.58,-157.71"/>
<polygon fill="#707070" stroke="#707070" points="377.2,-161.19 387.51,-158.75 377.92,-154.23 377.2,-161.19"/>
</g>
<!-- QueueRedrivePolicy::sam&#45;app&#45;SourceQueue&#45;ncHASMZwgjNq&#45;&gt;Queue::sam&#45;app&#45;SourceQueueDLQ&#45;ub8Wm1f28Dha -->
<g id="edge8" class="edge">
<title>QueueRedrivePolicy::sam&#45;app&#45;SourceQueue&#45;ncHASMZwgjNq&#45;&gt;Queue::sam&#45;app&#45;SourceQueueDLQ&#45;ub8Wm1f28Dha</title>
<path fill="none" stroke="#707070" d="M352.41,-120.92C360.35,-120.09 368.35,-119.25 376.33,-118.42"/>
<polygon fill="#707070" stroke="#707070" points="376.51,-121.92 386.09,-117.4 375.78,-114.96 376.51,-121.92"/>
</g>
</g>
</svg>
