<?xml version="1.0" encoding="UTF-8" standalone="no"?>
<!DOCTYPE svg PUBLIC "-//W3C//DTD SVG 1.1//EN"
 "http://www.w3.org/Graphics/SVG/1.1/DTD/svg11.dtd">
<!-- Generated by graphviz version 2.50.0 (20211204.2007)
 -->
<!-- Title: graphname Pages: 1 -->
<svg width="1742pt" height="509pt"
 viewBox="0.00 0.00 1742.00 509.00" xmlns="http://www.w3.org/2000/svg" xmlns:xlink="http://www.w3.org/1999/xlink">
<g id="graph0" class="graph" transform="scale(1 1) rotate(0) translate(4 505)">
<title>graphname</title>
<polygon fill="#fafafa" stroke="transparent" points="-4,4 -4,-505 1738,-505 1738,4 -4,4"/>
<text text-anchor="start" x="765" y="-476.4" font-family="Helvetica,sans-Serif" font-weight="bold" font-size="22.00" fill="#383838">Project vm&#45;ad&#45;login</text>
<text text-anchor="start" x="863.5" y="-460.8" font-family="Helvetica,sans-Serif" font-size="14.00"> &#160;</text>
<text text-anchor="start" x="765" y="-439.2" font-family="Helvetica,sans-Serif" font-weight="bold" font-size="16.00" fill="#707070">Live Diagram</text>
<g id="clust1" class="cluster">
<title>cluster_azure</title>
<polygon fill="#f5f5f5" stroke="#f5f5f5" points="8,-8 8,-417 1726,-417 1726,-8 8,-8"/>
<text text-anchor="start" x="798" y="-23" font-family="Helvetica,sans-Serif" font-weight="bold" font-size="20.00" fill="#707070">Provider azure</text>
</g>
<g id="clust2" class="cluster">
<title>cluster_azure_</title>
<polygon fill="#eeeeee" stroke="#eeeeee" points="16,-54 16,-409 1718,-409 1718,-54 16,-54"/>
<text text-anchor="start" x="866.86" y="-58.3" font-family="Helvetica,sans-Serif" font-size="1.00" fill="#383838"> </text>
</g>
<!-- RoleAssignment::::0e4306a9&#45;b8fd&#45;4637&#45;bfce&#45;e5ce05940ef7 -->
<g id="node1" class="node">
<title>RoleAssignment::::0e4306a9&#45;b8fd&#45;4637&#45;bfce&#45;e5ce05940ef7</title>
<polygon fill="#e5e5e5" stroke="#dddddd" points="1436,-401 1135,-401 1135,-343 1436,-343 1436,-401"/>
<text text-anchor="start" x="1147.5" y="-381.2" font-family="Helvetica,sans-Serif" font-weight="bold" font-size="16.00" fill="#707070">Authorization::RoleAssignment</text>
<text text-anchor="start" x="1147.5" y="-356.2" font-family="Helvetica,sans-Serif" font-size="16.00" fill="#383838">0e4306a9&#45;b8fd&#45;4637&#45;bfce&#45;e5ce0594...</text>
</g>
<!-- ResourceGroup::::rg&#45;vm&#45;ad&#45;login -->
<g id="node10" class="node">
<title>ResourceGroup::::rg&#45;vm&#45;ad&#45;login</title>
<polygon fill="#e5e5e5" stroke="#dddddd" points="1710,-293 1472,-293 1472,-235 1710,-235 1710,-293"/>
<text text-anchor="start" x="1484" y="-273.2" font-family="Helvetica,sans-Serif" font-weight="bold" font-size="16.00" fill="#707070">Resources::ResourceGroup</text>
<text text-anchor="start" x="1484" y="-248.2" font-family="Helvetica,sans-Serif" font-size="16.00" fill="#383838">rg&#45;vm&#45;ad&#45;login</text>
</g>
<!-- RoleAssignment::::0e4306a9&#45;b8fd&#45;4637&#45;bfce&#45;e5ce05940ef7&#45;&gt;ResourceGroup::::rg&#45;vm&#45;ad&#45;login -->
<g id="edge1" class="edge">
<title>RoleAssignment::::0e4306a9&#45;b8fd&#45;4637&#45;bfce&#45;e5ce05940ef7&#45;&gt;ResourceGroup::::rg&#45;vm&#45;ad&#45;login</title>
<path fill="none" stroke="#707070" d="M1393.57,-342.89C1407.92,-338.5 1422.38,-333.81 1436,-329 1462.57,-319.61 1491.13,-307.99 1516.36,-297.19"/>
<polygon fill="#707070" stroke="#707070" points="1518.06,-300.27 1525.86,-293.09 1515.29,-293.84 1518.06,-300.27"/>
</g>
<!-- SshPublicKey::::rg&#45;vm&#45;ad&#45;login::keypair -->
<g id="node2" class="node">
<title>SshPublicKey::::rg&#45;vm&#45;ad&#45;login::keypair</title>
<polygon fill="#e5e5e5" stroke="#dddddd" points="828.5,-315 617.5,-315 617.5,-257 828.5,-257 828.5,-315"/>
<text text-anchor="start" x="630" y="-295.2" font-family="Helvetica,sans-Serif" font-weight="bold" font-size="16.00" fill="#707070">Compute::SshPublicKey</text>
<text text-anchor="start" x="630" y="-270.2" font-family="Helvetica,sans-Serif" font-size="16.00" fill="#383838">rg&#45;vm&#45;ad&#45;login::keypair</text>
</g>
<!-- SshPublicKey::::rg&#45;vm&#45;ad&#45;login::keypair&#45;&gt;ResourceGroup::::rg&#45;vm&#45;ad&#45;login -->
<g id="edge2" class="edge">
<title>SshPublicKey::::rg&#45;vm&#45;ad&#45;login::keypair&#45;&gt;ResourceGroup::::rg&#45;vm&#45;ad&#45;login</title>
<path fill="none" stroke="#707070" d="M828.57,-291.96C967.56,-298.62 1220.69,-306.36 1436,-289 1444.34,-288.33 1452.92,-287.45 1461.54,-286.43"/>
<polygon fill="#707070" stroke="#707070" points="1462.19,-289.88 1471.69,-285.18 1461.33,-282.93 1462.19,-289.88"/>
</g>
<!-- VirtualMachine::::rg&#45;vm&#45;ad&#45;login::vm -->
<g id="node3" class="node">
<title>VirtualMachine::::rg&#45;vm&#45;ad&#45;login::vm</title>
<polygon fill="#e5e5e5" stroke="#dddddd" points="573,-291 355,-291 355,-233 573,-233 573,-291"/>
<text text-anchor="start" x="367" y="-271.2" font-family="Helvetica,sans-Serif" font-weight="bold" font-size="16.00" fill="#707070">Compute::VirtualMachine</text>
<text text-anchor="start" x="367" y="-246.2" font-family="Helvetica,sans-Serif" font-size="16.00" fill="#383838">rg&#45;vm&#45;ad&#45;login::vm</text>
</g>
<!-- VirtualMachine::::rg&#45;vm&#45;ad&#45;login::vm&#45;&gt;SshPublicKey::::rg&#45;vm&#45;ad&#45;login::keypair -->
<g id="edge5" class="edge">
<title>VirtualMachine::::rg&#45;vm&#45;ad&#45;login::vm&#45;&gt;SshPublicKey::::rg&#45;vm&#45;ad&#45;login::keypair</title>
<path fill="none" stroke="#707070" d="M573.25,-272.11C584.38,-273.15 595.72,-274.21 606.92,-275.25"/>
<polygon fill="#707070" stroke="#707070" points="606.88,-278.76 617.16,-276.21 607.53,-271.8 606.88,-278.76"/>
</g>
<!-- NetworkInterface::::rg&#45;vm&#45;ad&#45;login::vm514 -->
<g id="node5" class="node">
<title>NetworkInterface::::rg&#45;vm&#45;ad&#45;login::vm514</title>
<polygon fill="#e5e5e5" stroke="#dddddd" points="837,-213 609,-213 609,-155 837,-155 837,-213"/>
<text text-anchor="start" x="621" y="-193.2" font-family="Helvetica,sans-Serif" font-weight="bold" font-size="16.00" fill="#707070">Network::NetworkInterface</text>
<text text-anchor="start" x="621" y="-168.2" font-family="Helvetica,sans-Serif" font-size="16.00" fill="#383838">rg&#45;vm&#45;ad&#45;login::vm514</text>
</g>
<!-- VirtualMachine::::rg&#45;vm&#45;ad&#45;login::vm&#45;&gt;NetworkInterface::::rg&#45;vm&#45;ad&#45;login::vm514 -->
<g id="edge4" class="edge">
<title>VirtualMachine::::rg&#45;vm&#45;ad&#45;login::vm&#45;&gt;NetworkInterface::::rg&#45;vm&#45;ad&#45;login::vm514</title>
<path fill="none" stroke="#707070" d="M560.7,-232.96C578.93,-227.42 598.1,-221.6 616.61,-215.99"/>
<polygon fill="#707070" stroke="#707070" points="617.67,-219.32 626.22,-213.07 615.64,-212.62 617.67,-219.32"/>
</g>
<!-- VirtualMachine::::rg&#45;vm&#45;ad&#45;login::vm&#45;&gt;ResourceGroup::::rg&#45;vm&#45;ad&#45;login -->
<g id="edge3" class="edge">
<title>VirtualMachine::::rg&#45;vm&#45;ad&#45;login::vm&#45;&gt;ResourceGroup::::rg&#45;vm&#45;ad&#45;login</title>
<path fill="none" stroke="#707070" d="M573.03,-250.35C585.15,-249.39 597.33,-248.57 609,-248 710.21,-243.09 740.58,-216.82 837,-248 855.78,-254.07 854.22,-267.93 873,-274 927.22,-291.53 1270.67,-278.87 1461.87,-270.24"/>
<polygon fill="#707070" stroke="#707070" points="1462.16,-273.73 1471.99,-269.78 1461.84,-266.73 1462.16,-273.73"/>
</g>
<!-- VirtualMachineExtension::::rg&#45;vm&#45;ad&#45;login::vm::aadsshloginforlinux -->
<g id="node4" class="node">
<title>VirtualMachineExtension::::rg&#45;vm&#45;ad&#45;login::vm::aadsshloginforlinux</title>
<polygon fill="#e5e5e5" stroke="#dddddd" points="319,-339 24,-339 24,-281 319,-281 319,-339"/>
<text text-anchor="start" x="36.5" y="-319.2" font-family="Helvetica,sans-Serif" font-weight="bold" font-size="16.00" fill="#707070">Compute::VirtualMachineExtension</text>
<text text-anchor="start" x="36.5" y="-294.2" font-family="Helvetica,sans-Serif" font-size="16.00" fill="#383838">rg&#45;vm&#45;ad&#45;login::vm::aadsshloginf...</text>
</g>
<!-- VirtualMachineExtension::::rg&#45;vm&#45;ad&#45;login::vm::aadsshloginforlinux&#45;&gt;VirtualMachine::::rg&#45;vm&#45;ad&#45;login::vm -->
<g id="edge7" class="edge">
<title>VirtualMachineExtension::::rg&#45;vm&#45;ad&#45;login::vm::aadsshloginforlinux&#45;&gt;VirtualMachine::::rg&#45;vm&#45;ad&#45;login::vm</title>
<path fill="none" stroke="#707070" d="M319.03,-285.79C327.64,-284.37 336.25,-282.94 344.73,-281.54"/>
<polygon fill="#707070" stroke="#707070" points="345.33,-284.99 354.62,-279.91 344.19,-278.08 345.33,-284.99"/>
</g>
<!-- VirtualMachineExtension::::rg&#45;vm&#45;ad&#45;login::vm::aadsshloginforlinux&#45;&gt;ResourceGroup::::rg&#45;vm&#45;ad&#45;login -->
<g id="edge6" class="edge">
<title>VirtualMachineExtension::::rg&#45;vm&#45;ad&#45;login::vm::aadsshloginforlinux&#45;&gt;ResourceGroup::::rg&#45;vm&#45;ad&#45;login</title>
<path fill="none" stroke="#707070" d="M319.47,-315.89C404.12,-318.99 512.53,-322.45 609,-324 976.68,-329.89 1071.5,-347.62 1436,-299 1444.59,-297.85 1453.41,-296.46 1462.26,-294.89"/>
<polygon fill="#707070" stroke="#707070" points="1463.06,-298.3 1472.27,-293.05 1461.8,-291.42 1463.06,-298.3"/>
</g>
<!-- NetworkSecurityGroup::::rg&#45;vm&#45;ad&#45;login::vm&#45;nsg -->
<g id="node6" class="node">
<title>NetworkSecurityGroup::::rg&#45;vm&#45;ad&#45;login::vm&#45;nsg</title>
<polygon fill="#e5e5e5" stroke="#dddddd" points="1421.5,-245 1149.5,-245 1149.5,-187 1421.5,-187 1421.5,-245"/>
<text text-anchor="start" x="1161.5" y="-225.2" font-family="Helvetica,sans-Serif" font-weight="bold" font-size="16.00" fill="#707070">Network::NetworkSecurityGroup</text>
<text text-anchor="start" x="1161.5" y="-200.2" font-family="Helvetica,sans-Serif" font-size="16.00" fill="#383838">rg&#45;vm&#45;ad&#45;login::vm&#45;nsg</text>
</g>
<!-- NetworkInterface::::rg&#45;vm&#45;ad&#45;login::vm514&#45;&gt;NetworkSecurityGroup::::rg&#45;vm&#45;ad&#45;login::vm&#45;nsg -->
<g id="edge11" class="edge">
<title>NetworkInterface::::rg&#45;vm&#45;ad&#45;login::vm514&#45;&gt;NetworkSecurityGroup::::rg&#45;vm&#45;ad&#45;login::vm&#45;nsg</title>
<path fill="none" stroke="#707070" d="M837.32,-186.48C911.76,-188.54 1011.25,-192.11 1099,-198 1111.99,-198.87 1125.48,-199.91 1138.99,-201.05"/>
<polygon fill="#707070" stroke="#707070" points="1139.06,-204.57 1149.32,-201.94 1139.66,-197.6 1139.06,-204.57"/>
</g>
<!-- PublicIPAddress::::rg&#45;vm&#45;ad&#45;login::vm&#45;ip -->
<g id="node7" class="node">
<title>PublicIPAddress::::rg&#45;vm&#45;ad&#45;login::vm&#45;ip</title>
<polygon fill="#e5e5e5" stroke="#dddddd" points="1098,-265 874,-265 874,-207 1098,-207 1098,-265"/>
<text text-anchor="start" x="886" y="-245.2" font-family="Helvetica,sans-Serif" font-weight="bold" font-size="16.00" fill="#707070">Network::PublicIPAddress</text>
<text text-anchor="start" x="886" y="-220.2" font-family="Helvetica,sans-Serif" font-size="16.00" fill="#383838">rg&#45;vm&#45;ad&#45;login::vm&#45;ip</text>
</g>
<!-- NetworkInterface::::rg&#45;vm&#45;ad&#45;login::vm514&#45;&gt;PublicIPAddress::::rg&#45;vm&#45;ad&#45;login::vm&#45;ip -->
<g id="edge10" class="edge">
<title>NetworkInterface::::rg&#45;vm&#45;ad&#45;login::vm514&#45;&gt;PublicIPAddress::::rg&#45;vm&#45;ad&#45;login::vm&#45;ip</title>
<path fill="none" stroke="#707070" d="M837.34,-206.58C846.14,-208.33 855.04,-210.11 863.88,-211.87"/>
<polygon fill="#707070" stroke="#707070" points="863.34,-215.33 873.83,-213.85 864.71,-208.47 863.34,-215.33"/>
</g>
<!-- Subnet::::rg&#45;vm&#45;ad&#45;login::vnet::default -->
<g id="node8" class="node">
<title>Subnet::::rg&#45;vm&#45;ad&#45;login::vnet::default</title>
<polygon fill="#e5e5e5" stroke="#dddddd" points="1099,-129 873,-129 873,-71 1099,-71 1099,-129"/>
<text text-anchor="start" x="885" y="-109.2" font-family="Helvetica,sans-Serif" font-weight="bold" font-size="16.00" fill="#707070">Network::Subnet</text>
<text text-anchor="start" x="885" y="-84.2" font-family="Helvetica,sans-Serif" font-size="16.00" fill="#383838">rg&#45;vm&#45;ad&#45;login::vnet::default</text>
</g>
<!-- NetworkInterface::::rg&#45;vm&#45;ad&#45;login::vm514&#45;&gt;Subnet::::rg&#45;vm&#45;ad&#45;login::vnet::default -->
<g id="edge12" class="edge">
<title>NetworkInterface::::rg&#45;vm&#45;ad&#45;login::vm514&#45;&gt;Subnet::::rg&#45;vm&#45;ad&#45;login::vnet::default</title>
<path fill="none" stroke="#707070" d="M814.19,-154.97C837.11,-147.6 861.87,-139.63 885.24,-132.11"/>
<polygon fill="#707070" stroke="#707070" points="886.36,-135.42 894.81,-129.03 884.22,-128.76 886.36,-135.42"/>
</g>
<!-- VirtualNetwork::::rg&#45;vm&#45;ad&#45;login::vnet -->
<g id="node9" class="node">
<title>VirtualNetwork::::rg&#45;vm&#45;ad&#45;login::vnet</title>
<polygon fill="#e5e5e5" stroke="#dddddd" points="1391,-149 1180,-149 1180,-91 1391,-91 1391,-149"/>
<text text-anchor="start" x="1192.5" y="-129.2" font-family="Helvetica,sans-Serif" font-weight="bold" font-size="16.00" fill="#707070">Network::VirtualNetwork</text>
<text text-anchor="start" x="1192.5" y="-104.2" font-family="Helvetica,sans-Serif" font-size="16.00" fill="#383838">rg&#45;vm&#45;ad&#45;login::vnet</text>
</g>
<!-- NetworkInterface::::rg&#45;vm&#45;ad&#45;login::vm514&#45;&gt;VirtualNetwork::::rg&#45;vm&#45;ad&#45;login::vnet -->
<g id="edge9" class="edge">
<title>NetworkInterface::::rg&#45;vm&#45;ad&#45;login::vm514&#45;&gt;VirtualNetwork::::rg&#45;vm&#45;ad&#45;login::vnet</title>
<path fill="none" stroke="#707070" d="M837.03,-167.64C849.16,-166.01 861.33,-164.43 873,-163 928.46,-156.2 1068.48,-141.78 1169.8,-131.52"/>
<polygon fill="#707070" stroke="#707070" points="1170.19,-135 1179.79,-130.51 1169.49,-128.03 1170.19,-135"/>
</g>
<!-- NetworkInterface::::rg&#45;vm&#45;ad&#45;login::vm514&#45;&gt;ResourceGroup::::rg&#45;vm&#45;ad&#45;login -->
<g id="edge8" class="edge">
<title>NetworkInterface::::rg&#45;vm&#45;ad&#45;login::vm514&#45;&gt;ResourceGroup::::rg&#45;vm&#45;ad&#45;login</title>
<path fill="none" stroke="#707070" d="M837.26,-175.91C1008.87,-164.86 1326.39,-149.47 1436,-178 1474.57,-188.04 1513.73,-210.1 1542.91,-229.36"/>
<polygon fill="#707070" stroke="#707070" points="1540.99,-232.3 1551.24,-234.97 1544.9,-226.49 1540.99,-232.3"/>
</g>
<!-- NetworkSecurityGroup::::rg&#45;vm&#45;ad&#45;login::vm&#45;nsg&#45;&gt;ResourceGroup::::rg&#45;vm&#45;ad&#45;login -->
<g id="edge13" class="edge">
<title>NetworkSecurityGroup::::rg&#45;vm&#45;ad&#45;login::vm&#45;nsg&#45;&gt;ResourceGroup::::rg&#45;vm&#45;ad&#45;login</title>
<path fill="none" stroke="#707070" d="M1421.83,-237.4C1435.06,-239.49 1448.45,-241.61 1461.6,-243.69"/>
<polygon fill="#707070" stroke="#707070" points="1461.19,-247.17 1471.61,-245.28 1462.28,-240.26 1461.19,-247.17"/>
</g>
<!-- PublicIPAddress::::rg&#45;vm&#45;ad&#45;login::vm&#45;ip&#45;&gt;ResourceGroup::::rg&#45;vm&#45;ad&#45;login -->
<g id="edge14" class="edge">
<title>PublicIPAddress::::rg&#45;vm&#45;ad&#45;login::vm&#45;ip&#45;&gt;ResourceGroup::::rg&#45;vm&#45;ad&#45;login</title>
<path fill="none" stroke="#707070" d="M1098,-250.71C1110.47,-252 1122.99,-253.14 1135,-254 1244.96,-261.88 1370.21,-264.14 1461.42,-264.56"/>
<polygon fill="#707070" stroke="#707070" points="1461.52,-268.06 1471.53,-264.6 1461.55,-261.06 1461.52,-268.06"/>
</g>
<!-- Subnet::::rg&#45;vm&#45;ad&#45;login::vnet::default&#45;&gt;VirtualNetwork::::rg&#45;vm&#45;ad&#45;login::vnet -->
<g id="edge16" class="edge">
<title>Subnet::::rg&#45;vm&#45;ad&#45;login::vnet::default&#45;&gt;VirtualNetwork::::rg&#45;vm&#45;ad&#45;login::vnet</title>
<path fill="none" stroke="#707070" d="M1099.05,-107.53C1122.15,-109.09 1146.51,-110.72 1169.7,-112.28"/>
<polygon fill="#707070" stroke="#707070" points="1169.71,-115.79 1179.92,-112.97 1170.17,-108.81 1169.71,-115.79"/>
</g>
<!-- Subnet::::rg&#45;vm&#45;ad&#45;login::vnet::default&#45;&gt;ResourceGroup::::rg&#45;vm&#45;ad&#45;login -->
<g id="edge15" class="edge">
<title>Subnet::::rg&#45;vm&#45;ad&#45;login::vnet::default&#45;&gt;ResourceGroup::::rg&#45;vm&#45;ad&#45;login</title>
<path fill="none" stroke="#707070" d="M1086.21,-70.99C1180.73,-48.97 1324.71,-30.38 1436,-82 1499.63,-111.51 1546.49,-181.69 1570.91,-225.77"/>
<polygon fill="#707070" stroke="#707070" points="1567.94,-227.64 1575.78,-234.76 1574.09,-224.3 1567.94,-227.64"/>
</g>
<!-- VirtualNetwork::::rg&#45;vm&#45;ad&#45;login::vnet&#45;&gt;ResourceGroup::::rg&#45;vm&#45;ad&#45;login -->
<g id="edge17" class="edge">
<title>VirtualNetwork::::rg&#45;vm&#45;ad&#45;login::vnet&#45;&gt;ResourceGroup::::rg&#45;vm&#45;ad&#45;login</title>
<path fill="none" stroke="#707070" d="M1391.3,-145.78C1406.57,-150.79 1421.89,-156.52 1436,-163 1474.61,-180.72 1514.63,-207.26 1544.2,-228.68"/>
<polygon fill="#707070" stroke="#707070" points="1542.5,-231.78 1552.63,-234.87 1546.64,-226.13 1542.5,-231.78"/>
</g>
</g>
</svg>
