<?xml version="1.0" encoding="UTF-8" standalone="no"?>
<!DOCTYPE svg PUBLIC "-//W3C//DTD SVG 1.1//EN"
 "http://www.w3.org/Graphics/SVG/1.1/DTD/svg11.dtd">
<!-- Generated by graphviz version 3.0.0 (20220226.1711)
 -->
<!-- Title: graphname Pages: 1 -->
<svg width="758pt" height="465pt"
 viewBox="0.00 0.00 758.00 465.00" xmlns="http://www.w3.org/2000/svg" xmlns:xlink="http://www.w3.org/1999/xlink">
<g id="graph0" class="graph" transform="scale(1 1) rotate(0) translate(4 461)">
<title>graphname</title>
<polygon fill="#fafafa" stroke="transparent" points="-4,4 -4,-461 754,-461 754,4 -4,4"/>
<text text-anchor="start" x="257" y="-432.4" font-family="Helvetica,sans-Serif" font-weight="bold" font-size="22.00" fill="#383838">Project s3&#45;eventbridge</text>
<text text-anchor="start" x="371" y="-416.8" font-family="Helvetica,sans-Serif" font-size="14.00"> &#160;</text>
<text text-anchor="start" x="257" y="-395.2" font-family="Helvetica,sans-Serif" font-weight="bold" font-size="16.00" fill="#707070">Live Diagram</text>
<g id="clust1" class="cluster">
<title>cluster_aws</title>
<polygon fill="#f5f5f5" stroke="#f5f5f5" points="8,-8 8,-373 742,-373 742,-8 8,-8"/>
<text text-anchor="start" x="313" y="-23" font-family="Helvetica,sans-Serif" font-weight="bold" font-size="20.00" fill="#707070">Provider aws</text>
</g>
<g id="clust2" class="cluster">
<title>cluster_aws_</title>
<polygon fill="#eeeeee" stroke="#eeeeee" points="16,-54 16,-365 734,-365 734,-54 16,-54"/>
<text text-anchor="start" x="374.86" y="-58.3" font-family="Helvetica,sans-Serif" font-size="1.00" fill="#383838"> </text>
</g>
<!-- Trail::::CloudTrailForS3ImagePushEvents -->
<g id="node1" class="node">
<title>Trail::::CloudTrailForS3ImagePushEvents</title>
<polygon fill="#e5e5e5" stroke="#dddddd" points="326.5,-357 53.5,-357 53.5,-299 326.5,-299 326.5,-357"/>
<text text-anchor="start" x="66" y="-337.2" font-family="Helvetica,sans-Serif" font-weight="bold" font-size="16.00" fill="#707070">CloudTrail::Trail</text>
<text text-anchor="start" x="66" y="-312.2" font-family="Helvetica,sans-Serif" font-size="16.00" fill="#383838">CloudTrailForS3ImagePushEvents</text>
</g>
<!-- Bucket::::grucloud&#45;s3&#45;event&#45;bridge&#45;logs -->
<g id="node5" class="node">
<title>Bucket::::grucloud&#45;s3&#45;event&#45;bridge&#45;logs</title>
<polygon fill="#e5e5e5" stroke="#dddddd" points="679,-357 439,-357 439,-299 679,-299 679,-357"/>
<text text-anchor="start" x="451" y="-337.2" font-family="Helvetica,sans-Serif" font-weight="bold" font-size="16.00" fill="#707070">S3::Bucket</text>
<text text-anchor="start" x="451" y="-312.2" font-family="Helvetica,sans-Serif" font-size="16.00" fill="#383838">grucloud&#45;s3&#45;event&#45;bridge&#45;logs</text>
</g>
<!-- Trail::::CloudTrailForS3ImagePushEvents&#45;&gt;Bucket::::grucloud&#45;s3&#45;event&#45;bridge&#45;logs -->
<g id="edge1" class="edge">
<title>Trail::::CloudTrailForS3ImagePushEvents&#45;&gt;Bucket::::grucloud&#45;s3&#45;event&#45;bridge&#45;logs</title>
<path fill="none" stroke="#707070" d="M326.61,-328C360.02,-328 395.69,-328 428.78,-328"/>
<polygon fill="#707070" stroke="#707070" points="428.96,-331.5 438.96,-328 428.96,-324.5 428.96,-331.5"/>
</g>
<!-- Rule::::sam&#45;app&#45;S3NewImageEvent&#45;W0968CSQOUFJ -->
<g id="node2" class="node">
<title>Rule::::sam&#45;app&#45;S3NewImageEvent&#45;W0968CSQOUFJ</title>
<polygon fill="#e5e5e5" stroke="#dddddd" points="726,-281 392,-281 392,-223 726,-223 726,-281"/>
<text text-anchor="start" x="404" y="-261.2" font-family="Helvetica,sans-Serif" font-weight="bold" font-size="16.00" fill="#707070">CloudWatchEvents::Rule</text>
<text text-anchor="start" x="404" y="-236.2" font-family="Helvetica,sans-Serif" font-size="16.00" fill="#383838">sam&#45;app&#45;S3NewImageEvent&#45;W0968CSQ...</text>
</g>
<!-- Target::::target::sam&#45;app&#45;S3NewImageEvent&#45;W0968CSQOUFJ::S3NewImageEvent -->
<g id="node3" class="node">
<title>Target::::target::sam&#45;app&#45;S3NewImageEvent&#45;W0968CSQOUFJ::S3NewImageEvent</title>
<polygon fill="#e5e5e5" stroke="#dddddd" points="339.5,-281 40.5,-281 40.5,-223 339.5,-223 339.5,-281"/>
<text text-anchor="start" x="53" y="-261.2" font-family="Helvetica,sans-Serif" font-weight="bold" font-size="16.00" fill="#707070">CloudWatchEvents::Target</text>
<text text-anchor="start" x="53" y="-236.2" font-family="Helvetica,sans-Serif" font-size="16.00" fill="#383838">target::sam&#45;app&#45;S3NewImageEvent&#45;...</text>
</g>
<!-- Target::::target::sam&#45;app&#45;S3NewImageEvent&#45;W0968CSQOUFJ::S3NewImageEvent&#45;&gt;Rule::::sam&#45;app&#45;S3NewImageEvent&#45;W0968CSQOUFJ -->
<g id="edge2" class="edge">
<title>Target::::target::sam&#45;app&#45;S3NewImageEvent&#45;W0968CSQOUFJ::S3NewImageEvent&#45;&gt;Rule::::sam&#45;app&#45;S3NewImageEvent&#45;W0968CSQOUFJ</title>
<path fill="none" stroke="#707070" d="M339.74,-252C353.57,-252 367.68,-252 381.72,-252"/>
<polygon fill="#707070" stroke="#707070" points="381.94,-255.5 391.94,-252 381.94,-248.5 381.94,-255.5"/>
</g>
<!-- Bucket::::grucloud&#45;s3&#45;event&#45;bridge&#45;images -->
<g id="node4" class="node">
<title>Bucket::::grucloud&#45;s3&#45;event&#45;bridge&#45;images</title>
<polygon fill="#e5e5e5" stroke="#dddddd" points="321,-205 59,-205 59,-147 321,-147 321,-205"/>
<text text-anchor="start" x="71" y="-185.2" font-family="Helvetica,sans-Serif" font-weight="bold" font-size="16.00" fill="#707070">S3::Bucket</text>
<text text-anchor="start" x="71" y="-160.2" font-family="Helvetica,sans-Serif" font-size="16.00" fill="#383838">grucloud&#45;s3&#45;event&#45;bridge&#45;images</text>
</g>
<!-- Queue::::sam&#45;app&#45;NewImageEventQueue&#45;DGEXqRa9ZM4Z -->
<g id="node6" class="node">
<title>Queue::::sam&#45;app&#45;NewImageEventQueue&#45;DGEXqRa9ZM4Z</title>
<polygon fill="#e5e5e5" stroke="#dddddd" points="356,-129 24,-129 24,-71 356,-71 356,-129"/>
<text text-anchor="start" x="36" y="-109.2" font-family="Helvetica,sans-Serif" font-weight="bold" font-size="16.00" fill="#707070">SQS::Queue</text>
<text text-anchor="start" x="36" y="-84.2" font-family="Helvetica,sans-Serif" font-size="16.00" fill="#383838">sam&#45;app&#45;NewImageEventQueue&#45;DGEXq...</text>
</g>
</g>
</svg>
