<?xml version="1.0" encoding="UTF-8" standalone="no"?>
<!DOCTYPE svg PUBLIC "-//W3C//DTD SVG 1.1//EN"
 "http://www.w3.org/Graphics/SVG/1.1/DTD/svg11.dtd">
<!-- Generated by graphviz version 2.50.0 (20211204.2007)
 -->
<!-- Title: graphname Pages: 1 -->
<svg width="711pt" height="257pt"
 viewBox="0.00 0.00 711.00 257.00" xmlns="http://www.w3.org/2000/svg" xmlns:xlink="http://www.w3.org/1999/xlink">
<g id="graph0" class="graph" transform="scale(1 1) rotate(0) translate(4 253)">
<title>graphname</title>
<polygon fill="#fafafa" stroke="transparent" points="-4,4 -4,-253 707,-253 707,4 -4,4"/>
<text text-anchor="start" x="223.5" y="-224.4" font-family="Helvetica,sans-Serif" font-weight="bold" font-size="22.00" fill="#383838">Project azure&#45;postgresql</text>
<text text-anchor="start" x="348" y="-208.8" font-family="Helvetica,sans-Serif" font-size="14.00"> &#160;</text>
<text text-anchor="start" x="223.5" y="-187.2" font-family="Helvetica,sans-Serif" font-weight="bold" font-size="16.00" fill="#707070">Target Diagram</text>
<g id="clust1" class="cluster">
<title>cluster_azure</title>
<polygon fill="#f5f5f5" stroke="#f5f5f5" points="8,-8 8,-165 695,-165 695,-8 8,-8"/>
<text text-anchor="start" x="282.5" y="-23" font-family="Helvetica,sans-Serif" font-weight="bold" font-size="20.00" fill="#707070">Provider azure</text>
</g>
<g id="clust2" class="cluster">
<title>cluster_azure_</title>
<polygon fill="#eeeeee" stroke="#eeeeee" points="16,-54 16,-157 687,-157 687,-54 16,-54"/>
<text text-anchor="start" x="351.36" y="-58.3" font-family="Helvetica,sans-Serif" font-size="1.00" fill="#383838"> </text>
</g>
<!-- FirewallRule::AllowAllAzureServicesAndResourcesWithinAzureIps_2021&#45;12&#45;15_11&#45;18&#45;53 -->
<g id="node1" class="node">
<title>FirewallRule::AllowAllAzureServicesAndResourcesWithinAzureIps_2021&#45;12&#45;15_11&#45;18&#45;53</title>
<polygon fill="#e5e5e5" stroke="#dddddd" points="320,-139 24,-139 24,-81 320,-81 320,-139"/>
<text text-anchor="start" x="36" y="-119.2" font-family="Helvetica,sans-Serif" font-weight="bold" font-size="16.00" fill="#707070">FirewallRule</text>
<text text-anchor="start" x="36" y="-94.2" font-family="Helvetica,sans-Serif" font-size="16.00" fill="#383838">AllowAllAzureServicesAndResource...</text>
</g>
<!-- Server::db&#45;grucloud&#45;test -->
<g id="node2" class="node">
<title>Server::db&#45;grucloud&#45;test</title>
<polygon fill="#e5e5e5" stroke="#dddddd" points="498,-129 356,-129 356,-71 498,-71 498,-129"/>
<text text-anchor="start" x="368" y="-109.2" font-family="Helvetica,sans-Serif" font-weight="bold" font-size="16.00" fill="#707070">Server</text>
<text text-anchor="start" x="368" y="-84.2" font-family="Helvetica,sans-Serif" font-size="16.00" fill="#383838">db&#45;grucloud&#45;test</text>
</g>
<!-- FirewallRule::AllowAllAzureServicesAndResourcesWithinAzureIps_2021&#45;12&#45;15_11&#45;18&#45;53&#45;&gt;Server::db&#45;grucloud&#45;test -->
<g id="edge2" class="edge">
<title>FirewallRule::AllowAllAzureServicesAndResourcesWithinAzureIps_2021&#45;12&#45;15_11&#45;18&#45;53&#45;&gt;Server::db&#45;grucloud&#45;test</title>
<path fill="none" stroke="#707070" d="M320.17,-104.18C328.81,-103.84 337.31,-103.51 345.52,-103.18"/>
<polygon fill="#707070" stroke="#707070" points="345.89,-106.67 355.74,-102.78 345.61,-99.67 345.89,-106.67"/>
</g>
<!-- ResourceGroup::rg&#45;postgres -->
<g id="node3" class="node">
<title>ResourceGroup::rg&#45;postgres</title>
<polygon fill="#e5e5e5" stroke="#dddddd" points="679,-139 534,-139 534,-81 679,-81 679,-139"/>
<text text-anchor="start" x="546.5" y="-119.2" font-family="Helvetica,sans-Serif" font-weight="bold" font-size="16.00" fill="#707070">ResourceGroup</text>
<text text-anchor="start" x="546.5" y="-94.2" font-family="Helvetica,sans-Serif" font-size="16.00" fill="#383838">rg&#45;postgres</text>
</g>
<!-- FirewallRule::AllowAllAzureServicesAndResourcesWithinAzureIps_2021&#45;12&#45;15_11&#45;18&#45;53&#45;&gt;ResourceGroup::rg&#45;postgres -->
<g id="edge1" class="edge">
<title>FirewallRule::AllowAllAzureServicesAndResourcesWithinAzureIps_2021&#45;12&#45;15_11&#45;18&#45;53&#45;&gt;ResourceGroup::rg&#45;postgres</title>
<path fill="none" stroke="#707070" d="M320.1,-135.95C375.92,-142.31 440,-145.43 498,-138 506.48,-136.91 515.24,-135.36 523.94,-133.55"/>
<polygon fill="#707070" stroke="#707070" points="524.7,-136.96 533.71,-131.39 523.19,-130.13 524.7,-136.96"/>
</g>
<!-- Server::db&#45;grucloud&#45;test&#45;&gt;ResourceGroup::rg&#45;postgres -->
<g id="edge3" class="edge">
<title>Server::db&#45;grucloud&#45;test&#45;&gt;ResourceGroup::rg&#45;postgres</title>
<path fill="none" stroke="#707070" d="M498.15,-103.95C506.58,-104.43 515.24,-104.92 523.82,-105.4"/>
<polygon fill="#707070" stroke="#707070" points="523.64,-108.89 533.82,-105.96 524.03,-101.9 523.64,-108.89"/>
</g>
</g>
</svg>
