<?xml version="1.0" encoding="UTF-8" standalone="no"?><svg xmlns="http://www.w3.org/2000/svg" xmlns:xlink="http://www.w3.org/1999/xlink" contentScriptType="application/ecmascript" contentStyleType="text/css" height="228px" preserveAspectRatio="none" style="width:552px;height:228px;background:#FFFFFF;" version="1.1" viewBox="0 0 552 228" width="552px" zoomAndPan="magnify"><defs><filter height="300%" id="fs90d75vcyq1j" width="300%" x="-1" y="-1"><feGaussianBlur result="blurOut" stdDeviation="2.0"/><feColorMatrix in="blurOut" result="blurOut2" type="matrix" values="0 0 0 0 0 0 0 0 0 0 0 0 0 0 0 0 0 0 .4 0"/><feOffset dx="4.0" dy="4.0" in="blurOut2" result="blurOut3"/><feBlend in="SourceGraphic" in2="blurOut3" mode="normal"/></filter></defs><g><rect fill="none" height="26.4883" style="stroke:none;stroke-width:1.0;" width="294" x="99" y="15"/><text fill="#000000" font-family="sans-serif" font-size="14" font-weight="bold" lengthAdjust="spacing" textLength="284" x="104" y="33.5352">Resources for project azure-postgresql</text><rect fill="#F8F8F8" filter="url(#fs90d75vcyq1j)" height="36.4883" rx="12.5" ry="12.5" style="stroke:#383838;stroke-width:1.5;" width="52" x="10" y="113.9766"/><text fill="#000000" font-family="sans-serif" font-size="14" lengthAdjust="spacing" textLength="32" x="20" y="137.5117">Infra</text><rect fill="#F8F8F8" filter="url(#fs90d75vcyq1j)" height="36.4883" rx="12.5" ry="12.5" style="stroke:#383838;stroke-width:1.5;" width="59" x="112" y="113.9766"/><text fill="#000000" font-family="sans-serif" font-size="14" lengthAdjust="spacing" textLength="39" x="122" y="137.5117">azure</text><rect fill="#F8F8F8" filter="url(#fs90d75vcyq1j)" height="36.4883" rx="12.5" ry="12.5" style="stroke:#383838;stroke-width:1.5;" width="136" x="221" y="85.7324"/><text fill="#000000" font-family="sans-serif" font-size="14" lengthAdjust="spacing" textLength="116" x="231" y="109.2676">DBforPostgreSQL</text><rect fill="#F8F8F8" filter="url(#fs90d75vcyq1j)" height="36.4883" rx="12.5" ry="12.5" style="stroke:#383838;stroke-width:1.5;" width="126" x="407" y="57.4883"/><text fill="#000000" font-family="sans-serif" font-size="14" lengthAdjust="spacing" textLength="106" x="417" y="81.0234">FirewallRule (1)</text><path d="M357,103.9766 L367,103.9766 C382,103.9766 382,75.7324 397,75.7324 L407,75.7324 " fill="none" style="stroke:#383838;stroke-width:1.0;"/><rect fill="#F8F8F8" filter="url(#fs90d75vcyq1j)" height="36.4883" rx="12.5" ry="12.5" style="stroke:#383838;stroke-width:1.5;" width="86" x="407" y="113.9766"/><text fill="#000000" font-family="sans-serif" font-size="14" lengthAdjust="spacing" textLength="66" x="417" y="137.5117">Server (1)</text><path d="M357,103.9766 L367,103.9766 C382,103.9766 382,132.2207 397,132.2207 L407,132.2207 " fill="none" style="stroke:#383838;stroke-width:1.0;"/><path d="M171,132.2207 L181,132.2207 C196,132.2207 196,103.9766 211,103.9766 L221,103.9766 " fill="none" style="stroke:#383838;stroke-width:1.0;"/><rect fill="#F8F8F8" filter="url(#fs90d75vcyq1j)" height="36.4883" rx="12.5" ry="12.5" style="stroke:#383838;stroke-width:1.5;" width="90" x="221" y="170.4648"/><text fill="#000000" font-family="sans-serif" font-size="14" lengthAdjust="spacing" textLength="70" x="231" y="194">Resources</text><rect fill="#F8F8F8" filter="url(#fs90d75vcyq1j)" height="36.4883" rx="12.5" ry="12.5" style="stroke:#383838;stroke-width:1.5;" width="149" x="361" y="170.4648"/><text fill="#000000" font-family="sans-serif" font-size="14" lengthAdjust="spacing" textLength="129" x="371" y="194">ResourceGroup (1)</text><path d="M311,188.709 L321,188.709 C336,188.709 336,188.709 351,188.709 L361,188.709 " fill="none" style="stroke:#383838;stroke-width:1.0;"/><path d="M171,132.2207 L181,132.2207 C196,132.2207 196,188.709 211,188.709 L221,188.709 " fill="none" style="stroke:#383838;stroke-width:1.0;"/><path d="M62,132.2207 L72,132.2207 C87,132.2207 87,132.2207 102,132.2207 L112,132.2207 " fill="none" style="stroke:#383838;stroke-width:1.0;"/><!--MD5=[046b542f4d162bcee8da71b4fc163b81]
@startmindmap
title Resources for project azure-postgresql
skinparam monochrome true
+ Infra
++ azure
+++ DBforPostgreSQL
++++ FirewallRule (1)
++++ Server (1)
+++ Resources
++++ ResourceGroup (1)
@endmindmap

PlantUML version 1.2021.8(Sat Jun 26 03:20:59 COT 2021)
(GPL source distribution)
Java Runtime: OpenJDK Runtime Environment
JVM: OpenJDK 64-Bit Server VM
Default Encoding: UTF-8
Language: en
Country: GB
--></g></svg>