<?xml version="1.0" encoding="UTF-8" standalone="no"?>
<!DOCTYPE svg PUBLIC "-//W3C//DTD SVG 1.1//EN"
 "http://www.w3.org/Graphics/SVG/1.1/DTD/svg11.dtd">
<!-- Generated by graphviz version 2.44.1 (20200629.0846)
 -->
<!-- Title: graphname Pages: 1 -->
<svg width="432pt" height="257pt"
 viewBox="0.00 0.00 432.00 257.00" xmlns="http://www.w3.org/2000/svg" xmlns:xlink="http://www.w3.org/1999/xlink">
<g id="graph0" class="graph" transform="scale(1 1) rotate(0) translate(4 253)">
<title>graphname</title>
<polygon fill="#fafafa" stroke="transparent" points="-4,4 -4,-253 428,-253 428,4 -4,4"/>
<text text-anchor="start" x="77" y="-224.4" font-family="Helvetica,sans-Serif" font-weight="bold" font-size="22.00" fill="#383838">Project K8S Redis Module</text>
<text text-anchor="start" x="208.5" y="-208.8" font-family="Helvetica,sans-Serif" font-size="14.00"> &#160;</text>
<text text-anchor="start" x="77" y="-187.2" font-family="Helvetica,sans-Serif" font-weight="bold" font-size="16.00" fill="#707070">Target Diagram</text>
<g id="clust1" class="cluster">
<title>cluster_k8s</title>
<polygon fill="#f5f5f5" stroke="#f5f5f5" points="8,-8 8,-165 416,-165 416,-8 8,-8"/>
<text text-anchor="start" x="152" y="-23" font-family="Helvetica,sans-Serif" font-weight="bold" font-size="20.00" fill="#707070">Provider k8s</text>
</g>
<g id="clust2" class="cluster">
<title>cluster_k8s_</title>
<polygon fill="#eeeeee" stroke="#eeeeee" points="16,-54 16,-157 408,-157 408,-54 16,-54"/>
<text text-anchor="start" x="211.86" y="-58.3" font-family="Helvetica,sans-Serif" font-size="1.00" fill="#383838"> </text>
</g>
<!-- Namespace::test&#45;redis -->
<g id="node1" class="node">
<title>Namespace::test&#45;redis</title>
<polygon fill="#e5e5e5" stroke="#dddddd" points="400,-139 286,-139 286,-81 400,-81 400,-139"/>
<text text-anchor="start" x="298" y="-119.2" font-family="Helvetica,sans-Serif" font-weight="bold" font-size="16.00" fill="#707070">Namespace</text>
<text text-anchor="start" x="298" y="-94.2" font-family="Helvetica,sans-Serif" font-size="16.00" fill="#383838">test&#45;redis</text>
</g>
<!-- StatefulSet::redis -->
<g id="node2" class="node">
<title>StatefulSet::redis</title>
<polygon fill="#e5e5e5" stroke="#dddddd" points="250,-149 142,-149 142,-91 250,-91 250,-149"/>
<text text-anchor="start" x="154" y="-129.2" font-family="Helvetica,sans-Serif" font-weight="bold" font-size="16.00" fill="#707070">StatefulSet</text>
<text text-anchor="start" x="154" y="-104.2" font-family="Helvetica,sans-Serif" font-size="16.00" fill="#383838">redis</text>
</g>
<!-- StatefulSet::redis&#45;&gt;Namespace::test&#45;redis -->
<g id="edge1" class="edge">
<title>StatefulSet::redis&#45;&gt;Namespace::test&#45;redis</title>
<path fill="none" stroke="#707070" d="M250.17,-116.33C258.53,-115.76 267.27,-115.15 275.89,-114.56"/>
<polygon fill="#707070" stroke="#707070" points="276.18,-118.05 285.91,-113.87 275.7,-111.06 276.18,-118.05"/>
</g>
<!-- Service::redis -->
<g id="node3" class="node">
<title>Service::redis</title>
<polygon fill="#e5e5e5" stroke="#dddddd" points="106,-139 24,-139 24,-81 106,-81 106,-139"/>
<text text-anchor="start" x="36" y="-119.2" font-family="Helvetica,sans-Serif" font-weight="bold" font-size="16.00" fill="#707070">Service</text>
<text text-anchor="start" x="36" y="-94.2" font-family="Helvetica,sans-Serif" font-size="16.00" fill="#383838">redis</text>
</g>
<!-- Service::redis&#45;&gt;Namespace::test&#45;redis -->
<g id="edge2" class="edge">
<title>Service::redis&#45;&gt;Namespace::test&#45;redis</title>
<path fill="none" stroke="#707070" d="M106.28,-92.17C117.61,-87.98 130.1,-84.12 142,-82 189.25,-73.57 202.52,-74.94 250,-82 258.52,-83.27 267.34,-85.16 276,-87.38"/>
<polygon fill="#707070" stroke="#707070" points="275.11,-90.76 285.67,-90 276.94,-84.01 275.11,-90.76"/>
</g>
<!-- Service::redis&#45;&gt;StatefulSet::redis -->
<g id="edge3" class="edge">
<title>Service::redis&#45;&gt;StatefulSet::redis</title>
<path fill="none" stroke="#707070" d="M106.11,-113.11C114.19,-113.74 122.87,-114.41 131.52,-115.08"/>
<polygon fill="#707070" stroke="#707070" points="131.39,-118.58 141.63,-115.86 131.93,-111.6 131.39,-118.58"/>
</g>
</g>
</svg>
