<?xml version="1.0" encoding="UTF-8" standalone="no"?><svg xmlns="http://www.w3.org/2000/svg" xmlns:xlink="http://www.w3.org/1999/xlink" contentScriptType="application/ecmascript" contentStyleType="text/css" height="567px" preserveAspectRatio="none" style="width:557px;height:567px;background:#FFFFFF;" version="1.1" viewBox="0 0 557 567" width="557px" zoomAndPan="magnify"><defs><filter height="300%" id="fyenuw4y7akvb" width="300%" x="-1" y="-1"><feGaussianBlur result="blurOut" stdDeviation="2.0"/><feColorMatrix in="blurOut" result="blurOut2" type="matrix" values="0 0 0 0 0 0 0 0 0 0 0 0 0 0 0 0 0 0 .4 0"/><feOffset dx="4.0" dy="4.0" in="blurOut2" result="blurOut3"/><feBlend in="SourceGraphic" in2="blurOut3" mode="normal"/></filter></defs><g><rect fill="none" height="26.4883" style="stroke:none;stroke-width:1.0;" width="266" x="115.5" y="15"/><text fill="#000000" font-family="sans-serif" font-size="14" font-weight="bold" lengthAdjust="spacing" textLength="256" x="120.5" y="33.5352">Resources for project vpc-endpoint</text><rect fill="#F8F8F8" filter="url(#fyenuw4y7akvb)" height="36.4883" rx="12.5" ry="12.5" style="stroke:#383838;stroke-width:1.5;" width="52" x="10" y="283.4414"/><text fill="#000000" font-family="sans-serif" font-size="14" lengthAdjust="spacing" textLength="32" x="20" y="306.9766">Infra</text><rect fill="#F8F8F8" filter="url(#fyenuw4y7akvb)" height="36.4883" rx="12.5" ry="12.5" style="stroke:#383838;stroke-width:1.5;" width="46" x="112" y="283.4414"/><text fill="#000000" font-family="sans-serif" font-size="14" lengthAdjust="spacing" textLength="26" x="122" y="306.9766">aws</text><rect fill="#F8F8F8" filter="url(#fyenuw4y7akvb)" height="36.4883" rx="12.5" ry="12.5" style="stroke:#383838;stroke-width:1.5;" width="134" x="208" y="57.4883"/><text fill="#000000" font-family="sans-serif" font-size="14" lengthAdjust="spacing" textLength="114" x="218" y="81.0234">CloudWatchLogs</text><rect fill="#F8F8F8" filter="url(#fyenuw4y7akvb)" height="36.4883" rx="12.5" ry="12.5" style="stroke:#383838;stroke-width:1.5;" width="111" x="392" y="57.4883"/><text fill="#000000" font-family="sans-serif" font-size="14" lengthAdjust="spacing" textLength="91" x="402" y="81.0234">LogGroup (1)</text><path d="M342,75.7324 L352,75.7324 C367,75.7324 367,75.7324 382,75.7324 L392,75.7324 " fill="none" style="stroke:#383838;stroke-width:1.0;"/><path d="M158,301.6855 L168,301.6855 C183,301.6855 183,75.7324 198,75.7324 L208,75.7324 " fill="none" style="stroke:#383838;stroke-width:1.0;"/><rect fill="#F8F8F8" filter="url(#fyenuw4y7akvb)" height="36.4883" rx="12.5" ry="12.5" style="stroke:#383838;stroke-width:1.5;" width="47" x="208" y="311.6855"/><text fill="#000000" font-family="sans-serif" font-size="14" lengthAdjust="spacing" textLength="27" x="218" y="335.2207">EC2</text><rect fill="#F8F8F8" filter="url(#fyenuw4y7akvb)" height="36.4883" rx="12.5" ry="12.5" style="stroke:#383838;stroke-width:1.5;" width="68" x="305" y="113.9766"/><text fill="#000000" font-family="sans-serif" font-size="14" lengthAdjust="spacing" textLength="48" x="315" y="137.5117">Vpc (1)</text><path d="M255,329.9297 L265,329.9297 C280,329.9297 280,132.2207 295,132.2207 L305,132.2207 " fill="none" style="stroke:#383838;stroke-width:1.0;"/><rect fill="#F8F8F8" filter="url(#fyenuw4y7akvb)" height="36.4883" rx="12.5" ry="12.5" style="stroke:#383838;stroke-width:1.5;" width="154" x="305" y="170.4648"/><text fill="#000000" font-family="sans-serif" font-size="14" lengthAdjust="spacing" textLength="134" x="315" y="194">InternetGateway (1)</text><path d="M255,329.9297 L265,329.9297 C280,329.9297 280,188.709 295,188.709 L305,188.709 " fill="none" style="stroke:#383838;stroke-width:1.0;"/><rect fill="#F8F8F8" filter="url(#fyenuw4y7akvb)" height="36.4883" rx="12.5" ry="12.5" style="stroke:#383838;stroke-width:1.5;" width="233" x="305" y="226.9531"/><text fill="#000000" font-family="sans-serif" font-size="14" lengthAdjust="spacing" textLength="213" x="315" y="250.4883">InternetGatewayAttachment (1)</text><path d="M255,329.9297 L265,329.9297 C280,329.9297 280,245.1973 295,245.1973 L305,245.1973 " fill="none" style="stroke:#383838;stroke-width:1.0;"/><rect fill="#F8F8F8" filter="url(#fyenuw4y7akvb)" height="36.4883" rx="12.5" ry="12.5" style="stroke:#383838;stroke-width:1.5;" width="91" x="305" y="283.4414"/><text fill="#000000" font-family="sans-serif" font-size="14" lengthAdjust="spacing" textLength="71" x="315" y="306.9766">Subnet (2)</text><path d="M255,329.9297 L265,329.9297 C280,329.9297 280,301.6855 295,301.6855 L305,301.6855 " fill="none" style="stroke:#383838;stroke-width:1.0;"/><rect fill="#F8F8F8" filter="url(#fyenuw4y7akvb)" height="36.4883" rx="12.5" ry="12.5" style="stroke:#383838;stroke-width:1.5;" width="121" x="305" y="339.9297"/><text fill="#000000" font-family="sans-serif" font-size="14" lengthAdjust="spacing" textLength="101" x="315" y="363.4648">RouteTable (2)</text><path d="M255,329.9297 L265,329.9297 C280,329.9297 280,358.1738 295,358.1738 L305,358.1738 " fill="none" style="stroke:#383838;stroke-width:1.0;"/><rect fill="#F8F8F8" filter="url(#fyenuw4y7akvb)" height="36.4883" rx="12.5" ry="12.5" style="stroke:#383838;stroke-width:1.5;" width="200" x="305" y="396.418"/><text fill="#000000" font-family="sans-serif" font-size="14" lengthAdjust="spacing" textLength="180" x="315" y="419.9531">RouteTableAssociation (2)</text><path d="M255,329.9297 L265,329.9297 C280,329.9297 280,414.6621 295,414.6621 L305,414.6621 " fill="none" style="stroke:#383838;stroke-width:1.0;"/><rect fill="#F8F8F8" filter="url(#fyenuw4y7akvb)" height="36.4883" rx="12.5" ry="12.5" style="stroke:#383838;stroke-width:1.5;" width="83" x="305" y="452.9063"/><text fill="#000000" font-family="sans-serif" font-size="14" lengthAdjust="spacing" textLength="63" x="315" y="476.4414">Route (2)</text><path d="M255,329.9297 L265,329.9297 C280,329.9297 280,471.1504 295,471.1504 L305,471.1504 " fill="none" style="stroke:#383838;stroke-width:1.0;"/><rect fill="#F8F8F8" filter="url(#fyenuw4y7akvb)" height="36.4883" rx="12.5" ry="12.5" style="stroke:#383838;stroke-width:1.5;" width="130" x="305" y="509.3945"/><text fill="#000000" font-family="sans-serif" font-size="14" lengthAdjust="spacing" textLength="110" x="315" y="532.9297">VpcEndpoint (1)</text><path d="M255,329.9297 L265,329.9297 C280,329.9297 280,527.6387 295,527.6387 L305,527.6387 " fill="none" style="stroke:#383838;stroke-width:1.0;"/><path d="M158,301.6855 L168,301.6855 C183,301.6855 183,329.9297 198,329.9297 L208,329.9297 " fill="none" style="stroke:#383838;stroke-width:1.0;"/><path d="M62,301.6855 L72,301.6855 C87,301.6855 87,301.6855 102,301.6855 L112,301.6855 " fill="none" style="stroke:#383838;stroke-width:1.0;"/><!--MD5=[66740b25e03ce7a6fa037a7da0f884d2]
@startmindmap
title Resources for project vpc-endpoint
skinparam monochrome true
+ Infra
++ aws
+++ CloudWatchLogs
++++ LogGroup (1)
+++ EC2
++++ Vpc (1)
++++ InternetGateway (1)
++++ InternetGatewayAttachment (1)
++++ Subnet (2)
++++ RouteTable (2)
++++ RouteTableAssociation (2)
++++ Route (2)
++++ VpcEndpoint (1)
@endmindmap

PlantUML version 1.2021.8(Sat Jun 26 10:20:59 CEST 2021)
(GPL source distribution)
Java Runtime: OpenJDK Runtime Environment
JVM: OpenJDK 64-Bit Server VM
Default Encoding: UTF-8
Language: en
Country: GB
--></g></svg>