<?xml version="1.0" encoding="UTF-8" standalone="no"?>
<!DOCTYPE svg PUBLIC "-//W3C//DTD SVG 1.1//EN"
 "http://www.w3.org/Graphics/SVG/1.1/DTD/svg11.dtd">
<!-- Generated by graphviz version 3.0.0 (20220226.1711)
 -->
<!-- Title: graphname Pages: 1 -->
<svg width="1074pt" height="389pt"
 viewBox="0.00 0.00 1074.00 389.00" xmlns="http://www.w3.org/2000/svg" xmlns:xlink="http://www.w3.org/1999/xlink">
<g id="graph0" class="graph" transform="scale(1 1) rotate(0) translate(4 385)">
<title>graphname</title>
<polygon fill="#fafafa" stroke="transparent" points="-4,4 -4,-385 1070,-385 1070,4 -4,4"/>
<text text-anchor="start" x="386" y="-356.4" font-family="Helvetica,sans-Serif" font-weight="bold" font-size="22.00" fill="#383838">Project record&#45;vpc&#45;endpoint</text>
<text text-anchor="start" x="529" y="-340.8" font-family="Helvetica,sans-Serif" font-size="14.00"> &#160;</text>
<text text-anchor="start" x="386" y="-319.2" font-family="Helvetica,sans-Serif" font-weight="bold" font-size="16.00" fill="#707070">Live Diagram</text>
<g id="clust1" class="cluster">
<title>cluster_aws</title>
<polygon fill="#f5f5f5" stroke="#f5f5f5" points="8,-8 8,-297 1058,-297 1058,-8 8,-8"/>
<text text-anchor="start" x="471" y="-23" font-family="Helvetica,sans-Serif" font-weight="bold" font-size="20.00" fill="#707070">Provider aws</text>
</g>
<g id="clust2" class="cluster">
<title>cluster_aws_</title>
<polygon fill="#eeeeee" stroke="#eeeeee" points="16,-54 16,-289 1050,-289 1050,-54 16,-54"/>
<text text-anchor="start" x="532.86" y="-58.3" font-family="Helvetica,sans-Serif" font-size="1.00" fill="#383838"> </text>
</g>
<!-- Subnet::::subnet&#45;public -->
<g id="node1" class="node">
<title>Subnet::::subnet&#45;public</title>
<polygon fill="#e5e5e5" stroke="#dddddd" points="740.5,-261 619.5,-261 619.5,-203 740.5,-203 740.5,-261"/>
<text text-anchor="start" x="632" y="-241.2" font-family="Helvetica,sans-Serif" font-weight="bold" font-size="16.00" fill="#707070">EC2::Subnet</text>
<text text-anchor="start" x="632" y="-216.2" font-family="Helvetica,sans-Serif" font-size="16.00" fill="#383838">subnet&#45;public</text>
</g>
<!-- Vpc::::vpc&#45;4&#45;record&#45;vpc&#45;endpoint -->
<g id="node2" class="node">
<title>Vpc::::vpc&#45;4&#45;record&#45;vpc&#45;endpoint</title>
<polygon fill="#e5e5e5" stroke="#dddddd" points="1042,-261 828,-261 828,-203 1042,-203 1042,-261"/>
<text text-anchor="start" x="840" y="-241.2" font-family="Helvetica,sans-Serif" font-weight="bold" font-size="16.00" fill="#707070">EC2::Vpc</text>
<text text-anchor="start" x="840" y="-216.2" font-family="Helvetica,sans-Serif" font-size="16.00" fill="#383838">vpc&#45;4&#45;record&#45;vpc&#45;endpoint</text>
</g>
<!-- Subnet::::subnet&#45;public&#45;&gt;Vpc::::vpc&#45;4&#45;record&#45;vpc&#45;endpoint -->
<g id="edge1" class="edge">
<title>Subnet::::subnet&#45;public&#45;&gt;Vpc::::vpc&#45;4&#45;record&#45;vpc&#45;endpoint</title>
<path fill="none" stroke="#707070" d="M740.64,-232C763.76,-232 791.07,-232 817.76,-232"/>
<polygon fill="#707070" stroke="#707070" points="817.95,-235.5 827.95,-232 817.95,-228.5 817.95,-235.5"/>
</g>
<!-- VpcEndpoint::::endpoint&#45;ec2 -->
<g id="node3" class="node">
<title>VpcEndpoint::::endpoint&#45;ec2</title>
<polygon fill="#e5e5e5" stroke="#dddddd" points="519,-281 355,-281 355,-223 519,-223 519,-281"/>
<text text-anchor="start" x="367" y="-261.2" font-family="Helvetica,sans-Serif" font-weight="bold" font-size="16.00" fill="#707070">EC2::VpcEndpoint</text>
<text text-anchor="start" x="367" y="-236.2" font-family="Helvetica,sans-Serif" font-size="16.00" fill="#383838">endpoint&#45;ec2</text>
</g>
<!-- VpcEndpoint::::endpoint&#45;ec2&#45;&gt;Subnet::::subnet&#45;public -->
<g id="edge3" class="edge">
<title>VpcEndpoint::::endpoint&#45;ec2&#45;&gt;Subnet::::subnet&#45;public</title>
<path fill="none" stroke="#707070" d="M519.26,-245.26C548.46,-242.83 581.13,-240.12 609.27,-237.79"/>
<polygon fill="#707070" stroke="#707070" points="609.74,-241.26 619.42,-236.94 609.16,-234.28 609.74,-241.26"/>
</g>
<!-- VpcEndpoint::::endpoint&#45;ec2&#45;&gt;Vpc::::vpc&#45;4&#45;record&#45;vpc&#45;endpoint -->
<g id="edge2" class="edge">
<title>VpcEndpoint::::endpoint&#45;ec2&#45;&gt;Vpc::::vpc&#45;4&#45;record&#45;vpc&#45;endpoint</title>
<path fill="none" stroke="#707070" d="M519.3,-265.01C535.4,-267.09 552.2,-268.91 568,-270 667.32,-276.84 693.29,-282.98 792,-270 804.18,-268.4 816.8,-266.06 829.26,-263.31"/>
<polygon fill="#707070" stroke="#707070" points="830.25,-266.67 839.21,-261.02 828.68,-259.85 830.25,-266.67"/>
</g>
<!-- HostedZone::::vpce.grucloud.org. -->
<g id="node4" class="node">
<title>HostedZone::::vpce.grucloud.org.</title>
<polygon fill="#e5e5e5" stroke="#dddddd" points="532,-185 342,-185 342,-127 532,-127 532,-185"/>
<text text-anchor="start" x="354" y="-165.2" font-family="Helvetica,sans-Serif" font-weight="bold" font-size="16.00" fill="#707070">Route53::HostedZone</text>
<text text-anchor="start" x="354" y="-140.2" font-family="Helvetica,sans-Serif" font-size="16.00" fill="#383838">vpce.grucloud.org.</text>
</g>
<!-- HostedZone::::vpce.grucloud.org.&#45;&gt;Vpc::::vpc&#45;4&#45;record&#45;vpc&#45;endpoint -->
<g id="edge5" class="edge">
<title>HostedZone::::vpce.grucloud.org.&#45;&gt;Vpc::::vpc&#45;4&#45;record&#45;vpc&#45;endpoint</title>
<path fill="none" stroke="#707070" d="M521.56,-126.95C594.83,-106.13 703.22,-86.77 792,-118 835.48,-133.29 875.49,-168.14 901.88,-195.31"/>
<polygon fill="#707070" stroke="#707070" points="899.53,-197.92 908.96,-202.75 904.6,-193.09 899.53,-197.92"/>
</g>
<!-- Domain::::grucloud.org -->
<g id="node8" class="node">
<title>Domain::::grucloud.org</title>
<polygon fill="#e5e5e5" stroke="#dddddd" points="792,-185 568,-185 568,-127 792,-127 792,-185"/>
<text text-anchor="start" x="580" y="-165.2" font-family="Helvetica,sans-Serif" font-weight="bold" font-size="16.00" fill="#707070">Route53Domains::Domain</text>
<text text-anchor="start" x="580" y="-140.2" font-family="Helvetica,sans-Serif" font-size="16.00" fill="#383838">grucloud.org</text>
</g>
<!-- HostedZone::::vpce.grucloud.org.&#45;&gt;Domain::::grucloud.org -->
<g id="edge4" class="edge">
<title>HostedZone::::vpce.grucloud.org.&#45;&gt;Domain::::grucloud.org</title>
<path fill="none" stroke="#707070" d="M532.21,-156C540.56,-156 549.09,-156 557.62,-156"/>
<polygon fill="#707070" stroke="#707070" points="557.63,-159.5 567.63,-156 557.63,-152.5 557.63,-159.5"/>
</g>
<!-- Record::::record::EC2::VpcEndpoint::endpoint&#45;ec2 -->
<g id="node5" class="node">
<title>Record::::record::EC2::VpcEndpoint::endpoint&#45;ec2</title>
<polygon fill="#e5e5e5" stroke="#dddddd" points="306,-281 24,-281 24,-223 306,-223 306,-281"/>
<text text-anchor="start" x="36" y="-261.2" font-family="Helvetica,sans-Serif" font-weight="bold" font-size="16.00" fill="#707070">Route53::Record</text>
<text text-anchor="start" x="36" y="-236.2" font-family="Helvetica,sans-Serif" font-size="16.00" fill="#383838">record::EC2::VpcEndpoint::endpoi...</text>
</g>
<!-- Record::::record::EC2::VpcEndpoint::endpoint&#45;ec2&#45;&gt;VpcEndpoint::::endpoint&#45;ec2 -->
<g id="edge7" class="edge">
<title>Record::::record::EC2::VpcEndpoint::endpoint&#45;ec2&#45;&gt;VpcEndpoint::::endpoint&#45;ec2</title>
<path fill="none" stroke="#707070" d="M306.14,-252C319.18,-252 332.16,-252 344.58,-252"/>
<polygon fill="#707070" stroke="#707070" points="344.88,-255.5 354.88,-252 344.88,-248.5 344.88,-255.5"/>
</g>
<!-- Record::::record::EC2::VpcEndpoint::endpoint&#45;ec2&#45;&gt;HostedZone::::vpce.grucloud.org. -->
<g id="edge6" class="edge">
<title>Record::::record::EC2::VpcEndpoint::endpoint&#45;ec2&#45;&gt;HostedZone::::vpce.grucloud.org.</title>
<path fill="none" stroke="#707070" d="M279.18,-222.9C288.31,-220.06 297.34,-217.09 306,-214 326.01,-206.87 347.23,-197.99 366.6,-189.34"/>
<polygon fill="#707070" stroke="#707070" points="368.27,-192.43 375.95,-185.12 365.39,-186.05 368.27,-192.43"/>
</g>
<!-- Record::::record::vpce.grucloud.org.::NS -->
<g id="node6" class="node">
<title>Record::::record::vpce.grucloud.org.::NS</title>
<polygon fill="#e5e5e5" stroke="#dddddd" points="287,-205 43,-205 43,-147 287,-147 287,-205"/>
<text text-anchor="start" x="55" y="-185.2" font-family="Helvetica,sans-Serif" font-weight="bold" font-size="16.00" fill="#707070">Route53::Record</text>
<text text-anchor="start" x="55" y="-160.2" font-family="Helvetica,sans-Serif" font-size="16.00" fill="#383838">record::vpce.grucloud.org.::NS</text>
</g>
<!-- Record::::record::vpce.grucloud.org.::NS&#45;&gt;HostedZone::::vpce.grucloud.org. -->
<g id="edge8" class="edge">
<title>Record::::record::vpce.grucloud.org.::NS&#45;&gt;HostedZone::::vpce.grucloud.org.</title>
<path fill="none" stroke="#707070" d="M287.18,-167.02C302.1,-165.92 317.25,-164.8 331.89,-163.71"/>
<polygon fill="#707070" stroke="#707070" points="332.22,-167.2 341.93,-162.97 331.7,-160.22 332.22,-167.2"/>
</g>
<!-- Record::::record::vpce.grucloud.org.::SOA -->
<g id="node7" class="node">
<title>Record::::record::vpce.grucloud.org.::SOA</title>
<polygon fill="#e5e5e5" stroke="#dddddd" points="293,-129 37,-129 37,-71 293,-71 293,-129"/>
<text text-anchor="start" x="49" y="-109.2" font-family="Helvetica,sans-Serif" font-weight="bold" font-size="16.00" fill="#707070">Route53::Record</text>
<text text-anchor="start" x="49" y="-84.2" font-family="Helvetica,sans-Serif" font-size="16.00" fill="#383838">record::vpce.grucloud.org.::SOA</text>
</g>
<!-- Record::::record::vpce.grucloud.org.::SOA&#45;&gt;HostedZone::::vpce.grucloud.org. -->
<g id="edge9" class="edge">
<title>Record::::record::vpce.grucloud.org.::SOA&#45;&gt;HostedZone::::vpce.grucloud.org.</title>
<path fill="none" stroke="#707070" d="M293.09,-126.36C306.04,-129.05 319.09,-131.75 331.76,-134.38"/>
<polygon fill="#707070" stroke="#707070" points="331.33,-137.86 341.83,-136.47 332.75,-131.01 331.33,-137.86"/>
</g>
</g>
</svg>
