<?xml version="1.0" encoding="UTF-8" standalone="no"?>
<!DOCTYPE svg PUBLIC "-//W3C//DTD SVG 1.1//EN"
 "http://www.w3.org/Graphics/SVG/1.1/DTD/svg11.dtd">
<!-- Generated by graphviz version 3.0.0 (20220226.1711)
 -->
<!-- Title: graphname Pages: 1 -->
<svg width="1074pt" height="353pt"
 viewBox="0.00 0.00 1074.00 353.00" xmlns="http://www.w3.org/2000/svg" xmlns:xlink="http://www.w3.org/1999/xlink">
<g id="graph0" class="graph" transform="scale(1 1) rotate(0) translate(4 349)">
<title>graphname</title>
<polygon fill="#fafafa" stroke="transparent" points="-4,4 -4,-349 1070,-349 1070,4 -4,4"/>
<text text-anchor="start" x="386" y="-320.4" font-family="Helvetica,sans-Serif" font-weight="bold" font-size="22.00" fill="#383838">Project record&#45;vpc&#45;endpoint</text>
<text text-anchor="start" x="529" y="-304.8" font-family="Helvetica,sans-Serif" font-size="14.00"> &#160;</text>
<text text-anchor="start" x="386" y="-283.2" font-family="Helvetica,sans-Serif" font-weight="bold" font-size="16.00" fill="#707070">Target Diagram</text>
<g id="clust1" class="cluster">
<title>cluster_aws</title>
<polygon fill="#f5f5f5" stroke="#f5f5f5" points="8,-8 8,-261 1058,-261 1058,-8 8,-8"/>
<text text-anchor="start" x="471" y="-23" font-family="Helvetica,sans-Serif" font-weight="bold" font-size="20.00" fill="#707070">Provider aws</text>
</g>
<g id="clust2" class="cluster">
<title>cluster_aws_</title>
<polygon fill="#eeeeee" stroke="#eeeeee" points="16,-54 16,-253 1050,-253 1050,-54 16,-54"/>
<text text-anchor="start" x="532.86" y="-58.3" font-family="Helvetica,sans-Serif" font-size="1.00" fill="#383838"> </text>
</g>
<!-- Vpc::vpc&#45;4&#45;record&#45;vpc&#45;endpoint -->
<g id="node1" class="node">
<title>Vpc::vpc&#45;4&#45;record&#45;vpc&#45;endpoint</title>
<polygon fill="#e5e5e5" stroke="#dddddd" points="1042,-149 828,-149 828,-91 1042,-91 1042,-149"/>
<text text-anchor="start" x="840" y="-129.2" font-family="Helvetica,sans-Serif" font-weight="bold" font-size="16.00" fill="#707070">EC2::Vpc</text>
<text text-anchor="start" x="840" y="-104.2" font-family="Helvetica,sans-Serif" font-size="16.00" fill="#383838">vpc&#45;4&#45;record&#45;vpc&#45;endpoint</text>
</g>
<!-- Subnet::subnet&#45;public -->
<g id="node2" class="node">
<title>Subnet::subnet&#45;public</title>
<polygon fill="#e5e5e5" stroke="#dddddd" points="740.5,-149 619.5,-149 619.5,-91 740.5,-91 740.5,-149"/>
<text text-anchor="start" x="632" y="-129.2" font-family="Helvetica,sans-Serif" font-weight="bold" font-size="16.00" fill="#707070">EC2::Subnet</text>
<text text-anchor="start" x="632" y="-104.2" font-family="Helvetica,sans-Serif" font-size="16.00" fill="#383838">subnet&#45;public</text>
</g>
<!-- Subnet::subnet&#45;public&#45;&gt;Vpc::vpc&#45;4&#45;record&#45;vpc&#45;endpoint -->
<g id="edge1" class="edge">
<title>Subnet::subnet&#45;public&#45;&gt;Vpc::vpc&#45;4&#45;record&#45;vpc&#45;endpoint</title>
<path fill="none" stroke="#707070" d="M740.64,-120C763.76,-120 791.07,-120 817.76,-120"/>
<polygon fill="#707070" stroke="#707070" points="817.95,-123.5 827.95,-120 817.95,-116.5 817.95,-123.5"/>
</g>
<!-- VpcEndpoint::endpoint&#45;ec2 -->
<g id="node3" class="node">
<title>VpcEndpoint::endpoint&#45;ec2</title>
<polygon fill="#e5e5e5" stroke="#dddddd" points="519,-139 355,-139 355,-81 519,-81 519,-139"/>
<text text-anchor="start" x="367" y="-119.2" font-family="Helvetica,sans-Serif" font-weight="bold" font-size="16.00" fill="#707070">EC2::VpcEndpoint</text>
<text text-anchor="start" x="367" y="-94.2" font-family="Helvetica,sans-Serif" font-size="16.00" fill="#383838">endpoint&#45;ec2</text>
</g>
<!-- VpcEndpoint::endpoint&#45;ec2&#45;&gt;Vpc::vpc&#45;4&#45;record&#45;vpc&#45;endpoint -->
<g id="edge2" class="edge">
<title>VpcEndpoint::endpoint&#45;ec2&#45;&gt;Vpc::vpc&#45;4&#45;record&#45;vpc&#45;endpoint</title>
<path fill="none" stroke="#707070" d="M519.05,-89.78C535.17,-86.54 552.04,-83.7 568,-82 667,-71.46 693.29,-69.02 792,-82 804.18,-83.6 816.8,-85.94 829.26,-88.69"/>
<polygon fill="#707070" stroke="#707070" points="828.68,-92.15 839.21,-90.98 830.25,-85.33 828.68,-92.15"/>
</g>
<!-- VpcEndpoint::endpoint&#45;ec2&#45;&gt;Subnet::subnet&#45;public -->
<g id="edge3" class="edge">
<title>VpcEndpoint::endpoint&#45;ec2&#45;&gt;Subnet::subnet&#45;public</title>
<path fill="none" stroke="#707070" d="M519.26,-113.37C548.46,-114.58 581.13,-115.94 609.27,-117.11"/>
<polygon fill="#707070" stroke="#707070" points="609.28,-120.61 619.42,-117.53 609.57,-113.62 609.28,-120.61"/>
</g>
<!-- HostedZone::vpce.grucloud.org. -->
<g id="node4" class="node">
<title>HostedZone::vpce.grucloud.org.</title>
<polygon fill="#e5e5e5" stroke="#dddddd" points="532,-215 342,-215 342,-157 532,-157 532,-215"/>
<text text-anchor="start" x="354" y="-195.2" font-family="Helvetica,sans-Serif" font-weight="bold" font-size="16.00" fill="#707070">Route53::HostedZone</text>
<text text-anchor="start" x="354" y="-170.2" font-family="Helvetica,sans-Serif" font-size="16.00" fill="#383838">vpce.grucloud.org.</text>
</g>
<!-- HostedZone::vpce.grucloud.org.&#45;&gt;Vpc::vpc&#45;4&#45;record&#45;vpc&#45;endpoint -->
<g id="edge5" class="edge">
<title>HostedZone::vpce.grucloud.org.&#45;&gt;Vpc::vpc&#45;4&#45;record&#45;vpc&#45;endpoint</title>
<path fill="none" stroke="#707070" d="M532.21,-179.44C628.39,-172.6 767.05,-162.29 792,-158 802.8,-156.14 813.96,-153.84 825.08,-151.3"/>
<polygon fill="#707070" stroke="#707070" points="825.89,-154.7 834.82,-149 824.28,-147.89 825.89,-154.7"/>
</g>
<!-- Domain::grucloud.org -->
<g id="node6" class="node">
<title>Domain::grucloud.org</title>
<polygon fill="#e5e5e5" stroke="#dddddd" points="792,-245 568,-245 568,-187 792,-187 792,-245"/>
<text text-anchor="start" x="580" y="-225.2" font-family="Helvetica,sans-Serif" font-weight="bold" font-size="16.00" fill="#707070">Route53Domains::Domain</text>
<text text-anchor="start" x="580" y="-200.2" font-family="Helvetica,sans-Serif" font-size="16.00" fill="#383838">grucloud.org</text>
</g>
<!-- HostedZone::vpce.grucloud.org.&#45;&gt;Domain::grucloud.org -->
<g id="edge4" class="edge">
<title>HostedZone::vpce.grucloud.org.&#45;&gt;Domain::grucloud.org</title>
<path fill="none" stroke="#707070" d="M532.21,-197.73C540.56,-198.77 549.09,-199.83 557.62,-200.89"/>
<polygon fill="#707070" stroke="#707070" points="557.28,-204.37 567.63,-202.14 558.14,-197.43 557.28,-204.37"/>
</g>
<!-- Record::record::EC2::VpcEndpoint::endpoint&#45;ec2 -->
<g id="node5" class="node">
<title>Record::record::EC2::VpcEndpoint::endpoint&#45;ec2</title>
<polygon fill="#e5e5e5" stroke="#dddddd" points="306,-177 24,-177 24,-119 306,-119 306,-177"/>
<text text-anchor="start" x="36" y="-157.2" font-family="Helvetica,sans-Serif" font-weight="bold" font-size="16.00" fill="#707070">Route53::Record</text>
<text text-anchor="start" x="36" y="-132.2" font-family="Helvetica,sans-Serif" font-size="16.00" fill="#383838">record::EC2::VpcEndpoint::endpoi...</text>
</g>
<!-- Record::record::EC2::VpcEndpoint::endpoint&#45;ec2&#45;&gt;VpcEndpoint::endpoint&#45;ec2 -->
<g id="edge7" class="edge">
<title>Record::record::EC2::VpcEndpoint::endpoint&#45;ec2&#45;&gt;VpcEndpoint::endpoint&#45;ec2</title>
<path fill="none" stroke="#707070" d="M306.14,-128.28C319.31,-126.42 332.42,-124.58 344.96,-122.81"/>
<polygon fill="#707070" stroke="#707070" points="345.47,-126.28 354.88,-121.42 344.49,-119.34 345.47,-126.28"/>
</g>
<!-- Record::record::EC2::VpcEndpoint::endpoint&#45;ec2&#45;&gt;HostedZone::vpce.grucloud.org. -->
<g id="edge6" class="edge">
<title>Record::record::EC2::VpcEndpoint::endpoint&#45;ec2&#45;&gt;HostedZone::vpce.grucloud.org.</title>
<path fill="none" stroke="#707070" d="M306.14,-167.72C314.72,-168.93 323.27,-170.13 331.66,-171.32"/>
<polygon fill="#707070" stroke="#707070" points="331.41,-174.81 341.8,-172.74 332.38,-167.88 331.41,-174.81"/>
</g>
</g>
</svg>
