<?xml version="1.0" encoding="UTF-8" standalone="no"?><svg xmlns="http://www.w3.org/2000/svg" xmlns:xlink="http://www.w3.org/1999/xlink" contentStyleType="text/css" height="398px" preserveAspectRatio="none" style="width:504px;height:398px;background:#FFFFFF;" version="1.1" viewBox="0 0 504 398" width="504px" zoomAndPan="magnify"><defs/><g><rect height="26.4883" style="stroke:#00000000;stroke-width:1.0;fill:none;" width="320" x="65.5" y="15"/><text fill="#000000" font-family="sans-serif" font-size="14" font-weight="bold" lengthAdjust="spacing" textLength="310" x="70.5" y="33.5352">Resources for project record-vpc-endpoint</text><rect fill="#F1F1F1" height="36.4883" rx="12.5" ry="12.5" style="stroke:#181818;stroke-width:1.5;" width="52" x="10" y="198.709"/><text fill="#000000" font-family="sans-serif" font-size="14" lengthAdjust="spacing" textLength="32" x="20" y="222.2441">Infra</text><rect fill="#F1F1F1" height="36.4883" rx="12.5" ry="12.5" style="stroke:#181818;stroke-width:1.5;" width="46" x="112" y="198.709"/><text fill="#000000" font-family="sans-serif" font-size="14" lengthAdjust="spacing" textLength="26" x="122" y="222.2441">aws</text><rect fill="#F1F1F1" height="36.4883" rx="12.5" ry="12.5" style="stroke:#181818;stroke-width:1.5;" width="47" x="208" y="113.9766"/><text fill="#000000" font-family="sans-serif" font-size="14" lengthAdjust="spacing" textLength="27" x="218" y="137.5117">EC2</text><rect fill="#F1F1F1" height="36.4883" rx="12.5" ry="12.5" style="stroke:#181818;stroke-width:1.5;" width="68" x="305" y="57.4883"/><text fill="#000000" font-family="sans-serif" font-size="14" lengthAdjust="spacing" textLength="48" x="315" y="81.0234">Vpc (1)</text><path d="M255,132.2207 L265,132.2207 C280,132.2207 280,75.7324 295,75.7324 L305,75.7324 " fill="none" style="stroke:#181818;stroke-width:1.0;"/><rect fill="#F1F1F1" height="36.4883" rx="12.5" ry="12.5" style="stroke:#181818;stroke-width:1.5;" width="91" x="305" y="113.9766"/><text fill="#000000" font-family="sans-serif" font-size="14" lengthAdjust="spacing" textLength="71" x="315" y="137.5117">Subnet (1)</text><path d="M255,132.2207 L265,132.2207 C280,132.2207 280,132.2207 295,132.2207 L305,132.2207 " fill="none" style="stroke:#181818;stroke-width:1.0;"/><rect fill="#F1F1F1" height="36.4883" rx="12.5" ry="12.5" style="stroke:#181818;stroke-width:1.5;" width="130" x="305" y="170.4648"/><text fill="#000000" font-family="sans-serif" font-size="14" lengthAdjust="spacing" textLength="110" x="315" y="194">VpcEndpoint (1)</text><path d="M255,132.2207 L265,132.2207 C280,132.2207 280,188.709 295,188.709 L305,188.709 " fill="none" style="stroke:#181818;stroke-width:1.0;"/><path d="M158,216.9531 L168,216.9531 C183,216.9531 183,132.2207 198,132.2207 L208,132.2207 " fill="none" style="stroke:#181818;stroke-width:1.0;"/><rect fill="#F1F1F1" height="36.4883" rx="12.5" ry="12.5" style="stroke:#181818;stroke-width:1.5;" width="78" x="208" y="255.1973"/><text fill="#000000" font-family="sans-serif" font-size="14" lengthAdjust="spacing" textLength="58" x="218" y="278.7324">Route53</text><rect fill="#F1F1F1" height="36.4883" rx="12.5" ry="12.5" style="stroke:#181818;stroke-width:1.5;" width="125" x="336" y="226.9531"/><text fill="#000000" font-family="sans-serif" font-size="14" lengthAdjust="spacing" textLength="105" x="346" y="250.4883">HostedZone (1)</text><path d="M286,273.4414 L296,273.4414 C311,273.4414 311,245.1973 326,245.1973 L336,245.1973 " fill="none" style="stroke:#181818;stroke-width:1.0;"/><rect fill="#F1F1F1" height="36.4883" rx="12.5" ry="12.5" style="stroke:#181818;stroke-width:1.5;" width="91" x="336" y="283.4414"/><text fill="#000000" font-family="sans-serif" font-size="14" lengthAdjust="spacing" textLength="71" x="346" y="306.9766">Record (1)</text><path d="M286,273.4414 L296,273.4414 C311,273.4414 311,301.6855 326,301.6855 L336,301.6855 " fill="none" style="stroke:#181818;stroke-width:1.0;"/><path d="M158,216.9531 L168,216.9531 C183,216.9531 183,273.4414 198,273.4414 L208,273.4414 " fill="none" style="stroke:#181818;stroke-width:1.0;"/><rect fill="#F1F1F1" height="36.4883" rx="12.5" ry="12.5" style="stroke:#181818;stroke-width:1.5;" width="138" x="208" y="339.9297"/><text fill="#000000" font-family="sans-serif" font-size="14" lengthAdjust="spacing" textLength="118" x="218" y="363.4648">Route53Domains</text><rect fill="#F1F1F1" height="36.4883" rx="12.5" ry="12.5" style="stroke:#181818;stroke-width:1.5;" width="96" x="396" y="339.9297"/><text fill="#000000" font-family="sans-serif" font-size="14" lengthAdjust="spacing" textLength="76" x="406" y="363.4648">Domain (1)</text><path d="M346,358.1738 L356,358.1738 C371,358.1738 371,358.1738 386,358.1738 L396,358.1738 " fill="none" style="stroke:#181818;stroke-width:1.0;"/><path d="M158,216.9531 L168,216.9531 C183,216.9531 183,358.1738 198,358.1738 L208,358.1738 " fill="none" style="stroke:#181818;stroke-width:1.0;"/><path d="M62,216.9531 L72,216.9531 C87,216.9531 87,216.9531 102,216.9531 L112,216.9531 " fill="none" style="stroke:#181818;stroke-width:1.0;"/><!--MD5=[36f31bd28ee775c064f3fa6bfd778e94]
@startmindmap
title Resources for project record-vpc-endpoint
skinparam monochrome true
+ Infra
++ aws
+++ EC2
++++ Vpc (1)
++++ Subnet (1)
++++ VpcEndpoint (1)
+++ Route53
++++ HostedZone (1)
++++ Record (1)
+++ Route53Domains
++++ Domain (1)
@endmindmap

PlantUML version 1.2022.6(Tue Jun 21 12:34:49 COT 2022)
(GPL source distribution)
Java Runtime: Java(TM) SE Runtime Environment
JVM: Java HotSpot(TM) 64-Bit Server VM
Default Encoding: UTF-8
Language: en
Country: GB
--></g></svg>