<?xml version="1.0" encoding="UTF-8" standalone="no"?>
<!DOCTYPE svg PUBLIC "-//W3C//DTD SVG 1.1//EN"
 "http://www.w3.org/Graphics/SVG/1.1/DTD/svg11.dtd">
<!-- Generated by graphviz version 3.0.0 (20220226.1711)
 -->
<!-- Title: graphname Pages: 1 -->
<svg width="1076pt" height="581pt"
 viewBox="0.00 0.00 1076.00 581.00" xmlns="http://www.w3.org/2000/svg" xmlns:xlink="http://www.w3.org/1999/xlink">
<g id="graph0" class="graph" transform="scale(1 1) rotate(0) translate(4 577)">
<title>graphname</title>
<polygon fill="#fafafa" stroke="transparent" points="-4,4 -4,-577 1072,-577 1072,4 -4,4"/>
<text text-anchor="start" x="415" y="-548.4" font-family="Helvetica,sans-Serif" font-weight="bold" font-size="22.00" fill="#383838">Project resource&#45;share</text>
<text text-anchor="start" x="530" y="-532.8" font-family="Helvetica,sans-Serif" font-size="14.00"> &#160;</text>
<text text-anchor="start" x="415" y="-511.2" font-family="Helvetica,sans-Serif" font-weight="bold" font-size="16.00" fill="#707070">Live Diagram</text>
<g id="clust1" class="cluster">
<title>cluster_aws</title>
<polygon fill="#f5f5f5" stroke="#f5f5f5" points="8,-8 8,-489 1060,-489 1060,-8 8,-8"/>
<text text-anchor="start" x="472" y="-23" font-family="Helvetica,sans-Serif" font-weight="bold" font-size="20.00" fill="#707070">Provider aws</text>
</g>
<g id="clust2" class="cluster">
<title>cluster_aws_</title>
<polygon fill="#eeeeee" stroke="#eeeeee" points="16,-54 16,-481 1052,-481 1052,-54 16,-54"/>
<text text-anchor="start" x="533.86" y="-58.3" font-family="Helvetica,sans-Serif" font-size="1.00" fill="#383838"> </text>
</g>
<!-- InternetGateway::::project&#45;igw -->
<g id="node1" class="node">
<title>InternetGateway::::project&#45;igw</title>
<polygon fill="#e5e5e5" stroke="#dddddd" points="864,-425 673,-425 673,-367 864,-367 864,-425"/>
<text text-anchor="start" x="685.5" y="-405.2" font-family="Helvetica,sans-Serif" font-weight="bold" font-size="16.00" fill="#707070">EC2::InternetGateway</text>
<text text-anchor="start" x="685.5" y="-380.2" font-family="Helvetica,sans-Serif" font-size="16.00" fill="#383838">project&#45;igw</text>
</g>
<!-- Vpc::::project&#45;vpc -->
<g id="node7" class="node">
<title>Vpc::::project&#45;vpc</title>
<polygon fill="#e5e5e5" stroke="#dddddd" points="1044,-401 940,-401 940,-343 1044,-343 1044,-401"/>
<text text-anchor="start" x="952" y="-381.2" font-family="Helvetica,sans-Serif" font-weight="bold" font-size="16.00" fill="#707070">EC2::Vpc</text>
<text text-anchor="start" x="952" y="-356.2" font-family="Helvetica,sans-Serif" font-size="16.00" fill="#383838">project&#45;vpc</text>
</g>
<!-- InternetGateway::::project&#45;igw&#45;&gt;Vpc::::project&#45;vpc -->
<g id="edge1" class="edge">
<title>InternetGateway::::project&#45;igw&#45;&gt;Vpc::::project&#45;vpc</title>
<path fill="none" stroke="#707070" d="M864.08,-385.75C886.31,-383.34 909.43,-380.84 929.75,-378.64"/>
<polygon fill="#707070" stroke="#707070" points="930.22,-382.11 939.79,-377.55 929.47,-375.15 930.22,-382.11"/>
</g>
<!-- InternetGatewayAttachment::::ig&#45;attach::project&#45;igw::project&#45;vpc -->
<g id="node2" class="node">
<title>InternetGatewayAttachment::::ig&#45;attach::project&#45;igw::project&#45;vpc</title>
<polygon fill="#e5e5e5" stroke="#dddddd" points="596,-473 317,-473 317,-415 596,-415 596,-473"/>
<text text-anchor="start" x="329.5" y="-453.2" font-family="Helvetica,sans-Serif" font-weight="bold" font-size="16.00" fill="#707070">EC2::InternetGatewayAttachment</text>
<text text-anchor="start" x="329.5" y="-428.2" font-family="Helvetica,sans-Serif" font-size="16.00" fill="#383838">ig&#45;attach::project&#45;igw::project&#45;...</text>
</g>
<!-- InternetGatewayAttachment::::ig&#45;attach::project&#45;igw::project&#45;vpc&#45;&gt;InternetGateway::::project&#45;igw -->
<g id="edge3" class="edge">
<title>InternetGatewayAttachment::::ig&#45;attach::project&#45;igw::project&#45;vpc&#45;&gt;InternetGateway::::project&#45;igw</title>
<path fill="none" stroke="#707070" d="M596.18,-422.53C618.59,-419.06 641.45,-415.52 662.88,-412.2"/>
<polygon fill="#707070" stroke="#707070" points="663.59,-415.63 672.94,-410.64 662.52,-408.71 663.59,-415.63"/>
</g>
<!-- InternetGatewayAttachment::::ig&#45;attach::project&#45;igw::project&#45;vpc&#45;&gt;Vpc::::project&#45;vpc -->
<g id="edge2" class="edge">
<title>InternetGatewayAttachment::::ig&#45;attach::project&#45;igw::project&#45;vpc&#45;&gt;Vpc::::project&#45;vpc</title>
<path fill="none" stroke="#707070" d="M596.13,-461.55C686.15,-467.98 804.76,-466.97 904,-434 921.07,-428.33 937.69,-418.06 951.75,-407.49"/>
<polygon fill="#707070" stroke="#707070" points="953.99,-410.18 959.72,-401.26 949.68,-404.66 953.99,-410.18"/>
</g>
<!-- Route::::project&#45;rtb&#45;public&#45;igw&#45;0.0.0.0/0 -->
<g id="node3" class="node">
<title>Route::::project&#45;rtb&#45;public&#45;igw&#45;0.0.0.0/0</title>
<polygon fill="#e5e5e5" stroke="#dddddd" points="280,-420 24,-420 24,-362 280,-362 280,-420"/>
<text text-anchor="start" x="36" y="-400.2" font-family="Helvetica,sans-Serif" font-weight="bold" font-size="16.00" fill="#707070">EC2::Route</text>
<text text-anchor="start" x="36" y="-375.2" font-family="Helvetica,sans-Serif" font-size="16.00" fill="#383838">project&#45;rtb&#45;public&#45;igw&#45;0.0.0.0/0...</text>
</g>
<!-- Route::::project&#45;rtb&#45;public&#45;igw&#45;0.0.0.0/0&#45;&gt;InternetGateway::::project&#45;igw -->
<g id="edge5" class="edge">
<title>Route::::project&#45;rtb&#45;public&#45;igw&#45;0.0.0.0/0&#45;&gt;InternetGateway::::project&#45;igw</title>
<path fill="none" stroke="#707070" d="M280.32,-392.04C393.56,-392.96 557.14,-394.29 662.9,-395.15"/>
<polygon fill="#707070" stroke="#707070" points="662.92,-398.65 672.95,-395.23 662.98,-391.65 662.92,-398.65"/>
</g>
<!-- RouteTable::::project&#45;rtb&#45;public -->
<g id="node4" class="node">
<title>RouteTable::::project&#45;rtb&#45;public</title>
<polygon fill="#e5e5e5" stroke="#dddddd" points="532,-377 381,-377 381,-319 532,-319 532,-377"/>
<text text-anchor="start" x="393.5" y="-357.2" font-family="Helvetica,sans-Serif" font-weight="bold" font-size="16.00" fill="#707070">EC2::RouteTable</text>
<text text-anchor="start" x="393.5" y="-332.2" font-family="Helvetica,sans-Serif" font-size="16.00" fill="#383838">project&#45;rtb&#45;public</text>
</g>
<!-- Route::::project&#45;rtb&#45;public&#45;igw&#45;0.0.0.0/0&#45;&gt;RouteTable::::project&#45;rtb&#45;public -->
<g id="edge4" class="edge">
<title>Route::::project&#45;rtb&#45;public&#45;igw&#45;0.0.0.0/0&#45;&gt;RouteTable::::project&#45;rtb&#45;public</title>
<path fill="none" stroke="#707070" d="M280.41,-372.89C310.9,-368.56 342.71,-364.03 370.72,-360.05"/>
<polygon fill="#707070" stroke="#707070" points="371.46,-363.48 380.86,-358.61 370.47,-356.55 371.46,-363.48"/>
</g>
<!-- Subnet::::project&#45;subnet&#45;public1&#45;us&#45;east&#45;1a -->
<g id="node6" class="node">
<title>Subnet::::project&#45;subnet&#45;public1&#45;us&#45;east&#45;1a</title>
<polygon fill="#e5e5e5" stroke="#dddddd" points="904,-329 633,-329 633,-271 904,-271 904,-329"/>
<text text-anchor="start" x="645.5" y="-309.2" font-family="Helvetica,sans-Serif" font-weight="bold" font-size="16.00" fill="#707070">EC2::Subnet</text>
<text text-anchor="start" x="645.5" y="-284.2" font-family="Helvetica,sans-Serif" font-size="16.00" fill="#383838">project&#45;subnet&#45;public1&#45;us&#45;east&#45;1...</text>
</g>
<!-- RouteTable::::project&#45;rtb&#45;public&#45;&gt;Subnet::::project&#45;subnet&#45;public1&#45;us&#45;east&#45;1a -->
<g id="edge7" class="edge">
<title>RouteTable::::project&#45;rtb&#45;public&#45;&gt;Subnet::::project&#45;subnet&#45;public1&#45;us&#45;east&#45;1a</title>
<path fill="none" stroke="#707070" d="M532.15,-336.44C559.47,-332.21 591.39,-327.27 622.75,-322.41"/>
<polygon fill="#707070" stroke="#707070" points="623.56,-325.83 632.91,-320.84 622.49,-318.91 623.56,-325.83"/>
</g>
<!-- RouteTable::::project&#45;rtb&#45;public&#45;&gt;Vpc::::project&#45;vpc -->
<g id="edge6" class="edge">
<title>RouteTable::::project&#45;rtb&#45;public&#45;&gt;Vpc::::project&#45;vpc</title>
<path fill="none" stroke="#707070" d="M532.33,-346.55C621.17,-345.55 773.7,-346.11 904,-358 912.32,-358.76 921.05,-359.83 929.64,-361.05"/>
<polygon fill="#707070" stroke="#707070" points="929.22,-364.52 939.62,-362.54 930.25,-357.6 929.22,-364.52"/>
</g>
<!-- RouteTableAssociation::::rt&#45;assoc::project&#45;rtb&#45;public::project&#45;subnet&#45;public1&#45;us&#45;east&#45;1a -->
<g id="node5" class="node">
<title>RouteTableAssociation::::rt&#45;assoc::project&#45;rtb&#45;public::project&#45;subnet&#45;public1&#45;us&#45;east&#45;1a</title>
<polygon fill="#e5e5e5" stroke="#dddddd" points="276,-334 28,-334 28,-276 276,-276 276,-334"/>
<text text-anchor="start" x="40" y="-314.2" font-family="Helvetica,sans-Serif" font-weight="bold" font-size="16.00" fill="#707070">EC2::RouteTableAssociation</text>
<text text-anchor="start" x="40" y="-289.2" font-family="Helvetica,sans-Serif" font-size="16.00" fill="#383838">rt&#45;assoc::project&#45;rtb&#45;public::pr...</text>
</g>
<!-- RouteTableAssociation::::rt&#45;assoc::project&#45;rtb&#45;public::project&#45;subnet&#45;public1&#45;us&#45;east&#45;1a&#45;&gt;RouteTable::::project&#45;rtb&#45;public -->
<g id="edge8" class="edge">
<title>RouteTableAssociation::::rt&#45;assoc::project&#45;rtb&#45;public::project&#45;subnet&#45;public1&#45;us&#45;east&#45;1a&#45;&gt;RouteTable::::project&#45;rtb&#45;public</title>
<path fill="none" stroke="#707070" d="M276.04,-322.49C307.79,-327 341.26,-331.76 370.58,-335.93"/>
<polygon fill="#707070" stroke="#707070" points="370.38,-339.44 380.77,-337.38 371.37,-332.51 370.38,-339.44"/>
</g>
<!-- RouteTableAssociation::::rt&#45;assoc::project&#45;rtb&#45;public::project&#45;subnet&#45;public1&#45;us&#45;east&#45;1a&#45;&gt;Subnet::::project&#45;subnet&#45;public1&#45;us&#45;east&#45;1a -->
<g id="edge9" class="edge">
<title>RouteTableAssociation::::rt&#45;assoc::project&#45;rtb&#45;public::project&#45;subnet&#45;public1&#45;us&#45;east&#45;1a&#45;&gt;Subnet::::project&#45;subnet&#45;public1&#45;us&#45;east&#45;1a</title>
<path fill="none" stroke="#707070" d="M276.25,-304C376.29,-303.18 517.53,-302.03 622.91,-301.18"/>
<polygon fill="#707070" stroke="#707070" points="623.02,-304.68 633,-301.09 622.97,-297.68 623.02,-304.68"/>
</g>
<!-- Subnet::::project&#45;subnet&#45;public1&#45;us&#45;east&#45;1a&#45;&gt;Vpc::::project&#45;vpc -->
<g id="edge10" class="edge">
<title>Subnet::::project&#45;subnet&#45;public1&#45;us&#45;east&#45;1a&#45;&gt;Vpc::::project&#45;vpc</title>
<path fill="none" stroke="#707070" d="M861.07,-329.11C875.45,-333.73 890.13,-338.47 904,-343 912.56,-345.79 921.58,-348.77 930.44,-351.71"/>
<polygon fill="#707070" stroke="#707070" points="929.38,-355.04 939.97,-354.87 931.58,-348.4 929.38,-355.04"/>
</g>
<!-- PrincipalAssociation::::ram&#45;principal&#45;assoc::my&#45;share::161408406883 -->
<g id="node8" class="node">
<title>PrincipalAssociation::::ram&#45;principal&#45;assoc::my&#45;share::161408406883</title>
<polygon fill="#e5e5e5" stroke="#dddddd" points="593.5,-205 319.5,-205 319.5,-147 593.5,-147 593.5,-205"/>
<text text-anchor="start" x="331.5" y="-185.2" font-family="Helvetica,sans-Serif" font-weight="bold" font-size="16.00" fill="#707070">RAM::PrincipalAssociation</text>
<text text-anchor="start" x="331.5" y="-160.2" font-family="Helvetica,sans-Serif" font-size="16.00" fill="#383838">ram&#45;principal&#45;assoc::my&#45;share::1...</text>
</g>
<!-- ResourceShare::::my&#45;share -->
<g id="node11" class="node">
<title>ResourceShare::::my&#45;share</title>
<polygon fill="#e5e5e5" stroke="#dddddd" points="862.5,-205 674.5,-205 674.5,-147 862.5,-147 862.5,-205"/>
<text text-anchor="start" x="686.5" y="-185.2" font-family="Helvetica,sans-Serif" font-weight="bold" font-size="16.00" fill="#707070">RAM::ResourceShare</text>
<text text-anchor="start" x="686.5" y="-160.2" font-family="Helvetica,sans-Serif" font-size="16.00" fill="#383838">my&#45;share</text>
</g>
<!-- PrincipalAssociation::::ram&#45;principal&#45;assoc::my&#45;share::161408406883&#45;&gt;ResourceShare::::my&#45;share -->
<g id="edge11" class="edge">
<title>PrincipalAssociation::::ram&#45;principal&#45;assoc::my&#45;share::161408406883&#45;&gt;ResourceShare::::my&#45;share</title>
<path fill="none" stroke="#707070" d="M593.92,-176C617.45,-176 641.55,-176 664.02,-176"/>
<polygon fill="#707070" stroke="#707070" points="664.23,-179.5 674.23,-176 664.23,-172.5 664.23,-179.5"/>
</g>
<!-- PrincipalAssociation::::ram&#45;principal&#45;assoc::my&#45;share::548529576214 -->
<g id="node9" class="node">
<title>PrincipalAssociation::::ram&#45;principal&#45;assoc::my&#45;share::548529576214</title>
<polygon fill="#e5e5e5" stroke="#dddddd" points="593.5,-129 319.5,-129 319.5,-71 593.5,-71 593.5,-129"/>
<text text-anchor="start" x="331.5" y="-109.2" font-family="Helvetica,sans-Serif" font-weight="bold" font-size="16.00" fill="#707070">RAM::PrincipalAssociation</text>
<text text-anchor="start" x="331.5" y="-84.2" font-family="Helvetica,sans-Serif" font-size="16.00" fill="#383838">ram&#45;principal&#45;assoc::my&#45;share::5...</text>
</g>
<!-- PrincipalAssociation::::ram&#45;principal&#45;assoc::my&#45;share::548529576214&#45;&gt;ResourceShare::::my&#45;share -->
<g id="edge12" class="edge">
<title>PrincipalAssociation::::ram&#45;principal&#45;assoc::my&#45;share::548529576214&#45;&gt;ResourceShare::::my&#45;share</title>
<path fill="none" stroke="#707070" d="M576.02,-129.06C605.08,-136.18 635.94,-143.75 664.21,-150.68"/>
<polygon fill="#707070" stroke="#707070" points="663.55,-154.12 674.09,-153.1 665.22,-147.32 663.55,-154.12"/>
</g>
<!-- ResourceAssociation::::ram&#45;resource&#45;assoc::my&#45;share::project&#45;subnet&#45;public1&#45;us&#45;east&#45;1a -->
<g id="node10" class="node">
<title>ResourceAssociation::::ram&#45;resource&#45;assoc::my&#45;share::project&#45;subnet&#45;public1&#45;us&#45;east&#45;1a</title>
<polygon fill="#e5e5e5" stroke="#dddddd" points="597,-281 316,-281 316,-223 597,-223 597,-281"/>
<text text-anchor="start" x="328.5" y="-261.2" font-family="Helvetica,sans-Serif" font-weight="bold" font-size="16.00" fill="#707070">RAM::ResourceAssociation</text>
<text text-anchor="start" x="328.5" y="-236.2" font-family="Helvetica,sans-Serif" font-size="16.00" fill="#383838">ram&#45;resource&#45;assoc::my&#45;share::pr...</text>
</g>
<!-- ResourceAssociation::::ram&#45;resource&#45;assoc::my&#45;share::project&#45;subnet&#45;public1&#45;us&#45;east&#45;1a&#45;&gt;Subnet::::project&#45;subnet&#45;public1&#45;us&#45;east&#45;1a -->
<g id="edge14" class="edge">
<title>ResourceAssociation::::ram&#45;resource&#45;assoc::my&#45;share::project&#45;subnet&#45;public1&#45;us&#45;east&#45;1a&#45;&gt;Subnet::::project&#45;subnet&#45;public1&#45;us&#45;east&#45;1a</title>
<path fill="none" stroke="#707070" d="M597.08,-273.61C605.63,-274.94 614.24,-276.27 622.81,-277.6"/>
<polygon fill="#707070" stroke="#707070" points="622.43,-281.08 632.84,-279.15 623.5,-274.16 622.43,-281.08"/>
</g>
<!-- ResourceAssociation::::ram&#45;resource&#45;assoc::my&#45;share::project&#45;subnet&#45;public1&#45;us&#45;east&#45;1a&#45;&gt;ResourceShare::::my&#45;share -->
<g id="edge13" class="edge">
<title>ResourceAssociation::::ram&#45;resource&#45;assoc::my&#45;share::project&#45;subnet&#45;public1&#45;us&#45;east&#45;1a&#45;&gt;ResourceShare::::my&#45;share</title>
<path fill="none" stroke="#707070" d="M576.02,-222.94C605.08,-215.82 635.94,-208.25 664.21,-201.32"/>
<polygon fill="#707070" stroke="#707070" points="665.22,-204.68 674.09,-198.9 663.55,-197.88 665.22,-204.68"/>
</g>
</g>
</svg>
