<?xml version="1.0" encoding="UTF-8" standalone="no"?><svg xmlns="http://www.w3.org/2000/svg" xmlns:xlink="http://www.w3.org/1999/xlink" contentScriptType="application/ecmascript" contentStyleType="text/css" height="680px" preserveAspectRatio="none" style="width:557px;height:680px;background:#FFFFFF;" version="1.1" viewBox="0 0 557 680" width="557px" zoomAndPan="magnify"><defs><filter height="300%" id="f7g23n8kysken" width="300%" x="-1" y="-1"><feGaussianBlur result="blurOut" stdDeviation="2.0"/><feColorMatrix in="blurOut" result="blurOut2" type="matrix" values="0 0 0 0 0 0 0 0 0 0 0 0 0 0 0 0 0 0 .4 0"/><feOffset dx="4.0" dy="4.0" in="blurOut2" result="blurOut3"/><feBlend in="SourceGraphic" in2="blurOut3" mode="normal"/></filter></defs><g><rect fill="none" height="26.4883" style="stroke:none;stroke-width:1.0;" width="278" x="109.5" y="15"/><text fill="#000000" font-family="sans-serif" font-size="14" font-weight="bold" lengthAdjust="spacing" textLength="268" x="114.5" y="33.5352">Resources for project resource-share</text><rect fill="#F8F8F8" filter="url(#f7g23n8kysken)" height="36.4883" rx="12.5" ry="12.5" style="stroke:#383838;stroke-width:1.5;" width="52" x="10" y="339.9297"/><text fill="#000000" font-family="sans-serif" font-size="14" lengthAdjust="spacing" textLength="32" x="20" y="363.4648">Infra</text><rect fill="#F8F8F8" filter="url(#f7g23n8kysken)" height="36.4883" rx="12.5" ry="12.5" style="stroke:#383838;stroke-width:1.5;" width="46" x="112" y="339.9297"/><text fill="#000000" font-family="sans-serif" font-size="14" lengthAdjust="spacing" textLength="26" x="122" y="363.4648">aws</text><rect fill="#F8F8F8" filter="url(#f7g23n8kysken)" height="36.4883" rx="12.5" ry="12.5" style="stroke:#383838;stroke-width:1.5;" width="47" x="208" y="226.9531"/><text fill="#000000" font-family="sans-serif" font-size="14" lengthAdjust="spacing" textLength="27" x="218" y="250.4883">EC2</text><rect fill="#F8F8F8" filter="url(#f7g23n8kysken)" height="36.4883" rx="12.5" ry="12.5" style="stroke:#383838;stroke-width:1.5;" width="68" x="305" y="57.4883"/><text fill="#000000" font-family="sans-serif" font-size="14" lengthAdjust="spacing" textLength="48" x="315" y="81.0234">Vpc (1)</text><path d="M255,245.1973 L265,245.1973 C280,245.1973 280,75.7324 295,75.7324 L305,75.7324 " fill="none" style="stroke:#383838;stroke-width:1.0;"/><rect fill="#F8F8F8" filter="url(#f7g23n8kysken)" height="36.4883" rx="12.5" ry="12.5" style="stroke:#383838;stroke-width:1.5;" width="154" x="305" y="113.9766"/><text fill="#000000" font-family="sans-serif" font-size="14" lengthAdjust="spacing" textLength="134" x="315" y="137.5117">InternetGateway (1)</text><path d="M255,245.1973 L265,245.1973 C280,245.1973 280,132.2207 295,132.2207 L305,132.2207 " fill="none" style="stroke:#383838;stroke-width:1.0;"/><rect fill="#F8F8F8" filter="url(#f7g23n8kysken)" height="36.4883" rx="12.5" ry="12.5" style="stroke:#383838;stroke-width:1.5;" width="233" x="305" y="170.4648"/><text fill="#000000" font-family="sans-serif" font-size="14" lengthAdjust="spacing" textLength="213" x="315" y="194">InternetGatewayAttachment (1)</text><path d="M255,245.1973 L265,245.1973 C280,245.1973 280,188.709 295,188.709 L305,188.709 " fill="none" style="stroke:#383838;stroke-width:1.0;"/><rect fill="#F8F8F8" filter="url(#f7g23n8kysken)" height="36.4883" rx="12.5" ry="12.5" style="stroke:#383838;stroke-width:1.5;" width="91" x="305" y="226.9531"/><text fill="#000000" font-family="sans-serif" font-size="14" lengthAdjust="spacing" textLength="71" x="315" y="250.4883">Subnet (1)</text><path d="M255,245.1973 L265,245.1973 C280,245.1973 280,245.1973 295,245.1973 L305,245.1973 " fill="none" style="stroke:#383838;stroke-width:1.0;"/><rect fill="#F8F8F8" filter="url(#f7g23n8kysken)" height="36.4883" rx="12.5" ry="12.5" style="stroke:#383838;stroke-width:1.5;" width="121" x="305" y="283.4414"/><text fill="#000000" font-family="sans-serif" font-size="14" lengthAdjust="spacing" textLength="101" x="315" y="306.9766">RouteTable (1)</text><path d="M255,245.1973 L265,245.1973 C280,245.1973 280,301.6855 295,301.6855 L305,301.6855 " fill="none" style="stroke:#383838;stroke-width:1.0;"/><rect fill="#F8F8F8" filter="url(#f7g23n8kysken)" height="36.4883" rx="12.5" ry="12.5" style="stroke:#383838;stroke-width:1.5;" width="200" x="305" y="339.9297"/><text fill="#000000" font-family="sans-serif" font-size="14" lengthAdjust="spacing" textLength="180" x="315" y="363.4648">RouteTableAssociation (1)</text><path d="M255,245.1973 L265,245.1973 C280,245.1973 280,358.1738 295,358.1738 L305,358.1738 " fill="none" style="stroke:#383838;stroke-width:1.0;"/><rect fill="#F8F8F8" filter="url(#f7g23n8kysken)" height="36.4883" rx="12.5" ry="12.5" style="stroke:#383838;stroke-width:1.5;" width="83" x="305" y="396.418"/><text fill="#000000" font-family="sans-serif" font-size="14" lengthAdjust="spacing" textLength="63" x="315" y="419.9531">Route (1)</text><path d="M255,245.1973 L265,245.1973 C280,245.1973 280,414.6621 295,414.6621 L305,414.6621 " fill="none" style="stroke:#383838;stroke-width:1.0;"/><path d="M158,358.1738 L168,358.1738 C183,358.1738 183,245.1973 198,245.1973 L208,245.1973 " fill="none" style="stroke:#383838;stroke-width:1.0;"/><rect fill="#F8F8F8" filter="url(#f7g23n8kysken)" height="36.4883" rx="12.5" ry="12.5" style="stroke:#383838;stroke-width:1.5;" width="116" x="208" y="452.9063"/><text fill="#000000" font-family="sans-serif" font-size="14" lengthAdjust="spacing" textLength="96" x="218" y="476.4414">Organisations</text><rect fill="#F8F8F8" filter="url(#f7g23n8kysken)" height="36.4883" rx="12.5" ry="12.5" style="stroke:#383838;stroke-width:1.5;" width="132" x="374" y="452.9063"/><text fill="#000000" font-family="sans-serif" font-size="14" lengthAdjust="spacing" textLength="112" x="384" y="476.4414">Organisation (1)</text><path d="M324,471.1504 L334,471.1504 C349,471.1504 349,471.1504 364,471.1504 L374,471.1504 " fill="none" style="stroke:#383838;stroke-width:1.0;"/><path d="M158,358.1738 L168,358.1738 C183,358.1738 183,471.1504 198,471.1504 L208,471.1504 " fill="none" style="stroke:#383838;stroke-width:1.0;"/><rect fill="#F8F8F8" filter="url(#f7g23n8kysken)" height="36.4883" rx="12.5" ry="12.5" style="stroke:#383838;stroke-width:1.5;" width="51" x="208" y="565.8828"/><text fill="#000000" font-family="sans-serif" font-size="14" lengthAdjust="spacing" textLength="31" x="218" y="589.418">RAM</text><rect fill="#F8F8F8" filter="url(#f7g23n8kysken)" height="36.4883" rx="12.5" ry="12.5" style="stroke:#383838;stroke-width:1.5;" width="145" x="309" y="509.3945"/><text fill="#000000" font-family="sans-serif" font-size="14" lengthAdjust="spacing" textLength="125" x="319" y="532.9297">ResourceShare (1)</text><path d="M259,584.127 L269,584.127 C284,584.127 284,527.6387 299,527.6387 L309,527.6387 " fill="none" style="stroke:#383838;stroke-width:1.0;"/><rect fill="#F8F8F8" filter="url(#f7g23n8kysken)" height="36.4883" rx="12.5" ry="12.5" style="stroke:#383838;stroke-width:1.5;" width="181" x="309" y="565.8828"/><text fill="#000000" font-family="sans-serif" font-size="14" lengthAdjust="spacing" textLength="161" x="319" y="589.418">PrincipalAssociation (2)</text><path d="M259,584.127 L269,584.127 C284,584.127 284,584.127 299,584.127 L309,584.127 " fill="none" style="stroke:#383838;stroke-width:1.0;"/><rect fill="#F8F8F8" filter="url(#f7g23n8kysken)" height="36.4883" rx="12.5" ry="12.5" style="stroke:#383838;stroke-width:1.5;" width="185" x="309" y="622.3711"/><text fill="#000000" font-family="sans-serif" font-size="14" lengthAdjust="spacing" textLength="165" x="319" y="645.9063">ResourceAssociation (1)</text><path d="M259,584.127 L269,584.127 C284,584.127 284,640.6152 299,640.6152 L309,640.6152 " fill="none" style="stroke:#383838;stroke-width:1.0;"/><path d="M158,358.1738 L168,358.1738 C183,358.1738 183,584.127 198,584.127 L208,584.127 " fill="none" style="stroke:#383838;stroke-width:1.0;"/><path d="M62,358.1738 L72,358.1738 C87,358.1738 87,358.1738 102,358.1738 L112,358.1738 " fill="none" style="stroke:#383838;stroke-width:1.0;"/><!--MD5=[100655e833d2ddbb4e77130811428906]
@startmindmap
title Resources for project resource-share
skinparam monochrome true
+ Infra
++ aws
+++ EC2
++++ Vpc (1)
++++ InternetGateway (1)
++++ InternetGatewayAttachment (1)
++++ Subnet (1)
++++ RouteTable (1)
++++ RouteTableAssociation (1)
++++ Route (1)
+++ Organisations
++++ Organisation (1)
+++ RAM
++++ ResourceShare (1)
++++ PrincipalAssociation (2)
++++ ResourceAssociation (1)
@endmindmap

PlantUML version 1.2021.8(Sat Jun 26 10:20:59 CEST 2021)
(GPL source distribution)
Java Runtime: OpenJDK Runtime Environment
JVM: OpenJDK 64-Bit Server VM
Default Encoding: UTF-8
Language: en
Country: GB
--></g></svg>