<?xml version="1.0" encoding="UTF-8" standalone="no"?><svg xmlns="http://www.w3.org/2000/svg" xmlns:xlink="http://www.w3.org/1999/xlink" contentStyleType="text/css" height="567px" preserveAspectRatio="none" style="width:550px;height:567px;background:#FFFFFF;" version="1.1" viewBox="0 0 550 567" width="550px" zoomAndPan="magnify"><defs/><g><rect height="26.4883" style="stroke:#00000000;stroke-width:1.0;fill:none;" width="220" x="138.5" y="15"/><text fill="#000000" font-family="sans-serif" font-size="14" font-weight="bold" lengthAdjust="spacing" textLength="210" x="143.5" y="33.5352">Resources for project vpc-all</text><rect fill="#F1F1F1" height="36.4883" rx="12.5" ry="12.5" style="stroke:#181818;stroke-width:1.5;" width="52" x="10" y="283.4414"/><text fill="#000000" font-family="sans-serif" font-size="14" lengthAdjust="spacing" textLength="32" x="20" y="306.9766">Infra</text><rect fill="#F1F1F1" height="36.4883" rx="12.5" ry="12.5" style="stroke:#181818;stroke-width:1.5;" width="46" x="112" y="283.4414"/><text fill="#000000" font-family="sans-serif" font-size="14" lengthAdjust="spacing" textLength="26" x="122" y="306.9766">aws</text><rect fill="#F1F1F1" height="36.4883" rx="12.5" ry="12.5" style="stroke:#181818;stroke-width:1.5;" width="47" x="208" y="283.4414"/><text fill="#000000" font-family="sans-serif" font-size="14" lengthAdjust="spacing" textLength="27" x="218" y="306.9766">EC2</text><rect fill="#F1F1F1" height="36.4883" rx="12.5" ry="12.5" style="stroke:#181818;stroke-width:1.5;" width="68" x="305" y="57.4883"/><text fill="#000000" font-family="sans-serif" font-size="14" lengthAdjust="spacing" textLength="48" x="315" y="81.0234">Vpc (1)</text><path d="M255,301.6855 L265,301.6855 C280,301.6855 280,75.7324 295,75.7324 L305,75.7324 " fill="none" style="stroke:#181818;stroke-width:1.0;"/><rect fill="#F1F1F1" height="36.4883" rx="12.5" ry="12.5" style="stroke:#181818;stroke-width:1.5;" width="154" x="305" y="113.9766"/><text fill="#000000" font-family="sans-serif" font-size="14" lengthAdjust="spacing" textLength="134" x="315" y="137.5117">InternetGateway (1)</text><path d="M255,301.6855 L265,301.6855 C280,301.6855 280,132.2207 295,132.2207 L305,132.2207 " fill="none" style="stroke:#181818;stroke-width:1.0;"/><rect fill="#F1F1F1" height="36.4883" rx="12.5" ry="12.5" style="stroke:#181818;stroke-width:1.5;" width="233" x="305" y="170.4648"/><text fill="#000000" font-family="sans-serif" font-size="14" lengthAdjust="spacing" textLength="213" x="315" y="194">InternetGatewayAttachment (1)</text><path d="M255,301.6855 L265,301.6855 C280,301.6855 280,188.709 295,188.709 L305,188.709 " fill="none" style="stroke:#181818;stroke-width:1.0;"/><rect fill="#F1F1F1" height="36.4883" rx="12.5" ry="12.5" style="stroke:#181818;stroke-width:1.5;" width="123" x="305" y="226.9531"/><text fill="#000000" font-family="sans-serif" font-size="14" lengthAdjust="spacing" textLength="103" x="315" y="250.4883">NatGateway (1)</text><path d="M255,301.6855 L265,301.6855 C280,301.6855 280,245.1973 295,245.1973 L305,245.1973 " fill="none" style="stroke:#181818;stroke-width:1.0;"/><rect fill="#F1F1F1" height="36.4883" rx="12.5" ry="12.5" style="stroke:#181818;stroke-width:1.5;" width="91" x="305" y="283.4414"/><text fill="#000000" font-family="sans-serif" font-size="14" lengthAdjust="spacing" textLength="71" x="315" y="306.9766">Subnet (4)</text><path d="M255,301.6855 L265,301.6855 C280,301.6855 280,301.6855 295,301.6855 L305,301.6855 " fill="none" style="stroke:#181818;stroke-width:1.0;"/><rect fill="#F1F1F1" height="36.4883" rx="12.5" ry="12.5" style="stroke:#181818;stroke-width:1.5;" width="121" x="305" y="339.9297"/><text fill="#000000" font-family="sans-serif" font-size="14" lengthAdjust="spacing" textLength="101" x="315" y="363.4648">RouteTable (3)</text><path d="M255,301.6855 L265,301.6855 C280,301.6855 280,358.1738 295,358.1738 L305,358.1738 " fill="none" style="stroke:#181818;stroke-width:1.0;"/><rect fill="#F1F1F1" height="36.4883" rx="12.5" ry="12.5" style="stroke:#181818;stroke-width:1.5;" width="200" x="305" y="396.418"/><text fill="#000000" font-family="sans-serif" font-size="14" lengthAdjust="spacing" textLength="180" x="315" y="419.9531">RouteTableAssociation (4)</text><path d="M255,301.6855 L265,301.6855 C280,301.6855 280,414.6621 295,414.6621 L305,414.6621 " fill="none" style="stroke:#181818;stroke-width:1.0;"/><rect fill="#F1F1F1" height="36.4883" rx="12.5" ry="12.5" style="stroke:#181818;stroke-width:1.5;" width="83" x="305" y="452.9063"/><text fill="#000000" font-family="sans-serif" font-size="14" lengthAdjust="spacing" textLength="63" x="315" y="476.4414">Route (3)</text><path d="M255,301.6855 L265,301.6855 C280,301.6855 280,471.1504 295,471.1504 L305,471.1504 " fill="none" style="stroke:#181818;stroke-width:1.0;"/><rect fill="#F1F1F1" height="36.4883" rx="12.5" ry="12.5" style="stroke:#181818;stroke-width:1.5;" width="155" x="305" y="509.3945"/><text fill="#000000" font-family="sans-serif" font-size="14" lengthAdjust="spacing" textLength="135" x="315" y="532.9297">ElasticIpAddress (1)</text><path d="M255,301.6855 L265,301.6855 C280,301.6855 280,527.6387 295,527.6387 L305,527.6387 " fill="none" style="stroke:#181818;stroke-width:1.0;"/><path d="M158,301.6855 L168,301.6855 C183,301.6855 183,301.6855 198,301.6855 L208,301.6855 " fill="none" style="stroke:#181818;stroke-width:1.0;"/><path d="M62,301.6855 L72,301.6855 C87,301.6855 87,301.6855 102,301.6855 L112,301.6855 " fill="none" style="stroke:#181818;stroke-width:1.0;"/><!--MD5=[3337c14dc5f8d44b10f2af5b66ae284c]
@startmindmap
title Resources for project vpc-all
skinparam monochrome true
+ Infra
++ aws
+++ EC2
++++ Vpc (1)
++++ InternetGateway (1)
++++ InternetGatewayAttachment (1)
++++ NatGateway (1)
++++ Subnet (4)
++++ RouteTable (3)
++++ RouteTableAssociation (4)
++++ Route (3)
++++ ElasticIpAddress (1)
@endmindmap

PlantUML version 1.2022.6(Tue Jun 21 12:34:49 COT 2022)
(GPL source distribution)
Java Runtime: Java(TM) SE Runtime Environment
JVM: Java HotSpot(TM) 64-Bit Server VM
Default Encoding: UTF-8
Language: en
Country: GB
--></g></svg>