<?xml version="1.0" encoding="UTF-8" standalone="no"?>
<!DOCTYPE svg PUBLIC "-//W3C//DTD SVG 1.1//EN"
 "http://www.w3.org/Graphics/SVG/1.1/DTD/svg11.dtd">
<!-- Generated by graphviz version 7.1.0 (20230121.1956)
 -->
<!-- Title: graphname Pages: 1 -->
<svg width="556pt" height="313pt"
 viewBox="0.00 0.00 556.00 313.00" xmlns="http://www.w3.org/2000/svg" xmlns:xlink="http://www.w3.org/1999/xlink">
<g id="graph0" class="graph" transform="scale(1 1) rotate(0) translate(4 309)">
<title>graphname</title>
<polygon fill="#fafafa" stroke="none" points="-4,4 -4,-309 552,-309 552,4 -4,4"/>
<text text-anchor="start" x="179" y="-280.4" font-family="Helvetica,sans-Serif" font-weight="bold" font-size="22.00" fill="#383838">Project helloworld</text>
<text text-anchor="start" x="270" y="-264.8" font-family="Helvetica,sans-Serif" font-size="14.00"> &#160;</text>
<text text-anchor="start" x="179" y="-243.2" font-family="Helvetica,sans-Serif" font-weight="bold" font-size="16.00" fill="#707070">Target Diagram</text>
<g id="clust1" class="cluster">
<title>cluster_aws</title>
<polygon fill="#f5f5f5" stroke="#f5f5f5" points="8,-8 8,-221 540,-221 540,-8 8,-8"/>
<text text-anchor="start" x="212" y="-23" font-family="Helvetica,sans-Serif" font-weight="bold" font-size="20.00" fill="#707070">Provider aws</text>
</g>
<g id="clust2" class="cluster">
<title>cluster_aws_</title>
<polygon fill="#eeeeee" stroke="#eeeeee" points="16,-54 16,-213 532,-213 532,-54 16,-54"/>
<text text-anchor="start" x="273.86" y="-58.3" font-family="Helvetica,sans-Serif" font-size="1.00" fill="#383838"> </text>
</g>
<!-- Role::lambda&#45;role -->
<g id="node1" class="node">
<title>Role::lambda&#45;role</title>
<polygon fill="#e5e5e5" stroke="#dddddd" points="348.5,-129 238.5,-129 238.5,-71 348.5,-71 348.5,-129"/>
<text text-anchor="start" x="250.5" y="-109.2" font-family="Helvetica,sans-Serif" font-weight="bold" font-size="16.00" fill="#707070">IAM::Role</text>
<text text-anchor="start" x="250.5" y="-84.2" font-family="Helvetica,sans-Serif" font-size="16.00" fill="#383838">lambda&#45;role</text>
</g>
<!-- Policy::lambda&#45;policy -->
<g id="node2" class="node">
<title>Policy::lambda&#45;policy</title>
<polygon fill="#e5e5e5" stroke="#dddddd" points="524,-129 399,-129 399,-71 524,-71 524,-129"/>
<text text-anchor="start" x="411.5" y="-109.2" font-family="Helvetica,sans-Serif" font-weight="bold" font-size="16.00" fill="#707070">IAM::Policy</text>
<text text-anchor="start" x="411.5" y="-84.2" font-family="Helvetica,sans-Serif" font-size="16.00" fill="#383838">lambda&#45;policy</text>
</g>
<!-- Role::lambda&#45;role&#45;&gt;Policy::lambda&#45;policy -->
<g id="edge1" class="edge">
<title>Role::lambda&#45;role&#45;&gt;Policy::lambda&#45;policy</title>
<path fill="none" stroke="#707070" d="M348.85,-100C361.14,-100 374.38,-100 387.3,-100"/>
<polygon fill="#707070" stroke="#707070" points="387.03,-103.5 397.03,-100 387.03,-96.5 387.03,-103.5"/>
</g>
<!-- Function::lambda&#45;hello&#45;world -->
<g id="node3" class="node">
<title>Function::lambda&#45;hello&#45;world</title>
<polygon fill="#e5e5e5" stroke="#dddddd" points="188,-167 24,-167 24,-109 188,-109 188,-167"/>
<text text-anchor="start" x="36" y="-147.2" font-family="Helvetica,sans-Serif" font-weight="bold" font-size="16.00" fill="#707070">Lambda::Function</text>
<text text-anchor="start" x="36" y="-122.2" font-family="Helvetica,sans-Serif" font-size="16.00" fill="#383838">lambda&#45;hello&#45;world</text>
</g>
<!-- Function::lambda&#45;hello&#45;world&#45;&gt;Role::lambda&#45;role -->
<g id="edge3" class="edge">
<title>Function::lambda&#45;hello&#45;world&#45;&gt;Role::lambda&#45;role</title>
<path fill="none" stroke="#707070" d="M188.36,-121.33C201.26,-118.69 214.45,-115.99 226.92,-113.43"/>
<polygon fill="#707070" stroke="#707070" points="227.57,-116.87 236.66,-111.44 226.16,-110.02 227.57,-116.87"/>
</g>
<!-- Layer::lambda&#45;layer -->
<g id="node4" class="node">
<title>Layer::lambda&#45;layer</title>
<polygon fill="#e5e5e5" stroke="#dddddd" points="363,-205 224,-205 224,-147 363,-147 363,-205"/>
<text text-anchor="start" x="236.5" y="-185.2" font-family="Helvetica,sans-Serif" font-weight="bold" font-size="16.00" fill="#707070">Lambda::Layer</text>
<text text-anchor="start" x="236.5" y="-160.2" font-family="Helvetica,sans-Serif" font-size="16.00" fill="#383838">lambda&#45;layer</text>
</g>
<!-- Function::lambda&#45;hello&#45;world&#45;&gt;Layer::lambda&#45;layer -->
<g id="edge2" class="edge">
<title>Function::lambda&#45;hello&#45;world&#45;&gt;Layer::lambda&#45;layer</title>
<path fill="none" stroke="#707070" d="M188.36,-154.67C196.37,-156.31 204.49,-157.97 212.48,-159.61"/>
<polygon fill="#707070" stroke="#707070" points="211.69,-163.02 222.19,-161.6 213.09,-156.16 211.69,-163.02"/>
</g>
</g>
</svg>
