<?xml version="1.0" encoding="UTF-8" standalone="no"?>
<!DOCTYPE svg PUBLIC "-//W3C//DTD SVG 1.1//EN"
 "http://www.w3.org/Graphics/SVG/1.1/DTD/svg11.dtd">
<!-- Generated by graphviz version 2.44.1 (20200629.0846)
 -->
<!-- Title: graphname Pages: 1 -->
<svg width="1161pt" height="605pt"
 viewBox="0.00 0.00 1161.01 605.00" xmlns="http://www.w3.org/2000/svg" xmlns:xlink="http://www.w3.org/1999/xlink">
<g id="graph0" class="graph" transform="scale(1 1) rotate(0) translate(4 601)">
<title>graphname</title>
<polygon fill="white" stroke="transparent" points="-4,4 -4,-601 1157.01,-601 1157.01,4 -4,4"/>
<g id="clust1" class="cluster">
<title>cluster_aws&#45;us&#45;east</title>
<polygon fill="none" stroke="black" points="8,-8 8,-589 1145.01,-589 1145.01,-8 8,-8"/>
<text text-anchor="middle" x="576.5" y="-573.8" font-family="Times,serif" font-size="14.00">aws&#45;us&#45;east</text>
</g>
<!-- S3Bucket::grucloud.org&#45;dev -->
<g id="node1" class="node">
<title>S3Bucket::grucloud.org&#45;dev</title>
<ellipse fill="none" stroke="black" cx="986.22" cy="-324" rx="110.48" ry="18"/>
<text text-anchor="middle" x="986.22" y="-320.3" font-family="Times,serif" font-size="14.00">S3Bucket::grucloud.org&#45;dev</text>
</g>
<!-- S3Object::css/app.fb0c6e1c.css -->
<g id="node2" class="node">
<title>S3Object::css/app.fb0c6e1c.css</title>
<ellipse fill="none" stroke="black" cx="596.65" cy="-162" rx="122.38" ry="18"/>
<text text-anchor="middle" x="596.65" y="-158.3" font-family="Times,serif" font-size="14.00">S3Object::css/app.fb0c6e1c.css</text>
</g>
<!-- S3Object::css/app.fb0c6e1c.css&#45;&gt;S3Bucket::grucloud.org&#45;dev -->
<g id="edge1" class="edge">
<title>S3Object::css/app.fb0c6e1c.css&#45;&gt;S3Bucket::grucloud.org&#45;dev</title>
<path fill="none" stroke="black" d="M713.03,-167.5C741.97,-171.55 772.44,-178.2 799.43,-189 863.69,-214.72 926.22,-267.63 959.83,-299.03"/>
<polygon fill="black" stroke="black" points="957.67,-301.81 967.34,-306.14 962.49,-296.72 957.67,-301.81"/>
</g>
<!-- S3Object::favicon.ico -->
<g id="node3" class="node">
<title>S3Object::favicon.ico</title>
<ellipse fill="none" stroke="black" cx="596.65" cy="-540" rx="87.99" ry="18"/>
<text text-anchor="middle" x="596.65" y="-536.3" font-family="Times,serif" font-size="14.00">S3Object::favicon.ico</text>
</g>
<!-- S3Object::favicon.ico&#45;&gt;S3Bucket::grucloud.org&#45;dev -->
<g id="edge2" class="edge">
<title>S3Object::favicon.ico&#45;&gt;S3Bucket::grucloud.org&#45;dev</title>
<path fill="none" stroke="black" d="M684.75,-540.71C721.74,-537.95 764.34,-530.54 799.43,-513 875.7,-474.88 938.91,-392.91 968,-350.55"/>
<polygon fill="black" stroke="black" points="970.98,-352.39 973.68,-342.14 965.18,-348.47 970.98,-352.39"/>
</g>
<!-- S3Object::img/logo.82b9c7a5.png -->
<g id="node4" class="node">
<title>S3Object::img/logo.82b9c7a5.png</title>
<ellipse fill="none" stroke="black" cx="596.65" cy="-486" rx="132.68" ry="18"/>
<text text-anchor="middle" x="596.65" y="-482.3" font-family="Times,serif" font-size="14.00">S3Object::img/logo.82b9c7a5.png</text>
</g>
<!-- S3Object::img/logo.82b9c7a5.png&#45;&gt;S3Bucket::grucloud.org&#45;dev -->
<g id="edge3" class="edge">
<title>S3Object::img/logo.82b9c7a5.png&#45;&gt;S3Bucket::grucloud.org&#45;dev</title>
<path fill="none" stroke="black" d="M720.19,-479.45C746.95,-475.33 774.66,-468.92 799.43,-459 863.69,-433.28 926.22,-380.37 959.83,-348.97"/>
<polygon fill="black" stroke="black" points="962.49,-351.28 967.34,-341.86 957.67,-346.19 962.49,-351.28"/>
</g>
<!-- S3Object::index.html -->
<g id="node5" class="node">
<title>S3Object::index.html</title>
<ellipse fill="none" stroke="black" cx="596.65" cy="-432" rx="87.18" ry="18"/>
<text text-anchor="middle" x="596.65" y="-428.3" font-family="Times,serif" font-size="14.00">S3Object::index.html</text>
</g>
<!-- S3Object::index.html&#45;&gt;S3Bucket::grucloud.org&#45;dev -->
<g id="edge4" class="edge">
<title>S3Object::index.html&#45;&gt;S3Bucket::grucloud.org&#45;dev</title>
<path fill="none" stroke="black" d="M679.7,-426.24C716.75,-422.31 760.79,-415.78 799.43,-405 851.14,-390.57 907.21,-364.57 944.07,-345.92"/>
<polygon fill="black" stroke="black" points="945.7,-349.01 953.01,-341.34 942.51,-342.78 945.7,-349.01"/>
</g>
<!-- S3Object::js/app.56b537f2.js -->
<g id="node6" class="node">
<title>S3Object::js/app.56b537f2.js</title>
<ellipse fill="none" stroke="black" cx="596.65" cy="-378" rx="113.98" ry="18"/>
<text text-anchor="middle" x="596.65" y="-374.3" font-family="Times,serif" font-size="14.00">S3Object::js/app.56b537f2.js</text>
</g>
<!-- S3Object::js/app.56b537f2.js&#45;&gt;S3Bucket::grucloud.org&#45;dev -->
<g id="edge5" class="edge">
<title>S3Object::js/app.56b537f2.js&#45;&gt;S3Bucket::grucloud.org&#45;dev</title>
<path fill="none" stroke="black" d="M685.08,-366.52C720.58,-361.8 761.98,-356.23 799.43,-351 830.18,-346.71 863.76,-341.87 893.81,-337.49"/>
<polygon fill="black" stroke="black" points="894.47,-340.94 903.86,-336.03 893.46,-334.01 894.47,-340.94"/>
</g>
<!-- S3Object::js/app.56b537f2.js.map -->
<g id="node7" class="node">
<title>S3Object::js/app.56b537f2.js.map</title>
<ellipse fill="none" stroke="black" cx="596.65" cy="-324" rx="131.88" ry="18"/>
<text text-anchor="middle" x="596.65" y="-320.3" font-family="Times,serif" font-size="14.00">S3Object::js/app.56b537f2.js.map</text>
</g>
<!-- S3Object::js/app.56b537f2.js.map&#45;&gt;S3Bucket::grucloud.org&#45;dev -->
<g id="edge6" class="edge">
<title>S3Object::js/app.56b537f2.js.map&#45;&gt;S3Bucket::grucloud.org&#45;dev</title>
<path fill="none" stroke="black" d="M728.59,-324C772.92,-324 822.17,-324 865.57,-324"/>
<polygon fill="black" stroke="black" points="865.6,-327.5 875.6,-324 865.6,-320.5 865.6,-327.5"/>
</g>
<!-- S3Object::js/chunk&#45;vendors.8694c259.js -->
<g id="node8" class="node">
<title>S3Object::js/chunk&#45;vendors.8694c259.js</title>
<ellipse fill="none" stroke="black" cx="596.65" cy="-270" rx="154.07" ry="18"/>
<text text-anchor="middle" x="596.65" y="-266.3" font-family="Times,serif" font-size="14.00">S3Object::js/chunk&#45;vendors.8694c259.js</text>
</g>
<!-- S3Object::js/chunk&#45;vendors.8694c259.js&#45;&gt;S3Bucket::grucloud.org&#45;dev -->
<g id="edge7" class="edge">
<title>S3Object::js/chunk&#45;vendors.8694c259.js&#45;&gt;S3Bucket::grucloud.org&#45;dev</title>
<path fill="none" stroke="black" d="M699.56,-283.41C731.54,-287.68 766.97,-292.47 799.43,-297 830.18,-301.29 863.76,-306.13 893.81,-310.51"/>
<polygon fill="black" stroke="black" points="893.46,-313.99 903.86,-311.97 894.47,-307.06 893.46,-313.99"/>
</g>
<!-- S3Object::js/chunk&#45;vendors.8694c259.js.map -->
<g id="node9" class="node">
<title>S3Object::js/chunk&#45;vendors.8694c259.js.map</title>
<ellipse fill="none" stroke="black" cx="596.65" cy="-216" rx="172.47" ry="18"/>
<text text-anchor="middle" x="596.65" y="-212.3" font-family="Times,serif" font-size="14.00">S3Object::js/chunk&#45;vendors.8694c259.js.map</text>
</g>
<!-- S3Object::js/chunk&#45;vendors.8694c259.js.map&#45;&gt;S3Bucket::grucloud.org&#45;dev -->
<g id="edge8" class="edge">
<title>S3Object::js/chunk&#45;vendors.8694c259.js.map&#45;&gt;S3Bucket::grucloud.org&#45;dev</title>
<path fill="none" stroke="black" d="M726.83,-227.85C751.2,-231.61 776.28,-236.54 799.43,-243 851.14,-257.43 907.21,-283.43 944.07,-302.08"/>
<polygon fill="black" stroke="black" points="942.51,-305.22 953.01,-306.66 945.7,-298.99 942.51,-305.22"/>
</g>
<!-- Certificate::certificate&#45;grucloud.org&#45;dev -->
<g id="node10" class="node">
<title>Certificate::certificate&#45;grucloud.org&#45;dev</title>
<ellipse fill="none" stroke="black" cx="986.22" cy="-34" rx="150.57" ry="18"/>
<text text-anchor="middle" x="986.22" y="-30.3" font-family="Times,serif" font-size="14.00">Certificate::certificate&#45;grucloud.org&#45;dev</text>
</g>
<!-- Route53Domain::grucloud.org -->
<g id="node11" class="node">
<title>Route53Domain::grucloud.org</title>
<ellipse fill="none" stroke="black" cx="986.22" cy="-88" rx="119.68" ry="18"/>
<text text-anchor="middle" x="986.22" y="-84.3" font-family="Times,serif" font-size="14.00">Route53Domain::grucloud.org</text>
</g>
<!-- HostedZone::dev.grucloud.org. -->
<g id="node12" class="node">
<title>HostedZone::dev.grucloud.org.</title>
<ellipse fill="none" stroke="black" cx="596.65" cy="-54" rx="120.78" ry="18"/>
<text text-anchor="middle" x="596.65" y="-50.3" font-family="Times,serif" font-size="14.00">HostedZone::dev.grucloud.org.</text>
</g>
<!-- HostedZone::dev.grucloud.org.&#45;&gt;Route53Domain::grucloud.org -->
<g id="edge9" class="edge">
<title>HostedZone::dev.grucloud.org.&#45;&gt;Route53Domain::grucloud.org</title>
<path fill="none" stroke="black" d="M701.26,-63.09C754.14,-67.73 818.55,-73.38 872.65,-78.12"/>
<polygon fill="black" stroke="black" points="872.35,-81.61 882.62,-79 872.97,-74.64 872.35,-81.61"/>
</g>
<!-- Route53Record::validation&#45;dev.grucloud.org. -->
<g id="node13" class="node">
<title>Route53Record::validation&#45;dev.grucloud.org.</title>
<ellipse fill="none" stroke="black" cx="186.93" cy="-44" rx="170.87" ry="18"/>
<text text-anchor="middle" x="186.93" y="-40.3" font-family="Times,serif" font-size="14.00">Route53Record::validation&#45;dev.grucloud.org.</text>
</g>
<!-- Route53Record::validation&#45;dev.grucloud.org.&#45;&gt;Certificate::certificate&#45;grucloud.org&#45;dev -->
<g id="edge11" class="edge">
<title>Route53Record::validation&#45;dev.grucloud.org.&#45;&gt;Certificate::certificate&#45;grucloud.org&#45;dev</title>
<path fill="none" stroke="black" d="M313.89,-31.95C340.29,-29.89 367.97,-28.07 393.87,-27 573.97,-19.58 619.21,-23.61 799.43,-27 810.48,-27.21 821.89,-27.49 833.37,-27.81"/>
<polygon fill="black" stroke="black" points="833.38,-31.31 843.48,-28.11 833.59,-24.31 833.38,-31.31"/>
</g>
<!-- Route53Record::validation&#45;dev.grucloud.org.&#45;&gt;HostedZone::dev.grucloud.org. -->
<g id="edge10" class="edge">
<title>Route53Record::validation&#45;dev.grucloud.org.&#45;&gt;HostedZone::dev.grucloud.org.</title>
<path fill="none" stroke="black" d="M353.47,-48.06C391.38,-48.99 431.13,-49.96 467.2,-50.85"/>
<polygon fill="black" stroke="black" points="467.19,-54.35 477.28,-51.1 467.36,-47.35 467.19,-54.35"/>
</g>
<!-- CloudFrontDistribution::distribution&#45;grucloud.org&#45;dev -->
<g id="node14" class="node">
<title>CloudFrontDistribution::distribution&#45;grucloud.org&#45;dev</title>
<ellipse fill="none" stroke="black" cx="596.65" cy="-108" rx="202.56" ry="18"/>
<text text-anchor="middle" x="596.65" y="-104.3" font-family="Times,serif" font-size="14.00">CloudFrontDistribution::distribution&#45;grucloud.org&#45;dev</text>
</g>
<!-- CloudFrontDistribution::distribution&#45;grucloud.org&#45;dev&#45;&gt;S3Bucket::grucloud.org&#45;dev -->
<g id="edge12" class="edge">
<title>CloudFrontDistribution::distribution&#45;grucloud.org&#45;dev&#45;&gt;S3Bucket::grucloud.org&#45;dev</title>
<path fill="none" stroke="black" d="M756.82,-119.07C771.63,-123.12 786.08,-128.32 799.43,-135 875.7,-173.12 938.91,-255.09 968,-297.45"/>
<polygon fill="black" stroke="black" points="965.18,-299.53 973.68,-305.86 970.98,-295.61 965.18,-299.53"/>
</g>
<!-- CloudFrontDistribution::distribution&#45;grucloud.org&#45;dev&#45;&gt;Certificate::certificate&#45;grucloud.org&#45;dev -->
<g id="edge13" class="edge">
<title>CloudFrontDistribution::distribution&#45;grucloud.org&#45;dev&#45;&gt;Certificate::certificate&#45;grucloud.org&#45;dev</title>
<path fill="none" stroke="black" d="M741.91,-95.41C761.51,-91.76 781.15,-87.06 799.43,-81 816.81,-75.24 818.19,-67.15 835.43,-61 848.05,-56.5 861.54,-52.72 875.07,-49.56"/>
<polygon fill="black" stroke="black" points="875.92,-52.95 884.92,-47.36 874.4,-46.12 875.92,-52.95"/>
</g>
<!-- Route53Record::dev.grucloud.org. -->
<g id="node15" class="node">
<title>Route53Record::dev.grucloud.org.</title>
<ellipse fill="none" stroke="black" cx="186.93" cy="-103" rx="133.48" ry="18"/>
<text text-anchor="middle" x="186.93" y="-99.3" font-family="Times,serif" font-size="14.00">Route53Record::dev.grucloud.org.</text>
</g>
<!-- Route53Record::dev.grucloud.org.&#45;&gt;HostedZone::dev.grucloud.org. -->
<g id="edge14" class="edge">
<title>Route53Record::dev.grucloud.org.&#45;&gt;HostedZone::dev.grucloud.org.</title>
<path fill="none" stroke="black" d="M287.15,-91.08C349.24,-83.61 429.1,-74.02 492.01,-66.46"/>
<polygon fill="black" stroke="black" points="492.44,-69.93 501.95,-65.26 491.61,-62.98 492.44,-69.93"/>
</g>
<!-- Route53Record::dev.grucloud.org.&#45;&gt;CloudFrontDistribution::distribution&#45;grucloud.org&#45;dev -->
<g id="edge15" class="edge">
<title>Route53Record::dev.grucloud.org.&#45;&gt;CloudFrontDistribution::distribution&#45;grucloud.org&#45;dev</title>
<path fill="none" stroke="black" d="M319.75,-104.62C340.83,-104.88 363.09,-105.15 385.46,-105.42"/>
<polygon fill="black" stroke="black" points="385.7,-108.93 395.74,-105.55 385.78,-101.93 385.7,-108.93"/>
</g>
</g>
</svg>
