<?xml version="1.0" encoding="UTF-8" standalone="no"?>
<!DOCTYPE svg PUBLIC "-//W3C//DTD SVG 1.1//EN"
 "http://www.w3.org/Graphics/SVG/1.1/DTD/svg11.dtd">
<!-- Generated by graphviz version 2.44.1 (20200629.0846)
 -->
<!-- Title: graphname Pages: 1 -->
<svg width="1161pt" height="1199pt"
 viewBox="0.00 0.00 1161.01 1199.00" xmlns="http://www.w3.org/2000/svg" xmlns:xlink="http://www.w3.org/1999/xlink">
<g id="graph0" class="graph" transform="scale(1 1) rotate(0) translate(4 1195)">
<title>graphname</title>
<polygon fill="white" stroke="transparent" points="-4,4 -4,-1195 1157.01,-1195 1157.01,4 -4,4"/>
<g id="clust1" class="cluster">
<title>cluster_aws&#45;us&#45;east</title>
<polygon fill="none" stroke="black" points="8,-8 8,-1183 1145.01,-1183 1145.01,-8 8,-8"/>
<text text-anchor="middle" x="576.5" y="-1167.8" font-family="Times,serif" font-size="14.00">aws&#45;us&#45;east</text>
</g>
<!-- S3Bucket::grucloud.org&#45;dev -->
<g id="node1" class="node">
<title>S3Bucket::grucloud.org&#45;dev</title>
<ellipse fill="none" stroke="black" cx="986.22" cy="-621" rx="110.48" ry="18"/>
<text text-anchor="middle" x="986.22" y="-617.3" font-family="Times,serif" font-size="14.00">S3Bucket::grucloud.org&#45;dev</text>
</g>
<!-- S3Object::asset&#45;manifest.json -->
<g id="node2" class="node">
<title>S3Object::asset&#45;manifest.json</title>
<ellipse fill="none" stroke="black" cx="596.65" cy="-324" rx="116.18" ry="18"/>
<text text-anchor="middle" x="596.65" y="-320.3" font-family="Times,serif" font-size="14.00">S3Object::asset&#45;manifest.json</text>
</g>
<!-- S3Object::asset&#45;manifest.json&#45;&gt;S3Bucket::grucloud.org&#45;dev -->
<g id="edge1" class="edge">
<title>S3Object::asset&#45;manifest.json&#45;&gt;S3Bucket::grucloud.org&#45;dev</title>
<path fill="none" stroke="black" d="M712.94,-322.97C742.8,-326.98 773.76,-335.24 799.43,-351 894.62,-409.43 953.06,-536.99 975.15,-593.32"/>
<polygon fill="black" stroke="black" points="972,-594.89 978.85,-602.97 978.54,-592.38 972,-594.89"/>
</g>
<!-- S3Object::favicon.ico -->
<g id="node3" class="node">
<title>S3Object::favicon.ico</title>
<ellipse fill="none" stroke="black" cx="596.65" cy="-270" rx="87.99" ry="18"/>
<text text-anchor="middle" x="596.65" y="-266.3" font-family="Times,serif" font-size="14.00">S3Object::favicon.ico</text>
</g>
<!-- S3Object::favicon.ico&#45;&gt;S3Bucket::grucloud.org&#45;dev -->
<g id="edge2" class="edge">
<title>S3Object::favicon.ico&#45;&gt;S3Bucket::grucloud.org&#45;dev</title>
<path fill="none" stroke="black" d="M681.16,-264.84C720.01,-266.32 765.11,-273.94 799.43,-297 907.77,-369.79 960.6,-528.43 978.24,-592.91"/>
<polygon fill="black" stroke="black" points="974.91,-594 980.86,-602.77 981.67,-592.21 974.91,-594"/>
</g>
<!-- S3Object::index.html -->
<g id="node4" class="node">
<title>S3Object::index.html</title>
<ellipse fill="none" stroke="black" cx="596.65" cy="-216" rx="87.18" ry="18"/>
<text text-anchor="middle" x="596.65" y="-212.3" font-family="Times,serif" font-size="14.00">S3Object::index.html</text>
</g>
<!-- S3Object::index.html&#45;&gt;S3Bucket::grucloud.org&#45;dev -->
<g id="edge3" class="edge">
<title>S3Object::index.html&#45;&gt;S3Bucket::grucloud.org&#45;dev</title>
<path fill="none" stroke="black" d="M678.84,-209.8C718.51,-210.76 765,-218.24 799.43,-243 921.4,-330.72 967.26,-521.11 980.62,-592.87"/>
<polygon fill="black" stroke="black" points="977.21,-593.73 982.42,-602.95 984.1,-592.49 977.21,-593.73"/>
</g>
<!-- S3Object::logo192.png -->
<g id="node5" class="node">
<title>S3Object::logo192.png</title>
<ellipse fill="none" stroke="black" cx="596.65" cy="-162" rx="92.88" ry="18"/>
<text text-anchor="middle" x="596.65" y="-158.3" font-family="Times,serif" font-size="14.00">S3Object::logo192.png</text>
</g>
<!-- S3Object::logo192.png&#45;&gt;S3Bucket::grucloud.org&#45;dev -->
<g id="edge4" class="edge">
<title>S3Object::logo192.png&#45;&gt;S3Bucket::grucloud.org&#45;dev</title>
<path fill="none" stroke="black" d="M682.63,-155.14C721.7,-156.26 766.56,-164.07 799.43,-189 935.19,-291.95 973.07,-514.12 982.44,-592.73"/>
<polygon fill="black" stroke="black" points="978.98,-593.3 983.58,-602.85 985.94,-592.52 978.98,-593.3"/>
</g>
<!-- S3Object::logo512.png -->
<g id="node6" class="node">
<title>S3Object::logo512.png</title>
<ellipse fill="none" stroke="black" cx="596.65" cy="-1134" rx="92.88" ry="18"/>
<text text-anchor="middle" x="596.65" y="-1130.3" font-family="Times,serif" font-size="14.00">S3Object::logo512.png</text>
</g>
<!-- S3Object::logo512.png&#45;&gt;S3Bucket::grucloud.org&#45;dev -->
<g id="edge5" class="edge">
<title>S3Object::logo512.png&#45;&gt;S3Bucket::grucloud.org&#45;dev</title>
<path fill="none" stroke="black" d="M681.33,-1141.49C720.92,-1140.7 766.59,-1132.99 799.43,-1107 949.08,-988.61 978.26,-734.69 983.89,-649.52"/>
<polygon fill="black" stroke="black" points="987.4,-649.51 984.5,-639.32 980.41,-649.09 987.4,-649.51"/>
</g>
<!-- S3Object::manifest.json -->
<g id="node7" class="node">
<title>S3Object::manifest.json</title>
<ellipse fill="none" stroke="black" cx="596.65" cy="-1080" rx="96.38" ry="18"/>
<text text-anchor="middle" x="596.65" y="-1076.3" font-family="Times,serif" font-size="14.00">S3Object::manifest.json</text>
</g>
<!-- S3Object::manifest.json&#45;&gt;S3Bucket::grucloud.org&#45;dev -->
<g id="edge6" class="edge">
<title>S3Object::manifest.json&#45;&gt;S3Bucket::grucloud.org&#45;dev</title>
<path fill="none" stroke="black" d="M685.9,-1086.75C724.19,-1085.29 767.47,-1077.24 799.43,-1053 935.19,-950.05 973.07,-727.88 982.44,-649.27"/>
<polygon fill="black" stroke="black" points="985.94,-649.48 983.58,-639.15 978.98,-648.7 985.94,-649.48"/>
</g>
<!-- S3Object::robots.txt -->
<g id="node8" class="node">
<title>S3Object::robots.txt</title>
<ellipse fill="none" stroke="black" cx="596.65" cy="-1026" rx="81.79" ry="18"/>
<text text-anchor="middle" x="596.65" y="-1022.3" font-family="Times,serif" font-size="14.00">S3Object::robots.txt</text>
</g>
<!-- S3Object::robots.txt&#45;&gt;S3Bucket::grucloud.org&#45;dev -->
<g id="edge7" class="edge">
<title>S3Object::robots.txt&#45;&gt;S3Bucket::grucloud.org&#45;dev</title>
<path fill="none" stroke="black" d="M673.42,-1032.29C714.23,-1031.89 763.42,-1024.9 799.43,-999 921.4,-911.28 967.26,-720.89 980.62,-649.13"/>
<polygon fill="black" stroke="black" points="984.1,-649.51 982.42,-639.05 977.21,-648.27 984.1,-649.51"/>
</g>
<!-- S3Object::static/css/main.ab7136cd.chunk.css -->
<g id="node9" class="node">
<title>S3Object::static/css/main.ab7136cd.chunk.css</title>
<ellipse fill="none" stroke="black" cx="596.65" cy="-972" rx="174.37" ry="18"/>
<text text-anchor="middle" x="596.65" y="-968.3" font-family="Times,serif" font-size="14.00">S3Object::static/css/main.ab7136cd.chunk.css</text>
</g>
<!-- S3Object::static/css/main.ab7136cd.chunk.css&#45;&gt;S3Bucket::grucloud.org&#45;dev -->
<g id="edge8" class="edge">
<title>S3Object::static/css/main.ab7136cd.chunk.css&#45;&gt;S3Bucket::grucloud.org&#45;dev</title>
<path fill="none" stroke="black" d="M757.04,-964.96C772.09,-960.16 786.53,-953.67 799.43,-945 907.77,-872.21 960.6,-713.57 978.24,-649.09"/>
<polygon fill="black" stroke="black" points="981.67,-649.79 980.86,-639.23 974.91,-648 981.67,-649.79"/>
</g>
<!-- S3Object::static/css/main.ab7136cd.chunk.css.map -->
<g id="node10" class="node">
<title>S3Object::static/css/main.ab7136cd.chunk.css.map</title>
<ellipse fill="none" stroke="black" cx="596.65" cy="-918" rx="192.27" ry="18"/>
<text text-anchor="middle" x="596.65" y="-914.3" font-family="Times,serif" font-size="14.00">S3Object::static/css/main.ab7136cd.chunk.css.map</text>
</g>
<!-- S3Object::static/css/main.ab7136cd.chunk.css.map&#45;&gt;S3Bucket::grucloud.org&#45;dev -->
<g id="edge9" class="edge">
<title>S3Object::static/css/main.ab7136cd.chunk.css.map&#45;&gt;S3Bucket::grucloud.org&#45;dev</title>
<path fill="none" stroke="black" d="M760.72,-908.48C774.34,-904.07 787.46,-898.35 799.43,-891 894.62,-832.57 953.06,-705.01 975.15,-648.68"/>
<polygon fill="black" stroke="black" points="978.54,-649.62 978.85,-639.03 972,-647.11 978.54,-649.62"/>
</g>
<!-- S3Object::static/js/2.04d19dde.chunk.js -->
<g id="node11" class="node">
<title>S3Object::static/js/2.04d19dde.chunk.js</title>
<ellipse fill="none" stroke="black" cx="596.65" cy="-864" rx="151.37" ry="18"/>
<text text-anchor="middle" x="596.65" y="-860.3" font-family="Times,serif" font-size="14.00">S3Object::static/js/2.04d19dde.chunk.js</text>
</g>
<!-- S3Object::static/js/2.04d19dde.chunk.js&#45;&gt;S3Bucket::grucloud.org&#45;dev -->
<g id="edge10" class="edge">
<title>S3Object::static/js/2.04d19dde.chunk.js&#45;&gt;S3Bucket::grucloud.org&#45;dev</title>
<path fill="none" stroke="black" d="M740.18,-858.18C760.85,-853.61 781.26,-846.85 799.43,-837 881.99,-792.25 944.27,-695.08 970.95,-647.85"/>
<polygon fill="black" stroke="black" points="974.01,-649.55 975.81,-639.1 967.89,-646.15 974.01,-649.55"/>
</g>
<!-- S3Object::static/js/2.04d19dde.chunk.js.LICENSE.txt -->
<g id="node12" class="node">
<title>S3Object::static/js/2.04d19dde.chunk.js.LICENSE.txt</title>
<ellipse fill="none" stroke="black" cx="596.65" cy="-810" rx="201.46" ry="18"/>
<text text-anchor="middle" x="596.65" y="-806.3" font-family="Times,serif" font-size="14.00">S3Object::static/js/2.04d19dde.chunk.js.LICENSE.txt</text>
</g>
<!-- S3Object::static/js/2.04d19dde.chunk.js.LICENSE.txt&#45;&gt;S3Bucket::grucloud.org&#45;dev -->
<g id="edge11" class="edge">
<title>S3Object::static/js/2.04d19dde.chunk.js.LICENSE.txt&#45;&gt;S3Bucket::grucloud.org&#45;dev</title>
<path fill="none" stroke="black" d="M753.13,-798.64C769.14,-794.7 784.86,-789.6 799.43,-783 869.75,-751.17 933.2,-683.78 964.56,-646.74"/>
<polygon fill="black" stroke="black" points="967.4,-648.8 971.12,-638.88 962.02,-644.32 967.4,-648.8"/>
</g>
<!-- S3Object::static/js/2.04d19dde.chunk.js.map -->
<g id="node13" class="node">
<title>S3Object::static/js/2.04d19dde.chunk.js.map</title>
<ellipse fill="none" stroke="black" cx="596.65" cy="-756" rx="168.97" ry="18"/>
<text text-anchor="middle" x="596.65" y="-752.3" font-family="Times,serif" font-size="14.00">S3Object::static/js/2.04d19dde.chunk.js.map</text>
</g>
<!-- S3Object::static/js/2.04d19dde.chunk.js.map&#45;&gt;S3Bucket::grucloud.org&#45;dev -->
<g id="edge12" class="edge">
<title>S3Object::static/js/2.04d19dde.chunk.js.map&#45;&gt;S3Bucket::grucloud.org&#45;dev</title>
<path fill="none" stroke="black" d="M733.13,-745.35C755.63,-741.47 778.45,-736.18 799.43,-729 857.68,-709.06 918.03,-669.95 953.57,-644.67"/>
<polygon fill="black" stroke="black" points="955.99,-647.25 962.06,-638.56 951.9,-641.57 955.99,-647.25"/>
</g>
<!-- S3Object::static/js/3.60d49605.chunk.js -->
<g id="node14" class="node">
<title>S3Object::static/js/3.60d49605.chunk.js</title>
<ellipse fill="none" stroke="black" cx="596.65" cy="-702" rx="151.37" ry="18"/>
<text text-anchor="middle" x="596.65" y="-698.3" font-family="Times,serif" font-size="14.00">S3Object::static/js/3.60d49605.chunk.js</text>
</g>
<!-- S3Object::static/js/3.60d49605.chunk.js&#45;&gt;S3Bucket::grucloud.org&#45;dev -->
<g id="edge13" class="edge">
<title>S3Object::static/js/3.60d49605.chunk.js&#45;&gt;S3Bucket::grucloud.org&#45;dev</title>
<path fill="none" stroke="black" d="M709.97,-690.01C739.24,-686.05 770.64,-681.07 799.43,-675 842.69,-665.87 890.58,-651.86 926.91,-640.39"/>
<polygon fill="black" stroke="black" points="928.36,-643.6 936.83,-637.23 926.24,-636.93 928.36,-643.6"/>
</g>
<!-- S3Object::static/js/3.60d49605.chunk.js.map -->
<g id="node15" class="node">
<title>S3Object::static/js/3.60d49605.chunk.js.map</title>
<ellipse fill="none" stroke="black" cx="596.65" cy="-648" rx="169.77" ry="18"/>
<text text-anchor="middle" x="596.65" y="-644.3" font-family="Times,serif" font-size="14.00">S3Object::static/js/3.60d49605.chunk.js.map</text>
</g>
<!-- S3Object::static/js/3.60d49605.chunk.js.map&#45;&gt;S3Bucket::grucloud.org&#45;dev -->
<g id="edge14" class="edge">
<title>S3Object::static/js/3.60d49605.chunk.js.map&#45;&gt;S3Bucket::grucloud.org&#45;dev</title>
<path fill="none" stroke="black" d="M738.94,-638.16C783.51,-635.05 832.07,-631.67 874.21,-628.73"/>
<polygon fill="black" stroke="black" points="874.48,-632.22 884.22,-628.04 874,-625.24 874.48,-632.22"/>
</g>
<!-- S3Object::static/js/main.22b7f618.chunk.js -->
<g id="node16" class="node">
<title>S3Object::static/js/main.22b7f618.chunk.js</title>
<ellipse fill="none" stroke="black" cx="596.65" cy="-594" rx="163.57" ry="18"/>
<text text-anchor="middle" x="596.65" y="-590.3" font-family="Times,serif" font-size="14.00">S3Object::static/js/main.22b7f618.chunk.js</text>
</g>
<!-- S3Object::static/js/main.22b7f618.chunk.js&#45;&gt;S3Bucket::grucloud.org&#45;dev -->
<g id="edge15" class="edge">
<title>S3Object::static/js/main.22b7f618.chunk.js&#45;&gt;S3Bucket::grucloud.org&#45;dev</title>
<path fill="none" stroke="black" d="M735.39,-603.6C781,-606.77 831.16,-610.27 874.48,-613.29"/>
<polygon fill="black" stroke="black" points="874.25,-616.78 884.47,-613.98 874.74,-609.79 874.25,-616.78"/>
</g>
<!-- S3Object::static/js/main.22b7f618.chunk.js.map -->
<g id="node17" class="node">
<title>S3Object::static/js/main.22b7f618.chunk.js.map</title>
<ellipse fill="none" stroke="black" cx="596.65" cy="-540" rx="181.97" ry="18"/>
<text text-anchor="middle" x="596.65" y="-536.3" font-family="Times,serif" font-size="14.00">S3Object::static/js/main.22b7f618.chunk.js.map</text>
</g>
<!-- S3Object::static/js/main.22b7f618.chunk.js.map&#45;&gt;S3Bucket::grucloud.org&#45;dev -->
<g id="edge16" class="edge">
<title>S3Object::static/js/main.22b7f618.chunk.js.map&#45;&gt;S3Bucket::grucloud.org&#45;dev</title>
<path fill="none" stroke="black" d="M719.53,-553.31C746,-557.04 773.76,-561.58 799.43,-567 842.69,-576.13 890.58,-590.14 926.91,-601.61"/>
<polygon fill="black" stroke="black" points="926.24,-605.07 936.83,-604.77 928.36,-598.4 926.24,-605.07"/>
</g>
<!-- S3Object::static/js/runtime&#45;main.22876753.js -->
<g id="node18" class="node">
<title>S3Object::static/js/runtime&#45;main.22876753.js</title>
<ellipse fill="none" stroke="black" cx="596.65" cy="-486" rx="172.47" ry="18"/>
<text text-anchor="middle" x="596.65" y="-482.3" font-family="Times,serif" font-size="14.00">S3Object::static/js/runtime&#45;main.22876753.js</text>
</g>
<!-- S3Object::static/js/runtime&#45;main.22876753.js&#45;&gt;S3Bucket::grucloud.org&#45;dev -->
<g id="edge17" class="edge">
<title>S3Object::static/js/runtime&#45;main.22876753.js&#45;&gt;S3Bucket::grucloud.org&#45;dev</title>
<path fill="none" stroke="black" d="M734.21,-496.84C756.36,-500.7 778.79,-505.93 799.43,-513 857.68,-532.94 918.03,-572.05 953.57,-597.33"/>
<polygon fill="black" stroke="black" points="951.9,-600.43 962.06,-603.44 955.99,-594.75 951.9,-600.43"/>
</g>
<!-- S3Object::static/js/runtime&#45;main.22876753.js.map -->
<g id="node19" class="node">
<title>S3Object::static/js/runtime&#45;main.22876753.js.map</title>
<ellipse fill="none" stroke="black" cx="596.65" cy="-432" rx="190.37" ry="18"/>
<text text-anchor="middle" x="596.65" y="-428.3" font-family="Times,serif" font-size="14.00">S3Object::static/js/runtime&#45;main.22876753.js.map</text>
</g>
<!-- S3Object::static/js/runtime&#45;main.22876753.js.map&#45;&gt;S3Bucket::grucloud.org&#45;dev -->
<g id="edge18" class="edge">
<title>S3Object::static/js/runtime&#45;main.22876753.js.map&#45;&gt;S3Bucket::grucloud.org&#45;dev</title>
<path fill="none" stroke="black" d="M750.2,-442.65C767.22,-446.68 783.98,-452 799.43,-459 869.75,-490.83 933.2,-558.22 964.56,-595.26"/>
<polygon fill="black" stroke="black" points="962.02,-597.68 971.12,-603.12 967.4,-593.2 962.02,-597.68"/>
</g>
<!-- S3Object::static/media/logo.6ce24c58.svg -->
<g id="node20" class="node">
<title>S3Object::static/media/logo.6ce24c58.svg</title>
<ellipse fill="none" stroke="black" cx="596.65" cy="-378" rx="159.77" ry="18"/>
<text text-anchor="middle" x="596.65" y="-374.3" font-family="Times,serif" font-size="14.00">S3Object::static/media/logo.6ce24c58.svg</text>
</g>
<!-- S3Object::static/media/logo.6ce24c58.svg&#45;&gt;S3Bucket::grucloud.org&#45;dev -->
<g id="edge19" class="edge">
<title>S3Object::static/media/logo.6ce24c58.svg&#45;&gt;S3Bucket::grucloud.org&#45;dev</title>
<path fill="none" stroke="black" d="M744.68,-384.85C763.8,-389.39 782.58,-395.86 799.43,-405 881.99,-449.75 944.27,-546.92 970.95,-594.15"/>
<polygon fill="black" stroke="black" points="967.89,-595.85 975.81,-602.9 974.01,-592.45 967.89,-595.85"/>
</g>
<!-- Certificate::certificate&#45;grucloud.org&#45;dev -->
<g id="node21" class="node">
<title>Certificate::certificate&#45;grucloud.org&#45;dev</title>
<ellipse fill="none" stroke="black" cx="986.22" cy="-34" rx="150.57" ry="18"/>
<text text-anchor="middle" x="986.22" y="-30.3" font-family="Times,serif" font-size="14.00">Certificate::certificate&#45;grucloud.org&#45;dev</text>
</g>
<!-- Route53Domain::grucloud.org -->
<g id="node22" class="node">
<title>Route53Domain::grucloud.org</title>
<ellipse fill="none" stroke="black" cx="986.22" cy="-88" rx="119.68" ry="18"/>
<text text-anchor="middle" x="986.22" y="-84.3" font-family="Times,serif" font-size="14.00">Route53Domain::grucloud.org</text>
</g>
<!-- HostedZone::dev.grucloud.org. -->
<g id="node23" class="node">
<title>HostedZone::dev.grucloud.org.</title>
<ellipse fill="none" stroke="black" cx="596.65" cy="-54" rx="120.78" ry="18"/>
<text text-anchor="middle" x="596.65" y="-50.3" font-family="Times,serif" font-size="14.00">HostedZone::dev.grucloud.org.</text>
</g>
<!-- HostedZone::dev.grucloud.org.&#45;&gt;Route53Domain::grucloud.org -->
<g id="edge20" class="edge">
<title>HostedZone::dev.grucloud.org.&#45;&gt;Route53Domain::grucloud.org</title>
<path fill="none" stroke="black" d="M701.26,-63.09C754.14,-67.73 818.55,-73.38 872.65,-78.12"/>
<polygon fill="black" stroke="black" points="872.35,-81.61 882.62,-79 872.97,-74.64 872.35,-81.61"/>
</g>
<!-- Route53Record::validation&#45;dev.grucloud.org. -->
<g id="node24" class="node">
<title>Route53Record::validation&#45;dev.grucloud.org.</title>
<ellipse fill="none" stroke="black" cx="186.93" cy="-44" rx="170.87" ry="18"/>
<text text-anchor="middle" x="186.93" y="-40.3" font-family="Times,serif" font-size="14.00">Route53Record::validation&#45;dev.grucloud.org.</text>
</g>
<!-- Route53Record::validation&#45;dev.grucloud.org.&#45;&gt;Certificate::certificate&#45;grucloud.org&#45;dev -->
<g id="edge22" class="edge">
<title>Route53Record::validation&#45;dev.grucloud.org.&#45;&gt;Certificate::certificate&#45;grucloud.org&#45;dev</title>
<path fill="none" stroke="black" d="M313.89,-31.95C340.29,-29.89 367.97,-28.07 393.87,-27 573.97,-19.58 619.21,-23.61 799.43,-27 810.48,-27.21 821.89,-27.49 833.37,-27.81"/>
<polygon fill="black" stroke="black" points="833.38,-31.31 843.48,-28.11 833.59,-24.31 833.38,-31.31"/>
</g>
<!-- Route53Record::validation&#45;dev.grucloud.org.&#45;&gt;HostedZone::dev.grucloud.org. -->
<g id="edge21" class="edge">
<title>Route53Record::validation&#45;dev.grucloud.org.&#45;&gt;HostedZone::dev.grucloud.org.</title>
<path fill="none" stroke="black" d="M353.47,-48.06C391.38,-48.99 431.13,-49.96 467.2,-50.85"/>
<polygon fill="black" stroke="black" points="467.19,-54.35 477.28,-51.1 467.36,-47.35 467.19,-54.35"/>
</g>
<!-- CloudFrontDistribution::distribution&#45;grucloud.org&#45;dev -->
<g id="node25" class="node">
<title>CloudFrontDistribution::distribution&#45;grucloud.org&#45;dev</title>
<ellipse fill="none" stroke="black" cx="596.65" cy="-108" rx="202.56" ry="18"/>
<text text-anchor="middle" x="596.65" y="-104.3" font-family="Times,serif" font-size="14.00">CloudFrontDistribution::distribution&#45;grucloud.org&#45;dev</text>
</g>
<!-- CloudFrontDistribution::distribution&#45;grucloud.org&#45;dev&#45;&gt;S3Bucket::grucloud.org&#45;dev -->
<g id="edge23" class="edge">
<title>CloudFrontDistribution::distribution&#45;grucloud.org&#45;dev&#45;&gt;S3Bucket::grucloud.org&#45;dev</title>
<path fill="none" stroke="black" d="M769.9,-117.51C780.45,-122.12 790.43,-127.87 799.43,-135 949.08,-253.39 978.26,-507.31 983.89,-592.48"/>
<polygon fill="black" stroke="black" points="980.41,-592.91 984.5,-602.68 987.4,-592.49 980.41,-592.91"/>
</g>
<!-- CloudFrontDistribution::distribution&#45;grucloud.org&#45;dev&#45;&gt;Certificate::certificate&#45;grucloud.org&#45;dev -->
<g id="edge24" class="edge">
<title>CloudFrontDistribution::distribution&#45;grucloud.org&#45;dev&#45;&gt;Certificate::certificate&#45;grucloud.org&#45;dev</title>
<path fill="none" stroke="black" d="M741.91,-95.41C761.51,-91.76 781.15,-87.06 799.43,-81 816.81,-75.24 818.19,-67.15 835.43,-61 848.05,-56.5 861.54,-52.72 875.07,-49.56"/>
<polygon fill="black" stroke="black" points="875.92,-52.95 884.92,-47.36 874.4,-46.12 875.92,-52.95"/>
</g>
<!-- Route53Record::dev.grucloud.org. -->
<g id="node26" class="node">
<title>Route53Record::dev.grucloud.org.</title>
<ellipse fill="none" stroke="black" cx="186.93" cy="-103" rx="133.48" ry="18"/>
<text text-anchor="middle" x="186.93" y="-99.3" font-family="Times,serif" font-size="14.00">Route53Record::dev.grucloud.org.</text>
</g>
<!-- Route53Record::dev.grucloud.org.&#45;&gt;HostedZone::dev.grucloud.org. -->
<g id="edge25" class="edge">
<title>Route53Record::dev.grucloud.org.&#45;&gt;HostedZone::dev.grucloud.org.</title>
<path fill="none" stroke="black" d="M287.15,-91.08C349.24,-83.61 429.1,-74.02 492.01,-66.46"/>
<polygon fill="black" stroke="black" points="492.44,-69.93 501.95,-65.26 491.61,-62.98 492.44,-69.93"/>
</g>
<!-- Route53Record::dev.grucloud.org.&#45;&gt;CloudFrontDistribution::distribution&#45;grucloud.org&#45;dev -->
<g id="edge26" class="edge">
<title>Route53Record::dev.grucloud.org.&#45;&gt;CloudFrontDistribution::distribution&#45;grucloud.org&#45;dev</title>
<path fill="none" stroke="black" d="M319.75,-104.62C340.83,-104.88 363.09,-105.15 385.46,-105.42"/>
<polygon fill="black" stroke="black" points="385.7,-108.93 395.74,-105.55 385.78,-101.93 385.7,-108.93"/>
</g>
</g>
</svg>
