<?xml version="1.0" encoding="UTF-8" standalone="no"?>
<!DOCTYPE svg PUBLIC "-//W3C//DTD SVG 1.1//EN"
 "http://www.w3.org/Graphics/SVG/1.1/DTD/svg11.dtd">
<!-- Generated by graphviz version 7.1.0 (20230121.1956)
 -->
<!-- Title: graphname Pages: 1 -->
<svg width="1348pt" height="389pt"
 viewBox="0.00 0.00 1348.00 389.00" xmlns="http://www.w3.org/2000/svg" xmlns:xlink="http://www.w3.org/1999/xlink">
<g id="graph0" class="graph" transform="scale(1 1) rotate(0) translate(4 385)">
<title>graphname</title>
<polygon fill="#fafafa" stroke="none" points="-4,4 -4,-385 1344,-385 1344,4 -4,4"/>
<text text-anchor="start" x="468" y="-356.4" font-family="Helvetica,sans-Serif" font-weight="bold" font-size="22.00" fill="#383838">Project maintenance&#45;task&#45;stepfunction</text>
<text text-anchor="start" x="666.5" y="-340.8" font-family="Helvetica,sans-Serif" font-size="14.00"> &#160;</text>
<text text-anchor="start" x="468" y="-319.2" font-family="Helvetica,sans-Serif" font-weight="bold" font-size="16.00" fill="#707070">Target Diagram</text>
<g id="clust1" class="cluster">
<title>cluster_aws</title>
<polygon fill="#f5f5f5" stroke="#f5f5f5" points="8,-8 8,-297 1332,-297 1332,-8 8,-8"/>
<text text-anchor="start" x="608" y="-23" font-family="Helvetica,sans-Serif" font-weight="bold" font-size="20.00" fill="#707070">Provider aws</text>
</g>
<g id="clust2" class="cluster">
<title>cluster_aws_</title>
<polygon fill="#eeeeee" stroke="#eeeeee" points="16,-54 16,-289 1324,-289 1324,-54 16,-54"/>
<text text-anchor="start" x="669.86" y="-58.3" font-family="Helvetica,sans-Serif" font-size="1.00" fill="#383838"> </text>
</g>
<!-- Role::my&#45;maintenance&#45;window&#45;role -->
<g id="node1" class="node">
<title>Role::my&#45;maintenance&#45;window&#45;role</title>
<polygon fill="#e5e5e5" stroke="#dddddd" points="619,-129 384,-129 384,-71 619,-71 619,-129"/>
<text text-anchor="start" x="396.5" y="-109.2" font-family="Helvetica,sans-Serif" font-weight="bold" font-size="16.00" fill="#707070">IAM::Role</text>
<text text-anchor="start" x="396.5" y="-84.2" font-family="Helvetica,sans-Serif" font-size="16.00" fill="#383838">my&#45;maintenance&#45;window&#45;role</text>
</g>
<!-- Policy::my&#45;maintenance&#45;window&#45;role&#45;policy -->
<g id="node3" class="node">
<title>Policy::my&#45;maintenance&#45;window&#45;role&#45;policy</title>
<polygon fill="#e5e5e5" stroke="#dddddd" points="979,-129 691,-129 691,-71 979,-71 979,-129"/>
<text text-anchor="start" x="703" y="-109.2" font-family="Helvetica,sans-Serif" font-weight="bold" font-size="16.00" fill="#707070">IAM::Policy</text>
<text text-anchor="start" x="703" y="-84.2" font-family="Helvetica,sans-Serif" font-size="16.00" fill="#383838">my&#45;maintenance&#45;window&#45;role&#45;polic...</text>
</g>
<!-- Role::my&#45;maintenance&#45;window&#45;role&#45;&gt;Policy::my&#45;maintenance&#45;window&#45;role&#45;policy -->
<g id="edge1" class="edge">
<title>Role::my&#45;maintenance&#45;window&#45;role&#45;&gt;Policy::my&#45;maintenance&#45;window&#45;role&#45;policy</title>
<path fill="none" stroke="#707070" d="M619.37,-100C638.71,-100 659.02,-100 679.11,-100"/>
<polygon fill="#707070" stroke="#707070" points="679.06,-103.5 689.06,-100 679.06,-96.5 679.06,-103.5"/>
</g>
<!-- Role::StepFunctions&#45;maintenance&#45;window&#45;state&#45;machine&#45;role&#45;9a8fad86 -->
<g id="node2" class="node">
<title>Role::StepFunctions&#45;maintenance&#45;window&#45;state&#45;machine&#45;role&#45;9a8fad86</title>
<polygon fill="#e5e5e5" stroke="#dddddd" points="984,-205 686,-205 686,-147 984,-147 984,-205"/>
<text text-anchor="start" x="698" y="-185.2" font-family="Helvetica,sans-Serif" font-weight="bold" font-size="16.00" fill="#707070">IAM::Role</text>
<text text-anchor="start" x="698" y="-160.2" font-family="Helvetica,sans-Serif" font-size="16.00" fill="#383838">StepFunctions&#45;maintenance&#45;window...</text>
</g>
<!-- Policy::XRayAccessPolicy&#45;0c77fa64&#45;1fe0&#45;4888&#45;b058&#45;990040cb421a -->
<g id="node4" class="node">
<title>Policy::XRayAccessPolicy&#45;0c77fa64&#45;1fe0&#45;4888&#45;b058&#45;990040cb421a</title>
<polygon fill="#e5e5e5" stroke="#dddddd" points="1316,-205 1020,-205 1020,-147 1316,-147 1316,-205"/>
<text text-anchor="start" x="1032" y="-185.2" font-family="Helvetica,sans-Serif" font-weight="bold" font-size="16.00" fill="#707070">IAM::Policy</text>
<text text-anchor="start" x="1032" y="-160.2" font-family="Helvetica,sans-Serif" font-size="16.00" fill="#383838">XRayAccessPolicy&#45;0c77fa64&#45;1fe0&#45;4...</text>
</g>
<!-- Role::StepFunctions&#45;maintenance&#45;window&#45;state&#45;machine&#45;role&#45;9a8fad86&#45;&gt;Policy::XRayAccessPolicy&#45;0c77fa64&#45;1fe0&#45;4888&#45;b058&#45;990040cb421a -->
<g id="edge2" class="edge">
<title>Role::StepFunctions&#45;maintenance&#45;window&#45;state&#45;machine&#45;role&#45;9a8fad86&#45;&gt;Policy::XRayAccessPolicy&#45;0c77fa64&#45;1fe0&#45;4888&#45;b058&#45;990040cb421a</title>
<path fill="none" stroke="#707070" d="M984.07,-176C992.09,-176 1000.16,-176 1008.21,-176"/>
<polygon fill="#707070" stroke="#707070" points="1008.05,-179.5 1018.05,-176 1008.05,-172.5 1008.05,-179.5"/>
</g>
<!-- MaintenanceWindow::my&#45;maintenance&#45;window -->
<g id="node5" class="node">
<title>MaintenanceWindow::my&#45;maintenance&#45;window</title>
<polygon fill="#e5e5e5" stroke="#dddddd" points="616,-281 387,-281 387,-223 616,-223 616,-281"/>
<text text-anchor="start" x="399.5" y="-261.2" font-family="Helvetica,sans-Serif" font-weight="bold" font-size="16.00" fill="#707070">SSM::MaintenanceWindow</text>
<text text-anchor="start" x="399.5" y="-236.2" font-family="Helvetica,sans-Serif" font-size="16.00" fill="#383838">my&#45;maintenance&#45;window</text>
</g>
<!-- MaintenanceWindowTarget::my&#45;target -->
<g id="node6" class="node">
<title>MaintenanceWindowTarget::my&#45;target</title>
<polygon fill="#e5e5e5" stroke="#dddddd" points="308.5,-281 32.5,-281 32.5,-223 308.5,-223 308.5,-281"/>
<text text-anchor="start" x="44.5" y="-261.2" font-family="Helvetica,sans-Serif" font-weight="bold" font-size="16.00" fill="#707070">SSM::MaintenanceWindowTarget</text>
<text text-anchor="start" x="44.5" y="-236.2" font-family="Helvetica,sans-Serif" font-size="16.00" fill="#383838">my&#45;target</text>
</g>
<!-- MaintenanceWindowTarget::my&#45;target&#45;&gt;MaintenanceWindow::my&#45;maintenance&#45;window -->
<g id="edge3" class="edge">
<title>MaintenanceWindowTarget::my&#45;target&#45;&gt;MaintenanceWindow::my&#45;maintenance&#45;window</title>
<path fill="none" stroke="#707070" d="M308.64,-252C330.71,-252 353.46,-252 375.24,-252"/>
<polygon fill="#707070" stroke="#707070" points="375.01,-255.5 385.01,-252 375.01,-248.5 375.01,-255.5"/>
</g>
<!-- MaintenanceWindowTask::my&#45;maintenance&#45;window::my&#45;step&#45;function&#45;task -->
<g id="node7" class="node">
<title>MaintenanceWindowTask::my&#45;maintenance&#45;window::my&#45;step&#45;function&#45;task</title>
<polygon fill="#e5e5e5" stroke="#dddddd" points="317,-205 24,-205 24,-147 317,-147 317,-205"/>
<text text-anchor="start" x="36.5" y="-185.2" font-family="Helvetica,sans-Serif" font-weight="bold" font-size="16.00" fill="#707070">SSM::MaintenanceWindowTask</text>
<text text-anchor="start" x="36.5" y="-160.2" font-family="Helvetica,sans-Serif" font-size="16.00" fill="#383838">my&#45;maintenance&#45;window::my&#45;step&#45;f...</text>
</g>
<!-- MaintenanceWindowTask::my&#45;maintenance&#45;window::my&#45;step&#45;function&#45;task&#45;&gt;Role::my&#45;maintenance&#45;window&#45;role -->
<g id="edge4" class="edge">
<title>MaintenanceWindowTask::my&#45;maintenance&#45;window::my&#45;step&#45;function&#45;task&#45;&gt;Role::my&#45;maintenance&#45;window&#45;role</title>
<path fill="none" stroke="#707070" d="M299.17,-146.51C323.29,-140.94 348.53,-135.11 372.66,-129.53"/>
<polygon fill="#707070" stroke="#707070" points="373.22,-132.99 382.18,-127.33 371.65,-126.17 373.22,-132.99"/>
</g>
<!-- MaintenanceWindowTask::my&#45;maintenance&#45;window::my&#45;step&#45;function&#45;task&#45;&gt;MaintenanceWindow::my&#45;maintenance&#45;window -->
<g id="edge5" class="edge">
<title>MaintenanceWindowTask::my&#45;maintenance&#45;window::my&#45;step&#45;function&#45;task&#45;&gt;MaintenanceWindow::my&#45;maintenance&#45;window</title>
<path fill="none" stroke="#707070" d="M299.17,-205.49C324.27,-211.29 350.57,-217.37 375.57,-223.14"/>
<polygon fill="#707070" stroke="#707070" points="374.57,-226.5 385.11,-225.34 376.15,-219.68 374.57,-226.5"/>
</g>
<!-- StateMachine::maintenance&#45;window&#45;state&#45;machine -->
<g id="node8" class="node">
<title>StateMachine::maintenance&#45;window&#45;state&#45;machine</title>
<polygon fill="#e5e5e5" stroke="#dddddd" points="650,-205 353,-205 353,-147 650,-147 650,-205"/>
<text text-anchor="start" x="365.5" y="-185.2" font-family="Helvetica,sans-Serif" font-weight="bold" font-size="16.00" fill="#707070">StepFunctions::StateMachine</text>
<text text-anchor="start" x="365.5" y="-160.2" font-family="Helvetica,sans-Serif" font-size="16.00" fill="#383838">maintenance&#45;window&#45;state&#45;machine...</text>
</g>
<!-- MaintenanceWindowTask::my&#45;maintenance&#45;window::my&#45;step&#45;function&#45;task&#45;&gt;StateMachine::maintenance&#45;window&#45;state&#45;machine -->
<g id="edge6" class="edge">
<title>MaintenanceWindowTask::my&#45;maintenance&#45;window::my&#45;step&#45;function&#45;task&#45;&gt;StateMachine::maintenance&#45;window&#45;state&#45;machine</title>
<path fill="none" stroke="#707070" d="M317.24,-176C325.24,-176 333.31,-176 341.35,-176"/>
<polygon fill="#707070" stroke="#707070" points="341.19,-179.5 351.19,-176 341.19,-172.5 341.19,-179.5"/>
</g>
<!-- StateMachine::maintenance&#45;window&#45;state&#45;machine&#45;&gt;Role::StepFunctions&#45;maintenance&#45;window&#45;state&#45;machine&#45;role&#45;9a8fad86 -->
<g id="edge7" class="edge">
<title>StateMachine::maintenance&#45;window&#45;state&#45;machine&#45;&gt;Role::StepFunctions&#45;maintenance&#45;window&#45;state&#45;machine&#45;role&#45;9a8fad86</title>
<path fill="none" stroke="#707070" d="M650.31,-176C658.29,-176 666.33,-176 674.35,-176"/>
<polygon fill="#707070" stroke="#707070" points="674.15,-179.5 684.15,-176 674.15,-172.5 674.15,-179.5"/>
</g>
</g>
</svg>
