<?xml version="1.0" encoding="UTF-8" standalone="no"?>
<!DOCTYPE svg PUBLIC "-//W3C//DTD SVG 1.1//EN"
 "http://www.w3.org/Graphics/SVG/1.1/DTD/svg11.dtd">
<!-- Generated by graphviz version 5.0.0 (20220707.1540)
 -->
<!-- Title: graphname Pages: 1 -->
<svg width="839pt" height="997pt"
 viewBox="0.00 0.00 839.00 997.00" xmlns="http://www.w3.org/2000/svg" xmlns:xlink="http://www.w3.org/1999/xlink">
<g id="graph0" class="graph" transform="scale(1 1) rotate(0) translate(4 993)">
<title>graphname</title>
<polygon fill="#fafafa" stroke="transparent" points="-4,4 -4,-993 835,-993 835,4 -4,4"/>
<text text-anchor="start" x="331.5" y="-964.4" font-family="Helvetica,sans-Serif" font-weight="bold" font-size="22.00" fill="#383838">Project ec2&#45;ssm</text>
<text text-anchor="start" x="411.5" y="-948.8" font-family="Helvetica,sans-Serif" font-size="14.00"> &#160;</text>
<text text-anchor="start" x="331.5" y="-927.2" font-family="Helvetica,sans-Serif" font-weight="bold" font-size="16.00" fill="#707070">Target Diagram</text>
<g id="clust1" class="cluster">
<title>cluster_aws</title>
<polygon fill="#f5f5f5" stroke="#f5f5f5" points="8,-8 8,-905 823,-905 823,-8 8,-8"/>
<text text-anchor="start" x="353.5" y="-23" font-family="Helvetica,sans-Serif" font-weight="bold" font-size="20.00" fill="#707070">Provider aws</text>
</g>
<g id="clust2" class="cluster">
<title>cluster_aws_</title>
<polygon fill="#eeeeee" stroke="#eeeeee" points="16,-54 16,-897 815,-897 815,-54 16,-54"/>
<text text-anchor="start" x="415.36" y="-58.3" font-family="Helvetica,sans-Serif" font-size="1.00" fill="#383838"> </text>
</g>
<!-- KeyPair::mykey -->
<g id="node1" class="node">
<title>KeyPair::mykey</title>
<polygon fill="#e5e5e5" stroke="#dddddd" points="568.5,-129 443.5,-129 443.5,-71 568.5,-71 568.5,-129"/>
<text text-anchor="start" x="456" y="-109.2" font-family="Helvetica,sans-Serif" font-weight="bold" font-size="16.00" fill="#707070">EC2::KeyPair</text>
<text text-anchor="start" x="456" y="-84.2" font-family="Helvetica,sans-Serif" font-size="16.00" fill="#383838">mykey</text>
</g>
<!-- Vpc::vpc -->
<g id="node2" class="node">
<title>Vpc::vpc</title>
<polygon fill="#e5e5e5" stroke="#dddddd" points="793,-433 698,-433 698,-375 793,-375 793,-433"/>
<text text-anchor="start" x="710.5" y="-413.2" font-family="Helvetica,sans-Serif" font-weight="bold" font-size="16.00" fill="#707070">EC2::Vpc</text>
<text text-anchor="start" x="710.5" y="-388.2" font-family="Helvetica,sans-Serif" font-size="16.00" fill="#383838">vpc</text>
</g>
<!-- Vpc::vpc&#45;default -->
<g id="node3" class="node">
<title>Vpc::vpc&#45;default</title>
<polygon fill="#e5e5e5" stroke="#dddddd" points="797.5,-754 693.5,-754 693.5,-696 797.5,-696 797.5,-754"/>
<text text-anchor="start" x="705.5" y="-734.2" font-family="Helvetica,sans-Serif" font-weight="bold" font-size="16.00" fill="#707070">EC2::Vpc</text>
<text text-anchor="start" x="705.5" y="-709.2" font-family="Helvetica,sans-Serif" font-size="16.00" fill="#383838">vpc&#45;default</text>
</g>
<!-- InternetGateway::igw -->
<g id="node4" class="node">
<title>InternetGateway::igw</title>
<polygon fill="#e5e5e5" stroke="#dddddd" points="601.5,-585 410.5,-585 410.5,-527 601.5,-527 601.5,-585"/>
<text text-anchor="start" x="423" y="-565.2" font-family="Helvetica,sans-Serif" font-weight="bold" font-size="16.00" fill="#707070">EC2::InternetGateway</text>
<text text-anchor="start" x="423" y="-540.2" font-family="Helvetica,sans-Serif" font-size="16.00" fill="#383838">igw</text>
</g>
<!-- InternetGatewayAttachment::ig&#45;attach::igw::vpc -->
<g id="node5" class="node">
<title>InternetGatewayAttachment::ig&#45;attach::igw::vpc</title>
<polygon fill="#e5e5e5" stroke="#dddddd" points="315.5,-585 36.5,-585 36.5,-527 315.5,-527 315.5,-585"/>
<text text-anchor="start" x="49" y="-565.2" font-family="Helvetica,sans-Serif" font-weight="bold" font-size="16.00" fill="#707070">EC2::InternetGatewayAttachment</text>
<text text-anchor="start" x="49" y="-540.2" font-family="Helvetica,sans-Serif" font-size="16.00" fill="#383838">ig&#45;attach::igw::vpc</text>
</g>
<!-- InternetGatewayAttachment::ig&#45;attach::igw::vpc&#45;&gt;Vpc::vpc -->
<g id="edge1" class="edge">
<title>InternetGatewayAttachment::ig&#45;attach::igw::vpc&#45;&gt;Vpc::vpc</title>
<path fill="none" stroke="#707070" d="M302.21,-585.04C322.75,-588.76 343.89,-591.98 364,-594 489.59,-606.63 540.42,-660.02 648,-594 701.5,-561.17 726.47,-488.4 737.23,-443.05"/>
<polygon fill="#707070" stroke="#707070" points="740.65,-443.78 739.43,-433.26 733.82,-442.25 740.65,-443.78"/>
</g>
<!-- InternetGatewayAttachment::ig&#45;attach::igw::vpc&#45;&gt;InternetGateway::igw -->
<g id="edge2" class="edge">
<title>InternetGatewayAttachment::ig&#45;attach::igw::vpc&#45;&gt;InternetGateway::igw</title>
<path fill="none" stroke="#707070" d="M315.63,-556C343.84,-556 373.09,-556 399.91,-556"/>
<polygon fill="#707070" stroke="#707070" points="400.06,-559.5 410.06,-556 400.06,-552.5 400.06,-559.5"/>
</g>
<!-- Subnet::vpc::subnet&#45;public1&#45;us&#45;east&#45;1a -->
<g id="node6" class="node">
<title>Subnet::vpc::subnet&#45;public1&#45;us&#45;east&#45;1a</title>
<polygon fill="#e5e5e5" stroke="#dddddd" points="629.5,-357 382.5,-357 382.5,-299 629.5,-299 629.5,-357"/>
<text text-anchor="start" x="395" y="-337.2" font-family="Helvetica,sans-Serif" font-weight="bold" font-size="16.00" fill="#707070">EC2::Subnet</text>
<text text-anchor="start" x="395" y="-312.2" font-family="Helvetica,sans-Serif" font-size="16.00" fill="#383838">vpc::subnet&#45;public1&#45;us&#45;east&#45;1a</text>
</g>
<!-- Subnet::vpc::subnet&#45;public1&#45;us&#45;east&#45;1a&#45;&gt;Vpc::vpc -->
<g id="edge3" class="edge">
<title>Subnet::vpc::subnet&#45;public1&#45;us&#45;east&#45;1a&#45;&gt;Vpc::vpc</title>
<path fill="none" stroke="#707070" d="M619.32,-357.05C629.06,-359.94 638.73,-362.94 648,-366 661.21,-370.36 675.23,-375.56 688.37,-380.68"/>
<polygon fill="#707070" stroke="#707070" points="687.18,-383.97 697.77,-384.38 689.75,-377.46 687.18,-383.97"/>
</g>
<!-- RouteTable::vpc::rtb&#45;public -->
<g id="node7" class="node">
<title>RouteTable::vpc::rtb&#45;public</title>
<polygon fill="#e5e5e5" stroke="#dddddd" points="581.5,-509 430.5,-509 430.5,-451 581.5,-451 581.5,-509"/>
<text text-anchor="start" x="443" y="-489.2" font-family="Helvetica,sans-Serif" font-weight="bold" font-size="16.00" fill="#707070">EC2::RouteTable</text>
<text text-anchor="start" x="443" y="-464.2" font-family="Helvetica,sans-Serif" font-size="16.00" fill="#383838">vpc::rtb&#45;public</text>
</g>
<!-- RouteTable::vpc::rtb&#45;public&#45;&gt;Vpc::vpc -->
<g id="edge4" class="edge">
<title>RouteTable::vpc::rtb&#45;public&#45;&gt;Vpc::vpc</title>
<path fill="none" stroke="#707070" d="M581.74,-461.53C603.27,-455.75 626.7,-449.04 648,-442 661.21,-437.64 675.23,-432.44 688.37,-427.32"/>
<polygon fill="#707070" stroke="#707070" points="689.75,-430.54 697.77,-423.62 687.18,-424.03 689.75,-430.54"/>
</g>
<!-- RouteTableAssociation::rt&#45;assoc::vpc::rtb&#45;public::vpc::subnet&#45;public1&#45;us&#45;east&#45;1a -->
<g id="node8" class="node">
<title>RouteTableAssociation::rt&#45;assoc::vpc::rtb&#45;public::vpc::subnet&#45;public1&#45;us&#45;east&#45;1a</title>
<polygon fill="#e5e5e5" stroke="#dddddd" points="301,-433 51,-433 51,-375 301,-375 301,-433"/>
<text text-anchor="start" x="63" y="-413.2" font-family="Helvetica,sans-Serif" font-weight="bold" font-size="16.00" fill="#707070">EC2::RouteTableAssociation</text>
<text text-anchor="start" x="63" y="-388.2" font-family="Helvetica,sans-Serif" font-size="16.00" fill="#383838">rt&#45;assoc::vpc::rtb&#45;public::vpc::...</text>
</g>
<!-- RouteTableAssociation::rt&#45;assoc::vpc::rtb&#45;public::vpc::subnet&#45;public1&#45;us&#45;east&#45;1a&#45;&gt;Subnet::vpc::subnet&#45;public1&#45;us&#45;east&#45;1a -->
<g id="edge6" class="edge">
<title>RouteTableAssociation::rt&#45;assoc::vpc::rtb&#45;public::vpc::subnet&#45;public1&#45;us&#45;east&#45;1a&#45;&gt;Subnet::vpc::subnet&#45;public1&#45;us&#45;east&#45;1a</title>
<path fill="none" stroke="#707070" d="M301,-375.27C324.34,-369.86 348.82,-364.19 372.41,-358.72"/>
<polygon fill="#707070" stroke="#707070" points="373.5,-362.06 382.45,-356.4 371.92,-355.24 373.5,-362.06"/>
</g>
<!-- RouteTableAssociation::rt&#45;assoc::vpc::rtb&#45;public::vpc::subnet&#45;public1&#45;us&#45;east&#45;1a&#45;&gt;RouteTable::vpc::rtb&#45;public -->
<g id="edge5" class="edge">
<title>RouteTableAssociation::rt&#45;assoc::vpc::rtb&#45;public::vpc::subnet&#45;public1&#45;us&#45;east&#45;1a&#45;&gt;RouteTable::vpc::rtb&#45;public</title>
<path fill="none" stroke="#707070" d="M301,-432.73C340.8,-441.95 383.94,-451.95 420.26,-460.37"/>
<polygon fill="#707070" stroke="#707070" points="419.78,-463.85 430.32,-462.7 421.36,-457.03 419.78,-463.85"/>
</g>
<!-- Route::vpc::rtb&#45;public::igw::0.0.0.0/0 -->
<g id="node9" class="node">
<title>Route::vpc::rtb&#45;public::igw::0.0.0.0/0</title>
<polygon fill="#e5e5e5" stroke="#dddddd" points="291.5,-509 60.5,-509 60.5,-451 291.5,-451 291.5,-509"/>
<text text-anchor="start" x="73" y="-489.2" font-family="Helvetica,sans-Serif" font-weight="bold" font-size="16.00" fill="#707070">EC2::Route</text>
<text text-anchor="start" x="73" y="-464.2" font-family="Helvetica,sans-Serif" font-size="16.00" fill="#383838">vpc::rtb&#45;public::igw::0.0.0.0/0</text>
</g>
<!-- Route::vpc::rtb&#45;public::igw::0.0.0.0/0&#45;&gt;InternetGateway::igw -->
<g id="edge7" class="edge">
<title>Route::vpc::rtb&#45;public::igw::0.0.0.0/0&#45;&gt;InternetGateway::igw</title>
<path fill="none" stroke="#707070" d="M291.72,-506.58C327.03,-514.76 365.7,-523.72 400.3,-531.74"/>
<polygon fill="#707070" stroke="#707070" points="399.89,-535.24 410.42,-534.08 401.47,-528.42 399.89,-535.24"/>
</g>
<!-- Route::vpc::rtb&#45;public::igw::0.0.0.0/0&#45;&gt;RouteTable::vpc::rtb&#45;public -->
<g id="edge8" class="edge">
<title>Route::vpc::rtb&#45;public::igw::0.0.0.0/0&#45;&gt;RouteTable::vpc::rtb&#45;public</title>
<path fill="none" stroke="#707070" d="M291.72,-480C333.94,-480 380.98,-480 420.11,-480"/>
<polygon fill="#707070" stroke="#707070" points="420.4,-483.5 430.4,-480 420.4,-476.5 420.4,-483.5"/>
</g>
<!-- SecurityGroup::sg::vpc&#45;default::default -->
<g id="node10" class="node">
<title>SecurityGroup::sg::vpc&#45;default::default</title>
<polygon fill="#e5e5e5" stroke="#dddddd" points="600,-799 412,-799 412,-741 600,-741 600,-799"/>
<text text-anchor="start" x="424" y="-779.2" font-family="Helvetica,sans-Serif" font-weight="bold" font-size="16.00" fill="#707070">EC2::SecurityGroup</text>
<text text-anchor="start" x="424" y="-754.2" font-family="Helvetica,sans-Serif" font-size="16.00" fill="#383838">sg::vpc&#45;default::default</text>
</g>
<!-- SecurityGroup::sg::vpc&#45;default::default&#45;&gt;Vpc::vpc&#45;default -->
<g id="edge9" class="edge">
<title>SecurityGroup::sg::vpc&#45;default::default&#45;&gt;Vpc::vpc&#45;default</title>
<path fill="none" stroke="#707070" d="M600.18,-752.34C628.18,-747.04 658.16,-741.36 683.5,-736.56"/>
<polygon fill="#707070" stroke="#707070" points="684.16,-739.99 693.34,-734.69 682.86,-733.12 684.16,-739.99"/>
</g>
<!-- SecurityGroup::sg::vpc&#45;default::launch&#45;wizard&#45;1 -->
<g id="node11" class="node">
<title>SecurityGroup::sg::vpc&#45;default::launch&#45;wizard&#45;1</title>
<polygon fill="#e5e5e5" stroke="#dddddd" points="639.5,-709 372.5,-709 372.5,-651 639.5,-651 639.5,-709"/>
<text text-anchor="start" x="385" y="-689.2" font-family="Helvetica,sans-Serif" font-weight="bold" font-size="16.00" fill="#707070">EC2::SecurityGroup</text>
<text text-anchor="start" x="385" y="-664.2" font-family="Helvetica,sans-Serif" font-size="16.00" fill="#383838">sg::vpc&#45;default::launch&#45;wizard&#45;1...</text>
</g>
<!-- SecurityGroup::sg::vpc&#45;default::launch&#45;wizard&#45;1&#45;&gt;Vpc::vpc&#45;default -->
<g id="edge10" class="edge">
<title>SecurityGroup::sg::vpc&#45;default::launch&#45;wizard&#45;1&#45;&gt;Vpc::vpc&#45;default</title>
<path fill="none" stroke="#707070" d="M639.64,-705.13C654.79,-708 669.64,-710.82 683.18,-713.38"/>
<polygon fill="#707070" stroke="#707070" points="682.79,-716.87 693.26,-715.29 684.09,-709.99 682.79,-716.87"/>
</g>
<!-- SecurityGroup::sg::vpc::aws&#45;cloud9&#45;gc&#45;19bfac89663e45a4be8c0e25d0e320cb&#45;InstanceSecurityGroup&#45;159HC87PW800 -->
<g id="node12" class="node">
<title>SecurityGroup::sg::vpc::aws&#45;cloud9&#45;gc&#45;19bfac89663e45a4be8c0e25d0e320cb&#45;InstanceSecurityGroup&#45;159HC87PW800</title>
<polygon fill="#e5e5e5" stroke="#dddddd" points="648,-433 364,-433 364,-375 648,-375 648,-433"/>
<text text-anchor="start" x="376" y="-413.2" font-family="Helvetica,sans-Serif" font-weight="bold" font-size="16.00" fill="#707070">EC2::SecurityGroup</text>
<text text-anchor="start" x="376" y="-388.2" font-family="Helvetica,sans-Serif" font-size="16.00" fill="#383838">sg::vpc::aws&#45;cloud9&#45;gc&#45;19bfac896...</text>
</g>
<!-- SecurityGroup::sg::vpc::aws&#45;cloud9&#45;gc&#45;19bfac89663e45a4be8c0e25d0e320cb&#45;InstanceSecurityGroup&#45;159HC87PW800&#45;&gt;Vpc::vpc -->
<g id="edge11" class="edge">
<title>SecurityGroup::sg::vpc::aws&#45;cloud9&#45;gc&#45;19bfac89663e45a4be8c0e25d0e320cb&#45;InstanceSecurityGroup&#45;159HC87PW800&#45;&gt;Vpc::vpc</title>
<path fill="none" stroke="#707070" d="M648.24,-404C661.96,-404 675.25,-404 687.37,-404"/>
<polygon fill="#707070" stroke="#707070" points="687.69,-407.5 697.69,-404 687.69,-400.5 687.69,-407.5"/>
</g>
<!-- SecurityGroup::sg::vpc::sec&#45;group -->
<g id="node13" class="node">
<title>SecurityGroup::sg::vpc::sec&#45;group</title>
<polygon fill="#e5e5e5" stroke="#dddddd" points="594.5,-281 417.5,-281 417.5,-223 594.5,-223 594.5,-281"/>
<text text-anchor="start" x="430" y="-261.2" font-family="Helvetica,sans-Serif" font-weight="bold" font-size="16.00" fill="#707070">EC2::SecurityGroup</text>
<text text-anchor="start" x="430" y="-236.2" font-family="Helvetica,sans-Serif" font-size="16.00" fill="#383838">sg::vpc::sec&#45;group</text>
</g>
<!-- SecurityGroup::sg::vpc::sec&#45;group&#45;&gt;Vpc::vpc -->
<g id="edge12" class="edge">
<title>SecurityGroup::sg::vpc::sec&#45;group&#45;&gt;Vpc::vpc</title>
<path fill="none" stroke="#707070" d="M594.71,-266.84C613.2,-272.32 631.95,-279.81 648,-290 678.35,-309.27 704.13,-341.11 721.39,-366.25"/>
<polygon fill="#707070" stroke="#707070" points="718.66,-368.47 727.13,-374.83 724.48,-364.57 718.66,-368.47"/>
</g>
<!-- SecurityGroupRuleIngress::sg::vpc&#45;default::default&#45;rule&#45;ingress&#45;icmp -->
<g id="node14" class="node">
<title>SecurityGroupRuleIngress::sg::vpc&#45;default::default&#45;rule&#45;ingress&#45;icmp</title>
<polygon fill="#e5e5e5" stroke="#dddddd" points="310,-813 42,-813 42,-755 310,-755 310,-813"/>
<text text-anchor="start" x="54" y="-793.2" font-family="Helvetica,sans-Serif" font-weight="bold" font-size="16.00" fill="#707070">EC2::SecurityGroupRuleIngress</text>
<text text-anchor="start" x="54" y="-768.2" font-family="Helvetica,sans-Serif" font-size="16.00" fill="#383838">sg::vpc&#45;default::default&#45;rule&#45;in...</text>
</g>
<!-- SecurityGroupRuleIngress::sg::vpc&#45;default::default&#45;rule&#45;ingress&#45;icmp&#45;&gt;SecurityGroup::sg::vpc&#45;default::default -->
<g id="edge13" class="edge">
<title>SecurityGroupRuleIngress::sg::vpc&#45;default::default&#45;rule&#45;ingress&#45;icmp&#45;&gt;SecurityGroup::sg::vpc&#45;default::default</title>
<path fill="none" stroke="#707070" d="M310.41,-778.31C340.87,-777.01 372.79,-775.64 401.77,-774.41"/>
<polygon fill="#707070" stroke="#707070" points="402.04,-777.9 411.89,-773.97 401.75,-770.9 402.04,-777.9"/>
</g>
<!-- SecurityGroupRuleIngress::sg::vpc&#45;default::default&#45;rule&#45;ingress&#45;tcp&#45;22 -->
<g id="node15" class="node">
<title>SecurityGroupRuleIngress::sg::vpc&#45;default::default&#45;rule&#45;ingress&#45;tcp&#45;22</title>
<polygon fill="#e5e5e5" stroke="#dddddd" points="310,-737 42,-737 42,-679 310,-679 310,-737"/>
<text text-anchor="start" x="54" y="-717.2" font-family="Helvetica,sans-Serif" font-weight="bold" font-size="16.00" fill="#707070">EC2::SecurityGroupRuleIngress</text>
<text text-anchor="start" x="54" y="-692.2" font-family="Helvetica,sans-Serif" font-size="16.00" fill="#383838">sg::vpc&#45;default::default&#45;rule&#45;in...</text>
</g>
<!-- SecurityGroupRuleIngress::sg::vpc&#45;default::default&#45;rule&#45;ingress&#45;tcp&#45;22&#45;&gt;SecurityGroup::sg::vpc&#45;default::default -->
<g id="edge14" class="edge">
<title>SecurityGroupRuleIngress::sg::vpc&#45;default::default&#45;rule&#45;ingress&#45;tcp&#45;22&#45;&gt;SecurityGroup::sg::vpc&#45;default::default</title>
<path fill="none" stroke="#707070" d="M310.41,-733.22C340.87,-738.98 372.79,-745.01 401.77,-750.49"/>
<polygon fill="#707070" stroke="#707070" points="401.41,-753.98 411.89,-752.4 402.71,-747.1 401.41,-753.98"/>
</g>
<!-- SecurityGroupRuleIngress::sg::vpc&#45;default::launch&#45;wizard&#45;1&#45;rule&#45;ingress&#45;tcp&#45;22 -->
<g id="node16" class="node">
<title>SecurityGroupRuleIngress::sg::vpc&#45;default::launch&#45;wizard&#45;1&#45;rule&#45;ingress&#45;tcp&#45;22</title>
<polygon fill="#e5e5e5" stroke="#dddddd" points="310,-661 42,-661 42,-603 310,-603 310,-661"/>
<text text-anchor="start" x="54" y="-641.2" font-family="Helvetica,sans-Serif" font-weight="bold" font-size="16.00" fill="#707070">EC2::SecurityGroupRuleIngress</text>
<text text-anchor="start" x="54" y="-616.2" font-family="Helvetica,sans-Serif" font-size="16.00" fill="#383838">sg::vpc&#45;default::launch&#45;wizard&#45;1...</text>
</g>
<!-- SecurityGroupRuleIngress::sg::vpc&#45;default::launch&#45;wizard&#45;1&#45;rule&#45;ingress&#45;tcp&#45;22&#45;&gt;SecurityGroup::sg::vpc&#45;default::launch&#45;wizard&#45;1 -->
<g id="edge15" class="edge">
<title>SecurityGroupRuleIngress::sg::vpc&#45;default::launch&#45;wizard&#45;1&#45;rule&#45;ingress&#45;tcp&#45;22&#45;&gt;SecurityGroup::sg::vpc&#45;default::launch&#45;wizard&#45;1</title>
<path fill="none" stroke="#707070" d="M310.41,-651.52C327.46,-654.02 344.97,-656.58 362.16,-659.1"/>
<polygon fill="#707070" stroke="#707070" points="361.84,-662.59 372.24,-660.57 362.85,-655.66 361.84,-662.59"/>
</g>
<!-- SecurityGroupRuleIngress::sg::vpc::aws&#45;cloud9&#45;gc&#45;19bfac89663e45a4be8c0e25d0e320cb&#45;InstanceSecurityGroup&#45;159HC87PW800&#45;rule&#45;ingress&#45;tcp&#45;22 -->
<g id="node17" class="node">
<title>SecurityGroupRuleIngress::sg::vpc::aws&#45;cloud9&#45;gc&#45;19bfac89663e45a4be8c0e25d0e320cb&#45;InstanceSecurityGroup&#45;159HC87PW800&#45;rule&#45;ingress&#45;tcp&#45;22</title>
<polygon fill="#e5e5e5" stroke="#dddddd" points="318,-357 34,-357 34,-299 318,-299 318,-357"/>
<text text-anchor="start" x="46" y="-337.2" font-family="Helvetica,sans-Serif" font-weight="bold" font-size="16.00" fill="#707070">EC2::SecurityGroupRuleIngress</text>
<text text-anchor="start" x="46" y="-312.2" font-family="Helvetica,sans-Serif" font-size="16.00" fill="#383838">sg::vpc::aws&#45;cloud9&#45;gc&#45;19bfac896...</text>
</g>
<!-- SecurityGroupRuleIngress::sg::vpc::aws&#45;cloud9&#45;gc&#45;19bfac89663e45a4be8c0e25d0e320cb&#45;InstanceSecurityGroup&#45;159HC87PW800&#45;rule&#45;ingress&#45;tcp&#45;22&#45;&gt;SecurityGroup::sg::vpc::aws&#45;cloud9&#45;gc&#45;19bfac89663e45a4be8c0e25d0e320cb&#45;InstanceSecurityGroup&#45;159HC87PW800 -->
<g id="edge16" class="edge">
<title>SecurityGroupRuleIngress::sg::vpc::aws&#45;cloud9&#45;gc&#45;19bfac89663e45a4be8c0e25d0e320cb&#45;InstanceSecurityGroup&#45;159HC87PW800&#45;rule&#45;ingress&#45;tcp&#45;22&#45;&gt;SecurityGroup::sg::vpc::aws&#45;cloud9&#45;gc&#45;19bfac89663e45a4be8c0e25d0e320cb&#45;InstanceSecurityGroup&#45;159HC87PW800</title>
<path fill="none" stroke="#707070" d="M302.41,-357.06C324.46,-362.17 347.5,-367.51 369.81,-372.68"/>
<polygon fill="#707070" stroke="#707070" points="369.13,-376.11 379.66,-374.96 370.71,-369.29 369.13,-376.11"/>
</g>
<!-- SecurityGroupRuleIngress::sg::vpc::sec&#45;group&#45;rule&#45;ingress&#45;tcp&#45;22 -->
<g id="node18" class="node">
<title>SecurityGroupRuleIngress::sg::vpc::sec&#45;group&#45;rule&#45;ingress&#45;tcp&#45;22</title>
<polygon fill="#e5e5e5" stroke="#dddddd" points="310,-205 42,-205 42,-147 310,-147 310,-205"/>
<text text-anchor="start" x="54" y="-185.2" font-family="Helvetica,sans-Serif" font-weight="bold" font-size="16.00" fill="#707070">EC2::SecurityGroupRuleIngress</text>
<text text-anchor="start" x="54" y="-160.2" font-family="Helvetica,sans-Serif" font-size="16.00" fill="#383838">sg::vpc::sec&#45;group&#45;rule&#45;ingress&#45;...</text>
</g>
<!-- SecurityGroupRuleIngress::sg::vpc::sec&#45;group&#45;rule&#45;ingress&#45;tcp&#45;22&#45;&gt;SecurityGroup::sg::vpc::sec&#45;group -->
<g id="edge17" class="edge">
<title>SecurityGroupRuleIngress::sg::vpc::sec&#45;group&#45;rule&#45;ingress&#45;tcp&#45;22&#45;&gt;SecurityGroup::sg::vpc::sec&#45;group</title>
<path fill="none" stroke="#707070" d="M302.41,-205.06C337.15,-213.11 374.35,-221.73 407.26,-229.35"/>
<polygon fill="#707070" stroke="#707070" points="406.8,-232.84 417.33,-231.69 408.38,-226.02 406.8,-232.84"/>
</g>
<!-- SecurityGroupRuleEgress::sg::vpc&#45;default::default&#45;rule&#45;egress&#45;tcp&#45;0 -->
<g id="node19" class="node">
<title>SecurityGroupRuleEgress::sg::vpc&#45;default::default&#45;rule&#45;egress&#45;tcp&#45;0</title>
<polygon fill="#e5e5e5" stroke="#dddddd" points="308.5,-889 43.5,-889 43.5,-831 308.5,-831 308.5,-889"/>
<text text-anchor="start" x="56" y="-869.2" font-family="Helvetica,sans-Serif" font-weight="bold" font-size="16.00" fill="#707070">EC2::SecurityGroupRuleEgress</text>
<text text-anchor="start" x="56" y="-844.2" font-family="Helvetica,sans-Serif" font-size="16.00" fill="#383838">sg::vpc&#45;default::default&#45;rule&#45;eg...</text>
</g>
<!-- SecurityGroupRuleEgress::sg::vpc&#45;default::default&#45;rule&#45;egress&#45;tcp&#45;0&#45;&gt;SecurityGroup::sg::vpc&#45;default::default -->
<g id="edge18" class="edge">
<title>SecurityGroupRuleEgress::sg::vpc&#45;default::default&#45;rule&#45;egress&#45;tcp&#45;0&#45;&gt;SecurityGroup::sg::vpc&#45;default::default</title>
<path fill="none" stroke="#707070" d="M294.18,-830.99C305.62,-828.02 317.05,-824.99 328,-822 352.14,-815.42 378.03,-808.01 402.36,-800.89"/>
<polygon fill="#707070" stroke="#707070" points="403.35,-804.25 411.96,-798.08 401.38,-797.54 403.35,-804.25"/>
</g>
<!-- Instance::aws&#45;cloud9&#45;gc&#45;19bfac89663e45a4be8c0e25d0e320cb -->
<g id="node20" class="node">
<title>Instance::aws&#45;cloud9&#45;gc&#45;19bfac89663e45a4be8c0e25d0e320cb</title>
<polygon fill="#e5e5e5" stroke="#dddddd" points="328,-281 24,-281 24,-223 328,-223 328,-281"/>
<text text-anchor="start" x="36" y="-261.2" font-family="Helvetica,sans-Serif" font-weight="bold" font-size="16.00" fill="#707070">EC2::Instance</text>
<text text-anchor="start" x="36" y="-236.2" font-family="Helvetica,sans-Serif" font-size="16.00" fill="#383838">aws&#45;cloud9&#45;gc&#45;19bfac89663e45a4be...</text>
</g>
<!-- Instance::aws&#45;cloud9&#45;gc&#45;19bfac89663e45a4be8c0e25d0e320cb&#45;&gt;Subnet::vpc::subnet&#45;public1&#45;us&#45;east&#45;1a -->
<g id="edge19" class="edge">
<title>Instance::aws&#45;cloud9&#45;gc&#45;19bfac89663e45a4be8c0e25d0e320cb&#45;&gt;Subnet::vpc::subnet&#45;public1&#45;us&#45;east&#45;1a</title>
<path fill="none" stroke="#707070" d="M302.41,-281.06C325.35,-286.37 349.37,-291.94 372.51,-297.3"/>
<polygon fill="#707070" stroke="#707070" points="371.84,-300.74 382.37,-299.59 373.42,-293.92 371.84,-300.74"/>
</g>
<!-- Instance::aws&#45;cloud9&#45;gc&#45;19bfac89663e45a4be8c0e25d0e320cb&#45;&gt;SecurityGroup::sg::vpc::aws&#45;cloud9&#45;gc&#45;19bfac89663e45a4be8c0e25d0e320cb&#45;InstanceSecurityGroup&#45;159HC87PW800 -->
<g id="edge20" class="edge">
<title>Instance::aws&#45;cloud9&#45;gc&#45;19bfac89663e45a4be8c0e25d0e320cb&#45;&gt;SecurityGroup::sg::vpc::aws&#45;cloud9&#45;gc&#45;19bfac89663e45a4be8c0e25d0e320cb&#45;InstanceSecurityGroup&#45;159HC87PW800</title>
<path fill="none" stroke="#707070" d="M315.42,-281.02C319.82,-283.76 324.03,-286.74 328,-290 356.89,-313.72 335.31,-342.04 364,-366 365.34,-367.12 366.71,-368.2 368.1,-369.26"/>
<polygon fill="#707070" stroke="#707070" points="366.15,-372.16 376.37,-374.95 370.12,-366.39 366.15,-372.16"/>
</g>
<!-- Instance::ec2&#45;ssm -->
<g id="node21" class="node">
<title>Instance::ec2&#45;ssm</title>
<polygon fill="#e5e5e5" stroke="#dddddd" points="241.5,-129 110.5,-129 110.5,-71 241.5,-71 241.5,-129"/>
<text text-anchor="start" x="123" y="-109.2" font-family="Helvetica,sans-Serif" font-weight="bold" font-size="16.00" fill="#707070">EC2::Instance</text>
<text text-anchor="start" x="123" y="-84.2" font-family="Helvetica,sans-Serif" font-size="16.00" fill="#383838">ec2&#45;ssm</text>
</g>
<!-- Instance::ec2&#45;ssm&#45;&gt;KeyPair::mykey -->
<g id="edge22" class="edge">
<title>Instance::ec2&#45;ssm&#45;&gt;KeyPair::mykey</title>
<path fill="none" stroke="#707070" d="M241.8,-100C297.02,-100 376.26,-100 433.35,-100"/>
<polygon fill="#707070" stroke="#707070" points="433.39,-103.5 443.39,-100 433.39,-96.5 433.39,-103.5"/>
</g>
<!-- Instance::ec2&#45;ssm&#45;&gt;Subnet::vpc::subnet&#45;public1&#45;us&#45;east&#45;1a -->
<g id="edge21" class="edge">
<title>Instance::ec2&#45;ssm&#45;&gt;Subnet::vpc::subnet&#45;public1&#45;us&#45;east&#45;1a</title>
<path fill="none" stroke="#707070" d="M241.8,-101.42C271.77,-105.44 305.6,-115.29 328,-138 376.75,-187.43 315.67,-240.16 364,-290 367.08,-293.17 370.39,-296.09 373.89,-298.77"/>
<polygon fill="#707070" stroke="#707070" points="372.16,-301.83 382.38,-304.61 376.13,-296.06 372.16,-301.83"/>
</g>
<!-- Instance::ec2&#45;ssm&#45;&gt;SecurityGroup::sg::vpc::sec&#45;group -->
<g id="edge24" class="edge">
<title>Instance::ec2&#45;ssm&#45;&gt;SecurityGroup::sg::vpc::sec&#45;group</title>
<path fill="none" stroke="#707070" d="M241.72,-103.87C270.78,-108.52 303.87,-118.19 328,-138 356.89,-161.72 335.31,-190.04 364,-214 376.57,-224.5 391.77,-232.12 407.48,-237.64"/>
<polygon fill="#707070" stroke="#707070" points="406.71,-241.07 417.31,-240.82 408.87,-234.41 406.71,-241.07"/>
</g>
<!-- InstanceProfile::role&#45;ec2&#45;SSM -->
<g id="node23" class="node">
<title>InstanceProfile::role&#45;ec2&#45;SSM</title>
<polygon fill="#e5e5e5" stroke="#dddddd" points="595.5,-205 416.5,-205 416.5,-147 595.5,-147 595.5,-205"/>
<text text-anchor="start" x="429" y="-185.2" font-family="Helvetica,sans-Serif" font-weight="bold" font-size="16.00" fill="#707070">IAM::InstanceProfile</text>
<text text-anchor="start" x="429" y="-160.2" font-family="Helvetica,sans-Serif" font-size="16.00" fill="#383838">role&#45;ec2&#45;SSM</text>
</g>
<!-- Instance::ec2&#45;ssm&#45;&gt;InstanceProfile::role&#45;ec2&#45;SSM -->
<g id="edge23" class="edge">
<title>Instance::ec2&#45;ssm&#45;&gt;InstanceProfile::role&#45;ec2&#45;SSM</title>
<path fill="none" stroke="#707070" d="M241.8,-115.02C288.82,-125.91 353.26,-140.84 406.6,-153.2"/>
<polygon fill="#707070" stroke="#707070" points="405.9,-156.63 416.43,-155.48 407.48,-149.81 405.9,-156.63"/>
</g>
<!-- Role::role&#45;ec2&#45;SSM -->
<g id="node22" class="node">
<title>Role::role&#45;ec2&#45;SSM</title>
<polygon fill="#e5e5e5" stroke="#dddddd" points="807,-205 684,-205 684,-147 807,-147 807,-205"/>
<text text-anchor="start" x="696.5" y="-185.2" font-family="Helvetica,sans-Serif" font-weight="bold" font-size="16.00" fill="#707070">IAM::Role</text>
<text text-anchor="start" x="696.5" y="-160.2" font-family="Helvetica,sans-Serif" font-size="16.00" fill="#383838">role&#45;ec2&#45;SSM</text>
</g>
<!-- InstanceProfile::role&#45;ec2&#45;SSM&#45;&gt;Role::role&#45;ec2&#45;SSM -->
<g id="edge25" class="edge">
<title>InstanceProfile::role&#45;ec2&#45;SSM&#45;&gt;Role::role&#45;ec2&#45;SSM</title>
<path fill="none" stroke="#707070" d="M595.77,-176C621.48,-176 649.2,-176 673.65,-176"/>
<polygon fill="#707070" stroke="#707070" points="673.92,-179.5 683.92,-176 673.92,-172.5 673.92,-179.5"/>
</g>
</g>
</svg>
