<?xml version="1.0" encoding="UTF-8" standalone="no"?>
<!DOCTYPE svg PUBLIC "-//W3C//DTD SVG 1.1//EN"
 "http://www.w3.org/Graphics/SVG/1.1/DTD/svg11.dtd">
<!-- Generated by graphviz version 5.0.0 (20220707.1540)
 -->
<!-- Title: graphname Pages: 1 -->
<svg width="768pt" height="693pt"
 viewBox="0.00 0.00 768.00 693.00" xmlns="http://www.w3.org/2000/svg" xmlns:xlink="http://www.w3.org/1999/xlink">
<g id="graph0" class="graph" transform="scale(1 1) rotate(0) translate(4 689)">
<title>graphname</title>
<polygon fill="#fafafa" stroke="transparent" points="-4,4 -4,-689 764,-689 764,4 -4,4"/>
<text text-anchor="start" x="296" y="-660.4" font-family="Helvetica,sans-Serif" font-weight="bold" font-size="22.00" fill="#383838">Project ec2&#45;ssm</text>
<text text-anchor="start" x="376" y="-644.8" font-family="Helvetica,sans-Serif" font-size="14.00"> &#160;</text>
<text text-anchor="start" x="296" y="-623.2" font-family="Helvetica,sans-Serif" font-weight="bold" font-size="16.00" fill="#707070">Target Diagram</text>
<g id="clust1" class="cluster">
<title>cluster_aws</title>
<polygon fill="#f5f5f5" stroke="#f5f5f5" points="8,-8 8,-601 752,-601 752,-8 8,-8"/>
<text text-anchor="start" x="318" y="-23" font-family="Helvetica,sans-Serif" font-weight="bold" font-size="20.00" fill="#707070">Provider aws</text>
</g>
<g id="clust2" class="cluster">
<title>cluster_aws_</title>
<polygon fill="#eeeeee" stroke="#eeeeee" points="16,-54 16,-593 744,-593 744,-54 16,-54"/>
<text text-anchor="start" x="379.86" y="-58.3" font-family="Helvetica,sans-Serif" font-size="1.00" fill="#383838"> </text>
</g>
<!-- Vpc::vpc -->
<g id="node1" class="node">
<title>Vpc::vpc</title>
<polygon fill="#e5e5e5" stroke="#dddddd" points="724.5,-381 629.5,-381 629.5,-323 724.5,-323 724.5,-381"/>
<text text-anchor="start" x="642" y="-361.2" font-family="Helvetica,sans-Serif" font-weight="bold" font-size="16.00" fill="#707070">EC2::Vpc</text>
<text text-anchor="start" x="642" y="-336.2" font-family="Helvetica,sans-Serif" font-size="16.00" fill="#383838">vpc</text>
</g>
<!-- Subnet::vpc::subnet&#45;private1&#45;us&#45;east&#45;1a -->
<g id="node2" class="node">
<title>Subnet::vpc::subnet&#45;private1&#45;us&#45;east&#45;1a</title>
<polygon fill="#e5e5e5" stroke="#dddddd" points="582,-405 329,-405 329,-347 582,-347 582,-405"/>
<text text-anchor="start" x="341.5" y="-385.2" font-family="Helvetica,sans-Serif" font-weight="bold" font-size="16.00" fill="#707070">EC2::Subnet</text>
<text text-anchor="start" x="341.5" y="-360.2" font-family="Helvetica,sans-Serif" font-size="16.00" fill="#383838">vpc::subnet&#45;private1&#45;us&#45;east&#45;1a</text>
</g>
<!-- Subnet::vpc::subnet&#45;private1&#45;us&#45;east&#45;1a&#45;&gt;Vpc::vpc -->
<g id="edge1" class="edge">
<title>Subnet::vpc::subnet&#45;private1&#45;us&#45;east&#45;1a&#45;&gt;Vpc::vpc</title>
<path fill="none" stroke="#707070" d="M582.28,-362.25C595.04,-360.85 607.5,-359.49 618.96,-358.24"/>
<polygon fill="#707070" stroke="#707070" points="619.62,-361.69 629.18,-357.12 618.86,-354.73 619.62,-361.69"/>
</g>
<!-- RouteTable::vpc::rtb&#45;private1&#45;us&#45;east&#45;1a -->
<g id="node3" class="node">
<title>RouteTable::vpc::rtb&#45;private1&#45;us&#45;east&#45;1a</title>
<polygon fill="#e5e5e5" stroke="#dddddd" points="567,-585 344,-585 344,-527 567,-527 567,-585"/>
<text text-anchor="start" x="356.5" y="-565.2" font-family="Helvetica,sans-Serif" font-weight="bold" font-size="16.00" fill="#707070">EC2::RouteTable</text>
<text text-anchor="start" x="356.5" y="-540.2" font-family="Helvetica,sans-Serif" font-size="16.00" fill="#383838">vpc::rtb&#45;private1&#45;us&#45;east&#45;1a</text>
</g>
<!-- RouteTable::vpc::rtb&#45;private1&#45;us&#45;east&#45;1a&#45;&gt;Vpc::vpc -->
<g id="edge2" class="edge">
<title>RouteTable::vpc::rtb&#45;private1&#45;us&#45;east&#45;1a&#45;&gt;Vpc::vpc</title>
<path fill="none" stroke="#707070" d="M567.23,-528.63C572.46,-525.47 577.43,-521.94 582,-518 610.31,-493.6 599.84,-474.67 618,-442 627.76,-424.45 639.6,-405.69 650.04,-389.87"/>
<polygon fill="#707070" stroke="#707070" points="653.05,-391.67 655.67,-381.4 647.22,-387.79 653.05,-391.67"/>
</g>
<!-- RouteTableAssociation::rt&#45;assoc::vpc::rtb&#45;private1&#45;us&#45;east&#45;1a::vpc::subnet&#45;private1&#45;us&#45;east&#45;1a -->
<g id="node4" class="node">
<title>RouteTableAssociation::rt&#45;assoc::vpc::rtb&#45;private1&#45;us&#45;east&#45;1a::vpc::subnet&#45;private1&#45;us&#45;east&#45;1a</title>
<polygon fill="#e5e5e5" stroke="#dddddd" points="287.5,-585 29.5,-585 29.5,-527 287.5,-527 287.5,-585"/>
<text text-anchor="start" x="41.5" y="-565.2" font-family="Helvetica,sans-Serif" font-weight="bold" font-size="16.00" fill="#707070">EC2::RouteTableAssociation</text>
<text text-anchor="start" x="41.5" y="-540.2" font-family="Helvetica,sans-Serif" font-size="16.00" fill="#383838">rt&#45;assoc::vpc::rtb&#45;private1&#45;us&#45;e...</text>
</g>
<!-- RouteTableAssociation::rt&#45;assoc::vpc::rtb&#45;private1&#45;us&#45;east&#45;1a::vpc::subnet&#45;private1&#45;us&#45;east&#45;1a&#45;&gt;Subnet::vpc::subnet&#45;private1&#45;us&#45;east&#45;1a -->
<g id="edge4" class="edge">
<title>RouteTableAssociation::rt&#45;assoc::vpc::rtb&#45;private1&#45;us&#45;east&#45;1a::vpc::subnet&#45;private1&#45;us&#45;east&#45;1a&#45;&gt;Subnet::vpc::subnet&#45;private1&#45;us&#45;east&#45;1a</title>
<path fill="none" stroke="#707070" d="M280.69,-526.99C285.01,-524.26 289.14,-521.27 293,-518 321.52,-493.84 303.13,-468.97 329,-442 340.97,-429.52 355.81,-418.93 371.05,-410.12"/>
<polygon fill="#707070" stroke="#707070" points="373,-413.04 380.05,-405.13 369.61,-406.91 373,-413.04"/>
</g>
<!-- RouteTableAssociation::rt&#45;assoc::vpc::rtb&#45;private1&#45;us&#45;east&#45;1a::vpc::subnet&#45;private1&#45;us&#45;east&#45;1a&#45;&gt;RouteTable::vpc::rtb&#45;private1&#45;us&#45;east&#45;1a -->
<g id="edge3" class="edge">
<title>RouteTableAssociation::rt&#45;assoc::vpc::rtb&#45;private1&#45;us&#45;east&#45;1a::vpc::subnet&#45;private1&#45;us&#45;east&#45;1a&#45;&gt;RouteTable::vpc::rtb&#45;private1&#45;us&#45;east&#45;1a</title>
<path fill="none" stroke="#707070" d="M287.6,-556C302.76,-556 318.2,-556 333.26,-556"/>
<polygon fill="#707070" stroke="#707070" points="333.62,-559.5 343.62,-556 333.62,-552.5 333.62,-559.5"/>
</g>
<!-- SecurityGroup::sg::vpc::ssm -->
<g id="node5" class="node">
<title>SecurityGroup::sg::vpc::ssm</title>
<polygon fill="#e5e5e5" stroke="#dddddd" points="544,-309 367,-309 367,-251 544,-251 544,-309"/>
<text text-anchor="start" x="379.5" y="-289.2" font-family="Helvetica,sans-Serif" font-weight="bold" font-size="16.00" fill="#707070">EC2::SecurityGroup</text>
<text text-anchor="start" x="379.5" y="-264.2" font-family="Helvetica,sans-Serif" font-size="16.00" fill="#383838">sg::vpc::ssm</text>
</g>
<!-- SecurityGroup::sg::vpc::ssm&#45;&gt;Vpc::vpc -->
<g id="edge5" class="edge">
<title>SecurityGroup::sg::vpc::ssm&#45;&gt;Vpc::vpc</title>
<path fill="none" stroke="#707070" d="M544.2,-308.77C569.69,-317.13 596.84,-326.04 619.84,-333.58"/>
<polygon fill="#707070" stroke="#707070" points="618.83,-336.93 629.42,-336.72 621.01,-330.28 618.83,-336.93"/>
</g>
<!-- SecurityGroupRuleIngress::sg::vpc::ssm&#45;rule&#45;ingress&#45;icmp -->
<g id="node6" class="node">
<title>SecurityGroupRuleIngress::sg::vpc::ssm&#45;rule&#45;ingress&#45;icmp</title>
<polygon fill="#e5e5e5" stroke="#dddddd" points="292.5,-281 24.5,-281 24.5,-223 292.5,-223 292.5,-281"/>
<text text-anchor="start" x="36.5" y="-261.2" font-family="Helvetica,sans-Serif" font-weight="bold" font-size="16.00" fill="#707070">EC2::SecurityGroupRuleIngress</text>
<text text-anchor="start" x="36.5" y="-236.2" font-family="Helvetica,sans-Serif" font-size="16.00" fill="#383838">sg::vpc::ssm&#45;rule&#45;ingress&#45;icmp</text>
</g>
<!-- SecurityGroupRuleIngress::sg::vpc::ssm&#45;rule&#45;ingress&#45;icmp&#45;&gt;SecurityGroup::sg::vpc::ssm -->
<g id="edge6" class="edge">
<title>SecurityGroupRuleIngress::sg::vpc::ssm&#45;rule&#45;ingress&#45;icmp&#45;&gt;SecurityGroup::sg::vpc::ssm</title>
<path fill="none" stroke="#707070" d="M292.76,-264.65C314.18,-266.68 336.01,-268.75 356.41,-270.69"/>
<polygon fill="#707070" stroke="#707070" points="356.33,-274.2 366.62,-271.66 356.99,-267.23 356.33,-274.2"/>
</g>
<!-- SecurityGroupRuleIngress::sg::vpc::ssm&#45;rule&#45;ingress&#45;tcp&#45;443 -->
<g id="node7" class="node">
<title>SecurityGroupRuleIngress::sg::vpc::ssm&#45;rule&#45;ingress&#45;tcp&#45;443</title>
<polygon fill="#e5e5e5" stroke="#dddddd" points="293,-205 24,-205 24,-147 293,-147 293,-205"/>
<text text-anchor="start" x="36.5" y="-185.2" font-family="Helvetica,sans-Serif" font-weight="bold" font-size="16.00" fill="#707070">EC2::SecurityGroupRuleIngress</text>
<text text-anchor="start" x="36.5" y="-160.2" font-family="Helvetica,sans-Serif" font-size="16.00" fill="#383838">sg::vpc::ssm&#45;rule&#45;ingress&#45;tcp&#45;44...</text>
</g>
<!-- SecurityGroupRuleIngress::sg::vpc::ssm&#45;rule&#45;ingress&#45;tcp&#45;443&#45;&gt;SecurityGroup::sg::vpc::ssm -->
<g id="edge7" class="edge">
<title>SecurityGroupRuleIngress::sg::vpc::ssm&#45;rule&#45;ingress&#45;tcp&#45;443&#45;&gt;SecurityGroup::sg::vpc::ssm</title>
<path fill="none" stroke="#707070" d="M265.5,-205.01C274.84,-207.92 284.12,-210.93 293,-214 321.3,-223.78 351.82,-235.84 378.63,-246.97"/>
<polygon fill="#707070" stroke="#707070" points="377.37,-250.24 387.95,-250.87 380.07,-243.78 377.37,-250.24"/>
</g>
<!-- Instance::my&#45;machine -->
<g id="node8" class="node">
<title>Instance::my&#45;machine</title>
<polygon fill="#e5e5e5" stroke="#dddddd" points="224,-509 93,-509 93,-451 224,-451 224,-509"/>
<text text-anchor="start" x="105.5" y="-489.2" font-family="Helvetica,sans-Serif" font-weight="bold" font-size="16.00" fill="#707070">EC2::Instance</text>
<text text-anchor="start" x="105.5" y="-464.2" font-family="Helvetica,sans-Serif" font-size="16.00" fill="#383838">my&#45;machine</text>
</g>
<!-- Instance::my&#45;machine&#45;&gt;Subnet::vpc::subnet&#45;private1&#45;us&#45;east&#45;1a -->
<g id="edge8" class="edge">
<title>Instance::my&#45;machine&#45;&gt;Subnet::vpc::subnet&#45;private1&#45;us&#45;east&#45;1a</title>
<path fill="none" stroke="#707070" d="M224.12,-463.16C246.14,-457.01 270.79,-449.67 293,-442 321.3,-432.22 351.82,-420.16 378.63,-409.03"/>
<polygon fill="#707070" stroke="#707070" points="380.07,-412.22 387.95,-405.13 377.37,-405.76 380.07,-412.22"/>
</g>
<!-- Instance::my&#45;machine&#45;&gt;SecurityGroup::sg::vpc::ssm -->
<g id="edge10" class="edge">
<title>Instance::my&#45;machine&#45;&gt;SecurityGroup::sg::vpc::ssm</title>
<path fill="none" stroke="#707070" d="M224.17,-474.23C248.36,-469.08 274.44,-459.55 293,-442 328.54,-408.39 296.18,-374.27 329,-338 337.39,-328.73 347.56,-320.83 358.43,-314.13"/>
<polygon fill="#707070" stroke="#707070" points="360.39,-317.05 367.29,-309.01 356.88,-310.99 360.39,-317.05"/>
</g>
<!-- InstanceProfile::role&#45;ec2&#45;ssm -->
<g id="node13" class="node">
<title>InstanceProfile::role&#45;ec2&#45;ssm</title>
<polygon fill="#e5e5e5" stroke="#dddddd" points="545,-509 366,-509 366,-451 545,-451 545,-509"/>
<text text-anchor="start" x="378.5" y="-489.2" font-family="Helvetica,sans-Serif" font-weight="bold" font-size="16.00" fill="#707070">IAM::InstanceProfile</text>
<text text-anchor="start" x="378.5" y="-464.2" font-family="Helvetica,sans-Serif" font-size="16.00" fill="#383838">role&#45;ec2&#45;ssm</text>
</g>
<!-- Instance::my&#45;machine&#45;&gt;InstanceProfile::role&#45;ec2&#45;ssm -->
<g id="edge9" class="edge">
<title>Instance::my&#45;machine&#45;&gt;InstanceProfile::role&#45;ec2&#45;ssm</title>
<path fill="none" stroke="#707070" d="M224.24,-480C262.79,-480 312.49,-480 355.85,-480"/>
<polygon fill="#707070" stroke="#707070" points="355.85,-483.5 365.85,-480 355.85,-476.5 355.85,-483.5"/>
</g>
<!-- VpcEndpoint::vpce&#45;ec2&#45;messages -->
<g id="node9" class="node">
<title>VpcEndpoint::vpce&#45;ec2&#45;messages</title>
<polygon fill="#e5e5e5" stroke="#dddddd" points="243.5,-129 73.5,-129 73.5,-71 243.5,-71 243.5,-129"/>
<text text-anchor="start" x="85.5" y="-109.2" font-family="Helvetica,sans-Serif" font-weight="bold" font-size="16.00" fill="#707070">EC2::VpcEndpoint</text>
<text text-anchor="start" x="85.5" y="-84.2" font-family="Helvetica,sans-Serif" font-size="16.00" fill="#383838">vpce&#45;ec2&#45;messages</text>
</g>
<!-- VpcEndpoint::vpce&#45;ec2&#45;messages&#45;&gt;Vpc::vpc -->
<g id="edge11" class="edge">
<title>VpcEndpoint::vpce&#45;ec2&#45;messages&#45;&gt;Vpc::vpc</title>
<path fill="none" stroke="#707070" d="M243.52,-113.89C333.56,-131.88 477.59,-169.87 582,-242 609.8,-261.2 634.33,-290.59 651.36,-314.16"/>
<polygon fill="#707070" stroke="#707070" points="648.65,-316.4 657.28,-322.55 654.37,-312.36 648.65,-316.4"/>
</g>
<!-- VpcEndpoint::vpce&#45;ec2&#45;messages&#45;&gt;Subnet::vpc::subnet&#45;private1&#45;us&#45;east&#45;1a -->
<g id="edge12" class="edge">
<title>VpcEndpoint::vpce&#45;ec2&#45;messages&#45;&gt;Subnet::vpc::subnet&#45;private1&#45;us&#45;east&#45;1a</title>
<path fill="none" stroke="#707070" d="M243.84,-109.21C262.21,-114.92 280.01,-123.92 293,-138 348.34,-197.95 278.49,-253.93 329,-318 336.18,-327.11 345.13,-334.85 354.92,-341.41"/>
<polygon fill="#707070" stroke="#707070" points="353.37,-344.57 363.71,-346.87 357.06,-338.62 353.37,-344.57"/>
</g>
<!-- VpcEndpoint::vpce&#45;ec2&#45;messages&#45;&gt;SecurityGroup::sg::vpc::ssm -->
<g id="edge13" class="edge">
<title>VpcEndpoint::vpce&#45;ec2&#45;messages&#45;&gt;SecurityGroup::sg::vpc::ssm</title>
<path fill="none" stroke="#707070" d="M243.79,-117.56C260.67,-122.83 277.85,-129.54 293,-138 311.95,-148.59 312.8,-156.55 329,-171 356.69,-195.71 388.22,-223.09 412.76,-244.23"/>
<polygon fill="#707070" stroke="#707070" points="410.6,-247 420.46,-250.87 415.17,-241.69 410.6,-247"/>
</g>
<!-- VpcEndpoint::vpce&#45;ssm -->
<g id="node10" class="node">
<title>VpcEndpoint::vpce&#45;ssm</title>
<polygon fill="#e5e5e5" stroke="#dddddd" points="240.5,-433 76.5,-433 76.5,-375 240.5,-375 240.5,-433"/>
<text text-anchor="start" x="88.5" y="-413.2" font-family="Helvetica,sans-Serif" font-weight="bold" font-size="16.00" fill="#707070">EC2::VpcEndpoint</text>
<text text-anchor="start" x="88.5" y="-388.2" font-family="Helvetica,sans-Serif" font-size="16.00" fill="#383838">vpce&#45;ssm</text>
</g>
<!-- VpcEndpoint::vpce&#45;ssm&#45;&gt;Vpc::vpc -->
<g id="edge14" class="edge">
<title>VpcEndpoint::vpce&#45;ssm&#45;&gt;Vpc::vpc</title>
<path fill="none" stroke="#707070" d="M240.51,-420.54C327.06,-434.88 467.28,-448.43 582,-414 600.48,-408.45 618.69,-397.96 634.09,-387.17"/>
<polygon fill="#707070" stroke="#707070" points="636.3,-389.88 642.33,-381.17 632.19,-384.22 636.3,-389.88"/>
</g>
<!-- VpcEndpoint::vpce&#45;ssm&#45;&gt;Subnet::vpc::subnet&#45;private1&#45;us&#45;east&#45;1a -->
<g id="edge15" class="edge">
<title>VpcEndpoint::vpce&#45;ssm&#45;&gt;Subnet::vpc::subnet&#45;private1&#45;us&#45;east&#45;1a</title>
<path fill="none" stroke="#707070" d="M240.5,-396.31C264.7,-394.01 291.92,-391.43 318.63,-388.9"/>
<polygon fill="#707070" stroke="#707070" points="319.21,-392.36 328.83,-387.93 318.55,-385.39 319.21,-392.36"/>
</g>
<!-- VpcEndpoint::vpce&#45;ssm&#45;&gt;SecurityGroup::sg::vpc::ssm -->
<g id="edge16" class="edge">
<title>VpcEndpoint::vpce&#45;ssm&#45;&gt;SecurityGroup::sg::vpc::ssm</title>
<path fill="none" stroke="#707070" d="M240.81,-386.23C258.5,-380.91 276.77,-374.23 293,-366 311.08,-356.83 311.69,-348.54 329,-338 343.48,-329.18 359.53,-320.81 375.17,-313.32"/>
<polygon fill="#707070" stroke="#707070" points="376.76,-316.44 384.32,-309.01 373.78,-310.11 376.76,-316.44"/>
</g>
<!-- VpcEndpoint::vpce&#45;ssm&#45;messages -->
<g id="node11" class="node">
<title>VpcEndpoint::vpce&#45;ssm&#45;messages</title>
<polygon fill="#e5e5e5" stroke="#dddddd" points="245.5,-357 71.5,-357 71.5,-299 245.5,-299 245.5,-357"/>
<text text-anchor="start" x="83.5" y="-337.2" font-family="Helvetica,sans-Serif" font-weight="bold" font-size="16.00" fill="#707070">EC2::VpcEndpoint</text>
<text text-anchor="start" x="83.5" y="-312.2" font-family="Helvetica,sans-Serif" font-size="16.00" fill="#383838">vpce&#45;ssm&#45;messages</text>
</g>
<!-- VpcEndpoint::vpce&#45;ssm&#45;messages&#45;&gt;Vpc::vpc -->
<g id="edge17" class="edge">
<title>VpcEndpoint::vpce&#45;ssm&#45;messages&#45;&gt;Vpc::vpc</title>
<path fill="none" stroke="#707070" d="M245.85,-326.91C331.36,-326.57 465.95,-328.02 582,-338 594.07,-339.04 606.95,-340.63 619.19,-342.38"/>
<polygon fill="#707070" stroke="#707070" points="618.87,-345.87 629.28,-343.87 619.9,-338.95 618.87,-345.87"/>
</g>
<!-- VpcEndpoint::vpce&#45;ssm&#45;messages&#45;&gt;Subnet::vpc::subnet&#45;private1&#45;us&#45;east&#45;1a -->
<g id="edge18" class="edge">
<title>VpcEndpoint::vpce&#45;ssm&#45;messages&#45;&gt;Subnet::vpc::subnet&#45;private1&#45;us&#45;east&#45;1a</title>
<path fill="none" stroke="#707070" d="M245.62,-342.01C268.59,-345.75 293.98,-349.88 318.91,-353.94"/>
<polygon fill="#707070" stroke="#707070" points="318.37,-357.4 328.81,-355.55 319.5,-350.49 318.37,-357.4"/>
</g>
<!-- VpcEndpoint::vpce&#45;ssm&#45;messages&#45;&gt;SecurityGroup::sg::vpc::ssm -->
<g id="edge19" class="edge">
<title>VpcEndpoint::vpce&#45;ssm&#45;messages&#45;&gt;SecurityGroup::sg::vpc::ssm</title>
<path fill="none" stroke="#707070" d="M245.62,-313.99C280.52,-308.31 321,-301.72 356.98,-295.87"/>
<polygon fill="#707070" stroke="#707070" points="357.69,-299.3 367,-294.24 356.56,-292.39 357.69,-299.3"/>
</g>
<!-- Role::role&#45;ec2&#45;ssm -->
<g id="node12" class="node">
<title>Role::role&#45;ec2&#45;ssm</title>
<polygon fill="#e5e5e5" stroke="#dddddd" points="736,-509 618,-509 618,-451 736,-451 736,-509"/>
<text text-anchor="start" x="630" y="-489.2" font-family="Helvetica,sans-Serif" font-weight="bold" font-size="16.00" fill="#707070">IAM::Role</text>
<text text-anchor="start" x="630" y="-464.2" font-family="Helvetica,sans-Serif" font-size="16.00" fill="#383838">role&#45;ec2&#45;ssm</text>
</g>
<!-- InstanceProfile::role&#45;ec2&#45;ssm&#45;&gt;Role::role&#45;ec2&#45;ssm -->
<g id="edge20" class="edge">
<title>InstanceProfile::role&#45;ec2&#45;ssm&#45;&gt;Role::role&#45;ec2&#45;ssm</title>
<path fill="none" stroke="#707070" d="M545.15,-480C566.02,-480 587.95,-480 607.76,-480"/>
<polygon fill="#707070" stroke="#707070" points="607.91,-483.5 617.91,-480 607.91,-476.5 607.91,-483.5"/>
</g>
</g>
</svg>
