<?xml version="1.0" encoding="UTF-8" standalone="no"?>
<!DOCTYPE svg PUBLIC "-//W3C//DTD SVG 1.1//EN"
 "http://www.w3.org/Graphics/SVG/1.1/DTD/svg11.dtd">
<!-- Generated by graphviz version 2.44.1 (20200629.0846)
 -->
<!-- Title: graphname Pages: 1 -->
<svg width="1390pt" height="937pt"
 viewBox="0.00 0.00 1390.00 937.00" xmlns="http://www.w3.org/2000/svg" xmlns:xlink="http://www.w3.org/1999/xlink">
<g id="graph0" class="graph" transform="scale(1 1) rotate(0) translate(4 933)">
<title>graphname</title>
<polygon fill="#fafafa" stroke="transparent" points="-4,4 -4,-933 1386,-933 1386,4 -4,4"/>
<text text-anchor="start" x="506" y="-904.4" font-family="Helvetica,sans-Serif" font-weight="bold" font-size="22.00" fill="#383838">Project AWS Load Balancer Module</text>
<text text-anchor="start" x="687" y="-888.8" font-family="Helvetica,sans-Serif" font-size="14.00"> &#160;</text>
<text text-anchor="start" x="506" y="-867.2" font-family="Helvetica,sans-Serif" font-weight="bold" font-size="16.00" fill="#707070">Target Diagram</text>
<g id="clust1" class="cluster">
<title>cluster_aws</title>
<polygon fill="#f5f5f5" stroke="#f5f5f5" points="8,-8 8,-845 1374,-845 1374,-8 8,-8"/>
<text text-anchor="start" x="629" y="-23" font-family="Helvetica,sans-Serif" font-weight="bold" font-size="20.00" fill="#707070">Provider aws</text>
</g>
<g id="clust5" class="cluster">
<title>cluster_aws_LoadBalancer</title>
<polygon fill="#eeeeee" stroke="#eeeeee" points="16,-257 16,-609 1118,-609 1118,-257 16,-257"/>
<text text-anchor="start" x="501" y="-268" font-family="Helvetica,sans-Serif" font-weight="bold" font-size="20.00" fill="#383838">LoadBalancer</text>
</g>
<g id="clust2" class="cluster">
<title>cluster_aws_</title>
<polygon fill="#eeeeee" stroke="#eeeeee" points="549,-166 549,-249 1060,-249 1060,-166 549,-166"/>
<text text-anchor="start" x="804.36" y="-170.3" font-family="Helvetica,sans-Serif" font-size="1.00" fill="#383838"> </text>
</g>
<g id="clust3" class="cluster">
<title>cluster_aws_Certificate</title>
<polygon fill="#eeeeee" stroke="#eeeeee" points="243.5,-54 243.5,-158 851,-158 851,-54 243.5,-54"/>
<text text-anchor="start" x="498.25" y="-65" font-family="Helvetica,sans-Serif" font-weight="bold" font-size="20.00" fill="#383838">Certificate</text>
</g>
<g id="clust4" class="cluster">
<title>cluster_aws_VPC</title>
<polygon fill="#eeeeee" stroke="#eeeeee" points="320,-617 320,-837 1366,-837 1366,-617 320,-617"/>
<text text-anchor="start" x="822" y="-628" font-family="Helvetica,sans-Serif" font-weight="bold" font-size="20.00" fill="#383838">VPC</text>
</g>
<!-- Domain::grucloud.org -->
<g id="node1" class="node">
<title>Domain::grucloud.org</title>
<polygon fill="#e5e5e5" stroke="#dddddd" points="1052,-241 937,-241 937,-183 1052,-183 1052,-241"/>
<text text-anchor="start" x="949.5" y="-221.2" font-family="Helvetica,sans-Serif" font-weight="bold" font-size="16.00" fill="#707070">Domain</text>
<text text-anchor="start" x="949.5" y="-196.2" font-family="Helvetica,sans-Serif" font-size="16.00" fill="#383838">grucloud.org</text>
</g>
<!-- HostedZone::mod&#45;aws&#45;load&#45;balancer.grucloud.org. -->
<g id="node2" class="node">
<title>HostedZone::mod&#45;aws&#45;load&#45;balancer.grucloud.org.</title>
<polygon fill="#e5e5e5" stroke="#dddddd" points="843,-241 557,-241 557,-183 843,-183 843,-241"/>
<text text-anchor="start" x="569" y="-221.2" font-family="Helvetica,sans-Serif" font-weight="bold" font-size="16.00" fill="#707070">HostedZone</text>
<text text-anchor="start" x="569" y="-196.2" font-family="Helvetica,sans-Serif" font-size="16.00" fill="#383838">mod&#45;aws&#45;load&#45;balancer.grucloud.o...</text>
</g>
<!-- HostedZone::mod&#45;aws&#45;load&#45;balancer.grucloud.org.&#45;&gt;Domain::grucloud.org -->
<g id="edge1" class="edge">
<title>HostedZone::mod&#45;aws&#45;load&#45;balancer.grucloud.org.&#45;&gt;Domain::grucloud.org</title>
<path fill="none" stroke="#707070" d="M843.39,-212C872.51,-212 901.83,-212 926.73,-212"/>
<polygon fill="#707070" stroke="#707070" points="926.76,-215.5 936.76,-212 926.76,-208.5 926.76,-215.5"/>
</g>
<!-- Certificate::mod&#45;aws&#45;load&#45;balancer.grucloud.org -->
<g id="node3" class="node">
<title>Certificate::mod&#45;aws&#45;load&#45;balancer.grucloud.org</title>
<polygon fill="#e5e5e5" stroke="#dddddd" points="843,-150 557,-150 557,-92 843,-92 843,-150"/>
<text text-anchor="start" x="569" y="-130.2" font-family="Helvetica,sans-Serif" font-weight="bold" font-size="16.00" fill="#707070">Certificate</text>
<text text-anchor="start" x="569" y="-105.2" font-family="Helvetica,sans-Serif" font-size="16.00" fill="#383838">mod&#45;aws&#45;load&#45;balancer.grucloud.o...</text>
</g>
<!-- Record::certificate&#45;validation&#45;mod&#45;aws&#45;load&#45;balancer.grucloud.org. -->
<g id="node4" class="node">
<title>Record::certificate&#45;validation&#45;mod&#45;aws&#45;load&#45;balancer.grucloud.org.</title>
<polygon fill="#e5e5e5" stroke="#dddddd" points="513.5,-150 251.5,-150 251.5,-92 513.5,-92 513.5,-150"/>
<text text-anchor="start" x="263.5" y="-130.2" font-family="Helvetica,sans-Serif" font-weight="bold" font-size="16.00" fill="#707070">Record</text>
<text text-anchor="start" x="263.5" y="-105.2" font-family="Helvetica,sans-Serif" font-size="16.00" fill="#383838">certificate&#45;validation&#45;mod&#45;aws&#45;l...</text>
</g>
<!-- Record::certificate&#45;validation&#45;mod&#45;aws&#45;load&#45;balancer.grucloud.org.&#45;&gt;HostedZone::mod&#45;aws&#45;load&#45;balancer.grucloud.org. -->
<g id="edge2" class="edge">
<title>Record::certificate&#45;validation&#45;mod&#45;aws&#45;load&#45;balancer.grucloud.org.&#45;&gt;HostedZone::mod&#45;aws&#45;load&#45;balancer.grucloud.org.</title>
<path fill="none" stroke="#707070" d="M484.19,-150.04C517.43,-159.63 554.57,-170.34 588.5,-180.13"/>
<polygon fill="#707070" stroke="#707070" points="587.87,-183.59 598.45,-183 589.81,-176.86 587.87,-183.59"/>
</g>
<!-- Record::certificate&#45;validation&#45;mod&#45;aws&#45;load&#45;balancer.grucloud.org.&#45;&gt;Certificate::mod&#45;aws&#45;load&#45;balancer.grucloud.org -->
<g id="edge3" class="edge">
<title>Record::certificate&#45;validation&#45;mod&#45;aws&#45;load&#45;balancer.grucloud.org.&#45;&gt;Certificate::mod&#45;aws&#45;load&#45;balancer.grucloud.org</title>
<path fill="none" stroke="#707070" d="M513.65,-121C524.56,-121 535.66,-121 546.73,-121"/>
<polygon fill="#707070" stroke="#707070" points="546.87,-124.5 556.87,-121 546.87,-117.5 546.87,-124.5"/>
</g>
<!-- Vpc::vpc&#45;module&#45;load&#45;balancer -->
<g id="node5" class="node">
<title>Vpc::vpc&#45;module&#45;load&#45;balancer</title>
<polygon fill="#e5e5e5" stroke="#dddddd" points="1358,-713 1146,-713 1146,-655 1358,-655 1358,-713"/>
<text text-anchor="start" x="1158" y="-693.2" font-family="Helvetica,sans-Serif" font-weight="bold" font-size="16.00" fill="#707070">Vpc</text>
<text text-anchor="start" x="1158" y="-668.2" font-family="Helvetica,sans-Serif" font-size="16.00" fill="#383838">vpc&#45;module&#45;load&#45;balancer</text>
</g>
<!-- InternetGateway::internet&#45;gateway -->
<g id="node6" class="node">
<title>InternetGateway::internet&#45;gateway</title>
<polygon fill="#e5e5e5" stroke="#dddddd" points="775,-829 625,-829 625,-771 775,-771 775,-829"/>
<text text-anchor="start" x="637" y="-809.2" font-family="Helvetica,sans-Serif" font-weight="bold" font-size="16.00" fill="#707070">InternetGateway</text>
<text text-anchor="start" x="637" y="-784.2" font-family="Helvetica,sans-Serif" font-size="16.00" fill="#383838">internet&#45;gateway</text>
</g>
<!-- InternetGateway::internet&#45;gateway&#45;&gt;Vpc::vpc&#45;module&#45;load&#45;balancer -->
<g id="edge4" class="edge">
<title>InternetGateway::internet&#45;gateway&#45;&gt;Vpc::vpc&#45;module&#45;load&#45;balancer</title>
<path fill="none" stroke="#707070" d="M775.27,-818.78C861.14,-836.71 1005.15,-854.97 1118,-810 1162.56,-792.24 1200.78,-751.68 1224.66,-721.34"/>
<polygon fill="#707070" stroke="#707070" points="1227.69,-723.14 1231.01,-713.08 1222.14,-718.87 1227.69,-723.14"/>
</g>
<!-- Subnet::subnet&#45;public&#45;a -->
<g id="node7" class="node">
<title>Subnet::subnet&#45;public&#45;a</title>
<polygon fill="#e5e5e5" stroke="#dddddd" points="1062.5,-713 926.5,-713 926.5,-655 1062.5,-655 1062.5,-713"/>
<text text-anchor="start" x="938.5" y="-693.2" font-family="Helvetica,sans-Serif" font-weight="bold" font-size="16.00" fill="#707070">Subnet</text>
<text text-anchor="start" x="938.5" y="-668.2" font-family="Helvetica,sans-Serif" font-size="16.00" fill="#383838">subnet&#45;public&#45;a</text>
</g>
<!-- Subnet::subnet&#45;public&#45;a&#45;&gt;Vpc::vpc&#45;module&#45;load&#45;balancer -->
<g id="edge5" class="edge">
<title>Subnet::subnet&#45;public&#45;a&#45;&gt;Vpc::vpc&#45;module&#45;load&#45;balancer</title>
<path fill="none" stroke="#707070" d="M1062.63,-684C1084.98,-684 1110.55,-684 1135.5,-684"/>
<polygon fill="#707070" stroke="#707070" points="1135.76,-687.5 1145.76,-684 1135.76,-680.5 1135.76,-687.5"/>
</g>
<!-- Subnet::subnet&#45;public&#45;b -->
<g id="node8" class="node">
<title>Subnet::subnet&#45;public&#45;b</title>
<polygon fill="#e5e5e5" stroke="#dddddd" points="1062.5,-789 926.5,-789 926.5,-731 1062.5,-731 1062.5,-789"/>
<text text-anchor="start" x="938.5" y="-769.2" font-family="Helvetica,sans-Serif" font-weight="bold" font-size="16.00" fill="#707070">Subnet</text>
<text text-anchor="start" x="938.5" y="-744.2" font-family="Helvetica,sans-Serif" font-size="16.00" fill="#383838">subnet&#45;public&#45;b</text>
</g>
<!-- Subnet::subnet&#45;public&#45;b&#45;&gt;Vpc::vpc&#45;module&#45;load&#45;balancer -->
<g id="edge6" class="edge">
<title>Subnet::subnet&#45;public&#45;b&#45;&gt;Vpc::vpc&#45;module&#45;load&#45;balancer</title>
<path fill="none" stroke="#707070" d="M1062.63,-740.03C1087.36,-732.68 1116.04,-724.14 1143.45,-715.99"/>
<polygon fill="#707070" stroke="#707070" points="1144.49,-719.33 1153.08,-713.13 1142.5,-712.62 1144.49,-719.33"/>
</g>
<!-- RouteTable::route&#45;table&#45;public -->
<g id="node9" class="node">
<title>RouteTable::route&#45;table&#45;public</title>
<polygon fill="#e5e5e5" stroke="#dddddd" points="775,-753 625,-753 625,-695 775,-695 775,-753"/>
<text text-anchor="start" x="637" y="-733.2" font-family="Helvetica,sans-Serif" font-weight="bold" font-size="16.00" fill="#707070">RouteTable</text>
<text text-anchor="start" x="637" y="-708.2" font-family="Helvetica,sans-Serif" font-size="16.00" fill="#383838">route&#45;table&#45;public</text>
</g>
<!-- RouteTable::route&#45;table&#45;public&#45;&gt;Vpc::vpc&#45;module&#45;load&#45;balancer -->
<g id="edge7" class="edge">
<title>RouteTable::route&#45;table&#45;public&#45;&gt;Vpc::vpc&#45;module&#45;load&#45;balancer</title>
<path fill="none" stroke="#707070" d="M775.17,-732.76C800.71,-738.29 828.51,-747.3 851,-762 867.97,-773.09 860.79,-789.09 879,-798 926.71,-821.33 1068.19,-816.43 1118,-798 1159.41,-782.68 1196.62,-748.08 1221.08,-720.99"/>
<polygon fill="#707070" stroke="#707070" points="1223.95,-723.02 1227.95,-713.21 1218.7,-718.39 1223.95,-723.02"/>
</g>
<!-- RouteTable::route&#45;table&#45;public&#45;&gt;Subnet::subnet&#45;public&#45;a -->
<g id="edge8" class="edge">
<title>RouteTable::route&#45;table&#45;public&#45;&gt;Subnet::subnet&#45;public&#45;a</title>
<path fill="none" stroke="#707070" d="M775.19,-713.85C818.37,-707.95 872.72,-700.52 916.39,-694.54"/>
<polygon fill="#707070" stroke="#707070" points="916.96,-698 926.39,-693.18 916.01,-691.06 916.96,-698"/>
</g>
<!-- RouteTable::route&#45;table&#45;public&#45;&gt;Subnet::subnet&#45;public&#45;b -->
<g id="edge9" class="edge">
<title>RouteTable::route&#45;table&#45;public&#45;&gt;Subnet::subnet&#45;public&#45;b</title>
<path fill="none" stroke="#707070" d="M775.19,-733.13C818.37,-738.45 872.72,-745.14 916.39,-750.51"/>
<polygon fill="#707070" stroke="#707070" points="916.04,-753.99 926.39,-751.74 916.89,-747.05 916.04,-753.99"/>
</g>
<!-- Route::route&#45;public -->
<g id="node10" class="node">
<title>Route::route&#45;public</title>
<polygon fill="#e5e5e5" stroke="#dddddd" points="437,-791 328,-791 328,-733 437,-733 437,-791"/>
<text text-anchor="start" x="340.5" y="-771.2" font-family="Helvetica,sans-Serif" font-weight="bold" font-size="16.00" fill="#707070">Route</text>
<text text-anchor="start" x="340.5" y="-746.2" font-family="Helvetica,sans-Serif" font-size="16.00" fill="#383838">route&#45;public</text>
</g>
<!-- Route::route&#45;public&#45;&gt;InternetGateway::internet&#45;gateway -->
<g id="edge11" class="edge">
<title>Route::route&#45;public&#45;&gt;InternetGateway::internet&#45;gateway</title>
<path fill="none" stroke="#707070" d="M437.02,-768.45C485.7,-774.31 558.34,-783.06 614.79,-789.86"/>
<polygon fill="#707070" stroke="#707070" points="614.43,-793.34 624.78,-791.06 615.27,-786.39 614.43,-793.34"/>
</g>
<!-- Route::route&#45;public&#45;&gt;RouteTable::route&#45;table&#45;public -->
<g id="edge10" class="edge">
<title>Route::route&#45;public&#45;&gt;RouteTable::route&#45;table&#45;public</title>
<path fill="none" stroke="#707070" d="M437.02,-755.55C485.7,-749.69 558.34,-740.94 614.79,-734.14"/>
<polygon fill="#707070" stroke="#707070" points="615.27,-737.61 624.78,-732.94 614.43,-730.66 615.27,-737.61"/>
</g>
<!-- SecurityGroup::security&#45;group&#45;load&#45;balancer -->
<g id="node11" class="node">
<title>SecurityGroup::security&#45;group&#45;load&#45;balancer</title>
<polygon fill="#e5e5e5" stroke="#dddddd" points="1110,-563 879,-563 879,-505 1110,-505 1110,-563"/>
<text text-anchor="start" x="891.5" y="-543.2" font-family="Helvetica,sans-Serif" font-weight="bold" font-size="16.00" fill="#707070">SecurityGroup</text>
<text text-anchor="start" x="891.5" y="-518.2" font-family="Helvetica,sans-Serif" font-size="16.00" fill="#383838">security&#45;group&#45;load&#45;balancer</text>
</g>
<!-- SecurityGroup::security&#45;group&#45;load&#45;balancer&#45;&gt;Vpc::vpc&#45;module&#45;load&#45;balancer -->
<g id="edge12" class="edge">
<title>SecurityGroup::security&#45;group&#45;load&#45;balancer&#45;&gt;Vpc::vpc&#45;module&#45;load&#45;balancer</title>
<path fill="none" stroke="#707070" d="M1045.07,-563.1C1087.38,-587.94 1148.28,-623.69 1192.88,-649.88"/>
<polygon fill="#707070" stroke="#707070" points="1191.18,-652.94 1201.57,-654.98 1194.72,-646.9 1191.18,-652.94"/>
</g>
<!-- SecurityGroupRuleIngress::sg&#45;rule&#45;ingress&#45;lb&#45;http -->
<g id="node12" class="node">
<title>SecurityGroupRuleIngress::sg&#45;rule&#45;ingress&#45;lb&#45;http</title>
<polygon fill="#e5e5e5" stroke="#dddddd" points="813.5,-449 586.5,-449 586.5,-391 813.5,-391 813.5,-449"/>
<text text-anchor="start" x="599" y="-429.2" font-family="Helvetica,sans-Serif" font-weight="bold" font-size="16.00" fill="#707070">SecurityGroupRuleIngress</text>
<text text-anchor="start" x="599" y="-404.2" font-family="Helvetica,sans-Serif" font-size="16.00" fill="#383838">sg&#45;rule&#45;ingress&#45;lb&#45;http</text>
</g>
<!-- SecurityGroupRuleIngress::sg&#45;rule&#45;ingress&#45;lb&#45;http&#45;&gt;SecurityGroup::security&#45;group&#45;load&#45;balancer -->
<g id="edge13" class="edge">
<title>SecurityGroupRuleIngress::sg&#45;rule&#45;ingress&#45;lb&#45;http&#45;&gt;SecurityGroup::security&#45;group&#45;load&#45;balancer</title>
<path fill="none" stroke="#707070" d="M813.74,-445.4C826.45,-449.19 839.1,-453.4 851,-458 880.47,-469.4 911.62,-485.49 937.25,-499.94"/>
<polygon fill="#707070" stroke="#707070" points="935.65,-503.06 946.07,-504.97 939.12,-496.97 935.65,-503.06"/>
</g>
<!-- SecurityGroupRuleIngress::sg&#45;rule&#45;ingress&#45;lb&#45;https -->
<g id="node13" class="node">
<title>SecurityGroupRuleIngress::sg&#45;rule&#45;ingress&#45;lb&#45;https</title>
<polygon fill="#e5e5e5" stroke="#dddddd" points="813.5,-525 586.5,-525 586.5,-467 813.5,-467 813.5,-525"/>
<text text-anchor="start" x="599" y="-505.2" font-family="Helvetica,sans-Serif" font-weight="bold" font-size="16.00" fill="#707070">SecurityGroupRuleIngress</text>
<text text-anchor="start" x="599" y="-480.2" font-family="Helvetica,sans-Serif" font-size="16.00" fill="#383838">sg&#45;rule&#45;ingress&#45;lb&#45;https</text>
</g>
<!-- SecurityGroupRuleIngress::sg&#45;rule&#45;ingress&#45;lb&#45;https&#45;&gt;SecurityGroup::security&#45;group&#45;load&#45;balancer -->
<g id="edge14" class="edge">
<title>SecurityGroupRuleIngress::sg&#45;rule&#45;ingress&#45;lb&#45;https&#45;&gt;SecurityGroup::security&#45;group&#45;load&#45;balancer</title>
<path fill="none" stroke="#707070" d="M813.67,-510.64C831.73,-512.98 850.51,-515.42 868.83,-517.8"/>
<polygon fill="#707070" stroke="#707070" points="868.59,-521.3 878.95,-519.12 869.49,-514.36 868.59,-521.3"/>
</g>
<!-- LoadBalancer::load&#45;balancer -->
<g id="node14" class="node">
<title>LoadBalancer::load&#45;balancer</title>
<polygon fill="#e5e5e5" stroke="#dddddd" points="765,-601 635,-601 635,-543 765,-543 765,-601"/>
<text text-anchor="start" x="647" y="-581.2" font-family="Helvetica,sans-Serif" font-weight="bold" font-size="16.00" fill="#707070">LoadBalancer</text>
<text text-anchor="start" x="647" y="-556.2" font-family="Helvetica,sans-Serif" font-size="16.00" fill="#383838">load&#45;balancer</text>
</g>
<!-- LoadBalancer::load&#45;balancer&#45;&gt;Subnet::subnet&#45;public&#45;a -->
<g id="edge15" class="edge">
<title>LoadBalancer::load&#45;balancer&#45;&gt;Subnet::subnet&#45;public&#45;a</title>
<path fill="none" stroke="#707070" d="M765.01,-586.56C791.95,-593.44 823.38,-602.46 851,-613 878.37,-623.44 907.5,-637.41 932.24,-650.19"/>
<polygon fill="#707070" stroke="#707070" points="930.67,-653.31 941.15,-654.84 933.9,-647.11 930.67,-653.31"/>
</g>
<!-- LoadBalancer::load&#45;balancer&#45;&gt;Subnet::subnet&#45;public&#45;b -->
<g id="edge16" class="edge">
<title>LoadBalancer::load&#45;balancer&#45;&gt;Subnet::subnet&#45;public&#45;b</title>
<path fill="none" stroke="#707070" d="M765.29,-575.11C795.03,-579.82 828.65,-590.3 851,-613 886.09,-648.64 844.87,-685.43 879,-722 889.16,-732.89 902.51,-740.66 916.49,-746.2"/>
<polygon fill="#707070" stroke="#707070" points="915.64,-749.62 926.24,-749.7 918,-743.03 915.64,-749.62"/>
</g>
<!-- LoadBalancer::load&#45;balancer&#45;&gt;SecurityGroup::security&#45;group&#45;load&#45;balancer -->
<g id="edge17" class="edge">
<title>LoadBalancer::load&#45;balancer&#45;&gt;SecurityGroup::security&#45;group&#45;load&#45;balancer</title>
<path fill="none" stroke="#707070" d="M765.19,-563.66C795.63,-559.71 833.07,-554.84 868.77,-550.2"/>
<polygon fill="#707070" stroke="#707070" points="869.32,-553.66 878.78,-548.9 868.42,-546.72 869.32,-553.66"/>
</g>
<!-- TargetGroup::target&#45;group&#45;web -->
<g id="node15" class="node">
<title>TargetGroup::target&#45;group&#45;web</title>
<polygon fill="#e5e5e5" stroke="#dddddd" points="773.5,-373 626.5,-373 626.5,-315 773.5,-315 773.5,-373"/>
<text text-anchor="start" x="639" y="-353.2" font-family="Helvetica,sans-Serif" font-weight="bold" font-size="16.00" fill="#707070">TargetGroup</text>
<text text-anchor="start" x="639" y="-328.2" font-family="Helvetica,sans-Serif" font-size="16.00" fill="#383838">target&#45;group&#45;web</text>
</g>
<!-- TargetGroup::target&#45;group&#45;web&#45;&gt;Vpc::vpc&#45;module&#45;load&#45;balancer -->
<g id="edge18" class="edge">
<title>TargetGroup::target&#45;group&#45;web&#45;&gt;Vpc::vpc&#45;module&#45;load&#45;balancer</title>
<path fill="none" stroke="#707070" d="M773.7,-355.61C862.98,-372.97 1015.19,-412.98 1118,-496 1169.47,-537.57 1209.98,-603.95 1232.18,-645.7"/>
<polygon fill="#707070" stroke="#707070" points="1229.17,-647.49 1236.9,-654.73 1235.37,-644.25 1229.17,-647.49"/>
</g>
<!-- TargetGroup::target&#45;group&#45;rest -->
<g id="node16" class="node">
<title>TargetGroup::target&#45;group&#45;rest</title>
<polygon fill="#e5e5e5" stroke="#dddddd" points="455,-353 310,-353 310,-295 455,-295 455,-353"/>
<text text-anchor="start" x="322.5" y="-333.2" font-family="Helvetica,sans-Serif" font-weight="bold" font-size="16.00" fill="#707070">TargetGroup</text>
<text text-anchor="start" x="322.5" y="-308.2" font-family="Helvetica,sans-Serif" font-size="16.00" fill="#383838">target&#45;group&#45;rest</text>
</g>
<!-- TargetGroup::target&#45;group&#45;rest&#45;&gt;Vpc::vpc&#45;module&#45;load&#45;balancer -->
<g id="edge19" class="edge">
<title>TargetGroup::target&#45;group&#45;rest&#45;&gt;Vpc::vpc&#45;module&#45;load&#45;balancer</title>
<path fill="none" stroke="#707070" d="M455.2,-304.32C599.78,-269.38 928.65,-214.56 1118,-378 1200,-448.78 1233.17,-579.43 1245.09,-644.72"/>
<polygon fill="#707070" stroke="#707070" points="1241.65,-645.37 1246.83,-654.61 1248.55,-644.16 1241.65,-645.37"/>
</g>
<!-- Listener::listener&#45;http -->
<g id="node17" class="node">
<title>Listener::listener&#45;http</title>
<polygon fill="#e5e5e5" stroke="#dddddd" points="437,-601 328,-601 328,-543 437,-543 437,-601"/>
<text text-anchor="start" x="340.5" y="-581.2" font-family="Helvetica,sans-Serif" font-weight="bold" font-size="16.00" fill="#707070">Listener</text>
<text text-anchor="start" x="340.5" y="-556.2" font-family="Helvetica,sans-Serif" font-size="16.00" fill="#383838">listener&#45;http</text>
</g>
<!-- Listener::listener&#45;http&#45;&gt;LoadBalancer::load&#45;balancer -->
<g id="edge20" class="edge">
<title>Listener::listener&#45;http&#45;&gt;LoadBalancer::load&#45;balancer</title>
<path fill="none" stroke="#707070" d="M437.02,-572C488.6,-572 567.09,-572 624.71,-572"/>
<polygon fill="#707070" stroke="#707070" points="624.85,-575.5 634.85,-572 624.85,-568.5 624.85,-575.5"/>
</g>
<!-- Listener::listener&#45;http&#45;&gt;TargetGroup::target&#45;group&#45;web -->
<g id="edge21" class="edge">
<title>Listener::listener&#45;http&#45;&gt;TargetGroup::target&#45;group&#45;web</title>
<path fill="none" stroke="#707070" d="M437.3,-568.25C466.13,-563.4 499.95,-552.62 521,-529 565.25,-479.35 503.4,-430.42 549,-382 566.4,-363.52 591.39,-353.51 616,-348.23"/>
<polygon fill="#707070" stroke="#707070" points="616.95,-351.61 626.12,-346.3 615.65,-344.73 616.95,-351.61"/>
</g>
<!-- Listener::listener&#45;https -->
<g id="node18" class="node">
<title>Listener::listener&#45;https</title>
<polygon fill="#e5e5e5" stroke="#dddddd" points="441.5,-429 323.5,-429 323.5,-371 441.5,-371 441.5,-429"/>
<text text-anchor="start" x="335.5" y="-409.2" font-family="Helvetica,sans-Serif" font-weight="bold" font-size="16.00" fill="#707070">Listener</text>
<text text-anchor="start" x="335.5" y="-384.2" font-family="Helvetica,sans-Serif" font-size="16.00" fill="#383838">listener&#45;https</text>
</g>
<!-- Listener::listener&#45;https&#45;&gt;Certificate::mod&#45;aws&#45;load&#45;balancer.grucloud.org -->
<g id="edge24" class="edge">
<title>Listener::listener&#45;https&#45;&gt;Certificate::mod&#45;aws&#45;load&#45;balancer.grucloud.org</title>
<path fill="none" stroke="#707070" d="M441.74,-398.19C469.7,-394.17 501.32,-384.43 521,-362 580.19,-294.53 489.71,-229.39 549,-162 550.56,-160.23 552.18,-158.53 553.87,-156.91"/>
<polygon fill="#707070" stroke="#707070" points="556.35,-159.39 561.65,-150.21 551.79,-154.08 556.35,-159.39"/>
</g>
<!-- Listener::listener&#45;https&#45;&gt;LoadBalancer::load&#45;balancer -->
<g id="edge22" class="edge">
<title>Listener::listener&#45;https&#45;&gt;LoadBalancer::load&#45;balancer</title>
<path fill="none" stroke="#707070" d="M441.8,-403.28C469.09,-407.72 500.1,-417.4 521,-438 552.65,-469.2 517.02,-503.14 549,-534 569.14,-553.44 597.73,-563.35 624.56,-568.26"/>
<polygon fill="#707070" stroke="#707070" points="624.31,-571.77 634.74,-569.91 625.43,-564.86 624.31,-571.77"/>
</g>
<!-- Listener::listener&#45;https&#45;&gt;TargetGroup::target&#45;group&#45;web -->
<g id="edge23" class="edge">
<title>Listener::listener&#45;https&#45;&gt;TargetGroup::target&#45;group&#45;web</title>
<path fill="none" stroke="#707070" d="M441.74,-389.66C490.76,-380.96 561.47,-368.41 616.35,-358.67"/>
<polygon fill="#707070" stroke="#707070" points="617.17,-362.08 626.41,-356.88 615.95,-355.19 617.17,-362.08"/>
</g>
<!-- Rule::rule&#45;http&#45;redirect&#45;https -->
<g id="node19" class="node">
<title>Rule::rule&#45;http&#45;redirect&#45;https</title>
<polygon fill="#e5e5e5" stroke="#dddddd" points="208,-601 24,-601 24,-543 208,-543 208,-601"/>
<text text-anchor="start" x="36" y="-581.2" font-family="Helvetica,sans-Serif" font-weight="bold" font-size="16.00" fill="#707070">Rule</text>
<text text-anchor="start" x="36" y="-556.2" font-family="Helvetica,sans-Serif" font-size="16.00" fill="#383838">rule&#45;http&#45;redirect&#45;https</text>
</g>
<!-- Rule::rule&#45;http&#45;redirect&#45;https&#45;&gt;Listener::listener&#45;http -->
<g id="edge25" class="edge">
<title>Rule::rule&#45;http&#45;redirect&#45;https&#45;&gt;Listener::listener&#45;http</title>
<path fill="none" stroke="#707070" d="M208.03,-572C244.03,-572 284.56,-572 317.39,-572"/>
<polygon fill="#707070" stroke="#707070" points="317.76,-575.5 327.76,-572 317.76,-568.5 317.76,-575.5"/>
</g>
<!-- Rule::rule&#45;web&#45;https -->
<g id="node20" class="node">
<title>Rule::rule&#45;web&#45;https</title>
<polygon fill="#e5e5e5" stroke="#dddddd" points="179.5,-477 52.5,-477 52.5,-419 179.5,-419 179.5,-477"/>
<text text-anchor="start" x="65" y="-457.2" font-family="Helvetica,sans-Serif" font-weight="bold" font-size="16.00" fill="#707070">Rule</text>
<text text-anchor="start" x="65" y="-432.2" font-family="Helvetica,sans-Serif" font-size="16.00" fill="#383838">rule&#45;web&#45;https</text>
</g>
<!-- Rule::rule&#45;web&#45;https&#45;&gt;TargetGroup::target&#45;group&#45;web -->
<g id="edge27" class="edge">
<title>Rule::rule&#45;web&#45;https&#45;&gt;TargetGroup::target&#45;group&#45;web</title>
<path fill="none" stroke="#707070" d="M159.99,-477.06C183.55,-491.22 213.91,-506.74 243.5,-514 273.45,-521.34 497.04,-533.41 521,-514 567.6,-476.25 507.43,-425.23 549,-382 566.59,-363.7 591.63,-353.74 616.23,-348.44"/>
<polygon fill="#707070" stroke="#707070" points="617.18,-351.83 626.34,-346.51 615.86,-344.95 617.18,-351.83"/>
</g>
<!-- Rule::rule&#45;web&#45;https&#45;&gt;Listener::listener&#45;https -->
<g id="edge26" class="edge">
<title>Rule::rule&#45;web&#45;https&#45;&gt;Listener::listener&#45;https</title>
<path fill="none" stroke="#707070" d="M179.68,-436.62C219.9,-429.33 272.13,-419.85 313.37,-412.36"/>
<polygon fill="#707070" stroke="#707070" points="314.12,-415.78 323.34,-410.55 312.88,-408.9 314.12,-415.78"/>
</g>
<!-- Rule::rule&#45;rest&#45;https -->
<g id="node21" class="node">
<title>Rule::rule&#45;rest&#45;https</title>
<polygon fill="#e5e5e5" stroke="#dddddd" points="178,-377 54,-377 54,-319 178,-319 178,-377"/>
<text text-anchor="start" x="66" y="-357.2" font-family="Helvetica,sans-Serif" font-weight="bold" font-size="16.00" fill="#707070">Rule</text>
<text text-anchor="start" x="66" y="-332.2" font-family="Helvetica,sans-Serif" font-size="16.00" fill="#383838">rule&#45;rest&#45;https</text>
</g>
<!-- Rule::rule&#45;rest&#45;https&#45;&gt;TargetGroup::target&#45;group&#45;rest -->
<g id="edge29" class="edge">
<title>Rule::rule&#45;rest&#45;https&#45;&gt;TargetGroup::target&#45;group&#45;rest</title>
<path fill="none" stroke="#707070" d="M178.01,-342.46C214.08,-339.19 260.23,-335 299.46,-331.44"/>
<polygon fill="#707070" stroke="#707070" points="299.89,-334.92 309.53,-330.53 299.26,-327.95 299.89,-334.92"/>
</g>
<!-- Rule::rule&#45;rest&#45;https&#45;&gt;Listener::listener&#45;https -->
<g id="edge28" class="edge">
<title>Rule::rule&#45;rest&#45;https&#45;&gt;Listener::listener&#45;https</title>
<path fill="none" stroke="#707070" d="M178.01,-360C218.41,-367.94 271.44,-378.36 313.24,-386.58"/>
<polygon fill="#707070" stroke="#707070" points="312.58,-390.02 323.06,-388.51 313.93,-383.15 312.58,-390.02"/>
</g>
<!-- Record::load&#45;balancer&#45;dns&#45;record&#45;alias&#45;mod&#45;aws&#45;load&#45;balancer.grucloud.org. -->
<g id="node22" class="node">
<title>Record::load&#45;balancer&#45;dns&#45;record&#45;alias&#45;mod&#45;aws&#45;load&#45;balancer.grucloud.org.</title>
<polygon fill="#e5e5e5" stroke="#dddddd" points="521,-505 244,-505 244,-447 521,-447 521,-505"/>
<text text-anchor="start" x="256.5" y="-485.2" font-family="Helvetica,sans-Serif" font-weight="bold" font-size="16.00" fill="#707070">Record</text>
<text text-anchor="start" x="256.5" y="-460.2" font-family="Helvetica,sans-Serif" font-size="16.00" fill="#383838">load&#45;balancer&#45;dns&#45;record&#45;alias&#45;m...</text>
</g>
<!-- Record::load&#45;balancer&#45;dns&#45;record&#45;alias&#45;mod&#45;aws&#45;load&#45;balancer.grucloud.org.&#45;&gt;HostedZone::mod&#45;aws&#45;load&#45;balancer.grucloud.org. -->
<g id="edge30" class="edge">
<title>Record::load&#45;balancer&#45;dns&#45;record&#45;alias&#45;mod&#45;aws&#45;load&#45;balancer.grucloud.org.&#45;&gt;HostedZone::mod&#45;aws&#45;load&#45;balancer.grucloud.org.</title>
<path fill="none" stroke="#707070" d="M511.67,-446.95C515,-444.22 518.12,-441.24 521,-438 576.19,-375.79 493.72,-315.13 549,-253 550.6,-251.2 552.28,-249.47 554.02,-247.82"/>
<polygon fill="#707070" stroke="#707070" points="556.67,-250.16 562.03,-241.02 552.14,-244.82 556.67,-250.16"/>
</g>
<!-- Record::load&#45;balancer&#45;dns&#45;record&#45;alias&#45;mod&#45;aws&#45;load&#45;balancer.grucloud.org.&#45;&gt;LoadBalancer::load&#45;balancer -->
<g id="edge31" class="edge">
<title>Record::load&#45;balancer&#45;dns&#45;record&#45;alias&#45;mod&#45;aws&#45;load&#45;balancer.grucloud.org.&#45;&gt;LoadBalancer::load&#45;balancer</title>
<path fill="none" stroke="#707070" d="M461.74,-505.03C489.17,-514.77 520.29,-525.35 549,-534 573.53,-541.39 600.6,-548.55 624.91,-554.62"/>
<polygon fill="#707070" stroke="#707070" points="624.24,-558.06 634.79,-557.06 625.92,-551.26 624.24,-558.06"/>
</g>
</g>
</svg>
