<?xml version="1.0" encoding="UTF-8" standalone="no"?>
<!DOCTYPE svg PUBLIC "-//W3C//DTD SVG 1.1//EN"
 "http://www.w3.org/Graphics/SVG/1.1/DTD/svg11.dtd">
<!-- Generated by graphviz version 2.44.1 (20200629.0846)
 -->
<!-- Title: graphname Pages: 1 -->
<svg width="256pt" height="237pt"
 viewBox="0.00 0.00 256.00 237.00" xmlns="http://www.w3.org/2000/svg" xmlns:xlink="http://www.w3.org/1999/xlink">
<g id="graph0" class="graph" transform="scale(1 1) rotate(0) translate(4 233)">
<title>graphname</title>
<polygon fill="#fafafa" stroke="transparent" points="-4,4 -4,-233 252,-233 252,4 -4,4"/>
<text text-anchor="start" x="12" y="-204.4" font-family="Helvetica,sans-Serif" font-weight="bold" font-size="22.00" fill="#383838">Project Gcp Template</text>
<text text-anchor="start" x="120" y="-188.8" font-family="Helvetica,sans-Serif" font-size="14.00"> &#160;</text>
<text text-anchor="start" x="12" y="-167.2" font-family="Helvetica,sans-Serif" font-weight="bold" font-size="16.00" fill="#707070">Target Diagram</text>
<g id="clust1" class="cluster">
<title>cluster_google</title>
<polygon fill="#f5f5f5" stroke="#f5f5f5" points="36.5,-8 36.5,-145 211.5,-145 211.5,-8 36.5,-8"/>
<text text-anchor="start" x="49" y="-23" font-family="Helvetica,sans-Serif" font-weight="bold" font-size="20.00" fill="#707070">Provider google</text>
</g>
<g id="clust2" class="cluster">
<title>cluster_google_</title>
<polygon fill="#eeeeee" stroke="#eeeeee" points="58.5,-54 58.5,-137 189.5,-137 189.5,-54 58.5,-54"/>
<text text-anchor="start" x="123.86" y="-58.3" font-family="Helvetica,sans-Serif" font-size="1.00" fill="#383838"> </text>
</g>
<!-- VmInstance::instance&#45;1 -->
<g id="node1" class="node">
<title>VmInstance::instance&#45;1</title>
<polygon fill="#e5e5e5" stroke="#dddddd" points="181.5,-129 66.5,-129 66.5,-71 181.5,-71 181.5,-129"/>
<text text-anchor="start" x="79" y="-109.2" font-family="Helvetica,sans-Serif" font-weight="bold" font-size="16.00" fill="#707070">VmInstance</text>
<text text-anchor="start" x="79" y="-84.2" font-family="Helvetica,sans-Serif" font-size="16.00" fill="#383838">instance&#45;1</text>
</g>
</g>
</svg>
