<?xml version="1.0" encoding="UTF-8" standalone="no"?>
<!DOCTYPE svg PUBLIC "-//W3C//DTD SVG 1.1//EN"
 "http://www.w3.org/Graphics/SVG/1.1/DTD/svg11.dtd">
<!-- Generated by graphviz version 7.1.0 (20230121.1956)
 -->
<!-- Title: graphname Pages: 1 -->
<svg width="1443pt" height="389pt"
 viewBox="0.00 0.00 1443.00 389.00" xmlns="http://www.w3.org/2000/svg" xmlns:xlink="http://www.w3.org/1999/xlink">
<g id="graph0" class="graph" transform="scale(1 1) rotate(0) translate(4 385)">
<title>graphname</title>
<polygon fill="#fafafa" stroke="none" points="-4,4 -4,-385 1439,-385 1439,4 -4,4"/>
<text text-anchor="start" x="624.5" y="-356.4" font-family="Helvetica,sans-Serif" font-weight="bold" font-size="22.00" fill="#383838">Project graphql&#45;js</text>
<text text-anchor="start" x="714" y="-340.8" font-family="Helvetica,sans-Serif" font-size="14.00"> &#160;</text>
<text text-anchor="start" x="624.5" y="-319.2" font-family="Helvetica,sans-Serif" font-weight="bold" font-size="16.00" fill="#707070">Target Diagram</text>
<g id="clust1" class="cluster">
<title>cluster_aws</title>
<polygon fill="#f5f5f5" stroke="#f5f5f5" points="8,-8 8,-297 1427,-297 1427,-8 8,-8"/>
<text text-anchor="start" x="655.5" y="-23" font-family="Helvetica,sans-Serif" font-weight="bold" font-size="20.00" fill="#707070">Provider aws</text>
</g>
<g id="clust2" class="cluster">
<title>cluster_aws_</title>
<polygon fill="#eeeeee" stroke="#eeeeee" points="16,-54 16,-289 1419,-289 1419,-54 16,-54"/>
<text text-anchor="start" x="717.36" y="-58.3" font-family="Helvetica,sans-Serif" font-size="1.00" fill="#383838"> </text>
</g>
<!-- DataSource::MyModelTypeTable -->
<g id="node1" class="node">
<title>DataSource::MyModelTypeTable</title>
<polygon fill="#e5e5e5" stroke="#dddddd" points="743,-203 550,-203 550,-145 743,-145 743,-203"/>
<text text-anchor="start" x="562.5" y="-183.2" font-family="Helvetica,sans-Serif" font-weight="bold" font-size="16.00" fill="#707070">AppSync::DataSource</text>
<text text-anchor="start" x="562.5" y="-158.2" font-family="Helvetica,sans-Serif" font-size="16.00" fill="#383838">MyModelTypeTable</text>
</g>
<!-- GraphqlApi::My AppSync App -->
<g id="node3" class="node">
<title>GraphqlApi::My AppSync App</title>
<polygon fill="#e5e5e5" stroke="#dddddd" points="1023.5,-129 832.5,-129 832.5,-71 1023.5,-71 1023.5,-129"/>
<text text-anchor="start" x="845" y="-109.2" font-family="Helvetica,sans-Serif" font-weight="bold" font-size="16.00" fill="#707070">AppSync::GraphqlApi</text>
<text text-anchor="start" x="845" y="-84.2" font-family="Helvetica,sans-Serif" font-size="16.00" fill="#383838">My AppSync App</text>
</g>
<!-- DataSource::MyModelTypeTable&#45;&gt;GraphqlApi::My AppSync App -->
<g id="edge1" class="edge">
<title>DataSource::MyModelTypeTable&#45;&gt;GraphqlApi::My AppSync App</title>
<path fill="none" stroke="#707070" d="M743.33,-147.57C755.33,-144.32 767.45,-141.06 779,-138 792.69,-134.37 807.11,-130.6 821.35,-126.91"/>
<polygon fill="#707070" stroke="#707070" points="821.93,-130.37 830.73,-124.48 820.17,-123.6 821.93,-130.37"/>
</g>
<!-- Table::MyModelTypeTable -->
<g id="node5" class="node">
<title>Table::MyModelTypeTable</title>
<polygon fill="#e5e5e5" stroke="#dddddd" points="1010,-205 846,-205 846,-147 1010,-147 1010,-205"/>
<text text-anchor="start" x="858" y="-185.2" font-family="Helvetica,sans-Serif" font-weight="bold" font-size="16.00" fill="#707070">DynamoDB::Table</text>
<text text-anchor="start" x="858" y="-160.2" font-family="Helvetica,sans-Serif" font-size="16.00" fill="#383838">MyModelTypeTable</text>
</g>
<!-- DataSource::MyModelTypeTable&#45;&gt;Table::MyModelTypeTable -->
<g id="edge3" class="edge">
<title>DataSource::MyModelTypeTable&#45;&gt;Table::MyModelTypeTable</title>
<path fill="none" stroke="#707070" d="M743.3,-174.69C772.73,-174.9 805.07,-175.13 834.29,-175.34"/>
<polygon fill="#707070" stroke="#707070" points="834.21,-178.84 844.24,-175.41 834.26,-171.84 834.21,-178.84"/>
</g>
<!-- Role::appsync&#45;ds&#45;ddb&#45;xoaizl&#45;MyModelTypeTable -->
<g id="node6" class="node">
<title>Role::appsync&#45;ds&#45;ddb&#45;xoaizl&#45;MyModelTypeTable</title>
<polygon fill="#e5e5e5" stroke="#dddddd" points="1077,-281 779,-281 779,-223 1077,-223 1077,-281"/>
<text text-anchor="start" x="791" y="-261.2" font-family="Helvetica,sans-Serif" font-weight="bold" font-size="16.00" fill="#707070">IAM::Role</text>
<text text-anchor="start" x="791" y="-236.2" font-family="Helvetica,sans-Serif" font-size="16.00" fill="#383838">appsync&#45;ds&#45;ddb&#45;xoaizl&#45;MyModelTyp...</text>
</g>
<!-- DataSource::MyModelTypeTable&#45;&gt;Role::appsync&#45;ds&#45;ddb&#45;xoaizl&#45;MyModelTypeTable -->
<g id="edge2" class="edge">
<title>DataSource::MyModelTypeTable&#45;&gt;Role::appsync&#45;ds&#45;ddb&#45;xoaizl&#45;MyModelTypeTable</title>
<path fill="none" stroke="#707070" d="M742.52,-203.44C754.77,-207.08 767.17,-210.68 779,-214 785.62,-215.86 792.42,-217.73 799.29,-219.59"/>
<polygon fill="#707070" stroke="#707070" points="798.1,-222.89 808.67,-222.11 799.92,-216.13 798.1,-222.89"/>
</g>
<!-- Function::My AppSync App::myFunction -->
<g id="node2" class="node">
<title>Function::My AppSync App::myFunction</title>
<polygon fill="#e5e5e5" stroke="#dddddd" points="514,-177 274,-177 274,-119 514,-119 514,-177"/>
<text text-anchor="start" x="286" y="-157.2" font-family="Helvetica,sans-Serif" font-weight="bold" font-size="16.00" fill="#707070">AppSync::Function</text>
<text text-anchor="start" x="286" y="-132.2" font-family="Helvetica,sans-Serif" font-size="16.00" fill="#383838">My AppSync App::myFunction</text>
</g>
<!-- Function::My AppSync App::myFunction&#45;&gt;DataSource::MyModelTypeTable -->
<g id="edge5" class="edge">
<title>Function::My AppSync App::myFunction&#45;&gt;DataSource::MyModelTypeTable</title>
<path fill="none" stroke="#707070" d="M514.38,-160.39C522.43,-161.23 530.52,-162.07 538.5,-162.89"/>
<polygon fill="#707070" stroke="#707070" points="537.89,-166.35 548.2,-163.9 538.61,-159.39 537.89,-166.35"/>
</g>
<!-- Function::My AppSync App::myFunction&#45;&gt;GraphqlApi::My AppSync App -->
<g id="edge4" class="edge">
<title>Function::My AppSync App::myFunction&#45;&gt;GraphqlApi::My AppSync App</title>
<path fill="none" stroke="#707070" d="M514.39,-137.23C606.4,-128.93 732.44,-117.55 820.93,-109.57"/>
<polygon fill="#707070" stroke="#707070" points="821.19,-113.06 830.83,-108.68 820.56,-106.09 821.19,-113.06"/>
</g>
<!-- Resolver::resolver::MyModelType::id -->
<g id="node4" class="node">
<title>Resolver::resolver::MyModelType::id</title>
<polygon fill="#e5e5e5" stroke="#dddddd" points="238,-153 24,-153 24,-95 238,-95 238,-153"/>
<text text-anchor="start" x="36" y="-133.2" font-family="Helvetica,sans-Serif" font-weight="bold" font-size="16.00" fill="#707070">AppSync::Resolver</text>
<text text-anchor="start" x="36" y="-108.2" font-family="Helvetica,sans-Serif" font-size="16.00" fill="#383838">resolver::MyModelType::id</text>
</g>
<!-- Resolver::resolver::MyModelType::id&#45;&gt;Function::My AppSync App::myFunction -->
<g id="edge7" class="edge">
<title>Resolver::resolver::MyModelType::id&#45;&gt;Function::My AppSync App::myFunction</title>
<path fill="none" stroke="#707070" d="M238.16,-133.76C246.12,-134.49 254.21,-135.24 262.3,-135.98"/>
<polygon fill="#707070" stroke="#707070" points="261.93,-139.46 272.21,-136.89 262.57,-132.49 261.93,-139.46"/>
</g>
<!-- Resolver::resolver::MyModelType::id&#45;&gt;GraphqlApi::My AppSync App -->
<g id="edge6" class="edge">
<title>Resolver::resolver::MyModelType::id&#45;&gt;GraphqlApi::My AppSync App</title>
<path fill="none" stroke="#707070" d="M238.16,-112.56C250.23,-111.55 262.38,-110.66 274,-110 466.43,-99.06 691.24,-98.24 820.57,-98.92"/>
<polygon fill="#707070" stroke="#707070" points="820.48,-102.42 830.5,-98.98 820.52,-95.42 820.48,-102.42"/>
</g>
<!-- Policy::appsync&#45;ds&#45;ddb&#45;xoaizl&#45;MyModelTypeTable -->
<g id="node7" class="node">
<title>Policy::appsync&#45;ds&#45;ddb&#45;xoaizl&#45;MyModelTypeTable</title>
<polygon fill="#e5e5e5" stroke="#dddddd" points="1411,-281 1113,-281 1113,-223 1411,-223 1411,-281"/>
<text text-anchor="start" x="1125" y="-261.2" font-family="Helvetica,sans-Serif" font-weight="bold" font-size="16.00" fill="#707070">IAM::Policy</text>
<text text-anchor="start" x="1125" y="-236.2" font-family="Helvetica,sans-Serif" font-size="16.00" fill="#383838">appsync&#45;ds&#45;ddb&#45;xoaizl&#45;MyModelTyp...</text>
</g>
<!-- Role::appsync&#45;ds&#45;ddb&#45;xoaizl&#45;MyModelTypeTable&#45;&gt;Policy::appsync&#45;ds&#45;ddb&#45;xoaizl&#45;MyModelTypeTable -->
<g id="edge8" class="edge">
<title>Role::appsync&#45;ds&#45;ddb&#45;xoaizl&#45;MyModelTypeTable&#45;&gt;Policy::appsync&#45;ds&#45;ddb&#45;xoaizl&#45;MyModelTypeTable</title>
<path fill="none" stroke="#707070" d="M1077.04,-252C1085.09,-252 1093.2,-252 1101.28,-252"/>
<polygon fill="#707070" stroke="#707070" points="1101.18,-255.5 1111.18,-252 1101.18,-248.5 1101.18,-255.5"/>
</g>
</g>
</svg>
