<?xml version="1.0" encoding="UTF-8" standalone="no"?>
<!DOCTYPE svg PUBLIC "-//W3C//DTD SVG 1.1//EN"
 "http://www.w3.org/Graphics/SVG/1.1/DTD/svg11.dtd">
<!-- Generated by graphviz version 7.1.0 (20230121.1956)
 -->
<!-- Title: graphname Pages: 1 -->
<svg width="1062pt" height="313pt"
 viewBox="0.00 0.00 1062.00 313.00" xmlns="http://www.w3.org/2000/svg" xmlns:xlink="http://www.w3.org/1999/xlink">
<g id="graph0" class="graph" transform="scale(1 1) rotate(0) translate(4 309)">
<title>graphname</title>
<polygon fill="#fafafa" stroke="none" points="-4,4 -4,-309 1058,-309 1058,4 -4,4"/>
<text text-anchor="start" x="348" y="-280.4" font-family="Helvetica,sans-Serif" font-weight="bold" font-size="22.00" fill="#383838">Project cloudfront&#45;lambda&#45;url&#45;java</text>
<text text-anchor="start" x="523" y="-264.8" font-family="Helvetica,sans-Serif" font-size="14.00"> &#160;</text>
<text text-anchor="start" x="348" y="-243.2" font-family="Helvetica,sans-Serif" font-weight="bold" font-size="16.00" fill="#707070">Target Diagram</text>
<g id="clust1" class="cluster">
<title>cluster_aws</title>
<polygon fill="#f5f5f5" stroke="#f5f5f5" points="8,-8 8,-221 1046,-221 1046,-8 8,-8"/>
<text text-anchor="start" x="465" y="-23" font-family="Helvetica,sans-Serif" font-weight="bold" font-size="20.00" fill="#707070">Provider aws</text>
</g>
<g id="clust2" class="cluster">
<title>cluster_aws_</title>
<polygon fill="#eeeeee" stroke="#eeeeee" points="16,-54 16,-213 1038,-213 1038,-54 16,-54"/>
<text text-anchor="start" x="526.86" y="-58.3" font-family="Helvetica,sans-Serif" font-size="1.00" fill="#383838"> </text>
</g>
<!-- Distribution::LambdaOrigin -->
<g id="node1" class="node">
<title>Distribution::LambdaOrigin</title>
<polygon fill="#e5e5e5" stroke="#dddddd" points="282.5,-205 72.5,-205 72.5,-147 282.5,-147 282.5,-205"/>
<text text-anchor="start" x="84.5" y="-185.2" font-family="Helvetica,sans-Serif" font-weight="bold" font-size="16.00" fill="#707070">CloudFront::Distribution</text>
<text text-anchor="start" x="84.5" y="-160.2" font-family="Helvetica,sans-Serif" font-size="16.00" fill="#383838">LambdaOrigin</text>
</g>
<!-- Function::sam&#45;app&#45;LambdaFunction&#45;c3Q7Xjfvon1M -->
<g id="node3" class="node">
<title>Function::sam&#45;app&#45;LambdaFunction&#45;c3Q7Xjfvon1M</title>
<polygon fill="#e5e5e5" stroke="#dddddd" points="674,-167 367,-167 367,-109 674,-109 674,-167"/>
<text text-anchor="start" x="379.5" y="-147.2" font-family="Helvetica,sans-Serif" font-weight="bold" font-size="16.00" fill="#707070">Lambda::Function</text>
<text text-anchor="start" x="379.5" y="-122.2" font-family="Helvetica,sans-Serif" font-size="16.00" fill="#383838">sam&#45;app&#45;LambdaFunction&#45;c3Q7Xjfvo...</text>
</g>
<!-- Distribution::LambdaOrigin&#45;&gt;Function::sam&#45;app&#45;LambdaFunction&#45;c3Q7Xjfvon1M -->
<g id="edge1" class="edge">
<title>Distribution::LambdaOrigin&#45;&gt;Function::sam&#45;app&#45;LambdaFunction&#45;c3Q7Xjfvon1M</title>
<path fill="none" stroke="#707070" d="M282.66,-164.39C305.68,-161.83 330.6,-159.05 355.35,-156.29"/>
<polygon fill="#707070" stroke="#707070" points="355.65,-159.78 365.2,-155.2 354.87,-152.82 355.65,-159.78"/>
</g>
<!-- Role::sam&#45;app&#45;LambdaFunctionRole&#45;3RWS5V1VIJH9 -->
<g id="node2" class="node">
<title>Role::sam&#45;app&#45;LambdaFunctionRole&#45;3RWS5V1VIJH9</title>
<polygon fill="#e5e5e5" stroke="#dddddd" points="1030,-167 710,-167 710,-109 1030,-109 1030,-167"/>
<text text-anchor="start" x="722" y="-147.2" font-family="Helvetica,sans-Serif" font-weight="bold" font-size="16.00" fill="#707070">IAM::Role</text>
<text text-anchor="start" x="722" y="-122.2" font-family="Helvetica,sans-Serif" font-size="16.00" fill="#383838">sam&#45;app&#45;LambdaFunctionRole&#45;3RWS5...</text>
</g>
<!-- Function::sam&#45;app&#45;LambdaFunction&#45;c3Q7Xjfvon1M&#45;&gt;Role::sam&#45;app&#45;LambdaFunctionRole&#45;3RWS5V1VIJH9 -->
<g id="edge2" class="edge">
<title>Function::sam&#45;app&#45;LambdaFunction&#45;c3Q7Xjfvon1M&#45;&gt;Role::sam&#45;app&#45;LambdaFunctionRole&#45;3RWS5V1VIJH9</title>
<path fill="none" stroke="#707070" d="M674.42,-138C682.35,-138 690.32,-138 698.3,-138"/>
<polygon fill="#707070" stroke="#707070" points="698.04,-141.5 708.04,-138 698.04,-134.5 698.04,-141.5"/>
</g>
<!-- Permission::sam&#45;app&#45;LambdaFunction&#45;c3Q7Xjfvon1M -->
<g id="node4" class="node">
<title>Permission::sam&#45;app&#45;LambdaFunction&#45;c3Q7Xjfvon1M</title>
<polygon fill="#e5e5e5" stroke="#dddddd" points="331,-129 24,-129 24,-71 331,-71 331,-129"/>
<text text-anchor="start" x="36.5" y="-109.2" font-family="Helvetica,sans-Serif" font-weight="bold" font-size="16.00" fill="#707070">Lambda::Permission</text>
<text text-anchor="start" x="36.5" y="-84.2" font-family="Helvetica,sans-Serif" font-size="16.00" fill="#383838">sam&#45;app&#45;LambdaFunction&#45;c3Q7Xjfvo...</text>
</g>
<!-- Permission::sam&#45;app&#45;LambdaFunction&#45;c3Q7Xjfvon1M&#45;&gt;Function::sam&#45;app&#45;LambdaFunction&#45;c3Q7Xjfvon1M -->
<g id="edge3" class="edge">
<title>Permission::sam&#45;app&#45;LambdaFunction&#45;c3Q7Xjfvon1M&#45;&gt;Function::sam&#45;app&#45;LambdaFunction&#45;c3Q7Xjfvon1M</title>
<path fill="none" stroke="#707070" d="M331.05,-117C339.06,-117.89 347.13,-118.79 355.18,-119.69"/>
<polygon fill="#707070" stroke="#707070" points="354.71,-123.16 365.04,-120.79 355.49,-116.2 354.71,-123.16"/>
</g>
</g>
</svg>
