<?xml version="1.0" encoding="UTF-8" standalone="no"?>
<!DOCTYPE svg PUBLIC "-//W3C//DTD SVG 1.1//EN"
 "http://www.w3.org/Graphics/SVG/1.1/DTD/svg11.dtd">
<!-- Generated by graphviz version 6.0.0 (20220910.1538)
 -->
<!-- Title: graphname Pages: 1 -->
<svg width="1229pt" height="449pt"
 viewBox="0.00 0.00 1229.00 449.00" xmlns="http://www.w3.org/2000/svg" xmlns:xlink="http://www.w3.org/1999/xlink">
<g id="graph0" class="graph" transform="scale(1 1) rotate(0) translate(4 445)">
<title>graphname</title>
<polygon fill="#fafafa" stroke="none" points="-4,4 -4,-445 1225,-445 1225,4 -4,4"/>
<text text-anchor="start" x="490.5" y="-416.4" font-family="Helvetica,sans-Serif" font-weight="bold" font-size="22.00" fill="#383838">Project transfer&#45;ftps&#45;s3</text>
<text text-anchor="start" x="607" y="-400.8" font-family="Helvetica,sans-Serif" font-size="14.00"> &#160;</text>
<text text-anchor="start" x="490.5" y="-379.2" font-family="Helvetica,sans-Serif" font-weight="bold" font-size="16.00" fill="#707070">Target Diagram</text>
<g id="clust1" class="cluster">
<title>cluster_aws</title>
<polygon fill="#f5f5f5" stroke="#f5f5f5" points="8,-8 8,-357 1213,-357 1213,-8 8,-8"/>
<text text-anchor="start" x="548.5" y="-23" font-family="Helvetica,sans-Serif" font-weight="bold" font-size="20.00" fill="#707070">Provider aws</text>
</g>
<g id="clust2" class="cluster">
<title>cluster_aws_</title>
<polygon fill="#eeeeee" stroke="#eeeeee" points="16,-54 16,-349 1205,-349 1205,-54 16,-54"/>
<text text-anchor="start" x="610.36" y="-58.3" font-family="Helvetica,sans-Serif" font-size="1.00" fill="#383838"> </text>
</g>
<!-- Certificate::grucloud.org -->
<g id="node1" class="node">
<title>Certificate::grucloud.org</title>
<polygon fill="#e5e5e5" stroke="#dddddd" points="749.5,-129 600.5,-129 600.5,-71 749.5,-71 749.5,-129"/>
<text text-anchor="start" x="613" y="-109.2" font-family="Helvetica,sans-Serif" font-weight="bold" font-size="16.00" fill="#707070">ACM::Certificate</text>
<text text-anchor="start" x="613" y="-84.2" font-family="Helvetica,sans-Serif" font-size="16.00" fill="#383838">grucloud.org</text>
</g>
<!-- Directory::grucloud.org -->
<g id="node2" class="node">
<title>Directory::grucloud.org</title>
<polygon fill="#e5e5e5" stroke="#dddddd" points="791,-245 559,-245 559,-187 791,-187 791,-245"/>
<text text-anchor="start" x="571" y="-225.2" font-family="Helvetica,sans-Serif" font-weight="bold" font-size="16.00" fill="#707070">DirectoryService::Directory</text>
<text text-anchor="start" x="571" y="-200.2" font-family="Helvetica,sans-Serif" font-size="16.00" fill="#383838">grucloud.org</text>
</g>
<!-- Subnet::vpc&#45;default::subnet&#45;default&#45;a -->
<g id="node4" class="node">
<title>Subnet::vpc&#45;default::subnet&#45;default&#45;a</title>
<polygon fill="#e5e5e5" stroke="#dddddd" points="1057,-225 827,-225 827,-167 1057,-167 1057,-225"/>
<text text-anchor="start" x="839" y="-205.2" font-family="Helvetica,sans-Serif" font-weight="bold" font-size="16.00" fill="#707070">EC2::Subnet</text>
<text text-anchor="start" x="839" y="-180.2" font-family="Helvetica,sans-Serif" font-size="16.00" fill="#383838">vpc&#45;default::subnet&#45;default&#45;a</text>
</g>
<!-- Directory::grucloud.org&#45;&gt;Subnet::vpc&#45;default::subnet&#45;default&#45;a -->
<g id="edge1" class="edge">
<title>Directory::grucloud.org&#45;&gt;Subnet::vpc&#45;default::subnet&#45;default&#45;a</title>
<path fill="none" stroke="#707070" d="M791.08,-207.31C799.61,-206.67 808.24,-206.02 816.83,-205.37"/>
<polygon fill="#707070" stroke="#707070" points="817.17,-208.86 826.87,-204.61 816.64,-201.88 817.17,-208.86"/>
</g>
<!-- Subnet::vpc&#45;default::subnet&#45;default&#45;b -->
<g id="node5" class="node">
<title>Subnet::vpc&#45;default::subnet&#45;default&#45;b</title>
<polygon fill="#e5e5e5" stroke="#dddddd" points="1057,-301 827,-301 827,-243 1057,-243 1057,-301"/>
<text text-anchor="start" x="839" y="-281.2" font-family="Helvetica,sans-Serif" font-weight="bold" font-size="16.00" fill="#707070">EC2::Subnet</text>
<text text-anchor="start" x="839" y="-256.2" font-family="Helvetica,sans-Serif" font-size="16.00" fill="#383838">vpc&#45;default::subnet&#45;default&#45;b</text>
</g>
<!-- Directory::grucloud.org&#45;&gt;Subnet::vpc&#45;default::subnet&#45;default&#45;b -->
<g id="edge2" class="edge">
<title>Directory::grucloud.org&#45;&gt;Subnet::vpc&#45;default::subnet&#45;default&#45;b</title>
<path fill="none" stroke="#707070" d="M791.08,-240.32C799.61,-242.12 808.24,-243.95 816.83,-245.76"/>
<polygon fill="#707070" stroke="#707070" points="816.37,-249.24 826.87,-247.88 817.81,-242.39 816.37,-249.24"/>
</g>
<!-- Vpc::vpc&#45;default -->
<g id="node3" class="node">
<title>Vpc::vpc&#45;default</title>
<polygon fill="#e5e5e5" stroke="#dddddd" points="1197,-225 1093,-225 1093,-167 1197,-167 1197,-225"/>
<text text-anchor="start" x="1105" y="-205.2" font-family="Helvetica,sans-Serif" font-weight="bold" font-size="16.00" fill="#707070">EC2::Vpc</text>
<text text-anchor="start" x="1105" y="-180.2" font-family="Helvetica,sans-Serif" font-size="16.00" fill="#383838">vpc&#45;default</text>
</g>
<!-- Subnet::vpc&#45;default::subnet&#45;default&#45;a&#45;&gt;Vpc::vpc&#45;default -->
<g id="edge3" class="edge">
<title>Subnet::vpc&#45;default::subnet&#45;default&#45;a&#45;&gt;Vpc::vpc&#45;default</title>
<path fill="none" stroke="#707070" d="M1057.01,-196C1065.73,-196 1074.31,-196 1082.49,-196"/>
<polygon fill="#707070" stroke="#707070" points="1082.61,-199.5 1092.61,-196 1082.61,-192.5 1082.61,-199.5"/>
</g>
<!-- Subnet::vpc&#45;default::subnet&#45;default&#45;b&#45;&gt;Vpc::vpc&#45;default -->
<g id="edge4" class="edge">
<title>Subnet::vpc&#45;default::subnet&#45;default&#45;b&#45;&gt;Vpc::vpc&#45;default</title>
<path fill="none" stroke="#707070" d="M1032.58,-242.99C1040.87,-240.05 1049.11,-237.03 1057,-234 1065.59,-230.7 1074.57,-227.03 1083.36,-223.32"/>
<polygon fill="#707070" stroke="#707070" points="1084.98,-226.43 1092.79,-219.28 1082.22,-220 1084.98,-226.43"/>
</g>
<!-- Role::AWSTransferLoggingAccess -->
<g id="node6" class="node">
<title>Role::AWSTransferLoggingAccess</title>
<polygon fill="#e5e5e5" stroke="#dddddd" points="790.5,-341 559.5,-341 559.5,-283 790.5,-283 790.5,-341"/>
<text text-anchor="start" x="572" y="-321.2" font-family="Helvetica,sans-Serif" font-weight="bold" font-size="16.00" fill="#707070">IAM::Role</text>
<text text-anchor="start" x="572" y="-296.2" font-family="Helvetica,sans-Serif" font-size="16.00" fill="#383838">AWSTransferLoggingAccess</text>
</g>
<!-- Role::role&#45;transfer&#45;s3 -->
<g id="node7" class="node">
<title>Role::role&#45;transfer&#45;s3</title>
<polygon fill="#e5e5e5" stroke="#dddddd" points="489.5,-129 355.5,-129 355.5,-71 489.5,-71 489.5,-129"/>
<text text-anchor="start" x="367.5" y="-109.2" font-family="Helvetica,sans-Serif" font-weight="bold" font-size="16.00" fill="#707070">IAM::Role</text>
<text text-anchor="start" x="367.5" y="-84.2" font-family="Helvetica,sans-Serif" font-size="16.00" fill="#383838">role&#45;transfer&#45;s3</text>
</g>
<!-- Bucket::gc&#45;transfer&#45;ftps&#45;directory -->
<g id="node8" class="node">
<title>Bucket::gc&#45;transfer&#45;ftps&#45;directory</title>
<polygon fill="#e5e5e5" stroke="#dddddd" points="523,-205 322,-205 322,-147 523,-147 523,-205"/>
<text text-anchor="start" x="334.5" y="-185.2" font-family="Helvetica,sans-Serif" font-weight="bold" font-size="16.00" fill="#707070">S3::Bucket</text>
<text text-anchor="start" x="334.5" y="-160.2" font-family="Helvetica,sans-Serif" font-size="16.00" fill="#383838">gc&#45;transfer&#45;ftps&#45;directory</text>
</g>
<!-- Access::S3::VPC::gc&#45;transfer&#45;ftps&#45;directory -->
<g id="node9" class="node">
<title>Access::S3::VPC::gc&#45;transfer&#45;ftps&#45;directory</title>
<polygon fill="#e5e5e5" stroke="#dddddd" points="286,-205 24,-205 24,-147 286,-147 286,-205"/>
<text text-anchor="start" x="36" y="-185.2" font-family="Helvetica,sans-Serif" font-weight="bold" font-size="16.00" fill="#707070">Transfer::Access</text>
<text text-anchor="start" x="36" y="-160.2" font-family="Helvetica,sans-Serif" font-size="16.00" fill="#383838">S3::VPC::gc&#45;transfer&#45;ftps&#45;direct...</text>
</g>
<!-- Access::S3::VPC::gc&#45;transfer&#45;ftps&#45;directory&#45;&gt;Role::role&#45;transfer&#45;s3 -->
<g id="edge5" class="edge">
<title>Access::S3::VPC::gc&#45;transfer&#45;ftps&#45;directory&#45;&gt;Role::role&#45;transfer&#45;s3</title>
<path fill="none" stroke="#707070" d="M257.51,-146.94C286.72,-138.58 318.06,-129.61 345.44,-121.77"/>
<polygon fill="#707070" stroke="#707070" points="346.69,-125.06 355.34,-118.94 344.76,-118.33 346.69,-125.06"/>
</g>
<!-- Access::S3::VPC::gc&#45;transfer&#45;ftps&#45;directory&#45;&gt;Bucket::gc&#45;transfer&#45;ftps&#45;directory -->
<g id="edge7" class="edge">
<title>Access::S3::VPC::gc&#45;transfer&#45;ftps&#45;directory&#45;&gt;Bucket::gc&#45;transfer&#45;ftps&#45;directory</title>
<path fill="none" stroke="#707070" d="M286.03,-176C294.62,-176 303.23,-176 311.71,-176"/>
<polygon fill="#707070" stroke="#707070" points="311.98,-179.5 321.98,-176 311.98,-172.5 311.98,-179.5"/>
</g>
<!-- Server::S3::VPC -->
<g id="node10" class="node">
<title>Server::S3::VPC</title>
<polygon fill="#e5e5e5" stroke="#dddddd" points="496.5,-281 348.5,-281 348.5,-223 496.5,-223 496.5,-281"/>
<text text-anchor="start" x="360.5" y="-261.2" font-family="Helvetica,sans-Serif" font-weight="bold" font-size="16.00" fill="#707070">Transfer::Server</text>
<text text-anchor="start" x="360.5" y="-236.2" font-family="Helvetica,sans-Serif" font-size="16.00" fill="#383838">S3::VPC</text>
</g>
<!-- Access::S3::VPC::gc&#45;transfer&#45;ftps&#45;directory&#45;&gt;Server::S3::VPC -->
<g id="edge6" class="edge">
<title>Access::S3::VPC::gc&#45;transfer&#45;ftps&#45;directory&#45;&gt;Server::S3::VPC</title>
<path fill="none" stroke="#707070" d="M257.51,-205.06C284.25,-212.71 312.78,-220.88 338.43,-228.22"/>
<polygon fill="#707070" stroke="#707070" points="337.53,-231.6 348.1,-230.99 339.45,-224.87 337.53,-231.6"/>
</g>
<!-- Server::S3::VPC&#45;&gt;Certificate::grucloud.org -->
<g id="edge9" class="edge">
<title>Server::S3::VPC&#45;&gt;Certificate::grucloud.org</title>
<path fill="none" stroke="#707070" d="M496.71,-231.35C506.22,-226.65 515.31,-220.93 523,-214 549.29,-190.32 532.63,-166.59 559,-143 568.34,-134.65 579.45,-127.86 591.04,-122.37"/>
<polygon fill="#707070" stroke="#707070" points="592.67,-125.47 600.4,-118.23 589.84,-119.07 592.67,-125.47"/>
</g>
<!-- Server::S3::VPC&#45;&gt;Directory::grucloud.org -->
<g id="edge8" class="edge">
<title>Server::S3::VPC&#45;&gt;Directory::grucloud.org</title>
<path fill="none" stroke="#707070" d="M496.63,-241.49C513.08,-239.13 530.99,-236.55 548.89,-233.98"/>
<polygon fill="#707070" stroke="#707070" points="549.43,-237.44 558.83,-232.55 548.43,-230.51 549.43,-237.44"/>
</g>
<!-- Server::S3::VPC&#45;&gt;Vpc::vpc&#45;default -->
<g id="edge13" class="edge">
<title>Server::S3::VPC&#45;&gt;Vpc::vpc&#45;default</title>
<path fill="none" stroke="#707070" d="M496.57,-230.77C506.04,-226.16 515.16,-220.62 523,-214 547.05,-193.69 531.66,-168.61 559,-153 576.37,-143.08 1044.35,-155.23 1057,-158 1065.66,-159.89 1074.52,-162.67 1083.11,-165.87"/>
<polygon fill="#707070" stroke="#707070" points="1082.09,-169.23 1092.67,-169.64 1084.65,-162.72 1082.09,-169.23"/>
</g>
<!-- Server::S3::VPC&#45;&gt;Subnet::vpc&#45;default::subnet&#45;default&#45;a -->
<g id="edge11" class="edge">
<title>Server::S3::VPC&#45;&gt;Subnet::vpc&#45;default::subnet&#45;default&#45;a</title>
<path fill="none" stroke="#707070" d="M496.72,-228.15C505.86,-223.99 514.85,-219.28 523,-214 541.99,-201.69 538.09,-186.66 559,-178 642.38,-143.46 744.92,-150.68 822.76,-165.04"/>
<polygon fill="#707070" stroke="#707070" points="822.13,-168.49 832.61,-166.92 823.45,-161.61 822.13,-168.49"/>
</g>
<!-- Server::S3::VPC&#45;&gt;Subnet::vpc&#45;default::subnet&#45;default&#45;b -->
<g id="edge12" class="edge">
<title>Server::S3::VPC&#45;&gt;Subnet::vpc&#45;default::subnet&#45;default&#45;b</title>
<path fill="none" stroke="#707070" d="M496.55,-254.82C579.65,-258.03 716.75,-263.33 816.74,-267.2"/>
<polygon fill="#707070" stroke="#707070" points="816.78,-270.7 826.91,-267.59 817.05,-263.71 816.78,-270.7"/>
</g>
<!-- Server::S3::VPC&#45;&gt;Role::AWSTransferLoggingAccess -->
<g id="edge10" class="edge">
<title>Server::S3::VPC&#45;&gt;Role::AWSTransferLoggingAccess</title>
<path fill="none" stroke="#707070" d="M496.63,-269.52C513.28,-273.5 531.42,-277.85 549.54,-282.19"/>
<polygon fill="#707070" stroke="#707070" points="548.76,-285.6 559.3,-284.53 550.39,-278.79 548.76,-285.6"/>
</g>
</g>
</svg>
