<?xml version="1.0" encoding="UTF-8" standalone="no"?>
<!DOCTYPE svg PUBLIC "-//W3C//DTD SVG 1.1//EN"
 "http://www.w3.org/Graphics/SVG/1.1/DTD/svg11.dtd">
<!-- Generated by graphviz version 2.44.1 (20200629.0846)
 -->
<!-- Title: graphname Pages: 1 -->
<svg width="817pt" height="550pt"
 viewBox="0.00 0.00 817.00 550.00" xmlns="http://www.w3.org/2000/svg" xmlns:xlink="http://www.w3.org/1999/xlink">
<g id="graph0" class="graph" transform="scale(1 1) rotate(0) translate(4 546)">
<title>graphname</title>
<polygon fill="#fafafa" stroke="transparent" points="-4,4 -4,-546 813,-546 813,4 -4,4"/>
<text text-anchor="start" x="338.5" y="-517.4" font-family="Helvetica,sans-Serif" font-weight="bold" font-size="22.00" fill="#383838">Project kops</text>
<text text-anchor="start" x="338.5" y="-492.2" font-family="Helvetica,sans-Serif" font-weight="bold" font-size="16.00" fill="#707070">Target Diagram</text>
<g id="clust1" class="cluster">
<title>cluster_aws</title>
<polygon fill="#f5f5f5" stroke="#f5f5f5" points="8,-8 8,-470 801,-470 801,-8 8,-8"/>
<text text-anchor="start" x="342.5" y="-23" font-family="Helvetica,sans-Serif" font-weight="bold" font-size="20.00" fill="#707070">Provider aws</text>
</g>
<g id="clust2" class="cluster">
<title>cluster_aws_Kops Dependencies</title>
<polygon fill="#eeeeee" stroke="#eeeeee" points="16,-54 16,-462 793,-462 793,-54 16,-54"/>
<text text-anchor="start" x="309.5" y="-65" font-family="Helvetica,sans-Serif" font-weight="bold" font-size="20.00" fill="#383838">Kops Dependencies</text>
</g>
<!-- IamPolicy::AmazonEC2FullAccess -->
<g id="node1" class="node">
<title>IamPolicy::AmazonEC2FullAccess</title>
<polygon fill="#e5e5e5" stroke="#dddddd" points="770,-150 577,-150 577,-92 770,-92 770,-150"/>
<text text-anchor="start" x="589.5" y="-130.2" font-family="Helvetica,sans-Serif" font-weight="bold" font-size="16.00" fill="#707070">IamPolicy</text>
<text text-anchor="start" x="589.5" y="-105.2" font-family="Helvetica,sans-Serif" font-size="16.00" fill="#383838">AmazonEC2FullAccess</text>
</g>
<!-- IamPolicy::AmazonRoute53FullAccess -->
<g id="node2" class="node">
<title>IamPolicy::AmazonRoute53FullAccess</title>
<polygon fill="#e5e5e5" stroke="#dddddd" points="785,-226 562,-226 562,-168 785,-168 785,-226"/>
<text text-anchor="start" x="574.5" y="-206.2" font-family="Helvetica,sans-Serif" font-weight="bold" font-size="16.00" fill="#707070">IamPolicy</text>
<text text-anchor="start" x="574.5" y="-181.2" font-family="Helvetica,sans-Serif" font-size="16.00" fill="#383838">AmazonRoute53FullAccess</text>
</g>
<!-- IamPolicy::AmazonS3FullAccess -->
<g id="node3" class="node">
<title>IamPolicy::AmazonS3FullAccess</title>
<polygon fill="#e5e5e5" stroke="#dddddd" points="764.5,-302 582.5,-302 582.5,-244 764.5,-244 764.5,-302"/>
<text text-anchor="start" x="594.5" y="-282.2" font-family="Helvetica,sans-Serif" font-weight="bold" font-size="16.00" fill="#707070">IamPolicy</text>
<text text-anchor="start" x="594.5" y="-257.2" font-family="Helvetica,sans-Serif" font-size="16.00" fill="#383838">AmazonS3FullAccess</text>
</g>
<!-- IamPolicy::IAMFullAccess -->
<g id="node4" class="node">
<title>IamPolicy::IAMFullAccess</title>
<polygon fill="#e5e5e5" stroke="#dddddd" points="739.5,-378 607.5,-378 607.5,-320 739.5,-320 739.5,-378"/>
<text text-anchor="start" x="619.5" y="-358.2" font-family="Helvetica,sans-Serif" font-weight="bold" font-size="16.00" fill="#707070">IamPolicy</text>
<text text-anchor="start" x="619.5" y="-333.2" font-family="Helvetica,sans-Serif" font-size="16.00" fill="#383838">IAMFullAccess</text>
</g>
<!-- IamPolicy::AmazonVPCFullAccess -->
<g id="node5" class="node">
<title>IamPolicy::AmazonVPCFullAccess</title>
<polygon fill="#e5e5e5" stroke="#dddddd" points="771,-454 576,-454 576,-396 771,-396 771,-454"/>
<text text-anchor="start" x="588.5" y="-434.2" font-family="Helvetica,sans-Serif" font-weight="bold" font-size="16.00" fill="#707070">IamPolicy</text>
<text text-anchor="start" x="588.5" y="-409.2" font-family="Helvetica,sans-Serif" font-size="16.00" fill="#383838">AmazonVPCFullAccess</text>
</g>
<!-- IamGroup::kops -->
<g id="node6" class="node">
<title>IamGroup::kops</title>
<polygon fill="#e5e5e5" stroke="#dddddd" points="464,-302 364,-302 364,-244 464,-244 464,-302"/>
<text text-anchor="start" x="376" y="-282.2" font-family="Helvetica,sans-Serif" font-weight="bold" font-size="16.00" fill="#707070">IamGroup</text>
<text text-anchor="start" x="376" y="-257.2" font-family="Helvetica,sans-Serif" font-size="16.00" fill="#383838">kops</text>
</g>
<!-- IamGroup::kops&#45;&gt;IamPolicy::AmazonEC2FullAccess -->
<g id="edge1" class="edge">
<title>IamGroup::kops&#45;&gt;IamPolicy::AmazonEC2FullAccess</title>
<path fill="none" stroke="#707070" d="M464.14,-265.03C485.2,-259.54 508.84,-250.33 526,-235 553.87,-210.1 534.14,-183.92 562,-159 563.98,-157.22 566.06,-155.53 568.2,-153.92"/>
<polygon fill="#707070" stroke="#707070" points="570.5,-156.59 576.8,-148.07 566.56,-150.8 570.5,-156.59"/>
</g>
<!-- IamGroup::kops&#45;&gt;IamPolicy::AmazonRoute53FullAccess -->
<g id="edge2" class="edge">
<title>IamGroup::kops&#45;&gt;IamPolicy::AmazonRoute53FullAccess</title>
<path fill="none" stroke="#707070" d="M464.04,-258.53C492.45,-250.14 529.4,-239.24 564.28,-228.94"/>
<polygon fill="#707070" stroke="#707070" points="565.46,-232.24 574.06,-226.06 563.47,-225.53 565.46,-232.24"/>
</g>
<!-- IamGroup::kops&#45;&gt;IamPolicy::AmazonS3FullAccess -->
<g id="edge3" class="edge">
<title>IamGroup::kops&#45;&gt;IamPolicy::AmazonS3FullAccess</title>
<path fill="none" stroke="#707070" d="M464.04,-273C494.58,-273 535,-273 572.1,-273"/>
<polygon fill="#707070" stroke="#707070" points="572.47,-276.5 582.47,-273 572.47,-269.5 572.47,-276.5"/>
</g>
<!-- IamGroup::kops&#45;&gt;IamPolicy::IAMFullAccess -->
<g id="edge4" class="edge">
<title>IamGroup::kops&#45;&gt;IamPolicy::IAMFullAccess</title>
<path fill="none" stroke="#707070" d="M464.04,-287.47C501.67,-298.58 554.29,-314.11 597.24,-326.79"/>
<polygon fill="#707070" stroke="#707070" points="596.51,-330.22 607.09,-329.7 598.49,-323.51 596.51,-330.22"/>
</g>
<!-- IamGroup::kops&#45;&gt;IamPolicy::AmazonVPCFullAccess -->
<g id="edge5" class="edge">
<title>IamGroup::kops&#45;&gt;IamPolicy::AmazonVPCFullAccess</title>
<path fill="none" stroke="#707070" d="M446.13,-302.1C474.51,-327.38 518.53,-363.51 562,-387 565.04,-388.64 568.16,-390.23 571.34,-391.77"/>
<polygon fill="#707070" stroke="#707070" points="569.9,-394.96 580.44,-395.98 572.83,-388.61 569.9,-394.96"/>
</g>
<!-- IamUser::kops -->
<g id="node7" class="node">
<title>IamUser::kops</title>
<polygon fill="#e5e5e5" stroke="#dddddd" points="189,-302 101,-302 101,-244 189,-244 189,-302"/>
<text text-anchor="start" x="113" y="-282.2" font-family="Helvetica,sans-Serif" font-weight="bold" font-size="16.00" fill="#707070">IamUser</text>
<text text-anchor="start" x="113" y="-257.2" font-family="Helvetica,sans-Serif" font-size="16.00" fill="#383838">kops</text>
</g>
<!-- IamUser::kops&#45;&gt;IamGroup::kops -->
<g id="edge6" class="edge">
<title>IamUser::kops&#45;&gt;IamGroup::kops</title>
<path fill="none" stroke="#707070" d="M189.19,-273C233.84,-273 303.85,-273 353.67,-273"/>
<polygon fill="#707070" stroke="#707070" points="353.98,-276.5 363.98,-273 353.98,-269.5 353.98,-276.5"/>
</g>
<!-- HostedZone::grucloud.org. -->
<g id="node8" class="node">
<title>HostedZone::grucloud.org.</title>
<polygon fill="#e5e5e5" stroke="#dddddd" points="473.5,-150 354.5,-150 354.5,-92 473.5,-92 473.5,-150"/>
<text text-anchor="start" x="367" y="-130.2" font-family="Helvetica,sans-Serif" font-weight="bold" font-size="16.00" fill="#707070">HostedZone</text>
<text text-anchor="start" x="367" y="-105.2" font-family="Helvetica,sans-Serif" font-size="16.00" fill="#383838">grucloud.org.</text>
</g>
<!-- HostedZone::kops.example.grucloud.org. -->
<g id="node9" class="node">
<title>HostedZone::kops.example.grucloud.org.</title>
<polygon fill="#e5e5e5" stroke="#dddddd" points="526,-226 302,-226 302,-168 526,-168 526,-226"/>
<text text-anchor="start" x="314" y="-206.2" font-family="Helvetica,sans-Serif" font-weight="bold" font-size="16.00" fill="#707070">HostedZone</text>
<text text-anchor="start" x="314" y="-181.2" font-family="Helvetica,sans-Serif" font-size="16.00" fill="#383838">kops.example.grucloud.org.</text>
</g>
<!-- Route53Record::kops.example.grucloud.org&#45;ns -->
<g id="node10" class="node">
<title>Route53Record::kops.example.grucloud.org&#45;ns</title>
<polygon fill="#e5e5e5" stroke="#dddddd" points="266,-226 24,-226 24,-168 266,-168 266,-226"/>
<text text-anchor="start" x="36" y="-206.2" font-family="Helvetica,sans-Serif" font-weight="bold" font-size="16.00" fill="#707070">Route53Record</text>
<text text-anchor="start" x="36" y="-181.2" font-family="Helvetica,sans-Serif" font-size="16.00" fill="#383838">kops.example.grucloud.org&#45;ns</text>
</g>
<!-- Route53Record::kops.example.grucloud.org&#45;ns&#45;&gt;HostedZone::grucloud.org. -->
<g id="edge7" class="edge">
<title>Route53Record::kops.example.grucloud.org&#45;ns&#45;&gt;HostedZone::grucloud.org.</title>
<path fill="none" stroke="#707070" d="M248.08,-167.94C280.36,-158.76 315.23,-148.83 344.55,-140.48"/>
<polygon fill="#707070" stroke="#707070" points="345.61,-143.82 354.27,-137.72 343.7,-137.09 345.61,-143.82"/>
</g>
<!-- Route53Record::kops.example.grucloud.org&#45;ns&#45;&gt;HostedZone::kops.example.grucloud.org. -->
<g id="edge8" class="edge">
<title>Route53Record::kops.example.grucloud.org&#45;ns&#45;&gt;HostedZone::kops.example.grucloud.org.</title>
<path fill="none" stroke="#707070" d="M266.22,-197C274.78,-197 283.41,-197 291.97,-197"/>
<polygon fill="#707070" stroke="#707070" points="291.98,-200.5 301.98,-197 291.98,-193.5 291.98,-200.5"/>
</g>
<!-- S3Bucket::kops.example.grucloud.org -->
<g id="node11" class="node">
<title>S3Bucket::kops.example.grucloud.org</title>
<polygon fill="#e5e5e5" stroke="#dddddd" points="255,-150 35,-150 35,-92 255,-92 255,-150"/>
<text text-anchor="start" x="47" y="-130.2" font-family="Helvetica,sans-Serif" font-weight="bold" font-size="16.00" fill="#707070">S3Bucket</text>
<text text-anchor="start" x="47" y="-105.2" font-family="Helvetica,sans-Serif" font-size="16.00" fill="#383838">kops.example.grucloud.org</text>
</g>
</g>
</svg>
