<?xml version="1.0" encoding="UTF-8" standalone="no"?>
<!DOCTYPE svg PUBLIC "-//W3C//DTD SVG 1.1//EN"
 "http://www.w3.org/Graphics/SVG/1.1/DTD/svg11.dtd">
<!-- Generated by graphviz version 7.1.0 (20230121.1956)
 -->
<!-- Title: graphname Pages: 1 -->
<svg width="1327pt" height="313pt"
 viewBox="0.00 0.00 1327.00 313.00" xmlns="http://www.w3.org/2000/svg" xmlns:xlink="http://www.w3.org/1999/xlink">
<g id="graph0" class="graph" transform="scale(1 1) rotate(0) translate(4 309)">
<title>graphname</title>
<polygon fill="#fafafa" stroke="none" points="-4,4 -4,-309 1323,-309 1323,4 -4,4"/>
<text text-anchor="start" x="575.5" y="-280.4" font-family="Helvetica,sans-Serif" font-weight="bold" font-size="22.00" fill="#383838">Project 2&#45;github</text>
<text text-anchor="start" x="655.5" y="-264.8" font-family="Helvetica,sans-Serif" font-size="14.00"> &#160;</text>
<text text-anchor="start" x="575.5" y="-243.2" font-family="Helvetica,sans-Serif" font-weight="bold" font-size="16.00" fill="#707070">Target Diagram</text>
<g id="clust1" class="cluster">
<title>cluster_aws</title>
<polygon fill="#f5f5f5" stroke="#f5f5f5" points="8,-8 8,-221 1311,-221 1311,-8 8,-8"/>
<text text-anchor="start" x="597.5" y="-23" font-family="Helvetica,sans-Serif" font-weight="bold" font-size="20.00" fill="#707070">Provider aws</text>
</g>
<g id="clust2" class="cluster">
<title>cluster_aws_</title>
<polygon fill="#eeeeee" stroke="#eeeeee" points="16,-54 16,-213 1303,-213 1303,-54 16,-54"/>
<text text-anchor="start" x="659.36" y="-58.3" font-family="Helvetica,sans-Serif" font-size="1.00" fill="#383838"> </text>
</g>
<!-- MetricAlarm::InboundWebhook&#45;Lambda&#45;Invocation&#45;Alarm&#45;sam&#45;app -->
<g id="node1" class="node">
<title>MetricAlarm::InboundWebhook&#45;Lambda&#45;Invocation&#45;Alarm&#45;sam&#45;app</title>
<polygon fill="#e5e5e5" stroke="#dddddd" points="337.5,-205 29.5,-205 29.5,-147 337.5,-147 337.5,-205"/>
<text text-anchor="start" x="41.5" y="-185.2" font-family="Helvetica,sans-Serif" font-weight="bold" font-size="16.00" fill="#707070">CloudWatch::MetricAlarm</text>
<text text-anchor="start" x="41.5" y="-160.2" font-family="Helvetica,sans-Serif" font-size="16.00" fill="#383838">InboundWebhook&#45;Lambda&#45;Invocation...</text>
</g>
<!-- Role::sam&#45;app&#45;WebhookFunctionRole&#45;1QD1BF9DJZ6WC -->
<g id="node2" class="node">
<title>Role::sam&#45;app&#45;WebhookFunctionRole&#45;1QD1BF9DJZ6WC</title>
<polygon fill="#e5e5e5" stroke="#dddddd" points="1051,-129 734,-129 734,-71 1051,-71 1051,-129"/>
<text text-anchor="start" x="746.5" y="-109.2" font-family="Helvetica,sans-Serif" font-weight="bold" font-size="16.00" fill="#707070">IAM::Role</text>
<text text-anchor="start" x="746.5" y="-84.2" font-family="Helvetica,sans-Serif" font-size="16.00" fill="#383838">sam&#45;app&#45;WebhookFunctionRole&#45;1QD1...</text>
</g>
<!-- Secret::WebhookSecret&#45;sam&#45;app -->
<g id="node5" class="node">
<title>Secret::WebhookSecret&#45;sam&#45;app</title>
<polygon fill="#e5e5e5" stroke="#dddddd" points="1295,-153 1087,-153 1087,-95 1295,-95 1295,-153"/>
<text text-anchor="start" x="1099" y="-133.2" font-family="Helvetica,sans-Serif" font-weight="bold" font-size="16.00" fill="#707070">SecretsManager::Secret</text>
<text text-anchor="start" x="1099" y="-108.2" font-family="Helvetica,sans-Serif" font-size="16.00" fill="#383838">WebhookSecret&#45;sam&#45;app</text>
</g>
<!-- Role::sam&#45;app&#45;WebhookFunctionRole&#45;1QD1BF9DJZ6WC&#45;&gt;Secret::WebhookSecret&#45;sam&#45;app -->
<g id="edge1" class="edge">
<title>Role::sam&#45;app&#45;WebhookFunctionRole&#45;1QD1BF9DJZ6WC&#45;&gt;Secret::WebhookSecret&#45;sam&#45;app</title>
<path fill="none" stroke="#707070" d="M1051.3,-112.77C1059.48,-113.43 1067.62,-114.09 1075.62,-114.74"/>
<polygon fill="#707070" stroke="#707070" points="1075.07,-118.21 1085.32,-115.53 1075.63,-111.23 1075.07,-118.21"/>
</g>
<!-- Function::InboundWebhook&#45;Lambda&#45;cb9166b0&#45;ac6d&#45;11ed&#45;9aac&#45;0a4580dc23a9 -->
<g id="node3" class="node">
<title>Function::InboundWebhook&#45;Lambda&#45;cb9166b0&#45;ac6d&#45;11ed&#45;9aac&#45;0a4580dc23a9</title>
<polygon fill="#e5e5e5" stroke="#dddddd" points="698,-129 379,-129 379,-71 698,-71 698,-129"/>
<text text-anchor="start" x="391.5" y="-109.2" font-family="Helvetica,sans-Serif" font-weight="bold" font-size="16.00" fill="#707070">Lambda::Function</text>
<text text-anchor="start" x="391.5" y="-84.2" font-family="Helvetica,sans-Serif" font-size="16.00" fill="#383838">InboundWebhook&#45;Lambda&#45;cb9166b0&#45;a...</text>
</g>
<!-- Function::InboundWebhook&#45;Lambda&#45;cb9166b0&#45;ac6d&#45;11ed&#45;9aac&#45;0a4580dc23a9&#45;&gt;Role::sam&#45;app&#45;WebhookFunctionRole&#45;1QD1BF9DJZ6WC -->
<g id="edge2" class="edge">
<title>Function::InboundWebhook&#45;Lambda&#45;cb9166b0&#45;ac6d&#45;11ed&#45;9aac&#45;0a4580dc23a9&#45;&gt;Role::sam&#45;app&#45;WebhookFunctionRole&#45;1QD1BF9DJZ6WC</title>
<path fill="none" stroke="#707070" d="M698.25,-100C706.24,-100 714.29,-100 722.31,-100"/>
<polygon fill="#707070" stroke="#707070" points="722.12,-103.5 732.12,-100 722.12,-96.5 722.12,-103.5"/>
</g>
<!-- Function::InboundWebhook&#45;Lambda&#45;cb9166b0&#45;ac6d&#45;11ed&#45;9aac&#45;0a4580dc23a9&#45;&gt;Secret::WebhookSecret&#45;sam&#45;app -->
<g id="edge3" class="edge">
<title>Function::InboundWebhook&#45;Lambda&#45;cb9166b0&#45;ac6d&#45;11ed&#45;9aac&#45;0a4580dc23a9&#45;&gt;Secret::WebhookSecret&#45;sam&#45;app</title>
<path fill="none" stroke="#707070" d="M672.4,-129.49C692.93,-133.02 713.97,-136.06 734,-138 874.23,-151.57 910.29,-145.07 1051,-138 1058.99,-137.6 1067.24,-137.07 1075.53,-136.45"/>
<polygon fill="#707070" stroke="#707070" points="1075.65,-139.95 1085.35,-135.67 1075.1,-132.97 1075.65,-139.95"/>
</g>
<!-- Permission::InboundWebhook&#45;Lambda&#45;cb9166b0&#45;ac6d&#45;11ed&#45;9aac&#45;0a4580dc23a9 -->
<g id="node4" class="node">
<title>Permission::InboundWebhook&#45;Lambda&#45;cb9166b0&#45;ac6d&#45;11ed&#45;9aac&#45;0a4580dc23a9</title>
<polygon fill="#e5e5e5" stroke="#dddddd" points="343,-129 24,-129 24,-71 343,-71 343,-129"/>
<text text-anchor="start" x="36.5" y="-109.2" font-family="Helvetica,sans-Serif" font-weight="bold" font-size="16.00" fill="#707070">Lambda::Permission</text>
<text text-anchor="start" x="36.5" y="-84.2" font-family="Helvetica,sans-Serif" font-size="16.00" fill="#383838">InboundWebhook&#45;Lambda&#45;cb9166b0&#45;a...</text>
</g>
<!-- Permission::InboundWebhook&#45;Lambda&#45;cb9166b0&#45;ac6d&#45;11ed&#45;9aac&#45;0a4580dc23a9&#45;&gt;Function::InboundWebhook&#45;Lambda&#45;cb9166b0&#45;ac6d&#45;11ed&#45;9aac&#45;0a4580dc23a9 -->
<g id="edge4" class="edge">
<title>Permission::InboundWebhook&#45;Lambda&#45;cb9166b0&#45;ac6d&#45;11ed&#45;9aac&#45;0a4580dc23a9&#45;&gt;Function::InboundWebhook&#45;Lambda&#45;cb9166b0&#45;ac6d&#45;11ed&#45;9aac&#45;0a4580dc23a9</title>
<path fill="none" stroke="#707070" d="M343.44,-100C351.41,-100 359.41,-100 367.4,-100"/>
<polygon fill="#707070" stroke="#707070" points="367.17,-103.5 377.17,-100 367.17,-96.5 367.17,-103.5"/>
</g>
</g>
</svg>
