<?xml version="1.0" encoding="UTF-8" standalone="no"?>
<!DOCTYPE svg PUBLIC "-//W3C//DTD SVG 1.1//EN"
 "http://www.w3.org/Graphics/SVG/1.1/DTD/svg11.dtd">
<!-- Generated by graphviz version 3.0.0 (20220226.1711)
 -->
<!-- Title: graphname Pages: 1 -->
<svg width="476pt" height="313pt"
 viewBox="0.00 0.00 476.00 313.00" xmlns="http://www.w3.org/2000/svg" xmlns:xlink="http://www.w3.org/1999/xlink">
<g id="graph0" class="graph" transform="scale(1 1) rotate(0) translate(4 309)">
<title>graphname</title>
<polygon fill="#fafafa" stroke="transparent" points="-4,4 -4,-309 472,-309 472,4 -4,4"/>
<text text-anchor="start" x="123" y="-280.4" font-family="Helvetica,sans-Serif" font-weight="bold" font-size="22.00" fill="#383838">Project flow&#45;logs&#45;tgw</text>
<text text-anchor="start" x="230.5" y="-264.8" font-family="Helvetica,sans-Serif" font-size="14.00"> &#160;</text>
<text text-anchor="start" x="123" y="-243.2" font-family="Helvetica,sans-Serif" font-weight="bold" font-size="16.00" fill="#707070">Target Diagram</text>
<g id="clust1" class="cluster">
<title>cluster_aws</title>
<polygon fill="#f5f5f5" stroke="#f5f5f5" points="8,-8 8,-221 460,-221 460,-8 8,-8"/>
<text text-anchor="start" x="172" y="-23" font-family="Helvetica,sans-Serif" font-weight="bold" font-size="20.00" fill="#707070">Provider aws</text>
</g>
<g id="clust2" class="cluster">
<title>cluster_aws_</title>
<polygon fill="#eeeeee" stroke="#eeeeee" points="16,-54 16,-213 452,-213 452,-54 16,-54"/>
<text text-anchor="start" x="233.86" y="-58.3" font-family="Helvetica,sans-Serif" font-size="1.00" fill="#383838"> </text>
</g>
<!-- LogGroup::/aws/flowlog/tgw -->
<g id="node1" class="node">
<title>LogGroup::/aws/flowlog/tgw</title>
<polygon fill="#e5e5e5" stroke="#dddddd" points="444,-129 201,-129 201,-71 444,-71 444,-129"/>
<text text-anchor="start" x="213.5" y="-109.2" font-family="Helvetica,sans-Serif" font-weight="bold" font-size="16.00" fill="#707070">CloudWatchLogs::LogGroup</text>
<text text-anchor="start" x="213.5" y="-84.2" font-family="Helvetica,sans-Serif" font-size="16.00" fill="#383838">/aws/flowlog/tgw</text>
</g>
<!-- FlowLogs::my&#45;flow&#45;log -->
<g id="node2" class="node">
<title>FlowLogs::my&#45;flow&#45;log</title>
<polygon fill="#e5e5e5" stroke="#dddddd" points="165,-167 24,-167 24,-109 165,-109 165,-167"/>
<text text-anchor="start" x="36.5" y="-147.2" font-family="Helvetica,sans-Serif" font-weight="bold" font-size="16.00" fill="#707070">EC2::FlowLogs</text>
<text text-anchor="start" x="36.5" y="-122.2" font-family="Helvetica,sans-Serif" font-size="16.00" fill="#383838">my&#45;flow&#45;log</text>
</g>
<!-- FlowLogs::my&#45;flow&#45;log&#45;&gt;LogGroup::/aws/flowlog/tgw -->
<g id="edge2" class="edge">
<title>FlowLogs::my&#45;flow&#45;log&#45;&gt;LogGroup::/aws/flowlog/tgw</title>
<path fill="none" stroke="#707070" d="M165.15,-126.29C173.44,-124.89 182.1,-123.44 190.91,-121.96"/>
<polygon fill="#707070" stroke="#707070" points="191.62,-125.39 200.9,-120.28 190.46,-118.48 191.62,-125.39"/>
</g>
<!-- TransitGateway::my&#45;tgw -->
<g id="node3" class="node">
<title>TransitGateway::my&#45;tgw</title>
<polygon fill="#e5e5e5" stroke="#dddddd" points="415,-205 230,-205 230,-147 415,-147 415,-205"/>
<text text-anchor="start" x="242.5" y="-185.2" font-family="Helvetica,sans-Serif" font-weight="bold" font-size="16.00" fill="#707070">EC2::TransitGateway</text>
<text text-anchor="start" x="242.5" y="-160.2" font-family="Helvetica,sans-Serif" font-size="16.00" fill="#383838">my&#45;tgw</text>
</g>
<!-- FlowLogs::my&#45;flow&#45;log&#45;&gt;TransitGateway::my&#45;tgw -->
<g id="edge1" class="edge">
<title>FlowLogs::my&#45;flow&#45;log&#45;&gt;TransitGateway::my&#45;tgw</title>
<path fill="none" stroke="#707070" d="M165.15,-149.71C182.41,-152.61 201.26,-155.78 219.71,-158.88"/>
<polygon fill="#707070" stroke="#707070" points="219.16,-162.34 229.61,-160.55 220.33,-155.44 219.16,-162.34"/>
</g>
</g>
</svg>
