<?xml version="1.0" encoding="UTF-8" standalone="no"?><svg xmlns="http://www.w3.org/2000/svg" xmlns:xlink="http://www.w3.org/1999/xlink" contentStyleType="text/css" height="906px" preserveAspectRatio="none" style="width:1183px;height:906px;background:#FFFFFF;" version="1.1" viewBox="0 0 1183 906" width="1183px" zoomAndPan="magnify"><defs/><g><rect height="26.4883" style="stroke:#00000000;stroke-width:1.0;fill:none;" width="277" x="401.5" y="15"/><text fill="#000000" font-family="sans-serif" font-size="14" font-weight="bold" lengthAdjust="spacing" textLength="267" x="406.5" y="33.5352">Resources for project vpn-azure-gcp</text><rect fill="#F1F1F1" height="36.4883" rx="12.5" ry="12.5" style="stroke:#181818;stroke-width:1.5;" width="52" x="480" y="452.9063"/><text fill="#000000" font-family="sans-serif" font-size="14" lengthAdjust="spacing" textLength="32" x="490" y="476.4414">Infra</text><rect fill="#F1F1F1" height="36.4883" rx="12.5" ry="12.5" style="stroke:#181818;stroke-width:1.5;" width="59" x="582" y="452.9063"/><text fill="#000000" font-family="sans-serif" font-size="14" lengthAdjust="spacing" textLength="39" x="592" y="476.4414">azure</text><rect fill="#F1F1F1" height="36.4883" rx="12.5" ry="12.5" style="stroke:#181818;stroke-width:1.5;" width="83" x="691" y="113.9766"/><text fill="#000000" font-family="sans-serif" font-size="14" lengthAdjust="spacing" textLength="63" x="701" y="137.5117">Compute</text><rect fill="#F1F1F1" height="36.4883" rx="12.5" ry="12.5" style="stroke:#181818;stroke-width:1.5;" width="132" x="824" y="57.4883"/><text fill="#000000" font-family="sans-serif" font-size="14" lengthAdjust="spacing" textLength="112" x="834" y="81.0234">SshPublicKey (1)</text><path d="M774,132.2207 L784,132.2207 C799,132.2207 799,75.7324 814,75.7324 L824,75.7324 " fill="none" style="stroke:#181818;stroke-width:1.0;"/><rect fill="#F1F1F1" height="36.4883" rx="12.5" ry="12.5" style="stroke:#181818;stroke-width:1.5;" width="145" x="824" y="113.9766"/><text fill="#000000" font-family="sans-serif" font-size="14" lengthAdjust="spacing" textLength="125" x="834" y="137.5117">VirtualMachine (1)</text><path d="M774,132.2207 L784,132.2207 C799,132.2207 799,132.2207 814,132.2207 L824,132.2207 " fill="none" style="stroke:#181818;stroke-width:1.0;"/><rect fill="#F1F1F1" height="36.4883" rx="12.5" ry="12.5" style="stroke:#181818;stroke-width:1.5;" width="213" x="824" y="170.4648"/><text fill="#000000" font-family="sans-serif" font-size="14" lengthAdjust="spacing" textLength="193" x="834" y="194">VirtualMachineExtension (1)</text><path d="M774,132.2207 L784,132.2207 C799,132.2207 799,188.709 814,188.709 L824,188.709 " fill="none" style="stroke:#181818;stroke-width:1.0;"/><path d="M641,471.1504 L651,471.1504 C666,471.1504 666,132.2207 681,132.2207 L691,132.2207 " fill="none" style="stroke:#181818;stroke-width:1.0;"/><rect fill="#F1F1F1" height="36.4883" rx="12.5" ry="12.5" style="stroke:#181818;stroke-width:1.5;" width="77" x="691" y="509.3945"/><text fill="#000000" font-family="sans-serif" font-size="14" lengthAdjust="spacing" textLength="57" x="701" y="532.9297">Network</text><rect fill="#F1F1F1" height="36.4883" rx="12.5" ry="12.5" style="stroke:#181818;stroke-width:1.5;" width="192" x="818" y="226.9531"/><text fill="#000000" font-family="sans-serif" font-size="14" lengthAdjust="spacing" textLength="172" x="828" y="250.4883">LocalNetworkGateway (1)</text><path d="M768,527.6387 L778,527.6387 C793,527.6387 793,245.1973 808,245.1973 L818,245.1973 " fill="none" style="stroke:#181818;stroke-width:1.0;"/><rect fill="#F1F1F1" height="36.4883" rx="12.5" ry="12.5" style="stroke:#181818;stroke-width:1.5;" width="160" x="818" y="283.4414"/><text fill="#000000" font-family="sans-serif" font-size="14" lengthAdjust="spacing" textLength="140" x="828" y="306.9766">NetworkInterface (1)</text><path d="M768,527.6387 L778,527.6387 C793,527.6387 793,301.6855 808,301.6855 L818,301.6855 " fill="none" style="stroke:#181818;stroke-width:1.0;"/><rect fill="#F1F1F1" height="36.4883" rx="12.5" ry="12.5" style="stroke:#181818;stroke-width:1.5;" width="197" x="818" y="339.9297"/><text fill="#000000" font-family="sans-serif" font-size="14" lengthAdjust="spacing" textLength="177" x="828" y="363.4648">NetworkSecurityGroup (1)</text><path d="M768,527.6387 L778,527.6387 C793,527.6387 793,358.1738 808,358.1738 L818,358.1738 " fill="none" style="stroke:#181818;stroke-width:1.0;"/><rect fill="#F1F1F1" height="36.4883" rx="12.5" ry="12.5" style="stroke:#181818;stroke-width:1.5;" width="152" x="818" y="396.418"/><text fill="#000000" font-family="sans-serif" font-size="14" lengthAdjust="spacing" textLength="132" x="828" y="419.9531">PublicIPAddress (1)</text><path d="M768,527.6387 L778,527.6387 C793,527.6387 793,414.6621 808,414.6621 L818,414.6621 " fill="none" style="stroke:#181818;stroke-width:1.0;"/><rect fill="#F1F1F1" height="36.4883" rx="12.5" ry="12.5" style="stroke:#181818;stroke-width:1.5;" width="83" x="818" y="452.9063"/><text fill="#000000" font-family="sans-serif" font-size="14" lengthAdjust="spacing" textLength="63" x="828" y="476.4414">Route (1)</text><path d="M768,527.6387 L778,527.6387 C793,527.6387 793,471.1504 808,471.1504 L818,471.1504 " fill="none" style="stroke:#181818;stroke-width:1.0;"/><rect fill="#F1F1F1" height="36.4883" rx="12.5" ry="12.5" style="stroke:#181818;stroke-width:1.5;" width="121" x="818" y="509.3945"/><text fill="#000000" font-family="sans-serif" font-size="14" lengthAdjust="spacing" textLength="101" x="828" y="532.9297">RouteTable (1)</text><path d="M768,527.6387 L778,527.6387 C793,527.6387 793,527.6387 808,527.6387 L818,527.6387 " fill="none" style="stroke:#181818;stroke-width:1.0;"/><rect fill="#F1F1F1" height="36.4883" rx="12.5" ry="12.5" style="stroke:#181818;stroke-width:1.5;" width="91" x="818" y="565.8828"/><text fill="#000000" font-family="sans-serif" font-size="14" lengthAdjust="spacing" textLength="71" x="828" y="589.418">Subnet (2)</text><path d="M768,527.6387 L778,527.6387 C793,527.6387 793,584.127 808,584.127 L818,584.127 " fill="none" style="stroke:#181818;stroke-width:1.0;"/><rect fill="#F1F1F1" height="36.4883" rx="12.5" ry="12.5" style="stroke:#181818;stroke-width:1.5;" width="145" x="818" y="622.3711"/><text fill="#000000" font-family="sans-serif" font-size="14" lengthAdjust="spacing" textLength="125" x="828" y="645.9063">VirtualNetwork (1)</text><path d="M768,527.6387 L778,527.6387 C793,527.6387 793,640.6152 808,640.6152 L818,640.6152 " fill="none" style="stroke:#181818;stroke-width:1.0;"/><rect fill="#F1F1F1" height="36.4883" rx="12.5" ry="12.5" style="stroke:#181818;stroke-width:1.5;" width="202" x="818" y="678.8594"/><text fill="#000000" font-family="sans-serif" font-size="14" lengthAdjust="spacing" textLength="182" x="828" y="702.3945">VirtualNetworkGateway (1)</text><path d="M768,527.6387 L778,527.6387 C793,527.6387 793,697.1035 808,697.1035 L818,697.1035 " fill="none" style="stroke:#181818;stroke-width:1.0;"/><rect fill="#F1F1F1" height="36.4883" rx="12.5" ry="12.5" style="stroke:#181818;stroke-width:1.5;" width="281" x="818" y="735.3477"/><text fill="#000000" font-family="sans-serif" font-size="14" lengthAdjust="spacing" textLength="261" x="828" y="758.8828">VirtualNetworkGatewayConnection (1)</text><path d="M768,527.6387 L778,527.6387 C793,527.6387 793,753.5918 808,753.5918 L818,753.5918 " fill="none" style="stroke:#181818;stroke-width:1.0;"/><rect fill="#F1F1F1" height="36.4883" rx="12.5" ry="12.5" style="stroke:#181818;stroke-width:1.5;" width="353" x="818" y="791.8359"/><text fill="#000000" font-family="sans-serif" font-size="14" lengthAdjust="spacing" textLength="333" x="828" y="815.3711">VirtualNetworkGatewayConnectionSharedKey (1)</text><path d="M768,527.6387 L778,527.6387 C793,527.6387 793,810.0801 808,810.0801 L818,810.0801 " fill="none" style="stroke:#181818;stroke-width:1.0;"/><path d="M641,471.1504 L651,471.1504 C666,471.1504 666,527.6387 681,527.6387 L691,527.6387 " fill="none" style="stroke:#181818;stroke-width:1.0;"/><rect fill="#F1F1F1" height="36.4883" rx="12.5" ry="12.5" style="stroke:#181818;stroke-width:1.5;" width="90" x="691" y="848.3242"/><text fill="#000000" font-family="sans-serif" font-size="14" lengthAdjust="spacing" textLength="70" x="701" y="871.8594">Resources</text><rect fill="#F1F1F1" height="36.4883" rx="12.5" ry="12.5" style="stroke:#181818;stroke-width:1.5;" width="149" x="831" y="848.3242"/><text fill="#000000" font-family="sans-serif" font-size="14" lengthAdjust="spacing" textLength="129" x="841" y="871.8594">ResourceGroup (1)</text><path d="M781,866.5684 L791,866.5684 C806,866.5684 806,866.5684 821,866.5684 L831,866.5684 " fill="none" style="stroke:#181818;stroke-width:1.0;"/><path d="M641,471.1504 L651,471.1504 C666,471.1504 666,866.5684 681,866.5684 L691,866.5684 " fill="none" style="stroke:#181818;stroke-width:1.0;"/><path d="M532,471.1504 L542,471.1504 C557,471.1504 557,471.1504 572,471.1504 L582,471.1504 " fill="none" style="stroke:#181818;stroke-width:1.0;"/><rect fill="#F1F1F1" height="36.4883" rx="12.5" ry="12.5" style="stroke:#181818;stroke-width:1.5;" width="68" x="362" y="452.9063"/><text fill="#000000" font-family="sans-serif" font-size="14" lengthAdjust="spacing" textLength="48" x="372" y="476.4414">google</text><rect fill="#F1F1F1" height="36.4883" rx="12.5" ry="12.5" style="stroke:#181818;stroke-width:1.5;" width="80" x="232" y="452.9063"/><text fill="#000000" font-family="sans-serif" font-size="14" lengthAdjust="spacing" textLength="60" x="242" y="476.4414">compute</text><rect fill="#F1F1F1" height="36.4883" rx="12.5" ry="12.5" style="stroke:#181818;stroke-width:1.5;" width="99" x="83" y="226.9531"/><text fill="#000000" font-family="sans-serif" font-size="14" lengthAdjust="spacing" textLength="79" x="93" y="250.4883">Address (1)</text><path d="M232,471.1504 L222,471.1504 C207,471.1504 207,245.1973 192,245.1973 L182,245.1973 " fill="none" style="stroke:#181818;stroke-width:1.0;"/><rect fill="#F1F1F1" height="36.4883" rx="12.5" ry="12.5" style="stroke:#181818;stroke-width:1.5;" width="96" x="86" y="283.4414"/><text fill="#000000" font-family="sans-serif" font-size="14" lengthAdjust="spacing" textLength="76" x="96" y="306.9766">Firewall (2)</text><path d="M232,471.1504 L222,471.1504 C207,471.1504 207,301.6855 192,301.6855 L182,301.6855 " fill="none" style="stroke:#181818;stroke-width:1.0;"/><rect fill="#F1F1F1" height="36.4883" rx="12.5" ry="12.5" style="stroke:#181818;stroke-width:1.5;" width="152" x="30" y="339.9297"/><text fill="#000000" font-family="sans-serif" font-size="14" lengthAdjust="spacing" textLength="132" x="40" y="363.4648">ForwardingRule (3)</text><path d="M232,471.1504 L222,471.1504 C207,471.1504 207,358.1738 192,358.1738 L182,358.1738 " fill="none" style="stroke:#181818;stroke-width:1.0;"/><rect fill="#F1F1F1" height="36.4883" rx="12.5" ry="12.5" style="stroke:#181818;stroke-width:1.5;" width="100" x="82" y="396.418"/><text fill="#000000" font-family="sans-serif" font-size="14" lengthAdjust="spacing" textLength="80" x="92" y="419.9531">Instance (1)</text><path d="M232,471.1504 L222,471.1504 C207,471.1504 207,414.6621 192,414.6621 L182,414.6621 " fill="none" style="stroke:#181818;stroke-width:1.0;"/><rect fill="#F1F1F1" height="36.4883" rx="12.5" ry="12.5" style="stroke:#181818;stroke-width:1.5;" width="100" x="82" y="452.9063"/><text fill="#000000" font-family="sans-serif" font-size="14" lengthAdjust="spacing" textLength="80" x="92" y="476.4414">Network (1)</text><path d="M232,471.1504 L222,471.1504 C207,471.1504 207,471.1504 192,471.1504 L182,471.1504 " fill="none" style="stroke:#181818;stroke-width:1.0;"/><rect fill="#F1F1F1" height="36.4883" rx="12.5" ry="12.5" style="stroke:#181818;stroke-width:1.5;" width="83" x="99" y="509.3945"/><text fill="#000000" font-family="sans-serif" font-size="14" lengthAdjust="spacing" textLength="63" x="109" y="532.9297">Route (1)</text><path d="M232,471.1504 L222,471.1504 C207,471.1504 207,527.6387 192,527.6387 L182,527.6387 " fill="none" style="stroke:#181818;stroke-width:1.0;"/><rect fill="#F1F1F1" height="36.4883" rx="12.5" ry="12.5" style="stroke:#181818;stroke-width:1.5;" width="125" x="57" y="565.8828"/><text fill="#000000" font-family="sans-serif" font-size="14" lengthAdjust="spacing" textLength="105" x="67" y="589.418">Subnetwork (1)</text><path d="M232,471.1504 L222,471.1504 C207,471.1504 207,584.127 192,584.127 L182,584.127 " fill="none" style="stroke:#181818;stroke-width:1.0;"/><rect fill="#F1F1F1" height="36.4883" rx="12.5" ry="12.5" style="stroke:#181818;stroke-width:1.5;" width="172" x="10" y="622.3711"/><text fill="#000000" font-family="sans-serif" font-size="14" lengthAdjust="spacing" textLength="152" x="20" y="645.9063">TargetVpnGateway (1)</text><path d="M232,471.1504 L222,471.1504 C207,471.1504 207,640.6152 192,640.6152 L182,640.6152 " fill="none" style="stroke:#181818;stroke-width:1.0;"/><rect fill="#F1F1F1" height="36.4883" rx="12.5" ry="12.5" style="stroke:#181818;stroke-width:1.5;" width="118" x="64" y="678.8594"/><text fill="#000000" font-family="sans-serif" font-size="14" lengthAdjust="spacing" textLength="98" x="74" y="702.3945">VpnTunnel (1)</text><path d="M232,471.1504 L222,471.1504 C207,471.1504 207,697.1035 192,697.1035 L182,697.1035 " fill="none" style="stroke:#181818;stroke-width:1.0;"/><path d="M362,471.1504 L352,471.1504 C337,471.1504 337,471.1504 322,471.1504 L312,471.1504 " fill="none" style="stroke:#181818;stroke-width:1.0;"/><path d="M480,471.1504 L470,471.1504 C455,471.1504 455,471.1504 440,471.1504 L430,471.1504 " fill="none" style="stroke:#181818;stroke-width:1.0;"/><!--MD5=[922b401f69636d8d50c75f9963dd8bb7]
@startmindmap
title Resources for project vpn-azure-gcp
skinparam monochrome true
+ Infra
++ azure
+++ Compute
++++ SshPublicKey (1)
++++ VirtualMachine (1)
++++ VirtualMachineExtension (1)
+++ Network
++++ LocalNetworkGateway (1)
++++ NetworkInterface (1)
++++ NetworkSecurityGroup (1)
++++ PublicIPAddress (1)
++++ Route (1)
++++ RouteTable (1)
++++ Subnet (2)
++++ VirtualNetwork (1)
++++ VirtualNetworkGateway (1)
++++ VirtualNetworkGatewayConnection (1)
++++ VirtualNetworkGatewayConnectionSharedKey (1)
+++ Resources
++++ ResourceGroup (1)
- - google
- - - compute
- - - - Address (1)
- - - - Firewall (2)
- - - - ForwardingRule (3)
- - - - Instance (1)
- - - - Network (1)
- - - - Route (1)
- - - - Subnetwork (1)
- - - - TargetVpnGateway (1)
- - - - VpnTunnel (1)
@endmindmap

PlantUML version 1.2022.6(Tue Jun 21 14:34:49 BRT 2022)
(GPL source distribution)
Java Runtime: Java(TM) SE Runtime Environment
JVM: Java HotSpot(TM) 64-Bit Server VM
Default Encoding: UTF-8
Language: en
Country: GB
--></g></svg>