<?xml version="1.0" encoding="UTF-8" standalone="no"?>
<!DOCTYPE svg PUBLIC "-//W3C//DTD SVG 1.1//EN"
 "http://www.w3.org/Graphics/SVG/1.1/DTD/svg11.dtd">
<!-- Generated by graphviz version 3.0.0 (20220226.1711)
 -->
<!-- Title: graphname Pages: 1 -->
<svg width="568pt" height="313pt"
 viewBox="0.00 0.00 568.00 313.00" xmlns="http://www.w3.org/2000/svg" xmlns:xlink="http://www.w3.org/1999/xlink">
<g id="graph0" class="graph" transform="scale(1 1) rotate(0) translate(4 309)">
<title>graphname</title>
<polygon fill="#fafafa" stroke="transparent" points="-4,4 -4,-309 564,-309 564,4 -4,4"/>
<text text-anchor="start" x="170" y="-280.4" font-family="Helvetica,sans-Serif" font-weight="bold" font-size="22.00" fill="#383838">Project dhcp&#45;options</text>
<text text-anchor="start" x="276" y="-264.8" font-family="Helvetica,sans-Serif" font-size="14.00"> &#160;</text>
<text text-anchor="start" x="170" y="-243.2" font-family="Helvetica,sans-Serif" font-weight="bold" font-size="16.00" fill="#707070">Live Diagram</text>
<g id="clust1" class="cluster">
<title>cluster_aws</title>
<polygon fill="#f5f5f5" stroke="#f5f5f5" points="8,-8 8,-221 552,-221 552,-8 8,-8"/>
<text text-anchor="start" x="218" y="-23" font-family="Helvetica,sans-Serif" font-weight="bold" font-size="20.00" fill="#707070">Provider aws</text>
</g>
<g id="clust2" class="cluster">
<title>cluster_aws_</title>
<polygon fill="#eeeeee" stroke="#eeeeee" points="16,-54 16,-213 544,-213 544,-54 16,-54"/>
<text text-anchor="start" x="279.86" y="-58.3" font-family="Helvetica,sans-Serif" font-size="1.00" fill="#383838"> </text>
</g>
<!-- DhcpOptions::::endpoint_dhcp_options -->
<g id="node1" class="node">
<title>DhcpOptions::::endpoint_dhcp_options</title>
<polygon fill="#e5e5e5" stroke="#dddddd" points="536,-129 343,-129 343,-71 536,-71 536,-129"/>
<text text-anchor="start" x="355.5" y="-109.2" font-family="Helvetica,sans-Serif" font-weight="bold" font-size="16.00" fill="#707070">EC2::DhcpOptions</text>
<text text-anchor="start" x="355.5" y="-84.2" font-family="Helvetica,sans-Serif" font-size="16.00" fill="#383838">endpoint_dhcp_options</text>
</g>
<!-- DhcpOptionsAssociation::::dhcp&#45;options&#45;assoc::vpc&#45;4&#45;dhcp&#45;option::endpoint_dhcp_options -->
<g id="node2" class="node">
<title>DhcpOptionsAssociation::::dhcp&#45;options&#45;assoc::vpc&#45;4&#45;dhcp&#45;option::endpoint_dhcp_options</title>
<polygon fill="#e5e5e5" stroke="#dddddd" points="307,-167 24,-167 24,-109 307,-109 307,-167"/>
<text text-anchor="start" x="36.5" y="-147.2" font-family="Helvetica,sans-Serif" font-weight="bold" font-size="16.00" fill="#707070">EC2::DhcpOptionsAssociation</text>
<text text-anchor="start" x="36.5" y="-122.2" font-family="Helvetica,sans-Serif" font-size="16.00" fill="#383838">dhcp&#45;options&#45;assoc::vpc&#45;4&#45;dhcp&#45;o...</text>
</g>
<!-- DhcpOptionsAssociation::::dhcp&#45;options&#45;assoc::vpc&#45;4&#45;dhcp&#45;option::endpoint_dhcp_options&#45;&gt;DhcpOptions::::endpoint_dhcp_options -->
<g id="edge2" class="edge">
<title>DhcpOptionsAssociation::::dhcp&#45;options&#45;assoc::vpc&#45;4&#45;dhcp&#45;option::endpoint_dhcp_options&#45;&gt;DhcpOptions::::endpoint_dhcp_options</title>
<path fill="none" stroke="#707070" d="M307.28,-118.33C315.85,-117.13 324.4,-115.94 332.78,-114.77"/>
<polygon fill="#707070" stroke="#707070" points="333.5,-118.2 342.92,-113.35 332.53,-111.27 333.5,-118.2"/>
</g>
<!-- Vpc::::vpc&#45;4&#45;dhcp&#45;option -->
<g id="node3" class="node">
<title>Vpc::::vpc&#45;4&#45;dhcp&#45;option</title>
<polygon fill="#e5e5e5" stroke="#dddddd" points="516.5,-205 362.5,-205 362.5,-147 516.5,-147 516.5,-205"/>
<text text-anchor="start" x="374.5" y="-185.2" font-family="Helvetica,sans-Serif" font-weight="bold" font-size="16.00" fill="#707070">EC2::Vpc</text>
<text text-anchor="start" x="374.5" y="-160.2" font-family="Helvetica,sans-Serif" font-size="16.00" fill="#383838">vpc&#45;4&#45;dhcp&#45;option</text>
</g>
<!-- DhcpOptionsAssociation::::dhcp&#45;options&#45;assoc::vpc&#45;4&#45;dhcp&#45;option::endpoint_dhcp_options&#45;&gt;Vpc::::vpc&#45;4&#45;dhcp&#45;option -->
<g id="edge1" class="edge">
<title>DhcpOptionsAssociation::::dhcp&#45;options&#45;assoc::vpc&#45;4&#45;dhcp&#45;option::endpoint_dhcp_options&#45;&gt;Vpc::::vpc&#45;4&#45;dhcp&#45;option</title>
<path fill="none" stroke="#707070" d="M307.28,-157.67C322.51,-159.8 337.66,-161.91 351.96,-163.91"/>
<polygon fill="#707070" stroke="#707070" points="351.83,-167.43 362.22,-165.34 352.8,-160.49 351.83,-167.43"/>
</g>
</g>
</svg>
