<?xml version="1.0" encoding="UTF-8" standalone="no"?>
<!DOCTYPE svg PUBLIC "-//W3C//DTD SVG 1.1//EN"
 "http://www.w3.org/Graphics/SVG/1.1/DTD/svg11.dtd">
<!-- Generated by graphviz version 3.0.0 (20220226.1711)
 -->
<!-- Title: graphname Pages: 1 -->
<svg width="925pt" height="257pt"
 viewBox="0.00 0.00 925.00 257.00" xmlns="http://www.w3.org/2000/svg" xmlns:xlink="http://www.w3.org/1999/xlink">
<g id="graph0" class="graph" transform="scale(1 1) rotate(0) translate(4 253)">
<title>graphname</title>
<polygon fill="#fafafa" stroke="transparent" points="-4,4 -4,-253 921,-253 921,4 -4,4"/>
<text text-anchor="start" x="316.5" y="-224.4" font-family="Helvetica,sans-Serif" font-weight="bold" font-size="22.00" fill="#383838">Project securityGroupFrom</text>
<text text-anchor="start" x="455" y="-208.8" font-family="Helvetica,sans-Serif" font-size="14.00"> &#160;</text>
<text text-anchor="start" x="316.5" y="-187.2" font-family="Helvetica,sans-Serif" font-weight="bold" font-size="16.00" fill="#707070">Live Diagram</text>
<g id="clust1" class="cluster">
<title>cluster_aws</title>
<polygon fill="#f5f5f5" stroke="#f5f5f5" points="8,-8 8,-165 909,-165 909,-8 8,-8"/>
<text text-anchor="start" x="396.5" y="-23" font-family="Helvetica,sans-Serif" font-weight="bold" font-size="20.00" fill="#707070">Provider aws</text>
</g>
<g id="clust2" class="cluster">
<title>cluster_aws_</title>
<polygon fill="#eeeeee" stroke="#eeeeee" points="16,-54 16,-157 901,-157 901,-54 16,-54"/>
<text text-anchor="start" x="458.36" y="-58.3" font-family="Helvetica,sans-Serif" font-size="1.00" fill="#383838"> </text>
</g>
<!-- SecurityGroup::::ClusterSharedNode -->
<g id="node1" class="node">
<title>SecurityGroup::::ClusterSharedNode</title>
<polygon fill="#e5e5e5" stroke="#dddddd" points="520,-129 343,-129 343,-71 520,-71 520,-129"/>
<text text-anchor="start" x="355.5" y="-109.2" font-family="Helvetica,sans-Serif" font-weight="bold" font-size="16.00" fill="#707070">EC2::SecurityGroup</text>
<text text-anchor="start" x="355.5" y="-84.2" font-family="Helvetica,sans-Serif" font-size="16.00" fill="#383838">ClusterSharedNode</text>
</g>
<!-- SecurityGroup::::eks&#45;cluster&#45;sg&#45;my&#45;cluster -->
<g id="node2" class="node">
<title>SecurityGroup::::eks&#45;cluster&#45;sg&#45;my&#45;cluster</title>
<polygon fill="#e5e5e5" stroke="#dddddd" points="762,-149 556,-149 556,-91 762,-91 762,-149"/>
<text text-anchor="start" x="568" y="-129.2" font-family="Helvetica,sans-Serif" font-weight="bold" font-size="16.00" fill="#707070">EC2::SecurityGroup</text>
<text text-anchor="start" x="568" y="-104.2" font-family="Helvetica,sans-Serif" font-size="16.00" fill="#383838">eks&#45;cluster&#45;sg&#45;my&#45;cluster</text>
</g>
<!-- SecurityGroup::::ClusterSharedNode&#45;&gt;SecurityGroup::::eks&#45;cluster&#45;sg&#45;my&#45;cluster -->
<g id="edge2" class="edge">
<title>SecurityGroup::::ClusterSharedNode&#45;&gt;SecurityGroup::::eks&#45;cluster&#45;sg&#45;my&#45;cluster</title>
<path fill="none" stroke="#707070" d="M520.01,-107.76C528.46,-108.51 537.11,-109.28 545.76,-110.05"/>
<polygon fill="#707070" stroke="#707070" points="545.63,-113.55 555.9,-110.94 546.25,-106.57 545.63,-113.55"/>
</g>
<!-- Vpc::::VPC -->
<g id="node4" class="node">
<title>Vpc::::VPC</title>
<polygon fill="#e5e5e5" stroke="#dddddd" points="893,-139 798,-139 798,-81 893,-81 893,-139"/>
<text text-anchor="start" x="810.5" y="-119.2" font-family="Helvetica,sans-Serif" font-weight="bold" font-size="16.00" fill="#707070">EC2::Vpc</text>
<text text-anchor="start" x="810.5" y="-94.2" font-family="Helvetica,sans-Serif" font-size="16.00" fill="#383838">VPC</text>
</g>
<!-- SecurityGroup::::ClusterSharedNode&#45;&gt;Vpc::::VPC -->
<g id="edge1" class="edge">
<title>SecurityGroup::::ClusterSharedNode&#45;&gt;Vpc::::VPC</title>
<path fill="none" stroke="#707070" d="M520.13,-84.92C586.85,-75.91 680.75,-68.59 762,-82 770.57,-83.41 779.44,-85.6 788.05,-88.14"/>
<polygon fill="#707070" stroke="#707070" points="787.04,-91.5 797.63,-91.14 789.13,-84.82 787.04,-91.5"/>
</g>
<!-- SecurityGroup::::eks&#45;cluster&#45;sg&#45;my&#45;cluster&#45;&gt;Vpc::::VPC -->
<g id="edge3" class="edge">
<title>SecurityGroup::::eks&#45;cluster&#45;sg&#45;my&#45;cluster&#45;&gt;Vpc::::VPC</title>
<path fill="none" stroke="#707070" d="M762.23,-114.46C771,-113.98 779.65,-113.52 787.85,-113.07"/>
<polygon fill="#707070" stroke="#707070" points="788.19,-116.56 797.98,-112.52 787.81,-109.57 788.19,-116.56"/>
</g>
<!-- SecurityGroupRuleIngress::::ClusterSharedNode&#45;rule&#45;ingress&#45;all -->
<g id="node3" class="node">
<title>SecurityGroupRuleIngress::::ClusterSharedNode&#45;rule&#45;ingress&#45;all</title>
<polygon fill="#e5e5e5" stroke="#dddddd" points="307,-139 24,-139 24,-81 307,-81 307,-139"/>
<text text-anchor="start" x="36.5" y="-119.2" font-family="Helvetica,sans-Serif" font-weight="bold" font-size="16.00" fill="#707070">EC2::SecurityGroupRuleIngress</text>
<text text-anchor="start" x="36.5" y="-94.2" font-family="Helvetica,sans-Serif" font-size="16.00" fill="#383838">ClusterSharedNode&#45;rule&#45;ingress&#45;a...</text>
</g>
<!-- SecurityGroupRuleIngress::::ClusterSharedNode&#45;rule&#45;ingress&#45;all&#45;&gt;SecurityGroup::::ClusterSharedNode -->
<g id="edge4" class="edge">
<title>SecurityGroupRuleIngress::::ClusterSharedNode&#45;rule&#45;ingress&#45;all&#45;&gt;SecurityGroup::::ClusterSharedNode</title>
<path fill="none" stroke="#707070" d="M307,-104.68C315.67,-104.35 324.29,-104.02 332.71,-103.7"/>
<polygon fill="#707070" stroke="#707070" points="333.01,-107.2 342.87,-103.32 332.74,-100.2 333.01,-107.2"/>
</g>
<!-- SecurityGroupRuleIngress::::ClusterSharedNode&#45;rule&#45;ingress&#45;all&#45;&gt;SecurityGroup::::eks&#45;cluster&#45;sg&#45;my&#45;cluster -->
<g id="edge5" class="edge">
<title>SecurityGroupRuleIngress::::ClusterSharedNode&#45;rule&#45;ingress&#45;all&#45;&gt;SecurityGroup::::eks&#45;cluster&#45;sg&#45;my&#45;cluster</title>
<path fill="none" stroke="#707070" d="M307.4,-134.38C319.41,-135.84 331.4,-137.09 343,-138 421.42,-144.18 441.5,-143.1 520,-138 528.32,-137.46 536.9,-136.74 545.53,-135.89"/>
<polygon fill="#707070" stroke="#707070" points="546.07,-139.36 555.66,-134.85 545.35,-132.39 546.07,-139.36"/>
</g>
</g>
</svg>
