<?xml version="1.0" encoding="UTF-8" standalone="no"?>
<!DOCTYPE svg PUBLIC "-//W3C//DTD SVG 1.1//EN"
 "http://www.w3.org/Graphics/SVG/1.1/DTD/svg11.dtd">
<!-- Generated by graphviz version 2.44.1 (20200629.0846)
 -->
<!-- Title: graphname Pages: 1 -->
<svg width="239pt" height="237pt"
 viewBox="0.00 0.00 239.00 237.00" xmlns="http://www.w3.org/2000/svg" xmlns:xlink="http://www.w3.org/1999/xlink">
<g id="graph0" class="graph" transform="scale(1 1) rotate(0) translate(4 233)">
<title>graphname</title>
<polygon fill="#fafafa" stroke="transparent" points="-4,4 -4,-233 235,-233 235,4 -4,4"/>
<text text-anchor="start" x="12.5" y="-204.4" font-family="Helvetica,sans-Serif" font-weight="bold" font-size="22.00" fill="#383838">Project github&#45;page</text>
<text text-anchor="start" x="112" y="-188.8" font-family="Helvetica,sans-Serif" font-size="14.00"> &#160;</text>
<text text-anchor="start" x="12.5" y="-167.2" font-family="Helvetica,sans-Serif" font-weight="bold" font-size="16.00" fill="#707070">Target Diagram</text>
<g id="clust1" class="cluster">
<title>cluster_google</title>
<polygon fill="#f5f5f5" stroke="#f5f5f5" points="28,-8 28,-145 203,-145 203,-8 28,-8"/>
<text text-anchor="start" x="40.5" y="-23" font-family="Helvetica,sans-Serif" font-weight="bold" font-size="20.00" fill="#707070">Provider google</text>
</g>
<g id="clust2" class="cluster">
<title>cluster_google_</title>
<polygon fill="#eeeeee" stroke="#eeeeee" points="41,-54 41,-137 190,-137 190,-54 41,-54"/>
<text text-anchor="start" x="115.36" y="-58.3" font-family="Helvetica,sans-Serif" font-size="1.00" fill="#383838"> </text>
</g>
<!-- ManagedZone::domain -->
<g id="node1" class="node">
<title>ManagedZone::domain</title>
<polygon fill="#e5e5e5" stroke="#dddddd" points="182,-129 49,-129 49,-71 182,-71 182,-129"/>
<text text-anchor="start" x="61.5" y="-109.2" font-family="Helvetica,sans-Serif" font-weight="bold" font-size="16.00" fill="#707070">ManagedZone</text>
<text text-anchor="start" x="61.5" y="-84.2" font-family="Helvetica,sans-Serif" font-size="16.00" fill="#383838">domain</text>
</g>
</g>
</svg>
