<?xml version="1.0" encoding="UTF-8" standalone="no"?><svg xmlns="http://www.w3.org/2000/svg" xmlns:xlink="http://www.w3.org/1999/xlink" contentScriptType="application/ecmascript" contentStyleType="text/css" height="454px" preserveAspectRatio="none" style="width:564px;height:454px;background:#FFFFFF;" version="1.1" viewBox="0 0 564 454" width="564px" zoomAndPan="magnify"><defs><filter height="300%" id="f72pt0mgfyl6y" width="300%" x="-1" y="-1"><feGaussianBlur result="blurOut" stdDeviation="2.0"/><feColorMatrix in="blurOut" result="blurOut2" type="matrix" values="0 0 0 0 0 0 0 0 0 0 0 0 0 0 0 0 0 0 .4 0"/><feOffset dx="4.0" dy="4.0" in="blurOut2" result="blurOut3"/><feBlend in="SourceGraphic" in2="blurOut3" mode="normal"/></filter></defs><g><rect fill="none" height="26.4883" style="stroke:none;stroke-width:1.0;" width="238" x="133" y="15"/><text fill="#000000" font-family="sans-serif" font-size="14" font-weight="bold" lengthAdjust="spacing" textLength="228" x="138" y="33.5352">Resources for project Azure VM</text><rect fill="#F8F8F8" filter="url(#f72pt0mgfyl6y)" height="36.4883" rx="12.5" ry="12.5" style="stroke:#383838;stroke-width:1.5;" width="52" x="10" y="226.9531"/><text fill="#000000" font-family="sans-serif" font-size="14" lengthAdjust="spacing" textLength="32" x="20" y="250.4883">Infra</text><rect fill="#F8F8F8" filter="url(#f72pt0mgfyl6y)" height="36.4883" rx="12.5" ry="12.5" style="stroke:#383838;stroke-width:1.5;" width="59" x="112" y="226.9531"/><text fill="#000000" font-family="sans-serif" font-size="14" lengthAdjust="spacing" textLength="39" x="122" y="250.4883">azure</text><rect fill="#F8F8F8" filter="url(#f72pt0mgfyl6y)" height="36.4883" rx="12.5" ry="12.5" style="stroke:#383838;stroke-width:1.5;" width="90" x="221" y="57.4883"/><text fill="#000000" font-family="sans-serif" font-size="14" lengthAdjust="spacing" textLength="70" x="231" y="81.0234">Resources</text><rect fill="#F8F8F8" filter="url(#f72pt0mgfyl6y)" height="36.4883" rx="12.5" ry="12.5" style="stroke:#383838;stroke-width:1.5;" width="149" x="361" y="57.4883"/><text fill="#000000" font-family="sans-serif" font-size="14" lengthAdjust="spacing" textLength="129" x="371" y="81.0234">ResourceGroup (1)</text><path d="M311,75.7324 L321,75.7324 C336,75.7324 336,75.7324 351,75.7324 L361,75.7324 " fill="none" style="stroke:#383838;stroke-width:1.0;"/><path d="M171,245.1973 L181,245.1973 C196,245.1973 196,75.7324 211,75.7324 L221,75.7324 " fill="none" style="stroke:#383838;stroke-width:1.0;"/><rect fill="#F8F8F8" filter="url(#f72pt0mgfyl6y)" height="36.4883" rx="12.5" ry="12.5" style="stroke:#383838;stroke-width:1.5;" width="77" x="221" y="226.9531"/><text fill="#000000" font-family="sans-serif" font-size="14" lengthAdjust="spacing" textLength="57" x="231" y="250.4883">Network</text><rect fill="#F8F8F8" filter="url(#f72pt0mgfyl6y)" height="36.4883" rx="12.5" ry="12.5" style="stroke:#383838;stroke-width:1.5;" width="145" x="348" y="113.9766"/><text fill="#000000" font-family="sans-serif" font-size="14" lengthAdjust="spacing" textLength="125" x="358" y="137.5117">VirtualNetwork (1)</text><path d="M298,245.1973 L308,245.1973 C323,245.1973 323,132.2207 338,132.2207 L348,132.2207 " fill="none" style="stroke:#383838;stroke-width:1.0;"/><rect fill="#F8F8F8" filter="url(#f72pt0mgfyl6y)" height="36.4883" rx="12.5" ry="12.5" style="stroke:#383838;stroke-width:1.5;" width="197" x="348" y="170.4648"/><text fill="#000000" font-family="sans-serif" font-size="14" lengthAdjust="spacing" textLength="177" x="358" y="194">NetworkSecurityGroup (1)</text><path d="M298,245.1973 L308,245.1973 C323,245.1973 323,188.709 338,188.709 L348,188.709 " fill="none" style="stroke:#383838;stroke-width:1.0;"/><rect fill="#F8F8F8" filter="url(#f72pt0mgfyl6y)" height="36.4883" rx="12.5" ry="12.5" style="stroke:#383838;stroke-width:1.5;" width="152" x="348" y="226.9531"/><text fill="#000000" font-family="sans-serif" font-size="14" lengthAdjust="spacing" textLength="132" x="358" y="250.4883">PublicIPAddress (1)</text><path d="M298,245.1973 L308,245.1973 C323,245.1973 323,245.1973 338,245.1973 L348,245.1973 " fill="none" style="stroke:#383838;stroke-width:1.0;"/><rect fill="#F8F8F8" filter="url(#f72pt0mgfyl6y)" height="36.4883" rx="12.5" ry="12.5" style="stroke:#383838;stroke-width:1.5;" width="160" x="348" y="283.4414"/><text fill="#000000" font-family="sans-serif" font-size="14" lengthAdjust="spacing" textLength="140" x="358" y="306.9766">NetworkInterface (1)</text><path d="M298,245.1973 L308,245.1973 C323,245.1973 323,301.6855 338,301.6855 L348,301.6855 " fill="none" style="stroke:#383838;stroke-width:1.0;"/><rect fill="#F8F8F8" filter="url(#f72pt0mgfyl6y)" height="36.4883" rx="12.5" ry="12.5" style="stroke:#383838;stroke-width:1.5;" width="91" x="348" y="339.9297"/><text fill="#000000" font-family="sans-serif" font-size="14" lengthAdjust="spacing" textLength="71" x="358" y="363.4648">Subnet (1)</text><path d="M298,245.1973 L308,245.1973 C323,245.1973 323,358.1738 338,358.1738 L348,358.1738 " fill="none" style="stroke:#383838;stroke-width:1.0;"/><path d="M171,245.1973 L181,245.1973 C196,245.1973 196,245.1973 211,245.1973 L221,245.1973 " fill="none" style="stroke:#383838;stroke-width:1.0;"/><rect fill="#F8F8F8" filter="url(#f72pt0mgfyl6y)" height="36.4883" rx="12.5" ry="12.5" style="stroke:#383838;stroke-width:1.5;" width="83" x="221" y="396.418"/><text fill="#000000" font-family="sans-serif" font-size="14" lengthAdjust="spacing" textLength="63" x="231" y="419.9531">Compute</text><rect fill="#F8F8F8" filter="url(#f72pt0mgfyl6y)" height="36.4883" rx="12.5" ry="12.5" style="stroke:#383838;stroke-width:1.5;" width="145" x="354" y="396.418"/><text fill="#000000" font-family="sans-serif" font-size="14" lengthAdjust="spacing" textLength="125" x="364" y="419.9531">VirtualMachine (1)</text><path d="M304,414.6621 L314,414.6621 C329,414.6621 329,414.6621 344,414.6621 L354,414.6621 " fill="none" style="stroke:#383838;stroke-width:1.0;"/><path d="M171,245.1973 L181,245.1973 C196,245.1973 196,414.6621 211,414.6621 L221,414.6621 " fill="none" style="stroke:#383838;stroke-width:1.0;"/><path d="M62,245.1973 L72,245.1973 C87,245.1973 87,245.1973 102,245.1973 L112,245.1973 " fill="none" style="stroke:#383838;stroke-width:1.0;"/><!--MD5=[736c84d628d2c0d77f3eeef9d61b8a08]
@startmindmap
title Resources for project Azure VM
skinparam monochrome true
+ Infra
++ azure
+++ Resources
++++ ResourceGroup (1)
+++ Network
++++ VirtualNetwork (1)
++++ NetworkSecurityGroup (1)
++++ PublicIPAddress (1)
++++ NetworkInterface (1)
++++ Subnet (1)
+++ Compute
++++ VirtualMachine (1)
@endmindmap

PlantUML version 1.2021.8(Sat Jun 26 03:20:59 COT 2021)
(GPL source distribution)
Java Runtime: OpenJDK Runtime Environment
JVM: OpenJDK 64-Bit Server VM
Default Encoding: UTF-8
Language: en
Country: GB
--></g></svg>