<?xml version="1.0" encoding="UTF-8" standalone="no"?>
<!DOCTYPE svg PUBLIC "-//W3C//DTD SVG 1.1//EN"
 "http://www.w3.org/Graphics/SVG/1.1/DTD/svg11.dtd">
<!-- Generated by graphviz version 3.0.0 (20220226.1711)
 -->
<!-- Title: graphname Pages: 1 -->
<svg width="1116pt" height="997pt"
 viewBox="0.00 0.00 1116.00 997.00" xmlns="http://www.w3.org/2000/svg" xmlns:xlink="http://www.w3.org/1999/xlink">
<g id="graph0" class="graph" transform="scale(1 1) rotate(0) translate(4 993)">
<title>graphname</title>
<polygon fill="#fafafa" stroke="transparent" points="-4,4 -4,-993 1112,-993 1112,4 -4,4"/>
<text text-anchor="start" x="478" y="-964.4" font-family="Helvetica,sans-Serif" font-weight="bold" font-size="22.00" fill="#383838">Project subnet</text>
<text text-anchor="start" x="550.5" y="-948.8" font-family="Helvetica,sans-Serif" font-size="14.00"> &#160;</text>
<text text-anchor="start" x="478" y="-927.2" font-family="Helvetica,sans-Serif" font-weight="bold" font-size="16.00" fill="#707070">Target Diagram</text>
<g id="clust1" class="cluster">
<title>cluster_aws</title>
<polygon fill="#f5f5f5" stroke="#f5f5f5" points="8,-8 8,-905 1100,-905 1100,-8 8,-8"/>
<text text-anchor="start" x="492" y="-23" font-family="Helvetica,sans-Serif" font-weight="bold" font-size="20.00" fill="#707070">Provider aws</text>
</g>
<g id="clust2" class="cluster">
<title>cluster_aws_</title>
<polygon fill="#eeeeee" stroke="#eeeeee" points="16,-54 16,-897 1092,-897 1092,-54 16,-54"/>
<text text-anchor="start" x="553.86" y="-58.3" font-family="Helvetica,sans-Serif" font-size="1.00" fill="#383838"> </text>
</g>
<!-- Vpc::vpc&#45;wizard&#45;vpc -->
<g id="node1" class="node">
<title>Vpc::vpc&#45;wizard&#45;vpc</title>
<polygon fill="#e5e5e5" stroke="#dddddd" points="1084,-471 951,-471 951,-413 1084,-413 1084,-471"/>
<text text-anchor="start" x="963.5" y="-451.2" font-family="Helvetica,sans-Serif" font-weight="bold" font-size="16.00" fill="#707070">EC2::Vpc</text>
<text text-anchor="start" x="963.5" y="-426.2" font-family="Helvetica,sans-Serif" font-size="16.00" fill="#383838">vpc&#45;wizard&#45;vpc</text>
</g>
<!-- InternetGateway::vpc&#45;wizard&#45;igw -->
<g id="node2" class="node">
<title>InternetGateway::vpc&#45;wizard&#45;igw</title>
<polygon fill="#e5e5e5" stroke="#dddddd" points="870.5,-281 679.5,-281 679.5,-223 870.5,-223 870.5,-281"/>
<text text-anchor="start" x="692" y="-261.2" font-family="Helvetica,sans-Serif" font-weight="bold" font-size="16.00" fill="#707070">EC2::InternetGateway</text>
<text text-anchor="start" x="692" y="-236.2" font-family="Helvetica,sans-Serif" font-size="16.00" fill="#383838">vpc&#45;wizard&#45;igw</text>
</g>
<!-- InternetGateway::vpc&#45;wizard&#45;igw&#45;&gt;Vpc::vpc&#45;wizard&#45;vpc -->
<g id="edge1" class="edge">
<title>InternetGateway::vpc&#45;wizard&#45;igw&#45;&gt;Vpc::vpc&#45;wizard&#45;vpc</title>
<path fill="none" stroke="#707070" d="M870.64,-268.02C886.35,-273.36 901.81,-280.49 915,-290 955,-318.83 983.84,-368.66 1000.33,-403.38"/>
<polygon fill="#707070" stroke="#707070" points="997.28,-405.13 1004.65,-412.74 1003.63,-402.2 997.28,-405.13"/>
</g>
<!-- NatGateway::vpc&#45;wizard&#45;nat&#45;public1&#45;us&#45;east&#45;1a -->
<g id="node3" class="node">
<title>NatGateway::vpc&#45;wizard&#45;nat&#45;public1&#45;us&#45;east&#45;1a</title>
<polygon fill="#e5e5e5" stroke="#dddddd" points="599,-620 326,-620 326,-562 599,-562 599,-620"/>
<text text-anchor="start" x="338.5" y="-600.2" font-family="Helvetica,sans-Serif" font-weight="bold" font-size="16.00" fill="#707070">EC2::NatGateway</text>
<text text-anchor="start" x="338.5" y="-575.2" font-family="Helvetica,sans-Serif" font-size="16.00" fill="#383838">vpc&#45;wizard&#45;nat&#45;public1&#45;us&#45;east&#45;1...</text>
</g>
<!-- Subnet::vpc&#45;wizard&#45;subnet&#45;public1&#45;us&#45;east&#45;1a -->
<g id="node6" class="node">
<title>Subnet::vpc&#45;wizard&#45;subnet&#45;public1&#45;us&#45;east&#45;1a</title>
<polygon fill="#e5e5e5" stroke="#dddddd" points="915,-509 635,-509 635,-451 915,-451 915,-509"/>
<text text-anchor="start" x="647" y="-489.2" font-family="Helvetica,sans-Serif" font-weight="bold" font-size="16.00" fill="#707070">EC2::Subnet</text>
<text text-anchor="start" x="647" y="-464.2" font-family="Helvetica,sans-Serif" font-size="16.00" fill="#383838">vpc&#45;wizard&#45;subnet&#45;public1&#45;us&#45;eas...</text>
</g>
<!-- NatGateway::vpc&#45;wizard&#45;nat&#45;public1&#45;us&#45;east&#45;1a&#45;&gt;Subnet::vpc&#45;wizard&#45;subnet&#45;public1&#45;us&#45;east&#45;1a -->
<g id="edge2" class="edge">
<title>NatGateway::vpc&#45;wizard&#45;nat&#45;public1&#45;us&#45;east&#45;1a&#45;&gt;Subnet::vpc&#45;wizard&#45;subnet&#45;public1&#45;us&#45;east&#45;1a</title>
<path fill="none" stroke="#707070" d="M526.22,-561.88C558.35,-547.59 598.32,-530.75 635,-518 640.82,-515.98 646.8,-513.99 652.86,-512.06"/>
<polygon fill="#707070" stroke="#707070" points="653.94,-515.39 662.44,-509.06 651.85,-508.71 653.94,-515.39"/>
</g>
<!-- ElasticIpAddress::vpc&#45;wizard&#45;eip&#45;us&#45;east&#45;1a -->
<g id="node22" class="node">
<title>ElasticIpAddress::vpc&#45;wizard&#45;eip&#45;us&#45;east&#45;1a</title>
<polygon fill="#e5e5e5" stroke="#dddddd" points="880.5,-661 669.5,-661 669.5,-603 880.5,-603 880.5,-661"/>
<text text-anchor="start" x="682" y="-641.2" font-family="Helvetica,sans-Serif" font-weight="bold" font-size="16.00" fill="#707070">EC2::ElasticIpAddress</text>
<text text-anchor="start" x="682" y="-616.2" font-family="Helvetica,sans-Serif" font-size="16.00" fill="#383838">vpc&#45;wizard&#45;eip&#45;us&#45;east&#45;1a</text>
</g>
<!-- NatGateway::vpc&#45;wizard&#45;nat&#45;public1&#45;us&#45;east&#45;1a&#45;&gt;ElasticIpAddress::vpc&#45;wizard&#45;eip&#45;us&#45;east&#45;1a -->
<g id="edge3" class="edge">
<title>NatGateway::vpc&#45;wizard&#45;nat&#45;public1&#45;us&#45;east&#45;1a&#45;&gt;ElasticIpAddress::vpc&#45;wizard&#45;eip&#45;us&#45;east&#45;1a</title>
<path fill="none" stroke="#707070" d="M599.24,-608.92C619.25,-611.57 639.7,-614.27 659.23,-616.85"/>
<polygon fill="#707070" stroke="#707070" points="658.98,-620.34 669.35,-618.18 659.9,-613.4 658.98,-620.34"/>
</g>
<!-- Subnet::vpc&#45;wizard&#45;subnet&#45;private1&#45;us&#45;east&#45;1a -->
<g id="node4" class="node">
<title>Subnet::vpc&#45;wizard&#45;subnet&#45;private1&#45;us&#45;east&#45;1a</title>
<polygon fill="#e5e5e5" stroke="#dddddd" points="914,-889 636,-889 636,-831 914,-831 914,-889"/>
<text text-anchor="start" x="648" y="-869.2" font-family="Helvetica,sans-Serif" font-weight="bold" font-size="16.00" fill="#707070">EC2::Subnet</text>
<text text-anchor="start" x="648" y="-844.2" font-family="Helvetica,sans-Serif" font-size="16.00" fill="#383838">vpc&#45;wizard&#45;subnet&#45;private1&#45;us&#45;ea...</text>
</g>
<!-- Subnet::vpc&#45;wizard&#45;subnet&#45;private1&#45;us&#45;east&#45;1a&#45;&gt;Vpc::vpc&#45;wizard&#45;vpc -->
<g id="edge4" class="edge">
<title>Subnet::vpc&#45;wizard&#45;subnet&#45;private1&#45;us&#45;east&#45;1a&#45;&gt;Vpc::vpc&#45;wizard&#45;vpc</title>
<path fill="none" stroke="#707070" d="M904.8,-830.82C908.41,-828.13 911.83,-825.19 915,-822 963.23,-773.49 998.14,-568.15 1011.03,-481.18"/>
<polygon fill="#707070" stroke="#707070" points="1014.51,-481.58 1012.5,-471.18 1007.59,-480.57 1014.51,-481.58"/>
</g>
<!-- Subnet::vpc&#45;wizard&#45;subnet&#45;private2&#45;us&#45;east&#45;1b -->
<g id="node5" class="node">
<title>Subnet::vpc&#45;wizard&#45;subnet&#45;private2&#45;us&#45;east&#45;1b</title>
<polygon fill="#e5e5e5" stroke="#dddddd" points="914,-433 636,-433 636,-375 914,-375 914,-433"/>
<text text-anchor="start" x="648" y="-413.2" font-family="Helvetica,sans-Serif" font-weight="bold" font-size="16.00" fill="#707070">EC2::Subnet</text>
<text text-anchor="start" x="648" y="-388.2" font-family="Helvetica,sans-Serif" font-size="16.00" fill="#383838">vpc&#45;wizard&#45;subnet&#45;private2&#45;us&#45;ea...</text>
</g>
<!-- Subnet::vpc&#45;wizard&#45;subnet&#45;private2&#45;us&#45;east&#45;1b&#45;&gt;Vpc::vpc&#45;wizard&#45;vpc -->
<g id="edge5" class="edge">
<title>Subnet::vpc&#45;wizard&#45;subnet&#45;private2&#45;us&#45;east&#45;1b&#45;&gt;Vpc::vpc&#45;wizard&#45;vpc</title>
<path fill="none" stroke="#707070" d="M914.16,-425.83C923.26,-427.27 932.23,-428.68 940.84,-430.04"/>
<polygon fill="#707070" stroke="#707070" points="940.34,-433.51 950.77,-431.61 941.43,-426.6 940.34,-433.51"/>
</g>
<!-- Subnet::vpc&#45;wizard&#45;subnet&#45;public1&#45;us&#45;east&#45;1a&#45;&gt;Vpc::vpc&#45;wizard&#45;vpc -->
<g id="edge6" class="edge">
<title>Subnet::vpc&#45;wizard&#45;subnet&#45;public1&#45;us&#45;east&#45;1a&#45;&gt;Vpc::vpc&#45;wizard&#45;vpc</title>
<path fill="none" stroke="#707070" d="M915.2,-458.01C923.99,-456.62 932.64,-455.25 940.96,-453.94"/>
<polygon fill="#707070" stroke="#707070" points="941.59,-457.38 950.93,-452.36 940.5,-450.46 941.59,-457.38"/>
</g>
<!-- Subnet::vpc&#45;wizard&#45;subnet&#45;public2&#45;us&#45;east&#45;1b -->
<g id="node7" class="node">
<title>Subnet::vpc&#45;wizard&#45;subnet&#45;public2&#45;us&#45;east&#45;1b</title>
<polygon fill="#e5e5e5" stroke="#dddddd" points="915,-129 635,-129 635,-71 915,-71 915,-129"/>
<text text-anchor="start" x="647" y="-109.2" font-family="Helvetica,sans-Serif" font-weight="bold" font-size="16.00" fill="#707070">EC2::Subnet</text>
<text text-anchor="start" x="647" y="-84.2" font-family="Helvetica,sans-Serif" font-size="16.00" fill="#383838">vpc&#45;wizard&#45;subnet&#45;public2&#45;us&#45;eas...</text>
</g>
<!-- Subnet::vpc&#45;wizard&#45;subnet&#45;public2&#45;us&#45;east&#45;1b&#45;&gt;Vpc::vpc&#45;wizard&#45;vpc -->
<g id="edge7" class="edge">
<title>Subnet::vpc&#45;wizard&#45;subnet&#45;public2&#45;us&#45;east&#45;1b&#45;&gt;Vpc::vpc&#45;wizard&#45;vpc</title>
<path fill="none" stroke="#707070" d="M903.94,-129C907.84,-131.74 911.55,-134.73 915,-138 990.23,-209.18 1009.72,-337.57 1014.76,-402.34"/>
<polygon fill="#707070" stroke="#707070" points="1011.28,-402.81 1015.47,-412.55 1018.27,-402.33 1011.28,-402.81"/>
</g>
<!-- RouteTable::vpc&#45;wizard&#45;rtb&#45;private1&#45;us&#45;east&#45;1a -->
<g id="node8" class="node">
<title>RouteTable::vpc&#45;wizard&#45;rtb&#45;private1&#45;us&#45;east&#45;1a</title>
<polygon fill="#e5e5e5" stroke="#dddddd" points="908,-813 642,-813 642,-755 908,-755 908,-813"/>
<text text-anchor="start" x="654" y="-793.2" font-family="Helvetica,sans-Serif" font-weight="bold" font-size="16.00" fill="#707070">EC2::RouteTable</text>
<text text-anchor="start" x="654" y="-768.2" font-family="Helvetica,sans-Serif" font-size="16.00" fill="#383838">vpc&#45;wizard&#45;rtb&#45;private1&#45;us&#45;east&#45;...</text>
</g>
<!-- RouteTable::vpc&#45;wizard&#45;rtb&#45;private1&#45;us&#45;east&#45;1a&#45;&gt;Vpc::vpc&#45;wizard&#45;vpc -->
<g id="edge8" class="edge">
<title>RouteTable::vpc&#45;wizard&#45;rtb&#45;private1&#45;us&#45;east&#45;1a&#45;&gt;Vpc::vpc&#45;wizard&#45;vpc</title>
<path fill="none" stroke="#707070" d="M903.94,-755C907.84,-752.26 911.55,-749.27 915,-746 990.23,-674.82 1009.72,-546.43 1014.76,-481.66"/>
<polygon fill="#707070" stroke="#707070" points="1018.27,-481.67 1015.47,-471.45 1011.28,-481.19 1018.27,-481.67"/>
</g>
<!-- RouteTable::vpc&#45;wizard&#45;rtb&#45;private2&#45;us&#45;east&#45;1b -->
<g id="node9" class="node">
<title>RouteTable::vpc&#45;wizard&#45;rtb&#45;private2&#45;us&#45;east&#45;1b</title>
<polygon fill="#e5e5e5" stroke="#dddddd" points="908,-585 642,-585 642,-527 908,-527 908,-585"/>
<text text-anchor="start" x="654" y="-565.2" font-family="Helvetica,sans-Serif" font-weight="bold" font-size="16.00" fill="#707070">EC2::RouteTable</text>
<text text-anchor="start" x="654" y="-540.2" font-family="Helvetica,sans-Serif" font-size="16.00" fill="#383838">vpc&#45;wizard&#45;rtb&#45;private2&#45;us&#45;east&#45;...</text>
</g>
<!-- RouteTable::vpc&#45;wizard&#45;rtb&#45;private2&#45;us&#45;east&#45;1b&#45;&gt;Vpc::vpc&#45;wizard&#45;vpc -->
<g id="edge9" class="edge">
<title>RouteTable::vpc&#45;wizard&#45;rtb&#45;private2&#45;us&#45;east&#45;1b&#45;&gt;Vpc::vpc&#45;wizard&#45;vpc</title>
<path fill="none" stroke="#707070" d="M894.68,-526.87C901.66,-524.14 908.48,-521.19 915,-518 936.78,-507.35 958.61,-491.8 976.41,-477.53"/>
<polygon fill="#707070" stroke="#707070" points="978.76,-480.13 984.29,-471.09 974.33,-474.71 978.76,-480.13"/>
</g>
<!-- RouteTable::vpc&#45;wizard&#45;rtb&#45;public1&#45;us&#45;east&#45;1a -->
<g id="node10" class="node">
<title>RouteTable::vpc&#45;wizard&#45;rtb&#45;public1&#45;us&#45;east&#45;1a</title>
<polygon fill="#e5e5e5" stroke="#dddddd" points="909.5,-357 640.5,-357 640.5,-299 909.5,-299 909.5,-357"/>
<text text-anchor="start" x="653" y="-337.2" font-family="Helvetica,sans-Serif" font-weight="bold" font-size="16.00" fill="#707070">EC2::RouteTable</text>
<text text-anchor="start" x="653" y="-312.2" font-family="Helvetica,sans-Serif" font-size="16.00" fill="#383838">vpc&#45;wizard&#45;rtb&#45;public1&#45;us&#45;east&#45;1...</text>
</g>
<!-- RouteTable::vpc&#45;wizard&#45;rtb&#45;public1&#45;us&#45;east&#45;1a&#45;&gt;Vpc::vpc&#45;wizard&#45;vpc -->
<g id="edge10" class="edge">
<title>RouteTable::vpc&#45;wizard&#45;rtb&#45;public1&#45;us&#45;east&#45;1a&#45;&gt;Vpc::vpc&#45;wizard&#45;vpc</title>
<path fill="none" stroke="#707070" d="M894.68,-357.13C901.66,-359.86 908.48,-362.81 915,-366 936.78,-376.65 958.61,-392.2 976.41,-406.47"/>
<polygon fill="#707070" stroke="#707070" points="974.33,-409.29 984.29,-412.91 978.76,-403.87 974.33,-409.29"/>
</g>
<!-- RouteTable::vpc&#45;wizard&#45;rtb&#45;public2&#45;us&#45;east&#45;1b -->
<g id="node11" class="node">
<title>RouteTable::vpc&#45;wizard&#45;rtb&#45;public2&#45;us&#45;east&#45;1b</title>
<polygon fill="#e5e5e5" stroke="#dddddd" points="909.5,-205 640.5,-205 640.5,-147 909.5,-147 909.5,-205"/>
<text text-anchor="start" x="653" y="-185.2" font-family="Helvetica,sans-Serif" font-weight="bold" font-size="16.00" fill="#707070">EC2::RouteTable</text>
<text text-anchor="start" x="653" y="-160.2" font-family="Helvetica,sans-Serif" font-size="16.00" fill="#383838">vpc&#45;wizard&#45;rtb&#45;public2&#45;us&#45;east&#45;1...</text>
</g>
<!-- RouteTable::vpc&#45;wizard&#45;rtb&#45;public2&#45;us&#45;east&#45;1b&#45;&gt;Vpc::vpc&#45;wizard&#45;vpc -->
<g id="edge11" class="edge">
<title>RouteTable::vpc&#45;wizard&#45;rtb&#45;public2&#45;us&#45;east&#45;1b&#45;&gt;Vpc::vpc&#45;wizard&#45;vpc</title>
<path fill="none" stroke="#707070" d="M902.91,-205.03C907.15,-207.76 911.2,-210.74 915,-214 972.51,-263.38 998.82,-351.75 1009.72,-402.76"/>
<polygon fill="#707070" stroke="#707070" points="1006.32,-403.64 1011.75,-412.74 1013.18,-402.24 1006.32,-403.64"/>
</g>
<!-- RouteTableAssociation::rt&#45;assoc::vpc&#45;wizard&#45;rtb&#45;private1&#45;us&#45;east&#45;1a::vpc&#45;wizard&#45;subnet&#45;private1&#45;us&#45;east&#45;1a -->
<g id="node12" class="node">
<title>RouteTableAssociation::rt&#45;assoc::vpc&#45;wizard&#45;rtb&#45;private1&#45;us&#45;east&#45;1a::vpc&#45;wizard&#45;subnet&#45;private1&#45;us&#45;east&#45;1a</title>
<polygon fill="#e5e5e5" stroke="#dddddd" points="592.5,-882 332.5,-882 332.5,-824 592.5,-824 592.5,-882"/>
<text text-anchor="start" x="344.5" y="-862.2" font-family="Helvetica,sans-Serif" font-weight="bold" font-size="16.00" fill="#707070">EC2::RouteTableAssociation</text>
<text text-anchor="start" x="344.5" y="-837.2" font-family="Helvetica,sans-Serif" font-size="16.00" fill="#383838">rt&#45;assoc::vpc&#45;wizard&#45;rtb&#45;private...</text>
</g>
<!-- RouteTableAssociation::rt&#45;assoc::vpc&#45;wizard&#45;rtb&#45;private1&#45;us&#45;east&#45;1a::vpc&#45;wizard&#45;subnet&#45;private1&#45;us&#45;east&#45;1a&#45;&gt;Subnet::vpc&#45;wizard&#45;subnet&#45;private1&#45;us&#45;east&#45;1a -->
<g id="edge13" class="edge">
<title>RouteTableAssociation::rt&#45;assoc::vpc&#45;wizard&#45;rtb&#45;private1&#45;us&#45;east&#45;1a::vpc&#45;wizard&#45;subnet&#45;private1&#45;us&#45;east&#45;1a&#45;&gt;Subnet::vpc&#45;wizard&#45;subnet&#45;private1&#45;us&#45;east&#45;1a</title>
<path fill="none" stroke="#707070" d="M592.93,-855.92C603.76,-856.16 614.76,-856.41 625.72,-856.66"/>
<polygon fill="#707070" stroke="#707070" points="625.68,-860.16 635.76,-856.88 625.84,-853.16 625.68,-860.16"/>
</g>
<!-- RouteTableAssociation::rt&#45;assoc::vpc&#45;wizard&#45;rtb&#45;private1&#45;us&#45;east&#45;1a::vpc&#45;wizard&#45;subnet&#45;private1&#45;us&#45;east&#45;1a&#45;&gt;RouteTable::vpc&#45;wizard&#45;rtb&#45;private1&#45;us&#45;east&#45;1a -->
<g id="edge12" class="edge">
<title>RouteTableAssociation::rt&#45;assoc::vpc&#45;wizard&#45;rtb&#45;private1&#45;us&#45;east&#45;1a::vpc&#45;wizard&#45;subnet&#45;private1&#45;us&#45;east&#45;1a&#45;&gt;RouteTable::vpc&#45;wizard&#45;rtb&#45;private1&#45;us&#45;east&#45;1a</title>
<path fill="none" stroke="#707070" d="M592.93,-824.24C606.32,-821.26 619.98,-818.23 633.48,-815.23"/>
<polygon fill="#707070" stroke="#707070" points="634.28,-818.63 643.28,-813.05 632.76,-811.8 634.28,-818.63"/>
</g>
<!-- RouteTableAssociation::rt&#45;assoc::vpc&#45;wizard&#45;rtb&#45;private2&#45;us&#45;east&#45;1b::vpc&#45;wizard&#45;subnet&#45;private2&#45;us&#45;east&#45;1b -->
<g id="node13" class="node">
<title>RouteTableAssociation::rt&#45;assoc::vpc&#45;wizard&#45;rtb&#45;private2&#45;us&#45;east&#45;1b::vpc&#45;wizard&#45;subnet&#45;private2&#45;us&#45;east&#45;1b</title>
<polygon fill="#e5e5e5" stroke="#dddddd" points="592.5,-503 332.5,-503 332.5,-445 592.5,-445 592.5,-503"/>
<text text-anchor="start" x="344.5" y="-483.2" font-family="Helvetica,sans-Serif" font-weight="bold" font-size="16.00" fill="#707070">EC2::RouteTableAssociation</text>
<text text-anchor="start" x="344.5" y="-458.2" font-family="Helvetica,sans-Serif" font-size="16.00" fill="#383838">rt&#45;assoc::vpc&#45;wizard&#45;rtb&#45;private...</text>
</g>
<!-- RouteTableAssociation::rt&#45;assoc::vpc&#45;wizard&#45;rtb&#45;private2&#45;us&#45;east&#45;1b::vpc&#45;wizard&#45;subnet&#45;private2&#45;us&#45;east&#45;1b&#45;&gt;Subnet::vpc&#45;wizard&#45;subnet&#45;private2&#45;us&#45;east&#45;1b -->
<g id="edge15" class="edge">
<title>RouteTableAssociation::rt&#45;assoc::vpc&#45;wizard&#45;rtb&#45;private2&#45;us&#45;east&#45;1b::vpc&#45;wizard&#45;subnet&#45;private2&#45;us&#45;east&#45;1b&#45;&gt;Subnet::vpc&#45;wizard&#45;subnet&#45;private2&#45;us&#45;east&#45;1b</title>
<path fill="none" stroke="#707070" d="M592.48,-444.92C606.56,-441.75 620.94,-438.51 635.13,-435.31"/>
<polygon fill="#707070" stroke="#707070" points="635.93,-438.71 644.92,-433.1 634.39,-431.89 635.93,-438.71"/>
</g>
<!-- RouteTableAssociation::rt&#45;assoc::vpc&#45;wizard&#45;rtb&#45;private2&#45;us&#45;east&#45;1b::vpc&#45;wizard&#45;subnet&#45;private2&#45;us&#45;east&#45;1b&#45;&gt;RouteTable::vpc&#45;wizard&#45;rtb&#45;private2&#45;us&#45;east&#45;1b -->
<g id="edge14" class="edge">
<title>RouteTableAssociation::rt&#45;assoc::vpc&#45;wizard&#45;rtb&#45;private2&#45;us&#45;east&#45;1b::vpc&#45;wizard&#45;subnet&#45;private2&#45;us&#45;east&#45;1b&#45;&gt;RouteTable::vpc&#45;wizard&#45;rtb&#45;private2&#45;us&#45;east&#45;1b</title>
<path fill="none" stroke="#707070" d="M573.41,-503.03C599.59,-509.94 627.65,-517.35 654.25,-524.38"/>
<polygon fill="#707070" stroke="#707070" points="653.42,-527.77 663.98,-526.94 655.2,-521.01 653.42,-527.77"/>
</g>
<!-- RouteTableAssociation::rt&#45;assoc::vpc&#45;wizard&#45;rtb&#45;public1&#45;us&#45;east&#45;1a::vpc&#45;wizard&#45;subnet&#45;public1&#45;us&#45;east&#45;1a -->
<g id="node14" class="node">
<title>RouteTableAssociation::rt&#45;assoc::vpc&#45;wizard&#45;rtb&#45;public1&#45;us&#45;east&#45;1a::vpc&#45;wizard&#45;subnet&#45;public1&#45;us&#45;east&#45;1a</title>
<polygon fill="#e5e5e5" stroke="#dddddd" points="594,-385 331,-385 331,-327 594,-327 594,-385"/>
<text text-anchor="start" x="343.5" y="-365.2" font-family="Helvetica,sans-Serif" font-weight="bold" font-size="16.00" fill="#707070">EC2::RouteTableAssociation</text>
<text text-anchor="start" x="343.5" y="-340.2" font-family="Helvetica,sans-Serif" font-size="16.00" fill="#383838">rt&#45;assoc::vpc&#45;wizard&#45;rtb&#45;public1...</text>
</g>
<!-- RouteTableAssociation::rt&#45;assoc::vpc&#45;wizard&#45;rtb&#45;public1&#45;us&#45;east&#45;1a::vpc&#45;wizard&#45;subnet&#45;public1&#45;us&#45;east&#45;1a&#45;&gt;Subnet::vpc&#45;wizard&#45;subnet&#45;public1&#45;us&#45;east&#45;1a -->
<g id="edge17" class="edge">
<title>RouteTableAssociation::rt&#45;assoc::vpc&#45;wizard&#45;rtb&#45;public1&#45;us&#45;east&#45;1a::vpc&#45;wizard&#45;subnet&#45;public1&#45;us&#45;east&#45;1a&#45;&gt;Subnet::vpc&#45;wizard&#45;subnet&#45;public1&#45;us&#45;east&#45;1a</title>
<path fill="none" stroke="#707070" d="M514.83,-385.1C548.29,-403.22 593.32,-426.03 635,-442 640.11,-443.96 645.36,-445.86 650.69,-447.7"/>
<polygon fill="#707070" stroke="#707070" points="649.77,-451.08 660.37,-450.94 652,-444.44 649.77,-451.08"/>
</g>
<!-- RouteTableAssociation::rt&#45;assoc::vpc&#45;wizard&#45;rtb&#45;public1&#45;us&#45;east&#45;1a::vpc&#45;wizard&#45;subnet&#45;public1&#45;us&#45;east&#45;1a&#45;&gt;RouteTable::vpc&#45;wizard&#45;rtb&#45;public1&#45;us&#45;east&#45;1a -->
<g id="edge16" class="edge">
<title>RouteTableAssociation::rt&#45;assoc::vpc&#45;wizard&#45;rtb&#45;public1&#45;us&#45;east&#45;1a::vpc&#45;wizard&#45;subnet&#45;public1&#45;us&#45;east&#45;1a&#45;&gt;RouteTable::vpc&#45;wizard&#45;rtb&#45;public1&#45;us&#45;east&#45;1a</title>
<path fill="none" stroke="#707070" d="M594.28,-344.21C606.19,-343.13 618.3,-342.04 630.32,-340.96"/>
<polygon fill="#707070" stroke="#707070" points="630.74,-344.43 640.38,-340.05 630.11,-337.46 630.74,-344.43"/>
</g>
<!-- RouteTableAssociation::rt&#45;assoc::vpc&#45;wizard&#45;rtb&#45;public2&#45;us&#45;east&#45;1b::vpc&#45;wizard&#45;subnet&#45;public2&#45;us&#45;east&#45;1b -->
<g id="node15" class="node">
<title>RouteTableAssociation::rt&#45;assoc::vpc&#45;wizard&#45;rtb&#45;public2&#45;us&#45;east&#45;1b::vpc&#45;wizard&#45;subnet&#45;public2&#45;us&#45;east&#45;1b</title>
<polygon fill="#e5e5e5" stroke="#dddddd" points="594,-136 331,-136 331,-78 594,-78 594,-136"/>
<text text-anchor="start" x="343.5" y="-116.2" font-family="Helvetica,sans-Serif" font-weight="bold" font-size="16.00" fill="#707070">EC2::RouteTableAssociation</text>
<text text-anchor="start" x="343.5" y="-91.2" font-family="Helvetica,sans-Serif" font-size="16.00" fill="#383838">rt&#45;assoc::vpc&#45;wizard&#45;rtb&#45;public2...</text>
</g>
<!-- RouteTableAssociation::rt&#45;assoc::vpc&#45;wizard&#45;rtb&#45;public2&#45;us&#45;east&#45;1b::vpc&#45;wizard&#45;subnet&#45;public2&#45;us&#45;east&#45;1b&#45;&gt;Subnet::vpc&#45;wizard&#45;subnet&#45;public2&#45;us&#45;east&#45;1b -->
<g id="edge19" class="edge">
<title>RouteTableAssociation::rt&#45;assoc::vpc&#45;wizard&#45;rtb&#45;public2&#45;us&#45;east&#45;1b::vpc&#45;wizard&#45;subnet&#45;public2&#45;us&#45;east&#45;1b&#45;&gt;Subnet::vpc&#45;wizard&#45;subnet&#45;public2&#45;us&#45;east&#45;1b</title>
<path fill="none" stroke="#707070" d="M594.28,-104.05C604.35,-103.82 614.56,-103.59 624.73,-103.37"/>
<polygon fill="#707070" stroke="#707070" points="624.97,-106.86 634.89,-103.14 624.81,-99.86 624.97,-106.86"/>
</g>
<!-- RouteTableAssociation::rt&#45;assoc::vpc&#45;wizard&#45;rtb&#45;public2&#45;us&#45;east&#45;1b::vpc&#45;wizard&#45;subnet&#45;public2&#45;us&#45;east&#45;1b&#45;&gt;RouteTable::vpc&#45;wizard&#45;rtb&#45;public2&#45;us&#45;east&#45;1b -->
<g id="edge18" class="edge">
<title>RouteTableAssociation::rt&#45;assoc::vpc&#45;wizard&#45;rtb&#45;public2&#45;us&#45;east&#45;1b::vpc&#45;wizard&#45;subnet&#45;public2&#45;us&#45;east&#45;1b&#45;&gt;RouteTable::vpc&#45;wizard&#45;rtb&#45;public2&#45;us&#45;east&#45;1b</title>
<path fill="none" stroke="#707070" d="M594.28,-136.06C607.22,-138.94 620.4,-141.87 633.44,-144.76"/>
<polygon fill="#707070" stroke="#707070" points="632.85,-148.22 643.37,-146.97 634.37,-141.39 632.85,-148.22"/>
</g>
<!-- Route::vpc&#45;wizard&#45;rtb&#45;private1&#45;us&#45;east&#45;1a&#45;nat&#45;gateway -->
<g id="node16" class="node">
<title>Route::vpc&#45;wizard&#45;rtb&#45;private1&#45;us&#45;east&#45;1a&#45;nat&#45;gateway</title>
<polygon fill="#e5e5e5" stroke="#dddddd" points="290,-758 24,-758 24,-700 290,-700 290,-758"/>
<text text-anchor="start" x="36" y="-738.2" font-family="Helvetica,sans-Serif" font-weight="bold" font-size="16.00" fill="#707070">EC2::Route</text>
<text text-anchor="start" x="36" y="-713.2" font-family="Helvetica,sans-Serif" font-size="16.00" fill="#383838">vpc&#45;wizard&#45;rtb&#45;private1&#45;us&#45;east&#45;...</text>
</g>
<!-- Route::vpc&#45;wizard&#45;rtb&#45;private1&#45;us&#45;east&#45;1a&#45;nat&#45;gateway&#45;&gt;NatGateway::vpc&#45;wizard&#45;nat&#45;public1&#45;us&#45;east&#45;1a -->
<g id="edge21" class="edge">
<title>Route::vpc&#45;wizard&#45;rtb&#45;private1&#45;us&#45;east&#45;1a&#45;nat&#45;gateway&#45;&gt;NatGateway::vpc&#45;wizard&#45;nat&#45;public1&#45;us&#45;east&#45;1a</title>
<path fill="none" stroke="#707070" d="M199.85,-699.84C232.88,-677.9 280.77,-648.4 326,-629 330.4,-627.11 334.92,-625.29 339.52,-623.54"/>
<polygon fill="#707070" stroke="#707070" points="340.87,-626.77 349.04,-620.03 338.45,-620.2 340.87,-626.77"/>
</g>
<!-- Route::vpc&#45;wizard&#45;rtb&#45;private1&#45;us&#45;east&#45;1a&#45;nat&#45;gateway&#45;&gt;RouteTable::vpc&#45;wizard&#45;rtb&#45;private1&#45;us&#45;east&#45;1a -->
<g id="edge20" class="edge">
<title>Route::vpc&#45;wizard&#45;rtb&#45;private1&#45;us&#45;east&#45;1a&#45;nat&#45;gateway&#45;&gt;RouteTable::vpc&#45;wizard&#45;rtb&#45;private1&#45;us&#45;east&#45;1a</title>
<path fill="none" stroke="#707070" d="M235.09,-758.06C263.27,-767.29 295.68,-776.31 326,-781 427.4,-796.68 543.25,-797 631.74,-793.62"/>
<polygon fill="#707070" stroke="#707070" points="632,-797.11 641.85,-793.21 631.72,-790.12 632,-797.11"/>
</g>
<!-- Route::vpc&#45;wizard&#45;rtb&#45;private1&#45;us&#45;east&#45;1a&#45;vpce -->
<g id="node17" class="node">
<title>Route::vpc&#45;wizard&#45;rtb&#45;private1&#45;us&#45;east&#45;1a&#45;vpce</title>
<polygon fill="#e5e5e5" stroke="#dddddd" points="595.5,-772 329.5,-772 329.5,-714 595.5,-714 595.5,-772"/>
<text text-anchor="start" x="341.5" y="-752.2" font-family="Helvetica,sans-Serif" font-weight="bold" font-size="16.00" fill="#707070">EC2::Route</text>
<text text-anchor="start" x="341.5" y="-727.2" font-family="Helvetica,sans-Serif" font-size="16.00" fill="#383838">vpc&#45;wizard&#45;rtb&#45;private1&#45;us&#45;east&#45;...</text>
</g>
<!-- Route::vpc&#45;wizard&#45;rtb&#45;private1&#45;us&#45;east&#45;1a&#45;vpce&#45;&gt;RouteTable::vpc&#45;wizard&#45;rtb&#45;private1&#45;us&#45;east&#45;1a -->
<g id="edge22" class="edge">
<title>Route::vpc&#45;wizard&#45;rtb&#45;private1&#45;us&#45;east&#45;1a&#45;vpce&#45;&gt;RouteTable::vpc&#45;wizard&#45;rtb&#45;private1&#45;us&#45;east&#45;1a</title>
<path fill="none" stroke="#707070" d="M595.63,-760.45C607.62,-762.03 619.8,-763.64 631.88,-765.23"/>
<polygon fill="#707070" stroke="#707070" points="631.62,-768.73 641.99,-766.57 632.53,-761.79 631.62,-768.73"/>
</g>
<!-- VpcEndpoint::vpc&#45;wizard&#45;vpce&#45;s3 -->
<g id="node23" class="node">
<title>VpcEndpoint::vpc&#45;wizard&#45;vpce&#45;s3</title>
<polygon fill="#e5e5e5" stroke="#dddddd" points="857,-737 693,-737 693,-679 857,-679 857,-737"/>
<text text-anchor="start" x="705" y="-717.2" font-family="Helvetica,sans-Serif" font-weight="bold" font-size="16.00" fill="#707070">EC2::VpcEndpoint</text>
<text text-anchor="start" x="705" y="-692.2" font-family="Helvetica,sans-Serif" font-size="16.00" fill="#383838">vpc&#45;wizard&#45;vpce&#45;s3</text>
</g>
<!-- Route::vpc&#45;wizard&#45;rtb&#45;private1&#45;us&#45;east&#45;1a&#45;vpce&#45;&gt;VpcEndpoint::vpc&#45;wizard&#45;vpce&#45;s3 -->
<g id="edge23" class="edge">
<title>Route::vpc&#45;wizard&#45;rtb&#45;private1&#45;us&#45;east&#45;1a&#45;vpce&#45;&gt;VpcEndpoint::vpc&#45;wizard&#45;vpce&#45;s3</title>
<path fill="none" stroke="#707070" d="M595.63,-728.11C624.9,-724.81 655.3,-721.38 682.52,-718.31"/>
<polygon fill="#707070" stroke="#707070" points="683.25,-721.75 692.79,-717.15 682.46,-714.8 683.25,-721.75"/>
</g>
<!-- Route::vpc&#45;wizard&#45;rtb&#45;private2&#45;us&#45;east&#45;1b&#45;nat&#45;gateway -->
<g id="node18" class="node">
<title>Route::vpc&#45;wizard&#45;rtb&#45;private2&#45;us&#45;east&#45;1b&#45;nat&#45;gateway</title>
<polygon fill="#e5e5e5" stroke="#dddddd" points="290,-596 24,-596 24,-538 290,-538 290,-596"/>
<text text-anchor="start" x="36" y="-576.2" font-family="Helvetica,sans-Serif" font-weight="bold" font-size="16.00" fill="#707070">EC2::Route</text>
<text text-anchor="start" x="36" y="-551.2" font-family="Helvetica,sans-Serif" font-size="16.00" fill="#383838">vpc&#45;wizard&#45;rtb&#45;private2&#45;us&#45;east&#45;...</text>
</g>
<!-- Route::vpc&#45;wizard&#45;rtb&#45;private2&#45;us&#45;east&#45;1b&#45;nat&#45;gateway&#45;&gt;NatGateway::vpc&#45;wizard&#45;nat&#45;public1&#45;us&#45;east&#45;1a -->
<g id="edge25" class="edge">
<title>Route::vpc&#45;wizard&#45;rtb&#45;private2&#45;us&#45;east&#45;1b&#45;nat&#45;gateway&#45;&gt;NatGateway::vpc&#45;wizard&#45;nat&#45;public1&#45;us&#45;east&#45;1a</title>
<path fill="none" stroke="#707070" d="M290.24,-577.46C298.73,-578.13 307.31,-578.81 315.87,-579.48"/>
<polygon fill="#707070" stroke="#707070" points="315.64,-582.98 325.89,-580.28 316.19,-576 315.64,-582.98"/>
</g>
<!-- Route::vpc&#45;wizard&#45;rtb&#45;private2&#45;us&#45;east&#45;1b&#45;nat&#45;gateway&#45;&gt;RouteTable::vpc&#45;wizard&#45;rtb&#45;private2&#45;us&#45;east&#45;1b -->
<g id="edge24" class="edge">
<title>Route::vpc&#45;wizard&#45;rtb&#45;private2&#45;us&#45;east&#45;1b&#45;nat&#45;gateway&#45;&gt;RouteTable::vpc&#45;wizard&#45;rtb&#45;private2&#45;us&#45;east&#45;1b</title>
<path fill="none" stroke="#707070" d="M290.45,-554.93C302.46,-554.15 314.45,-553.48 326,-553 428.14,-548.75 543.49,-549.66 631.56,-551.54"/>
<polygon fill="#707070" stroke="#707070" points="631.55,-555.04 641.62,-551.76 631.7,-548.04 631.55,-555.04"/>
</g>
<!-- Route::vpc&#45;wizard&#45;rtb&#45;private2&#45;us&#45;east&#45;1b&#45;vpce -->
<g id="node19" class="node">
<title>Route::vpc&#45;wizard&#45;rtb&#45;private2&#45;us&#45;east&#45;1b&#45;vpce</title>
<polygon fill="#e5e5e5" stroke="#dddddd" points="595.5,-696 329.5,-696 329.5,-638 595.5,-638 595.5,-696"/>
<text text-anchor="start" x="341.5" y="-676.2" font-family="Helvetica,sans-Serif" font-weight="bold" font-size="16.00" fill="#707070">EC2::Route</text>
<text text-anchor="start" x="341.5" y="-651.2" font-family="Helvetica,sans-Serif" font-size="16.00" fill="#383838">vpc&#45;wizard&#45;rtb&#45;private2&#45;us&#45;east&#45;...</text>
</g>
<!-- Route::vpc&#45;wizard&#45;rtb&#45;private2&#45;us&#45;east&#45;1b&#45;vpce&#45;&gt;RouteTable::vpc&#45;wizard&#45;rtb&#45;private2&#45;us&#45;east&#45;1b -->
<g id="edge26" class="edge">
<title>Route::vpc&#45;wizard&#45;rtb&#45;private2&#45;us&#45;east&#45;1b&#45;vpce&#45;&gt;RouteTable::vpc&#45;wizard&#45;rtb&#45;private2&#45;us&#45;east&#45;1b</title>
<path fill="none" stroke="#707070" d="M581.42,-637.93C587.49,-635.2 593.39,-632.23 599,-629 618.34,-617.87 615.62,-605.07 635,-594 637.74,-592.44 640.54,-590.94 643.4,-589.49"/>
<polygon fill="#707070" stroke="#707070" points="645.15,-592.54 652.69,-585.09 642.15,-586.21 645.15,-592.54"/>
</g>
<!-- Route::vpc&#45;wizard&#45;rtb&#45;private2&#45;us&#45;east&#45;1b&#45;vpce&#45;&gt;VpcEndpoint::vpc&#45;wizard&#45;vpce&#45;s3 -->
<g id="edge27" class="edge">
<title>Route::vpc&#45;wizard&#45;rtb&#45;private2&#45;us&#45;east&#45;1b&#45;vpce&#45;&gt;VpcEndpoint::vpc&#45;wizard&#45;vpce&#45;s3</title>
<path fill="none" stroke="#707070" d="M595.63,-684.45C624.9,-688.31 655.3,-692.33 682.52,-695.92"/>
<polygon fill="#707070" stroke="#707070" points="682.42,-699.44 692.79,-697.28 683.34,-692.5 682.42,-699.44"/>
</g>
<!-- Route::vpc&#45;wizard&#45;rtb&#45;public1&#45;us&#45;east&#45;1a&#45;igw -->
<g id="node20" class="node">
<title>Route::vpc&#45;wizard&#45;rtb&#45;public1&#45;us&#45;east&#45;1a&#45;igw</title>
<polygon fill="#e5e5e5" stroke="#dddddd" points="597,-295 328,-295 328,-237 597,-237 597,-295"/>
<text text-anchor="start" x="340.5" y="-275.2" font-family="Helvetica,sans-Serif" font-weight="bold" font-size="16.00" fill="#707070">EC2::Route</text>
<text text-anchor="start" x="340.5" y="-250.2" font-family="Helvetica,sans-Serif" font-size="16.00" fill="#383838">vpc&#45;wizard&#45;rtb&#45;public1&#45;us&#45;east&#45;1...</text>
</g>
<!-- Route::vpc&#45;wizard&#45;rtb&#45;public1&#45;us&#45;east&#45;1a&#45;igw&#45;&gt;InternetGateway::vpc&#45;wizard&#45;igw -->
<g id="edge29" class="edge">
<title>Route::vpc&#45;wizard&#45;rtb&#45;public1&#45;us&#45;east&#45;1a&#45;igw&#45;&gt;InternetGateway::vpc&#45;wizard&#45;igw</title>
<path fill="none" stroke="#707070" d="M597.43,-259.96C621.45,-258.88 646.17,-257.76 669.22,-256.72"/>
<polygon fill="#707070" stroke="#707070" points="669.5,-260.22 679.33,-256.27 669.18,-253.22 669.5,-260.22"/>
</g>
<!-- Route::vpc&#45;wizard&#45;rtb&#45;public1&#45;us&#45;east&#45;1a&#45;igw&#45;&gt;RouteTable::vpc&#45;wizard&#45;rtb&#45;public1&#45;us&#45;east&#45;1a -->
<g id="edge28" class="edge">
<title>Route::vpc&#45;wizard&#45;rtb&#45;public1&#45;us&#45;east&#45;1a&#45;igw&#45;&gt;RouteTable::vpc&#45;wizard&#45;rtb&#45;public1&#45;us&#45;east&#45;1a</title>
<path fill="none" stroke="#707070" d="M597.43,-292.74C608.24,-294.9 619.19,-297.09 630.06,-299.26"/>
<polygon fill="#707070" stroke="#707070" points="629.53,-302.72 640.02,-301.25 630.9,-295.86 629.53,-302.72"/>
</g>
<!-- Route::vpc&#45;wizard&#45;rtb&#45;public2&#45;us&#45;east&#45;1b&#45;igw -->
<g id="node21" class="node">
<title>Route::vpc&#45;wizard&#45;rtb&#45;public2&#45;us&#45;east&#45;1b&#45;igw</title>
<polygon fill="#e5e5e5" stroke="#dddddd" points="597,-212 328,-212 328,-154 597,-154 597,-212"/>
<text text-anchor="start" x="340.5" y="-192.2" font-family="Helvetica,sans-Serif" font-weight="bold" font-size="16.00" fill="#707070">EC2::Route</text>
<text text-anchor="start" x="340.5" y="-167.2" font-family="Helvetica,sans-Serif" font-size="16.00" fill="#383838">vpc&#45;wizard&#45;rtb&#45;public2&#45;us&#45;east&#45;1...</text>
</g>
<!-- Route::vpc&#45;wizard&#45;rtb&#45;public2&#45;us&#45;east&#45;1b&#45;igw&#45;&gt;InternetGateway::vpc&#45;wizard&#45;igw -->
<g id="edge31" class="edge">
<title>Route::vpc&#45;wizard&#45;rtb&#45;public2&#45;us&#45;east&#45;1b&#45;igw&#45;&gt;InternetGateway::vpc&#45;wizard&#45;igw</title>
<path fill="none" stroke="#707070" d="M594.28,-212.06C619.33,-217.63 645.26,-223.39 669.36,-228.75"/>
<polygon fill="#707070" stroke="#707070" points="668.69,-232.18 679.21,-230.94 670.21,-225.35 668.69,-232.18"/>
</g>
<!-- Route::vpc&#45;wizard&#45;rtb&#45;public2&#45;us&#45;east&#45;1b&#45;igw&#45;&gt;RouteTable::vpc&#45;wizard&#45;rtb&#45;public2&#45;us&#45;east&#45;1b -->
<g id="edge30" class="edge">
<title>Route::vpc&#45;wizard&#45;rtb&#45;public2&#45;us&#45;east&#45;1b&#45;igw&#45;&gt;RouteTable::vpc&#45;wizard&#45;rtb&#45;public2&#45;us&#45;east&#45;1b</title>
<path fill="none" stroke="#707070" d="M597.43,-179.98C608.13,-179.74 618.96,-179.5 629.73,-179.25"/>
<polygon fill="#707070" stroke="#707070" points="630.1,-182.75 640.02,-179.02 629.94,-175.75 630.1,-182.75"/>
</g>
<!-- VpcEndpoint::vpc&#45;wizard&#45;vpce&#45;s3&#45;&gt;Vpc::vpc&#45;wizard&#45;vpc -->
<g id="edge32" class="edge">
<title>VpcEndpoint::vpc&#45;wizard&#45;vpce&#45;s3&#45;&gt;Vpc::vpc&#45;wizard&#45;vpc</title>
<path fill="none" stroke="#707070" d="M857.25,-698.43C877.88,-692.8 898.77,-683.93 915,-670 972.51,-620.62 998.82,-532.25 1009.72,-481.24"/>
<polygon fill="#707070" stroke="#707070" points="1013.18,-481.76 1011.75,-471.26 1006.32,-480.36 1013.18,-481.76"/>
</g>
</g>
</svg>
