<?xml version="1.0" encoding="UTF-8" standalone="no"?>
<!DOCTYPE svg PUBLIC "-//W3C//DTD SVG 1.1//EN"
 "http://www.w3.org/Graphics/SVG/1.1/DTD/svg11.dtd">
<!-- Generated by graphviz version 2.50.0 (20211204.2007)
 -->
<!-- Title: graphname Pages: 1 -->
<svg width="1119pt" height="921pt"
 viewBox="0.00 0.00 1119.00 921.00" xmlns="http://www.w3.org/2000/svg" xmlns:xlink="http://www.w3.org/1999/xlink">
<g id="graph0" class="graph" transform="scale(1 1) rotate(0) translate(4 917)">
<title>graphname</title>
<polygon fill="#fafafa" stroke="transparent" points="-4,4 -4,-917 1115,-917 1115,4 -4,4"/>
<text text-anchor="start" x="479.5" y="-888.4" font-family="Helvetica,sans-Serif" font-weight="bold" font-size="22.00" fill="#383838">Project subnet</text>
<text text-anchor="start" x="552" y="-872.8" font-family="Helvetica,sans-Serif" font-size="14.00"> &#160;</text>
<text text-anchor="start" x="479.5" y="-851.2" font-family="Helvetica,sans-Serif" font-weight="bold" font-size="16.00" fill="#707070">Live Diagram</text>
<g id="clust1" class="cluster">
<title>cluster_aws</title>
<polygon fill="#f5f5f5" stroke="#f5f5f5" points="8,-8 8,-829 1103,-829 1103,-8 8,-8"/>
<text text-anchor="start" x="493.5" y="-23" font-family="Helvetica,sans-Serif" font-weight="bold" font-size="20.00" fill="#707070">Provider aws</text>
</g>
<g id="clust2" class="cluster">
<title>cluster_aws_</title>
<polygon fill="#eeeeee" stroke="#eeeeee" points="16,-54 16,-821 1095,-821 1095,-54 16,-54"/>
<text text-anchor="start" x="555.36" y="-58.3" font-family="Helvetica,sans-Serif" font-size="1.00" fill="#383838"> </text>
</g>
<!-- ElasticIpAddress::::vpc&#45;wizard&#45;eip&#45;us&#45;east&#45;1a -->
<g id="node1" class="node">
<title>ElasticIpAddress::::vpc&#45;wizard&#45;eip&#45;us&#45;east&#45;1a</title>
<polygon fill="#e5e5e5" stroke="#dddddd" points="883.5,-462 672.5,-462 672.5,-404 883.5,-404 883.5,-462"/>
<text text-anchor="start" x="685" y="-442.2" font-family="Helvetica,sans-Serif" font-weight="bold" font-size="16.00" fill="#707070">EC2::ElasticIpAddress</text>
<text text-anchor="start" x="685" y="-417.2" font-family="Helvetica,sans-Serif" font-size="16.00" fill="#383838">vpc&#45;wizard&#45;eip&#45;us&#45;east&#45;1a</text>
</g>
<!-- InternetGateway::::vpc&#45;wizard&#45;igw -->
<g id="node2" class="node">
<title>InternetGateway::::vpc&#45;wizard&#45;igw</title>
<polygon fill="#e5e5e5" stroke="#dddddd" points="561,-166 370,-166 370,-108 561,-108 561,-166"/>
<text text-anchor="start" x="382.5" y="-146.2" font-family="Helvetica,sans-Serif" font-weight="bold" font-size="16.00" fill="#707070">EC2::InternetGateway</text>
<text text-anchor="start" x="382.5" y="-121.2" font-family="Helvetica,sans-Serif" font-size="16.00" fill="#383838">vpc&#45;wizard&#45;igw</text>
</g>
<!-- Vpc::::vpc&#45;wizard&#45;vpc -->
<g id="node22" class="node">
<title>Vpc::::vpc&#45;wizard&#45;vpc</title>
<polygon fill="#e5e5e5" stroke="#dddddd" points="1087,-462 954,-462 954,-404 1087,-404 1087,-462"/>
<text text-anchor="start" x="966.5" y="-442.2" font-family="Helvetica,sans-Serif" font-weight="bold" font-size="16.00" fill="#707070">EC2::Vpc</text>
<text text-anchor="start" x="966.5" y="-417.2" font-family="Helvetica,sans-Serif" font-size="16.00" fill="#383838">vpc&#45;wizard&#45;vpc</text>
</g>
<!-- InternetGateway::::vpc&#45;wizard&#45;igw&#45;&gt;Vpc::::vpc&#45;wizard&#45;vpc -->
<g id="edge1" class="edge">
<title>InternetGateway::::vpc&#45;wizard&#45;igw&#45;&gt;Vpc::::vpc&#45;wizard&#45;vpc</title>
<path fill="none" stroke="#707070" d="M561.21,-116.7C660.17,-101.21 815.07,-93.73 918,-170 989.78,-223.19 1010.8,-334.24 1016.95,-393.6"/>
<polygon fill="#707070" stroke="#707070" points="1013.48,-394.08 1017.91,-403.71 1020.45,-393.42 1013.48,-394.08"/>
</g>
<!-- NatGateway::::vpc&#45;wizard&#45;nat&#45;public1&#45;us&#45;east&#45;1a -->
<g id="node3" class="node">
<title>NatGateway::::vpc&#45;wizard&#45;nat&#45;public1&#45;us&#45;east&#45;1a</title>
<polygon fill="#e5e5e5" stroke="#dddddd" points="602,-443 329,-443 329,-385 602,-385 602,-443"/>
<text text-anchor="start" x="341.5" y="-423.2" font-family="Helvetica,sans-Serif" font-weight="bold" font-size="16.00" fill="#707070">EC2::NatGateway</text>
<text text-anchor="start" x="341.5" y="-398.2" font-family="Helvetica,sans-Serif" font-size="16.00" fill="#383838">vpc&#45;wizard&#45;nat&#45;public1&#45;us&#45;east&#45;1...</text>
</g>
<!-- NatGateway::::vpc&#45;wizard&#45;nat&#45;public1&#45;us&#45;east&#45;1a&#45;&gt;ElasticIpAddress::::vpc&#45;wizard&#45;eip&#45;us&#45;east&#45;1a -->
<g id="edge3" class="edge">
<title>NatGateway::::vpc&#45;wizard&#45;nat&#45;public1&#45;us&#45;east&#45;1a&#45;&gt;ElasticIpAddress::::vpc&#45;wizard&#45;eip&#45;us&#45;east&#45;1a</title>
<path fill="none" stroke="#707070" d="M602.24,-422.31C622.25,-423.53 642.7,-424.78 662.23,-425.98"/>
<polygon fill="#707070" stroke="#707070" points="662.16,-429.48 672.35,-426.6 662.58,-422.49 662.16,-429.48"/>
</g>
<!-- Subnet::::vpc&#45;wizard&#45;subnet&#45;public1&#45;us&#45;east&#45;1a -->
<g id="node20" class="node">
<title>Subnet::::vpc&#45;wizard&#45;subnet&#45;public1&#45;us&#45;east&#45;1a</title>
<polygon fill="#e5e5e5" stroke="#dddddd" points="918,-386 638,-386 638,-328 918,-328 918,-386"/>
<text text-anchor="start" x="650" y="-366.2" font-family="Helvetica,sans-Serif" font-weight="bold" font-size="16.00" fill="#707070">EC2::Subnet</text>
<text text-anchor="start" x="650" y="-341.2" font-family="Helvetica,sans-Serif" font-size="16.00" fill="#383838">vpc&#45;wizard&#45;subnet&#45;public1&#45;us&#45;eas...</text>
</g>
<!-- NatGateway::::vpc&#45;wizard&#45;nat&#45;public1&#45;us&#45;east&#45;1a&#45;&gt;Subnet::::vpc&#45;wizard&#45;subnet&#45;public1&#45;us&#45;east&#45;1a -->
<g id="edge2" class="edge">
<title>NatGateway::::vpc&#45;wizard&#45;nat&#45;public1&#45;us&#45;east&#45;1a&#45;&gt;Subnet::::vpc&#45;wizard&#45;subnet&#45;public1&#45;us&#45;east&#45;1a</title>
<path fill="none" stroke="#707070" d="M602.24,-389.08C610.68,-387.53 619.21,-385.97 627.71,-384.41"/>
<polygon fill="#707070" stroke="#707070" points="628.46,-387.83 637.67,-382.58 627.2,-380.94 628.46,-387.83"/>
</g>
<!-- Route::::vpc&#45;wizard&#45;rtb&#45;private1&#45;us&#45;east&#45;1a&#45;nat&#45;gateway -->
<g id="node4" class="node">
<title>Route::::vpc&#45;wizard&#45;rtb&#45;private1&#45;us&#45;east&#45;1a&#45;nat&#45;gateway</title>
<polygon fill="#e5e5e5" stroke="#dddddd" points="291.5,-585 25.5,-585 25.5,-527 291.5,-527 291.5,-585"/>
<text text-anchor="start" x="37.5" y="-565.2" font-family="Helvetica,sans-Serif" font-weight="bold" font-size="16.00" fill="#707070">EC2::Route</text>
<text text-anchor="start" x="37.5" y="-540.2" font-family="Helvetica,sans-Serif" font-size="16.00" fill="#383838">vpc&#45;wizard&#45;rtb&#45;private1&#45;us&#45;east&#45;...</text>
</g>
<!-- Route::::vpc&#45;wizard&#45;rtb&#45;private1&#45;us&#45;east&#45;1a&#45;nat&#45;gateway&#45;&gt;NatGateway::::vpc&#45;wizard&#45;nat&#45;public1&#45;us&#45;east&#45;1a -->
<g id="edge5" class="edge">
<title>Route::::vpc&#45;wizard&#45;rtb&#45;private1&#45;us&#45;east&#45;1a&#45;nat&#45;gateway&#45;&gt;NatGateway::::vpc&#45;wizard&#45;nat&#45;public1&#45;us&#45;east&#45;1a</title>
<path fill="none" stroke="#707070" d="M273.2,-526.95C280.01,-524.19 286.66,-521.21 293,-518 311.08,-508.83 312.11,-501.21 329,-490 351.32,-475.18 376.71,-460.42 399.44,-447.91"/>
<polygon fill="#707070" stroke="#707070" points="401.24,-450.91 408.33,-443.05 397.88,-444.77 401.24,-450.91"/>
</g>
<!-- RouteTable::::vpc&#45;wizard&#45;rtb&#45;private1&#45;us&#45;east&#45;1a -->
<g id="node10" class="node">
<title>RouteTable::::vpc&#45;wizard&#45;rtb&#45;private1&#45;us&#45;east&#45;1a</title>
<polygon fill="#e5e5e5" stroke="#dddddd" points="598.5,-737 332.5,-737 332.5,-679 598.5,-679 598.5,-737"/>
<text text-anchor="start" x="344.5" y="-717.2" font-family="Helvetica,sans-Serif" font-weight="bold" font-size="16.00" fill="#707070">EC2::RouteTable</text>
<text text-anchor="start" x="344.5" y="-692.2" font-family="Helvetica,sans-Serif" font-size="16.00" fill="#383838">vpc&#45;wizard&#45;rtb&#45;private1&#45;us&#45;east&#45;...</text>
</g>
<!-- Route::::vpc&#45;wizard&#45;rtb&#45;private1&#45;us&#45;east&#45;1a&#45;nat&#45;gateway&#45;&gt;RouteTable::::vpc&#45;wizard&#45;rtb&#45;private1&#45;us&#45;east&#45;1a -->
<g id="edge4" class="edge">
<title>Route::::vpc&#45;wizard&#45;rtb&#45;private1&#45;us&#45;east&#45;1a&#45;nat&#45;gateway&#45;&gt;RouteTable::::vpc&#45;wizard&#45;rtb&#45;private1&#45;us&#45;east&#45;1a</title>
<path fill="none" stroke="#707070" d="M280.69,-585.01C285.01,-587.74 289.14,-590.73 293,-594 321.52,-618.16 300.44,-645.9 329,-670 330.2,-671.01 331.42,-671.99 332.66,-672.95"/>
<polygon fill="#707070" stroke="#707070" points="330.98,-676.04 341.19,-678.89 334.98,-670.3 330.98,-676.04"/>
</g>
<!-- Route::::vpc&#45;wizard&#45;rtb&#45;private1&#45;us&#45;east&#45;1a&#45;vpce -->
<g id="node5" class="node">
<title>Route::::vpc&#45;wizard&#45;rtb&#45;private1&#45;us&#45;east&#45;1a&#45;vpce</title>
<polygon fill="#e5e5e5" stroke="#dddddd" points="291.5,-737 25.5,-737 25.5,-679 291.5,-679 291.5,-737"/>
<text text-anchor="start" x="37.5" y="-717.2" font-family="Helvetica,sans-Serif" font-weight="bold" font-size="16.00" fill="#707070">EC2::Route</text>
<text text-anchor="start" x="37.5" y="-692.2" font-family="Helvetica,sans-Serif" font-size="16.00" fill="#383838">vpc&#45;wizard&#45;rtb&#45;private1&#45;us&#45;east&#45;...</text>
</g>
<!-- Route::::vpc&#45;wizard&#45;rtb&#45;private1&#45;us&#45;east&#45;1a&#45;vpce&#45;&gt;RouteTable::::vpc&#45;wizard&#45;rtb&#45;private1&#45;us&#45;east&#45;1a -->
<g id="edge6" class="edge">
<title>Route::::vpc&#45;wizard&#45;rtb&#45;private1&#45;us&#45;east&#45;1a&#45;vpce&#45;&gt;RouteTable::::vpc&#45;wizard&#45;rtb&#45;private1&#45;us&#45;east&#45;1a</title>
<path fill="none" stroke="#707070" d="M291.5,-708C301.65,-708 311.91,-708 322.12,-708"/>
<polygon fill="#707070" stroke="#707070" points="322.3,-711.5 332.3,-708 322.3,-704.5 322.3,-711.5"/>
</g>
<!-- VpcEndpoint::::vpc&#45;wizard&#45;vpce&#45;s3 -->
<g id="node23" class="node">
<title>VpcEndpoint::::vpc&#45;wizard&#45;vpce&#45;s3</title>
<polygon fill="#e5e5e5" stroke="#dddddd" points="547.5,-661 383.5,-661 383.5,-603 547.5,-603 547.5,-661"/>
<text text-anchor="start" x="395.5" y="-641.2" font-family="Helvetica,sans-Serif" font-weight="bold" font-size="16.00" fill="#707070">EC2::VpcEndpoint</text>
<text text-anchor="start" x="395.5" y="-616.2" font-family="Helvetica,sans-Serif" font-size="16.00" fill="#383838">vpc&#45;wizard&#45;vpce&#45;s3</text>
</g>
<!-- Route::::vpc&#45;wizard&#45;rtb&#45;private1&#45;us&#45;east&#45;1a&#45;vpce&#45;&gt;VpcEndpoint::::vpc&#45;wizard&#45;vpce&#45;s3 -->
<g id="edge7" class="edge">
<title>Route::::vpc&#45;wizard&#45;rtb&#45;private1&#45;us&#45;east&#45;1a&#45;vpce&#45;&gt;VpcEndpoint::::vpc&#45;wizard&#45;vpce&#45;s3</title>
<path fill="none" stroke="#707070" d="M276.11,-678.94C308.43,-670.89 343.04,-662.27 373.65,-654.64"/>
<polygon fill="#707070" stroke="#707070" points="374.59,-658.01 383.45,-652.2 372.9,-651.22 374.59,-658.01"/>
</g>
<!-- Route::::vpc&#45;wizard&#45;rtb&#45;private2&#45;us&#45;east&#45;1b&#45;nat&#45;gateway -->
<g id="node6" class="node">
<title>Route::::vpc&#45;wizard&#45;rtb&#45;private2&#45;us&#45;east&#45;1b&#45;nat&#45;gateway</title>
<polygon fill="#e5e5e5" stroke="#dddddd" points="291.5,-433 25.5,-433 25.5,-375 291.5,-375 291.5,-433"/>
<text text-anchor="start" x="37.5" y="-413.2" font-family="Helvetica,sans-Serif" font-weight="bold" font-size="16.00" fill="#707070">EC2::Route</text>
<text text-anchor="start" x="37.5" y="-388.2" font-family="Helvetica,sans-Serif" font-size="16.00" fill="#383838">vpc&#45;wizard&#45;rtb&#45;private2&#45;us&#45;east&#45;...</text>
</g>
<!-- Route::::vpc&#45;wizard&#45;rtb&#45;private2&#45;us&#45;east&#45;1b&#45;nat&#45;gateway&#45;&gt;NatGateway::::vpc&#45;wizard&#45;nat&#45;public1&#45;us&#45;east&#45;1a -->
<g id="edge9" class="edge">
<title>Route::::vpc&#45;wizard&#45;rtb&#45;private2&#45;us&#45;east&#45;1b&#45;nat&#45;gateway&#45;&gt;NatGateway::::vpc&#45;wizard&#45;nat&#45;public1&#45;us&#45;east&#45;1a</title>
<path fill="none" stroke="#707070" d="M291.5,-408.33C300.51,-408.62 309.61,-408.92 318.69,-409.22"/>
<polygon fill="#707070" stroke="#707070" points="318.8,-412.72 328.91,-409.55 319.03,-405.73 318.8,-412.72"/>
</g>
<!-- RouteTable::::vpc&#45;wizard&#45;rtb&#45;private2&#45;us&#45;east&#45;1b -->
<g id="node11" class="node">
<title>RouteTable::::vpc&#45;wizard&#45;rtb&#45;private2&#45;us&#45;east&#45;1b</title>
<polygon fill="#e5e5e5" stroke="#dddddd" points="598.5,-557 332.5,-557 332.5,-499 598.5,-499 598.5,-557"/>
<text text-anchor="start" x="344.5" y="-537.2" font-family="Helvetica,sans-Serif" font-weight="bold" font-size="16.00" fill="#707070">EC2::RouteTable</text>
<text text-anchor="start" x="344.5" y="-512.2" font-family="Helvetica,sans-Serif" font-size="16.00" fill="#383838">vpc&#45;wizard&#45;rtb&#45;private2&#45;us&#45;east&#45;...</text>
</g>
<!-- Route::::vpc&#45;wizard&#45;rtb&#45;private2&#45;us&#45;east&#45;1b&#45;nat&#45;gateway&#45;&gt;RouteTable::::vpc&#45;wizard&#45;rtb&#45;private2&#45;us&#45;east&#45;1b -->
<g id="edge8" class="edge">
<title>Route::::vpc&#45;wizard&#45;rtb&#45;private2&#45;us&#45;east&#45;1b&#45;nat&#45;gateway&#45;&gt;RouteTable::::vpc&#45;wizard&#45;rtb&#45;private2&#45;us&#45;east&#45;1b</title>
<path fill="none" stroke="#707070" d="M268.27,-433.11C276.7,-435.93 285.03,-438.9 293,-442 330.88,-456.74 371.61,-476.97 403.87,-494.1"/>
<polygon fill="#707070" stroke="#707070" points="402.27,-497.21 412.74,-498.85 405.57,-491.04 402.27,-497.21"/>
</g>
<!-- Route::::vpc&#45;wizard&#45;rtb&#45;private2&#45;us&#45;east&#45;1b&#45;vpce -->
<g id="node7" class="node">
<title>Route::::vpc&#45;wizard&#45;rtb&#45;private2&#45;us&#45;east&#45;1b&#45;vpce</title>
<polygon fill="#e5e5e5" stroke="#dddddd" points="291.5,-661 25.5,-661 25.5,-603 291.5,-603 291.5,-661"/>
<text text-anchor="start" x="37.5" y="-641.2" font-family="Helvetica,sans-Serif" font-weight="bold" font-size="16.00" fill="#707070">EC2::Route</text>
<text text-anchor="start" x="37.5" y="-616.2" font-family="Helvetica,sans-Serif" font-size="16.00" fill="#383838">vpc&#45;wizard&#45;rtb&#45;private2&#45;us&#45;east&#45;...</text>
</g>
<!-- Route::::vpc&#45;wizard&#45;rtb&#45;private2&#45;us&#45;east&#45;1b&#45;vpce&#45;&gt;RouteTable::::vpc&#45;wizard&#45;rtb&#45;private2&#45;us&#45;east&#45;1b -->
<g id="edge10" class="edge">
<title>Route::::vpc&#45;wizard&#45;rtb&#45;private2&#45;us&#45;east&#45;1b&#45;vpce&#45;&gt;RouteTable::::vpc&#45;wizard&#45;rtb&#45;private2&#45;us&#45;east&#45;1b</title>
<path fill="none" stroke="#707070" d="M265.07,-602.9C274.55,-600 283.97,-597.02 293,-594 322.91,-584.01 355.28,-571.9 383.76,-560.79"/>
<polygon fill="#707070" stroke="#707070" points="385.23,-563.98 393.26,-557.07 382.67,-557.46 385.23,-563.98"/>
</g>
<!-- Route::::vpc&#45;wizard&#45;rtb&#45;private2&#45;us&#45;east&#45;1b&#45;vpce&#45;&gt;VpcEndpoint::::vpc&#45;wizard&#45;vpce&#45;s3 -->
<g id="edge11" class="edge">
<title>Route::::vpc&#45;wizard&#45;rtb&#45;private2&#45;us&#45;east&#45;1b&#45;vpce&#45;&gt;VpcEndpoint::::vpc&#45;wizard&#45;vpce&#45;s3</title>
<path fill="none" stroke="#707070" d="M291.5,-632C319.08,-632 347.56,-632 373.26,-632"/>
<polygon fill="#707070" stroke="#707070" points="373.34,-635.5 383.34,-632 373.34,-628.5 373.34,-635.5"/>
</g>
<!-- Route::::vpc&#45;wizard&#45;rtb&#45;public1&#45;us&#45;east&#45;1a&#45;igw -->
<g id="node8" class="node">
<title>Route::::vpc&#45;wizard&#45;rtb&#45;public1&#45;us&#45;east&#45;1a&#45;igw</title>
<polygon fill="#e5e5e5" stroke="#dddddd" points="293,-205 24,-205 24,-147 293,-147 293,-205"/>
<text text-anchor="start" x="36.5" y="-185.2" font-family="Helvetica,sans-Serif" font-weight="bold" font-size="16.00" fill="#707070">EC2::Route</text>
<text text-anchor="start" x="36.5" y="-160.2" font-family="Helvetica,sans-Serif" font-size="16.00" fill="#383838">vpc&#45;wizard&#45;rtb&#45;public1&#45;us&#45;east&#45;1...</text>
</g>
<!-- Route::::vpc&#45;wizard&#45;rtb&#45;public1&#45;us&#45;east&#45;1a&#45;igw&#45;&gt;InternetGateway::::vpc&#45;wizard&#45;igw -->
<g id="edge13" class="edge">
<title>Route::::vpc&#45;wizard&#45;rtb&#45;public1&#45;us&#45;east&#45;1a&#45;igw&#45;&gt;InternetGateway::::vpc&#45;wizard&#45;igw</title>
<path fill="none" stroke="#707070" d="M293.28,-158.89C315.52,-156.05 338.31,-153.14 359.7,-150.4"/>
<polygon fill="#707070" stroke="#707070" points="360.28,-153.86 369.75,-149.12 359.39,-146.91 360.28,-153.86"/>
</g>
<!-- RouteTable::::vpc&#45;wizard&#45;rtb&#45;public1&#45;us&#45;east&#45;1a -->
<g id="node12" class="node">
<title>RouteTable::::vpc&#45;wizard&#45;rtb&#45;public1&#45;us&#45;east&#45;1a</title>
<polygon fill="#e5e5e5" stroke="#dddddd" points="600,-338 331,-338 331,-280 600,-280 600,-338"/>
<text text-anchor="start" x="343.5" y="-318.2" font-family="Helvetica,sans-Serif" font-weight="bold" font-size="16.00" fill="#707070">EC2::RouteTable</text>
<text text-anchor="start" x="343.5" y="-293.2" font-family="Helvetica,sans-Serif" font-size="16.00" fill="#383838">vpc&#45;wizard&#45;rtb&#45;public1&#45;us&#45;east&#45;1...</text>
</g>
<!-- Route::::vpc&#45;wizard&#45;rtb&#45;public1&#45;us&#45;east&#45;1a&#45;igw&#45;&gt;RouteTable::::vpc&#45;wizard&#45;rtb&#45;public1&#45;us&#45;east&#45;1a -->
<g id="edge12" class="edge">
<title>Route::::vpc&#45;wizard&#45;rtb&#45;public1&#45;us&#45;east&#45;1a&#45;igw&#45;&gt;RouteTable::::vpc&#45;wizard&#45;rtb&#45;public1&#45;us&#45;east&#45;1a</title>
<path fill="none" stroke="#707070" d="M276.12,-205.13C281.96,-207.84 287.62,-210.79 293,-214 312.7,-225.76 310.09,-238.01 329,-251 342.45,-260.24 357.61,-268.47 372.79,-275.63"/>
<polygon fill="#707070" stroke="#707070" points="371.67,-278.97 382.22,-279.95 374.59,-272.6 371.67,-278.97"/>
</g>
<!-- Route::::vpc&#45;wizard&#45;rtb&#45;public2&#45;us&#45;east&#45;1b&#45;igw -->
<g id="node9" class="node">
<title>Route::::vpc&#45;wizard&#45;rtb&#45;public2&#45;us&#45;east&#45;1b&#45;igw</title>
<polygon fill="#e5e5e5" stroke="#dddddd" points="293,-129 24,-129 24,-71 293,-71 293,-129"/>
<text text-anchor="start" x="36.5" y="-109.2" font-family="Helvetica,sans-Serif" font-weight="bold" font-size="16.00" fill="#707070">EC2::Route</text>
<text text-anchor="start" x="36.5" y="-84.2" font-family="Helvetica,sans-Serif" font-size="16.00" fill="#383838">vpc&#45;wizard&#45;rtb&#45;public2&#45;us&#45;east&#45;1...</text>
</g>
<!-- Route::::vpc&#45;wizard&#45;rtb&#45;public2&#45;us&#45;east&#45;1b&#45;igw&#45;&gt;InternetGateway::::vpc&#45;wizard&#45;igw -->
<g id="edge15" class="edge">
<title>Route::::vpc&#45;wizard&#45;rtb&#45;public2&#45;us&#45;east&#45;1b&#45;igw&#45;&gt;InternetGateway::::vpc&#45;wizard&#45;igw</title>
<path fill="none" stroke="#707070" d="M293.28,-116.23C315.52,-118.93 338.31,-121.69 359.7,-124.29"/>
<polygon fill="#707070" stroke="#707070" points="359.41,-127.78 369.75,-125.51 360.25,-120.83 359.41,-127.78"/>
</g>
<!-- RouteTable::::vpc&#45;wizard&#45;rtb&#45;public2&#45;us&#45;east&#45;1b -->
<g id="node13" class="node">
<title>RouteTable::::vpc&#45;wizard&#45;rtb&#45;public2&#45;us&#45;east&#45;1b</title>
<polygon fill="#e5e5e5" stroke="#dddddd" points="600,-242 331,-242 331,-184 600,-184 600,-242"/>
<text text-anchor="start" x="343.5" y="-222.2" font-family="Helvetica,sans-Serif" font-weight="bold" font-size="16.00" fill="#707070">EC2::RouteTable</text>
<text text-anchor="start" x="343.5" y="-197.2" font-family="Helvetica,sans-Serif" font-size="16.00" fill="#383838">vpc&#45;wizard&#45;rtb&#45;public2&#45;us&#45;east&#45;1...</text>
</g>
<!-- Route::::vpc&#45;wizard&#45;rtb&#45;public2&#45;us&#45;east&#45;1b&#45;igw&#45;&gt;RouteTable::::vpc&#45;wizard&#45;rtb&#45;public2&#45;us&#45;east&#45;1b -->
<g id="edge14" class="edge">
<title>Route::::vpc&#45;wizard&#45;rtb&#45;public2&#45;us&#45;east&#45;1b&#45;igw&#45;&gt;RouteTable::::vpc&#45;wizard&#45;rtb&#45;public2&#45;us&#45;east&#45;1b</title>
<path fill="none" stroke="#707070" d="M276.12,-129.13C281.96,-131.84 287.62,-134.79 293,-138 312.7,-149.76 309.28,-163.28 329,-175 331.64,-176.57 334.36,-178.08 337.12,-179.53"/>
<polygon fill="#707070" stroke="#707070" points="335.61,-182.69 346.13,-183.96 338.7,-176.4 335.61,-182.69"/>
</g>
<!-- Subnet::::vpc&#45;wizard&#45;subnet&#45;private1&#45;us&#45;east&#45;1a -->
<g id="node18" class="node">
<title>Subnet::::vpc&#45;wizard&#45;subnet&#45;private1&#45;us&#45;east&#45;1a</title>
<polygon fill="#e5e5e5" stroke="#dddddd" points="917,-737 639,-737 639,-679 917,-679 917,-737"/>
<text text-anchor="start" x="651" y="-717.2" font-family="Helvetica,sans-Serif" font-weight="bold" font-size="16.00" fill="#707070">EC2::Subnet</text>
<text text-anchor="start" x="651" y="-692.2" font-family="Helvetica,sans-Serif" font-size="16.00" fill="#383838">vpc&#45;wizard&#45;subnet&#45;private1&#45;us&#45;ea...</text>
</g>
<!-- RouteTable::::vpc&#45;wizard&#45;rtb&#45;private1&#45;us&#45;east&#45;1a&#45;&gt;Subnet::::vpc&#45;wizard&#45;subnet&#45;private1&#45;us&#45;east&#45;1a -->
<g id="edge17" class="edge">
<title>RouteTable::::vpc&#45;wizard&#45;rtb&#45;private1&#45;us&#45;east&#45;1a&#45;&gt;Subnet::::vpc&#45;wizard&#45;subnet&#45;private1&#45;us&#45;east&#45;1a</title>
<path fill="none" stroke="#707070" d="M598.63,-708C608.43,-708 618.36,-708 628.25,-708"/>
<polygon fill="#707070" stroke="#707070" points="628.54,-711.5 638.54,-708 628.54,-704.5 628.54,-711.5"/>
</g>
<!-- RouteTable::::vpc&#45;wizard&#45;rtb&#45;private1&#45;us&#45;east&#45;1a&#45;&gt;Vpc::::vpc&#45;wizard&#45;vpc -->
<g id="edge16" class="edge">
<title>RouteTable::::vpc&#45;wizard&#45;rtb&#45;private1&#45;us&#45;east&#45;1a&#45;&gt;Vpc::::vpc&#45;wizard&#45;vpc</title>
<path fill="none" stroke="#707070" d="M597.3,-678.99C725.86,-650.09 904.74,-608.66 918,-599 961.74,-567.15 990.48,-510.16 1005.87,-471.97"/>
<polygon fill="#707070" stroke="#707070" points="1009.3,-472.8 1009.68,-462.21 1002.78,-470.25 1009.3,-472.8"/>
</g>
<!-- Subnet::::vpc&#45;wizard&#45;subnet&#45;private2&#45;us&#45;east&#45;1b -->
<g id="node19" class="node">
<title>Subnet::::vpc&#45;wizard&#45;subnet&#45;private2&#45;us&#45;east&#45;1b</title>
<polygon fill="#e5e5e5" stroke="#dddddd" points="917,-538 639,-538 639,-480 917,-480 917,-538"/>
<text text-anchor="start" x="651" y="-518.2" font-family="Helvetica,sans-Serif" font-weight="bold" font-size="16.00" fill="#707070">EC2::Subnet</text>
<text text-anchor="start" x="651" y="-493.2" font-family="Helvetica,sans-Serif" font-size="16.00" fill="#383838">vpc&#45;wizard&#45;subnet&#45;private2&#45;us&#45;ea...</text>
</g>
<!-- RouteTable::::vpc&#45;wizard&#45;rtb&#45;private2&#45;us&#45;east&#45;1b&#45;&gt;Subnet::::vpc&#45;wizard&#45;subnet&#45;private2&#45;us&#45;east&#45;1b -->
<g id="edge19" class="edge">
<title>RouteTable::::vpc&#45;wizard&#45;rtb&#45;private2&#45;us&#45;east&#45;1b&#45;&gt;Subnet::::vpc&#45;wizard&#45;subnet&#45;private2&#45;us&#45;east&#45;1b</title>
<path fill="none" stroke="#707070" d="M598.63,-519.91C608.43,-519.32 618.36,-518.71 628.25,-518.1"/>
<polygon fill="#707070" stroke="#707070" points="628.77,-521.58 638.54,-517.47 628.34,-514.59 628.77,-521.58"/>
</g>
<!-- RouteTable::::vpc&#45;wizard&#45;rtb&#45;private2&#45;us&#45;east&#45;1b&#45;&gt;Vpc::::vpc&#45;wizard&#45;vpc -->
<g id="edge18" class="edge">
<title>RouteTable::::vpc&#45;wizard&#45;rtb&#45;private2&#45;us&#45;east&#45;1b&#45;&gt;Vpc::::vpc&#45;wizard&#45;vpc</title>
<path fill="none" stroke="#707070" d="M566.87,-557.05C661.72,-578.9 805.79,-597.33 918,-547 952.65,-531.46 980.31,-497.59 997.95,-470.79"/>
<polygon fill="#707070" stroke="#707070" points="1001.12,-472.32 1003.55,-462.01 995.22,-468.56 1001.12,-472.32"/>
</g>
<!-- RouteTable::::vpc&#45;wizard&#45;rtb&#45;public1&#45;us&#45;east&#45;1a&#45;&gt;Subnet::::vpc&#45;wizard&#45;subnet&#45;public1&#45;us&#45;east&#45;1a -->
<g id="edge21" class="edge">
<title>RouteTable::::vpc&#45;wizard&#45;rtb&#45;public1&#45;us&#45;east&#45;1a&#45;&gt;Subnet::::vpc&#45;wizard&#45;subnet&#45;public1&#45;us&#45;east&#45;1a</title>
<path fill="none" stroke="#707070" d="M600.43,-329.7C609.38,-331.09 618.42,-332.48 627.43,-333.88"/>
<polygon fill="#707070" stroke="#707070" points="627.17,-337.38 637.59,-335.45 628.24,-330.46 627.17,-337.38"/>
</g>
<!-- RouteTable::::vpc&#45;wizard&#45;rtb&#45;public1&#45;us&#45;east&#45;1a&#45;&gt;Vpc::::vpc&#45;wizard&#45;vpc -->
<g id="edge20" class="edge">
<title>RouteTable::::vpc&#45;wizard&#45;rtb&#45;public1&#45;us&#45;east&#45;1a&#45;&gt;Vpc::::vpc&#45;wizard&#45;vpc</title>
<path fill="none" stroke="#707070" d="M600.24,-306.58C722.92,-305.24 889.75,-305.95 918,-319 952.37,-334.87 979.98,-368.53 997.68,-395.18"/>
<polygon fill="#707070" stroke="#707070" points="994.95,-397.4 1003.3,-403.91 1000.83,-393.61 994.95,-397.4"/>
</g>
<!-- Subnet::::vpc&#45;wizard&#45;subnet&#45;public2&#45;us&#45;east&#45;1b -->
<g id="node21" class="node">
<title>Subnet::::vpc&#45;wizard&#45;subnet&#45;public2&#45;us&#45;east&#45;1b</title>
<polygon fill="#e5e5e5" stroke="#dddddd" points="918,-290 638,-290 638,-232 918,-232 918,-290"/>
<text text-anchor="start" x="650" y="-270.2" font-family="Helvetica,sans-Serif" font-weight="bold" font-size="16.00" fill="#707070">EC2::Subnet</text>
<text text-anchor="start" x="650" y="-245.2" font-family="Helvetica,sans-Serif" font-size="16.00" fill="#383838">vpc&#45;wizard&#45;subnet&#45;public2&#45;us&#45;eas...</text>
</g>
<!-- RouteTable::::vpc&#45;wizard&#45;rtb&#45;public2&#45;us&#45;east&#45;1b&#45;&gt;Subnet::::vpc&#45;wizard&#45;subnet&#45;public2&#45;us&#45;east&#45;1b -->
<g id="edge23" class="edge">
<title>RouteTable::::vpc&#45;wizard&#45;rtb&#45;public2&#45;us&#45;east&#45;1b&#45;&gt;Subnet::::vpc&#45;wizard&#45;subnet&#45;public2&#45;us&#45;east&#45;1b</title>
<path fill="none" stroke="#707070" d="M600.43,-233.7C609.38,-235.09 618.42,-236.48 627.43,-237.88"/>
<polygon fill="#707070" stroke="#707070" points="627.17,-241.38 637.59,-239.45 628.24,-234.46 627.17,-241.38"/>
</g>
<!-- RouteTable::::vpc&#45;wizard&#45;rtb&#45;public2&#45;us&#45;east&#45;1b&#45;&gt;Vpc::::vpc&#45;wizard&#45;vpc -->
<g id="edge22" class="edge">
<title>RouteTable::::vpc&#45;wizard&#45;rtb&#45;public2&#45;us&#45;east&#45;1b&#45;&gt;Vpc::::vpc&#45;wizard&#45;vpc</title>
<path fill="none" stroke="#707070" d="M584.23,-183.93C681.53,-166.87 819.24,-159.51 918,-223 977.15,-261.03 1002.76,-344.09 1013.11,-393.59"/>
<polygon fill="#707070" stroke="#707070" points="1009.72,-394.49 1015.09,-403.62 1016.59,-393.13 1009.72,-394.49"/>
</g>
<!-- RouteTableAssociation::::rt&#45;assoc::vpc&#45;wizard&#45;rtb&#45;private1&#45;us&#45;east&#45;1a::vpc&#45;wizard&#45;subnet&#45;private1&#45;us&#45;east&#45;1a -->
<g id="node14" class="node">
<title>RouteTableAssociation::::rt&#45;assoc::vpc&#45;wizard&#45;rtb&#45;private1&#45;us&#45;east&#45;1a::vpc&#45;wizard&#45;subnet&#45;private1&#45;us&#45;east&#45;1a</title>
<polygon fill="#e5e5e5" stroke="#dddddd" points="288.5,-813 28.5,-813 28.5,-755 288.5,-755 288.5,-813"/>
<text text-anchor="start" x="40.5" y="-793.2" font-family="Helvetica,sans-Serif" font-weight="bold" font-size="16.00" fill="#707070">EC2::RouteTableAssociation</text>
<text text-anchor="start" x="40.5" y="-768.2" font-family="Helvetica,sans-Serif" font-size="16.00" fill="#383838">rt&#45;assoc::vpc&#45;wizard&#45;rtb&#45;private...</text>
</g>
<!-- RouteTableAssociation::::rt&#45;assoc::vpc&#45;wizard&#45;rtb&#45;private1&#45;us&#45;east&#45;1a::vpc&#45;wizard&#45;subnet&#45;private1&#45;us&#45;east&#45;1a&#45;&gt;RouteTable::::vpc&#45;wizard&#45;rtb&#45;private1&#45;us&#45;east&#45;1a -->
<g id="edge24" class="edge">
<title>RouteTableAssociation::::rt&#45;assoc::vpc&#45;wizard&#45;rtb&#45;private1&#45;us&#45;east&#45;1a::vpc&#45;wizard&#45;subnet&#45;private1&#45;us&#45;east&#45;1a&#45;&gt;RouteTable::::vpc&#45;wizard&#45;rtb&#45;private1&#45;us&#45;east&#45;1a</title>
<path fill="none" stroke="#707070" d="M276.11,-754.94C296.44,-749.88 317.66,-744.59 338.23,-739.46"/>
<polygon fill="#707070" stroke="#707070" points="339.09,-742.86 347.95,-737.04 337.4,-736.06 339.09,-742.86"/>
</g>
<!-- RouteTableAssociation::::rt&#45;assoc::vpc&#45;wizard&#45;rtb&#45;private1&#45;us&#45;east&#45;1a::vpc&#45;wizard&#45;subnet&#45;private1&#45;us&#45;east&#45;1a&#45;&gt;Subnet::::vpc&#45;wizard&#45;subnet&#45;private1&#45;us&#45;east&#45;1a -->
<g id="edge25" class="edge">
<title>RouteTableAssociation::::rt&#45;assoc::vpc&#45;wizard&#45;rtb&#45;private1&#45;us&#45;east&#45;1a::vpc&#45;wizard&#45;subnet&#45;private1&#45;us&#45;east&#45;1a&#45;&gt;Subnet::::vpc&#45;wizard&#45;subnet&#45;private1&#45;us&#45;east&#45;1a</title>
<path fill="none" stroke="#707070" d="M288.78,-777.28C377.29,-771.61 497.17,-761.82 602,-746 615.23,-744 628.97,-741.6 642.66,-738.99"/>
<polygon fill="#707070" stroke="#707070" points="643.46,-742.4 652.61,-737.06 642.12,-735.53 643.46,-742.4"/>
</g>
<!-- RouteTableAssociation::::rt&#45;assoc::vpc&#45;wizard&#45;rtb&#45;private2&#45;us&#45;east&#45;1b::vpc&#45;wizard&#45;subnet&#45;private2&#45;us&#45;east&#45;1b -->
<g id="node15" class="node">
<title>RouteTableAssociation::::rt&#45;assoc::vpc&#45;wizard&#45;rtb&#45;private2&#45;us&#45;east&#45;1b::vpc&#45;wizard&#45;subnet&#45;private2&#45;us&#45;east&#45;1b</title>
<polygon fill="#e5e5e5" stroke="#dddddd" points="288.5,-509 28.5,-509 28.5,-451 288.5,-451 288.5,-509"/>
<text text-anchor="start" x="40.5" y="-489.2" font-family="Helvetica,sans-Serif" font-weight="bold" font-size="16.00" fill="#707070">EC2::RouteTableAssociation</text>
<text text-anchor="start" x="40.5" y="-464.2" font-family="Helvetica,sans-Serif" font-size="16.00" fill="#383838">rt&#45;assoc::vpc&#45;wizard&#45;rtb&#45;private...</text>
</g>
<!-- RouteTableAssociation::::rt&#45;assoc::vpc&#45;wizard&#45;rtb&#45;private2&#45;us&#45;east&#45;1b::vpc&#45;wizard&#45;subnet&#45;private2&#45;us&#45;east&#45;1b&#45;&gt;RouteTable::::vpc&#45;wizard&#45;rtb&#45;private2&#45;us&#45;east&#45;1b -->
<g id="edge26" class="edge">
<title>RouteTableAssociation::::rt&#45;assoc::vpc&#45;wizard&#45;rtb&#45;private2&#45;us&#45;east&#45;1b::vpc&#45;wizard&#45;subnet&#45;private2&#45;us&#45;east&#45;1b&#45;&gt;RouteTable::::vpc&#45;wizard&#45;rtb&#45;private2&#45;us&#45;east&#45;1b</title>
<path fill="none" stroke="#707070" d="M288.85,-500.36C299.79,-502.08 310.89,-503.83 321.92,-505.56"/>
<polygon fill="#707070" stroke="#707070" points="321.6,-509.05 332.03,-507.15 322.69,-502.14 321.6,-509.05"/>
</g>
<!-- RouteTableAssociation::::rt&#45;assoc::vpc&#45;wizard&#45;rtb&#45;private2&#45;us&#45;east&#45;1b::vpc&#45;wizard&#45;subnet&#45;private2&#45;us&#45;east&#45;1b&#45;&gt;Subnet::::vpc&#45;wizard&#45;subnet&#45;private2&#45;us&#45;east&#45;1b -->
<g id="edge27" class="edge">
<title>RouteTableAssociation::::rt&#45;assoc::vpc&#45;wizard&#45;rtb&#45;private2&#45;us&#45;east&#45;1b::vpc&#45;wizard&#45;subnet&#45;private2&#45;us&#45;east&#45;1b&#45;&gt;Subnet::::vpc&#45;wizard&#45;subnet&#45;private2&#45;us&#45;east&#45;1b</title>
<path fill="none" stroke="#707070" d="M288.87,-480.01C377.17,-480.73 496.76,-483.11 602,-490 610.64,-490.57 619.51,-491.24 628.46,-491.99"/>
<polygon fill="#707070" stroke="#707070" points="628.32,-495.49 638.58,-492.87 628.92,-488.52 628.32,-495.49"/>
</g>
<!-- RouteTableAssociation::::rt&#45;assoc::vpc&#45;wizard&#45;rtb&#45;public1&#45;us&#45;east&#45;1a::vpc&#45;wizard&#45;subnet&#45;public1&#45;us&#45;east&#45;1a -->
<g id="node16" class="node">
<title>RouteTableAssociation::::rt&#45;assoc::vpc&#45;wizard&#45;rtb&#45;public1&#45;us&#45;east&#45;1a::vpc&#45;wizard&#45;subnet&#45;public1&#45;us&#45;east&#45;1a</title>
<polygon fill="#e5e5e5" stroke="#dddddd" points="290,-357 27,-357 27,-299 290,-299 290,-357"/>
<text text-anchor="start" x="39.5" y="-337.2" font-family="Helvetica,sans-Serif" font-weight="bold" font-size="16.00" fill="#707070">EC2::RouteTableAssociation</text>
<text text-anchor="start" x="39.5" y="-312.2" font-family="Helvetica,sans-Serif" font-size="16.00" fill="#383838">rt&#45;assoc::vpc&#45;wizard&#45;rtb&#45;public1...</text>
</g>
<!-- RouteTableAssociation::::rt&#45;assoc::vpc&#45;wizard&#45;rtb&#45;public1&#45;us&#45;east&#45;1a::vpc&#45;wizard&#45;subnet&#45;public1&#45;us&#45;east&#45;1a&#45;&gt;RouteTable::::vpc&#45;wizard&#45;rtb&#45;public1&#45;us&#45;east&#45;1a -->
<g id="edge28" class="edge">
<title>RouteTableAssociation::::rt&#45;assoc::vpc&#45;wizard&#45;rtb&#45;public1&#45;us&#45;east&#45;1a::vpc&#45;wizard&#45;subnet&#45;public1&#45;us&#45;east&#45;1a&#45;&gt;RouteTable::::vpc&#45;wizard&#45;rtb&#45;public1&#45;us&#45;east&#45;1a</title>
<path fill="none" stroke="#707070" d="M290.17,-319.86C300.24,-319.23 310.43,-318.6 320.58,-317.97"/>
<polygon fill="#707070" stroke="#707070" points="320.93,-321.45 330.7,-317.34 320.5,-314.46 320.93,-321.45"/>
</g>
<!-- RouteTableAssociation::::rt&#45;assoc::vpc&#45;wizard&#45;rtb&#45;public1&#45;us&#45;east&#45;1a::vpc&#45;wizard&#45;subnet&#45;public1&#45;us&#45;east&#45;1a&#45;&gt;Subnet::::vpc&#45;wizard&#45;subnet&#45;public1&#45;us&#45;east&#45;1a -->
<g id="edge29" class="edge">
<title>RouteTableAssociation::::rt&#45;assoc::vpc&#45;wizard&#45;rtb&#45;public1&#45;us&#45;east&#45;1a::vpc&#45;wizard&#45;subnet&#45;public1&#45;us&#45;east&#45;1a&#45;&gt;Subnet::::vpc&#45;wizard&#45;subnet&#45;public1&#45;us&#45;east&#45;1a</title>
<path fill="none" stroke="#707070" d="M290.34,-343.85C303.38,-345.07 316.44,-346.16 329,-347 428.31,-353.66 540.24,-356.16 627.38,-357"/>
<polygon fill="#707070" stroke="#707070" points="627.59,-360.5 637.62,-357.09 627.65,-353.5 627.59,-360.5"/>
</g>
<!-- RouteTableAssociation::::rt&#45;assoc::vpc&#45;wizard&#45;rtb&#45;public2&#45;us&#45;east&#45;1b::vpc&#45;wizard&#45;subnet&#45;public2&#45;us&#45;east&#45;1b -->
<g id="node17" class="node">
<title>RouteTableAssociation::::rt&#45;assoc::vpc&#45;wizard&#45;rtb&#45;public2&#45;us&#45;east&#45;1b::vpc&#45;wizard&#45;subnet&#45;public2&#45;us&#45;east&#45;1b</title>
<polygon fill="#e5e5e5" stroke="#dddddd" points="290,-281 27,-281 27,-223 290,-223 290,-281"/>
<text text-anchor="start" x="39.5" y="-261.2" font-family="Helvetica,sans-Serif" font-weight="bold" font-size="16.00" fill="#707070">EC2::RouteTableAssociation</text>
<text text-anchor="start" x="39.5" y="-236.2" font-family="Helvetica,sans-Serif" font-size="16.00" fill="#383838">rt&#45;assoc::vpc&#45;wizard&#45;rtb&#45;public2...</text>
</g>
<!-- RouteTableAssociation::::rt&#45;assoc::vpc&#45;wizard&#45;rtb&#45;public2&#45;us&#45;east&#45;1b::vpc&#45;wizard&#45;subnet&#45;public2&#45;us&#45;east&#45;1b&#45;&gt;RouteTable::::vpc&#45;wizard&#45;rtb&#45;public2&#45;us&#45;east&#45;1b -->
<g id="edge30" class="edge">
<title>RouteTableAssociation::::rt&#45;assoc::vpc&#45;wizard&#45;rtb&#45;public2&#45;us&#45;east&#45;1b::vpc&#45;wizard&#45;subnet&#45;public2&#45;us&#45;east&#45;1b&#45;&gt;RouteTable::::vpc&#45;wizard&#45;rtb&#45;public2&#45;us&#45;east&#45;1b</title>
<path fill="none" stroke="#707070" d="M290.17,-235.29C300.24,-234 310.43,-232.7 320.58,-231.4"/>
<polygon fill="#707070" stroke="#707070" points="321.22,-234.85 330.7,-230.11 320.33,-227.91 321.22,-234.85"/>
</g>
<!-- RouteTableAssociation::::rt&#45;assoc::vpc&#45;wizard&#45;rtb&#45;public2&#45;us&#45;east&#45;1b::vpc&#45;wizard&#45;subnet&#45;public2&#45;us&#45;east&#45;1b&#45;&gt;Subnet::::vpc&#45;wizard&#45;subnet&#45;public2&#45;us&#45;east&#45;1b -->
<g id="edge31" class="edge">
<title>RouteTableAssociation::::rt&#45;assoc::vpc&#45;wizard&#45;rtb&#45;public2&#45;us&#45;east&#45;1b::vpc&#45;wizard&#45;subnet&#45;public2&#45;us&#45;east&#45;1b&#45;&gt;Subnet::::vpc&#45;wizard&#45;subnet&#45;public2&#45;us&#45;east&#45;1b</title>
<path fill="none" stroke="#707070" d="M290.08,-253.9C388.81,-255.34 524.5,-257.32 627.57,-258.82"/>
<polygon fill="#707070" stroke="#707070" points="627.7,-262.32 637.75,-258.97 627.81,-255.33 627.7,-262.32"/>
</g>
<!-- Subnet::::vpc&#45;wizard&#45;subnet&#45;private1&#45;us&#45;east&#45;1a&#45;&gt;Vpc::::vpc&#45;wizard&#45;vpc -->
<g id="edge32" class="edge">
<title>Subnet::::vpc&#45;wizard&#45;subnet&#45;private1&#45;us&#45;east&#45;1a&#45;&gt;Vpc::::vpc&#45;wizard&#45;vpc</title>
<path fill="none" stroke="#707070" d="M867.91,-678.9C885.99,-670.07 903.8,-658.9 918,-645 967.71,-596.32 996.22,-518.46 1009.73,-471.87"/>
<polygon fill="#707070" stroke="#707070" points="1013.13,-472.71 1012.46,-462.14 1006.39,-470.82 1013.13,-472.71"/>
</g>
<!-- Subnet::::vpc&#45;wizard&#45;subnet&#45;private2&#45;us&#45;east&#45;1b&#45;&gt;Vpc::::vpc&#45;wizard&#45;vpc -->
<g id="edge33" class="edge">
<title>Subnet::::vpc&#45;wizard&#45;subnet&#45;private2&#45;us&#45;east&#45;1b&#45;&gt;Vpc::::vpc&#45;wizard&#45;vpc</title>
<path fill="none" stroke="#707070" d="M888.92,-479.95C898.79,-477.04 908.6,-474.04 918,-471 926.55,-468.24 935.43,-465.19 944.24,-462.05"/>
<polygon fill="#707070" stroke="#707070" points="945.53,-465.3 953.74,-458.61 943.15,-458.72 945.53,-465.3"/>
</g>
<!-- Subnet::::vpc&#45;wizard&#45;subnet&#45;public1&#45;us&#45;east&#45;1a&#45;&gt;Vpc::::vpc&#45;wizard&#45;vpc -->
<g id="edge34" class="edge">
<title>Subnet::::vpc&#45;wizard&#45;subnet&#45;public1&#45;us&#45;east&#45;1a&#45;&gt;Vpc::::vpc&#45;wizard&#45;vpc</title>
<path fill="none" stroke="#707070" d="M888.92,-386.05C898.79,-388.96 908.6,-391.96 918,-395 926.55,-397.76 935.43,-400.81 944.24,-403.95"/>
<polygon fill="#707070" stroke="#707070" points="943.15,-407.28 953.74,-407.39 945.53,-400.7 943.15,-407.28"/>
</g>
<!-- Subnet::::vpc&#45;wizard&#45;subnet&#45;public2&#45;us&#45;east&#45;1b&#45;&gt;Vpc::::vpc&#45;wizard&#45;vpc -->
<g id="edge35" class="edge">
<title>Subnet::::vpc&#45;wizard&#45;subnet&#45;public2&#45;us&#45;east&#45;1b&#45;&gt;Vpc::::vpc&#45;wizard&#45;vpc</title>
<path fill="none" stroke="#707070" d="M893.57,-290.11C902.14,-294.17 910.4,-298.78 918,-304 952.37,-327.62 980.62,-366.4 998.51,-395.28"/>
<polygon fill="#707070" stroke="#707070" points="995.55,-397.15 1003.72,-403.9 1001.54,-393.53 995.55,-397.15"/>
</g>
<!-- VpcEndpoint::::vpc&#45;wizard&#45;vpce&#45;s3&#45;&gt;Vpc::::vpc&#45;wizard&#45;vpc -->
<g id="edge36" class="edge">
<title>VpcEndpoint::::vpc&#45;wizard&#45;vpce&#45;s3&#45;&gt;Vpc::::vpc&#45;wizard&#45;vpc</title>
<path fill="none" stroke="#707070" d="M547.91,-627.89C660.56,-620.97 856.99,-604.03 918,-568 956.15,-545.47 984.62,-502.51 1001.55,-471.09"/>
<polygon fill="#707070" stroke="#707070" points="1004.69,-472.63 1006.23,-462.15 998.49,-469.39 1004.69,-472.63"/>
</g>
</g>
</svg>
