<?xml version="1.0" encoding="UTF-8" standalone="no"?>
<!DOCTYPE svg PUBLIC "-//W3C//DTD SVG 1.1//EN"
 "http://www.w3.org/Graphics/SVG/1.1/DTD/svg11.dtd">
<!-- Generated by graphviz version 6.0.0 (20220910.1538)
 -->
<!-- Title: graphname Pages: 1 -->
<svg width="1101pt" height="257pt"
 viewBox="0.00 0.00 1101.00 257.00" xmlns="http://www.w3.org/2000/svg" xmlns:xlink="http://www.w3.org/1999/xlink">
<g id="graph0" class="graph" transform="scale(1 1) rotate(0) translate(4 253)">
<title>graphname</title>
<polygon fill="#fafafa" stroke="none" points="-4,4 -4,-253 1097,-253 1097,4 -4,4"/>
<text text-anchor="start" x="432.5" y="-224.4" font-family="Helvetica,sans-Serif" font-weight="bold" font-size="22.00" fill="#383838">Project scheduler&#45;sns</text>
<text text-anchor="start" x="543" y="-208.8" font-family="Helvetica,sans-Serif" font-size="14.00"> &#160;</text>
<text text-anchor="start" x="432.5" y="-187.2" font-family="Helvetica,sans-Serif" font-weight="bold" font-size="16.00" fill="#707070">Target Diagram</text>
<g id="clust1" class="cluster">
<title>cluster_aws</title>
<polygon fill="#f5f5f5" stroke="#f5f5f5" points="8,-8 8,-165 1085,-165 1085,-8 8,-8"/>
<text text-anchor="start" x="484.5" y="-23" font-family="Helvetica,sans-Serif" font-weight="bold" font-size="20.00" fill="#707070">Provider aws</text>
</g>
<g id="clust2" class="cluster">
<title>cluster_aws_</title>
<polygon fill="#eeeeee" stroke="#eeeeee" points="16,-54 16,-157 1077,-157 1077,-54 16,-54"/>
<text text-anchor="start" x="546.36" y="-58.3" font-family="Helvetica,sans-Serif" font-size="1.00" fill="#383838"> </text>
</g>
<!-- Role::Amazon_EventBridge_Scheduler_SNS -->
<g id="node1" class="node">
<title>Role::Amazon_EventBridge_Scheduler_SNS</title>
<polygon fill="#e5e5e5" stroke="#dddddd" points="561,-129 244,-129 244,-71 561,-71 561,-129"/>
<text text-anchor="start" x="256.5" y="-109.2" font-family="Helvetica,sans-Serif" font-weight="bold" font-size="16.00" fill="#707070">IAM::Role</text>
<text text-anchor="start" x="256.5" y="-84.2" font-family="Helvetica,sans-Serif" font-size="16.00" fill="#383838">Amazon_EventBridge_Scheduler_SNS...</text>
</g>
<!-- Policy::Amazon&#45;EventBridge&#45;Scheduler&#45;Execution&#45;Policy&#45;50a964bf&#45;c6f1&#45;477b&#45;bce9&#45;869058e66a1b -->
<g id="node2" class="node">
<title>Policy::Amazon&#45;EventBridge&#45;Scheduler&#45;Execution&#45;Policy&#45;50a964bf&#45;c6f1&#45;477b&#45;bce9&#45;869058e66a1b</title>
<polygon fill="#e5e5e5" stroke="#dddddd" points="898,-129 597,-129 597,-71 898,-71 898,-129"/>
<text text-anchor="start" x="609.5" y="-109.2" font-family="Helvetica,sans-Serif" font-weight="bold" font-size="16.00" fill="#707070">IAM::Policy</text>
<text text-anchor="start" x="609.5" y="-84.2" font-family="Helvetica,sans-Serif" font-size="16.00" fill="#383838">Amazon&#45;EventBridge&#45;Scheduler&#45;Exe...</text>
</g>
<!-- Role::Amazon_EventBridge_Scheduler_SNS&#45;&gt;Policy::Amazon&#45;EventBridge&#45;Scheduler&#45;Execution&#45;Policy&#45;50a964bf&#45;c6f1&#45;477b&#45;bce9&#45;869058e66a1b -->
<g id="edge1" class="edge">
<title>Role::Amazon_EventBridge_Scheduler_SNS&#45;&gt;Policy::Amazon&#45;EventBridge&#45;Scheduler&#45;Execution&#45;Policy&#45;50a964bf&#45;c6f1&#45;477b&#45;bce9&#45;869058e66a1b</title>
<path fill="none" stroke="#707070" d="M561.2,-100C569.73,-100 578.32,-100 586.86,-100"/>
<polygon fill="#707070" stroke="#707070" points="586.87,-103.5 596.87,-100 586.87,-96.5 586.87,-103.5"/>
</g>
<!-- Topic::topic&#45;scheduler -->
<g id="node4" class="node">
<title>Topic::topic&#45;scheduler</title>
<polygon fill="#e5e5e5" stroke="#dddddd" points="1069,-139 934,-139 934,-81 1069,-81 1069,-139"/>
<text text-anchor="start" x="946.5" y="-119.2" font-family="Helvetica,sans-Serif" font-weight="bold" font-size="16.00" fill="#707070">SNS::Topic</text>
<text text-anchor="start" x="946.5" y="-94.2" font-family="Helvetica,sans-Serif" font-size="16.00" fill="#383838">topic&#45;scheduler</text>
</g>
<!-- Policy::Amazon&#45;EventBridge&#45;Scheduler&#45;Execution&#45;Policy&#45;50a964bf&#45;c6f1&#45;477b&#45;bce9&#45;869058e66a1b&#45;&gt;Topic::topic&#45;scheduler -->
<g id="edge2" class="edge">
<title>Policy::Amazon&#45;EventBridge&#45;Scheduler&#45;Execution&#45;Policy&#45;50a964bf&#45;c6f1&#45;477b&#45;bce9&#45;869058e66a1b&#45;&gt;Topic::topic&#45;scheduler</title>
<path fill="none" stroke="#707070" d="M898,-105.93C906.72,-106.28 915.28,-106.62 923.52,-106.95"/>
<polygon fill="#707070" stroke="#707070" points="923.62,-110.45 933.75,-107.35 923.9,-103.46 923.62,-110.45"/>
</g>
<!-- Schedule::schedule&#45;sns -->
<g id="node3" class="node">
<title>Schedule::schedule&#45;sns</title>
<polygon fill="#e5e5e5" stroke="#dddddd" points="208,-139 24,-139 24,-81 208,-81 208,-139"/>
<text text-anchor="start" x="36" y="-119.2" font-family="Helvetica,sans-Serif" font-weight="bold" font-size="16.00" fill="#707070">Scheduler::Schedule</text>
<text text-anchor="start" x="36" y="-94.2" font-family="Helvetica,sans-Serif" font-size="16.00" fill="#383838">schedule&#45;sns</text>
</g>
<!-- Schedule::schedule&#45;sns&#45;&gt;Role::Amazon_EventBridge_Scheduler_SNS -->
<g id="edge3" class="edge">
<title>Schedule::schedule&#45;sns&#45;&gt;Role::Amazon_EventBridge_Scheduler_SNS</title>
<path fill="none" stroke="#707070" d="M208.19,-106.79C216.49,-106.5 225.05,-106.2 233.74,-105.9"/>
<polygon fill="#707070" stroke="#707070" points="234.12,-109.39 244,-105.54 233.88,-102.39 234.12,-109.39"/>
</g>
<!-- Schedule::schedule&#45;sns&#45;&gt;Topic::topic&#45;scheduler -->
<g id="edge4" class="edge">
<title>Schedule::schedule&#45;sns&#45;&gt;Topic::topic&#45;scheduler</title>
<path fill="none" stroke="#707070" d="M208.17,-132.58C220.16,-134.82 232.33,-136.73 244,-138 532.96,-169.48 609.91,-176.64 898,-138 906.5,-136.86 915.3,-135.21 924,-133.27"/>
<polygon fill="#707070" stroke="#707070" points="924.83,-136.67 933.76,-130.98 923.23,-129.86 924.83,-136.67"/>
</g>
</g>
</svg>
