<?xml version="1.0" encoding="UTF-8" standalone="no"?>
<!DOCTYPE svg PUBLIC "-//W3C//DTD SVG 1.1//EN"
 "http://www.w3.org/Graphics/SVG/1.1/DTD/svg11.dtd">
<!-- Generated by graphviz version 7.1.0 (20230121.1956)
 -->
<!-- Title: graphname Pages: 1 -->
<svg width="745pt" height="257pt"
 viewBox="0.00 0.00 745.00 257.00" xmlns="http://www.w3.org/2000/svg" xmlns:xlink="http://www.w3.org/1999/xlink">
<g id="graph0" class="graph" transform="scale(1 1) rotate(0) translate(4 253)">
<title>graphname</title>
<polygon fill="#fafafa" stroke="none" points="-4,4 -4,-253 741,-253 741,4 -4,4"/>
<text text-anchor="start" x="228.5" y="-224.4" font-family="Helvetica,sans-Serif" font-weight="bold" font-size="22.00" fill="#383838">Project codeartifact&#45;simple</text>
<text text-anchor="start" x="365" y="-208.8" font-family="Helvetica,sans-Serif" font-size="14.00"> &#160;</text>
<text text-anchor="start" x="228.5" y="-187.2" font-family="Helvetica,sans-Serif" font-weight="bold" font-size="16.00" fill="#707070">Target Diagram</text>
<g id="clust1" class="cluster">
<title>cluster_aws</title>
<polygon fill="#f5f5f5" stroke="#f5f5f5" points="8,-8 8,-165 729,-165 729,-8 8,-8"/>
<text text-anchor="start" x="306.5" y="-23" font-family="Helvetica,sans-Serif" font-weight="bold" font-size="20.00" fill="#707070">Provider aws</text>
</g>
<g id="clust2" class="cluster">
<title>cluster_aws_</title>
<polygon fill="#eeeeee" stroke="#eeeeee" points="16,-54 16,-157 721,-157 721,-54 16,-54"/>
<text text-anchor="start" x="368.36" y="-58.3" font-family="Helvetica,sans-Serif" font-size="1.00" fill="#383838"> </text>
</g>
<!-- Domain::my&#45;domain -->
<g id="node1" class="node">
<title>Domain::my&#45;domain</title>
<polygon fill="#e5e5e5" stroke="#dddddd" points="713,-139 524,-139 524,-81 713,-81 713,-139"/>
<text text-anchor="start" x="536.5" y="-119.2" font-family="Helvetica,sans-Serif" font-weight="bold" font-size="16.00" fill="#707070">CodeArtifact::Domain</text>
<text text-anchor="start" x="536.5" y="-94.2" font-family="Helvetica,sans-Serif" font-size="16.00" fill="#383838">my&#45;domain</text>
</g>
<!-- Repository::my&#45;repo -->
<g id="node2" class="node">
<title>Repository::my&#45;repo</title>
<polygon fill="#e5e5e5" stroke="#dddddd" points="238,-139 24,-139 24,-81 238,-81 238,-139"/>
<text text-anchor="start" x="36" y="-119.2" font-family="Helvetica,sans-Serif" font-weight="bold" font-size="16.00" fill="#707070">CodeArtifact::Repository</text>
<text text-anchor="start" x="36" y="-94.2" font-family="Helvetica,sans-Serif" font-size="16.00" fill="#383838">my&#45;repo</text>
</g>
<!-- Repository::my&#45;repo&#45;&gt;Domain::my&#45;domain -->
<g id="edge1" class="edge">
<title>Repository::my&#45;repo&#45;&gt;Domain::my&#45;domain</title>
<path fill="none" stroke="#707070" d="M238.28,-86.72C250.28,-84.78 262.37,-83.14 274,-82 368.66,-72.76 393.43,-71.89 488,-82 496.02,-82.86 504.27,-84 512.54,-85.35"/>
<polygon fill="#707070" stroke="#707070" points="511.87,-88.78 522.32,-87.03 513.06,-81.88 511.87,-88.78"/>
</g>
<!-- Repository::npm&#45;store -->
<g id="node3" class="node">
<title>Repository::npm&#45;store</title>
<polygon fill="#e5e5e5" stroke="#dddddd" points="488,-149 274,-149 274,-91 488,-91 488,-149"/>
<text text-anchor="start" x="286" y="-129.2" font-family="Helvetica,sans-Serif" font-weight="bold" font-size="16.00" fill="#707070">CodeArtifact::Repository</text>
<text text-anchor="start" x="286" y="-104.2" font-family="Helvetica,sans-Serif" font-size="16.00" fill="#383838">npm&#45;store</text>
</g>
<!-- Repository::my&#45;repo&#45;&gt;Repository::npm&#45;store -->
<g id="edge2" class="edge">
<title>Repository::my&#45;repo&#45;&gt;Repository::npm&#45;store</title>
<path fill="none" stroke="#707070" d="M238.25,-114.28C246.21,-114.61 254.26,-114.93 262.28,-115.25"/>
<polygon fill="#707070" stroke="#707070" points="261.93,-118.74 272.06,-115.65 262.21,-111.75 261.93,-118.74"/>
</g>
<!-- Repository::npm&#45;store&#45;&gt;Domain::my&#45;domain -->
<g id="edge3" class="edge">
<title>Repository::npm&#45;store&#45;&gt;Domain::my&#45;domain</title>
<path fill="none" stroke="#707070" d="M488.38,-115.48C496.42,-115.14 504.53,-114.8 512.55,-114.46"/>
<polygon fill="#707070" stroke="#707070" points="512.48,-117.96 522.32,-114.04 512.18,-110.97 512.48,-117.96"/>
</g>
</g>
</svg>
