<?xml version="1.0" encoding="UTF-8" standalone="no"?><svg xmlns="http://www.w3.org/2000/svg" xmlns:xlink="http://www.w3.org/1999/xlink" contentScriptType="application/ecmascript" contentStyleType="text/css" height="228px" preserveAspectRatio="none" style="width:467px;height:228px;background:#FFFFFF;" version="1.1" viewBox="0 0 467 228" width="467px" zoomAndPan="magnify"><defs><filter height="300%" id="fdbx0ffehvdb" width="300%" x="-1" y="-1"><feGaussianBlur result="blurOut" stdDeviation="2.0"/><feColorMatrix in="blurOut" result="blurOut2" type="matrix" values="0 0 0 0 0 0 0 0 0 0 0 0 0 0 0 0 0 0 .4 0"/><feOffset dx="4.0" dy="4.0" in="blurOut2" result="blurOut3"/><feBlend in="SourceGraphic" in2="blurOut3" mode="normal"/></filter></defs><g><rect fill="none" height="26.4883" style="stroke:none;stroke-width:1.0;" width="228" x="89.5" y="15"/><text fill="#000000" font-family="sans-serif" font-size="14" font-weight="bold" lengthAdjust="spacing" textLength="218" x="94.5" y="33.5352">Resources for project iam-ecs</text><rect fill="#F8F8F8" filter="url(#fdbx0ffehvdb)" height="36.4883" rx="12.5" ry="12.5" style="stroke:#383838;stroke-width:1.5;" width="52" x="10" y="113.9766"/><text fill="#000000" font-family="sans-serif" font-size="14" lengthAdjust="spacing" textLength="32" x="20" y="137.5117">Infra</text><rect fill="#F8F8F8" filter="url(#fdbx0ffehvdb)" height="36.4883" rx="12.5" ry="12.5" style="stroke:#383838;stroke-width:1.5;" width="46" x="112" y="113.9766"/><text fill="#000000" font-family="sans-serif" font-size="14" lengthAdjust="spacing" textLength="26" x="122" y="137.5117">aws</text><rect fill="#F8F8F8" filter="url(#fdbx0ffehvdb)" height="36.4883" rx="12.5" ry="12.5" style="stroke:#383838;stroke-width:1.5;" width="46" x="208" y="113.9766"/><text fill="#000000" font-family="sans-serif" font-size="14" lengthAdjust="spacing" textLength="26" x="218" y="137.5117">IAM</text><rect fill="#F8F8F8" filter="url(#fdbx0ffehvdb)" height="36.4883" rx="12.5" ry="12.5" style="stroke:#383838;stroke-width:1.5;" width="73" x="304" y="57.4883"/><text fill="#000000" font-family="sans-serif" font-size="14" lengthAdjust="spacing" textLength="53" x="314" y="81.0234">Role (1)</text><path d="M254,132.2207 L264,132.2207 C279,132.2207 279,75.7324 294,75.7324 L304,75.7324 " fill="none" style="stroke:#383838;stroke-width:1.0;"/><rect fill="#F8F8F8" filter="url(#fdbx0ffehvdb)" height="36.4883" rx="12.5" ry="12.5" style="stroke:#383838;stroke-width:1.5;" width="82" x="304" y="113.9766"/><text fill="#000000" font-family="sans-serif" font-size="14" lengthAdjust="spacing" textLength="62" x="314" y="137.5117">Policy (1)</text><path d="M254,132.2207 L264,132.2207 C279,132.2207 279,132.2207 294,132.2207 L304,132.2207 " fill="none" style="stroke:#383838;stroke-width:1.0;"/><rect fill="#F8F8F8" filter="url(#fdbx0ffehvdb)" height="36.4883" rx="12.5" ry="12.5" style="stroke:#383838;stroke-width:1.5;" width="144" x="304" y="170.4648"/><text fill="#000000" font-family="sans-serif" font-size="14" lengthAdjust="spacing" textLength="124" x="314" y="194">InstanceProfile (1)</text><path d="M254,132.2207 L264,132.2207 C279,132.2207 279,188.709 294,188.709 L304,188.709 " fill="none" style="stroke:#383838;stroke-width:1.0;"/><path d="M158,132.2207 L168,132.2207 C183,132.2207 183,132.2207 198,132.2207 L208,132.2207 " fill="none" style="stroke:#383838;stroke-width:1.0;"/><path d="M62,132.2207 L72,132.2207 C87,132.2207 87,132.2207 102,132.2207 L112,132.2207 " fill="none" style="stroke:#383838;stroke-width:1.0;"/><!--MD5=[e8ba7b626ba55f9f5e538a8784df7d7e]
@startmindmap
title Resources for project iam-ecs
skinparam monochrome true
+ Infra
++ aws
+++ IAM
++++ Role (1)
++++ Policy (1)
++++ InstanceProfile (1)
@endmindmap

PlantUML version 1.2021.8(Sat Jun 26 03:20:59 COT 2021)
(GPL source distribution)
Java Runtime: OpenJDK Runtime Environment
JVM: OpenJDK 64-Bit Server VM
Default Encoding: UTF-8
Language: en
Country: GB
--></g></svg>