<?xml version="1.0" encoding="UTF-8" standalone="no"?>
<!DOCTYPE svg PUBLIC "-//W3C//DTD SVG 1.1//EN"
 "http://www.w3.org/Graphics/SVG/1.1/DTD/svg11.dtd">
<!-- Generated by graphviz version 6.0.0 (20220910.1538)
 -->
<!-- Title: graphname Pages: 1 -->
<svg width="605pt" height="313pt"
 viewBox="0.00 0.00 605.00 313.00" xmlns="http://www.w3.org/2000/svg" xmlns:xlink="http://www.w3.org/1999/xlink">
<g id="graph0" class="graph" transform="scale(1 1) rotate(0) translate(4 309)">
<title>graphname</title>
<polygon fill="#fafafa" stroke="none" points="-4,4 -4,-309 601,-309 601,4 -4,4"/>
<text text-anchor="start" x="164.5" y="-280.4" font-family="Helvetica,sans-Serif" font-weight="bold" font-size="22.00" fill="#383838">Project inspector2&#45;simple</text>
<text text-anchor="start" x="294.5" y="-264.8" font-family="Helvetica,sans-Serif" font-size="14.00"> &#160;</text>
<text text-anchor="start" x="164.5" y="-243.2" font-family="Helvetica,sans-Serif" font-weight="bold" font-size="16.00" fill="#707070">Target Diagram</text>
<g id="clust1" class="cluster">
<title>cluster_aws</title>
<polygon fill="#f5f5f5" stroke="#f5f5f5" points="8,-8 8,-221 589,-221 589,-8 8,-8"/>
<text text-anchor="start" x="236.5" y="-23" font-family="Helvetica,sans-Serif" font-weight="bold" font-size="20.00" fill="#707070">Provider aws</text>
</g>
<g id="clust2" class="cluster">
<title>cluster_aws_</title>
<polygon fill="#eeeeee" stroke="#eeeeee" points="16,-54 16,-213 581,-213 581,-54 16,-54"/>
<text text-anchor="start" x="298.36" y="-58.3" font-family="Helvetica,sans-Serif" font-size="1.00" fill="#383838"> </text>
</g>
<!-- DelegatedAdminAccount::default -->
<g id="node1" class="node">
<title>DelegatedAdminAccount::default</title>
<polygon fill="#e5e5e5" stroke="#dddddd" points="330,-205 24,-205 24,-147 330,-147 330,-205"/>
<text text-anchor="start" x="36" y="-185.2" font-family="Helvetica,sans-Serif" font-weight="bold" font-size="16.00" fill="#707070">Inspector2::DelegatedAdminAccount</text>
<text text-anchor="start" x="36" y="-160.2" font-family="Helvetica,sans-Serif" font-size="16.00" fill="#383838">default</text>
</g>
<!-- Account::test account -->
<g id="node3" class="node">
<title>Account::test account</title>
<polygon fill="#e5e5e5" stroke="#dddddd" points="573,-205 366,-205 366,-147 573,-147 573,-205"/>
<text text-anchor="start" x="378.5" y="-185.2" font-family="Helvetica,sans-Serif" font-weight="bold" font-size="16.00" fill="#707070">Organisations::Account</text>
<text text-anchor="start" x="378.5" y="-160.2" font-family="Helvetica,sans-Serif" font-size="16.00" fill="#383838">test account</text>
</g>
<!-- DelegatedAdminAccount::default&#45;&gt;Account::test account -->
<g id="edge1" class="edge">
<title>DelegatedAdminAccount::default&#45;&gt;Account::test account</title>
<path fill="none" stroke="#707070" d="M330.06,-176C338.64,-176 347.2,-176 355.61,-176"/>
<polygon fill="#707070" stroke="#707070" points="355.77,-179.5 365.77,-176 355.77,-172.5 355.77,-179.5"/>
</g>
<!-- Enabler::default -->
<g id="node2" class="node">
<title>Enabler::default</title>
<polygon fill="#e5e5e5" stroke="#dddddd" points="264.5,-129 89.5,-129 89.5,-71 264.5,-71 264.5,-129"/>
<text text-anchor="start" x="102" y="-109.2" font-family="Helvetica,sans-Serif" font-weight="bold" font-size="16.00" fill="#707070">Inspector2::Enabler</text>
<text text-anchor="start" x="102" y="-84.2" font-family="Helvetica,sans-Serif" font-size="16.00" fill="#383838">default</text>
</g>
</g>
</svg>
