<?xml version="1.0" encoding="UTF-8" standalone="no"?><svg xmlns="http://www.w3.org/2000/svg" xmlns:xlink="http://www.w3.org/1999/xlink" contentScriptType="application/ecmascript" contentStyleType="text/css" height="172px" preserveAspectRatio="none" style="width:527px;height:172px;background:#FFFFFF;" version="1.1" viewBox="0 0 527 172" width="527px" zoomAndPan="magnify"><defs><filter height="300%" id="f1jez5w40it26w" width="300%" x="-1" y="-1"><feGaussianBlur result="blurOut" stdDeviation="2.0"/><feColorMatrix in="blurOut" result="blurOut2" type="matrix" values="0 0 0 0 0 0 0 0 0 0 0 0 0 0 0 0 0 0 .4 0"/><feOffset dx="4.0" dy="4.0" in="blurOut2" result="blurOut3"/><feBlend in="SourceGraphic" in2="blurOut3" mode="normal"/></filter></defs><g><rect fill="none" height="26.4883" style="stroke:none;stroke-width:1.0;" width="208" x="129.5" y="15"/><text fill="#000000" font-family="sans-serif" font-size="14" font-weight="bold" lengthAdjust="spacing" textLength="198" x="134.5" y="33.5352">Resources for project event</text><rect fill="#F8F8F8" filter="url(#f1jez5w40it26w)" height="36.4883" rx="12.5" ry="12.5" style="stroke:#383838;stroke-width:1.5;" width="52" x="10" y="85.7324"/><text fill="#000000" font-family="sans-serif" font-size="14" lengthAdjust="spacing" textLength="32" x="20" y="109.2676">Infra</text><rect fill="#F8F8F8" filter="url(#f1jez5w40it26w)" height="36.4883" rx="12.5" ry="12.5" style="stroke:#383838;stroke-width:1.5;" width="46" x="112" y="85.7324"/><text fill="#000000" font-family="sans-serif" font-size="14" lengthAdjust="spacing" textLength="26" x="122" y="109.2676">aws</text><rect fill="#F8F8F8" filter="url(#f1jez5w40it26w)" height="36.4883" rx="12.5" ry="12.5" style="stroke:#383838;stroke-width:1.5;" width="146" x="208" y="85.7324"/><text fill="#000000" font-family="sans-serif" font-size="14" lengthAdjust="spacing" textLength="126" x="218" y="109.2676">CloudWatchEvents</text><rect fill="#F8F8F8" filter="url(#f1jez5w40it26w)" height="36.4883" rx="12.5" ry="12.5" style="stroke:#383838;stroke-width:1.5;" width="104" x="404" y="57.4883"/><text fill="#000000" font-family="sans-serif" font-size="14" lengthAdjust="spacing" textLength="84" x="414" y="81.0234">EventBus (1)</text><path d="M354,103.9766 L364,103.9766 C379,103.9766 379,75.7324 394,75.7324 L404,75.7324 " fill="none" style="stroke:#383838;stroke-width:1.0;"/><rect fill="#F8F8F8" filter="url(#f1jez5w40it26w)" height="36.4883" rx="12.5" ry="12.5" style="stroke:#383838;stroke-width:1.5;" width="73" x="404" y="113.9766"/><text fill="#000000" font-family="sans-serif" font-size="14" lengthAdjust="spacing" textLength="53" x="414" y="137.5117">Rule (2)</text><path d="M354,103.9766 L364,103.9766 C379,103.9766 379,132.2207 394,132.2207 L404,132.2207 " fill="none" style="stroke:#383838;stroke-width:1.0;"/><path d="M158,103.9766 L168,103.9766 C183,103.9766 183,103.9766 198,103.9766 L208,103.9766 " fill="none" style="stroke:#383838;stroke-width:1.0;"/><path d="M62,103.9766 L72,103.9766 C87,103.9766 87,103.9766 102,103.9766 L112,103.9766 " fill="none" style="stroke:#383838;stroke-width:1.0;"/><!--MD5=[3aee7e7ea894ea8b1852992e8c66f3ee]
@startmindmap
title Resources for project event
skinparam monochrome true
+ Infra
++ aws
+++ CloudWatchEvents
++++ EventBus (1)
++++ Rule (2)
@endmindmap

PlantUML version 1.2021.8(Sat Jun 26 03:20:59 COT 2021)
(GPL source distribution)
Java Runtime: OpenJDK Runtime Environment
JVM: OpenJDK 64-Bit Server VM
Default Encoding: UTF-8
Language: en
Country: GB
--></g></svg>