<?xml version="1.0" encoding="UTF-8" standalone="no"?>
<!DOCTYPE svg PUBLIC "-//W3C//DTD SVG 1.1//EN"
 "http://www.w3.org/Graphics/SVG/1.1/DTD/svg11.dtd">
<!-- Generated by graphviz version 3.0.0 (20220226.1711)
 -->
<!-- Title: graphname Pages: 1 -->
<svg width="709pt" height="313pt"
 viewBox="0.00 0.00 709.00 313.00" xmlns="http://www.w3.org/2000/svg" xmlns:xlink="http://www.w3.org/1999/xlink">
<g id="graph0" class="graph" transform="scale(1 1) rotate(0) translate(4 309)">
<title>graphname</title>
<polygon fill="#fafafa" stroke="transparent" points="-4,4 -4,-309 705,-309 705,4 -4,4"/>
<text text-anchor="start" x="249.5" y="-280.4" font-family="Helvetica,sans-Serif" font-weight="bold" font-size="22.00" fill="#383838">Project sns&#45;lambda</text>
<text text-anchor="start" x="346.5" y="-264.8" font-family="Helvetica,sans-Serif" font-size="14.00"> &#160;</text>
<text text-anchor="start" x="249.5" y="-243.2" font-family="Helvetica,sans-Serif" font-weight="bold" font-size="16.00" fill="#707070">Live Diagram</text>
<g id="clust1" class="cluster">
<title>cluster_aws</title>
<polygon fill="#f5f5f5" stroke="#f5f5f5" points="8,-8 8,-221 693,-221 693,-8 8,-8"/>
<text text-anchor="start" x="288.5" y="-23" font-family="Helvetica,sans-Serif" font-weight="bold" font-size="20.00" fill="#707070">Provider aws</text>
</g>
<g id="clust2" class="cluster">
<title>cluster_aws_</title>
<polygon fill="#eeeeee" stroke="#eeeeee" points="16,-54 16,-213 685,-213 685,-54 16,-54"/>
<text text-anchor="start" x="350.36" y="-58.3" font-family="Helvetica,sans-Serif" font-size="1.00" fill="#383838"> </text>
</g>
<!-- Role::::sam&#45;app&#45;TopicConsumerFunction1Role&#45;1DTS507XX9EI4 -->
<g id="node1" class="node">
<title>Role::::sam&#45;app&#45;TopicConsumerFunction1Role&#45;1DTS507XX9EI4</title>
<polygon fill="#e5e5e5" stroke="#dddddd" points="677,-205 367,-205 367,-147 677,-147 677,-205"/>
<text text-anchor="start" x="379" y="-185.2" font-family="Helvetica,sans-Serif" font-weight="bold" font-size="16.00" fill="#707070">IAM::Role</text>
<text text-anchor="start" x="379" y="-160.2" font-family="Helvetica,sans-Serif" font-size="16.00" fill="#383838">sam&#45;app&#45;TopicConsumerFunction1Ro...</text>
</g>
<!-- Function::::sam&#45;app&#45;TopicConsumerFunction1&#45;HMNCmDbrlkvI -->
<g id="node2" class="node">
<title>Function::::sam&#45;app&#45;TopicConsumerFunction1&#45;HMNCmDbrlkvI</title>
<polygon fill="#e5e5e5" stroke="#dddddd" points="331,-205 24,-205 24,-147 331,-147 331,-205"/>
<text text-anchor="start" x="36.5" y="-185.2" font-family="Helvetica,sans-Serif" font-weight="bold" font-size="16.00" fill="#707070">Lambda::Function</text>
<text text-anchor="start" x="36.5" y="-160.2" font-family="Helvetica,sans-Serif" font-size="16.00" fill="#383838">sam&#45;app&#45;TopicConsumerFunction1&#45;H...</text>
</g>
<!-- Function::::sam&#45;app&#45;TopicConsumerFunction1&#45;HMNCmDbrlkvI&#45;&gt;Role::::sam&#45;app&#45;TopicConsumerFunction1Role&#45;1DTS507XX9EI4 -->
<g id="edge1" class="edge">
<title>Function::::sam&#45;app&#45;TopicConsumerFunction1&#45;HMNCmDbrlkvI&#45;&gt;Role::::sam&#45;app&#45;TopicConsumerFunction1Role&#45;1DTS507XX9EI4</title>
<path fill="none" stroke="#707070" d="M331.22,-176C339.75,-176 348.33,-176 356.9,-176"/>
<polygon fill="#707070" stroke="#707070" points="356.94,-179.5 366.94,-176 356.94,-172.5 356.94,-179.5"/>
</g>
<!-- Topic::::sam&#45;app&#45;MySnsTopic&#45;5CFCJZ79X4E6 -->
<g id="node3" class="node">
<title>Topic::::sam&#45;app&#45;MySnsTopic&#45;5CFCJZ79X4E6</title>
<polygon fill="#e5e5e5" stroke="#dddddd" points="328.5,-129 26.5,-129 26.5,-71 328.5,-71 328.5,-129"/>
<text text-anchor="start" x="38.5" y="-109.2" font-family="Helvetica,sans-Serif" font-weight="bold" font-size="16.00" fill="#707070">SNS::Topic</text>
<text text-anchor="start" x="38.5" y="-84.2" font-family="Helvetica,sans-Serif" font-size="16.00" fill="#383838">sam&#45;app&#45;MySnsTopic&#45;5CFCJZ79X4E6</text>
</g>
</g>
</svg>
