<?xml version="1.0" encoding="UTF-8" standalone="no"?><svg xmlns="http://www.w3.org/2000/svg" xmlns:xlink="http://www.w3.org/1999/xlink" contentStyleType="text/css" height="2149px" preserveAspectRatio="none" style="width:558px;height:2149px;background:#FFFFFF;" version="1.1" viewBox="0 0 558 2149" width="558px" zoomAndPan="magnify"><defs/><g><rect height="26.4883" style="stroke:#00000000;stroke-width:1.0;fill:none;" width="274" x="115.5" y="15"/><text fill="#000000" font-family="sans-serif" font-size="14" font-weight="bold" lengthAdjust="spacing" textLength="264" x="120.5" y="33.5352">Resources for project eks-workshop</text><rect fill="#F1F1F1" height="36.4883" rx="12.5" ry="12.5" style="stroke:#181818;stroke-width:1.5;" width="52" x="10" y="1074.2773"/><text fill="#000000" font-family="sans-serif" font-size="14" lengthAdjust="spacing" textLength="32" x="20" y="1097.8125">Infra</text><rect fill="#F1F1F1" height="36.4883" rx="12.5" ry="12.5" style="stroke:#181818;stroke-width:1.5;" width="46" x="112" y="1074.2773"/><text fill="#000000" font-family="sans-serif" font-size="14" lengthAdjust="spacing" textLength="26" x="122" y="1097.8125">aws</text><rect fill="#F1F1F1" height="36.4883" rx="12.5" ry="12.5" style="stroke:#181818;stroke-width:1.5;" width="46" x="208" y="57.4883"/><text fill="#000000" font-family="sans-serif" font-size="14" lengthAdjust="spacing" textLength="26" x="218" y="81.0234">Aps</text><rect fill="#F1F1F1" height="36.4883" rx="12.5" ry="12.5" style="stroke:#181818;stroke-width:1.5;" width="117" x="304" y="57.4883"/><text fill="#000000" font-family="sans-serif" font-size="14" lengthAdjust="spacing" textLength="97" x="314" y="81.0234">Workspace (1)</text><path d="M254,75.7324 L264,75.7324 C279,75.7324 279,75.7324 294,75.7324 L304,75.7324 " fill="none" style="stroke:#181818;stroke-width:1.0;"/><path d="M158,1092.5215 L168,1092.5215 C183,1092.5215 183,75.7324 198,75.7324 L208,75.7324 " fill="none" style="stroke:#181818;stroke-width:1.0;"/><rect fill="#F1F1F1" height="36.4883" rx="12.5" ry="12.5" style="stroke:#181818;stroke-width:1.5;" width="146" x="208" y="142.2207"/><text fill="#000000" font-family="sans-serif" font-size="14" lengthAdjust="spacing" textLength="126" x="218" y="165.7559">CloudWatchEvents</text><rect fill="#F1F1F1" height="36.4883" rx="12.5" ry="12.5" style="stroke:#181818;stroke-width:1.5;" width="73" x="404" y="113.9766"/><text fill="#000000" font-family="sans-serif" font-size="14" lengthAdjust="spacing" textLength="53" x="414" y="137.5117">Rule (4)</text><path d="M354,160.4648 L364,160.4648 C379,160.4648 379,132.2207 394,132.2207 L404,132.2207 " fill="none" style="stroke:#181818;stroke-width:1.0;"/><rect fill="#F1F1F1" height="36.4883" rx="12.5" ry="12.5" style="stroke:#181818;stroke-width:1.5;" width="88" x="404" y="170.4648"/><text fill="#000000" font-family="sans-serif" font-size="14" lengthAdjust="spacing" textLength="68" x="414" y="194">Target (4)</text><path d="M354,160.4648 L364,160.4648 C379,160.4648 379,188.709 394,188.709 L404,188.709 " fill="none" style="stroke:#181818;stroke-width:1.0;"/><path d="M158,1092.5215 L168,1092.5215 C183,1092.5215 183,160.4648 198,160.4648 L208,160.4648 " fill="none" style="stroke:#181818;stroke-width:1.0;"/><rect fill="#F1F1F1" height="36.4883" rx="12.5" ry="12.5" style="stroke:#181818;stroke-width:1.5;" width="134" x="208" y="226.9531"/><text fill="#000000" font-family="sans-serif" font-size="14" lengthAdjust="spacing" textLength="114" x="218" y="250.4883">CloudWatchLogs</text><rect fill="#F1F1F1" height="36.4883" rx="12.5" ry="12.5" style="stroke:#181818;stroke-width:1.5;" width="111" x="392" y="226.9531"/><text fill="#000000" font-family="sans-serif" font-size="14" lengthAdjust="spacing" textLength="91" x="402" y="250.4883">LogGroup (2)</text><path d="M342,245.1973 L352,245.1973 C367,245.1973 367,245.1973 382,245.1973 L392,245.1973 " fill="none" style="stroke:#181818;stroke-width:1.0;"/><path d="M158,1092.5215 L168,1092.5215 C183,1092.5215 183,245.1973 198,245.1973 L208,245.1973 " fill="none" style="stroke:#181818;stroke-width:1.0;"/><rect fill="#F1F1F1" height="36.4883" rx="12.5" ry="12.5" style="stroke:#181818;stroke-width:1.5;" width="94" x="208" y="283.4414"/><text fill="#000000" font-family="sans-serif" font-size="14" lengthAdjust="spacing" textLength="74" x="218" y="306.9766">DynamoDB</text><rect fill="#F1F1F1" height="36.4883" rx="12.5" ry="12.5" style="stroke:#181818;stroke-width:1.5;" width="81" x="352" y="283.4414"/><text fill="#000000" font-family="sans-serif" font-size="14" lengthAdjust="spacing" textLength="61" x="362" y="306.9766">Table (1)</text><path d="M302,301.6855 L312,301.6855 C327,301.6855 327,301.6855 342,301.6855 L352,301.6855 " fill="none" style="stroke:#181818;stroke-width:1.0;"/><path d="M158,1092.5215 L168,1092.5215 C183,1092.5215 183,301.6855 198,301.6855 L208,301.6855 " fill="none" style="stroke:#181818;stroke-width:1.0;"/><rect fill="#F1F1F1" height="36.4883" rx="12.5" ry="12.5" style="stroke:#181818;stroke-width:1.5;" width="47" x="208" y="707.1035"/><text fill="#000000" font-family="sans-serif" font-size="14" lengthAdjust="spacing" textLength="27" x="218" y="730.6387">EC2</text><rect fill="#F1F1F1" height="36.4883" rx="12.5" ry="12.5" style="stroke:#181818;stroke-width:1.5;" width="68" x="305" y="339.9297"/><text fill="#000000" font-family="sans-serif" font-size="14" lengthAdjust="spacing" textLength="48" x="315" y="363.4648">Vpc (1)</text><path d="M255,725.3477 L265,725.3477 C280,725.3477 280,358.1738 295,358.1738 L305,358.1738 " fill="none" style="stroke:#181818;stroke-width:1.0;"/><rect fill="#F1F1F1" height="36.4883" rx="12.5" ry="12.5" style="stroke:#181818;stroke-width:1.5;" width="154" x="305" y="396.418"/><text fill="#000000" font-family="sans-serif" font-size="14" lengthAdjust="spacing" textLength="134" x="315" y="419.9531">InternetGateway (1)</text><path d="M255,725.3477 L265,725.3477 C280,725.3477 280,414.6621 295,414.6621 L305,414.6621 " fill="none" style="stroke:#181818;stroke-width:1.0;"/><rect fill="#F1F1F1" height="36.4883" rx="12.5" ry="12.5" style="stroke:#181818;stroke-width:1.5;" width="233" x="305" y="452.9063"/><text fill="#000000" font-family="sans-serif" font-size="14" lengthAdjust="spacing" textLength="213" x="315" y="476.4414">InternetGatewayAttachment (1)</text><path d="M255,725.3477 L265,725.3477 C280,725.3477 280,471.1504 295,471.1504 L305,471.1504 " fill="none" style="stroke:#181818;stroke-width:1.0;"/><rect fill="#F1F1F1" height="36.4883" rx="12.5" ry="12.5" style="stroke:#181818;stroke-width:1.5;" width="123" x="305" y="509.3945"/><text fill="#000000" font-family="sans-serif" font-size="14" lengthAdjust="spacing" textLength="103" x="315" y="532.9297">NatGateway (1)</text><path d="M255,725.3477 L265,725.3477 C280,725.3477 280,527.6387 295,527.6387 L305,527.6387 " fill="none" style="stroke:#181818;stroke-width:1.0;"/><rect fill="#F1F1F1" height="36.4883" rx="12.5" ry="12.5" style="stroke:#181818;stroke-width:1.5;" width="91" x="305" y="565.8828"/><text fill="#000000" font-family="sans-serif" font-size="14" lengthAdjust="spacing" textLength="71" x="315" y="589.418">Subnet (6)</text><path d="M255,725.3477 L265,725.3477 C280,725.3477 280,584.127 295,584.127 L305,584.127 " fill="none" style="stroke:#181818;stroke-width:1.0;"/><rect fill="#F1F1F1" height="36.4883" rx="12.5" ry="12.5" style="stroke:#181818;stroke-width:1.5;" width="121" x="305" y="622.3711"/><text fill="#000000" font-family="sans-serif" font-size="14" lengthAdjust="spacing" textLength="101" x="315" y="645.9063">RouteTable (2)</text><path d="M255,725.3477 L265,725.3477 C280,725.3477 280,640.6152 295,640.6152 L305,640.6152 " fill="none" style="stroke:#181818;stroke-width:1.0;"/><rect fill="#F1F1F1" height="36.4883" rx="12.5" ry="12.5" style="stroke:#181818;stroke-width:1.5;" width="200" x="305" y="678.8594"/><text fill="#000000" font-family="sans-serif" font-size="14" lengthAdjust="spacing" textLength="180" x="315" y="702.3945">RouteTableAssociation (6)</text><path d="M255,725.3477 L265,725.3477 C280,725.3477 280,697.1035 295,697.1035 L305,697.1035 " fill="none" style="stroke:#181818;stroke-width:1.0;"/><rect fill="#F1F1F1" height="36.4883" rx="12.5" ry="12.5" style="stroke:#181818;stroke-width:1.5;" width="83" x="305" y="735.3477"/><text fill="#000000" font-family="sans-serif" font-size="14" lengthAdjust="spacing" textLength="63" x="315" y="758.8828">Route (2)</text><path d="M255,725.3477 L265,725.3477 C280,725.3477 280,753.5918 295,753.5918 L305,753.5918 " fill="none" style="stroke:#181818;stroke-width:1.0;"/><rect fill="#F1F1F1" height="36.4883" rx="12.5" ry="12.5" style="stroke:#181818;stroke-width:1.5;" width="140" x="305" y="791.8359"/><text fill="#000000" font-family="sans-serif" font-size="14" lengthAdjust="spacing" textLength="120" x="315" y="815.3711">SecurityGroup (9)</text><path d="M255,725.3477 L265,725.3477 C280,725.3477 280,810.0801 295,810.0801 L305,810.0801 " fill="none" style="stroke:#181818;stroke-width:1.0;"/><rect fill="#F1F1F1" height="36.4883" rx="12.5" ry="12.5" style="stroke:#181818;stroke-width:1.5;" width="229" x="305" y="848.3242"/><text fill="#000000" font-family="sans-serif" font-size="14" lengthAdjust="spacing" textLength="209" x="315" y="871.8594">SecurityGroupRuleIngress (18)</text><path d="M255,725.3477 L265,725.3477 C280,725.3477 280,866.5684 295,866.5684 L305,866.5684 " fill="none" style="stroke:#181818;stroke-width:1.0;"/><rect fill="#F1F1F1" height="36.4883" rx="12.5" ry="12.5" style="stroke:#181818;stroke-width:1.5;" width="215" x="305" y="904.8125"/><text fill="#000000" font-family="sans-serif" font-size="14" lengthAdjust="spacing" textLength="195" x="315" y="928.3477">SecurityGroupRuleEgress (7)</text><path d="M255,725.3477 L265,725.3477 C280,725.3477 280,923.0566 295,923.0566 L305,923.0566 " fill="none" style="stroke:#181818;stroke-width:1.0;"/><rect fill="#F1F1F1" height="36.4883" rx="12.5" ry="12.5" style="stroke:#181818;stroke-width:1.5;" width="155" x="305" y="961.3008"/><text fill="#000000" font-family="sans-serif" font-size="14" lengthAdjust="spacing" textLength="135" x="315" y="984.8359">ElasticIpAddress (1)</text><path d="M255,725.3477 L265,725.3477 C280,725.3477 280,979.5449 295,979.5449 L305,979.5449 " fill="none" style="stroke:#181818;stroke-width:1.0;"/><rect fill="#F1F1F1" height="36.4883" rx="12.5" ry="12.5" style="stroke:#181818;stroke-width:1.5;" width="100" x="305" y="1017.7891"/><text fill="#000000" font-family="sans-serif" font-size="14" lengthAdjust="spacing" textLength="80" x="315" y="1041.3242">Instance (1)</text><path d="M255,725.3477 L265,725.3477 C280,725.3477 280,1036.0332 295,1036.0332 L305,1036.0332 " fill="none" style="stroke:#181818;stroke-width:1.0;"/><rect fill="#F1F1F1" height="36.4883" rx="12.5" ry="12.5" style="stroke:#181818;stroke-width:1.5;" width="241" x="305" y="1074.2773"/><text fill="#000000" font-family="sans-serif" font-size="14" lengthAdjust="spacing" textLength="221" x="315" y="1097.8125">VpcIpv4CidrBlockAssociation (1)</text><path d="M255,725.3477 L265,725.3477 C280,725.3477 280,1092.5215 295,1092.5215 L305,1092.5215 " fill="none" style="stroke:#181818;stroke-width:1.0;"/><path d="M158,1092.5215 L168,1092.5215 C183,1092.5215 183,725.3477 198,725.3477 L208,725.3477 " fill="none" style="stroke:#181818;stroke-width:1.0;"/><rect fill="#F1F1F1" height="36.4883" rx="12.5" ry="12.5" style="stroke:#181818;stroke-width:1.5;" width="44" x="208" y="1159.0098"/><text fill="#000000" font-family="sans-serif" font-size="14" lengthAdjust="spacing" textLength="24" x="218" y="1182.5449">EFS</text><rect fill="#F1F1F1" height="36.4883" rx="12.5" ry="12.5" style="stroke:#181818;stroke-width:1.5;" width="115" x="302" y="1130.7656"/><text fill="#000000" font-family="sans-serif" font-size="14" lengthAdjust="spacing" textLength="95" x="312" y="1154.3008">FileSystem (1)</text><path d="M252,1177.2539 L262,1177.2539 C277,1177.2539 277,1149.0098 292,1149.0098 L302,1149.0098 " fill="none" style="stroke:#181818;stroke-width:1.0;"/><rect fill="#F1F1F1" height="36.4883" rx="12.5" ry="12.5" style="stroke:#181818;stroke-width:1.5;" width="132" x="302" y="1187.2539"/><text fill="#000000" font-family="sans-serif" font-size="14" lengthAdjust="spacing" textLength="112" x="312" y="1210.7891">MountTarget (3)</text><path d="M252,1177.2539 L262,1177.2539 C277,1177.2539 277,1205.498 292,1205.498 L302,1205.498 " fill="none" style="stroke:#181818;stroke-width:1.0;"/><path d="M158,1092.5215 L168,1092.5215 C183,1092.5215 183,1177.2539 198,1177.2539 L208,1177.2539 " fill="none" style="stroke:#181818;stroke-width:1.0;"/><rect fill="#F1F1F1" height="36.4883" rx="12.5" ry="12.5" style="stroke:#181818;stroke-width:1.5;" width="45" x="208" y="1328.4746"/><text fill="#000000" font-family="sans-serif" font-size="14" lengthAdjust="spacing" textLength="25" x="218" y="1352.0098">EKS</text><rect fill="#F1F1F1" height="36.4883" rx="12.5" ry="12.5" style="stroke:#181818;stroke-width:1.5;" width="89" x="303" y="1243.7422"/><text fill="#000000" font-family="sans-serif" font-size="14" lengthAdjust="spacing" textLength="69" x="313" y="1267.2773">Addon (2)</text><path d="M253,1346.7188 L263,1346.7188 C278,1346.7188 278,1261.9863 293,1261.9863 L303,1261.9863 " fill="none" style="stroke:#181818;stroke-width:1.0;"/><rect fill="#F1F1F1" height="36.4883" rx="12.5" ry="12.5" style="stroke:#181818;stroke-width:1.5;" width="92" x="303" y="1300.2305"/><text fill="#000000" font-family="sans-serif" font-size="14" lengthAdjust="spacing" textLength="72" x="313" y="1323.7656">Cluster (1)</text><path d="M253,1346.7188 L263,1346.7188 C278,1346.7188 278,1318.4746 293,1318.4746 L303,1318.4746 " fill="none" style="stroke:#181818;stroke-width:1.0;"/><rect fill="#F1F1F1" height="36.4883" rx="12.5" ry="12.5" style="stroke:#181818;stroke-width:1.5;" width="139" x="303" y="1356.7188"/><text fill="#000000" font-family="sans-serif" font-size="14" lengthAdjust="spacing" textLength="119" x="313" y="1380.2539">FargateProfile (1)</text><path d="M253,1346.7188 L263,1346.7188 C278,1346.7188 278,1374.9629 293,1374.9629 L303,1374.9629 " fill="none" style="stroke:#181818;stroke-width:1.0;"/><rect fill="#F1F1F1" height="36.4883" rx="12.5" ry="12.5" style="stroke:#181818;stroke-width:1.5;" width="122" x="303" y="1413.207"/><text fill="#000000" font-family="sans-serif" font-size="14" lengthAdjust="spacing" textLength="102" x="313" y="1436.7422">NodeGroup (3)</text><path d="M253,1346.7188 L263,1346.7188 C278,1346.7188 278,1431.4512 293,1431.4512 L303,1431.4512 " fill="none" style="stroke:#181818;stroke-width:1.0;"/><path d="M158,1092.5215 L168,1092.5215 C183,1092.5215 183,1346.7188 198,1346.7188 L208,1346.7188 " fill="none" style="stroke:#181818;stroke-width:1.0;"/><rect fill="#F1F1F1" height="36.4883" rx="12.5" ry="12.5" style="stroke:#181818;stroke-width:1.5;" width="46" x="208" y="1582.6719"/><text fill="#000000" font-family="sans-serif" font-size="14" lengthAdjust="spacing" textLength="26" x="218" y="1606.207">IAM</text><rect fill="#F1F1F1" height="36.4883" rx="12.5" ry="12.5" style="stroke:#181818;stroke-width:1.5;" width="208" x="304" y="1469.6953"/><text fill="#000000" font-family="sans-serif" font-size="14" lengthAdjust="spacing" textLength="188" x="314" y="1493.2305">OpenIDConnectProvider (1)</text><path d="M254,1600.916 L264,1600.916 C279,1600.916 279,1487.9395 294,1487.9395 L304,1487.9395 " fill="none" style="stroke:#181818;stroke-width:1.0;"/><rect fill="#F1F1F1" height="36.4883" rx="12.5" ry="12.5" style="stroke:#181818;stroke-width:1.5;" width="82" x="304" y="1526.1836"/><text fill="#000000" font-family="sans-serif" font-size="14" lengthAdjust="spacing" textLength="62" x="314" y="1549.7188">Role (20)</text><path d="M254,1600.916 L264,1600.916 C279,1600.916 279,1544.4277 294,1544.4277 L304,1544.4277 " fill="none" style="stroke:#181818;stroke-width:1.0;"/><rect fill="#F1F1F1" height="36.4883" rx="12.5" ry="12.5" style="stroke:#181818;stroke-width:1.5;" width="91" x="304" y="1582.6719"/><text fill="#000000" font-family="sans-serif" font-size="14" lengthAdjust="spacing" textLength="71" x="314" y="1606.207">Policy (18)</text><path d="M254,1600.916 L264,1600.916 C279,1600.916 279,1600.916 294,1600.916 L304,1600.916 " fill="none" style="stroke:#181818;stroke-width:1.0;"/><rect fill="#F1F1F1" height="36.4883" rx="12.5" ry="12.5" style="stroke:#181818;stroke-width:1.5;" width="144" x="304" y="1639.1602"/><text fill="#000000" font-family="sans-serif" font-size="14" lengthAdjust="spacing" textLength="124" x="314" y="1662.6953">InstanceProfile (1)</text><path d="M254,1600.916 L264,1600.916 C279,1600.916 279,1657.4043 294,1657.4043 L304,1657.4043 " fill="none" style="stroke:#181818;stroke-width:1.0;"/><rect fill="#F1F1F1" height="36.4883" rx="12.5" ry="12.5" style="stroke:#181818;stroke-width:1.5;" width="74" x="304" y="1695.6484"/><text fill="#000000" font-family="sans-serif" font-size="14" lengthAdjust="spacing" textLength="54" x="314" y="1719.1836">User (1)</text><path d="M254,1600.916 L264,1600.916 C279,1600.916 279,1713.8926 294,1713.8926 L304,1713.8926 " fill="none" style="stroke:#181818;stroke-width:1.0;"/><path d="M158,1092.5215 L168,1092.5215 C183,1092.5215 183,1600.916 198,1600.916 L208,1600.916 " fill="none" style="stroke:#181818;stroke-width:1.0;"/><rect fill="#F1F1F1" height="36.4883" rx="12.5" ry="12.5" style="stroke:#181818;stroke-width:1.5;" width="49" x="208" y="1752.1367"/><text fill="#000000" font-family="sans-serif" font-size="14" lengthAdjust="spacing" textLength="29" x="218" y="1775.6719">KMS</text><rect fill="#F1F1F1" height="36.4883" rx="12.5" ry="12.5" style="stroke:#181818;stroke-width:1.5;" width="67" x="307" y="1752.1367"/><text fill="#000000" font-family="sans-serif" font-size="14" lengthAdjust="spacing" textLength="47" x="317" y="1775.6719">Key (3)</text><path d="M257,1770.3809 L267,1770.3809 C282,1770.3809 282,1770.3809 297,1770.3809 L307,1770.3809 " fill="none" style="stroke:#181818;stroke-width:1.0;"/><path d="M158,1092.5215 L168,1092.5215 C183,1092.5215 183,1770.3809 198,1770.3809 L208,1770.3809 " fill="none" style="stroke:#181818;stroke-width:1.0;"/><rect fill="#F1F1F1" height="36.4883" rx="12.5" ry="12.5" style="stroke:#181818;stroke-width:1.5;" width="74" x="208" y="1808.625"/><text fill="#000000" font-family="sans-serif" font-size="14" lengthAdjust="spacing" textLength="54" x="218" y="1832.1602">Lambda</text><rect fill="#F1F1F1" height="36.4883" rx="12.5" ry="12.5" style="stroke:#181818;stroke-width:1.5;" width="103" x="332" y="1808.625"/><text fill="#000000" font-family="sans-serif" font-size="14" lengthAdjust="spacing" textLength="83" x="342" y="1832.1602">Function (1)</text><path d="M282,1826.8691 L292,1826.8691 C307,1826.8691 307,1826.8691 322,1826.8691 L332,1826.8691 " fill="none" style="stroke:#181818;stroke-width:1.0;"/><path d="M158,1092.5215 L168,1092.5215 C183,1092.5215 183,1826.8691 198,1826.8691 L208,1826.8691 " fill="none" style="stroke:#181818;stroke-width:1.0;"/><rect fill="#F1F1F1" height="36.4883" rx="12.5" ry="12.5" style="stroke:#181818;stroke-width:1.5;" width="47" x="208" y="1893.3574"/><text fill="#000000" font-family="sans-serif" font-size="14" lengthAdjust="spacing" textLength="27" x="218" y="1916.8926">RDS</text><rect fill="#F1F1F1" height="36.4883" rx="12.5" ry="12.5" style="stroke:#181818;stroke-width:1.5;" width="118" x="305" y="1865.1133"/><text fill="#000000" font-family="sans-serif" font-size="14" lengthAdjust="spacing" textLength="98" x="315" y="1888.6484">DBInstance (1)</text><path d="M255,1911.6016 L265,1911.6016 C280,1911.6016 280,1883.3574 295,1883.3574 L305,1883.3574 " fill="none" style="stroke:#181818;stroke-width:1.0;"/><rect fill="#F1F1F1" height="36.4883" rx="12.5" ry="12.5" style="stroke:#181818;stroke-width:1.5;" width="152" x="305" y="1921.6016"/><text fill="#000000" font-family="sans-serif" font-size="14" lengthAdjust="spacing" textLength="132" x="315" y="1945.1367">DBSubnetGroup (1)</text><path d="M255,1911.6016 L265,1911.6016 C280,1911.6016 280,1939.8457 295,1939.8457 L305,1939.8457 " fill="none" style="stroke:#181818;stroke-width:1.0;"/><path d="M158,1092.5215 L168,1092.5215 C183,1092.5215 183,1911.6016 198,1911.6016 L208,1911.6016 " fill="none" style="stroke:#181818;stroke-width:1.0;"/><rect fill="#F1F1F1" height="36.4883" rx="12.5" ry="12.5" style="stroke:#181818;stroke-width:1.5;" width="47" x="208" y="1978.0898"/><text fill="#000000" font-family="sans-serif" font-size="14" lengthAdjust="spacing" textLength="27" x="218" y="2001.625">SQS</text><rect fill="#F1F1F1" height="36.4883" rx="12.5" ry="12.5" style="stroke:#181818;stroke-width:1.5;" width="88" x="305" y="1978.0898"/><text fill="#000000" font-family="sans-serif" font-size="14" lengthAdjust="spacing" textLength="68" x="315" y="2001.625">Queue (1)</text><path d="M255,1996.334 L265,1996.334 C280,1996.334 280,1996.334 295,1996.334 L305,1996.334 " fill="none" style="stroke:#181818;stroke-width:1.0;"/><path d="M158,1092.5215 L168,1092.5215 C183,1092.5215 183,1996.334 198,1996.334 L208,1996.334 " fill="none" style="stroke:#181818;stroke-width:1.0;"/><rect fill="#F1F1F1" height="36.4883" rx="12.5" ry="12.5" style="stroke:#181818;stroke-width:1.5;" width="48" x="208" y="2062.8223"/><text fill="#000000" font-family="sans-serif" font-size="14" lengthAdjust="spacing" textLength="28" x="218" y="2086.3574">SSM</text><rect fill="#F1F1F1" height="36.4883" rx="12.5" ry="12.5" style="stroke:#181818;stroke-width:1.5;" width="113" x="306" y="2034.5781"/><text fill="#000000" font-family="sans-serif" font-size="14" lengthAdjust="spacing" textLength="93" x="316" y="2058.1133">Document (1)</text><path d="M256,2081.0664 L266,2081.0664 C281,2081.0664 281,2052.8223 296,2052.8223 L306,2052.8223 " fill="none" style="stroke:#181818;stroke-width:1.0;"/><rect fill="#F1F1F1" height="36.4883" rx="12.5" ry="12.5" style="stroke:#181818;stroke-width:1.5;" width="113" x="306" y="2091.0664"/><text fill="#000000" font-family="sans-serif" font-size="14" lengthAdjust="spacing" textLength="93" x="316" y="2114.6016">Parameter (1)</text><path d="M256,2081.0664 L266,2081.0664 C281,2081.0664 281,2109.3105 296,2109.3105 L306,2109.3105 " fill="none" style="stroke:#181818;stroke-width:1.0;"/><path d="M158,1092.5215 L168,1092.5215 C183,1092.5215 183,2081.0664 198,2081.0664 L208,2081.0664 " fill="none" style="stroke:#181818;stroke-width:1.0;"/><path d="M62,1092.5215 L72,1092.5215 C87,1092.5215 87,1092.5215 102,1092.5215 L112,1092.5215 " fill="none" style="stroke:#181818;stroke-width:1.0;"/><!--MD5=[b652aa9784ee993beb09f2177ebd4c3c]
@startmindmap
title Resources for project eks-workshop
skinparam monochrome true
+ Infra
++ aws
+++ Aps
++++ Workspace (1)
+++ CloudWatchEvents
++++ Rule (4)
++++ Target (4)
+++ CloudWatchLogs
++++ LogGroup (2)
+++ DynamoDB
++++ Table (1)
+++ EC2
++++ Vpc (1)
++++ InternetGateway (1)
++++ InternetGatewayAttachment (1)
++++ NatGateway (1)
++++ Subnet (6)
++++ RouteTable (2)
++++ RouteTableAssociation (6)
++++ Route (2)
++++ SecurityGroup (9)
++++ SecurityGroupRuleIngress (18)
++++ SecurityGroupRuleEgress (7)
++++ ElasticIpAddress (1)
++++ Instance (1)
++++ VpcIpv4CidrBlockAssociation (1)
+++ EFS
++++ FileSystem (1)
++++ MountTarget (3)
+++ EKS
++++ Addon (2)
++++ Cluster (1)
++++ FargateProfile (1)
++++ NodeGroup (3)
+++ IAM
++++ OpenIDConnectProvider (1)
++++ Role (20)
++++ Policy (18)
++++ InstanceProfile (1)
++++ User (1)
+++ KMS
++++ Key (3)
+++ Lambda
++++ Function (1)
+++ RDS
++++ DBInstance (1)
++++ DBSubnetGroup (1)
+++ SQS
++++ Queue (1)
+++ SSM
++++ Document (1)
++++ Parameter (1)
@endmindmap

PlantUML version 1.2022.6(Tue Jun 21 12:34:49 COT 2022)
(GPL source distribution)
Java Runtime: Java(TM) SE Runtime Environment
JVM: Java HotSpot(TM) 64-Bit Server VM
Default Encoding: UTF-8
Language: en
Country: GB
--></g></svg>