<?xml version="1.0" encoding="UTF-8" standalone="no"?>
<!DOCTYPE svg PUBLIC "-//W3C//DTD SVG 1.1//EN"
 "http://www.w3.org/Graphics/SVG/1.1/DTD/svg11.dtd">
<!-- Generated by graphviz version 3.0.0 (20220226.1711)
 -->
<!-- Title: graphname Pages: 1 -->
<svg width="1618pt" height="389pt"
 viewBox="0.00 0.00 1618.00 389.00" xmlns="http://www.w3.org/2000/svg" xmlns:xlink="http://www.w3.org/1999/xlink">
<g id="graph0" class="graph" transform="scale(1 1) rotate(0) translate(4 385)">
<title>graphname</title>
<polygon fill="#fafafa" stroke="transparent" points="-4,4 -4,-385 1614,-385 1614,4 -4,4"/>
<text text-anchor="start" x="656" y="-356.4" font-family="Helvetica,sans-Serif" font-weight="bold" font-size="22.00" fill="#383838">Project code&#45;pipeline&#45;simple</text>
<text text-anchor="start" x="801" y="-340.8" font-family="Helvetica,sans-Serif" font-size="14.00"> &#160;</text>
<text text-anchor="start" x="656" y="-319.2" font-family="Helvetica,sans-Serif" font-weight="bold" font-size="16.00" fill="#707070">Target Diagram</text>
<g id="clust1" class="cluster">
<title>cluster_aws</title>
<polygon fill="#f5f5f5" stroke="#f5f5f5" points="8,-8 8,-297 1602,-297 1602,-8 8,-8"/>
<text text-anchor="start" x="743" y="-23" font-family="Helvetica,sans-Serif" font-weight="bold" font-size="20.00" fill="#707070">Provider aws</text>
</g>
<g id="clust2" class="cluster">
<title>cluster_aws_</title>
<polygon fill="#eeeeee" stroke="#eeeeee" points="16,-54 16,-289 1594,-289 1594,-54 16,-54"/>
<text text-anchor="start" x="804.86" y="-58.3" font-family="Helvetica,sans-Serif" font-size="1.00" fill="#383838"> </text>
</g>
<!-- LogGroup::/aws/codebuild/starhackit -->
<g id="node1" class="node">
<title>LogGroup::/aws/codebuild/starhackit</title>
<polygon fill="#e5e5e5" stroke="#dddddd" points="1586,-129 1343,-129 1343,-71 1586,-71 1586,-129"/>
<text text-anchor="start" x="1355.5" y="-109.2" font-family="Helvetica,sans-Serif" font-weight="bold" font-size="16.00" fill="#707070">CloudWatchLogs::LogGroup</text>
<text text-anchor="start" x="1355.5" y="-84.2" font-family="Helvetica,sans-Serif" font-size="16.00" fill="#383838">/aws/codebuild/starhackit</text>
</g>
<!-- Project::starhackit -->
<g id="node2" class="node">
<title>Project::starhackit</title>
<polygon fill="#e5e5e5" stroke="#dddddd" points="583,-129 414,-129 414,-71 583,-71 583,-129"/>
<text text-anchor="start" x="426.5" y="-109.2" font-family="Helvetica,sans-Serif" font-weight="bold" font-size="16.00" fill="#707070">CodeBuild::Project</text>
<text text-anchor="start" x="426.5" y="-84.2" font-family="Helvetica,sans-Serif" font-size="16.00" fill="#383838">starhackit</text>
</g>
<!-- Role::codebuild&#45;starhackit&#45;service&#45;role -->
<g id="node6" class="node">
<title>Role::codebuild&#45;starhackit&#45;service&#45;role</title>
<polygon fill="#e5e5e5" stroke="#dddddd" points="969,-129 706,-129 706,-71 969,-71 969,-129"/>
<text text-anchor="start" x="718.5" y="-109.2" font-family="Helvetica,sans-Serif" font-weight="bold" font-size="16.00" fill="#707070">IAM::Role</text>
<text text-anchor="start" x="718.5" y="-84.2" font-family="Helvetica,sans-Serif" font-size="16.00" fill="#383838">codebuild&#45;starhackit&#45;service&#45;rol...</text>
</g>
<!-- Project::starhackit&#45;&gt;Role::codebuild&#45;starhackit&#45;service&#45;role -->
<g id="edge1" class="edge">
<title>Project::starhackit&#45;&gt;Role::codebuild&#45;starhackit&#45;service&#45;role</title>
<path fill="none" stroke="#707070" d="M583.24,-100C617.24,-100 657.46,-100 695.72,-100"/>
<polygon fill="#707070" stroke="#707070" points="695.93,-103.5 705.93,-100 695.93,-96.5 695.93,-103.5"/>
</g>
<!-- Pipeline::my&#45;pipeline -->
<g id="node3" class="node">
<title>Pipeline::my&#45;pipeline</title>
<polygon fill="#e5e5e5" stroke="#dddddd" points="266.5,-205 68.5,-205 68.5,-147 266.5,-147 266.5,-205"/>
<text text-anchor="start" x="80.5" y="-185.2" font-family="Helvetica,sans-Serif" font-weight="bold" font-size="16.00" fill="#707070">CodePipeline::Pipeline</text>
<text text-anchor="start" x="80.5" y="-160.2" font-family="Helvetica,sans-Serif" font-size="16.00" fill="#383838">my&#45;pipeline</text>
</g>
<!-- Pipeline::my&#45;pipeline&#45;&gt;Project::starhackit -->
<g id="edge4" class="edge">
<title>Pipeline::my&#45;pipeline&#45;&gt;Project::starhackit</title>
<path fill="none" stroke="#707070" d="M266.77,-153.3C310.24,-143.26 361.13,-131.5 404.03,-121.59"/>
<polygon fill="#707070" stroke="#707070" points="404.95,-124.97 413.91,-119.31 403.38,-118.15 404.95,-124.97"/>
</g>
<!-- Connection::myconn -->
<g id="node4" class="node">
<title>Connection::myconn</title>
<polygon fill="#e5e5e5" stroke="#dddddd" points="643.5,-205 353.5,-205 353.5,-147 643.5,-147 643.5,-205"/>
<text text-anchor="start" x="365.5" y="-185.2" font-family="Helvetica,sans-Serif" font-weight="bold" font-size="16.00" fill="#707070">CodeStarConnections::Connection</text>
<text text-anchor="start" x="365.5" y="-160.2" font-family="Helvetica,sans-Serif" font-size="16.00" fill="#383838">myconn</text>
</g>
<!-- Pipeline::my&#45;pipeline&#45;&gt;Connection::myconn -->
<g id="edge3" class="edge">
<title>Pipeline::my&#45;pipeline&#45;&gt;Connection::myconn</title>
<path fill="none" stroke="#707070" d="M266.77,-176C290.75,-176 316.99,-176 342.91,-176"/>
<polygon fill="#707070" stroke="#707070" points="343.2,-179.5 353.2,-176 343.2,-172.5 343.2,-179.5"/>
</g>
<!-- Role::AWSCodePipelineServiceRole&#45;us&#45;east&#45;1&#45;my&#45;pipeline -->
<g id="node5" class="node">
<title>Role::AWSCodePipelineServiceRole&#45;us&#45;east&#45;1&#45;my&#45;pipeline</title>
<polygon fill="#e5e5e5" stroke="#dddddd" points="650,-281 347,-281 347,-223 650,-223 650,-281"/>
<text text-anchor="start" x="359.5" y="-261.2" font-family="Helvetica,sans-Serif" font-weight="bold" font-size="16.00" fill="#707070">IAM::Role</text>
<text text-anchor="start" x="359.5" y="-236.2" font-family="Helvetica,sans-Serif" font-size="16.00" fill="#383838">AWSCodePipelineServiceRole&#45;us&#45;ea...</text>
</g>
<!-- Pipeline::my&#45;pipeline&#45;&gt;Role::AWSCodePipelineServiceRole&#45;us&#45;east&#45;1&#45;my&#45;pipeline -->
<g id="edge2" class="edge">
<title>Pipeline::my&#45;pipeline&#45;&gt;Role::AWSCodePipelineServiceRole&#45;us&#45;east&#45;1&#45;my&#45;pipeline</title>
<path fill="none" stroke="#707070" d="M266.77,-198.7C296.62,-205.6 329.98,-213.3 361.84,-220.66"/>
<polygon fill="#707070" stroke="#707070" points="361.14,-224.09 371.67,-222.93 362.72,-217.27 361.14,-224.09"/>
</g>
<!-- Policy::AWSCodePipelineServiceRole&#45;us&#45;east&#45;1&#45;my&#45;pipeline -->
<g id="node7" class="node">
<title>Policy::AWSCodePipelineServiceRole&#45;us&#45;east&#45;1&#45;my&#45;pipeline</title>
<polygon fill="#e5e5e5" stroke="#dddddd" points="989,-281 686,-281 686,-223 989,-223 989,-281"/>
<text text-anchor="start" x="698.5" y="-261.2" font-family="Helvetica,sans-Serif" font-weight="bold" font-size="16.00" fill="#707070">IAM::Policy</text>
<text text-anchor="start" x="698.5" y="-236.2" font-family="Helvetica,sans-Serif" font-size="16.00" fill="#383838">AWSCodePipelineServiceRole&#45;us&#45;ea...</text>
</g>
<!-- Role::AWSCodePipelineServiceRole&#45;us&#45;east&#45;1&#45;my&#45;pipeline&#45;&gt;Policy::AWSCodePipelineServiceRole&#45;us&#45;east&#45;1&#45;my&#45;pipeline -->
<g id="edge5" class="edge">
<title>Role::AWSCodePipelineServiceRole&#45;us&#45;east&#45;1&#45;my&#45;pipeline&#45;&gt;Policy::AWSCodePipelineServiceRole&#45;us&#45;east&#45;1&#45;my&#45;pipeline</title>
<path fill="none" stroke="#707070" d="M650.26,-252C658.76,-252 667.32,-252 675.86,-252"/>
<polygon fill="#707070" stroke="#707070" points="675.86,-255.5 685.86,-252 675.86,-248.5 675.86,-255.5"/>
</g>
<!-- Policy::CodeBuildBasePolicy&#45;starhackit&#45;us&#45;east&#45;1 -->
<g id="node8" class="node">
<title>Policy::CodeBuildBasePolicy&#45;starhackit&#45;us&#45;east&#45;1</title>
<polygon fill="#e5e5e5" stroke="#dddddd" points="1307,-129 1025,-129 1025,-71 1307,-71 1307,-129"/>
<text text-anchor="start" x="1037" y="-109.2" font-family="Helvetica,sans-Serif" font-weight="bold" font-size="16.00" fill="#707070">IAM::Policy</text>
<text text-anchor="start" x="1037" y="-84.2" font-family="Helvetica,sans-Serif" font-size="16.00" fill="#383838">CodeBuildBasePolicy&#45;starhackit&#45;u...</text>
</g>
<!-- Role::codebuild&#45;starhackit&#45;service&#45;role&#45;&gt;Policy::CodeBuildBasePolicy&#45;starhackit&#45;us&#45;east&#45;1 -->
<g id="edge6" class="edge">
<title>Role::codebuild&#45;starhackit&#45;service&#45;role&#45;&gt;Policy::CodeBuildBasePolicy&#45;starhackit&#45;us&#45;east&#45;1</title>
<path fill="none" stroke="#707070" d="M969.42,-100C984.27,-100 999.48,-100 1014.56,-100"/>
<polygon fill="#707070" stroke="#707070" points="1014.96,-103.5 1024.96,-100 1014.96,-96.5 1014.96,-103.5"/>
</g>
<!-- Policy::CodeBuildBasePolicy&#45;starhackit&#45;us&#45;east&#45;1&#45;&gt;LogGroup::/aws/codebuild/starhackit -->
<g id="edge7" class="edge">
<title>Policy::CodeBuildBasePolicy&#45;starhackit&#45;us&#45;east&#45;1&#45;&gt;LogGroup::/aws/codebuild/starhackit</title>
<path fill="none" stroke="#707070" d="M1307,-100C1315.62,-100 1324.28,-100 1332.86,-100"/>
<polygon fill="#707070" stroke="#707070" points="1332.89,-103.5 1342.89,-100 1332.89,-96.5 1332.89,-103.5"/>
</g>
<!-- Bucket::codepipeline&#45;us&#45;east&#45;1&#45;709458114120 -->
<g id="node9" class="node">
<title>Bucket::codepipeline&#45;us&#45;east&#45;1&#45;709458114120</title>
<polygon fill="#e5e5e5" stroke="#dddddd" points="311,-129 24,-129 24,-71 311,-71 311,-129"/>
<text text-anchor="start" x="36.5" y="-109.2" font-family="Helvetica,sans-Serif" font-weight="bold" font-size="16.00" fill="#707070">S3::Bucket</text>
<text text-anchor="start" x="36.5" y="-84.2" font-family="Helvetica,sans-Serif" font-size="16.00" fill="#383838">codepipeline&#45;us&#45;east&#45;1&#45;709458114...</text>
</g>
</g>
</svg>
