<?xml version="1.0" encoding="UTF-8" standalone="no"?><svg xmlns="http://www.w3.org/2000/svg" xmlns:xlink="http://www.w3.org/1999/xlink" contentStyleType="text/css" height="285px" preserveAspectRatio="none" style="width:549px;height:285px;background:#FFFFFF;" version="1.1" viewBox="0 0 549 285" width="549px" zoomAndPan="magnify"><defs/><g><rect height="26.4883" style="stroke:#00000000;stroke-width:1.0;fill:none;" width="297" x="99.5" y="15"/><text fill="#000000" font-family="sans-serif" font-size="14" font-weight="bold" lengthAdjust="spacing" textLength="287" x="104.5" y="33.5352">Resources for project route53-querylog</text><rect fill="#F1F1F1" height="36.4883" rx="12.5" ry="12.5" style="stroke:#181818;stroke-width:1.5;" width="52" x="10" y="142.2207"/><text fill="#000000" font-family="sans-serif" font-size="14" lengthAdjust="spacing" textLength="32" x="20" y="165.7559">Infra</text><rect fill="#F1F1F1" height="36.4883" rx="12.5" ry="12.5" style="stroke:#181818;stroke-width:1.5;" width="46" x="112" y="142.2207"/><text fill="#000000" font-family="sans-serif" font-size="14" lengthAdjust="spacing" textLength="26" x="122" y="165.7559">aws</text><rect fill="#F1F1F1" height="36.4883" rx="12.5" ry="12.5" style="stroke:#181818;stroke-width:1.5;" width="134" x="208" y="85.7324"/><text fill="#000000" font-family="sans-serif" font-size="14" lengthAdjust="spacing" textLength="114" x="218" y="109.2676">CloudWatchLogs</text><rect fill="#F1F1F1" height="36.4883" rx="12.5" ry="12.5" style="stroke:#181818;stroke-width:1.5;" width="111" x="392" y="57.4883"/><text fill="#000000" font-family="sans-serif" font-size="14" lengthAdjust="spacing" textLength="91" x="402" y="81.0234">LogGroup (1)</text><path d="M342,103.9766 L352,103.9766 C367,103.9766 367,75.7324 382,75.7324 L392,75.7324 " fill="none" style="stroke:#181818;stroke-width:1.0;"/><rect fill="#F1F1F1" height="36.4883" rx="12.5" ry="12.5" style="stroke:#181818;stroke-width:1.5;" width="145" x="392" y="113.9766"/><text fill="#000000" font-family="sans-serif" font-size="14" lengthAdjust="spacing" textLength="125" x="402" y="137.5117">ResourcePolicy (1)</text><path d="M342,103.9766 L352,103.9766 C367,103.9766 367,132.2207 382,132.2207 L392,132.2207 " fill="none" style="stroke:#181818;stroke-width:1.0;"/><path d="M158,160.4648 L168,160.4648 C183,160.4648 183,103.9766 198,103.9766 L208,103.9766 " fill="none" style="stroke:#181818;stroke-width:1.0;"/><rect fill="#F1F1F1" height="36.4883" rx="12.5" ry="12.5" style="stroke:#181818;stroke-width:1.5;" width="78" x="208" y="198.709"/><text fill="#000000" font-family="sans-serif" font-size="14" lengthAdjust="spacing" textLength="58" x="218" y="222.2441">Route53</text><rect fill="#F1F1F1" height="36.4883" rx="12.5" ry="12.5" style="stroke:#181818;stroke-width:1.5;" width="125" x="336" y="170.4648"/><text fill="#000000" font-family="sans-serif" font-size="14" lengthAdjust="spacing" textLength="105" x="346" y="194">HostedZone (1)</text><path d="M286,216.9531 L296,216.9531 C311,216.9531 311,188.709 326,188.709 L336,188.709 " fill="none" style="stroke:#181818;stroke-width:1.0;"/><rect fill="#F1F1F1" height="36.4883" rx="12.5" ry="12.5" style="stroke:#181818;stroke-width:1.5;" width="109" x="336" y="226.9531"/><text fill="#000000" font-family="sans-serif" font-size="14" lengthAdjust="spacing" textLength="89" x="346" y="250.4883">QueryLog (1)</text><path d="M286,216.9531 L296,216.9531 C311,216.9531 311,245.1973 326,245.1973 L336,245.1973 " fill="none" style="stroke:#181818;stroke-width:1.0;"/><path d="M158,160.4648 L168,160.4648 C183,160.4648 183,216.9531 198,216.9531 L208,216.9531 " fill="none" style="stroke:#181818;stroke-width:1.0;"/><path d="M62,160.4648 L72,160.4648 C87,160.4648 87,160.4648 102,160.4648 L112,160.4648 " fill="none" style="stroke:#181818;stroke-width:1.0;"/><!--MD5=[b0041d1e5284d797c8ee2633d962e647]
@startmindmap
title Resources for project route53-querylog
skinparam monochrome true
+ Infra
++ aws
+++ CloudWatchLogs
++++ LogGroup (1)
++++ ResourcePolicy (1)
+++ Route53
++++ HostedZone (1)
++++ QueryLog (1)
@endmindmap

PlantUML version 1.2022.6(Tue Jun 21 19:34:49 CEST 2022)
(GPL source distribution)
Java Runtime: Java(TM) SE Runtime Environment
JVM: Java HotSpot(TM) 64-Bit Server VM
Default Encoding: UTF-8
Language: en
Country: GB
--></g></svg>