<?xml version="1.0" encoding="UTF-8" standalone="no"?>
<!DOCTYPE svg PUBLIC "-//W3C//DTD SVG 1.1//EN"
 "http://www.w3.org/Graphics/SVG/1.1/DTD/svg11.dtd">
<!-- Generated by graphviz version 2.44.1 (20200629.0846)
 -->
<!-- Title: graphname Pages: 1 -->
<svg width="1587pt" height="509pt"
 viewBox="0.00 0.00 1587.00 509.00" xmlns="http://www.w3.org/2000/svg" xmlns:xlink="http://www.w3.org/1999/xlink">
<g id="graph0" class="graph" transform="scale(1 1) rotate(0) translate(4 505)">
<title>graphname</title>
<polygon fill="#fafafa" stroke="transparent" points="-4,4 -4,-505 1583,-505 1583,4 -4,4"/>
<text text-anchor="start" x="627.5" y="-476.4" font-family="Helvetica,sans-Serif" font-weight="bold" font-size="22.00" fill="#383838">Project managed&#45;identity&#45;basic</text>
<text text-anchor="start" x="786" y="-460.8" font-family="Helvetica,sans-Serif" font-size="14.00"> &#160;</text>
<text text-anchor="start" x="627.5" y="-439.2" font-family="Helvetica,sans-Serif" font-weight="bold" font-size="16.00" fill="#707070">Live Diagram</text>
<g id="clust1" class="cluster">
<title>cluster_azure</title>
<polygon fill="#f5f5f5" stroke="#f5f5f5" points="8,-8 8,-417 1571,-417 1571,-8 8,-8"/>
<text text-anchor="start" x="720.5" y="-23" font-family="Helvetica,sans-Serif" font-weight="bold" font-size="20.00" fill="#707070">Provider azure</text>
</g>
<g id="clust2" class="cluster">
<title>cluster_azure_</title>
<polygon fill="#eeeeee" stroke="#eeeeee" points="16,-54 16,-409 1563,-409 1563,-54 16,-54"/>
<text text-anchor="start" x="789.36" y="-58.3" font-family="Helvetica,sans-Serif" font-size="1.00" fill="#383838"> </text>
</g>
<!-- Disk::::vm_OsDisk_1_5af155ad5f5440fcbc031cc01a587e0e -->
<g id="node1" class="node">
<title>Disk::::vm_OsDisk_1_5af155ad5f5440fcbc031cc01a587e0e</title>
<polygon fill="#e5e5e5" stroke="#dddddd" points="611,-161 298,-161 298,-103 611,-103 611,-161"/>
<text text-anchor="start" x="310.5" y="-141.2" font-family="Helvetica,sans-Serif" font-weight="bold" font-size="16.00" fill="#707070">Compute::Disk</text>
<text text-anchor="start" x="310.5" y="-116.2" font-family="Helvetica,sans-Serif" font-size="16.00" fill="#383838">vm_OsDisk_1_5af155ad5f5440fcbc03...</text>
</g>
<!-- ResourceGroup::::rg&#45;managed&#45;identity -->
<g id="node11" class="node">
<title>ResourceGroup::::rg&#45;managed&#45;identity</title>
<polygon fill="#e5e5e5" stroke="#dddddd" points="1555,-293 1317,-293 1317,-235 1555,-235 1555,-293"/>
<text text-anchor="start" x="1329" y="-273.2" font-family="Helvetica,sans-Serif" font-weight="bold" font-size="16.00" fill="#707070">Resources::ResourceGroup</text>
<text text-anchor="start" x="1329" y="-248.2" font-family="Helvetica,sans-Serif" font-size="16.00" fill="#383838">rg&#45;managed&#45;identity</text>
</g>
<!-- Disk::::vm_OsDisk_1_5af155ad5f5440fcbc031cc01a587e0e&#45;&gt;ResourceGroup::::rg&#45;managed&#45;identity -->
<g id="edge1" class="edge">
<title>Disk::::vm_OsDisk_1_5af155ad5f5440fcbc031cc01a587e0e&#45;&gt;ResourceGroup::::rg&#45;managed&#45;identity</title>
<path fill="none" stroke="#707070" d="M611.2,-123.19C623.31,-122.71 635.35,-122.3 647,-122 767.85,-118.85 800.74,-96.9 919,-122 936.13,-125.63 937.97,-133.95 955,-138 1025.56,-154.79 1212.49,-130.18 1281,-154 1325.73,-169.55 1368.9,-202.46 1398.1,-228.25"/>
<polygon fill="#707070" stroke="#707070" points="1395.8,-230.89 1405.58,-234.97 1400.48,-225.68 1395.8,-230.89"/>
</g>
<!-- SshPublicKey::::kp&#45;vm -->
<g id="node2" class="node">
<title>SshPublicKey::::kp&#45;vm</title>
<polygon fill="#e5e5e5" stroke="#dddddd" points="1223.5,-401 1012.5,-401 1012.5,-343 1223.5,-343 1223.5,-401"/>
<text text-anchor="start" x="1025" y="-381.2" font-family="Helvetica,sans-Serif" font-weight="bold" font-size="16.00" fill="#707070">Compute::SshPublicKey</text>
<text text-anchor="start" x="1025" y="-356.2" font-family="Helvetica,sans-Serif" font-size="16.00" fill="#383838">kp&#45;vm</text>
</g>
<!-- SshPublicKey::::kp&#45;vm&#45;&gt;ResourceGroup::::rg&#45;managed&#45;identity -->
<g id="edge2" class="edge">
<title>SshPublicKey::::kp&#45;vm&#45;&gt;ResourceGroup::::rg&#45;managed&#45;identity</title>
<path fill="none" stroke="#707070" d="M1223.79,-346.49C1242.96,-341.17 1262.69,-335.26 1281,-329 1308.02,-319.76 1337.03,-308.02 1362.5,-297.06"/>
<polygon fill="#707070" stroke="#707070" points="1363.93,-300.26 1371.71,-293.07 1361.15,-293.84 1363.93,-300.26"/>
</g>
<!-- VirtualMachine::::vm -->
<g id="node3" class="node">
<title>VirtualMachine::::vm</title>
<polygon fill="#e5e5e5" stroke="#dddddd" points="252,-257 34,-257 34,-199 252,-199 252,-257"/>
<text text-anchor="start" x="46" y="-237.2" font-family="Helvetica,sans-Serif" font-weight="bold" font-size="16.00" fill="#707070">Compute::VirtualMachine</text>
<text text-anchor="start" x="46" y="-212.2" font-family="Helvetica,sans-Serif" font-size="16.00" fill="#383838">vm</text>
</g>
<!-- VirtualMachine::::vm&#45;&gt;Disk::::vm_OsDisk_1_5af155ad5f5440fcbc031cc01a587e0e -->
<g id="edge5" class="edge">
<title>VirtualMachine::::vm&#45;&gt;Disk::::vm_OsDisk_1_5af155ad5f5440fcbc031cc01a587e0e</title>
<path fill="none" stroke="#707070" d="M237.7,-198.94C273.22,-187.92 313.86,-175.31 350.21,-164.04"/>
<polygon fill="#707070" stroke="#707070" points="351.34,-167.35 359.85,-161.05 349.26,-160.67 351.34,-167.35"/>
</g>
<!-- NetworkInterface::::vm214 -->
<g id="node5" class="node">
<title>NetworkInterface::::vm214</title>
<polygon fill="#e5e5e5" stroke="#dddddd" points="568.5,-257 340.5,-257 340.5,-199 568.5,-199 568.5,-257"/>
<text text-anchor="start" x="352.5" y="-237.2" font-family="Helvetica,sans-Serif" font-weight="bold" font-size="16.00" fill="#707070">Network::NetworkInterface</text>
<text text-anchor="start" x="352.5" y="-212.2" font-family="Helvetica,sans-Serif" font-size="16.00" fill="#383838">vm214</text>
</g>
<!-- VirtualMachine::::vm&#45;&gt;NetworkInterface::::vm214 -->
<g id="edge4" class="edge">
<title>VirtualMachine::::vm&#45;&gt;NetworkInterface::::vm214</title>
<path fill="none" stroke="#707070" d="M252.25,-228C277.41,-228 304.38,-228 330.14,-228"/>
<polygon fill="#707070" stroke="#707070" points="330.32,-231.5 340.32,-228 330.32,-224.5 330.32,-231.5"/>
</g>
<!-- VirtualMachine::::vm&#45;&gt;ResourceGroup::::rg&#45;managed&#45;identity -->
<g id="edge3" class="edge">
<title>VirtualMachine::::vm&#45;&gt;ResourceGroup::::rg&#45;managed&#45;identity</title>
<path fill="none" stroke="#707070" d="M211.1,-257.06C306.02,-296.43 485.9,-364.7 647,-390 766.42,-408.76 812.89,-447.93 919,-390 944.97,-375.82 929.71,-349.35 955,-334 1017.19,-296.25 1209.33,-316.52 1281,-304 1294.58,-301.63 1308.71,-298.66 1322.67,-295.42"/>
<polygon fill="#707070" stroke="#707070" points="1323.87,-298.74 1332.79,-293.02 1322.25,-291.92 1323.87,-298.74"/>
</g>
<!-- UserAssignedIdentity::::my&#45;identity&#45;test -->
<g id="node4" class="node">
<title>UserAssignedIdentity::::my&#45;identity&#45;test</title>
<polygon fill="#e5e5e5" stroke="#dddddd" points="1281,-129 955,-129 955,-71 1281,-71 1281,-129"/>
<text text-anchor="start" x="967" y="-109.2" font-family="Helvetica,sans-Serif" font-weight="bold" font-size="16.00" fill="#707070">ManagedIdentity::UserAssignedIdentity</text>
<text text-anchor="start" x="967" y="-84.2" font-family="Helvetica,sans-Serif" font-size="16.00" fill="#383838">my&#45;identity&#45;test</text>
</g>
<!-- UserAssignedIdentity::::my&#45;identity&#45;test&#45;&gt;ResourceGroup::::rg&#45;managed&#45;identity -->
<g id="edge6" class="edge">
<title>UserAssignedIdentity::::my&#45;identity&#45;test&#45;&gt;ResourceGroup::::rg&#45;managed&#45;identity</title>
<path fill="none" stroke="#707070" d="M1248.13,-129.08C1259.47,-133.18 1270.58,-137.8 1281,-143 1325.13,-165.01 1368.69,-200.92 1398.16,-227.92"/>
<polygon fill="#707070" stroke="#707070" points="1396,-230.69 1405.71,-234.92 1400.76,-225.56 1396,-230.69"/>
</g>
<!-- NetworkSecurityGroup::::vm&#45;nsg -->
<g id="node6" class="node">
<title>NetworkSecurityGroup::::vm&#45;nsg</title>
<polygon fill="#e5e5e5" stroke="#dddddd" points="919,-305 647,-305 647,-247 919,-247 919,-305"/>
<text text-anchor="start" x="659" y="-285.2" font-family="Helvetica,sans-Serif" font-weight="bold" font-size="16.00" fill="#707070">Network::NetworkSecurityGroup</text>
<text text-anchor="start" x="659" y="-260.2" font-family="Helvetica,sans-Serif" font-size="16.00" fill="#383838">vm&#45;nsg</text>
</g>
<!-- NetworkInterface::::vm214&#45;&gt;NetworkSecurityGroup::::vm&#45;nsg -->
<g id="edge10" class="edge">
<title>NetworkInterface::::vm214&#45;&gt;NetworkSecurityGroup::::vm&#45;nsg</title>
<path fill="none" stroke="#707070" d="M568.78,-244.65C590.68,-247.87 613.91,-251.29 636.66,-254.63"/>
<polygon fill="#707070" stroke="#707070" points="636.33,-258.12 646.73,-256.11 637.35,-251.2 636.33,-258.12"/>
</g>
<!-- PublicIPAddress::::vm&#45;ip -->
<g id="node7" class="node">
<title>PublicIPAddress::::vm&#45;ip</title>
<polygon fill="#e5e5e5" stroke="#dddddd" points="895,-381 671,-381 671,-323 895,-323 895,-381"/>
<text text-anchor="start" x="683" y="-361.2" font-family="Helvetica,sans-Serif" font-weight="bold" font-size="16.00" fill="#707070">Network::PublicIPAddress</text>
<text text-anchor="start" x="683" y="-336.2" font-family="Helvetica,sans-Serif" font-size="16.00" fill="#383838">vm&#45;ip</text>
</g>
<!-- NetworkInterface::::vm214&#45;&gt;PublicIPAddress::::vm&#45;ip -->
<g id="edge9" class="edge">
<title>NetworkInterface::::vm214&#45;&gt;PublicIPAddress::::vm&#45;ip</title>
<path fill="none" stroke="#707070" d="M514.09,-257.03C551.53,-274.89 601.44,-297.46 647,-314 652.42,-315.97 658,-317.9 663.66,-319.78"/>
<polygon fill="#707070" stroke="#707070" points="662.64,-323.13 673.24,-322.9 664.81,-316.48 662.64,-323.13"/>
</g>
<!-- Subnet::::default -->
<g id="node8" class="node">
<title>Subnet::::default</title>
<polygon fill="#e5e5e5" stroke="#dddddd" points="859,-189 707,-189 707,-131 859,-131 859,-189"/>
<text text-anchor="start" x="719" y="-169.2" font-family="Helvetica,sans-Serif" font-weight="bold" font-size="16.00" fill="#707070">Network::Subnet</text>
<text text-anchor="start" x="719" y="-144.2" font-family="Helvetica,sans-Serif" font-size="16.00" fill="#383838">default</text>
</g>
<!-- NetworkInterface::::vm214&#45;&gt;Subnet::::default -->
<g id="edge11" class="edge">
<title>NetworkInterface::::vm214&#45;&gt;Subnet::::default</title>
<path fill="none" stroke="#707070" d="M568.78,-204.41C610.71,-195.67 657.51,-185.93 696.55,-177.8"/>
<polygon fill="#707070" stroke="#707070" points="697.75,-181.12 706.83,-175.66 696.32,-174.27 697.75,-181.12"/>
</g>
<!-- VirtualNetwork::::rg&#45;managed&#45;identity&#45;vnet -->
<g id="node9" class="node">
<title>VirtualNetwork::::rg&#45;managed&#45;identity&#45;vnet</title>
<polygon fill="#e5e5e5" stroke="#dddddd" points="1223.5,-245 1012.5,-245 1012.5,-187 1223.5,-187 1223.5,-245"/>
<text text-anchor="start" x="1025" y="-225.2" font-family="Helvetica,sans-Serif" font-weight="bold" font-size="16.00" fill="#707070">Network::VirtualNetwork</text>
<text text-anchor="start" x="1025" y="-200.2" font-family="Helvetica,sans-Serif" font-size="16.00" fill="#383838">rg&#45;managed&#45;identity&#45;vnet</text>
</g>
<!-- NetworkInterface::::vm214&#45;&gt;VirtualNetwork::::rg&#45;managed&#45;identity&#45;vnet -->
<g id="edge8" class="edge">
<title>NetworkInterface::::vm214&#45;&gt;VirtualNetwork::::rg&#45;managed&#45;identity&#45;vnet</title>
<path fill="none" stroke="#707070" d="M568.65,-224.84C594.41,-224.17 621.65,-223.52 647,-223 768.23,-220.51 907.07,-218.56 1002.23,-217.35"/>
<polygon fill="#707070" stroke="#707070" points="1002.5,-220.85 1012.46,-217.22 1002.41,-213.85 1002.5,-220.85"/>
</g>
<!-- NetworkInterface::::vm214&#45;&gt;ResourceGroup::::rg&#45;managed&#45;identity -->
<g id="edge7" class="edge">
<title>NetworkInterface::::vm214&#45;&gt;ResourceGroup::::rg&#45;managed&#45;identity</title>
<path fill="none" stroke="#707070" d="M568.69,-225.34C684.06,-223.55 854.88,-223.67 919,-238 936.09,-241.82 937.91,-250.19 955,-254 1019.37,-268.36 1187.6,-268.79 1306.68,-267.02"/>
<polygon fill="#707070" stroke="#707070" points="1307.01,-270.52 1316.96,-266.86 1306.91,-263.52 1307.01,-270.52"/>
</g>
<!-- NetworkSecurityGroup::::vm&#45;nsg&#45;&gt;ResourceGroup::::rg&#45;managed&#45;identity -->
<g id="edge12" class="edge">
<title>NetworkSecurityGroup::::vm&#45;nsg&#45;&gt;ResourceGroup::::rg&#45;managed&#45;identity</title>
<path fill="none" stroke="#707070" d="M919.01,-274.77C1018.98,-273.69 1158.5,-271.85 1281,-269 1289.36,-268.81 1297.98,-268.58 1306.66,-268.34"/>
<polygon fill="#707070" stroke="#707070" points="1306.98,-271.84 1316.88,-268.06 1306.78,-264.84 1306.98,-271.84"/>
</g>
<!-- PublicIPAddress::::vm&#45;ip&#45;&gt;ResourceGroup::::rg&#45;managed&#45;identity -->
<g id="edge13" class="edge">
<title>PublicIPAddress::::vm&#45;ip&#45;&gt;ResourceGroup::::rg&#45;managed&#45;identity</title>
<path fill="none" stroke="#707070" d="M895.09,-329.28C914.99,-325.58 935.57,-321.98 955,-319 1073.71,-300.77 1209.78,-285.73 1306.66,-276.01"/>
<polygon fill="#707070" stroke="#707070" points="1307.2,-279.47 1316.8,-275 1306.5,-272.51 1307.2,-279.47"/>
</g>
<!-- Subnet::::default&#45;&gt;VirtualNetwork::::rg&#45;managed&#45;identity&#45;vnet -->
<g id="edge15" class="edge">
<title>Subnet::::default&#45;&gt;VirtualNetwork::::rg&#45;managed&#45;identity&#45;vnet</title>
<path fill="none" stroke="#707070" d="M859.15,-172.64C901.41,-179.74 955.05,-188.77 1002.45,-196.74"/>
<polygon fill="#707070" stroke="#707070" points="1002.02,-200.21 1012.46,-198.42 1003.18,-193.31 1002.02,-200.21"/>
</g>
<!-- Subnet::::default&#45;&gt;ResourceGroup::::rg&#45;managed&#45;identity -->
<g id="edge14" class="edge">
<title>Subnet::::default&#45;&gt;ResourceGroup::::rg&#45;managed&#45;identity</title>
<path fill="none" stroke="#707070" d="M859.25,-158.43C978.18,-156.67 1203.98,-156.46 1281,-178 1319.11,-188.66 1358,-210.48 1387.15,-229.47"/>
<polygon fill="#707070" stroke="#707070" points="1385.23,-232.39 1395.5,-235 1389.09,-226.55 1385.23,-232.39"/>
</g>
<!-- VirtualNetwork::::rg&#45;managed&#45;identity&#45;vnet&#45;&gt;ResourceGroup::::rg&#45;managed&#45;identity -->
<g id="edge16" class="edge">
<title>VirtualNetwork::::rg&#45;managed&#45;identity&#45;vnet&#45;&gt;ResourceGroup::::rg&#45;managed&#45;identity</title>
<path fill="none" stroke="#707070" d="M1223.78,-231.92C1250.35,-235.95 1279.18,-240.33 1306.76,-244.52"/>
<polygon fill="#707070" stroke="#707070" points="1306.44,-248.01 1316.85,-246.05 1307.49,-241.09 1306.44,-248.01"/>
</g>
<!-- ResourceGroup::::DefaultResourceGroup&#45;CUS -->
<g id="node10" class="node">
<title>ResourceGroup::::DefaultResourceGroup&#45;CUS</title>
<polygon fill="#e5e5e5" stroke="#dddddd" points="262,-155 24,-155 24,-97 262,-97 262,-155"/>
<text text-anchor="start" x="36" y="-135.2" font-family="Helvetica,sans-Serif" font-weight="bold" font-size="16.00" fill="#707070">Resources::ResourceGroup</text>
<text text-anchor="start" x="36" y="-110.2" font-family="Helvetica,sans-Serif" font-size="16.00" fill="#383838">DefaultResourceGroup&#45;CUS</text>
</g>
</g>
</svg>
