<?xml version="1.0" encoding="UTF-8" standalone="no"?>
<!DOCTYPE svg PUBLIC "-//W3C//DTD SVG 1.1//EN"
 "http://www.w3.org/Graphics/SVG/1.1/DTD/svg11.dtd">
<!-- Generated by graphviz version 3.0.0 (20220226.1711)
 -->
<!-- Title: graphname Pages: 1 -->
<svg width="1214pt" height="313pt"
 viewBox="0.00 0.00 1214.00 313.00" xmlns="http://www.w3.org/2000/svg" xmlns:xlink="http://www.w3.org/1999/xlink">
<g id="graph0" class="graph" transform="scale(1 1) rotate(0) translate(4 309)">
<title>graphname</title>
<polygon fill="#fafafa" stroke="transparent" points="-4,4 -4,-309 1210,-309 1210,4 -4,4"/>
<text text-anchor="start" x="487" y="-280.4" font-family="Helvetica,sans-Serif" font-weight="bold" font-size="22.00" fill="#383838">Project kinesis&#45;stream</text>
<text text-anchor="start" x="599.5" y="-264.8" font-family="Helvetica,sans-Serif" font-size="14.00"> &#160;</text>
<text text-anchor="start" x="487" y="-243.2" font-family="Helvetica,sans-Serif" font-weight="bold" font-size="16.00" fill="#707070">Target Diagram</text>
<g id="clust1" class="cluster">
<title>cluster_aws</title>
<polygon fill="#f5f5f5" stroke="#f5f5f5" points="8,-8 8,-221 1198,-221 1198,-8 8,-8"/>
<text text-anchor="start" x="541" y="-23" font-family="Helvetica,sans-Serif" font-weight="bold" font-size="20.00" fill="#707070">Provider aws</text>
</g>
<g id="clust2" class="cluster">
<title>cluster_aws_</title>
<polygon fill="#eeeeee" stroke="#eeeeee" points="16,-54 16,-213 1190,-213 1190,-54 16,-54"/>
<text text-anchor="start" x="602.86" y="-58.3" font-family="Helvetica,sans-Serif" font-size="1.00" fill="#383838"> </text>
</g>
<!-- Role::read&#45;kinesis&#45;stream&#45;role&#45;wmuwr9bv -->
<g id="node1" class="node">
<title>Role::read&#45;kinesis&#45;stream&#45;role&#45;wmuwr9bv</title>
<polygon fill="#e5e5e5" stroke="#dddddd" points="829,-205 543,-205 543,-147 829,-147 829,-205"/>
<text text-anchor="start" x="555" y="-185.2" font-family="Helvetica,sans-Serif" font-weight="bold" font-size="16.00" fill="#707070">IAM::Role</text>
<text text-anchor="start" x="555" y="-160.2" font-family="Helvetica,sans-Serif" font-size="16.00" fill="#383838">read&#45;kinesis&#45;stream&#45;role&#45;wmuwr9b...</text>
</g>
<!-- Policy::AWSLambdaBasicExecutionRole&#45;a76cddca&#45;78ae&#45;48ce&#45;9719&#45;4222f782af1b -->
<g id="node2" class="node">
<title>Policy::AWSLambdaBasicExecutionRole&#45;a76cddca&#45;78ae&#45;48ce&#45;9719&#45;4222f782af1b</title>
<polygon fill="#e5e5e5" stroke="#dddddd" points="1182,-205 865,-205 865,-147 1182,-147 1182,-205"/>
<text text-anchor="start" x="877.5" y="-185.2" font-family="Helvetica,sans-Serif" font-weight="bold" font-size="16.00" fill="#707070">IAM::Policy</text>
<text text-anchor="start" x="877.5" y="-160.2" font-family="Helvetica,sans-Serif" font-size="16.00" fill="#383838">AWSLambdaBasicExecutionRole&#45;a76c...</text>
</g>
<!-- Role::read&#45;kinesis&#45;stream&#45;role&#45;wmuwr9bv&#45;&gt;Policy::AWSLambdaBasicExecutionRole&#45;a76cddca&#45;78ae&#45;48ce&#45;9719&#45;4222f782af1b -->
<g id="edge1" class="edge">
<title>Role::read&#45;kinesis&#45;stream&#45;role&#45;wmuwr9bv&#45;&gt;Policy::AWSLambdaBasicExecutionRole&#45;a76cddca&#45;78ae&#45;48ce&#45;9719&#45;4222f782af1b</title>
<path fill="none" stroke="#707070" d="M829.28,-176C837.75,-176 846.32,-176 854.88,-176"/>
<polygon fill="#707070" stroke="#707070" points="854.92,-179.5 864.92,-176 854.92,-172.5 854.92,-179.5"/>
</g>
<!-- Stream::my&#45;stream -->
<g id="node3" class="node">
<title>Stream::my&#45;stream</title>
<polygon fill="#e5e5e5" stroke="#dddddd" points="496.5,-129 350.5,-129 350.5,-71 496.5,-71 496.5,-129"/>
<text text-anchor="start" x="362.5" y="-109.2" font-family="Helvetica,sans-Serif" font-weight="bold" font-size="16.00" fill="#707070">Kinesis::Stream</text>
<text text-anchor="start" x="362.5" y="-84.2" font-family="Helvetica,sans-Serif" font-size="16.00" fill="#383838">my&#45;stream</text>
</g>
<!-- Function::read&#45;kinesis&#45;stream -->
<g id="node4" class="node">
<title>Function::read&#45;kinesis&#45;stream</title>
<polygon fill="#e5e5e5" stroke="#dddddd" points="507,-205 340,-205 340,-147 507,-147 507,-205"/>
<text text-anchor="start" x="352.5" y="-185.2" font-family="Helvetica,sans-Serif" font-weight="bold" font-size="16.00" fill="#707070">Lambda::Function</text>
<text text-anchor="start" x="352.5" y="-160.2" font-family="Helvetica,sans-Serif" font-size="16.00" fill="#383838">read&#45;kinesis&#45;stream</text>
</g>
<!-- Function::read&#45;kinesis&#45;stream&#45;&gt;Role::read&#45;kinesis&#45;stream&#45;role&#45;wmuwr9bv -->
<g id="edge2" class="edge">
<title>Function::read&#45;kinesis&#45;stream&#45;&gt;Role::read&#45;kinesis&#45;stream&#45;role&#45;wmuwr9bv</title>
<path fill="none" stroke="#707070" d="M507.28,-176C515.53,-176 524.07,-176 532.74,-176"/>
<polygon fill="#707070" stroke="#707070" points="532.97,-179.5 542.97,-176 532.97,-172.5 532.97,-179.5"/>
</g>
<!-- EventSourceMapping::mapping&#45;read&#45;kinesis&#45;stream&#45;stream/my&#45;stream -->
<g id="node5" class="node">
<title>EventSourceMapping::mapping&#45;read&#45;kinesis&#45;stream&#45;stream/my&#45;stream</title>
<polygon fill="#e5e5e5" stroke="#dddddd" points="304,-167 24,-167 24,-109 304,-109 304,-167"/>
<text text-anchor="start" x="36" y="-147.2" font-family="Helvetica,sans-Serif" font-weight="bold" font-size="16.00" fill="#707070">Lambda::EventSourceMapping</text>
<text text-anchor="start" x="36" y="-122.2" font-family="Helvetica,sans-Serif" font-size="16.00" fill="#383838">mapping&#45;read&#45;kinesis&#45;stream&#45;stre...</text>
</g>
<!-- EventSourceMapping::mapping&#45;read&#45;kinesis&#45;stream&#45;stream/my&#45;stream&#45;&gt;Stream::my&#45;stream -->
<g id="edge4" class="edge">
<title>EventSourceMapping::mapping&#45;read&#45;kinesis&#45;stream&#45;stream/my&#45;stream&#45;&gt;Stream::my&#45;stream</title>
<path fill="none" stroke="#707070" d="M304.3,-117.44C316.58,-115.63 328.74,-113.84 340.31,-112.13"/>
<polygon fill="#707070" stroke="#707070" points="340.94,-115.57 350.32,-110.65 339.91,-108.65 340.94,-115.57"/>
</g>
<!-- EventSourceMapping::mapping&#45;read&#45;kinesis&#45;stream&#45;stream/my&#45;stream&#45;&gt;Function::read&#45;kinesis&#45;stream -->
<g id="edge3" class="edge">
<title>EventSourceMapping::mapping&#45;read&#45;kinesis&#45;stream&#45;stream/my&#45;stream&#45;&gt;Function::read&#45;kinesis&#45;stream</title>
<path fill="none" stroke="#707070" d="M304.3,-158.56C312.89,-159.83 321.42,-161.08 329.74,-162.31"/>
<polygon fill="#707070" stroke="#707070" points="329.35,-165.79 339.76,-163.79 330.38,-158.87 329.35,-165.79"/>
</g>
</g>
</svg>
