<?xml version="1.0" encoding="UTF-8" standalone="no"?><svg xmlns="http://www.w3.org/2000/svg" xmlns:xlink="http://www.w3.org/1999/xlink" contentScriptType="application/ecmascript" contentStyleType="text/css" height="341px" preserveAspectRatio="none" style="width:538px;height:341px;background:#FFFFFF;" version="1.1" viewBox="0 0 538 341" width="538px" zoomAndPan="magnify"><defs><filter height="300%" id="fwweta8holj9f" width="300%" x="-1" y="-1"><feGaussianBlur result="blurOut" stdDeviation="2.0"/><feColorMatrix in="blurOut" result="blurOut2" type="matrix" values="0 0 0 0 0 0 0 0 0 0 0 0 0 0 0 0 0 0 .4 0"/><feOffset dx="4.0" dy="4.0" in="blurOut2" result="blurOut3"/><feBlend in="SourceGraphic" in2="blurOut3" mode="normal"/></filter></defs><g><rect fill="none" height="26.4883" style="stroke:none;stroke-width:1.0;" width="280" x="99" y="15"/><text fill="#000000" font-family="sans-serif" font-size="14" font-weight="bold" lengthAdjust="spacing" textLength="270" x="104" y="33.5352">Resources for project kinesis-stream</text><rect fill="#F8F8F8" filter="url(#fwweta8holj9f)" height="36.4883" rx="12.5" ry="12.5" style="stroke:#383838;stroke-width:1.5;" width="52" x="10" y="170.4648"/><text fill="#000000" font-family="sans-serif" font-size="14" lengthAdjust="spacing" textLength="32" x="20" y="194">Infra</text><rect fill="#F8F8F8" filter="url(#fwweta8holj9f)" height="36.4883" rx="12.5" ry="12.5" style="stroke:#383838;stroke-width:1.5;" width="46" x="112" y="170.4648"/><text fill="#000000" font-family="sans-serif" font-size="14" lengthAdjust="spacing" textLength="26" x="122" y="194">aws</text><rect fill="#F8F8F8" filter="url(#fwweta8holj9f)" height="36.4883" rx="12.5" ry="12.5" style="stroke:#383838;stroke-width:1.5;" width="46" x="208" y="85.7324"/><text fill="#000000" font-family="sans-serif" font-size="14" lengthAdjust="spacing" textLength="26" x="218" y="109.2676">IAM</text><rect fill="#F8F8F8" filter="url(#fwweta8holj9f)" height="36.4883" rx="12.5" ry="12.5" style="stroke:#383838;stroke-width:1.5;" width="73" x="304" y="57.4883"/><text fill="#000000" font-family="sans-serif" font-size="14" lengthAdjust="spacing" textLength="53" x="314" y="81.0234">Role (1)</text><path d="M254,103.9766 L264,103.9766 C279,103.9766 279,75.7324 294,75.7324 L304,75.7324 " fill="none" style="stroke:#383838;stroke-width:1.0;"/><rect fill="#F8F8F8" filter="url(#fwweta8holj9f)" height="36.4883" rx="12.5" ry="12.5" style="stroke:#383838;stroke-width:1.5;" width="82" x="304" y="113.9766"/><text fill="#000000" font-family="sans-serif" font-size="14" lengthAdjust="spacing" textLength="62" x="314" y="137.5117">Policy (1)</text><path d="M254,103.9766 L264,103.9766 C279,103.9766 279,132.2207 294,132.2207 L304,132.2207 " fill="none" style="stroke:#383838;stroke-width:1.0;"/><path d="M158,188.709 L168,188.709 C183,188.709 183,103.9766 198,103.9766 L208,103.9766 " fill="none" style="stroke:#383838;stroke-width:1.0;"/><rect fill="#F8F8F8" filter="url(#fwweta8holj9f)" height="36.4883" rx="12.5" ry="12.5" style="stroke:#383838;stroke-width:1.5;" width="68" x="208" y="170.4648"/><text fill="#000000" font-family="sans-serif" font-size="14" lengthAdjust="spacing" textLength="48" x="218" y="194">Kinesis</text><rect fill="#F8F8F8" filter="url(#fwweta8holj9f)" height="36.4883" rx="12.5" ry="12.5" style="stroke:#383838;stroke-width:1.5;" width="91" x="326" y="170.4648"/><text fill="#000000" font-family="sans-serif" font-size="14" lengthAdjust="spacing" textLength="71" x="336" y="194">Stream (1)</text><path d="M276,188.709 L286,188.709 C301,188.709 301,188.709 316,188.709 L326,188.709 " fill="none" style="stroke:#383838;stroke-width:1.0;"/><path d="M158,188.709 L168,188.709 C183,188.709 183,188.709 198,188.709 L208,188.709 " fill="none" style="stroke:#383838;stroke-width:1.0;"/><rect fill="#F8F8F8" filter="url(#fwweta8holj9f)" height="36.4883" rx="12.5" ry="12.5" style="stroke:#383838;stroke-width:1.5;" width="74" x="208" y="255.1973"/><text fill="#000000" font-family="sans-serif" font-size="14" lengthAdjust="spacing" textLength="54" x="218" y="278.7324">Lambda</text><rect fill="#F8F8F8" filter="url(#fwweta8holj9f)" height="36.4883" rx="12.5" ry="12.5" style="stroke:#383838;stroke-width:1.5;" width="103" x="332" y="226.9531"/><text fill="#000000" font-family="sans-serif" font-size="14" lengthAdjust="spacing" textLength="83" x="342" y="250.4883">Function (1)</text><path d="M282,273.4414 L292,273.4414 C307,273.4414 307,245.1973 322,245.1973 L332,245.1973 " fill="none" style="stroke:#383838;stroke-width:1.0;"/><rect fill="#F8F8F8" filter="url(#fwweta8holj9f)" height="36.4883" rx="12.5" ry="12.5" style="stroke:#383838;stroke-width:1.5;" width="187" x="332" y="283.4414"/><text fill="#000000" font-family="sans-serif" font-size="14" lengthAdjust="spacing" textLength="167" x="342" y="306.9766">EventSourceMapping (1)</text><path d="M282,273.4414 L292,273.4414 C307,273.4414 307,301.6855 322,301.6855 L332,301.6855 " fill="none" style="stroke:#383838;stroke-width:1.0;"/><path d="M158,188.709 L168,188.709 C183,188.709 183,273.4414 198,273.4414 L208,273.4414 " fill="none" style="stroke:#383838;stroke-width:1.0;"/><path d="M62,188.709 L72,188.709 C87,188.709 87,188.709 102,188.709 L112,188.709 " fill="none" style="stroke:#383838;stroke-width:1.0;"/><!--MD5=[f476004eb3c77c844f4041a9f6b532d7]
@startmindmap
title Resources for project kinesis-stream
skinparam monochrome true
+ Infra
++ aws
+++ IAM
++++ Role (1)
++++ Policy (1)
+++ Kinesis
++++ Stream (1)
+++ Lambda
++++ Function (1)
++++ EventSourceMapping (1)
@endmindmap

PlantUML version 1.2021.8(Sat Jun 26 10:20:59 CEST 2021)
(GPL source distribution)
Java Runtime: OpenJDK Runtime Environment
JVM: OpenJDK 64-Bit Server VM
Default Encoding: UTF-8
Language: en
Country: GB
--></g></svg>