<?xml version="1.0" encoding="UTF-8" standalone="no"?><svg xmlns="http://www.w3.org/2000/svg" xmlns:xlink="http://www.w3.org/1999/xlink" contentStyleType="text/css" height="172px" preserveAspectRatio="none" style="width:616px;height:172px;background:#FFFFFF;" version="1.1" viewBox="0 0 616 172" width="616px" zoomAndPan="magnify"><defs/><g><rect height="26.4883" style="stroke:#00000000;stroke-width:1.0;fill:none;" width="354" x="104.5" y="15"/><text fill="#000000" font-family="sans-serif" font-size="14" font-weight="bold" lengthAdjust="spacing" textLength="344" x="109.5" y="33.5352">Resources for project codegurureviewer-simple</text><rect fill="#F1F1F1" height="36.4883" rx="12.5" ry="12.5" style="stroke:#181818;stroke-width:1.5;" width="52" x="10" y="85.7324"/><text fill="#000000" font-family="sans-serif" font-size="14" lengthAdjust="spacing" textLength="32" x="20" y="109.2676">Infra</text><rect fill="#F1F1F1" height="36.4883" rx="12.5" ry="12.5" style="stroke:#181818;stroke-width:1.5;" width="46" x="112" y="85.7324"/><text fill="#000000" font-family="sans-serif" font-size="14" lengthAdjust="spacing" textLength="26" x="122" y="109.2676">aws</text><rect fill="#F1F1F1" height="36.4883" rx="12.5" ry="12.5" style="stroke:#181818;stroke-width:1.5;" width="110" x="208" y="57.4883"/><text fill="#000000" font-family="sans-serif" font-size="14" lengthAdjust="spacing" textLength="90" x="218" y="81.0234">CodeCommit</text><rect fill="#F1F1F1" height="36.4883" rx="12.5" ry="12.5" style="stroke:#181818;stroke-width:1.5;" width="116" x="368" y="57.4883"/><text fill="#000000" font-family="sans-serif" font-size="14" lengthAdjust="spacing" textLength="96" x="378" y="81.0234">Repository (1)</text><path d="M318,75.7324 L328,75.7324 C343,75.7324 343,75.7324 358,75.7324 L368,75.7324 " fill="none" style="stroke:#181818;stroke-width:1.0;"/><path d="M158,103.9766 L168,103.9766 C183,103.9766 183,75.7324 198,75.7324 L208,75.7324 " fill="none" style="stroke:#181818;stroke-width:1.0;"/><rect fill="#F1F1F1" height="36.4883" rx="12.5" ry="12.5" style="stroke:#181818;stroke-width:1.5;" width="151" x="208" y="113.9766"/><text fill="#000000" font-family="sans-serif" font-size="14" lengthAdjust="spacing" textLength="131" x="218" y="137.5117">CodeGuruReviewer</text><rect fill="#F1F1F1" height="36.4883" rx="12.5" ry="12.5" style="stroke:#181818;stroke-width:1.5;" width="195" x="409" y="113.9766"/><text fill="#000000" font-family="sans-serif" font-size="14" lengthAdjust="spacing" textLength="175" x="419" y="137.5117">RepositoryAssociation (1)</text><path d="M359,132.2207 L369,132.2207 C384,132.2207 384,132.2207 399,132.2207 L409,132.2207 " fill="none" style="stroke:#181818;stroke-width:1.0;"/><path d="M158,103.9766 L168,103.9766 C183,103.9766 183,132.2207 198,132.2207 L208,132.2207 " fill="none" style="stroke:#181818;stroke-width:1.0;"/><path d="M62,103.9766 L72,103.9766 C87,103.9766 87,103.9766 102,103.9766 L112,103.9766 " fill="none" style="stroke:#181818;stroke-width:1.0;"/><!--MD5=[964cf5f166de87d17a00afe7fe655ae0]
@startmindmap
title Resources for project codegurureviewer-simple
skinparam monochrome true
+ Infra
++ aws
+++ CodeCommit
++++ Repository (1)
+++ CodeGuruReviewer
++++ RepositoryAssociation (1)
@endmindmap

PlantUML version 1.2022.6(Tue Jun 21 12:34:49 COT 2022)
(GPL source distribution)
Java Runtime: Java(TM) SE Runtime Environment
JVM: Java HotSpot(TM) 64-Bit Server VM
Default Encoding: UTF-8
Language: en
Country: GB
--></g></svg>