<?xml version="1.0" encoding="UTF-8" standalone="no"?>
<!DOCTYPE svg PUBLIC "-//W3C//DTD SVG 1.1//EN"
 "http://www.w3.org/Graphics/SVG/1.1/DTD/svg11.dtd">
<!-- Generated by graphviz version 7.1.0 (20230121.1956)
 -->
<!-- Title: graphname Pages: 1 -->
<svg width="636pt" height="465pt"
 viewBox="0.00 0.00 636.00 465.00" xmlns="http://www.w3.org/2000/svg" xmlns:xlink="http://www.w3.org/1999/xlink">
<g id="graph0" class="graph" transform="scale(1 1) rotate(0) translate(4 461)">
<title>graphname</title>
<polygon fill="#fafafa" stroke="none" points="-4,4 -4,-461 632,-461 632,4 -4,4"/>
<text text-anchor="start" x="255" y="-432.4" font-family="Helvetica,sans-Serif" font-weight="bold" font-size="22.00" fill="#383838">Project iam</text>
<text text-anchor="start" x="310" y="-416.8" font-family="Helvetica,sans-Serif" font-size="14.00"> &#160;</text>
<text text-anchor="start" x="255" y="-395.2" font-family="Helvetica,sans-Serif" font-weight="bold" font-size="16.00" fill="#707070">Target Diagram</text>
<g id="clust1" class="cluster">
<title>cluster_aws</title>
<polygon fill="#f5f5f5" stroke="#f5f5f5" points="8,-8 8,-373 620,-373 620,-8 8,-8"/>
<text text-anchor="start" x="252" y="-23" font-family="Helvetica,sans-Serif" font-weight="bold" font-size="20.00" fill="#707070">Provider aws</text>
</g>
<g id="clust2" class="cluster">
<title>cluster_aws_</title>
<polygon fill="#eeeeee" stroke="#eeeeee" points="16,-54 16,-365 612,-365 612,-54 16,-54"/>
<text text-anchor="start" x="313.86" y="-58.3" font-family="Helvetica,sans-Serif" font-size="1.00" fill="#383838"> </text>
</g>
<!-- Group::Admin -->
<g id="node1" class="node">
<title>Group::Admin</title>
<polygon fill="#e5e5e5" stroke="#dddddd" points="169.5,-357 57.5,-357 57.5,-299 169.5,-299 169.5,-357"/>
<text text-anchor="start" x="69.5" y="-337.2" font-family="Helvetica,sans-Serif" font-weight="bold" font-size="16.00" fill="#707070">IAM::Group</text>
<text text-anchor="start" x="69.5" y="-312.2" font-family="Helvetica,sans-Serif" font-size="16.00" fill="#383838">Admin</text>
</g>
<!-- Policy::myPolicy&#45;to&#45;group -->
<g id="node4" class="node">
<title>Policy::myPolicy&#45;to&#45;group</title>
<polygon fill="#e5e5e5" stroke="#dddddd" points="410.5,-357 255.5,-357 255.5,-299 410.5,-299 410.5,-357"/>
<text text-anchor="start" x="268" y="-337.2" font-family="Helvetica,sans-Serif" font-weight="bold" font-size="16.00" fill="#707070">IAM::Policy</text>
<text text-anchor="start" x="268" y="-312.2" font-family="Helvetica,sans-Serif" font-size="16.00" fill="#383838">myPolicy&#45;to&#45;group</text>
</g>
<!-- Group::Admin&#45;&gt;Policy::myPolicy&#45;to&#45;group -->
<g id="edge1" class="edge">
<title>Group::Admin&#45;&gt;Policy::myPolicy&#45;to&#45;group</title>
<path fill="none" stroke="#707070" d="M169.95,-328C192.43,-328 218.95,-328 243.96,-328"/>
<polygon fill="#707070" stroke="#707070" points="243.81,-331.5 253.81,-328 243.81,-324.5 243.81,-331.5"/>
</g>
<!-- InstanceProfile::my&#45;profile -->
<g id="node2" class="node">
<title>InstanceProfile::my&#45;profile</title>
<polygon fill="#e5e5e5" stroke="#dddddd" points="203,-281 24,-281 24,-223 203,-223 203,-281"/>
<text text-anchor="start" x="36.5" y="-261.2" font-family="Helvetica,sans-Serif" font-weight="bold" font-size="16.00" fill="#707070">IAM::InstanceProfile</text>
<text text-anchor="start" x="36.5" y="-236.2" font-family="Helvetica,sans-Serif" font-size="16.00" fill="#383838">my&#45;profile</text>
</g>
<!-- Role::role&#45;allow&#45;assume&#45;role -->
<g id="node3" class="node">
<title>Role::role&#45;allow&#45;assume&#45;role</title>
<polygon fill="#e5e5e5" stroke="#dddddd" points="427,-281 239,-281 239,-223 427,-223 427,-281"/>
<text text-anchor="start" x="251" y="-261.2" font-family="Helvetica,sans-Serif" font-weight="bold" font-size="16.00" fill="#707070">IAM::Role</text>
<text text-anchor="start" x="251" y="-236.2" font-family="Helvetica,sans-Serif" font-size="16.00" fill="#383838">role&#45;allow&#45;assume&#45;role</text>
</g>
<!-- InstanceProfile::my&#45;profile&#45;&gt;Role::role&#45;allow&#45;assume&#45;role -->
<g id="edge2" class="edge">
<title>InstanceProfile::my&#45;profile&#45;&gt;Role::role&#45;allow&#45;assume&#45;role</title>
<path fill="none" stroke="#707070" d="M203.28,-252C211.18,-252 219.23,-252 227.25,-252"/>
<polygon fill="#707070" stroke="#707070" points="227.04,-255.5 237.04,-252 227.04,-248.5 227.04,-255.5"/>
</g>
<!-- Policy::myPolicy&#45;to&#45;role -->
<g id="node5" class="node">
<title>Policy::myPolicy&#45;to&#45;role</title>
<polygon fill="#e5e5e5" stroke="#dddddd" points="604,-281 463,-281 463,-223 604,-223 604,-281"/>
<text text-anchor="start" x="475.5" y="-261.2" font-family="Helvetica,sans-Serif" font-weight="bold" font-size="16.00" fill="#707070">IAM::Policy</text>
<text text-anchor="start" x="475.5" y="-236.2" font-family="Helvetica,sans-Serif" font-size="16.00" fill="#383838">myPolicy&#45;to&#45;role</text>
</g>
<!-- Role::role&#45;allow&#45;assume&#45;role&#45;&gt;Policy::myPolicy&#45;to&#45;role -->
<g id="edge3" class="edge">
<title>Role::role&#45;allow&#45;assume&#45;role&#45;&gt;Policy::myPolicy&#45;to&#45;role</title>
<path fill="none" stroke="#707070" d="M427.44,-252C435.41,-252 443.43,-252 451.3,-252"/>
<polygon fill="#707070" stroke="#707070" points="451.17,-255.5 461.17,-252 451.17,-248.5 451.17,-255.5"/>
</g>
<!-- Policy::myPolicy&#45;to&#45;user -->
<g id="node6" class="node">
<title>Policy::myPolicy&#45;to&#45;user</title>
<polygon fill="#e5e5e5" stroke="#dddddd" points="186,-205 41,-205 41,-147 186,-147 186,-205"/>
<text text-anchor="start" x="53.5" y="-185.2" font-family="Helvetica,sans-Serif" font-weight="bold" font-size="16.00" fill="#707070">IAM::Policy</text>
<text text-anchor="start" x="53.5" y="-160.2" font-family="Helvetica,sans-Serif" font-size="16.00" fill="#383838">myPolicy&#45;to&#45;user</text>
</g>
<!-- User::Alice -->
<g id="node7" class="node">
<title>User::Alice</title>
<polygon fill="#e5e5e5" stroke="#dddddd" points="163.5,-129 63.5,-129 63.5,-71 163.5,-71 163.5,-129"/>
<text text-anchor="start" x="75.5" y="-109.2" font-family="Helvetica,sans-Serif" font-weight="bold" font-size="16.00" fill="#707070">IAM::User</text>
<text text-anchor="start" x="75.5" y="-84.2" font-family="Helvetica,sans-Serif" font-size="16.00" fill="#383838">Alice</text>
</g>
</g>
</svg>
