<?xml version="1.0" encoding="UTF-8" standalone="no"?>
<!DOCTYPE svg PUBLIC "-//W3C//DTD SVG 1.1//EN"
 "http://www.w3.org/Graphics/SVG/1.1/DTD/svg11.dtd">
<!-- Generated by graphviz version 2.44.1 (20200629.0846)
 -->
<!-- Title: graphname Pages: 1 -->
<svg width="911pt" height="541pt"
 viewBox="0.00 0.00 911.00 541.00" xmlns="http://www.w3.org/2000/svg" xmlns:xlink="http://www.w3.org/1999/xlink">
<g id="graph0" class="graph" transform="scale(1 1) rotate(0) translate(4 537)">
<title>graphname</title>
<polygon fill="#fafafa" stroke="transparent" points="-4,4 -4,-537 907,-537 907,4 -4,4"/>
<text text-anchor="start" x="392.5" y="-508.4" font-family="Helvetica,sans-Serif" font-weight="bold" font-size="22.00" fill="#383838">Project iam</text>
<text text-anchor="start" x="447.5" y="-492.8" font-family="Helvetica,sans-Serif" font-size="14.00"> &#160;</text>
<text text-anchor="start" x="392.5" y="-471.2" font-family="Helvetica,sans-Serif" font-weight="bold" font-size="16.00" fill="#707070">Live Diagram</text>
<g id="clust1" class="cluster">
<title>cluster_aws</title>
<polygon fill="#f5f5f5" stroke="#f5f5f5" points="8,-8 8,-449 895,-449 895,-8 8,-8"/>
<text text-anchor="start" x="389.5" y="-23" font-family="Helvetica,sans-Serif" font-weight="bold" font-size="20.00" fill="#707070">Provider aws</text>
</g>
<g id="clust2" class="cluster">
<title>cluster_aws_</title>
<polygon fill="#eeeeee" stroke="#eeeeee" points="16,-54 16,-441 887,-441 887,-54 16,-54"/>
<text text-anchor="start" x="451.36" y="-58.3" font-family="Helvetica,sans-Serif" font-size="1.00" fill="#383838"> </text>
</g>
<!-- Image::::Amazon Linux 2 -->
<g id="node1" class="node">
<title>Image::::Amazon Linux 2</title>
<polygon fill="#e5e5e5" stroke="#dddddd" points="351,-281 210,-281 210,-223 351,-223 351,-281"/>
<text text-anchor="start" x="222.5" y="-261.2" font-family="Helvetica,sans-Serif" font-weight="bold" font-size="16.00" fill="#707070">EC2::Image</text>
<text text-anchor="start" x="222.5" y="-236.2" font-family="Helvetica,sans-Serif" font-size="16.00" fill="#383838">Amazon Linux 2</text>
</g>
<!-- Instance::::web&#45;iam -->
<g id="node2" class="node">
<title>Instance::::web&#45;iam</title>
<polygon fill="#e5e5e5" stroke="#dddddd" points="155,-357 24,-357 24,-299 155,-299 155,-357"/>
<text text-anchor="start" x="36.5" y="-337.2" font-family="Helvetica,sans-Serif" font-weight="bold" font-size="16.00" fill="#707070">EC2::Instance</text>
<text text-anchor="start" x="36.5" y="-312.2" font-family="Helvetica,sans-Serif" font-size="16.00" fill="#383838">web&#45;iam</text>
</g>
<!-- Instance::::web&#45;iam&#45;&gt;Image::::Amazon Linux 2 -->
<g id="edge1" class="edge">
<title>Instance::::web&#45;iam&#45;&gt;Image::::Amazon Linux 2</title>
<path fill="none" stroke="#707070" d="M155.01,-302.06C169.63,-296.18 185.31,-289.88 200.44,-283.79"/>
<polygon fill="#707070" stroke="#707070" points="201.81,-287.01 209.78,-280.04 199.2,-280.52 201.81,-287.01"/>
</g>
<!-- Volume::::vol&#45;web&#45;iam -->
<g id="node3" class="node">
<title>Volume::::vol&#45;web&#45;iam</title>
<polygon fill="#e5e5e5" stroke="#dddddd" points="341.5,-357 219.5,-357 219.5,-299 341.5,-299 341.5,-357"/>
<text text-anchor="start" x="231.5" y="-337.2" font-family="Helvetica,sans-Serif" font-weight="bold" font-size="16.00" fill="#707070">EC2::Volume</text>
<text text-anchor="start" x="231.5" y="-312.2" font-family="Helvetica,sans-Serif" font-size="16.00" fill="#383838">vol&#45;web&#45;iam</text>
</g>
<!-- Instance::::web&#45;iam&#45;&gt;Volume::::vol&#45;web&#45;iam -->
<g id="edge2" class="edge">
<title>Instance::::web&#45;iam&#45;&gt;Volume::::vol&#45;web&#45;iam</title>
<path fill="none" stroke="#707070" d="M155.01,-328C172.45,-328 191.4,-328 209.13,-328"/>
<polygon fill="#707070" stroke="#707070" points="209.41,-331.5 219.41,-328 209.41,-324.5 209.41,-331.5"/>
</g>
<!-- InstanceProfile::::my&#45;profile -->
<g id="node5" class="node">
<title>InstanceProfile::::my&#45;profile</title>
<polygon fill="#e5e5e5" stroke="#dddddd" points="370,-433 191,-433 191,-375 370,-375 370,-433"/>
<text text-anchor="start" x="203.5" y="-413.2" font-family="Helvetica,sans-Serif" font-weight="bold" font-size="16.00" fill="#707070">IAM::InstanceProfile</text>
<text text-anchor="start" x="203.5" y="-388.2" font-family="Helvetica,sans-Serif" font-size="16.00" fill="#383838">my&#45;profile</text>
</g>
<!-- Instance::::web&#45;iam&#45;&gt;InstanceProfile::::my&#45;profile -->
<g id="edge3" class="edge">
<title>Instance::::web&#45;iam&#45;&gt;InstanceProfile::::my&#45;profile</title>
<path fill="none" stroke="#707070" d="M155.01,-353.94C168.79,-359.48 183.51,-365.4 197.83,-371.16"/>
<polygon fill="#707070" stroke="#707070" points="196.58,-374.43 207.17,-374.91 199.19,-367.93 196.58,-374.43"/>
</g>
<!-- Group::::Admin -->
<g id="node4" class="node">
<title>Group::::Admin</title>
<polygon fill="#e5e5e5" stroke="#dddddd" points="336.5,-129 224.5,-129 224.5,-71 336.5,-71 336.5,-129"/>
<text text-anchor="start" x="236.5" y="-109.2" font-family="Helvetica,sans-Serif" font-weight="bold" font-size="16.00" fill="#707070">IAM::Group</text>
<text text-anchor="start" x="236.5" y="-84.2" font-family="Helvetica,sans-Serif" font-size="16.00" fill="#383838">Admin</text>
</g>
<!-- Policy::::myPolicy&#45;to&#45;group -->
<g id="node7" class="node">
<title>Policy::::myPolicy&#45;to&#45;group</title>
<polygon fill="#e5e5e5" stroke="#dddddd" points="577.5,-129 422.5,-129 422.5,-71 577.5,-71 577.5,-129"/>
<text text-anchor="start" x="435" y="-109.2" font-family="Helvetica,sans-Serif" font-weight="bold" font-size="16.00" fill="#707070">IAM::Policy</text>
<text text-anchor="start" x="435" y="-84.2" font-family="Helvetica,sans-Serif" font-size="16.00" fill="#383838">myPolicy&#45;to&#45;group</text>
</g>
<!-- Group::::Admin&#45;&gt;Policy::::myPolicy&#45;to&#45;group -->
<g id="edge4" class="edge">
<title>Group::::Admin&#45;&gt;Policy::::myPolicy&#45;to&#45;group</title>
<path fill="none" stroke="#707070" d="M336.67,-100C359.55,-100 386.66,-100 412.11,-100"/>
<polygon fill="#707070" stroke="#707070" points="412.14,-103.5 422.14,-100 412.14,-96.5 412.14,-103.5"/>
</g>
<!-- Role::::role&#45;allow&#45;assume&#45;role -->
<g id="node10" class="node">
<title>Role::::role&#45;allow&#45;assume&#45;role</title>
<polygon fill="#e5e5e5" stroke="#dddddd" points="594,-433 406,-433 406,-375 594,-375 594,-433"/>
<text text-anchor="start" x="418" y="-413.2" font-family="Helvetica,sans-Serif" font-weight="bold" font-size="16.00" fill="#707070">IAM::Role</text>
<text text-anchor="start" x="418" y="-388.2" font-family="Helvetica,sans-Serif" font-size="16.00" fill="#383838">role&#45;allow&#45;assume&#45;role</text>
</g>
<!-- InstanceProfile::::my&#45;profile&#45;&gt;Role::::role&#45;allow&#45;assume&#45;role -->
<g id="edge5" class="edge">
<title>InstanceProfile::::my&#45;profile&#45;&gt;Role::::role&#45;allow&#45;assume&#45;role</title>
<path fill="none" stroke="#707070" d="M370.28,-404C378.72,-404 387.33,-404 395.89,-404"/>
<polygon fill="#707070" stroke="#707070" points="395.91,-407.5 405.91,-404 395.91,-400.5 395.91,-407.5"/>
</g>
<!-- Policy::::AmazonEKSWorkerNodePolicy -->
<g id="node6" class="node">
<title>Policy::::AmazonEKSWorkerNodePolicy</title>
<polygon fill="#e5e5e5" stroke="#dddddd" points="879,-357 630,-357 630,-299 879,-299 879,-357"/>
<text text-anchor="start" x="642.5" y="-337.2" font-family="Helvetica,sans-Serif" font-weight="bold" font-size="16.00" fill="#707070">IAM::Policy</text>
<text text-anchor="start" x="642.5" y="-312.2" font-family="Helvetica,sans-Serif" font-size="16.00" fill="#383838">AmazonEKSWorkerNodePolicy</text>
</g>
<!-- Policy::::myPolicy&#45;to&#45;role -->
<g id="node8" class="node">
<title>Policy::::myPolicy&#45;to&#45;role</title>
<polygon fill="#e5e5e5" stroke="#dddddd" points="825,-433 684,-433 684,-375 825,-375 825,-433"/>
<text text-anchor="start" x="696.5" y="-413.2" font-family="Helvetica,sans-Serif" font-weight="bold" font-size="16.00" fill="#707070">IAM::Policy</text>
<text text-anchor="start" x="696.5" y="-388.2" font-family="Helvetica,sans-Serif" font-size="16.00" fill="#383838">myPolicy&#45;to&#45;role</text>
</g>
<!-- Policy::::myPolicy&#45;to&#45;user -->
<g id="node9" class="node">
<title>Policy::::myPolicy&#45;to&#45;user</title>
<polygon fill="#e5e5e5" stroke="#dddddd" points="353,-205 208,-205 208,-147 353,-147 353,-205"/>
<text text-anchor="start" x="220.5" y="-185.2" font-family="Helvetica,sans-Serif" font-weight="bold" font-size="16.00" fill="#707070">IAM::Policy</text>
<text text-anchor="start" x="220.5" y="-160.2" font-family="Helvetica,sans-Serif" font-size="16.00" fill="#383838">myPolicy&#45;to&#45;user</text>
</g>
<!-- Role::::role&#45;allow&#45;assume&#45;role&#45;&gt;Policy::::AmazonEKSWorkerNodePolicy -->
<g id="edge7" class="edge">
<title>Role::::role&#45;allow&#45;assume&#45;role&#45;&gt;Policy::::AmazonEKSWorkerNodePolicy</title>
<path fill="none" stroke="#707070" d="M594.3,-375.92C611.49,-370.74 629.55,-365.31 647.09,-360.03"/>
<polygon fill="#707070" stroke="#707070" points="648.21,-363.35 656.78,-357.11 646.19,-356.64 648.21,-363.35"/>
</g>
<!-- Role::::role&#45;allow&#45;assume&#45;role&#45;&gt;Policy::::myPolicy&#45;to&#45;role -->
<g id="edge6" class="edge">
<title>Role::::role&#45;allow&#45;assume&#45;role&#45;&gt;Policy::::myPolicy&#45;to&#45;role</title>
<path fill="none" stroke="#707070" d="M594.3,-404C620.36,-404 648.42,-404 673.62,-404"/>
<polygon fill="#707070" stroke="#707070" points="673.86,-407.5 683.86,-404 673.86,-400.5 673.86,-407.5"/>
</g>
<!-- User::::Alice -->
<g id="node11" class="node">
<title>User::::Alice</title>
<polygon fill="#e5e5e5" stroke="#dddddd" points="139.5,-167 39.5,-167 39.5,-109 139.5,-109 139.5,-167"/>
<text text-anchor="start" x="51.5" y="-147.2" font-family="Helvetica,sans-Serif" font-weight="bold" font-size="16.00" fill="#707070">IAM::User</text>
<text text-anchor="start" x="51.5" y="-122.2" font-family="Helvetica,sans-Serif" font-size="16.00" fill="#383838">Alice</text>
</g>
<!-- User::::Alice&#45;&gt;Group::::Admin -->
<g id="edge9" class="edge">
<title>User::::Alice&#45;&gt;Group::::Admin</title>
<path fill="none" stroke="#707070" d="M139.66,-128.12C162.45,-123.53 189.84,-118.03 214.31,-113.11"/>
<polygon fill="#707070" stroke="#707070" points="215.13,-116.51 224.25,-111.11 213.75,-109.65 215.13,-116.51"/>
</g>
<!-- User::::Alice&#45;&gt;Policy::::myPolicy&#45;to&#45;user -->
<g id="edge8" class="edge">
<title>User::::Alice&#45;&gt;Policy::::myPolicy&#45;to&#45;user</title>
<path fill="none" stroke="#707070" d="M139.66,-147.88C157.44,-151.46 178.02,-155.6 197.84,-159.58"/>
<polygon fill="#707070" stroke="#707070" points="197.31,-163.04 207.8,-161.58 198.69,-156.18 197.31,-163.04"/>
</g>
</g>
</svg>
