<?xml version="1.0" encoding="UTF-8" standalone="no"?><svg xmlns="http://www.w3.org/2000/svg" xmlns:xlink="http://www.w3.org/1999/xlink" contentScriptType="application/ecmascript" contentStyleType="text/css" height="454px" preserveAspectRatio="none" style="width:466px;height:454px;background:#FFFFFF;" version="1.1" viewBox="0 0 466 454" width="466px" zoomAndPan="magnify"><defs><filter height="300%" id="f37du0wv4dlby" width="300%" x="-1" y="-1"><feGaussianBlur result="blurOut" stdDeviation="2.0"/><feColorMatrix in="blurOut" result="blurOut2" type="matrix" values="0 0 0 0 0 0 0 0 0 0 0 0 0 0 0 0 0 0 .4 0"/><feOffset dx="4.0" dy="4.0" in="blurOut2" result="blurOut3"/><feBlend in="SourceGraphic" in2="blurOut3" mode="normal"/></filter></defs><g><rect fill="none" height="26.4883" style="stroke:none;stroke-width:1.0;" width="196" x="105" y="15"/><text fill="#000000" font-family="sans-serif" font-size="14" font-weight="bold" lengthAdjust="spacing" textLength="186" x="110" y="33.5352">Resources for project iam</text><rect fill="#F8F8F8" filter="url(#f37du0wv4dlby)" height="36.4883" rx="12.5" ry="12.5" style="stroke:#383838;stroke-width:1.5;" width="52" x="10" y="226.9531"/><text fill="#000000" font-family="sans-serif" font-size="14" lengthAdjust="spacing" textLength="32" x="20" y="250.4883">Infra</text><rect fill="#F8F8F8" filter="url(#f37du0wv4dlby)" height="36.4883" rx="12.5" ry="12.5" style="stroke:#383838;stroke-width:1.5;" width="46" x="112" y="226.9531"/><text fill="#000000" font-family="sans-serif" font-size="14" lengthAdjust="spacing" textLength="26" x="122" y="250.4883">aws</text><rect fill="#F8F8F8" filter="url(#f37du0wv4dlby)" height="36.4883" rx="12.5" ry="12.5" style="stroke:#383838;stroke-width:1.5;" width="45" x="208" y="170.4648"/><text fill="#000000" font-family="sans-serif" font-size="14" lengthAdjust="spacing" textLength="25" x="218" y="194">iam</text><rect fill="#F8F8F8" filter="url(#f37du0wv4dlby)" height="36.4883" rx="12.5" ry="12.5" style="stroke:#383838;stroke-width:1.5;" width="82" x="303" y="57.4883"/><text fill="#000000" font-family="sans-serif" font-size="14" lengthAdjust="spacing" textLength="62" x="313" y="81.0234">Policy (4)</text><path d="M253,188.709 L263,188.709 C278,188.709 278,75.7324 293,75.7324 L303,75.7324 " fill="none" style="stroke:#383838;stroke-width:1.0;"/><rect fill="#F8F8F8" filter="url(#f37du0wv4dlby)" height="36.4883" rx="12.5" ry="12.5" style="stroke:#383838;stroke-width:1.5;" width="86" x="303" y="113.9766"/><text fill="#000000" font-family="sans-serif" font-size="14" lengthAdjust="spacing" textLength="66" x="313" y="137.5117">Group (1)</text><path d="M253,188.709 L263,188.709 C278,188.709 278,132.2207 293,132.2207 L303,132.2207 " fill="none" style="stroke:#383838;stroke-width:1.0;"/><rect fill="#F8F8F8" filter="url(#f37du0wv4dlby)" height="36.4883" rx="12.5" ry="12.5" style="stroke:#383838;stroke-width:1.5;" width="74" x="303" y="170.4648"/><text fill="#000000" font-family="sans-serif" font-size="14" lengthAdjust="spacing" textLength="54" x="313" y="194">User (1)</text><path d="M253,188.709 L263,188.709 C278,188.709 278,188.709 293,188.709 L303,188.709 " fill="none" style="stroke:#383838;stroke-width:1.0;"/><rect fill="#F8F8F8" filter="url(#f37du0wv4dlby)" height="36.4883" rx="12.5" ry="12.5" style="stroke:#383838;stroke-width:1.5;" width="73" x="303" y="226.9531"/><text fill="#000000" font-family="sans-serif" font-size="14" lengthAdjust="spacing" textLength="53" x="313" y="250.4883">Role (1)</text><path d="M253,188.709 L263,188.709 C278,188.709 278,245.1973 293,245.1973 L303,245.1973 " fill="none" style="stroke:#383838;stroke-width:1.0;"/><rect fill="#F8F8F8" filter="url(#f37du0wv4dlby)" height="36.4883" rx="12.5" ry="12.5" style="stroke:#383838;stroke-width:1.5;" width="144" x="303" y="283.4414"/><text fill="#000000" font-family="sans-serif" font-size="14" lengthAdjust="spacing" textLength="124" x="313" y="306.9766">InstanceProfile (1)</text><path d="M253,188.709 L263,188.709 C278,188.709 278,301.6855 293,301.6855 L303,301.6855 " fill="none" style="stroke:#383838;stroke-width:1.0;"/><path d="M158,245.1973 L168,245.1973 C183,245.1973 183,188.709 198,188.709 L208,188.709 " fill="none" style="stroke:#383838;stroke-width:1.0;"/><rect fill="#F8F8F8" filter="url(#f37du0wv4dlby)" height="36.4883" rx="12.5" ry="12.5" style="stroke:#383838;stroke-width:1.5;" width="44" x="208" y="368.1738"/><text fill="#000000" font-family="sans-serif" font-size="14" lengthAdjust="spacing" textLength="24" x="218" y="391.709">ec2</text><rect fill="#F8F8F8" filter="url(#f37du0wv4dlby)" height="36.4883" rx="12.5" ry="12.5" style="stroke:#383838;stroke-width:1.5;" width="85" x="302" y="339.9297"/><text fill="#000000" font-family="sans-serif" font-size="14" lengthAdjust="spacing" textLength="65" x="312" y="363.4648">Image (1)</text><path d="M252,386.418 L262,386.418 C277,386.418 277,358.1738 292,358.1738 L302,358.1738 " fill="none" style="stroke:#383838;stroke-width:1.0;"/><rect fill="#F8F8F8" filter="url(#f37du0wv4dlby)" height="36.4883" rx="12.5" ry="12.5" style="stroke:#383838;stroke-width:1.5;" width="100" x="302" y="396.418"/><text fill="#000000" font-family="sans-serif" font-size="14" lengthAdjust="spacing" textLength="80" x="312" y="419.9531">Instance (1)</text><path d="M252,386.418 L262,386.418 C277,386.418 277,414.6621 292,414.6621 L302,414.6621 " fill="none" style="stroke:#383838;stroke-width:1.0;"/><path d="M158,245.1973 L168,245.1973 C183,245.1973 183,386.418 198,386.418 L208,386.418 " fill="none" style="stroke:#383838;stroke-width:1.0;"/><path d="M62,245.1973 L72,245.1973 C87,245.1973 87,245.1973 102,245.1973 L112,245.1973 " fill="none" style="stroke:#383838;stroke-width:1.0;"/><!--MD5=[07a71550647bb6a34237c5e571e85cb4]
@startmindmap
title Resources for project iam
skinparam monochrome true
+ Infra
++ aws
+++ iam
++++ Policy (4)
++++ Group (1)
++++ User (1)
++++ Role (1)
++++ InstanceProfile (1)
+++ ec2
++++ Image (1)
++++ Instance (1)
@endmindmap

PlantUML version 1.2021.8(Sat Jun 26 05:20:59 BRT 2021)
(GPL source distribution)
Java Runtime: OpenJDK Runtime Environment
JVM: OpenJDK 64-Bit Server VM
Default Encoding: UTF-8
Language: en
Country: GB
--></g></svg>