<?xml version="1.0" encoding="UTF-8" standalone="no"?>
<!DOCTYPE svg PUBLIC "-//W3C//DTD SVG 1.1//EN"
 "http://www.w3.org/Graphics/SVG/1.1/DTD/svg11.dtd">
<!-- Generated by graphviz version 3.0.0 (20220226.1711)
 -->
<!-- Title: graphname Pages: 1 -->
<svg width="1188pt" height="541pt"
 viewBox="0.00 0.00 1188.00 541.00" xmlns="http://www.w3.org/2000/svg" xmlns:xlink="http://www.w3.org/1999/xlink">
<g id="graph0" class="graph" transform="scale(1 1) rotate(0) translate(4 537)">
<title>graphname</title>
<polygon fill="#fafafa" stroke="transparent" points="-4,4 -4,-537 1184,-537 1184,4 -4,4"/>
<text text-anchor="start" x="376" y="-508.4" font-family="Helvetica,sans-Serif" font-weight="bold" font-size="22.00" fill="#383838">Project auroraserverless&#45;secretsmanager</text>
<text text-anchor="start" x="586.5" y="-492.8" font-family="Helvetica,sans-Serif" font-size="14.00"> &#160;</text>
<text text-anchor="start" x="376" y="-471.2" font-family="Helvetica,sans-Serif" font-weight="bold" font-size="16.00" fill="#707070">Live Diagram</text>
<g id="clust1" class="cluster">
<title>cluster_aws</title>
<polygon fill="#f5f5f5" stroke="#f5f5f5" points="8,-8 8,-449 1172,-449 1172,-8 8,-8"/>
<text text-anchor="start" x="528" y="-23" font-family="Helvetica,sans-Serif" font-weight="bold" font-size="20.00" fill="#707070">Provider aws</text>
</g>
<g id="clust2" class="cluster">
<title>cluster_aws_</title>
<polygon fill="#eeeeee" stroke="#eeeeee" points="16,-54 16,-441 1164,-441 1164,-54 16,-54"/>
<text text-anchor="start" x="589.86" y="-58.3" font-family="Helvetica,sans-Serif" font-size="1.00" fill="#383838"> </text>
</g>
<!-- LogGroup::::/aws/rds/cluster/aurora&#45;serverless/error -->
<g id="node1" class="node">
<title>LogGroup::::/aws/rds/cluster/aurora&#45;serverless/error</title>
<polygon fill="#e5e5e5" stroke="#dddddd" points="305.5,-433 40.5,-433 40.5,-375 305.5,-375 305.5,-433"/>
<text text-anchor="start" x="53" y="-413.2" font-family="Helvetica,sans-Serif" font-weight="bold" font-size="16.00" fill="#707070">CloudWatchLogs::LogGroup</text>
<text text-anchor="start" x="53" y="-388.2" font-family="Helvetica,sans-Serif" font-size="16.00" fill="#383838">/aws/rds/cluster/aurora&#45;serverle...</text>
</g>
<!-- RouteTable::::VpcauroraisolatedSubnet1RouteTableA8F6E99C -->
<g id="node2" class="node">
<title>RouteTable::::VpcauroraisolatedSubnet1RouteTableA8F6E99C</title>
<polygon fill="#e5e5e5" stroke="#dddddd" points="656,-377 358,-377 358,-319 656,-319 656,-377"/>
<text text-anchor="start" x="370" y="-357.2" font-family="Helvetica,sans-Serif" font-weight="bold" font-size="16.00" fill="#707070">EC2::RouteTable</text>
<text text-anchor="start" x="370" y="-332.2" font-family="Helvetica,sans-Serif" font-size="16.00" fill="#383838">VpcauroraisolatedSubnet1RouteTab...</text>
</g>
<!-- Subnet::::VpcauroraisolatedSubnet1Subnet5370B90B -->
<g id="node6" class="node">
<title>Subnet::::VpcauroraisolatedSubnet1Subnet5370B90B</title>
<polygon fill="#e5e5e5" stroke="#dddddd" points="991.5,-325 693.5,-325 693.5,-267 991.5,-267 991.5,-325"/>
<text text-anchor="start" x="705.5" y="-305.2" font-family="Helvetica,sans-Serif" font-weight="bold" font-size="16.00" fill="#707070">EC2::Subnet</text>
<text text-anchor="start" x="705.5" y="-280.2" font-family="Helvetica,sans-Serif" font-size="16.00" fill="#383838">VpcauroraisolatedSubnet1Subnet53...</text>
</g>
<!-- RouteTable::::VpcauroraisolatedSubnet1RouteTableA8F6E99C&#45;&gt;Subnet::::VpcauroraisolatedSubnet1Subnet5370B90B -->
<g id="edge2" class="edge">
<title>RouteTable::::VpcauroraisolatedSubnet1RouteTableA8F6E99C&#45;&gt;Subnet::::VpcauroraisolatedSubnet1Subnet5370B90B</title>
<path fill="none" stroke="#707070" d="M656.22,-324.89C665.19,-323.49 674.24,-322.08 683.25,-320.67"/>
<polygon fill="#707070" stroke="#707070" points="684.07,-324.09 693.41,-319.09 682.99,-317.17 684.07,-324.09"/>
</g>
<!-- Vpc::::Vpc8378EB38 -->
<g id="node8" class="node">
<title>Vpc::::Vpc8378EB38</title>
<polygon fill="#e5e5e5" stroke="#dddddd" points="1156,-284 1029,-284 1029,-226 1156,-226 1156,-284"/>
<text text-anchor="start" x="1041.5" y="-264.2" font-family="Helvetica,sans-Serif" font-weight="bold" font-size="16.00" fill="#707070">EC2::Vpc</text>
<text text-anchor="start" x="1041.5" y="-239.2" font-family="Helvetica,sans-Serif" font-size="16.00" fill="#383838">Vpc8378EB38</text>
</g>
<!-- RouteTable::::VpcauroraisolatedSubnet1RouteTableA8F6E99C&#45;&gt;Vpc::::Vpc8378EB38 -->
<g id="edge1" class="edge">
<title>RouteTable::::VpcauroraisolatedSubnet1RouteTableA8F6E99C&#45;&gt;Vpc::::Vpc8378EB38</title>
<path fill="none" stroke="#707070" d="M656.11,-367.66C754.6,-375.03 885.18,-373.65 993,-334 1017.26,-325.08 1040.08,-307.61 1057.63,-291.36"/>
<polygon fill="#707070" stroke="#707070" points="1060.5,-293.46 1065.31,-284.02 1055.66,-288.4 1060.5,-293.46"/>
</g>
<!-- RouteTable::::VpcauroraisolatedSubnet2RouteTableBF363B67 -->
<g id="node3" class="node">
<title>RouteTable::::VpcauroraisolatedSubnet2RouteTableBF363B67</title>
<polygon fill="#e5e5e5" stroke="#dddddd" points="656,-185 358,-185 358,-127 656,-127 656,-185"/>
<text text-anchor="start" x="370" y="-165.2" font-family="Helvetica,sans-Serif" font-weight="bold" font-size="16.00" fill="#707070">EC2::RouteTable</text>
<text text-anchor="start" x="370" y="-140.2" font-family="Helvetica,sans-Serif" font-size="16.00" fill="#383838">VpcauroraisolatedSubnet2RouteTab...</text>
</g>
<!-- Subnet::::VpcauroraisolatedSubnet2SubnetCB56E2A8 -->
<g id="node7" class="node">
<title>Subnet::::VpcauroraisolatedSubnet2SubnetCB56E2A8</title>
<polygon fill="#e5e5e5" stroke="#dddddd" points="993,-244 692,-244 692,-186 993,-186 993,-244"/>
<text text-anchor="start" x="704.5" y="-224.2" font-family="Helvetica,sans-Serif" font-weight="bold" font-size="16.00" fill="#707070">EC2::Subnet</text>
<text text-anchor="start" x="704.5" y="-199.2" font-family="Helvetica,sans-Serif" font-size="16.00" fill="#383838">VpcauroraisolatedSubnet2SubnetCB...</text>
</g>
<!-- RouteTable::::VpcauroraisolatedSubnet2RouteTableBF363B67&#45;&gt;Subnet::::VpcauroraisolatedSubnet2SubnetCB56E2A8 -->
<g id="edge4" class="edge">
<title>RouteTable::::VpcauroraisolatedSubnet2RouteTableBF363B67&#45;&gt;Subnet::::VpcauroraisolatedSubnet2SubnetCB56E2A8</title>
<path fill="none" stroke="#707070" d="M656.22,-182.22C664.72,-183.73 673.29,-185.24 681.83,-186.75"/>
<polygon fill="#707070" stroke="#707070" points="681.39,-190.23 691.84,-188.52 682.61,-183.34 681.39,-190.23"/>
</g>
<!-- RouteTable::::VpcauroraisolatedSubnet2RouteTableBF363B67&#45;&gt;Vpc::::Vpc8378EB38 -->
<g id="edge3" class="edge">
<title>RouteTable::::VpcauroraisolatedSubnet2RouteTableBF363B67&#45;&gt;Vpc::::Vpc8378EB38</title>
<path fill="none" stroke="#707070" d="M656.18,-139.19C754.7,-133.55 885.29,-136.89 993,-177 1016.75,-185.85 1039.24,-202.73 1056.71,-218.54"/>
<polygon fill="#707070" stroke="#707070" points="1054.67,-221.43 1064.37,-225.69 1059.45,-216.31 1054.67,-221.43"/>
</g>
<!-- RouteTableAssociation::::rt&#45;assoc::VpcauroraisolatedSubnet1RouteTableA8F6E99C::VpcauroraisolatedSubnet1Subnet5370B90B -->
<g id="node4" class="node">
<title>RouteTableAssociation::::rt&#45;assoc::VpcauroraisolatedSubnet1RouteTableA8F6E99C::VpcauroraisolatedSubnet1Subnet5370B90B</title>
<polygon fill="#e5e5e5" stroke="#dddddd" points="314,-357 32,-357 32,-299 314,-299 314,-357"/>
<text text-anchor="start" x="44" y="-337.2" font-family="Helvetica,sans-Serif" font-weight="bold" font-size="16.00" fill="#707070">EC2::RouteTableAssociation</text>
<text text-anchor="start" x="44" y="-312.2" font-family="Helvetica,sans-Serif" font-size="16.00" fill="#383838">rt&#45;assoc::VpcauroraisolatedSubne...</text>
</g>
<!-- RouteTableAssociation::::rt&#45;assoc::VpcauroraisolatedSubnet1RouteTableA8F6E99C::VpcauroraisolatedSubnet1Subnet5370B90B&#45;&gt;RouteTable::::VpcauroraisolatedSubnet1RouteTableA8F6E99C -->
<g id="edge5" class="edge">
<title>RouteTableAssociation::::rt&#45;assoc::VpcauroraisolatedSubnet1RouteTableA8F6E99C::VpcauroraisolatedSubnet1Subnet5370B90B&#45;&gt;RouteTable::::VpcauroraisolatedSubnet1RouteTableA8F6E99C</title>
<path fill="none" stroke="#707070" d="M314.32,-336.45C325.36,-337.12 336.56,-337.79 347.71,-338.46"/>
<polygon fill="#707070" stroke="#707070" points="347.74,-341.97 357.93,-339.08 348.16,-334.99 347.74,-341.97"/>
</g>
<!-- RouteTableAssociation::::rt&#45;assoc::VpcauroraisolatedSubnet1RouteTableA8F6E99C::VpcauroraisolatedSubnet1Subnet5370B90B&#45;&gt;Subnet::::VpcauroraisolatedSubnet1Subnet5370B90B -->
<g id="edge6" class="edge">
<title>RouteTableAssociation::::rt&#45;assoc::VpcauroraisolatedSubnet1RouteTableA8F6E99C::VpcauroraisolatedSubnet1Subnet5370B90B&#45;&gt;Subnet::::VpcauroraisolatedSubnet1Subnet5370B90B</title>
<path fill="none" stroke="#707070" d="M314.06,-313.29C328.89,-312.04 343.75,-310.9 358,-310 466.36,-303.14 588.59,-299.64 683.04,-297.85"/>
<polygon fill="#707070" stroke="#707070" points="683.32,-301.35 693.25,-297.66 683.19,-294.35 683.32,-301.35"/>
</g>
<!-- RouteTableAssociation::::rt&#45;assoc::VpcauroraisolatedSubnet2RouteTableBF363B67::VpcauroraisolatedSubnet2SubnetCB56E2A8 -->
<g id="node5" class="node">
<title>RouteTableAssociation::::rt&#45;assoc::VpcauroraisolatedSubnet2RouteTableBF363B67::VpcauroraisolatedSubnet2SubnetCB56E2A8</title>
<polygon fill="#e5e5e5" stroke="#dddddd" points="314,-205 32,-205 32,-147 314,-147 314,-205"/>
<text text-anchor="start" x="44" y="-185.2" font-family="Helvetica,sans-Serif" font-weight="bold" font-size="16.00" fill="#707070">EC2::RouteTableAssociation</text>
<text text-anchor="start" x="44" y="-160.2" font-family="Helvetica,sans-Serif" font-size="16.00" fill="#383838">rt&#45;assoc::VpcauroraisolatedSubne...</text>
</g>
<!-- RouteTableAssociation::::rt&#45;assoc::VpcauroraisolatedSubnet2RouteTableBF363B67::VpcauroraisolatedSubnet2SubnetCB56E2A8&#45;&gt;RouteTable::::VpcauroraisolatedSubnet2RouteTableBF363B67 -->
<g id="edge7" class="edge">
<title>RouteTableAssociation::::rt&#45;assoc::VpcauroraisolatedSubnet2RouteTableBF363B67::VpcauroraisolatedSubnet2SubnetCB56E2A8&#45;&gt;RouteTable::::VpcauroraisolatedSubnet2RouteTableBF363B67</title>
<path fill="none" stroke="#707070" d="M314.32,-167.55C325.36,-166.88 336.56,-166.21 347.71,-165.54"/>
<polygon fill="#707070" stroke="#707070" points="348.16,-169.01 357.93,-164.92 347.74,-162.03 348.16,-169.01"/>
</g>
<!-- RouteTableAssociation::::rt&#45;assoc::VpcauroraisolatedSubnet2RouteTableBF363B67::VpcauroraisolatedSubnet2SubnetCB56E2A8&#45;&gt;Subnet::::VpcauroraisolatedSubnet2SubnetCB56E2A8 -->
<g id="edge8" class="edge">
<title>RouteTableAssociation::::rt&#45;assoc::VpcauroraisolatedSubnet2RouteTableBF363B67::VpcauroraisolatedSubnet2SubnetCB56E2A8&#45;&gt;Subnet::::VpcauroraisolatedSubnet2SubnetCB56E2A8</title>
<path fill="none" stroke="#707070" d="M314.08,-190.5C328.9,-191.79 343.75,-192.99 358,-194 465.85,-201.61 587.45,-206.88 681.72,-210.23"/>
<polygon fill="#707070" stroke="#707070" points="681.8,-213.74 691.91,-210.59 682.04,-206.74 681.8,-213.74"/>
</g>
<!-- Subnet::::VpcauroraisolatedSubnet1Subnet5370B90B&#45;&gt;Vpc::::Vpc8378EB38 -->
<g id="edge9" class="edge">
<title>Subnet::::VpcauroraisolatedSubnet1Subnet5370B90B&#45;&gt;Vpc::::Vpc8378EB38</title>
<path fill="none" stroke="#707070" d="M991.7,-271.5C1000.99,-269.96 1010.1,-268.46 1018.8,-267.02"/>
<polygon fill="#707070" stroke="#707070" points="1019.51,-270.45 1028.8,-265.36 1018.37,-263.54 1019.51,-270.45"/>
</g>
<!-- Subnet::::VpcauroraisolatedSubnet2SubnetCB56E2A8&#45;&gt;Vpc::::Vpc8378EB38 -->
<g id="edge10" class="edge">
<title>Subnet::::VpcauroraisolatedSubnet2SubnetCB56E2A8&#45;&gt;Vpc::::Vpc8378EB38</title>
<path fill="none" stroke="#707070" d="M993.13,-239.13C1002,-240.56 1010.69,-241.97 1019,-243.31"/>
<polygon fill="#707070" stroke="#707070" points="1018.52,-246.77 1028.95,-244.91 1019.63,-239.86 1018.52,-246.77"/>
</g>
<!-- DBCluster::::aurora&#45;serverless -->
<g id="node9" class="node">
<title>DBCluster::::aurora&#45;serverless</title>
<polygon fill="#e5e5e5" stroke="#dddddd" points="248.5,-281 97.5,-281 97.5,-223 248.5,-223 248.5,-281"/>
<text text-anchor="start" x="110" y="-261.2" font-family="Helvetica,sans-Serif" font-weight="bold" font-size="16.00" fill="#707070">RDS::DBCluster</text>
<text text-anchor="start" x="110" y="-236.2" font-family="Helvetica,sans-Serif" font-size="16.00" fill="#383838">aurora&#45;serverless</text>
</g>
<!-- DBSubnetGroup::::aurora&#45;serverless&#45;subnet&#45;group -->
<g id="node10" class="node">
<title>DBSubnetGroup::::aurora&#45;serverless&#45;subnet&#45;group</title>
<polygon fill="#e5e5e5" stroke="#dddddd" points="632.5,-281 381.5,-281 381.5,-223 632.5,-223 632.5,-281"/>
<text text-anchor="start" x="394" y="-261.2" font-family="Helvetica,sans-Serif" font-weight="bold" font-size="16.00" fill="#707070">RDS::DBSubnetGroup</text>
<text text-anchor="start" x="394" y="-236.2" font-family="Helvetica,sans-Serif" font-size="16.00" fill="#383838">aurora&#45;serverless&#45;subnet&#45;group</text>
</g>
<!-- DBCluster::::aurora&#45;serverless&#45;&gt;DBSubnetGroup::::aurora&#45;serverless&#45;subnet&#45;group -->
<g id="edge11" class="edge">
<title>DBCluster::::aurora&#45;serverless&#45;&gt;DBSubnetGroup::::aurora&#45;serverless&#45;subnet&#45;group</title>
<path fill="none" stroke="#707070" d="M248.51,-252C284.7,-252 329.34,-252 371.22,-252"/>
<polygon fill="#707070" stroke="#707070" points="371.23,-255.5 381.23,-252 371.23,-248.5 371.23,-255.5"/>
</g>
<!-- DBSubnetGroup::::aurora&#45;serverless&#45;subnet&#45;group&#45;&gt;Subnet::::VpcauroraisolatedSubnet1Subnet5370B90B -->
<g id="edge13" class="edge">
<title>DBSubnetGroup::::aurora&#45;serverless&#45;subnet&#45;group&#45;&gt;Subnet::::VpcauroraisolatedSubnet1Subnet5370B90B</title>
<path fill="none" stroke="#707070" d="M632.66,-268.45C649.21,-270.63 666.35,-272.89 683.37,-275.14"/>
<polygon fill="#707070" stroke="#707070" points="683,-278.62 693.37,-276.46 683.91,-271.68 683,-278.62"/>
</g>
<!-- DBSubnetGroup::::aurora&#45;serverless&#45;subnet&#45;group&#45;&gt;Subnet::::VpcauroraisolatedSubnet2SubnetCB56E2A8 -->
<g id="edge12" class="edge">
<title>DBSubnetGroup::::aurora&#45;serverless&#45;subnet&#45;group&#45;&gt;Subnet::::VpcauroraisolatedSubnet2SubnetCB56E2A8</title>
<path fill="none" stroke="#707070" d="M632.66,-238.17C648.67,-236.39 665.23,-234.56 681.71,-232.73"/>
<polygon fill="#707070" stroke="#707070" points="682.39,-236.17 691.95,-231.59 681.62,-229.22 682.39,-236.17"/>
</g>
<!-- Secret::::demordsservice&#45;demostage&#45;credentials -->
<g id="node11" class="node">
<title>Secret::::demordsservice&#45;demostage&#45;credentials</title>
<polygon fill="#e5e5e5" stroke="#dddddd" points="322,-129 24,-129 24,-71 322,-71 322,-129"/>
<text text-anchor="start" x="36" y="-109.2" font-family="Helvetica,sans-Serif" font-weight="bold" font-size="16.00" fill="#707070">SecretsManager::Secret</text>
<text text-anchor="start" x="36" y="-84.2" font-family="Helvetica,sans-Serif" font-size="16.00" fill="#383838">demordsservice&#45;demostage&#45;credent...</text>
</g>
</g>
</svg>
