<?xml version="1.0" encoding="UTF-8" standalone="no"?>
<!DOCTYPE svg PUBLIC "-//W3C//DTD SVG 1.1//EN"
 "http://www.w3.org/Graphics/SVG/1.1/DTD/svg11.dtd">
<!-- Generated by graphviz version 3.0.0 (20220226.1711)
 -->
<!-- Title: graphname Pages: 1 -->
<svg width="1154pt" height="465pt"
 viewBox="0.00 0.00 1154.00 465.00" xmlns="http://www.w3.org/2000/svg" xmlns:xlink="http://www.w3.org/1999/xlink">
<g id="graph0" class="graph" transform="scale(1 1) rotate(0) translate(4 461)">
<title>graphname</title>
<polygon fill="#fafafa" stroke="transparent" points="-4,4 -4,-461 1150,-461 1150,4 -4,4"/>
<text text-anchor="start" x="359" y="-432.4" font-family="Helvetica,sans-Serif" font-weight="bold" font-size="22.00" fill="#383838">Project auroraserverless&#45;secretsmanager</text>
<text text-anchor="start" x="569.5" y="-416.8" font-family="Helvetica,sans-Serif" font-size="14.00"> &#160;</text>
<text text-anchor="start" x="359" y="-395.2" font-family="Helvetica,sans-Serif" font-weight="bold" font-size="16.00" fill="#707070">Target Diagram</text>
<g id="clust1" class="cluster">
<title>cluster_aws</title>
<polygon fill="#f5f5f5" stroke="#f5f5f5" points="8,-8 8,-373 1138,-373 1138,-8 8,-8"/>
<text text-anchor="start" x="511" y="-23" font-family="Helvetica,sans-Serif" font-weight="bold" font-size="20.00" fill="#707070">Provider aws</text>
</g>
<g id="clust2" class="cluster">
<title>cluster_aws_</title>
<polygon fill="#eeeeee" stroke="#eeeeee" points="16,-54 16,-365 1130,-365 1130,-54 16,-54"/>
<text text-anchor="start" x="572.86" y="-58.3" font-family="Helvetica,sans-Serif" font-size="1.00" fill="#383838"> </text>
</g>
<!-- LogGroup::/aws/rds/cluster/aurora&#45;serverless/error -->
<g id="node1" class="node">
<title>LogGroup::/aws/rds/cluster/aurora&#45;serverless/error</title>
<polygon fill="#e5e5e5" stroke="#dddddd" points="289,-338 24,-338 24,-280 289,-280 289,-338"/>
<text text-anchor="start" x="36.5" y="-318.2" font-family="Helvetica,sans-Serif" font-weight="bold" font-size="16.00" fill="#707070">CloudWatchLogs::LogGroup</text>
<text text-anchor="start" x="36.5" y="-293.2" font-family="Helvetica,sans-Serif" font-size="16.00" fill="#383838">/aws/rds/cluster/aurora&#45;serverle...</text>
</g>
<!-- Vpc::Vpc8378EB38 -->
<g id="node2" class="node">
<title>Vpc::Vpc8378EB38</title>
<polygon fill="#e5e5e5" stroke="#dddddd" points="1122,-243 995,-243 995,-185 1122,-185 1122,-243"/>
<text text-anchor="start" x="1007.5" y="-223.2" font-family="Helvetica,sans-Serif" font-weight="bold" font-size="16.00" fill="#707070">EC2::Vpc</text>
<text text-anchor="start" x="1007.5" y="-198.2" font-family="Helvetica,sans-Serif" font-size="16.00" fill="#383838">Vpc8378EB38</text>
</g>
<!-- Subnet::Vpc8378EB38::VpcauroraisolatedSubnet1Subnet5370B90B -->
<g id="node3" class="node">
<title>Subnet::Vpc8378EB38::VpcauroraisolatedSubnet1Subnet5370B90B</title>
<polygon fill="#e5e5e5" stroke="#dddddd" points="959,-281 659,-281 659,-223 959,-223 959,-281"/>
<text text-anchor="start" x="671" y="-261.2" font-family="Helvetica,sans-Serif" font-weight="bold" font-size="16.00" fill="#707070">EC2::Subnet</text>
<text text-anchor="start" x="671" y="-236.2" font-family="Helvetica,sans-Serif" font-size="16.00" fill="#383838">Vpc8378EB38::VpcauroraisolatedSu...</text>
</g>
<!-- Subnet::Vpc8378EB38::VpcauroraisolatedSubnet1Subnet5370B90B&#45;&gt;Vpc::Vpc8378EB38 -->
<g id="edge1" class="edge">
<title>Subnet::Vpc8378EB38::VpcauroraisolatedSubnet1Subnet5370B90B&#45;&gt;Vpc::Vpc8378EB38</title>
<path fill="none" stroke="#707070" d="M959.33,-229.07C968.01,-227.74 976.52,-226.43 984.67,-225.18"/>
<polygon fill="#707070" stroke="#707070" points="985.44,-228.6 994.8,-223.63 984.38,-221.69 985.44,-228.6"/>
</g>
<!-- Subnet::Vpc8378EB38::VpcauroraisolatedSubnet2SubnetCB56E2A8 -->
<g id="node4" class="node">
<title>Subnet::Vpc8378EB38::VpcauroraisolatedSubnet2SubnetCB56E2A8</title>
<polygon fill="#e5e5e5" stroke="#dddddd" points="959,-205 659,-205 659,-147 959,-147 959,-205"/>
<text text-anchor="start" x="671" y="-185.2" font-family="Helvetica,sans-Serif" font-weight="bold" font-size="16.00" fill="#707070">EC2::Subnet</text>
<text text-anchor="start" x="671" y="-160.2" font-family="Helvetica,sans-Serif" font-size="16.00" fill="#383838">Vpc8378EB38::VpcauroraisolatedSu...</text>
</g>
<!-- Subnet::Vpc8378EB38::VpcauroraisolatedSubnet2SubnetCB56E2A8&#45;&gt;Vpc::Vpc8378EB38 -->
<g id="edge2" class="edge">
<title>Subnet::Vpc8378EB38::VpcauroraisolatedSubnet2SubnetCB56E2A8&#45;&gt;Vpc::Vpc8378EB38</title>
<path fill="none" stroke="#707070" d="M959.33,-198.93C968.01,-200.26 976.52,-201.57 984.67,-202.82"/>
<polygon fill="#707070" stroke="#707070" points="984.38,-206.31 994.8,-204.37 985.44,-199.4 984.38,-206.31"/>
</g>
<!-- RouteTable::Vpc8378EB38::VpcauroraisolatedSubnet1RouteTableA8F6E99C -->
<g id="node5" class="node">
<title>RouteTable::Vpc8378EB38::VpcauroraisolatedSubnet1RouteTableA8F6E99C</title>
<polygon fill="#e5e5e5" stroke="#dddddd" points="959,-357 659,-357 659,-299 959,-299 959,-357"/>
<text text-anchor="start" x="671" y="-337.2" font-family="Helvetica,sans-Serif" font-weight="bold" font-size="16.00" fill="#707070">EC2::RouteTable</text>
<text text-anchor="start" x="671" y="-312.2" font-family="Helvetica,sans-Serif" font-size="16.00" fill="#383838">Vpc8378EB38::VpcauroraisolatedSu...</text>
</g>
<!-- RouteTable::Vpc8378EB38::VpcauroraisolatedSubnet1RouteTableA8F6E99C&#45;&gt;Vpc::Vpc8378EB38 -->
<g id="edge3" class="edge">
<title>RouteTable::Vpc8378EB38::VpcauroraisolatedSubnet1RouteTableA8F6E99C&#45;&gt;Vpc::Vpc8378EB38</title>
<path fill="none" stroke="#707070" d="M938.44,-298.91C945.5,-296.18 952.4,-293.22 959,-290 980.19,-279.67 1001.22,-264.34 1018.37,-250.14"/>
<polygon fill="#707070" stroke="#707070" points="1021.09,-252.42 1026.46,-243.29 1016.56,-247.08 1021.09,-252.42"/>
</g>
<!-- RouteTable::Vpc8378EB38::VpcauroraisolatedSubnet2RouteTableBF363B67 -->
<g id="node6" class="node">
<title>RouteTable::Vpc8378EB38::VpcauroraisolatedSubnet2RouteTableBF363B67</title>
<polygon fill="#e5e5e5" stroke="#dddddd" points="959,-129 659,-129 659,-71 959,-71 959,-129"/>
<text text-anchor="start" x="671" y="-109.2" font-family="Helvetica,sans-Serif" font-weight="bold" font-size="16.00" fill="#707070">EC2::RouteTable</text>
<text text-anchor="start" x="671" y="-84.2" font-family="Helvetica,sans-Serif" font-size="16.00" fill="#383838">Vpc8378EB38::VpcauroraisolatedSu...</text>
</g>
<!-- RouteTable::Vpc8378EB38::VpcauroraisolatedSubnet2RouteTableBF363B67&#45;&gt;Vpc::Vpc8378EB38 -->
<g id="edge4" class="edge">
<title>RouteTable::Vpc8378EB38::VpcauroraisolatedSubnet2RouteTableBF363B67&#45;&gt;Vpc::Vpc8378EB38</title>
<path fill="none" stroke="#707070" d="M938.44,-129.09C945.5,-131.82 952.4,-134.78 959,-138 980.19,-148.33 1001.22,-163.66 1018.37,-177.86"/>
<polygon fill="#707070" stroke="#707070" points="1016.56,-180.92 1026.46,-184.71 1021.09,-175.58 1016.56,-180.92"/>
</g>
<!-- RouteTableAssociation::rt&#45;assoc::Vpc8378EB38::VpcauroraisolatedSubnet1RouteTableA8F6E99C::Vpc8378EB38::VpcauroraisolatedSubnet1Subnet5370B90B -->
<g id="node7" class="node">
<title>RouteTableAssociation::rt&#45;assoc::Vpc8378EB38::VpcauroraisolatedSubnet1RouteTableA8F6E99C::Vpc8378EB38::VpcauroraisolatedSubnet1Subnet5370B90B</title>
<polygon fill="#e5e5e5" stroke="#dddddd" points="619.5,-357 328.5,-357 328.5,-299 619.5,-299 619.5,-357"/>
<text text-anchor="start" x="341" y="-337.2" font-family="Helvetica,sans-Serif" font-weight="bold" font-size="16.00" fill="#707070">EC2::RouteTableAssociation</text>
<text text-anchor="start" x="341" y="-312.2" font-family="Helvetica,sans-Serif" font-size="16.00" fill="#383838">rt&#45;assoc::Vpc8378EB38::Vpcaurora...</text>
</g>
<!-- RouteTableAssociation::rt&#45;assoc::Vpc8378EB38::VpcauroraisolatedSubnet1RouteTableA8F6E99C::Vpc8378EB38::VpcauroraisolatedSubnet1Subnet5370B90B&#45;&gt;Subnet::Vpc8378EB38::VpcauroraisolatedSubnet1Subnet5370B90B -->
<g id="edge6" class="edge">
<title>RouteTableAssociation::rt&#45;assoc::Vpc8378EB38::VpcauroraisolatedSubnet1RouteTableA8F6E99C::Vpc8378EB38::VpcauroraisolatedSubnet1Subnet5370B90B&#45;&gt;Subnet::Vpc8378EB38::VpcauroraisolatedSubnet1Subnet5370B90B</title>
<path fill="none" stroke="#707070" d="M602.32,-298.94C624.71,-293.83 648.1,-288.49 670.75,-283.32"/>
<polygon fill="#707070" stroke="#707070" points="671.78,-286.68 680.75,-281.04 670.22,-279.85 671.78,-286.68"/>
</g>
<!-- RouteTableAssociation::rt&#45;assoc::Vpc8378EB38::VpcauroraisolatedSubnet1RouteTableA8F6E99C::Vpc8378EB38::VpcauroraisolatedSubnet1Subnet5370B90B&#45;&gt;RouteTable::Vpc8378EB38::VpcauroraisolatedSubnet1RouteTableA8F6E99C -->
<g id="edge5" class="edge">
<title>RouteTableAssociation::rt&#45;assoc::Vpc8378EB38::VpcauroraisolatedSubnet1RouteTableA8F6E99C::Vpc8378EB38::VpcauroraisolatedSubnet1Subnet5370B90B&#45;&gt;RouteTable::Vpc8378EB38::VpcauroraisolatedSubnet1RouteTableA8F6E99C</title>
<path fill="none" stroke="#707070" d="M619.61,-328C629.25,-328 638.99,-328 648.69,-328"/>
<polygon fill="#707070" stroke="#707070" points="648.79,-331.5 658.79,-328 648.79,-324.5 648.79,-331.5"/>
</g>
<!-- RouteTableAssociation::rt&#45;assoc::Vpc8378EB38::VpcauroraisolatedSubnet2RouteTableBF363B67::Vpc8378EB38::VpcauroraisolatedSubnet2SubnetCB56E2A8 -->
<g id="node8" class="node">
<title>RouteTableAssociation::rt&#45;assoc::Vpc8378EB38::VpcauroraisolatedSubnet2RouteTableBF363B67::Vpc8378EB38::VpcauroraisolatedSubnet2SubnetCB56E2A8</title>
<polygon fill="#e5e5e5" stroke="#dddddd" points="619.5,-129 328.5,-129 328.5,-71 619.5,-71 619.5,-129"/>
<text text-anchor="start" x="341" y="-109.2" font-family="Helvetica,sans-Serif" font-weight="bold" font-size="16.00" fill="#707070">EC2::RouteTableAssociation</text>
<text text-anchor="start" x="341" y="-84.2" font-family="Helvetica,sans-Serif" font-size="16.00" fill="#383838">rt&#45;assoc::Vpc8378EB38::Vpcaurora...</text>
</g>
<!-- RouteTableAssociation::rt&#45;assoc::Vpc8378EB38::VpcauroraisolatedSubnet2RouteTableBF363B67::Vpc8378EB38::VpcauroraisolatedSubnet2SubnetCB56E2A8&#45;&gt;Subnet::Vpc8378EB38::VpcauroraisolatedSubnet2SubnetCB56E2A8 -->
<g id="edge8" class="edge">
<title>RouteTableAssociation::rt&#45;assoc::Vpc8378EB38::VpcauroraisolatedSubnet2RouteTableBF363B67::Vpc8378EB38::VpcauroraisolatedSubnet2SubnetCB56E2A8&#45;&gt;Subnet::Vpc8378EB38::VpcauroraisolatedSubnet2SubnetCB56E2A8</title>
<path fill="none" stroke="#707070" d="M602.32,-129.06C624.71,-134.17 648.1,-139.51 670.75,-144.68"/>
<polygon fill="#707070" stroke="#707070" points="670.22,-148.15 680.75,-146.96 671.78,-141.32 670.22,-148.15"/>
</g>
<!-- RouteTableAssociation::rt&#45;assoc::Vpc8378EB38::VpcauroraisolatedSubnet2RouteTableBF363B67::Vpc8378EB38::VpcauroraisolatedSubnet2SubnetCB56E2A8&#45;&gt;RouteTable::Vpc8378EB38::VpcauroraisolatedSubnet2RouteTableBF363B67 -->
<g id="edge7" class="edge">
<title>RouteTableAssociation::rt&#45;assoc::Vpc8378EB38::VpcauroraisolatedSubnet2RouteTableBF363B67::Vpc8378EB38::VpcauroraisolatedSubnet2SubnetCB56E2A8&#45;&gt;RouteTable::Vpc8378EB38::VpcauroraisolatedSubnet2RouteTableBF363B67</title>
<path fill="none" stroke="#707070" d="M619.61,-100C629.25,-100 638.99,-100 648.69,-100"/>
<polygon fill="#707070" stroke="#707070" points="648.79,-103.5 658.79,-100 648.79,-96.5 648.79,-103.5"/>
</g>
<!-- DBSubnetGroup::aurora&#45;serverless&#45;subnet&#45;group -->
<g id="node9" class="node">
<title>DBSubnetGroup::aurora&#45;serverless&#45;subnet&#45;group</title>
<polygon fill="#e5e5e5" stroke="#dddddd" points="599.5,-281 348.5,-281 348.5,-223 599.5,-223 599.5,-281"/>
<text text-anchor="start" x="361" y="-261.2" font-family="Helvetica,sans-Serif" font-weight="bold" font-size="16.00" fill="#707070">RDS::DBSubnetGroup</text>
<text text-anchor="start" x="361" y="-236.2" font-family="Helvetica,sans-Serif" font-size="16.00" fill="#383838">aurora&#45;serverless&#45;subnet&#45;group</text>
</g>
<!-- DBSubnetGroup::aurora&#45;serverless&#45;subnet&#45;group&#45;&gt;Subnet::Vpc8378EB38::VpcauroraisolatedSubnet1Subnet5370B90B -->
<g id="edge9" class="edge">
<title>DBSubnetGroup::aurora&#45;serverless&#45;subnet&#45;group&#45;&gt;Subnet::Vpc8378EB38::VpcauroraisolatedSubnet1Subnet5370B90B</title>
<path fill="none" stroke="#707070" d="M599.94,-252C615.84,-252 632.27,-252 648.62,-252"/>
<polygon fill="#707070" stroke="#707070" points="648.77,-255.5 658.77,-252 648.77,-248.5 648.77,-255.5"/>
</g>
<!-- DBSubnetGroup::aurora&#45;serverless&#45;subnet&#45;group&#45;&gt;Subnet::Vpc8378EB38::VpcauroraisolatedSubnet2SubnetCB56E2A8 -->
<g id="edge10" class="edge">
<title>DBSubnetGroup::aurora&#45;serverless&#45;subnet&#45;group&#45;&gt;Subnet::Vpc8378EB38::VpcauroraisolatedSubnet2SubnetCB56E2A8</title>
<path fill="none" stroke="#707070" d="M599.94,-223.48C623.04,-218.21 647.27,-212.68 670.7,-207.34"/>
<polygon fill="#707070" stroke="#707070" points="671.72,-210.69 680.69,-205.06 670.16,-203.87 671.72,-210.69"/>
</g>
<!-- DBCluster::aurora&#45;serverless -->
<g id="node10" class="node">
<title>DBCluster::aurora&#45;serverless</title>
<polygon fill="#e5e5e5" stroke="#dddddd" points="232,-224 81,-224 81,-166 232,-166 232,-224"/>
<text text-anchor="start" x="93.5" y="-204.2" font-family="Helvetica,sans-Serif" font-weight="bold" font-size="16.00" fill="#707070">RDS::DBCluster</text>
<text text-anchor="start" x="93.5" y="-179.2" font-family="Helvetica,sans-Serif" font-size="16.00" fill="#383838">aurora&#45;serverless</text>
</g>
<!-- DBCluster::aurora&#45;serverless&#45;&gt;DBSubnetGroup::aurora&#45;serverless&#45;subnet&#45;group -->
<g id="edge11" class="edge">
<title>DBCluster::aurora&#45;serverless&#45;&gt;DBSubnetGroup::aurora&#45;serverless&#45;subnet&#45;group</title>
<path fill="none" stroke="#707070" d="M232.27,-208.51C263.92,-214.23 301.79,-221.07 338.03,-227.62"/>
<polygon fill="#707070" stroke="#707070" points="337.74,-231.12 348.2,-229.45 338.98,-224.23 337.74,-231.12"/>
</g>
<!-- Secret::demordsservice&#45;demostage&#45;credentials -->
<g id="node11" class="node">
<title>Secret::demordsservice&#45;demostage&#45;credentials</title>
<polygon fill="#e5e5e5" stroke="#dddddd" points="623,-205 325,-205 325,-147 623,-147 623,-205"/>
<text text-anchor="start" x="337" y="-185.2" font-family="Helvetica,sans-Serif" font-weight="bold" font-size="16.00" fill="#707070">SecretsManager::Secret</text>
<text text-anchor="start" x="337" y="-160.2" font-family="Helvetica,sans-Serif" font-size="16.00" fill="#383838">demordsservice&#45;demostage&#45;credent...</text>
</g>
<!-- DBCluster::aurora&#45;serverless&#45;&gt;Secret::demordsservice&#45;demostage&#45;credentials -->
<g id="edge12" class="edge">
<title>DBCluster::aurora&#45;serverless&#45;&gt;Secret::demordsservice&#45;demostage&#45;credentials</title>
<path fill="none" stroke="#707070" d="M232.27,-190.5C257.13,-189 285.83,-187.27 314.56,-185.54"/>
<polygon fill="#707070" stroke="#707070" points="314.95,-189.02 324.72,-184.93 314.53,-182.04 314.95,-189.02"/>
</g>
</g>
</svg>
