<?xml version="1.0" encoding="UTF-8" standalone="no"?>
<!DOCTYPE svg PUBLIC "-//W3C//DTD SVG 1.1//EN"
 "http://www.w3.org/Graphics/SVG/1.1/DTD/svg11.dtd">
<!-- Generated by graphviz version 3.0.0 (20220226.1711)
 -->
<!-- Title: graphname Pages: 1 -->
<svg width="1191pt" height="485pt"
 viewBox="0.00 0.00 1191.00 485.00" xmlns="http://www.w3.org/2000/svg" xmlns:xlink="http://www.w3.org/1999/xlink">
<g id="graph0" class="graph" transform="scale(1 1) rotate(0) translate(4 481)">
<title>graphname</title>
<polygon fill="#fafafa" stroke="transparent" points="-4,4 -4,-481 1187,-481 1187,4 -4,4"/>
<text text-anchor="start" x="377.5" y="-452.4" font-family="Helvetica,sans-Serif" font-weight="bold" font-size="22.00" fill="#383838">Project auroraserverless&#45;secretsmanager</text>
<text text-anchor="start" x="588" y="-436.8" font-family="Helvetica,sans-Serif" font-size="14.00"> &#160;</text>
<text text-anchor="start" x="377.5" y="-415.2" font-family="Helvetica,sans-Serif" font-weight="bold" font-size="16.00" fill="#707070">Target Diagram</text>
<g id="clust1" class="cluster">
<title>cluster_aws</title>
<polygon fill="#f5f5f5" stroke="#f5f5f5" points="8,-8 8,-393 1175,-393 1175,-8 8,-8"/>
<text text-anchor="start" x="529.5" y="-23" font-family="Helvetica,sans-Serif" font-weight="bold" font-size="20.00" fill="#707070">Provider aws</text>
</g>
<g id="clust2" class="cluster">
<title>cluster_aws_</title>
<polygon fill="#eeeeee" stroke="#eeeeee" points="16,-54 16,-385 1167,-385 1167,-54 16,-54"/>
<text text-anchor="start" x="591.36" y="-58.3" font-family="Helvetica,sans-Serif" font-size="1.00" fill="#383838"> </text>
</g>
<!-- LogGroup::/aws/rds/cluster/aurora&#45;serverless/error -->
<g id="node1" class="node">
<title>LogGroup::/aws/rds/cluster/aurora&#45;serverless/error</title>
<polygon fill="#e5e5e5" stroke="#dddddd" points="305.5,-339 40.5,-339 40.5,-281 305.5,-281 305.5,-339"/>
<text text-anchor="start" x="53" y="-319.2" font-family="Helvetica,sans-Serif" font-weight="bold" font-size="16.00" fill="#707070">LogGroup</text>
<text text-anchor="start" x="53" y="-294.2" font-family="Helvetica,sans-Serif" font-size="16.00" fill="#383838">/aws/rds/cluster/aurora&#45;serverle...</text>
</g>
<!-- Vpc::Vpc8378EB38 -->
<g id="node2" class="node">
<title>Vpc::Vpc8378EB38</title>
<polygon fill="#e5e5e5" stroke="#dddddd" points="1159,-225 1032,-225 1032,-167 1159,-167 1159,-225"/>
<text text-anchor="start" x="1044.5" y="-205.2" font-family="Helvetica,sans-Serif" font-weight="bold" font-size="16.00" fill="#707070">Vpc</text>
<text text-anchor="start" x="1044.5" y="-180.2" font-family="Helvetica,sans-Serif" font-size="16.00" fill="#383838">Vpc8378EB38</text>
</g>
<!-- Subnet::VpcauroraisolatedSubnet1Subnet5370B90B -->
<g id="node3" class="node">
<title>Subnet::VpcauroraisolatedSubnet1Subnet5370B90B</title>
<polygon fill="#e5e5e5" stroke="#dddddd" points="994.5,-225 696.5,-225 696.5,-167 994.5,-167 994.5,-225"/>
<text text-anchor="start" x="708.5" y="-205.2" font-family="Helvetica,sans-Serif" font-weight="bold" font-size="16.00" fill="#707070">Subnet</text>
<text text-anchor="start" x="708.5" y="-180.2" font-family="Helvetica,sans-Serif" font-size="16.00" fill="#383838">VpcauroraisolatedSubnet1Subnet53...</text>
</g>
<!-- Subnet::VpcauroraisolatedSubnet1Subnet5370B90B&#45;&gt;Vpc::Vpc8378EB38 -->
<g id="edge1" class="edge">
<title>Subnet::VpcauroraisolatedSubnet1Subnet5370B90B&#45;&gt;Vpc::Vpc8378EB38</title>
<path fill="none" stroke="#707070" d="M994.7,-196C1003.99,-196 1013.1,-196 1021.8,-196"/>
<polygon fill="#707070" stroke="#707070" points="1021.8,-199.5 1031.8,-196 1021.8,-192.5 1021.8,-199.5"/>
</g>
<!-- Subnet::VpcauroraisolatedSubnet2SubnetCB56E2A8 -->
<g id="node4" class="node">
<title>Subnet::VpcauroraisolatedSubnet2SubnetCB56E2A8</title>
<polygon fill="#e5e5e5" stroke="#dddddd" points="996,-149 695,-149 695,-91 996,-91 996,-149"/>
<text text-anchor="start" x="707.5" y="-129.2" font-family="Helvetica,sans-Serif" font-weight="bold" font-size="16.00" fill="#707070">Subnet</text>
<text text-anchor="start" x="707.5" y="-104.2" font-family="Helvetica,sans-Serif" font-size="16.00" fill="#383838">VpcauroraisolatedSubnet2SubnetCB...</text>
</g>
<!-- Subnet::VpcauroraisolatedSubnet2SubnetCB56E2A8&#45;&gt;Vpc::Vpc8378EB38 -->
<g id="edge2" class="edge">
<title>Subnet::VpcauroraisolatedSubnet2SubnetCB56E2A8&#45;&gt;Vpc::Vpc8378EB38</title>
<path fill="none" stroke="#707070" d="M966,-149.01C976.19,-151.9 986.3,-154.91 996,-158 1004.59,-160.74 1013.52,-163.83 1022.34,-167.03"/>
<polygon fill="#707070" stroke="#707070" points="1021.25,-170.36 1031.84,-170.54 1023.67,-163.8 1021.25,-170.36"/>
</g>
<!-- RouteTable::VpcauroraisolatedSubnet1RouteTableA8F6E99C -->
<g id="node5" class="node">
<title>RouteTable::VpcauroraisolatedSubnet1RouteTableA8F6E99C</title>
<polygon fill="#e5e5e5" stroke="#dddddd" points="994.5,-377 696.5,-377 696.5,-319 994.5,-319 994.5,-377"/>
<text text-anchor="start" x="708.5" y="-357.2" font-family="Helvetica,sans-Serif" font-weight="bold" font-size="16.00" fill="#707070">RouteTable</text>
<text text-anchor="start" x="708.5" y="-332.2" font-family="Helvetica,sans-Serif" font-size="16.00" fill="#383838">VpcauroraisolatedSubnet1RouteTab...</text>
</g>
<!-- RouteTable::VpcauroraisolatedSubnet1RouteTableA8F6E99C&#45;&gt;Vpc::Vpc8378EB38 -->
<g id="edge3" class="edge">
<title>RouteTable::VpcauroraisolatedSubnet1RouteTableA8F6E99C&#45;&gt;Vpc::Vpc8378EB38</title>
<path fill="none" stroke="#707070" d="M979.58,-318.91C985.26,-316.2 990.76,-313.24 996,-310 1027.08,-290.79 1053.58,-258.59 1071.23,-233.31"/>
<polygon fill="#707070" stroke="#707070" points="1074.14,-235.26 1076.87,-225.03 1068.35,-231.32 1074.14,-235.26"/>
</g>
<!-- RouteTable::VpcauroraisolatedSubnet2RouteTableBF363B67 -->
<g id="node6" class="node">
<title>RouteTable::VpcauroraisolatedSubnet2RouteTableBF363B67</title>
<polygon fill="#e5e5e5" stroke="#dddddd" points="994.5,-301 696.5,-301 696.5,-243 994.5,-243 994.5,-301"/>
<text text-anchor="start" x="708.5" y="-281.2" font-family="Helvetica,sans-Serif" font-weight="bold" font-size="16.00" fill="#707070">RouteTable</text>
<text text-anchor="start" x="708.5" y="-256.2" font-family="Helvetica,sans-Serif" font-size="16.00" fill="#383838">VpcauroraisolatedSubnet2RouteTab...</text>
</g>
<!-- RouteTable::VpcauroraisolatedSubnet2RouteTableBF363B67&#45;&gt;Vpc::Vpc8378EB38 -->
<g id="edge4" class="edge">
<title>RouteTable::VpcauroraisolatedSubnet2RouteTableBF363B67&#45;&gt;Vpc::Vpc8378EB38</title>
<path fill="none" stroke="#707070" d="M966,-242.99C976.19,-240.1 986.3,-237.09 996,-234 1004.59,-231.26 1013.52,-228.17 1022.34,-224.97"/>
<polygon fill="#707070" stroke="#707070" points="1023.67,-228.2 1031.84,-221.46 1021.25,-221.64 1023.67,-228.2"/>
</g>
<!-- RouteTableAssociation::rt&#45;assoc::VpcauroraisolatedSubnet1RouteTableA8F6E99C::VpcauroraisolatedSubnet1Subnet5370B90B -->
<g id="node7" class="node">
<title>RouteTableAssociation::rt&#45;assoc::VpcauroraisolatedSubnet1RouteTableA8F6E99C::VpcauroraisolatedSubnet1Subnet5370B90B</title>
<polygon fill="#e5e5e5" stroke="#dddddd" points="649.5,-377 367.5,-377 367.5,-319 649.5,-319 649.5,-377"/>
<text text-anchor="start" x="379.5" y="-357.2" font-family="Helvetica,sans-Serif" font-weight="bold" font-size="16.00" fill="#707070">RouteTableAssociation</text>
<text text-anchor="start" x="379.5" y="-332.2" font-family="Helvetica,sans-Serif" font-size="16.00" fill="#383838">rt&#45;assoc::VpcauroraisolatedSubne...</text>
</g>
<!-- RouteTableAssociation::rt&#45;assoc::VpcauroraisolatedSubnet1RouteTableA8F6E99C::VpcauroraisolatedSubnet1Subnet5370B90B&#45;&gt;Subnet::VpcauroraisolatedSubnet1Subnet5370B90B -->
<g id="edge6" class="edge">
<title>RouteTableAssociation::rt&#45;assoc::VpcauroraisolatedSubnet1RouteTableA8F6E99C::VpcauroraisolatedSubnet1Subnet5370B90B&#45;&gt;Subnet::VpcauroraisolatedSubnet1Subnet5370B90B</title>
<path fill="none" stroke="#707070" d="M646.55,-318.91C650.9,-316.2 655.07,-313.23 659,-310 687.86,-286.25 666.14,-257.75 695,-234 696.35,-232.89 697.73,-231.81 699.13,-230.76"/>
<polygon fill="#707070" stroke="#707070" points="701.16,-233.62 707.45,-225.09 697.22,-227.83 701.16,-233.62"/>
</g>
<!-- RouteTableAssociation::rt&#45;assoc::VpcauroraisolatedSubnet1RouteTableA8F6E99C::VpcauroraisolatedSubnet1Subnet5370B90B&#45;&gt;RouteTable::VpcauroraisolatedSubnet1RouteTableA8F6E99C -->
<g id="edge5" class="edge">
<title>RouteTableAssociation::rt&#45;assoc::VpcauroraisolatedSubnet1RouteTableA8F6E99C::VpcauroraisolatedSubnet1Subnet5370B90B&#45;&gt;RouteTable::VpcauroraisolatedSubnet1RouteTableA8F6E99C</title>
<path fill="none" stroke="#707070" d="M649.63,-348C661.68,-348 673.92,-348 686.09,-348"/>
<polygon fill="#707070" stroke="#707070" points="686.3,-351.5 696.3,-348 686.3,-344.5 686.3,-351.5"/>
</g>
<!-- RouteTableAssociation::rt&#45;assoc::VpcauroraisolatedSubnet2RouteTableBF363B67::VpcauroraisolatedSubnet2SubnetCB56E2A8 -->
<g id="node8" class="node">
<title>RouteTableAssociation::rt&#45;assoc::VpcauroraisolatedSubnet2RouteTableBF363B67::VpcauroraisolatedSubnet2SubnetCB56E2A8</title>
<polygon fill="#e5e5e5" stroke="#dddddd" points="649.5,-301 367.5,-301 367.5,-243 649.5,-243 649.5,-301"/>
<text text-anchor="start" x="379.5" y="-281.2" font-family="Helvetica,sans-Serif" font-weight="bold" font-size="16.00" fill="#707070">RouteTableAssociation</text>
<text text-anchor="start" x="379.5" y="-256.2" font-family="Helvetica,sans-Serif" font-size="16.00" fill="#383838">rt&#45;assoc::VpcauroraisolatedSubne...</text>
</g>
<!-- RouteTableAssociation::rt&#45;assoc::VpcauroraisolatedSubnet2RouteTableBF363B67::VpcauroraisolatedSubnet2SubnetCB56E2A8&#45;&gt;Subnet::VpcauroraisolatedSubnet2SubnetCB56E2A8 -->
<g id="edge8" class="edge">
<title>RouteTableAssociation::rt&#45;assoc::VpcauroraisolatedSubnet2RouteTableBF363B67::VpcauroraisolatedSubnet2SubnetCB56E2A8&#45;&gt;Subnet::VpcauroraisolatedSubnet2SubnetCB56E2A8</title>
<path fill="none" stroke="#707070" d="M646.55,-242.91C650.9,-240.2 655.07,-237.23 659,-234 687.86,-210.25 666.14,-181.75 695,-158 696.35,-156.89 697.73,-155.81 699.13,-154.76"/>
<polygon fill="#707070" stroke="#707070" points="701.16,-157.62 707.45,-149.09 697.22,-151.83 701.16,-157.62"/>
</g>
<!-- RouteTableAssociation::rt&#45;assoc::VpcauroraisolatedSubnet2RouteTableBF363B67::VpcauroraisolatedSubnet2SubnetCB56E2A8&#45;&gt;RouteTable::VpcauroraisolatedSubnet2RouteTableBF363B67 -->
<g id="edge7" class="edge">
<title>RouteTableAssociation::rt&#45;assoc::VpcauroraisolatedSubnet2RouteTableBF363B67::VpcauroraisolatedSubnet2SubnetCB56E2A8&#45;&gt;RouteTable::VpcauroraisolatedSubnet2RouteTableBF363B67</title>
<path fill="none" stroke="#707070" d="M649.63,-272C661.68,-272 673.92,-272 686.09,-272"/>
<polygon fill="#707070" stroke="#707070" points="686.3,-275.5 696.3,-272 686.3,-268.5 686.3,-275.5"/>
</g>
<!-- VpcEndpoint::com.amazonaws.vpce.us&#45;east&#45;1.vpce&#45;svc&#45;0bc2fb45d93de6121 -->
<g id="node9" class="node">
<title>VpcEndpoint::com.amazonaws.vpce.us&#45;east&#45;1.vpce&#45;svc&#45;0bc2fb45d93de6121</title>
<polygon fill="#e5e5e5" stroke="#dddddd" points="659,-149 358,-149 358,-91 659,-91 659,-149"/>
<text text-anchor="start" x="370.5" y="-129.2" font-family="Helvetica,sans-Serif" font-weight="bold" font-size="16.00" fill="#707070">VpcEndpoint</text>
<text text-anchor="start" x="370.5" y="-104.2" font-family="Helvetica,sans-Serif" font-size="16.00" fill="#383838">com.amazonaws.vpce.us&#45;east&#45;1.vpc...</text>
</g>
<!-- VpcEndpoint::com.amazonaws.vpce.us&#45;east&#45;1.vpce&#45;svc&#45;0bc2fb45d93de6121&#45;&gt;Vpc::Vpc8378EB38 -->
<g id="edge9" class="edge">
<title>VpcEndpoint::com.amazonaws.vpce.us&#45;east&#45;1.vpce&#45;svc&#45;0bc2fb45d93de6121&#45;&gt;Vpc::Vpc8378EB38</title>
<path fill="none" stroke="#707070" d="M589.03,-90.97C688.92,-59.48 863.3,-21.29 996,-82 1029.98,-97.55 1056.71,-131.24 1073.7,-157.99"/>
<polygon fill="#707070" stroke="#707070" points="1070.86,-160.07 1079.08,-166.75 1076.83,-156.4 1070.86,-160.07"/>
</g>
<!-- VpcEndpoint::com.amazonaws.vpce.us&#45;east&#45;1.vpce&#45;svc&#45;0bc2fb45d93de6121&#45;&gt;Subnet::VpcauroraisolatedSubnet1Subnet5370B90B -->
<g id="edge10" class="edge">
<title>VpcEndpoint::com.amazonaws.vpce.us&#45;east&#45;1.vpce&#45;svc&#45;0bc2fb45d93de6121&#45;&gt;Subnet::VpcauroraisolatedSubnet1Subnet5370B90B</title>
<path fill="none" stroke="#707070" d="M637.58,-149.06C660.21,-154.19 683.85,-159.56 706.73,-164.75"/>
<polygon fill="#707070" stroke="#707070" points="705.96,-168.16 716.49,-166.96 707.51,-161.33 705.96,-168.16"/>
</g>
<!-- VpcEndpoint::com.amazonaws.vpce.us&#45;east&#45;1.vpce&#45;svc&#45;0bc2fb45d93de6121&#45;&gt;Subnet::VpcauroraisolatedSubnet2SubnetCB56E2A8 -->
<g id="edge11" class="edge">
<title>VpcEndpoint::com.amazonaws.vpce.us&#45;east&#45;1.vpce&#45;svc&#45;0bc2fb45d93de6121&#45;&gt;Subnet::VpcauroraisolatedSubnet2SubnetCB56E2A8</title>
<path fill="none" stroke="#707070" d="M659.36,-120C667.72,-120 676.14,-120 684.54,-120"/>
<polygon fill="#707070" stroke="#707070" points="684.76,-123.5 694.76,-120 684.76,-116.5 684.76,-123.5"/>
</g>
<!-- DBSubnetGroup::aurora&#45;serverless&#45;subnet&#45;group -->
<g id="node10" class="node">
<title>DBSubnetGroup::aurora&#45;serverless&#45;subnet&#45;group</title>
<polygon fill="#e5e5e5" stroke="#dddddd" points="634,-225 383,-225 383,-167 634,-167 634,-225"/>
<text text-anchor="start" x="395.5" y="-205.2" font-family="Helvetica,sans-Serif" font-weight="bold" font-size="16.00" fill="#707070">DBSubnetGroup</text>
<text text-anchor="start" x="395.5" y="-180.2" font-family="Helvetica,sans-Serif" font-size="16.00" fill="#383838">aurora&#45;serverless&#45;subnet&#45;group</text>
</g>
<!-- DBSubnetGroup::aurora&#45;serverless&#45;subnet&#45;group&#45;&gt;Subnet::VpcauroraisolatedSubnet1Subnet5370B90B -->
<g id="edge12" class="edge">
<title>DBSubnetGroup::aurora&#45;serverless&#45;subnet&#45;group&#45;&gt;Subnet::VpcauroraisolatedSubnet1Subnet5370B90B</title>
<path fill="none" stroke="#707070" d="M634.24,-196C651.19,-196 668.77,-196 686.21,-196"/>
<polygon fill="#707070" stroke="#707070" points="686.46,-199.5 696.46,-196 686.46,-192.5 686.46,-199.5"/>
</g>
<!-- DBSubnetGroup::aurora&#45;serverless&#45;subnet&#45;group&#45;&gt;Subnet::VpcauroraisolatedSubnet2SubnetCB56E2A8 -->
<g id="edge13" class="edge">
<title>DBSubnetGroup::aurora&#45;serverless&#45;subnet&#45;group&#45;&gt;Subnet::VpcauroraisolatedSubnet2SubnetCB56E2A8</title>
<path fill="none" stroke="#707070" d="M634.24,-167.7C657.87,-162.34 682.71,-156.7 706.71,-151.26"/>
<polygon fill="#707070" stroke="#707070" points="707.6,-154.65 716.58,-149.02 706.05,-147.82 707.6,-154.65"/>
</g>
<!-- DBCluster::aurora&#45;serverless -->
<g id="node11" class="node">
<title>DBCluster::aurora&#45;serverless</title>
<polygon fill="#e5e5e5" stroke="#dddddd" points="248.5,-225 97.5,-225 97.5,-167 248.5,-167 248.5,-225"/>
<text text-anchor="start" x="110" y="-205.2" font-family="Helvetica,sans-Serif" font-weight="bold" font-size="16.00" fill="#707070">DBCluster</text>
<text text-anchor="start" x="110" y="-180.2" font-family="Helvetica,sans-Serif" font-size="16.00" fill="#383838">aurora&#45;serverless</text>
</g>
<!-- DBCluster::aurora&#45;serverless&#45;&gt;DBSubnetGroup::aurora&#45;serverless&#45;subnet&#45;group -->
<g id="edge14" class="edge">
<title>DBCluster::aurora&#45;serverless&#45;&gt;DBSubnetGroup::aurora&#45;serverless&#45;subnet&#45;group</title>
<path fill="none" stroke="#707070" d="M248.84,-196C285.38,-196 330.48,-196 372.73,-196"/>
<polygon fill="#707070" stroke="#707070" points="372.83,-199.5 382.83,-196 372.83,-192.5 372.83,-199.5"/>
</g>
<!-- Secret::demordsservice&#45;demostage&#45;credentials -->
<g id="node12" class="node">
<title>Secret::demordsservice&#45;demostage&#45;credentials</title>
<polygon fill="#e5e5e5" stroke="#dddddd" points="322,-139 24,-139 24,-81 322,-81 322,-139"/>
<text text-anchor="start" x="36" y="-119.2" font-family="Helvetica,sans-Serif" font-weight="bold" font-size="16.00" fill="#707070">Secret</text>
<text text-anchor="start" x="36" y="-94.2" font-family="Helvetica,sans-Serif" font-size="16.00" fill="#383838">demordsservice&#45;demostage&#45;credent...</text>
</g>
</g>
</svg>
