<?xml version="1.0" encoding="UTF-8" standalone="no"?>
<!DOCTYPE svg PUBLIC "-//W3C//DTD SVG 1.1//EN"
 "http://www.w3.org/Graphics/SVG/1.1/DTD/svg11.dtd">
<!-- Generated by graphviz version 6.0.0 (20220910.1538)
 -->
<!-- Title: graphname Pages: 1 -->
<svg width="697pt" height="541pt"
 viewBox="0.00 0.00 697.00 541.00" xmlns="http://www.w3.org/2000/svg" xmlns:xlink="http://www.w3.org/1999/xlink">
<g id="graph0" class="graph" transform="scale(1 1) rotate(0) translate(4 537)">
<title>graphname</title>
<polygon fill="#fafafa" stroke="none" points="-4,4 -4,-537 693,-537 693,4 -4,4"/>
<text text-anchor="start" x="230.5" y="-508.4" font-family="Helvetica,sans-Serif" font-weight="bold" font-size="22.00" fill="#383838">Project lambda&#45;s3&#45;sfn</text>
<text text-anchor="start" x="341" y="-492.8" font-family="Helvetica,sans-Serif" font-size="14.00"> &#160;</text>
<text text-anchor="start" x="230.5" y="-471.2" font-family="Helvetica,sans-Serif" font-weight="bold" font-size="16.00" fill="#707070">Target Diagram</text>
<g id="clust1" class="cluster">
<title>cluster_aws</title>
<polygon fill="#f5f5f5" stroke="#f5f5f5" points="8,-8 8,-449 681,-449 681,-8 8,-8"/>
<text text-anchor="start" x="282.5" y="-23" font-family="Helvetica,sans-Serif" font-weight="bold" font-size="20.00" fill="#707070">Provider aws</text>
</g>
<g id="clust2" class="cluster">
<title>cluster_aws_</title>
<polygon fill="#eeeeee" stroke="#eeeeee" points="16,-54 16,-441 673,-441 673,-54 16,-54"/>
<text text-anchor="start" x="344.36" y="-58.3" font-family="Helvetica,sans-Serif" font-size="1.00" fill="#383838"> </text>
</g>
<!-- Role::sam&#45;app&#45;AddFooterFunctionRole&#45;YKMHNXXZVM2U -->
<g id="node1" class="node">
<title>Role::sam&#45;app&#45;AddFooterFunctionRole&#45;YKMHNXXZVM2U</title>
<polygon fill="#e5e5e5" stroke="#dddddd" points="665,-433 362,-433 362,-375 665,-375 665,-433"/>
<text text-anchor="start" x="374.5" y="-413.2" font-family="Helvetica,sans-Serif" font-weight="bold" font-size="16.00" fill="#707070">IAM::Role</text>
<text text-anchor="start" x="374.5" y="-388.2" font-family="Helvetica,sans-Serif" font-size="16.00" fill="#383838">sam&#45;app&#45;AddFooterFunctionRole&#45;YK...</text>
</g>
<!-- Role::sam&#45;app&#45;ProcessFileFunctionRole&#45;5JRBG4SP3NP -->
<g id="node2" class="node">
<title>Role::sam&#45;app&#45;ProcessFileFunctionRole&#45;5JRBG4SP3NP</title>
<polygon fill="#e5e5e5" stroke="#dddddd" points="659.5,-357 367.5,-357 367.5,-299 659.5,-299 659.5,-357"/>
<text text-anchor="start" x="379.5" y="-337.2" font-family="Helvetica,sans-Serif" font-weight="bold" font-size="16.00" fill="#707070">IAM::Role</text>
<text text-anchor="start" x="379.5" y="-312.2" font-family="Helvetica,sans-Serif" font-size="16.00" fill="#383838">sam&#45;app&#45;ProcessFileFunctionRole&#45;...</text>
</g>
<!-- Role::sam&#45;app&#45;ProcessFileStateMachineRole&#45;AW8NM87RALXW -->
<g id="node3" class="node">
<title>Role::sam&#45;app&#45;ProcessFileStateMachineRole&#45;AW8NM87RALXW</title>
<polygon fill="#e5e5e5" stroke="#dddddd" points="664,-129 363,-129 363,-71 664,-71 664,-129"/>
<text text-anchor="start" x="375.5" y="-109.2" font-family="Helvetica,sans-Serif" font-weight="bold" font-size="16.00" fill="#707070">IAM::Role</text>
<text text-anchor="start" x="375.5" y="-84.2" font-family="Helvetica,sans-Serif" font-size="16.00" fill="#383838">sam&#45;app&#45;ProcessFileStateMachineR...</text>
</g>
<!-- Role::sam&#45;app&#45;SavePayloadAndStartStateMachineFunctionRol&#45;T8BJI53CBED9 -->
<g id="node4" class="node">
<title>Role::sam&#45;app&#45;SavePayloadAndStartStateMachineFunctionRol&#45;T8BJI53CBED9</title>
<polygon fill="#e5e5e5" stroke="#dddddd" points="664,-281 363,-281 363,-223 664,-223 664,-281"/>
<text text-anchor="start" x="375.5" y="-261.2" font-family="Helvetica,sans-Serif" font-weight="bold" font-size="16.00" fill="#707070">IAM::Role</text>
<text text-anchor="start" x="375.5" y="-236.2" font-family="Helvetica,sans-Serif" font-size="16.00" fill="#383838">sam&#45;app&#45;SavePayloadAndStartState...</text>
</g>
<!-- Function::sam&#45;app&#45;AddFooterFunction&#45;Sj4FdUksNsgI -->
<g id="node5" class="node">
<title>Function::sam&#45;app&#45;AddFooterFunction&#45;Sj4FdUksNsgI</title>
<polygon fill="#e5e5e5" stroke="#dddddd" points="326,-433 24,-433 24,-375 326,-375 326,-433"/>
<text text-anchor="start" x="36" y="-413.2" font-family="Helvetica,sans-Serif" font-weight="bold" font-size="16.00" fill="#707070">Lambda::Function</text>
<text text-anchor="start" x="36" y="-388.2" font-family="Helvetica,sans-Serif" font-size="16.00" fill="#383838">sam&#45;app&#45;AddFooterFunction&#45;Sj4FdU...</text>
</g>
<!-- Function::sam&#45;app&#45;AddFooterFunction&#45;Sj4FdUksNsgI&#45;&gt;Role::sam&#45;app&#45;AddFooterFunctionRole&#45;YKMHNXXZVM2U -->
<g id="edge1" class="edge">
<title>Function::sam&#45;app&#45;AddFooterFunction&#45;Sj4FdUksNsgI&#45;&gt;Role::sam&#45;app&#45;AddFooterFunctionRole&#45;YKMHNXXZVM2U</title>
<path fill="none" stroke="#707070" d="M326.04,-404C334.61,-404 343.24,-404 351.84,-404"/>
<polygon fill="#707070" stroke="#707070" points="351.92,-407.5 361.92,-404 351.92,-400.5 351.92,-407.5"/>
</g>
<!-- Function::sam&#45;app&#45;ProcessFileFunction&#45;BW0cLGmLpTil -->
<g id="node6" class="node">
<title>Function::sam&#45;app&#45;ProcessFileFunction&#45;BW0cLGmLpTil</title>
<polygon fill="#e5e5e5" stroke="#dddddd" points="325.5,-357 24.5,-357 24.5,-299 325.5,-299 325.5,-357"/>
<text text-anchor="start" x="37" y="-337.2" font-family="Helvetica,sans-Serif" font-weight="bold" font-size="16.00" fill="#707070">Lambda::Function</text>
<text text-anchor="start" x="37" y="-312.2" font-family="Helvetica,sans-Serif" font-size="16.00" fill="#383838">sam&#45;app&#45;ProcessFileFunction&#45;BW0c...</text>
</g>
<!-- Function::sam&#45;app&#45;ProcessFileFunction&#45;BW0cLGmLpTil&#45;&gt;Role::sam&#45;app&#45;ProcessFileFunctionRole&#45;5JRBG4SP3NP -->
<g id="edge2" class="edge">
<title>Function::sam&#45;app&#45;ProcessFileFunction&#45;BW0cLGmLpTil&#45;&gt;Role::sam&#45;app&#45;ProcessFileFunctionRole&#45;5JRBG4SP3NP</title>
<path fill="none" stroke="#707070" d="M325.55,-328C336.06,-328 346.67,-328 357.21,-328"/>
<polygon fill="#707070" stroke="#707070" points="357.29,-331.5 367.29,-328 357.29,-324.5 357.29,-331.5"/>
</g>
<!-- Function::sam&#45;app&#45;SavePayloadAndStartStateMachineFunction&#45;ylizpGuEZPin -->
<g id="node7" class="node">
<title>Function::sam&#45;app&#45;SavePayloadAndStartStateMachineFunction&#45;ylizpGuEZPin</title>
<polygon fill="#e5e5e5" stroke="#dddddd" points="325.5,-281 24.5,-281 24.5,-223 325.5,-223 325.5,-281"/>
<text text-anchor="start" x="37" y="-261.2" font-family="Helvetica,sans-Serif" font-weight="bold" font-size="16.00" fill="#707070">Lambda::Function</text>
<text text-anchor="start" x="37" y="-236.2" font-family="Helvetica,sans-Serif" font-size="16.00" fill="#383838">sam&#45;app&#45;SavePayloadAndStartState...</text>
</g>
<!-- Function::sam&#45;app&#45;SavePayloadAndStartStateMachineFunction&#45;ylizpGuEZPin&#45;&gt;Role::sam&#45;app&#45;SavePayloadAndStartStateMachineFunctionRol&#45;T8BJI53CBED9 -->
<g id="edge3" class="edge">
<title>Function::sam&#45;app&#45;SavePayloadAndStartStateMachineFunction&#45;ylizpGuEZPin&#45;&gt;Role::sam&#45;app&#45;SavePayloadAndStartStateMachineFunctionRol&#45;T8BJI53CBED9</title>
<path fill="none" stroke="#707070" d="M325.55,-252C334.54,-252 343.61,-252 352.64,-252"/>
<polygon fill="#707070" stroke="#707070" points="352.82,-255.5 362.82,-252 352.82,-248.5 352.82,-255.5"/>
</g>
<!-- Bucket::gc&#45;lambda&#45;s3&#45;sfn&#45;uploads -->
<g id="node8" class="node">
<title>Bucket::gc&#45;lambda&#45;s3&#45;sfn&#45;uploads</title>
<polygon fill="#e5e5e5" stroke="#dddddd" points="281,-205 69,-205 69,-147 281,-147 281,-205"/>
<text text-anchor="start" x="81" y="-185.2" font-family="Helvetica,sans-Serif" font-weight="bold" font-size="16.00" fill="#707070">S3::Bucket</text>
<text text-anchor="start" x="81" y="-160.2" font-family="Helvetica,sans-Serif" font-size="16.00" fill="#383838">gc&#45;lambda&#45;s3&#45;sfn&#45;uploads</text>
</g>
<!-- StateMachine::ProcessFileStateMachine&#45;qIpsVlrcaKko -->
<g id="node9" class="node">
<title>StateMachine::ProcessFileStateMachine&#45;qIpsVlrcaKko</title>
<polygon fill="#e5e5e5" stroke="#dddddd" points="318,-129 32,-129 32,-71 318,-71 318,-129"/>
<text text-anchor="start" x="44" y="-109.2" font-family="Helvetica,sans-Serif" font-weight="bold" font-size="16.00" fill="#707070">StepFunctions::StateMachine</text>
<text text-anchor="start" x="44" y="-84.2" font-family="Helvetica,sans-Serif" font-size="16.00" fill="#383838">ProcessFileStateMachine&#45;qIpsVlrc...</text>
</g>
<!-- StateMachine::ProcessFileStateMachine&#45;qIpsVlrcaKko&#45;&gt;Role::sam&#45;app&#45;ProcessFileStateMachineRole&#45;AW8NM87RALXW -->
<g id="edge4" class="edge">
<title>StateMachine::ProcessFileStateMachine&#45;qIpsVlrcaKko&#45;&gt;Role::sam&#45;app&#45;ProcessFileStateMachineRole&#45;AW8NM87RALXW</title>
<path fill="none" stroke="#707070" d="M318.22,-100C329.66,-100 341.27,-100 352.83,-100"/>
<polygon fill="#707070" stroke="#707070" points="352.97,-103.5 362.97,-100 352.97,-96.5 352.97,-103.5"/>
</g>
</g>
</svg>
