<?xml version="1.0" encoding="UTF-8" standalone="no"?><svg xmlns="http://www.w3.org/2000/svg" xmlns:xlink="http://www.w3.org/1999/xlink" contentScriptType="application/ecmascript" contentStyleType="text/css" height="1528px" preserveAspectRatio="none" style="width:557px;height:1528px;background:#FFFFFF;" version="1.1" viewBox="0 0 557 1528" width="557px" zoomAndPan="magnify"><defs><filter height="300%" id="fzx74xbtevi2b" width="300%" x="-1" y="-1"><feGaussianBlur result="blurOut" stdDeviation="2.0"/><feColorMatrix in="blurOut" result="blurOut2" type="matrix" values="0 0 0 0 0 0 0 0 0 0 0 0 0 0 0 0 0 0 .4 0"/><feOffset dx="4.0" dy="4.0" in="blurOut2" result="blurOut3"/><feBlend in="SourceGraphic" in2="blurOut3" mode="normal"/></filter></defs><g><rect fill="none" height="26.4883" style="stroke:none;stroke-width:1.0;" width="306" x="95.5" y="15"/><text fill="#000000" font-family="sans-serif" font-size="14" font-weight="bold" lengthAdjust="spacing" textLength="296" x="100.5" y="33.5352">Resources for project apigw-fargate-cdk</text><rect fill="#F8F8F8" filter="url(#fzx74xbtevi2b)" height="36.4883" rx="12.5" ry="12.5" style="stroke:#383838;stroke-width:1.5;" width="52" x="10" y="763.5918"/><text fill="#000000" font-family="sans-serif" font-size="14" lengthAdjust="spacing" textLength="32" x="20" y="787.127">Infra</text><rect fill="#F8F8F8" filter="url(#fzx74xbtevi2b)" height="36.4883" rx="12.5" ry="12.5" style="stroke:#383838;stroke-width:1.5;" width="46" x="112" y="763.5918"/><text fill="#000000" font-family="sans-serif" font-size="14" lengthAdjust="spacing" textLength="26" x="122" y="787.127">aws</text><rect fill="#F8F8F8" filter="url(#fzx74xbtevi2b)" height="36.4883" rx="12.5" ry="12.5" style="stroke:#383838;stroke-width:1.5;" width="118" x="208" y="198.709"/><text fill="#000000" font-family="sans-serif" font-size="14" lengthAdjust="spacing" textLength="98" x="218" y="222.2441">ApiGatewayV2</text><rect fill="#F8F8F8" filter="url(#fzx74xbtevi2b)" height="36.4883" rx="12.5" ry="12.5" style="stroke:#383838;stroke-width:1.5;" width="66" x="376" y="57.4883"/><text fill="#000000" font-family="sans-serif" font-size="14" lengthAdjust="spacing" textLength="46" x="386" y="81.0234">Api (1)</text><path d="M326,216.9531 L336,216.9531 C351,216.9531 351,75.7324 366,75.7324 L376,75.7324 " fill="none" style="stroke:#383838;stroke-width:1.0;"/><rect fill="#F8F8F8" filter="url(#fzx74xbtevi2b)" height="36.4883" rx="12.5" ry="12.5" style="stroke:#383838;stroke-width:1.5;" width="81" x="376" y="113.9766"/><text fill="#000000" font-family="sans-serif" font-size="14" lengthAdjust="spacing" textLength="61" x="386" y="137.5117">Stage (1)</text><path d="M326,216.9531 L336,216.9531 C351,216.9531 351,132.2207 366,132.2207 L376,132.2207 " fill="none" style="stroke:#383838;stroke-width:1.0;"/><rect fill="#F8F8F8" filter="url(#fzx74xbtevi2b)" height="36.4883" rx="12.5" ry="12.5" style="stroke:#383838;stroke-width:1.5;" width="119" x="376" y="170.4648"/><text fill="#000000" font-family="sans-serif" font-size="14" lengthAdjust="spacing" textLength="99" x="386" y="194">Integration (1)</text><path d="M326,216.9531 L336,216.9531 C351,216.9531 351,188.709 366,188.709 L376,188.709 " fill="none" style="stroke:#383838;stroke-width:1.0;"/><rect fill="#F8F8F8" filter="url(#fzx74xbtevi2b)" height="36.4883" rx="12.5" ry="12.5" style="stroke:#383838;stroke-width:1.5;" width="83" x="376" y="226.9531"/><text fill="#000000" font-family="sans-serif" font-size="14" lengthAdjust="spacing" textLength="63" x="386" y="250.4883">Route (1)</text><path d="M326,216.9531 L336,216.9531 C351,216.9531 351,245.1973 366,245.1973 L376,245.1973 " fill="none" style="stroke:#383838;stroke-width:1.0;"/><rect fill="#F8F8F8" filter="url(#fzx74xbtevi2b)" height="36.4883" rx="12.5" ry="12.5" style="stroke:#383838;stroke-width:1.5;" width="125" x="376" y="283.4414"/><text fill="#000000" font-family="sans-serif" font-size="14" lengthAdjust="spacing" textLength="105" x="386" y="306.9766">Deployment (1)</text><path d="M326,216.9531 L336,216.9531 C351,216.9531 351,301.6855 366,301.6855 L376,301.6855 " fill="none" style="stroke:#383838;stroke-width:1.0;"/><rect fill="#F8F8F8" filter="url(#fzx74xbtevi2b)" height="36.4883" rx="12.5" ry="12.5" style="stroke:#383838;stroke-width:1.5;" width="96" x="376" y="339.9297"/><text fill="#000000" font-family="sans-serif" font-size="14" lengthAdjust="spacing" textLength="76" x="386" y="363.4648">VpcLink (1)</text><path d="M326,216.9531 L336,216.9531 C351,216.9531 351,358.1738 366,358.1738 L376,358.1738 " fill="none" style="stroke:#383838;stroke-width:1.0;"/><path d="M158,781.8359 L168,781.8359 C183,781.8359 183,216.9531 198,216.9531 L208,216.9531 " fill="none" style="stroke:#383838;stroke-width:1.0;"/><rect fill="#F8F8F8" filter="url(#fzx74xbtevi2b)" height="36.4883" rx="12.5" ry="12.5" style="stroke:#383838;stroke-width:1.5;" width="134" x="208" y="396.418"/><text fill="#000000" font-family="sans-serif" font-size="14" lengthAdjust="spacing" textLength="114" x="218" y="419.9531">CloudWatchLogs</text><rect fill="#F8F8F8" filter="url(#fzx74xbtevi2b)" height="36.4883" rx="12.5" ry="12.5" style="stroke:#383838;stroke-width:1.5;" width="111" x="392" y="396.418"/><text fill="#000000" font-family="sans-serif" font-size="14" lengthAdjust="spacing" textLength="91" x="402" y="419.9531">LogGroup (1)</text><path d="M342,414.6621 L352,414.6621 C367,414.6621 367,414.6621 382,414.6621 L392,414.6621 " fill="none" style="stroke:#383838;stroke-width:1.0;"/><path d="M158,781.8359 L168,781.8359 C183,781.8359 183,414.6621 198,414.6621 L208,414.6621 " fill="none" style="stroke:#383838;stroke-width:1.0;"/><rect fill="#F8F8F8" filter="url(#fzx74xbtevi2b)" height="36.4883" rx="12.5" ry="12.5" style="stroke:#383838;stroke-width:1.5;" width="47" x="208" y="763.5918"/><text fill="#000000" font-family="sans-serif" font-size="14" lengthAdjust="spacing" textLength="27" x="218" y="787.127">EC2</text><rect fill="#F8F8F8" filter="url(#fzx74xbtevi2b)" height="36.4883" rx="12.5" ry="12.5" style="stroke:#383838;stroke-width:1.5;" width="68" x="305" y="452.9063"/><text fill="#000000" font-family="sans-serif" font-size="14" lengthAdjust="spacing" textLength="48" x="315" y="476.4414">Vpc (1)</text><path d="M255,781.8359 L265,781.8359 C280,781.8359 280,471.1504 295,471.1504 L305,471.1504 " fill="none" style="stroke:#383838;stroke-width:1.0;"/><rect fill="#F8F8F8" filter="url(#fzx74xbtevi2b)" height="36.4883" rx="12.5" ry="12.5" style="stroke:#383838;stroke-width:1.5;" width="154" x="305" y="509.3945"/><text fill="#000000" font-family="sans-serif" font-size="14" lengthAdjust="spacing" textLength="134" x="315" y="532.9297">InternetGateway (1)</text><path d="M255,781.8359 L265,781.8359 C280,781.8359 280,527.6387 295,527.6387 L305,527.6387 " fill="none" style="stroke:#383838;stroke-width:1.0;"/><rect fill="#F8F8F8" filter="url(#fzx74xbtevi2b)" height="36.4883" rx="12.5" ry="12.5" style="stroke:#383838;stroke-width:1.5;" width="233" x="305" y="565.8828"/><text fill="#000000" font-family="sans-serif" font-size="14" lengthAdjust="spacing" textLength="213" x="315" y="589.418">InternetGatewayAttachment (1)</text><path d="M255,781.8359 L265,781.8359 C280,781.8359 280,584.127 295,584.127 L305,584.127 " fill="none" style="stroke:#383838;stroke-width:1.0;"/><rect fill="#F8F8F8" filter="url(#fzx74xbtevi2b)" height="36.4883" rx="12.5" ry="12.5" style="stroke:#383838;stroke-width:1.5;" width="123" x="305" y="622.3711"/><text fill="#000000" font-family="sans-serif" font-size="14" lengthAdjust="spacing" textLength="103" x="315" y="645.9063">NatGateway (2)</text><path d="M255,781.8359 L265,781.8359 C280,781.8359 280,640.6152 295,640.6152 L305,640.6152 " fill="none" style="stroke:#383838;stroke-width:1.0;"/><rect fill="#F8F8F8" filter="url(#fzx74xbtevi2b)" height="36.4883" rx="12.5" ry="12.5" style="stroke:#383838;stroke-width:1.5;" width="91" x="305" y="678.8594"/><text fill="#000000" font-family="sans-serif" font-size="14" lengthAdjust="spacing" textLength="71" x="315" y="702.3945">Subnet (4)</text><path d="M255,781.8359 L265,781.8359 C280,781.8359 280,697.1035 295,697.1035 L305,697.1035 " fill="none" style="stroke:#383838;stroke-width:1.0;"/><rect fill="#F8F8F8" filter="url(#fzx74xbtevi2b)" height="36.4883" rx="12.5" ry="12.5" style="stroke:#383838;stroke-width:1.5;" width="121" x="305" y="735.3477"/><text fill="#000000" font-family="sans-serif" font-size="14" lengthAdjust="spacing" textLength="101" x="315" y="758.8828">RouteTable (4)</text><path d="M255,781.8359 L265,781.8359 C280,781.8359 280,753.5918 295,753.5918 L305,753.5918 " fill="none" style="stroke:#383838;stroke-width:1.0;"/><rect fill="#F8F8F8" filter="url(#fzx74xbtevi2b)" height="36.4883" rx="12.5" ry="12.5" style="stroke:#383838;stroke-width:1.5;" width="200" x="305" y="791.8359"/><text fill="#000000" font-family="sans-serif" font-size="14" lengthAdjust="spacing" textLength="180" x="315" y="815.3711">RouteTableAssociation (4)</text><path d="M255,781.8359 L265,781.8359 C280,781.8359 280,810.0801 295,810.0801 L305,810.0801 " fill="none" style="stroke:#383838;stroke-width:1.0;"/><rect fill="#F8F8F8" filter="url(#fzx74xbtevi2b)" height="36.4883" rx="12.5" ry="12.5" style="stroke:#383838;stroke-width:1.5;" width="83" x="305" y="848.3242"/><text fill="#000000" font-family="sans-serif" font-size="14" lengthAdjust="spacing" textLength="63" x="315" y="871.8594">Route (4)</text><path d="M255,781.8359 L265,781.8359 C280,781.8359 280,866.5684 295,866.5684 L305,866.5684 " fill="none" style="stroke:#383838;stroke-width:1.0;"/><rect fill="#F8F8F8" filter="url(#fzx74xbtevi2b)" height="36.4883" rx="12.5" ry="12.5" style="stroke:#383838;stroke-width:1.5;" width="140" x="305" y="904.8125"/><text fill="#000000" font-family="sans-serif" font-size="14" lengthAdjust="spacing" textLength="120" x="315" y="928.3477">SecurityGroup (2)</text><path d="M255,781.8359 L265,781.8359 C280,781.8359 280,923.0566 295,923.0566 L305,923.0566 " fill="none" style="stroke:#383838;stroke-width:1.0;"/><rect fill="#F8F8F8" filter="url(#fzx74xbtevi2b)" height="36.4883" rx="12.5" ry="12.5" style="stroke:#383838;stroke-width:1.5;" width="220" x="305" y="961.3008"/><text fill="#000000" font-family="sans-serif" font-size="14" lengthAdjust="spacing" textLength="200" x="315" y="984.8359">SecurityGroupRuleIngress (2)</text><path d="M255,781.8359 L265,781.8359 C280,781.8359 280,979.5449 295,979.5449 L305,979.5449 " fill="none" style="stroke:#383838;stroke-width:1.0;"/><rect fill="#F8F8F8" filter="url(#fzx74xbtevi2b)" height="36.4883" rx="12.5" ry="12.5" style="stroke:#383838;stroke-width:1.5;" width="215" x="305" y="1017.7891"/><text fill="#000000" font-family="sans-serif" font-size="14" lengthAdjust="spacing" textLength="195" x="315" y="1041.3242">SecurityGroupRuleEgress (1)</text><path d="M255,781.8359 L265,781.8359 C280,781.8359 280,1036.0332 295,1036.0332 L305,1036.0332 " fill="none" style="stroke:#383838;stroke-width:1.0;"/><rect fill="#F8F8F8" filter="url(#fzx74xbtevi2b)" height="36.4883" rx="12.5" ry="12.5" style="stroke:#383838;stroke-width:1.5;" width="155" x="305" y="1074.2773"/><text fill="#000000" font-family="sans-serif" font-size="14" lengthAdjust="spacing" textLength="135" x="315" y="1097.8125">ElasticIpAddress (2)</text><path d="M255,781.8359 L265,781.8359 C280,781.8359 280,1092.5215 295,1092.5215 L305,1092.5215 " fill="none" style="stroke:#383838;stroke-width:1.0;"/><path d="M158,781.8359 L168,781.8359 C183,781.8359 183,781.8359 198,781.8359 L208,781.8359 " fill="none" style="stroke:#383838;stroke-width:1.0;"/><rect fill="#F8F8F8" filter="url(#fzx74xbtevi2b)" height="36.4883" rx="12.5" ry="12.5" style="stroke:#383838;stroke-width:1.5;" width="46" x="208" y="1187.2539"/><text fill="#000000" font-family="sans-serif" font-size="14" lengthAdjust="spacing" textLength="26" x="218" y="1210.7891">ECS</text><rect fill="#F8F8F8" filter="url(#fzx74xbtevi2b)" height="36.4883" rx="12.5" ry="12.5" style="stroke:#383838;stroke-width:1.5;" width="92" x="304" y="1130.7656"/><text fill="#000000" font-family="sans-serif" font-size="14" lengthAdjust="spacing" textLength="72" x="314" y="1154.3008">Cluster (1)</text><path d="M254,1205.498 L264,1205.498 C279,1205.498 279,1149.0098 294,1149.0098 L304,1149.0098 " fill="none" style="stroke:#383838;stroke-width:1.0;"/><rect fill="#F8F8F8" filter="url(#fzx74xbtevi2b)" height="36.4883" rx="12.5" ry="12.5" style="stroke:#383838;stroke-width:1.5;" width="142" x="304" y="1187.2539"/><text fill="#000000" font-family="sans-serif" font-size="14" lengthAdjust="spacing" textLength="122" x="314" y="1210.7891">TaskDefinition (1)</text><path d="M254,1205.498 L264,1205.498 C279,1205.498 279,1205.498 294,1205.498 L304,1205.498 " fill="none" style="stroke:#383838;stroke-width:1.0;"/><rect fill="#F8F8F8" filter="url(#fzx74xbtevi2b)" height="36.4883" rx="12.5" ry="12.5" style="stroke:#383838;stroke-width:1.5;" width="91" x="304" y="1243.7422"/><text fill="#000000" font-family="sans-serif" font-size="14" lengthAdjust="spacing" textLength="71" x="314" y="1267.2773">Service (1)</text><path d="M254,1205.498 L264,1205.498 C279,1205.498 279,1261.9863 294,1261.9863 L304,1261.9863 " fill="none" style="stroke:#383838;stroke-width:1.0;"/><path d="M158,781.8359 L168,781.8359 C183,781.8359 183,1205.498 198,1205.498 L208,1205.498 " fill="none" style="stroke:#383838;stroke-width:1.0;"/><rect fill="#F8F8F8" filter="url(#fzx74xbtevi2b)" height="36.4883" rx="12.5" ry="12.5" style="stroke:#383838;stroke-width:1.5;" width="59" x="208" y="1356.7188"/><text fill="#000000" font-family="sans-serif" font-size="14" lengthAdjust="spacing" textLength="39" x="218" y="1380.2539">ELBv2</text><rect fill="#F8F8F8" filter="url(#fzx74xbtevi2b)" height="36.4883" rx="12.5" ry="12.5" style="stroke:#383838;stroke-width:1.5;" width="134" x="317" y="1300.2305"/><text fill="#000000" font-family="sans-serif" font-size="14" lengthAdjust="spacing" textLength="114" x="327" y="1323.7656">LoadBalancer (1)</text><path d="M267,1374.9629 L277,1374.9629 C292,1374.9629 292,1318.4746 307,1318.4746 L317,1318.4746 " fill="none" style="stroke:#383838;stroke-width:1.0;"/><rect fill="#F8F8F8" filter="url(#fzx74xbtevi2b)" height="36.4883" rx="12.5" ry="12.5" style="stroke:#383838;stroke-width:1.5;" width="131" x="317" y="1356.7188"/><text fill="#000000" font-family="sans-serif" font-size="14" lengthAdjust="spacing" textLength="111" x="327" y="1380.2539">TargetGroup (1)</text><path d="M267,1374.9629 L277,1374.9629 C292,1374.9629 292,1374.9629 307,1374.9629 L317,1374.9629 " fill="none" style="stroke:#383838;stroke-width:1.0;"/><rect fill="#F8F8F8" filter="url(#fzx74xbtevi2b)" height="36.4883" rx="12.5" ry="12.5" style="stroke:#383838;stroke-width:1.5;" width="97" x="317" y="1413.207"/><text fill="#000000" font-family="sans-serif" font-size="14" lengthAdjust="spacing" textLength="77" x="327" y="1436.7422">Listener (1)</text><path d="M267,1374.9629 L277,1374.9629 C292,1374.9629 292,1431.4512 307,1431.4512 L317,1431.4512 " fill="none" style="stroke:#383838;stroke-width:1.0;"/><path d="M158,781.8359 L168,781.8359 C183,781.8359 183,1374.9629 198,1374.9629 L208,1374.9629 " fill="none" style="stroke:#383838;stroke-width:1.0;"/><rect fill="#F8F8F8" filter="url(#fzx74xbtevi2b)" height="36.4883" rx="12.5" ry="12.5" style="stroke:#383838;stroke-width:1.5;" width="46" x="208" y="1469.6953"/><text fill="#000000" font-family="sans-serif" font-size="14" lengthAdjust="spacing" textLength="26" x="218" y="1493.2305">IAM</text><rect fill="#F8F8F8" filter="url(#fzx74xbtevi2b)" height="36.4883" rx="12.5" ry="12.5" style="stroke:#383838;stroke-width:1.5;" width="73" x="304" y="1469.6953"/><text fill="#000000" font-family="sans-serif" font-size="14" lengthAdjust="spacing" textLength="53" x="314" y="1493.2305">Role (2)</text><path d="M254,1487.9395 L264,1487.9395 C279,1487.9395 279,1487.9395 294,1487.9395 L304,1487.9395 " fill="none" style="stroke:#383838;stroke-width:1.0;"/><path d="M158,781.8359 L168,781.8359 C183,781.8359 183,1487.9395 198,1487.9395 L208,1487.9395 " fill="none" style="stroke:#383838;stroke-width:1.0;"/><path d="M62,781.8359 L72,781.8359 C87,781.8359 87,781.8359 102,781.8359 L112,781.8359 " fill="none" style="stroke:#383838;stroke-width:1.0;"/><!--MD5=[f10b5b55d1edffef126a37e444f13a20]
@startmindmap
title Resources for project apigw-fargate-cdk
skinparam monochrome true
+ Infra
++ aws
+++ ApiGatewayV2
++++ Api (1)
++++ Stage (1)
++++ Integration (1)
++++ Route (1)
++++ Deployment (1)
++++ VpcLink (1)
+++ CloudWatchLogs
++++ LogGroup (1)
+++ EC2
++++ Vpc (1)
++++ InternetGateway (1)
++++ InternetGatewayAttachment (1)
++++ NatGateway (2)
++++ Subnet (4)
++++ RouteTable (4)
++++ RouteTableAssociation (4)
++++ Route (4)
++++ SecurityGroup (2)
++++ SecurityGroupRuleIngress (2)
++++ SecurityGroupRuleEgress (1)
++++ ElasticIpAddress (2)
+++ ECS
++++ Cluster (1)
++++ TaskDefinition (1)
++++ Service (1)
+++ ELBv2
++++ LoadBalancer (1)
++++ TargetGroup (1)
++++ Listener (1)
+++ IAM
++++ Role (2)
@endmindmap

PlantUML version 1.2021.8(Sat Jun 26 10:20:59 CEST 2021)
(GPL source distribution)
Java Runtime: OpenJDK Runtime Environment
JVM: OpenJDK 64-Bit Server VM
Default Encoding: UTF-8
Language: en
Country: GB
--></g></svg>