<?xml version="1.0" encoding="UTF-8" standalone="no"?>
<!DOCTYPE svg PUBLIC "-//W3C//DTD SVG 1.1//EN"
 "http://www.w3.org/Graphics/SVG/1.1/DTD/svg11.dtd">
<!-- Generated by graphviz version 2.44.1 (20200629.0846)
 -->
<!-- Title: graphname Pages: 1 -->
<svg width="394pt" height="118pt"
 viewBox="0.00 0.00 394.00 118.00" xmlns="http://www.w3.org/2000/svg" xmlns:xlink="http://www.w3.org/1999/xlink">
<g id="graph0" class="graph" transform="scale(1 1) rotate(0) translate(4 114)">
<title>graphname</title>
<polygon fill="white" stroke="transparent" points="-4,4 -4,-114 390,-114 390,4 -4,4"/>
<g id="clust1" class="cluster">
<title>cluster_google</title>
<polygon fill="none" stroke="#383838" points="8,-8 8,-102 378,-102 378,-8 8,-8"/>
<text text-anchor="start" x="160.5" y="-83" font-family="Helvetica,sans-Serif" font-weight="bold" font-size="20.00" fill="#383838">google</text>
</g>
<!-- ServiceAccount::sa&#45;dev -->
<g id="node1" class="node">
<title>ServiceAccount::sa&#45;dev</title>
<polygon fill="none" stroke="#383838" points="370,-63.5 272,-63.5 272,-16.5 370,-16.5 370,-63.5"/>
<text text-anchor="start" x="284" y="-48" font-family="Helvetica,sans-Serif" font-weight="bold" font-size="10.00" fill="#707070">ServiceAccount</text>
<text text-anchor="start" x="284" y="-27.6" font-family="Helvetica,sans-Serif" font-size="13.00" fill="#383838">sa&#45;dev</text>
</g>
<!-- IamBinding::roles/firebasenotifications.viewer -->
<g id="node2" class="node">
<title>IamBinding::roles/firebasenotifications.viewer</title>
<polygon fill="none" stroke="#383838" points="236,-63.5 16,-63.5 16,-16.5 236,-16.5 236,-63.5"/>
<text text-anchor="start" x="28" y="-48" font-family="Helvetica,sans-Serif" font-weight="bold" font-size="10.00" fill="#707070">IamBinding</text>
<text text-anchor="start" x="28" y="-27.6" font-family="Helvetica,sans-Serif" font-size="13.00" fill="#383838">roles/firebasenotifications.viewer</text>
</g>
<!-- IamBinding::roles/firebasenotifications.viewer&#45;&gt;ServiceAccount::sa&#45;dev -->
<g id="edge1" class="edge">
<title>IamBinding::roles/firebasenotifications.viewer&#45;&gt;ServiceAccount::sa&#45;dev</title>
<path fill="none" stroke="#383838" d="M236.19,-40C244.95,-40 253.56,-40 261.74,-40"/>
<polygon fill="#383838" stroke="#383838" points="261.84,-43.5 271.84,-40 261.84,-36.5 261.84,-43.5"/>
</g>
</g>
</svg>
