<?xml version="1.0" encoding="UTF-8" standalone="no"?>
<!DOCTYPE svg PUBLIC "-//W3C//DTD SVG 1.1//EN"
 "http://www.w3.org/Graphics/SVG/1.1/DTD/svg11.dtd">
<!-- Generated by graphviz version 2.44.1 (20200629.0846)
 -->
<!-- Title: graphname Pages: 1 -->
<svg width="625pt" height="313pt"
 viewBox="0.00 0.00 625.00 313.00" xmlns="http://www.w3.org/2000/svg" xmlns:xlink="http://www.w3.org/1999/xlink">
<g id="graph0" class="graph" transform="scale(1 1) rotate(0) translate(4 309)">
<title>graphname</title>
<polygon fill="#fafafa" stroke="transparent" points="-4,4 -4,-309 621,-309 621,4 -4,4"/>
<text text-anchor="start" x="190.5" y="-280.4" font-family="Helvetica,sans-Serif" font-weight="bold" font-size="22.00" fill="#383838">Project SSL Certificate</text>
<text text-anchor="start" x="305" y="-264.8" font-family="Helvetica,sans-Serif" font-size="14.00"> &#160;</text>
<text text-anchor="start" x="190.5" y="-243.2" font-family="Helvetica,sans-Serif" font-weight="bold" font-size="16.00" fill="#707070">Target Diagram</text>
<g id="clust1" class="cluster">
<title>cluster_aws</title>
<polygon fill="#f5f5f5" stroke="#f5f5f5" points="8,-8 8,-221 609,-221 609,-8 8,-8"/>
<text text-anchor="start" x="246.5" y="-23" font-family="Helvetica,sans-Serif" font-weight="bold" font-size="20.00" fill="#707070">Provider aws</text>
</g>
<g id="clust2" class="cluster">
<title>cluster_aws_</title>
<polygon fill="#eeeeee" stroke="#eeeeee" points="16,-54 16,-213 601,-213 601,-54 16,-54"/>
<text text-anchor="start" x="308.36" y="-58.3" font-family="Helvetica,sans-Serif" font-size="1.00" fill="#383838"> </text>
</g>
<!-- Certificate::grucloud.org -->
<g id="node1" class="node">
<title>Certificate::grucloud.org</title>
<polygon fill="#e5e5e5" stroke="#dddddd" points="440,-129 325,-129 325,-71 440,-71 440,-129"/>
<text text-anchor="start" x="337.5" y="-109.2" font-family="Helvetica,sans-Serif" font-weight="bold" font-size="16.00" fill="#707070">Certificate</text>
<text text-anchor="start" x="337.5" y="-84.2" font-family="Helvetica,sans-Serif" font-size="16.00" fill="#383838">grucloud.org</text>
</g>
<!-- HostedZone::grucloud.org. -->
<g id="node2" class="node">
<title>HostedZone::grucloud.org.</title>
<polygon fill="#e5e5e5" stroke="#dddddd" points="442,-205 323,-205 323,-147 442,-147 442,-205"/>
<text text-anchor="start" x="335.5" y="-185.2" font-family="Helvetica,sans-Serif" font-weight="bold" font-size="16.00" fill="#707070">HostedZone</text>
<text text-anchor="start" x="335.5" y="-160.2" font-family="Helvetica,sans-Serif" font-size="16.00" fill="#383838">grucloud.org.</text>
</g>
<!-- Domain::grucloud.org -->
<g id="node4" class="node">
<title>Domain::grucloud.org</title>
<polygon fill="#e5e5e5" stroke="#dddddd" points="593,-205 478,-205 478,-147 593,-147 593,-205"/>
<text text-anchor="start" x="490.5" y="-185.2" font-family="Helvetica,sans-Serif" font-weight="bold" font-size="16.00" fill="#707070">Domain</text>
<text text-anchor="start" x="490.5" y="-160.2" font-family="Helvetica,sans-Serif" font-size="16.00" fill="#383838">grucloud.org</text>
</g>
<!-- HostedZone::grucloud.org.&#45;&gt;Domain::grucloud.org -->
<g id="edge1" class="edge">
<title>HostedZone::grucloud.org.&#45;&gt;Domain::grucloud.org</title>
<path fill="none" stroke="#707070" d="M442.31,-176C450.56,-176 459.08,-176 467.46,-176"/>
<polygon fill="#707070" stroke="#707070" points="467.58,-179.5 477.58,-176 467.58,-172.5 467.58,-179.5"/>
</g>
<!-- Record::record::ACM::Certificate::grucloud.org -->
<g id="node3" class="node">
<title>Record::record::ACM::Certificate::grucloud.org</title>
<polygon fill="#e5e5e5" stroke="#dddddd" points="287,-167 24,-167 24,-109 287,-109 287,-167"/>
<text text-anchor="start" x="36.5" y="-147.2" font-family="Helvetica,sans-Serif" font-weight="bold" font-size="16.00" fill="#707070">Record</text>
<text text-anchor="start" x="36.5" y="-122.2" font-family="Helvetica,sans-Serif" font-size="16.00" fill="#383838">record::ACM::Certificate::gruclo...</text>
</g>
<!-- Record::record::ACM::Certificate::grucloud.org&#45;&gt;Certificate::grucloud.org -->
<g id="edge3" class="edge">
<title>Record::record::ACM::Certificate::grucloud.org&#45;&gt;Certificate::grucloud.org</title>
<path fill="none" stroke="#707070" d="M287.06,-115.95C296.64,-114.33 306.03,-112.75 314.97,-111.24"/>
<polygon fill="#707070" stroke="#707070" points="315.56,-114.69 324.84,-109.57 314.39,-107.78 315.56,-114.69"/>
</g>
<!-- Record::record::ACM::Certificate::grucloud.org&#45;&gt;HostedZone::grucloud.org. -->
<g id="edge2" class="edge">
<title>Record::record::ACM::Certificate::grucloud.org&#45;&gt;HostedZone::grucloud.org.</title>
<path fill="none" stroke="#707070" d="M287.06,-160.05C295.88,-161.54 304.55,-163 312.84,-164.4"/>
<polygon fill="#707070" stroke="#707070" points="312.31,-167.86 322.75,-166.08 313.47,-160.96 312.31,-167.86"/>
</g>
</g>
</svg>
