<?xml version="1.0" encoding="UTF-8" standalone="no"?>
<!DOCTYPE svg PUBLIC "-//W3C//DTD SVG 1.1//EN"
 "http://www.w3.org/Graphics/SVG/1.1/DTD/svg11.dtd">
<!-- Generated by graphviz version 3.0.0 (20220226.1711)
 -->
<!-- Title: graphname Pages: 1 -->
<svg width="805pt" height="313pt"
 viewBox="0.00 0.00 805.00 313.00" xmlns="http://www.w3.org/2000/svg" xmlns:xlink="http://www.w3.org/1999/xlink">
<g id="graph0" class="graph" transform="scale(1 1) rotate(0) translate(4 309)">
<title>graphname</title>
<polygon fill="#fafafa" stroke="transparent" points="-4,4 -4,-309 801,-309 801,4 -4,4"/>
<text text-anchor="start" x="280.5" y="-280.4" font-family="Helvetica,sans-Serif" font-weight="bold" font-size="22.00" fill="#383838">Project SSL Certificate</text>
<text text-anchor="start" x="395" y="-264.8" font-family="Helvetica,sans-Serif" font-size="14.00"> &#160;</text>
<text text-anchor="start" x="280.5" y="-243.2" font-family="Helvetica,sans-Serif" font-weight="bold" font-size="16.00" fill="#707070">Target Diagram</text>
<g id="clust1" class="cluster">
<title>cluster_aws</title>
<polygon fill="#f5f5f5" stroke="#f5f5f5" points="8,-8 8,-221 789,-221 789,-8 8,-8"/>
<text text-anchor="start" x="336.5" y="-23" font-family="Helvetica,sans-Serif" font-weight="bold" font-size="20.00" fill="#707070">Provider aws</text>
</g>
<g id="clust2" class="cluster">
<title>cluster_aws_</title>
<polygon fill="#eeeeee" stroke="#eeeeee" points="16,-54 16,-213 781,-213 781,-54 16,-54"/>
<text text-anchor="start" x="398.36" y="-58.3" font-family="Helvetica,sans-Serif" font-size="1.00" fill="#383838"> </text>
</g>
<!-- Certificate::grucloud.org -->
<g id="node1" class="node">
<title>Certificate::grucloud.org</title>
<polygon fill="#e5e5e5" stroke="#dddddd" points="492.5,-129 343.5,-129 343.5,-71 492.5,-71 492.5,-129"/>
<text text-anchor="start" x="356" y="-109.2" font-family="Helvetica,sans-Serif" font-weight="bold" font-size="16.00" fill="#707070">ACM::Certificate</text>
<text text-anchor="start" x="356" y="-84.2" font-family="Helvetica,sans-Serif" font-size="16.00" fill="#383838">grucloud.org</text>
</g>
<!-- HostedZone::grucloud.org. -->
<g id="node2" class="node">
<title>HostedZone::grucloud.org.</title>
<polygon fill="#e5e5e5" stroke="#dddddd" points="513,-205 323,-205 323,-147 513,-147 513,-205"/>
<text text-anchor="start" x="335" y="-185.2" font-family="Helvetica,sans-Serif" font-weight="bold" font-size="16.00" fill="#707070">Route53::HostedZone</text>
<text text-anchor="start" x="335" y="-160.2" font-family="Helvetica,sans-Serif" font-size="16.00" fill="#383838">grucloud.org.</text>
</g>
<!-- Domain::grucloud.org -->
<g id="node4" class="node">
<title>Domain::grucloud.org</title>
<polygon fill="#e5e5e5" stroke="#dddddd" points="773,-205 549,-205 549,-147 773,-147 773,-205"/>
<text text-anchor="start" x="561" y="-185.2" font-family="Helvetica,sans-Serif" font-weight="bold" font-size="16.00" fill="#707070">Route53Domains::Domain</text>
<text text-anchor="start" x="561" y="-160.2" font-family="Helvetica,sans-Serif" font-size="16.00" fill="#383838">grucloud.org</text>
</g>
<!-- HostedZone::grucloud.org.&#45;&gt;Domain::grucloud.org -->
<g id="edge1" class="edge">
<title>HostedZone::grucloud.org.&#45;&gt;Domain::grucloud.org</title>
<path fill="none" stroke="#707070" d="M513.21,-176C521.56,-176 530.09,-176 538.62,-176"/>
<polygon fill="#707070" stroke="#707070" points="538.63,-179.5 548.63,-176 538.63,-172.5 538.63,-179.5"/>
</g>
<!-- Record::record::ACM::Certificate::grucloud.org -->
<g id="node3" class="node">
<title>Record::record::ACM::Certificate::grucloud.org</title>
<polygon fill="#e5e5e5" stroke="#dddddd" points="287,-167 24,-167 24,-109 287,-109 287,-167"/>
<text text-anchor="start" x="36.5" y="-147.2" font-family="Helvetica,sans-Serif" font-weight="bold" font-size="16.00" fill="#707070">Route53::Record</text>
<text text-anchor="start" x="36.5" y="-122.2" font-family="Helvetica,sans-Serif" font-size="16.00" fill="#383838">record::ACM::Certificate::gruclo...</text>
</g>
<!-- Record::record::ACM::Certificate::grucloud.org&#45;&gt;Certificate::grucloud.org -->
<g id="edge3" class="edge">
<title>Record::record::ACM::Certificate::grucloud.org&#45;&gt;Certificate::grucloud.org</title>
<path fill="none" stroke="#707070" d="M287.13,-118.94C302.81,-116.66 318.48,-114.37 333.24,-112.22"/>
<polygon fill="#707070" stroke="#707070" points="333.9,-115.66 343.29,-110.75 332.89,-108.73 333.9,-115.66"/>
</g>
<!-- Record::record::ACM::Certificate::grucloud.org&#45;&gt;HostedZone::grucloud.org. -->
<g id="edge2" class="edge">
<title>Record::record::ACM::Certificate::grucloud.org&#45;&gt;HostedZone::grucloud.org.</title>
<path fill="none" stroke="#707070" d="M287.13,-157.06C295.8,-158.32 304.47,-159.58 312.98,-160.83"/>
<polygon fill="#707070" stroke="#707070" points="312.48,-164.29 322.89,-162.27 313.5,-157.36 312.48,-164.29"/>
</g>
</g>
</svg>
