<?xml version="1.0" encoding="UTF-8" standalone="no"?>
<!DOCTYPE svg PUBLIC "-//W3C//DTD SVG 1.1//EN"
 "http://www.w3.org/Graphics/SVG/1.1/DTD/svg11.dtd">
<!-- Generated by graphviz version 3.0.0 (20220226.1711)
 -->
<!-- Title: graphname Pages: 1 -->
<svg width="1255pt" height="581pt"
 viewBox="0.00 0.00 1255.00 581.00" xmlns="http://www.w3.org/2000/svg" xmlns:xlink="http://www.w3.org/1999/xlink">
<g id="graph0" class="graph" transform="scale(1 1) rotate(0) translate(4 577)">
<title>graphname</title>
<polygon fill="#fafafa" stroke="transparent" points="-4,4 -4,-577 1251,-577 1251,4 -4,4"/>
<text text-anchor="start" x="503.5" y="-548.4" font-family="Helvetica,sans-Serif" font-weight="bold" font-size="22.00" fill="#383838">Project cognito&#45;httpapi</text>
<text text-anchor="start" x="620" y="-532.8" font-family="Helvetica,sans-Serif" font-size="14.00"> &#160;</text>
<text text-anchor="start" x="503.5" y="-511.2" font-family="Helvetica,sans-Serif" font-weight="bold" font-size="16.00" fill="#707070">Target Diagram</text>
<g id="clust1" class="cluster">
<title>cluster_aws</title>
<polygon fill="#f5f5f5" stroke="#f5f5f5" points="8,-8 8,-489 1239,-489 1239,-8 8,-8"/>
<text text-anchor="start" x="561.5" y="-23" font-family="Helvetica,sans-Serif" font-weight="bold" font-size="20.00" fill="#707070">Provider aws</text>
</g>
<g id="clust2" class="cluster">
<title>cluster_aws_</title>
<polygon fill="#eeeeee" stroke="#eeeeee" points="16,-54 16,-481 1231,-481 1231,-54 16,-54"/>
<text text-anchor="start" x="623.36" y="-58.3" font-family="Helvetica,sans-Serif" font-size="1.00" fill="#383838"> </text>
</g>
<!-- Api::sam&#45;app -->
<g id="node1" class="node">
<title>Api::sam&#45;app</title>
<polygon fill="#e5e5e5" stroke="#dddddd" points="765.5,-377 677.5,-377 677.5,-319 765.5,-319 765.5,-377"/>
<text text-anchor="start" x="689.5" y="-357.2" font-family="Helvetica,sans-Serif" font-weight="bold" font-size="16.00" fill="#707070">Api</text>
<text text-anchor="start" x="689.5" y="-332.2" font-family="Helvetica,sans-Serif" font-size="16.00" fill="#383838">sam&#45;app</text>
</g>
<!-- Stage::$default -->
<g id="node2" class="node">
<title>Stage::$default</title>
<polygon fill="#e5e5e5" stroke="#dddddd" points="426.5,-281 344.5,-281 344.5,-223 426.5,-223 426.5,-281"/>
<text text-anchor="start" x="356.5" y="-261.2" font-family="Helvetica,sans-Serif" font-weight="bold" font-size="16.00" fill="#707070">Stage</text>
<text text-anchor="start" x="356.5" y="-236.2" font-family="Helvetica,sans-Serif" font-size="16.00" fill="#383838">$default</text>
</g>
<!-- Stage::$default&#45;&gt;Api::sam&#45;app -->
<g id="edge1" class="edge">
<title>Stage::$default&#45;&gt;Api::sam&#45;app</title>
<path fill="none" stroke="#707070" d="M426.79,-263.58C487.02,-280.89 600.62,-313.54 667.51,-332.77"/>
<polygon fill="#707070" stroke="#707070" points="666.85,-336.22 677.43,-335.62 668.79,-329.49 666.85,-336.22"/>
</g>
<!-- Authorizer::OAuth2Authorizer -->
<g id="node3" class="node">
<title>Authorizer::OAuth2Authorizer</title>
<polygon fill="#e5e5e5" stroke="#dddddd" points="462,-377 309,-377 309,-319 462,-319 462,-377"/>
<text text-anchor="start" x="321.5" y="-357.2" font-family="Helvetica,sans-Serif" font-weight="bold" font-size="16.00" fill="#707070">Authorizer</text>
<text text-anchor="start" x="321.5" y="-332.2" font-family="Helvetica,sans-Serif" font-size="16.00" fill="#383838">OAuth2Authorizer</text>
</g>
<!-- Authorizer::OAuth2Authorizer&#45;&gt;Api::sam&#45;app -->
<g id="edge2" class="edge">
<title>Authorizer::OAuth2Authorizer&#45;&gt;Api::sam&#45;app</title>
<path fill="none" stroke="#707070" d="M462.29,-348C524.67,-348 611.55,-348 666.91,-348"/>
<polygon fill="#707070" stroke="#707070" points="667.2,-351.5 677.2,-348 667.2,-344.5 667.2,-351.5"/>
</g>
<!-- UserPool::UserPool&#45;3Fx2HozhHSsp -->
<g id="node7" class="node">
<title>UserPool::UserPool&#45;3Fx2HozhHSsp</title>
<polygon fill="#e5e5e5" stroke="#dddddd" points="825.5,-205 617.5,-205 617.5,-147 825.5,-147 825.5,-205"/>
<text text-anchor="start" x="629.5" y="-185.2" font-family="Helvetica,sans-Serif" font-weight="bold" font-size="16.00" fill="#707070">UserPool</text>
<text text-anchor="start" x="629.5" y="-160.2" font-family="Helvetica,sans-Serif" font-size="16.00" fill="#383838">UserPool&#45;3Fx2HozhHSsp</text>
</g>
<!-- Authorizer::OAuth2Authorizer&#45;&gt;UserPool::UserPool&#45;3Fx2HozhHSsp -->
<g id="edge3" class="edge">
<title>Authorizer::OAuth2Authorizer&#45;&gt;UserPool::UserPool&#45;3Fx2HozhHSsp</title>
<path fill="none" stroke="#707070" d="M462.11,-319.07C483.38,-310.32 506.33,-300.29 527,-290 575.47,-265.87 628.29,-234.37 666.48,-210.6"/>
<polygon fill="#707070" stroke="#707070" points="668.75,-213.31 675.38,-205.04 665.04,-207.38 668.75,-213.31"/>
</g>
<!-- Integration::integration::sam&#45;app::sam&#45;app&#45;AppFunction&#45;gKUxwsmxX2fK -->
<g id="node4" class="node">
<title>Integration::integration::sam&#45;app::sam&#45;app&#45;AppFunction&#45;gKUxwsmxX2fK</title>
<polygon fill="#e5e5e5" stroke="#dddddd" points="527,-473 244,-473 244,-415 527,-415 527,-473"/>
<text text-anchor="start" x="256.5" y="-453.2" font-family="Helvetica,sans-Serif" font-weight="bold" font-size="16.00" fill="#707070">Integration</text>
<text text-anchor="start" x="256.5" y="-428.2" font-family="Helvetica,sans-Serif" font-size="16.00" fill="#383838">integration::sam&#45;app::sam&#45;app&#45;Ap...</text>
</g>
<!-- Integration::integration::sam&#45;app::sam&#45;app&#45;AppFunction&#45;gKUxwsmxX2fK&#45;&gt;Api::sam&#45;app -->
<g id="edge4" class="edge">
<title>Integration::integration::sam&#45;app::sam&#45;app&#45;AppFunction&#45;gKUxwsmxX2fK&#45;&gt;Api::sam&#45;app</title>
<path fill="none" stroke="#707070" d="M487.62,-414.94C546.77,-397.93 619.06,-377.16 667.25,-363.3"/>
<polygon fill="#707070" stroke="#707070" points="668.52,-366.58 677.16,-360.46 666.58,-359.86 668.52,-366.58"/>
</g>
<!-- Function::sam&#45;app&#45;AppFunction&#45;gKUxwsmxX2fK -->
<g id="node11" class="node">
<title>Function::sam&#45;app&#45;AppFunction&#45;gKUxwsmxX2fK</title>
<polygon fill="#e5e5e5" stroke="#dddddd" points="880,-473 563,-473 563,-415 880,-415 880,-473"/>
<text text-anchor="start" x="575.5" y="-453.2" font-family="Helvetica,sans-Serif" font-weight="bold" font-size="16.00" fill="#707070">Function</text>
<text text-anchor="start" x="575.5" y="-428.2" font-family="Helvetica,sans-Serif" font-size="16.00" fill="#383838">sam&#45;app&#45;AppFunction&#45;gKUxwsmxX2fK...</text>
</g>
<!-- Integration::integration::sam&#45;app::sam&#45;app&#45;AppFunction&#45;gKUxwsmxX2fK&#45;&gt;Function::sam&#45;app&#45;AppFunction&#45;gKUxwsmxX2fK -->
<g id="edge5" class="edge">
<title>Integration::integration::sam&#45;app::sam&#45;app&#45;AppFunction&#45;gKUxwsmxX2fK&#45;&gt;Function::sam&#45;app&#45;AppFunction&#45;gKUxwsmxX2fK</title>
<path fill="none" stroke="#707070" d="M527.18,-444C535.64,-444 544.18,-444 552.74,-444"/>
<polygon fill="#707070" stroke="#707070" points="552.77,-447.5 562.77,-444 552.77,-440.5 552.77,-447.5"/>
</g>
<!-- Route::route::sam&#45;app::GET / -->
<g id="node5" class="node">
<title>Route::route::sam&#45;app::GET /</title>
<polygon fill="#e5e5e5" stroke="#dddddd" points="208,-425 24,-425 24,-367 208,-367 208,-425"/>
<text text-anchor="start" x="36" y="-405.2" font-family="Helvetica,sans-Serif" font-weight="bold" font-size="16.00" fill="#707070">Route</text>
<text text-anchor="start" x="36" y="-380.2" font-family="Helvetica,sans-Serif" font-size="16.00" fill="#383838">route::sam&#45;app::GET /</text>
</g>
<!-- Route::route::sam&#45;app::GET /&#45;&gt;Api::sam&#45;app -->
<g id="edge6" class="edge">
<title>Route::route::sam&#45;app::GET /&#45;&gt;Api::sam&#45;app</title>
<path fill="none" stroke="#707070" d="M208.08,-398.19C291.36,-399.14 417.82,-397.96 527,-386 574.95,-380.74 628.74,-369.76 667.41,-360.95"/>
<polygon fill="#707070" stroke="#707070" points="668.45,-364.3 677.4,-358.64 666.87,-357.48 668.45,-364.3"/>
</g>
<!-- Route::route::sam&#45;app::GET /&#45;&gt;Authorizer::OAuth2Authorizer -->
<g id="edge8" class="edge">
<title>Route::route::sam&#45;app::GET /&#45;&gt;Authorizer::OAuth2Authorizer</title>
<path fill="none" stroke="#707070" d="M208.31,-379.62C237.55,-374.37 269.82,-368.58 298.66,-363.4"/>
<polygon fill="#707070" stroke="#707070" points="299.48,-366.81 308.71,-361.6 298.24,-359.92 299.48,-366.81"/>
</g>
<!-- Route::route::sam&#45;app::GET /&#45;&gt;Integration::integration::sam&#45;app::sam&#45;app&#45;AppFunction&#45;gKUxwsmxX2fK -->
<g id="edge7" class="edge">
<title>Route::route::sam&#45;app::GET /&#45;&gt;Integration::integration::sam&#45;app::sam&#45;app&#45;AppFunction&#45;gKUxwsmxX2fK</title>
<path fill="none" stroke="#707070" d="M208.31,-412.38C216.67,-413.88 225.27,-415.43 233.97,-416.99"/>
<polygon fill="#707070" stroke="#707070" points="233.37,-420.44 243.83,-418.76 234.6,-413.55 233.37,-420.44"/>
</g>
<!-- Deployment::deployment::sam&#45;app -->
<g id="node6" class="node">
<title>Deployment::deployment::sam&#45;app</title>
<polygon fill="#e5e5e5" stroke="#dddddd" points="206.5,-305 25.5,-305 25.5,-247 206.5,-247 206.5,-305"/>
<text text-anchor="start" x="38" y="-285.2" font-family="Helvetica,sans-Serif" font-weight="bold" font-size="16.00" fill="#707070">Deployment</text>
<text text-anchor="start" x="38" y="-260.2" font-family="Helvetica,sans-Serif" font-size="16.00" fill="#383838">deployment::sam&#45;app</text>
</g>
<!-- Deployment::deployment::sam&#45;app&#45;&gt;Api::sam&#45;app -->
<g id="edge9" class="edge">
<title>Deployment::deployment::sam&#45;app&#45;&gt;Api::sam&#45;app</title>
<path fill="none" stroke="#707070" d="M206.8,-286.34C219.29,-287.65 231.96,-288.91 244,-290 369.58,-301.35 402.01,-293.37 527,-310 574.82,-316.36 628.62,-327.23 667.33,-335.72"/>
<polygon fill="#707070" stroke="#707070" points="666.81,-339.19 677.33,-337.93 668.33,-332.36 666.81,-339.19"/>
</g>
<!-- Deployment::deployment::sam&#45;app&#45;&gt;Stage::$default -->
<g id="edge10" class="edge">
<title>Deployment::deployment::sam&#45;app&#45;&gt;Stage::$default</title>
<path fill="none" stroke="#707070" d="M206.82,-267.94C249.23,-264.14 298.27,-259.74 334.07,-256.52"/>
<polygon fill="#707070" stroke="#707070" points="334.62,-259.99 344.27,-255.61 333.99,-253.02 334.62,-259.99"/>
</g>
<!-- UserPoolClient::UserPoolClient&#45;9x4glkNVEYDn -->
<g id="node8" class="node">
<title>UserPoolClient::UserPoolClient&#45;9x4glkNVEYDn</title>
<polygon fill="#e5e5e5" stroke="#dddddd" points="509,-205 262,-205 262,-147 509,-147 509,-205"/>
<text text-anchor="start" x="274.5" y="-185.2" font-family="Helvetica,sans-Serif" font-weight="bold" font-size="16.00" fill="#707070">UserPoolClient</text>
<text text-anchor="start" x="274.5" y="-160.2" font-family="Helvetica,sans-Serif" font-size="16.00" fill="#383838">UserPoolClient&#45;9x4glkNVEYDn</text>
</g>
<!-- UserPoolClient::UserPoolClient&#45;9x4glkNVEYDn&#45;&gt;UserPool::UserPool&#45;3Fx2HozhHSsp -->
<g id="edge11" class="edge">
<title>UserPoolClient::UserPoolClient&#45;9x4glkNVEYDn&#45;&gt;UserPool::UserPool&#45;3Fx2HozhHSsp</title>
<path fill="none" stroke="#707070" d="M509.45,-176C541.42,-176 575.71,-176 607.17,-176"/>
<polygon fill="#707070" stroke="#707070" points="607.27,-179.5 617.27,-176 607.27,-172.5 607.27,-179.5"/>
</g>
<!-- UserPoolDomain::myauth840541460064 -->
<g id="node9" class="node">
<title>UserPoolDomain::myauth840541460064</title>
<polygon fill="#e5e5e5" stroke="#dddddd" points="478.5,-129 292.5,-129 292.5,-71 478.5,-71 478.5,-129"/>
<text text-anchor="start" x="304.5" y="-109.2" font-family="Helvetica,sans-Serif" font-weight="bold" font-size="16.00" fill="#707070">UserPoolDomain</text>
<text text-anchor="start" x="304.5" y="-84.2" font-family="Helvetica,sans-Serif" font-size="16.00" fill="#383838">myauth840541460064</text>
</g>
<!-- UserPoolDomain::myauth840541460064&#45;&gt;UserPool::UserPool&#45;3Fx2HozhHSsp -->
<g id="edge12" class="edge">
<title>UserPoolDomain::myauth840541460064&#45;&gt;UserPool::UserPool&#45;3Fx2HozhHSsp</title>
<path fill="none" stroke="#707070" d="M478.65,-120.97C518.51,-130.04 565.55,-140.74 607.5,-150.29"/>
<polygon fill="#707070" stroke="#707070" points="606.95,-153.75 617.48,-152.56 608.51,-146.93 606.95,-153.75"/>
</g>
<!-- Role::sam&#45;app&#45;AppFunctionRole&#45;BXPIJ03LGY2Y -->
<g id="node10" class="node">
<title>Role::sam&#45;app&#45;AppFunctionRole&#45;BXPIJ03LGY2Y</title>
<polygon fill="#e5e5e5" stroke="#dddddd" points="1223,-473 916,-473 916,-415 1223,-415 1223,-473"/>
<text text-anchor="start" x="928.5" y="-453.2" font-family="Helvetica,sans-Serif" font-weight="bold" font-size="16.00" fill="#707070">Role</text>
<text text-anchor="start" x="928.5" y="-428.2" font-family="Helvetica,sans-Serif" font-size="16.00" fill="#383838">sam&#45;app&#45;AppFunctionRole&#45;BXPIJ03L...</text>
</g>
<!-- Function::sam&#45;app&#45;AppFunction&#45;gKUxwsmxX2fK&#45;&gt;Role::sam&#45;app&#45;AppFunctionRole&#45;BXPIJ03LGY2Y -->
<g id="edge13" class="edge">
<title>Function::sam&#45;app&#45;AppFunction&#45;gKUxwsmxX2fK&#45;&gt;Role::sam&#45;app&#45;AppFunctionRole&#45;BXPIJ03LGY2Y</title>
<path fill="none" stroke="#707070" d="M880.06,-444C888.65,-444 897.29,-444 905.9,-444"/>
<polygon fill="#707070" stroke="#707070" points="905.98,-447.5 915.98,-444 905.98,-440.5 905.98,-447.5"/>
</g>
</g>
</svg>
