<?xml version="1.0" encoding="UTF-8" standalone="no"?>
<!DOCTYPE svg PUBLIC "-//W3C//DTD SVG 1.1//EN"
 "http://www.w3.org/Graphics/SVG/1.1/DTD/svg11.dtd">
<!-- Generated by graphviz version 2.44.1 (20200629.0846)
 -->
<!-- Title: graphname Pages: 1 -->
<svg width="751pt" height="389pt"
 viewBox="0.00 0.00 751.00 389.00" xmlns="http://www.w3.org/2000/svg" xmlns:xlink="http://www.w3.org/1999/xlink">
<g id="graph0" class="graph" transform="scale(1 1) rotate(0) translate(4 385)">
<title>graphname</title>
<polygon fill="#fafafa" stroke="transparent" points="-4,4 -4,-385 747,-385 747,4 -4,4"/>
<text text-anchor="start" x="256.5" y="-356.4" font-family="Helvetica,sans-Serif" font-weight="bold" font-size="22.00" fill="#383838">Project securityGroup</text>
<text text-anchor="start" x="367.5" y="-340.8" font-family="Helvetica,sans-Serif" font-size="14.00"> &#160;</text>
<text text-anchor="start" x="256.5" y="-319.2" font-family="Helvetica,sans-Serif" font-weight="bold" font-size="16.00" fill="#707070">Target Diagram</text>
<g id="clust1" class="cluster">
<title>cluster_aws</title>
<polygon fill="#f5f5f5" stroke="#f5f5f5" points="8,-8 8,-297 735,-297 735,-8 8,-8"/>
<text text-anchor="start" x="309.5" y="-23" font-family="Helvetica,sans-Serif" font-weight="bold" font-size="20.00" fill="#707070">Provider aws</text>
</g>
<g id="clust2" class="cluster">
<title>cluster_aws_</title>
<polygon fill="#eeeeee" stroke="#eeeeee" points="16,-54 16,-289 727,-289 727,-54 16,-54"/>
<text text-anchor="start" x="371.36" y="-58.3" font-family="Helvetica,sans-Serif" font-size="1.00" fill="#383838"> </text>
</g>
<!-- Vpc::vpc&#45;test&#45;sg -->
<g id="node1" class="node">
<title>Vpc::vpc&#45;test&#45;sg</title>
<polygon fill="#e5e5e5" stroke="#dddddd" points="719,-167 615,-167 615,-109 719,-109 719,-167"/>
<text text-anchor="start" x="627" y="-147.2" font-family="Helvetica,sans-Serif" font-weight="bold" font-size="16.00" fill="#707070">Vpc</text>
<text text-anchor="start" x="627" y="-122.2" font-family="Helvetica,sans-Serif" font-size="16.00" fill="#383838">vpc&#45;test&#45;sg</text>
</g>
<!-- SecurityGroup::security&#45;group&#45;cluster&#45;test -->
<g id="node2" class="node">
<title>SecurityGroup::security&#45;group&#45;cluster&#45;test</title>
<polygon fill="#e5e5e5" stroke="#dddddd" points="561.5,-205 349.5,-205 349.5,-147 561.5,-147 561.5,-205"/>
<text text-anchor="start" x="361.5" y="-185.2" font-family="Helvetica,sans-Serif" font-weight="bold" font-size="16.00" fill="#707070">SecurityGroup</text>
<text text-anchor="start" x="361.5" y="-160.2" font-family="Helvetica,sans-Serif" font-size="16.00" fill="#383838">security&#45;group&#45;cluster&#45;test</text>
</g>
<!-- SecurityGroup::security&#45;group&#45;cluster&#45;test&#45;&gt;Vpc::vpc&#45;test&#45;sg -->
<g id="edge1" class="edge">
<title>SecurityGroup::security&#45;group&#45;cluster&#45;test&#45;&gt;Vpc::vpc&#45;test&#45;sg</title>
<path fill="none" stroke="#707070" d="M561.56,-156.94C576.36,-154.26 591.16,-151.57 604.77,-149.11"/>
<polygon fill="#707070" stroke="#707070" points="605.71,-152.49 614.92,-147.26 604.46,-145.61 605.71,-152.49"/>
</g>
<!-- SecurityGroupRuleIngress::sg&#45;rule&#45;cluster&#45;ingress&#45;port&#45;22 -->
<g id="node3" class="node">
<title>SecurityGroupRuleIngress::sg&#45;rule&#45;cluster&#45;ingress&#45;port&#45;22</title>
<polygon fill="#e5e5e5" stroke="#dddddd" points="280.5,-281 39.5,-281 39.5,-223 280.5,-223 280.5,-281"/>
<text text-anchor="start" x="52" y="-261.2" font-family="Helvetica,sans-Serif" font-weight="bold" font-size="16.00" fill="#707070">SecurityGroupRuleIngress</text>
<text text-anchor="start" x="52" y="-236.2" font-family="Helvetica,sans-Serif" font-size="16.00" fill="#383838">sg&#45;rule&#45;cluster&#45;ingress&#45;port&#45;22</text>
</g>
<!-- SecurityGroupRuleIngress::sg&#45;rule&#45;cluster&#45;ingress&#45;port&#45;22&#45;&gt;SecurityGroup::security&#45;group&#45;cluster&#45;test -->
<g id="edge2" class="edge">
<title>SecurityGroupRuleIngress::sg&#45;rule&#45;cluster&#45;ingress&#45;port&#45;22&#45;&gt;SecurityGroup::security&#45;group&#45;cluster&#45;test</title>
<path fill="none" stroke="#707070" d="M273.22,-222.94C294.83,-217.35 317.5,-211.48 339.21,-205.85"/>
<polygon fill="#707070" stroke="#707070" points="340.3,-209.19 349.1,-203.29 338.55,-202.41 340.3,-209.19"/>
</g>
<!-- SecurityGroupRuleEgress::sg&#45;rule&#45;cluster&#45;egress -->
<g id="node4" class="node">
<title>SecurityGroupRuleEgress::sg&#45;rule&#45;cluster&#45;egress</title>
<polygon fill="#e5e5e5" stroke="#dddddd" points="271.5,-205 48.5,-205 48.5,-147 271.5,-147 271.5,-205"/>
<text text-anchor="start" x="61" y="-185.2" font-family="Helvetica,sans-Serif" font-weight="bold" font-size="16.00" fill="#707070">SecurityGroupRuleEgress</text>
<text text-anchor="start" x="61" y="-160.2" font-family="Helvetica,sans-Serif" font-size="16.00" fill="#383838">sg&#45;rule&#45;cluster&#45;egress</text>
</g>
<!-- SecurityGroupRuleEgress::sg&#45;rule&#45;cluster&#45;egress&#45;&gt;SecurityGroup::security&#45;group&#45;cluster&#45;test -->
<g id="edge3" class="edge">
<title>SecurityGroupRuleEgress::sg&#45;rule&#45;cluster&#45;egress&#45;&gt;SecurityGroup::security&#45;group&#45;cluster&#45;test</title>
<path fill="none" stroke="#707070" d="M271.54,-176C293.67,-176 316.96,-176 339.24,-176"/>
<polygon fill="#707070" stroke="#707070" points="339.4,-179.5 349.4,-176 339.4,-172.5 339.4,-179.5"/>
</g>
<!-- SecurityGroup::security&#45;group&#45;node&#45;group&#45;test -->
<g id="node5" class="node">
<title>SecurityGroup::security&#45;group&#45;node&#45;group&#45;test</title>
<polygon fill="#e5e5e5" stroke="#dddddd" points="579,-129 332,-129 332,-71 579,-71 579,-129"/>
<text text-anchor="start" x="344.5" y="-109.2" font-family="Helvetica,sans-Serif" font-weight="bold" font-size="16.00" fill="#707070">SecurityGroup</text>
<text text-anchor="start" x="344.5" y="-84.2" font-family="Helvetica,sans-Serif" font-size="16.00" fill="#383838">security&#45;group&#45;node&#45;group&#45;test</text>
</g>
<!-- SecurityGroup::security&#45;group&#45;node&#45;group&#45;test&#45;&gt;Vpc::vpc&#45;test&#45;sg -->
<g id="edge4" class="edge">
<title>SecurityGroup::security&#45;group&#45;node&#45;group&#45;test&#45;&gt;Vpc::vpc&#45;test&#45;sg</title>
<path fill="none" stroke="#707070" d="M579.28,-122.27C588.16,-123.88 596.87,-125.46 605.14,-126.96"/>
<polygon fill="#707070" stroke="#707070" points="604.52,-130.41 614.98,-128.75 605.77,-123.52 604.52,-130.41"/>
</g>
<!-- SecurityGroupRuleIngress::sg&#45;rule&#45;node&#45;group&#45;ingress&#45;cluster -->
<g id="node6" class="node">
<title>SecurityGroupRuleIngress::sg&#45;rule&#45;node&#45;group&#45;ingress&#45;cluster</title>
<polygon fill="#e5e5e5" stroke="#dddddd" points="296,-129 24,-129 24,-71 296,-71 296,-129"/>
<text text-anchor="start" x="36" y="-109.2" font-family="Helvetica,sans-Serif" font-weight="bold" font-size="16.00" fill="#707070">SecurityGroupRuleIngress</text>
<text text-anchor="start" x="36" y="-84.2" font-family="Helvetica,sans-Serif" font-size="16.00" fill="#383838">sg&#45;rule&#45;node&#45;group&#45;ingress&#45;clust...</text>
</g>
<!-- SecurityGroupRuleIngress::sg&#45;rule&#45;node&#45;group&#45;ingress&#45;cluster&#45;&gt;SecurityGroup::security&#45;group&#45;cluster&#45;test -->
<g id="edge6" class="edge">
<title>SecurityGroupRuleIngress::sg&#45;rule&#45;node&#45;group&#45;ingress&#45;cluster&#45;&gt;SecurityGroup::security&#45;group&#45;cluster&#45;test</title>
<path fill="none" stroke="#707070" d="M273.22,-129.06C294.83,-134.65 317.5,-140.52 339.21,-146.15"/>
<polygon fill="#707070" stroke="#707070" points="338.55,-149.59 349.1,-148.71 340.3,-142.81 338.55,-149.59"/>
</g>
<!-- SecurityGroupRuleIngress::sg&#45;rule&#45;node&#45;group&#45;ingress&#45;cluster&#45;&gt;SecurityGroup::security&#45;group&#45;node&#45;group&#45;test -->
<g id="edge5" class="edge">
<title>SecurityGroupRuleIngress::sg&#45;rule&#45;node&#45;group&#45;ingress&#45;cluster&#45;&gt;SecurityGroup::security&#45;group&#45;node&#45;group&#45;test</title>
<path fill="none" stroke="#707070" d="M296.15,-100C304.6,-100 313.1,-100 321.54,-100"/>
<polygon fill="#707070" stroke="#707070" points="321.8,-103.5 331.8,-100 321.8,-96.5 321.8,-103.5"/>
</g>
</g>
</svg>
