<?xml version="1.0" encoding="UTF-8" standalone="no"?><svg xmlns="http://www.w3.org/2000/svg" xmlns:xlink="http://www.w3.org/1999/xlink" contentStyleType="text/css" height="172px" preserveAspectRatio="none" style="width:477px;height:172px;background:#FFFFFF;" version="1.1" viewBox="0 0 477 172" width="477px" zoomAndPan="magnify"><defs/><g><rect height="26.4883" style="stroke:#00000000;stroke-width:1.0;fill:none;" width="408" x="15" y="15"/><text fill="#000000" font-family="sans-serif" font-size="14" font-weight="bold" lengthAdjust="spacing" textLength="398" x="20" y="33.5352">Resources for project apigw-rest-api-http-integration</text><rect fill="#F1F1F1" height="36.4883" rx="12.5" ry="12.5" style="stroke:#181818;stroke-width:1.5;" width="52" x="23.5" y="85.7324"/><text fill="#000000" font-family="sans-serif" font-size="14" lengthAdjust="spacing" textLength="32" x="33.5" y="109.2676">Infra</text><rect fill="#F1F1F1" height="36.4883" rx="12.5" ry="12.5" style="stroke:#181818;stroke-width:1.5;" width="46" x="125.5" y="85.7324"/><text fill="#000000" font-family="sans-serif" font-size="14" lengthAdjust="spacing" textLength="26" x="135.5" y="109.2676">aws</text><rect fill="#F1F1F1" height="36.4883" rx="12.5" ry="12.5" style="stroke:#181818;stroke-width:1.5;" width="99" x="221.5" y="85.7324"/><text fill="#000000" font-family="sans-serif" font-size="14" lengthAdjust="spacing" textLength="79" x="231.5" y="109.2676">APIGateway</text><rect fill="#F1F1F1" height="36.4883" rx="12.5" ry="12.5" style="stroke:#181818;stroke-width:1.5;" width="95" x="370.5" y="57.4883"/><text fill="#000000" font-family="sans-serif" font-size="14" lengthAdjust="spacing" textLength="75" x="380.5" y="81.0234">RestApi (1)</text><path d="M320.5,103.9766 L330.5,103.9766 C345.5,103.9766 345.5,75.7324 360.5,75.7324 L370.5,75.7324 " fill="none" style="stroke:#181818;stroke-width:1.0;"/><rect fill="#F1F1F1" height="36.4883" rx="12.5" ry="12.5" style="stroke:#181818;stroke-width:1.5;" width="81" x="370.5" y="113.9766"/><text fill="#000000" font-family="sans-serif" font-size="14" lengthAdjust="spacing" textLength="61" x="380.5" y="137.5117">Stage (1)</text><path d="M320.5,103.9766 L330.5,103.9766 C345.5,103.9766 345.5,132.2207 360.5,132.2207 L370.5,132.2207 " fill="none" style="stroke:#181818;stroke-width:1.0;"/><path d="M171.5,103.9766 L181.5,103.9766 C196.5,103.9766 196.5,103.9766 211.5,103.9766 L221.5,103.9766 " fill="none" style="stroke:#181818;stroke-width:1.0;"/><path d="M75.5,103.9766 L85.5,103.9766 C100.5,103.9766 100.5,103.9766 115.5,103.9766 L125.5,103.9766 " fill="none" style="stroke:#181818;stroke-width:1.0;"/><!--MD5=[8c54ddd97601c59a5273414c49b23539]
@startmindmap
title Resources for project apigw-rest-api-http-integration
skinparam monochrome true
+ Infra
++ aws
+++ APIGateway
++++ RestApi (1)
++++ Stage (1)
@endmindmap

PlantUML version 1.2022.6(Tue Jun 21 12:34:49 COT 2022)
(GPL source distribution)
Java Runtime: Java(TM) SE Runtime Environment
JVM: Java HotSpot(TM) 64-Bit Server VM
Default Encoding: UTF-8
Language: en
Country: GB
--></g></svg>