<?xml version="1.0" encoding="UTF-8" standalone="no"?>
<!DOCTYPE svg PUBLIC "-//W3C//DTD SVG 1.1//EN"
 "http://www.w3.org/Graphics/SVG/1.1/DTD/svg11.dtd">
<!-- Generated by graphviz version 2.44.1 (20200629.0846)
 -->
<!-- Title: graphname Pages: 1 -->
<svg width="753pt" height="389pt"
 viewBox="0.00 0.00 753.00 389.00" xmlns="http://www.w3.org/2000/svg" xmlns:xlink="http://www.w3.org/1999/xlink">
<g id="graph0" class="graph" transform="scale(1 1) rotate(0) translate(4 385)">
<title>graphname</title>
<polygon fill="#fafafa" stroke="transparent" points="-4,4 -4,-385 749,-385 749,4 -4,4"/>
<text text-anchor="start" x="280.5" y="-356.4" font-family="Helvetica,sans-Serif" font-weight="bold" font-size="22.00" fill="#383838">Project vault&#45;rbac</text>
<text text-anchor="start" x="369" y="-340.8" font-family="Helvetica,sans-Serif" font-size="14.00"> &#160;</text>
<text text-anchor="start" x="280.5" y="-319.2" font-family="Helvetica,sans-Serif" font-weight="bold" font-size="16.00" fill="#707070">Live Diagram</text>
<g id="clust1" class="cluster">
<title>cluster_azure</title>
<polygon fill="#f5f5f5" stroke="#f5f5f5" points="8,-8 8,-297 737,-297 737,-8 8,-8"/>
<text text-anchor="start" x="303.5" y="-23" font-family="Helvetica,sans-Serif" font-weight="bold" font-size="20.00" fill="#707070">Provider azure</text>
</g>
<g id="clust2" class="cluster">
<title>cluster_azure_</title>
<polygon fill="#eeeeee" stroke="#eeeeee" points="16,-54 16,-289 729,-289 729,-54 16,-54"/>
<text text-anchor="start" x="372.36" y="-58.3" font-family="Helvetica,sans-Serif" font-size="1.00" fill="#383838"> </text>
</g>
<!-- DiskEncryptionSet::::de -->
<g id="node1" class="node">
<title>DiskEncryptionSet::::de</title>
<polygon fill="#e5e5e5" stroke="#dddddd" points="270,-281 24,-281 24,-223 270,-223 270,-281"/>
<text text-anchor="start" x="36" y="-261.2" font-family="Helvetica,sans-Serif" font-weight="bold" font-size="16.00" fill="#707070">Compute::DiskEncryptionSet</text>
<text text-anchor="start" x="36" y="-236.2" font-family="Helvetica,sans-Serif" font-size="16.00" fill="#383838">de</text>
</g>
<!-- Vault::::gc&#45;vault&#45;rbac -->
<g id="node3" class="node">
<title>Vault::::gc&#45;vault&#45;rbac</title>
<polygon fill="#e5e5e5" stroke="#dddddd" points="447,-243 306,-243 306,-185 447,-185 447,-243"/>
<text text-anchor="start" x="318.5" y="-223.2" font-family="Helvetica,sans-Serif" font-weight="bold" font-size="16.00" fill="#707070">KeyVault::Vault</text>
<text text-anchor="start" x="318.5" y="-198.2" font-family="Helvetica,sans-Serif" font-size="16.00" fill="#383838">gc&#45;vault&#45;rbac</text>
</g>
<!-- DiskEncryptionSet::::de&#45;&gt;Vault::::gc&#45;vault&#45;rbac -->
<g id="edge2" class="edge">
<title>DiskEncryptionSet::::de&#45;&gt;Vault::::gc&#45;vault&#45;rbac</title>
<path fill="none" stroke="#707070" d="M270.07,-231.61C278.77,-230.16 287.4,-228.72 295.75,-227.32"/>
<polygon fill="#707070" stroke="#707070" points="296.51,-230.74 305.8,-225.64 295.36,-223.84 296.51,-230.74"/>
</g>
<!-- ResourceGroup::::rg&#45;keyvault&#45;rbac -->
<g id="node5" class="node">
<title>ResourceGroup::::rg&#45;keyvault&#45;rbac</title>
<polygon fill="#e5e5e5" stroke="#dddddd" points="721,-243 483,-243 483,-185 721,-185 721,-243"/>
<text text-anchor="start" x="495" y="-223.2" font-family="Helvetica,sans-Serif" font-weight="bold" font-size="16.00" fill="#707070">Resources::ResourceGroup</text>
<text text-anchor="start" x="495" y="-198.2" font-family="Helvetica,sans-Serif" font-size="16.00" fill="#383838">rg&#45;keyvault&#45;rbac</text>
</g>
<!-- DiskEncryptionSet::::de&#45;&gt;ResourceGroup::::rg&#45;keyvault&#45;rbac -->
<g id="edge1" class="edge">
<title>DiskEncryptionSet::::de&#45;&gt;ResourceGroup::::rg&#45;keyvault&#45;rbac</title>
<path fill="none" stroke="#707070" d="M270.24,-258.65C324.55,-259.9 389.16,-259.03 447,-252 460.42,-250.37 474.35,-247.97 488.11,-245.15"/>
<polygon fill="#707070" stroke="#707070" points="489.04,-248.53 498.09,-243.03 487.58,-241.68 489.04,-248.53"/>
</g>
<!-- Secret::::my&#45;secret -->
<g id="node2" class="node">
<title>Secret::::my&#45;secret</title>
<polygon fill="#e5e5e5" stroke="#dddddd" points="222.5,-205 71.5,-205 71.5,-147 222.5,-147 222.5,-205"/>
<text text-anchor="start" x="84" y="-185.2" font-family="Helvetica,sans-Serif" font-weight="bold" font-size="16.00" fill="#707070">KeyVault::Secret</text>
<text text-anchor="start" x="84" y="-160.2" font-family="Helvetica,sans-Serif" font-size="16.00" fill="#383838">my&#45;secret</text>
</g>
<!-- Secret::::my&#45;secret&#45;&gt;Vault::::gc&#45;vault&#45;rbac -->
<g id="edge4" class="edge">
<title>Secret::::my&#45;secret&#45;&gt;Vault::::gc&#45;vault&#45;rbac</title>
<path fill="none" stroke="#707070" d="M222.81,-188.5C246.15,-192.39 271.98,-196.71 295.66,-200.66"/>
<polygon fill="#707070" stroke="#707070" points="295.22,-204.14 305.66,-202.33 296.37,-197.23 295.22,-204.14"/>
</g>
<!-- Secret::::my&#45;secret&#45;&gt;ResourceGroup::::rg&#45;keyvault&#45;rbac -->
<g id="edge3" class="edge">
<title>Secret::::my&#45;secret&#45;&gt;ResourceGroup::::rg&#45;keyvault&#45;rbac</title>
<path fill="none" stroke="#707070" d="M222.64,-171.02C283.31,-168.17 370.99,-166.76 447,-176 460.42,-177.63 474.35,-180.03 488.11,-182.85"/>
<polygon fill="#707070" stroke="#707070" points="487.58,-186.32 498.09,-184.97 489.04,-179.47 487.58,-186.32"/>
</g>
<!-- Vault::::gc&#45;vault&#45;rbac&#45;&gt;ResourceGroup::::rg&#45;keyvault&#45;rbac -->
<g id="edge5" class="edge">
<title>Vault::::gc&#45;vault&#45;rbac&#45;&gt;ResourceGroup::::rg&#45;keyvault&#45;rbac</title>
<path fill="none" stroke="#707070" d="M447.3,-214C455.49,-214 464.04,-214 472.72,-214"/>
<polygon fill="#707070" stroke="#707070" points="472.96,-217.5 482.96,-214 472.96,-210.5 472.96,-217.5"/>
</g>
<!-- ResourceGroup::::DefaultResourceGroup&#45;CUS -->
<g id="node4" class="node">
<title>ResourceGroup::::DefaultResourceGroup&#45;CUS</title>
<polygon fill="#e5e5e5" stroke="#dddddd" points="266,-129 28,-129 28,-71 266,-71 266,-129"/>
<text text-anchor="start" x="40" y="-109.2" font-family="Helvetica,sans-Serif" font-weight="bold" font-size="16.00" fill="#707070">Resources::ResourceGroup</text>
<text text-anchor="start" x="40" y="-84.2" font-family="Helvetica,sans-Serif" font-size="16.00" fill="#383838">DefaultResourceGroup&#45;CUS</text>
</g>
</g>
</svg>
