<?xml version="1.0" encoding="UTF-8" standalone="no"?><svg xmlns="http://www.w3.org/2000/svg" xmlns:xlink="http://www.w3.org/1999/xlink" contentStyleType="text/css" height="228px" preserveAspectRatio="none" style="width:522px;height:228px;background:#FFFFFF;" version="1.1" viewBox="0 0 522 228" width="522px" zoomAndPan="magnify"><defs/><g><rect height="26.4883" style="stroke:#00000000;stroke-width:1.0;fill:none;" width="244" x="112.5" y="15"/><text fill="#000000" font-family="sans-serif" font-size="14" font-weight="bold" lengthAdjust="spacing" textLength="234" x="117.5" y="33.5352">Resources for project vault-rbac</text><rect fill="#F1F1F1" height="36.4883" rx="12.5" ry="12.5" style="stroke:#181818;stroke-width:1.5;" width="52" x="10" y="113.9766"/><text fill="#000000" font-family="sans-serif" font-size="14" lengthAdjust="spacing" textLength="32" x="20" y="137.5117">Infra</text><rect fill="#F1F1F1" height="36.4883" rx="12.5" ry="12.5" style="stroke:#181818;stroke-width:1.5;" width="59" x="112" y="113.9766"/><text fill="#000000" font-family="sans-serif" font-size="14" lengthAdjust="spacing" textLength="39" x="122" y="137.5117">azure</text><rect fill="#F1F1F1" height="36.4883" rx="12.5" ry="12.5" style="stroke:#181818;stroke-width:1.5;" width="79" x="221" y="85.7324"/><text fill="#000000" font-family="sans-serif" font-size="14" lengthAdjust="spacing" textLength="59" x="231" y="109.2676">KeyVault</text><rect fill="#F1F1F1" height="36.4883" rx="12.5" ry="12.5" style="stroke:#181818;stroke-width:1.5;" width="67" x="350" y="57.4883"/><text fill="#000000" font-family="sans-serif" font-size="14" lengthAdjust="spacing" textLength="47" x="360" y="81.0234">Key (2)</text><path d="M300,103.9766 L310,103.9766 C325,103.9766 325,75.7324 340,75.7324 L350,75.7324 " fill="none" style="stroke:#181818;stroke-width:1.0;"/><rect fill="#F1F1F1" height="36.4883" rx="12.5" ry="12.5" style="stroke:#181818;stroke-width:1.5;" width="78" x="350" y="113.9766"/><text fill="#000000" font-family="sans-serif" font-size="14" lengthAdjust="spacing" textLength="58" x="360" y="137.5117">Vault (1)</text><path d="M300,103.9766 L310,103.9766 C325,103.9766 325,132.2207 340,132.2207 L350,132.2207 " fill="none" style="stroke:#181818;stroke-width:1.0;"/><path d="M171,132.2207 L181,132.2207 C196,132.2207 196,103.9766 211,103.9766 L221,103.9766 " fill="none" style="stroke:#181818;stroke-width:1.0;"/><rect fill="#F1F1F1" height="36.4883" rx="12.5" ry="12.5" style="stroke:#181818;stroke-width:1.5;" width="90" x="221" y="170.4648"/><text fill="#000000" font-family="sans-serif" font-size="14" lengthAdjust="spacing" textLength="70" x="231" y="194">Resources</text><rect fill="#F1F1F1" height="36.4883" rx="12.5" ry="12.5" style="stroke:#181818;stroke-width:1.5;" width="149" x="361" y="170.4648"/><text fill="#000000" font-family="sans-serif" font-size="14" lengthAdjust="spacing" textLength="129" x="371" y="194">ResourceGroup (1)</text><path d="M311,188.709 L321,188.709 C336,188.709 336,188.709 351,188.709 L361,188.709 " fill="none" style="stroke:#181818;stroke-width:1.0;"/><path d="M171,132.2207 L181,132.2207 C196,132.2207 196,188.709 211,188.709 L221,188.709 " fill="none" style="stroke:#181818;stroke-width:1.0;"/><path d="M62,132.2207 L72,132.2207 C87,132.2207 87,132.2207 102,132.2207 L112,132.2207 " fill="none" style="stroke:#181818;stroke-width:1.0;"/><!--MD5=[560ef0202f24dccb10fc58e20a8c05fe]
@startmindmap
title Resources for project vault-rbac
skinparam monochrome true
+ Infra
++ azure
+++ KeyVault
++++ Key (2)
++++ Vault (1)
+++ Resources
++++ ResourceGroup (1)
@endmindmap

PlantUML version 1.2022.6(Tue Jun 21 19:34:49 CEST 2022)
(GPL source distribution)
Java Runtime: Java(TM) SE Runtime Environment
JVM: Java HotSpot(TM) 64-Bit Server VM
Default Encoding: UTF-8
Language: en
Country: GB
--></g></svg>