<?xml version="1.0" encoding="UTF-8" standalone="no"?>
<!DOCTYPE svg PUBLIC "-//W3C//DTD SVG 1.1//EN"
 "http://www.w3.org/Graphics/SVG/1.1/DTD/svg11.dtd">
<!-- Generated by graphviz version 7.1.0 (20230121.1956)
 -->
<!-- Title: graphname Pages: 1 -->
<svg width="1093pt" height="1150pt"
 viewBox="0.00 0.00 1093.00 1150.06" xmlns="http://www.w3.org/2000/svg" xmlns:xlink="http://www.w3.org/1999/xlink">
<g id="graph0" class="graph" transform="scale(1 1) rotate(0) translate(4 1146.06)">
<title>graphname</title>
<polygon fill="#fafafa" stroke="none" points="-4,4 -4,-1146.06 1089,-1146.06 1089,4 -4,4"/>
<text text-anchor="start" x="405.5" y="-1117.46" font-family="Helvetica,sans-Serif" font-weight="bold" font-size="22.00" fill="#383838">Project postgres&#45;stateless</text>
<text text-anchor="start" x="538.5" y="-1101.86" font-family="Helvetica,sans-Serif" font-size="14.00"> &#160;</text>
<text text-anchor="start" x="405.5" y="-1080.26" font-family="Helvetica,sans-Serif" font-weight="bold" font-size="16.00" fill="#707070">Target Diagram</text>
<g id="clust1" class="cluster">
<title>cluster_aws</title>
<polygon fill="#f5f5f5" stroke="#f5f5f5" points="8,-8 8,-1041 1077,-1041 1077,-8 8,-8"/>
<text text-anchor="start" x="480.5" y="-23" font-family="Helvetica,sans-Serif" font-weight="bold" font-size="20.00" fill="#707070">Provider aws</text>
</g>
<g id="clust2" class="cluster">
<title>cluster_aws_</title>
<polygon fill="#eeeeee" stroke="#eeeeee" points="16,-54 16,-1033 1069,-1033 1069,-54 16,-54"/>
<text text-anchor="start" x="542.36" y="-58.3" font-family="Helvetica,sans-Serif" font-size="1.00" fill="#383838"> </text>
</g>
<!-- KeyPair::kp&#45;postgres&#45;stateless -->
<g id="node1" class="node">
<title>KeyPair::kp&#45;postgres&#45;stateless</title>
<polygon fill="#e5e5e5" stroke="#dddddd" points="885,-493 706,-493 706,-435 885,-435 885,-493"/>
<text text-anchor="start" x="718.5" y="-473.2" font-family="Helvetica,sans-Serif" font-weight="bold" font-size="16.00" fill="#707070">EC2::KeyPair</text>
<text text-anchor="start" x="718.5" y="-448.2" font-family="Helvetica,sans-Serif" font-size="16.00" fill="#383838">kp&#45;postgres&#45;stateless</text>
</g>
<!-- Vpc::vpc -->
<g id="node2" class="node">
<title>Vpc::vpc</title>
<polygon fill="#e5e5e5" stroke="#dddddd" points="1061,-683 966,-683 966,-625 1061,-625 1061,-683"/>
<text text-anchor="start" x="978.5" y="-663.2" font-family="Helvetica,sans-Serif" font-weight="bold" font-size="16.00" fill="#707070">EC2::Vpc</text>
<text text-anchor="start" x="978.5" y="-638.2" font-family="Helvetica,sans-Serif" font-size="16.00" fill="#383838">vpc</text>
</g>
<!-- InternetGateway::internet&#45;gateway -->
<g id="node3" class="node">
<title>InternetGateway::internet&#45;gateway</title>
<polygon fill="#e5e5e5" stroke="#dddddd" points="891,-321 700,-321 700,-263 891,-263 891,-321"/>
<text text-anchor="start" x="712.5" y="-301.2" font-family="Helvetica,sans-Serif" font-weight="bold" font-size="16.00" fill="#707070">EC2::InternetGateway</text>
<text text-anchor="start" x="712.5" y="-276.2" font-family="Helvetica,sans-Serif" font-size="16.00" fill="#383838">internet&#45;gateway</text>
</g>
<!-- InternetGatewayAttachment::ig&#45;attach::internet&#45;gateway::vpc -->
<g id="node4" class="node">
<title>InternetGatewayAttachment::ig&#45;attach::internet&#45;gateway::vpc</title>
<polygon fill="#e5e5e5" stroke="#dddddd" points="625,-433 346,-433 346,-375 625,-375 625,-433"/>
<text text-anchor="start" x="358.5" y="-413.2" font-family="Helvetica,sans-Serif" font-weight="bold" font-size="16.00" fill="#707070">EC2::InternetGatewayAttachment</text>
<text text-anchor="start" x="358.5" y="-388.2" font-family="Helvetica,sans-Serif" font-size="16.00" fill="#383838">ig&#45;attach::internet&#45;gateway::vpc...</text>
</g>
<!-- InternetGatewayAttachment::ig&#45;attach::internet&#45;gateway::vpc&#45;&gt;Vpc::vpc -->
<g id="edge1" class="edge">
<title>InternetGatewayAttachment::ig&#45;attach::internet&#45;gateway::vpc&#45;&gt;Vpc::vpc</title>
<path fill="none" stroke="#707070" d="M599.2,-374.62C607.98,-371.86 616.66,-368.98 625,-366 641.49,-360.11 643.87,-353.63 661,-350 719.48,-337.59 882.52,-313.69 930,-350 971.85,-382.01 997.44,-538.06 1007.54,-613.29"/>
<polygon fill="#707070" stroke="#707070" points="1004.06,-613.68 1008.83,-623.14 1011,-612.77 1004.06,-613.68"/>
</g>
<!-- InternetGatewayAttachment::ig&#45;attach::internet&#45;gateway::vpc&#45;&gt;InternetGateway::internet&#45;gateway -->
<g id="edge2" class="edge">
<title>InternetGatewayAttachment::ig&#45;attach::internet&#45;gateway::vpc&#45;&gt;InternetGateway::internet&#45;gateway</title>
<path fill="none" stroke="#707070" d="M606.79,-374.63C613.06,-371.98 619.17,-369.11 625,-366 643.64,-356.08 642.59,-345.33 661,-335 669.89,-330.01 679.44,-325.51 689.2,-321.46"/>
<polygon fill="#707070" stroke="#707070" points="690.43,-324.73 698.44,-317.8 687.86,-318.23 690.43,-324.73"/>
</g>
<!-- NatGateway::nat&#45;gateway -->
<g id="node5" class="node">
<title>NatGateway::nat&#45;gateway</title>
<polygon fill="#e5e5e5" stroke="#dddddd" points="564.5,-585 406.5,-585 406.5,-527 564.5,-527 564.5,-585"/>
<text text-anchor="start" x="418.5" y="-565.2" font-family="Helvetica,sans-Serif" font-weight="bold" font-size="16.00" fill="#707070">EC2::NatGateway</text>
<text text-anchor="start" x="418.5" y="-540.2" font-family="Helvetica,sans-Serif" font-size="16.00" fill="#383838">nat&#45;gateway</text>
</g>
<!-- Subnet::vpc::subnet&#45;public&#45;a -->
<g id="node8" class="node">
<title>Subnet::vpc::subnet&#45;public&#45;a</title>
<polygon fill="#e5e5e5" stroke="#dddddd" points="880.5,-417 710.5,-417 710.5,-359 880.5,-359 880.5,-417"/>
<text text-anchor="start" x="722.5" y="-397.2" font-family="Helvetica,sans-Serif" font-weight="bold" font-size="16.00" fill="#707070">EC2::Subnet</text>
<text text-anchor="start" x="722.5" y="-372.2" font-family="Helvetica,sans-Serif" font-size="16.00" fill="#383838">vpc::subnet&#45;public&#45;a</text>
</g>
<!-- NatGateway::nat&#45;gateway&#45;&gt;Subnet::vpc::subnet&#45;public&#45;a -->
<g id="edge3" class="edge">
<title>NatGateway::nat&#45;gateway&#45;&gt;Subnet::vpc::subnet&#45;public&#45;a</title>
<path fill="none" stroke="#707070" d="M564.64,-547.72C586.25,-542.16 608.32,-533.01 625,-518 657.64,-488.63 628.5,-455.53 661,-426 671.94,-416.06 685.31,-408.7 699.31,-403.25"/>
<polygon fill="#707070" stroke="#707070" points="700.41,-406.58 708.68,-399.96 698.09,-399.97 700.41,-406.58"/>
</g>
<!-- ElasticIpAddress::iep -->
<g id="node25" class="node">
<title>ElasticIpAddress::iep</title>
<polygon fill="#e5e5e5" stroke="#dddddd" points="893.5,-569 697.5,-569 697.5,-511 893.5,-511 893.5,-569"/>
<text text-anchor="start" x="709.5" y="-549.2" font-family="Helvetica,sans-Serif" font-weight="bold" font-size="16.00" fill="#707070">EC2::ElasticIpAddress</text>
<text text-anchor="start" x="709.5" y="-524.2" font-family="Helvetica,sans-Serif" font-size="16.00" fill="#383838">iep</text>
</g>
<!-- NatGateway::nat&#45;gateway&#45;&gt;ElasticIpAddress::iep -->
<g id="edge4" class="edge">
<title>NatGateway::nat&#45;gateway&#45;&gt;ElasticIpAddress::iep</title>
<path fill="none" stroke="#707070" d="M564.62,-551.94C601.36,-550.03 645.78,-547.73 685.73,-545.65"/>
<polygon fill="#707070" stroke="#707070" points="685.83,-549.15 695.64,-545.14 685.47,-542.16 685.83,-549.15"/>
</g>
<!-- Subnet::vpc::subnet&#45;private&#45;a -->
<g id="node6" class="node">
<title>Subnet::vpc::subnet&#45;private&#45;a</title>
<polygon fill="#e5e5e5" stroke="#dddddd" points="883.5,-873 707.5,-873 707.5,-815 883.5,-815 883.5,-873"/>
<text text-anchor="start" x="719.5" y="-853.2" font-family="Helvetica,sans-Serif" font-weight="bold" font-size="16.00" fill="#707070">EC2::Subnet</text>
<text text-anchor="start" x="719.5" y="-828.2" font-family="Helvetica,sans-Serif" font-size="16.00" fill="#383838">vpc::subnet&#45;private&#45;a</text>
</g>
<!-- Subnet::vpc::subnet&#45;private&#45;a&#45;&gt;Vpc::vpc -->
<g id="edge5" class="edge">
<title>Subnet::vpc::subnet&#45;private&#45;a&#45;&gt;Vpc::vpc</title>
<path fill="none" stroke="#707070" d="M883.97,-829.91C900.43,-824.38 916.65,-816.7 930,-806 965.84,-777.29 988.3,-728.63 1000.58,-694.1"/>
<polygon fill="#707070" stroke="#707070" points="1003.81,-695.46 1003.72,-684.87 997.19,-693.21 1003.81,-695.46"/>
</g>
<!-- Subnet::vpc::subnet&#45;private&#45;b -->
<g id="node7" class="node">
<title>Subnet::vpc::subnet&#45;private&#45;b</title>
<polygon fill="#e5e5e5" stroke="#dddddd" points="883.5,-949 707.5,-949 707.5,-891 883.5,-891 883.5,-949"/>
<text text-anchor="start" x="719.5" y="-929.2" font-family="Helvetica,sans-Serif" font-weight="bold" font-size="16.00" fill="#707070">EC2::Subnet</text>
<text text-anchor="start" x="719.5" y="-904.2" font-family="Helvetica,sans-Serif" font-size="16.00" fill="#383838">vpc::subnet&#45;private&#45;b</text>
</g>
<!-- Subnet::vpc::subnet&#45;private&#45;b&#45;&gt;Vpc::vpc -->
<g id="edge6" class="edge">
<title>Subnet::vpc::subnet&#45;private&#45;b&#45;&gt;Vpc::vpc</title>
<path fill="none" stroke="#707070" d="M883.9,-907.9C900.75,-902.24 917.13,-894 930,-882 983.27,-832.33 1002.22,-745.65 1008.91,-694.68"/>
<polygon fill="#707070" stroke="#707070" points="1012.36,-695.3 1010.07,-684.95 1005.41,-694.46 1012.36,-695.3"/>
</g>
<!-- Subnet::vpc::subnet&#45;public&#45;a&#45;&gt;Vpc::vpc -->
<g id="edge7" class="edge">
<title>Subnet::vpc::subnet&#45;public&#45;a&#45;&gt;Vpc::vpc</title>
<path fill="none" stroke="#707070" d="M880.78,-399.08C898.72,-404.76 916.34,-413.26 930,-426 983.27,-475.67 1002.22,-562.35 1008.91,-613.32"/>
<polygon fill="#707070" stroke="#707070" points="1005.41,-613.54 1010.07,-623.05 1012.36,-612.7 1005.41,-613.54"/>
</g>
<!-- Subnet::vpc::subnet&#45;public&#45;b -->
<g id="node9" class="node">
<title>Subnet::vpc::subnet&#45;public&#45;b</title>
<polygon fill="#e5e5e5" stroke="#dddddd" points="880.5,-169 710.5,-169 710.5,-111 880.5,-111 880.5,-169"/>
<text text-anchor="start" x="722.5" y="-149.2" font-family="Helvetica,sans-Serif" font-weight="bold" font-size="16.00" fill="#707070">EC2::Subnet</text>
<text text-anchor="start" x="722.5" y="-124.2" font-family="Helvetica,sans-Serif" font-size="16.00" fill="#383838">vpc::subnet&#45;public&#45;b</text>
</g>
<!-- Subnet::vpc::subnet&#45;public&#45;b&#45;&gt;Vpc::vpc -->
<g id="edge8" class="edge">
<title>Subnet::vpc::subnet&#45;public&#45;b&#45;&gt;Vpc::vpc</title>
<path fill="none" stroke="#707070" d="M880.76,-148.86C899.24,-154.58 917.11,-163.67 930,-178 987.6,-242.03 1005.88,-509.66 1010.85,-613.02"/>
<polygon fill="#707070" stroke="#707070" points="1007.36,-613.16 1011.31,-622.99 1014.35,-612.84 1007.36,-613.16"/>
</g>
<!-- RouteTable::vpc::route&#45;table&#45;private&#45;a -->
<g id="node10" class="node">
<title>RouteTable::vpc::route&#45;table&#45;private&#45;a</title>
<polygon fill="#e5e5e5" stroke="#dddddd" points="898,-797 693,-797 693,-739 898,-739 898,-797"/>
<text text-anchor="start" x="705.5" y="-777.2" font-family="Helvetica,sans-Serif" font-weight="bold" font-size="16.00" fill="#707070">EC2::RouteTable</text>
<text text-anchor="start" x="705.5" y="-752.2" font-family="Helvetica,sans-Serif" font-size="16.00" fill="#383838">vpc::route&#45;table&#45;private&#45;a</text>
</g>
<!-- RouteTable::vpc::route&#45;table&#45;private&#45;a&#45;&gt;Vpc::vpc -->
<g id="edge9" class="edge">
<title>RouteTable::vpc::route&#45;table&#45;private&#45;a&#45;&gt;Vpc::vpc</title>
<path fill="none" stroke="#707070" d="M898.4,-744.44C909.37,-740.32 920.12,-735.54 930,-730 948.03,-719.89 965.3,-705.1 979.33,-691.24"/>
<polygon fill="#707070" stroke="#707070" points="981.63,-693.9 986.14,-684.31 976.63,-688.99 981.63,-693.9"/>
</g>
<!-- RouteTable::vpc::route&#45;table&#45;private&#45;b -->
<g id="node11" class="node">
<title>RouteTable::vpc::route&#45;table&#45;private&#45;b</title>
<polygon fill="#e5e5e5" stroke="#dddddd" points="898,-1025 693,-1025 693,-967 898,-967 898,-1025"/>
<text text-anchor="start" x="705.5" y="-1005.2" font-family="Helvetica,sans-Serif" font-weight="bold" font-size="16.00" fill="#707070">EC2::RouteTable</text>
<text text-anchor="start" x="705.5" y="-980.2" font-family="Helvetica,sans-Serif" font-size="16.00" fill="#383838">vpc::route&#45;table&#45;private&#45;b</text>
</g>
<!-- RouteTable::vpc::route&#45;table&#45;private&#45;b&#45;&gt;Vpc::vpc -->
<g id="edge10" class="edge">
<title>RouteTable::vpc::route&#45;table&#45;private&#45;b&#45;&gt;Vpc::vpc</title>
<path fill="none" stroke="#707070" d="M898.27,-979.35C910.04,-974.04 921.02,-967.09 930,-958 1001.09,-886.03 1012.52,-759.34 1013.39,-694.59"/>
<polygon fill="#707070" stroke="#707070" points="1016.89,-694.77 1013.43,-684.76 1009.89,-694.74 1016.89,-694.77"/>
</g>
<!-- RouteTable::vpc::route&#45;table&#45;public -->
<g id="node12" class="node">
<title>RouteTable::vpc::route&#45;table&#45;public</title>
<polygon fill="#e5e5e5" stroke="#dddddd" points="887.5,-245 703.5,-245 703.5,-187 887.5,-187 887.5,-245"/>
<text text-anchor="start" x="715.5" y="-225.2" font-family="Helvetica,sans-Serif" font-weight="bold" font-size="16.00" fill="#707070">EC2::RouteTable</text>
<text text-anchor="start" x="715.5" y="-200.2" font-family="Helvetica,sans-Serif" font-size="16.00" fill="#383838">vpc::route&#45;table&#45;public</text>
</g>
<!-- RouteTable::vpc::route&#45;table&#45;public&#45;&gt;Vpc::vpc -->
<g id="edge11" class="edge">
<title>RouteTable::vpc::route&#45;table&#45;public&#45;&gt;Vpc::vpc</title>
<path fill="none" stroke="#707070" d="M887.68,-227.58C903.55,-233.32 918.6,-241.73 930,-254 978.42,-306.14 1001.63,-522.38 1009.39,-613.37"/>
<polygon fill="#707070" stroke="#707070" points="1005.88,-613.41 1010.2,-623.08 1012.86,-612.83 1005.88,-613.41"/>
</g>
<!-- RouteTableAssociation::rt&#45;assoc::vpc::route&#45;table&#45;private&#45;a::vpc::subnet&#45;private&#45;a -->
<g id="node13" class="node">
<title>RouteTableAssociation::rt&#45;assoc::vpc::route&#45;table&#45;private&#45;a::vpc::subnet&#45;private&#45;a</title>
<polygon fill="#e5e5e5" stroke="#dddddd" points="614,-853 357,-853 357,-795 614,-795 614,-853"/>
<text text-anchor="start" x="369.5" y="-833.2" font-family="Helvetica,sans-Serif" font-weight="bold" font-size="16.00" fill="#707070">EC2::RouteTableAssociation</text>
<text text-anchor="start" x="369.5" y="-808.2" font-family="Helvetica,sans-Serif" font-size="16.00" fill="#383838">rt&#45;assoc::vpc::route&#45;table&#45;priva...</text>
</g>
<!-- RouteTableAssociation::rt&#45;assoc::vpc::route&#45;table&#45;private&#45;a::vpc::subnet&#45;private&#45;a&#45;&gt;Subnet::vpc::subnet&#45;private&#45;a -->
<g id="edge13" class="edge">
<title>RouteTableAssociation::rt&#45;assoc::vpc::route&#45;table&#45;private&#45;a::vpc::subnet&#45;private&#45;a&#45;&gt;Subnet::vpc::subnet&#45;private&#45;a</title>
<path fill="none" stroke="#707070" d="M614.44,-832.31C641.65,-834.07 669.98,-835.91 695.9,-837.6"/>
<polygon fill="#707070" stroke="#707070" points="695.52,-841.08 705.72,-838.24 695.97,-834.09 695.52,-841.08"/>
</g>
<!-- RouteTableAssociation::rt&#45;assoc::vpc::route&#45;table&#45;private&#45;a::vpc::subnet&#45;private&#45;a&#45;&gt;RouteTable::vpc::route&#45;table&#45;private&#45;a -->
<g id="edge12" class="edge">
<title>RouteTableAssociation::rt&#45;assoc::vpc::route&#45;table&#45;private&#45;a::vpc::subnet&#45;private&#45;a&#45;&gt;RouteTable::vpc::route&#45;table&#45;private&#45;a</title>
<path fill="none" stroke="#707070" d="M614.44,-800.74C636.68,-796.69 659.67,-792.52 681.47,-788.55"/>
<polygon fill="#707070" stroke="#707070" points="682.05,-792 691.26,-786.77 680.8,-785.12 682.05,-792"/>
</g>
<!-- RouteTableAssociation::rt&#45;assoc::vpc::route&#45;table&#45;private&#45;b::vpc::subnet&#45;private&#45;b -->
<g id="node14" class="node">
<title>RouteTableAssociation::rt&#45;assoc::vpc::route&#45;table&#45;private&#45;b::vpc::subnet&#45;private&#45;b</title>
<polygon fill="#e5e5e5" stroke="#dddddd" points="614,-1005 357,-1005 357,-947 614,-947 614,-1005"/>
<text text-anchor="start" x="369.5" y="-985.2" font-family="Helvetica,sans-Serif" font-weight="bold" font-size="16.00" fill="#707070">EC2::RouteTableAssociation</text>
<text text-anchor="start" x="369.5" y="-960.2" font-family="Helvetica,sans-Serif" font-size="16.00" fill="#383838">rt&#45;assoc::vpc::route&#45;table&#45;priva...</text>
</g>
<!-- RouteTableAssociation::rt&#45;assoc::vpc::route&#45;table&#45;private&#45;b::vpc::subnet&#45;private&#45;b&#45;&gt;Subnet::vpc::subnet&#45;private&#45;b -->
<g id="edge15" class="edge">
<title>RouteTableAssociation::rt&#45;assoc::vpc::route&#45;table&#45;private&#45;b::vpc::subnet&#45;private&#45;b&#45;&gt;Subnet::vpc::subnet&#45;private&#45;b</title>
<path fill="none" stroke="#707070" d="M614.44,-952.74C641.78,-947.77 670.24,-942.59 696.25,-937.86"/>
<polygon fill="#707070" stroke="#707070" points="696.53,-941.37 705.74,-936.14 695.28,-934.48 696.53,-941.37"/>
</g>
<!-- RouteTableAssociation::rt&#45;assoc::vpc::route&#45;table&#45;private&#45;b::vpc::subnet&#45;private&#45;b&#45;&gt;RouteTable::vpc::route&#45;table&#45;private&#45;b -->
<g id="edge14" class="edge">
<title>RouteTableAssociation::rt&#45;assoc::vpc::route&#45;table&#45;private&#45;b::vpc::subnet&#45;private&#45;b&#45;&gt;RouteTable::vpc::route&#45;table&#45;private&#45;b</title>
<path fill="none" stroke="#707070" d="M614.44,-984.31C636.68,-985.75 659.67,-987.24 681.47,-988.66"/>
<polygon fill="#707070" stroke="#707070" points="681.04,-992.14 691.24,-989.29 681.49,-985.15 681.04,-992.14"/>
</g>
<!-- RouteTableAssociation::rt&#45;assoc::vpc::route&#45;table&#45;public::vpc::subnet&#45;public&#45;a -->
<g id="node15" class="node">
<title>RouteTableAssociation::rt&#45;assoc::vpc::route&#45;table&#45;public::vpc::subnet&#45;public&#45;a</title>
<polygon fill="#e5e5e5" stroke="#dddddd" points="613.5,-357 357.5,-357 357.5,-299 613.5,-299 613.5,-357"/>
<text text-anchor="start" x="369.5" y="-337.2" font-family="Helvetica,sans-Serif" font-weight="bold" font-size="16.00" fill="#707070">EC2::RouteTableAssociation</text>
<text text-anchor="start" x="369.5" y="-312.2" font-family="Helvetica,sans-Serif" font-size="16.00" fill="#383838">rt&#45;assoc::vpc::route&#45;table&#45;publi...</text>
</g>
<!-- RouteTableAssociation::rt&#45;assoc::vpc::route&#45;table&#45;public::vpc::subnet&#45;public&#45;a&#45;&gt;Subnet::vpc::subnet&#45;public&#45;a -->
<g id="edge17" class="edge">
<title>RouteTableAssociation::rt&#45;assoc::vpc::route&#45;table&#45;public::vpc::subnet&#45;public&#45;a&#45;&gt;Subnet::vpc::subnet&#45;public&#45;a</title>
<path fill="none" stroke="#707070" d="M614,-352.84C642.51,-358.39 672.27,-364.19 699.21,-369.44"/>
<polygon fill="#707070" stroke="#707070" points="698.2,-372.81 708.68,-371.28 699.54,-365.93 698.2,-372.81"/>
</g>
<!-- RouteTableAssociation::rt&#45;assoc::vpc::route&#45;table&#45;public::vpc::subnet&#45;public&#45;a&#45;&gt;RouteTable::vpc::route&#45;table&#45;public -->
<g id="edge16" class="edge">
<title>RouteTableAssociation::rt&#45;assoc::vpc::route&#45;table&#45;public::vpc::subnet&#45;public&#45;a&#45;&gt;RouteTable::vpc::route&#45;table&#45;public</title>
<path fill="none" stroke="#707070" d="M608.48,-298.51C614.18,-295.9 619.72,-293.07 625,-290 644.56,-278.63 641.49,-265.47 661,-254 670.84,-248.22 681.61,-243.27 692.63,-239.06"/>
<polygon fill="#707070" stroke="#707070" points="693.6,-242.43 701.82,-235.74 691.22,-235.84 693.6,-242.43"/>
</g>
<!-- RouteTableAssociation::rt&#45;assoc::vpc::route&#45;table&#45;public::vpc::subnet&#45;public&#45;b -->
<g id="node16" class="node">
<title>RouteTableAssociation::rt&#45;assoc::vpc::route&#45;table&#45;public::vpc::subnet&#45;public&#45;b</title>
<polygon fill="#e5e5e5" stroke="#dddddd" points="613.5,-205 357.5,-205 357.5,-147 613.5,-147 613.5,-205"/>
<text text-anchor="start" x="369.5" y="-185.2" font-family="Helvetica,sans-Serif" font-weight="bold" font-size="16.00" fill="#707070">EC2::RouteTableAssociation</text>
<text text-anchor="start" x="369.5" y="-160.2" font-family="Helvetica,sans-Serif" font-size="16.00" fill="#383838">rt&#45;assoc::vpc::route&#45;table&#45;publi...</text>
</g>
<!-- RouteTableAssociation::rt&#45;assoc::vpc::route&#45;table&#45;public::vpc::subnet&#45;public&#45;b&#45;&gt;Subnet::vpc::subnet&#45;public&#45;b -->
<g id="edge19" class="edge">
<title>RouteTableAssociation::rt&#45;assoc::vpc::route&#45;table&#45;public::vpc::subnet&#45;public&#45;b&#45;&gt;Subnet::vpc::subnet&#45;public&#45;b</title>
<path fill="none" stroke="#707070" d="M614,-161.1C642.38,-157.78 672,-154.32 698.85,-151.18"/>
<polygon fill="#707070" stroke="#707070" points="699.14,-154.67 708.67,-150.03 698.33,-147.72 699.14,-154.67"/>
</g>
<!-- RouteTableAssociation::rt&#45;assoc::vpc::route&#45;table&#45;public::vpc::subnet&#45;public&#45;b&#45;&gt;RouteTable::vpc::route&#45;table&#45;public -->
<g id="edge18" class="edge">
<title>RouteTableAssociation::rt&#45;assoc::vpc::route&#45;table&#45;public::vpc::subnet&#45;public&#45;b&#45;&gt;RouteTable::vpc::route&#45;table&#45;public</title>
<path fill="none" stroke="#707070" d="M614,-192.56C639.97,-195.93 666.99,-199.44 691.96,-202.68"/>
<polygon fill="#707070" stroke="#707070" points="691.41,-206.14 701.78,-203.96 692.31,-199.2 691.41,-206.14"/>
</g>
<!-- Route::vpc::route&#45;table&#45;private&#45;a::nat&#45;gateway::0.0.0.0/0 -->
<g id="node17" class="node">
<title>Route::vpc::route&#45;table&#45;private&#45;a::nat&#45;gateway::0.0.0.0/0</title>
<polygon fill="#e5e5e5" stroke="#dddddd" points="294.5,-609 39.5,-609 39.5,-551 294.5,-551 294.5,-609"/>
<text text-anchor="start" x="52" y="-589.2" font-family="Helvetica,sans-Serif" font-weight="bold" font-size="16.00" fill="#707070">EC2::Route</text>
<text text-anchor="start" x="52" y="-564.2" font-family="Helvetica,sans-Serif" font-size="16.00" fill="#383838">vpc::route&#45;table&#45;private&#45;a::nat&#45;...</text>
</g>
<!-- Route::vpc::route&#45;table&#45;private&#45;a::nat&#45;gateway::0.0.0.0/0&#45;&gt;NatGateway::nat&#45;gateway -->
<g id="edge20" class="edge">
<title>Route::vpc::route&#45;table&#45;private&#45;a::nat&#45;gateway::0.0.0.0/0&#45;&gt;NatGateway::nat&#45;gateway</title>
<path fill="none" stroke="#707070" d="M294.91,-570.38C328.45,-567.83 363.95,-565.14 395.05,-562.78"/>
<polygon fill="#707070" stroke="#707070" points="395.08,-566.29 404.79,-562.04 394.55,-559.31 395.08,-566.29"/>
</g>
<!-- Route::vpc::route&#45;table&#45;private&#45;a::nat&#45;gateway::0.0.0.0/0&#45;&gt;RouteTable::vpc::route&#45;table&#45;private&#45;a -->
<g id="edge21" class="edge">
<title>Route::vpc::route&#45;table&#45;private&#45;a::nat&#45;gateway::0.0.0.0/0&#45;&gt;RouteTable::vpc::route&#45;table&#45;private&#45;a</title>
<path fill="none" stroke="#707070" d="M202.93,-609.29C232.94,-635.27 276.53,-675.05 310,-714 328.32,-735.32 321.13,-752.9 346,-766 374.87,-781.21 558.26,-777.36 681.41,-772.89"/>
<polygon fill="#707070" stroke="#707070" points="681.39,-776.39 691.25,-772.52 681.13,-769.39 681.39,-776.39"/>
</g>
<!-- Route::vpc::route&#45;table&#45;private&#45;b::nat&#45;gateway::0.0.0.0/0 -->
<g id="node18" class="node">
<title>Route::vpc::route&#45;table&#45;private&#45;b::nat&#45;gateway::0.0.0.0/0</title>
<polygon fill="#e5e5e5" stroke="#dddddd" points="294.5,-781 39.5,-781 39.5,-723 294.5,-723 294.5,-781"/>
<text text-anchor="start" x="52" y="-761.2" font-family="Helvetica,sans-Serif" font-weight="bold" font-size="16.00" fill="#707070">EC2::Route</text>
<text text-anchor="start" x="52" y="-736.2" font-family="Helvetica,sans-Serif" font-size="16.00" fill="#383838">vpc::route&#45;table&#45;private&#45;b::nat&#45;...</text>
</g>
<!-- Route::vpc::route&#45;table&#45;private&#45;b::nat&#45;gateway::0.0.0.0/0&#45;&gt;NatGateway::nat&#45;gateway -->
<g id="edge22" class="edge">
<title>Route::vpc::route&#45;table&#45;private&#45;b::nat&#45;gateway::0.0.0.0/0&#45;&gt;NatGateway::nat&#45;gateway</title>
<path fill="none" stroke="#707070" d="M194.82,-722.55C227.47,-688.35 285.75,-632.35 346,-599 361.32,-590.52 378.55,-583.47 395.5,-577.71"/>
<polygon fill="#707070" stroke="#707070" points="396.15,-581.18 404.57,-574.75 393.98,-574.52 396.15,-581.18"/>
</g>
<!-- Route::vpc::route&#45;table&#45;private&#45;b::nat&#45;gateway::0.0.0.0/0&#45;&gt;RouteTable::vpc::route&#45;table&#45;private&#45;b -->
<g id="edge23" class="edge">
<title>Route::vpc::route&#45;table&#45;private&#45;b::nat&#45;gateway::0.0.0.0/0&#45;&gt;RouteTable::vpc::route&#45;table&#45;private&#45;b</title>
<path fill="none" stroke="#707070" d="M241.21,-781.44C266.57,-795.08 292.9,-813.74 310,-838 356,-903.26 284.14,-963.52 346,-1014 448.56,-1097.71 612.51,-1062.39 711.2,-1029.16"/>
<polygon fill="#707070" stroke="#707070" points="712.27,-1032.49 720.59,-1025.93 710,-1025.87 712.27,-1032.49"/>
</g>
<!-- Route::vpc::route&#45;table&#45;public::igw::0.0.0.0/0 -->
<g id="node19" class="node">
<title>Route::vpc::route&#45;table&#45;public::igw::0.0.0.0/0</title>
<polygon fill="#e5e5e5" stroke="#dddddd" points="612,-281 359,-281 359,-223 612,-223 612,-281"/>
<text text-anchor="start" x="371.5" y="-261.2" font-family="Helvetica,sans-Serif" font-weight="bold" font-size="16.00" fill="#707070">EC2::Route</text>
<text text-anchor="start" x="371.5" y="-236.2" font-family="Helvetica,sans-Serif" font-size="16.00" fill="#383838">vpc::route&#45;table&#45;public::igw::0....</text>
</g>
<!-- Route::vpc::route&#45;table&#45;public::igw::0.0.0.0/0&#45;&gt;InternetGateway::internet&#45;gateway -->
<g id="edge24" class="edge">
<title>Route::vpc::route&#45;table&#45;public::igw::0.0.0.0/0&#45;&gt;InternetGateway::internet&#45;gateway</title>
<path fill="none" stroke="#707070" d="M612.22,-268.33C637.61,-271.62 664.06,-275.06 688.68,-278.26"/>
<polygon fill="#707070" stroke="#707070" points="687.98,-281.7 698.35,-279.51 688.89,-274.75 687.98,-281.7"/>
</g>
<!-- Route::vpc::route&#45;table&#45;public::igw::0.0.0.0/0&#45;&gt;RouteTable::vpc::route&#45;table&#45;public -->
<g id="edge25" class="edge">
<title>Route::vpc::route&#45;table&#45;public::igw::0.0.0.0/0&#45;&gt;RouteTable::vpc::route&#45;table&#45;public</title>
<path fill="none" stroke="#707070" d="M612.22,-237.31C638.74,-234.21 666.41,-230.97 691.95,-227.99"/>
<polygon fill="#707070" stroke="#707070" points="692.11,-231.49 701.64,-226.85 691.3,-224.54 692.11,-231.49"/>
</g>
<!-- SecurityGroup::sg::vpc::security&#45;group&#45;postgres -->
<g id="node20" class="node">
<title>SecurityGroup::sg::vpc::security&#45;group&#45;postgres</title>
<polygon fill="#e5e5e5" stroke="#dddddd" points="930,-645 661,-645 661,-587 930,-587 930,-645"/>
<text text-anchor="start" x="673.5" y="-625.2" font-family="Helvetica,sans-Serif" font-weight="bold" font-size="16.00" fill="#707070">EC2::SecurityGroup</text>
<text text-anchor="start" x="673.5" y="-600.2" font-family="Helvetica,sans-Serif" font-size="16.00" fill="#383838">sg::vpc::security&#45;group&#45;postgres...</text>
</g>
<!-- SecurityGroup::sg::vpc::security&#45;group&#45;postgres&#45;&gt;Vpc::vpc -->
<g id="edge26" class="edge">
<title>SecurityGroup::sg::vpc::security&#45;group&#45;postgres&#45;&gt;Vpc::vpc</title>
<path fill="none" stroke="#707070" d="M930.22,-639.53C938.69,-641.01 946.93,-642.46 954.72,-643.84"/>
<polygon fill="#707070" stroke="#707070" points="953.85,-647.24 964.3,-645.52 955.06,-640.34 953.85,-647.24"/>
</g>
<!-- SecurityGroup::sg::vpc::security&#45;group&#45;public -->
<g id="node21" class="node">
<title>SecurityGroup::sg::vpc::security&#45;group&#45;public</title>
<polygon fill="#e5e5e5" stroke="#dddddd" points="913.5,-721 677.5,-721 677.5,-663 913.5,-663 913.5,-721"/>
<text text-anchor="start" x="689.5" y="-701.2" font-family="Helvetica,sans-Serif" font-weight="bold" font-size="16.00" fill="#707070">EC2::SecurityGroup</text>
<text text-anchor="start" x="689.5" y="-676.2" font-family="Helvetica,sans-Serif" font-size="16.00" fill="#383838">sg::vpc::security&#45;group&#45;public</text>
</g>
<!-- SecurityGroup::sg::vpc::security&#45;group&#45;public&#45;&gt;Vpc::vpc -->
<g id="edge27" class="edge">
<title>SecurityGroup::sg::vpc::security&#45;group&#45;public&#45;&gt;Vpc::vpc</title>
<path fill="none" stroke="#707070" d="M913.98,-671.33C928.07,-668.85 941.95,-666.41 954.63,-664.18"/>
<polygon fill="#707070" stroke="#707070" points="955.19,-667.64 964.43,-662.46 953.98,-660.74 955.19,-667.64"/>
</g>
<!-- SecurityGroupRuleIngress::sg::vpc::security&#45;group&#45;postgres&#45;rule&#45;ingress&#45;tcp&#45;5432 -->
<g id="node22" class="node">
<title>SecurityGroupRuleIngress::sg::vpc::security&#45;group&#45;postgres&#45;rule&#45;ingress&#45;tcp&#45;5432</title>
<polygon fill="#e5e5e5" stroke="#dddddd" points="620,-681 351,-681 351,-623 620,-623 620,-681"/>
<text text-anchor="start" x="363.5" y="-661.2" font-family="Helvetica,sans-Serif" font-weight="bold" font-size="16.00" fill="#707070">EC2::SecurityGroupRuleIngress</text>
<text text-anchor="start" x="363.5" y="-636.2" font-family="Helvetica,sans-Serif" font-size="16.00" fill="#383838">sg::vpc::security&#45;group&#45;postgres...</text>
</g>
<!-- SecurityGroupRuleIngress::sg::vpc::security&#45;group&#45;postgres&#45;rule&#45;ingress&#45;tcp&#45;5432&#45;&gt;SecurityGroup::sg::vpc::security&#45;group&#45;postgres -->
<g id="edge28" class="edge">
<title>SecurityGroupRuleIngress::sg::vpc::security&#45;group&#45;postgres&#45;rule&#45;ingress&#45;tcp&#45;5432&#45;&gt;SecurityGroup::sg::vpc::security&#45;group&#45;postgres</title>
<path fill="none" stroke="#707070" d="M620.25,-636.37C629.93,-635.23 639.73,-634.09 649.47,-632.95"/>
<polygon fill="#707070" stroke="#707070" points="649.85,-636.43 659.38,-631.79 649.04,-629.48 649.85,-636.43"/>
</g>
<!-- SecurityGroupRuleIngress::sg::vpc::security&#45;group&#45;postgres&#45;rule&#45;ingress&#45;tcp&#45;5432&#45;&gt;SecurityGroup::sg::vpc::security&#45;group&#45;public -->
<g id="edge29" class="edge">
<title>SecurityGroupRuleIngress::sg::vpc::security&#45;group&#45;postgres&#45;rule&#45;ingress&#45;tcp&#45;5432&#45;&gt;SecurityGroup::sg::vpc::security&#45;group&#45;public</title>
<path fill="none" stroke="#707070" d="M620.25,-669.37C635.53,-671.36 651.09,-673.38 666.3,-675.35"/>
<polygon fill="#707070" stroke="#707070" points="665.44,-678.77 675.8,-676.58 666.34,-671.83 665.44,-678.77"/>
</g>
<!-- SecurityGroupRuleIngress::sg::vpc::security&#45;group&#45;public&#45;rule&#45;ingress&#45;tcp&#45;22 -->
<g id="node23" class="node">
<title>SecurityGroupRuleIngress::sg::vpc::security&#45;group&#45;public&#45;rule&#45;ingress&#45;tcp&#45;22</title>
<polygon fill="#e5e5e5" stroke="#dddddd" points="619.5,-757 351.5,-757 351.5,-699 619.5,-699 619.5,-757"/>
<text text-anchor="start" x="363.5" y="-737.2" font-family="Helvetica,sans-Serif" font-weight="bold" font-size="16.00" fill="#707070">EC2::SecurityGroupRuleIngress</text>
<text text-anchor="start" x="363.5" y="-712.2" font-family="Helvetica,sans-Serif" font-size="16.00" fill="#383838">sg::vpc::security&#45;group&#45;public&#45;r...</text>
</g>
<!-- SecurityGroupRuleIngress::sg::vpc::security&#45;group&#45;public&#45;rule&#45;ingress&#45;tcp&#45;22&#45;&gt;SecurityGroup::sg::vpc::security&#45;group&#45;public -->
<g id="edge30" class="edge">
<title>SecurityGroupRuleIngress::sg::vpc::security&#45;group&#45;public&#45;rule&#45;ingress&#45;tcp&#45;22&#45;&gt;SecurityGroup::sg::vpc::security&#45;group&#45;public</title>
<path fill="none" stroke="#707070" d="M619.8,-712.42C635.24,-710.61 650.96,-708.78 666.33,-706.98"/>
<polygon fill="#707070" stroke="#707070" points="666.41,-710.49 675.94,-705.86 665.6,-703.54 666.41,-710.49"/>
</g>
<!-- ElasticIpAddress::eip&#45;bastion -->
<g id="node24" class="node">
<title>ElasticIpAddress::eip&#45;bastion</title>
<polygon fill="#e5e5e5" stroke="#dddddd" points="583.5,-129 387.5,-129 387.5,-71 583.5,-71 583.5,-129"/>
<text text-anchor="start" x="399.5" y="-109.2" font-family="Helvetica,sans-Serif" font-weight="bold" font-size="16.00" fill="#707070">EC2::ElasticIpAddress</text>
<text text-anchor="start" x="399.5" y="-84.2" font-family="Helvetica,sans-Serif" font-size="16.00" fill="#383838">eip&#45;bastion</text>
</g>
<!-- ElasticIpAddressAssociation::eip&#45;attach::eip&#45;bastion::bastion -->
<g id="node26" class="node">
<title>ElasticIpAddressAssociation::eip&#45;attach::eip&#45;bastion::bastion</title>
<polygon fill="#e5e5e5" stroke="#dddddd" points="310,-319 24,-319 24,-261 310,-261 310,-319"/>
<text text-anchor="start" x="36" y="-299.2" font-family="Helvetica,sans-Serif" font-weight="bold" font-size="16.00" fill="#707070">EC2::ElasticIpAddressAssociation</text>
<text text-anchor="start" x="36" y="-274.2" font-family="Helvetica,sans-Serif" font-size="16.00" fill="#383838">eip&#45;attach::eip&#45;bastion::bastion...</text>
</g>
<!-- ElasticIpAddressAssociation::eip&#45;attach::eip&#45;bastion::bastion&#45;&gt;ElasticIpAddress::eip&#45;bastion -->
<g id="edge31" class="edge">
<title>ElasticIpAddressAssociation::eip&#45;attach::eip&#45;bastion::bastion&#45;&gt;ElasticIpAddress::eip&#45;bastion</title>
<path fill="none" stroke="#707070" d="M194.39,-260.71C226.84,-226.43 285.14,-170.25 346,-138 355.58,-132.92 365.91,-128.47 376.45,-124.58"/>
<polygon fill="#707070" stroke="#707070" points="377.33,-127.98 385.61,-121.38 375.02,-121.38 377.33,-127.98"/>
</g>
<!-- Instance::bastion -->
<g id="node27" class="node">
<title>Instance::bastion</title>
<polygon fill="#e5e5e5" stroke="#dddddd" points="551,-509 420,-509 420,-451 551,-451 551,-509"/>
<text text-anchor="start" x="432.5" y="-489.2" font-family="Helvetica,sans-Serif" font-weight="bold" font-size="16.00" fill="#707070">EC2::Instance</text>
<text text-anchor="start" x="432.5" y="-464.2" font-family="Helvetica,sans-Serif" font-size="16.00" fill="#383838">bastion</text>
</g>
<!-- ElasticIpAddressAssociation::eip&#45;attach::eip&#45;bastion::bastion&#45;&gt;Instance::bastion -->
<g id="edge32" class="edge">
<title>ElasticIpAddressAssociation::eip&#45;attach::eip&#45;bastion::bastion&#45;&gt;Instance::bastion</title>
<path fill="none" stroke="#707070" d="M194.39,-319.29C226.84,-353.57 285.14,-409.75 346,-442 365.24,-452.19 387.46,-459.85 408.4,-465.52"/>
<polygon fill="#707070" stroke="#707070" points="407.51,-468.91 418.07,-468.01 409.26,-462.13 407.51,-468.91"/>
</g>
<!-- Instance::bastion&#45;&gt;KeyPair::kp&#45;postgres&#45;stateless -->
<g id="edge34" class="edge">
<title>Instance::bastion&#45;&gt;KeyPair::kp&#45;postgres&#45;stateless</title>
<path fill="none" stroke="#707070" d="M551.44,-476.63C592.86,-474.47 647.36,-471.64 694.26,-469.21"/>
<polygon fill="#707070" stroke="#707070" points="694.38,-472.71 704.18,-468.69 694.02,-465.72 694.38,-472.71"/>
</g>
<!-- Instance::bastion&#45;&gt;Subnet::vpc::subnet&#45;public&#45;a -->
<g id="edge33" class="edge">
<title>Instance::bastion&#45;&gt;Subnet::vpc::subnet&#45;public&#45;a</title>
<path fill="none" stroke="#707070" d="M551.25,-464.39C574.72,-458.17 601.28,-450.47 625,-442 641.49,-436.11 644.54,-431.97 661,-426 673.3,-421.54 686.39,-417.26 699.38,-413.29"/>
<polygon fill="#707070" stroke="#707070" points="700.22,-416.69 708.8,-410.47 698.21,-409.99 700.22,-416.69"/>
</g>
<!-- Instance::bastion&#45;&gt;SecurityGroup::sg::vpc::security&#45;group&#45;public -->
<g id="edge35" class="edge">
<title>Instance::bastion&#45;&gt;SecurityGroup::sg::vpc::security&#45;group&#45;public</title>
<path fill="none" stroke="#707070" d="M551.42,-483.97C577.41,-488.76 605.69,-498.52 625,-518 669.01,-562.41 617.2,-609.38 661,-654 663.22,-656.26 665.56,-658.39 668.01,-660.39"/>
<polygon fill="#707070" stroke="#707070" points="665.92,-663.2 676.07,-666.23 670.02,-657.53 665.92,-663.2"/>
</g>
<!-- DBCluster::cluster&#45;postgres&#45;stateless -->
<g id="node28" class="node">
<title>DBCluster::cluster&#45;postgres&#45;stateless</title>
<polygon fill="#e5e5e5" stroke="#dddddd" points="272,-905 62,-905 62,-847 272,-847 272,-905"/>
<text text-anchor="start" x="74" y="-885.2" font-family="Helvetica,sans-Serif" font-weight="bold" font-size="16.00" fill="#707070">RDS::DBCluster</text>
<text text-anchor="start" x="74" y="-860.2" font-family="Helvetica,sans-Serif" font-size="16.00" fill="#383838">cluster&#45;postgres&#45;stateless</text>
</g>
<!-- DBCluster::cluster&#45;postgres&#45;stateless&#45;&gt;SecurityGroup::sg::vpc::security&#45;group&#45;postgres -->
<g id="edge37" class="edge">
<title>DBCluster::cluster&#45;postgres&#45;stateless&#45;&gt;SecurityGroup::sg::vpc::security&#45;group&#45;postgres</title>
<path fill="none" stroke="#707070" d="M241.21,-846.56C266.57,-832.92 292.9,-814.26 310,-790 356,-724.74 284.14,-664.48 346,-614 369.27,-595.01 527.44,-599.64 649.43,-606.31"/>
<polygon fill="#707070" stroke="#707070" points="649.05,-609.8 659.23,-606.86 649.44,-602.81 649.05,-609.8"/>
</g>
<!-- DBSubnetGroup::subnet&#45;group&#45;postgres&#45;stateless -->
<g id="node29" class="node">
<title>DBSubnetGroup::subnet&#45;group&#45;postgres&#45;stateless</title>
<polygon fill="#e5e5e5" stroke="#dddddd" points="614,-929 357,-929 357,-871 614,-871 614,-929"/>
<text text-anchor="start" x="369.5" y="-909.2" font-family="Helvetica,sans-Serif" font-weight="bold" font-size="16.00" fill="#707070">RDS::DBSubnetGroup</text>
<text text-anchor="start" x="369.5" y="-884.2" font-family="Helvetica,sans-Serif" font-size="16.00" fill="#383838">subnet&#45;group&#45;postgres&#45;stateless</text>
</g>
<!-- DBCluster::cluster&#45;postgres&#45;stateless&#45;&gt;DBSubnetGroup::subnet&#45;group&#45;postgres&#45;stateless -->
<g id="edge36" class="edge">
<title>DBCluster::cluster&#45;postgres&#45;stateless&#45;&gt;DBSubnetGroup::subnet&#45;group&#45;postgres&#45;stateless</title>
<path fill="none" stroke="#707070" d="M272.07,-883.89C295.51,-885.67 320.75,-887.58 345.36,-889.45"/>
<polygon fill="#707070" stroke="#707070" points="344.87,-892.92 355.11,-890.19 345.4,-885.94 344.87,-892.92"/>
</g>
<!-- DBSubnetGroup::subnet&#45;group&#45;postgres&#45;stateless&#45;&gt;Subnet::vpc::subnet&#45;private&#45;a -->
<g id="edge38" class="edge">
<title>DBSubnetGroup::subnet&#45;group&#45;postgres&#45;stateless&#45;&gt;Subnet::vpc::subnet&#45;private&#45;a</title>
<path fill="none" stroke="#707070" d="M614.44,-876.74C641.78,-871.77 670.24,-866.59 696.25,-861.86"/>
<polygon fill="#707070" stroke="#707070" points="696.53,-865.37 705.74,-860.14 695.28,-858.48 696.53,-865.37"/>
</g>
<!-- DBSubnetGroup::subnet&#45;group&#45;postgres&#45;stateless&#45;&gt;Subnet::vpc::subnet&#45;private&#45;b -->
<g id="edge39" class="edge">
<title>DBSubnetGroup::subnet&#45;group&#45;postgres&#45;stateless&#45;&gt;Subnet::vpc::subnet&#45;private&#45;b</title>
<path fill="none" stroke="#707070" d="M614.44,-908.31C641.65,-910.07 669.98,-911.91 695.9,-913.6"/>
<polygon fill="#707070" stroke="#707070" points="695.52,-917.08 705.72,-914.24 695.97,-910.09 695.52,-917.08"/>
</g>
</g>
</svg>
