<?xml version="1.0" encoding="UTF-8" standalone="no"?>
<!DOCTYPE svg PUBLIC "-//W3C//DTD SVG 1.1//EN"
 "http://www.w3.org/Graphics/SVG/1.1/DTD/svg11.dtd">
<!-- Generated by graphviz version 2.44.1 (20200629.0846)
 -->
<!-- Title: graphname Pages: 1 -->
<svg width="856pt" height="1113pt"
 viewBox="0.00 0.00 856.00 1113.00" xmlns="http://www.w3.org/2000/svg" xmlns:xlink="http://www.w3.org/1999/xlink">
<g id="graph0" class="graph" transform="scale(1 1) rotate(0) translate(4 1109)">
<title>graphname</title>
<polygon fill="#fafafa" stroke="transparent" points="-4,4 -4,-1109 852,-1109 852,4 -4,4"/>
<text text-anchor="start" x="260" y="-1080.4" font-family="Helvetica,sans-Serif" font-weight="bold" font-size="22.00" fill="#383838">Project RDS Postgres Stateless</text>
<text text-anchor="start" x="420.5" y="-1064.8" font-family="Helvetica,sans-Serif" font-size="14.00"> &#160;</text>
<text text-anchor="start" x="260" y="-1043.2" font-family="Helvetica,sans-Serif" font-weight="bold" font-size="16.00" fill="#707070">Target Diagram</text>
<g id="clust1" class="cluster">
<title>cluster_aws</title>
<polygon fill="#f5f5f5" stroke="#f5f5f5" points="8,-8 8,-1021 840,-1021 840,-8 8,-8"/>
<text text-anchor="start" x="362" y="-23" font-family="Helvetica,sans-Serif" font-weight="bold" font-size="20.00" fill="#707070">Provider aws</text>
</g>
<g id="clust2" class="cluster">
<title>cluster_aws_</title>
<polygon fill="#eeeeee" stroke="#eeeeee" points="16,-550 16,-1013 552,-1013 552,-550 16,-550"/>
<text text-anchor="start" x="283.86" y="-554.3" font-family="Helvetica,sans-Serif" font-size="1.00" fill="#383838"> </text>
</g>
<g id="clust3" class="cluster">
<title>cluster_aws_VPC</title>
<polygon fill="#eeeeee" stroke="#eeeeee" points="64.5,-54 64.5,-542 832,-542 832,-54 64.5,-54"/>
<text text-anchor="start" x="427.25" y="-65" font-family="Helvetica,sans-Serif" font-weight="bold" font-size="20.00" fill="#383838">VPC</text>
</g>
<!-- KeyPair::kp&#45;postgres&#45;stateless -->
<g id="node1" class="node">
<title>KeyPair::kp&#45;postgres&#45;stateless</title>
<polygon fill="#e5e5e5" stroke="#dddddd" points="505,-1005 326,-1005 326,-947 505,-947 505,-1005"/>
<text text-anchor="start" x="338.5" y="-985.2" font-family="Helvetica,sans-Serif" font-weight="bold" font-size="16.00" fill="#707070">KeyPair</text>
<text text-anchor="start" x="338.5" y="-960.2" font-family="Helvetica,sans-Serif" font-size="16.00" fill="#383838">kp&#45;postgres&#45;stateless</text>
</g>
<!-- SecurityGroup::security&#45;group&#45;public -->
<g id="node2" class="node">
<title>SecurityGroup::security&#45;group&#45;public</title>
<polygon fill="#e5e5e5" stroke="#dddddd" points="503,-777 328,-777 328,-719 503,-719 503,-777"/>
<text text-anchor="start" x="340.5" y="-757.2" font-family="Helvetica,sans-Serif" font-weight="bold" font-size="16.00" fill="#707070">SecurityGroup</text>
<text text-anchor="start" x="340.5" y="-732.2" font-family="Helvetica,sans-Serif" font-size="16.00" fill="#383838">security&#45;group&#45;public</text>
</g>
<!-- Vpc::vpc -->
<g id="node11" class="node">
<title>Vpc::vpc</title>
<polygon fill="#e5e5e5" stroke="#dddddd" points="824,-442 770,-442 770,-384 824,-384 824,-442"/>
<text text-anchor="start" x="782" y="-422.2" font-family="Helvetica,sans-Serif" font-weight="bold" font-size="16.00" fill="#707070">Vpc</text>
<text text-anchor="start" x="782" y="-397.2" font-family="Helvetica,sans-Serif" font-size="16.00" fill="#383838">vpc</text>
</g>
<!-- SecurityGroup::security&#45;group&#45;public&#45;&gt;Vpc::vpc -->
<g id="edge21" class="edge">
<title>SecurityGroup::security&#45;group&#45;public&#45;&gt;Vpc::vpc</title>
<path fill="none" stroke="#707070" d="M503.34,-727.57C575.97,-705.91 676.63,-664.4 734,-591 766.19,-549.82 782.35,-490.73 789.95,-452.12"/>
<polygon fill="#707070" stroke="#707070" points="793.39,-452.75 791.78,-442.28 786.51,-451.47 793.39,-452.75"/>
</g>
<!-- SecurityGroupRuleIngress::sg&#45;rule&#45;ingress&#45;ssh&#45;bastion -->
<g id="node3" class="node">
<title>SecurityGroupRuleIngress::sg&#45;rule&#45;ingress&#45;ssh&#45;bastion</title>
<polygon fill="#e5e5e5" stroke="#dddddd" points="251,-777 24,-777 24,-719 251,-719 251,-777"/>
<text text-anchor="start" x="36.5" y="-757.2" font-family="Helvetica,sans-Serif" font-weight="bold" font-size="16.00" fill="#707070">SecurityGroupRuleIngress</text>
<text text-anchor="start" x="36.5" y="-732.2" font-family="Helvetica,sans-Serif" font-size="16.00" fill="#383838">sg&#45;rule&#45;ingress&#45;ssh&#45;bastion</text>
</g>
<!-- SecurityGroupRuleIngress::sg&#45;rule&#45;ingress&#45;ssh&#45;bastion&#45;&gt;SecurityGroup::security&#45;group&#45;public -->
<g id="edge22" class="edge">
<title>SecurityGroupRuleIngress::sg&#45;rule&#45;ingress&#45;ssh&#45;bastion&#45;&gt;SecurityGroup::security&#45;group&#45;public</title>
<path fill="none" stroke="#707070" d="M251.16,-748C273.29,-748 296.32,-748 317.87,-748"/>
<polygon fill="#707070" stroke="#707070" points="317.99,-751.5 327.99,-748 317.99,-744.5 317.99,-751.5"/>
</g>
<!-- ElasticIpAddress::eip&#45;bastion -->
<g id="node4" class="node">
<title>ElasticIpAddress::eip&#45;bastion</title>
<polygon fill="#e5e5e5" stroke="#dddddd" points="492.5,-853 338.5,-853 338.5,-795 492.5,-795 492.5,-853"/>
<text text-anchor="start" x="350.5" y="-833.2" font-family="Helvetica,sans-Serif" font-weight="bold" font-size="16.00" fill="#707070">ElasticIpAddress</text>
<text text-anchor="start" x="350.5" y="-808.2" font-family="Helvetica,sans-Serif" font-size="16.00" fill="#383838">eip&#45;bastion</text>
</g>
<!-- Image::Amazon Linux 2 -->
<g id="node5" class="node">
<title>Image::Amazon Linux 2</title>
<polygon fill="#e5e5e5" stroke="#dddddd" points="486,-929 345,-929 345,-871 486,-871 486,-929"/>
<text text-anchor="start" x="357.5" y="-909.2" font-family="Helvetica,sans-Serif" font-weight="bold" font-size="16.00" fill="#707070">Image</text>
<text text-anchor="start" x="357.5" y="-884.2" font-family="Helvetica,sans-Serif" font-size="16.00" fill="#383838">Amazon Linux 2</text>
</g>
<!-- Instance::bastion -->
<g id="node6" class="node">
<title>Instance::bastion</title>
<polygon fill="#e5e5e5" stroke="#dddddd" points="182.5,-853 92.5,-853 92.5,-795 182.5,-795 182.5,-853"/>
<text text-anchor="start" x="104.5" y="-833.2" font-family="Helvetica,sans-Serif" font-weight="bold" font-size="16.00" fill="#707070">Instance</text>
<text text-anchor="start" x="104.5" y="-808.2" font-family="Helvetica,sans-Serif" font-size="16.00" fill="#383838">bastion</text>
</g>
<!-- Instance::bastion&#45;&gt;KeyPair::kp&#45;postgres&#45;stateless -->
<g id="edge23" class="edge">
<title>Instance::bastion&#45;&gt;KeyPair::kp&#45;postgres&#45;stateless</title>
<path fill="none" stroke="#707070" d="M169.21,-853.03C197.74,-878.6 242.42,-915.23 287,-938 296.2,-942.7 306.07,-946.91 316.1,-950.67"/>
<polygon fill="#707070" stroke="#707070" points="315.16,-954.05 325.76,-954.14 317.53,-947.46 315.16,-954.05"/>
</g>
<!-- Instance::bastion&#45;&gt;SecurityGroup::security&#45;group&#45;public -->
<g id="edge26" class="edge">
<title>Instance::bastion&#45;&gt;SecurityGroup::security&#45;group&#45;public</title>
<path fill="none" stroke="#707070" d="M182.54,-811.87C218.91,-801.86 271.87,-787.27 318.01,-774.57"/>
<polygon fill="#707070" stroke="#707070" points="319.03,-777.92 327.74,-771.89 317.17,-771.17 319.03,-777.92"/>
</g>
<!-- Instance::bastion&#45;&gt;ElasticIpAddress::eip&#45;bastion -->
<g id="edge24" class="edge">
<title>Instance::bastion&#45;&gt;ElasticIpAddress::eip&#45;bastion</title>
<path fill="none" stroke="#707070" d="M182.54,-824C221.61,-824 279.82,-824 328.16,-824"/>
<polygon fill="#707070" stroke="#707070" points="328.31,-827.5 338.31,-824 328.31,-820.5 328.31,-827.5"/>
</g>
<!-- Instance::bastion&#45;&gt;Image::Amazon Linux 2 -->
<g id="edge25" class="edge">
<title>Instance::bastion&#45;&gt;Image::Amazon Linux 2</title>
<path fill="none" stroke="#707070" d="M182.54,-836.13C223.49,-847.4 285.46,-864.47 335.05,-878.12"/>
<polygon fill="#707070" stroke="#707070" points="334.22,-881.52 344.79,-880.8 336.08,-874.77 334.22,-881.52"/>
</g>
<!-- Subnet::subnet&#45;public&#45;a -->
<g id="node13" class="node">
<title>Subnet::subnet&#45;public&#45;a</title>
<polygon fill="#e5e5e5" stroke="#dddddd" points="725,-342 589,-342 589,-284 725,-284 725,-342"/>
<text text-anchor="start" x="601" y="-322.2" font-family="Helvetica,sans-Serif" font-weight="bold" font-size="16.00" fill="#707070">Subnet</text>
<text text-anchor="start" x="601" y="-297.2" font-family="Helvetica,sans-Serif" font-size="16.00" fill="#383838">subnet&#45;public&#45;a</text>
</g>
<!-- Instance::bastion&#45;&gt;Subnet::subnet&#45;public&#45;a -->
<g id="edge27" class="edge">
<title>Instance::bastion&#45;&gt;Subnet::subnet&#45;public&#45;a</title>
<path fill="none" stroke="#707070" d="M182.55,-820.02C206.3,-815.52 234.12,-806.01 251,-786 317.15,-707.59 211.57,-627.53 287,-558 330.42,-517.97 508.74,-578.2 552,-538 613.56,-480.79 530.63,-419.01 580,-351 580.57,-350.22 581.16,-349.45 581.77,-348.69"/>
<polygon fill="#707070" stroke="#707070" points="584.57,-350.82 588.96,-341.18 579.52,-345.98 584.57,-350.82"/>
</g>
<!-- SecurityGroup::security&#45;group&#45;postgres -->
<g id="node7" class="node">
<title>SecurityGroup::security&#45;group&#45;postgres</title>
<polygon fill="#e5e5e5" stroke="#dddddd" points="513,-701 318,-701 318,-643 513,-643 513,-701"/>
<text text-anchor="start" x="330.5" y="-681.2" font-family="Helvetica,sans-Serif" font-weight="bold" font-size="16.00" fill="#707070">SecurityGroup</text>
<text text-anchor="start" x="330.5" y="-656.2" font-family="Helvetica,sans-Serif" font-size="16.00" fill="#383838">security&#45;group&#45;postgres</text>
</g>
<!-- SecurityGroup::security&#45;group&#45;postgres&#45;&gt;Vpc::vpc -->
<g id="edge28" class="edge">
<title>SecurityGroup::security&#45;group&#45;postgres&#45;&gt;Vpc::vpc</title>
<path fill="none" stroke="#707070" d="M513.34,-653.39C582.92,-635.43 674.56,-601.72 734,-541 758.46,-516.01 774.83,-479.5 784.58,-451.86"/>
<polygon fill="#707070" stroke="#707070" points="787.98,-452.72 787.87,-442.12 781.35,-450.47 787.98,-452.72"/>
</g>
<!-- SecurityGroupRuleIngress::sg&#45;rule&#45;ingress&#45;postgres -->
<g id="node8" class="node">
<title>SecurityGroupRuleIngress::sg&#45;rule&#45;ingress&#45;postgres</title>
<polygon fill="#e5e5e5" stroke="#dddddd" points="251,-701 24,-701 24,-643 251,-643 251,-701"/>
<text text-anchor="start" x="36.5" y="-681.2" font-family="Helvetica,sans-Serif" font-weight="bold" font-size="16.00" fill="#707070">SecurityGroupRuleIngress</text>
<text text-anchor="start" x="36.5" y="-656.2" font-family="Helvetica,sans-Serif" font-size="16.00" fill="#383838">sg&#45;rule&#45;ingress&#45;postgres</text>
</g>
<!-- SecurityGroupRuleIngress::sg&#45;rule&#45;ingress&#45;postgres&#45;&gt;SecurityGroup::security&#45;group&#45;public -->
<g id="edge30" class="edge">
<title>SecurityGroupRuleIngress::sg&#45;rule&#45;ingress&#45;postgres&#45;&gt;SecurityGroup::security&#45;group&#45;public</title>
<path fill="none" stroke="#707070" d="M244.03,-701.06C268.37,-707.76 294.14,-714.86 318.07,-721.45"/>
<polygon fill="#707070" stroke="#707070" points="317.28,-724.86 327.85,-724.14 319.14,-718.11 317.28,-724.86"/>
</g>
<!-- SecurityGroupRuleIngress::sg&#45;rule&#45;ingress&#45;postgres&#45;&gt;SecurityGroup::security&#45;group&#45;postgres -->
<g id="edge29" class="edge">
<title>SecurityGroupRuleIngress::sg&#45;rule&#45;ingress&#45;postgres&#45;&gt;SecurityGroup::security&#45;group&#45;postgres</title>
<path fill="none" stroke="#707070" d="M251.16,-672C269.77,-672 289.02,-672 307.49,-672"/>
<polygon fill="#707070" stroke="#707070" points="307.66,-675.5 317.66,-672 307.66,-668.5 307.66,-675.5"/>
</g>
<!-- DBSubnetGroup::subnet&#45;group&#45;postgres&#45;stateless -->
<g id="node9" class="node">
<title>DBSubnetGroup::subnet&#45;group&#45;postgres&#45;stateless</title>
<polygon fill="#e5e5e5" stroke="#dddddd" points="544,-625 287,-625 287,-567 544,-567 544,-625"/>
<text text-anchor="start" x="299.5" y="-605.2" font-family="Helvetica,sans-Serif" font-weight="bold" font-size="16.00" fill="#707070">DBSubnetGroup</text>
<text text-anchor="start" x="299.5" y="-580.2" font-family="Helvetica,sans-Serif" font-size="16.00" fill="#383838">subnet&#45;group&#45;postgres&#45;stateless</text>
</g>
<!-- Subnet::subnet&#45;private&#45;a -->
<g id="node19" class="node">
<title>Subnet::subnet&#45;private&#45;a</title>
<polygon fill="#e5e5e5" stroke="#dddddd" points="728,-418 586,-418 586,-360 728,-360 728,-418"/>
<text text-anchor="start" x="598" y="-398.2" font-family="Helvetica,sans-Serif" font-weight="bold" font-size="16.00" fill="#707070">Subnet</text>
<text text-anchor="start" x="598" y="-373.2" font-family="Helvetica,sans-Serif" font-size="16.00" fill="#383838">subnet&#45;private&#45;a</text>
</g>
<!-- DBSubnetGroup::subnet&#45;group&#45;postgres&#45;stateless&#45;&gt;Subnet::subnet&#45;private&#45;a -->
<g id="edge31" class="edge">
<title>DBSubnetGroup::subnet&#45;group&#45;postgres&#45;stateless&#45;&gt;Subnet::subnet&#45;private&#45;a</title>
<path fill="none" stroke="#707070" d="M535.23,-566.96C541.32,-562.9 546.98,-558.27 552,-553 585.6,-517.71 552.95,-487.53 580,-447 585.46,-438.82 592.46,-431.32 600,-424.62"/>
<polygon fill="#707070" stroke="#707070" points="602.26,-427.3 607.69,-418.2 597.77,-421.93 602.26,-427.3"/>
</g>
<!-- Subnet::subnet&#45;private&#45;b -->
<g id="node22" class="node">
<title>Subnet::subnet&#45;private&#45;b</title>
<polygon fill="#e5e5e5" stroke="#dddddd" points="728,-514 586,-514 586,-456 728,-456 728,-514"/>
<text text-anchor="start" x="598" y="-494.2" font-family="Helvetica,sans-Serif" font-weight="bold" font-size="16.00" fill="#707070">Subnet</text>
<text text-anchor="start" x="598" y="-469.2" font-family="Helvetica,sans-Serif" font-size="16.00" fill="#383838">subnet&#45;private&#45;b</text>
</g>
<!-- DBSubnetGroup::subnet&#45;group&#45;postgres&#45;stateless&#45;&gt;Subnet::subnet&#45;private&#45;b -->
<g id="edge32" class="edge">
<title>DBSubnetGroup::subnet&#45;group&#45;postgres&#45;stateless&#45;&gt;Subnet::subnet&#45;private&#45;b</title>
<path fill="none" stroke="#707070" d="M518.66,-566.9C530.08,-562.67 541.41,-558.03 552,-553 571.25,-543.86 591.13,-531.65 608.29,-520.1"/>
<polygon fill="#707070" stroke="#707070" points="610.72,-522.68 616.99,-514.14 606.76,-516.9 610.72,-522.68"/>
</g>
<!-- DBCluster::cluster&#45;postgres&#45;stateless -->
<g id="node10" class="node">
<title>DBCluster::cluster&#45;postgres&#45;stateless</title>
<polygon fill="#e5e5e5" stroke="#dddddd" points="242.5,-625 32.5,-625 32.5,-567 242.5,-567 242.5,-625"/>
<text text-anchor="start" x="44.5" y="-605.2" font-family="Helvetica,sans-Serif" font-weight="bold" font-size="16.00" fill="#707070">DBCluster</text>
<text text-anchor="start" x="44.5" y="-580.2" font-family="Helvetica,sans-Serif" font-size="16.00" fill="#383838">cluster&#45;postgres&#45;stateless</text>
</g>
<!-- DBCluster::cluster&#45;postgres&#45;stateless&#45;&gt;SecurityGroup::security&#45;group&#45;postgres -->
<g id="edge34" class="edge">
<title>DBCluster::cluster&#45;postgres&#45;stateless&#45;&gt;SecurityGroup::security&#45;group&#45;postgres</title>
<path fill="none" stroke="#707070" d="M242.84,-624.73C264.16,-630.6 286.61,-636.78 308,-642.67"/>
<polygon fill="#707070" stroke="#707070" points="307.17,-646.08 317.74,-645.36 309.03,-639.33 307.17,-646.08"/>
</g>
<!-- DBCluster::cluster&#45;postgres&#45;stateless&#45;&gt;DBSubnetGroup::subnet&#45;group&#45;postgres&#45;stateless -->
<g id="edge33" class="edge">
<title>DBCluster::cluster&#45;postgres&#45;stateless&#45;&gt;DBSubnetGroup::subnet&#45;group&#45;postgres&#45;stateless</title>
<path fill="none" stroke="#707070" d="M242.84,-596C253.94,-596 265.35,-596 276.76,-596"/>
<polygon fill="#707070" stroke="#707070" points="276.77,-599.5 286.77,-596 276.77,-592.5 276.77,-599.5"/>
</g>
<!-- InternetGateway::internet&#45;gateway -->
<g id="node12" class="node">
<title>InternetGateway::internet&#45;gateway</title>
<polygon fill="#e5e5e5" stroke="#dddddd" points="490.5,-529 340.5,-529 340.5,-471 490.5,-471 490.5,-529"/>
<text text-anchor="start" x="352.5" y="-509.2" font-family="Helvetica,sans-Serif" font-weight="bold" font-size="16.00" fill="#707070">InternetGateway</text>
<text text-anchor="start" x="352.5" y="-484.2" font-family="Helvetica,sans-Serif" font-size="16.00" fill="#383838">internet&#45;gateway</text>
</g>
<!-- InternetGateway::internet&#45;gateway&#45;&gt;Vpc::vpc -->
<g id="edge1" class="edge">
<title>InternetGateway::internet&#45;gateway&#45;&gt;Vpc::vpc</title>
<path fill="none" stroke="#707070" d="M490.57,-527.9C558.59,-548.55 659.8,-566.35 734,-523 760.15,-507.72 776.13,-476.89 785.31,-451.75"/>
<polygon fill="#707070" stroke="#707070" points="788.69,-452.69 788.61,-442.09 782.06,-450.42 788.69,-452.69"/>
</g>
<!-- Subnet::subnet&#45;public&#45;a&#45;&gt;Vpc::vpc -->
<g id="edge2" class="edge">
<title>Subnet::subnet&#45;public&#45;a&#45;&gt;Vpc::vpc</title>
<path fill="none" stroke="#707070" d="M720.37,-342.08C725.09,-344.91 729.69,-347.89 734,-351 744.33,-358.44 754.53,-367.64 763.58,-376.65"/>
<polygon fill="#707070" stroke="#707070" points="761.07,-379.1 770.57,-383.8 766.08,-374.21 761.07,-379.1"/>
</g>
<!-- Subnet::subnet&#45;public&#45;b -->
<g id="node14" class="node">
<title>Subnet::subnet&#45;public&#45;b</title>
<polygon fill="#e5e5e5" stroke="#dddddd" points="725,-246 589,-246 589,-188 725,-188 725,-246"/>
<text text-anchor="start" x="601" y="-226.2" font-family="Helvetica,sans-Serif" font-weight="bold" font-size="16.00" fill="#707070">Subnet</text>
<text text-anchor="start" x="601" y="-201.2" font-family="Helvetica,sans-Serif" font-size="16.00" fill="#383838">subnet&#45;public&#45;b</text>
</g>
<!-- Subnet::subnet&#45;public&#45;b&#45;&gt;Vpc::vpc -->
<g id="edge3" class="edge">
<title>Subnet::subnet&#45;public&#45;b&#45;&gt;Vpc::vpc</title>
<path fill="none" stroke="#707070" d="M718.61,-246.03C724.23,-250.22 729.5,-254.87 734,-260 762.7,-292.69 779.17,-340.41 787.81,-373.84"/>
<polygon fill="#707070" stroke="#707070" points="784.46,-374.85 790.25,-383.72 791.25,-373.17 784.46,-374.85"/>
</g>
<!-- RouteTable::route&#45;table&#45;public -->
<g id="node15" class="node">
<title>RouteTable::route&#45;table&#45;public</title>
<polygon fill="#e5e5e5" stroke="#dddddd" points="490.5,-342 340.5,-342 340.5,-284 490.5,-284 490.5,-342"/>
<text text-anchor="start" x="352.5" y="-322.2" font-family="Helvetica,sans-Serif" font-weight="bold" font-size="16.00" fill="#707070">RouteTable</text>
<text text-anchor="start" x="352.5" y="-297.2" font-family="Helvetica,sans-Serif" font-size="16.00" fill="#383838">route&#45;table&#45;public</text>
</g>
<!-- RouteTable::route&#45;table&#45;public&#45;&gt;Vpc::vpc -->
<g id="edge4" class="edge">
<title>RouteTable::route&#45;table&#45;public&#45;&gt;Vpc::vpc</title>
<path fill="none" stroke="#707070" d="M490.83,-293.28C571.83,-273.66 695.08,-249.82 734,-275 767.43,-296.63 783.01,-341.03 790.16,-373.65"/>
<polygon fill="#707070" stroke="#707070" points="786.79,-374.67 792.19,-383.79 793.65,-373.29 786.79,-374.67"/>
</g>
<!-- RouteTable::route&#45;table&#45;public&#45;&gt;Subnet::subnet&#45;public&#45;a -->
<g id="edge5" class="edge">
<title>RouteTable::route&#45;table&#45;public&#45;&gt;Subnet::subnet&#45;public&#45;a</title>
<path fill="none" stroke="#707070" d="M490.64,-313C518.54,-313 550.32,-313 578.51,-313"/>
<polygon fill="#707070" stroke="#707070" points="578.72,-316.5 588.72,-313 578.72,-309.5 578.72,-316.5"/>
</g>
<!-- RouteTable::route&#45;table&#45;public&#45;&gt;Subnet::subnet&#45;public&#45;b -->
<g id="edge6" class="edge">
<title>RouteTable::route&#45;table&#45;public&#45;&gt;Subnet::subnet&#45;public&#45;b</title>
<path fill="none" stroke="#707070" d="M490.7,-295.58C510.91,-289.93 532.57,-283.01 552,-275 554.62,-273.92 574.15,-263.08 595.59,-251.06"/>
<polygon fill="#707070" stroke="#707070" points="597.51,-254 604.52,-246.05 594.08,-247.89 597.51,-254"/>
</g>
<!-- Route::route&#45;public -->
<g id="node16" class="node">
<title>Route::route&#45;public</title>
<polygon fill="#e5e5e5" stroke="#dddddd" points="192,-482 83,-482 83,-424 192,-424 192,-482"/>
<text text-anchor="start" x="95.5" y="-462.2" font-family="Helvetica,sans-Serif" font-weight="bold" font-size="16.00" fill="#707070">Route</text>
<text text-anchor="start" x="95.5" y="-437.2" font-family="Helvetica,sans-Serif" font-size="16.00" fill="#383838">route&#45;public</text>
</g>
<!-- Route::route&#45;public&#45;&gt;InternetGateway::internet&#45;gateway -->
<g id="edge8" class="edge">
<title>Route::route&#45;public&#45;&gt;InternetGateway::internet&#45;gateway</title>
<path fill="none" stroke="#707070" d="M192.04,-462.12C231.32,-468.81 285.43,-478.02 330.45,-485.69"/>
<polygon fill="#707070" stroke="#707070" points="330.05,-489.17 340.49,-487.4 331.22,-482.27 330.05,-489.17"/>
</g>
<!-- Route::route&#45;public&#45;&gt;RouteTable::route&#45;table&#45;public -->
<g id="edge7" class="edge">
<title>Route::route&#45;public&#45;&gt;RouteTable::route&#45;table&#45;public</title>
<path fill="none" stroke="#707070" d="M192.04,-425.84C236.67,-403.21 300.43,-370.86 348.26,-346.6"/>
<polygon fill="#707070" stroke="#707070" points="349.97,-349.66 357.3,-342.01 346.8,-343.42 349.97,-349.66"/>
</g>
<!-- ElasticIpAddress::iep -->
<g id="node17" class="node">
<title>ElasticIpAddress::iep</title>
<polygon fill="#e5e5e5" stroke="#dddddd" points="734,-170 580,-170 580,-112 734,-112 734,-170"/>
<text text-anchor="start" x="592" y="-150.2" font-family="Helvetica,sans-Serif" font-weight="bold" font-size="16.00" fill="#707070">ElasticIpAddress</text>
<text text-anchor="start" x="592" y="-125.2" font-family="Helvetica,sans-Serif" font-size="16.00" fill="#383838">iep</text>
</g>
<!-- NatGateway::nat&#45;gateway -->
<g id="node18" class="node">
<title>NatGateway::nat&#45;gateway</title>
<polygon fill="#e5e5e5" stroke="#dddddd" points="474,-266 357,-266 357,-208 474,-208 474,-266"/>
<text text-anchor="start" x="369.5" y="-246.2" font-family="Helvetica,sans-Serif" font-weight="bold" font-size="16.00" fill="#707070">NatGateway</text>
<text text-anchor="start" x="369.5" y="-221.2" font-family="Helvetica,sans-Serif" font-size="16.00" fill="#383838">nat&#45;gateway</text>
</g>
<!-- NatGateway::nat&#45;gateway&#45;&gt;Subnet::subnet&#45;public&#45;a -->
<g id="edge9" class="edge">
<title>NatGateway::nat&#45;gateway&#45;&gt;Subnet::subnet&#45;public&#45;a</title>
<path fill="none" stroke="#707070" d="M474.15,-252.12C498.33,-258.73 526.65,-266.83 552,-275 560.89,-277.87 570.16,-281.02 579.34,-284.24"/>
<polygon fill="#707070" stroke="#707070" points="578.25,-287.57 588.85,-287.61 580.59,-280.97 578.25,-287.57"/>
</g>
<!-- NatGateway::nat&#45;gateway&#45;&gt;ElasticIpAddress::iep -->
<g id="edge10" class="edge">
<title>NatGateway::nat&#45;gateway&#45;&gt;ElasticIpAddress::iep</title>
<path fill="none" stroke="#707070" d="M474.13,-225.52C498.82,-219.42 527.54,-210.72 552,-199 565.79,-192.39 566.9,-186.89 580,-179 582.21,-177.67 584.48,-176.34 586.78,-175.02"/>
<polygon fill="#707070" stroke="#707070" points="588.75,-177.93 595.78,-170.01 585.34,-171.82 588.75,-177.93"/>
</g>
<!-- Subnet::subnet&#45;private&#45;a&#45;&gt;Vpc::vpc -->
<g id="edge11" class="edge">
<title>Subnet::subnet&#45;private&#45;a&#45;&gt;Vpc::vpc</title>
<path fill="none" stroke="#707070" d="M728.21,-401.21C739.17,-403.12 750.08,-405.01 759.85,-406.71"/>
<polygon fill="#707070" stroke="#707070" points="759.49,-410.2 769.94,-408.47 760.69,-403.31 759.49,-410.2"/>
</g>
<!-- RouteTable::route&#45;table&#45;private&#45;a -->
<g id="node20" class="node">
<title>RouteTable::route&#45;table&#45;private&#45;a</title>
<polygon fill="#e5e5e5" stroke="#dddddd" points="500.5,-190 330.5,-190 330.5,-132 500.5,-132 500.5,-190"/>
<text text-anchor="start" x="342.5" y="-170.2" font-family="Helvetica,sans-Serif" font-weight="bold" font-size="16.00" fill="#707070">RouteTable</text>
<text text-anchor="start" x="342.5" y="-145.2" font-family="Helvetica,sans-Serif" font-size="16.00" fill="#383838">route&#45;table&#45;private&#45;a</text>
</g>
<!-- RouteTable::route&#45;table&#45;private&#45;a&#45;&gt;Vpc::vpc -->
<g id="edge12" class="edge">
<title>RouteTable::route&#45;table&#45;private&#45;a&#45;&gt;Vpc::vpc</title>
<path fill="none" stroke="#707070" d="M462.93,-131.95C530.37,-93.86 655.89,-38.97 734,-103 775.3,-136.86 789.64,-298.37 794.14,-373.9"/>
<polygon fill="#707070" stroke="#707070" points="790.65,-374.17 794.71,-383.96 797.64,-373.78 790.65,-374.17"/>
</g>
<!-- RouteTable::route&#45;table&#45;private&#45;a&#45;&gt;Subnet::subnet&#45;private&#45;a -->
<g id="edge13" class="edge">
<title>RouteTable::route&#45;table&#45;private&#45;a&#45;&gt;Subnet::subnet&#45;private&#45;a</title>
<path fill="none" stroke="#707070" d="M500.83,-169.4C519.97,-175.1 538.58,-184.29 552,-199 598.31,-249.74 538.72,-296.09 580,-351 580.37,-351.5 580.76,-351.99 581.15,-352.47"/>
<polygon fill="#707070" stroke="#707070" points="578.69,-354.97 588.1,-359.82 583.77,-350.15 578.69,-354.97"/>
</g>
<!-- Route::route&#45;private&#45;a -->
<g id="node21" class="node">
<title>Route::route&#45;private&#45;a</title>
<polygon fill="#e5e5e5" stroke="#dddddd" points="202.5,-190 72.5,-190 72.5,-132 202.5,-132 202.5,-190"/>
<text text-anchor="start" x="84.5" y="-170.2" font-family="Helvetica,sans-Serif" font-weight="bold" font-size="16.00" fill="#707070">Route</text>
<text text-anchor="start" x="84.5" y="-145.2" font-family="Helvetica,sans-Serif" font-size="16.00" fill="#383838">route&#45;private&#45;a</text>
</g>
<!-- Route::route&#45;private&#45;a&#45;&gt;NatGateway::nat&#45;gateway -->
<g id="edge15" class="edge">
<title>Route::route&#45;private&#45;a&#45;&gt;NatGateway::nat&#45;gateway</title>
<path fill="none" stroke="#707070" d="M202.51,-178.63C245.89,-190.57 303.12,-206.33 347.18,-218.46"/>
<polygon fill="#707070" stroke="#707070" points="346.36,-221.87 356.94,-221.15 348.22,-215.12 346.36,-221.87"/>
</g>
<!-- Route::route&#45;private&#45;a&#45;&gt;RouteTable::route&#45;table&#45;private&#45;a -->
<g id="edge14" class="edge">
<title>Route::route&#45;private&#45;a&#45;&gt;RouteTable::route&#45;table&#45;private&#45;a</title>
<path fill="none" stroke="#707070" d="M202.51,-161C237.45,-161 281.37,-161 320.16,-161"/>
<polygon fill="#707070" stroke="#707070" points="320.43,-164.5 330.43,-161 320.43,-157.5 320.43,-164.5"/>
</g>
<!-- Subnet::subnet&#45;private&#45;b&#45;&gt;Vpc::vpc -->
<g id="edge16" class="edge">
<title>Subnet::subnet&#45;private&#45;b&#45;&gt;Vpc::vpc</title>
<path fill="none" stroke="#707070" d="M713.73,-455.92C729.69,-447.6 746.62,-438.76 760.96,-431.28"/>
<polygon fill="#707070" stroke="#707070" points="762.72,-434.31 769.96,-426.58 759.48,-428.11 762.72,-434.31"/>
</g>
<!-- RouteTable::route&#45;table&#45;private&#45;b -->
<g id="node23" class="node">
<title>RouteTable::route&#45;table&#45;private&#45;b</title>
<polygon fill="#e5e5e5" stroke="#dddddd" points="500.5,-453 330.5,-453 330.5,-395 500.5,-395 500.5,-453"/>
<text text-anchor="start" x="342.5" y="-433.2" font-family="Helvetica,sans-Serif" font-weight="bold" font-size="16.00" fill="#707070">RouteTable</text>
<text text-anchor="start" x="342.5" y="-408.2" font-family="Helvetica,sans-Serif" font-size="16.00" fill="#383838">route&#45;table&#45;private&#45;b</text>
</g>
<!-- RouteTable::route&#45;table&#45;private&#45;b&#45;&gt;Vpc::vpc -->
<g id="edge17" class="edge">
<title>RouteTable::route&#45;table&#45;private&#45;b&#45;&gt;Vpc::vpc</title>
<path fill="none" stroke="#707070" d="M500.67,-430.29C564.83,-433.75 655.25,-435.78 734,-427 742.5,-426.05 751.53,-424.4 760,-422.55"/>
<polygon fill="#707070" stroke="#707070" points="761.02,-425.9 769.97,-420.23 759.44,-419.08 761.02,-425.9"/>
</g>
<!-- RouteTable::route&#45;table&#45;private&#45;b&#45;&gt;Subnet::subnet&#45;private&#45;b -->
<g id="edge18" class="edge">
<title>RouteTable::route&#45;table&#45;private&#45;b&#45;&gt;Subnet::subnet&#45;private&#45;b</title>
<path fill="none" stroke="#707070" d="M500.6,-445.42C525.12,-451.67 551.84,-458.47 576.09,-464.65"/>
<polygon fill="#707070" stroke="#707070" points="575.41,-468.09 585.97,-467.16 577.14,-461.3 575.41,-468.09"/>
</g>
<!-- Route::route&#45;private&#45;b -->
<g id="node24" class="node">
<title>Route::route&#45;private&#45;b</title>
<polygon fill="#e5e5e5" stroke="#dddddd" points="202.5,-313 72.5,-313 72.5,-255 202.5,-255 202.5,-313"/>
<text text-anchor="start" x="84.5" y="-293.2" font-family="Helvetica,sans-Serif" font-weight="bold" font-size="16.00" fill="#707070">Route</text>
<text text-anchor="start" x="84.5" y="-268.2" font-family="Helvetica,sans-Serif" font-size="16.00" fill="#383838">route&#45;private&#45;b</text>
</g>
<!-- Route::route&#45;private&#45;b&#45;&gt;NatGateway::nat&#45;gateway -->
<g id="edge20" class="edge">
<title>Route::route&#45;private&#45;b&#45;&gt;NatGateway::nat&#45;gateway</title>
<path fill="none" stroke="#707070" d="M202.51,-273.1C245.8,-265.73 302.88,-256.01 346.9,-248.51"/>
<polygon fill="#707070" stroke="#707070" points="347.66,-251.93 356.94,-246.8 346.49,-245.03 347.66,-251.93"/>
</g>
<!-- Route::route&#45;private&#45;b&#45;&gt;RouteTable::route&#45;table&#45;private&#45;b -->
<g id="edge19" class="edge">
<title>Route::route&#45;private&#45;b&#45;&gt;RouteTable::route&#45;table&#45;private&#45;b</title>
<path fill="none" stroke="#707070" d="M195.69,-313.01C239.95,-335.46 301.33,-366.6 347.82,-390.18"/>
<polygon fill="#707070" stroke="#707070" points="346.41,-393.39 356.91,-394.79 349.58,-387.14 346.41,-393.39"/>
</g>
</g>
</svg>
