<?xml version="1.0" encoding="UTF-8" standalone="no"?>
<!DOCTYPE svg PUBLIC "-//W3C//DTD SVG 1.1//EN"
 "http://www.w3.org/Graphics/SVG/1.1/DTD/svg11.dtd">
<!-- Generated by graphviz version 2.44.1 (20200629.0846)
 -->
<!-- Title: graphname Pages: 1 -->
<svg width="313pt" height="3541pt"
 viewBox="0.00 0.00 313.00 3541.00" xmlns="http://www.w3.org/2000/svg" xmlns:xlink="http://www.w3.org/1999/xlink">
<g id="graph0" class="graph" transform="scale(1 1) rotate(0) translate(4 3537)">
<title>graphname</title>
<polygon fill="#fafafa" stroke="transparent" points="-4,4 -4,-3537 309,-3537 309,4 -4,4"/>
<text text-anchor="start" x="15.5" y="-3508.4" font-family="Helvetica,sans-Serif" font-weight="bold" font-size="22.00" fill="#383838">Project postgres&#45;stateless</text>
<text text-anchor="start" x="148.5" y="-3492.8" font-family="Helvetica,sans-Serif" font-size="14.00"> &#160;</text>
<text text-anchor="start" x="15.5" y="-3471.2" font-family="Helvetica,sans-Serif" font-weight="bold" font-size="16.00" fill="#707070">Live Diagram</text>
<g id="clust1" class="cluster">
<title>cluster_aws</title>
<polygon fill="#f5f5f5" stroke="#f5f5f5" points="8,-8 8,-3449 297,-3449 297,-8 8,-8"/>
<text text-anchor="start" x="90.5" y="-23" font-family="Helvetica,sans-Serif" font-weight="bold" font-size="20.00" fill="#707070">Provider aws</text>
</g>
<g id="clust2" class="cluster">
<title>cluster_aws_</title>
<polygon fill="#eeeeee" stroke="#eeeeee" points="16,-1154 16,-3441 289,-3441 289,-1154 16,-1154"/>
<text text-anchor="start" x="152.36" y="-1158.3" font-family="Helvetica,sans-Serif" font-size="1.00" fill="#383838"> </text>
</g>
<g id="clust3" class="cluster">
<title>cluster_aws_VPC</title>
<polygon fill="#eeeeee" stroke="#eeeeee" points="59.5,-54 59.5,-1146 245.5,-1146 245.5,-54 59.5,-54"/>
<text text-anchor="start" x="131.5" y="-65" font-family="Helvetica,sans-Serif" font-weight="bold" font-size="20.00" fill="#383838">VPC</text>
</g>
<!-- ElasticIpAddress::::eip&#45;bastion -->
<g id="node1" class="node">
<title>ElasticIpAddress::::eip&#45;bastion</title>
<polygon fill="#e5e5e5" stroke="#dddddd" points="229.5,-3433 75.5,-3433 75.5,-3375 229.5,-3375 229.5,-3433"/>
<text text-anchor="start" x="87.5" y="-3413.2" font-family="Helvetica,sans-Serif" font-weight="bold" font-size="16.00" fill="#707070">ElasticIpAddress</text>
<text text-anchor="start" x="87.5" y="-3388.2" font-family="Helvetica,sans-Serif" font-size="16.00" fill="#383838">eip&#45;bastion</text>
</g>
<!-- Image::::Amazon Linux 2 -->
<g id="node2" class="node">
<title>Image::::Amazon Linux 2</title>
<polygon fill="#e5e5e5" stroke="#dddddd" points="223,-3357 82,-3357 82,-3299 223,-3299 223,-3357"/>
<text text-anchor="start" x="94.5" y="-3337.2" font-family="Helvetica,sans-Serif" font-weight="bold" font-size="16.00" fill="#707070">Image</text>
<text text-anchor="start" x="94.5" y="-3312.2" font-family="Helvetica,sans-Serif" font-size="16.00" fill="#383838">Amazon Linux 2</text>
</g>
<!-- Instance::::bastion -->
<g id="node3" class="node">
<title>Instance::::bastion</title>
<polygon fill="#e5e5e5" stroke="#dddddd" points="197.5,-3281 107.5,-3281 107.5,-3223 197.5,-3223 197.5,-3281"/>
<text text-anchor="start" x="119.5" y="-3261.2" font-family="Helvetica,sans-Serif" font-weight="bold" font-size="16.00" fill="#707070">Instance</text>
<text text-anchor="start" x="119.5" y="-3236.2" font-family="Helvetica,sans-Serif" font-size="16.00" fill="#383838">bastion</text>
</g>
<!-- InternetGateway::::default -->
<g id="node4" class="node">
<title>InternetGateway::::default</title>
<polygon fill="#e5e5e5" stroke="#dddddd" points="227.5,-3205 77.5,-3205 77.5,-3147 227.5,-3147 227.5,-3205"/>
<text text-anchor="start" x="89.5" y="-3185.2" font-family="Helvetica,sans-Serif" font-weight="bold" font-size="16.00" fill="#707070">InternetGateway</text>
<text text-anchor="start" x="89.5" y="-3160.2" font-family="Helvetica,sans-Serif" font-size="16.00" fill="#383838">default</text>
</g>
<!-- KeyPair::::kp&#45;postgres&#45;stateless -->
<g id="node5" class="node">
<title>KeyPair::::kp&#45;postgres&#45;stateless</title>
<polygon fill="#e5e5e5" stroke="#dddddd" points="242,-3129 63,-3129 63,-3071 242,-3071 242,-3129"/>
<text text-anchor="start" x="75.5" y="-3109.2" font-family="Helvetica,sans-Serif" font-weight="bold" font-size="16.00" fill="#707070">KeyPair</text>
<text text-anchor="start" x="75.5" y="-3084.2" font-family="Helvetica,sans-Serif" font-size="16.00" fill="#383838">kp&#45;postgres&#45;stateless</text>
</g>
<!-- RouteTable::::rt&#45;default&#45;vpc -->
<g id="node6" class="node">
<title>RouteTable::::rt&#45;default&#45;vpc</title>
<polygon fill="#e5e5e5" stroke="#dddddd" points="212,-3053 93,-3053 93,-2995 212,-2995 212,-3053"/>
<text text-anchor="start" x="105.5" y="-3033.2" font-family="Helvetica,sans-Serif" font-weight="bold" font-size="16.00" fill="#707070">RouteTable</text>
<text text-anchor="start" x="105.5" y="-3008.2" font-family="Helvetica,sans-Serif" font-size="16.00" fill="#383838">rt&#45;default&#45;vpc</text>
</g>
<!-- RouteTable::::rt&#45;default&#45;vpc&#45;default -->
<g id="node7" class="node">
<title>RouteTable::::rt&#45;default&#45;vpc&#45;default</title>
<polygon fill="#e5e5e5" stroke="#dddddd" points="239,-2977 66,-2977 66,-2919 239,-2919 239,-2977"/>
<text text-anchor="start" x="78.5" y="-2957.2" font-family="Helvetica,sans-Serif" font-weight="bold" font-size="16.00" fill="#707070">RouteTable</text>
<text text-anchor="start" x="78.5" y="-2932.2" font-family="Helvetica,sans-Serif" font-size="16.00" fill="#383838">rt&#45;default&#45;vpc&#45;default</text>
</g>
<!-- SecurityGroupRuleIngress::::sg&#45;rule&#45;ingress&#45;postgres -->
<g id="node8" class="node">
<title>SecurityGroupRuleIngress::::sg&#45;rule&#45;ingress&#45;postgres</title>
<polygon fill="#e5e5e5" stroke="#dddddd" points="266,-2901 39,-2901 39,-2843 266,-2843 266,-2901"/>
<text text-anchor="start" x="51.5" y="-2881.2" font-family="Helvetica,sans-Serif" font-weight="bold" font-size="16.00" fill="#707070">SecurityGroupRuleIngress</text>
<text text-anchor="start" x="51.5" y="-2856.2" font-family="Helvetica,sans-Serif" font-size="16.00" fill="#383838">sg&#45;rule&#45;ingress&#45;postgres</text>
</g>
<!-- SecurityGroupRuleIngress::::sg&#45;rule&#45;ingress&#45;ssh&#45;bastion -->
<g id="node9" class="node">
<title>SecurityGroupRuleIngress::::sg&#45;rule&#45;ingress&#45;ssh&#45;bastion</title>
<polygon fill="#e5e5e5" stroke="#dddddd" points="266,-2825 39,-2825 39,-2767 266,-2767 266,-2825"/>
<text text-anchor="start" x="51.5" y="-2805.2" font-family="Helvetica,sans-Serif" font-weight="bold" font-size="16.00" fill="#707070">SecurityGroupRuleIngress</text>
<text text-anchor="start" x="51.5" y="-2780.2" font-family="Helvetica,sans-Serif" font-size="16.00" fill="#383838">sg&#45;rule&#45;ingress&#45;ssh&#45;bastion</text>
</g>
<!-- SecurityGroupRuleIngress::::sg&#45;rule&#45;ingress&#45;test -->
<g id="node10" class="node">
<title>SecurityGroupRuleIngress::::sg&#45;rule&#45;ingress&#45;test</title>
<polygon fill="#e5e5e5" stroke="#dddddd" points="266,-2749 39,-2749 39,-2691 266,-2691 266,-2749"/>
<text text-anchor="start" x="51.5" y="-2729.2" font-family="Helvetica,sans-Serif" font-weight="bold" font-size="16.00" fill="#707070">SecurityGroupRuleIngress</text>
<text text-anchor="start" x="51.5" y="-2704.2" font-family="Helvetica,sans-Serif" font-size="16.00" fill="#383838">sg&#45;rule&#45;ingress&#45;test</text>
</g>
<!-- SecurityGroupRuleIngress::::sgr&#45;0dd5c73b3560d3703 -->
<g id="node11" class="node">
<title>SecurityGroupRuleIngress::::sgr&#45;0dd5c73b3560d3703</title>
<polygon fill="#e5e5e5" stroke="#dddddd" points="266,-2673 39,-2673 39,-2615 266,-2615 266,-2673"/>
<text text-anchor="start" x="51.5" y="-2653.2" font-family="Helvetica,sans-Serif" font-weight="bold" font-size="16.00" fill="#707070">SecurityGroupRuleIngress</text>
<text text-anchor="start" x="51.5" y="-2628.2" font-family="Helvetica,sans-Serif" font-size="16.00" fill="#383838">sgr&#45;0dd5c73b3560d3703</text>
</g>
<!-- Subnet::::subnet&#45;default -->
<g id="node12" class="node">
<title>Subnet::::subnet&#45;default</title>
<polygon fill="#e5e5e5" stroke="#dddddd" points="216,-2597 89,-2597 89,-2539 216,-2539 216,-2597"/>
<text text-anchor="start" x="101.5" y="-2577.2" font-family="Helvetica,sans-Serif" font-weight="bold" font-size="16.00" fill="#707070">Subnet</text>
<text text-anchor="start" x="101.5" y="-2552.2" font-family="Helvetica,sans-Serif" font-size="16.00" fill="#383838">subnet&#45;default</text>
</g>
<!-- Volume::::vol&#45;0bc14a1c608126613 -->
<g id="node13" class="node">
<title>Volume::::vol&#45;0bc14a1c608126613</title>
<polygon fill="#e5e5e5" stroke="#dddddd" points="253.5,-2521 51.5,-2521 51.5,-2463 253.5,-2463 253.5,-2521"/>
<text text-anchor="start" x="63.5" y="-2501.2" font-family="Helvetica,sans-Serif" font-weight="bold" font-size="16.00" fill="#707070">Volume</text>
<text text-anchor="start" x="63.5" y="-2476.2" font-family="Helvetica,sans-Serif" font-size="16.00" fill="#383838">vol&#45;0bc14a1c608126613</text>
</g>
<!-- Vpc::::vpc&#45;default -->
<g id="node14" class="node">
<title>Vpc::::vpc&#45;default</title>
<polygon fill="#e5e5e5" stroke="#dddddd" points="204.5,-2445 100.5,-2445 100.5,-2387 204.5,-2387 204.5,-2445"/>
<text text-anchor="start" x="112.5" y="-2425.2" font-family="Helvetica,sans-Serif" font-weight="bold" font-size="16.00" fill="#707070">Vpc</text>
<text text-anchor="start" x="112.5" y="-2400.2" font-family="Helvetica,sans-Serif" font-size="16.00" fill="#383838">vpc&#45;default</text>
</g>
<!-- Key::::alias/aws/acm -->
<g id="node15" class="node">
<title>Key::::alias/aws/acm</title>
<polygon fill="#e5e5e5" stroke="#dddddd" points="216,-2369 89,-2369 89,-2311 216,-2311 216,-2369"/>
<text text-anchor="start" x="101.5" y="-2349.2" font-family="Helvetica,sans-Serif" font-weight="bold" font-size="16.00" fill="#707070">Key</text>
<text text-anchor="start" x="101.5" y="-2324.2" font-family="Helvetica,sans-Serif" font-size="16.00" fill="#383838">alias/aws/acm</text>
</g>
<!-- Key::::alias/aws/dynamodb -->
<g id="node16" class="node">
<title>Key::::alias/aws/dynamodb</title>
<polygon fill="#e5e5e5" stroke="#dddddd" points="238.5,-2293 66.5,-2293 66.5,-2235 238.5,-2235 238.5,-2293"/>
<text text-anchor="start" x="78.5" y="-2273.2" font-family="Helvetica,sans-Serif" font-weight="bold" font-size="16.00" fill="#707070">Key</text>
<text text-anchor="start" x="78.5" y="-2248.2" font-family="Helvetica,sans-Serif" font-size="16.00" fill="#383838">alias/aws/dynamodb</text>
</g>
<!-- Key::::alias/aws/ebs -->
<g id="node17" class="node">
<title>Key::::alias/aws/ebs</title>
<polygon fill="#e5e5e5" stroke="#dddddd" points="213.5,-2217 91.5,-2217 91.5,-2159 213.5,-2159 213.5,-2217"/>
<text text-anchor="start" x="103.5" y="-2197.2" font-family="Helvetica,sans-Serif" font-weight="bold" font-size="16.00" fill="#707070">Key</text>
<text text-anchor="start" x="103.5" y="-2172.2" font-family="Helvetica,sans-Serif" font-size="16.00" fill="#383838">alias/aws/ebs</text>
</g>
<!-- Key::::alias/aws/rds -->
<g id="node18" class="node">
<title>Key::::alias/aws/rds</title>
<polygon fill="#e5e5e5" stroke="#dddddd" points="211.5,-2141 93.5,-2141 93.5,-2083 211.5,-2083 211.5,-2141"/>
<text text-anchor="start" x="105.5" y="-2121.2" font-family="Helvetica,sans-Serif" font-weight="bold" font-size="16.00" fill="#707070">Key</text>
<text text-anchor="start" x="105.5" y="-2096.2" font-family="Helvetica,sans-Serif" font-size="16.00" fill="#383838">alias/aws/rds</text>
</g>
<!-- Key::::eks&#45;key -->
<g id="node19" class="node">
<title>Key::::eks&#45;key</title>
<polygon fill="#e5e5e5" stroke="#dddddd" points="193,-2065 112,-2065 112,-2007 193,-2007 193,-2065"/>
<text text-anchor="start" x="124.5" y="-2045.2" font-family="Helvetica,sans-Serif" font-weight="bold" font-size="16.00" fill="#707070">Key</text>
<text text-anchor="start" x="124.5" y="-2020.2" font-family="Helvetica,sans-Serif" font-size="16.00" fill="#383838">eks&#45;key</text>
</g>
<!-- Key::::secret&#45;key&#45;test -->
<g id="node20" class="node">
<title>Key::::secret&#45;key&#45;test</title>
<polygon fill="#e5e5e5" stroke="#dddddd" points="218,-1989 87,-1989 87,-1931 218,-1931 218,-1989"/>
<text text-anchor="start" x="99.5" y="-1969.2" font-family="Helvetica,sans-Serif" font-weight="bold" font-size="16.00" fill="#707070">Key</text>
<text text-anchor="start" x="99.5" y="-1944.2" font-family="Helvetica,sans-Serif" font-size="16.00" fill="#383838">secret&#45;key&#45;test</text>
</g>
<!-- DBCluster::::cluster&#45;postgres&#45;stateless -->
<g id="node21" class="node">
<title>DBCluster::::cluster&#45;postgres&#45;stateless</title>
<polygon fill="#e5e5e5" stroke="#dddddd" points="257.5,-1913 47.5,-1913 47.5,-1855 257.5,-1855 257.5,-1913"/>
<text text-anchor="start" x="59.5" y="-1893.2" font-family="Helvetica,sans-Serif" font-weight="bold" font-size="16.00" fill="#707070">DBCluster</text>
<text text-anchor="start" x="59.5" y="-1868.2" font-family="Helvetica,sans-Serif" font-size="16.00" fill="#383838">cluster&#45;postgres&#45;stateless</text>
</g>
<!-- DBSubnetGroup::::subnet&#45;group&#45;postgres&#45;stateless -->
<g id="node22" class="node">
<title>DBSubnetGroup::::subnet&#45;group&#45;postgres&#45;stateless</title>
<polygon fill="#e5e5e5" stroke="#dddddd" points="281,-1837 24,-1837 24,-1779 281,-1779 281,-1837"/>
<text text-anchor="start" x="36.5" y="-1817.2" font-family="Helvetica,sans-Serif" font-weight="bold" font-size="16.00" fill="#707070">DBSubnetGroup</text>
<text text-anchor="start" x="36.5" y="-1792.2" font-family="Helvetica,sans-Serif" font-size="16.00" fill="#383838">subnet&#45;group&#45;postgres&#45;stateless</text>
</g>
<!-- ElasticIpAddress::VPC::iep -->
<g id="node23" class="node">
<title>ElasticIpAddress::VPC::iep</title>
<polygon fill="#e5e5e5" stroke="#dddddd" points="229.5,-1138 75.5,-1138 75.5,-1080 229.5,-1080 229.5,-1138"/>
<text text-anchor="start" x="87.5" y="-1118.2" font-family="Helvetica,sans-Serif" font-weight="bold" font-size="16.00" fill="#707070">ElasticIpAddress</text>
<text text-anchor="start" x="87.5" y="-1093.2" font-family="Helvetica,sans-Serif" font-size="16.00" fill="#383838">iep</text>
</g>
<!-- InternetGateway::VPC::internet&#45;gateway -->
<g id="node24" class="node">
<title>InternetGateway::VPC::internet&#45;gateway</title>
<polygon fill="#e5e5e5" stroke="#dddddd" points="227.5,-1062 77.5,-1062 77.5,-1004 227.5,-1004 227.5,-1062"/>
<text text-anchor="start" x="89.5" y="-1042.2" font-family="Helvetica,sans-Serif" font-weight="bold" font-size="16.00" fill="#707070">InternetGateway</text>
<text text-anchor="start" x="89.5" y="-1017.2" font-family="Helvetica,sans-Serif" font-size="16.00" fill="#383838">internet&#45;gateway</text>
</g>
<!-- NatGateway::VPC::nat&#45;gateway -->
<g id="node25" class="node">
<title>NatGateway::VPC::nat&#45;gateway</title>
<polygon fill="#e5e5e5" stroke="#dddddd" points="211,-986 94,-986 94,-928 211,-928 211,-986"/>
<text text-anchor="start" x="106.5" y="-966.2" font-family="Helvetica,sans-Serif" font-weight="bold" font-size="16.00" fill="#707070">NatGateway</text>
<text text-anchor="start" x="106.5" y="-941.2" font-family="Helvetica,sans-Serif" font-size="16.00" fill="#383838">nat&#45;gateway</text>
</g>
<!-- Route::VPC::route&#45;private&#45;a -->
<g id="node26" class="node">
<title>Route::VPC::route&#45;private&#45;a</title>
<polygon fill="#e5e5e5" stroke="#dddddd" points="217.5,-910 87.5,-910 87.5,-852 217.5,-852 217.5,-910"/>
<text text-anchor="start" x="99.5" y="-890.2" font-family="Helvetica,sans-Serif" font-weight="bold" font-size="16.00" fill="#707070">Route</text>
<text text-anchor="start" x="99.5" y="-865.2" font-family="Helvetica,sans-Serif" font-size="16.00" fill="#383838">route&#45;private&#45;a</text>
</g>
<!-- Route::VPC::route&#45;private&#45;b -->
<g id="node27" class="node">
<title>Route::VPC::route&#45;private&#45;b</title>
<polygon fill="#e5e5e5" stroke="#dddddd" points="217.5,-834 87.5,-834 87.5,-776 217.5,-776 217.5,-834"/>
<text text-anchor="start" x="99.5" y="-814.2" font-family="Helvetica,sans-Serif" font-weight="bold" font-size="16.00" fill="#707070">Route</text>
<text text-anchor="start" x="99.5" y="-789.2" font-family="Helvetica,sans-Serif" font-size="16.00" fill="#383838">route&#45;private&#45;b</text>
</g>
<!-- Route::VPC::route&#45;public -->
<g id="node28" class="node">
<title>Route::VPC::route&#45;public</title>
<polygon fill="#e5e5e5" stroke="#dddddd" points="207,-758 98,-758 98,-700 207,-700 207,-758"/>
<text text-anchor="start" x="110.5" y="-738.2" font-family="Helvetica,sans-Serif" font-weight="bold" font-size="16.00" fill="#707070">Route</text>
<text text-anchor="start" x="110.5" y="-713.2" font-family="Helvetica,sans-Serif" font-size="16.00" fill="#383838">route&#45;public</text>
</g>
<!-- RouteTable::VPC::route&#45;table&#45;private&#45;a -->
<g id="node29" class="node">
<title>RouteTable::VPC::route&#45;table&#45;private&#45;a</title>
<polygon fill="#e5e5e5" stroke="#dddddd" points="237.5,-682 67.5,-682 67.5,-624 237.5,-624 237.5,-682"/>
<text text-anchor="start" x="79.5" y="-662.2" font-family="Helvetica,sans-Serif" font-weight="bold" font-size="16.00" fill="#707070">RouteTable</text>
<text text-anchor="start" x="79.5" y="-637.2" font-family="Helvetica,sans-Serif" font-size="16.00" fill="#383838">route&#45;table&#45;private&#45;a</text>
</g>
<!-- RouteTable::VPC::route&#45;table&#45;private&#45;b -->
<g id="node30" class="node">
<title>RouteTable::VPC::route&#45;table&#45;private&#45;b</title>
<polygon fill="#e5e5e5" stroke="#dddddd" points="237.5,-606 67.5,-606 67.5,-548 237.5,-548 237.5,-606"/>
<text text-anchor="start" x="79.5" y="-586.2" font-family="Helvetica,sans-Serif" font-weight="bold" font-size="16.00" fill="#707070">RouteTable</text>
<text text-anchor="start" x="79.5" y="-561.2" font-family="Helvetica,sans-Serif" font-size="16.00" fill="#383838">route&#45;table&#45;private&#45;b</text>
</g>
<!-- RouteTable::VPC::route&#45;table&#45;public -->
<g id="node31" class="node">
<title>RouteTable::VPC::route&#45;table&#45;public</title>
<polygon fill="#e5e5e5" stroke="#dddddd" points="227.5,-530 77.5,-530 77.5,-472 227.5,-472 227.5,-530"/>
<text text-anchor="start" x="89.5" y="-510.2" font-family="Helvetica,sans-Serif" font-weight="bold" font-size="16.00" fill="#707070">RouteTable</text>
<text text-anchor="start" x="89.5" y="-485.2" font-family="Helvetica,sans-Serif" font-size="16.00" fill="#383838">route&#45;table&#45;public</text>
</g>
<!-- Subnet::VPC::subnet&#45;private&#45;a -->
<g id="node32" class="node">
<title>Subnet::VPC::subnet&#45;private&#45;a</title>
<polygon fill="#e5e5e5" stroke="#dddddd" points="223.5,-454 81.5,-454 81.5,-396 223.5,-396 223.5,-454"/>
<text text-anchor="start" x="93.5" y="-434.2" font-family="Helvetica,sans-Serif" font-weight="bold" font-size="16.00" fill="#707070">Subnet</text>
<text text-anchor="start" x="93.5" y="-409.2" font-family="Helvetica,sans-Serif" font-size="16.00" fill="#383838">subnet&#45;private&#45;a</text>
</g>
<!-- Subnet::VPC::subnet&#45;private&#45;b -->
<g id="node33" class="node">
<title>Subnet::VPC::subnet&#45;private&#45;b</title>
<polygon fill="#e5e5e5" stroke="#dddddd" points="223.5,-378 81.5,-378 81.5,-320 223.5,-320 223.5,-378"/>
<text text-anchor="start" x="93.5" y="-358.2" font-family="Helvetica,sans-Serif" font-weight="bold" font-size="16.00" fill="#707070">Subnet</text>
<text text-anchor="start" x="93.5" y="-333.2" font-family="Helvetica,sans-Serif" font-size="16.00" fill="#383838">subnet&#45;private&#45;b</text>
</g>
<!-- Subnet::VPC::subnet&#45;public&#45;a -->
<g id="node34" class="node">
<title>Subnet::VPC::subnet&#45;public&#45;a</title>
<polygon fill="#e5e5e5" stroke="#dddddd" points="220.5,-302 84.5,-302 84.5,-244 220.5,-244 220.5,-302"/>
<text text-anchor="start" x="96.5" y="-282.2" font-family="Helvetica,sans-Serif" font-weight="bold" font-size="16.00" fill="#707070">Subnet</text>
<text text-anchor="start" x="96.5" y="-257.2" font-family="Helvetica,sans-Serif" font-size="16.00" fill="#383838">subnet&#45;public&#45;a</text>
</g>
<!-- Subnet::VPC::subnet&#45;public&#45;b -->
<g id="node35" class="node">
<title>Subnet::VPC::subnet&#45;public&#45;b</title>
<polygon fill="#e5e5e5" stroke="#dddddd" points="220.5,-226 84.5,-226 84.5,-168 220.5,-168 220.5,-226"/>
<text text-anchor="start" x="96.5" y="-206.2" font-family="Helvetica,sans-Serif" font-weight="bold" font-size="16.00" fill="#707070">Subnet</text>
<text text-anchor="start" x="96.5" y="-181.2" font-family="Helvetica,sans-Serif" font-size="16.00" fill="#383838">subnet&#45;public&#45;b</text>
</g>
<!-- Vpc::VPC::vpc -->
<g id="node36" class="node">
<title>Vpc::VPC::vpc</title>
<polygon fill="#e5e5e5" stroke="#dddddd" points="179.5,-150 125.5,-150 125.5,-92 179.5,-92 179.5,-150"/>
<text text-anchor="start" x="137.5" y="-130.2" font-family="Helvetica,sans-Serif" font-weight="bold" font-size="16.00" fill="#707070">Vpc</text>
<text text-anchor="start" x="137.5" y="-105.2" font-family="Helvetica,sans-Serif" font-size="16.00" fill="#383838">vpc</text>
</g>
<!-- NetworkInterface::::eni&#45;0802d6171641f2125 -->
<g id="node37" class="node">
<title>NetworkInterface::::eni&#45;0802d6171641f2125</title>
<polygon fill="#e5e5e5" stroke="#dddddd" points="252.5,-1761 52.5,-1761 52.5,-1703 252.5,-1703 252.5,-1761"/>
<text text-anchor="start" x="64.5" y="-1741.2" font-family="Helvetica,sans-Serif" font-weight="bold" font-size="16.00" fill="#707070">NetworkInterface</text>
<text text-anchor="start" x="64.5" y="-1716.2" font-family="Helvetica,sans-Serif" font-size="16.00" fill="#383838">eni&#45;0802d6171641f2125</text>
</g>
<!-- NetworkInterface::::eni&#45;0bed1e23f955ee7f8 -->
<g id="node38" class="node">
<title>NetworkInterface::::eni&#45;0bed1e23f955ee7f8</title>
<polygon fill="#e5e5e5" stroke="#dddddd" points="250.5,-1685 54.5,-1685 54.5,-1627 250.5,-1627 250.5,-1685"/>
<text text-anchor="start" x="66.5" y="-1665.2" font-family="Helvetica,sans-Serif" font-weight="bold" font-size="16.00" fill="#707070">NetworkInterface</text>
<text text-anchor="start" x="66.5" y="-1640.2" font-family="Helvetica,sans-Serif" font-size="16.00" fill="#383838">eni&#45;0bed1e23f955ee7f8</text>
</g>
<!-- NetworkInterface::::eni&#45;0d599a890908c0a93 -->
<g id="node39" class="node">
<title>NetworkInterface::::eni&#45;0d599a890908c0a93</title>
<polygon fill="#e5e5e5" stroke="#dddddd" points="254.5,-1609 50.5,-1609 50.5,-1551 254.5,-1551 254.5,-1609"/>
<text text-anchor="start" x="62.5" y="-1589.2" font-family="Helvetica,sans-Serif" font-weight="bold" font-size="16.00" fill="#707070">NetworkInterface</text>
<text text-anchor="start" x="62.5" y="-1564.2" font-family="Helvetica,sans-Serif" font-size="16.00" fill="#383838">eni&#45;0d599a890908c0a93</text>
</g>
<!-- NetworkInterface::::eni&#45;0d76d20afeec9df41 -->
<g id="node40" class="node">
<title>NetworkInterface::::eni&#45;0d76d20afeec9df41</title>
<polygon fill="#e5e5e5" stroke="#dddddd" points="250,-1533 55,-1533 55,-1475 250,-1475 250,-1533"/>
<text text-anchor="start" x="67.5" y="-1513.2" font-family="Helvetica,sans-Serif" font-weight="bold" font-size="16.00" fill="#707070">NetworkInterface</text>
<text text-anchor="start" x="67.5" y="-1488.2" font-family="Helvetica,sans-Serif" font-size="16.00" fill="#383838">eni&#45;0d76d20afeec9df41</text>
</g>
<!-- SecurityGroup::::security&#45;group&#45;postgres -->
<g id="node41" class="node">
<title>SecurityGroup::::security&#45;group&#45;postgres</title>
<polygon fill="#e5e5e5" stroke="#dddddd" points="250,-1457 55,-1457 55,-1399 250,-1399 250,-1457"/>
<text text-anchor="start" x="67.5" y="-1437.2" font-family="Helvetica,sans-Serif" font-weight="bold" font-size="16.00" fill="#707070">SecurityGroup</text>
<text text-anchor="start" x="67.5" y="-1412.2" font-family="Helvetica,sans-Serif" font-size="16.00" fill="#383838">security&#45;group&#45;postgres</text>
</g>
<!-- SecurityGroup::::security&#45;group&#45;public -->
<g id="node42" class="node">
<title>SecurityGroup::::security&#45;group&#45;public</title>
<polygon fill="#e5e5e5" stroke="#dddddd" points="240,-1381 65,-1381 65,-1323 240,-1323 240,-1381"/>
<text text-anchor="start" x="77.5" y="-1361.2" font-family="Helvetica,sans-Serif" font-weight="bold" font-size="16.00" fill="#707070">SecurityGroup</text>
<text text-anchor="start" x="77.5" y="-1336.2" font-family="Helvetica,sans-Serif" font-size="16.00" fill="#383838">security&#45;group&#45;public</text>
</g>
<!-- SecurityGroup::::sg&#45;default&#45;vpc -->
<g id="node43" class="node">
<title>SecurityGroup::::sg&#45;default&#45;vpc</title>
<polygon fill="#e5e5e5" stroke="#dddddd" points="220.5,-1305 84.5,-1305 84.5,-1247 220.5,-1247 220.5,-1305"/>
<text text-anchor="start" x="96.5" y="-1285.2" font-family="Helvetica,sans-Serif" font-weight="bold" font-size="16.00" fill="#707070">SecurityGroup</text>
<text text-anchor="start" x="96.5" y="-1260.2" font-family="Helvetica,sans-Serif" font-size="16.00" fill="#383838">sg&#45;default&#45;vpc</text>
</g>
<!-- SecurityGroup::::sg&#45;default&#45;vpc&#45;default -->
<g id="node44" class="node">
<title>SecurityGroup::::sg&#45;default&#45;vpc&#45;default</title>
<polygon fill="#e5e5e5" stroke="#dddddd" points="243,-1229 62,-1229 62,-1171 243,-1171 243,-1229"/>
<text text-anchor="start" x="74.5" y="-1209.2" font-family="Helvetica,sans-Serif" font-weight="bold" font-size="16.00" fill="#707070">SecurityGroup</text>
<text text-anchor="start" x="74.5" y="-1184.2" font-family="Helvetica,sans-Serif" font-size="16.00" fill="#383838">sg&#45;default&#45;vpc&#45;default</text>
</g>
</g>
</svg>
