<?xml version="1.0" encoding="UTF-8" standalone="no"?>
<!DOCTYPE svg PUBLIC "-//W3C//DTD SVG 1.1//EN"
 "http://www.w3.org/Graphics/SVG/1.1/DTD/svg11.dtd">
<!-- Generated by graphviz version 3.0.0 (20220226.1711)
 -->
<!-- Title: graphname Pages: 1 -->
<svg width="1065pt" height="1149pt"
 viewBox="0.00 0.00 1065.00 1149.00" xmlns="http://www.w3.org/2000/svg" xmlns:xlink="http://www.w3.org/1999/xlink">
<g id="graph0" class="graph" transform="scale(1 1) rotate(0) translate(4 1145)">
<title>graphname</title>
<polygon fill="#fafafa" stroke="transparent" points="-4,4 -4,-1145 1061,-1145 1061,4 -4,4"/>
<text text-anchor="start" x="364.5" y="-1116.4" font-family="Helvetica,sans-Serif" font-weight="bold" font-size="22.00" fill="#383838">Project RDS Postgres Stateless</text>
<text text-anchor="start" x="525" y="-1100.8" font-family="Helvetica,sans-Serif" font-size="14.00"> &#160;</text>
<text text-anchor="start" x="364.5" y="-1079.2" font-family="Helvetica,sans-Serif" font-weight="bold" font-size="16.00" fill="#707070">Target Diagram</text>
<g id="clust1" class="cluster">
<title>cluster_aws</title>
<polygon fill="#f5f5f5" stroke="#f5f5f5" points="8,-8 8,-1057 1049,-1057 1049,-8 8,-8"/>
<text text-anchor="start" x="466.5" y="-23" font-family="Helvetica,sans-Serif" font-weight="bold" font-size="20.00" fill="#707070">Provider aws</text>
</g>
<g id="clust2" class="cluster">
<title>cluster_aws_</title>
<polygon fill="#eeeeee" stroke="#eeeeee" points="16,-54 16,-1049 1041,-1049 1041,-54 16,-54"/>
<text text-anchor="start" x="528.36" y="-58.3" font-family="Helvetica,sans-Serif" font-size="1.00" fill="#383838"> </text>
</g>
<!-- LogGroup::/aws/rds/cluster/cluster&#45;postgres&#45;stateless/postgresql -->
<g id="node1" class="node">
<title>LogGroup::/aws/rds/cluster/cluster&#45;postgres&#45;stateless/postgresql</title>
<polygon fill="#e5e5e5" stroke="#dddddd" points="289,-1022 27,-1022 27,-964 289,-964 289,-1022"/>
<text text-anchor="start" x="39" y="-1002.2" font-family="Helvetica,sans-Serif" font-weight="bold" font-size="16.00" fill="#707070">CloudWatchLogs::LogGroup</text>
<text text-anchor="start" x="39" y="-977.2" font-family="Helvetica,sans-Serif" font-size="16.00" fill="#383838">/aws/rds/cluster/cluster&#45;postgre...</text>
</g>
<!-- KeyPair::kp&#45;postgres&#45;stateless -->
<g id="node2" class="node">
<title>KeyPair::kp&#45;postgres&#45;stateless</title>
<polygon fill="#e5e5e5" stroke="#dddddd" points="857,-357 678,-357 678,-299 857,-299 857,-357"/>
<text text-anchor="start" x="690.5" y="-337.2" font-family="Helvetica,sans-Serif" font-weight="bold" font-size="16.00" fill="#707070">EC2::KeyPair</text>
<text text-anchor="start" x="690.5" y="-312.2" font-family="Helvetica,sans-Serif" font-size="16.00" fill="#383838">kp&#45;postgres&#45;stateless</text>
</g>
<!-- Vpc::vpc -->
<g id="node3" class="node">
<title>Vpc::vpc</title>
<polygon fill="#e5e5e5" stroke="#dddddd" points="1033,-699 938,-699 938,-641 1033,-641 1033,-699"/>
<text text-anchor="start" x="950.5" y="-679.2" font-family="Helvetica,sans-Serif" font-weight="bold" font-size="16.00" fill="#707070">EC2::Vpc</text>
<text text-anchor="start" x="950.5" y="-654.2" font-family="Helvetica,sans-Serif" font-size="16.00" fill="#383838">vpc</text>
</g>
<!-- InternetGateway::internet&#45;gateway -->
<g id="node4" class="node">
<title>InternetGateway::internet&#45;gateway</title>
<polygon fill="#e5e5e5" stroke="#dddddd" points="863,-661 672,-661 672,-603 863,-603 863,-661"/>
<text text-anchor="start" x="684.5" y="-641.2" font-family="Helvetica,sans-Serif" font-weight="bold" font-size="16.00" fill="#707070">EC2::InternetGateway</text>
<text text-anchor="start" x="684.5" y="-616.2" font-family="Helvetica,sans-Serif" font-size="16.00" fill="#383838">internet&#45;gateway</text>
</g>
<!-- InternetGateway::internet&#45;gateway&#45;&gt;Vpc::vpc -->
<g id="edge1" class="edge">
<title>InternetGateway::internet&#45;gateway&#45;&gt;Vpc::vpc</title>
<path fill="none" stroke="#707070" d="M863.24,-648.67C885.25,-652.54 908,-656.54 927.77,-660.02"/>
<polygon fill="#707070" stroke="#707070" points="927.36,-663.5 937.82,-661.79 928.58,-656.61 927.36,-663.5"/>
</g>
<!-- NatGateway::nat&#45;gateway -->
<g id="node5" class="node">
<title>NatGateway::nat&#45;gateway</title>
<polygon fill="#e5e5e5" stroke="#dddddd" points="541.5,-509 383.5,-509 383.5,-451 541.5,-451 541.5,-509"/>
<text text-anchor="start" x="395.5" y="-489.2" font-family="Helvetica,sans-Serif" font-weight="bold" font-size="16.00" fill="#707070">EC2::NatGateway</text>
<text text-anchor="start" x="395.5" y="-464.2" font-family="Helvetica,sans-Serif" font-size="16.00" fill="#383838">nat&#45;gateway</text>
</g>
<!-- Subnet::subnet&#45;public&#45;a -->
<g id="node8" class="node">
<title>Subnet::subnet&#45;public&#45;a</title>
<polygon fill="#e5e5e5" stroke="#dddddd" points="835.5,-509 699.5,-509 699.5,-451 835.5,-451 835.5,-509"/>
<text text-anchor="start" x="711.5" y="-489.2" font-family="Helvetica,sans-Serif" font-weight="bold" font-size="16.00" fill="#707070">EC2::Subnet</text>
<text text-anchor="start" x="711.5" y="-464.2" font-family="Helvetica,sans-Serif" font-size="16.00" fill="#383838">subnet&#45;public&#45;a</text>
</g>
<!-- NatGateway::nat&#45;gateway&#45;&gt;Subnet::subnet&#45;public&#45;a -->
<g id="edge2" class="edge">
<title>NatGateway::nat&#45;gateway&#45;&gt;Subnet::subnet&#45;public&#45;a</title>
<path fill="none" stroke="#707070" d="M541.53,-480C586.93,-480 643.94,-480 689.22,-480"/>
<polygon fill="#707070" stroke="#707070" points="689.28,-483.5 699.28,-480 689.28,-476.5 689.28,-483.5"/>
</g>
<!-- ElasticIpAddress::iep -->
<g id="node25" class="node">
<title>ElasticIpAddress::iep</title>
<polygon fill="#e5e5e5" stroke="#dddddd" points="865.5,-433 669.5,-433 669.5,-375 865.5,-375 865.5,-433"/>
<text text-anchor="start" x="681.5" y="-413.2" font-family="Helvetica,sans-Serif" font-weight="bold" font-size="16.00" fill="#707070">EC2::ElasticIpAddress</text>
<text text-anchor="start" x="681.5" y="-388.2" font-family="Helvetica,sans-Serif" font-size="16.00" fill="#383838">iep</text>
</g>
<!-- NatGateway::nat&#45;gateway&#45;&gt;ElasticIpAddress::iep -->
<g id="edge3" class="edge">
<title>NatGateway::nat&#45;gateway&#45;&gt;ElasticIpAddress::iep</title>
<path fill="none" stroke="#707070" d="M541.53,-460.43C577.5,-451.41 620.75,-440.56 659.68,-430.79"/>
<polygon fill="#707070" stroke="#707070" points="660.63,-434.16 669.48,-428.33 658.93,-427.37 660.63,-434.16"/>
</g>
<!-- Subnet::subnet&#45;private&#45;a -->
<g id="node6" class="node">
<title>Subnet::subnet&#45;private&#45;a</title>
<polygon fill="#e5e5e5" stroke="#dddddd" points="838.5,-889 696.5,-889 696.5,-831 838.5,-831 838.5,-889"/>
<text text-anchor="start" x="708.5" y="-869.2" font-family="Helvetica,sans-Serif" font-weight="bold" font-size="16.00" fill="#707070">EC2::Subnet</text>
<text text-anchor="start" x="708.5" y="-844.2" font-family="Helvetica,sans-Serif" font-size="16.00" fill="#383838">subnet&#45;private&#45;a</text>
</g>
<!-- Subnet::subnet&#45;private&#45;a&#45;&gt;Vpc::vpc -->
<g id="edge4" class="edge">
<title>Subnet::subnet&#45;private&#45;a&#45;&gt;Vpc::vpc</title>
<path fill="none" stroke="#707070" d="M838.6,-850.97C860.66,-845.42 883.95,-836.46 902,-822 938.26,-792.95 960.82,-743.49 973,-708.91"/>
<polygon fill="#707070" stroke="#707070" points="976.42,-709.73 976.31,-699.13 969.79,-707.48 976.42,-709.73"/>
</g>
<!-- Subnet::subnet&#45;private&#45;b -->
<g id="node7" class="node">
<title>Subnet::subnet&#45;private&#45;b</title>
<polygon fill="#e5e5e5" stroke="#dddddd" points="838.5,-965 696.5,-965 696.5,-907 838.5,-907 838.5,-965"/>
<text text-anchor="start" x="708.5" y="-945.2" font-family="Helvetica,sans-Serif" font-weight="bold" font-size="16.00" fill="#707070">EC2::Subnet</text>
<text text-anchor="start" x="708.5" y="-920.2" font-family="Helvetica,sans-Serif" font-size="16.00" fill="#383838">subnet&#45;private&#45;b</text>
</g>
<!-- Subnet::subnet&#45;private&#45;b&#45;&gt;Vpc::vpc -->
<g id="edge5" class="edge">
<title>Subnet::subnet&#45;private&#45;b&#45;&gt;Vpc::vpc</title>
<path fill="none" stroke="#707070" d="M838.55,-928.85C861.12,-923.45 884.73,-914.11 902,-898 955.75,-847.88 974.56,-760.08 981.08,-709.31"/>
<polygon fill="#707070" stroke="#707070" points="984.6,-709.4 982.3,-699.06 977.65,-708.58 984.6,-709.4"/>
</g>
<!-- Subnet::subnet&#45;public&#45;a&#45;&gt;Vpc::vpc -->
<g id="edge6" class="edge">
<title>Subnet::subnet&#45;public&#45;a&#45;&gt;Vpc::vpc</title>
<path fill="none" stroke="#707070" d="M835.51,-488.27C858.46,-493.75 883.1,-502.86 902,-518 938.26,-547.05 960.82,-596.51 973,-631.09"/>
<polygon fill="#707070" stroke="#707070" points="969.79,-632.52 976.31,-640.87 976.42,-630.27 969.79,-632.52"/>
</g>
<!-- Subnet::subnet&#45;public&#45;b -->
<g id="node9" class="node">
<title>Subnet::subnet&#45;public&#45;b</title>
<polygon fill="#e5e5e5" stroke="#dddddd" points="835.5,-737 699.5,-737 699.5,-679 835.5,-679 835.5,-737"/>
<text text-anchor="start" x="711.5" y="-717.2" font-family="Helvetica,sans-Serif" font-weight="bold" font-size="16.00" fill="#707070">EC2::Subnet</text>
<text text-anchor="start" x="711.5" y="-692.2" font-family="Helvetica,sans-Serif" font-size="16.00" fill="#383838">subnet&#45;public&#45;b</text>
</g>
<!-- Subnet::subnet&#45;public&#45;b&#45;&gt;Vpc::vpc -->
<g id="edge7" class="edge">
<title>Subnet::subnet&#45;public&#45;b&#45;&gt;Vpc::vpc</title>
<path fill="none" stroke="#707070" d="M835.66,-696.18C865.22,-690.98 899.57,-684.94 927.81,-679.97"/>
<polygon fill="#707070" stroke="#707070" points="928.68,-683.37 937.92,-678.19 927.47,-676.48 928.68,-683.37"/>
</g>
<!-- RouteTable::route&#45;table&#45;private&#45;a -->
<g id="node10" class="node">
<title>RouteTable::route&#45;table&#45;private&#45;a</title>
<polygon fill="#e5e5e5" stroke="#dddddd" points="852.5,-813 682.5,-813 682.5,-755 852.5,-755 852.5,-813"/>
<text text-anchor="start" x="694.5" y="-793.2" font-family="Helvetica,sans-Serif" font-weight="bold" font-size="16.00" fill="#707070">EC2::RouteTable</text>
<text text-anchor="start" x="694.5" y="-768.2" font-family="Helvetica,sans-Serif" font-size="16.00" fill="#383838">route&#45;table&#45;private&#45;a</text>
</g>
<!-- RouteTable::route&#45;table&#45;private&#45;a&#45;&gt;Vpc::vpc -->
<g id="edge8" class="edge">
<title>RouteTable::route&#45;table&#45;private&#45;a&#45;&gt;Vpc::vpc</title>
<path fill="none" stroke="#707070" d="M852.8,-766.47C869.68,-761.2 886.86,-754.48 902,-746 920.37,-735.7 937.94,-720.54 952.12,-706.47"/>
<polygon fill="#707070" stroke="#707070" points="954.7,-708.83 959.2,-699.23 949.7,-703.93 954.7,-708.83"/>
</g>
<!-- RouteTable::route&#45;table&#45;private&#45;b -->
<g id="node11" class="node">
<title>RouteTable::route&#45;table&#45;private&#45;b</title>
<polygon fill="#e5e5e5" stroke="#dddddd" points="852.5,-1041 682.5,-1041 682.5,-983 852.5,-983 852.5,-1041"/>
<text text-anchor="start" x="694.5" y="-1021.2" font-family="Helvetica,sans-Serif" font-weight="bold" font-size="16.00" fill="#707070">EC2::RouteTable</text>
<text text-anchor="start" x="694.5" y="-996.2" font-family="Helvetica,sans-Serif" font-size="16.00" fill="#383838">route&#45;table&#45;private&#45;b</text>
</g>
<!-- RouteTable::route&#45;table&#45;private&#45;b&#45;&gt;Vpc::vpc -->
<g id="edge9" class="edge">
<title>RouteTable::route&#45;table&#45;private&#45;b&#45;&gt;Vpc::vpc</title>
<path fill="none" stroke="#707070" d="M852.52,-1002.05C870.79,-996.35 888.62,-987.54 902,-974 973.53,-901.58 984.66,-773.76 985.4,-709.38"/>
<polygon fill="#707070" stroke="#707070" points="988.9,-709.26 985.44,-699.24 981.9,-709.23 988.9,-709.26"/>
</g>
<!-- RouteTable::route&#45;table&#45;public -->
<g id="node12" class="node">
<title>RouteTable::route&#45;table&#45;public</title>
<polygon fill="#e5e5e5" stroke="#dddddd" points="843,-585 692,-585 692,-527 843,-527 843,-585"/>
<text text-anchor="start" x="704.5" y="-565.2" font-family="Helvetica,sans-Serif" font-weight="bold" font-size="16.00" fill="#707070">EC2::RouteTable</text>
<text text-anchor="start" x="704.5" y="-540.2" font-family="Helvetica,sans-Serif" font-size="16.00" fill="#383838">route&#45;table&#45;public</text>
</g>
<!-- RouteTable::route&#45;table&#45;public&#45;&gt;Vpc::vpc -->
<g id="edge10" class="edge">
<title>RouteTable::route&#45;table&#45;public&#45;&gt;Vpc::vpc</title>
<path fill="none" stroke="#707070" d="M843.01,-570.61C862.92,-576.25 883.92,-583.87 902,-594 920.37,-604.3 937.94,-619.46 952.12,-633.53"/>
<polygon fill="#707070" stroke="#707070" points="949.7,-636.07 959.2,-640.77 954.7,-631.17 949.7,-636.07"/>
</g>
<!-- RouteTableAssociation::rt&#45;assoc::route&#45;table&#45;private&#45;a::subnet&#45;private&#45;a -->
<g id="node13" class="node">
<title>RouteTableAssociation::rt&#45;assoc::route&#45;table&#45;private&#45;a::subnet&#45;private&#45;a</title>
<polygon fill="#e5e5e5" stroke="#dddddd" points="590,-833 335,-833 335,-775 590,-775 590,-833"/>
<text text-anchor="start" x="347.5" y="-813.2" font-family="Helvetica,sans-Serif" font-weight="bold" font-size="16.00" fill="#707070">EC2::RouteTableAssociation</text>
<text text-anchor="start" x="347.5" y="-788.2" font-family="Helvetica,sans-Serif" font-size="16.00" fill="#383838">rt&#45;assoc::route&#45;table&#45;private&#45;a:...</text>
</g>
<!-- RouteTableAssociation::rt&#45;assoc::route&#45;table&#45;private&#45;a::subnet&#45;private&#45;a&#45;&gt;Subnet::subnet&#45;private&#45;a -->
<g id="edge12" class="edge">
<title>RouteTableAssociation::rt&#45;assoc::route&#45;table&#45;private&#45;a::subnet&#45;private&#45;a&#45;&gt;Subnet::subnet&#45;private&#45;a</title>
<path fill="none" stroke="#707070" d="M590.24,-827.42C622.74,-833.43 656.79,-839.72 686.21,-845.16"/>
<polygon fill="#707070" stroke="#707070" points="685.95,-848.67 696.41,-847.05 687.22,-841.79 685.95,-848.67"/>
</g>
<!-- RouteTableAssociation::rt&#45;assoc::route&#45;table&#45;private&#45;a::subnet&#45;private&#45;a&#45;&gt;RouteTable::route&#45;table&#45;private&#45;a -->
<g id="edge11" class="edge">
<title>RouteTableAssociation::rt&#45;assoc::route&#45;table&#45;private&#45;a::subnet&#45;private&#45;a&#45;&gt;RouteTable::route&#45;table&#45;private&#45;a</title>
<path fill="none" stroke="#707070" d="M590.24,-795.63C617.73,-793.82 646.34,-791.93 672.31,-790.22"/>
<polygon fill="#707070" stroke="#707070" points="672.75,-793.7 682.5,-789.54 672.29,-786.71 672.75,-793.7"/>
</g>
<!-- RouteTableAssociation::rt&#45;assoc::route&#45;table&#45;private&#45;b::subnet&#45;private&#45;b -->
<g id="node14" class="node">
<title>RouteTableAssociation::rt&#45;assoc::route&#45;table&#45;private&#45;b::subnet&#45;private&#45;b</title>
<polygon fill="#e5e5e5" stroke="#dddddd" points="590,-989 335,-989 335,-931 590,-931 590,-989"/>
<text text-anchor="start" x="347.5" y="-969.2" font-family="Helvetica,sans-Serif" font-weight="bold" font-size="16.00" fill="#707070">EC2::RouteTableAssociation</text>
<text text-anchor="start" x="347.5" y="-944.2" font-family="Helvetica,sans-Serif" font-size="16.00" fill="#383838">rt&#45;assoc::route&#45;table&#45;private&#45;b:...</text>
</g>
<!-- RouteTableAssociation::rt&#45;assoc::route&#45;table&#45;private&#45;b::subnet&#45;private&#45;b&#45;&gt;Subnet::subnet&#45;private&#45;b -->
<g id="edge14" class="edge">
<title>RouteTableAssociation::rt&#45;assoc::route&#45;table&#45;private&#45;b::subnet&#45;private&#45;b&#45;&gt;Subnet::subnet&#45;private&#45;b</title>
<path fill="none" stroke="#707070" d="M590.24,-949.96C622.74,-947.39 656.79,-944.69 686.21,-942.36"/>
<polygon fill="#707070" stroke="#707070" points="686.72,-945.83 696.41,-941.55 686.17,-938.85 686.72,-945.83"/>
</g>
<!-- RouteTableAssociation::rt&#45;assoc::route&#45;table&#45;private&#45;b::subnet&#45;private&#45;b&#45;&gt;RouteTable::route&#45;table&#45;private&#45;b -->
<g id="edge13" class="edge">
<title>RouteTableAssociation::rt&#45;assoc::route&#45;table&#45;private&#45;b::subnet&#45;private&#45;b&#45;&gt;RouteTable::route&#45;table&#45;private&#45;b</title>
<path fill="none" stroke="#707070" d="M590.24,-981.75C617.73,-986.47 646.34,-991.38 672.31,-995.83"/>
<polygon fill="#707070" stroke="#707070" points="672.05,-999.34 682.5,-997.58 673.24,-992.44 672.05,-999.34"/>
</g>
<!-- RouteTableAssociation::rt&#45;assoc::route&#45;table&#45;public::subnet&#45;public&#45;a -->
<g id="node15" class="node">
<title>RouteTableAssociation::rt&#45;assoc::route&#45;table&#45;public::subnet&#45;public&#45;a</title>
<polygon fill="#e5e5e5" stroke="#dddddd" points="590.5,-585 334.5,-585 334.5,-527 590.5,-527 590.5,-585"/>
<text text-anchor="start" x="346.5" y="-565.2" font-family="Helvetica,sans-Serif" font-weight="bold" font-size="16.00" fill="#707070">EC2::RouteTableAssociation</text>
<text text-anchor="start" x="346.5" y="-540.2" font-family="Helvetica,sans-Serif" font-size="16.00" fill="#383838">rt&#45;assoc::route&#45;table&#45;public::su...</text>
</g>
<!-- RouteTableAssociation::rt&#45;assoc::route&#45;table&#45;public::subnet&#45;public&#45;a&#45;&gt;Subnet::subnet&#45;public&#45;a -->
<g id="edge16" class="edge">
<title>RouteTableAssociation::rt&#45;assoc::route&#45;table&#45;public::subnet&#45;public&#45;a&#45;&gt;Subnet::subnet&#45;public&#45;a</title>
<path fill="none" stroke="#707070" d="M579.35,-526.94C616.3,-517.67 656.25,-507.65 689.71,-499.26"/>
<polygon fill="#707070" stroke="#707070" points="690.57,-502.65 699.42,-496.83 688.87,-495.86 690.57,-502.65"/>
</g>
<!-- RouteTableAssociation::rt&#45;assoc::route&#45;table&#45;public::subnet&#45;public&#45;a&#45;&gt;RouteTable::route&#45;table&#45;public -->
<g id="edge15" class="edge">
<title>RouteTableAssociation::rt&#45;assoc::route&#45;table&#45;public::subnet&#45;public&#45;a&#45;&gt;RouteTable::route&#45;table&#45;public</title>
<path fill="none" stroke="#707070" d="M590.68,-556C621.4,-556 653.5,-556 681.73,-556"/>
<polygon fill="#707070" stroke="#707070" points="681.94,-559.5 691.94,-556 681.94,-552.5 681.94,-559.5"/>
</g>
<!-- RouteTableAssociation::rt&#45;assoc::route&#45;table&#45;public::subnet&#45;public&#45;b -->
<g id="node16" class="node">
<title>RouteTableAssociation::rt&#45;assoc::route&#45;table&#45;public::subnet&#45;public&#45;b</title>
<polygon fill="#e5e5e5" stroke="#dddddd" points="590.5,-737 334.5,-737 334.5,-679 590.5,-679 590.5,-737"/>
<text text-anchor="start" x="346.5" y="-717.2" font-family="Helvetica,sans-Serif" font-weight="bold" font-size="16.00" fill="#707070">EC2::RouteTableAssociation</text>
<text text-anchor="start" x="346.5" y="-692.2" font-family="Helvetica,sans-Serif" font-size="16.00" fill="#383838">rt&#45;assoc::route&#45;table&#45;public::su...</text>
</g>
<!-- RouteTableAssociation::rt&#45;assoc::route&#45;table&#45;public::subnet&#45;public&#45;b&#45;&gt;Subnet::subnet&#45;public&#45;b -->
<g id="edge18" class="edge">
<title>RouteTableAssociation::rt&#45;assoc::route&#45;table&#45;public::subnet&#45;public&#45;b&#45;&gt;Subnet::subnet&#45;public&#45;b</title>
<path fill="none" stroke="#707070" d="M590.68,-708C624,-708 658.93,-708 688.8,-708"/>
<polygon fill="#707070" stroke="#707070" points="689.14,-711.5 699.14,-708 689.14,-704.5 689.14,-711.5"/>
</g>
<!-- RouteTableAssociation::rt&#45;assoc::route&#45;table&#45;public::subnet&#45;public&#45;b&#45;&gt;RouteTable::route&#45;table&#45;public -->
<g id="edge17" class="edge">
<title>RouteTableAssociation::rt&#45;assoc::route&#45;table&#45;public::subnet&#45;public&#45;b&#45;&gt;RouteTable::route&#45;table&#45;public</title>
<path fill="none" stroke="#707070" d="M584.69,-678.99C589.01,-676.26 593.14,-673.27 597,-670 625.52,-645.84 604.48,-618.16 633,-594 646.96,-582.17 664.39,-574.02 681.99,-568.4"/>
<polygon fill="#707070" stroke="#707070" points="683.16,-571.7 691.77,-565.53 681.19,-564.98 683.16,-571.7"/>
</g>
<!-- Route::route&#45;table&#45;private&#45;a&#45;nat&#45;gateway -->
<g id="node17" class="node">
<title>Route::route&#45;table&#45;private&#45;a&#45;nat&#45;gateway</title>
<polygon fill="#e5e5e5" stroke="#dddddd" points="292,-528 24,-528 24,-470 292,-470 292,-528"/>
<text text-anchor="start" x="36" y="-508.2" font-family="Helvetica,sans-Serif" font-weight="bold" font-size="16.00" fill="#707070">EC2::Route</text>
<text text-anchor="start" x="36" y="-483.2" font-family="Helvetica,sans-Serif" font-size="16.00" fill="#383838">route&#45;table&#45;private&#45;a&#45;nat&#45;gatewa...</text>
</g>
<!-- Route::route&#45;table&#45;private&#45;a&#45;nat&#45;gateway&#45;&gt;NatGateway::nat&#45;gateway -->
<g id="edge20" class="edge">
<title>Route::route&#45;table&#45;private&#45;a&#45;nat&#45;gateway&#45;&gt;NatGateway::nat&#45;gateway</title>
<path fill="none" stroke="#707070" d="M292.12,-490.64C319.43,-488.92 347.53,-487.16 372.81,-485.57"/>
<polygon fill="#707070" stroke="#707070" points="373.32,-489.05 383.09,-484.93 372.89,-482.06 373.32,-489.05"/>
</g>
<!-- Route::route&#45;table&#45;private&#45;a&#45;nat&#45;gateway&#45;&gt;RouteTable::route&#45;table&#45;private&#45;a -->
<g id="edge19" class="edge">
<title>Route::route&#45;table&#45;private&#45;a&#45;nat&#45;gateway&#45;&gt;RouteTable::route&#45;table&#45;private&#45;a</title>
<path fill="none" stroke="#707070" d="M180.17,-528.32C206.79,-565.39 253.64,-631.34 292,-689 308.6,-713.95 302.31,-730.57 328,-746 379.39,-776.86 537.3,-760.61 597,-766 621.48,-768.21 647.92,-770.88 672.46,-773.48"/>
<polygon fill="#707070" stroke="#707070" points="672.18,-776.97 682.49,-774.55 672.92,-770.01 672.18,-776.97"/>
</g>
<!-- Route::route&#45;table&#45;private&#45;b&#45;nat&#45;gateway -->
<g id="node18" class="node">
<title>Route::route&#45;table&#45;private&#45;b&#45;nat&#45;gateway</title>
<polygon fill="#e5e5e5" stroke="#dddddd" points="292,-908 24,-908 24,-850 292,-850 292,-908"/>
<text text-anchor="start" x="36" y="-888.2" font-family="Helvetica,sans-Serif" font-weight="bold" font-size="16.00" fill="#707070">EC2::Route</text>
<text text-anchor="start" x="36" y="-863.2" font-family="Helvetica,sans-Serif" font-size="16.00" fill="#383838">route&#45;table&#45;private&#45;b&#45;nat&#45;gatewa...</text>
</g>
<!-- Route::route&#45;table&#45;private&#45;b&#45;nat&#45;gateway&#45;&gt;NatGateway::nat&#45;gateway -->
<g id="edge22" class="edge">
<title>Route::route&#45;table&#45;private&#45;b&#45;nat&#45;gateway&#45;&gt;NatGateway::nat&#45;gateway</title>
<path fill="none" stroke="#707070" d="M208.09,-849.87C237.35,-829.82 272.49,-800.43 292,-765 345.52,-667.83 254.92,-601.47 328,-518 339.92,-504.38 356.33,-495.49 373.58,-489.71"/>
<polygon fill="#707070" stroke="#707070" points="374.65,-493.04 383.22,-486.81 372.64,-486.34 374.65,-493.04"/>
</g>
<!-- Route::route&#45;table&#45;private&#45;b&#45;nat&#45;gateway&#45;&gt;RouteTable::route&#45;table&#45;private&#45;b -->
<g id="edge21" class="edge">
<title>Route::route&#45;table&#45;private&#45;b&#45;nat&#45;gateway&#45;&gt;RouteTable::route&#45;table&#45;private&#45;b</title>
<path fill="none" stroke="#707070" d="M220.2,-908.07C243.86,-920.78 270.38,-936.92 292,-955 311.12,-970.99 305.59,-987.09 328,-998 436.87,-1050.97 579.6,-1043.56 672.17,-1030.33"/>
<polygon fill="#707070" stroke="#707070" points="672.71,-1033.78 682.09,-1028.86 671.68,-1026.86 672.71,-1033.78"/>
</g>
<!-- Route::route&#45;table&#45;public&#45;igw -->
<g id="node19" class="node">
<title>Route::route&#45;table&#45;public&#45;igw</title>
<polygon fill="#e5e5e5" stroke="#dddddd" points="552,-661 373,-661 373,-603 552,-603 552,-661"/>
<text text-anchor="start" x="385.5" y="-641.2" font-family="Helvetica,sans-Serif" font-weight="bold" font-size="16.00" fill="#707070">EC2::Route</text>
<text text-anchor="start" x="385.5" y="-616.2" font-family="Helvetica,sans-Serif" font-size="16.00" fill="#383838">route&#45;table&#45;public&#45;igw</text>
</g>
<!-- Route::route&#45;table&#45;public&#45;igw&#45;&gt;InternetGateway::internet&#45;gateway -->
<g id="edge24" class="edge">
<title>Route::route&#45;table&#45;public&#45;igw&#45;&gt;InternetGateway::internet&#45;gateway</title>
<path fill="none" stroke="#707070" d="M552.36,-632C586.53,-632 625.86,-632 661.42,-632"/>
<polygon fill="#707070" stroke="#707070" points="661.83,-635.5 671.83,-632 661.83,-628.5 661.83,-635.5"/>
</g>
<!-- Route::route&#45;table&#45;public&#45;igw&#45;&gt;RouteTable::route&#45;table&#45;public -->
<g id="edge23" class="edge">
<title>Route::route&#45;table&#45;public&#45;igw&#45;&gt;RouteTable::route&#45;table&#45;public</title>
<path fill="none" stroke="#707070" d="M552.36,-609.71C593.34,-599.43 641.73,-587.29 682.14,-577.16"/>
<polygon fill="#707070" stroke="#707070" points="683.12,-580.52 691.96,-574.7 681.41,-573.73 683.12,-580.52"/>
</g>
<!-- SecurityGroup::sg::vpc::security&#45;group&#45;postgres -->
<g id="node20" class="node">
<title>SecurityGroup::sg::vpc::security&#45;group&#45;postgres</title>
<polygon fill="#e5e5e5" stroke="#dddddd" points="902,-129 633,-129 633,-71 902,-71 902,-129"/>
<text text-anchor="start" x="645.5" y="-109.2" font-family="Helvetica,sans-Serif" font-weight="bold" font-size="16.00" fill="#707070">EC2::SecurityGroup</text>
<text text-anchor="start" x="645.5" y="-84.2" font-family="Helvetica,sans-Serif" font-size="16.00" fill="#383838">sg::vpc::security&#45;group&#45;postgres...</text>
</g>
<!-- SecurityGroup::sg::vpc::security&#45;group&#45;postgres&#45;&gt;Vpc::vpc -->
<g id="edge25" class="edge">
<title>SecurityGroup::sg::vpc::security&#45;group&#45;postgres&#45;&gt;Vpc::vpc</title>
<path fill="none" stroke="#707070" d="M892.67,-129.03C896,-131.77 899.13,-134.75 902,-138 966.82,-211.37 980.8,-520.92 983.74,-630.97"/>
<polygon fill="#707070" stroke="#707070" points="980.24,-631.07 983.99,-640.98 987.24,-630.9 980.24,-631.07"/>
</g>
<!-- SecurityGroup::sg::vpc::security&#45;group&#45;public -->
<g id="node21" class="node">
<title>SecurityGroup::sg::vpc::security&#45;group&#45;public</title>
<polygon fill="#e5e5e5" stroke="#dddddd" points="885.5,-205 649.5,-205 649.5,-147 885.5,-147 885.5,-205"/>
<text text-anchor="start" x="661.5" y="-185.2" font-family="Helvetica,sans-Serif" font-weight="bold" font-size="16.00" fill="#707070">EC2::SecurityGroup</text>
<text text-anchor="start" x="661.5" y="-160.2" font-family="Helvetica,sans-Serif" font-size="16.00" fill="#383838">sg::vpc::security&#45;group&#45;public</text>
</g>
<!-- SecurityGroup::sg::vpc::security&#45;group&#45;public&#45;&gt;Vpc::vpc -->
<g id="edge26" class="edge">
<title>SecurityGroup::sg::vpc::security&#45;group&#45;public&#45;&gt;Vpc::vpc</title>
<path fill="none" stroke="#707070" d="M885.58,-200.03C891.6,-204.02 897.15,-208.64 902,-214 957.45,-275.19 977.02,-531.43 982.6,-630.59"/>
<polygon fill="#707070" stroke="#707070" points="979.11,-630.99 983.15,-640.78 986.1,-630.61 979.11,-630.99"/>
</g>
<!-- SecurityGroupRuleIngress::sg::vpc::security&#45;group&#45;postgres&#45;rule&#45;ingress&#45;tcp&#45;5432 -->
<g id="node22" class="node">
<title>SecurityGroupRuleIngress::sg::vpc::security&#45;group&#45;postgres&#45;rule&#45;ingress&#45;tcp&#45;5432</title>
<polygon fill="#e5e5e5" stroke="#dddddd" points="597,-177 328,-177 328,-119 597,-119 597,-177"/>
<text text-anchor="start" x="340.5" y="-157.2" font-family="Helvetica,sans-Serif" font-weight="bold" font-size="16.00" fill="#707070">EC2::SecurityGroupRuleIngress</text>
<text text-anchor="start" x="340.5" y="-132.2" font-family="Helvetica,sans-Serif" font-size="16.00" fill="#383838">sg::vpc::security&#45;group&#45;postgres...</text>
</g>
<!-- SecurityGroupRuleIngress::sg::vpc::security&#45;group&#45;postgres&#45;rule&#45;ingress&#45;tcp&#45;5432&#45;&gt;SecurityGroup::sg::vpc::security&#45;group&#45;postgres -->
<g id="edge27" class="edge">
<title>SecurityGroupRuleIngress::sg::vpc::security&#45;group&#45;postgres&#45;rule&#45;ingress&#45;tcp&#45;5432&#45;&gt;SecurityGroup::sg::vpc::security&#45;group&#45;postgres</title>
<path fill="none" stroke="#707070" d="M597.28,-126.81C605.71,-125.47 614.22,-124.12 622.69,-122.78"/>
<polygon fill="#707070" stroke="#707070" points="623.29,-126.23 632.62,-121.21 622.2,-119.32 623.29,-126.23"/>
</g>
<!-- SecurityGroupRuleIngress::sg::vpc::security&#45;group&#45;postgres&#45;rule&#45;ingress&#45;tcp&#45;5432&#45;&gt;SecurityGroup::sg::vpc::security&#45;group&#45;public -->
<g id="edge28" class="edge">
<title>SecurityGroupRuleIngress::sg::vpc::security&#45;group&#45;postgres&#45;rule&#45;ingress&#45;tcp&#45;5432&#45;&gt;SecurityGroup::sg::vpc::security&#45;group&#45;public</title>
<path fill="none" stroke="#707070" d="M597.28,-160.36C611.19,-161.65 625.29,-162.95 639.13,-164.23"/>
<polygon fill="#707070" stroke="#707070" points="638.86,-167.72 649.14,-165.16 639.51,-160.75 638.86,-167.72"/>
</g>
<!-- SecurityGroupRuleIngress::sg::vpc::security&#45;group&#45;public&#45;rule&#45;ingress&#45;tcp&#45;22 -->
<g id="node23" class="node">
<title>SecurityGroupRuleIngress::sg::vpc::security&#45;group&#45;public&#45;rule&#45;ingress&#45;tcp&#45;22</title>
<polygon fill="#e5e5e5" stroke="#dddddd" points="596.5,-253 328.5,-253 328.5,-195 596.5,-195 596.5,-253"/>
<text text-anchor="start" x="340.5" y="-233.2" font-family="Helvetica,sans-Serif" font-weight="bold" font-size="16.00" fill="#707070">EC2::SecurityGroupRuleIngress</text>
<text text-anchor="start" x="340.5" y="-208.2" font-family="Helvetica,sans-Serif" font-size="16.00" fill="#383838">sg::vpc::security&#45;group&#45;public&#45;r...</text>
</g>
<!-- SecurityGroupRuleIngress::sg::vpc::security&#45;group&#45;public&#45;rule&#45;ingress&#45;tcp&#45;22&#45;&gt;SecurityGroup::sg::vpc::security&#45;group&#45;public -->
<g id="edge29" class="edge">
<title>SecurityGroupRuleIngress::sg::vpc::security&#45;group&#45;public&#45;rule&#45;ingress&#45;tcp&#45;22&#45;&gt;SecurityGroup::sg::vpc::security&#45;group&#45;public</title>
<path fill="none" stroke="#707070" d="M596.84,-202.88C610.89,-200.65 625.16,-198.39 639.14,-196.18"/>
<polygon fill="#707070" stroke="#707070" points="639.94,-199.59 649.27,-194.57 638.84,-192.68 639.94,-199.59"/>
</g>
<!-- ElasticIpAddress::eip&#45;bastion -->
<g id="node24" class="node">
<title>ElasticIpAddress::eip&#45;bastion</title>
<polygon fill="#e5e5e5" stroke="#dddddd" points="865.5,-281 669.5,-281 669.5,-223 865.5,-223 865.5,-281"/>
<text text-anchor="start" x="681.5" y="-261.2" font-family="Helvetica,sans-Serif" font-weight="bold" font-size="16.00" fill="#707070">EC2::ElasticIpAddress</text>
<text text-anchor="start" x="681.5" y="-236.2" font-family="Helvetica,sans-Serif" font-size="16.00" fill="#383838">eip&#45;bastion</text>
</g>
<!-- Instance::bastion -->
<g id="node26" class="node">
<title>Instance::bastion</title>
<polygon fill="#e5e5e5" stroke="#dddddd" points="528,-343 397,-343 397,-285 528,-285 528,-343"/>
<text text-anchor="start" x="409.5" y="-323.2" font-family="Helvetica,sans-Serif" font-weight="bold" font-size="16.00" fill="#707070">EC2::Instance</text>
<text text-anchor="start" x="409.5" y="-298.2" font-family="Helvetica,sans-Serif" font-size="16.00" fill="#383838">bastion</text>
</g>
<!-- Instance::bastion&#45;&gt;KeyPair::kp&#45;postgres&#45;stateless -->
<g id="edge31" class="edge">
<title>Instance::bastion&#45;&gt;KeyPair::kp&#45;postgres&#45;stateless</title>
<path fill="none" stroke="#707070" d="M528.13,-316.99C568.69,-318.86 621.79,-321.31 667.58,-323.43"/>
<polygon fill="#707070" stroke="#707070" points="667.68,-326.94 677.83,-323.9 668,-319.95 667.68,-326.94"/>
</g>
<!-- Instance::bastion&#45;&gt;Subnet::subnet&#45;public&#45;a -->
<g id="edge30" class="edge">
<title>Instance::bastion&#45;&gt;Subnet::subnet&#45;public&#45;a</title>
<path fill="none" stroke="#707070" d="M494.55,-343.13C526.85,-372 580.02,-415.62 633,-442 650.54,-450.74 670.41,-457.76 689.36,-463.27"/>
<polygon fill="#707070" stroke="#707070" points="688.59,-466.69 699.17,-466.02 690.48,-459.95 688.59,-466.69"/>
</g>
<!-- Instance::bastion&#45;&gt;SecurityGroup::sg::vpc::security&#45;group&#45;public -->
<g id="edge33" class="edge">
<title>Instance::bastion&#45;&gt;SecurityGroup::sg::vpc::security&#45;group&#45;public</title>
<path fill="none" stroke="#707070" d="M528.03,-296.96C551.25,-288.82 576.69,-277.42 597,-262 618.24,-245.88 611.03,-229.11 633,-214 635.42,-212.34 637.91,-210.74 640.46,-209.22"/>
<polygon fill="#707070" stroke="#707070" points="642.3,-212.21 649.35,-204.31 638.91,-206.08 642.3,-212.21"/>
</g>
<!-- Instance::bastion&#45;&gt;ElasticIpAddress::eip&#45;bastion -->
<g id="edge32" class="edge">
<title>Instance::bastion&#45;&gt;ElasticIpAddress::eip&#45;bastion</title>
<path fill="none" stroke="#707070" d="M528.13,-300.78C566.34,-292.96 615.7,-282.86 659.57,-273.88"/>
<polygon fill="#707070" stroke="#707070" points="660.33,-277.3 669.43,-271.86 658.93,-270.44 660.33,-277.3"/>
</g>
<!-- DBSubnetGroup::subnet&#45;group&#45;postgres&#45;stateless -->
<g id="node27" class="node">
<title>DBSubnetGroup::subnet&#45;group&#45;postgres&#45;stateless</title>
<polygon fill="#e5e5e5" stroke="#dddddd" points="591,-909 334,-909 334,-851 591,-851 591,-909"/>
<text text-anchor="start" x="346.5" y="-889.2" font-family="Helvetica,sans-Serif" font-weight="bold" font-size="16.00" fill="#707070">RDS::DBSubnetGroup</text>
<text text-anchor="start" x="346.5" y="-864.2" font-family="Helvetica,sans-Serif" font-size="16.00" fill="#383838">subnet&#45;group&#45;postgres&#45;stateless</text>
</g>
<!-- DBSubnetGroup::subnet&#45;group&#45;postgres&#45;stateless&#45;&gt;Subnet::subnet&#45;private&#45;a -->
<g id="edge34" class="edge">
<title>DBSubnetGroup::subnet&#45;group&#45;postgres&#45;stateless&#45;&gt;Subnet::subnet&#45;private&#45;a</title>
<path fill="none" stroke="#707070" d="M591.12,-871.58C623.38,-869.45 657.13,-867.22 686.3,-865.29"/>
<polygon fill="#707070" stroke="#707070" points="686.67,-868.78 696.42,-864.63 686.21,-861.79 686.67,-868.78"/>
</g>
<!-- DBSubnetGroup::subnet&#45;group&#45;postgres&#45;stateless&#45;&gt;Subnet::subnet&#45;private&#45;b -->
<g id="edge35" class="edge">
<title>DBSubnetGroup::subnet&#45;group&#45;postgres&#45;stateless&#45;&gt;Subnet::subnet&#45;private&#45;b</title>
<path fill="none" stroke="#707070" d="M591.12,-903.59C623.38,-909.55 657.13,-915.79 686.3,-921.18"/>
<polygon fill="#707070" stroke="#707070" points="685.95,-924.67 696.42,-923.05 687.22,-917.79 685.95,-924.67"/>
</g>
<!-- DBCluster::cluster&#45;postgres&#45;stateless -->
<g id="node28" class="node">
<title>DBCluster::cluster&#45;postgres&#45;stateless</title>
<polygon fill="#e5e5e5" stroke="#dddddd" points="263,-756 53,-756 53,-698 263,-698 263,-756"/>
<text text-anchor="start" x="65" y="-736.2" font-family="Helvetica,sans-Serif" font-weight="bold" font-size="16.00" fill="#707070">RDS::DBCluster</text>
<text text-anchor="start" x="65" y="-711.2" font-family="Helvetica,sans-Serif" font-size="16.00" fill="#383838">cluster&#45;postgres&#45;stateless</text>
</g>
<!-- DBCluster::cluster&#45;postgres&#45;stateless&#45;&gt;SecurityGroup::sg::vpc::security&#45;group&#45;postgres -->
<g id="edge37" class="edge">
<title>DBCluster::cluster&#45;postgres&#45;stateless&#45;&gt;SecurityGroup::sg::vpc::security&#45;group&#45;postgres</title>
<path fill="none" stroke="#707070" d="M186.9,-697.94C218.59,-662.92 268.9,-600.79 292,-537 324.42,-447.46 258.63,-175.24 328,-110 417.38,-25.94 567.97,-43.74 667.3,-68.47"/>
<polygon fill="#707070" stroke="#707070" points="666.5,-71.88 677.05,-70.96 668.23,-65.1 666.5,-71.88"/>
</g>
<!-- DBCluster::cluster&#45;postgres&#45;stateless&#45;&gt;DBSubnetGroup::subnet&#45;group&#45;postgres&#45;stateless -->
<g id="edge36" class="edge">
<title>DBCluster::cluster&#45;postgres&#45;stateless&#45;&gt;DBSubnetGroup::subnet&#45;group&#45;postgres&#45;stateless</title>
<path fill="none" stroke="#707070" d="M194.53,-756.2C227.39,-781.94 278.49,-818.85 328,-842 331.81,-843.78 335.71,-845.49 339.69,-847.14"/>
<polygon fill="#707070" stroke="#707070" points="338.49,-850.43 349.08,-850.87 341.08,-843.93 338.49,-850.43"/>
</g>
</g>
</svg>
