<?xml version="1.0" encoding="UTF-8" standalone="no"?>
<!DOCTYPE svg PUBLIC "-//W3C//DTD SVG 1.1//EN"
 "http://www.w3.org/Graphics/SVG/1.1/DTD/svg11.dtd">
<!-- Generated by graphviz version 2.44.1 (20200629.0846)
 -->
<!-- Title: graphname Pages: 1 -->
<svg width="465pt" height="1301pt"
 viewBox="0.00 0.00 465.00 1301.00" xmlns="http://www.w3.org/2000/svg" xmlns:xlink="http://www.w3.org/1999/xlink">
<g id="graph0" class="graph" transform="scale(1 1) rotate(0) translate(4 1297)">
<title>graphname</title>
<polygon fill="#fafafa" stroke="transparent" points="-4,4 -4,-1297 461,-1297 461,4 -4,4"/>
<text text-anchor="start" x="156.5" y="-1268.4" font-family="Helvetica,sans-Serif" font-weight="bold" font-size="22.00" fill="#383838">Project server</text>
<text text-anchor="start" x="225" y="-1252.8" font-family="Helvetica,sans-Serif" font-size="14.00"> &#160;</text>
<text text-anchor="start" x="156.5" y="-1231.2" font-family="Helvetica,sans-Serif" font-weight="bold" font-size="16.00" fill="#707070">Live Diagram</text>
<g id="clust1" class="cluster">
<title>cluster_openstack</title>
<polygon fill="#f5f5f5" stroke="#f5f5f5" points="8,-8 8,-1209 449,-1209 449,-8 8,-8"/>
<text text-anchor="start" x="136.5" y="-23" font-family="Helvetica,sans-Serif" font-weight="bold" font-size="20.00" fill="#707070">Provider openstack</text>
</g>
<g id="clust2" class="cluster">
<title>cluster_openstack_</title>
<polygon fill="#eeeeee" stroke="#eeeeee" points="16,-54 16,-1201 441,-1201 441,-54 16,-54"/>
<text text-anchor="start" x="228.36" y="-58.3" font-family="Helvetica,sans-Serif" font-size="1.00" fill="#383838"> </text>
</g>
<!-- Subnet::::0e119f62&#45;b864&#45;4773&#45;bf62&#45;4f87dfeb8263 -->
<g id="node1" class="node">
<title>Subnet::::0e119f62&#45;b864&#45;4773&#45;bf62&#45;4f87dfeb8263</title>
<polygon fill="#e5e5e5" stroke="#dddddd" points="264,-1193 69,-1193 69,-1135 264,-1135 264,-1193"/>
<text text-anchor="start" x="81.5" y="-1173.2" font-family="Helvetica,sans-Serif" font-weight="bold" font-size="16.00" fill="#707070">Subnet</text>
<text text-anchor="start" x="81.5" y="-1148.2" font-family="Helvetica,sans-Serif" font-size="16.00" fill="#383838">Ext&#45;Net::51.77.108.0/22</text>
</g>
<!-- Network::::6011fbc9&#45;4cbf&#45;46a4&#45;8452&#45;6890a340b60b -->
<g id="node15" class="node">
<title>Network::::6011fbc9&#45;4cbf&#45;46a4&#45;8452&#45;6890a340b60b</title>
<polygon fill="#e5e5e5" stroke="#dddddd" points="433,-699 345,-699 345,-641 433,-641 433,-699"/>
<text text-anchor="start" x="357" y="-679.2" font-family="Helvetica,sans-Serif" font-weight="bold" font-size="16.00" fill="#707070">Network</text>
<text text-anchor="start" x="357" y="-654.2" font-family="Helvetica,sans-Serif" font-size="16.00" fill="#383838">Ext&#45;Net</text>
</g>
<!-- Subnet::::0e119f62&#45;b864&#45;4773&#45;bf62&#45;4f87dfeb8263&#45;&gt;Network::::6011fbc9&#45;4cbf&#45;46a4&#45;8452&#45;6890a340b60b -->
<g id="edge1" class="edge">
<title>Subnet::::0e119f62&#45;b864&#45;4773&#45;bf62&#45;4f87dfeb8263&#45;&gt;Network::::6011fbc9&#45;4cbf&#45;46a4&#45;8452&#45;6890a340b60b</title>
<path fill="none" stroke="#707070" d="M264.03,-1153.79C280.97,-1147.95 296.99,-1139.15 309,-1126 364.6,-1065.1 381.83,-808.68 386.47,-709.45"/>
<polygon fill="#707070" stroke="#707070" points="389.98,-709.39 386.93,-699.24 382.99,-709.08 389.98,-709.39"/>
</g>
<!-- Subnet::::1ee592b5&#45;6297&#45;4bf3&#45;9999&#45;4582ba544ecd -->
<g id="node2" class="node">
<title>Subnet::::1ee592b5&#45;6297&#45;4bf3&#45;9999&#45;4582ba544ecd</title>
<polygon fill="#e5e5e5" stroke="#dddddd" points="264,-1117 69,-1117 69,-1059 264,-1059 264,-1117"/>
<text text-anchor="start" x="81.5" y="-1097.2" font-family="Helvetica,sans-Serif" font-weight="bold" font-size="16.00" fill="#707070">Subnet</text>
<text text-anchor="start" x="81.5" y="-1072.2" font-family="Helvetica,sans-Serif" font-size="16.00" fill="#383838">Ext&#45;Net::51.89.228.0/22</text>
</g>
<!-- Subnet::::1ee592b5&#45;6297&#45;4bf3&#45;9999&#45;4582ba544ecd&#45;&gt;Network::::6011fbc9&#45;4cbf&#45;46a4&#45;8452&#45;6890a340b60b -->
<g id="edge2" class="edge">
<title>Subnet::::1ee592b5&#45;6297&#45;4bf3&#45;9999&#45;4582ba544ecd&#45;&gt;Network::::6011fbc9&#45;4cbf&#45;46a4&#45;8452&#45;6890a340b60b</title>
<path fill="none" stroke="#707070" d="M264.05,-1077.35C280.89,-1071.53 296.86,-1062.85 309,-1050 355.34,-1000.92 377.54,-795.9 384.99,-709.1"/>
<polygon fill="#707070" stroke="#707070" points="388.48,-709.37 385.83,-699.12 381.51,-708.79 388.48,-709.37"/>
</g>
<!-- Subnet::::4580ccc5&#45;9c0c&#45;4bdc&#45;ac21&#45;eeb9dc7ee9a4 -->
<g id="node3" class="node">
<title>Subnet::::4580ccc5&#45;9c0c&#45;4bdc&#45;ac21&#45;eeb9dc7ee9a4</title>
<polygon fill="#e5e5e5" stroke="#dddddd" points="264,-1041 69,-1041 69,-983 264,-983 264,-1041"/>
<text text-anchor="start" x="81.5" y="-1021.2" font-family="Helvetica,sans-Serif" font-weight="bold" font-size="16.00" fill="#707070">Subnet</text>
<text text-anchor="start" x="81.5" y="-996.2" font-family="Helvetica,sans-Serif" font-size="16.00" fill="#383838">Ext&#45;Net::51.89.175.0/24</text>
</g>
<!-- Subnet::::4580ccc5&#45;9c0c&#45;4bdc&#45;ac21&#45;eeb9dc7ee9a4&#45;&gt;Network::::6011fbc9&#45;4cbf&#45;46a4&#45;8452&#45;6890a340b60b -->
<g id="edge3" class="edge">
<title>Subnet::::4580ccc5&#45;9c0c&#45;4bdc&#45;ac21&#45;eeb9dc7ee9a4&#45;&gt;Network::::6011fbc9&#45;4cbf&#45;46a4&#45;8452&#45;6890a340b60b</title>
<path fill="none" stroke="#707070" d="M264.28,-1000.61C280.89,-994.84 296.73,-986.37 309,-974 346.06,-936.64 372.14,-782.81 382.74,-709.37"/>
<polygon fill="#707070" stroke="#707070" points="386.25,-709.54 384.19,-699.15 379.32,-708.56 386.25,-709.54"/>
</g>
<!-- Subnet::::52032c36&#45;d882&#45;46f4&#45;92a9&#45;a982824872ad -->
<g id="node4" class="node">
<title>Subnet::::52032c36&#45;d882&#45;46f4&#45;92a9&#45;a982824872ad</title>
<polygon fill="#e5e5e5" stroke="#dddddd" points="264,-965 69,-965 69,-907 264,-907 264,-965"/>
<text text-anchor="start" x="81.5" y="-945.2" font-family="Helvetica,sans-Serif" font-weight="bold" font-size="16.00" fill="#707070">Subnet</text>
<text text-anchor="start" x="81.5" y="-920.2" font-family="Helvetica,sans-Serif" font-size="16.00" fill="#383838">Ext&#45;Net::51.89.136.0/23</text>
</g>
<!-- Subnet::::52032c36&#45;d882&#45;46f4&#45;92a9&#45;a982824872ad&#45;&gt;Network::::6011fbc9&#45;4cbf&#45;46a4&#45;8452&#45;6890a340b60b -->
<g id="edge4" class="edge">
<title>Subnet::::52032c36&#45;d882&#45;46f4&#45;92a9&#45;a982824872ad&#45;&gt;Network::::6011fbc9&#45;4cbf&#45;46a4&#45;8452&#45;6890a340b60b</title>
<path fill="none" stroke="#707070" d="M264.24,-923.56C280.66,-917.87 296.43,-909.7 309,-898 362.52,-848.16 379.79,-760.26 385.35,-709.39"/>
<polygon fill="#707070" stroke="#707070" points="388.87,-709.42 386.37,-699.13 381.9,-708.73 388.87,-709.42"/>
</g>
<!-- Subnet::::61ec11cf&#45;d70f&#45;46d3&#45;a523&#45;98f193a53a65 -->
<g id="node5" class="node">
<title>Subnet::::61ec11cf&#45;d70f&#45;46d3&#45;a523&#45;98f193a53a65</title>
<polygon fill="#e5e5e5" stroke="#dddddd" points="309,-889 24,-889 24,-831 309,-831 309,-889"/>
<text text-anchor="start" x="36.5" y="-869.2" font-family="Helvetica,sans-Serif" font-weight="bold" font-size="16.00" fill="#707070">Subnet</text>
<text text-anchor="start" x="36.5" y="-844.2" font-family="Helvetica,sans-Serif" font-size="16.00" fill="#383838">subnet_2001:41d0:801:1000::/56::...</text>
</g>
<!-- Subnet::::61ec11cf&#45;d70f&#45;46d3&#45;a523&#45;98f193a53a65&#45;&gt;Network::::6011fbc9&#45;4cbf&#45;46a4&#45;8452&#45;6890a340b60b -->
<g id="edge5" class="edge">
<title>Subnet::::61ec11cf&#45;d70f&#45;46d3&#45;a523&#45;98f193a53a65&#45;&gt;Network::::6011fbc9&#45;4cbf&#45;46a4&#45;8452&#45;6890a340b60b</title>
<path fill="none" stroke="#707070" d="M296.1,-830.98C300.61,-828.25 304.94,-825.27 309,-822 344.87,-793.18 366.24,-743.67 377.53,-709.01"/>
<polygon fill="#707070" stroke="#707070" points="380.95,-709.8 380.59,-699.21 374.27,-707.72 380.95,-709.8"/>
</g>
<!-- Subnet::::a52ad8ee&#45;b9ef&#45;4f8f&#45;9f34&#45;320400b84676 -->
<g id="node6" class="node">
<title>Subnet::::a52ad8ee&#45;b9ef&#45;4f8f&#45;9f34&#45;320400b84676</title>
<polygon fill="#e5e5e5" stroke="#dddddd" points="273,-813 60,-813 60,-755 273,-755 273,-813"/>
<text text-anchor="start" x="72.5" y="-793.2" font-family="Helvetica,sans-Serif" font-weight="bold" font-size="16.00" fill="#707070">Subnet</text>
<text text-anchor="start" x="72.5" y="-768.2" font-family="Helvetica,sans-Serif" font-size="16.00" fill="#383838">Ext&#45;Net::198.244.140.0/23</text>
</g>
<!-- Subnet::::a52ad8ee&#45;b9ef&#45;4f8f&#45;9f34&#45;320400b84676&#45;&gt;Network::::6011fbc9&#45;4cbf&#45;46a4&#45;8452&#45;6890a340b60b -->
<g id="edge6" class="edge">
<title>Subnet::::a52ad8ee&#45;b9ef&#45;4f8f&#45;9f34&#45;320400b84676&#45;&gt;Network::::6011fbc9&#45;4cbf&#45;46a4&#45;8452&#45;6890a340b60b</title>
<path fill="none" stroke="#707070" d="M273.03,-762.07C285.54,-757.62 297.82,-752.32 309,-746 326.9,-735.89 343.75,-720.78 357.26,-706.7"/>
<polygon fill="#707070" stroke="#707070" points="360.16,-708.72 364.41,-699.01 355.03,-703.95 360.16,-708.72"/>
</g>
<!-- Subnet::::a9b2fe89&#45;4635&#45;42d0&#45;8c79&#45;687c73e30ef4 -->
<g id="node7" class="node">
<title>Subnet::::a9b2fe89&#45;4635&#45;42d0&#45;8c79&#45;687c73e30ef4</title>
<polygon fill="#e5e5e5" stroke="#dddddd" points="268.5,-737 64.5,-737 64.5,-679 268.5,-679 268.5,-737"/>
<text text-anchor="start" x="76.5" y="-717.2" font-family="Helvetica,sans-Serif" font-weight="bold" font-size="16.00" fill="#707070">Subnet</text>
<text text-anchor="start" x="76.5" y="-692.2" font-family="Helvetica,sans-Serif" font-size="16.00" fill="#383838">Ext&#45;Net::51.195.232.0/23</text>
</g>
<!-- Subnet::::a9b2fe89&#45;4635&#45;42d0&#45;8c79&#45;687c73e30ef4&#45;&gt;Network::::6011fbc9&#45;4cbf&#45;46a4&#45;8452&#45;6890a340b60b -->
<g id="edge7" class="edge">
<title>Subnet::::a9b2fe89&#45;4635&#45;42d0&#45;8c79&#45;687c73e30ef4&#45;&gt;Network::::6011fbc9&#45;4cbf&#45;46a4&#45;8452&#45;6890a340b60b</title>
<path fill="none" stroke="#707070" d="M268.72,-690.56C291.56,-686.62 314.93,-682.59 334.86,-679.16"/>
<polygon fill="#707070" stroke="#707070" points="335.69,-682.57 344.95,-677.42 334.5,-675.67 335.69,-682.57"/>
</g>
<!-- Subnet::::bc646bbb&#45;f400&#45;425c&#45;b56b&#45;1a40a4c68925 -->
<g id="node8" class="node">
<title>Subnet::::bc646bbb&#45;f400&#45;425c&#45;b56b&#45;1a40a4c68925</title>
<polygon fill="#e5e5e5" stroke="#dddddd" points="264,-661 69,-661 69,-603 264,-603 264,-661"/>
<text text-anchor="start" x="81.5" y="-641.2" font-family="Helvetica,sans-Serif" font-weight="bold" font-size="16.00" fill="#707070">Subnet</text>
<text text-anchor="start" x="81.5" y="-616.2" font-family="Helvetica,sans-Serif" font-size="16.00" fill="#383838">Ext&#45;Net::51.89.224.0/22</text>
</g>
<!-- Subnet::::bc646bbb&#45;f400&#45;425c&#45;b56b&#45;1a40a4c68925&#45;&gt;Network::::6011fbc9&#45;4cbf&#45;46a4&#45;8452&#45;6890a340b60b -->
<g id="edge8" class="edge">
<title>Subnet::::bc646bbb&#45;f400&#45;425c&#45;b56b&#45;1a40a4c68925&#45;&gt;Network::::6011fbc9&#45;4cbf&#45;46a4&#45;8452&#45;6890a340b60b</title>
<path fill="none" stroke="#707070" d="M264.21,-648.67C288.48,-652.85 313.63,-657.18 334.87,-660.84"/>
<polygon fill="#707070" stroke="#707070" points="334.52,-664.33 344.97,-662.58 335.71,-657.44 334.52,-664.33"/>
</g>
<!-- Subnet::::d1be9f1a&#45;1935&#45;46c6&#45;9101&#45;0a15de354542 -->
<g id="node9" class="node">
<title>Subnet::::d1be9f1a&#45;1935&#45;46c6&#45;9101&#45;0a15de354542</title>
<polygon fill="#e5e5e5" stroke="#dddddd" points="264,-585 69,-585 69,-527 264,-527 264,-585"/>
<text text-anchor="start" x="81.5" y="-565.2" font-family="Helvetica,sans-Serif" font-weight="bold" font-size="16.00" fill="#707070">Subnet</text>
<text text-anchor="start" x="81.5" y="-540.2" font-family="Helvetica,sans-Serif" font-size="16.00" fill="#383838">Ext&#45;Net::51.75.168.0/24</text>
</g>
<!-- Subnet::::d1be9f1a&#45;1935&#45;46c6&#45;9101&#45;0a15de354542&#45;&gt;Network::::6011fbc9&#45;4cbf&#45;46a4&#45;8452&#45;6890a340b60b -->
<g id="edge9" class="edge">
<title>Subnet::::d1be9f1a&#45;1935&#45;46c6&#45;9101&#45;0a15de354542&#45;&gt;Network::::6011fbc9&#45;4cbf&#45;46a4&#45;8452&#45;6890a340b60b</title>
<path fill="none" stroke="#707070" d="M264.09,-574.91C279.64,-579.91 295.16,-586.18 309,-594 326.9,-604.11 343.75,-619.22 357.26,-633.3"/>
<polygon fill="#707070" stroke="#707070" points="355.03,-636.05 364.41,-640.99 360.16,-631.28 355.03,-636.05"/>
</g>
<!-- Subnet::::d5ded9b4&#45;9814&#45;45b0&#45;9b45&#45;097a081e1036 -->
<g id="node10" class="node">
<title>Subnet::::d5ded9b4&#45;9814&#45;45b0&#45;9b45&#45;097a081e1036</title>
<polygon fill="#e5e5e5" stroke="#dddddd" points="273,-509 60,-509 60,-451 273,-451 273,-509"/>
<text text-anchor="start" x="72.5" y="-489.2" font-family="Helvetica,sans-Serif" font-weight="bold" font-size="16.00" fill="#707070">Subnet</text>
<text text-anchor="start" x="72.5" y="-464.2" font-family="Helvetica,sans-Serif" font-size="16.00" fill="#383838">Ext&#45;Net::198.244.142.0/23</text>
</g>
<!-- Subnet::::d5ded9b4&#45;9814&#45;45b0&#45;9b45&#45;097a081e1036&#45;&gt;Network::::6011fbc9&#45;4cbf&#45;46a4&#45;8452&#45;6890a340b60b -->
<g id="edge10" class="edge">
<title>Subnet::::d5ded9b4&#45;9814&#45;45b0&#45;9b45&#45;097a081e1036&#45;&gt;Network::::6011fbc9&#45;4cbf&#45;46a4&#45;8452&#45;6890a340b60b</title>
<path fill="none" stroke="#707070" d="M273.13,-497.71C286.04,-502.85 298.39,-509.48 309,-518 344.87,-546.82 366.24,-596.33 377.53,-630.99"/>
<polygon fill="#707070" stroke="#707070" points="374.27,-632.28 380.59,-640.79 380.95,-630.2 374.27,-632.28"/>
</g>
<!-- Subnet::::d88fd0df&#45;7438&#45;43d1&#45;a1d2&#45;f9e68f322934 -->
<g id="node11" class="node">
<title>Subnet::::d88fd0df&#45;7438&#45;43d1&#45;a1d2&#45;f9e68f322934</title>
<polygon fill="#e5e5e5" stroke="#dddddd" points="264,-433 69,-433 69,-375 264,-375 264,-433"/>
<text text-anchor="start" x="81.5" y="-413.2" font-family="Helvetica,sans-Serif" font-weight="bold" font-size="16.00" fill="#707070">Subnet</text>
<text text-anchor="start" x="81.5" y="-388.2" font-family="Helvetica,sans-Serif" font-size="16.00" fill="#383838">Ext&#45;Net::51.75.169.0/24</text>
</g>
<!-- Subnet::::d88fd0df&#45;7438&#45;43d1&#45;a1d2&#45;f9e68f322934&#45;&gt;Network::::6011fbc9&#45;4cbf&#45;46a4&#45;8452&#45;6890a340b60b -->
<g id="edge11" class="edge">
<title>Subnet::::d88fd0df&#45;7438&#45;43d1&#45;a1d2&#45;f9e68f322934&#45;&gt;Network::::6011fbc9&#45;4cbf&#45;46a4&#45;8452&#45;6890a340b60b</title>
<path fill="none" stroke="#707070" d="M264.24,-416.44C280.66,-422.13 296.43,-430.3 309,-442 362.52,-491.84 379.79,-579.74 385.35,-630.61"/>
<polygon fill="#707070" stroke="#707070" points="381.9,-631.27 386.37,-640.87 388.87,-630.58 381.9,-631.27"/>
</g>
<!-- Subnet::::e5d870eb&#45;17f3&#45;486a&#45;8117&#45;490d5951eb99 -->
<g id="node12" class="node">
<title>Subnet::::e5d870eb&#45;17f3&#45;486a&#45;8117&#45;490d5951eb99</title>
<polygon fill="#e5e5e5" stroke="#dddddd" points="304.5,-357 28.5,-357 28.5,-299 304.5,-299 304.5,-357"/>
<text text-anchor="start" x="40.5" y="-337.2" font-family="Helvetica,sans-Serif" font-weight="bold" font-size="16.00" fill="#707070">Subnet</text>
<text text-anchor="start" x="40.5" y="-312.2" font-family="Helvetica,sans-Serif" font-size="16.00" fill="#383838">subnet_54.37.0.0/21::54.37.0.0/2...</text>
</g>
<!-- Subnet::::e5d870eb&#45;17f3&#45;486a&#45;8117&#45;490d5951eb99&#45;&gt;Network::::6011fbc9&#45;4cbf&#45;46a4&#45;8452&#45;6890a340b60b -->
<g id="edge12" class="edge">
<title>Subnet::::e5d870eb&#45;17f3&#45;486a&#45;8117&#45;490d5951eb99&#45;&gt;Network::::6011fbc9&#45;4cbf&#45;46a4&#45;8452&#45;6890a340b60b</title>
<path fill="none" stroke="#707070" d="M298.64,-357.03C302.31,-359.77 305.78,-362.75 309,-366 346.06,-403.36 372.14,-557.19 382.74,-630.63"/>
<polygon fill="#707070" stroke="#707070" points="379.32,-631.44 384.19,-640.85 386.25,-630.46 379.32,-631.44"/>
</g>
<!-- Subnet::::eb0e5ee7&#45;23fb&#45;4b8f&#45;8984&#45;309e9d0b4ce5 -->
<g id="node13" class="node">
<title>Subnet::::eb0e5ee7&#45;23fb&#45;4b8f&#45;8984&#45;309e9d0b4ce5</title>
<polygon fill="#e5e5e5" stroke="#dddddd" points="273,-281 60,-281 60,-223 273,-223 273,-281"/>
<text text-anchor="start" x="72.5" y="-261.2" font-family="Helvetica,sans-Serif" font-weight="bold" font-size="16.00" fill="#707070">Subnet</text>
<text text-anchor="start" x="72.5" y="-236.2" font-family="Helvetica,sans-Serif" font-size="16.00" fill="#383838">Ext&#45;Net::198.244.152.0/21</text>
</g>
<!-- Subnet::::eb0e5ee7&#45;23fb&#45;4b8f&#45;8984&#45;309e9d0b4ce5&#45;&gt;Network::::6011fbc9&#45;4cbf&#45;46a4&#45;8452&#45;6890a340b60b -->
<g id="edge13" class="edge">
<title>Subnet::::eb0e5ee7&#45;23fb&#45;4b8f&#45;8984&#45;309e9d0b4ce5&#45;&gt;Network::::6011fbc9&#45;4cbf&#45;46a4&#45;8452&#45;6890a340b60b</title>
<path fill="none" stroke="#707070" d="M273.03,-266.08C286.51,-271.73 299.05,-279.46 309,-290 355.34,-339.08 377.54,-544.1 384.99,-630.9"/>
<polygon fill="#707070" stroke="#707070" points="381.51,-631.21 385.83,-640.88 388.48,-630.63 381.51,-631.21"/>
</g>
<!-- Subnet::::f9597c7b&#45;7eda&#45;4cd3&#45;94a6&#45;6093469bcb44 -->
<g id="node14" class="node">
<title>Subnet::::f9597c7b&#45;7eda&#45;4cd3&#45;94a6&#45;6093469bcb44</title>
<polygon fill="#e5e5e5" stroke="#dddddd" points="264,-205 69,-205 69,-147 264,-147 264,-205"/>
<text text-anchor="start" x="81.5" y="-185.2" font-family="Helvetica,sans-Serif" font-weight="bold" font-size="16.00" fill="#707070">Subnet</text>
<text text-anchor="start" x="81.5" y="-160.2" font-family="Helvetica,sans-Serif" font-size="16.00" fill="#383838">Ext&#45;Net::51.68.221.0/24</text>
</g>
<!-- Subnet::::f9597c7b&#45;7eda&#45;4cd3&#45;94a6&#45;6093469bcb44&#45;&gt;Network::::6011fbc9&#45;4cbf&#45;46a4&#45;8452&#45;6890a340b60b -->
<g id="edge14" class="edge">
<title>Subnet::::f9597c7b&#45;7eda&#45;4cd3&#45;94a6&#45;6093469bcb44&#45;&gt;Network::::6011fbc9&#45;4cbf&#45;46a4&#45;8452&#45;6890a340b60b</title>
<path fill="none" stroke="#707070" d="M264.03,-186.21C280.97,-192.05 296.99,-200.85 309,-214 364.6,-274.9 381.83,-531.32 386.47,-630.55"/>
<polygon fill="#707070" stroke="#707070" points="382.99,-630.92 386.93,-640.76 389.98,-630.61 382.99,-630.92"/>
</g>
<!-- Server::::c26f0f65&#45;19dd&#45;4063&#45;b35c&#45;6d6a98448f7c -->
<g id="node16" class="node">
<title>Server::::c26f0f65&#45;19dd&#45;4063&#45;b35c&#45;6d6a98448f7c</title>
<polygon fill="#e5e5e5" stroke="#dddddd" points="210.5,-129 122.5,-129 122.5,-71 210.5,-71 210.5,-129"/>
<text text-anchor="start" x="134.5" y="-109.2" font-family="Helvetica,sans-Serif" font-weight="bold" font-size="16.00" fill="#707070">Server</text>
<text text-anchor="start" x="134.5" y="-84.2" font-family="Helvetica,sans-Serif" font-size="16.00" fill="#383838">s1&#45;2&#45;uk1</text>
</g>
</g>
</svg>
