<?xml version="1.0" encoding="UTF-8" standalone="no"?>
<!DOCTYPE svg PUBLIC "-//W3C//DTD SVG 1.1//EN"
 "http://www.w3.org/Graphics/SVG/1.1/DTD/svg11.dtd">
<!-- Generated by graphviz version 3.0.0 (20220226.1711)
 -->
<!-- Title: graphname Pages: 1 -->
<svg width="1501pt" height="571pt"
 viewBox="0.00 0.00 1501.00 571.02" xmlns="http://www.w3.org/2000/svg" xmlns:xlink="http://www.w3.org/1999/xlink">
<g id="graph0" class="graph" transform="scale(1 1) rotate(0) translate(4 567.02)">
<title>graphname</title>
<polygon fill="#fafafa" stroke="transparent" points="-4,4 -4,-567.02 1497,-567.02 1497,4 -4,4"/>
<text text-anchor="start" x="605.5" y="-538.42" font-family="Helvetica,sans-Serif" font-weight="bold" font-size="22.00" fill="#383838">Project wafv2&#45;loadbalancer</text>
<text text-anchor="start" x="743" y="-522.82" font-family="Helvetica,sans-Serif" font-size="14.00"> &#160;</text>
<text text-anchor="start" x="605.5" y="-501.22" font-family="Helvetica,sans-Serif" font-weight="bold" font-size="16.00" fill="#707070">Live Diagram</text>
<g id="clust1" class="cluster">
<title>cluster_aws</title>
<polygon fill="#f5f5f5" stroke="#f5f5f5" points="8,-8 8,-469 1485,-469 1485,-8 8,-8"/>
<text text-anchor="start" x="684.5" y="-23" font-family="Helvetica,sans-Serif" font-weight="bold" font-size="20.00" fill="#707070">Provider aws</text>
</g>
<g id="clust2" class="cluster">
<title>cluster_aws_</title>
<polygon fill="#eeeeee" stroke="#eeeeee" points="16,-54 16,-461 1477,-461 1477,-54 16,-54"/>
<text text-anchor="start" x="746.36" y="-58.3" font-family="Helvetica,sans-Serif" font-size="1.00" fill="#383838"> </text>
</g>
<!-- InternetGateway::::wafv2&#45;igw -->
<g id="node1" class="node">
<title>InternetGateway::::wafv2&#45;igw</title>
<polygon fill="#e5e5e5" stroke="#dddddd" points="1292.5,-433 1101.5,-433 1101.5,-375 1292.5,-375 1292.5,-433"/>
<text text-anchor="start" x="1114" y="-413.2" font-family="Helvetica,sans-Serif" font-weight="bold" font-size="16.00" fill="#707070">EC2::InternetGateway</text>
<text text-anchor="start" x="1114" y="-388.2" font-family="Helvetica,sans-Serif" font-size="16.00" fill="#383838">wafv2&#45;igw</text>
</g>
<!-- Vpc::::wafv2&#45;vpc -->
<g id="node9" class="node">
<title>Vpc::::wafv2&#45;vpc</title>
<polygon fill="#e5e5e5" stroke="#dddddd" points="1469,-309 1372,-309 1372,-251 1469,-251 1469,-309"/>
<text text-anchor="start" x="1384.5" y="-289.2" font-family="Helvetica,sans-Serif" font-weight="bold" font-size="16.00" fill="#707070">EC2::Vpc</text>
<text text-anchor="start" x="1384.5" y="-264.2" font-family="Helvetica,sans-Serif" font-size="16.00" fill="#383838">wafv2&#45;vpc</text>
</g>
<!-- InternetGateway::::wafv2&#45;igw&#45;&gt;Vpc::::wafv2&#45;vpc -->
<g id="edge1" class="edge">
<title>InternetGateway::::wafv2&#45;igw&#45;&gt;Vpc::::wafv2&#45;vpc</title>
<path fill="none" stroke="#707070" d="M1292.8,-385.13C1307.81,-380.12 1322.74,-373.85 1336,-366 1357.28,-353.41 1376.79,-333.98 1391.59,-316.78"/>
<polygon fill="#707070" stroke="#707070" points="1394.32,-318.97 1398.05,-309.06 1388.95,-314.48 1394.32,-318.97"/>
</g>
<!-- InternetGatewayAttachment::::ig&#45;attach::wafv2&#45;igw::wafv2&#45;vpc -->
<g id="node2" class="node">
<title>InternetGatewayAttachment::::ig&#45;attach::wafv2&#45;igw::wafv2&#45;vpc</title>
<polygon fill="#e5e5e5" stroke="#dddddd" points="998,-453 719,-453 719,-395 998,-395 998,-453"/>
<text text-anchor="start" x="731.5" y="-433.2" font-family="Helvetica,sans-Serif" font-weight="bold" font-size="16.00" fill="#707070">EC2::InternetGatewayAttachment</text>
<text text-anchor="start" x="731.5" y="-408.2" font-family="Helvetica,sans-Serif" font-size="16.00" fill="#383838">ig&#45;attach::wafv2&#45;igw::wafv2&#45;vpc</text>
</g>
<!-- InternetGatewayAttachment::::ig&#45;attach::wafv2&#45;igw::wafv2&#45;vpc&#45;&gt;InternetGateway::::wafv2&#45;igw -->
<g id="edge3" class="edge">
<title>InternetGatewayAttachment::::ig&#45;attach::wafv2&#45;igw::wafv2&#45;vpc&#45;&gt;InternetGateway::::wafv2&#45;igw</title>
<path fill="none" stroke="#707070" d="M998.31,-415.75C1029.32,-413.91 1061.71,-411.98 1091.09,-410.24"/>
<polygon fill="#707070" stroke="#707070" points="1091.57,-413.71 1101.34,-409.63 1091.15,-406.73 1091.57,-413.71"/>
</g>
<!-- InternetGatewayAttachment::::ig&#45;attach::wafv2&#45;igw::wafv2&#45;vpc&#45;&gt;Vpc::::wafv2&#45;vpc -->
<g id="edge2" class="edge">
<title>InternetGatewayAttachment::::ig&#45;attach::wafv2&#45;igw::wafv2&#45;vpc&#45;&gt;Vpc::::wafv2&#45;vpc</title>
<path fill="none" stroke="#707070" d="M942.23,-453.01C1043.13,-482.9 1215.13,-515.68 1336,-442 1379.65,-415.39 1401.46,-357.85 1411.61,-319.01"/>
<polygon fill="#707070" stroke="#707070" points="1415.07,-319.63 1414.06,-309.08 1408.27,-317.95 1415.07,-319.63"/>
</g>
<!-- Route::::wafv2&#45;vpc::wafv2&#45;rtb&#45;public&#45;igw&#45;0.0.0.0/0 -->
<g id="node3" class="node">
<title>Route::::wafv2&#45;vpc::wafv2&#45;rtb&#45;public&#45;igw&#45;0.0.0.0/0</title>
<polygon fill="#e5e5e5" stroke="#dddddd" points="635,-453 367,-453 367,-395 635,-395 635,-453"/>
<text text-anchor="start" x="379" y="-433.2" font-family="Helvetica,sans-Serif" font-weight="bold" font-size="16.00" fill="#707070">EC2::Route</text>
<text text-anchor="start" x="379" y="-408.2" font-family="Helvetica,sans-Serif" font-size="16.00" fill="#383838">wafv2&#45;vpc::wafv2&#45;rtb&#45;public&#45;igw&#45;...</text>
</g>
<!-- Route::::wafv2&#45;vpc::wafv2&#45;rtb&#45;public&#45;igw&#45;0.0.0.0/0&#45;&gt;InternetGateway::::wafv2&#45;igw -->
<g id="edge5" class="edge">
<title>Route::::wafv2&#45;vpc::wafv2&#45;rtb&#45;public&#45;igw&#45;0.0.0.0/0&#45;&gt;InternetGateway::::wafv2&#45;igw</title>
<path fill="none" stroke="#707070" d="M631.26,-394.96C652.46,-391.24 674.27,-388.02 695,-386 839.65,-371.9 876.86,-378.51 1022,-386 1044.46,-387.16 1068.48,-389.15 1091.28,-391.4"/>
<polygon fill="#707070" stroke="#707070" points="1091.02,-394.89 1101.32,-392.42 1091.72,-387.93 1091.02,-394.89"/>
</g>
<!-- RouteTable::::wafv2&#45;vpc::wafv2&#45;rtb&#45;public -->
<g id="node4" class="node">
<title>RouteTable::::wafv2&#45;vpc::wafv2&#45;rtb&#45;public</title>
<polygon fill="#e5e5e5" stroke="#dddddd" points="968.5,-325 748.5,-325 748.5,-267 968.5,-267 968.5,-325"/>
<text text-anchor="start" x="760.5" y="-305.2" font-family="Helvetica,sans-Serif" font-weight="bold" font-size="16.00" fill="#707070">EC2::RouteTable</text>
<text text-anchor="start" x="760.5" y="-280.2" font-family="Helvetica,sans-Serif" font-size="16.00" fill="#383838">wafv2&#45;vpc::wafv2&#45;rtb&#45;public</text>
</g>
<!-- Route::::wafv2&#45;vpc::wafv2&#45;rtb&#45;public&#45;igw&#45;0.0.0.0/0&#45;&gt;RouteTable::::wafv2&#45;vpc::wafv2&#45;rtb&#45;public -->
<g id="edge4" class="edge">
<title>Route::::wafv2&#45;vpc::wafv2&#45;rtb&#45;public&#45;igw&#45;0.0.0.0/0&#45;&gt;RouteTable::::wafv2&#45;vpc::wafv2&#45;rtb&#45;public</title>
<path fill="none" stroke="#707070" d="M630.67,-394.96C640.32,-392.14 649.85,-389.15 659,-386 672.02,-381.52 734.37,-353.05 785.77,-329.32"/>
<polygon fill="#707070" stroke="#707070" points="787.28,-332.47 794.89,-325.1 784.35,-326.12 787.28,-332.47"/>
</g>
<!-- Subnet::::wafv2&#45;vpc::wafv2&#45;subnet&#45;public1&#45;us&#45;east&#45;1a -->
<g id="node7" class="node">
<title>Subnet::::wafv2&#45;vpc::wafv2&#45;subnet&#45;public1&#45;us&#45;east&#45;1a</title>
<polygon fill="#e5e5e5" stroke="#dddddd" points="1336,-357 1058,-357 1058,-299 1336,-299 1336,-357"/>
<text text-anchor="start" x="1070" y="-337.2" font-family="Helvetica,sans-Serif" font-weight="bold" font-size="16.00" fill="#707070">EC2::Subnet</text>
<text text-anchor="start" x="1070" y="-312.2" font-family="Helvetica,sans-Serif" font-size="16.00" fill="#383838">wafv2&#45;vpc::wafv2&#45;subnet&#45;public1&#45;...</text>
</g>
<!-- RouteTable::::wafv2&#45;vpc::wafv2&#45;rtb&#45;public&#45;&gt;Subnet::::wafv2&#45;vpc::wafv2&#45;subnet&#45;public1&#45;us&#45;east&#45;1a -->
<g id="edge8" class="edge">
<title>RouteTable::::wafv2&#45;vpc::wafv2&#45;rtb&#45;public&#45;&gt;Subnet::::wafv2&#45;vpc::wafv2&#45;subnet&#45;public1&#45;us&#45;east&#45;1a</title>
<path fill="none" stroke="#707070" d="M968.75,-306.39C993.94,-308.78 1021.14,-311.37 1047.67,-313.89"/>
<polygon fill="#707070" stroke="#707070" points="1047.52,-317.4 1057.8,-314.86 1048.18,-310.43 1047.52,-317.4"/>
</g>
<!-- Subnet::::wafv2&#45;vpc::wafv2&#45;subnet&#45;public2&#45;us&#45;east&#45;1b -->
<g id="node8" class="node">
<title>Subnet::::wafv2&#45;vpc::wafv2&#45;subnet&#45;public2&#45;us&#45;east&#45;1b</title>
<polygon fill="#e5e5e5" stroke="#dddddd" points="1336,-261 1058,-261 1058,-203 1336,-203 1336,-261"/>
<text text-anchor="start" x="1070" y="-241.2" font-family="Helvetica,sans-Serif" font-weight="bold" font-size="16.00" fill="#707070">EC2::Subnet</text>
<text text-anchor="start" x="1070" y="-216.2" font-family="Helvetica,sans-Serif" font-size="16.00" fill="#383838">wafv2&#45;vpc::wafv2&#45;subnet&#45;public2&#45;...</text>
</g>
<!-- RouteTable::::wafv2&#45;vpc::wafv2&#45;rtb&#45;public&#45;&gt;Subnet::::wafv2&#45;vpc::wafv2&#45;subnet&#45;public2&#45;us&#45;east&#45;1b -->
<g id="edge7" class="edge">
<title>RouteTable::::wafv2&#45;vpc::wafv2&#45;rtb&#45;public&#45;&gt;Subnet::::wafv2&#45;vpc::wafv2&#45;subnet&#45;public2&#45;us&#45;east&#45;1b</title>
<path fill="none" stroke="#707070" d="M968.75,-275.22C993.94,-270.43 1021.14,-265.26 1047.67,-260.21"/>
<polygon fill="#707070" stroke="#707070" points="1048.63,-263.59 1057.8,-258.28 1047.33,-256.71 1048.63,-263.59"/>
</g>
<!-- RouteTable::::wafv2&#45;vpc::wafv2&#45;rtb&#45;public&#45;&gt;Vpc::::wafv2&#45;vpc -->
<g id="edge6" class="edge">
<title>RouteTable::::wafv2&#45;vpc::wafv2&#45;rtb&#45;public&#45;&gt;Vpc::::wafv2&#45;vpc</title>
<path fill="none" stroke="#707070" d="M968.71,-292.65C997.73,-291.77 1029.05,-290.84 1058,-290 1165.22,-286.9 1290.34,-283.48 1361.71,-281.55"/>
<polygon fill="#707070" stroke="#707070" points="1361.94,-285.05 1371.84,-281.28 1361.75,-278.05 1361.94,-285.05"/>
</g>
<!-- RouteTableAssociation::::rt&#45;assoc::wafv2&#45;vpc::wafv2&#45;rtb&#45;public::wafv2&#45;vpc::wafv2&#45;subnet&#45;public1&#45;us&#45;east&#45;1a -->
<g id="node5" class="node">
<title>RouteTableAssociation::::rt&#45;assoc::wafv2&#45;vpc::wafv2&#45;rtb&#45;public::wafv2&#45;vpc::wafv2&#45;subnet&#45;public1&#45;us&#45;east&#45;1a</title>
<polygon fill="#e5e5e5" stroke="#dddddd" points="634.5,-377 367.5,-377 367.5,-319 634.5,-319 634.5,-377"/>
<text text-anchor="start" x="380" y="-357.2" font-family="Helvetica,sans-Serif" font-weight="bold" font-size="16.00" fill="#707070">EC2::RouteTableAssociation</text>
<text text-anchor="start" x="380" y="-332.2" font-family="Helvetica,sans-Serif" font-size="16.00" fill="#383838">rt&#45;assoc::wafv2&#45;vpc::wafv2&#45;rtb&#45;p...</text>
</g>
<!-- RouteTableAssociation::::rt&#45;assoc::wafv2&#45;vpc::wafv2&#45;rtb&#45;public::wafv2&#45;vpc::wafv2&#45;subnet&#45;public1&#45;us&#45;east&#45;1a&#45;&gt;RouteTable::::wafv2&#45;vpc::wafv2&#45;rtb&#45;public -->
<g id="edge9" class="edge">
<title>RouteTableAssociation::::rt&#45;assoc::wafv2&#45;vpc::wafv2&#45;rtb&#45;public::wafv2&#45;vpc::wafv2&#45;subnet&#45;public1&#45;us&#45;east&#45;1a&#45;&gt;RouteTable::::wafv2&#45;vpc::wafv2&#45;rtb&#45;public</title>
<path fill="none" stroke="#707070" d="M634.63,-328.6C668.6,-323.63 704.93,-318.32 738.19,-313.45"/>
<polygon fill="#707070" stroke="#707070" points="739.02,-316.87 748.41,-311.96 738.01,-309.94 739.02,-316.87"/>
</g>
<!-- RouteTableAssociation::::rt&#45;assoc::wafv2&#45;vpc::wafv2&#45;rtb&#45;public::wafv2&#45;vpc::wafv2&#45;subnet&#45;public1&#45;us&#45;east&#45;1a&#45;&gt;Subnet::::wafv2&#45;vpc::wafv2&#45;subnet&#45;public1&#45;us&#45;east&#45;1a -->
<g id="edge10" class="edge">
<title>RouteTableAssociation::::rt&#45;assoc::wafv2&#45;vpc::wafv2&#45;rtb&#45;public::wafv2&#45;vpc::wafv2&#45;subnet&#45;public1&#45;us&#45;east&#45;1a&#45;&gt;Subnet::::wafv2&#45;vpc::wafv2&#45;subnet&#45;public1&#45;us&#45;east&#45;1a</title>
<path fill="none" stroke="#707070" d="M634.52,-344.71C739.61,-342.03 890.21,-338.05 1022,-334 1030.36,-333.74 1038.95,-333.47 1047.61,-333.19"/>
<polygon fill="#707070" stroke="#707070" points="1047.93,-336.68 1057.81,-332.86 1047.7,-329.69 1047.93,-336.68"/>
</g>
<!-- RouteTableAssociation::::rt&#45;assoc::wafv2&#45;vpc::wafv2&#45;rtb&#45;public::wafv2&#45;vpc::wafv2&#45;subnet&#45;public2&#45;us&#45;east&#45;1b -->
<g id="node6" class="node">
<title>RouteTableAssociation::::rt&#45;assoc::wafv2&#45;vpc::wafv2&#45;rtb&#45;public::wafv2&#45;vpc::wafv2&#45;subnet&#45;public2&#45;us&#45;east&#45;1b</title>
<polygon fill="#e5e5e5" stroke="#dddddd" points="634.5,-301 367.5,-301 367.5,-243 634.5,-243 634.5,-301"/>
<text text-anchor="start" x="380" y="-281.2" font-family="Helvetica,sans-Serif" font-weight="bold" font-size="16.00" fill="#707070">EC2::RouteTableAssociation</text>
<text text-anchor="start" x="380" y="-256.2" font-family="Helvetica,sans-Serif" font-size="16.00" fill="#383838">rt&#45;assoc::wafv2&#45;vpc::wafv2&#45;rtb&#45;p...</text>
</g>
<!-- RouteTableAssociation::::rt&#45;assoc::wafv2&#45;vpc::wafv2&#45;rtb&#45;public::wafv2&#45;vpc::wafv2&#45;subnet&#45;public2&#45;us&#45;east&#45;1b&#45;&gt;RouteTable::::wafv2&#45;vpc::wafv2&#45;rtb&#45;public -->
<g id="edge11" class="edge">
<title>RouteTableAssociation::::rt&#45;assoc::wafv2&#45;vpc::wafv2&#45;rtb&#45;public::wafv2&#45;vpc::wafv2&#45;subnet&#45;public2&#45;us&#45;east&#45;1b&#45;&gt;RouteTable::::wafv2&#45;vpc::wafv2&#45;rtb&#45;public</title>
<path fill="none" stroke="#707070" d="M634.63,-280.95C668.6,-283.25 704.93,-285.7 738.19,-287.95"/>
<polygon fill="#707070" stroke="#707070" points="738.2,-291.45 748.41,-288.64 738.67,-284.47 738.2,-291.45"/>
</g>
<!-- RouteTableAssociation::::rt&#45;assoc::wafv2&#45;vpc::wafv2&#45;rtb&#45;public::wafv2&#45;vpc::wafv2&#45;subnet&#45;public2&#45;us&#45;east&#45;1b&#45;&gt;Subnet::::wafv2&#45;vpc::wafv2&#45;subnet&#45;public2&#45;us&#45;east&#45;1b -->
<g id="edge12" class="edge">
<title>RouteTableAssociation::::rt&#45;assoc::wafv2&#45;vpc::wafv2&#45;rtb&#45;public::wafv2&#45;vpc::wafv2&#45;subnet&#45;public2&#45;us&#45;east&#45;1b&#45;&gt;Subnet::::wafv2&#45;vpc::wafv2&#45;subnet&#45;public2&#45;us&#45;east&#45;1b</title>
<path fill="none" stroke="#707070" d="M634.61,-262.02C654.83,-260.6 675.47,-259.22 695,-258 813.5,-250.63 947.86,-243.73 1047.58,-238.9"/>
<polygon fill="#707070" stroke="#707070" points="1047.91,-242.39 1057.73,-238.41 1047.58,-235.4 1047.91,-242.39"/>
</g>
<!-- Subnet::::wafv2&#45;vpc::wafv2&#45;subnet&#45;public1&#45;us&#45;east&#45;1a&#45;&gt;Vpc::::wafv2&#45;vpc -->
<g id="edge15" class="edge">
<title>Subnet::::wafv2&#45;vpc::wafv2&#45;subnet&#45;public1&#45;us&#45;east&#45;1a&#45;&gt;Vpc::::wafv2&#45;vpc</title>
<path fill="none" stroke="#707070" d="M1331.96,-298.97C1342.39,-296.71 1352.54,-294.51 1362.01,-292.46"/>
<polygon fill="#707070" stroke="#707070" points="1362.97,-295.83 1372,-290.29 1361.49,-288.99 1362.97,-295.83"/>
</g>
<!-- Subnet::::wafv2&#45;vpc::wafv2&#45;subnet&#45;public2&#45;us&#45;east&#45;1b&#45;&gt;Vpc::::wafv2&#45;vpc -->
<g id="edge16" class="edge">
<title>Subnet::::wafv2&#45;vpc::wafv2&#45;subnet&#45;public2&#45;us&#45;east&#45;1b&#45;&gt;Vpc::::wafv2&#45;vpc</title>
<path fill="none" stroke="#707070" d="M1331.96,-261.03C1342.39,-263.29 1352.54,-265.49 1362.01,-267.54"/>
<polygon fill="#707070" stroke="#707070" points="1361.49,-271.01 1372,-269.71 1362.97,-264.17 1361.49,-271.01"/>
</g>
<!-- Listener::::listener::alb::HTTP::80 -->
<g id="node10" class="node">
<title>Listener::::listener::alb::HTTP::80</title>
<polygon fill="#e5e5e5" stroke="#dddddd" points="307,-229 24,-229 24,-171 307,-171 307,-229"/>
<text text-anchor="start" x="36.5" y="-209.2" font-family="Helvetica,sans-Serif" font-weight="bold" font-size="16.00" fill="#707070">ElasticLoadBalancingV2::Listener</text>
<text text-anchor="start" x="36.5" y="-184.2" font-family="Helvetica,sans-Serif" font-size="16.00" fill="#383838">listener::alb::HTTP::80</text>
</g>
<!-- LoadBalancer::::alb -->
<g id="node14" class="node">
<title>LoadBalancer::::alb</title>
<polygon fill="#e5e5e5" stroke="#dddddd" points="1022,-226 695,-226 695,-168 1022,-168 1022,-226"/>
<text text-anchor="start" x="707.5" y="-206.2" font-family="Helvetica,sans-Serif" font-weight="bold" font-size="16.00" fill="#707070">ElasticLoadBalancingV2::LoadBalancer</text>
<text text-anchor="start" x="707.5" y="-181.2" font-family="Helvetica,sans-Serif" font-size="16.00" fill="#383838">alb</text>
</g>
<!-- Listener::::listener::alb::HTTP::80&#45;&gt;LoadBalancer::::alb -->
<g id="edge17" class="edge">
<title>Listener::::listener::alb::HTTP::80&#45;&gt;LoadBalancer::::alb</title>
<path fill="none" stroke="#707070" d="M307.1,-212.16C319.23,-212.9 331.33,-213.54 343,-214 483.33,-219.56 518.68,-220 659,-214 667.38,-213.64 675.96,-213.2 684.62,-212.69"/>
<polygon fill="#707070" stroke="#707070" points="685.04,-216.17 694.81,-212.06 684.62,-209.18 685.04,-216.17"/>
</g>
<!-- TargetGroup::::tg1 -->
<g id="node15" class="node">
<title>TargetGroup::::tg1</title>
<polygon fill="#e5e5e5" stroke="#dddddd" points="659,-205 343,-205 343,-147 659,-147 659,-205"/>
<text text-anchor="start" x="355" y="-185.2" font-family="Helvetica,sans-Serif" font-weight="bold" font-size="16.00" fill="#707070">ElasticLoadBalancingV2::TargetGroup</text>
<text text-anchor="start" x="355" y="-160.2" font-family="Helvetica,sans-Serif" font-size="16.00" fill="#383838">tg1</text>
</g>
<!-- Listener::::listener::alb::HTTP::80&#45;&gt;TargetGroup::::tg1 -->
<g id="edge18" class="edge">
<title>Listener::::listener::alb::HTTP::80&#45;&gt;TargetGroup::::tg1</title>
<path fill="none" stroke="#707070" d="M307.45,-189.86C315.88,-189.25 324.41,-188.64 332.93,-188.02"/>
<polygon fill="#707070" stroke="#707070" points="333.21,-191.51 342.93,-187.3 332.71,-184.53 333.21,-191.51"/>
</g>
<!-- WebACL::::my&#45;webacl -->
<g id="node11" class="node">
<title>WebACL::::my&#45;webacl</title>
<polygon fill="#e5e5e5" stroke="#dddddd" points="936,-129 781,-129 781,-71 936,-71 936,-129"/>
<text text-anchor="start" x="793.5" y="-109.2" font-family="Helvetica,sans-Serif" font-weight="bold" font-size="16.00" fill="#707070">WAFv2::WebACL</text>
<text text-anchor="start" x="793.5" y="-84.2" font-family="Helvetica,sans-Serif" font-size="16.00" fill="#383838">my&#45;webacl</text>
</g>
<!-- WebACLAssociation::::webacl&#45;assoc::my&#45;webacl::alb -->
<g id="node12" class="node">
<title>WebACLAssociation::::webacl&#45;assoc::my&#45;webacl::alb</title>
<polygon fill="#e5e5e5" stroke="#dddddd" points="624,-129 378,-129 378,-71 624,-71 624,-129"/>
<text text-anchor="start" x="390" y="-109.2" font-family="Helvetica,sans-Serif" font-weight="bold" font-size="16.00" fill="#707070">WAFv2::WebACLAssociation</text>
<text text-anchor="start" x="390" y="-84.2" font-family="Helvetica,sans-Serif" font-size="16.00" fill="#383838">webacl&#45;assoc::my&#45;webacl::alb</text>
</g>
<!-- WebACLAssociation::::webacl&#45;assoc::my&#45;webacl::alb&#45;&gt;WebACL::::my&#45;webacl -->
<g id="edge24" class="edge">
<title>WebACLAssociation::::webacl&#45;assoc::my&#45;webacl::alb&#45;&gt;WebACL::::my&#45;webacl</title>
<path fill="none" stroke="#707070" d="M624.34,-100C672.51,-100 726.71,-100 770.72,-100"/>
<polygon fill="#707070" stroke="#707070" points="770.81,-103.5 780.81,-100 770.81,-96.5 770.81,-103.5"/>
</g>
<!-- WebACLAssociation::::webacl&#45;assoc::my&#45;webacl::alb&#45;&gt;LoadBalancer::::alb -->
<g id="edge25" class="edge">
<title>WebACLAssociation::::webacl&#45;assoc::my&#45;webacl::alb&#45;&gt;LoadBalancer::::alb</title>
<path fill="none" stroke="#707070" d="M624.29,-128.95C636.04,-131.93 647.76,-134.97 659,-138 689.85,-146.31 723.21,-155.97 753.61,-165.03"/>
<polygon fill="#707070" stroke="#707070" points="752.79,-168.43 763.37,-167.94 754.8,-161.73 752.79,-168.43"/>
</g>
<!-- SecurityGroup::::sg::wafv2&#45;vpc::default -->
<g id="node13" class="node">
<title>SecurityGroup::::sg::wafv2&#45;vpc::default</title>
<polygon fill="#e5e5e5" stroke="#dddddd" points="1287.5,-167 1106.5,-167 1106.5,-109 1287.5,-109 1287.5,-167"/>
<text text-anchor="start" x="1119" y="-147.2" font-family="Helvetica,sans-Serif" font-weight="bold" font-size="16.00" fill="#707070">EC2::SecurityGroup</text>
<text text-anchor="start" x="1119" y="-122.2" font-family="Helvetica,sans-Serif" font-size="16.00" fill="#383838">sg::wafv2&#45;vpc::default</text>
</g>
<!-- SecurityGroup::::sg::wafv2&#45;vpc::default&#45;&gt;Vpc::::wafv2&#45;vpc -->
<g id="edge13" class="edge">
<title>SecurityGroup::::sg::wafv2&#45;vpc::default&#45;&gt;Vpc::::wafv2&#45;vpc</title>
<path fill="none" stroke="#707070" d="M1285.46,-167.08C1302.89,-174.62 1320.56,-183.6 1336,-194 1355.88,-207.39 1374.77,-226.13 1389.54,-242.71"/>
<polygon fill="#707070" stroke="#707070" points="1387.23,-245.39 1396.44,-250.64 1392.51,-240.8 1387.23,-245.39"/>
</g>
<!-- SecurityGroup::::sg::wafv2&#45;vpc::default&#45;&gt;SecurityGroup::::sg::wafv2&#45;vpc::default -->
<g id="edge14" class="edge">
<title>SecurityGroup::::sg::wafv2&#45;vpc::default&#45;&gt;SecurityGroup::::sg::wafv2&#45;vpc::default</title>
<path fill="none" stroke="#707070" d="M1155.38,-167.38C1155.38,-177.17 1169.25,-185 1197,-185 1215.21,-185 1227.45,-181.63 1233.71,-176.54"/>
<polygon fill="#707070" stroke="#707070" points="1236.98,-177.84 1238.62,-167.38 1230.81,-174.53 1236.98,-177.84"/>
</g>
<!-- LoadBalancer::::alb&#45;&gt;Subnet::::wafv2&#45;vpc::wafv2&#45;subnet&#45;public1&#45;us&#45;east&#45;1a -->
<g id="edge20" class="edge">
<title>LoadBalancer::::alb&#45;&gt;Subnet::::wafv2&#45;vpc::wafv2&#45;subnet&#45;public1&#45;us&#45;east&#45;1a</title>
<path fill="none" stroke="#707070" d="M938.16,-226.11C964.83,-236.09 994.76,-247.41 1022,-258 1052.53,-269.87 1085.94,-283.22 1115.25,-295.06"/>
<polygon fill="#707070" stroke="#707070" points="1114.03,-298.34 1124.61,-298.84 1116.66,-291.85 1114.03,-298.34"/>
</g>
<!-- LoadBalancer::::alb&#45;&gt;Subnet::::wafv2&#45;vpc::wafv2&#45;subnet&#45;public2&#45;us&#45;east&#45;1b -->
<g id="edge19" class="edge">
<title>LoadBalancer::::alb&#45;&gt;Subnet::::wafv2&#45;vpc::wafv2&#45;subnet&#45;public2&#45;us&#45;east&#45;1b</title>
<path fill="none" stroke="#707070" d="M1022.33,-213.94C1030.89,-214.83 1039.47,-215.72 1047.98,-216.6"/>
<polygon fill="#707070" stroke="#707070" points="1047.62,-220.09 1057.93,-217.64 1048.35,-213.12 1047.62,-220.09"/>
</g>
<!-- LoadBalancer::::alb&#45;&gt;SecurityGroup::::sg::wafv2&#45;vpc::default -->
<g id="edge21" class="edge">
<title>LoadBalancer::::alb&#45;&gt;SecurityGroup::::sg::wafv2&#45;vpc::default</title>
<path fill="none" stroke="#707070" d="M1022.33,-168.45C1047.46,-164.04 1072.76,-159.61 1095.97,-155.54"/>
<polygon fill="#707070" stroke="#707070" points="1096.89,-158.93 1106.13,-153.76 1095.68,-152.04 1096.89,-158.93"/>
</g>
<!-- TargetGroup::::tg1&#45;&gt;Vpc::::wafv2&#45;vpc -->
<g id="edge22" class="edge">
<title>TargetGroup::::tg1&#45;&gt;Vpc::::wafv2&#45;vpc</title>
<path fill="none" stroke="#707070" d="M659.18,-161.84C671.3,-160.85 683.34,-159.89 695,-159 767.61,-153.47 956.07,-168.9 1022,-138 1043.07,-128.13 1036.63,-109.19 1058,-100 1171.5,-51.18 1231.86,-33.51 1336,-100 1384.52,-130.98 1405.27,-198.21 1413.84,-241.17"/>
<polygon fill="#707070" stroke="#707070" points="1410.4,-241.81 1415.67,-251 1417.28,-240.53 1410.4,-241.81"/>
</g>
<!-- TargetGroup::::tg1&#45;&gt;LoadBalancer::::alb -->
<g id="edge23" class="edge">
<title>TargetGroup::::tg1&#45;&gt;LoadBalancer::::alb</title>
<path fill="none" stroke="#707070" d="M659.22,-185.29C667.7,-185.79 676.25,-186.29 684.78,-186.8"/>
<polygon fill="#707070" stroke="#707070" points="684.59,-190.29 694.78,-187.39 685.01,-183.3 684.59,-190.29"/>
</g>
</g>
</svg>
