<?xml version="1.0" encoding="UTF-8" standalone="no"?>
<!DOCTYPE svg PUBLIC "-//W3C//DTD SVG 1.1//EN"
 "http://www.w3.org/Graphics/SVG/1.1/DTD/svg11.dtd">
<!-- Generated by graphviz version 7.1.0 (20230121.1956)
 -->
<!-- Title: graphname Pages: 1 -->
<svg width="844pt" height="237pt"
 viewBox="0.00 0.00 844.00 237.00" xmlns="http://www.w3.org/2000/svg" xmlns:xlink="http://www.w3.org/1999/xlink">
<g id="graph0" class="graph" transform="scale(1 1) rotate(0) translate(4 233)">
<title>graphname</title>
<polygon fill="#fafafa" stroke="none" points="-4,4 -4,-233 840,-233 840,4 -4,4"/>
<text text-anchor="start" x="322" y="-204.4" font-family="Helvetica,sans-Serif" font-weight="bold" font-size="22.00" fill="#383838">Project lambda&#45;url</text>
<text text-anchor="start" x="414.5" y="-188.8" font-family="Helvetica,sans-Serif" font-size="14.00"> &#160;</text>
<text text-anchor="start" x="322" y="-167.2" font-family="Helvetica,sans-Serif" font-weight="bold" font-size="16.00" fill="#707070">Target Diagram</text>
<g id="clust1" class="cluster">
<title>cluster_aws</title>
<polygon fill="#f5f5f5" stroke="#f5f5f5" points="8,-8 8,-145 828,-145 828,-8 8,-8"/>
<text text-anchor="start" x="356" y="-23" font-family="Helvetica,sans-Serif" font-weight="bold" font-size="20.00" fill="#707070">Provider aws</text>
</g>
<g id="clust2" class="cluster">
<title>cluster_aws_</title>
<polygon fill="#eeeeee" stroke="#eeeeee" points="16,-54 16,-137 820,-137 820,-54 16,-54"/>
<text text-anchor="start" x="417.86" y="-58.3" font-family="Helvetica,sans-Serif" font-size="1.00" fill="#383838"> </text>
</g>
<!-- Role::my&#45;function&#45;url&#45;role&#45;t2xxsa8e -->
<g id="node1" class="node">
<title>Role::my&#45;function&#45;url&#45;role&#45;t2xxsa8e</title>
<polygon fill="#e5e5e5" stroke="#dddddd" points="459,-129 224,-129 224,-71 459,-71 459,-129"/>
<text text-anchor="start" x="236.5" y="-109.2" font-family="Helvetica,sans-Serif" font-weight="bold" font-size="16.00" fill="#707070">IAM::Role</text>
<text text-anchor="start" x="236.5" y="-84.2" font-family="Helvetica,sans-Serif" font-size="16.00" fill="#383838">my&#45;function&#45;url&#45;role&#45;t2xxsa8e</text>
</g>
<!-- Policy::AWSLambdaBasicExecutionRole&#45;9c3ecdb3&#45;2e09&#45;4c84&#45;b290&#45;82222512354a -->
<g id="node2" class="node">
<title>Policy::AWSLambdaBasicExecutionRole&#45;9c3ecdb3&#45;2e09&#45;4c84&#45;b290&#45;82222512354a</title>
<polygon fill="#e5e5e5" stroke="#dddddd" points="812,-129 495,-129 495,-71 812,-71 812,-129"/>
<text text-anchor="start" x="507.5" y="-109.2" font-family="Helvetica,sans-Serif" font-weight="bold" font-size="16.00" fill="#707070">IAM::Policy</text>
<text text-anchor="start" x="507.5" y="-84.2" font-family="Helvetica,sans-Serif" font-size="16.00" fill="#383838">AWSLambdaBasicExecutionRole&#45;9c3e...</text>
</g>
<!-- Role::my&#45;function&#45;url&#45;role&#45;t2xxsa8e&#45;&gt;Policy::AWSLambdaBasicExecutionRole&#45;9c3ecdb3&#45;2e09&#45;4c84&#45;b290&#45;82222512354a -->
<g id="edge1" class="edge">
<title>Role::my&#45;function&#45;url&#45;role&#45;t2xxsa8e&#45;&gt;Policy::AWSLambdaBasicExecutionRole&#45;9c3ecdb3&#45;2e09&#45;4c84&#45;b290&#45;82222512354a</title>
<path fill="none" stroke="#707070" d="M459.26,-100C467.13,-100 475.15,-100 483.21,-100"/>
<polygon fill="#707070" stroke="#707070" points="483.13,-103.5 493.13,-100 483.13,-96.5 483.13,-103.5"/>
</g>
<!-- Function::my&#45;function&#45;url -->
<g id="node3" class="node">
<title>Function::my&#45;function&#45;url</title>
<polygon fill="#e5e5e5" stroke="#dddddd" points="188,-129 24,-129 24,-71 188,-71 188,-129"/>
<text text-anchor="start" x="36" y="-109.2" font-family="Helvetica,sans-Serif" font-weight="bold" font-size="16.00" fill="#707070">Lambda::Function</text>
<text text-anchor="start" x="36" y="-84.2" font-family="Helvetica,sans-Serif" font-size="16.00" fill="#383838">my&#45;function&#45;url</text>
</g>
<!-- Function::my&#45;function&#45;url&#45;&gt;Role::my&#45;function&#45;url&#45;role&#45;t2xxsa8e -->
<g id="edge2" class="edge">
<title>Function::my&#45;function&#45;url&#45;&gt;Role::my&#45;function&#45;url&#45;role&#45;t2xxsa8e</title>
<path fill="none" stroke="#707070" d="M188.34,-100C196.12,-100 204.14,-100 212.23,-100"/>
<polygon fill="#707070" stroke="#707070" points="212.18,-103.5 222.18,-100 212.18,-96.5 212.18,-103.5"/>
</g>
</g>
</svg>
