<?xml version="1.0" encoding="UTF-8" standalone="no"?>
<!DOCTYPE svg PUBLIC "-//W3C//DTD SVG 1.1//EN"
 "http://www.w3.org/Graphics/SVG/1.1/DTD/svg11.dtd">
<!-- Generated by graphviz version 8.0.3 (20230416.2022)
 -->
<!-- Title: graphname Pages: 1 -->
<svg width="800pt" height="617pt"
 viewBox="0.00 0.00 800.00 617.00" xmlns="http://www.w3.org/2000/svg" xmlns:xlink="http://www.w3.org/1999/xlink">
<g id="graph0" class="graph" transform="scale(1 1) rotate(0) translate(4 613)">
<title>graphname</title>
<polygon fill="#fafafa" stroke="none" points="-4,4 -4,-613 796,-613 796,4 -4,4"/>
<text text-anchor="start" x="311.5" y="-584.4" font-family="Helvetica,sans-Serif" font-weight="bold" font-size="22.00" fill="#383838">Project ec2&#45;fleet</text>
<text text-anchor="start" x="392" y="-568.8" font-family="Helvetica,sans-Serif" font-size="14.00"> &#160;</text>
<text text-anchor="start" x="311.5" y="-547.2" font-family="Helvetica,sans-Serif" font-weight="bold" font-size="16.00" fill="#707070">Target Diagram</text>
<g id="clust1" class="cluster">
<title>cluster_aws</title>
<polygon fill="#f5f5f5" stroke="#f5f5f5" points="8,-8 8,-525 784,-525 784,-8 8,-8"/>
<text text-anchor="start" x="334" y="-23" font-family="Helvetica,sans-Serif" font-weight="bold" font-size="20.00" fill="#707070">Provider aws</text>
</g>
<g id="clust2" class="cluster">
<title>cluster_aws_</title>
<polygon fill="#eeeeee" stroke="#eeeeee" points="16,-54 16,-517 776,-517 776,-54 16,-54"/>
<text text-anchor="start" x="395.86" y="-58.3" font-family="Helvetica,sans-Serif" font-size="1.00" fill="#383838"> </text>
</g>
<!-- InternetGateway::my&#45;vpc&#45;igw -->
<g id="node1" class="node">
<title>InternetGateway::my&#45;vpc&#45;igw</title>
<polygon fill="#e5e5e5" stroke="#dddddd" points="577,-475 386,-475 386,-417 577,-417 577,-475"/>
<text text-anchor="start" x="398" y="-455.2" font-family="Helvetica,sans-Serif" font-weight="bold" font-size="16.00" fill="#707070">EC2::InternetGateway</text>
<text text-anchor="start" x="398" y="-430.2" font-family="Helvetica,sans-Serif" font-size="16.00" fill="#383838">my&#45;vpc&#45;igw</text>
</g>
<!-- InternetGatewayAttachment::ig&#45;attach::my&#45;vpc&#45;igw::my&#45;vpc&#45;vpc -->
<g id="node2" class="node">
<title>InternetGatewayAttachment::ig&#45;attach::my&#45;vpc&#45;igw::my&#45;vpc&#45;vpc</title>
<polygon fill="#e5e5e5" stroke="#dddddd" points="303,-509 24,-509 24,-451 303,-451 303,-509"/>
<text text-anchor="start" x="36" y="-489.2" font-family="Helvetica,sans-Serif" font-weight="bold" font-size="16.00" fill="#707070">EC2::InternetGatewayAttachment</text>
<text text-anchor="start" x="36" y="-464.2" font-family="Helvetica,sans-Serif" font-size="16.00" fill="#383838">ig&#45;attach::my&#45;vpc&#45;igw::my&#45;vpc&#45;vp...</text>
</g>
<!-- InternetGatewayAttachment::ig&#45;attach::my&#45;vpc&#45;igw::my&#45;vpc&#45;vpc&#45;&gt;InternetGateway::my&#45;vpc&#45;igw -->
<g id="edge2" class="edge">
<title>InternetGatewayAttachment::ig&#45;attach::my&#45;vpc&#45;igw::my&#45;vpc&#45;vpc&#45;&gt;InternetGateway::my&#45;vpc&#45;igw</title>
<path fill="none" stroke="#707070" d="M303.1,-465.09C327.15,-462.5 351.81,-459.85 374.81,-457.37"/>
<polygon fill="#707070" stroke="#707070" points="375.03,-460.76 384.6,-456.21 374.28,-453.8 375.03,-460.76"/>
</g>
<!-- Vpc::my&#45;vpc&#45;vpc -->
<g id="node11" class="node">
<title>Vpc::my&#45;vpc&#45;vpc</title>
<polygon fill="#e5e5e5" stroke="#dddddd" points="768,-323 660,-323 660,-265 768,-265 768,-323"/>
<text text-anchor="start" x="672" y="-303.2" font-family="Helvetica,sans-Serif" font-weight="bold" font-size="16.00" fill="#707070">EC2::Vpc</text>
<text text-anchor="start" x="672" y="-278.2" font-family="Helvetica,sans-Serif" font-size="16.00" fill="#383838">my&#45;vpc&#45;vpc</text>
</g>
<!-- InternetGatewayAttachment::ig&#45;attach::my&#45;vpc&#45;igw::my&#45;vpc&#45;vpc&#45;&gt;Vpc::my&#45;vpc&#45;vpc -->
<g id="edge1" class="edge">
<title>InternetGatewayAttachment::ig&#45;attach::my&#45;vpc&#45;igw::my&#45;vpc&#45;vpc&#45;&gt;Vpc::my&#45;vpc&#45;vpc</title>
<path fill="none" stroke="#707070" d="M261.67,-509.49C360.86,-533.45 515.28,-553.13 624,-484 675.82,-451.05 697.99,-379.09 707.08,-333.79"/>
<polygon fill="#707070" stroke="#707070" points="710.67,-334.65 709.08,-324.17 703.79,-333.36 710.67,-334.65"/>
</g>
<!-- LaunchTemplate::my&#45;template -->
<g id="node3" class="node">
<title>LaunchTemplate::my&#45;template</title>
<polygon fill="#e5e5e5" stroke="#dddddd" points="259.5,-205 67.5,-205 67.5,-147 259.5,-147 259.5,-205"/>
<text text-anchor="start" x="79.5" y="-185.2" font-family="Helvetica,sans-Serif" font-weight="bold" font-size="16.00" fill="#707070">EC2::LaunchTemplate</text>
<text text-anchor="start" x="79.5" y="-160.2" font-family="Helvetica,sans-Serif" font-size="16.00" fill="#383838">my&#45;template</text>
</g>
<!-- SecurityGroup::sg::my&#45;vpc&#45;vpc::my&#45;security&#45;group -->
<g id="node8" class="node">
<title>SecurityGroup::sg::my&#45;vpc&#45;vpc::my&#45;security&#45;group</title>
<polygon fill="#e5e5e5" stroke="#dddddd" points="620,-171 343,-171 343,-113 620,-113 620,-171"/>
<text text-anchor="start" x="355" y="-151.2" font-family="Helvetica,sans-Serif" font-weight="bold" font-size="16.00" fill="#707070">EC2::SecurityGroup</text>
<text text-anchor="start" x="355" y="-126.2" font-family="Helvetica,sans-Serif" font-size="16.00" fill="#383838">sg::my&#45;vpc&#45;vpc::my&#45;security&#45;grou...</text>
</g>
<!-- LaunchTemplate::my&#45;template&#45;&gt;SecurityGroup::sg::my&#45;vpc&#45;vpc::my&#45;security&#45;group -->
<g id="edge4" class="edge">
<title>LaunchTemplate::my&#45;template&#45;&gt;SecurityGroup::sg::my&#45;vpc&#45;vpc::my&#45;security&#45;group</title>
<path fill="none" stroke="#707070" d="M259.74,-165.75C282.46,-163.31 307.24,-160.64 331.72,-158.01"/>
<polygon fill="#707070" stroke="#707070" points="332,-161.39 341.57,-156.84 331.25,-154.43 332,-161.39"/>
</g>
<!-- Subnet::my&#45;vpc&#45;vpc::my&#45;vpc&#45;subnet&#45;public1&#45;us&#45;east&#45;1a -->
<g id="node9" class="node">
<title>Subnet::my&#45;vpc&#45;vpc::my&#45;vpc&#45;subnet&#45;public1&#45;us&#45;east&#45;1a</title>
<polygon fill="#e5e5e5" stroke="#dddddd" points="624,-247 339,-247 339,-189 624,-189 624,-247"/>
<text text-anchor="start" x="351" y="-227.2" font-family="Helvetica,sans-Serif" font-weight="bold" font-size="16.00" fill="#707070">EC2::Subnet</text>
<text text-anchor="start" x="351" y="-202.2" font-family="Helvetica,sans-Serif" font-size="16.00" fill="#383838">my&#45;vpc&#45;vpc::my&#45;vpc&#45;subnet&#45;public...</text>
</g>
<!-- LaunchTemplate::my&#45;template&#45;&gt;Subnet::my&#45;vpc&#45;vpc::my&#45;vpc&#45;subnet&#45;public1&#45;us&#45;east&#45;1a -->
<g id="edge3" class="edge">
<title>LaunchTemplate::my&#45;template&#45;&gt;Subnet::my&#45;vpc&#45;vpc::my&#45;vpc&#45;subnet&#45;public1&#45;us&#45;east&#45;1a</title>
<path fill="none" stroke="#707070" d="M259.74,-188.66C281.33,-191.53 304.79,-194.65 328.08,-197.74"/>
<polygon fill="#707070" stroke="#707070" points="327.39,-201.31 337.77,-199.16 328.31,-194.37 327.39,-201.31"/>
</g>
<!-- Route::my&#45;vpc&#45;vpc::my&#45;vpc&#45;rtb&#45;public::igw::0.0.0.0/0 -->
<g id="node4" class="node">
<title>Route::my&#45;vpc&#45;vpc::my&#45;vpc&#45;rtb&#45;public::igw::0.0.0.0/0</title>
<polygon fill="#e5e5e5" stroke="#dddddd" points="297.5,-433 29.5,-433 29.5,-375 297.5,-375 297.5,-433"/>
<text text-anchor="start" x="41.5" y="-413.2" font-family="Helvetica,sans-Serif" font-weight="bold" font-size="16.00" fill="#707070">EC2::Route</text>
<text text-anchor="start" x="41.5" y="-388.2" font-family="Helvetica,sans-Serif" font-size="16.00" fill="#383838">my&#45;vpc&#45;vpc::my&#45;vpc&#45;rtb&#45;public::i...</text>
</g>
<!-- Route::my&#45;vpc&#45;vpc::my&#45;vpc&#45;rtb&#45;public::igw::0.0.0.0/0&#45;&gt;InternetGateway::my&#45;vpc&#45;igw -->
<g id="edge5" class="edge">
<title>Route::my&#45;vpc&#45;vpc::my&#45;vpc&#45;rtb&#45;public::igw::0.0.0.0/0&#45;&gt;InternetGateway::my&#45;vpc&#45;igw</title>
<path fill="none" stroke="#707070" d="M297.6,-421.69C323.46,-425.13 350.23,-428.69 375.05,-431.98"/>
<polygon fill="#707070" stroke="#707070" points="374.56,-435.58 384.93,-433.43 375.48,-428.64 374.56,-435.58"/>
</g>
<!-- RouteTable::my&#45;vpc&#45;vpc::my&#45;vpc&#45;rtb&#45;public -->
<g id="node5" class="node">
<title>RouteTable::my&#45;vpc&#45;vpc::my&#45;vpc&#45;rtb&#45;public</title>
<polygon fill="#e5e5e5" stroke="#dddddd" points="602,-399 361,-399 361,-341 602,-341 602,-399"/>
<text text-anchor="start" x="373" y="-379.2" font-family="Helvetica,sans-Serif" font-weight="bold" font-size="16.00" fill="#707070">EC2::RouteTable</text>
<text text-anchor="start" x="373" y="-354.2" font-family="Helvetica,sans-Serif" font-size="16.00" fill="#383838">my&#45;vpc&#45;vpc::my&#45;vpc&#45;rtb&#45;public</text>
</g>
<!-- Route::my&#45;vpc&#45;vpc::my&#45;vpc&#45;rtb&#45;public::igw::0.0.0.0/0&#45;&gt;RouteTable::my&#45;vpc&#45;vpc::my&#45;vpc&#45;rtb&#45;public -->
<g id="edge6" class="edge">
<title>Route::my&#45;vpc&#45;vpc::my&#45;vpc&#45;rtb&#45;public::igw::0.0.0.0/0&#45;&gt;RouteTable::my&#45;vpc&#45;vpc::my&#45;vpc&#45;rtb&#45;public</title>
<path fill="none" stroke="#707070" d="M297.6,-389.68C314.92,-387.82 332.65,-385.91 349.93,-384.05"/>
<polygon fill="#707070" stroke="#707070" points="350.05,-387.45 359.62,-382.9 349.3,-380.49 350.05,-387.45"/>
</g>
<!-- RouteTable::my&#45;vpc&#45;vpc::my&#45;vpc&#45;rtb&#45;public&#45;&gt;Vpc::my&#45;vpc&#45;vpc -->
<g id="edge7" class="edge">
<title>RouteTable::my&#45;vpc&#45;vpc::my&#45;vpc&#45;rtb&#45;public&#45;&gt;Vpc::my&#45;vpc&#45;vpc</title>
<path fill="none" stroke="#707070" d="M597.6,-340.56C606.58,-337.81 615.47,-334.95 624,-332 632.45,-329.08 641.22,-325.73 649.83,-322.26"/>
<polygon fill="#707070" stroke="#707070" points="650.91,-325.19 658.83,-318.15 648.25,-318.72 650.91,-325.19"/>
</g>
<!-- RouteTableAssociation::rt&#45;assoc::my&#45;vpc&#45;vpc::my&#45;vpc&#45;rtb&#45;public::my&#45;vpc&#45;vpc::my&#45;vpc&#45;subnet&#45;public1&#45;us&#45;east&#45;1a -->
<g id="node6" class="node">
<title>RouteTableAssociation::rt&#45;assoc::my&#45;vpc&#45;vpc::my&#45;vpc&#45;rtb&#45;public::my&#45;vpc&#45;vpc::my&#45;vpc&#45;subnet&#45;public1&#45;us&#45;east&#45;1a</title>
<polygon fill="#e5e5e5" stroke="#dddddd" points="300.5,-281 26.5,-281 26.5,-223 300.5,-223 300.5,-281"/>
<text text-anchor="start" x="38.5" y="-261.2" font-family="Helvetica,sans-Serif" font-weight="bold" font-size="16.00" fill="#707070">EC2::RouteTableAssociation</text>
<text text-anchor="start" x="38.5" y="-236.2" font-family="Helvetica,sans-Serif" font-size="16.00" fill="#383838">rt&#45;assoc::my&#45;vpc&#45;vpc::my&#45;vpc&#45;rtb...</text>
</g>
<!-- RouteTableAssociation::rt&#45;assoc::my&#45;vpc&#45;vpc::my&#45;vpc&#45;rtb&#45;public::my&#45;vpc&#45;vpc::my&#45;vpc&#45;subnet&#45;public1&#45;us&#45;east&#45;1a&#45;&gt;RouteTable::my&#45;vpc&#45;vpc::my&#45;vpc&#45;rtb&#45;public -->
<g id="edge8" class="edge">
<title>RouteTableAssociation::rt&#45;assoc::my&#45;vpc&#45;vpc::my&#45;vpc&#45;rtb&#45;public::my&#45;vpc&#45;vpc::my&#45;vpc&#45;subnet&#45;public1&#45;us&#45;east&#45;1a&#45;&gt;RouteTable::my&#45;vpc&#45;vpc::my&#45;vpc&#45;rtb&#45;public</title>
<path fill="none" stroke="#707070" d="M287.47,-281.34C292.84,-283.98 298.05,-286.86 303,-290 323.76,-303.16 318.2,-318.89 339,-332 342.81,-334.4 346.78,-336.65 350.85,-338.77"/>
<polygon fill="#707070" stroke="#707070" points="349.01,-342.25 359.54,-343.44 352.05,-335.94 349.01,-342.25"/>
</g>
<!-- RouteTableAssociation::rt&#45;assoc::my&#45;vpc&#45;vpc::my&#45;vpc&#45;rtb&#45;public::my&#45;vpc&#45;vpc::my&#45;vpc&#45;subnet&#45;public1&#45;us&#45;east&#45;1a&#45;&gt;Subnet::my&#45;vpc&#45;vpc::my&#45;vpc&#45;subnet&#45;public1&#45;us&#45;east&#45;1a -->
<g id="edge9" class="edge">
<title>RouteTableAssociation::rt&#45;assoc::my&#45;vpc&#45;vpc::my&#45;vpc&#45;rtb&#45;public::my&#45;vpc&#45;vpc::my&#45;vpc&#45;subnet&#45;public1&#45;us&#45;east&#45;1a&#45;&gt;Subnet::my&#45;vpc&#45;vpc::my&#45;vpc&#45;subnet&#45;public1&#45;us&#45;east&#45;1a</title>
<path fill="none" stroke="#707070" d="M300.81,-237.33C309.71,-236.38 318.71,-235.41 327.69,-234.44"/>
<polygon fill="#707070" stroke="#707070" points="328.05,-237.82 337.62,-233.27 327.31,-230.86 328.05,-237.82"/>
</g>
<!-- RouteTableAssociation::rt&#45;assoc::my&#45;vpc&#45;vpc::my&#45;vpc&#45;rtb&#45;public::my&#45;vpc&#45;vpc::my&#45;vpc&#45;subnet&#45;public2&#45;us&#45;east&#45;1b -->
<g id="node7" class="node">
<title>RouteTableAssociation::rt&#45;assoc::my&#45;vpc&#45;vpc::my&#45;vpc&#45;rtb&#45;public::my&#45;vpc&#45;vpc::my&#45;vpc&#45;subnet&#45;public2&#45;us&#45;east&#45;1b</title>
<polygon fill="#e5e5e5" stroke="#dddddd" points="300.5,-357 26.5,-357 26.5,-299 300.5,-299 300.5,-357"/>
<text text-anchor="start" x="38.5" y="-337.2" font-family="Helvetica,sans-Serif" font-weight="bold" font-size="16.00" fill="#707070">EC2::RouteTableAssociation</text>
<text text-anchor="start" x="38.5" y="-312.2" font-family="Helvetica,sans-Serif" font-size="16.00" fill="#383838">rt&#45;assoc::my&#45;vpc&#45;vpc::my&#45;vpc&#45;rtb...</text>
</g>
<!-- RouteTableAssociation::rt&#45;assoc::my&#45;vpc&#45;vpc::my&#45;vpc&#45;rtb&#45;public::my&#45;vpc&#45;vpc::my&#45;vpc&#45;subnet&#45;public2&#45;us&#45;east&#45;1b&#45;&gt;RouteTable::my&#45;vpc&#45;vpc::my&#45;vpc&#45;rtb&#45;public -->
<g id="edge10" class="edge">
<title>RouteTableAssociation::rt&#45;assoc::my&#45;vpc&#45;vpc::my&#45;vpc&#45;rtb&#45;public::my&#45;vpc&#45;vpc::my&#45;vpc&#45;subnet&#45;public2&#45;us&#45;east&#45;1b&#45;&gt;RouteTable::my&#45;vpc&#45;vpc::my&#45;vpc&#45;rtb&#45;public</title>
<path fill="none" stroke="#707070" d="M300.81,-346.12C317.11,-348.28 333.73,-350.49 349.95,-352.65"/>
<polygon fill="#707070" stroke="#707070" points="349.18,-356.21 359.55,-354.06 350.1,-349.27 349.18,-356.21"/>
</g>
<!-- Subnet::my&#45;vpc&#45;vpc::my&#45;vpc&#45;subnet&#45;public2&#45;us&#45;east&#45;1b -->
<g id="node10" class="node">
<title>Subnet::my&#45;vpc&#45;vpc::my&#45;vpc&#45;subnet&#45;public2&#45;us&#45;east&#45;1b</title>
<polygon fill="#e5e5e5" stroke="#dddddd" points="624,-323 339,-323 339,-265 624,-265 624,-323"/>
<text text-anchor="start" x="351" y="-303.2" font-family="Helvetica,sans-Serif" font-weight="bold" font-size="16.00" fill="#707070">EC2::Subnet</text>
<text text-anchor="start" x="351" y="-278.2" font-family="Helvetica,sans-Serif" font-size="16.00" fill="#383838">my&#45;vpc&#45;vpc::my&#45;vpc&#45;subnet&#45;public...</text>
</g>
<!-- RouteTableAssociation::rt&#45;assoc::my&#45;vpc&#45;vpc::my&#45;vpc&#45;rtb&#45;public::my&#45;vpc&#45;vpc::my&#45;vpc&#45;subnet&#45;public2&#45;us&#45;east&#45;1b&#45;&gt;Subnet::my&#45;vpc&#45;vpc::my&#45;vpc&#45;subnet&#45;public2&#45;us&#45;east&#45;1b -->
<g id="edge11" class="edge">
<title>RouteTableAssociation::rt&#45;assoc::my&#45;vpc&#45;vpc::my&#45;vpc&#45;rtb&#45;public::my&#45;vpc&#45;vpc::my&#45;vpc&#45;subnet&#45;public2&#45;us&#45;east&#45;1b&#45;&gt;Subnet::my&#45;vpc&#45;vpc::my&#45;vpc&#45;subnet&#45;public2&#45;us&#45;east&#45;1b</title>
<path fill="none" stroke="#707070" d="M300.81,-313.33C309.71,-312.38 318.71,-311.41 327.69,-310.44"/>
<polygon fill="#707070" stroke="#707070" points="328.05,-313.82 337.62,-309.27 327.31,-306.86 328.05,-313.82"/>
</g>
<!-- SecurityGroup::sg::my&#45;vpc&#45;vpc::my&#45;security&#45;group&#45;&gt;Vpc::my&#45;vpc&#45;vpc -->
<g id="edge12" class="edge">
<title>SecurityGroup::sg::my&#45;vpc&#45;vpc::my&#45;security&#45;group&#45;&gt;Vpc::my&#45;vpc&#45;vpc</title>
<path fill="none" stroke="#707070" d="M609.35,-171.46C614.43,-174.07 619.33,-176.91 624,-180 652.68,-199 676.15,-230.31 691.77,-255.32"/>
<polygon fill="#707070" stroke="#707070" points="689.2,-256.82 697.37,-263.55 695.18,-253.19 689.2,-256.82"/>
</g>
<!-- Subnet::my&#45;vpc&#45;vpc::my&#45;vpc&#45;subnet&#45;public1&#45;us&#45;east&#45;1a&#45;&gt;Vpc::my&#45;vpc&#45;vpc -->
<g id="edge13" class="edge">
<title>Subnet::my&#45;vpc&#45;vpc::my&#45;vpc&#45;subnet&#45;public1&#45;us&#45;east&#45;1a&#45;&gt;Vpc::my&#45;vpc&#45;vpc</title>
<path fill="none" stroke="#707070" d="M597.6,-247.44C606.58,-250.19 615.47,-253.05 624,-256 632.45,-258.92 641.22,-262.27 649.83,-265.74"/>
<polygon fill="#707070" stroke="#707070" points="648.25,-269.28 658.83,-269.85 650.91,-262.81 648.25,-269.28"/>
</g>
<!-- Subnet::my&#45;vpc&#45;vpc::my&#45;vpc&#45;subnet&#45;public2&#45;us&#45;east&#45;1b&#45;&gt;Vpc::my&#45;vpc&#45;vpc -->
<g id="edge14" class="edge">
<title>Subnet::my&#45;vpc&#45;vpc::my&#45;vpc&#45;subnet&#45;public2&#45;us&#45;east&#45;1b&#45;&gt;Vpc::my&#45;vpc&#45;vpc</title>
<path fill="none" stroke="#707070" d="M624.21,-294C632.68,-294 640.94,-294 648.8,-294"/>
<polygon fill="#707070" stroke="#707070" points="648.63,-297.5 658.63,-294 648.63,-290.5 648.63,-297.5"/>
</g>
<!-- Role::aws&#45;ec2&#45;spot&#45;fleet&#45;tagging&#45;role -->
<g id="node12" class="node">
<title>Role::aws&#45;ec2&#45;spot&#45;fleet&#45;tagging&#45;role</title>
<polygon fill="#e5e5e5" stroke="#dddddd" points="287,-129 40,-129 40,-71 287,-71 287,-129"/>
<text text-anchor="start" x="52" y="-109.2" font-family="Helvetica,sans-Serif" font-weight="bold" font-size="16.00" fill="#707070">IAM::Role</text>
<text text-anchor="start" x="52" y="-84.2" font-family="Helvetica,sans-Serif" font-size="16.00" fill="#383838">aws&#45;ec2&#45;spot&#45;fleet&#45;tagging&#45;role</text>
</g>
</g>
</svg>
