<?xml version="1.0" encoding="UTF-8" standalone="no"?><svg xmlns="http://www.w3.org/2000/svg" xmlns:xlink="http://www.w3.org/1999/xlink" contentScriptType="application/ecmascript" contentStyleType="text/css" height="398px" preserveAspectRatio="none" style="width:493px;height:398px;background:#FFFFFF;" version="1.1" viewBox="0 0 493 398" width="493px" zoomAndPan="magnify"><defs><filter height="300%" id="f27wrm9um6gg" width="300%" x="-1" y="-1"><feGaussianBlur result="blurOut" stdDeviation="2.0"/><feColorMatrix in="blurOut" result="blurOut2" type="matrix" values="0 0 0 0 0 0 0 0 0 0 0 0 0 0 0 0 0 0 .4 0"/><feOffset dx="4.0" dy="4.0" in="blurOut2" result="blurOut3"/><feBlend in="SourceGraphic" in2="blurOut3" mode="normal"/></filter></defs><g><rect fill="none" height="26.4883" style="stroke:none;stroke-width:1.0;" width="346" x="43.5" y="15"/><text fill="#000000" font-family="sans-serif" font-size="14" font-weight="bold" lengthAdjust="spacing" textLength="336" x="48.5" y="33.5352">Resources for project RestApiGateway Lambda</text><rect fill="#F8F8F8" filter="url(#f27wrm9um6gg)" height="36.4883" rx="12.5" ry="12.5" style="stroke:#383838;stroke-width:1.5;" width="52" x="10" y="198.709"/><text fill="#000000" font-family="sans-serif" font-size="14" lengthAdjust="spacing" textLength="32" x="20" y="222.2441">Infra</text><rect fill="#F8F8F8" filter="url(#f27wrm9um6gg)" height="36.4883" rx="12.5" ry="12.5" style="stroke:#383838;stroke-width:1.5;" width="46" x="112" y="198.709"/><text fill="#000000" font-family="sans-serif" font-size="14" lengthAdjust="spacing" textLength="26" x="122" y="222.2441">aws</text><rect fill="#F8F8F8" filter="url(#f27wrm9um6gg)" height="36.4883" rx="12.5" ry="12.5" style="stroke:#383838;stroke-width:1.5;" width="99" x="208" y="198.709"/><text fill="#000000" font-family="sans-serif" font-size="14" lengthAdjust="spacing" textLength="79" x="218" y="222.2441">APIGateway</text><rect fill="#F8F8F8" filter="url(#f27wrm9um6gg)" height="36.4883" rx="12.5" ry="12.5" style="stroke:#383838;stroke-width:1.5;" width="95" x="357" y="57.4883"/><text fill="#000000" font-family="sans-serif" font-size="14" lengthAdjust="spacing" textLength="75" x="367" y="81.0234">RestApi (1)</text><path d="M307,216.9531 L317,216.9531 C332,216.9531 332,75.7324 347,75.7324 L357,75.7324 " fill="none" style="stroke:#383838;stroke-width:1.0;"/><rect fill="#F8F8F8" filter="url(#f27wrm9um6gg)" height="36.4883" rx="12.5" ry="12.5" style="stroke:#383838;stroke-width:1.5;" width="117" x="357" y="113.9766"/><text fill="#000000" font-family="sans-serif" font-size="14" lengthAdjust="spacing" textLength="97" x="367" y="137.5117">Authorizer (1)</text><path d="M307,216.9531 L317,216.9531 C332,216.9531 332,132.2207 347,132.2207 L357,132.2207 " fill="none" style="stroke:#383838;stroke-width:1.0;"/><rect fill="#F8F8F8" filter="url(#f27wrm9um6gg)" height="36.4883" rx="12.5" ry="12.5" style="stroke:#383838;stroke-width:1.5;" width="85" x="357" y="170.4648"/><text fill="#000000" font-family="sans-serif" font-size="14" lengthAdjust="spacing" textLength="65" x="367" y="194">Model (6)</text><path d="M307,216.9531 L317,216.9531 C332,216.9531 332,188.709 347,188.709 L357,188.709 " fill="none" style="stroke:#383838;stroke-width:1.0;"/><rect fill="#F8F8F8" filter="url(#f27wrm9um6gg)" height="36.4883" rx="12.5" ry="12.5" style="stroke:#383838;stroke-width:1.5;" width="106" x="357" y="226.9531"/><text fill="#000000" font-family="sans-serif" font-size="14" lengthAdjust="spacing" textLength="86" x="367" y="250.4883">Resource (3)</text><path d="M307,216.9531 L317,216.9531 C332,216.9531 332,245.1973 347,245.1973 L357,245.1973 " fill="none" style="stroke:#383838;stroke-width:1.0;"/><rect fill="#F8F8F8" filter="url(#f27wrm9um6gg)" height="36.4883" rx="12.5" ry="12.5" style="stroke:#383838;stroke-width:1.5;" width="95" x="357" y="283.4414"/><text fill="#000000" font-family="sans-serif" font-size="14" lengthAdjust="spacing" textLength="75" x="367" y="306.9766">Method (4)</text><path d="M307,216.9531 L317,216.9531 C332,216.9531 332,301.6855 347,301.6855 L357,301.6855 " fill="none" style="stroke:#383838;stroke-width:1.0;"/><rect fill="#F8F8F8" filter="url(#f27wrm9um6gg)" height="36.4883" rx="12.5" ry="12.5" style="stroke:#383838;stroke-width:1.5;" width="81" x="357" y="339.9297"/><text fill="#000000" font-family="sans-serif" font-size="14" lengthAdjust="spacing" textLength="61" x="367" y="363.4648">Stage (1)</text><path d="M307,216.9531 L317,216.9531 C332,216.9531 332,358.1738 347,358.1738 L357,358.1738 " fill="none" style="stroke:#383838;stroke-width:1.0;"/><path d="M158,216.9531 L168,216.9531 C183,216.9531 183,216.9531 198,216.9531 L208,216.9531 " fill="none" style="stroke:#383838;stroke-width:1.0;"/><path d="M62,216.9531 L72,216.9531 C87,216.9531 87,216.9531 102,216.9531 L112,216.9531 " fill="none" style="stroke:#383838;stroke-width:1.0;"/><!--MD5=[aa2cb7539ab236f3ced047239f2766ed]
@startmindmap
title Resources for project RestApiGateway Lambda
skinparam monochrome true
+ Infra
++ aws
+++ APIGateway
++++ RestApi (1)
++++ Authorizer (1)
++++ Model (6)
++++ Resource (3)
++++ Method (4)
++++ Stage (1)
@endmindmap

PlantUML version 1.2021.8(Sat Jun 26 05:20:59 BRT 2021)
(GPL source distribution)
Java Runtime: OpenJDK Runtime Environment
JVM: OpenJDK 64-Bit Server VM
Default Encoding: UTF-8
Language: en
Country: GB
--></g></svg>