<?xml version="1.0" encoding="UTF-8" standalone="no"?>
<!DOCTYPE svg PUBLIC "-//W3C//DTD SVG 1.1//EN"
 "http://www.w3.org/Graphics/SVG/1.1/DTD/svg11.dtd">
<!-- Generated by graphviz version 7.1.0 (20230121.1956)
 -->
<!-- Title: graphname Pages: 1 -->
<svg width="344pt" height="237pt"
 viewBox="0.00 0.00 344.00 237.00" xmlns="http://www.w3.org/2000/svg" xmlns:xlink="http://www.w3.org/1999/xlink">
<g id="graph0" class="graph" transform="scale(1 1) rotate(0) translate(4 233)">
<title>graphname</title>
<polygon fill="#fafafa" stroke="none" points="-4,4 -4,-233 340,-233 340,4 -4,4"/>
<text text-anchor="start" x="66" y="-204.4" font-family="Helvetica,sans-Serif" font-weight="bold" font-size="22.00" fill="#383838">Project subnet&#45;ipv6</text>
<text text-anchor="start" x="164" y="-188.8" font-family="Helvetica,sans-Serif" font-size="14.00"> &#160;</text>
<text text-anchor="start" x="66" y="-167.2" font-family="Helvetica,sans-Serif" font-weight="bold" font-size="16.00" fill="#707070">Target Diagram</text>
<g id="clust1" class="cluster">
<title>cluster_aws</title>
<polygon fill="#f5f5f5" stroke="#f5f5f5" points="8,-8 8,-145 328,-145 328,-8 8,-8"/>
<text text-anchor="start" x="106" y="-23" font-family="Helvetica,sans-Serif" font-weight="bold" font-size="20.00" fill="#707070">Provider aws</text>
</g>
<g id="clust2" class="cluster">
<title>cluster_aws_</title>
<polygon fill="#eeeeee" stroke="#eeeeee" points="16,-54 16,-137 320,-137 320,-54 16,-54"/>
<text text-anchor="start" x="167.86" y="-58.3" font-family="Helvetica,sans-Serif" font-size="1.00" fill="#383838"> </text>
</g>
<!-- Vpc::vpc&#45;ipv6 -->
<g id="node1" class="node">
<title>Vpc::vpc&#45;ipv6</title>
<polygon fill="#e5e5e5" stroke="#dddddd" points="312,-129 217,-129 217,-71 312,-71 312,-129"/>
<text text-anchor="start" x="229.5" y="-109.2" font-family="Helvetica,sans-Serif" font-weight="bold" font-size="16.00" fill="#707070">EC2::Vpc</text>
<text text-anchor="start" x="229.5" y="-84.2" font-family="Helvetica,sans-Serif" font-size="16.00" fill="#383838">vpc&#45;ipv6</text>
</g>
<!-- Subnet::vpc&#45;ipv6::subnet&#45;a -->
<g id="node2" class="node">
<title>Subnet::vpc&#45;ipv6::subnet&#45;a</title>
<polygon fill="#e5e5e5" stroke="#dddddd" points="181,-129 24,-129 24,-71 181,-71 181,-129"/>
<text text-anchor="start" x="36.5" y="-109.2" font-family="Helvetica,sans-Serif" font-weight="bold" font-size="16.00" fill="#707070">EC2::Subnet</text>
<text text-anchor="start" x="36.5" y="-84.2" font-family="Helvetica,sans-Serif" font-size="16.00" fill="#383838">vpc&#45;ipv6::subnet&#45;a</text>
</g>
<!-- Subnet::vpc&#45;ipv6::subnet&#45;a&#45;&gt;Vpc::vpc&#45;ipv6 -->
<g id="edge1" class="edge">
<title>Subnet::vpc&#45;ipv6::subnet&#45;a&#45;&gt;Vpc::vpc&#45;ipv6</title>
<path fill="none" stroke="#707070" d="M181.16,-100C189.29,-100 197.45,-100 205.31,-100"/>
<polygon fill="#707070" stroke="#707070" points="205.06,-103.5 215.06,-100 205.06,-96.5 205.06,-103.5"/>
</g>
</g>
</svg>
