<?xml version="1.0" encoding="UTF-8" standalone="no"?>
<!DOCTYPE svg PUBLIC "-//W3C//DTD SVG 1.1//EN"
 "http://www.w3.org/Graphics/SVG/1.1/DTD/svg11.dtd">
<!-- Generated by graphviz version 7.1.0 (20230121.1956)
 -->
<!-- Title: graphname Pages: 1 -->
<svg width="1442pt" height="485pt"
 viewBox="0.00 0.00 1442.00 485.00" xmlns="http://www.w3.org/2000/svg" xmlns:xlink="http://www.w3.org/1999/xlink">
<g id="graph0" class="graph" transform="scale(1 1) rotate(0) translate(4 481)">
<title>graphname</title>
<polygon fill="#fafafa" stroke="none" points="-4,4 -4,-481 1438,-481 1438,4 -4,4"/>
<text text-anchor="start" x="565" y="-452.4" font-family="Helvetica,sans-Serif" font-weight="bold" font-size="22.00" fill="#383838">Project datasync&#45;fsxlustre&#45;s3</text>
<text text-anchor="start" x="713.5" y="-436.8" font-family="Helvetica,sans-Serif" font-size="14.00"> &#160;</text>
<text text-anchor="start" x="565" y="-415.2" font-family="Helvetica,sans-Serif" font-weight="bold" font-size="16.00" fill="#707070">Target Diagram</text>
<g id="clust1" class="cluster">
<title>cluster_aws</title>
<polygon fill="#f5f5f5" stroke="#f5f5f5" points="8,-8 8,-393 1426,-393 1426,-8 8,-8"/>
<text text-anchor="start" x="655" y="-23" font-family="Helvetica,sans-Serif" font-weight="bold" font-size="20.00" fill="#707070">Provider aws</text>
</g>
<g id="clust2" class="cluster">
<title>cluster_aws_</title>
<polygon fill="#eeeeee" stroke="#eeeeee" points="16,-54 16,-385 1418,-385 1418,-54 16,-54"/>
<text text-anchor="start" x="716.86" y="-58.3" font-family="Helvetica,sans-Serif" font-size="1.00" fill="#383838"> </text>
</g>
<!-- LogGroup::/aws/datasync -->
<g id="node1" class="node">
<title>LogGroup::/aws/datasync</title>
<polygon fill="#e5e5e5" stroke="#dddddd" points="556,-149 313,-149 313,-91 556,-91 556,-149"/>
<text text-anchor="start" x="325.5" y="-129.2" font-family="Helvetica,sans-Serif" font-weight="bold" font-size="16.00" fill="#707070">CloudWatchLogs::LogGroup</text>
<text text-anchor="start" x="325.5" y="-104.2" font-family="Helvetica,sans-Serif" font-size="16.00" fill="#383838">/aws/datasync</text>
</g>
<!-- LogGroup::/aws/fsx/lustre -->
<g id="node2" class="node">
<title>LogGroup::/aws/fsx/lustre</title>
<polygon fill="#e5e5e5" stroke="#dddddd" points="267,-339 24,-339 24,-281 267,-281 267,-339"/>
<text text-anchor="start" x="36.5" y="-319.2" font-family="Helvetica,sans-Serif" font-weight="bold" font-size="16.00" fill="#707070">CloudWatchLogs::LogGroup</text>
<text text-anchor="start" x="36.5" y="-294.2" font-family="Helvetica,sans-Serif" font-size="16.00" fill="#383838">/aws/fsx/lustre</text>
</g>
<!-- LocationFsxLustre::my&#45;fsx&#45;lustre -->
<g id="node3" class="node">
<title>LocationFsxLustre::my&#45;fsx&#45;lustre</title>
<polygon fill="#e5e5e5" stroke="#dddddd" points="560,-225 309,-225 309,-167 560,-167 560,-225"/>
<text text-anchor="start" x="321.5" y="-205.2" font-family="Helvetica,sans-Serif" font-weight="bold" font-size="16.00" fill="#707070">DataSync::LocationFsxLustre</text>
<text text-anchor="start" x="321.5" y="-180.2" font-family="Helvetica,sans-Serif" font-size="16.00" fill="#383838">my&#45;fsx&#45;lustre</text>
</g>
<!-- SecurityGroup::sg::vpc&#45;default::fsx&#45;lustre -->
<g id="node8" class="node">
<title>SecurityGroup::sg::vpc&#45;default::fsx&#45;lustre</title>
<polygon fill="#e5e5e5" stroke="#dddddd" points="1214.5,-149 1009.5,-149 1009.5,-91 1214.5,-91 1214.5,-149"/>
<text text-anchor="start" x="1022" y="-129.2" font-family="Helvetica,sans-Serif" font-weight="bold" font-size="16.00" fill="#707070">EC2::SecurityGroup</text>
<text text-anchor="start" x="1022" y="-104.2" font-family="Helvetica,sans-Serif" font-size="16.00" fill="#383838">sg::vpc&#45;default::fsx&#45;lustre</text>
</g>
<!-- LocationFsxLustre::my&#45;fsx&#45;lustre&#45;&gt;SecurityGroup::sg::vpc&#45;default::fsx&#45;lustre -->
<g id="edge2" class="edge">
<title>LocationFsxLustre::my&#45;fsx&#45;lustre&#45;&gt;SecurityGroup::sg::vpc&#45;default::fsx&#45;lustre</title>
<path fill="none" stroke="#707070" d="M553.76,-166.55C569.89,-163.26 586.3,-160.27 602,-158 741.27,-137.83 777.7,-148.98 918,-138 943.98,-135.97 971.9,-133.52 998.21,-131.09"/>
<polygon fill="#707070" stroke="#707070" points="998.24,-134.6 1007.88,-130.19 997.59,-127.63 998.24,-134.6"/>
</g>
<!-- FileSystem::my&#45;fsx&#45;lustre -->
<g id="node10" class="node">
<title>FileSystem::my&#45;fsx&#45;lustre</title>
<polygon fill="#e5e5e5" stroke="#dddddd" points="834.5,-225 685.5,-225 685.5,-167 834.5,-167 834.5,-225"/>
<text text-anchor="start" x="698" y="-205.2" font-family="Helvetica,sans-Serif" font-weight="bold" font-size="16.00" fill="#707070">FSx::FileSystem</text>
<text text-anchor="start" x="698" y="-180.2" font-family="Helvetica,sans-Serif" font-size="16.00" fill="#383838">my&#45;fsx&#45;lustre</text>
</g>
<!-- LocationFsxLustre::my&#45;fsx&#45;lustre&#45;&gt;FileSystem::my&#45;fsx&#45;lustre -->
<g id="edge1" class="edge">
<title>LocationFsxLustre::my&#45;fsx&#45;lustre&#45;&gt;FileSystem::my&#45;fsx&#45;lustre</title>
<path fill="none" stroke="#707070" d="M560.11,-196C598.18,-196 639.14,-196 673.94,-196"/>
<polygon fill="#707070" stroke="#707070" points="673.5,-199.5 683.5,-196 673.5,-192.5 673.5,-199.5"/>
</g>
<!-- LocationS3::gc&#45;datasync&#45;fsx&#45;lustre&#45;destination -->
<g id="node4" class="node">
<title>LocationS3::gc&#45;datasync&#45;fsx&#45;lustre&#45;destination</title>
<polygon fill="#e5e5e5" stroke="#dddddd" points="566,-301 303,-301 303,-243 566,-243 566,-301"/>
<text text-anchor="start" x="315.5" y="-281.2" font-family="Helvetica,sans-Serif" font-weight="bold" font-size="16.00" fill="#707070">DataSync::LocationS3</text>
<text text-anchor="start" x="315.5" y="-256.2" font-family="Helvetica,sans-Serif" font-size="16.00" fill="#383838">gc&#45;datasync&#45;fsx&#45;lustre&#45;destinati...</text>
</g>
<!-- Role::AWSDataSyncS3BucketAccess&#45;gc&#45;datasync&#45;fsx&#45;lustre&#45;destination -->
<g id="node11" class="node">
<title>Role::AWSDataSyncS3BucketAccess&#45;gc&#45;datasync&#45;fsx&#45;lustre&#45;destination</title>
<polygon fill="#e5e5e5" stroke="#dddddd" points="918,-301 602,-301 602,-243 918,-243 918,-301"/>
<text text-anchor="start" x="614" y="-281.2" font-family="Helvetica,sans-Serif" font-weight="bold" font-size="16.00" fill="#707070">IAM::Role</text>
<text text-anchor="start" x="614" y="-256.2" font-family="Helvetica,sans-Serif" font-size="16.00" fill="#383838">AWSDataSyncS3BucketAccess&#45;gc&#45;dat...</text>
</g>
<!-- LocationS3::gc&#45;datasync&#45;fsx&#45;lustre&#45;destination&#45;&gt;Role::AWSDataSyncS3BucketAccess&#45;gc&#45;datasync&#45;fsx&#45;lustre&#45;destination -->
<g id="edge3" class="edge">
<title>LocationS3::gc&#45;datasync&#45;fsx&#45;lustre&#45;destination&#45;&gt;Role::AWSDataSyncS3BucketAccess&#45;gc&#45;datasync&#45;fsx&#45;lustre&#45;destination</title>
<path fill="none" stroke="#707070" d="M566.15,-272C574.07,-272 582.1,-272 590.16,-272"/>
<polygon fill="#707070" stroke="#707070" points="590.04,-275.5 600.04,-272 590.04,-268.5 590.04,-275.5"/>
</g>
<!-- Bucket::gc&#45;datasync&#45;fsx&#45;lustre&#45;destination -->
<g id="node13" class="node">
<title>Bucket::gc&#45;datasync&#45;fsx&#45;lustre&#45;destination</title>
<polygon fill="#e5e5e5" stroke="#dddddd" points="891.5,-377 628.5,-377 628.5,-319 891.5,-319 891.5,-377"/>
<text text-anchor="start" x="641" y="-357.2" font-family="Helvetica,sans-Serif" font-weight="bold" font-size="16.00" fill="#707070">S3::Bucket</text>
<text text-anchor="start" x="641" y="-332.2" font-family="Helvetica,sans-Serif" font-size="16.00" fill="#383838">gc&#45;datasync&#45;fsx&#45;lustre&#45;destinati...</text>
</g>
<!-- LocationS3::gc&#45;datasync&#45;fsx&#45;lustre&#45;destination&#45;&gt;Bucket::gc&#45;datasync&#45;fsx&#45;lustre&#45;destination -->
<g id="edge4" class="edge">
<title>LocationS3::gc&#45;datasync&#45;fsx&#45;lustre&#45;destination&#45;&gt;Bucket::gc&#45;datasync&#45;fsx&#45;lustre&#45;destination</title>
<path fill="none" stroke="#707070" d="M561.04,-301.49C581.21,-306.23 602.18,-311.16 622.59,-315.95"/>
<polygon fill="#707070" stroke="#707070" points="621.53,-319.3 632.06,-318.18 623.13,-312.48 621.53,-319.3"/>
</g>
<!-- Task::my&#45;datasync&#45;fsx&#45;lustre -->
<g id="node5" class="node">
<title>Task::my&#45;datasync&#45;fsx&#45;lustre</title>
<polygon fill="#e5e5e5" stroke="#dddddd" points="239.5,-225 51.5,-225 51.5,-167 239.5,-167 239.5,-225"/>
<text text-anchor="start" x="63.5" y="-205.2" font-family="Helvetica,sans-Serif" font-weight="bold" font-size="16.00" fill="#707070">DataSync::Task</text>
<text text-anchor="start" x="63.5" y="-180.2" font-family="Helvetica,sans-Serif" font-size="16.00" fill="#383838">my&#45;datasync&#45;fsx&#45;lustre</text>
</g>
<!-- Task::my&#45;datasync&#45;fsx&#45;lustre&#45;&gt;LogGroup::/aws/datasync -->
<g id="edge5" class="edge">
<title>Task::my&#45;datasync&#45;fsx&#45;lustre&#45;&gt;LogGroup::/aws/datasync</title>
<path fill="none" stroke="#707070" d="M239.68,-171.32C262.53,-165.27 287.33,-158.71 311.32,-152.35"/>
<polygon fill="#707070" stroke="#707070" points="312.04,-155.78 320.81,-149.84 310.25,-149.02 312.04,-155.78"/>
</g>
<!-- Task::my&#45;datasync&#45;fsx&#45;lustre&#45;&gt;LocationFsxLustre::my&#45;fsx&#45;lustre -->
<g id="edge7" class="edge">
<title>Task::my&#45;datasync&#45;fsx&#45;lustre&#45;&gt;LocationFsxLustre::my&#45;fsx&#45;lustre</title>
<path fill="none" stroke="#707070" d="M239.68,-196C258.08,-196 277.75,-196 297.24,-196"/>
<polygon fill="#707070" stroke="#707070" points="297.17,-199.5 307.17,-196 297.17,-192.5 297.17,-199.5"/>
</g>
<!-- Task::my&#45;datasync&#45;fsx&#45;lustre&#45;&gt;LocationS3::gc&#45;datasync&#45;fsx&#45;lustre&#45;destination -->
<g id="edge6" class="edge">
<title>Task::my&#45;datasync&#45;fsx&#45;lustre&#45;&gt;LocationS3::gc&#45;datasync&#45;fsx&#45;lustre&#45;destination</title>
<path fill="none" stroke="#707070" d="M239.68,-220.68C262.53,-226.73 287.33,-233.29 311.32,-239.65"/>
<polygon fill="#707070" stroke="#707070" points="310.25,-242.98 320.81,-242.16 312.04,-236.22 310.25,-242.98"/>
</g>
<!-- Vpc::vpc&#45;default -->
<g id="node6" class="node">
<title>Vpc::vpc&#45;default</title>
<polygon fill="#e5e5e5" stroke="#dddddd" points="1410,-187 1306,-187 1306,-129 1410,-129 1410,-187"/>
<text text-anchor="start" x="1318" y="-167.2" font-family="Helvetica,sans-Serif" font-weight="bold" font-size="16.00" fill="#707070">EC2::Vpc</text>
<text text-anchor="start" x="1318" y="-142.2" font-family="Helvetica,sans-Serif" font-size="16.00" fill="#383838">vpc&#45;default</text>
</g>
<!-- Subnet::vpc&#45;default::subnet&#45;default&#45;f -->
<g id="node7" class="node">
<title>Subnet::vpc&#45;default::subnet&#45;default&#45;f</title>
<polygon fill="#e5e5e5" stroke="#dddddd" points="1225,-225 999,-225 999,-167 1225,-167 1225,-225"/>
<text text-anchor="start" x="1011" y="-205.2" font-family="Helvetica,sans-Serif" font-weight="bold" font-size="16.00" fill="#707070">EC2::Subnet</text>
<text text-anchor="start" x="1011" y="-180.2" font-family="Helvetica,sans-Serif" font-size="16.00" fill="#383838">vpc&#45;default::subnet&#45;default&#45;f</text>
</g>
<!-- Subnet::vpc&#45;default::subnet&#45;default&#45;f&#45;&gt;Vpc::vpc&#45;default -->
<g id="edge8" class="edge">
<title>Subnet::vpc&#45;default::subnet&#45;default&#45;f&#45;&gt;Vpc::vpc&#45;default</title>
<path fill="none" stroke="#707070" d="M1225.36,-178.5C1249.1,-174.8 1273.34,-171.03 1294.43,-167.74"/>
<polygon fill="#707070" stroke="#707070" points="1294.97,-171.2 1304.31,-166.21 1293.89,-164.29 1294.97,-171.2"/>
</g>
<!-- SecurityGroup::sg::vpc&#45;default::fsx&#45;lustre&#45;&gt;Vpc::vpc&#45;default -->
<g id="edge9" class="edge">
<title>SecurityGroup::sg::vpc&#45;default::fsx&#45;lustre&#45;&gt;Vpc::vpc&#45;default</title>
<path fill="none" stroke="#707070" d="M1214.71,-135.84C1241.8,-140.06 1270.27,-144.49 1294.56,-148.28"/>
<polygon fill="#707070" stroke="#707070" points="1293.85,-151.71 1304.27,-149.79 1294.93,-144.79 1293.85,-151.71"/>
</g>
<!-- SecurityGroupRuleIngress::sg::vpc&#45;default::fsx&#45;lustre&#45;rule&#45;ingress&#45;tcp&#45;988 -->
<g id="node9" class="node">
<title>SecurityGroupRuleIngress::sg::vpc&#45;default::fsx&#45;lustre&#45;rule&#45;ingress&#45;tcp&#45;988</title>
<polygon fill="#e5e5e5" stroke="#dddddd" points="894,-129 626,-129 626,-71 894,-71 894,-129"/>
<text text-anchor="start" x="638" y="-109.2" font-family="Helvetica,sans-Serif" font-weight="bold" font-size="16.00" fill="#707070">EC2::SecurityGroupRuleIngress</text>
<text text-anchor="start" x="638" y="-84.2" font-family="Helvetica,sans-Serif" font-size="16.00" fill="#383838">sg::vpc&#45;default::fsx&#45;lustre&#45;rule...</text>
</g>
<!-- SecurityGroupRuleIngress::sg::vpc&#45;default::fsx&#45;lustre&#45;rule&#45;ingress&#45;tcp&#45;988&#45;&gt;SecurityGroup::sg::vpc&#45;default::fsx&#45;lustre -->
<g id="edge10" class="edge">
<title>SecurityGroupRuleIngress::sg::vpc&#45;default::fsx&#45;lustre&#45;rule&#45;ingress&#45;tcp&#45;988&#45;&gt;SecurityGroup::sg::vpc&#45;default::fsx&#45;lustre</title>
<path fill="none" stroke="#707070" d="M894.32,-107.62C928.51,-109.57 964.96,-111.65 998.01,-113.54"/>
<polygon fill="#707070" stroke="#707070" points="997.39,-117.01 1007.57,-114.09 997.79,-110.02 997.39,-117.01"/>
</g>
<!-- FileSystem::my&#45;fsx&#45;lustre&#45;&gt;Subnet::vpc&#45;default::subnet&#45;default&#45;f -->
<g id="edge11" class="edge">
<title>FileSystem::my&#45;fsx&#45;lustre&#45;&gt;Subnet::vpc&#45;default::subnet&#45;default&#45;f</title>
<path fill="none" stroke="#707070" d="M834.8,-196C878.99,-196 936.3,-196 987.25,-196"/>
<polygon fill="#707070" stroke="#707070" points="987.18,-199.5 997.18,-196 987.18,-192.5 987.18,-199.5"/>
</g>
<!-- FileSystem::my&#45;fsx&#45;lustre&#45;&gt;SecurityGroup::sg::vpc&#45;default::fsx&#45;lustre -->
<g id="edge12" class="edge">
<title>FileSystem::my&#45;fsx&#45;lustre&#45;&gt;SecurityGroup::sg::vpc&#45;default::fsx&#45;lustre</title>
<path fill="none" stroke="#707070" d="M834.8,-179.98C882.18,-169.69 944.63,-156.13 998.16,-144.5"/>
<polygon fill="#707070" stroke="#707070" points="998.58,-147.99 1007.61,-142.45 997.1,-141.15 998.58,-147.99"/>
</g>
<!-- Policy::AWSDataSyncS3BucketAccess&#45;gc&#45;datasync&#45;fsx&#45;lustre&#45;destination -->
<g id="node12" class="node">
<title>Policy::AWSDataSyncS3BucketAccess&#45;gc&#45;datasync&#45;fsx&#45;lustre&#45;destination</title>
<polygon fill="#e5e5e5" stroke="#dddddd" points="1270,-301 954,-301 954,-243 1270,-243 1270,-301"/>
<text text-anchor="start" x="966" y="-281.2" font-family="Helvetica,sans-Serif" font-weight="bold" font-size="16.00" fill="#707070">IAM::Policy</text>
<text text-anchor="start" x="966" y="-256.2" font-family="Helvetica,sans-Serif" font-size="16.00" fill="#383838">AWSDataSyncS3BucketAccess&#45;gc&#45;dat...</text>
</g>
<!-- Role::AWSDataSyncS3BucketAccess&#45;gc&#45;datasync&#45;fsx&#45;lustre&#45;destination&#45;&gt;Policy::AWSDataSyncS3BucketAccess&#45;gc&#45;datasync&#45;fsx&#45;lustre&#45;destination -->
<g id="edge13" class="edge">
<title>Role::AWSDataSyncS3BucketAccess&#45;gc&#45;datasync&#45;fsx&#45;lustre&#45;destination&#45;&gt;Policy::AWSDataSyncS3BucketAccess&#45;gc&#45;datasync&#45;fsx&#45;lustre&#45;destination</title>
<path fill="none" stroke="#707070" d="M918.34,-272C926.3,-272 934.31,-272 942.3,-272"/>
<polygon fill="#707070" stroke="#707070" points="942.07,-275.5 952.07,-272 942.07,-268.5 942.07,-275.5"/>
</g>
</g>
</svg>
