<?xml version="1.0" encoding="UTF-8" standalone="no"?>
<!DOCTYPE svg PUBLIC "-//W3C//DTD SVG 1.1//EN"
 "http://www.w3.org/Graphics/SVG/1.1/DTD/svg11.dtd">
<!-- Generated by graphviz version 2.50.0 (20211204.2007)
 -->
<!-- Title: graphname Pages: 1 -->
<svg width="1231pt" height="452pt"
 viewBox="0.00 0.00 1231.00 451.82" xmlns="http://www.w3.org/2000/svg" xmlns:xlink="http://www.w3.org/1999/xlink">
<g id="graph0" class="graph" transform="scale(1 1) rotate(0) translate(4 447.82)">
<title>graphname</title>
<polygon fill="#fafafa" stroke="transparent" points="-4,4 -4,-447.82 1227,-447.82 1227,4 -4,4"/>
<text text-anchor="start" x="440.5" y="-419.22" font-family="Helvetica,sans-Serif" font-weight="bold" font-size="22.00" fill="#383838">Project virtual&#45;machine&#45;scale&#45;set</text>
<text text-anchor="start" x="608" y="-403.62" font-family="Helvetica,sans-Serif" font-size="14.00"> &#160;</text>
<text text-anchor="start" x="440.5" y="-382.02" font-family="Helvetica,sans-Serif" font-weight="bold" font-size="16.00" fill="#707070">Live Diagram</text>
<g id="clust1" class="cluster">
<title>cluster_azure</title>
<polygon fill="#f5f5f5" stroke="#f5f5f5" points="8,-8 8,-357 1215,-357 1215,-8 8,-8"/>
<text text-anchor="start" x="542.5" y="-23" font-family="Helvetica,sans-Serif" font-weight="bold" font-size="20.00" fill="#707070">Provider azure</text>
</g>
<g id="clust2" class="cluster">
<title>cluster_azure_</title>
<polygon fill="#eeeeee" stroke="#eeeeee" points="16,-54 16,-349 1207,-349 1207,-54 16,-54"/>
<text text-anchor="start" x="611.36" y="-58.3" font-family="Helvetica,sans-Serif" font-size="1.00" fill="#383838"> </text>
</g>
<!-- SshPublicKey::::rg&#45;virtual&#45;machine&#45;scale&#45;set::keypair -->
<g id="node1" class="node">
<title>SshPublicKey::::rg&#45;virtual&#45;machine&#45;scale&#45;set::keypair</title>
<polygon fill="#e5e5e5" stroke="#dddddd" points="921.5,-205 656.5,-205 656.5,-147 921.5,-147 921.5,-205"/>
<text text-anchor="start" x="669" y="-185.2" font-family="Helvetica,sans-Serif" font-weight="bold" font-size="16.00" fill="#707070">Compute::SshPublicKey</text>
<text text-anchor="start" x="669" y="-160.2" font-family="Helvetica,sans-Serif" font-size="16.00" fill="#383838">rg&#45;virtual&#45;machine&#45;scale&#45;set::ke...</text>
</g>
<!-- ResourceGroup::::rg&#45;virtual&#45;machine&#45;scale&#45;set -->
<g id="node7" class="node">
<title>ResourceGroup::::rg&#45;virtual&#45;machine&#45;scale&#45;set</title>
<polygon fill="#e5e5e5" stroke="#dddddd" points="1199,-277 961,-277 961,-219 1199,-219 1199,-277"/>
<text text-anchor="start" x="973" y="-257.2" font-family="Helvetica,sans-Serif" font-weight="bold" font-size="16.00" fill="#707070">Resources::ResourceGroup</text>
<text text-anchor="start" x="973" y="-232.2" font-family="Helvetica,sans-Serif" font-size="16.00" fill="#383838">rg&#45;virtual&#45;machine&#45;scale&#45;set</text>
</g>
<!-- SshPublicKey::::rg&#45;virtual&#45;machine&#45;scale&#45;set::keypair&#45;&gt;ResourceGroup::::rg&#45;virtual&#45;machine&#45;scale&#45;set -->
<g id="edge1" class="edge">
<title>SshPublicKey::::rg&#45;virtual&#45;machine&#45;scale&#45;set::keypair&#45;&gt;ResourceGroup::::rg&#45;virtual&#45;machine&#45;scale&#45;set</title>
<path fill="none" stroke="#707070" d="M906.71,-205.08C921.75,-208.82 937.2,-212.67 952.39,-216.46"/>
<polygon fill="#707070" stroke="#707070" points="951.77,-219.91 962.32,-218.93 953.46,-213.12 951.77,-219.91"/>
</g>
<!-- VirtualMachineScaleSet::::rg&#45;virtual&#45;machine&#45;scale&#45;set::vm&#45;scale&#45;set -->
<g id="node2" class="node">
<title>VirtualMachineScaleSet::::rg&#45;virtual&#45;machine&#45;scale&#45;set::vm&#45;scale&#45;set</title>
<polygon fill="#e5e5e5" stroke="#dddddd" points="309,-283 24,-283 24,-225 309,-225 309,-283"/>
<text text-anchor="start" x="36.5" y="-263.2" font-family="Helvetica,sans-Serif" font-weight="bold" font-size="16.00" fill="#707070">Compute::VirtualMachineScaleSet</text>
<text text-anchor="start" x="36.5" y="-238.2" font-family="Helvetica,sans-Serif" font-size="16.00" fill="#383838">rg&#45;virtual&#45;machine&#45;scale&#45;set::vm...</text>
</g>
<!-- VirtualMachineScaleSet::::rg&#45;virtual&#45;machine&#45;scale&#45;set::vm&#45;scale&#45;set&#45;&gt;SshPublicKey::::rg&#45;virtual&#45;machine&#45;scale&#45;set::keypair -->
<g id="edge5" class="edge">
<title>VirtualMachineScaleSet::::rg&#45;virtual&#45;machine&#45;scale&#45;set::vm&#45;scale&#45;set&#45;&gt;SshPublicKey::::rg&#45;virtual&#45;machine&#45;scale&#45;set::keypair</title>
<path fill="none" stroke="#707070" d="M220.05,-224.89C254.45,-207.52 301.02,-187.12 345,-178 444.16,-157.43 558.52,-157.49 646.2,-162.4"/>
<polygon fill="#707070" stroke="#707070" points="646.03,-165.9 656.22,-162.99 646.44,-158.91 646.03,-165.9"/>
</g>
<!-- NetworkSecurityGroup::::rg&#45;virtual&#45;machine&#45;scale&#45;set::basicnsgvirtual&#45;network&#45;nic01 -->
<g id="node4" class="node">
<title>NetworkSecurityGroup::::rg&#45;virtual&#45;machine&#45;scale&#45;set::basicnsgvirtual&#45;network&#45;nic01</title>
<polygon fill="#e5e5e5" stroke="#dddddd" points="617,-245 345,-245 345,-187 617,-187 617,-245"/>
<text text-anchor="start" x="357" y="-225.2" font-family="Helvetica,sans-Serif" font-weight="bold" font-size="16.00" fill="#707070">Network::NetworkSecurityGroup</text>
<text text-anchor="start" x="357" y="-200.2" font-family="Helvetica,sans-Serif" font-size="16.00" fill="#383838">rg&#45;virtual&#45;machine&#45;scale&#45;set::ba...</text>
</g>
<!-- VirtualMachineScaleSet::::rg&#45;virtual&#45;machine&#45;scale&#45;set::vm&#45;scale&#45;set&#45;&gt;NetworkSecurityGroup::::rg&#45;virtual&#45;machine&#45;scale&#45;set::basicnsgvirtual&#45;network&#45;nic01 -->
<g id="edge3" class="edge">
<title>VirtualMachineScaleSet::::rg&#45;virtual&#45;machine&#45;scale&#45;set::vm&#45;scale&#45;set&#45;&gt;NetworkSecurityGroup::::rg&#45;virtual&#45;machine&#45;scale&#45;set::basicnsgvirtual&#45;network&#45;nic01</title>
<path fill="none" stroke="#707070" d="M309.12,-236.78C317.59,-235.75 326.13,-234.71 334.61,-233.68"/>
<polygon fill="#707070" stroke="#707070" points="335.05,-237.15 344.55,-232.47 334.2,-230.2 335.05,-237.15"/>
</g>
<!-- Subnet::::rg&#45;virtual&#45;machine&#45;scale&#45;set::virtual&#45;network::default -->
<g id="node5" class="node">
<title>Subnet::::rg&#45;virtual&#45;machine&#45;scale&#45;set::virtual&#45;network::default</title>
<polygon fill="#e5e5e5" stroke="#dddddd" points="610.5,-321 351.5,-321 351.5,-263 610.5,-263 610.5,-321"/>
<text text-anchor="start" x="364" y="-301.2" font-family="Helvetica,sans-Serif" font-weight="bold" font-size="16.00" fill="#707070">Network::Subnet</text>
<text text-anchor="start" x="364" y="-276.2" font-family="Helvetica,sans-Serif" font-size="16.00" fill="#383838">rg&#45;virtual&#45;machine&#45;scale&#45;set::vi...</text>
</g>
<!-- VirtualMachineScaleSet::::rg&#45;virtual&#45;machine&#45;scale&#45;set::vm&#45;scale&#45;set&#45;&gt;Subnet::::rg&#45;virtual&#45;machine&#45;scale&#45;set::virtual&#45;network::default -->
<g id="edge4" class="edge">
<title>VirtualMachineScaleSet::::rg&#45;virtual&#45;machine&#45;scale&#45;set::vm&#45;scale&#45;set&#45;&gt;Subnet::::rg&#45;virtual&#45;machine&#45;scale&#45;set::virtual&#45;network::default</title>
<path fill="none" stroke="#707070" d="M309.12,-271.22C319.77,-272.52 330.51,-273.82 341.14,-275.11"/>
<polygon fill="#707070" stroke="#707070" points="340.94,-278.62 351.29,-276.35 341.78,-271.67 340.94,-278.62"/>
</g>
<!-- VirtualMachineScaleSet::::rg&#45;virtual&#45;machine&#45;scale&#45;set::vm&#45;scale&#45;set&#45;&gt;ResourceGroup::::rg&#45;virtual&#45;machine&#45;scale&#45;set -->
<g id="edge2" class="edge">
<title>VirtualMachineScaleSet::::rg&#45;virtual&#45;machine&#45;scale&#45;set::vm&#45;scale&#45;set&#45;&gt;ResourceGroup::::rg&#45;virtual&#45;machine&#45;scale&#45;set</title>
<path fill="none" stroke="#707070" d="M220.03,-283.18C254.43,-300.58 301,-320.98 345,-330 597.55,-381.79 674.33,-381.26 925,-321 958.75,-312.89 993.9,-296.88 1022.09,-281.92"/>
<polygon fill="#707070" stroke="#707070" points="1023.85,-284.95 1030.98,-277.11 1020.52,-278.79 1023.85,-284.95"/>
</g>
<!-- NetworkSecurityGroup::::rg&#45;virtual&#45;machine&#45;scale&#45;set::basicnsgrg&#45;virtual&#45;machine&#45;scale&#45;set&#45;vnet&#45;nic01 -->
<g id="node3" class="node">
<title>NetworkSecurityGroup::::rg&#45;virtual&#45;machine&#45;scale&#45;set::basicnsgrg&#45;virtual&#45;machine&#45;scale&#45;set&#45;vnet&#45;nic01</title>
<polygon fill="#e5e5e5" stroke="#dddddd" points="925,-129 653,-129 653,-71 925,-71 925,-129"/>
<text text-anchor="start" x="665" y="-109.2" font-family="Helvetica,sans-Serif" font-weight="bold" font-size="16.00" fill="#707070">Network::NetworkSecurityGroup</text>
<text text-anchor="start" x="665" y="-84.2" font-family="Helvetica,sans-Serif" font-size="16.00" fill="#383838">rg&#45;virtual&#45;machine&#45;scale&#45;set::ba...</text>
</g>
<!-- NetworkSecurityGroup::::rg&#45;virtual&#45;machine&#45;scale&#45;set::basicnsgrg&#45;virtual&#45;machine&#45;scale&#45;set&#45;vnet&#45;nic01&#45;&gt;ResourceGroup::::rg&#45;virtual&#45;machine&#45;scale&#45;set -->
<g id="edge6" class="edge">
<title>NetworkSecurityGroup::::rg&#45;virtual&#45;machine&#45;scale&#45;set::basicnsgrg&#45;virtual&#45;machine&#45;scale&#45;set&#45;vnet&#45;nic01&#45;&gt;ResourceGroup::::rg&#45;virtual&#45;machine&#45;scale&#45;set</title>
<path fill="none" stroke="#707070" d="M904.12,-129.03C911.29,-131.8 918.3,-134.79 925,-138 966.16,-157.75 1008,-188.46 1037.66,-212.42"/>
<polygon fill="#707070" stroke="#707070" points="1035.74,-215.37 1045.7,-218.98 1040.17,-209.94 1035.74,-215.37"/>
</g>
<!-- NetworkSecurityGroup::::rg&#45;virtual&#45;machine&#45;scale&#45;set::basicnsgvirtual&#45;network&#45;nic01&#45;&gt;ResourceGroup::::rg&#45;virtual&#45;machine&#45;scale&#45;set -->
<g id="edge7" class="edge">
<title>NetworkSecurityGroup::::rg&#45;virtual&#45;machine&#45;scale&#45;set::basicnsgvirtual&#45;network&#45;nic01&#45;&gt;ResourceGroup::::rg&#45;virtual&#45;machine&#45;scale&#45;set</title>
<path fill="none" stroke="#707070" d="M617.32,-219.74C705.09,-222.6 821.89,-227.22 925,-234 933.38,-234.55 942,-235.18 950.69,-235.85"/>
<polygon fill="#707070" stroke="#707070" points="950.67,-239.36 960.92,-236.66 951.22,-232.38 950.67,-239.36"/>
</g>
<!-- VirtualNetwork::::rg&#45;virtual&#45;machine&#45;scale&#45;set::virtual&#45;network -->
<g id="node6" class="node">
<title>VirtualNetwork::::rg&#45;virtual&#45;machine&#45;scale&#45;set::virtual&#45;network</title>
<polygon fill="#e5e5e5" stroke="#dddddd" points="918.5,-301 659.5,-301 659.5,-243 918.5,-243 918.5,-301"/>
<text text-anchor="start" x="672" y="-281.2" font-family="Helvetica,sans-Serif" font-weight="bold" font-size="16.00" fill="#707070">Network::VirtualNetwork</text>
<text text-anchor="start" x="672" y="-256.2" font-family="Helvetica,sans-Serif" font-size="16.00" fill="#383838">rg&#45;virtual&#45;machine&#45;scale&#45;set::vi...</text>
</g>
<!-- Subnet::::rg&#45;virtual&#45;machine&#45;scale&#45;set::virtual&#45;network::default&#45;&gt;VirtualNetwork::::rg&#45;virtual&#45;machine&#45;scale&#45;set::virtual&#45;network -->
<g id="edge9" class="edge">
<title>Subnet::::rg&#45;virtual&#45;machine&#45;scale&#45;set::virtual&#45;network::default&#45;&gt;VirtualNetwork::::rg&#45;virtual&#45;machine&#45;scale&#45;set::virtual&#45;network</title>
<path fill="none" stroke="#707070" d="M610.88,-283.58C623.52,-282.75 636.37,-281.91 649.09,-281.08"/>
<polygon fill="#707070" stroke="#707070" points="649.51,-284.56 659.26,-280.41 649.06,-277.57 649.51,-284.56"/>
</g>
<!-- Subnet::::rg&#45;virtual&#45;machine&#45;scale&#45;set::virtual&#45;network::default&#45;&gt;ResourceGroup::::rg&#45;virtual&#45;machine&#45;scale&#45;set -->
<g id="edge8" class="edge">
<title>Subnet::::rg&#45;virtual&#45;machine&#45;scale&#45;set::virtual&#45;network::default&#45;&gt;ResourceGroup::::rg&#45;virtual&#45;machine&#45;scale&#45;set</title>
<path fill="none" stroke="#707070" d="M610.64,-312.77C699.7,-323.37 820.53,-330.24 925,-310 954.74,-304.24 986.02,-292.76 1012.56,-281.22"/>
<polygon fill="#707070" stroke="#707070" points="1014.02,-284.4 1021.74,-277.15 1011.18,-278.01 1014.02,-284.4"/>
</g>
<!-- VirtualNetwork::::rg&#45;virtual&#45;machine&#45;scale&#45;set::virtual&#45;network&#45;&gt;ResourceGroup::::rg&#45;virtual&#45;machine&#45;scale&#45;set -->
<g id="edge10" class="edge">
<title>VirtualNetwork::::rg&#45;virtual&#45;machine&#45;scale&#45;set::virtual&#45;network&#45;&gt;ResourceGroup::::rg&#45;virtual&#45;machine&#45;scale&#45;set</title>
<path fill="none" stroke="#707070" d="M918.86,-261.3C929.47,-260.42 940.19,-259.53 950.8,-258.65"/>
<polygon fill="#707070" stroke="#707070" points="951.24,-262.12 960.92,-257.81 950.66,-255.15 951.24,-262.12"/>
</g>
</g>
</svg>
