<?xml version="1.0" encoding="UTF-8" standalone="no"?>
<!DOCTYPE svg PUBLIC "-//W3C//DTD SVG 1.1//EN"
 "http://www.w3.org/Graphics/SVG/1.1/DTD/svg11.dtd">
<!-- Generated by graphviz version 6.0.0 (20220910.1538)
 -->
<!-- Title: graphname Pages: 1 -->
<svg width="1783pt" height="389pt"
 viewBox="0.00 0.00 1783.00 389.00" xmlns="http://www.w3.org/2000/svg" xmlns:xlink="http://www.w3.org/1999/xlink">
<g id="graph0" class="graph" transform="scale(1 1) rotate(0) translate(4 385)">
<title>graphname</title>
<polygon fill="#fafafa" stroke="none" points="-4,4 -4,-385 1779,-385 1779,4 -4,4"/>
<text text-anchor="start" x="752.5" y="-356.4" font-family="Helvetica,sans-Serif" font-weight="bold" font-size="22.00" fill="#383838">Project flow&#45;logs&#45;firehose</text>
<text text-anchor="start" x="883.5" y="-340.8" font-family="Helvetica,sans-Serif" font-size="14.00"> &#160;</text>
<text text-anchor="start" x="752.5" y="-319.2" font-family="Helvetica,sans-Serif" font-weight="bold" font-size="16.00" fill="#707070">Target Diagram</text>
<g id="clust1" class="cluster">
<title>cluster_aws</title>
<polygon fill="#f5f5f5" stroke="#f5f5f5" points="8,-8 8,-297 1767,-297 1767,-8 8,-8"/>
<text text-anchor="start" x="825.5" y="-23" font-family="Helvetica,sans-Serif" font-weight="bold" font-size="20.00" fill="#707070">Provider aws</text>
</g>
<g id="clust2" class="cluster">
<title>cluster_aws_</title>
<polygon fill="#eeeeee" stroke="#eeeeee" points="16,-54 16,-289 1759,-289 1759,-54 16,-54"/>
<text text-anchor="start" x="887.36" y="-58.3" font-family="Helvetica,sans-Serif" font-size="1.00" fill="#383838"> </text>
</g>
<!-- LogGroup::/aws/kinesisfirehose/delivery&#45;stream&#45;s3 -->
<g id="node1" class="node">
<title>LogGroup::/aws/kinesisfirehose/delivery&#45;stream&#45;s3</title>
<polygon fill="#e5e5e5" stroke="#dddddd" points="1751,-281 1489,-281 1489,-223 1751,-223 1751,-281"/>
<text text-anchor="start" x="1501" y="-261.2" font-family="Helvetica,sans-Serif" font-weight="bold" font-size="16.00" fill="#707070">CloudWatchLogs::LogGroup</text>
<text text-anchor="start" x="1501" y="-236.2" font-family="Helvetica,sans-Serif" font-size="16.00" fill="#383838">/aws/kinesisfirehose/delivery&#45;st...</text>
</g>
<!-- FlowLogs::flow&#45;log&#45;firehose -->
<g id="node2" class="node">
<title>FlowLogs::flow&#45;log&#45;firehose</title>
<polygon fill="#e5e5e5" stroke="#dddddd" points="516,-281 373,-281 373,-223 516,-223 516,-281"/>
<text text-anchor="start" x="385.5" y="-261.2" font-family="Helvetica,sans-Serif" font-weight="bold" font-size="16.00" fill="#707070">EC2::FlowLogs</text>
<text text-anchor="start" x="385.5" y="-236.2" font-family="Helvetica,sans-Serif" font-size="16.00" fill="#383838">flow&#45;log&#45;firehose</text>
</g>
<!-- Vpc::vpc -->
<g id="node3" class="node">
<title>Vpc::vpc</title>
<polygon fill="#e5e5e5" stroke="#dddddd" points="763.5,-205 668.5,-205 668.5,-147 763.5,-147 763.5,-205"/>
<text text-anchor="start" x="681" y="-185.2" font-family="Helvetica,sans-Serif" font-weight="bold" font-size="16.00" fill="#707070">EC2::Vpc</text>
<text text-anchor="start" x="681" y="-160.2" font-family="Helvetica,sans-Serif" font-size="16.00" fill="#383838">vpc</text>
</g>
<!-- FlowLogs::flow&#45;log&#45;firehose&#45;&gt;Vpc::vpc -->
<g id="edge1" class="edge">
<title>FlowLogs::flow&#45;log&#45;firehose&#45;&gt;Vpc::vpc</title>
<path fill="none" stroke="#707070" d="M516.31,-232.03C560.78,-219.49 617.34,-203.54 658.73,-191.87"/>
<polygon fill="#707070" stroke="#707070" points="659.71,-195.23 668.38,-189.15 657.81,-188.49 659.71,-195.23"/>
</g>
<!-- DeliveryStream::delivery&#45;stream&#45;s3 -->
<g id="node7" class="node">
<title>DeliveryStream::delivery&#45;stream&#45;s3</title>
<polygon fill="#e5e5e5" stroke="#dddddd" points="825,-281 607,-281 607,-223 825,-223 825,-281"/>
<text text-anchor="start" x="619" y="-261.2" font-family="Helvetica,sans-Serif" font-weight="bold" font-size="16.00" fill="#707070">Firehose::DeliveryStream</text>
<text text-anchor="start" x="619" y="-236.2" font-family="Helvetica,sans-Serif" font-size="16.00" fill="#383838">delivery&#45;stream&#45;s3</text>
</g>
<!-- FlowLogs::flow&#45;log&#45;firehose&#45;&gt;DeliveryStream::delivery&#45;stream&#45;s3 -->
<g id="edge2" class="edge">
<title>FlowLogs::flow&#45;log&#45;firehose&#45;&gt;DeliveryStream::delivery&#45;stream&#45;s3</title>
<path fill="none" stroke="#707070" d="M516.31,-252C540.96,-252 569.33,-252 596.78,-252"/>
<polygon fill="#707070" stroke="#707070" points="596.84,-255.5 606.84,-252 596.84,-248.5 596.84,-255.5"/>
</g>
<!-- Subnet::vpc::subnet&#45;private1&#45;us&#45;east&#45;1a -->
<g id="node4" class="node">
<title>Subnet::vpc::subnet&#45;private1&#45;us&#45;east&#45;1a</title>
<polygon fill="#e5e5e5" stroke="#dddddd" points="571,-129 318,-129 318,-71 571,-71 571,-129"/>
<text text-anchor="start" x="330.5" y="-109.2" font-family="Helvetica,sans-Serif" font-weight="bold" font-size="16.00" fill="#707070">EC2::Subnet</text>
<text text-anchor="start" x="330.5" y="-84.2" font-family="Helvetica,sans-Serif" font-size="16.00" fill="#383838">vpc::subnet&#45;private1&#45;us&#45;east&#45;1a</text>
</g>
<!-- Subnet::vpc::subnet&#45;private1&#45;us&#45;east&#45;1a&#45;&gt;Vpc::vpc -->
<g id="edge3" class="edge">
<title>Subnet::vpc::subnet&#45;private1&#45;us&#45;east&#45;1a&#45;&gt;Vpc::vpc</title>
<path fill="none" stroke="#707070" d="M548.54,-129.06C585.82,-139.57 626.52,-151.05 658.35,-160.03"/>
<polygon fill="#707070" stroke="#707070" points="657.78,-163.5 668.36,-162.85 659.68,-156.76 657.78,-163.5"/>
</g>
<!-- RouteTable::vpc::rtb&#45;private1&#45;us&#45;east&#45;1a -->
<g id="node5" class="node">
<title>RouteTable::vpc::rtb&#45;private1&#45;us&#45;east&#45;1a</title>
<polygon fill="#e5e5e5" stroke="#dddddd" points="556,-205 333,-205 333,-147 556,-147 556,-205"/>
<text text-anchor="start" x="345.5" y="-185.2" font-family="Helvetica,sans-Serif" font-weight="bold" font-size="16.00" fill="#707070">EC2::RouteTable</text>
<text text-anchor="start" x="345.5" y="-160.2" font-family="Helvetica,sans-Serif" font-size="16.00" fill="#383838">vpc::rtb&#45;private1&#45;us&#45;east&#45;1a</text>
</g>
<!-- RouteTable::vpc::rtb&#45;private1&#45;us&#45;east&#45;1a&#45;&gt;Vpc::vpc -->
<g id="edge4" class="edge">
<title>RouteTable::vpc::rtb&#45;private1&#45;us&#45;east&#45;1a&#45;&gt;Vpc::vpc</title>
<path fill="none" stroke="#707070" d="M556.28,-176C591.35,-176 628.65,-176 658.27,-176"/>
<polygon fill="#707070" stroke="#707070" points="658.42,-179.5 668.42,-176 658.42,-172.5 658.42,-179.5"/>
</g>
<!-- RouteTableAssociation::rt&#45;assoc::vpc::rtb&#45;private1&#45;us&#45;east&#45;1a::vpc::subnet&#45;private1&#45;us&#45;east&#45;1a -->
<g id="node6" class="node">
<title>RouteTableAssociation::rt&#45;assoc::vpc::rtb&#45;private1&#45;us&#45;east&#45;1a::vpc::subnet&#45;private1&#45;us&#45;east&#45;1a</title>
<polygon fill="#e5e5e5" stroke="#dddddd" points="282,-281 24,-281 24,-223 282,-223 282,-281"/>
<text text-anchor="start" x="36" y="-261.2" font-family="Helvetica,sans-Serif" font-weight="bold" font-size="16.00" fill="#707070">EC2::RouteTableAssociation</text>
<text text-anchor="start" x="36" y="-236.2" font-family="Helvetica,sans-Serif" font-size="16.00" fill="#383838">rt&#45;assoc::vpc::rtb&#45;private1&#45;us&#45;e...</text>
</g>
<!-- RouteTableAssociation::rt&#45;assoc::vpc::rtb&#45;private1&#45;us&#45;east&#45;1a::vpc::subnet&#45;private1&#45;us&#45;east&#45;1a&#45;&gt;Subnet::vpc::subnet&#45;private1&#45;us&#45;east&#45;1a -->
<g id="edge6" class="edge">
<title>RouteTableAssociation::rt&#45;assoc::vpc::rtb&#45;private1&#45;us&#45;east&#45;1a::vpc::subnet&#45;private1&#45;us&#45;east&#45;1a&#45;&gt;Subnet::vpc::subnet&#45;private1&#45;us&#45;east&#45;1a</title>
<path fill="none" stroke="#707070" d="M269.92,-222.92C274.16,-220.21 278.22,-217.24 282,-214 310.38,-189.68 289.69,-162.4 318,-138 319.19,-136.98 320.4,-135.98 321.64,-135.02"/>
<polygon fill="#707070" stroke="#707070" points="323.99,-137.64 330.13,-129.01 319.94,-131.93 323.99,-137.64"/>
</g>
<!-- RouteTableAssociation::rt&#45;assoc::vpc::rtb&#45;private1&#45;us&#45;east&#45;1a::vpc::subnet&#45;private1&#45;us&#45;east&#45;1a&#45;&gt;RouteTable::vpc::rtb&#45;private1&#45;us&#45;east&#45;1a -->
<g id="edge5" class="edge">
<title>RouteTableAssociation::rt&#45;assoc::vpc::rtb&#45;private1&#45;us&#45;east&#45;1a::vpc::subnet&#45;private1&#45;us&#45;east&#45;1a&#45;&gt;RouteTable::vpc::rtb&#45;private1&#45;us&#45;east&#45;1a</title>
<path fill="none" stroke="#707070" d="M264.69,-222.94C283.8,-217.92 303.76,-212.68 323.12,-207.6"/>
<polygon fill="#707070" stroke="#707070" points="324.09,-210.97 332.87,-205.04 322.31,-204.2 324.09,-210.97"/>
</g>
<!-- Role::KinesisFirehoseServiceRole&#45;delivery&#45;stre&#45;us&#45;east&#45;1&#45;1667077117902 -->
<g id="node8" class="node">
<title>Role::KinesisFirehoseServiceRole&#45;delivery&#45;stre&#45;us&#45;east&#45;1&#45;1667077117902</title>
<polygon fill="#e5e5e5" stroke="#dddddd" points="1139,-281 861,-281 861,-223 1139,-223 1139,-281"/>
<text text-anchor="start" x="873" y="-261.2" font-family="Helvetica,sans-Serif" font-weight="bold" font-size="16.00" fill="#707070">IAM::Role</text>
<text text-anchor="start" x="873" y="-236.2" font-family="Helvetica,sans-Serif" font-size="16.00" fill="#383838">KinesisFirehoseServiceRole&#45;deliv...</text>
</g>
<!-- DeliveryStream::delivery&#45;stream&#45;s3&#45;&gt;Role::KinesisFirehoseServiceRole&#45;delivery&#45;stre&#45;us&#45;east&#45;1&#45;1667077117902 -->
<g id="edge7" class="edge">
<title>DeliveryStream::delivery&#45;stream&#45;s3&#45;&gt;Role::KinesisFirehoseServiceRole&#45;delivery&#45;stre&#45;us&#45;east&#45;1&#45;1667077117902</title>
<path fill="none" stroke="#707070" d="M825.22,-252C833.59,-252 842.13,-252 850.7,-252"/>
<polygon fill="#707070" stroke="#707070" points="850.78,-255.5 860.78,-252 850.78,-248.5 850.78,-255.5"/>
</g>
<!-- Policy::KinesisFirehoseServicePolicy&#45;delivery&#45;stream&#45;s3&#45;us&#45;east&#45;1 -->
<g id="node9" class="node">
<title>Policy::KinesisFirehoseServicePolicy&#45;delivery&#45;stream&#45;s3&#45;us&#45;east&#45;1</title>
<polygon fill="#e5e5e5" stroke="#dddddd" points="1453,-281 1175,-281 1175,-223 1453,-223 1453,-281"/>
<text text-anchor="start" x="1187" y="-261.2" font-family="Helvetica,sans-Serif" font-weight="bold" font-size="16.00" fill="#707070">IAM::Policy</text>
<text text-anchor="start" x="1187" y="-236.2" font-family="Helvetica,sans-Serif" font-size="16.00" fill="#383838">KinesisFirehoseServicePolicy&#45;del...</text>
</g>
<!-- Role::KinesisFirehoseServiceRole&#45;delivery&#45;stre&#45;us&#45;east&#45;1&#45;1667077117902&#45;&gt;Policy::KinesisFirehoseServicePolicy&#45;delivery&#45;stream&#45;s3&#45;us&#45;east&#45;1 -->
<g id="edge8" class="edge">
<title>Role::KinesisFirehoseServiceRole&#45;delivery&#45;stre&#45;us&#45;east&#45;1&#45;1667077117902&#45;&gt;Policy::KinesisFirehoseServicePolicy&#45;delivery&#45;stream&#45;s3&#45;us&#45;east&#45;1</title>
<path fill="none" stroke="#707070" d="M1139.21,-252C1147.55,-252 1155.97,-252 1164.35,-252"/>
<polygon fill="#707070" stroke="#707070" points="1164.56,-255.5 1174.56,-252 1164.56,-248.5 1164.56,-255.5"/>
</g>
<!-- Policy::KinesisFirehoseServicePolicy&#45;delivery&#45;stream&#45;s3&#45;us&#45;east&#45;1&#45;&gt;LogGroup::/aws/kinesisfirehose/delivery&#45;stream&#45;s3 -->
<g id="edge9" class="edge">
<title>Policy::KinesisFirehoseServicePolicy&#45;delivery&#45;stream&#45;s3&#45;us&#45;east&#45;1&#45;&gt;LogGroup::/aws/kinesisfirehose/delivery&#45;stream&#45;s3</title>
<path fill="none" stroke="#707070" d="M1453.21,-252C1461.58,-252 1469.99,-252 1478.37,-252"/>
<polygon fill="#707070" stroke="#707070" points="1478.55,-255.5 1488.55,-252 1478.55,-248.5 1478.55,-255.5"/>
</g>
<!-- Bucket::gc&#45;firehose&#45;destination -->
<g id="node10" class="node">
<title>Bucket::gc&#45;firehose&#45;destination</title>
<polygon fill="#e5e5e5" stroke="#dddddd" points="247.5,-205 58.5,-205 58.5,-147 247.5,-147 247.5,-205"/>
<text text-anchor="start" x="71" y="-185.2" font-family="Helvetica,sans-Serif" font-weight="bold" font-size="16.00" fill="#707070">S3::Bucket</text>
<text text-anchor="start" x="71" y="-160.2" font-family="Helvetica,sans-Serif" font-size="16.00" fill="#383838">gc&#45;firehose&#45;destination</text>
</g>
<!-- Bucket::gc&#45;firehose&#45;error -->
<g id="node11" class="node">
<title>Bucket::gc&#45;firehose&#45;error</title>
<polygon fill="#e5e5e5" stroke="#dddddd" points="225,-129 81,-129 81,-71 225,-71 225,-129"/>
<text text-anchor="start" x="93" y="-109.2" font-family="Helvetica,sans-Serif" font-weight="bold" font-size="16.00" fill="#707070">S3::Bucket</text>
<text text-anchor="start" x="93" y="-84.2" font-family="Helvetica,sans-Serif" font-size="16.00" fill="#383838">gc&#45;firehose&#45;error</text>
</g>
</g>
</svg>
