<?xml version="1.0" encoding="UTF-8" standalone="no"?>
<!DOCTYPE svg PUBLIC "-//W3C//DTD SVG 1.1//EN"
 "http://www.w3.org/Graphics/SVG/1.1/DTD/svg11.dtd">
<!-- Generated by graphviz version 6.0.0 (20220910.1538)
 -->
<!-- Title: graphname Pages: 1 -->
<svg width="379pt" height="237pt"
 viewBox="0.00 0.00 379.00 237.00" xmlns="http://www.w3.org/2000/svg" xmlns:xlink="http://www.w3.org/1999/xlink">
<g id="graph0" class="graph" transform="scale(1 1) rotate(0) translate(4 233)">
<title>graphname</title>
<polygon fill="#fafafa" stroke="none" points="-4,4 -4,-233 375,-233 375,4 -4,4"/>
<text text-anchor="start" x="84.5" y="-204.4" font-family="Helvetica,sans-Serif" font-weight="bold" font-size="22.00" fill="#383838">Project dms&#45;simple</text>
<text text-anchor="start" x="181.5" y="-188.8" font-family="Helvetica,sans-Serif" font-size="14.00"> &#160;</text>
<text text-anchor="start" x="84.5" y="-167.2" font-family="Helvetica,sans-Serif" font-weight="bold" font-size="16.00" fill="#707070">Target Diagram</text>
<g id="clust1" class="cluster">
<title>cluster_aws</title>
<polygon fill="#f5f5f5" stroke="#f5f5f5" points="8,-8 8,-145 363,-145 363,-8 8,-8"/>
<text text-anchor="start" x="123.5" y="-23" font-family="Helvetica,sans-Serif" font-weight="bold" font-size="20.00" fill="#707070">Provider aws</text>
</g>
<g id="clust2" class="cluster">
<title>cluster_aws_</title>
<polygon fill="#eeeeee" stroke="#eeeeee" points="16,-54 16,-137 355,-137 355,-54 16,-54"/>
<text text-anchor="start" x="185.36" y="-58.3" font-family="Helvetica,sans-Serif" font-size="1.00" fill="#383838"> </text>
</g>
<!-- Certificate::my&#45;certificate -->
<g id="node1" class="node">
<title>Certificate::my&#45;certificate</title>
<polygon fill="#e5e5e5" stroke="#dddddd" points="347,-129 199,-129 199,-71 347,-71 347,-129"/>
<text text-anchor="start" x="211" y="-109.2" font-family="Helvetica,sans-Serif" font-weight="bold" font-size="16.00" fill="#707070">DMS::Certificate</text>
<text text-anchor="start" x="211" y="-84.2" font-family="Helvetica,sans-Serif" font-size="16.00" fill="#383838">my&#45;certificate</text>
</g>
<!-- Endpoint::my&#45;endpoint -->
<g id="node2" class="node">
<title>Endpoint::my&#45;endpoint</title>
<polygon fill="#e5e5e5" stroke="#dddddd" points="163,-129 24,-129 24,-71 163,-71 163,-129"/>
<text text-anchor="start" x="36.5" y="-109.2" font-family="Helvetica,sans-Serif" font-weight="bold" font-size="16.00" fill="#707070">DMS::Endpoint</text>
<text text-anchor="start" x="36.5" y="-84.2" font-family="Helvetica,sans-Serif" font-size="16.00" fill="#383838">my&#45;endpoint</text>
</g>
<!-- Endpoint::my&#45;endpoint&#45;&gt;Certificate::my&#45;certificate -->
<g id="edge1" class="edge">
<title>Endpoint::my&#45;endpoint&#45;&gt;Certificate::my&#45;certificate</title>
<path fill="none" stroke="#707070" d="M163.13,-100C171.54,-100 180.21,-100 188.81,-100"/>
<polygon fill="#707070" stroke="#707070" points="188.85,-103.5 198.85,-100 188.85,-96.5 188.85,-103.5"/>
</g>
</g>
</svg>
