<?xml version="1.0" encoding="UTF-8" standalone="no"?>
<!DOCTYPE svg PUBLIC "-//W3C//DTD SVG 1.1//EN"
 "http://www.w3.org/Graphics/SVG/1.1/DTD/svg11.dtd">
<!-- Generated by graphviz version 7.1.0 (20230121.1956)
 -->
<!-- Title: graphname Pages: 1 -->
<svg width="1149pt" height="769pt"
 viewBox="0.00 0.00 1149.00 769.00" xmlns="http://www.w3.org/2000/svg" xmlns:xlink="http://www.w3.org/1999/xlink">
<g id="graph0" class="graph" transform="scale(1 1) rotate(0) translate(4 765)">
<title>graphname</title>
<polygon fill="#fafafa" stroke="none" points="-4,4 -4,-765 1145,-765 1145,4 -4,4"/>
<text text-anchor="start" x="489.5" y="-736.4" font-family="Helvetica,sans-Serif" font-weight="bold" font-size="22.00" fill="#383838">Project ec2&#45;vpc</text>
<text text-anchor="start" x="566.5" y="-720.8" font-family="Helvetica,sans-Serif" font-size="14.00"> &#160;</text>
<text text-anchor="start" x="489.5" y="-699.2" font-family="Helvetica,sans-Serif" font-weight="bold" font-size="16.00" fill="#707070">Target Diagram</text>
<g id="clust1" class="cluster">
<title>cluster_aws</title>
<polygon fill="#f5f5f5" stroke="#f5f5f5" points="8,-8 8,-677 1133,-677 1133,-8 8,-8"/>
<text text-anchor="start" x="508.5" y="-23" font-family="Helvetica,sans-Serif" font-weight="bold" font-size="20.00" fill="#707070">Provider aws</text>
</g>
<g id="clust2" class="cluster">
<title>cluster_aws_</title>
<polygon fill="#eeeeee" stroke="#eeeeee" points="16,-54 16,-669 1125,-669 1125,-54 16,-54"/>
<text text-anchor="start" x="570.36" y="-58.3" font-family="Helvetica,sans-Serif" font-size="1.00" fill="#383838"> </text>
</g>
<!-- KeyPair::kp&#45;ec2&#45;vpc -->
<g id="node1" class="node">
<title>KeyPair::kp&#45;ec2&#45;vpc</title>
<polygon fill="#e5e5e5" stroke="#dddddd" points="859.5,-433 734.5,-433 734.5,-375 859.5,-375 859.5,-433"/>
<text text-anchor="start" x="747" y="-413.2" font-family="Helvetica,sans-Serif" font-weight="bold" font-size="16.00" fill="#707070">EC2::KeyPair</text>
<text text-anchor="start" x="747" y="-388.2" font-family="Helvetica,sans-Serif" font-size="16.00" fill="#383838">kp&#45;ec2&#45;vpc</text>
</g>
<!-- Volume::volume -->
<g id="node2" class="node">
<title>Volume::volume</title>
<polygon fill="#e5e5e5" stroke="#dddddd" points="546.5,-661 424.5,-661 424.5,-603 546.5,-603 546.5,-661"/>
<text text-anchor="start" x="436.5" y="-641.2" font-family="Helvetica,sans-Serif" font-weight="bold" font-size="16.00" fill="#707070">EC2::Volume</text>
<text text-anchor="start" x="436.5" y="-616.2" font-family="Helvetica,sans-Serif" font-size="16.00" fill="#383838">volume</text>
</g>
<!-- VolumeAttachment::vol&#45;attachment::volume::web&#45;server&#45;ec2&#45;vpc -->
<g id="node3" class="node">
<title>VolumeAttachment::vol&#45;attachment::volume::web&#45;server&#45;ec2&#45;vpc</title>
<polygon fill="#e5e5e5" stroke="#dddddd" points="306.5,-547 27.5,-547 27.5,-489 306.5,-489 306.5,-547"/>
<text text-anchor="start" x="40" y="-527.2" font-family="Helvetica,sans-Serif" font-weight="bold" font-size="16.00" fill="#707070">EC2::VolumeAttachment</text>
<text text-anchor="start" x="40" y="-502.2" font-family="Helvetica,sans-Serif" font-size="16.00" fill="#383838">vol&#45;attachment::volume::web&#45;serv...</text>
</g>
<!-- VolumeAttachment::vol&#45;attachment::volume::web&#45;server&#45;ec2&#45;vpc&#45;&gt;Volume::volume -->
<g id="edge1" class="edge">
<title>VolumeAttachment::vol&#45;attachment::volume::web&#45;server&#45;ec2&#45;vpc&#45;&gt;Volume::volume</title>
<path fill="none" stroke="#707070" d="M231.03,-547.39C264.71,-562.46 307.13,-580.44 346,-594 367.65,-601.55 391.62,-608.58 413.45,-614.49"/>
<polygon fill="#707070" stroke="#707070" points="412.28,-617.8 422.84,-617 414.08,-611.04 412.28,-617.8"/>
</g>
<!-- Instance::web&#45;server&#45;ec2&#45;vpc -->
<g id="node16" class="node">
<title>Instance::web&#45;server&#45;ec2&#45;vpc</title>
<polygon fill="#e5e5e5" stroke="#dddddd" points="568.5,-433 402.5,-433 402.5,-375 568.5,-375 568.5,-433"/>
<text text-anchor="start" x="414.5" y="-413.2" font-family="Helvetica,sans-Serif" font-weight="bold" font-size="16.00" fill="#707070">EC2::Instance</text>
<text text-anchor="start" x="414.5" y="-388.2" font-family="Helvetica,sans-Serif" font-size="16.00" fill="#383838">web&#45;server&#45;ec2&#45;vpc</text>
</g>
<!-- VolumeAttachment::vol&#45;attachment::volume::web&#45;server&#45;ec2&#45;vpc&#45;&gt;Instance::web&#45;server&#45;ec2&#45;vpc -->
<g id="edge2" class="edge">
<title>VolumeAttachment::vol&#45;attachment::volume::web&#45;server&#45;ec2&#45;vpc&#45;&gt;Instance::web&#45;server&#45;ec2&#45;vpc</title>
<path fill="none" stroke="#707070" d="M231.03,-488.61C264.71,-473.54 307.13,-455.56 346,-442 360.49,-436.94 376.02,-432.12 391.26,-427.72"/>
<polygon fill="#707070" stroke="#707070" points="392.16,-431.1 400.82,-425 390.24,-424.36 392.16,-431.1"/>
</g>
<!-- Vpc::vpc&#45;ec2&#45;example -->
<g id="node4" class="node">
<title>Vpc::vpc&#45;ec2&#45;example</title>
<polygon fill="#e5e5e5" stroke="#dddddd" points="1117,-319 969,-319 969,-261 1117,-261 1117,-319"/>
<text text-anchor="start" x="981" y="-299.2" font-family="Helvetica,sans-Serif" font-weight="bold" font-size="16.00" fill="#707070">EC2::Vpc</text>
<text text-anchor="start" x="981" y="-274.2" font-family="Helvetica,sans-Serif" font-size="16.00" fill="#383838">vpc&#45;ec2&#45;example</text>
</g>
<!-- InternetGateway::ig -->
<g id="node5" class="node">
<title>InternetGateway::ig</title>
<polygon fill="#e5e5e5" stroke="#dddddd" points="892.5,-205 701.5,-205 701.5,-147 892.5,-147 892.5,-205"/>
<text text-anchor="start" x="714" y="-185.2" font-family="Helvetica,sans-Serif" font-weight="bold" font-size="16.00" fill="#707070">EC2::InternetGateway</text>
<text text-anchor="start" x="714" y="-160.2" font-family="Helvetica,sans-Serif" font-size="16.00" fill="#383838">ig</text>
</g>
<!-- InternetGatewayAttachment::ig&#45;attach::ig::vpc&#45;ec2&#45;example -->
<g id="node6" class="node">
<title>InternetGatewayAttachment::ig&#45;attach::ig::vpc&#45;ec2&#45;example</title>
<polygon fill="#e5e5e5" stroke="#dddddd" points="625,-205 346,-205 346,-147 625,-147 625,-205"/>
<text text-anchor="start" x="358.5" y="-185.2" font-family="Helvetica,sans-Serif" font-weight="bold" font-size="16.00" fill="#707070">EC2::InternetGatewayAttachment</text>
<text text-anchor="start" x="358.5" y="-160.2" font-family="Helvetica,sans-Serif" font-size="16.00" fill="#383838">ig&#45;attach::ig::vpc&#45;ec2&#45;example</text>
</g>
<!-- InternetGatewayAttachment::ig&#45;attach::ig::vpc&#45;ec2&#45;example&#45;&gt;Vpc::vpc&#45;ec2&#45;example -->
<g id="edge3" class="edge">
<title>InternetGatewayAttachment::ig&#45;attach::ig::vpc&#45;ec2&#45;example&#45;&gt;Vpc::vpc&#45;ec2&#45;example</title>
<path fill="none" stroke="#707070" d="M605.63,-146.51C624.06,-142.98 642.97,-139.94 661,-138 781.19,-125.06 825.46,-82.78 933,-138 978.49,-161.35 1009.25,-213.48 1026.2,-250.15"/>
<polygon fill="#707070" stroke="#707070" points="1022.94,-251.42 1030.2,-259.14 1029.33,-248.58 1022.94,-251.42"/>
</g>
<!-- InternetGatewayAttachment::ig&#45;attach::ig::vpc&#45;ec2&#45;example&#45;&gt;InternetGateway::ig -->
<g id="edge4" class="edge">
<title>InternetGatewayAttachment::ig&#45;attach::ig::vpc&#45;ec2&#45;example&#45;&gt;InternetGateway::ig</title>
<path fill="none" stroke="#707070" d="M625.41,-176C647.1,-176 669.22,-176 690.02,-176"/>
<polygon fill="#707070" stroke="#707070" points="689.92,-179.5 699.92,-176 689.92,-172.5 689.92,-179.5"/>
</g>
<!-- Subnet::vpc&#45;ec2&#45;example::subnet -->
<g id="node7" class="node">
<title>Subnet::vpc&#45;ec2&#45;example::subnet</title>
<polygon fill="#e5e5e5" stroke="#dddddd" points="900,-357 694,-357 694,-299 900,-299 900,-357"/>
<text text-anchor="start" x="706" y="-337.2" font-family="Helvetica,sans-Serif" font-weight="bold" font-size="16.00" fill="#707070">EC2::Subnet</text>
<text text-anchor="start" x="706" y="-312.2" font-family="Helvetica,sans-Serif" font-size="16.00" fill="#383838">vpc&#45;ec2&#45;example::subnet</text>
</g>
<!-- Subnet::vpc&#45;ec2&#45;example::subnet&#45;&gt;Vpc::vpc&#45;ec2&#45;example -->
<g id="edge5" class="edge">
<title>Subnet::vpc&#45;ec2&#45;example::subnet&#45;&gt;Vpc::vpc&#45;ec2&#45;example</title>
<path fill="none" stroke="#707070" d="M900.42,-312.05C919.43,-309.09 939.09,-306.03 957.48,-303.16"/>
<polygon fill="#707070" stroke="#707070" points="957.92,-306.64 967.27,-301.64 956.85,-299.72 957.92,-306.64"/>
</g>
<!-- RouteTable::vpc&#45;ec2&#45;example::route&#45;table -->
<g id="node8" class="node">
<title>RouteTable::vpc&#45;ec2&#45;example::route&#45;table</title>
<polygon fill="#e5e5e5" stroke="#dddddd" points="914.5,-281 679.5,-281 679.5,-223 914.5,-223 914.5,-281"/>
<text text-anchor="start" x="692" y="-261.2" font-family="Helvetica,sans-Serif" font-weight="bold" font-size="16.00" fill="#707070">EC2::RouteTable</text>
<text text-anchor="start" x="692" y="-236.2" font-family="Helvetica,sans-Serif" font-size="16.00" fill="#383838">vpc&#45;ec2&#45;example::route&#45;table</text>
</g>
<!-- RouteTable::vpc&#45;ec2&#45;example::route&#45;table&#45;&gt;Vpc::vpc&#45;ec2&#45;example -->
<g id="edge6" class="edge">
<title>RouteTable::vpc&#45;ec2&#45;example::route&#45;table&#45;&gt;Vpc::vpc&#45;ec2&#45;example</title>
<path fill="none" stroke="#707070" d="M915,-270.22C929.33,-272.45 943.76,-274.7 957.48,-276.84"/>
<polygon fill="#707070" stroke="#707070" points="956.91,-280.29 967.33,-278.37 957.99,-273.37 956.91,-280.29"/>
</g>
<!-- RouteTableAssociation::rt&#45;assoc::vpc&#45;ec2&#45;example::route&#45;table::vpc&#45;ec2&#45;example::subnet -->
<g id="node9" class="node">
<title>RouteTableAssociation::rt&#45;assoc::vpc&#45;ec2&#45;example::route&#45;table::vpc&#45;ec2&#45;example::subnet</title>
<polygon fill="#e5e5e5" stroke="#dddddd" points="622.5,-357 348.5,-357 348.5,-299 622.5,-299 622.5,-357"/>
<text text-anchor="start" x="360.5" y="-337.2" font-family="Helvetica,sans-Serif" font-weight="bold" font-size="16.00" fill="#707070">EC2::RouteTableAssociation</text>
<text text-anchor="start" x="360.5" y="-312.2" font-family="Helvetica,sans-Serif" font-size="16.00" fill="#383838">rt&#45;assoc::vpc&#45;ec2&#45;example::route...</text>
</g>
<!-- RouteTableAssociation::rt&#45;assoc::vpc&#45;ec2&#45;example::route&#45;table::vpc&#45;ec2&#45;example::subnet&#45;&gt;Subnet::vpc&#45;ec2&#45;example::subnet -->
<g id="edge8" class="edge">
<title>RouteTableAssociation::rt&#45;assoc::vpc&#45;ec2&#45;example::route&#45;table::vpc&#45;ec2&#45;example::subnet&#45;&gt;Subnet::vpc&#45;ec2&#45;example::subnet</title>
<path fill="none" stroke="#707070" d="M622.7,-328C642.63,-328 662.98,-328 682.39,-328"/>
<polygon fill="#707070" stroke="#707070" points="682.19,-331.5 692.19,-328 682.19,-324.5 682.19,-331.5"/>
</g>
<!-- RouteTableAssociation::rt&#45;assoc::vpc&#45;ec2&#45;example::route&#45;table::vpc&#45;ec2&#45;example::subnet&#45;&gt;RouteTable::vpc&#45;ec2&#45;example::route&#45;table -->
<g id="edge7" class="edge">
<title>RouteTableAssociation::rt&#45;assoc::vpc&#45;ec2&#45;example::route&#45;table::vpc&#45;ec2&#45;example::subnet&#45;&gt;RouteTable::vpc&#45;ec2&#45;example::route&#45;table</title>
<path fill="none" stroke="#707070" d="M606.6,-298.51C626.77,-293.56 647.76,-288.4 668.11,-283.4"/>
<polygon fill="#707070" stroke="#707070" points="668.67,-286.87 677.55,-281.09 667,-280.07 668.67,-286.87"/>
</g>
<!-- Route::vpc&#45;ec2&#45;example::route&#45;table::igw::0.0.0.0/0 -->
<g id="node10" class="node">
<title>Route::vpc&#45;ec2&#45;example::route&#45;table::igw::0.0.0.0/0</title>
<polygon fill="#e5e5e5" stroke="#dddddd" points="620.5,-281 350.5,-281 350.5,-223 620.5,-223 620.5,-281"/>
<text text-anchor="start" x="362.5" y="-261.2" font-family="Helvetica,sans-Serif" font-weight="bold" font-size="16.00" fill="#707070">EC2::Route</text>
<text text-anchor="start" x="362.5" y="-236.2" font-family="Helvetica,sans-Serif" font-size="16.00" fill="#383838">vpc&#45;ec2&#45;example::route&#45;table::ig...</text>
</g>
<!-- Route::vpc&#45;ec2&#45;example::route&#45;table::igw::0.0.0.0/0&#45;&gt;InternetGateway::ig -->
<g id="edge9" class="edge">
<title>Route::vpc&#45;ec2&#45;example::route&#45;table::igw::0.0.0.0/0&#45;&gt;InternetGateway::ig</title>
<path fill="none" stroke="#707070" d="M606.6,-222.51C634.23,-215.72 663.41,-208.56 690.38,-201.94"/>
<polygon fill="#707070" stroke="#707070" points="691.04,-205.38 699.91,-199.59 689.37,-198.58 691.04,-205.38"/>
</g>
<!-- Route::vpc&#45;ec2&#45;example::route&#45;table::igw::0.0.0.0/0&#45;&gt;RouteTable::vpc&#45;ec2&#45;example::route&#45;table -->
<g id="edge10" class="edge">
<title>Route::vpc&#45;ec2&#45;example::route&#45;table::igw::0.0.0.0/0&#45;&gt;RouteTable::vpc&#45;ec2&#45;example::route&#45;table</title>
<path fill="none" stroke="#707070" d="M620.9,-252C636.52,-252 652.43,-252 667.96,-252"/>
<polygon fill="#707070" stroke="#707070" points="667.68,-255.5 677.68,-252 667.68,-248.5 667.68,-255.5"/>
</g>
<!-- SecurityGroup::sg::vpc&#45;ec2&#45;example::security&#45;group -->
<g id="node11" class="node">
<title>SecurityGroup::sg::vpc&#45;ec2&#45;example::security&#45;group</title>
<polygon fill="#e5e5e5" stroke="#dddddd" points="933,-509 661,-509 661,-451 933,-451 933,-509"/>
<text text-anchor="start" x="673" y="-489.2" font-family="Helvetica,sans-Serif" font-weight="bold" font-size="16.00" fill="#707070">EC2::SecurityGroup</text>
<text text-anchor="start" x="673" y="-464.2" font-family="Helvetica,sans-Serif" font-size="16.00" fill="#383838">sg::vpc&#45;ec2&#45;example::security&#45;gr...</text>
</g>
<!-- SecurityGroup::sg::vpc&#45;ec2&#45;example::security&#45;group&#45;&gt;Vpc::vpc&#45;ec2&#45;example -->
<g id="edge11" class="edge">
<title>SecurityGroup::sg::vpc&#45;ec2&#45;example::security&#45;group&#45;&gt;Vpc::vpc&#45;ec2&#45;example</title>
<path fill="none" stroke="#707070" d="M919.19,-450.5C923.99,-447.9 928.61,-445.08 933,-442 974.14,-413.15 1005.37,-363.65 1023.64,-329"/>
<polygon fill="#707070" stroke="#707070" points="1026.52,-331.05 1027.97,-320.55 1020.29,-327.85 1026.52,-331.05"/>
</g>
<!-- SecurityGroupRuleIngress::sg::vpc&#45;ec2&#45;example::security&#45;group&#45;rule&#45;ingress&#45;icmp -->
<g id="node12" class="node">
<title>SecurityGroupRuleIngress::sg::vpc&#45;ec2&#45;example::security&#45;group&#45;rule&#45;ingress&#45;icmp</title>
<polygon fill="#e5e5e5" stroke="#dddddd" points="621.5,-585 349.5,-585 349.5,-527 621.5,-527 621.5,-585"/>
<text text-anchor="start" x="361.5" y="-565.2" font-family="Helvetica,sans-Serif" font-weight="bold" font-size="16.00" fill="#707070">EC2::SecurityGroupRuleIngress</text>
<text text-anchor="start" x="361.5" y="-540.2" font-family="Helvetica,sans-Serif" font-size="16.00" fill="#383838">sg::vpc&#45;ec2&#45;example::security&#45;gr...</text>
</g>
<!-- SecurityGroupRuleIngress::sg::vpc&#45;ec2&#45;example::security&#45;group&#45;rule&#45;ingress&#45;icmp&#45;&gt;SecurityGroup::sg::vpc&#45;ec2&#45;example::security&#45;group -->
<g id="edge12" class="edge">
<title>SecurityGroupRuleIngress::sg::vpc&#45;ec2&#45;example::security&#45;group&#45;rule&#45;ingress&#45;icmp&#45;&gt;SecurityGroup::sg::vpc&#45;ec2&#45;example::security&#45;group</title>
<path fill="none" stroke="#707070" d="M606.6,-526.51C625.73,-521.81 645.59,-516.93 664.95,-512.18"/>
<polygon fill="#707070" stroke="#707070" points="665.62,-515.62 674.49,-509.84 663.95,-508.82 665.62,-515.62"/>
</g>
<!-- SecurityGroupRuleIngress::sg::vpc&#45;ec2&#45;example::security&#45;group&#45;rule&#45;ingress&#45;tcp&#45;22 -->
<g id="node13" class="node">
<title>SecurityGroupRuleIngress::sg::vpc&#45;ec2&#45;example::security&#45;group&#45;rule&#45;ingress&#45;tcp&#45;22</title>
<polygon fill="#e5e5e5" stroke="#dddddd" points="621.5,-509 349.5,-509 349.5,-451 621.5,-451 621.5,-509"/>
<text text-anchor="start" x="361.5" y="-489.2" font-family="Helvetica,sans-Serif" font-weight="bold" font-size="16.00" fill="#707070">EC2::SecurityGroupRuleIngress</text>
<text text-anchor="start" x="361.5" y="-464.2" font-family="Helvetica,sans-Serif" font-size="16.00" fill="#383838">sg::vpc&#45;ec2&#45;example::security&#45;gr...</text>
</g>
<!-- SecurityGroupRuleIngress::sg::vpc&#45;ec2&#45;example::security&#45;group&#45;rule&#45;ingress&#45;tcp&#45;22&#45;&gt;SecurityGroup::sg::vpc&#45;ec2&#45;example::security&#45;group -->
<g id="edge13" class="edge">
<title>SecurityGroupRuleIngress::sg::vpc&#45;ec2&#45;example::security&#45;group&#45;rule&#45;ingress&#45;tcp&#45;22&#45;&gt;SecurityGroup::sg::vpc&#45;ec2&#45;example::security&#45;group</title>
<path fill="none" stroke="#707070" d="M621.8,-480C630.84,-480 639.96,-480 649.05,-480"/>
<polygon fill="#707070" stroke="#707070" points="649.02,-483.5 659.02,-480 649.02,-476.5 649.02,-483.5"/>
</g>
<!-- ElasticIpAddress::myip -->
<g id="node14" class="node">
<title>ElasticIpAddress::myip</title>
<polygon fill="#e5e5e5" stroke="#dddddd" points="583.5,-129 387.5,-129 387.5,-71 583.5,-71 583.5,-129"/>
<text text-anchor="start" x="399.5" y="-109.2" font-family="Helvetica,sans-Serif" font-weight="bold" font-size="16.00" fill="#707070">EC2::ElasticIpAddress</text>
<text text-anchor="start" x="399.5" y="-84.2" font-family="Helvetica,sans-Serif" font-size="16.00" fill="#383838">myip</text>
</g>
<!-- ElasticIpAddressAssociation::eip&#45;attach::myip::web&#45;server&#45;ec2&#45;vpc -->
<g id="node15" class="node">
<title>ElasticIpAddressAssociation::eip&#45;attach::myip::web&#45;server&#45;ec2&#45;vpc</title>
<polygon fill="#e5e5e5" stroke="#dddddd" points="310,-243 24,-243 24,-185 310,-185 310,-243"/>
<text text-anchor="start" x="36" y="-223.2" font-family="Helvetica,sans-Serif" font-weight="bold" font-size="16.00" fill="#707070">EC2::ElasticIpAddressAssociation</text>
<text text-anchor="start" x="36" y="-198.2" font-family="Helvetica,sans-Serif" font-size="16.00" fill="#383838">eip&#45;attach::myip::web&#45;server&#45;ec2...</text>
</g>
<!-- ElasticIpAddressAssociation::eip&#45;attach::myip::web&#45;server&#45;ec2&#45;vpc&#45;&gt;ElasticIpAddress::myip -->
<g id="edge14" class="edge">
<title>ElasticIpAddressAssociation::eip&#45;attach::myip::web&#45;server&#45;ec2&#45;vpc&#45;&gt;ElasticIpAddress::myip</title>
<path fill="none" stroke="#707070" d="M231.03,-184.61C264.71,-169.54 307.13,-151.56 346,-138 355.78,-134.59 366.04,-131.28 376.36,-128.14"/>
<polygon fill="#707070" stroke="#707070" points="377.09,-131.57 385.67,-125.35 375.09,-124.86 377.09,-131.57"/>
</g>
<!-- ElasticIpAddressAssociation::eip&#45;attach::myip::web&#45;server&#45;ec2&#45;vpc&#45;&gt;Instance::web&#45;server&#45;ec2&#45;vpc -->
<g id="edge15" class="edge">
<title>ElasticIpAddressAssociation::eip&#45;attach::myip::web&#45;server&#45;ec2&#45;vpc&#45;&gt;Instance::web&#45;server&#45;ec2&#45;vpc</title>
<path fill="none" stroke="#707070" d="M194.39,-243.29C226.84,-277.57 285.14,-333.75 346,-366 360.05,-373.45 375.7,-379.54 391.27,-384.5"/>
<polygon fill="#707070" stroke="#707070" points="389.99,-387.76 400.58,-387.31 392.02,-381.06 389.99,-387.76"/>
</g>
<!-- Instance::web&#45;server&#45;ec2&#45;vpc&#45;&gt;KeyPair::kp&#45;ec2&#45;vpc -->
<g id="edge17" class="edge">
<title>Instance::web&#45;server&#45;ec2&#45;vpc&#45;&gt;KeyPair::kp&#45;ec2&#45;vpc</title>
<path fill="none" stroke="#707070" d="M568.63,-404C616.5,-404 676.38,-404 722.66,-404"/>
<polygon fill="#707070" stroke="#707070" points="722.61,-407.5 732.61,-404 722.61,-400.5 722.61,-407.5"/>
</g>
<!-- Instance::web&#45;server&#45;ec2&#45;vpc&#45;&gt;Subnet::vpc&#45;ec2&#45;example::subnet -->
<g id="edge16" class="edge">
<title>Instance::web&#45;server&#45;ec2&#45;vpc&#45;&gt;Subnet::vpc&#45;ec2&#45;example::subnet</title>
<path fill="none" stroke="#707070" d="M568.63,-383.83C603.51,-375.27 644.76,-365.14 682.48,-355.88"/>
<polygon fill="#707070" stroke="#707070" points="683.19,-359.31 692.07,-353.52 681.52,-352.51 683.19,-359.31"/>
</g>
<!-- Instance::web&#45;server&#45;ec2&#45;vpc&#45;&gt;SecurityGroup::sg::vpc&#45;ec2&#45;example::security&#45;group -->
<g id="edge18" class="edge">
<title>Instance::web&#45;server&#45;ec2&#45;vpc&#45;&gt;SecurityGroup::sg::vpc&#45;ec2&#45;example::security&#45;group</title>
<path fill="none" stroke="#707070" d="M568.63,-424.17C598.15,-431.42 632.24,-439.79 664.89,-447.8"/>
<polygon fill="#707070" stroke="#707070" points="663.88,-451.16 674.42,-450.15 665.55,-444.36 663.88,-451.16"/>
</g>
</g>
</svg>
