<?xml version="1.0" encoding="UTF-8" standalone="no"?>
<!DOCTYPE svg PUBLIC "-//W3C//DTD SVG 1.1//EN"
 "http://www.w3.org/Graphics/SVG/1.1/DTD/svg11.dtd">
<!-- Generated by graphviz version 3.0.0 (20220226.1711)
 -->
<!-- Title: graphname Pages: 1 -->
<svg width="634pt" height="313pt"
 viewBox="0.00 0.00 634.00 313.00" xmlns="http://www.w3.org/2000/svg" xmlns:xlink="http://www.w3.org/1999/xlink">
<g id="graph0" class="graph" transform="scale(1 1) rotate(0) translate(4 309)">
<title>graphname</title>
<polygon fill="#fafafa" stroke="transparent" points="-4,4 -4,-309 630,-309 630,4 -4,4"/>
<text text-anchor="start" x="102" y="-280.4" font-family="Helvetica,sans-Serif" font-weight="bold" font-size="22.00" fill="#383838">Project SecurityGroup source from itself</text>
<text text-anchor="start" x="309" y="-264.8" font-family="Helvetica,sans-Serif" font-size="14.00"> &#160;</text>
<text text-anchor="start" x="102" y="-243.2" font-family="Helvetica,sans-Serif" font-weight="bold" font-size="16.00" fill="#707070">Target Diagram</text>
<g id="clust1" class="cluster">
<title>cluster_aws</title>
<polygon fill="#f5f5f5" stroke="#f5f5f5" points="8,-8 8,-221 618,-221 618,-8 8,-8"/>
<text text-anchor="start" x="251" y="-23" font-family="Helvetica,sans-Serif" font-weight="bold" font-size="20.00" fill="#707070">Provider aws</text>
</g>
<g id="clust2" class="cluster">
<title>cluster_aws_</title>
<polygon fill="#eeeeee" stroke="#eeeeee" points="16,-54 16,-213 610,-213 610,-54 16,-54"/>
<text text-anchor="start" x="312.86" y="-58.3" font-family="Helvetica,sans-Serif" font-size="1.00" fill="#383838"> </text>
</g>
<!-- Vpc::VPC -->
<g id="node1" class="node">
<title>Vpc::VPC</title>
<polygon fill="#e5e5e5" stroke="#dddddd" points="602,-167 545,-167 545,-109 602,-109 602,-167"/>
<text text-anchor="start" x="557.5" y="-147.2" font-family="Helvetica,sans-Serif" font-weight="bold" font-size="16.00" fill="#707070">Vpc</text>
<text text-anchor="start" x="557.5" y="-122.2" font-family="Helvetica,sans-Serif" font-size="16.00" fill="#383838">VPC</text>
</g>
<!-- SecurityGroup::ClusterSharedNode -->
<g id="node2" class="node">
<title>SecurityGroup::ClusterSharedNode</title>
<polygon fill="#e5e5e5" stroke="#dddddd" points="509,-205 343,-205 343,-147 509,-147 509,-205"/>
<text text-anchor="start" x="355" y="-185.2" font-family="Helvetica,sans-Serif" font-weight="bold" font-size="16.00" fill="#707070">SecurityGroup</text>
<text text-anchor="start" x="355" y="-160.2" font-family="Helvetica,sans-Serif" font-size="16.00" fill="#383838">ClusterSharedNode</text>
</g>
<!-- SecurityGroup::ClusterSharedNode&#45;&gt;Vpc::VPC -->
<g id="edge1" class="edge">
<title>SecurityGroup::ClusterSharedNode&#45;&gt;Vpc::VPC</title>
<path fill="none" stroke="#707070" d="M509.1,-154.56C518.17,-152.19 527.04,-149.87 535.13,-147.76"/>
<polygon fill="#707070" stroke="#707070" points="536.14,-151.11 544.93,-145.2 534.37,-144.34 536.14,-151.11"/>
</g>
<!-- SecurityGroup::sg&#45;default&#45;VPC -->
<g id="node3" class="node">
<title>SecurityGroup::sg&#45;default&#45;VPC</title>
<polygon fill="#e5e5e5" stroke="#dddddd" points="494,-129 358,-129 358,-71 494,-71 494,-129"/>
<text text-anchor="start" x="370" y="-109.2" font-family="Helvetica,sans-Serif" font-weight="bold" font-size="16.00" fill="#707070">SecurityGroup</text>
<text text-anchor="start" x="370" y="-84.2" font-family="Helvetica,sans-Serif" font-size="16.00" fill="#383838">sg&#45;default&#45;VPC</text>
</g>
<!-- SecurityGroup::sg&#45;default&#45;VPC&#45;&gt;Vpc::VPC -->
<g id="edge2" class="edge">
<title>SecurityGroup::sg&#45;default&#45;VPC&#45;&gt;Vpc::VPC</title>
<path fill="none" stroke="#707070" d="M494.21,-117.55C508.17,-121.2 522.41,-124.92 534.84,-128.17"/>
<polygon fill="#707070" stroke="#707070" points="534.26,-131.63 544.82,-130.77 536.03,-124.86 534.26,-131.63"/>
</g>
<!-- SecurityGroupRuleIngress::ClusterSharedNode&#45;rule&#45;ingress&#45;all -->
<g id="node4" class="node">
<title>SecurityGroupRuleIngress::ClusterSharedNode&#45;rule&#45;ingress&#45;all</title>
<polygon fill="#e5e5e5" stroke="#dddddd" points="307,-205 24,-205 24,-147 307,-147 307,-205"/>
<text text-anchor="start" x="36.5" y="-185.2" font-family="Helvetica,sans-Serif" font-weight="bold" font-size="16.00" fill="#707070">SecurityGroupRuleIngress</text>
<text text-anchor="start" x="36.5" y="-160.2" font-family="Helvetica,sans-Serif" font-size="16.00" fill="#383838">ClusterSharedNode&#45;rule&#45;ingress&#45;a...</text>
</g>
<!-- SecurityGroupRuleIngress::ClusterSharedNode&#45;rule&#45;ingress&#45;all&#45;&gt;SecurityGroup::ClusterSharedNode -->
<g id="edge3" class="edge">
<title>SecurityGroupRuleIngress::ClusterSharedNode&#45;rule&#45;ingress&#45;all&#45;&gt;SecurityGroup::ClusterSharedNode</title>
<path fill="none" stroke="#707070" d="M307.1,-169.27C315.77,-169.31 324.37,-169.38 332.75,-169.5"/>
<polygon fill="#707070" stroke="#707070" points="332.79,-173 342.84,-169.67 332.9,-166 332.79,-173"/>
</g>
<!-- SecurityGroupRuleIngress::ClusterSharedNode&#45;rule&#45;ingress&#45;all&#45;&gt;SecurityGroup::ClusterSharedNode -->
<g id="edge4" class="edge">
<title>SecurityGroupRuleIngress::ClusterSharedNode&#45;rule&#45;ingress&#45;all&#45;&gt;SecurityGroup::ClusterSharedNode</title>
<path fill="none" stroke="#707070" d="M307.1,-182.73C315.77,-182.69 324.37,-182.62 332.75,-182.5"/>
<polygon fill="#707070" stroke="#707070" points="332.9,-186 342.84,-182.33 332.79,-179 332.9,-186"/>
</g>
<!-- SecurityGroupRuleIngress::sg&#45;default&#45;VPC&#45;rule&#45;ingress&#45;all -->
<g id="node5" class="node">
<title>SecurityGroupRuleIngress::sg&#45;default&#45;VPC&#45;rule&#45;ingress&#45;all</title>
<polygon fill="#e5e5e5" stroke="#dddddd" points="288,-129 43,-129 43,-71 288,-71 288,-129"/>
<text text-anchor="start" x="55.5" y="-109.2" font-family="Helvetica,sans-Serif" font-weight="bold" font-size="16.00" fill="#707070">SecurityGroupRuleIngress</text>
<text text-anchor="start" x="55.5" y="-84.2" font-family="Helvetica,sans-Serif" font-size="16.00" fill="#383838">sg&#45;default&#45;VPC&#45;rule&#45;ingress&#45;all</text>
</g>
<!-- SecurityGroupRuleIngress::sg&#45;default&#45;VPC&#45;rule&#45;ingress&#45;all&#45;&gt;SecurityGroup::sg&#45;default&#45;VPC -->
<g id="edge5" class="edge">
<title>SecurityGroupRuleIngress::sg&#45;default&#45;VPC&#45;rule&#45;ingress&#45;all&#45;&gt;SecurityGroup::sg&#45;default&#45;VPC</title>
<path fill="none" stroke="#707070" d="M288.18,-93.26C308.4,-93.21 328.87,-93.37 347.59,-93.76"/>
<polygon fill="#707070" stroke="#707070" points="347.73,-97.26 357.81,-94 347.89,-90.26 347.73,-97.26"/>
</g>
<!-- SecurityGroupRuleIngress::sg&#45;default&#45;VPC&#45;rule&#45;ingress&#45;all&#45;&gt;SecurityGroup::sg&#45;default&#45;VPC -->
<g id="edge6" class="edge">
<title>SecurityGroupRuleIngress::sg&#45;default&#45;VPC&#45;rule&#45;ingress&#45;all&#45;&gt;SecurityGroup::sg&#45;default&#45;VPC</title>
<path fill="none" stroke="#707070" d="M288.18,-106.74C308.4,-106.79 328.87,-106.63 347.59,-106.24"/>
<polygon fill="#707070" stroke="#707070" points="347.89,-109.74 357.81,-106 347.73,-102.74 347.89,-109.74"/>
</g>
</g>
</svg>
