<?xml version="1.0" encoding="UTF-8" standalone="no"?><svg xmlns="http://www.w3.org/2000/svg" xmlns:xlink="http://www.w3.org/1999/xlink" contentStyleType="text/css" height="1019px" preserveAspectRatio="none" style="width:584px;height:1019px;background:#FFFFFF;" version="1.1" viewBox="0 0 584 1019" width="584px" zoomAndPan="magnify"><defs/><g><rect height="26.4883" style="stroke:#00000000;stroke-width:1.0;fill:none;" width="301" x="115" y="15"/><text fill="#000000" font-family="sans-serif" font-size="14" font-weight="bold" lengthAdjust="spacing" textLength="291" x="120" y="33.5352">Resources for project traffic-mirror-ec2</text><rect fill="#F1F1F1" height="36.4883" rx="12.5" ry="12.5" style="stroke:#181818;stroke-width:1.5;" width="52" x="10" y="509.3945"/><text fill="#000000" font-family="sans-serif" font-size="14" lengthAdjust="spacing" textLength="32" x="20" y="532.9297">Infra</text><rect fill="#F1F1F1" height="36.4883" rx="12.5" ry="12.5" style="stroke:#181818;stroke-width:1.5;" width="46" x="112" y="509.3945"/><text fill="#000000" font-family="sans-serif" font-size="14" lengthAdjust="spacing" textLength="26" x="122" y="532.9297">aws</text><rect fill="#F1F1F1" height="36.4883" rx="12.5" ry="12.5" style="stroke:#181818;stroke-width:1.5;" width="47" x="208" y="424.6621"/><text fill="#000000" font-family="sans-serif" font-size="14" lengthAdjust="spacing" textLength="27" x="218" y="448.1973">EC2</text><rect fill="#F1F1F1" height="36.4883" rx="12.5" ry="12.5" style="stroke:#181818;stroke-width:1.5;" width="100" x="305" y="57.4883"/><text fill="#000000" font-family="sans-serif" font-size="14" lengthAdjust="spacing" textLength="80" x="315" y="81.0234">Instance (1)</text><path d="M255,442.9063 L265,442.9063 C280,442.9063 280,75.7324 295,75.7324 L305,75.7324 " fill="none" style="stroke:#181818;stroke-width:1.0;"/><rect fill="#F1F1F1" height="36.4883" rx="12.5" ry="12.5" style="stroke:#181818;stroke-width:1.5;" width="154" x="305" y="113.9766"/><text fill="#000000" font-family="sans-serif" font-size="14" lengthAdjust="spacing" textLength="134" x="315" y="137.5117">InternetGateway (1)</text><path d="M255,442.9063 L265,442.9063 C280,442.9063 280,132.2207 295,132.2207 L305,132.2207 " fill="none" style="stroke:#181818;stroke-width:1.0;"/><rect fill="#F1F1F1" height="36.4883" rx="12.5" ry="12.5" style="stroke:#181818;stroke-width:1.5;" width="233" x="305" y="170.4648"/><text fill="#000000" font-family="sans-serif" font-size="14" lengthAdjust="spacing" textLength="213" x="315" y="194">InternetGatewayAttachment (1)</text><path d="M255,442.9063 L265,442.9063 C280,442.9063 280,188.709 295,188.709 L305,188.709 " fill="none" style="stroke:#181818;stroke-width:1.0;"/><rect fill="#F1F1F1" height="36.4883" rx="12.5" ry="12.5" style="stroke:#181818;stroke-width:1.5;" width="160" x="305" y="226.9531"/><text fill="#000000" font-family="sans-serif" font-size="14" lengthAdjust="spacing" textLength="140" x="315" y="250.4883">NetworkInterface (1)</text><path d="M255,442.9063 L265,442.9063 C280,442.9063 280,245.1973 295,245.1973 L305,245.1973 " fill="none" style="stroke:#181818;stroke-width:1.0;"/><rect fill="#F1F1F1" height="36.4883" rx="12.5" ry="12.5" style="stroke:#181818;stroke-width:1.5;" width="83" x="305" y="283.4414"/><text fill="#000000" font-family="sans-serif" font-size="14" lengthAdjust="spacing" textLength="63" x="315" y="306.9766">Route (1)</text><path d="M255,442.9063 L265,442.9063 C280,442.9063 280,301.6855 295,301.6855 L305,301.6855 " fill="none" style="stroke:#181818;stroke-width:1.0;"/><rect fill="#F1F1F1" height="36.4883" rx="12.5" ry="12.5" style="stroke:#181818;stroke-width:1.5;" width="121" x="305" y="339.9297"/><text fill="#000000" font-family="sans-serif" font-size="14" lengthAdjust="spacing" textLength="101" x="315" y="363.4648">RouteTable (3)</text><path d="M255,442.9063 L265,442.9063 C280,442.9063 280,358.1738 295,358.1738 L305,358.1738 " fill="none" style="stroke:#181818;stroke-width:1.0;"/><rect fill="#F1F1F1" height="36.4883" rx="12.5" ry="12.5" style="stroke:#181818;stroke-width:1.5;" width="200" x="305" y="396.418"/><text fill="#000000" font-family="sans-serif" font-size="14" lengthAdjust="spacing" textLength="180" x="315" y="419.9531">RouteTableAssociation (3)</text><path d="M255,442.9063 L265,442.9063 C280,442.9063 280,414.6621 295,414.6621 L305,414.6621 " fill="none" style="stroke:#181818;stroke-width:1.0;"/><rect fill="#F1F1F1" height="36.4883" rx="12.5" ry="12.5" style="stroke:#181818;stroke-width:1.5;" width="140" x="305" y="452.9063"/><text fill="#000000" font-family="sans-serif" font-size="14" lengthAdjust="spacing" textLength="120" x="315" y="476.4414">SecurityGroup (1)</text><path d="M255,442.9063 L265,442.9063 C280,442.9063 280,471.1504 295,471.1504 L305,471.1504 " fill="none" style="stroke:#181818;stroke-width:1.0;"/><rect fill="#F1F1F1" height="36.4883" rx="12.5" ry="12.5" style="stroke:#181818;stroke-width:1.5;" width="220" x="305" y="509.3945"/><text fill="#000000" font-family="sans-serif" font-size="14" lengthAdjust="spacing" textLength="200" x="315" y="532.9297">SecurityGroupRuleIngress (1)</text><path d="M255,442.9063 L265,442.9063 C280,442.9063 280,527.6387 295,527.6387 L305,527.6387 " fill="none" style="stroke:#181818;stroke-width:1.0;"/><rect fill="#F1F1F1" height="36.4883" rx="12.5" ry="12.5" style="stroke:#181818;stroke-width:1.5;" width="91" x="305" y="565.8828"/><text fill="#000000" font-family="sans-serif" font-size="14" lengthAdjust="spacing" textLength="71" x="315" y="589.418">Subnet (3)</text><path d="M255,442.9063 L265,442.9063 C280,442.9063 280,584.127 295,584.127 L305,584.127 " fill="none" style="stroke:#181818;stroke-width:1.0;"/><rect fill="#F1F1F1" height="36.4883" rx="12.5" ry="12.5" style="stroke:#181818;stroke-width:1.5;" width="165" x="305" y="622.3711"/><text fill="#000000" font-family="sans-serif" font-size="14" lengthAdjust="spacing" textLength="145" x="315" y="645.9063">TrafficMirrorFilter (1)</text><path d="M255,442.9063 L265,442.9063 C280,442.9063 280,640.6152 295,640.6152 L305,640.6152 " fill="none" style="stroke:#181818;stroke-width:1.0;"/><rect fill="#F1F1F1" height="36.4883" rx="12.5" ry="12.5" style="stroke:#181818;stroke-width:1.5;" width="182" x="305" y="678.8594"/><text fill="#000000" font-family="sans-serif" font-size="14" lengthAdjust="spacing" textLength="162" x="315" y="702.3945">TrafficMirrorSession (1)</text><path d="M255,442.9063 L265,442.9063 C280,442.9063 280,697.1035 295,697.1035 L305,697.1035 " fill="none" style="stroke:#181818;stroke-width:1.0;"/><rect fill="#F1F1F1" height="36.4883" rx="12.5" ry="12.5" style="stroke:#181818;stroke-width:1.5;" width="175" x="305" y="735.3477"/><text fill="#000000" font-family="sans-serif" font-size="14" lengthAdjust="spacing" textLength="155" x="315" y="758.8828">TrafficMirrorTarget (1)</text><path d="M255,442.9063 L265,442.9063 C280,442.9063 280,753.5918 295,753.5918 L305,753.5918 " fill="none" style="stroke:#181818;stroke-width:1.0;"/><rect fill="#F1F1F1" height="36.4883" rx="12.5" ry="12.5" style="stroke:#181818;stroke-width:1.5;" width="68" x="305" y="791.8359"/><text fill="#000000" font-family="sans-serif" font-size="14" lengthAdjust="spacing" textLength="48" x="315" y="815.3711">Vpc (2)</text><path d="M255,442.9063 L265,442.9063 C280,442.9063 280,810.0801 295,810.0801 L305,810.0801 " fill="none" style="stroke:#181818;stroke-width:1.0;"/><path d="M158,527.6387 L168,527.6387 C183,527.6387 183,442.9063 198,442.9063 L208,442.9063 " fill="none" style="stroke:#181818;stroke-width:1.0;"/><rect fill="#F1F1F1" height="36.4883" rx="12.5" ry="12.5" style="stroke:#181818;stroke-width:1.5;" width="180" x="208" y="904.8125"/><text fill="#000000" font-family="sans-serif" font-size="14" lengthAdjust="spacing" textLength="160" x="218" y="928.3477">ElasticLoadBalancingV2</text><rect fill="#F1F1F1" height="36.4883" rx="12.5" ry="12.5" style="stroke:#181818;stroke-width:1.5;" width="97" x="438" y="848.3242"/><text fill="#000000" font-family="sans-serif" font-size="14" lengthAdjust="spacing" textLength="77" x="448" y="871.8594">Listener (1)</text><path d="M388,923.0566 L398,923.0566 C413,923.0566 413,866.5684 428,866.5684 L438,866.5684 " fill="none" style="stroke:#181818;stroke-width:1.0;"/><rect fill="#F1F1F1" height="36.4883" rx="12.5" ry="12.5" style="stroke:#181818;stroke-width:1.5;" width="134" x="438" y="904.8125"/><text fill="#000000" font-family="sans-serif" font-size="14" lengthAdjust="spacing" textLength="114" x="448" y="928.3477">LoadBalancer (1)</text><path d="M388,923.0566 L398,923.0566 C413,923.0566 413,923.0566 428,923.0566 L438,923.0566 " fill="none" style="stroke:#181818;stroke-width:1.0;"/><rect fill="#F1F1F1" height="36.4883" rx="12.5" ry="12.5" style="stroke:#181818;stroke-width:1.5;" width="131" x="438" y="961.3008"/><text fill="#000000" font-family="sans-serif" font-size="14" lengthAdjust="spacing" textLength="111" x="448" y="984.8359">TargetGroup (1)</text><path d="M388,923.0566 L398,923.0566 C413,923.0566 413,979.5449 428,979.5449 L438,979.5449 " fill="none" style="stroke:#181818;stroke-width:1.0;"/><path d="M158,527.6387 L168,527.6387 C183,527.6387 183,923.0566 198,923.0566 L208,923.0566 " fill="none" style="stroke:#181818;stroke-width:1.0;"/><path d="M62,527.6387 L72,527.6387 C87,527.6387 87,527.6387 102,527.6387 L112,527.6387 " fill="none" style="stroke:#181818;stroke-width:1.0;"/><!--MD5=[cb2a34c445cfe108728e011794a6d8a8]
@startmindmap
title Resources for project traffic-mirror-ec2
skinparam monochrome true
+ Infra
++ aws
+++ EC2
++++ Instance (1)
++++ InternetGateway (1)
++++ InternetGatewayAttachment (1)
++++ NetworkInterface (1)
++++ Route (1)
++++ RouteTable (3)
++++ RouteTableAssociation (3)
++++ SecurityGroup (1)
++++ SecurityGroupRuleIngress (1)
++++ Subnet (3)
++++ TrafficMirrorFilter (1)
++++ TrafficMirrorSession (1)
++++ TrafficMirrorTarget (1)
++++ Vpc (2)
+++ ElasticLoadBalancingV2
++++ Listener (1)
++++ LoadBalancer (1)
++++ TargetGroup (1)
@endmindmap

PlantUML version 1.2022.6(Tue Jun 21 19:34:49 CEST 2022)
(GPL source distribution)
Java Runtime: Java(TM) SE Runtime Environment
JVM: Java HotSpot(TM) 64-Bit Server VM
Default Encoding: UTF-8
Language: en
Country: GB
--></g></svg>