<?xml version="1.0" encoding="UTF-8" standalone="no"?>
<!DOCTYPE svg PUBLIC "-//W3C//DTD SVG 1.1//EN"
 "http://www.w3.org/Graphics/SVG/1.1/DTD/svg11.dtd">
<!-- Generated by graphviz version 2.44.1 (20200629.0846)
 -->
<!-- Title: graphname Pages: 1 -->
<svg width="425pt" height="465pt"
 viewBox="0.00 0.00 425.00 465.00" xmlns="http://www.w3.org/2000/svg" xmlns:xlink="http://www.w3.org/1999/xlink">
<g id="graph0" class="graph" transform="scale(1 1) rotate(0) translate(4 461)">
<title>graphname</title>
<polygon fill="#fafafa" stroke="transparent" points="-4,4 -4,-461 421,-461 421,4 -4,4"/>
<text text-anchor="start" x="150.5" y="-432.4" font-family="Helvetica,sans-Serif" font-weight="bold" font-size="22.00" fill="#383838">Project vm</text>
<text text-anchor="start" x="204.5" y="-416.8" font-family="Helvetica,sans-Serif" font-size="14.00"> &#160;</text>
<text text-anchor="start" x="150.5" y="-395.2" font-family="Helvetica,sans-Serif" font-weight="bold" font-size="16.00" fill="#707070">Target Diagram</text>
<g id="clust1" class="cluster">
<title>cluster_google</title>
<polygon fill="#f5f5f5" stroke="#f5f5f5" points="8,-8 8,-373 409,-373 409,-8 8,-8"/>
<text text-anchor="start" x="133.5" y="-23" font-family="Helvetica,sans-Serif" font-weight="bold" font-size="20.00" fill="#707070">Provider google</text>
</g>
<g id="clust2" class="cluster">
<title>cluster_google_</title>
<polygon fill="#eeeeee" stroke="#eeeeee" points="16,-54 16,-365 401,-365 401,-54 16,-54"/>
<text text-anchor="start" x="208.36" y="-58.3" font-family="Helvetica,sans-Serif" font-size="1.00" fill="#383838"> </text>
</g>
<!-- ServiceAccount::sa&#45;dev -->
<g id="node1" class="node">
<title>ServiceAccount::sa&#45;dev</title>
<polygon fill="#e5e5e5" stroke="#dddddd" points="189,-357 44,-357 44,-299 189,-299 189,-357"/>
<text text-anchor="start" x="56.5" y="-337.2" font-family="Helvetica,sans-Serif" font-weight="bold" font-size="16.00" fill="#707070">ServiceAccount</text>
<text text-anchor="start" x="56.5" y="-312.2" font-family="Helvetica,sans-Serif" font-size="16.00" fill="#383838">sa&#45;dev</text>
</g>
<!-- Address::ip&#45;webserver&#45;dev -->
<g id="node2" class="node">
<title>Address::ip&#45;webserver&#45;dev</title>
<polygon fill="#e5e5e5" stroke="#dddddd" points="393,-129 245,-129 245,-71 393,-71 393,-129"/>
<text text-anchor="start" x="257" y="-109.2" font-family="Helvetica,sans-Serif" font-weight="bold" font-size="16.00" fill="#707070">Address</text>
<text text-anchor="start" x="257" y="-84.2" font-family="Helvetica,sans-Serif" font-size="16.00" fill="#383838">ip&#45;webserver&#45;dev</text>
</g>
<!-- Firewall::firewall&#45;22&#45;80&#45;433&#45;dev -->
<g id="node3" class="node">
<title>Firewall::firewall&#45;22&#45;80&#45;433&#45;dev</title>
<polygon fill="#e5e5e5" stroke="#dddddd" points="209,-281 24,-281 24,-223 209,-223 209,-281"/>
<text text-anchor="start" x="36.5" y="-261.2" font-family="Helvetica,sans-Serif" font-weight="bold" font-size="16.00" fill="#707070">Firewall</text>
<text text-anchor="start" x="36.5" y="-236.2" font-family="Helvetica,sans-Serif" font-size="16.00" fill="#383838">firewall&#45;22&#45;80&#45;433&#45;dev</text>
</g>
<!-- Firewall::firewall&#45;icmp&#45;dev -->
<g id="node4" class="node">
<title>Firewall::firewall&#45;icmp&#45;dev</title>
<polygon fill="#e5e5e5" stroke="#dddddd" points="189.5,-205 43.5,-205 43.5,-147 189.5,-147 189.5,-205"/>
<text text-anchor="start" x="55.5" y="-185.2" font-family="Helvetica,sans-Serif" font-weight="bold" font-size="16.00" fill="#707070">Firewall</text>
<text text-anchor="start" x="55.5" y="-160.2" font-family="Helvetica,sans-Serif" font-size="16.00" fill="#383838">firewall&#45;icmp&#45;dev</text>
</g>
<!-- Disk::disk&#45;dev -->
<g id="node5" class="node">
<title>Disk::disk&#45;dev</title>
<polygon fill="#e5e5e5" stroke="#dddddd" points="361.5,-205 276.5,-205 276.5,-147 361.5,-147 361.5,-205"/>
<text text-anchor="start" x="289" y="-185.2" font-family="Helvetica,sans-Serif" font-weight="bold" font-size="16.00" fill="#707070">Disk</text>
<text text-anchor="start" x="289" y="-160.2" font-family="Helvetica,sans-Serif" font-size="16.00" fill="#383838">disk&#45;dev</text>
</g>
<!-- VmInstance::webserver&#45;dev -->
<g id="node6" class="node">
<title>VmInstance::webserver&#45;dev</title>
<polygon fill="#e5e5e5" stroke="#dddddd" points="181.5,-129 51.5,-129 51.5,-71 181.5,-71 181.5,-129"/>
<text text-anchor="start" x="63.5" y="-109.2" font-family="Helvetica,sans-Serif" font-weight="bold" font-size="16.00" fill="#707070">VmInstance</text>
<text text-anchor="start" x="63.5" y="-84.2" font-family="Helvetica,sans-Serif" font-size="16.00" fill="#383838">webserver&#45;dev</text>
</g>
<!-- VmInstance::webserver&#45;dev&#45;&gt;Address::ip&#45;webserver&#45;dev -->
<g id="edge1" class="edge">
<title>VmInstance::webserver&#45;dev&#45;&gt;Address::ip&#45;webserver&#45;dev</title>
<path fill="none" stroke="#707070" d="M181.77,-100C198.52,-100 216.83,-100 234.42,-100"/>
<polygon fill="#707070" stroke="#707070" points="234.69,-103.5 244.69,-100 234.69,-96.5 234.69,-103.5"/>
</g>
<!-- VmInstance::webserver&#45;dev&#45;&gt;Disk::disk&#45;dev -->
<g id="edge2" class="edge">
<title>VmInstance::webserver&#45;dev&#45;&gt;Disk::disk&#45;dev</title>
<path fill="none" stroke="#707070" d="M181.77,-124.36C209.29,-134.79 240.99,-146.81 266.88,-156.62"/>
<polygon fill="#707070" stroke="#707070" points="265.9,-160 276.5,-160.27 268.39,-153.45 265.9,-160"/>
</g>
</g>
</svg>
