<?xml version="1.0" encoding="UTF-8" standalone="no"?><svg xmlns="http://www.w3.org/2000/svg" xmlns:xlink="http://www.w3.org/1999/xlink" contentStyleType="text/css" height="341px" preserveAspectRatio="none" style="width:484px;height:341px;background:#FFFFFF;" version="1.1" viewBox="0 0 484 341" width="484px" zoomAndPan="magnify"><defs/><g><rect height="26.4883" style="stroke:#00000000;stroke-width:1.0;fill:none;" width="191" x="120" y="15"/><text fill="#000000" font-family="sans-serif" font-size="14" font-weight="bold" lengthAdjust="spacing" textLength="181" x="125" y="33.5352">Resources for project vm</text><rect fill="#F1F1F1" height="36.4883" rx="12.5" ry="12.5" style="stroke:#181818;stroke-width:1.5;" width="52" x="10" y="170.4648"/><text fill="#000000" font-family="sans-serif" font-size="14" lengthAdjust="spacing" textLength="32" x="20" y="194">Infra</text><rect fill="#F1F1F1" height="36.4883" rx="12.5" ry="12.5" style="stroke:#181818;stroke-width:1.5;" width="68" x="112" y="170.4648"/><text fill="#000000" font-family="sans-serif" font-size="14" lengthAdjust="spacing" textLength="48" x="122" y="194">google</text><rect fill="#F1F1F1" height="36.4883" rx="12.5" ry="12.5" style="stroke:#181818;stroke-width:1.5;" width="80" x="230" y="142.2207"/><text fill="#000000" font-family="sans-serif" font-size="14" lengthAdjust="spacing" textLength="60" x="240" y="165.7559">compute</text><rect fill="#F1F1F1" height="36.4883" rx="12.5" ry="12.5" style="stroke:#181818;stroke-width:1.5;" width="99" x="360" y="57.4883"/><text fill="#000000" font-family="sans-serif" font-size="14" lengthAdjust="spacing" textLength="79" x="370" y="81.0234">Address (1)</text><path d="M310,160.4648 L320,160.4648 C335,160.4648 335,75.7324 350,75.7324 L360,75.7324 " fill="none" style="stroke:#181818;stroke-width:1.0;"/><rect fill="#F1F1F1" height="36.4883" rx="12.5" ry="12.5" style="stroke:#181818;stroke-width:1.5;" width="72" x="360" y="113.9766"/><text fill="#000000" font-family="sans-serif" font-size="14" lengthAdjust="spacing" textLength="52" x="370" y="137.5117">Disk (1)</text><path d="M310,160.4648 L320,160.4648 C335,160.4648 335,132.2207 350,132.2207 L360,132.2207 " fill="none" style="stroke:#181818;stroke-width:1.0;"/><rect fill="#F1F1F1" height="36.4883" rx="12.5" ry="12.5" style="stroke:#181818;stroke-width:1.5;" width="96" x="360" y="170.4648"/><text fill="#000000" font-family="sans-serif" font-size="14" lengthAdjust="spacing" textLength="76" x="370" y="194">Firewall (2)</text><path d="M310,160.4648 L320,160.4648 C335,160.4648 335,188.709 350,188.709 L360,188.709 " fill="none" style="stroke:#181818;stroke-width:1.0;"/><rect fill="#F1F1F1" height="36.4883" rx="12.5" ry="12.5" style="stroke:#181818;stroke-width:1.5;" width="100" x="360" y="226.9531"/><text fill="#000000" font-family="sans-serif" font-size="14" lengthAdjust="spacing" textLength="80" x="370" y="250.4883">Instance (1)</text><path d="M310,160.4648 L320,160.4648 C335,160.4648 335,245.1973 350,245.1973 L360,245.1973 " fill="none" style="stroke:#181818;stroke-width:1.0;"/><path d="M180,188.709 L190,188.709 C205,188.709 205,160.4648 220,160.4648 L230,160.4648 " fill="none" style="stroke:#181818;stroke-width:1.0;"/><rect fill="#F1F1F1" height="36.4883" rx="12.5" ry="12.5" style="stroke:#181818;stroke-width:1.5;" width="45" x="230" y="283.4414"/><text fill="#000000" font-family="sans-serif" font-size="14" lengthAdjust="spacing" textLength="25" x="240" y="306.9766">iam</text><rect fill="#F1F1F1" height="36.4883" rx="12.5" ry="12.5" style="stroke:#181818;stroke-width:1.5;" width="147" x="325" y="283.4414"/><text fill="#000000" font-family="sans-serif" font-size="14" lengthAdjust="spacing" textLength="127" x="335" y="306.9766">ServiceAccount (1)</text><path d="M275,301.6855 L285,301.6855 C300,301.6855 300,301.6855 315,301.6855 L325,301.6855 " fill="none" style="stroke:#181818;stroke-width:1.0;"/><path d="M180,188.709 L190,188.709 C205,188.709 205,301.6855 220,301.6855 L230,301.6855 " fill="none" style="stroke:#181818;stroke-width:1.0;"/><path d="M62,188.709 L72,188.709 C87,188.709 87,188.709 102,188.709 L112,188.709 " fill="none" style="stroke:#181818;stroke-width:1.0;"/><!--MD5=[e314766fd09d93df70b6bc7e6d0c2096]
@startmindmap
title Resources for project vm
skinparam monochrome true
+ Infra
++ google
+++ compute
++++ Address (1)
++++ Disk (1)
++++ Firewall (2)
++++ Instance (1)
+++ iam
++++ ServiceAccount (1)
@endmindmap

PlantUML version 1.2022.6(Tue Jun 21 19:34:49 CEST 2022)
(GPL source distribution)
Java Runtime: Java(TM) SE Runtime Environment
JVM: Java HotSpot(TM) 64-Bit Server VM
Default Encoding: UTF-8
Language: en
Country: GB
--></g></svg>