<?xml version="1.0" encoding="UTF-8" standalone="no"?>
<!DOCTYPE svg PUBLIC "-//W3C//DTD SVG 1.1//EN"
 "http://www.w3.org/Graphics/SVG/1.1/DTD/svg11.dtd">
<!-- Generated by graphviz version 7.1.0 (20230121.1956)
 -->
<!-- Title: graphname Pages: 1 -->
<svg width="1040pt" height="465pt"
 viewBox="0.00 0.00 1040.00 465.00" xmlns="http://www.w3.org/2000/svg" xmlns:xlink="http://www.w3.org/1999/xlink">
<g id="graph0" class="graph" transform="scale(1 1) rotate(0) translate(4 461)">
<title>graphname</title>
<polygon fill="#fafafa" stroke="none" points="-4,4 -4,-461 1036,-461 1036,4 -4,4"/>
<text text-anchor="start" x="302" y="-432.4" font-family="Helvetica,sans-Serif" font-weight="bold" font-size="22.00" fill="#383838">Project auroraserverless&#45;secretsmanager</text>
<text text-anchor="start" x="512.5" y="-416.8" font-family="Helvetica,sans-Serif" font-size="14.00"> &#160;</text>
<text text-anchor="start" x="302" y="-395.2" font-family="Helvetica,sans-Serif" font-weight="bold" font-size="16.00" fill="#707070">Target Diagram</text>
<g id="clust1" class="cluster">
<title>cluster_aws</title>
<polygon fill="#f5f5f5" stroke="#f5f5f5" points="8,-8 8,-373 1024,-373 1024,-8 8,-8"/>
<text text-anchor="start" x="454" y="-23" font-family="Helvetica,sans-Serif" font-weight="bold" font-size="20.00" fill="#707070">Provider aws</text>
</g>
<g id="clust2" class="cluster">
<title>cluster_aws_</title>
<polygon fill="#eeeeee" stroke="#eeeeee" points="16,-54 16,-365 1016,-365 1016,-54 16,-54"/>
<text text-anchor="start" x="515.86" y="-58.3" font-family="Helvetica,sans-Serif" font-size="1.00" fill="#383838"> </text>
</g>
<!-- Vpc::Vpc8378EB38 -->
<g id="node1" class="node">
<title>Vpc::Vpc8378EB38</title>
<polygon fill="#e5e5e5" stroke="#dddddd" points="1008,-243 881,-243 881,-185 1008,-185 1008,-243"/>
<text text-anchor="start" x="893.5" y="-223.2" font-family="Helvetica,sans-Serif" font-weight="bold" font-size="16.00" fill="#707070">EC2::Vpc</text>
<text text-anchor="start" x="893.5" y="-198.2" font-family="Helvetica,sans-Serif" font-size="16.00" fill="#383838">Vpc8378EB38</text>
</g>
<!-- Subnet::Vpc8378EB38::VpcauroraisolatedSubnet1Subnet5370B90B -->
<g id="node2" class="node">
<title>Subnet::Vpc8378EB38::VpcauroraisolatedSubnet1Subnet5370B90B</title>
<polygon fill="#e5e5e5" stroke="#dddddd" points="845,-281 545,-281 545,-223 845,-223 845,-281"/>
<text text-anchor="start" x="557" y="-261.2" font-family="Helvetica,sans-Serif" font-weight="bold" font-size="16.00" fill="#707070">EC2::Subnet</text>
<text text-anchor="start" x="557" y="-236.2" font-family="Helvetica,sans-Serif" font-size="16.00" fill="#383838">Vpc8378EB38::VpcauroraisolatedSu...</text>
</g>
<!-- Subnet::Vpc8378EB38::VpcauroraisolatedSubnet1Subnet5370B90B&#45;&gt;Vpc::Vpc8378EB38 -->
<g id="edge1" class="edge">
<title>Subnet::Vpc8378EB38::VpcauroraisolatedSubnet1Subnet5370B90B&#45;&gt;Vpc::Vpc8378EB38</title>
<path fill="none" stroke="#707070" d="M845.33,-229.07C853.56,-227.81 861.63,-226.57 869.39,-225.38"/>
<polygon fill="#707070" stroke="#707070" points="869.67,-228.88 879.02,-223.9 868.61,-221.96 869.67,-228.88"/>
</g>
<!-- Subnet::Vpc8378EB38::VpcauroraisolatedSubnet2SubnetCB56E2A8 -->
<g id="node3" class="node">
<title>Subnet::Vpc8378EB38::VpcauroraisolatedSubnet2SubnetCB56E2A8</title>
<polygon fill="#e5e5e5" stroke="#dddddd" points="845,-205 545,-205 545,-147 845,-147 845,-205"/>
<text text-anchor="start" x="557" y="-185.2" font-family="Helvetica,sans-Serif" font-weight="bold" font-size="16.00" fill="#707070">EC2::Subnet</text>
<text text-anchor="start" x="557" y="-160.2" font-family="Helvetica,sans-Serif" font-size="16.00" fill="#383838">Vpc8378EB38::VpcauroraisolatedSu...</text>
</g>
<!-- Subnet::Vpc8378EB38::VpcauroraisolatedSubnet2SubnetCB56E2A8&#45;&gt;Vpc::Vpc8378EB38 -->
<g id="edge2" class="edge">
<title>Subnet::Vpc8378EB38::VpcauroraisolatedSubnet2SubnetCB56E2A8&#45;&gt;Vpc::Vpc8378EB38</title>
<path fill="none" stroke="#707070" d="M845.33,-198.93C853.56,-200.19 861.63,-201.43 869.39,-202.62"/>
<polygon fill="#707070" stroke="#707070" points="868.61,-206.04 879.02,-204.1 869.67,-199.12 868.61,-206.04"/>
</g>
<!-- RouteTable::Vpc8378EB38::VpcauroraisolatedSubnet1RouteTableA8F6E99C -->
<g id="node4" class="node">
<title>RouteTable::Vpc8378EB38::VpcauroraisolatedSubnet1RouteTableA8F6E99C</title>
<polygon fill="#e5e5e5" stroke="#dddddd" points="845,-357 545,-357 545,-299 845,-299 845,-357"/>
<text text-anchor="start" x="557" y="-337.2" font-family="Helvetica,sans-Serif" font-weight="bold" font-size="16.00" fill="#707070">EC2::RouteTable</text>
<text text-anchor="start" x="557" y="-312.2" font-family="Helvetica,sans-Serif" font-size="16.00" fill="#383838">Vpc8378EB38::VpcauroraisolatedSu...</text>
</g>
<!-- RouteTable::Vpc8378EB38::VpcauroraisolatedSubnet1RouteTableA8F6E99C&#45;&gt;Vpc::Vpc8378EB38 -->
<g id="edge3" class="edge">
<title>RouteTable::Vpc8378EB38::VpcauroraisolatedSubnet1RouteTableA8F6E99C&#45;&gt;Vpc::Vpc8378EB38</title>
<path fill="none" stroke="#707070" d="M825.21,-298.61C832,-295.96 838.64,-293.1 845,-290 866,-279.77 886.83,-264.62 903.9,-250.53"/>
<polygon fill="#707070" stroke="#707070" points="905.93,-253.4 911.3,-244.27 901.41,-248.05 905.93,-253.4"/>
</g>
<!-- RouteTable::Vpc8378EB38::VpcauroraisolatedSubnet2RouteTableBF363B67 -->
<g id="node5" class="node">
<title>RouteTable::Vpc8378EB38::VpcauroraisolatedSubnet2RouteTableBF363B67</title>
<polygon fill="#e5e5e5" stroke="#dddddd" points="845,-129 545,-129 545,-71 845,-71 845,-129"/>
<text text-anchor="start" x="557" y="-109.2" font-family="Helvetica,sans-Serif" font-weight="bold" font-size="16.00" fill="#707070">EC2::RouteTable</text>
<text text-anchor="start" x="557" y="-84.2" font-family="Helvetica,sans-Serif" font-size="16.00" fill="#383838">Vpc8378EB38::VpcauroraisolatedSu...</text>
</g>
<!-- RouteTable::Vpc8378EB38::VpcauroraisolatedSubnet2RouteTableBF363B67&#45;&gt;Vpc::Vpc8378EB38 -->
<g id="edge4" class="edge">
<title>RouteTable::Vpc8378EB38::VpcauroraisolatedSubnet2RouteTableBF363B67&#45;&gt;Vpc::Vpc8378EB38</title>
<path fill="none" stroke="#707070" d="M825.21,-129.39C832,-132.04 838.64,-134.9 845,-138 866,-148.23 886.83,-163.38 903.9,-177.47"/>
<polygon fill="#707070" stroke="#707070" points="901.41,-179.95 911.3,-183.73 905.93,-174.6 901.41,-179.95"/>
</g>
<!-- RouteTableAssociation::rt&#45;assoc::Vpc8378EB38::VpcauroraisolatedSubnet1RouteTableA8F6E99C::Vpc8378EB38::VpcauroraisolatedSubnet1Subnet5370B90B -->
<g id="node6" class="node">
<title>RouteTableAssociation::rt&#45;assoc::Vpc8378EB38::VpcauroraisolatedSubnet1RouteTableA8F6E99C::Vpc8378EB38::VpcauroraisolatedSubnet1Subnet5370B90B</title>
<polygon fill="#e5e5e5" stroke="#dddddd" points="505.5,-357 214.5,-357 214.5,-299 505.5,-299 505.5,-357"/>
<text text-anchor="start" x="227" y="-337.2" font-family="Helvetica,sans-Serif" font-weight="bold" font-size="16.00" fill="#707070">EC2::RouteTableAssociation</text>
<text text-anchor="start" x="227" y="-312.2" font-family="Helvetica,sans-Serif" font-size="16.00" fill="#383838">rt&#45;assoc::Vpc8378EB38::Vpcaurora...</text>
</g>
<!-- RouteTableAssociation::rt&#45;assoc::Vpc8378EB38::VpcauroraisolatedSubnet1RouteTableA8F6E99C::Vpc8378EB38::VpcauroraisolatedSubnet1Subnet5370B90B&#45;&gt;Subnet::Vpc8378EB38::VpcauroraisolatedSubnet1Subnet5370B90B -->
<g id="edge6" class="edge">
<title>RouteTableAssociation::rt&#45;assoc::Vpc8378EB38::VpcauroraisolatedSubnet1RouteTableA8F6E99C::Vpc8378EB38::VpcauroraisolatedSubnet1Subnet5370B90B&#45;&gt;Subnet::Vpc8378EB38::VpcauroraisolatedSubnet1Subnet5370B90B</title>
<path fill="none" stroke="#707070" d="M490.22,-298.51C511.08,-293.75 532.77,-288.8 553.87,-283.98"/>
<polygon fill="#707070" stroke="#707070" points="554.4,-287.45 563.37,-281.81 552.85,-280.63 554.4,-287.45"/>
</g>
<!-- RouteTableAssociation::rt&#45;assoc::Vpc8378EB38::VpcauroraisolatedSubnet1RouteTableA8F6E99C::Vpc8378EB38::VpcauroraisolatedSubnet1Subnet5370B90B&#45;&gt;RouteTable::Vpc8378EB38::VpcauroraisolatedSubnet1RouteTableA8F6E99C -->
<g id="edge5" class="edge">
<title>RouteTableAssociation::rt&#45;assoc::Vpc8378EB38::VpcauroraisolatedSubnet1RouteTableA8F6E99C::Vpc8378EB38::VpcauroraisolatedSubnet1Subnet5370B90B&#45;&gt;RouteTable::Vpc8378EB38::VpcauroraisolatedSubnet1RouteTableA8F6E99C</title>
<path fill="none" stroke="#707070" d="M505.61,-328C514.78,-328 524.04,-328 533.28,-328"/>
<polygon fill="#707070" stroke="#707070" points="533.01,-331.5 543.01,-328 533.01,-324.5 533.01,-331.5"/>
</g>
<!-- RouteTableAssociation::rt&#45;assoc::Vpc8378EB38::VpcauroraisolatedSubnet2RouteTableBF363B67::Vpc8378EB38::VpcauroraisolatedSubnet2SubnetCB56E2A8 -->
<g id="node7" class="node">
<title>RouteTableAssociation::rt&#45;assoc::Vpc8378EB38::VpcauroraisolatedSubnet2RouteTableBF363B67::Vpc8378EB38::VpcauroraisolatedSubnet2SubnetCB56E2A8</title>
<polygon fill="#e5e5e5" stroke="#dddddd" points="505.5,-129 214.5,-129 214.5,-71 505.5,-71 505.5,-129"/>
<text text-anchor="start" x="227" y="-109.2" font-family="Helvetica,sans-Serif" font-weight="bold" font-size="16.00" fill="#707070">EC2::RouteTableAssociation</text>
<text text-anchor="start" x="227" y="-84.2" font-family="Helvetica,sans-Serif" font-size="16.00" fill="#383838">rt&#45;assoc::Vpc8378EB38::Vpcaurora...</text>
</g>
<!-- RouteTableAssociation::rt&#45;assoc::Vpc8378EB38::VpcauroraisolatedSubnet2RouteTableBF363B67::Vpc8378EB38::VpcauroraisolatedSubnet2SubnetCB56E2A8&#45;&gt;Subnet::Vpc8378EB38::VpcauroraisolatedSubnet2SubnetCB56E2A8 -->
<g id="edge8" class="edge">
<title>RouteTableAssociation::rt&#45;assoc::Vpc8378EB38::VpcauroraisolatedSubnet2RouteTableBF363B67::Vpc8378EB38::VpcauroraisolatedSubnet2SubnetCB56E2A8&#45;&gt;Subnet::Vpc8378EB38::VpcauroraisolatedSubnet2SubnetCB56E2A8</title>
<path fill="none" stroke="#707070" d="M490.22,-129.49C511.08,-134.25 532.77,-139.2 553.87,-144.02"/>
<polygon fill="#707070" stroke="#707070" points="552.85,-147.37 563.37,-146.19 554.4,-140.55 552.85,-147.37"/>
</g>
<!-- RouteTableAssociation::rt&#45;assoc::Vpc8378EB38::VpcauroraisolatedSubnet2RouteTableBF363B67::Vpc8378EB38::VpcauroraisolatedSubnet2SubnetCB56E2A8&#45;&gt;RouteTable::Vpc8378EB38::VpcauroraisolatedSubnet2RouteTableBF363B67 -->
<g id="edge7" class="edge">
<title>RouteTableAssociation::rt&#45;assoc::Vpc8378EB38::VpcauroraisolatedSubnet2RouteTableBF363B67::Vpc8378EB38::VpcauroraisolatedSubnet2SubnetCB56E2A8&#45;&gt;RouteTable::Vpc8378EB38::VpcauroraisolatedSubnet2RouteTableBF363B67</title>
<path fill="none" stroke="#707070" d="M505.61,-100C514.78,-100 524.04,-100 533.28,-100"/>
<polygon fill="#707070" stroke="#707070" points="533.01,-103.5 543.01,-100 533.01,-96.5 533.01,-103.5"/>
</g>
<!-- DBCluster::aurora&#45;serverless -->
<g id="node8" class="node">
<title>DBCluster::aurora&#45;serverless</title>
<polygon fill="#e5e5e5" stroke="#dddddd" points="175,-243 24,-243 24,-185 175,-185 175,-243"/>
<text text-anchor="start" x="36.5" y="-223.2" font-family="Helvetica,sans-Serif" font-weight="bold" font-size="16.00" fill="#707070">RDS::DBCluster</text>
<text text-anchor="start" x="36.5" y="-198.2" font-family="Helvetica,sans-Serif" font-size="16.00" fill="#383838">aurora&#45;serverless</text>
</g>
<!-- DBSubnetGroup::aurora&#45;serverless&#45;subnet&#45;group -->
<g id="node9" class="node">
<title>DBSubnetGroup::aurora&#45;serverless&#45;subnet&#45;group</title>
<polygon fill="#e5e5e5" stroke="#dddddd" points="485.5,-281 234.5,-281 234.5,-223 485.5,-223 485.5,-281"/>
<text text-anchor="start" x="247" y="-261.2" font-family="Helvetica,sans-Serif" font-weight="bold" font-size="16.00" fill="#707070">RDS::DBSubnetGroup</text>
<text text-anchor="start" x="247" y="-236.2" font-family="Helvetica,sans-Serif" font-size="16.00" fill="#383838">aurora&#45;serverless&#45;subnet&#45;group</text>
</g>
<!-- DBCluster::aurora&#45;serverless&#45;&gt;DBSubnetGroup::aurora&#45;serverless&#45;subnet&#45;group -->
<g id="edge9" class="edge">
<title>DBCluster::aurora&#45;serverless&#45;&gt;DBSubnetGroup::aurora&#45;serverless&#45;subnet&#45;group</title>
<path fill="none" stroke="#707070" d="M175.27,-224.99C190.29,-227.2 206.52,-229.58 222.89,-231.99"/>
<polygon fill="#707070" stroke="#707070" points="222.33,-235.45 232.74,-233.44 223.35,-228.52 222.33,-235.45"/>
</g>
<!-- Secret::demordsservice&#45;demostage&#45;credentials -->
<g id="node10" class="node">
<title>Secret::demordsservice&#45;demostage&#45;credentials</title>
<polygon fill="#e5e5e5" stroke="#dddddd" points="509,-205 211,-205 211,-147 509,-147 509,-205"/>
<text text-anchor="start" x="223" y="-185.2" font-family="Helvetica,sans-Serif" font-weight="bold" font-size="16.00" fill="#707070">SecretsManager::Secret</text>
<text text-anchor="start" x="223" y="-160.2" font-family="Helvetica,sans-Serif" font-size="16.00" fill="#383838">demordsservice&#45;demostage&#45;credent...</text>
</g>
<!-- DBCluster::aurora&#45;serverless&#45;&gt;Secret::demordsservice&#45;demostage&#45;credentials -->
<g id="edge10" class="edge">
<title>DBCluster::aurora&#45;serverless&#45;&gt;Secret::demordsservice&#45;demostage&#45;credentials</title>
<path fill="none" stroke="#707070" d="M175.27,-203.01C183.15,-201.85 191.36,-200.64 199.75,-199.41"/>
<polygon fill="#707070" stroke="#707070" points="199.98,-202.91 209.37,-198 198.97,-195.99 199.98,-202.91"/>
</g>
<!-- DBSubnetGroup::aurora&#45;serverless&#45;subnet&#45;group&#45;&gt;Subnet::Vpc8378EB38::VpcauroraisolatedSubnet1Subnet5370B90B -->
<g id="edge11" class="edge">
<title>DBSubnetGroup::aurora&#45;serverless&#45;subnet&#45;group&#45;&gt;Subnet::Vpc8378EB38::VpcauroraisolatedSubnet1Subnet5370B90B</title>
<path fill="none" stroke="#707070" d="M485.94,-252C501.54,-252 517.65,-252 533.69,-252"/>
<polygon fill="#707070" stroke="#707070" points="533.26,-255.5 543.26,-252 533.26,-248.5 533.26,-255.5"/>
</g>
<!-- DBSubnetGroup::aurora&#45;serverless&#45;subnet&#45;group&#45;&gt;Subnet::Vpc8378EB38::VpcauroraisolatedSubnet2SubnetCB56E2A8 -->
<g id="edge12" class="edge">
<title>DBSubnetGroup::aurora&#45;serverless&#45;subnet&#45;group&#45;&gt;Subnet::Vpc8378EB38::VpcauroraisolatedSubnet2SubnetCB56E2A8</title>
<path fill="none" stroke="#707070" d="M485.94,-223.48C508.07,-218.43 531.24,-213.15 553.75,-208.01"/>
<polygon fill="#707070" stroke="#707070" points="554.3,-211.47 563.27,-205.84 552.74,-204.65 554.3,-211.47"/>
</g>
</g>
</svg>
