<?xml version="1.0" encoding="UTF-8" standalone="no"?>
<!DOCTYPE svg PUBLIC "-//W3C//DTD SVG 1.1//EN"
 "http://www.w3.org/Graphics/SVG/1.1/DTD/svg11.dtd">
<!-- Generated by graphviz version 2.44.1 (20200629.0846)
 -->
<!-- Title: graphname Pages: 1 -->
<svg width="731pt" height="389pt"
 viewBox="0.00 0.00 731.00 389.00" xmlns="http://www.w3.org/2000/svg" xmlns:xlink="http://www.w3.org/1999/xlink">
<g id="graph0" class="graph" transform="scale(1 1) rotate(0) translate(4 385)">
<title>graphname</title>
<polygon fill="#fafafa" stroke="transparent" points="-4,4 -4,-385 727,-385 727,4 -4,4"/>
<text text-anchor="start" x="275.5" y="-356.4" font-family="Helvetica,sans-Serif" font-weight="bold" font-size="22.00" fill="#383838">Project postgres</text>
<text text-anchor="start" x="358" y="-340.8" font-family="Helvetica,sans-Serif" font-size="14.00"> &#160;</text>
<text text-anchor="start" x="275.5" y="-319.2" font-family="Helvetica,sans-Serif" font-weight="bold" font-size="16.00" fill="#707070">Target Diagram</text>
<g id="clust1" class="cluster">
<title>cluster_aws</title>
<polygon fill="#f5f5f5" stroke="#f5f5f5" points="8,-8 8,-297 715,-297 715,-8 8,-8"/>
<text text-anchor="start" x="299.5" y="-23" font-family="Helvetica,sans-Serif" font-weight="bold" font-size="20.00" fill="#707070">Provider aws</text>
</g>
<g id="clust2" class="cluster">
<title>cluster_aws_</title>
<polygon fill="#eeeeee" stroke="#eeeeee" points="16,-54 16,-289 707,-289 707,-54 16,-54"/>
<text text-anchor="start" x="361.36" y="-58.3" font-family="Helvetica,sans-Serif" font-size="1.00" fill="#383838"> </text>
</g>
<!-- Vpc::vpc&#45;postgres -->
<g id="node1" class="node">
<title>Vpc::vpc&#45;postgres</title>
<polygon fill="#e5e5e5" stroke="#dddddd" points="699,-205 581,-205 581,-147 699,-147 699,-205"/>
<text text-anchor="start" x="593" y="-185.2" font-family="Helvetica,sans-Serif" font-weight="bold" font-size="16.00" fill="#707070">Vpc</text>
<text text-anchor="start" x="593" y="-160.2" font-family="Helvetica,sans-Serif" font-size="16.00" fill="#383838">vpc&#45;postgres</text>
</g>
<!-- InternetGateway::ig -->
<g id="node2" class="node">
<title>InternetGateway::ig</title>
<polygon fill="#e5e5e5" stroke="#dddddd" points="545,-281 395,-281 395,-223 545,-223 545,-281"/>
<text text-anchor="start" x="407" y="-261.2" font-family="Helvetica,sans-Serif" font-weight="bold" font-size="16.00" fill="#707070">InternetGateway</text>
<text text-anchor="start" x="407" y="-236.2" font-family="Helvetica,sans-Serif" font-size="16.00" fill="#383838">ig</text>
</g>
<!-- InternetGateway::ig&#45;&gt;Vpc::vpc&#45;postgres -->
<g id="edge1" class="edge">
<title>InternetGateway::ig&#45;&gt;Vpc::vpc&#45;postgres</title>
<path fill="none" stroke="#707070" d="M535.47,-222.83C547.23,-217.52 559.52,-211.95 571.37,-206.6"/>
<polygon fill="#707070" stroke="#707070" points="573.08,-209.66 580.75,-202.35 570.2,-203.28 573.08,-209.66"/>
</g>
<!-- Subnet::subnet&#45;1 -->
<g id="node3" class="node">
<title>Subnet::subnet&#45;1</title>
<polygon fill="#e5e5e5" stroke="#dddddd" points="514,-129 426,-129 426,-71 514,-71 514,-129"/>
<text text-anchor="start" x="438" y="-109.2" font-family="Helvetica,sans-Serif" font-weight="bold" font-size="16.00" fill="#707070">Subnet</text>
<text text-anchor="start" x="438" y="-84.2" font-family="Helvetica,sans-Serif" font-size="16.00" fill="#383838">subnet&#45;1</text>
</g>
<!-- Subnet::subnet&#45;1&#45;&gt;Vpc::vpc&#45;postgres -->
<g id="edge2" class="edge">
<title>Subnet::subnet&#45;1&#45;&gt;Vpc::vpc&#45;postgres</title>
<path fill="none" stroke="#707070" d="M514.26,-119.57C531.81,-127.51 552.47,-136.86 571.89,-145.64"/>
<polygon fill="#707070" stroke="#707070" points="570.44,-148.83 581,-149.76 573.33,-142.45 570.44,-148.83"/>
</g>
<!-- Subnet::subnet&#45;2 -->
<g id="node4" class="node">
<title>Subnet::subnet&#45;2</title>
<polygon fill="#e5e5e5" stroke="#dddddd" points="514,-205 426,-205 426,-147 514,-147 514,-205"/>
<text text-anchor="start" x="438" y="-185.2" font-family="Helvetica,sans-Serif" font-weight="bold" font-size="16.00" fill="#707070">Subnet</text>
<text text-anchor="start" x="438" y="-160.2" font-family="Helvetica,sans-Serif" font-size="16.00" fill="#383838">subnet&#45;2</text>
</g>
<!-- Subnet::subnet&#45;2&#45;&gt;Vpc::vpc&#45;postgres -->
<g id="edge3" class="edge">
<title>Subnet::subnet&#45;2&#45;&gt;Vpc::vpc&#45;postgres</title>
<path fill="none" stroke="#707070" d="M514.26,-176C531.49,-176 551.73,-176 570.83,-176"/>
<polygon fill="#707070" stroke="#707070" points="571,-179.5 581,-176 571,-172.5 571,-179.5"/>
</g>
<!-- DBSubnetGroup::subnet&#45;group&#45;postgres -->
<g id="node5" class="node">
<title>DBSubnetGroup::subnet&#45;group&#45;postgres</title>
<polygon fill="#e5e5e5" stroke="#dddddd" points="359,-167 172,-167 172,-109 359,-109 359,-167"/>
<text text-anchor="start" x="184.5" y="-147.2" font-family="Helvetica,sans-Serif" font-weight="bold" font-size="16.00" fill="#707070">DBSubnetGroup</text>
<text text-anchor="start" x="184.5" y="-122.2" font-family="Helvetica,sans-Serif" font-size="16.00" fill="#383838">subnet&#45;group&#45;postgres</text>
</g>
<!-- DBSubnetGroup::subnet&#45;group&#45;postgres&#45;&gt;Subnet::subnet&#45;1 -->
<g id="edge4" class="edge">
<title>DBSubnetGroup::subnet&#45;group&#45;postgres&#45;&gt;Subnet::subnet&#45;1</title>
<path fill="none" stroke="#707070" d="M359.16,-120.61C378.66,-116.95 398.59,-113.21 416.02,-109.94"/>
<polygon fill="#707070" stroke="#707070" points="416.79,-113.36 425.98,-108.07 415.5,-106.48 416.79,-113.36"/>
</g>
<!-- DBSubnetGroup::subnet&#45;group&#45;postgres&#45;&gt;Subnet::subnet&#45;2 -->
<g id="edge5" class="edge">
<title>DBSubnetGroup::subnet&#45;group&#45;postgres&#45;&gt;Subnet::subnet&#45;2</title>
<path fill="none" stroke="#707070" d="M359.16,-155.39C378.66,-159.05 398.59,-162.79 416.02,-166.06"/>
<polygon fill="#707070" stroke="#707070" points="415.5,-169.52 425.98,-167.93 416.79,-162.64 415.5,-169.52"/>
</g>
<!-- DBInstance::db&#45;instance -->
<g id="node6" class="node">
<title>DBInstance::db&#45;instance</title>
<polygon fill="#e5e5e5" stroke="#dddddd" points="136,-167 24,-167 24,-109 136,-109 136,-167"/>
<text text-anchor="start" x="36" y="-147.2" font-family="Helvetica,sans-Serif" font-weight="bold" font-size="16.00" fill="#707070">DBInstance</text>
<text text-anchor="start" x="36" y="-122.2" font-family="Helvetica,sans-Serif" font-size="16.00" fill="#383838">db&#45;instance</text>
</g>
<!-- DBInstance::db&#45;instance&#45;&gt;DBSubnetGroup::subnet&#45;group&#45;postgres -->
<g id="edge6" class="edge">
<title>DBInstance::db&#45;instance&#45;&gt;DBSubnetGroup::subnet&#45;group&#45;postgres</title>
<path fill="none" stroke="#707070" d="M136.06,-138C144.17,-138 152.75,-138 161.47,-138"/>
<polygon fill="#707070" stroke="#707070" points="161.74,-141.5 171.74,-138 161.74,-134.5 161.74,-141.5"/>
</g>
</g>
</svg>
