<?xml version="1.0" encoding="UTF-8" standalone="no"?><svg xmlns="http://www.w3.org/2000/svg" xmlns:xlink="http://www.w3.org/1999/xlink" contentScriptType="application/ecmascript" contentStyleType="text/css" height="624px" preserveAspectRatio="none" style="width:788px;height:624px;background:#FFFFFF;" version="1.1" viewBox="0 0 788 624" width="788px" zoomAndPan="magnify"><defs><filter height="300%" id="fqa9oxbzjhheu" width="300%" x="-1" y="-1"><feGaussianBlur result="blurOut" stdDeviation="2.0"/><feColorMatrix in="blurOut" result="blurOut2" type="matrix" values="0 0 0 0 0 0 0 0 0 0 0 0 0 0 0 0 0 0 .4 0"/><feOffset dx="4.0" dy="4.0" in="blurOut2" result="blurOut3"/><feBlend in="SourceGraphic" in2="blurOut3" mode="normal"/></filter></defs><g><rect fill="none" height="26.4883" style="stroke:none;stroke-width:1.0;" width="232" x="248" y="15"/><text fill="#000000" font-family="sans-serif" font-size="14" font-weight="bold" lengthAdjust="spacing" textLength="222" x="253" y="33.5352">Resources for project postgres</text><rect fill="#F8F8F8" filter="url(#fqa9oxbzjhheu)" height="36.4883" rx="12.5" ry="12.5" style="stroke:#383838;stroke-width:1.5;" width="52" x="10" y="311.6855"/><text fill="#000000" font-family="sans-serif" font-size="14" lengthAdjust="spacing" textLength="32" x="20" y="335.2207">Infra</text><rect fill="#F8F8F8" filter="url(#fqa9oxbzjhheu)" height="36.4883" rx="12.5" ry="12.5" style="stroke:#383838;stroke-width:1.5;" width="46" x="112" y="311.6855"/><text fill="#000000" font-family="sans-serif" font-size="14" lengthAdjust="spacing" textLength="26" x="122" y="335.2207">aws</text><rect fill="#F8F8F8" filter="url(#fqa9oxbzjhheu)" height="36.4883" rx="12.5" ry="12.5" style="stroke:#383838;stroke-width:1.5;" width="44" x="208" y="255.1973"/><text fill="#000000" font-family="sans-serif" font-size="14" lengthAdjust="spacing" textLength="24" x="218" y="278.7324">ec2</text><rect fill="#F8F8F8" filter="url(#fqa9oxbzjhheu)" height="36.4883" rx="12.5" ry="12.5" style="stroke:#383838;stroke-width:1.5;" width="68" x="302" y="57.4883"/><text fill="#000000" font-family="sans-serif" font-size="14" lengthAdjust="spacing" textLength="48" x="312" y="81.0234">Vpc (1)</text><rect fill="#F8F8F8" filter="url(#fqa9oxbzjhheu)" height="36.4883" rx="12.5" ry="12.5" style="stroke:#383838;stroke-width:1.5;" width="111" x="420" y="57.4883"/><text fill="#000000" font-family="sans-serif" font-size="14" lengthAdjust="spacing" textLength="91" x="430" y="81.0234">vpc-postgres</text><path d="M370,75.7324 L380,75.7324 C395,75.7324 395,75.7324 410,75.7324 L420,75.7324 " fill="none" style="stroke:#383838;stroke-width:1.0;"/><path d="M252,273.4414 L262,273.4414 C277,273.4414 277,75.7324 292,75.7324 L302,75.7324 " fill="none" style="stroke:#383838;stroke-width:1.0;"/><rect fill="#F8F8F8" filter="url(#fqa9oxbzjhheu)" height="36.4883" rx="12.5" ry="12.5" style="stroke:#383838;stroke-width:1.5;" width="154" x="302" y="113.9766"/><text fill="#000000" font-family="sans-serif" font-size="14" lengthAdjust="spacing" textLength="134" x="312" y="137.5117">InternetGateway (1)</text><rect fill="#F8F8F8" filter="url(#fqa9oxbzjhheu)" height="36.4883" rx="12.5" ry="12.5" style="stroke:#383838;stroke-width:1.5;" width="33" x="506" y="113.9766"/><text fill="#000000" font-family="sans-serif" font-size="14" lengthAdjust="spacing" textLength="13" x="516" y="137.5117">ig</text><path d="M456,132.2207 L466,132.2207 C481,132.2207 481,132.2207 496,132.2207 L506,132.2207 " fill="none" style="stroke:#383838;stroke-width:1.0;"/><path d="M252,273.4414 L262,273.4414 C277,273.4414 277,132.2207 292,132.2207 L302,132.2207 " fill="none" style="stroke:#383838;stroke-width:1.0;"/><rect fill="#F8F8F8" filter="url(#fqa9oxbzjhheu)" height="36.4883" rx="12.5" ry="12.5" style="stroke:#383838;stroke-width:1.5;" width="140" x="302" y="170.4648"/><text fill="#000000" font-family="sans-serif" font-size="14" lengthAdjust="spacing" textLength="120" x="312" y="194">SecurityGroup (1)</text><rect fill="#F8F8F8" filter="url(#fqa9oxbzjhheu)" height="36.4883" rx="12.5" ry="12.5" style="stroke:#383838;stroke-width:1.5;" width="123" x="492" y="170.4648"/><text fill="#000000" font-family="sans-serif" font-size="14" lengthAdjust="spacing" textLength="103" x="502" y="194">security-group</text><path d="M442,188.709 L452,188.709 C467,188.709 467,188.709 482,188.709 L492,188.709 " fill="none" style="stroke:#383838;stroke-width:1.0;"/><path d="M252,273.4414 L262,273.4414 C277,273.4414 277,188.709 292,188.709 L302,188.709 " fill="none" style="stroke:#383838;stroke-width:1.0;"/><rect fill="#F8F8F8" filter="url(#fqa9oxbzjhheu)" height="36.4883" rx="12.5" ry="12.5" style="stroke:#383838;stroke-width:1.5;" width="220" x="302" y="226.9531"/><text fill="#000000" font-family="sans-serif" font-size="14" lengthAdjust="spacing" textLength="200" x="312" y="250.4883">SecurityGroupRuleIngress (1)</text><rect fill="#F8F8F8" filter="url(#fqa9oxbzjhheu)" height="36.4883" rx="12.5" ry="12.5" style="stroke:#383838;stroke-width:1.5;" width="197" x="572" y="226.9531"/><text fill="#000000" font-family="sans-serif" font-size="14" lengthAdjust="spacing" textLength="177" x="582" y="250.4883">sg-rule-ingress-postgres</text><path d="M522,245.1973 L532,245.1973 C547,245.1973 547,245.1973 562,245.1973 L572,245.1973 " fill="none" style="stroke:#383838;stroke-width:1.0;"/><path d="M252,273.4414 L262,273.4414 C277,273.4414 277,245.1973 292,245.1973 L302,245.1973 " fill="none" style="stroke:#383838;stroke-width:1.0;"/><rect fill="#F8F8F8" filter="url(#fqa9oxbzjhheu)" height="36.4883" rx="12.5" ry="12.5" style="stroke:#383838;stroke-width:1.5;" width="91" x="302" y="311.6855"/><text fill="#000000" font-family="sans-serif" font-size="14" lengthAdjust="spacing" textLength="71" x="312" y="335.2207">Subnet (2)</text><rect fill="#F8F8F8" filter="url(#fqa9oxbzjhheu)" height="36.4883" rx="12.5" ry="12.5" style="stroke:#383838;stroke-width:1.5;" width="84" x="443" y="283.4414"/><text fill="#000000" font-family="sans-serif" font-size="14" lengthAdjust="spacing" textLength="64" x="453" y="306.9766">subnet-1</text><path d="M393,329.9297 L403,329.9297 C418,329.9297 418,301.6855 433,301.6855 L443,301.6855 " fill="none" style="stroke:#383838;stroke-width:1.0;"/><rect fill="#F8F8F8" filter="url(#fqa9oxbzjhheu)" height="36.4883" rx="12.5" ry="12.5" style="stroke:#383838;stroke-width:1.5;" width="84" x="443" y="339.9297"/><text fill="#000000" font-family="sans-serif" font-size="14" lengthAdjust="spacing" textLength="64" x="453" y="363.4648">subnet-2</text><path d="M393,329.9297 L403,329.9297 C418,329.9297 418,358.1738 433,358.1738 L443,358.1738 " fill="none" style="stroke:#383838;stroke-width:1.0;"/><path d="M252,273.4414 L262,273.4414 C277,273.4414 277,329.9297 292,329.9297 L302,329.9297 " fill="none" style="stroke:#383838;stroke-width:1.0;"/><rect fill="#F8F8F8" filter="url(#fqa9oxbzjhheu)" height="36.4883" rx="12.5" ry="12.5" style="stroke:#383838;stroke-width:1.5;" width="121" x="302" y="396.418"/><text fill="#000000" font-family="sans-serif" font-size="14" lengthAdjust="spacing" textLength="101" x="312" y="419.9531">RouteTable (1)</text><rect fill="#F8F8F8" filter="url(#fqa9oxbzjhheu)" height="36.4883" rx="12.5" ry="12.5" style="stroke:#383838;stroke-width:1.5;" width="149" x="473" y="396.418"/><text fill="#000000" font-family="sans-serif" font-size="14" lengthAdjust="spacing" textLength="129" x="483" y="419.9531">route-table-public</text><path d="M423,414.6621 L433,414.6621 C448,414.6621 448,414.6621 463,414.6621 L473,414.6621 " fill="none" style="stroke:#383838;stroke-width:1.0;"/><path d="M252,273.4414 L262,273.4414 C277,273.4414 277,414.6621 292,414.6621 L302,414.6621 " fill="none" style="stroke:#383838;stroke-width:1.0;"/><rect fill="#F8F8F8" filter="url(#fqa9oxbzjhheu)" height="36.4883" rx="12.5" ry="12.5" style="stroke:#383838;stroke-width:1.5;" width="83" x="302" y="452.9063"/><text fill="#000000" font-family="sans-serif" font-size="14" lengthAdjust="spacing" textLength="63" x="312" y="476.4414">Route (1)</text><rect fill="#F8F8F8" filter="url(#fqa9oxbzjhheu)" height="36.4883" rx="12.5" ry="12.5" style="stroke:#383838;stroke-width:1.5;" width="107" x="435" y="452.9063"/><text fill="#000000" font-family="sans-serif" font-size="14" lengthAdjust="spacing" textLength="87" x="445" y="476.4414">route-public</text><path d="M385,471.1504 L395,471.1504 C410,471.1504 410,471.1504 425,471.1504 L435,471.1504 " fill="none" style="stroke:#383838;stroke-width:1.0;"/><path d="M252,273.4414 L262,273.4414 C277,273.4414 277,471.1504 292,471.1504 L302,471.1504 " fill="none" style="stroke:#383838;stroke-width:1.0;"/><path d="M158,329.9297 L168,329.9297 C183,329.9297 183,273.4414 198,273.4414 L208,273.4414 " fill="none" style="stroke:#383838;stroke-width:1.0;"/><rect fill="#F8F8F8" filter="url(#fqa9oxbzjhheu)" height="36.4883" rx="12.5" ry="12.5" style="stroke:#383838;stroke-width:1.5;" width="42" x="208" y="537.6387"/><text fill="#000000" font-family="sans-serif" font-size="14" lengthAdjust="spacing" textLength="22" x="218" y="561.1738">rds</text><rect fill="#F8F8F8" filter="url(#fqa9oxbzjhheu)" height="36.4883" rx="12.5" ry="12.5" style="stroke:#383838;stroke-width:1.5;" width="152" x="300" y="509.3945"/><text fill="#000000" font-family="sans-serif" font-size="14" lengthAdjust="spacing" textLength="132" x="310" y="532.9297">DBSubnetGroup (1)</text><rect fill="#F8F8F8" filter="url(#fqa9oxbzjhheu)" height="36.4883" rx="12.5" ry="12.5" style="stroke:#383838;stroke-width:1.5;" width="185" x="502" y="509.3945"/><text fill="#000000" font-family="sans-serif" font-size="14" lengthAdjust="spacing" textLength="165" x="512" y="532.9297">subnet-group-postgres</text><path d="M452,527.6387 L462,527.6387 C477,527.6387 477,527.6387 492,527.6387 L502,527.6387 " fill="none" style="stroke:#383838;stroke-width:1.0;"/><path d="M250,555.8828 L260,555.8828 C275,555.8828 275,527.6387 290,527.6387 L300,527.6387 " fill="none" style="stroke:#383838;stroke-width:1.0;"/><rect fill="#F8F8F8" filter="url(#fqa9oxbzjhheu)" height="36.4883" rx="12.5" ry="12.5" style="stroke:#383838;stroke-width:1.5;" width="118" x="300" y="565.8828"/><text fill="#000000" font-family="sans-serif" font-size="14" lengthAdjust="spacing" textLength="98" x="310" y="589.418">DBInstance (1)</text><rect fill="#F8F8F8" filter="url(#fqa9oxbzjhheu)" height="36.4883" rx="12.5" ry="12.5" style="stroke:#383838;stroke-width:1.5;" width="103" x="468" y="565.8828"/><text fill="#000000" font-family="sans-serif" font-size="14" lengthAdjust="spacing" textLength="83" x="478" y="589.418">db-instance</text><path d="M418,584.127 L428,584.127 C443,584.127 443,584.127 458,584.127 L468,584.127 " fill="none" style="stroke:#383838;stroke-width:1.0;"/><path d="M250,555.8828 L260,555.8828 C275,555.8828 275,584.127 290,584.127 L300,584.127 " fill="none" style="stroke:#383838;stroke-width:1.0;"/><path d="M158,329.9297 L168,329.9297 C183,329.9297 183,555.8828 198,555.8828 L208,555.8828 " fill="none" style="stroke:#383838;stroke-width:1.0;"/><path d="M62,329.9297 L72,329.9297 C87,329.9297 87,329.9297 102,329.9297 L112,329.9297 " fill="none" style="stroke:#383838;stroke-width:1.0;"/><!--MD5=[eb7903f274734d8bc52a6469ff232619]
@startmindmap
title Resources for project postgres
skinparam monochrome true
+ Infra
++ aws
+++ ec2
++++ Vpc (1)
+++++ vpc-postgres
++++ InternetGateway (1)
+++++ ig
++++ SecurityGroup (1)
+++++ security-group
++++ SecurityGroupRuleIngress (1)
+++++ sg-rule-ingress-postgres
++++ Subnet (2)
+++++ subnet-1
+++++ subnet-2
++++ RouteTable (1)
+++++ route-table-public
++++ Route (1)
+++++ route-public
+++ rds
++++ DBSubnetGroup (1)
+++++ subnet-group-postgres
++++ DBInstance (1)
+++++ db-instance
@endmindmap

PlantUML version 1.2021.8(Sat Jun 26 05:20:59 BRT 2021)
(GPL source distribution)
Java Runtime: OpenJDK Runtime Environment
JVM: OpenJDK 64-Bit Server VM
Default Encoding: UTF-8
Language: en
Country: GB
--></g></svg>