<?xml version="1.0" encoding="UTF-8" standalone="no"?>
<!DOCTYPE svg PUBLIC "-//W3C//DTD SVG 1.1//EN"
 "http://www.w3.org/Graphics/SVG/1.1/DTD/svg11.dtd">
<!-- Generated by graphviz version 2.44.1 (20200629.0846)
 -->
<!-- Title: graphname Pages: 1 -->
<svg width="656pt" height="353pt"
 viewBox="0.00 0.00 656.00 353.00" xmlns="http://www.w3.org/2000/svg" xmlns:xlink="http://www.w3.org/1999/xlink">
<g id="graph0" class="graph" transform="scale(1 1) rotate(0) translate(4 349)">
<title>graphname</title>
<polygon fill="#fafafa" stroke="transparent" points="-4,4 -4,-349 652,-349 652,4 -4,4"/>
<text text-anchor="start" x="220" y="-320.4" font-family="Helvetica,sans-Serif" font-weight="bold" font-size="22.00" fill="#383838">Project nat&#45;gateway</text>
<text text-anchor="start" x="320" y="-304.8" font-family="Helvetica,sans-Serif" font-size="14.00"> &#160;</text>
<text text-anchor="start" x="220" y="-283.2" font-family="Helvetica,sans-Serif" font-weight="bold" font-size="16.00" fill="#707070">Target Diagram</text>
<g id="clust1" class="cluster">
<title>cluster_azure</title>
<polygon fill="#f5f5f5" stroke="#f5f5f5" points="8,-8 8,-261 640,-261 640,-8 8,-8"/>
<text text-anchor="start" x="255" y="-23" font-family="Helvetica,sans-Serif" font-weight="bold" font-size="20.00" fill="#707070">Provider azure</text>
</g>
<g id="clust2" class="cluster">
<title>cluster_azure_</title>
<polygon fill="#eeeeee" stroke="#eeeeee" points="16,-54 16,-253 632,-253 632,-54 16,-54"/>
<text text-anchor="start" x="323.86" y="-58.3" font-family="Helvetica,sans-Serif" font-size="1.00" fill="#383838"> </text>
</g>
<!-- NatGateway::nat&#45;gateway -->
<g id="node1" class="node">
<title>NatGateway::nat&#45;gateway</title>
<polygon fill="#e5e5e5" stroke="#dddddd" points="256,-177 139,-177 139,-119 256,-119 256,-177"/>
<text text-anchor="start" x="151.5" y="-157.2" font-family="Helvetica,sans-Serif" font-weight="bold" font-size="16.00" fill="#707070">NatGateway</text>
<text text-anchor="start" x="151.5" y="-132.2" font-family="Helvetica,sans-Serif" font-size="16.00" fill="#383838">nat&#45;gateway</text>
</g>
<!-- PublicIPAddress::nat&#45;ip -->
<g id="node2" class="node">
<title>PublicIPAddress::nat&#45;ip</title>
<polygon fill="#e5e5e5" stroke="#dddddd" points="443,-129 292,-129 292,-71 443,-71 443,-129"/>
<text text-anchor="start" x="304.5" y="-109.2" font-family="Helvetica,sans-Serif" font-weight="bold" font-size="16.00" fill="#707070">PublicIPAddress</text>
<text text-anchor="start" x="304.5" y="-84.2" font-family="Helvetica,sans-Serif" font-size="16.00" fill="#383838">nat&#45;ip</text>
</g>
<!-- NatGateway::nat&#45;gateway&#45;&gt;PublicIPAddress::nat&#45;ip -->
<g id="edge2" class="edge">
<title>NatGateway::nat&#45;gateway&#45;&gt;PublicIPAddress::nat&#45;ip</title>
<path fill="none" stroke="#707070" d="M256.32,-131.48C264.66,-129.1 273.39,-126.6 282.12,-124.11"/>
<polygon fill="#707070" stroke="#707070" points="283.31,-127.41 291.96,-121.3 281.39,-120.68 283.31,-127.41"/>
</g>
<!-- ResourceGroup::rg&#45;natgateway -->
<g id="node5" class="node">
<title>ResourceGroup::rg&#45;natgateway</title>
<polygon fill="#e5e5e5" stroke="#dddddd" points="624,-201 479,-201 479,-143 624,-143 624,-201"/>
<text text-anchor="start" x="491.5" y="-181.2" font-family="Helvetica,sans-Serif" font-weight="bold" font-size="16.00" fill="#707070">ResourceGroup</text>
<text text-anchor="start" x="491.5" y="-156.2" font-family="Helvetica,sans-Serif" font-size="16.00" fill="#383838">rg&#45;natgateway</text>
</g>
<!-- NatGateway::nat&#45;gateway&#45;&gt;ResourceGroup::rg&#45;natgateway -->
<g id="edge1" class="edge">
<title>NatGateway::nat&#45;gateway&#45;&gt;ResourceGroup::rg&#45;natgateway</title>
<path fill="none" stroke="#707070" d="M256.39,-148.92C305.99,-150.06 379.29,-152.56 443,-158 451.36,-158.71 460.06,-159.6 468.74,-160.59"/>
<polygon fill="#707070" stroke="#707070" points="468.55,-164.09 478.89,-161.78 469.37,-157.14 468.55,-164.09"/>
</g>
<!-- PublicIPAddress::nat&#45;ip&#45;&gt;ResourceGroup::rg&#45;natgateway -->
<g id="edge3" class="edge">
<title>PublicIPAddress::nat&#45;ip&#45;&gt;ResourceGroup::rg&#45;natgateway</title>
<path fill="none" stroke="#707070" d="M442,-129.08C451.01,-132.64 460.25,-136.3 469.36,-139.9"/>
<polygon fill="#707070" stroke="#707070" points="468.21,-143.21 478.79,-143.63 470.78,-136.7 468.21,-143.21"/>
</g>
<!-- Subnet::default -->
<g id="node3" class="node">
<title>Subnet::default</title>
<polygon fill="#e5e5e5" stroke="#dddddd" points="103,-225 24,-225 24,-167 103,-167 103,-225"/>
<text text-anchor="start" x="36.5" y="-205.2" font-family="Helvetica,sans-Serif" font-weight="bold" font-size="16.00" fill="#707070">Subnet</text>
<text text-anchor="start" x="36.5" y="-180.2" font-family="Helvetica,sans-Serif" font-size="16.00" fill="#383838">default</text>
</g>
<!-- Subnet::default&#45;&gt;NatGateway::nat&#45;gateway -->
<g id="edge6" class="edge">
<title>Subnet::default&#45;&gt;NatGateway::nat&#45;gateway</title>
<path fill="none" stroke="#707070" d="M103.03,-181.99C111.19,-179.02 120.03,-175.81 128.91,-172.58"/>
<polygon fill="#707070" stroke="#707070" points="130.33,-175.79 138.53,-169.08 127.94,-169.21 130.33,-175.79"/>
</g>
<!-- VirtualNetwork::vnet&#45;nat&#45;gateway -->
<g id="node4" class="node">
<title>VirtualNetwork::vnet&#45;nat&#45;gateway</title>
<polygon fill="#e5e5e5" stroke="#dddddd" points="441.5,-225 293.5,-225 293.5,-167 441.5,-167 441.5,-225"/>
<text text-anchor="start" x="305.5" y="-205.2" font-family="Helvetica,sans-Serif" font-weight="bold" font-size="16.00" fill="#707070">VirtualNetwork</text>
<text text-anchor="start" x="305.5" y="-180.2" font-family="Helvetica,sans-Serif" font-size="16.00" fill="#383838">vnet&#45;nat&#45;gateway</text>
</g>
<!-- Subnet::default&#45;&gt;VirtualNetwork::vnet&#45;nat&#45;gateway -->
<g id="edge5" class="edge">
<title>Subnet::default&#45;&gt;VirtualNetwork::vnet&#45;nat&#45;gateway</title>
<path fill="none" stroke="#707070" d="M103.06,-196C148.23,-196 224.37,-196 283.21,-196"/>
<polygon fill="#707070" stroke="#707070" points="283.24,-199.5 293.24,-196 283.24,-192.5 283.24,-199.5"/>
</g>
<!-- Subnet::default&#45;&gt;ResourceGroup::rg&#45;natgateway -->
<g id="edge4" class="edge">
<title>Subnet::default&#45;&gt;ResourceGroup::rg&#45;natgateway</title>
<path fill="none" stroke="#707070" d="M103.11,-208.83C172.4,-229.9 321.95,-266.41 443,-234 463.93,-228.4 485,-217.63 502.87,-206.62"/>
<polygon fill="#707070" stroke="#707070" points="504.81,-209.54 511.37,-201.22 501.06,-203.63 504.81,-209.54"/>
</g>
<!-- VirtualNetwork::vnet&#45;nat&#45;gateway&#45;&gt;ResourceGroup::rg&#45;natgateway -->
<g id="edge7" class="edge">
<title>VirtualNetwork::vnet&#45;nat&#45;gateway&#45;&gt;ResourceGroup::rg&#45;natgateway</title>
<path fill="none" stroke="#707070" d="M441.74,-186.34C450.64,-185.17 459.77,-183.96 468.79,-182.78"/>
<polygon fill="#707070" stroke="#707070" points="469.43,-186.22 478.89,-181.44 468.52,-179.28 469.43,-186.22"/>
</g>
</g>
</svg>
