<?xml version="1.0" encoding="UTF-8" standalone="no"?>
<!DOCTYPE svg PUBLIC "-//W3C//DTD SVG 1.1//EN"
 "http://www.w3.org/Graphics/SVG/1.1/DTD/svg11.dtd">
<!-- Generated by graphviz version 2.50.0 (20211204.2007)
 -->
<!-- Title: graphname Pages: 1 -->
<svg width="777pt" height="353pt"
 viewBox="0.00 0.00 777.00 353.00" xmlns="http://www.w3.org/2000/svg" xmlns:xlink="http://www.w3.org/1999/xlink">
<g id="graph0" class="graph" transform="scale(1 1) rotate(0) translate(4 349)">
<title>graphname</title>
<polygon fill="#fafafa" stroke="transparent" points="-4,4 -4,-349 773,-349 773,4 -4,4"/>
<text text-anchor="start" x="280.5" y="-320.4" font-family="Helvetica,sans-Serif" font-weight="bold" font-size="22.00" fill="#383838">Project nat&#45;gateway</text>
<text text-anchor="start" x="380.5" y="-304.8" font-family="Helvetica,sans-Serif" font-size="14.00"> &#160;</text>
<text text-anchor="start" x="280.5" y="-283.2" font-family="Helvetica,sans-Serif" font-weight="bold" font-size="16.00" fill="#707070">Target Diagram</text>
<g id="clust1" class="cluster">
<title>cluster_azure</title>
<polygon fill="#f5f5f5" stroke="#f5f5f5" points="8,-8 8,-261 761,-261 761,-8 8,-8"/>
<text text-anchor="start" x="315.5" y="-23" font-family="Helvetica,sans-Serif" font-weight="bold" font-size="20.00" fill="#707070">Provider azure</text>
</g>
<g id="clust2" class="cluster">
<title>cluster_azure_</title>
<polygon fill="#eeeeee" stroke="#eeeeee" points="16,-54 16,-253 753,-253 753,-54 16,-54"/>
<text text-anchor="start" x="384.36" y="-58.3" font-family="Helvetica,sans-Serif" font-size="1.00" fill="#383838"> </text>
</g>
<!-- NatGateway::rg&#45;natgateway::nat&#45;gw -->
<g id="node1" class="node">
<title>NatGateway::rg&#45;natgateway::nat&#45;gw</title>
<polygon fill="#e5e5e5" stroke="#dddddd" points="247.5,-235 63.5,-235 63.5,-177 247.5,-177 247.5,-235"/>
<text text-anchor="start" x="75.5" y="-215.2" font-family="Helvetica,sans-Serif" font-weight="bold" font-size="16.00" fill="#707070">NatGateway</text>
<text text-anchor="start" x="75.5" y="-190.2" font-family="Helvetica,sans-Serif" font-size="16.00" fill="#383838">rg&#45;natgateway::nat&#45;gw</text>
</g>
<!-- PublicIPAddress::rg&#45;natgateway::ip&#45;address -->
<g id="node2" class="node">
<title>PublicIPAddress::rg&#45;natgateway::ip&#45;address</title>
<polygon fill="#e5e5e5" stroke="#dddddd" points="549,-225 338,-225 338,-167 549,-167 549,-225"/>
<text text-anchor="start" x="350.5" y="-205.2" font-family="Helvetica,sans-Serif" font-weight="bold" font-size="16.00" fill="#707070">PublicIPAddress</text>
<text text-anchor="start" x="350.5" y="-180.2" font-family="Helvetica,sans-Serif" font-size="16.00" fill="#383838">rg&#45;natgateway::ip&#45;address</text>
</g>
<!-- NatGateway::rg&#45;natgateway::nat&#45;gw&#45;&gt;PublicIPAddress::rg&#45;natgateway::ip&#45;address -->
<g id="edge2" class="edge">
<title>NatGateway::rg&#45;natgateway::nat&#45;gw&#45;&gt;PublicIPAddress::rg&#45;natgateway::ip&#45;address</title>
<path fill="none" stroke="#707070" d="M247.78,-202.81C273.22,-201.92 301.18,-200.94 327.79,-200.01"/>
<polygon fill="#707070" stroke="#707070" points="328.04,-203.5 337.91,-199.66 327.79,-196.51 328.04,-203.5"/>
</g>
<!-- ResourceGroup::rg&#45;natgateway -->
<g id="node5" class="node">
<title>ResourceGroup::rg&#45;natgateway</title>
<polygon fill="#e5e5e5" stroke="#dddddd" points="745,-201 600,-201 600,-143 745,-143 745,-201"/>
<text text-anchor="start" x="612.5" y="-181.2" font-family="Helvetica,sans-Serif" font-weight="bold" font-size="16.00" fill="#707070">ResourceGroup</text>
<text text-anchor="start" x="612.5" y="-156.2" font-family="Helvetica,sans-Serif" font-size="16.00" fill="#383838">rg&#45;natgateway</text>
</g>
<!-- NatGateway::rg&#45;natgateway::nat&#45;gw&#45;&gt;ResourceGroup::rg&#45;natgateway -->
<g id="edge1" class="edge">
<title>NatGateway::rg&#45;natgateway::nat&#45;gw&#45;&gt;ResourceGroup::rg&#45;natgateway</title>
<path fill="none" stroke="#707070" d="M247.56,-228.99C331.24,-246.22 457.99,-262.38 564,-234 584.93,-228.4 606,-217.63 623.87,-206.62"/>
<polygon fill="#707070" stroke="#707070" points="625.81,-209.54 632.37,-201.22 622.06,-203.63 625.81,-209.54"/>
</g>
<!-- PublicIPAddress::rg&#45;natgateway::ip&#45;address&#45;&gt;ResourceGroup::rg&#45;natgateway -->
<g id="edge3" class="edge">
<title>PublicIPAddress::rg&#45;natgateway::ip&#45;address&#45;&gt;ResourceGroup::rg&#45;natgateway</title>
<path fill="none" stroke="#707070" d="M549.03,-184.95C562.75,-183.5 576.65,-182.03 589.92,-180.63"/>
<polygon fill="#707070" stroke="#707070" points="590.35,-184.1 599.93,-179.57 589.61,-177.14 590.35,-184.1"/>
</g>
<!-- Subnet::rg&#45;natgateway::virtual&#45;network::default -->
<g id="node3" class="node">
<title>Subnet::rg&#45;natgateway::virtual&#45;network::default</title>
<polygon fill="#e5e5e5" stroke="#dddddd" points="287,-149 24,-149 24,-91 287,-91 287,-149"/>
<text text-anchor="start" x="36.5" y="-129.2" font-family="Helvetica,sans-Serif" font-weight="bold" font-size="16.00" fill="#707070">Subnet</text>
<text text-anchor="start" x="36.5" y="-104.2" font-family="Helvetica,sans-Serif" font-size="16.00" fill="#383838">rg&#45;natgateway::virtual&#45;network::...</text>
</g>
<!-- VirtualNetwork::rg&#45;natgateway::virtual&#45;network -->
<g id="node4" class="node">
<title>VirtualNetwork::rg&#45;natgateway::virtual&#45;network</title>
<polygon fill="#e5e5e5" stroke="#dddddd" points="564,-129 323,-129 323,-71 564,-71 564,-129"/>
<text text-anchor="start" x="335.5" y="-109.2" font-family="Helvetica,sans-Serif" font-weight="bold" font-size="16.00" fill="#707070">VirtualNetwork</text>
<text text-anchor="start" x="335.5" y="-84.2" font-family="Helvetica,sans-Serif" font-size="16.00" fill="#383838">rg&#45;natgateway::virtual&#45;network</text>
</g>
<!-- Subnet::rg&#45;natgateway::virtual&#45;network::default&#45;&gt;VirtualNetwork::rg&#45;natgateway::virtual&#45;network -->
<g id="edge5" class="edge">
<title>Subnet::rg&#45;natgateway::virtual&#45;network::default&#45;&gt;VirtualNetwork::rg&#45;natgateway::virtual&#45;network</title>
<path fill="none" stroke="#707070" d="M287.36,-110.85C295.73,-110.26 304.15,-109.67 312.51,-109.09"/>
<polygon fill="#707070" stroke="#707070" points="312.94,-112.57 322.67,-108.38 312.45,-105.59 312.94,-112.57"/>
</g>
<!-- Subnet::rg&#45;natgateway::virtual&#45;network::default&#45;&gt;ResourceGroup::rg&#45;natgateway -->
<g id="edge4" class="edge">
<title>Subnet::rg&#45;natgateway::virtual&#45;network::default&#45;&gt;ResourceGroup::rg&#45;natgateway</title>
<path fill="none" stroke="#707070" d="M287.35,-134.46C299.4,-135.69 311.42,-136.89 323,-138 429.99,-148.22 457.13,-146.61 564,-158 572.34,-158.89 581.03,-159.89 589.71,-160.94"/>
<polygon fill="#707070" stroke="#707070" points="589.5,-164.44 599.85,-162.2 590.36,-157.5 589.5,-164.44"/>
</g>
<!-- VirtualNetwork::rg&#45;natgateway::virtual&#45;network&#45;&gt;ResourceGroup::rg&#45;natgateway -->
<g id="edge6" class="edge">
<title>VirtualNetwork::rg&#45;natgateway::virtual&#45;network&#45;&gt;ResourceGroup::rg&#45;natgateway</title>
<path fill="none" stroke="#707070" d="M536.18,-129.08C554.03,-134.74 572.64,-140.64 590.14,-146.19"/>
<polygon fill="#707070" stroke="#707070" points="589.14,-149.55 599.73,-149.24 591.26,-142.88 589.14,-149.55"/>
</g>
</g>
</svg>
