<?xml version="1.0" encoding="UTF-8" standalone="no"?>
<!DOCTYPE svg PUBLIC "-//W3C//DTD SVG 1.1//EN"
 "http://www.w3.org/Graphics/SVG/1.1/DTD/svg11.dtd">
<!-- Generated by graphviz version 2.44.1 (20200629.0846)
 -->
<!-- Title: graphname Pages: 1 -->
<svg width="259pt" height="118pt"
 viewBox="0.00 0.00 259.00 118.00" xmlns="http://www.w3.org/2000/svg" xmlns:xlink="http://www.w3.org/1999/xlink">
<g id="graph0" class="graph" transform="scale(1 1) rotate(0) translate(4 114)">
<title>graphname</title>
<polygon fill="white" stroke="transparent" points="-4,4 -4,-114 255,-114 255,4 -4,4"/>
<g id="clust1" class="cluster">
<title>cluster_google</title>
<polygon fill="none" stroke="#383838" points="8,-8 8,-102 243,-102 243,-8 8,-8"/>
<text text-anchor="start" x="93" y="-83" font-family="Helvetica,sans-Serif" font-weight="bold" font-size="20.00" fill="#383838">google</text>
</g>
<!-- ServiceAccount::sa&#45;dev -->
<g id="node1" class="node">
<title>ServiceAccount::sa&#45;dev</title>
<polygon fill="none" stroke="#383838" points="235,-63.5 137,-63.5 137,-16.5 235,-16.5 235,-63.5"/>
<text text-anchor="start" x="149" y="-48" font-family="Helvetica,sans-Serif" font-weight="bold" font-size="10.00" fill="#707070">ServiceAccount</text>
<text text-anchor="start" x="149" y="-27.6" font-family="Helvetica,sans-Serif" font-size="13.00" fill="#383838">sa&#45;dev</text>
</g>
<!-- IamPolicy::iam&#45;policy -->
<g id="node2" class="node">
<title>IamPolicy::iam&#45;policy</title>
<polygon fill="none" stroke="#383838" points="101,-63.5 16,-63.5 16,-16.5 101,-16.5 101,-63.5"/>
<text text-anchor="start" x="28.5" y="-48" font-family="Helvetica,sans-Serif" font-weight="bold" font-size="10.00" fill="#707070">IamPolicy</text>
<text text-anchor="start" x="28.5" y="-27.6" font-family="Helvetica,sans-Serif" font-size="13.00" fill="#383838">iam&#45;policy</text>
</g>
<!-- IamPolicy::iam&#45;policy&#45;&gt;ServiceAccount::sa&#45;dev -->
<g id="edge1" class="edge">
<title>IamPolicy::iam&#45;policy&#45;&gt;ServiceAccount::sa&#45;dev</title>
<path fill="none" stroke="#383838" d="M101.29,-40C109.49,-40 118.23,-40 126.85,-40"/>
<polygon fill="#383838" stroke="#383838" points="126.88,-43.5 136.88,-40 126.88,-36.5 126.88,-43.5"/>
</g>
</g>
</svg>
