<?xml version="1.0" encoding="UTF-8" standalone="no"?>
<!DOCTYPE svg PUBLIC "-//W3C//DTD SVG 1.1//EN"
 "http://www.w3.org/Graphics/SVG/1.1/DTD/svg11.dtd">
<!-- Generated by graphviz version 2.44.1 (20200629.0846)
 -->
<!-- Title: graphname Pages: 1 -->
<svg width="500pt" height="333pt"
 viewBox="0.00 0.00 500.00 333.00" xmlns="http://www.w3.org/2000/svg" xmlns:xlink="http://www.w3.org/1999/xlink">
<g id="graph0" class="graph" transform="scale(1 1) rotate(0) translate(4 329)">
<title>graphname</title>
<polygon fill="#fafafa" stroke="transparent" points="-4,4 -4,-329 496,-329 496,4 -4,4"/>
<text text-anchor="start" x="144" y="-300.4" font-family="Helvetica,sans-Serif" font-weight="bold" font-size="22.00" fill="#383838">Project vm&#45;network</text>
<text text-anchor="start" x="242" y="-284.8" font-family="Helvetica,sans-Serif" font-size="14.00"> &#160;</text>
<text text-anchor="start" x="144" y="-263.2" font-family="Helvetica,sans-Serif" font-weight="bold" font-size="16.00" fill="#707070">Live Diagram</text>
<g id="clust1" class="cluster">
<title>cluster_google</title>
<polygon fill="#f5f5f5" stroke="#f5f5f5" points="8,-8 8,-241 484,-241 484,-8 8,-8"/>
<text text-anchor="start" x="171" y="-23" font-family="Helvetica,sans-Serif" font-weight="bold" font-size="20.00" fill="#707070">Provider google</text>
</g>
<g id="clust2" class="cluster">
<title>cluster_google_</title>
<polygon fill="#eeeeee" stroke="#eeeeee" points="16,-54 16,-233 476,-233 476,-54 16,-54"/>
<text text-anchor="start" x="245.86" y="-58.3" font-family="Helvetica,sans-Serif" font-size="1.00" fill="#383838"> </text>
</g>
<!-- Firewall::::4750793191952010254 -->
<g id="node1" class="node">
<title>Firewall::::4750793191952010254</title>
<polygon fill="#e5e5e5" stroke="#dddddd" points="327.5,-225 221.5,-225 221.5,-167 327.5,-167 327.5,-225"/>
<text text-anchor="start" x="233.5" y="-205.2" font-family="Helvetica,sans-Serif" font-weight="bold" font-size="16.00" fill="#707070">Firewall</text>
<text text-anchor="start" x="233.5" y="-180.2" font-family="Helvetica,sans-Serif" font-size="16.00" fill="#383838">firewall&#45;dev</text>
</g>
<!-- Network::::7546986303748099131 -->
<g id="node2" class="node">
<title>Network::::7546986303748099131</title>
<polygon fill="#e5e5e5" stroke="#dddddd" points="468,-149 380,-149 380,-91 468,-91 468,-149"/>
<text text-anchor="start" x="392" y="-129.2" font-family="Helvetica,sans-Serif" font-weight="bold" font-size="16.00" fill="#707070">Network</text>
<text text-anchor="start" x="392" y="-104.2" font-family="Helvetica,sans-Serif" font-size="16.00" fill="#383838">vpc&#45;dev</text>
</g>
<!-- Firewall::::4750793191952010254&#45;&gt;Network::::7546986303748099131 -->
<g id="edge1" class="edge">
<title>Firewall::::4750793191952010254&#45;&gt;Network::::7546986303748099131</title>
<path fill="none" stroke="#707070" d="M327.5,-169.21C341.52,-161.98 356.69,-154.17 370.72,-146.94"/>
<polygon fill="#707070" stroke="#707070" points="372.46,-149.98 379.75,-142.28 369.26,-143.75 372.46,-149.98"/>
</g>
<!-- SubNetwork::::1672231393765411854 -->
<g id="node3" class="node">
<title>SubNetwork::::1672231393765411854</title>
<polygon fill="#e5e5e5" stroke="#dddddd" points="344,-149 205,-149 205,-91 344,-91 344,-149"/>
<text text-anchor="start" x="217.5" y="-129.2" font-family="Helvetica,sans-Serif" font-weight="bold" font-size="16.00" fill="#707070">SubNetwork</text>
<text text-anchor="start" x="217.5" y="-104.2" font-family="Helvetica,sans-Serif" font-size="16.00" fill="#383838">subnetwork&#45;dev</text>
</g>
<!-- SubNetwork::::1672231393765411854&#45;&gt;Network::::7546986303748099131 -->
<g id="edge2" class="edge">
<title>SubNetwork::::1672231393765411854&#45;&gt;Network::::7546986303748099131</title>
<path fill="none" stroke="#707070" d="M344.07,-120C352.64,-120 361.3,-120 369.59,-120"/>
<polygon fill="#707070" stroke="#707070" points="369.86,-123.5 379.86,-120 369.86,-116.5 369.86,-123.5"/>
</g>
<!-- VmInstance::::7151809343550442526 -->
<g id="node4" class="node">
<title>VmInstance::::7151809343550442526</title>
<polygon fill="#e5e5e5" stroke="#dddddd" points="154,-205 39,-205 39,-147 154,-147 154,-205"/>
<text text-anchor="start" x="51.5" y="-185.2" font-family="Helvetica,sans-Serif" font-weight="bold" font-size="16.00" fill="#707070">VmInstance</text>
<text text-anchor="start" x="51.5" y="-160.2" font-family="Helvetica,sans-Serif" font-size="16.00" fill="#383838">db&#45;dev</text>
</g>
<!-- VmInstance::::7151809343550442526&#45;&gt;Network::::7546986303748099131 -->
<g id="edge3" class="edge">
<title>VmInstance::::7151809343550442526&#45;&gt;Network::::7546986303748099131</title>
<path fill="none" stroke="#707070" d="M154.03,-149.6C159.35,-146.06 164.45,-142.19 169,-138 190.77,-117.96 179.03,-96.18 205,-82 259.22,-52.4 283.77,-68.27 344,-82 352.94,-84.04 362.04,-87.22 370.74,-90.89"/>
<polygon fill="#707070" stroke="#707070" points="369.43,-94.14 379.99,-95.04 372.3,-87.76 369.43,-94.14"/>
</g>
<!-- VmInstance::::7151809343550442526&#45;&gt;SubNetwork::::1672231393765411854 -->
<g id="edge4" class="edge">
<title>VmInstance::::7151809343550442526&#45;&gt;SubNetwork::::1672231393765411854</title>
<path fill="none" stroke="#707070" d="M154.16,-157.97C167.3,-153.79 181.52,-149.27 195.41,-144.85"/>
<polygon fill="#707070" stroke="#707070" points="196.48,-148.18 204.95,-141.81 194.36,-141.51 196.48,-148.18"/>
</g>
<!-- ServiceAccount::::109370166593684115653 -->
<g id="node5" class="node">
<title>ServiceAccount::::109370166593684115653</title>
<polygon fill="#e5e5e5" stroke="#dddddd" points="169,-129 24,-129 24,-71 169,-71 169,-129"/>
<text text-anchor="start" x="36.5" y="-109.2" font-family="Helvetica,sans-Serif" font-weight="bold" font-size="16.00" fill="#707070">ServiceAccount</text>
<text text-anchor="start" x="36.5" y="-84.2" font-family="Helvetica,sans-Serif" font-size="16.00" fill="#383838">sa&#45;dev</text>
</g>
</g>
</svg>
