<?xml version="1.0" encoding="UTF-8" standalone="no"?>
<!DOCTYPE svg PUBLIC "-//W3C//DTD SVG 1.1//EN"
 "http://www.w3.org/Graphics/SVG/1.1/DTD/svg11.dtd">
<!-- Generated by graphviz version 2.44.1 (20200629.0846)
 -->
<!-- Title: graphname Pages: 1 -->
<svg width="236pt" height="541pt"
 viewBox="0.00 0.00 236.00 541.00" xmlns="http://www.w3.org/2000/svg" xmlns:xlink="http://www.w3.org/1999/xlink">
<g id="graph0" class="graph" transform="scale(1 1) rotate(0) translate(4 537)">
<title>graphname</title>
<polygon fill="#fafafa" stroke="transparent" points="-4,4 -4,-537 232,-537 232,4 -4,4"/>
<text text-anchor="start" x="12" y="-508.4" font-family="Helvetica,sans-Serif" font-weight="bold" font-size="22.00" fill="#383838">Project vm&#45;network</text>
<text text-anchor="start" x="110" y="-492.8" font-family="Helvetica,sans-Serif" font-size="14.00"> &#160;</text>
<text text-anchor="start" x="12" y="-471.2" font-family="Helvetica,sans-Serif" font-weight="bold" font-size="16.00" fill="#707070">Live Diagram</text>
<g id="clust1" class="cluster">
<title>cluster_google</title>
<polygon fill="#f5f5f5" stroke="#f5f5f5" points="25.5,-8 25.5,-449 202.5,-449 202.5,-8 25.5,-8"/>
<text text-anchor="start" x="39" y="-23" font-family="Helvetica,sans-Serif" font-weight="bold" font-size="20.00" fill="#707070">Provider google</text>
</g>
<g id="clust2" class="cluster">
<title>cluster_google_</title>
<polygon fill="#eeeeee" stroke="#eeeeee" points="33.5,-54 33.5,-441 194.5,-441 194.5,-54 33.5,-54"/>
<text text-anchor="start" x="113.86" y="-58.3" font-family="Helvetica,sans-Serif" font-size="1.00" fill="#383838"> </text>
</g>
<!-- Firewall::::firewall&#45;dev -->
<g id="node1" class="node">
<title>Firewall::::firewall&#45;dev</title>
<polygon fill="#e5e5e5" stroke="#dddddd" points="167,-433 61,-433 61,-375 167,-375 167,-433"/>
<text text-anchor="start" x="73" y="-413.2" font-family="Helvetica,sans-Serif" font-weight="bold" font-size="16.00" fill="#707070">Firewall</text>
<text text-anchor="start" x="73" y="-388.2" font-family="Helvetica,sans-Serif" font-size="16.00" fill="#383838">firewall&#45;dev</text>
</g>
<!-- Network::::vpc&#45;dev -->
<g id="node2" class="node">
<title>Network::::vpc&#45;dev</title>
<polygon fill="#e5e5e5" stroke="#dddddd" points="158,-357 70,-357 70,-299 158,-299 158,-357"/>
<text text-anchor="start" x="82" y="-337.2" font-family="Helvetica,sans-Serif" font-weight="bold" font-size="16.00" fill="#707070">Network</text>
<text text-anchor="start" x="82" y="-312.2" font-family="Helvetica,sans-Serif" font-size="16.00" fill="#383838">vpc&#45;dev</text>
</g>
<!-- SubNetwork::::subnetwork&#45;dev -->
<g id="node3" class="node">
<title>SubNetwork::::subnetwork&#45;dev</title>
<polygon fill="#e5e5e5" stroke="#dddddd" points="183.5,-281 44.5,-281 44.5,-223 183.5,-223 183.5,-281"/>
<text text-anchor="start" x="57" y="-261.2" font-family="Helvetica,sans-Serif" font-weight="bold" font-size="16.00" fill="#707070">SubNetwork</text>
<text text-anchor="start" x="57" y="-236.2" font-family="Helvetica,sans-Serif" font-size="16.00" fill="#383838">subnetwork&#45;dev</text>
</g>
<!-- VmInstance::::db&#45;dev -->
<g id="node4" class="node">
<title>VmInstance::::db&#45;dev</title>
<polygon fill="#e5e5e5" stroke="#dddddd" points="171.5,-205 56.5,-205 56.5,-147 171.5,-147 171.5,-205"/>
<text text-anchor="start" x="69" y="-185.2" font-family="Helvetica,sans-Serif" font-weight="bold" font-size="16.00" fill="#707070">VmInstance</text>
<text text-anchor="start" x="69" y="-160.2" font-family="Helvetica,sans-Serif" font-size="16.00" fill="#383838">db&#45;dev</text>
</g>
<!-- ServiceAccount::::sa&#45;dev -->
<g id="node5" class="node">
<title>ServiceAccount::::sa&#45;dev</title>
<polygon fill="#e5e5e5" stroke="#dddddd" points="186.5,-129 41.5,-129 41.5,-71 186.5,-71 186.5,-129"/>
<text text-anchor="start" x="54" y="-109.2" font-family="Helvetica,sans-Serif" font-weight="bold" font-size="16.00" fill="#707070">ServiceAccount</text>
<text text-anchor="start" x="54" y="-84.2" font-family="Helvetica,sans-Serif" font-size="16.00" fill="#383838">sa&#45;dev</text>
</g>
</g>
</svg>
