<?xml version="1.0" encoding="UTF-8" standalone="no"?>
<!DOCTYPE svg PUBLIC "-//W3C//DTD SVG 1.1//EN"
 "http://www.w3.org/Graphics/SVG/1.1/DTD/svg11.dtd">
<!-- Generated by graphviz version 2.44.1 (20200629.0846)
 -->
<!-- Title: graphname Pages: 1 -->
<svg width="251pt" height="997pt"
 viewBox="0.00 0.00 251.00 997.00" xmlns="http://www.w3.org/2000/svg" xmlns:xlink="http://www.w3.org/1999/xlink">
<g id="graph0" class="graph" transform="scale(1 1) rotate(0) translate(4 993)">
<title>graphname</title>
<polygon fill="#fafafa" stroke="transparent" points="-4,4 -4,-993 247,-993 247,4 -4,4"/>
<text text-anchor="start" x="19.5" y="-964.4" font-family="Helvetica,sans-Serif" font-weight="bold" font-size="22.00" fill="#383838">Project vm&#45;network</text>
<text text-anchor="start" x="117.5" y="-948.8" font-family="Helvetica,sans-Serif" font-size="14.00"> &#160;</text>
<text text-anchor="start" x="19.5" y="-927.2" font-family="Helvetica,sans-Serif" font-weight="bold" font-size="16.00" fill="#707070">Live Diagram</text>
<g id="clust1" class="cluster">
<title>cluster_google</title>
<polygon fill="#f5f5f5" stroke="#f5f5f5" points="8,-8 8,-905 235,-905 235,-8 8,-8"/>
<text text-anchor="start" x="46.5" y="-23" font-family="Helvetica,sans-Serif" font-weight="bold" font-size="20.00" fill="#707070">Provider google</text>
</g>
<g id="clust2" class="cluster">
<title>cluster_google_</title>
<polygon fill="#eeeeee" stroke="#eeeeee" points="16,-54 16,-897 227,-897 227,-54 16,-54"/>
<text text-anchor="start" x="121.36" y="-58.3" font-family="Helvetica,sans-Serif" font-size="1.00" fill="#383838"> </text>
</g>
<!-- Disk::::db&#45;dev -->
<g id="node1" class="node">
<title>Disk::::db&#45;dev</title>
<polygon fill="#e5e5e5" stroke="#dddddd" points="189.5,-889 53.5,-889 53.5,-831 189.5,-831 189.5,-889"/>
<text text-anchor="start" x="65.5" y="-869.2" font-family="Helvetica,sans-Serif" font-weight="bold" font-size="16.00" fill="#707070">compute::Disk</text>
<text text-anchor="start" x="65.5" y="-844.2" font-family="Helvetica,sans-Serif" font-size="16.00" fill="#383838">db&#45;dev</text>
</g>
<!-- Firewall::::firewall&#45;dev -->
<g id="node2" class="node">
<title>Firewall::::firewall&#45;dev</title>
<polygon fill="#e5e5e5" stroke="#dddddd" points="202.5,-813 40.5,-813 40.5,-755 202.5,-755 202.5,-813"/>
<text text-anchor="start" x="52.5" y="-793.2" font-family="Helvetica,sans-Serif" font-weight="bold" font-size="16.00" fill="#707070">compute::Firewall</text>
<text text-anchor="start" x="52.5" y="-768.2" font-family="Helvetica,sans-Serif" font-size="16.00" fill="#383838">firewall&#45;dev</text>
</g>
<!-- Network::::default -->
<g id="node3" class="node">
<title>Network::::default</title>
<polygon fill="#e5e5e5" stroke="#dddddd" points="204,-737 39,-737 39,-679 204,-679 204,-737"/>
<text text-anchor="start" x="51.5" y="-717.2" font-family="Helvetica,sans-Serif" font-weight="bold" font-size="16.00" fill="#707070">compute::Network</text>
<text text-anchor="start" x="51.5" y="-692.2" font-family="Helvetica,sans-Serif" font-size="16.00" fill="#383838">default</text>
</g>
<!-- Network::::vpc&#45;dev -->
<g id="node4" class="node">
<title>Network::::vpc&#45;dev</title>
<polygon fill="#e5e5e5" stroke="#dddddd" points="204,-661 39,-661 39,-603 204,-603 204,-661"/>
<text text-anchor="start" x="51.5" y="-641.2" font-family="Helvetica,sans-Serif" font-weight="bold" font-size="16.00" fill="#707070">compute::Network</text>
<text text-anchor="start" x="51.5" y="-616.2" font-family="Helvetica,sans-Serif" font-size="16.00" fill="#383838">vpc&#45;dev</text>
</g>
<!-- SubNetwork::::default -->
<g id="node5" class="node">
<title>SubNetwork::::default</title>
<polygon fill="#e5e5e5" stroke="#dddddd" points="219,-585 24,-585 24,-527 219,-527 219,-585"/>
<text text-anchor="start" x="36.5" y="-565.2" font-family="Helvetica,sans-Serif" font-weight="bold" font-size="16.00" fill="#707070">compute::SubNetwork</text>
<text text-anchor="start" x="36.5" y="-540.2" font-family="Helvetica,sans-Serif" font-size="16.00" fill="#383838">default</text>
</g>
<!-- SubNetwork::::subnetwork&#45;dev -->
<g id="node6" class="node">
<title>SubNetwork::::subnetwork&#45;dev</title>
<polygon fill="#e5e5e5" stroke="#dddddd" points="219,-509 24,-509 24,-451 219,-451 219,-509"/>
<text text-anchor="start" x="36.5" y="-489.2" font-family="Helvetica,sans-Serif" font-weight="bold" font-size="16.00" fill="#707070">compute::SubNetwork</text>
<text text-anchor="start" x="36.5" y="-464.2" font-family="Helvetica,sans-Serif" font-size="16.00" fill="#383838">subnetwork&#45;dev</text>
</g>
<!-- VmInstance::::db&#45;dev -->
<g id="node7" class="node">
<title>VmInstance::::db&#45;dev</title>
<polygon fill="#e5e5e5" stroke="#dddddd" points="217.5,-433 25.5,-433 25.5,-375 217.5,-375 217.5,-433"/>
<text text-anchor="start" x="37.5" y="-413.2" font-family="Helvetica,sans-Serif" font-weight="bold" font-size="16.00" fill="#707070">compute::VmInstance</text>
<text text-anchor="start" x="37.5" y="-388.2" font-family="Helvetica,sans-Serif" font-size="16.00" fill="#383838">db&#45;dev</text>
</g>
<!-- ServiceAccount::::91170824493&#45;compute -->
<g id="node8" class="node">
<title>ServiceAccount::::91170824493&#45;compute</title>
<polygon fill="#e5e5e5" stroke="#dddddd" points="216.5,-357 26.5,-357 26.5,-299 216.5,-299 216.5,-357"/>
<text text-anchor="start" x="38.5" y="-337.2" font-family="Helvetica,sans-Serif" font-weight="bold" font-size="16.00" fill="#707070">iam::ServiceAccount</text>
<text text-anchor="start" x="38.5" y="-312.2" font-family="Helvetica,sans-Serif" font-size="16.00" fill="#383838">91170824493&#45;compute</text>
</g>
<!-- ServiceAccount::::grucloud -->
<g id="node9" class="node">
<title>ServiceAccount::::grucloud</title>
<polygon fill="#e5e5e5" stroke="#dddddd" points="213.5,-281 29.5,-281 29.5,-223 213.5,-223 213.5,-281"/>
<text text-anchor="start" x="41.5" y="-261.2" font-family="Helvetica,sans-Serif" font-weight="bold" font-size="16.00" fill="#707070">iam::ServiceAccount</text>
<text text-anchor="start" x="41.5" y="-236.2" font-family="Helvetica,sans-Serif" font-size="16.00" fill="#383838">grucloud</text>
</g>
<!-- ServiceAccount::::sa&#45;grucloud -->
<g id="node10" class="node">
<title>ServiceAccount::::sa&#45;grucloud</title>
<polygon fill="#e5e5e5" stroke="#dddddd" points="213.5,-205 29.5,-205 29.5,-147 213.5,-147 213.5,-205"/>
<text text-anchor="start" x="41.5" y="-185.2" font-family="Helvetica,sans-Serif" font-weight="bold" font-size="16.00" fill="#707070">iam::ServiceAccount</text>
<text text-anchor="start" x="41.5" y="-160.2" font-family="Helvetica,sans-Serif" font-size="16.00" fill="#383838">sa&#45;grucloud</text>
</g>
<!-- ServiceAccount::::sa&#45;test&#45;vm -->
<g id="node11" class="node">
<title>ServiceAccount::::sa&#45;test&#45;vm</title>
<polygon fill="#e5e5e5" stroke="#dddddd" points="213.5,-129 29.5,-129 29.5,-71 213.5,-71 213.5,-129"/>
<text text-anchor="start" x="41.5" y="-109.2" font-family="Helvetica,sans-Serif" font-weight="bold" font-size="16.00" fill="#707070">iam::ServiceAccount</text>
<text text-anchor="start" x="41.5" y="-84.2" font-family="Helvetica,sans-Serif" font-size="16.00" fill="#383838">sa&#45;test&#45;vm</text>
</g>
</g>
</svg>
