<?xml version="1.0" encoding="UTF-8" standalone="no"?><svg xmlns="http://www.w3.org/2000/svg" xmlns:xlink="http://www.w3.org/1999/xlink" contentScriptType="application/ecmascript" contentStyleType="text/css" height="341px" preserveAspectRatio="none" style="width:505px;height:341px;background:#FFFFFF;" version="1.1" viewBox="0 0 505 341" width="505px" zoomAndPan="magnify"><defs><filter height="300%" id="f1c4xo5bu3057l" width="300%" x="-1" y="-1"><feGaussianBlur result="blurOut" stdDeviation="2.0"/><feColorMatrix in="blurOut" result="blurOut2" type="matrix" values="0 0 0 0 0 0 0 0 0 0 0 0 0 0 0 0 0 0 .4 0"/><feOffset dx="4.0" dy="4.0" in="blurOut2" result="blurOut3"/><feBlend in="SourceGraphic" in2="blurOut3" mode="normal"/></filter></defs><g><rect fill="none" height="26.4883" style="stroke:none;stroke-width:1.0;" width="259" x="93" y="15"/><text fill="#000000" font-family="sans-serif" font-size="14" font-weight="bold" lengthAdjust="spacing" textLength="249" x="98" y="33.5352">Resources for project vm-network</text><rect fill="#F8F8F8" filter="url(#f1c4xo5bu3057l)" height="36.4883" rx="12.5" ry="12.5" style="stroke:#383838;stroke-width:1.5;" width="52" x="10" y="170.4648"/><text fill="#000000" font-family="sans-serif" font-size="14" lengthAdjust="spacing" textLength="32" x="20" y="194">Infra</text><rect fill="#F8F8F8" filter="url(#f1c4xo5bu3057l)" height="36.4883" rx="12.5" ry="12.5" style="stroke:#383838;stroke-width:1.5;" width="68" x="112" y="170.4648"/><text fill="#000000" font-family="sans-serif" font-size="14" lengthAdjust="spacing" textLength="48" x="122" y="194">google</text><rect fill="#F8F8F8" filter="url(#f1c4xo5bu3057l)" height="36.4883" rx="12.5" ry="12.5" style="stroke:#383838;stroke-width:1.5;" width="45" x="230" y="57.4883"/><text fill="#000000" font-family="sans-serif" font-size="14" lengthAdjust="spacing" textLength="25" x="240" y="81.0234">iam</text><rect fill="#F8F8F8" filter="url(#f1c4xo5bu3057l)" height="36.4883" rx="12.5" ry="12.5" style="stroke:#383838;stroke-width:1.5;" width="147" x="325" y="57.4883"/><text fill="#000000" font-family="sans-serif" font-size="14" lengthAdjust="spacing" textLength="127" x="335" y="81.0234">ServiceAccount (1)</text><path d="M275,75.7324 L285,75.7324 C300,75.7324 300,75.7324 315,75.7324 L325,75.7324 " fill="none" style="stroke:#383838;stroke-width:1.0;"/><path d="M180,188.709 L190,188.709 C205,188.709 205,75.7324 220,75.7324 L230,75.7324 " fill="none" style="stroke:#383838;stroke-width:1.0;"/><rect fill="#F8F8F8" filter="url(#f1c4xo5bu3057l)" height="36.4883" rx="12.5" ry="12.5" style="stroke:#383838;stroke-width:1.5;" width="80" x="230" y="198.709"/><text fill="#000000" font-family="sans-serif" font-size="14" lengthAdjust="spacing" textLength="60" x="240" y="222.2441">compute</text><rect fill="#F8F8F8" filter="url(#f1c4xo5bu3057l)" height="36.4883" rx="12.5" ry="12.5" style="stroke:#383838;stroke-width:1.5;" width="100" x="360" y="113.9766"/><text fill="#000000" font-family="sans-serif" font-size="14" lengthAdjust="spacing" textLength="80" x="370" y="137.5117">Network (1)</text><path d="M310,216.9531 L320,216.9531 C335,216.9531 335,132.2207 350,132.2207 L360,132.2207 " fill="none" style="stroke:#383838;stroke-width:1.0;"/><rect fill="#F8F8F8" filter="url(#f1c4xo5bu3057l)" height="36.4883" rx="12.5" ry="12.5" style="stroke:#383838;stroke-width:1.5;" width="126" x="360" y="170.4648"/><text fill="#000000" font-family="sans-serif" font-size="14" lengthAdjust="spacing" textLength="106" x="370" y="194">SubNetwork (1)</text><path d="M310,216.9531 L320,216.9531 C335,216.9531 335,188.709 350,188.709 L360,188.709 " fill="none" style="stroke:#383838;stroke-width:1.0;"/><rect fill="#F8F8F8" filter="url(#f1c4xo5bu3057l)" height="36.4883" rx="12.5" ry="12.5" style="stroke:#383838;stroke-width:1.5;" width="96" x="360" y="226.9531"/><text fill="#000000" font-family="sans-serif" font-size="14" lengthAdjust="spacing" textLength="76" x="370" y="250.4883">Firewall (1)</text><path d="M310,216.9531 L320,216.9531 C335,216.9531 335,245.1973 350,245.1973 L360,245.1973 " fill="none" style="stroke:#383838;stroke-width:1.0;"/><rect fill="#F8F8F8" filter="url(#f1c4xo5bu3057l)" height="36.4883" rx="12.5" ry="12.5" style="stroke:#383838;stroke-width:1.5;" width="122" x="360" y="283.4414"/><text fill="#000000" font-family="sans-serif" font-size="14" lengthAdjust="spacing" textLength="102" x="370" y="306.9766">VmInstance (1)</text><path d="M310,216.9531 L320,216.9531 C335,216.9531 335,301.6855 350,301.6855 L360,301.6855 " fill="none" style="stroke:#383838;stroke-width:1.0;"/><path d="M180,188.709 L190,188.709 C205,188.709 205,216.9531 220,216.9531 L230,216.9531 " fill="none" style="stroke:#383838;stroke-width:1.0;"/><path d="M62,188.709 L72,188.709 C87,188.709 87,188.709 102,188.709 L112,188.709 " fill="none" style="stroke:#383838;stroke-width:1.0;"/><!--MD5=[c535b6ff6475ef741487a450e33f0dd6]
@startmindmap
title Resources for project vm-network
skinparam monochrome true
+ Infra
++ google
+++ iam
++++ ServiceAccount (1)
+++ compute
++++ Network (1)
++++ SubNetwork (1)
++++ Firewall (1)
++++ VmInstance (1)
@endmindmap

PlantUML version 1.2021.8(Sat Jun 26 05:20:59 BRT 2021)
(GPL source distribution)
Java Runtime: OpenJDK Runtime Environment
JVM: OpenJDK 64-Bit Server VM
Default Encoding: UTF-8
Language: en
Country: GB
--></g></svg>