<?xml version="1.0" encoding="UTF-8" standalone="no"?>
<!DOCTYPE svg PUBLIC "-//W3C//DTD SVG 1.1//EN"
 "http://www.w3.org/Graphics/SVG/1.1/DTD/svg11.dtd">
<!-- Generated by graphviz version 7.1.0 (20230121.1956)
 -->
<!-- Title: graphname Pages: 1 -->
<svg width="765pt" height="313pt"
 viewBox="0.00 0.00 765.00 313.00" xmlns="http://www.w3.org/2000/svg" xmlns:xlink="http://www.w3.org/1999/xlink">
<g id="graph0" class="graph" transform="scale(1 1) rotate(0) translate(4 309)">
<title>graphname</title>
<polygon fill="#fafafa" stroke="none" points="-4,4 -4,-309 761,-309 761,4 -4,4"/>
<text text-anchor="start" x="261.5" y="-280.4" font-family="Helvetica,sans-Serif" font-weight="bold" font-size="22.00" fill="#383838">Project record&#45;alias&#45;s3</text>
<text text-anchor="start" x="375" y="-264.8" font-family="Helvetica,sans-Serif" font-size="14.00"> &#160;</text>
<text text-anchor="start" x="261.5" y="-243.2" font-family="Helvetica,sans-Serif" font-weight="bold" font-size="16.00" fill="#707070">Target Diagram</text>
<g id="clust1" class="cluster">
<title>cluster_aws</title>
<polygon fill="#f5f5f5" stroke="#f5f5f5" points="8,-8 8,-221 749,-221 749,-8 8,-8"/>
<text text-anchor="start" x="316.5" y="-23" font-family="Helvetica,sans-Serif" font-weight="bold" font-size="20.00" fill="#707070">Provider aws</text>
</g>
<g id="clust2" class="cluster">
<title>cluster_aws_</title>
<polygon fill="#eeeeee" stroke="#eeeeee" points="16,-54 16,-213 741,-213 741,-54 16,-54"/>
<text text-anchor="start" x="378.36" y="-58.3" font-family="Helvetica,sans-Serif" font-size="1.00" fill="#383838"> </text>
</g>
<!-- HostedZone::grucloud.org. -->
<g id="node1" class="node">
<title>HostedZone::grucloud.org.</title>
<polygon fill="#e5e5e5" stroke="#dddddd" points="473,-205 283,-205 283,-147 473,-147 473,-205"/>
<text text-anchor="start" x="295" y="-185.2" font-family="Helvetica,sans-Serif" font-weight="bold" font-size="16.00" fill="#707070">Route53::HostedZone</text>
<text text-anchor="start" x="295" y="-160.2" font-family="Helvetica,sans-Serif" font-size="16.00" fill="#383838">grucloud.org.</text>
</g>
<!-- Domain::grucloud.org -->
<g id="node3" class="node">
<title>Domain::grucloud.org</title>
<polygon fill="#e5e5e5" stroke="#dddddd" points="733,-205 509,-205 509,-147 733,-147 733,-205"/>
<text text-anchor="start" x="521" y="-185.2" font-family="Helvetica,sans-Serif" font-weight="bold" font-size="16.00" fill="#707070">Route53Domains::Domain</text>
<text text-anchor="start" x="521" y="-160.2" font-family="Helvetica,sans-Serif" font-size="16.00" fill="#383838">grucloud.org</text>
</g>
<!-- HostedZone::grucloud.org.&#45;&gt;Domain::grucloud.org -->
<g id="edge1" class="edge">
<title>HostedZone::grucloud.org.&#45;&gt;Domain::grucloud.org</title>
<path fill="none" stroke="#707070" d="M473.21,-176C481.11,-176 489.16,-176 497.23,-176"/>
<polygon fill="#707070" stroke="#707070" points="497.12,-179.5 507.12,-176 497.12,-172.5 497.12,-179.5"/>
</g>
<!-- Record::record::A::site.grucloud.org. -->
<g id="node2" class="node">
<title>Record::record::A::site.grucloud.org.</title>
<polygon fill="#e5e5e5" stroke="#dddddd" points="247,-205 24,-205 24,-147 247,-147 247,-205"/>
<text text-anchor="start" x="36.5" y="-185.2" font-family="Helvetica,sans-Serif" font-weight="bold" font-size="16.00" fill="#707070">Route53::Record</text>
<text text-anchor="start" x="36.5" y="-160.2" font-family="Helvetica,sans-Serif" font-size="16.00" fill="#383838">record::A::site.grucloud.org.</text>
</g>
<!-- Record::record::A::site.grucloud.org.&#45;&gt;HostedZone::grucloud.org. -->
<g id="edge2" class="edge">
<title>Record::record::A::site.grucloud.org.&#45;&gt;HostedZone::grucloud.org.</title>
<path fill="none" stroke="#707070" d="M247.25,-176C255.29,-176 263.39,-176 271.41,-176"/>
<polygon fill="#707070" stroke="#707070" points="271.15,-179.5 281.15,-176 271.15,-172.5 271.15,-179.5"/>
</g>
<!-- Bucket::site.grucloud.org -->
<g id="node4" class="node">
<title>Bucket::site.grucloud.org</title>
<polygon fill="#e5e5e5" stroke="#dddddd" points="208,-129 63,-129 63,-71 208,-71 208,-129"/>
<text text-anchor="start" x="75.5" y="-109.2" font-family="Helvetica,sans-Serif" font-weight="bold" font-size="16.00" fill="#707070">S3::Bucket</text>
<text text-anchor="start" x="75.5" y="-84.2" font-family="Helvetica,sans-Serif" font-size="16.00" fill="#383838">site.grucloud.org</text>
</g>
</g>
</svg>
