<?xml version="1.0" encoding="UTF-8" standalone="no"?><svg xmlns="http://www.w3.org/2000/svg" xmlns:xlink="http://www.w3.org/1999/xlink" contentStyleType="text/css" height="511px" preserveAspectRatio="none" style="width:565px;height:511px;background:#FFFFFF;" version="1.1" viewBox="0 0 565 511" width="565px" zoomAndPan="magnify"><defs/><g><rect height="26.4883" style="stroke:#00000000;stroke-width:1.0;fill:none;" width="336" x="88" y="15"/><text fill="#000000" font-family="sans-serif" font-size="14" font-weight="bold" lengthAdjust="spacing" textLength="326" x="93" y="33.5352">Resources for project apprunner-leaderboard</text><rect fill="#F1F1F1" height="36.4883" rx="12.5" ry="12.5" style="stroke:#181818;stroke-width:1.5;" width="52" x="10" y="255.1973"/><text fill="#000000" font-family="sans-serif" font-size="14" lengthAdjust="spacing" textLength="32" x="20" y="278.7324">Infra</text><rect fill="#F1F1F1" height="36.4883" rx="12.5" ry="12.5" style="stroke:#181818;stroke-width:1.5;" width="46" x="112" y="255.1973"/><text fill="#000000" font-family="sans-serif" font-size="14" lengthAdjust="spacing" textLength="26" x="122" y="278.7324">aws</text><rect fill="#F1F1F1" height="36.4883" rx="12.5" ry="12.5" style="stroke:#181818;stroke-width:1.5;" width="98" x="208" y="142.2207"/><text fill="#000000" font-family="sans-serif" font-size="14" lengthAdjust="spacing" textLength="78" x="218" y="165.7559">AppRunner</text><rect fill="#F1F1F1" height="36.4883" rx="12.5" ry="12.5" style="stroke:#181818;stroke-width:1.5;" width="122" x="356" y="57.4883"/><text fill="#000000" font-family="sans-serif" font-size="14" lengthAdjust="spacing" textLength="102" x="366" y="81.0234">Connection (1)</text><path d="M306,160.4648 L316,160.4648 C331,160.4648 331,75.7324 346,75.7324 L356,75.7324 " fill="none" style="stroke:#181818;stroke-width:1.0;"/><rect fill="#F1F1F1" height="36.4883" rx="12.5" ry="12.5" style="stroke:#181818;stroke-width:1.5;" width="91" x="356" y="113.9766"/><text fill="#000000" font-family="sans-serif" font-size="14" lengthAdjust="spacing" textLength="71" x="366" y="137.5117">Service (2)</text><path d="M306,160.4648 L316,160.4648 C331,160.4648 331,132.2207 346,132.2207 L356,132.2207 " fill="none" style="stroke:#181818;stroke-width:1.0;"/><rect fill="#F1F1F1" height="36.4883" rx="12.5" ry="12.5" style="stroke:#181818;stroke-width:1.5;" width="140" x="356" y="170.4648"/><text fill="#000000" font-family="sans-serif" font-size="14" lengthAdjust="spacing" textLength="120" x="366" y="194">VpcConnector (1)</text><path d="M306,160.4648 L316,160.4648 C331,160.4648 331,188.709 346,188.709 L356,188.709 " fill="none" style="stroke:#181818;stroke-width:1.0;"/><rect fill="#F1F1F1" height="36.4883" rx="12.5" ry="12.5" style="stroke:#181818;stroke-width:1.5;" width="197" x="356" y="226.9531"/><text fill="#000000" font-family="sans-serif" font-size="14" lengthAdjust="spacing" textLength="177" x="366" y="250.4883">VpcIngressConnection (1)</text><path d="M306,160.4648 L316,160.4648 C331,160.4648 331,245.1973 346,245.1973 L356,245.1973 " fill="none" style="stroke:#181818;stroke-width:1.0;"/><path d="M158,273.4414 L168,273.4414 C183,273.4414 183,160.4648 198,160.4648 L208,160.4648 " fill="none" style="stroke:#181818;stroke-width:1.0;"/><rect fill="#F1F1F1" height="36.4883" rx="12.5" ry="12.5" style="stroke:#181818;stroke-width:1.5;" width="47" x="208" y="368.1738"/><text fill="#000000" font-family="sans-serif" font-size="14" lengthAdjust="spacing" textLength="27" x="218" y="391.709">EC2</text><rect fill="#F1F1F1" height="36.4883" rx="12.5" ry="12.5" style="stroke:#181818;stroke-width:1.5;" width="68" x="305" y="283.4414"/><text fill="#000000" font-family="sans-serif" font-size="14" lengthAdjust="spacing" textLength="48" x="315" y="306.9766">Vpc (1)</text><path d="M255,386.418 L265,386.418 C280,386.418 280,301.6855 295,301.6855 L305,301.6855 " fill="none" style="stroke:#181818;stroke-width:1.0;"/><rect fill="#F1F1F1" height="36.4883" rx="12.5" ry="12.5" style="stroke:#181818;stroke-width:1.5;" width="91" x="305" y="339.9297"/><text fill="#000000" font-family="sans-serif" font-size="14" lengthAdjust="spacing" textLength="71" x="315" y="363.4648">Subnet (2)</text><path d="M255,386.418 L265,386.418 C280,386.418 280,358.1738 295,358.1738 L305,358.1738 " fill="none" style="stroke:#181818;stroke-width:1.0;"/><rect fill="#F1F1F1" height="36.4883" rx="12.5" ry="12.5" style="stroke:#181818;stroke-width:1.5;" width="140" x="305" y="396.418"/><text fill="#000000" font-family="sans-serif" font-size="14" lengthAdjust="spacing" textLength="120" x="315" y="419.9531">SecurityGroup (1)</text><path d="M255,386.418 L265,386.418 C280,386.418 280,414.6621 295,414.6621 L305,414.6621 " fill="none" style="stroke:#181818;stroke-width:1.0;"/><rect fill="#F1F1F1" height="36.4883" rx="12.5" ry="12.5" style="stroke:#181818;stroke-width:1.5;" width="130" x="305" y="452.9063"/><text fill="#000000" font-family="sans-serif" font-size="14" lengthAdjust="spacing" textLength="110" x="315" y="476.4414">VpcEndpoint (1)</text><path d="M255,386.418 L265,386.418 C280,386.418 280,471.1504 295,471.1504 L305,471.1504 " fill="none" style="stroke:#181818;stroke-width:1.0;"/><path d="M158,273.4414 L168,273.4414 C183,273.4414 183,386.418 198,386.418 L208,386.418 " fill="none" style="stroke:#181818;stroke-width:1.0;"/><path d="M62,273.4414 L72,273.4414 C87,273.4414 87,273.4414 102,273.4414 L112,273.4414 " fill="none" style="stroke:#181818;stroke-width:1.0;"/><!--MD5=[22437e7b1b07171ab442efd5d6b1cdd4]
@startmindmap
title Resources for project apprunner-leaderboard
skinparam monochrome true
+ Infra
++ aws
+++ AppRunner
++++ Connection (1)
++++ Service (2)
++++ VpcConnector (1)
++++ VpcIngressConnection (1)
+++ EC2
++++ Vpc (1)
++++ Subnet (2)
++++ SecurityGroup (1)
++++ VpcEndpoint (1)
@endmindmap

PlantUML version 1.2022.6(Tue Jun 21 12:34:49 COT 2022)
(GPL source distribution)
Java Runtime: Java(TM) SE Runtime Environment
JVM: Java HotSpot(TM) 64-Bit Server VM
Default Encoding: UTF-8
Language: en
Country: GB
--></g></svg>