<?xml version="1.0" encoding="UTF-8" standalone="no"?>
<!DOCTYPE svg PUBLIC "-//W3C//DTD SVG 1.1//EN"
 "http://www.w3.org/Graphics/SVG/1.1/DTD/svg11.dtd">
<!-- Generated by graphviz version 6.0.0 (20220910.1538)
 -->
<!-- Title: graphname Pages: 1 -->
<svg width="842pt" height="1370pt"
 viewBox="0.00 0.00 842.00 1370.00" xmlns="http://www.w3.org/2000/svg" xmlns:xlink="http://www.w3.org/1999/xlink">
<g id="graph0" class="graph" transform="scale(1 1) rotate(0) translate(4 1366)">
<title>graphname</title>
<polygon fill="#fafafa" stroke="none" points="-4,4 -4,-1366 838,-1366 838,4 -4,4"/>
<text text-anchor="start" x="315" y="-1337.4" font-family="Helvetica,sans-Serif" font-weight="bold" font-size="22.00" fill="#383838">Project vpc&#45;peering</text>
<text text-anchor="start" x="413.5" y="-1321.8" font-family="Helvetica,sans-Serif" font-size="14.00"> &#160;</text>
<text text-anchor="start" x="315" y="-1300.2" font-family="Helvetica,sans-Serif" font-weight="bold" font-size="16.00" fill="#707070">Target Diagram</text>
<g id="clust1" class="cluster">
<title>cluster_aws&#45;primary</title>
<polygon fill="#f5f5f5" stroke="#f5f5f5" points="18.5,-8 18.5,-601 815.5,-601 815.5,-8 18.5,-8"/>
<text text-anchor="start" x="315" y="-23" font-family="Helvetica,sans-Serif" font-weight="bold" font-size="20.00" fill="#707070">Provider aws&#45;primary</text>
</g>
<g id="clust2" class="cluster">
<title>cluster_aws&#45;primary_</title>
<polygon fill="#eeeeee" stroke="#eeeeee" points="26.5,-54 26.5,-593 807.5,-593 807.5,-54 26.5,-54"/>
<text text-anchor="start" x="416.86" y="-58.3" font-family="Helvetica,sans-Serif" font-size="1.00" fill="#383838"> </text>
</g>
<g id="clust3" class="cluster">
<title>cluster_aws&#45;secondary</title>
<polygon fill="#f5f5f5" stroke="#f5f5f5" points="8,-609 8,-1278 826,-1278 826,-609 8,-609"/>
<text text-anchor="start" x="302" y="-624" font-family="Helvetica,sans-Serif" font-weight="bold" font-size="20.00" fill="#707070">Provider aws&#45;secondary</text>
</g>
<g id="clust4" class="cluster">
<title>cluster_aws&#45;secondary_</title>
<polygon fill="#eeeeee" stroke="#eeeeee" points="16,-655 16,-1270 818,-1270 818,-655 16,-655"/>
<text text-anchor="start" x="416.86" y="-659.3" font-family="Helvetica,sans-Serif" font-size="1.00" fill="#383838"> </text>
</g>
<!-- Vpc::vpc&#45;primary -->
<g id="node1" class="node">
<title>Vpc::vpc&#45;primary</title>
<polygon fill="#e5e5e5" stroke="#dddddd" points="799.5,-285 690.5,-285 690.5,-227 799.5,-227 799.5,-285"/>
<text text-anchor="start" x="703" y="-265.2" font-family="Helvetica,sans-Serif" font-weight="bold" font-size="16.00" fill="#707070">EC2::Vpc</text>
<text text-anchor="start" x="703" y="-240.2" font-family="Helvetica,sans-Serif" font-size="16.00" fill="#383838">vpc&#45;primary</text>
</g>
<!-- Subnet::vpc&#45;primary::subnet&#45;1 -->
<g id="node2" class="node">
<title>Subnet::vpc&#45;primary::subnet&#45;1</title>
<polygon fill="#e5e5e5" stroke="#dddddd" points="597.5,-261 416.5,-261 416.5,-203 597.5,-203 597.5,-261"/>
<text text-anchor="start" x="429" y="-241.2" font-family="Helvetica,sans-Serif" font-weight="bold" font-size="16.00" fill="#707070">EC2::Subnet</text>
<text text-anchor="start" x="429" y="-216.2" font-family="Helvetica,sans-Serif" font-size="16.00" fill="#383838">vpc&#45;primary::subnet&#45;1</text>
</g>
<!-- Subnet::vpc&#45;primary::subnet&#45;1&#45;&gt;Vpc::vpc&#45;primary -->
<g id="edge1" class="edge">
<title>Subnet::vpc&#45;primary::subnet&#45;1&#45;&gt;Vpc::vpc&#45;primary</title>
<path fill="none" stroke="#707070" d="M597.56,-241.11C625.06,-243.9 654.76,-246.92 680.18,-249.51"/>
<polygon fill="#707070" stroke="#707070" points="680.12,-253.02 690.42,-250.55 680.83,-246.06 680.12,-253.02"/>
</g>
<!-- RouteTable::vpc&#45;primary::rt&#45;default -->
<g id="node3" class="node">
<title>RouteTable::vpc&#45;primary::rt&#45;default</title>
<polygon fill="#e5e5e5" stroke="#dddddd" points="598,-433 416,-433 416,-375 598,-375 598,-433"/>
<text text-anchor="start" x="428" y="-413.2" font-family="Helvetica,sans-Serif" font-weight="bold" font-size="16.00" fill="#707070">EC2::RouteTable</text>
<text text-anchor="start" x="428" y="-388.2" font-family="Helvetica,sans-Serif" font-size="16.00" fill="#383838">vpc&#45;primary::rt&#45;default</text>
</g>
<!-- RouteTable::vpc&#45;primary::rt&#45;default&#45;&gt;Vpc::vpc&#45;primary -->
<g id="edge2" class="edge">
<title>RouteTable::vpc&#45;primary::rt&#45;default&#45;&gt;Vpc::vpc&#45;primary</title>
<path fill="none" stroke="#707070" d="M598.07,-386.55C614.04,-381.34 630.02,-374.62 644,-366 674.06,-347.46 700.56,-317.3 718.72,-293.25"/>
<polygon fill="#707070" stroke="#707070" points="721.66,-295.15 724.78,-285.02 716.03,-290.99 721.66,-295.15"/>
</g>
<!-- Route::vpc&#45;primary::rt&#45;default::pcx::10.1.0.0/16 -->
<g id="node4" class="node">
<title>Route::vpc&#45;primary::rt&#45;default::pcx::10.1.0.0/16</title>
<polygon fill="#e5e5e5" stroke="#dddddd" points="307.5,-585 50.5,-585 50.5,-527 307.5,-527 307.5,-585"/>
<text text-anchor="start" x="63" y="-565.2" font-family="Helvetica,sans-Serif" font-weight="bold" font-size="16.00" fill="#707070">EC2::Route</text>
<text text-anchor="start" x="63" y="-540.2" font-family="Helvetica,sans-Serif" font-size="16.00" fill="#383838">vpc&#45;primary::rt&#45;default::pcx::10...</text>
</g>
<!-- Route::vpc&#45;primary::rt&#45;default::pcx::10.1.0.0/16&#45;&gt;RouteTable::vpc&#45;primary::rt&#45;default -->
<g id="edge3" class="edge">
<title>Route::vpc&#45;primary::rt&#45;default::pcx::10.1.0.0/16&#45;&gt;RouteTable::vpc&#45;primary::rt&#45;default</title>
<path fill="none" stroke="#707070" d="M307.58,-534.49C317.05,-529.97 326,-524.53 334,-518 362.94,-494.35 341.42,-466.09 370,-442 380.56,-433.1 393.05,-426.28 406.12,-421.05"/>
<polygon fill="#707070" stroke="#707070" points="407.55,-424.25 415.72,-417.51 405.13,-417.68 407.55,-424.25"/>
</g>
<!-- VpcPeeringConnection::vpc&#45;peering::vpc&#45;primary::vpc&#45;secondary -->
<g id="node13" class="node">
<title>VpcPeeringConnection::vpc&#45;peering::vpc&#45;primary::vpc&#45;secondary</title>
<polygon fill="#e5e5e5" stroke="#dddddd" points="644,-585 370,-585 370,-527 644,-527 644,-585"/>
<text text-anchor="start" x="382" y="-565.2" font-family="Helvetica,sans-Serif" font-weight="bold" font-size="16.00" fill="#707070">EC2::VpcPeeringConnection</text>
<text text-anchor="start" x="382" y="-540.2" font-family="Helvetica,sans-Serif" font-size="16.00" fill="#383838">vpc&#45;peering::vpc&#45;primary::vpc&#45;se...</text>
</g>
<!-- Route::vpc&#45;primary::rt&#45;default::pcx::10.1.0.0/16&#45;&gt;VpcPeeringConnection::vpc&#45;peering::vpc&#45;primary::vpc&#45;secondary -->
<g id="edge4" class="edge">
<title>Route::vpc&#45;primary::rt&#45;default::pcx::10.1.0.0/16&#45;&gt;VpcPeeringConnection::vpc&#45;peering::vpc&#45;primary::vpc&#45;secondary</title>
<path fill="none" stroke="#707070" d="M307.91,-556C324.91,-556 342.44,-556 359.72,-556"/>
<polygon fill="#707070" stroke="#707070" points="359.86,-559.5 369.86,-556 359.86,-552.5 359.86,-559.5"/>
</g>
<!-- SecurityGroup::sg::vpc&#45;primary::icmp -->
<g id="node5" class="node">
<title>SecurityGroup::sg::vpc&#45;primary::icmp</title>
<polygon fill="#e5e5e5" stroke="#dddddd" points="596.5,-357 417.5,-357 417.5,-299 596.5,-299 596.5,-357"/>
<text text-anchor="start" x="430" y="-337.2" font-family="Helvetica,sans-Serif" font-weight="bold" font-size="16.00" fill="#707070">EC2::SecurityGroup</text>
<text text-anchor="start" x="430" y="-312.2" font-family="Helvetica,sans-Serif" font-size="16.00" fill="#383838">sg::vpc&#45;primary::icmp</text>
</g>
<!-- SecurityGroup::sg::vpc&#45;primary::icmp&#45;&gt;Vpc::vpc&#45;primary -->
<g id="edge5" class="edge">
<title>SecurityGroup::sg::vpc&#45;primary::icmp&#45;&gt;Vpc::vpc&#45;primary</title>
<path fill="none" stroke="#707070" d="M596.55,-300.99C624.5,-292.46 654.8,-283.21 680.63,-275.33"/>
<polygon fill="#707070" stroke="#707070" points="681.75,-278.65 690.29,-272.38 679.71,-271.96 681.75,-278.65"/>
</g>
<!-- SecurityGroup::sg::vpc&#45;primary::ssm -->
<g id="node6" class="node">
<title>SecurityGroup::sg::vpc&#45;primary::ssm</title>
<polygon fill="#e5e5e5" stroke="#dddddd" points="595.5,-165 418.5,-165 418.5,-107 595.5,-107 595.5,-165"/>
<text text-anchor="start" x="431" y="-145.2" font-family="Helvetica,sans-Serif" font-weight="bold" font-size="16.00" fill="#707070">EC2::SecurityGroup</text>
<text text-anchor="start" x="431" y="-120.2" font-family="Helvetica,sans-Serif" font-size="16.00" fill="#383838">sg::vpc&#45;primary::ssm</text>
</g>
<!-- SecurityGroup::sg::vpc&#45;primary::ssm&#45;&gt;Vpc::vpc&#45;primary -->
<g id="edge6" class="edge">
<title>SecurityGroup::sg::vpc&#45;primary::ssm&#45;&gt;Vpc::vpc&#45;primary</title>
<path fill="none" stroke="#707070" d="M595.8,-158.78C612.24,-164.42 628.96,-171.15 644,-179 665.39,-190.17 686.88,-205.98 704.43,-220.37"/>
<polygon fill="#707070" stroke="#707070" points="702.29,-223.14 712.2,-226.86 706.77,-217.76 702.29,-223.14"/>
</g>
<!-- SecurityGroupRuleIngress::sg::vpc&#45;primary::icmp&#45;rule&#45;ingress&#45;icmp -->
<g id="node7" class="node">
<title>SecurityGroupRuleIngress::sg::vpc&#45;primary::icmp&#45;rule&#45;ingress&#45;icmp</title>
<polygon fill="#e5e5e5" stroke="#dddddd" points="313,-509 45,-509 45,-451 313,-451 313,-509"/>
<text text-anchor="start" x="57" y="-489.2" font-family="Helvetica,sans-Serif" font-weight="bold" font-size="16.00" fill="#707070">EC2::SecurityGroupRuleIngress</text>
<text text-anchor="start" x="57" y="-464.2" font-family="Helvetica,sans-Serif" font-size="16.00" fill="#383838">sg::vpc&#45;primary::icmp&#45;rule&#45;ingre...</text>
</g>
<!-- SecurityGroupRuleIngress::sg::vpc&#45;primary::icmp&#45;rule&#45;ingress&#45;icmp&#45;&gt;SecurityGroup::sg::vpc&#45;primary::icmp -->
<g id="edge7" class="edge">
<title>SecurityGroupRuleIngress::sg::vpc&#45;primary::icmp&#45;rule&#45;ingress&#45;icmp&#45;&gt;SecurityGroup::sg::vpc&#45;primary::icmp</title>
<path fill="none" stroke="#707070" d="M313.19,-455.67C320.59,-451.75 327.6,-447.23 334,-442 362.94,-418.35 341.42,-390.09 370,-366 381.04,-356.69 394.2,-349.66 407.92,-344.34"/>
<polygon fill="#707070" stroke="#707070" points="409.25,-347.58 417.49,-340.92 406.9,-340.99 409.25,-347.58"/>
</g>
<!-- SecurityGroupRuleIngress::sg::vpc&#45;primary::ssm&#45;rule&#45;ingress&#45;tcp&#45;443 -->
<g id="node8" class="node">
<title>SecurityGroupRuleIngress::sg::vpc&#45;primary::ssm&#45;rule&#45;ingress&#45;tcp&#45;443</title>
<polygon fill="#e5e5e5" stroke="#dddddd" points="314,-129 44,-129 44,-71 314,-71 314,-129"/>
<text text-anchor="start" x="56" y="-109.2" font-family="Helvetica,sans-Serif" font-weight="bold" font-size="16.00" fill="#707070">EC2::SecurityGroupRuleIngress</text>
<text text-anchor="start" x="56" y="-84.2" font-family="Helvetica,sans-Serif" font-size="16.00" fill="#383838">sg::vpc&#45;primary::ssm&#45;rule&#45;ingres...</text>
</g>
<!-- SecurityGroupRuleIngress::sg::vpc&#45;primary::ssm&#45;rule&#45;ingress&#45;tcp&#45;443&#45;&gt;SecurityGroup::sg::vpc&#45;primary::ssm -->
<g id="edge8" class="edge">
<title>SecurityGroupRuleIngress::sg::vpc&#45;primary::ssm&#45;rule&#45;ingress&#45;tcp&#45;443&#45;&gt;SecurityGroup::sg::vpc&#45;primary::ssm</title>
<path fill="none" stroke="#707070" d="M314.01,-114.8C345.43,-118.27 378.33,-121.9 407.85,-125.16"/>
<polygon fill="#707070" stroke="#707070" points="407.81,-128.68 418.14,-126.3 408.58,-121.72 407.81,-128.68"/>
</g>
<!-- Instance::machine&#45;1 -->
<g id="node9" class="node">
<title>Instance::machine&#45;1</title>
<polygon fill="#e5e5e5" stroke="#dddddd" points="244.5,-433 113.5,-433 113.5,-375 244.5,-375 244.5,-433"/>
<text text-anchor="start" x="126" y="-413.2" font-family="Helvetica,sans-Serif" font-weight="bold" font-size="16.00" fill="#707070">EC2::Instance</text>
<text text-anchor="start" x="126" y="-388.2" font-family="Helvetica,sans-Serif" font-size="16.00" fill="#383838">machine&#45;1</text>
</g>
<!-- Instance::machine&#45;1&#45;&gt;Subnet::vpc&#45;primary::subnet&#45;1 -->
<g id="edge9" class="edge">
<title>Instance::machine&#45;1&#45;&gt;Subnet::vpc&#45;primary::subnet&#45;1</title>
<path fill="none" stroke="#707070" d="M244.84,-400.59C274.74,-396.08 309.05,-386.39 334,-366 362.94,-342.35 343.06,-315.9 370,-290 380.78,-279.64 393.69,-270.99 407.21,-263.81"/>
<polygon fill="#707070" stroke="#707070" points="408.81,-266.92 416.16,-259.3 405.66,-260.67 408.81,-266.92"/>
</g>
<!-- Instance::machine&#45;1&#45;&gt;SecurityGroup::sg::vpc&#45;primary::icmp -->
<g id="edge11" class="edge">
<title>Instance::machine&#45;1&#45;&gt;SecurityGroup::sg::vpc&#45;primary::icmp</title>
<path fill="none" stroke="#707070" d="M244.8,-388.89C291.2,-378.08 354.53,-363.31 407.21,-351.03"/>
<polygon fill="#707070" stroke="#707070" points="408.31,-354.37 417.25,-348.69 406.72,-347.55 408.31,-354.37"/>
</g>
<!-- Instance::machine&#45;1&#45;&gt;SecurityGroup::sg::vpc&#45;primary::ssm -->
<g id="edge12" class="edge">
<title>Instance::machine&#45;1&#45;&gt;SecurityGroup::sg::vpc&#45;primary::ssm</title>
<path fill="none" stroke="#707070" d="M244.78,-403.35C275.78,-399.61 311.05,-389.78 334,-366 388.23,-309.8 320.47,-254.38 370,-194 380.45,-181.26 394.21,-171.27 408.96,-163.44"/>
<polygon fill="#707070" stroke="#707070" points="410.84,-166.41 418.25,-158.84 407.73,-160.14 410.84,-166.41"/>
</g>
<!-- InstanceProfile::role&#45;ssm -->
<g id="node15" class="node">
<title>InstanceProfile::role&#45;ssm</title>
<polygon fill="#e5e5e5" stroke="#dddddd" points="596.5,-509 417.5,-509 417.5,-451 596.5,-451 596.5,-509"/>
<text text-anchor="start" x="430" y="-489.2" font-family="Helvetica,sans-Serif" font-weight="bold" font-size="16.00" fill="#707070">IAM::InstanceProfile</text>
<text text-anchor="start" x="430" y="-464.2" font-family="Helvetica,sans-Serif" font-size="16.00" fill="#383838">role&#45;ssm</text>
</g>
<!-- Instance::machine&#45;1&#45;&gt;InstanceProfile::role&#45;ssm -->
<g id="edge10" class="edge">
<title>Instance::machine&#45;1&#45;&gt;InstanceProfile::role&#45;ssm</title>
<path fill="none" stroke="#707070" d="M244.8,-419.11C291.2,-429.92 354.53,-444.69 407.21,-456.97"/>
<polygon fill="#707070" stroke="#707070" points="406.72,-460.45 417.25,-459.31 408.31,-453.63 406.72,-460.45"/>
</g>
<!-- VpcEndpoint::vpce::vpc&#45;primary::vpce&#45;ec2&#45;messages -->
<g id="node10" class="node">
<title>VpcEndpoint::vpce::vpc&#45;primary::vpce&#45;ec2&#45;messages</title>
<polygon fill="#e5e5e5" stroke="#dddddd" points="322,-281 36,-281 36,-223 322,-223 322,-281"/>
<text text-anchor="start" x="48" y="-261.2" font-family="Helvetica,sans-Serif" font-weight="bold" font-size="16.00" fill="#707070">EC2::VpcEndpoint</text>
<text text-anchor="start" x="48" y="-236.2" font-family="Helvetica,sans-Serif" font-size="16.00" fill="#383838">vpce::vpc&#45;primary::vpce&#45;ec2&#45;mess...</text>
</g>
<!-- VpcEndpoint::vpce::vpc&#45;primary::vpce&#45;ec2&#45;messages&#45;&gt;Vpc::vpc&#45;primary -->
<g id="edge13" class="edge">
<title>VpcEndpoint::vpce::vpc&#45;primary::vpce&#45;ec2&#45;messages&#45;&gt;Vpc::vpc&#45;primary</title>
<path fill="none" stroke="#707070" d="M308.95,-222.91C317.51,-220.14 325.93,-217.17 334,-214 351.03,-207.3 352.28,-198.59 370,-194 428.94,-178.73 585.44,-177.32 644,-194 663.57,-199.58 683.06,-210.2 699.56,-221.1"/>
<polygon fill="#707070" stroke="#707070" points="697.67,-224.05 707.9,-226.8 701.62,-218.27 697.67,-224.05"/>
</g>
<!-- VpcEndpoint::vpce::vpc&#45;primary::vpce&#45;ec2&#45;messages&#45;&gt;Subnet::vpc&#45;primary::subnet&#45;1 -->
<g id="edge14" class="edge">
<title>VpcEndpoint::vpce::vpc&#45;primary::vpce&#45;ec2&#45;messages&#45;&gt;Subnet::vpc&#45;primary::subnet&#45;1</title>
<path fill="none" stroke="#707070" d="M322.04,-243.29C350.34,-241.55 379.5,-239.76 406.02,-238.13"/>
<polygon fill="#707070" stroke="#707070" points="406.28,-241.62 416.05,-237.52 405.85,-234.64 406.28,-241.62"/>
</g>
<!-- VpcEndpoint::vpce::vpc&#45;primary::vpce&#45;ec2&#45;messages&#45;&gt;SecurityGroup::sg::vpc&#45;primary::ssm -->
<g id="edge15" class="edge">
<title>VpcEndpoint::vpce::vpc&#45;primary::vpce&#45;ec2&#45;messages&#45;&gt;SecurityGroup::sg::vpc&#45;primary::ssm</title>
<path fill="none" stroke="#707070" d="M315.95,-222.84C322.17,-220.15 328.22,-217.21 334,-214 353.51,-203.17 350.85,-190.45 370,-179 381.89,-171.89 395.07,-165.84 408.42,-160.72"/>
<polygon fill="#707070" stroke="#707070" points="409.96,-163.88 418.15,-157.15 407.56,-157.31 409.96,-163.88"/>
</g>
<!-- VpcEndpoint::vpce::vpc&#45;primary::vpce&#45;ssm -->
<g id="node11" class="node">
<title>VpcEndpoint::vpce::vpc&#45;primary::vpce&#45;ssm</title>
<polygon fill="#e5e5e5" stroke="#dddddd" points="295,-357 63,-357 63,-299 295,-299 295,-357"/>
<text text-anchor="start" x="75" y="-337.2" font-family="Helvetica,sans-Serif" font-weight="bold" font-size="16.00" fill="#707070">EC2::VpcEndpoint</text>
<text text-anchor="start" x="75" y="-312.2" font-family="Helvetica,sans-Serif" font-size="16.00" fill="#383838">vpce::vpc&#45;primary::vpce&#45;ssm</text>
</g>
<!-- VpcEndpoint::vpce::vpc&#45;primary::vpce&#45;ssm&#45;&gt;Vpc::vpc&#45;primary -->
<g id="edge16" class="edge">
<title>VpcEndpoint::vpce::vpc&#45;primary::vpce&#45;ssm&#45;&gt;Vpc::vpc&#45;primary</title>
<path fill="none" stroke="#707070" d="M295.16,-302.58C319.76,-297.82 345.67,-293.31 370,-290 490.99,-273.55 522.58,-282.92 644,-270 655.78,-268.75 668.31,-267.18 680.37,-265.55"/>
<polygon fill="#707070" stroke="#707070" points="680.94,-269.01 690.37,-264.18 679.98,-262.07 680.94,-269.01"/>
</g>
<!-- VpcEndpoint::vpce::vpc&#45;primary::vpce&#45;ssm&#45;&gt;Subnet::vpc&#45;primary::subnet&#45;1 -->
<g id="edge17" class="edge">
<title>VpcEndpoint::vpce::vpc&#45;primary::vpce&#45;ssm&#45;&gt;Subnet::vpc&#45;primary::subnet&#45;1</title>
<path fill="none" stroke="#707070" d="M295.34,-301.59C308.46,-297.98 321.58,-294.09 334,-290 350.46,-284.57 353.72,-280.95 370,-275 381.86,-270.66 394.39,-266.35 406.86,-262.22"/>
<polygon fill="#707070" stroke="#707070" points="407.96,-265.54 416.37,-259.1 405.78,-258.89 407.96,-265.54"/>
</g>
<!-- VpcEndpoint::vpce::vpc&#45;primary::vpce&#45;ssm&#45;&gt;SecurityGroup::sg::vpc&#45;primary::ssm -->
<g id="edge18" class="edge">
<title>VpcEndpoint::vpce::vpc&#45;primary::vpce&#45;ssm&#45;&gt;SecurityGroup::sg::vpc&#45;primary::ssm</title>
<path fill="none" stroke="#707070" d="M295.19,-312.97C309.37,-307.42 322.79,-299.97 334,-290 368.05,-259.71 338.5,-226.93 370,-194 381.09,-182.4 394.88,-173.01 409.38,-165.44"/>
<polygon fill="#707070" stroke="#707070" points="411.06,-168.51 418.49,-160.96 407.97,-162.23 411.06,-168.51"/>
</g>
<!-- VpcEndpoint::vpce::vpc&#45;primary::vpce&#45;ssm&#45;message -->
<g id="node12" class="node">
<title>VpcEndpoint::vpce::vpc&#45;primary::vpce&#45;ssm&#45;message</title>
<polygon fill="#e5e5e5" stroke="#dddddd" points="323.5,-205 34.5,-205 34.5,-147 323.5,-147 323.5,-205"/>
<text text-anchor="start" x="47" y="-185.2" font-family="Helvetica,sans-Serif" font-weight="bold" font-size="16.00" fill="#707070">EC2::VpcEndpoint</text>
<text text-anchor="start" x="47" y="-160.2" font-family="Helvetica,sans-Serif" font-size="16.00" fill="#383838">vpce::vpc&#45;primary::vpce&#45;ssm&#45;mess...</text>
</g>
<!-- VpcEndpoint::vpce::vpc&#45;primary::vpce&#45;ssm&#45;message&#45;&gt;Vpc::vpc&#45;primary -->
<g id="edge19" class="edge">
<title>VpcEndpoint::vpce::vpc&#45;primary::vpce&#45;ssm&#45;message&#45;&gt;Vpc::vpc&#45;primary</title>
<path fill="none" stroke="#707070" d="M316.99,-146.96C322.87,-144.23 328.57,-141.26 334,-138 354.51,-125.7 348.15,-107.73 370,-98 481.24,-48.46 537.32,-39.27 644,-98 689.68,-123.15 717.41,-178.95 731.73,-217.04"/>
<polygon fill="#707070" stroke="#707070" points="728.56,-218.57 735.25,-226.79 735.14,-216.19 728.56,-218.57"/>
</g>
<!-- VpcEndpoint::vpce::vpc&#45;primary::vpce&#45;ssm&#45;message&#45;&gt;Subnet::vpc&#45;primary::subnet&#45;1 -->
<g id="edge20" class="edge">
<title>VpcEndpoint::vpce::vpc&#45;primary::vpce&#45;ssm&#45;message&#45;&gt;Subnet::vpc&#45;primary::subnet&#45;1</title>
<path fill="none" stroke="#707070" d="M323.94,-200.73C351.64,-205.48 380.1,-210.37 406.03,-214.83"/>
<polygon fill="#707070" stroke="#707070" points="405.77,-218.33 416.22,-216.58 406.96,-211.43 405.77,-218.33"/>
</g>
<!-- VpcEndpoint::vpce::vpc&#45;primary::vpce&#45;ssm&#45;message&#45;&gt;SecurityGroup::sg::vpc&#45;primary::ssm -->
<g id="edge21" class="edge">
<title>VpcEndpoint::vpce::vpc&#45;primary::vpce&#45;ssm&#45;message&#45;&gt;SecurityGroup::sg::vpc&#45;primary::ssm</title>
<path fill="none" stroke="#707070" d="M323.94,-158.34C352.37,-154.85 381.59,-151.26 408.07,-148.02"/>
<polygon fill="#707070" stroke="#707070" points="408.58,-151.48 418.08,-146.79 407.72,-144.53 408.58,-151.48"/>
</g>
<!-- VpcPeeringConnection::vpc&#45;peering::vpc&#45;primary::vpc&#45;secondary&#45;&gt;Vpc::vpc&#45;primary -->
<g id="edge22" class="edge">
<title>VpcPeeringConnection::vpc&#45;peering::vpc&#45;primary::vpc&#45;secondary&#45;&gt;Vpc::vpc&#45;primary</title>
<path fill="none" stroke="#707070" d="M632.71,-526.87C636.68,-524.17 640.47,-521.22 644,-518 661.19,-502.33 708.44,-364.05 731.29,-294.96"/>
<polygon fill="#707070" stroke="#707070" points="734.67,-295.88 734.48,-285.28 728.03,-293.69 734.67,-295.88"/>
</g>
<!-- Vpc::vpc&#45;secondary -->
<g id="node16" class="node">
<title>Vpc::vpc&#45;secondary</title>
<polygon fill="#e5e5e5" stroke="#dddddd" points="810,-998 680,-998 680,-940 810,-940 810,-998"/>
<text text-anchor="start" x="692" y="-978.2" font-family="Helvetica,sans-Serif" font-weight="bold" font-size="16.00" fill="#707070">EC2::Vpc</text>
<text text-anchor="start" x="692" y="-953.2" font-family="Helvetica,sans-Serif" font-size="16.00" fill="#383838">vpc&#45;secondary</text>
</g>
<!-- VpcPeeringConnection::vpc&#45;peering::vpc&#45;primary::vpc&#45;secondary&#45;&gt;Vpc::vpc&#45;secondary -->
<g id="edge23" class="edge">
<title>VpcPeeringConnection::vpc&#45;peering::vpc&#45;primary::vpc&#45;secondary&#45;&gt;Vpc::vpc&#45;secondary</title>
<path fill="none" stroke="#707070" d="M566.43,-585.17C593.43,-601.27 623.9,-623.6 644,-651 707.55,-737.64 731.52,-865.87 739.89,-929.8"/>
<polygon fill="#707070" stroke="#707070" points="736.44,-930.37 741.15,-939.86 743.38,-929.5 736.44,-930.37"/>
</g>
<!-- Role::role&#45;ssm -->
<g id="node14" class="node">
<title>Role::role&#45;ssm</title>
<polygon fill="#e5e5e5" stroke="#dddddd" points="794.5,-509 695.5,-509 695.5,-451 794.5,-451 794.5,-509"/>
<text text-anchor="start" x="708" y="-489.2" font-family="Helvetica,sans-Serif" font-weight="bold" font-size="16.00" fill="#707070">IAM::Role</text>
<text text-anchor="start" x="708" y="-464.2" font-family="Helvetica,sans-Serif" font-size="16.00" fill="#383838">role&#45;ssm</text>
</g>
<!-- InstanceProfile::role&#45;ssm&#45;&gt;Role::role&#45;ssm -->
<g id="edge24" class="edge">
<title>InstanceProfile::role&#45;ssm&#45;&gt;Role::role&#45;ssm</title>
<path fill="none" stroke="#707070" d="M596.55,-480C626.11,-480 658.3,-480 685.04,-480"/>
<polygon fill="#707070" stroke="#707070" points="685.39,-483.5 695.39,-480 685.39,-476.5 685.39,-483.5"/>
</g>
<!-- Subnet::vpc&#45;secondary::subnet&#45;1 -->
<g id="node17" class="node">
<title>Subnet::vpc&#45;secondary::subnet&#45;1</title>
<polygon fill="#e5e5e5" stroke="#dddddd" points="608,-1036 406,-1036 406,-978 608,-978 608,-1036"/>
<text text-anchor="start" x="418" y="-1016.2" font-family="Helvetica,sans-Serif" font-weight="bold" font-size="16.00" fill="#707070">EC2::Subnet</text>
<text text-anchor="start" x="418" y="-991.2" font-family="Helvetica,sans-Serif" font-size="16.00" fill="#383838">vpc&#45;secondary::subnet&#45;1</text>
</g>
<!-- Subnet::vpc&#45;secondary::subnet&#45;1&#45;&gt;Vpc::vpc&#45;secondary -->
<g id="edge25" class="edge">
<title>Subnet::vpc&#45;secondary::subnet&#45;1&#45;&gt;Vpc::vpc&#45;secondary</title>
<path fill="none" stroke="#707070" d="M608.09,-990.88C628.73,-987.56 650.13,-984.11 669.67,-980.97"/>
<polygon fill="#707070" stroke="#707070" points="670.38,-984.4 679.7,-979.35 669.27,-977.49 670.38,-984.4"/>
</g>
<!-- RouteTable::vpc&#45;secondary::rt&#45;default -->
<g id="node18" class="node">
<title>RouteTable::vpc&#45;secondary::rt&#45;default</title>
<polygon fill="#e5e5e5" stroke="#dddddd" points="608.5,-822 405.5,-822 405.5,-764 608.5,-764 608.5,-822"/>
<text text-anchor="start" x="418" y="-802.2" font-family="Helvetica,sans-Serif" font-weight="bold" font-size="16.00" fill="#707070">EC2::RouteTable</text>
<text text-anchor="start" x="418" y="-777.2" font-family="Helvetica,sans-Serif" font-size="16.00" fill="#383838">vpc&#45;secondary::rt&#45;default</text>
</g>
<!-- RouteTable::vpc&#45;secondary::rt&#45;default&#45;&gt;Vpc::vpc&#45;secondary -->
<g id="edge26" class="edge">
<title>RouteTable::vpc&#45;secondary::rt&#45;default&#45;&gt;Vpc::vpc&#45;secondary</title>
<path fill="none" stroke="#707070" d="M574.25,-822.11C597.32,-833.64 622.72,-847.98 644,-864 670.15,-883.69 695.53,-910.47 714.18,-932.05"/>
<polygon fill="#707070" stroke="#707070" points="711.59,-934.41 720.74,-939.75 716.92,-929.87 711.59,-934.41"/>
</g>
<!-- Route::vpc&#45;secondary::rt&#45;default::pcx::10.0.0.0/16 -->
<g id="node19" class="node">
<title>Route::vpc&#45;secondary::rt&#45;default::pcx::10.0.0.0/16</title>
<polygon fill="#e5e5e5" stroke="#dddddd" points="309,-806 49,-806 49,-748 309,-748 309,-806"/>
<text text-anchor="start" x="61" y="-786.2" font-family="Helvetica,sans-Serif" font-weight="bold" font-size="16.00" fill="#707070">EC2::Route</text>
<text text-anchor="start" x="61" y="-761.2" font-family="Helvetica,sans-Serif" font-size="16.00" fill="#383838">vpc&#45;secondary::rt&#45;default::pcx::...</text>
</g>
<!-- Route::vpc&#45;secondary::rt&#45;default::pcx::10.0.0.0/16&#45;&gt;VpcPeeringConnection::vpc&#45;peering::vpc&#45;primary::vpc&#45;secondary -->
<g id="edge28" class="edge">
<title>Route::vpc&#45;secondary::rt&#45;default::pcx::10.0.0.0/16&#45;&gt;VpcPeeringConnection::vpc&#45;peering::vpc&#45;primary::vpc&#45;secondary</title>
<path fill="none" stroke="#707070" d="M309.09,-755.4C318.06,-750.89 326.5,-745.48 334,-739 365.99,-711.38 343.6,-684 370,-651 389.31,-626.86 416.34,-606.26 441.22,-590.48"/>
<polygon fill="#707070" stroke="#707070" points="443.25,-593.33 449.91,-585.1 439.57,-587.38 443.25,-593.33"/>
</g>
<!-- Route::vpc&#45;secondary::rt&#45;default::pcx::10.0.0.0/16&#45;&gt;RouteTable::vpc&#45;secondary::rt&#45;default -->
<g id="edge27" class="edge">
<title>Route::vpc&#45;secondary::rt&#45;default::pcx::10.0.0.0/16&#45;&gt;RouteTable::vpc&#45;secondary::rt&#45;default</title>
<path fill="none" stroke="#707070" d="M309.31,-783.35C337.73,-784.74 367.58,-786.21 395.19,-787.56"/>
<polygon fill="#707070" stroke="#707070" points="395.1,-791.06 405.26,-788.06 395.44,-784.07 395.1,-791.06"/>
</g>
<!-- SecurityGroup::sg::vpc&#45;secondary::icmp -->
<g id="node20" class="node">
<title>SecurityGroup::sg::vpc&#45;secondary::icmp</title>
<polygon fill="#e5e5e5" stroke="#dddddd" points="607,-1132 407,-1132 407,-1074 607,-1074 607,-1132"/>
<text text-anchor="start" x="419" y="-1112.2" font-family="Helvetica,sans-Serif" font-weight="bold" font-size="16.00" fill="#707070">EC2::SecurityGroup</text>
<text text-anchor="start" x="419" y="-1087.2" font-family="Helvetica,sans-Serif" font-size="16.00" fill="#383838">sg::vpc&#45;secondary::icmp</text>
</g>
<!-- SecurityGroup::sg::vpc&#45;secondary::icmp&#45;&gt;Vpc::vpc&#45;secondary -->
<g id="edge29" class="edge">
<title>SecurityGroup::sg::vpc&#45;secondary::icmp&#45;&gt;Vpc::vpc&#45;secondary</title>
<path fill="none" stroke="#707070" d="M607.11,-1077.25C619.9,-1072.33 632.52,-1066.61 644,-1060 669.14,-1045.53 693.32,-1023.82 711.6,-1005.23"/>
<polygon fill="#707070" stroke="#707070" points="714.13,-1007.65 718.55,-998.02 709.09,-1002.79 714.13,-1007.65"/>
</g>
<!-- SecurityGroup::sg::vpc&#45;secondary::ssm -->
<g id="node21" class="node">
<title>SecurityGroup::sg::vpc&#45;secondary::ssm</title>
<polygon fill="#e5e5e5" stroke="#dddddd" points="605,-960 409,-960 409,-902 605,-902 605,-960"/>
<text text-anchor="start" x="421" y="-940.2" font-family="Helvetica,sans-Serif" font-weight="bold" font-size="16.00" fill="#707070">EC2::SecurityGroup</text>
<text text-anchor="start" x="421" y="-915.2" font-family="Helvetica,sans-Serif" font-size="16.00" fill="#383838">sg::vpc&#45;secondary::ssm</text>
</g>
<!-- SecurityGroup::sg::vpc&#45;secondary::ssm&#45;&gt;Vpc::vpc&#45;secondary -->
<g id="edge30" class="edge">
<title>SecurityGroup::sg::vpc&#45;secondary::ssm&#45;&gt;Vpc::vpc&#45;secondary</title>
<path fill="none" stroke="#707070" d="M605.01,-946.62C626.64,-950.1 649.25,-953.74 669.79,-957.05"/>
<polygon fill="#707070" stroke="#707070" points="669.27,-960.51 679.7,-958.65 670.38,-953.6 669.27,-960.51"/>
</g>
<!-- SecurityGroupRuleIngress::sg::vpc&#45;secondary::icmp&#45;rule&#45;ingress&#45;icmp -->
<g id="node22" class="node">
<title>SecurityGroupRuleIngress::sg::vpc&#45;secondary::icmp&#45;rule&#45;ingress&#45;icmp</title>
<polygon fill="#e5e5e5" stroke="#dddddd" points="315.5,-1262 42.5,-1262 42.5,-1204 315.5,-1204 315.5,-1262"/>
<text text-anchor="start" x="55" y="-1242.2" font-family="Helvetica,sans-Serif" font-weight="bold" font-size="16.00" fill="#707070">EC2::SecurityGroupRuleIngress</text>
<text text-anchor="start" x="55" y="-1217.2" font-family="Helvetica,sans-Serif" font-size="16.00" fill="#383838">sg::vpc&#45;secondary::icmp&#45;rule&#45;ing...</text>
</g>
<!-- SecurityGroupRuleIngress::sg::vpc&#45;secondary::icmp&#45;rule&#45;ingress&#45;icmp&#45;&gt;SecurityGroup::sg::vpc&#45;secondary::icmp -->
<g id="edge31" class="edge">
<title>SecurityGroupRuleIngress::sg::vpc&#45;secondary::icmp&#45;rule&#45;ingress&#45;icmp&#45;&gt;SecurityGroup::sg::vpc&#45;secondary::icmp</title>
<path fill="none" stroke="#707070" d="M308.49,-1203.89C317.2,-1201.12 325.77,-1198.16 334,-1195 374.46,-1179.47 417.45,-1156.48 450.33,-1137.36"/>
<polygon fill="#707070" stroke="#707070" points="452.47,-1140.16 459.32,-1132.08 448.93,-1134.13 452.47,-1140.16"/>
</g>
<!-- SecurityGroupRuleIngress::sg::vpc&#45;secondary::ssm&#45;rule&#45;ingress&#45;tcp&#45;443 -->
<g id="node23" class="node">
<title>SecurityGroupRuleIngress::sg::vpc&#45;secondary::ssm&#45;rule&#45;ingress&#45;tcp&#45;443</title>
<polygon fill="#e5e5e5" stroke="#dddddd" points="315.5,-958 42.5,-958 42.5,-900 315.5,-900 315.5,-958"/>
<text text-anchor="start" x="55" y="-938.2" font-family="Helvetica,sans-Serif" font-weight="bold" font-size="16.00" fill="#707070">EC2::SecurityGroupRuleIngress</text>
<text text-anchor="start" x="55" y="-913.2" font-family="Helvetica,sans-Serif" font-size="16.00" fill="#383838">sg::vpc&#45;secondary::ssm&#45;rule&#45;ingr...</text>
</g>
<!-- SecurityGroupRuleIngress::sg::vpc&#45;secondary::ssm&#45;rule&#45;ingress&#45;tcp&#45;443&#45;&gt;SecurityGroup::sg::vpc&#45;secondary::ssm -->
<g id="edge32" class="edge">
<title>SecurityGroupRuleIngress::sg::vpc&#45;secondary::ssm&#45;rule&#45;ingress&#45;tcp&#45;443&#45;&gt;SecurityGroup::sg::vpc&#45;secondary::ssm</title>
<path fill="none" stroke="#707070" d="M315.89,-929.83C343.47,-930 372.11,-930.18 398.54,-930.34"/>
<polygon fill="#707070" stroke="#707070" points="398.53,-933.84 408.55,-930.4 398.57,-926.84 398.53,-933.84"/>
</g>
<!-- Instance::machine&#45;2 -->
<g id="node24" class="node">
<title>Instance::machine&#45;2</title>
<polygon fill="#e5e5e5" stroke="#dddddd" points="244.5,-1034 113.5,-1034 113.5,-976 244.5,-976 244.5,-1034"/>
<text text-anchor="start" x="126" y="-1014.2" font-family="Helvetica,sans-Serif" font-weight="bold" font-size="16.00" fill="#707070">EC2::Instance</text>
<text text-anchor="start" x="126" y="-989.2" font-family="Helvetica,sans-Serif" font-size="16.00" fill="#383838">machine&#45;2</text>
</g>
<!-- Instance::machine&#45;2&#45;&gt;InstanceProfile::role&#45;ssm -->
<g id="edge34" class="edge">
<title>Instance::machine&#45;2&#45;&gt;InstanceProfile::role&#45;ssm</title>
<path fill="none" stroke="#707070" d="M244.53,-1005.71C276.25,-1002.43 312.24,-992.6 334,-967 398.82,-890.73 306.35,-595.25 370,-518 379.91,-505.97 393.29,-497.57 407.79,-491.75"/>
<polygon fill="#707070" stroke="#707070" points="409.24,-494.95 417.47,-488.27 406.87,-488.36 409.24,-494.95"/>
</g>
<!-- Instance::machine&#45;2&#45;&gt;Subnet::vpc&#45;secondary::subnet&#45;1 -->
<g id="edge33" class="edge">
<title>Instance::machine&#45;2&#45;&gt;Subnet::vpc&#45;secondary::subnet&#45;1</title>
<path fill="none" stroke="#707070" d="M244.8,-1005.4C287.79,-1005.66 345.32,-1006.01 395.44,-1006.32"/>
<polygon fill="#707070" stroke="#707070" points="395.67,-1009.82 405.69,-1006.38 395.71,-1002.82 395.67,-1009.82"/>
</g>
<!-- Instance::machine&#45;2&#45;&gt;SecurityGroup::sg::vpc&#45;secondary::icmp -->
<g id="edge35" class="edge">
<title>Instance::machine&#45;2&#45;&gt;SecurityGroup::sg::vpc&#45;secondary::icmp</title>
<path fill="none" stroke="#707070" d="M244.8,-1019.56C272.45,-1026.14 304.96,-1034.37 334,-1043 361.54,-1051.18 391.19,-1061.11 417.99,-1070.52"/>
<polygon fill="#707070" stroke="#707070" points="417.13,-1073.93 427.73,-1073.96 419.46,-1067.33 417.13,-1073.93"/>
</g>
<!-- Instance::machine&#45;2&#45;&gt;SecurityGroup::sg::vpc&#45;secondary::ssm -->
<g id="edge36" class="edge">
<title>Instance::machine&#45;2&#45;&gt;SecurityGroup::sg::vpc&#45;secondary::ssm</title>
<path fill="none" stroke="#707070" d="M244.8,-990.29C288.75,-980.31 347.9,-966.89 398.79,-955.34"/>
<polygon fill="#707070" stroke="#707070" points="399.88,-958.68 408.85,-953.05 398.33,-951.85 399.88,-958.68"/>
</g>
<!-- VpcEndpoint::vpce::vpc&#45;secondary::vpce&#45;ec2&#45;messages -->
<g id="node25" class="node">
<title>VpcEndpoint::vpce::vpc&#45;secondary::vpce&#45;ec2&#45;messages</title>
<polygon fill="#e5e5e5" stroke="#dddddd" points="324,-1110 34,-1110 34,-1052 324,-1052 324,-1110"/>
<text text-anchor="start" x="46" y="-1090.2" font-family="Helvetica,sans-Serif" font-weight="bold" font-size="16.00" fill="#707070">EC2::VpcEndpoint</text>
<text text-anchor="start" x="46" y="-1065.2" font-family="Helvetica,sans-Serif" font-size="16.00" fill="#383838">vpce::vpc&#45;secondary::vpce&#45;ec2&#45;me...</text>
</g>
<!-- VpcEndpoint::vpce::vpc&#45;secondary::vpce&#45;ec2&#45;messages&#45;&gt;Vpc::vpc&#45;secondary -->
<g id="edge37" class="edge">
<title>VpcEndpoint::vpce::vpc&#45;secondary::vpce&#45;ec2&#45;messages&#45;&gt;Vpc::vpc&#45;secondary</title>
<path fill="none" stroke="#707070" d="M324.19,-1068.69C339.65,-1067.42 355.15,-1066.17 370,-1065 430.86,-1060.22 586.89,-1066.58 644,-1045 667.35,-1036.17 689.81,-1020.05 707.51,-1004.91"/>
<polygon fill="#707070" stroke="#707070" points="710.1,-1007.29 715.29,-998.06 705.48,-1002.04 710.1,-1007.29"/>
</g>
<!-- VpcEndpoint::vpce::vpc&#45;secondary::vpce&#45;ec2&#45;messages&#45;&gt;Subnet::vpc&#45;secondary::subnet&#45;1 -->
<g id="edge38" class="edge">
<title>VpcEndpoint::vpce::vpc&#45;secondary::vpce&#45;ec2&#45;messages&#45;&gt;Subnet::vpc&#45;secondary::subnet&#45;1</title>
<path fill="none" stroke="#707070" d="M307.91,-1051.97C337.03,-1045.36 367.72,-1038.39 396.02,-1031.97"/>
<polygon fill="#707070" stroke="#707070" points="396.94,-1035.34 405.92,-1029.72 395.39,-1028.52 396.94,-1035.34"/>
</g>
<!-- VpcEndpoint::vpce::vpc&#45;secondary::vpce&#45;ec2&#45;messages&#45;&gt;SecurityGroup::sg::vpc&#45;secondary::ssm -->
<g id="edge39" class="edge">
<title>VpcEndpoint::vpce::vpc&#45;secondary::vpce&#45;ec2&#45;messages&#45;&gt;SecurityGroup::sg::vpc&#45;secondary::ssm</title>
<path fill="none" stroke="#707070" d="M321.47,-1051.84C325.85,-1049.14 330.04,-1046.2 334,-1043 362.44,-1020 341.91,-992.43 370,-969 378.74,-961.71 388.77,-955.82 399.35,-951.05"/>
<polygon fill="#707070" stroke="#707070" points="400.88,-954.21 408.77,-947.15 398.2,-947.74 400.88,-954.21"/>
</g>
<!-- VpcEndpoint::vpce::vpc&#45;secondary::vpce&#45;ssm -->
<g id="node26" class="node">
<title>VpcEndpoint::vpce::vpc&#45;secondary::vpce&#45;ssm</title>
<polygon fill="#e5e5e5" stroke="#dddddd" points="305.5,-1186 52.5,-1186 52.5,-1128 305.5,-1128 305.5,-1186"/>
<text text-anchor="start" x="65" y="-1166.2" font-family="Helvetica,sans-Serif" font-weight="bold" font-size="16.00" fill="#707070">EC2::VpcEndpoint</text>
<text text-anchor="start" x="65" y="-1141.2" font-family="Helvetica,sans-Serif" font-size="16.00" fill="#383838">vpce::vpc&#45;secondary::vpce&#45;ssm</text>
</g>
<!-- VpcEndpoint::vpce::vpc&#45;secondary::vpce&#45;ssm&#45;&gt;Vpc::vpc&#45;secondary -->
<g id="edge40" class="edge">
<title>VpcEndpoint::vpce::vpc&#45;secondary::vpce&#45;ssm&#45;&gt;Vpc::vpc&#45;secondary</title>
<path fill="none" stroke="#707070" d="M305.68,-1183.9C404.66,-1198.1 542.42,-1201.8 644,-1141 692.87,-1111.75 720.28,-1048.81 733.59,-1007.73"/>
<polygon fill="#707070" stroke="#707070" points="736.98,-1008.63 736.6,-998.04 730.29,-1006.55 736.98,-1008.63"/>
</g>
<!-- VpcEndpoint::vpce::vpc&#45;secondary::vpce&#45;ssm&#45;&gt;Subnet::vpc&#45;secondary::subnet&#45;1 -->
<g id="edge41" class="edge">
<title>VpcEndpoint::vpce::vpc&#45;secondary::vpce&#45;ssm&#45;&gt;Subnet::vpc&#45;secondary::subnet&#45;1</title>
<path fill="none" stroke="#707070" d="M305.81,-1134.52C315.78,-1130.21 325.32,-1125.09 334,-1119 357.6,-1102.42 347.81,-1083.43 370,-1065 381.31,-1055.61 394.37,-1047.51 407.83,-1040.61"/>
<polygon fill="#707070" stroke="#707070" points="409.75,-1043.56 417.19,-1036.02 406.67,-1037.28 409.75,-1043.56"/>
</g>
<!-- VpcEndpoint::vpce::vpc&#45;secondary::vpce&#45;ssm&#45;&gt;SecurityGroup::sg::vpc&#45;secondary::ssm -->
<g id="edge42" class="edge">
<title>VpcEndpoint::vpce::vpc&#45;secondary::vpce&#45;ssm&#45;&gt;SecurityGroup::sg::vpc&#45;secondary::ssm</title>
<path fill="none" stroke="#707070" d="M305.83,-1138.93C316.23,-1133.74 325.85,-1127.2 334,-1119 382.32,-1070.37 322.42,-1018.37 370,-969 378.37,-960.31 388.55,-953.56 399.54,-948.32"/>
<polygon fill="#707070" stroke="#707070" points="401.14,-951.44 408.93,-944.27 398.36,-945.02 401.14,-951.44"/>
</g>
<!-- VpcEndpoint::vpce::vpc&#45;secondary::vpce&#45;ssm&#45;message -->
<g id="node27" class="node">
<title>VpcEndpoint::vpce::vpc&#45;secondary::vpce&#45;ssm&#45;message</title>
<polygon fill="#e5e5e5" stroke="#dddddd" points="326,-882 32,-882 32,-824 326,-824 326,-882"/>
<text text-anchor="start" x="44" y="-862.2" font-family="Helvetica,sans-Serif" font-weight="bold" font-size="16.00" fill="#707070">EC2::VpcEndpoint</text>
<text text-anchor="start" x="44" y="-837.2" font-family="Helvetica,sans-Serif" font-size="16.00" fill="#383838">vpce::vpc&#45;secondary::vpce&#45;ssm&#45;me...</text>
</g>
<!-- VpcEndpoint::vpce::vpc&#45;secondary::vpce&#45;ssm&#45;message&#45;&gt;Vpc::vpc&#45;secondary -->
<g id="edge43" class="edge">
<title>VpcEndpoint::vpce::vpc&#45;secondary::vpce&#45;ssm&#45;message&#45;&gt;Vpc::vpc&#45;secondary</title>
<path fill="none" stroke="#707070" d="M326.03,-845.04C419.83,-844.85 542.62,-853.92 644,-893 667.11,-901.91 689.41,-917.88 707.05,-932.89"/>
<polygon fill="#707070" stroke="#707070" points="704.99,-935.73 714.82,-939.68 709.6,-930.46 704.99,-935.73"/>
</g>
<!-- VpcEndpoint::vpce::vpc&#45;secondary::vpce&#45;ssm&#45;message&#45;&gt;Subnet::vpc&#45;secondary::subnet&#45;1 -->
<g id="edge44" class="edge">
<title>VpcEndpoint::vpce::vpc&#45;secondary::vpce&#45;ssm&#45;message&#45;&gt;Subnet::vpc&#45;secondary::subnet&#45;1</title>
<path fill="none" stroke="#707070" d="M321.56,-882.06C325.91,-884.78 330.07,-887.76 334,-891 363.44,-915.31 340.93,-944.25 370,-969 377.92,-975.75 386.95,-981.3 396.51,-985.87"/>
<polygon fill="#707070" stroke="#707070" points="395.25,-989.14 405.81,-989.96 398.07,-982.73 395.25,-989.14"/>
</g>
<!-- VpcEndpoint::vpce::vpc&#45;secondary::vpce&#45;ssm&#45;message&#45;&gt;SecurityGroup::sg::vpc&#45;secondary::ssm -->
<g id="edge45" class="edge">
<title>VpcEndpoint::vpce::vpc&#45;secondary::vpce&#45;ssm&#45;message&#45;&gt;SecurityGroup::sg::vpc&#45;secondary::ssm</title>
<path fill="none" stroke="#707070" d="M301.39,-882.04C333.41,-889.7 367.72,-897.91 398.92,-905.38"/>
<polygon fill="#707070" stroke="#707070" points="398.39,-908.85 408.93,-907.78 400.02,-902.04 398.39,-908.85"/>
</g>
<!-- VpcPeeringConnectionAccepter::vpc&#45;peering&#45;accepter::vpc&#45;peering::vpc&#45;primary::vpc&#45;secondary -->
<g id="node28" class="node">
<title>VpcPeeringConnectionAccepter::vpc&#45;peering&#45;accepter::vpc&#45;peering::vpc&#45;primary::vpc&#45;secondary</title>
<polygon fill="#e5e5e5" stroke="#dddddd" points="334,-730 24,-730 24,-672 334,-672 334,-730"/>
<text text-anchor="start" x="36" y="-710.2" font-family="Helvetica,sans-Serif" font-weight="bold" font-size="16.00" fill="#707070">EC2::VpcPeeringConnectionAccepter</text>
<text text-anchor="start" x="36" y="-685.2" font-family="Helvetica,sans-Serif" font-size="16.00" fill="#383838">vpc&#45;peering&#45;accepter::vpc&#45;peerin...</text>
</g>
<!-- VpcPeeringConnectionAccepter::vpc&#45;peering&#45;accepter::vpc&#45;peering::vpc&#45;primary::vpc&#45;secondary&#45;&gt;VpcPeeringConnection::vpc&#45;peering::vpc&#45;primary::vpc&#45;secondary -->
<g id="edge46" class="edge">
<title>VpcPeeringConnectionAccepter::vpc&#45;peering&#45;accepter::vpc&#45;peering::vpc&#45;primary::vpc&#45;secondary&#45;&gt;VpcPeeringConnection::vpc&#45;peering::vpc&#45;primary::vpc&#45;secondary</title>
<path fill="none" stroke="#707070" d="M245.58,-671.83C299.3,-647.94 375.31,-614.13 431.36,-589.2"/>
<polygon fill="#707070" stroke="#707070" points="432.81,-592.38 440.53,-585.12 429.97,-585.99 432.81,-592.38"/>
</g>
</g>
</svg>
