<?xml version="1.0" encoding="UTF-8" standalone="no"?><svg xmlns="http://www.w3.org/2000/svg" xmlns:xlink="http://www.w3.org/1999/xlink" contentScriptType="application/ecmascript" contentStyleType="text/css" height="511px" preserveAspectRatio="none" style="width:528px;height:511px;background:#FFFFFF;" version="1.1" viewBox="0 0 528 511" width="528px" zoomAndPan="magnify"><defs><filter height="300%" id="ff0mrxibqb5cj" width="300%" x="-1" y="-1"><feGaussianBlur result="blurOut" stdDeviation="2.0"/><feColorMatrix in="blurOut" result="blurOut2" type="matrix" values="0 0 0 0 0 0 0 0 0 0 0 0 0 0 0 0 0 0 .4 0"/><feOffset dx="4.0" dy="4.0" in="blurOut2" result="blurOut3"/><feBlend in="SourceGraphic" in2="blurOut3" mode="normal"/></filter></defs><g><rect fill="none" height="26.4883" style="stroke:none;stroke-width:1.0;" width="232" x="118" y="15"/><text fill="#000000" font-family="sans-serif" font-size="14" font-weight="bold" lengthAdjust="spacing" textLength="222" x="123" y="33.5352">Resources for project sfn-glue</text><rect fill="#F8F8F8" filter="url(#ff0mrxibqb5cj)" height="36.4883" rx="12.5" ry="12.5" style="stroke:#383838;stroke-width:1.5;" width="52" x="10" y="255.1973"/><text fill="#000000" font-family="sans-serif" font-size="14" lengthAdjust="spacing" textLength="32" x="20" y="278.7324">Infra</text><rect fill="#F8F8F8" filter="url(#ff0mrxibqb5cj)" height="36.4883" rx="12.5" ry="12.5" style="stroke:#383838;stroke-width:1.5;" width="46" x="112" y="255.1973"/><text fill="#000000" font-family="sans-serif" font-size="14" lengthAdjust="spacing" textLength="26" x="122" y="278.7324">aws</text><rect fill="#F8F8F8" filter="url(#ff0mrxibqb5cj)" height="36.4883" rx="12.5" ry="12.5" style="stroke:#383838;stroke-width:1.5;" width="146" x="208" y="85.7324"/><text fill="#000000" font-family="sans-serif" font-size="14" lengthAdjust="spacing" textLength="126" x="218" y="109.2676">CloudWatchEvents</text><rect fill="#F8F8F8" filter="url(#ff0mrxibqb5cj)" height="36.4883" rx="12.5" ry="12.5" style="stroke:#383838;stroke-width:1.5;" width="73" x="404" y="57.4883"/><text fill="#000000" font-family="sans-serif" font-size="14" lengthAdjust="spacing" textLength="53" x="414" y="81.0234">Rule (1)</text><path d="M354,103.9766 L364,103.9766 C379,103.9766 379,75.7324 394,75.7324 L404,75.7324 " fill="none" style="stroke:#383838;stroke-width:1.0;"/><rect fill="#F8F8F8" filter="url(#ff0mrxibqb5cj)" height="36.4883" rx="12.5" ry="12.5" style="stroke:#383838;stroke-width:1.5;" width="88" x="404" y="113.9766"/><text fill="#000000" font-family="sans-serif" font-size="14" lengthAdjust="spacing" textLength="68" x="414" y="137.5117">Target (1)</text><path d="M354,103.9766 L364,103.9766 C379,103.9766 379,132.2207 394,132.2207 L404,132.2207 " fill="none" style="stroke:#383838;stroke-width:1.0;"/><path d="M158,273.4414 L168,273.4414 C183,273.4414 183,103.9766 198,103.9766 L208,103.9766 " fill="none" style="stroke:#383838;stroke-width:1.0;"/><rect fill="#F8F8F8" filter="url(#ff0mrxibqb5cj)" height="36.4883" rx="12.5" ry="12.5" style="stroke:#383838;stroke-width:1.5;" width="134" x="208" y="170.4648"/><text fill="#000000" font-family="sans-serif" font-size="14" lengthAdjust="spacing" textLength="114" x="218" y="194">CloudWatchLogs</text><rect fill="#F8F8F8" filter="url(#ff0mrxibqb5cj)" height="36.4883" rx="12.5" ry="12.5" style="stroke:#383838;stroke-width:1.5;" width="111" x="392" y="170.4648"/><text fill="#000000" font-family="sans-serif" font-size="14" lengthAdjust="spacing" textLength="91" x="402" y="194">LogGroup (3)</text><path d="M342,188.709 L352,188.709 C367,188.709 367,188.709 382,188.709 L392,188.709 " fill="none" style="stroke:#383838;stroke-width:1.0;"/><path d="M158,273.4414 L168,273.4414 C183,273.4414 183,188.709 198,188.709 L208,188.709 " fill="none" style="stroke:#383838;stroke-width:1.0;"/><rect fill="#F8F8F8" filter="url(#ff0mrxibqb5cj)" height="36.4883" rx="12.5" ry="12.5" style="stroke:#383838;stroke-width:1.5;" width="51" x="208" y="226.9531"/><text fill="#000000" font-family="sans-serif" font-size="14" lengthAdjust="spacing" textLength="31" x="218" y="250.4883">Glue</text><rect fill="#F8F8F8" filter="url(#ff0mrxibqb5cj)" height="36.4883" rx="12.5" ry="12.5" style="stroke:#383838;stroke-width:1.5;" width="65" x="309" y="226.9531"/><text fill="#000000" font-family="sans-serif" font-size="14" lengthAdjust="spacing" textLength="45" x="319" y="250.4883">Job (1)</text><path d="M259,245.1973 L269,245.1973 C284,245.1973 284,245.1973 299,245.1973 L309,245.1973 " fill="none" style="stroke:#383838;stroke-width:1.0;"/><path d="M158,273.4414 L168,273.4414 C183,273.4414 183,245.1973 198,245.1973 L208,245.1973 " fill="none" style="stroke:#383838;stroke-width:1.0;"/><rect fill="#F8F8F8" filter="url(#ff0mrxibqb5cj)" height="36.4883" rx="12.5" ry="12.5" style="stroke:#383838;stroke-width:1.5;" width="46" x="208" y="311.6855"/><text fill="#000000" font-family="sans-serif" font-size="14" lengthAdjust="spacing" textLength="26" x="218" y="335.2207">IAM</text><rect fill="#F8F8F8" filter="url(#ff0mrxibqb5cj)" height="36.4883" rx="12.5" ry="12.5" style="stroke:#383838;stroke-width:1.5;" width="73" x="304" y="283.4414"/><text fill="#000000" font-family="sans-serif" font-size="14" lengthAdjust="spacing" textLength="53" x="314" y="306.9766">Role (3)</text><path d="M254,329.9297 L264,329.9297 C279,329.9297 279,301.6855 294,301.6855 L304,301.6855 " fill="none" style="stroke:#383838;stroke-width:1.0;"/><rect fill="#F8F8F8" filter="url(#ff0mrxibqb5cj)" height="36.4883" rx="12.5" ry="12.5" style="stroke:#383838;stroke-width:1.5;" width="82" x="304" y="339.9297"/><text fill="#000000" font-family="sans-serif" font-size="14" lengthAdjust="spacing" textLength="62" x="314" y="363.4648">Policy (1)</text><path d="M254,329.9297 L264,329.9297 C279,329.9297 279,358.1738 294,358.1738 L304,358.1738 " fill="none" style="stroke:#383838;stroke-width:1.0;"/><path d="M158,273.4414 L168,273.4414 C183,273.4414 183,329.9297 198,329.9297 L208,329.9297 " fill="none" style="stroke:#383838;stroke-width:1.0;"/><rect fill="#F8F8F8" filter="url(#ff0mrxibqb5cj)" height="36.4883" rx="12.5" ry="12.5" style="stroke:#383838;stroke-width:1.5;" width="37" x="208" y="396.418"/><text fill="#000000" font-family="sans-serif" font-size="14" lengthAdjust="spacing" textLength="17" x="218" y="419.9531">S3</text><rect fill="#F8F8F8" filter="url(#ff0mrxibqb5cj)" height="36.4883" rx="12.5" ry="12.5" style="stroke:#383838;stroke-width:1.5;" width="88" x="295" y="396.418"/><text fill="#000000" font-family="sans-serif" font-size="14" lengthAdjust="spacing" textLength="68" x="305" y="419.9531">Bucket (1)</text><path d="M245,414.6621 L255,414.6621 C270,414.6621 270,414.6621 285,414.6621 L295,414.6621 " fill="none" style="stroke:#383838;stroke-width:1.0;"/><path d="M158,273.4414 L168,273.4414 C183,273.4414 183,414.6621 198,414.6621 L208,414.6621 " fill="none" style="stroke:#383838;stroke-width:1.0;"/><rect fill="#F8F8F8" filter="url(#ff0mrxibqb5cj)" height="36.4883" rx="12.5" ry="12.5" style="stroke:#383838;stroke-width:1.5;" width="117" x="208" y="452.9063"/><text fill="#000000" font-family="sans-serif" font-size="14" lengthAdjust="spacing" textLength="97" x="218" y="476.4414">StepFunctions</text><rect fill="#F8F8F8" filter="url(#ff0mrxibqb5cj)" height="36.4883" rx="12.5" ry="12.5" style="stroke:#383838;stroke-width:1.5;" width="134" x="375" y="452.9063"/><text fill="#000000" font-family="sans-serif" font-size="14" lengthAdjust="spacing" textLength="114" x="385" y="476.4414">StateMachine (1)</text><path d="M325,471.1504 L335,471.1504 C350,471.1504 350,471.1504 365,471.1504 L375,471.1504 " fill="none" style="stroke:#383838;stroke-width:1.0;"/><path d="M158,273.4414 L168,273.4414 C183,273.4414 183,471.1504 198,471.1504 L208,471.1504 " fill="none" style="stroke:#383838;stroke-width:1.0;"/><path d="M62,273.4414 L72,273.4414 C87,273.4414 87,273.4414 102,273.4414 L112,273.4414 " fill="none" style="stroke:#383838;stroke-width:1.0;"/><!--MD5=[97611a7e7738e260375c53b7d11a5735]
@startmindmap
title Resources for project sfn-glue
skinparam monochrome true
+ Infra
++ aws
+++ CloudWatchEvents
++++ Rule (1)
++++ Target (1)
+++ CloudWatchLogs
++++ LogGroup (3)
+++ Glue
++++ Job (1)
+++ IAM
++++ Role (3)
++++ Policy (1)
+++ S3
++++ Bucket (1)
+++ StepFunctions
++++ StateMachine (1)
@endmindmap

PlantUML version 1.2021.8(Sat Jun 26 10:20:59 CEST 2021)
(GPL source distribution)
Java Runtime: OpenJDK Runtime Environment
JVM: OpenJDK 64-Bit Server VM
Default Encoding: UTF-8
Language: en
Country: GB
--></g></svg>