<?xml version="1.0" encoding="UTF-8" standalone="no"?><svg xmlns="http://www.w3.org/2000/svg" xmlns:xlink="http://www.w3.org/1999/xlink" contentStyleType="text/css" height="115px" preserveAspectRatio="none" style="width:543px;height:115px;background:#FFFFFF;" version="1.1" viewBox="0 0 543 115" width="543px" zoomAndPan="magnify"><defs/><g><rect height="26.4883" style="stroke:#00000000;stroke-width:1.0;fill:none;" width="375" x="57.5" y="15"/><text fill="#000000" font-family="sans-serif" font-size="14" font-weight="bold" lengthAdjust="spacing" textLength="365" x="62.5" y="33.5352">Resources for project application-insights-simple</text><rect fill="#F1F1F1" height="36.4883" rx="12.5" ry="12.5" style="stroke:#181818;stroke-width:1.5;" width="52" x="10" y="57.4883"/><text fill="#000000" font-family="sans-serif" font-size="14" lengthAdjust="spacing" textLength="32" x="20" y="81.0234">Infra</text><rect fill="#F1F1F1" height="36.4883" rx="12.5" ry="12.5" style="stroke:#181818;stroke-width:1.5;" width="46" x="112" y="57.4883"/><text fill="#000000" font-family="sans-serif" font-size="14" lengthAdjust="spacing" textLength="26" x="122" y="81.0234">aws</text><rect fill="#F1F1F1" height="36.4883" rx="12.5" ry="12.5" style="stroke:#181818;stroke-width:1.5;" width="152" x="208" y="57.4883"/><text fill="#000000" font-family="sans-serif" font-size="14" lengthAdjust="spacing" textLength="132" x="218" y="81.0234">ApplicationInsights</text><rect fill="#F1F1F1" height="36.4883" rx="12.5" ry="12.5" style="stroke:#181818;stroke-width:1.5;" width="121" x="410" y="57.4883"/><text fill="#000000" font-family="sans-serif" font-size="14" lengthAdjust="spacing" textLength="101" x="420" y="81.0234">Application (1)</text><path d="M360,75.7324 L370,75.7324 C385,75.7324 385,75.7324 400,75.7324 L410,75.7324 " fill="none" style="stroke:#181818;stroke-width:1.0;"/><path d="M158,75.7324 L168,75.7324 C183,75.7324 183,75.7324 198,75.7324 L208,75.7324 " fill="none" style="stroke:#181818;stroke-width:1.0;"/><path d="M62,75.7324 L72,75.7324 C87,75.7324 87,75.7324 102,75.7324 L112,75.7324 " fill="none" style="stroke:#181818;stroke-width:1.0;"/><!--MD5=[44f84a3fef448c260004f3fa488eec9e]
@startmindmap
title Resources for project application-insights-simple
skinparam monochrome true
+ Infra
++ aws
+++ ApplicationInsights
++++ Application (1)
@endmindmap

PlantUML version 1.2022.6(Tue Jun 21 12:34:49 COT 2022)
(GPL source distribution)
Java Runtime: Java(TM) SE Runtime Environment
JVM: Java HotSpot(TM) 64-Bit Server VM
Default Encoding: UTF-8
Language: en
Country: GB
--></g></svg>