<?xml version="1.0" encoding="UTF-8" standalone="no"?>
<!DOCTYPE svg PUBLIC "-//W3C//DTD SVG 1.1//EN"
 "http://www.w3.org/Graphics/SVG/1.1/DTD/svg11.dtd">
<!-- Generated by graphviz version 2.44.1 (20200629.0846)
 -->
<!-- Title: graphname Pages: 1 -->
<svg width="1253pt" height="1225pt"
 viewBox="0.00 0.00 1253.00 1225.00" xmlns="http://www.w3.org/2000/svg" xmlns:xlink="http://www.w3.org/1999/xlink">
<g id="graph0" class="graph" transform="scale(1 1) rotate(0) translate(4 1221)">
<title>graphname</title>
<polygon fill="#fafafa" stroke="transparent" points="-4,4 -4,-1221 1249,-1221 1249,4 -4,4"/>
<text text-anchor="start" x="518.5" y="-1192.4" font-family="Helvetica,sans-Serif" font-weight="bold" font-size="22.00" fill="#383838">Project EKS Module</text>
<text text-anchor="start" x="619" y="-1176.8" font-family="Helvetica,sans-Serif" font-size="14.00"> &#160;</text>
<text text-anchor="start" x="518.5" y="-1155.2" font-family="Helvetica,sans-Serif" font-weight="bold" font-size="16.00" fill="#707070">Target Diagram</text>
<g id="clust1" class="cluster">
<title>cluster_aws</title>
<polygon fill="#f5f5f5" stroke="#f5f5f5" points="8,-8 8,-1133 1237,-1133 1237,-8 8,-8"/>
<text text-anchor="start" x="560.5" y="-23" font-family="Helvetica,sans-Serif" font-weight="bold" font-size="20.00" fill="#707070">Provider aws</text>
</g>
<g id="clust2" class="cluster">
<title>cluster_aws_VPC</title>
<polygon fill="#eeeeee" stroke="#eeeeee" points="58,-54 58,-542 1113,-542 1113,-54 58,-54"/>
<text text-anchor="start" x="564.5" y="-65" font-family="Helvetica,sans-Serif" font-weight="bold" font-size="20.00" fill="#383838">VPC</text>
</g>
<g id="clust3" class="cluster">
<title>cluster_aws_EKS</title>
<polygon fill="#eeeeee" stroke="#eeeeee" points="16,-641 16,-1125 1229,-1125 1229,-641 16,-641"/>
<text text-anchor="start" x="601.5" y="-652" font-family="Helvetica,sans-Serif" font-weight="bold" font-size="20.00" fill="#383838">EKS</text>
</g>
<g id="clust4" class="cluster">
<title>cluster_aws_</title>
<polygon fill="#eeeeee" stroke="#eeeeee" points="692,-550 692,-633 789,-633 789,-550 692,-550"/>
<text text-anchor="start" x="740.36" y="-554.3" font-family="Helvetica,sans-Serif" font-size="1.00" fill="#383838"> </text>
</g>
<!-- Vpc::vpc -->
<g id="node1" class="node">
<title>Vpc::vpc</title>
<polygon fill="#e5e5e5" stroke="#dddddd" points="1105,-386 1051,-386 1051,-328 1105,-328 1105,-386"/>
<text text-anchor="start" x="1063" y="-366.2" font-family="Helvetica,sans-Serif" font-weight="bold" font-size="16.00" fill="#707070">Vpc</text>
<text text-anchor="start" x="1063" y="-341.2" font-family="Helvetica,sans-Serif" font-size="16.00" fill="#383838">vpc</text>
</g>
<!-- InternetGateway::internet&#45;gateway -->
<g id="node2" class="node">
<title>InternetGateway::internet&#45;gateway</title>
<polygon fill="#e5e5e5" stroke="#dddddd" points="485,-150 335,-150 335,-92 485,-92 485,-150"/>
<text text-anchor="start" x="347" y="-130.2" font-family="Helvetica,sans-Serif" font-weight="bold" font-size="16.00" fill="#707070">InternetGateway</text>
<text text-anchor="start" x="347" y="-105.2" font-family="Helvetica,sans-Serif" font-size="16.00" fill="#383838">internet&#45;gateway</text>
</g>
<!-- InternetGateway::internet&#45;gateway&#45;&gt;Vpc::vpc -->
<g id="edge1" class="edge">
<title>InternetGateway::internet&#45;gateway&#45;&gt;Vpc::vpc</title>
<path fill="none" stroke="#707070" d="M485.05,-95.43C585.26,-65.53 766.7,-28.39 899,-98 987.96,-144.81 1041.07,-258.39 1063.85,-318.39"/>
<polygon fill="#707070" stroke="#707070" points="1060.62,-319.74 1067.38,-327.89 1067.18,-317.3 1060.62,-319.74"/>
</g>
<!-- Subnet::subnet&#45;public&#45;a -->
<g id="node3" class="node">
<title>Subnet::subnet&#45;public&#45;a</title>
<polygon fill="#e5e5e5" stroke="#dddddd" points="808.5,-190 672.5,-190 672.5,-132 808.5,-132 808.5,-190"/>
<text text-anchor="start" x="684.5" y="-170.2" font-family="Helvetica,sans-Serif" font-weight="bold" font-size="16.00" fill="#707070">Subnet</text>
<text text-anchor="start" x="684.5" y="-145.2" font-family="Helvetica,sans-Serif" font-size="16.00" fill="#383838">subnet&#45;public&#45;a</text>
</g>
<!-- Subnet::subnet&#45;public&#45;a&#45;&gt;Vpc::vpc -->
<g id="edge2" class="edge">
<title>Subnet::subnet&#45;public&#45;a&#45;&gt;Vpc::vpc</title>
<path fill="none" stroke="#707070" d="M808.82,-169.77C837.74,-175.4 871.2,-184.48 899,-199 957.57,-229.59 1012.42,-283.61 1045.34,-319.86"/>
<polygon fill="#707070" stroke="#707070" points="1043.15,-322.65 1052.43,-327.76 1048.36,-317.98 1043.15,-322.65"/>
</g>
<!-- Subnet::subnet&#45;public&#45;b -->
<g id="node4" class="node">
<title>Subnet::subnet&#45;public&#45;b</title>
<polygon fill="#e5e5e5" stroke="#dddddd" points="808.5,-362 672.5,-362 672.5,-304 808.5,-304 808.5,-362"/>
<text text-anchor="start" x="684.5" y="-342.2" font-family="Helvetica,sans-Serif" font-weight="bold" font-size="16.00" fill="#707070">Subnet</text>
<text text-anchor="start" x="684.5" y="-317.2" font-family="Helvetica,sans-Serif" font-size="16.00" fill="#383838">subnet&#45;public&#45;b</text>
</g>
<!-- Subnet::subnet&#45;public&#45;b&#45;&gt;Vpc::vpc -->
<g id="edge3" class="edge">
<title>Subnet::subnet&#45;public&#45;b&#45;&gt;Vpc::vpc</title>
<path fill="none" stroke="#707070" d="M808.59,-337.8C878.47,-342.8 985.34,-350.44 1040.79,-354.41"/>
<polygon fill="#707070" stroke="#707070" points="1040.63,-357.91 1050.85,-355.13 1041.12,-350.92 1040.63,-357.91"/>
</g>
<!-- RouteTable::route&#45;table&#45;public -->
<g id="node5" class="node">
<title>RouteTable::route&#45;table&#45;public</title>
<polygon fill="#e5e5e5" stroke="#dddddd" points="485,-226 335,-226 335,-168 485,-168 485,-226"/>
<text text-anchor="start" x="347" y="-206.2" font-family="Helvetica,sans-Serif" font-weight="bold" font-size="16.00" fill="#707070">RouteTable</text>
<text text-anchor="start" x="347" y="-181.2" font-family="Helvetica,sans-Serif" font-size="16.00" fill="#383838">route&#45;table&#45;public</text>
</g>
<!-- RouteTable::route&#45;table&#45;public&#45;&gt;Vpc::vpc -->
<g id="edge4" class="edge">
<title>RouteTable::route&#45;table&#45;public&#45;&gt;Vpc::vpc</title>
<path fill="none" stroke="#707070" d="M485.22,-183.38C505.78,-177.7 527.51,-169.83 546,-159 565.52,-147.56 561.09,-131.66 582,-123 647.08,-96.04 835.89,-91.71 899,-123 981.4,-163.85 1035.99,-263.12 1061.09,-318.33"/>
<polygon fill="#707070" stroke="#707070" points="1058.03,-320.06 1065.29,-327.78 1064.43,-317.22 1058.03,-320.06"/>
</g>
<!-- RouteTable::route&#45;table&#45;public&#45;&gt;Subnet::subnet&#45;public&#45;a -->
<g id="edge5" class="edge">
<title>RouteTable::route&#45;table&#45;public&#45;&gt;Subnet::subnet&#45;public&#45;a</title>
<path fill="none" stroke="#707070" d="M485.13,-188.88C537.93,-183.09 608.73,-175.33 662.22,-169.47"/>
<polygon fill="#707070" stroke="#707070" points="662.78,-172.93 672.34,-168.36 662.02,-165.97 662.78,-172.93"/>
</g>
<!-- RouteTable::route&#45;table&#45;public&#45;&gt;Subnet::subnet&#45;public&#45;b -->
<g id="edge6" class="edge">
<title>RouteTable::route&#45;table&#45;public&#45;&gt;Subnet::subnet&#45;public&#45;b</title>
<path fill="none" stroke="#707070" d="M485.25,-209.9C505.92,-215.57 527.7,-223.62 546,-235 566.31,-247.63 562.2,-261.59 582,-275 606.28,-291.45 635.81,-303.93 662.71,-313.02"/>
<polygon fill="#707070" stroke="#707070" points="661.9,-316.43 672.49,-316.21 664.07,-309.78 661.9,-316.43"/>
</g>
<!-- Route::route&#45;public -->
<g id="node6" class="node">
<title>Route::route&#45;public</title>
<polygon fill="#e5e5e5" stroke="#dddddd" points="185.5,-188 76.5,-188 76.5,-130 185.5,-130 185.5,-188"/>
<text text-anchor="start" x="89" y="-168.2" font-family="Helvetica,sans-Serif" font-weight="bold" font-size="16.00" fill="#707070">Route</text>
<text text-anchor="start" x="89" y="-143.2" font-family="Helvetica,sans-Serif" font-size="16.00" fill="#383838">route&#45;public</text>
</g>
<!-- Route::route&#45;public&#45;&gt;InternetGateway::internet&#45;gateway -->
<g id="edge8" class="edge">
<title>Route::route&#45;public&#45;&gt;InternetGateway::internet&#45;gateway</title>
<path fill="none" stroke="#707070" d="M185.74,-151.63C225.23,-146.21 279.66,-138.74 324.89,-132.54"/>
<polygon fill="#707070" stroke="#707070" points="325.56,-135.98 334.99,-131.15 324.6,-129.05 325.56,-135.98"/>
</g>
<!-- Route::route&#45;public&#45;&gt;RouteTable::route&#45;table&#45;public -->
<g id="edge7" class="edge">
<title>Route::route&#45;public&#45;&gt;RouteTable::route&#45;table&#45;public</title>
<path fill="none" stroke="#707070" d="M185.74,-166.37C225.23,-171.79 279.66,-179.26 324.89,-185.46"/>
<polygon fill="#707070" stroke="#707070" points="324.6,-188.95 334.99,-186.85 325.56,-182.02 324.6,-188.95"/>
</g>
<!-- ElasticIpAddress::iep -->
<g id="node7" class="node">
<title>ElasticIpAddress::iep</title>
<polygon fill="#e5e5e5" stroke="#dddddd" points="817.5,-266 663.5,-266 663.5,-208 817.5,-208 817.5,-266"/>
<text text-anchor="start" x="675.5" y="-246.2" font-family="Helvetica,sans-Serif" font-weight="bold" font-size="16.00" fill="#707070">ElasticIpAddress</text>
<text text-anchor="start" x="675.5" y="-221.2" font-family="Helvetica,sans-Serif" font-size="16.00" fill="#383838">iep</text>
</g>
<!-- NatGateway::nat&#45;gateway -->
<g id="node8" class="node">
<title>NatGateway::nat&#45;gateway</title>
<polygon fill="#e5e5e5" stroke="#dddddd" points="468.5,-302 351.5,-302 351.5,-244 468.5,-244 468.5,-302"/>
<text text-anchor="start" x="364" y="-282.2" font-family="Helvetica,sans-Serif" font-weight="bold" font-size="16.00" fill="#707070">NatGateway</text>
<text text-anchor="start" x="364" y="-257.2" font-family="Helvetica,sans-Serif" font-size="16.00" fill="#383838">nat&#45;gateway</text>
</g>
<!-- NatGateway::nat&#45;gateway&#45;&gt;Subnet::subnet&#45;public&#45;a -->
<g id="edge9" class="edge">
<title>NatGateway::nat&#45;gateway&#45;&gt;Subnet::subnet&#45;public&#45;a</title>
<path fill="none" stroke="#707070" d="M468.75,-263.54C493.69,-257.78 522.47,-248.78 546,-235 565.52,-223.56 562.26,-210.07 582,-199 606.37,-185.34 635.53,-176.56 662.1,-170.92"/>
<polygon fill="#707070" stroke="#707070" points="663.02,-174.31 672.14,-168.92 661.65,-167.45 663.02,-174.31"/>
</g>
<!-- NatGateway::nat&#45;gateway&#45;&gt;ElasticIpAddress::iep -->
<g id="edge10" class="edge">
<title>NatGateway::nat&#45;gateway&#45;&gt;ElasticIpAddress::iep</title>
<path fill="none" stroke="#707070" d="M468.6,-266.69C519.63,-261.1 594.87,-252.85 653.11,-246.47"/>
<polygon fill="#707070" stroke="#707070" points="653.85,-249.91 663.41,-245.34 653.09,-242.95 653.85,-249.91"/>
</g>
<!-- Subnet::subnet&#45;private&#45;a -->
<g id="node9" class="node">
<title>Subnet::subnet&#45;private&#45;a</title>
<polygon fill="#e5e5e5" stroke="#dddddd" points="811.5,-458 669.5,-458 669.5,-400 811.5,-400 811.5,-458"/>
<text text-anchor="start" x="681.5" y="-438.2" font-family="Helvetica,sans-Serif" font-weight="bold" font-size="16.00" fill="#707070">Subnet</text>
<text text-anchor="start" x="681.5" y="-413.2" font-family="Helvetica,sans-Serif" font-size="16.00" fill="#383838">subnet&#45;private&#45;a</text>
</g>
<!-- Subnet::subnet&#45;private&#45;a&#45;&gt;Vpc::vpc -->
<g id="edge11" class="edge">
<title>Subnet::subnet&#45;private&#45;a&#45;&gt;Vpc::vpc</title>
<path fill="none" stroke="#707070" d="M811.83,-413.91C881.87,-398.88 986.58,-376.4 1041.1,-364.7"/>
<polygon fill="#707070" stroke="#707070" points="1041.95,-368.1 1050.99,-362.58 1040.48,-361.26 1041.95,-368.1"/>
</g>
<!-- RouteTable::route&#45;table&#45;private&#45;a -->
<g id="node10" class="node">
<title>RouteTable::route&#45;table&#45;private&#45;a</title>
<polygon fill="#e5e5e5" stroke="#dddddd" points="495,-378 325,-378 325,-320 495,-320 495,-378"/>
<text text-anchor="start" x="337" y="-358.2" font-family="Helvetica,sans-Serif" font-weight="bold" font-size="16.00" fill="#707070">RouteTable</text>
<text text-anchor="start" x="337" y="-333.2" font-family="Helvetica,sans-Serif" font-size="16.00" fill="#383838">route&#45;table&#45;private&#45;a</text>
</g>
<!-- RouteTable::route&#45;table&#45;private&#45;a&#45;&gt;Vpc::vpc -->
<g id="edge12" class="edge">
<title>RouteTable::route&#45;table&#45;private&#45;a&#45;&gt;Vpc::vpc</title>
<path fill="none" stroke="#707070" d="M495.13,-327.34C512.11,-322.4 529.74,-316.87 546,-311 562.47,-305.06 564.87,-298.63 582,-295 719.82,-265.75 760.08,-271.5 899,-295 950.17,-303.66 1006.25,-325.38 1041.52,-340.66"/>
<polygon fill="#707070" stroke="#707070" points="1040.33,-343.96 1050.9,-344.78 1043.15,-337.55 1040.33,-343.96"/>
</g>
<!-- RouteTable::route&#45;table&#45;private&#45;a&#45;&gt;Subnet::subnet&#45;private&#45;a -->
<g id="edge13" class="edge">
<title>RouteTable::route&#45;table&#45;private&#45;a&#45;&gt;Subnet::subnet&#45;private&#45;a</title>
<path fill="none" stroke="#707070" d="M495.17,-369.5C545.78,-381.82 609.83,-397.42 659.65,-409.55"/>
<polygon fill="#707070" stroke="#707070" points="658.87,-412.97 669.42,-411.93 660.53,-406.17 658.87,-412.97"/>
</g>
<!-- Route::route&#45;private&#45;a -->
<g id="node11" class="node">
<title>Route::route&#45;private&#45;a</title>
<polygon fill="#e5e5e5" stroke="#dddddd" points="196,-321 66,-321 66,-263 196,-263 196,-321"/>
<text text-anchor="start" x="78" y="-301.2" font-family="Helvetica,sans-Serif" font-weight="bold" font-size="16.00" fill="#707070">Route</text>
<text text-anchor="start" x="78" y="-276.2" font-family="Helvetica,sans-Serif" font-size="16.00" fill="#383838">route&#45;private&#45;a</text>
</g>
<!-- Route::route&#45;private&#45;a&#45;&gt;NatGateway::nat&#45;gateway -->
<g id="edge15" class="edge">
<title>Route::route&#45;private&#45;a&#45;&gt;NatGateway::nat&#45;gateway</title>
<path fill="none" stroke="#707070" d="M196.25,-287.59C239.69,-284.61 296.97,-280.68 341.15,-277.65"/>
<polygon fill="#707070" stroke="#707070" points="341.49,-281.14 351.23,-276.96 341.01,-274.16 341.49,-281.14"/>
</g>
<!-- Route::route&#45;private&#45;a&#45;&gt;RouteTable::route&#45;table&#45;private&#45;a -->
<g id="edge14" class="edge">
<title>Route::route&#45;private&#45;a&#45;&gt;RouteTable::route&#45;table&#45;private&#45;a</title>
<path fill="none" stroke="#707070" d="M196.25,-305.22C231.53,-312.48 275.95,-321.62 315.06,-329.67"/>
<polygon fill="#707070" stroke="#707070" points="314.38,-333.1 324.88,-331.69 315.79,-326.25 314.38,-333.1"/>
</g>
<!-- Subnet::subnet&#45;private&#45;b -->
<g id="node12" class="node">
<title>Subnet::subnet&#45;private&#45;b</title>
<polygon fill="#e5e5e5" stroke="#dddddd" points="811.5,-534 669.5,-534 669.5,-476 811.5,-476 811.5,-534"/>
<text text-anchor="start" x="681.5" y="-514.2" font-family="Helvetica,sans-Serif" font-weight="bold" font-size="16.00" fill="#707070">Subnet</text>
<text text-anchor="start" x="681.5" y="-489.2" font-family="Helvetica,sans-Serif" font-size="16.00" fill="#383838">subnet&#45;private&#45;b</text>
</g>
<!-- Subnet::subnet&#45;private&#45;b&#45;&gt;Vpc::vpc -->
<g id="edge16" class="edge">
<title>Subnet::subnet&#45;private&#45;b&#45;&gt;Vpc::vpc</title>
<path fill="none" stroke="#707070" d="M811.62,-493.06C839.45,-487.04 871.35,-478.53 899,-467 952.16,-444.83 1007.76,-407.92 1042.37,-383.04"/>
<polygon fill="#707070" stroke="#707070" points="1044.67,-385.7 1050.71,-376.99 1040.56,-380.03 1044.67,-385.7"/>
</g>
<!-- RouteTable::route&#45;table&#45;private&#45;b -->
<g id="node13" class="node">
<title>RouteTable::route&#45;table&#45;private&#45;b</title>
<polygon fill="#e5e5e5" stroke="#dddddd" points="495,-454 325,-454 325,-396 495,-396 495,-454"/>
<text text-anchor="start" x="337" y="-434.2" font-family="Helvetica,sans-Serif" font-weight="bold" font-size="16.00" fill="#707070">RouteTable</text>
<text text-anchor="start" x="337" y="-409.2" font-family="Helvetica,sans-Serif" font-size="16.00" fill="#383838">route&#45;table&#45;private&#45;b</text>
</g>
<!-- RouteTable::route&#45;table&#45;private&#45;b&#45;&gt;Vpc::vpc -->
<g id="edge17" class="edge">
<title>RouteTable::route&#45;table&#45;private&#45;b&#45;&gt;Vpc::vpc</title>
<path fill="none" stroke="#707070" d="M495.43,-405.89C522.91,-400.3 553.64,-394.7 582,-391 721.98,-372.75 758.18,-380.98 899,-371 948.11,-367.52 1004.79,-362.97 1040.75,-360.02"/>
<polygon fill="#707070" stroke="#707070" points="1041.09,-363.5 1050.77,-359.19 1040.52,-356.52 1041.09,-363.5"/>
</g>
<!-- RouteTable::route&#45;table&#45;private&#45;b&#45;&gt;Subnet::subnet&#45;private&#45;b -->
<g id="edge18" class="edge">
<title>RouteTable::route&#45;table&#45;private&#45;b&#45;&gt;Subnet::subnet&#45;private&#45;b</title>
<path fill="none" stroke="#707070" d="M495.35,-445.79C522.96,-452.58 553.78,-460.13 582,-467 607.21,-473.14 634.71,-479.79 659.57,-485.78"/>
<polygon fill="#707070" stroke="#707070" points="658.77,-489.19 669.31,-488.13 660.41,-482.39 658.77,-489.19"/>
</g>
<!-- Route::route&#45;private&#45;b -->
<g id="node14" class="node">
<title>Route::route&#45;private&#45;b</title>
<polygon fill="#e5e5e5" stroke="#dddddd" points="196,-435 66,-435 66,-377 196,-377 196,-435"/>
<text text-anchor="start" x="78" y="-415.2" font-family="Helvetica,sans-Serif" font-weight="bold" font-size="16.00" fill="#707070">Route</text>
<text text-anchor="start" x="78" y="-390.2" font-family="Helvetica,sans-Serif" font-size="16.00" fill="#383838">route&#45;private&#45;b</text>
</g>
<!-- Route::route&#45;private&#45;b&#45;&gt;NatGateway::nat&#45;gateway -->
<g id="edge20" class="edge">
<title>Route::route&#45;private&#45;b&#45;&gt;NatGateway::nat&#45;gateway</title>
<path fill="none" stroke="#707070" d="M172.46,-376.85C206.7,-352.58 253.39,-320.5 274,-311 295.19,-301.23 319.43,-293.45 341.47,-287.54"/>
<polygon fill="#707070" stroke="#707070" points="342.62,-290.86 351.42,-284.96 340.86,-284.08 342.62,-290.86"/>
</g>
<!-- Route::route&#45;private&#45;b&#45;&gt;RouteTable::route&#45;table&#45;private&#45;b -->
<g id="edge19" class="edge">
<title>Route::route&#45;private&#45;b&#45;&gt;RouteTable::route&#45;table&#45;private&#45;b</title>
<path fill="none" stroke="#707070" d="M196.25,-410.41C231.38,-412.82 275.57,-415.85 314.56,-418.52"/>
<polygon fill="#707070" stroke="#707070" points="314.66,-422.04 324.88,-419.23 315.14,-415.05 314.66,-422.04"/>
</g>
<!-- Policy::AmazonEKSClusterPolicy -->
<g id="node15" class="node">
<title>Policy::AmazonEKSClusterPolicy</title>
<polygon fill="#e5e5e5" stroke="#dddddd" points="1183,-775 973,-775 973,-717 1183,-717 1183,-775"/>
<text text-anchor="start" x="985" y="-755.2" font-family="Helvetica,sans-Serif" font-weight="bold" font-size="16.00" fill="#707070">Policy</text>
<text text-anchor="start" x="985" y="-730.2" font-family="Helvetica,sans-Serif" font-size="16.00" fill="#383838">AmazonEKSClusterPolicy</text>
</g>
<!-- Policy::AmazonEKSVPCResourceController -->
<g id="node16" class="node">
<title>Policy::AmazonEKSVPCResourceController</title>
<polygon fill="#e5e5e5" stroke="#dddddd" points="1221,-851 935,-851 935,-793 1221,-793 1221,-851"/>
<text text-anchor="start" x="947" y="-831.2" font-family="Helvetica,sans-Serif" font-weight="bold" font-size="16.00" fill="#707070">Policy</text>
<text text-anchor="start" x="947" y="-806.2" font-family="Helvetica,sans-Serif" font-size="16.00" fill="#383838">AmazonEKSVPCResourceController</text>
</g>
<!-- Role::role&#45;cluster -->
<g id="node17" class="node">
<title>Role::role&#45;cluster</title>
<polygon fill="#e5e5e5" stroke="#dddddd" points="793,-813 688,-813 688,-755 793,-755 793,-813"/>
<text text-anchor="start" x="700.5" y="-793.2" font-family="Helvetica,sans-Serif" font-weight="bold" font-size="16.00" fill="#707070">Role</text>
<text text-anchor="start" x="700.5" y="-768.2" font-family="Helvetica,sans-Serif" font-size="16.00" fill="#383838">role&#45;cluster</text>
</g>
<!-- Role::role&#45;cluster&#45;&gt;Policy::AmazonEKSClusterPolicy -->
<g id="edge21" class="edge">
<title>Role::role&#45;cluster&#45;&gt;Policy::AmazonEKSClusterPolicy</title>
<path fill="none" stroke="#707070" d="M793.19,-778.15C838.18,-773.05 905.03,-765.48 962.55,-758.96"/>
<polygon fill="#707070" stroke="#707070" points="963.26,-762.4 972.81,-757.8 962.48,-755.45 963.26,-762.4"/>
</g>
<!-- Role::role&#45;cluster&#45;&gt;Policy::AmazonEKSVPCResourceController -->
<g id="edge22" class="edge">
<title>Role::role&#45;cluster&#45;&gt;Policy::AmazonEKSVPCResourceController</title>
<path fill="none" stroke="#707070" d="M793.19,-789.85C828.62,-793.87 877.61,-799.42 924.92,-804.78"/>
<polygon fill="#707070" stroke="#707070" points="924.66,-808.27 934.99,-805.92 925.45,-801.31 924.66,-808.27"/>
</g>
<!-- Policy::AmazonEKSWorkerNodePolicy -->
<g id="node18" class="node">
<title>Policy::AmazonEKSWorkerNodePolicy</title>
<polygon fill="#e5e5e5" stroke="#dddddd" points="865,-1041 616,-1041 616,-983 865,-983 865,-1041"/>
<text text-anchor="start" x="628.5" y="-1021.2" font-family="Helvetica,sans-Serif" font-weight="bold" font-size="16.00" fill="#707070">Policy</text>
<text text-anchor="start" x="628.5" y="-996.2" font-family="Helvetica,sans-Serif" font-size="16.00" fill="#383838">AmazonEKSWorkerNodePolicy</text>
</g>
<!-- Policy::AmazonEC2ContainerRegistryReadOnly -->
<g id="node19" class="node">
<title>Policy::AmazonEC2ContainerRegistryReadOnly</title>
<polygon fill="#e5e5e5" stroke="#dddddd" points="899,-1117 582,-1117 582,-1059 899,-1059 899,-1117"/>
<text text-anchor="start" x="594.5" y="-1097.2" font-family="Helvetica,sans-Serif" font-weight="bold" font-size="16.00" fill="#707070">Policy</text>
<text text-anchor="start" x="594.5" y="-1072.2" font-family="Helvetica,sans-Serif" font-size="16.00" fill="#383838">AmazonEC2ContainerRegistryReadOn...</text>
</g>
<!-- Policy::AmazonEKS_CNI_Policy -->
<g id="node20" class="node">
<title>Policy::AmazonEKS_CNI_Policy</title>
<polygon fill="#e5e5e5" stroke="#dddddd" points="842.5,-965 638.5,-965 638.5,-907 842.5,-907 842.5,-965"/>
<text text-anchor="start" x="650.5" y="-945.2" font-family="Helvetica,sans-Serif" font-weight="bold" font-size="16.00" fill="#707070">Policy</text>
<text text-anchor="start" x="650.5" y="-920.2" font-family="Helvetica,sans-Serif" font-size="16.00" fill="#383838">AmazonEKS_CNI_Policy</text>
</g>
<!-- Role::role&#45;node&#45;group -->
<g id="node21" class="node">
<title>Role::role&#45;node&#45;group</title>
<polygon fill="#e5e5e5" stroke="#dddddd" points="479.5,-1041 340.5,-1041 340.5,-983 479.5,-983 479.5,-1041"/>
<text text-anchor="start" x="353" y="-1021.2" font-family="Helvetica,sans-Serif" font-weight="bold" font-size="16.00" fill="#707070">Role</text>
<text text-anchor="start" x="353" y="-996.2" font-family="Helvetica,sans-Serif" font-size="16.00" fill="#383838">role&#45;node&#45;group</text>
</g>
<!-- Role::role&#45;node&#45;group&#45;&gt;Policy::AmazonEKSWorkerNodePolicy -->
<g id="edge23" class="edge">
<title>Role::role&#45;node&#45;group&#45;&gt;Policy::AmazonEKSWorkerNodePolicy</title>
<path fill="none" stroke="#707070" d="M479.86,-1012C516.43,-1012 562.65,-1012 605.92,-1012"/>
<polygon fill="#707070" stroke="#707070" points="605.98,-1015.5 615.98,-1012 605.98,-1008.5 605.98,-1015.5"/>
</g>
<!-- Role::role&#45;node&#45;group&#45;&gt;Policy::AmazonEC2ContainerRegistryReadOnly -->
<g id="edge24" class="edge">
<title>Role::role&#45;node&#45;group&#45;&gt;Policy::AmazonEC2ContainerRegistryReadOnly</title>
<path fill="none" stroke="#707070" d="M479.86,-1027.93C515.91,-1036.27 561.33,-1046.78 604.06,-1056.67"/>
<polygon fill="#707070" stroke="#707070" points="603.46,-1060.12 613.99,-1058.96 605.04,-1053.3 603.46,-1060.12"/>
</g>
<!-- Role::role&#45;node&#45;group&#45;&gt;Policy::AmazonEKS_CNI_Policy -->
<g id="edge25" class="edge">
<title>Role::role&#45;node&#45;group&#45;&gt;Policy::AmazonEKS_CNI_Policy</title>
<path fill="none" stroke="#707070" d="M479.86,-996.07C522.9,-986.11 579.31,-973.06 628.55,-961.67"/>
<polygon fill="#707070" stroke="#707070" points="629.34,-965.08 638.29,-959.41 627.76,-958.26 629.34,-965.08"/>
</g>
<!-- SecurityGroup::security&#45;group&#45;cluster -->
<g id="node22" class="node">
<title>SecurityGroup::security&#45;group&#45;cluster</title>
<polygon fill="#e5e5e5" stroke="#dddddd" points="831,-889 650,-889 650,-831 831,-831 831,-889"/>
<text text-anchor="start" x="662.5" y="-869.2" font-family="Helvetica,sans-Serif" font-weight="bold" font-size="16.00" fill="#707070">SecurityGroup</text>
<text text-anchor="start" x="662.5" y="-844.2" font-family="Helvetica,sans-Serif" font-size="16.00" fill="#383838">security&#45;group&#45;cluster</text>
</g>
<!-- SecurityGroup::security&#45;group&#45;cluster&#45;&gt;Vpc::vpc -->
<g id="edge26" class="edge">
<title>SecurityGroup::security&#45;group&#45;cluster&#45;&gt;Vpc::vpc</title>
<path fill="none" stroke="#707070" d="M831.4,-856.04C856.29,-850.65 881.31,-840.5 899,-822 956.9,-761.46 907.8,-716.22 935,-637 966.29,-545.87 1022.08,-447.09 1053.61,-394.67"/>
<polygon fill="#707070" stroke="#707070" points="1056.64,-396.42 1058.83,-386.05 1050.65,-392.79 1056.64,-396.42"/>
</g>
<!-- SecurityGroupRuleIngress::sg&#45;cluster&#45;rule&#45;ingress&#45;https -->
<g id="node23" class="node">
<title>SecurityGroupRuleIngress::sg&#45;cluster&#45;rule&#45;ingress&#45;https</title>
<polygon fill="#e5e5e5" stroke="#dddddd" points="523.5,-889 296.5,-889 296.5,-831 523.5,-831 523.5,-889"/>
<text text-anchor="start" x="309" y="-869.2" font-family="Helvetica,sans-Serif" font-weight="bold" font-size="16.00" fill="#707070">SecurityGroupRuleIngress</text>
<text text-anchor="start" x="309" y="-844.2" font-family="Helvetica,sans-Serif" font-size="16.00" fill="#383838">sg&#45;cluster&#45;rule&#45;ingress&#45;https</text>
</g>
<!-- SecurityGroupRuleIngress::sg&#45;cluster&#45;rule&#45;ingress&#45;https&#45;&gt;SecurityGroup::security&#45;group&#45;cluster -->
<g id="edge27" class="edge">
<title>SecurityGroupRuleIngress::sg&#45;cluster&#45;rule&#45;ingress&#45;https&#45;&gt;SecurityGroup::security&#45;group&#45;cluster</title>
<path fill="none" stroke="#707070" d="M523.59,-860C561.28,-860 603.01,-860 639.66,-860"/>
<polygon fill="#707070" stroke="#707070" points="639.85,-863.5 649.85,-860 639.85,-856.5 639.85,-863.5"/>
</g>
<!-- SecurityGroupRuleEgress::sg&#45;cluster&#45;rule&#45;egress -->
<g id="node24" class="node">
<title>SecurityGroupRuleEgress::sg&#45;cluster&#45;rule&#45;egress</title>
<polygon fill="#e5e5e5" stroke="#dddddd" points="521.5,-965 298.5,-965 298.5,-907 521.5,-907 521.5,-965"/>
<text text-anchor="start" x="311" y="-945.2" font-family="Helvetica,sans-Serif" font-weight="bold" font-size="16.00" fill="#707070">SecurityGroupRuleEgress</text>
<text text-anchor="start" x="311" y="-920.2" font-family="Helvetica,sans-Serif" font-size="16.00" fill="#383838">sg&#45;cluster&#45;rule&#45;egress</text>
</g>
<!-- SecurityGroupRuleEgress::sg&#45;cluster&#45;rule&#45;egress&#45;&gt;SecurityGroup::security&#45;group&#45;cluster -->
<g id="edge28" class="edge">
<title>SecurityGroupRuleEgress::sg&#45;cluster&#45;rule&#45;egress&#45;&gt;SecurityGroup::security&#45;group&#45;cluster</title>
<path fill="none" stroke="#707070" d="M521.76,-910.38C560.06,-901.51 602.71,-891.65 640.05,-883.01"/>
<polygon fill="#707070" stroke="#707070" points="640.97,-886.39 649.93,-880.72 639.39,-879.57 640.97,-886.39"/>
</g>
<!-- SecurityGroup::security&#45;group&#45;node -->
<g id="node25" class="node">
<title>SecurityGroup::security&#45;group&#45;node</title>
<polygon fill="#e5e5e5" stroke="#dddddd" points="825,-737 656,-737 656,-679 825,-679 825,-737"/>
<text text-anchor="start" x="668.5" y="-717.2" font-family="Helvetica,sans-Serif" font-weight="bold" font-size="16.00" fill="#707070">SecurityGroup</text>
<text text-anchor="start" x="668.5" y="-692.2" font-family="Helvetica,sans-Serif" font-size="16.00" fill="#383838">security&#45;group&#45;node</text>
</g>
<!-- SecurityGroup::security&#45;group&#45;node&#45;&gt;Vpc::vpc -->
<g id="edge29" class="edge">
<title>SecurityGroup::security&#45;group&#45;node&#45;&gt;Vpc::vpc</title>
<path fill="none" stroke="#707070" d="M825.29,-680.87C850.8,-669.94 877.69,-655.46 899,-637 978.59,-568.03 1035.28,-454.77 1061.19,-395.65"/>
<polygon fill="#707070" stroke="#707070" points="1064.48,-396.87 1065.23,-386.3 1058.05,-394.09 1064.48,-396.87"/>
</g>
<!-- SecurityGroupRuleIngress::sg&#45;rule&#45;node&#45;group&#45;ingress&#45;cluster -->
<g id="node26" class="node">
<title>SecurityGroupRuleIngress::sg&#45;rule&#45;node&#45;group&#45;ingress&#45;cluster</title>
<polygon fill="#e5e5e5" stroke="#dddddd" points="546,-813 274,-813 274,-755 546,-755 546,-813"/>
<text text-anchor="start" x="286" y="-793.2" font-family="Helvetica,sans-Serif" font-weight="bold" font-size="16.00" fill="#707070">SecurityGroupRuleIngress</text>
<text text-anchor="start" x="286" y="-768.2" font-family="Helvetica,sans-Serif" font-size="16.00" fill="#383838">sg&#45;rule&#45;node&#45;group&#45;ingress&#45;clust...</text>
</g>
<!-- SecurityGroupRuleIngress::sg&#45;rule&#45;node&#45;group&#45;ingress&#45;cluster&#45;&gt;SecurityGroup::security&#45;group&#45;cluster -->
<g id="edge31" class="edge">
<title>SecurityGroupRuleIngress::sg&#45;rule&#45;node&#45;group&#45;ingress&#45;cluster&#45;&gt;SecurityGroup::security&#45;group&#45;cluster</title>
<path fill="none" stroke="#707070" d="M536.6,-813.06C570.82,-820.98 607.42,-829.44 639.98,-836.98"/>
<polygon fill="#707070" stroke="#707070" points="639.42,-840.44 649.95,-839.28 640.99,-833.62 639.42,-840.44"/>
</g>
<!-- SecurityGroupRuleIngress::sg&#45;rule&#45;node&#45;group&#45;ingress&#45;cluster&#45;&gt;SecurityGroup::security&#45;group&#45;node -->
<g id="edge30" class="edge">
<title>SecurityGroupRuleIngress::sg&#45;rule&#45;node&#45;group&#45;ingress&#45;cluster&#45;&gt;SecurityGroup::security&#45;group&#45;node</title>
<path fill="none" stroke="#707070" d="M536.6,-754.94C572.87,-746.55 611.8,-737.54 645.77,-729.69"/>
<polygon fill="#707070" stroke="#707070" points="646.72,-733.06 655.67,-727.39 645.14,-726.24 646.72,-733.06"/>
</g>
<!-- Cluster::cluster -->
<g id="node27" class="node">
<title>Cluster::cluster</title>
<polygon fill="#e5e5e5" stroke="#dddddd" points="449.5,-737 370.5,-737 370.5,-679 449.5,-679 449.5,-737"/>
<text text-anchor="start" x="383" y="-717.2" font-family="Helvetica,sans-Serif" font-weight="bold" font-size="16.00" fill="#707070">Cluster</text>
<text text-anchor="start" x="383" y="-692.2" font-family="Helvetica,sans-Serif" font-size="16.00" fill="#383838">cluster</text>
</g>
<!-- Cluster::cluster&#45;&gt;Subnet::subnet&#45;public&#45;a -->
<g id="edge32" class="edge">
<title>Cluster::cluster&#45;&gt;Subnet::subnet&#45;public&#45;a</title>
<path fill="none" stroke="#707070" d="M444.72,-678.95C476.78,-649.14 523.38,-599.64 546,-546 576.12,-474.57 530.96,-257.35 582,-199 601.88,-176.27 632.78,-165.93 661.96,-161.57"/>
<polygon fill="#707070" stroke="#707070" points="662.72,-165 672.19,-160.27 661.83,-158.06 662.72,-165"/>
</g>
<!-- Cluster::cluster&#45;&gt;Subnet::subnet&#45;public&#45;b -->
<g id="edge33" class="edge">
<title>Cluster::cluster&#45;&gt;Subnet::subnet&#45;public&#45;b</title>
<path fill="none" stroke="#707070" d="M442.71,-678.87C473.7,-648.62 519.92,-598.45 546,-546 577.49,-482.68 535.2,-444.03 582,-391 602.61,-367.64 633.48,-353.68 662.44,-345.34"/>
<polygon fill="#707070" stroke="#707070" points="663.42,-348.7 672.17,-342.72 661.61,-341.94 663.42,-348.7"/>
</g>
<!-- Cluster::cluster&#45;&gt;Subnet::subnet&#45;private&#45;a -->
<g id="edge34" class="edge">
<title>Cluster::cluster&#45;&gt;Subnet::subnet&#45;private&#45;a</title>
<path fill="none" stroke="#707070" d="M444.26,-678.74C474.2,-650.92 517.73,-606.67 546,-561 569.55,-522.96 548.39,-496.53 582,-467 603.27,-448.31 632.15,-438.45 659.38,-433.35"/>
<polygon fill="#707070" stroke="#707070" points="660.04,-436.79 669.32,-431.69 658.88,-429.89 660.04,-436.79"/>
</g>
<!-- Cluster::cluster&#45;&gt;Subnet::subnet&#45;private&#45;b -->
<g id="edge35" class="edge">
<title>Cluster::cluster&#45;&gt;Subnet::subnet&#45;private&#45;b</title>
<path fill="none" stroke="#707070" d="M445.6,-679C473.5,-655.14 513.34,-619.99 546,-587 563.06,-569.77 561.36,-558.73 582,-546 605.25,-531.67 633.39,-522.31 659.42,-516.22"/>
<polygon fill="#707070" stroke="#707070" points="660.27,-519.62 669.28,-514.04 658.76,-512.78 660.27,-519.62"/>
</g>
<!-- Cluster::cluster&#45;&gt;Role::role&#45;cluster -->
<g id="edge38" class="edge">
<title>Cluster::cluster&#45;&gt;Role::role&#45;cluster</title>
<path fill="none" stroke="#707070" d="M449.65,-716.94C505.87,-729.95 610.79,-754.22 677.78,-769.72"/>
<polygon fill="#707070" stroke="#707070" points="677.26,-773.19 687.79,-772.04 678.83,-766.37 677.26,-773.19"/>
</g>
<!-- Cluster::cluster&#45;&gt;SecurityGroup::security&#45;group&#45;cluster -->
<g id="edge36" class="edge">
<title>Cluster::cluster&#45;&gt;SecurityGroup::security&#45;group&#45;cluster</title>
<path fill="none" stroke="#707070" d="M449.62,-710.35C479.03,-713.99 518.94,-723.14 546,-746 574.55,-770.12 553,-798.42 582,-822 598.58,-835.48 619.19,-844.31 639.98,-850.05"/>
<polygon fill="#707070" stroke="#707070" points="639.3,-853.49 649.85,-852.56 641.02,-846.71 639.3,-853.49"/>
</g>
<!-- Cluster::cluster&#45;&gt;SecurityGroup::security&#45;group&#45;node -->
<g id="edge37" class="edge">
<title>Cluster::cluster&#45;&gt;SecurityGroup::security&#45;group&#45;node</title>
<path fill="none" stroke="#707070" d="M449.65,-708C497.46,-708 580.5,-708 645.48,-708"/>
<polygon fill="#707070" stroke="#707070" points="645.74,-711.5 655.74,-708 645.74,-704.5 645.74,-711.5"/>
</g>
<!-- Key::eks&#45;key -->
<g id="node29" class="node">
<title>Key::eks&#45;key</title>
<polygon fill="#e5e5e5" stroke="#dddddd" points="781,-625 700,-625 700,-567 781,-567 781,-625"/>
<text text-anchor="start" x="712.5" y="-605.2" font-family="Helvetica,sans-Serif" font-weight="bold" font-size="16.00" fill="#707070">Key</text>
<text text-anchor="start" x="712.5" y="-580.2" font-family="Helvetica,sans-Serif" font-size="16.00" fill="#383838">eks&#45;key</text>
</g>
<!-- Cluster::cluster&#45;&gt;Key::eks&#45;key -->
<g id="edge39" class="edge">
<title>Cluster::cluster&#45;&gt;Key::eks&#45;key</title>
<path fill="none" stroke="#707070" d="M449.8,-690.07C484.08,-674.67 535.68,-652.56 582,-637 617.65,-625.02 658.8,-614.42 690.1,-607"/>
<polygon fill="#707070" stroke="#707070" points="690.96,-610.39 699.9,-604.7 689.36,-603.57 690.96,-610.39"/>
</g>
<!-- NodeGroup::node&#45;group&#45;private&#45;cluster -->
<g id="node28" class="node">
<title>NodeGroup::node&#45;group&#45;private&#45;cluster</title>
<polygon fill="#e5e5e5" stroke="#dddddd" points="238,-737 24,-737 24,-679 238,-679 238,-737"/>
<text text-anchor="start" x="36" y="-717.2" font-family="Helvetica,sans-Serif" font-weight="bold" font-size="16.00" fill="#707070">NodeGroup</text>
<text text-anchor="start" x="36" y="-692.2" font-family="Helvetica,sans-Serif" font-size="16.00" fill="#383838">node&#45;group&#45;private&#45;cluster</text>
</g>
<!-- NodeGroup::node&#45;group&#45;private&#45;cluster&#45;&gt;Subnet::subnet&#45;private&#45;a -->
<g id="edge40" class="edge">
<title>NodeGroup::node&#45;group&#45;private&#45;cluster&#45;&gt;Subnet::subnet&#45;private&#45;a</title>
<path fill="none" stroke="#707070" d="M152.78,-678.87C177.89,-645.71 223.16,-592.13 274,-561 338.74,-521.36 544.08,-471.9 659.23,-446.24"/>
<polygon fill="#707070" stroke="#707070" points="660.06,-449.64 669.06,-444.06 658.54,-442.81 660.06,-449.64"/>
</g>
<!-- NodeGroup::node&#45;group&#45;private&#45;cluster&#45;&gt;Subnet::subnet&#45;private&#45;b -->
<g id="edge41" class="edge">
<title>NodeGroup::node&#45;group&#45;private&#45;cluster&#45;&gt;Subnet::subnet&#45;private&#45;b</title>
<path fill="none" stroke="#707070" d="M218.13,-678.93C302.21,-650.19 433.56,-604.35 546,-561 562.17,-554.76 565.57,-551.53 582,-546 606.94,-537.6 634.58,-529.89 659.65,-523.47"/>
<polygon fill="#707070" stroke="#707070" points="660.65,-526.83 669.49,-520.99 658.94,-520.04 660.65,-526.83"/>
</g>
<!-- NodeGroup::node&#45;group&#45;private&#45;cluster&#45;&gt;Role::role&#45;node&#45;group -->
<g id="edge43" class="edge">
<title>NodeGroup::node&#45;group&#45;private&#45;cluster&#45;&gt;Role::role&#45;node&#45;group</title>
<path fill="none" stroke="#707070" d="M139.38,-737.32C154.75,-792.26 195.48,-910.84 274,-974 290.22,-987.05 310.67,-995.62 330.71,-1001.25"/>
<polygon fill="#707070" stroke="#707070" points="329.93,-1004.67 340.49,-1003.78 331.69,-997.89 329.93,-1004.67"/>
</g>
<!-- NodeGroup::node&#45;group&#45;private&#45;cluster&#45;&gt;Cluster::cluster -->
<g id="edge42" class="edge">
<title>NodeGroup::node&#45;group&#45;private&#45;cluster&#45;&gt;Cluster::cluster</title>
<path fill="none" stroke="#707070" d="M238.3,-708C280.34,-708 326.56,-708 360.29,-708"/>
<polygon fill="#707070" stroke="#707070" points="360.34,-711.5 370.34,-708 360.34,-704.5 360.34,-711.5"/>
</g>
</g>
</svg>
