<?xml version="1.0" encoding="UTF-8" standalone="no"?>
<!DOCTYPE svg PUBLIC "-//W3C//DTD SVG 1.1//EN"
 "http://www.w3.org/Graphics/SVG/1.1/DTD/svg11.dtd">
<!-- Generated by graphviz version 2.44.1 (20200629.0846)
 -->
<!-- Title: graphname Pages: 1 -->
<svg width="635pt" height="341pt"
 viewBox="0.00 0.00 635.00 341.00" xmlns="http://www.w3.org/2000/svg" xmlns:xlink="http://www.w3.org/1999/xlink">
<g id="graph0" class="graph" transform="scale(1 1) rotate(0) translate(4 337)">
<title>graphname</title>
<polygon fill="#fafafa" stroke="transparent" points="-4,4 -4,-337 631,-337 631,4 -4,4"/>
<text text-anchor="start" x="185.5" y="-308.4" font-family="Helvetica,sans-Serif" font-weight="bold" font-size="22.00" fill="#383838">Project Postgres Module</text>
<text text-anchor="start" x="185.5" y="-283.2" font-family="Helvetica,sans-Serif" font-weight="bold" font-size="16.00" fill="#707070">Target Diagram</text>
<g id="clust1" class="cluster">
<title>cluster_k8s</title>
<polygon fill="#f5f5f5" stroke="#f5f5f5" points="8,-8 8,-261 619,-261 619,-8 8,-8"/>
<text text-anchor="start" x="253.5" y="-23" font-family="Helvetica,sans-Serif" font-weight="bold" font-size="20.00" fill="#707070">Provider k8s</text>
</g>
<g id="clust2" class="cluster">
<title>cluster_k8s_</title>
<polygon fill="#eeeeee" stroke="#eeeeee" points="16,-54 16,-253 611,-253 611,-54 16,-54"/>
<text text-anchor="start" x="313.36" y="-58.3" font-family="Helvetica,sans-Serif" font-size="1.00" fill="#383838"> </text>
</g>
<!-- Namespace::test&#45;postgres -->
<g id="node1" class="node">
<title>Namespace::test&#45;postgres</title>
<polygon fill="#e5e5e5" stroke="#dddddd" points="603,-149 485,-149 485,-91 603,-91 603,-149"/>
<text text-anchor="start" x="497" y="-129.2" font-family="Helvetica,sans-Serif" font-weight="bold" font-size="16.00" fill="#707070">Namespace</text>
<text text-anchor="start" x="497" y="-104.2" font-family="Helvetica,sans-Serif" font-size="16.00" fill="#383838">test&#45;postgres</text>
</g>
<!-- PersistentVolume::pv&#45;db -->
<g id="node2" class="node">
<title>PersistentVolume::pv&#45;db</title>
<polygon fill="#e5e5e5" stroke="#dddddd" points="449,-245 291,-245 291,-187 449,-187 449,-245"/>
<text text-anchor="start" x="303" y="-225.2" font-family="Helvetica,sans-Serif" font-weight="bold" font-size="16.00" fill="#707070">PersistentVolume</text>
<text text-anchor="start" x="303" y="-200.2" font-family="Helvetica,sans-Serif" font-size="16.00" fill="#383838">pv&#45;db</text>
</g>
<!-- PersistentVolume::pv&#45;db&#45;&gt;Namespace::test&#45;postgres -->
<g id="edge1" class="edge">
<title>PersistentVolume::pv&#45;db&#45;&gt;Namespace::test&#45;postgres</title>
<path fill="none" stroke="#707070" d="M432.19,-186.91C437.91,-183.98 443.59,-180.98 449,-178 462.1,-170.79 475.95,-162.59 488.87,-154.67"/>
<polygon fill="#707070" stroke="#707070" points="490.97,-157.48 497.64,-149.25 487.3,-151.53 490.97,-157.48"/>
</g>
<!-- ConfigMap::postgres -->
<g id="node3" class="node">
<title>ConfigMap::postgres</title>
<polygon fill="#e5e5e5" stroke="#dddddd" points="423.5,-169 316.5,-169 316.5,-111 423.5,-111 423.5,-169"/>
<text text-anchor="start" x="329" y="-149.2" font-family="Helvetica,sans-Serif" font-weight="bold" font-size="16.00" fill="#707070">ConfigMap</text>
<text text-anchor="start" x="329" y="-124.2" font-family="Helvetica,sans-Serif" font-size="16.00" fill="#383838">postgres</text>
</g>
<!-- ConfigMap::postgres&#45;&gt;Namespace::test&#45;postgres -->
<g id="edge2" class="edge">
<title>ConfigMap::postgres&#45;&gt;Namespace::test&#45;postgres</title>
<path fill="none" stroke="#707070" d="M423.54,-133.89C439.58,-132.03 457.45,-129.95 474.39,-127.98"/>
<polygon fill="#707070" stroke="#707070" points="475.25,-131.4 484.78,-126.77 474.45,-124.45 475.25,-131.4"/>
</g>
<!-- StatefulSet::postgres -->
<g id="node4" class="node">
<title>StatefulSet::postgres</title>
<polygon fill="#e5e5e5" stroke="#dddddd" points="255,-149 147,-149 147,-91 255,-91 255,-149"/>
<text text-anchor="start" x="159" y="-129.2" font-family="Helvetica,sans-Serif" font-weight="bold" font-size="16.00" fill="#707070">StatefulSet</text>
<text text-anchor="start" x="159" y="-104.2" font-family="Helvetica,sans-Serif" font-size="16.00" fill="#383838">postgres</text>
</g>
<!-- StatefulSet::postgres&#45;&gt;Namespace::test&#45;postgres -->
<g id="edge3" class="edge">
<title>StatefulSet::postgres&#45;&gt;Namespace::test&#45;postgres</title>
<path fill="none" stroke="#707070" d="M255.39,-107.4C267.06,-105.16 279.39,-103.16 291,-102 360.87,-95.01 379.09,-95.37 449,-102 457.38,-102.8 466.13,-103.98 474.77,-105.37"/>
<polygon fill="#707070" stroke="#707070" points="474.38,-108.86 484.83,-107.09 475.56,-101.96 474.38,-108.86"/>
</g>
<!-- StatefulSet::postgres&#45;&gt;ConfigMap::postgres -->
<g id="edge4" class="edge">
<title>StatefulSet::postgres&#45;&gt;ConfigMap::postgres</title>
<path fill="none" stroke="#707070" d="M255.3,-126.38C271.5,-128.32 289.46,-130.47 306.23,-132.48"/>
<polygon fill="#707070" stroke="#707070" points="306.15,-136 316.49,-133.71 306.98,-129.05 306.15,-136"/>
</g>
<!-- Service::postgres -->
<g id="node5" class="node">
<title>Service::postgres</title>
<polygon fill="#e5e5e5" stroke="#dddddd" points="111,-139 24,-139 24,-81 111,-81 111,-139"/>
<text text-anchor="start" x="36.5" y="-119.2" font-family="Helvetica,sans-Serif" font-weight="bold" font-size="16.00" fill="#707070">Service</text>
<text text-anchor="start" x="36.5" y="-94.2" font-family="Helvetica,sans-Serif" font-size="16.00" fill="#383838">postgres</text>
</g>
<!-- Service::postgres&#45;&gt;Namespace::test&#45;postgres -->
<g id="edge5" class="edge">
<title>Service::postgres&#45;&gt;Namespace::test&#45;postgres</title>
<path fill="none" stroke="#707070" d="M111.38,-91.73C122.75,-87.71 135.17,-84.05 147,-82 204.88,-71.99 445.27,-92.37 449,-93 457.51,-94.45 466.35,-96.38 475.06,-98.56"/>
<polygon fill="#707070" stroke="#707070" points="474.24,-101.96 484.8,-101.1 476.01,-95.19 474.24,-101.96"/>
</g>
<!-- Service::postgres&#45;&gt;StatefulSet::postgres -->
<g id="edge6" class="edge">
<title>Service::postgres&#45;&gt;StatefulSet::postgres</title>
<path fill="none" stroke="#707070" d="M111.19,-113.25C119.39,-113.87 128.13,-114.53 136.81,-115.19"/>
<polygon fill="#707070" stroke="#707070" points="136.7,-118.7 146.93,-115.96 137.23,-111.72 136.7,-118.7"/>
</g>
</g>
</svg>
