<?xml version="1.0" encoding="UTF-8" standalone="no"?><svg xmlns="http://www.w3.org/2000/svg" xmlns:xlink="http://www.w3.org/1999/xlink" contentScriptType="application/ecmascript" contentStyleType="text/css" height="1358px" preserveAspectRatio="none" style="width:810px;height:1358px;background:#FFFFFF;" version="1.1" viewBox="0 0 810 1358" width="810px" zoomAndPan="magnify"><defs><filter height="300%" id="faybaii1ivwyd" width="300%" x="-1" y="-1"><feGaussianBlur result="blurOut" stdDeviation="2.0"/><feColorMatrix in="blurOut" result="blurOut2" type="matrix" values="0 0 0 0 0 0 0 0 0 0 0 0 0 0 0 0 0 0 .4 0"/><feOffset dx="4.0" dy="4.0" in="blurOut2" result="blurOut3"/><feBlend in="SourceGraphic" in2="blurOut3" mode="normal"/></filter></defs><g><rect fill="none" height="26.4883" style="stroke:none;stroke-width:1.0;" width="233" x="233.5" y="15"/><text fill="#000000" font-family="sans-serif" font-size="14" font-weight="bold" lengthAdjust="spacing" textLength="223" x="238.5" y="33.5352">Resources for project eks-lean</text><rect fill="#F8F8F8" filter="url(#faybaii1ivwyd)" height="36.4883" rx="12.5" ry="12.5" style="stroke:#383838;stroke-width:1.5;" width="52" x="279" y="678.8594"/><text fill="#000000" font-family="sans-serif" font-size="14" lengthAdjust="spacing" textLength="32" x="289" y="702.3945">Infra</text><rect fill="#F8F8F8" filter="url(#faybaii1ivwyd)" height="36.4883" rx="12.5" ry="12.5" style="stroke:#383838;stroke-width:1.5;" width="46" x="381" y="678.8594"/><text fill="#000000" font-family="sans-serif" font-size="14" lengthAdjust="spacing" textLength="26" x="391" y="702.3945">aws</text><rect fill="#F8F8F8" filter="url(#faybaii1ivwyd)" height="36.4883" rx="12.5" ry="12.5" style="stroke:#383838;stroke-width:1.5;" width="128" x="477" y="57.4883"/><text fill="#000000" font-family="sans-serif" font-size="14" lengthAdjust="spacing" textLength="108" x="487" y="81.0234">route53Domain</text><rect fill="#F8F8F8" filter="url(#faybaii1ivwyd)" height="36.4883" rx="12.5" ry="12.5" style="stroke:#383838;stroke-width:1.5;" width="96" x="655" y="57.4883"/><text fill="#000000" font-family="sans-serif" font-size="14" lengthAdjust="spacing" textLength="76" x="665" y="81.0234">Domain (1)</text><path d="M605,75.7324 L615,75.7324 C630,75.7324 630,75.7324 645,75.7324 L655,75.7324 " fill="none" style="stroke:#383838;stroke-width:1.0;"/><path d="M427,697.1035 L437,697.1035 C452,697.1035 452,75.7324 467,75.7324 L477,75.7324 " fill="none" style="stroke:#383838;stroke-width:1.0;"/><rect fill="#F8F8F8" filter="url(#faybaii1ivwyd)" height="36.4883" rx="12.5" ry="12.5" style="stroke:#383838;stroke-width:1.5;" width="75" x="477" y="142.2207"/><text fill="#000000" font-family="sans-serif" font-size="14" lengthAdjust="spacing" textLength="55" x="487" y="165.7559">route53</text><rect fill="#F8F8F8" filter="url(#faybaii1ivwyd)" height="36.4883" rx="12.5" ry="12.5" style="stroke:#383838;stroke-width:1.5;" width="125" x="602" y="113.9766"/><text fill="#000000" font-family="sans-serif" font-size="14" lengthAdjust="spacing" textLength="105" x="612" y="137.5117">HostedZone (1)</text><path d="M552,160.4648 L562,160.4648 C577,160.4648 577,132.2207 592,132.2207 L602,132.2207 " fill="none" style="stroke:#383838;stroke-width:1.0;"/><rect fill="#F8F8F8" filter="url(#faybaii1ivwyd)" height="36.4883" rx="12.5" ry="12.5" style="stroke:#383838;stroke-width:1.5;" width="91" x="602" y="170.4648"/><text fill="#000000" font-family="sans-serif" font-size="14" lengthAdjust="spacing" textLength="71" x="612" y="194">Record (2)</text><path d="M552,160.4648 L562,160.4648 C577,160.4648 577,188.709 592,188.709 L602,188.709 " fill="none" style="stroke:#383838;stroke-width:1.0;"/><path d="M427,697.1035 L437,697.1035 C452,697.1035 452,160.4648 467,160.4648 L477,160.4648 " fill="none" style="stroke:#383838;stroke-width:1.0;"/><rect fill="#F8F8F8" filter="url(#faybaii1ivwyd)" height="36.4883" rx="12.5" ry="12.5" style="stroke:#383838;stroke-width:1.5;" width="48" x="477" y="226.9531"/><text fill="#000000" font-family="sans-serif" font-size="14" lengthAdjust="spacing" textLength="28" x="487" y="250.4883">acm</text><rect fill="#F8F8F8" filter="url(#faybaii1ivwyd)" height="36.4883" rx="12.5" ry="12.5" style="stroke:#383838;stroke-width:1.5;" width="113" x="575" y="226.9531"/><text fill="#000000" font-family="sans-serif" font-size="14" lengthAdjust="spacing" textLength="93" x="585" y="250.4883">Certificate (1)</text><path d="M525,245.1973 L535,245.1973 C550,245.1973 550,245.1973 565,245.1973 L575,245.1973 " fill="none" style="stroke:#383838;stroke-width:1.0;"/><path d="M427,697.1035 L437,697.1035 C452,697.1035 452,245.1973 467,245.1973 L477,245.1973 " fill="none" style="stroke:#383838;stroke-width:1.0;"/><rect fill="#F8F8F8" filter="url(#faybaii1ivwyd)" height="36.4883" rx="12.5" ry="12.5" style="stroke:#383838;stroke-width:1.5;" width="44" x="477" y="537.6387"/><text fill="#000000" font-family="sans-serif" font-size="14" lengthAdjust="spacing" textLength="24" x="487" y="561.1738">ec2</text><rect fill="#F8F8F8" filter="url(#faybaii1ivwyd)" height="36.4883" rx="12.5" ry="12.5" style="stroke:#383838;stroke-width:1.5;" width="68" x="571" y="283.4414"/><text fill="#000000" font-family="sans-serif" font-size="14" lengthAdjust="spacing" textLength="48" x="581" y="306.9766">Vpc (1)</text><path d="M521,555.8828 L531,555.8828 C546,555.8828 546,301.6855 561,301.6855 L571,301.6855 " fill="none" style="stroke:#383838;stroke-width:1.0;"/><rect fill="#F8F8F8" filter="url(#faybaii1ivwyd)" height="36.4883" rx="12.5" ry="12.5" style="stroke:#383838;stroke-width:1.5;" width="154" x="571" y="339.9297"/><text fill="#000000" font-family="sans-serif" font-size="14" lengthAdjust="spacing" textLength="134" x="581" y="363.4648">InternetGateway (1)</text><path d="M521,555.8828 L531,555.8828 C546,555.8828 546,358.1738 561,358.1738 L571,358.1738 " fill="none" style="stroke:#383838;stroke-width:1.0;"/><rect fill="#F8F8F8" filter="url(#faybaii1ivwyd)" height="36.4883" rx="12.5" ry="12.5" style="stroke:#383838;stroke-width:1.5;" width="91" x="571" y="396.418"/><text fill="#000000" font-family="sans-serif" font-size="14" lengthAdjust="spacing" textLength="71" x="581" y="419.9531">Subnet (4)</text><path d="M521,555.8828 L531,555.8828 C546,555.8828 546,414.6621 561,414.6621 L571,414.6621 " fill="none" style="stroke:#383838;stroke-width:1.0;"/><rect fill="#F8F8F8" filter="url(#faybaii1ivwyd)" height="36.4883" rx="12.5" ry="12.5" style="stroke:#383838;stroke-width:1.5;" width="121" x="571" y="452.9063"/><text fill="#000000" font-family="sans-serif" font-size="14" lengthAdjust="spacing" textLength="101" x="581" y="476.4414">RouteTable (3)</text><path d="M521,555.8828 L531,555.8828 C546,555.8828 546,471.1504 561,471.1504 L571,471.1504 " fill="none" style="stroke:#383838;stroke-width:1.0;"/><rect fill="#F8F8F8" filter="url(#faybaii1ivwyd)" height="36.4883" rx="12.5" ry="12.5" style="stroke:#383838;stroke-width:1.5;" width="83" x="571" y="509.3945"/><text fill="#000000" font-family="sans-serif" font-size="14" lengthAdjust="spacing" textLength="63" x="581" y="532.9297">Route (3)</text><path d="M521,555.8828 L531,555.8828 C546,555.8828 546,527.6387 561,527.6387 L571,527.6387 " fill="none" style="stroke:#383838;stroke-width:1.0;"/><rect fill="#F8F8F8" filter="url(#faybaii1ivwyd)" height="36.4883" rx="12.5" ry="12.5" style="stroke:#383838;stroke-width:1.5;" width="155" x="571" y="565.8828"/><text fill="#000000" font-family="sans-serif" font-size="14" lengthAdjust="spacing" textLength="135" x="581" y="589.418">ElasticIpAddress (1)</text><path d="M521,555.8828 L531,555.8828 C546,555.8828 546,584.127 561,584.127 L571,584.127 " fill="none" style="stroke:#383838;stroke-width:1.0;"/><rect fill="#F8F8F8" filter="url(#faybaii1ivwyd)" height="36.4883" rx="12.5" ry="12.5" style="stroke:#383838;stroke-width:1.5;" width="123" x="571" y="622.3711"/><text fill="#000000" font-family="sans-serif" font-size="14" lengthAdjust="spacing" textLength="103" x="581" y="645.9063">NatGateway (1)</text><path d="M521,555.8828 L531,555.8828 C546,555.8828 546,640.6152 561,640.6152 L571,640.6152 " fill="none" style="stroke:#383838;stroke-width:1.0;"/><rect fill="#F8F8F8" filter="url(#faybaii1ivwyd)" height="36.4883" rx="12.5" ry="12.5" style="stroke:#383838;stroke-width:1.5;" width="140" x="571" y="678.8594"/><text fill="#000000" font-family="sans-serif" font-size="14" lengthAdjust="spacing" textLength="120" x="581" y="702.3945">SecurityGroup (4)</text><path d="M521,555.8828 L531,555.8828 C546,555.8828 546,697.1035 561,697.1035 L571,697.1035 " fill="none" style="stroke:#383838;stroke-width:1.0;"/><rect fill="#F8F8F8" filter="url(#faybaii1ivwyd)" height="36.4883" rx="12.5" ry="12.5" style="stroke:#383838;stroke-width:1.5;" width="220" x="571" y="735.3477"/><text fill="#000000" font-family="sans-serif" font-size="14" lengthAdjust="spacing" textLength="200" x="581" y="758.8828">SecurityGroupRuleIngress (6)</text><path d="M521,555.8828 L531,555.8828 C546,555.8828 546,753.5918 561,753.5918 L571,753.5918 " fill="none" style="stroke:#383838;stroke-width:1.0;"/><rect fill="#F8F8F8" filter="url(#faybaii1ivwyd)" height="36.4883" rx="12.5" ry="12.5" style="stroke:#383838;stroke-width:1.5;" width="215" x="571" y="791.8359"/><text fill="#000000" font-family="sans-serif" font-size="14" lengthAdjust="spacing" textLength="195" x="581" y="815.3711">SecurityGroupRuleEgress (1)</text><path d="M521,555.8828 L531,555.8828 C546,555.8828 546,810.0801 561,810.0801 L571,810.0801 " fill="none" style="stroke:#383838;stroke-width:1.0;"/><path d="M427,697.1035 L437,697.1035 C452,697.1035 452,555.8828 467,555.8828 L477,555.8828 " fill="none" style="stroke:#383838;stroke-width:1.0;"/><rect fill="#F8F8F8" filter="url(#faybaii1ivwyd)" height="36.4883" rx="12.5" ry="12.5" style="stroke:#383838;stroke-width:1.5;" width="45" x="477" y="876.5684"/><text fill="#000000" font-family="sans-serif" font-size="14" lengthAdjust="spacing" textLength="25" x="487" y="900.1035">iam</text><rect fill="#F8F8F8" filter="url(#faybaii1ivwyd)" height="36.4883" rx="12.5" ry="12.5" style="stroke:#383838;stroke-width:1.5;" width="82" x="572" y="848.3242"/><text fill="#000000" font-family="sans-serif" font-size="14" lengthAdjust="spacing" textLength="62" x="582" y="871.8594">Policy (5)</text><path d="M522,894.8125 L532,894.8125 C547,894.8125 547,866.5684 562,866.5684 L572,866.5684 " fill="none" style="stroke:#383838;stroke-width:1.0;"/><rect fill="#F8F8F8" filter="url(#faybaii1ivwyd)" height="36.4883" rx="12.5" ry="12.5" style="stroke:#383838;stroke-width:1.5;" width="73" x="572" y="904.8125"/><text fill="#000000" font-family="sans-serif" font-size="14" lengthAdjust="spacing" textLength="53" x="582" y="928.3477">Role (2)</text><path d="M522,894.8125 L532,894.8125 C547,894.8125 547,923.0566 562,923.0566 L572,923.0566 " fill="none" style="stroke:#383838;stroke-width:1.0;"/><path d="M427,697.1035 L437,697.1035 C452,697.1035 452,894.8125 467,894.8125 L477,894.8125 " fill="none" style="stroke:#383838;stroke-width:1.0;"/><rect fill="#F8F8F8" filter="url(#faybaii1ivwyd)" height="36.4883" rx="12.5" ry="12.5" style="stroke:#383838;stroke-width:1.5;" width="48" x="477" y="961.3008"/><text fill="#000000" font-family="sans-serif" font-size="14" lengthAdjust="spacing" textLength="28" x="487" y="984.8359">kms</text><rect fill="#F8F8F8" filter="url(#faybaii1ivwyd)" height="36.4883" rx="12.5" ry="12.5" style="stroke:#383838;stroke-width:1.5;" width="67" x="575" y="961.3008"/><text fill="#000000" font-family="sans-serif" font-size="14" lengthAdjust="spacing" textLength="47" x="585" y="984.8359">Key (1)</text><path d="M525,979.5449 L535,979.5449 C550,979.5449 550,979.5449 565,979.5449 L575,979.5449 " fill="none" style="stroke:#383838;stroke-width:1.0;"/><path d="M427,697.1035 L437,697.1035 C452,697.1035 452,979.5449 467,979.5449 L477,979.5449 " fill="none" style="stroke:#383838;stroke-width:1.0;"/><rect fill="#F8F8F8" filter="url(#faybaii1ivwyd)" height="36.4883" rx="12.5" ry="12.5" style="stroke:#383838;stroke-width:1.5;" width="43" x="477" y="1046.0332"/><text fill="#000000" font-family="sans-serif" font-size="14" lengthAdjust="spacing" textLength="23" x="487" y="1069.5684">eks</text><rect fill="#F8F8F8" filter="url(#faybaii1ivwyd)" height="36.4883" rx="12.5" ry="12.5" style="stroke:#383838;stroke-width:1.5;" width="92" x="570" y="1017.7891"/><text fill="#000000" font-family="sans-serif" font-size="14" lengthAdjust="spacing" textLength="72" x="580" y="1041.3242">Cluster (1)</text><path d="M520,1064.2773 L530,1064.2773 C545,1064.2773 545,1036.0332 560,1036.0332 L570,1036.0332 " fill="none" style="stroke:#383838;stroke-width:1.0;"/><rect fill="#F8F8F8" filter="url(#faybaii1ivwyd)" height="36.4883" rx="12.5" ry="12.5" style="stroke:#383838;stroke-width:1.5;" width="122" x="570" y="1074.2773"/><text fill="#000000" font-family="sans-serif" font-size="14" lengthAdjust="spacing" textLength="102" x="580" y="1097.8125">NodeGroup (1)</text><path d="M520,1064.2773 L530,1064.2773 C545,1064.2773 545,1092.5215 560,1092.5215 L570,1092.5215 " fill="none" style="stroke:#383838;stroke-width:1.0;"/><path d="M427,697.1035 L437,697.1035 C452,697.1035 452,1064.2773 467,1064.2773 L477,1064.2773 " fill="none" style="stroke:#383838;stroke-width:1.0;"/><rect fill="#F8F8F8" filter="url(#faybaii1ivwyd)" height="36.4883" rx="12.5" ry="12.5" style="stroke:#383838;stroke-width:1.5;" width="41" x="477" y="1215.498"/><text fill="#000000" font-family="sans-serif" font-size="14" lengthAdjust="spacing" textLength="21" x="487" y="1239.0332">elb</text><rect fill="#F8F8F8" filter="url(#faybaii1ivwyd)" height="36.4883" rx="12.5" ry="12.5" style="stroke:#383838;stroke-width:1.5;" width="134" x="568" y="1130.7656"/><text fill="#000000" font-family="sans-serif" font-size="14" lengthAdjust="spacing" textLength="114" x="578" y="1154.3008">LoadBalancer (1)</text><path d="M518,1233.7422 L528,1233.7422 C543,1233.7422 543,1149.0098 558,1149.0098 L568,1149.0098 " fill="none" style="stroke:#383838;stroke-width:1.0;"/><rect fill="#F8F8F8" filter="url(#faybaii1ivwyd)" height="36.4883" rx="12.5" ry="12.5" style="stroke:#383838;stroke-width:1.5;" width="131" x="568" y="1187.2539"/><text fill="#000000" font-family="sans-serif" font-size="14" lengthAdjust="spacing" textLength="111" x="578" y="1210.7891">TargetGroup (2)</text><path d="M518,1233.7422 L528,1233.7422 C543,1233.7422 543,1205.498 558,1205.498 L568,1205.498 " fill="none" style="stroke:#383838;stroke-width:1.0;"/><rect fill="#F8F8F8" filter="url(#faybaii1ivwyd)" height="36.4883" rx="12.5" ry="12.5" style="stroke:#383838;stroke-width:1.5;" width="97" x="568" y="1243.7422"/><text fill="#000000" font-family="sans-serif" font-size="14" lengthAdjust="spacing" textLength="77" x="578" y="1267.2773">Listener (2)</text><path d="M518,1233.7422 L528,1233.7422 C543,1233.7422 543,1261.9863 558,1261.9863 L568,1261.9863 " fill="none" style="stroke:#383838;stroke-width:1.0;"/><rect fill="#F8F8F8" filter="url(#faybaii1ivwyd)" height="36.4883" rx="12.5" ry="12.5" style="stroke:#383838;stroke-width:1.5;" width="73" x="568" y="1300.2305"/><text fill="#000000" font-family="sans-serif" font-size="14" lengthAdjust="spacing" textLength="53" x="578" y="1323.7656">Rule (3)</text><path d="M518,1233.7422 L528,1233.7422 C543,1233.7422 543,1318.4746 558,1318.4746 L568,1318.4746 " fill="none" style="stroke:#383838;stroke-width:1.0;"/><path d="M427,697.1035 L437,697.1035 C452,697.1035 452,1233.7422 467,1233.7422 L477,1233.7422 " fill="none" style="stroke:#383838;stroke-width:1.0;"/><path d="M331,697.1035 L341,697.1035 C356,697.1035 356,697.1035 371,697.1035 L381,697.1035 " fill="none" style="stroke:#383838;stroke-width:1.0;"/><rect fill="#F8F8F8" filter="url(#faybaii1ivwyd)" height="36.4883" rx="12.5" ry="12.5" style="stroke:#383838;stroke-width:1.5;" width="44" x="185" y="678.8594"/><text fill="#000000" font-family="sans-serif" font-size="14" lengthAdjust="spacing" textLength="24" x="195" y="702.3945">k8s</text><rect fill="#F8F8F8" filter="url(#faybaii1ivwyd)" height="36.4883" rx="12.5" ry="12.5" style="stroke:#383838;stroke-width:1.5;" width="121" x="14" y="565.8828"/><text fill="#000000" font-family="sans-serif" font-size="14" lengthAdjust="spacing" textLength="101" x="24" y="589.418">Namespace (1)</text><path d="M185,697.1035 L175,697.1035 C160,697.1035 160,584.127 145,584.127 L135,584.127 " fill="none" style="stroke:#383838;stroke-width:1.0;"/><rect fill="#F8F8F8" filter="url(#faybaii1ivwyd)" height="36.4883" rx="12.5" ry="12.5" style="stroke:#383838;stroke-width:1.5;" width="118" x="17" y="622.3711"/><text fill="#000000" font-family="sans-serif" font-size="14" lengthAdjust="spacing" textLength="98" x="27" y="645.9063">ConfigMap (2)</text><path d="M185,697.1035 L175,697.1035 C160,697.1035 160,640.6152 145,640.6152 L135,640.6152 " fill="none" style="stroke:#383838;stroke-width:1.0;"/><rect fill="#F8F8F8" filter="url(#faybaii1ivwyd)" height="36.4883" rx="12.5" ry="12.5" style="stroke:#383838;stroke-width:1.5;" width="116" x="19" y="678.8594"/><text fill="#000000" font-family="sans-serif" font-size="14" lengthAdjust="spacing" textLength="96" x="29" y="702.3945">StatefulSet (2)</text><path d="M185,697.1035 L175,697.1035 C160,697.1035 160,697.1035 145,697.1035 L135,697.1035 " fill="none" style="stroke:#383838;stroke-width:1.0;"/><rect fill="#F8F8F8" filter="url(#faybaii1ivwyd)" height="36.4883" rx="12.5" ry="12.5" style="stroke:#383838;stroke-width:1.5;" width="91" x="44" y="735.3477"/><text fill="#000000" font-family="sans-serif" font-size="14" lengthAdjust="spacing" textLength="71" x="54" y="758.8828">Service (4)</text><path d="M185,697.1035 L175,697.1035 C160,697.1035 160,753.5918 145,753.5918 L135,753.5918 " fill="none" style="stroke:#383838;stroke-width:1.0;"/><rect fill="#F8F8F8" filter="url(#faybaii1ivwyd)" height="36.4883" rx="12.5" ry="12.5" style="stroke:#383838;stroke-width:1.5;" width="125" x="10" y="791.8359"/><text fill="#000000" font-family="sans-serif" font-size="14" lengthAdjust="spacing" textLength="105" x="20" y="815.3711">Deployment (2)</text><path d="M185,697.1035 L175,697.1035 C160,697.1035 160,810.0801 145,810.0801 L135,810.0801 " fill="none" style="stroke:#383838;stroke-width:1.0;"/><path d="M279,697.1035 L269,697.1035 C254,697.1035 254,697.1035 239,697.1035 L229,697.1035 " fill="none" style="stroke:#383838;stroke-width:1.0;"/><!--MD5=[2c61f57c4efa85822c02bc1d9257a7b4]
@startmindmap
title Resources for project eks-lean
skinparam monochrome true
+ Infra
++ aws
+++ route53Domain
++++ Domain (1)
+++ route53
++++ HostedZone (1)
++++ Record (2)
+++ acm
++++ Certificate (1)
+++ ec2
++++ Vpc (1)
++++ InternetGateway (1)
++++ Subnet (4)
++++ RouteTable (3)
++++ Route (3)
++++ ElasticIpAddress (1)
++++ NatGateway (1)
++++ SecurityGroup (4)
++++ SecurityGroupRuleIngress (6)
++++ SecurityGroupRuleEgress (1)
+++ iam
++++ Policy (5)
++++ Role (2)
+++ kms
++++ Key (1)
+++ eks
++++ Cluster (1)
++++ NodeGroup (1)
+++ elb
++++ LoadBalancer (1)
++++ TargetGroup (2)
++++ Listener (2)
++++ Rule (3)
- - k8s
- - - Namespace (1)
- - - ConfigMap (2)
- - - StatefulSet (2)
- - - Service (4)
- - - Deployment (2)
@endmindmap

PlantUML version 1.2021.8(Sat Jun 26 10:20:59 CEST 2021)
(GPL source distribution)
Java Runtime: OpenJDK Runtime Environment
JVM: OpenJDK 64-Bit Server VM
Default Encoding: UTF-8
Language: en
Country: GB
--></g></svg>