<?xml version="1.0" encoding="UTF-8" standalone="no"?>
<!DOCTYPE svg PUBLIC "-//W3C//DTD SVG 1.1//EN"
 "http://www.w3.org/Graphics/SVG/1.1/DTD/svg11.dtd">
<!-- Generated by graphviz version 7.1.0 (20230121.1956)
 -->
<!-- Title: graphname Pages: 1 -->
<svg width="987pt" height="541pt"
 viewBox="0.00 0.00 987.00 541.00" xmlns="http://www.w3.org/2000/svg" xmlns:xlink="http://www.w3.org/1999/xlink">
<g id="graph0" class="graph" transform="scale(1 1) rotate(0) translate(4 537)">
<title>graphname</title>
<polygon fill="#fafafa" stroke="none" points="-4,4 -4,-537 983,-537 983,4 -4,4"/>
<text text-anchor="start" x="118.5" y="-508.4" font-family="Helvetica,sans-Serif" font-weight="bold" font-size="22.00" fill="#383838">Project eventbridge&#45;pipes&#45;sqs&#45;to&#45;lambda&#45;with&#45;stepfunction&#45;enrichment</text>
<text text-anchor="start" x="486" y="-492.8" font-family="Helvetica,sans-Serif" font-size="14.00"> &#160;</text>
<text text-anchor="start" x="118.5" y="-471.2" font-family="Helvetica,sans-Serif" font-weight="bold" font-size="16.00" fill="#707070">Target Diagram</text>
<g id="clust1" class="cluster">
<title>cluster_aws</title>
<polygon fill="#f5f5f5" stroke="#f5f5f5" points="8,-8 8,-449 971,-449 971,-8 8,-8"/>
<text text-anchor="start" x="427.5" y="-23" font-family="Helvetica,sans-Serif" font-weight="bold" font-size="20.00" fill="#707070">Provider aws</text>
</g>
<g id="clust2" class="cluster">
<title>cluster_aws_</title>
<polygon fill="#eeeeee" stroke="#eeeeee" points="16,-54 16,-441 963,-441 963,-54 16,-54"/>
<text text-anchor="start" x="489.36" y="-58.3" font-family="Helvetica,sans-Serif" font-size="1.00" fill="#383838"> </text>
</g>
<!-- LogGroup::stepfunctions/StateMachine -->
<g id="node1" class="node">
<title>LogGroup::stepfunctions/StateMachine</title>
<polygon fill="#e5e5e5" stroke="#dddddd" points="923,-243 680,-243 680,-185 923,-185 923,-243"/>
<text text-anchor="start" x="692.5" y="-223.2" font-family="Helvetica,sans-Serif" font-weight="bold" font-size="16.00" fill="#707070">CloudWatchLogs::LogGroup</text>
<text text-anchor="start" x="692.5" y="-198.2" font-family="Helvetica,sans-Serif" font-size="16.00" fill="#383838">stepfunctions/StateMachine</text>
</g>
<!-- Table::sam&#45;app&#45;orders -->
<g id="node2" class="node">
<title>Table::sam&#45;app&#45;orders</title>
<polygon fill="#e5e5e5" stroke="#dddddd" points="217,-414 56,-414 56,-356 217,-356 217,-414"/>
<text text-anchor="start" x="68.5" y="-394.2" font-family="Helvetica,sans-Serif" font-weight="bold" font-size="16.00" fill="#707070">DynamoDB::Table</text>
<text text-anchor="start" x="68.5" y="-369.2" font-family="Helvetica,sans-Serif" font-size="16.00" fill="#383838">sam&#45;app&#45;orders</text>
</g>
<!-- Role::sam&#45;app&#45;EnrichmentStateMachineRole&#45;VHHJR3QAFHSP -->
<g id="node3" class="node">
<title>Role::sam&#45;app&#45;EnrichmentStateMachineRole&#45;VHHJR3QAFHSP</title>
<polygon fill="#e5e5e5" stroke="#dddddd" points="955,-319 648,-319 648,-261 955,-261 955,-319"/>
<text text-anchor="start" x="660.5" y="-299.2" font-family="Helvetica,sans-Serif" font-weight="bold" font-size="16.00" fill="#707070">IAM::Role</text>
<text text-anchor="start" x="660.5" y="-274.2" font-family="Helvetica,sans-Serif" font-size="16.00" fill="#383838">sam&#45;app&#45;EnrichmentStateMachineRo...</text>
</g>
<!-- Role::sam&#45;app&#45;PipeRole&#45;HY6EHVTRSCJE -->
<g id="node4" class="node">
<title>Role::sam&#45;app&#45;PipeRole&#45;HY6EHVTRSCJE</title>
<polygon fill="#e5e5e5" stroke="#dddddd" points="592.5,-357 304.5,-357 304.5,-299 592.5,-299 592.5,-357"/>
<text text-anchor="start" x="316.5" y="-337.2" font-family="Helvetica,sans-Serif" font-weight="bold" font-size="16.00" fill="#707070">IAM::Role</text>
<text text-anchor="start" x="316.5" y="-312.2" font-family="Helvetica,sans-Serif" font-size="16.00" fill="#383838">sam&#45;app&#45;PipeRole&#45;HY6EHVTRSCJE</text>
</g>
<!-- Role::sam&#45;app&#45;TargetRole&#45;J97H5E26J5AT -->
<g id="node5" class="node">
<title>Role::sam&#45;app&#45;TargetRole&#45;J97H5E26J5AT</title>
<polygon fill="#e5e5e5" stroke="#dddddd" points="945,-433 658,-433 658,-375 945,-375 945,-433"/>
<text text-anchor="start" x="670.5" y="-413.2" font-family="Helvetica,sans-Serif" font-weight="bold" font-size="16.00" fill="#707070">IAM::Role</text>
<text text-anchor="start" x="670.5" y="-388.2" font-family="Helvetica,sans-Serif" font-size="16.00" fill="#383838">sam&#45;app&#45;TargetRole&#45;J97H5E26J5AT</text>
</g>
<!-- Function::sam&#45;app&#45;target&#45;lambda -->
<g id="node6" class="node">
<title>Function::sam&#45;app&#45;target&#45;lambda</title>
<polygon fill="#e5e5e5" stroke="#dddddd" points="545,-433 352,-433 352,-375 545,-375 545,-433"/>
<text text-anchor="start" x="364.5" y="-413.2" font-family="Helvetica,sans-Serif" font-weight="bold" font-size="16.00" fill="#707070">Lambda::Function</text>
<text text-anchor="start" x="364.5" y="-388.2" font-family="Helvetica,sans-Serif" font-size="16.00" fill="#383838">sam&#45;app&#45;target&#45;lambda</text>
</g>
<!-- Function::sam&#45;app&#45;target&#45;lambda&#45;&gt;Role::sam&#45;app&#45;TargetRole&#45;J97H5E26J5AT -->
<g id="edge1" class="edge">
<title>Function::sam&#45;app&#45;target&#45;lambda&#45;&gt;Role::sam&#45;app&#45;TargetRole&#45;J97H5E26J5AT</title>
<path fill="none" stroke="#707070" d="M545.41,-404C576.64,-404 612.13,-404 646.51,-404"/>
<polygon fill="#707070" stroke="#707070" points="646.11,-407.5 656.11,-404 646.11,-400.5 646.11,-407.5"/>
</g>
<!-- Pipe::sam&#45;app&#45;sqs&#45;lambda -->
<g id="node7" class="node">
<title>Pipe::sam&#45;app&#45;sqs&#45;lambda</title>
<polygon fill="#e5e5e5" stroke="#dddddd" points="225,-300 48,-300 48,-242 225,-242 225,-300"/>
<text text-anchor="start" x="60.5" y="-280.2" font-family="Helvetica,sans-Serif" font-weight="bold" font-size="16.00" fill="#707070">Pipes::Pipe</text>
<text text-anchor="start" x="60.5" y="-255.2" font-family="Helvetica,sans-Serif" font-size="16.00" fill="#383838">sam&#45;app&#45;sqs&#45;lambda</text>
</g>
<!-- Pipe::sam&#45;app&#45;sqs&#45;lambda&#45;&gt;Role::sam&#45;app&#45;PipeRole&#45;HY6EHVTRSCJE -->
<g id="edge2" class="edge">
<title>Pipe::sam&#45;app&#45;sqs&#45;lambda&#45;&gt;Role::sam&#45;app&#45;PipeRole&#45;HY6EHVTRSCJE</title>
<path fill="none" stroke="#707070" d="M225.09,-287.11C246.34,-291.01 269.7,-295.31 293.03,-299.6"/>
<polygon fill="#707070" stroke="#707070" points="292.15,-302.99 302.62,-301.36 293.42,-296.11 292.15,-302.99"/>
</g>
<!-- Pipe::sam&#45;app&#45;sqs&#45;lambda&#45;&gt;Function::sam&#45;app&#45;target&#45;lambda -->
<g id="edge5" class="edge">
<title>Pipe::sam&#45;app&#45;sqs&#45;lambda&#45;&gt;Function::sam&#45;app&#45;target&#45;lambda</title>
<path fill="none" stroke="#707070" d="M179.5,-300.34C215.05,-324.75 263.55,-356.91 285,-366 302.5,-373.42 321.71,-379.53 340.6,-384.52"/>
<polygon fill="#707070" stroke="#707070" points="339.65,-387.89 350.2,-386.96 341.37,-381.11 339.65,-387.89"/>
</g>
<!-- Queue::sam&#45;app&#45;source&#45;queue -->
<g id="node8" class="node">
<title>Queue::sam&#45;app&#45;source&#45;queue</title>
<polygon fill="#e5e5e5" stroke="#dddddd" points="544.5,-205 352.5,-205 352.5,-147 544.5,-147 544.5,-205"/>
<text text-anchor="start" x="364.5" y="-185.2" font-family="Helvetica,sans-Serif" font-weight="bold" font-size="16.00" fill="#707070">SQS::Queue</text>
<text text-anchor="start" x="364.5" y="-160.2" font-family="Helvetica,sans-Serif" font-size="16.00" fill="#383838">sam&#45;app&#45;source&#45;queue</text>
</g>
<!-- Pipe::sam&#45;app&#45;sqs&#45;lambda&#45;&gt;Queue::sam&#45;app&#45;source&#45;queue -->
<g id="edge3" class="edge">
<title>Pipe::sam&#45;app&#45;sqs&#45;lambda&#45;&gt;Queue::sam&#45;app&#45;source&#45;queue</title>
<path fill="none" stroke="#707070" d="M207.7,-241.58C231.93,-232.04 259.42,-221.89 285,-214 303.05,-208.43 322.45,-203.23 341.34,-198.58"/>
<polygon fill="#707070" stroke="#707070" points="342.02,-202.02 350.91,-196.26 340.37,-195.21 342.02,-202.02"/>
</g>
<!-- StateMachine::EnrichmentStateMachine&#45;qfZFOX1lZ2S6 -->
<g id="node11" class="node">
<title>StateMachine::EnrichmentStateMachine&#45;qfZFOX1lZ2S6</title>
<polygon fill="#e5e5e5" stroke="#dddddd" points="600,-281 297,-281 297,-223 600,-223 600,-281"/>
<text text-anchor="start" x="309.5" y="-261.2" font-family="Helvetica,sans-Serif" font-weight="bold" font-size="16.00" fill="#707070">StepFunctions::StateMachine</text>
<text text-anchor="start" x="309.5" y="-236.2" font-family="Helvetica,sans-Serif" font-size="16.00" fill="#383838">EnrichmentStateMachine&#45;qfZFOX1lZ...</text>
</g>
<!-- Pipe::sam&#45;app&#45;sqs&#45;lambda&#45;&gt;StateMachine::EnrichmentStateMachine&#45;qfZFOX1lZ2S6 -->
<g id="edge4" class="edge">
<title>Pipe::sam&#45;app&#45;sqs&#45;lambda&#45;&gt;StateMachine::EnrichmentStateMachine&#45;qfZFOX1lZ2S6</title>
<path fill="none" stroke="#707070" d="M225.09,-265.63C244.06,-264.47 264.71,-263.2 285.52,-261.93"/>
<polygon fill="#707070" stroke="#707070" points="285.47,-265.44 295.24,-261.33 285.04,-258.45 285.47,-265.44"/>
</g>
<!-- Queue::sam&#45;app&#45;SourceQueueDLQ&#45;yjrSLFwMCnw1 -->
<g id="node9" class="node">
<title>Queue::sam&#45;app&#45;SourceQueueDLQ&#45;yjrSLFwMCnw1</title>
<polygon fill="#e5e5e5" stroke="#dddddd" points="612,-129 285,-129 285,-71 612,-71 612,-129"/>
<text text-anchor="start" x="297.5" y="-109.2" font-family="Helvetica,sans-Serif" font-weight="bold" font-size="16.00" fill="#707070">SQS::Queue</text>
<text text-anchor="start" x="297.5" y="-84.2" font-family="Helvetica,sans-Serif" font-size="16.00" fill="#383838">sam&#45;app&#45;SourceQueueDLQ&#45;yjrSLFwMC...</text>
</g>
<!-- QueueRedrivePolicy::sam&#45;app&#45;source&#45;queue -->
<g id="node10" class="node">
<title>QueueRedrivePolicy::sam&#45;app&#45;source&#45;queue</title>
<polygon fill="#e5e5e5" stroke="#dddddd" points="249,-167 24,-167 24,-109 249,-109 249,-167"/>
<text text-anchor="start" x="36.5" y="-147.2" font-family="Helvetica,sans-Serif" font-weight="bold" font-size="16.00" fill="#707070">SQS::QueueRedrivePolicy</text>
<text text-anchor="start" x="36.5" y="-122.2" font-family="Helvetica,sans-Serif" font-size="16.00" fill="#383838">sam&#45;app&#45;source&#45;queue</text>
</g>
<!-- QueueRedrivePolicy::sam&#45;app&#45;source&#45;queue&#45;&gt;Queue::sam&#45;app&#45;source&#45;queue -->
<g id="edge6" class="edge">
<title>QueueRedrivePolicy::sam&#45;app&#45;source&#45;queue&#45;&gt;Queue::sam&#45;app&#45;source&#45;queue</title>
<path fill="none" stroke="#707070" d="M249.42,-151.72C279.25,-155.38 311.4,-159.32 340.94,-162.94"/>
<polygon fill="#707070" stroke="#707070" points="340.26,-166.38 350.62,-164.12 341.12,-159.43 340.26,-166.38"/>
</g>
<!-- QueueRedrivePolicy::sam&#45;app&#45;source&#45;queue&#45;&gt;Queue::sam&#45;app&#45;SourceQueueDLQ&#45;yjrSLFwMCnw1 -->
<g id="edge7" class="edge">
<title>QueueRedrivePolicy::sam&#45;app&#45;source&#45;queue&#45;&gt;Queue::sam&#45;app&#45;SourceQueueDLQ&#45;yjrSLFwMCnw1</title>
<path fill="none" stroke="#707070" d="M249.42,-124.28C257.35,-123.31 265.44,-122.32 273.6,-121.32"/>
<polygon fill="#707070" stroke="#707070" points="273.77,-124.82 283.27,-120.13 272.92,-117.87 273.77,-124.82"/>
</g>
<!-- StateMachine::EnrichmentStateMachine&#45;qfZFOX1lZ2S6&#45;&gt;LogGroup::stepfunctions/StateMachine -->
<g id="edge9" class="edge">
<title>StateMachine::EnrichmentStateMachine&#45;qfZFOX1lZ2S6&#45;&gt;LogGroup::stepfunctions/StateMachine</title>
<path fill="none" stroke="#707070" d="M600.39,-235.66C623.04,-233.21 646.25,-230.7 668.47,-228.29"/>
<polygon fill="#707070" stroke="#707070" points="668.57,-231.8 678.13,-227.25 667.81,-224.84 668.57,-231.8"/>
</g>
<!-- StateMachine::EnrichmentStateMachine&#45;qfZFOX1lZ2S6&#45;&gt;Role::sam&#45;app&#45;EnrichmentStateMachineRole&#45;VHHJR3QAFHSP -->
<g id="edge8" class="edge">
<title>StateMachine::EnrichmentStateMachine&#45;qfZFOX1lZ2S6&#45;&gt;Role::sam&#45;app&#45;EnrichmentStateMachineRole&#45;VHHJR3QAFHSP</title>
<path fill="none" stroke="#707070" d="M600.39,-268.34C612.22,-269.62 624.2,-270.91 636.11,-272.2"/>
<polygon fill="#707070" stroke="#707070" points="635.68,-275.68 646,-273.27 636.43,-268.72 635.68,-275.68"/>
</g>
</g>
</svg>
