<?xml version="1.0" encoding="UTF-8" standalone="no"?>
<!DOCTYPE svg PUBLIC "-//W3C//DTD SVG 1.1//EN"
 "http://www.w3.org/Graphics/SVG/1.1/DTD/svg11.dtd">
<!-- Generated by graphviz version 6.0.0 (20220910.1538)
 -->
<!-- Title: graphname Pages: 1 -->
<svg width="1460pt" height="465pt"
 viewBox="0.00 0.00 1460.00 465.00" xmlns="http://www.w3.org/2000/svg" xmlns:xlink="http://www.w3.org/1999/xlink">
<g id="graph0" class="graph" transform="scale(1 1) rotate(0) translate(4 461)">
<title>graphname</title>
<polygon fill="#fafafa" stroke="none" points="-4,4 -4,-461 1456,-461 1456,4 -4,4"/>
<text text-anchor="start" x="355" y="-432.4" font-family="Helvetica,sans-Serif" font-weight="bold" font-size="22.00" fill="#383838">Project eventbridge&#45;pipes&#45;sqs&#45;to&#45;lambda&#45;with&#45;stepfunction&#45;enrichment</text>
<text text-anchor="start" x="722.5" y="-416.8" font-family="Helvetica,sans-Serif" font-size="14.00"> &#160;</text>
<text text-anchor="start" x="355" y="-395.2" font-family="Helvetica,sans-Serif" font-weight="bold" font-size="16.00" fill="#707070">Target Diagram</text>
<g id="clust1" class="cluster">
<title>cluster_aws</title>
<polygon fill="#f5f5f5" stroke="#f5f5f5" points="8,-8 8,-373 1444,-373 1444,-8 8,-8"/>
<text text-anchor="start" x="664" y="-23" font-family="Helvetica,sans-Serif" font-weight="bold" font-size="20.00" fill="#707070">Provider aws</text>
</g>
<g id="clust2" class="cluster">
<title>cluster_aws_</title>
<polygon fill="#eeeeee" stroke="#eeeeee" points="16,-54 16,-365 1436,-365 1436,-54 16,-54"/>
<text text-anchor="start" x="725.86" y="-58.3" font-family="Helvetica,sans-Serif" font-size="1.00" fill="#383838"> </text>
</g>
<!-- LogGroup::stepfunctions/StateMachine -->
<g id="node1" class="node">
<title>LogGroup::stepfunctions/StateMachine</title>
<polygon fill="#e5e5e5" stroke="#dddddd" points="1199,-281 956,-281 956,-223 1199,-223 1199,-281"/>
<text text-anchor="start" x="968.5" y="-261.2" font-family="Helvetica,sans-Serif" font-weight="bold" font-size="16.00" fill="#707070">CloudWatchLogs::LogGroup</text>
<text text-anchor="start" x="968.5" y="-236.2" font-family="Helvetica,sans-Serif" font-size="16.00" fill="#383838">stepfunctions/StateMachine</text>
</g>
<!-- Table::sam&#45;app&#45;orders -->
<g id="node2" class="node">
<title>Table::sam&#45;app&#45;orders</title>
<polygon fill="#e5e5e5" stroke="#dddddd" points="1428,-357 1267,-357 1267,-299 1428,-299 1428,-357"/>
<text text-anchor="start" x="1279.5" y="-337.2" font-family="Helvetica,sans-Serif" font-weight="bold" font-size="16.00" fill="#707070">DynamoDB::Table</text>
<text text-anchor="start" x="1279.5" y="-312.2" font-family="Helvetica,sans-Serif" font-size="16.00" fill="#383838">sam&#45;app&#45;orders</text>
</g>
<!-- Role::sam&#45;app&#45;EnrichmentStateMachineRole&#45;VHHJR3QAFHSP -->
<g id="node3" class="node">
<title>Role::sam&#45;app&#45;EnrichmentStateMachineRole&#45;VHHJR3QAFHSP</title>
<polygon fill="#e5e5e5" stroke="#dddddd" points="1231,-357 924,-357 924,-299 1231,-299 1231,-357"/>
<text text-anchor="start" x="936.5" y="-337.2" font-family="Helvetica,sans-Serif" font-weight="bold" font-size="16.00" fill="#707070">IAM::Role</text>
<text text-anchor="start" x="936.5" y="-312.2" font-family="Helvetica,sans-Serif" font-size="16.00" fill="#383838">sam&#45;app&#45;EnrichmentStateMachineRo...</text>
</g>
<!-- Role::sam&#45;app&#45;EnrichmentStateMachineRole&#45;VHHJR3QAFHSP&#45;&gt;Table::sam&#45;app&#45;orders -->
<g id="edge1" class="edge">
<title>Role::sam&#45;app&#45;EnrichmentStateMachineRole&#45;VHHJR3QAFHSP&#45;&gt;Table::sam&#45;app&#45;orders</title>
<path fill="none" stroke="#707070" d="M1231.29,-328C1239.98,-328 1248.56,-328 1256.89,-328"/>
<polygon fill="#707070" stroke="#707070" points="1256.91,-331.5 1266.91,-328 1256.91,-324.5 1256.91,-331.5"/>
</g>
<!-- Role::sam&#45;app&#45;PipeRole&#45;HY6EHVTRSCJE -->
<g id="node4" class="node">
<title>Role::sam&#45;app&#45;PipeRole&#45;HY6EHVTRSCJE</title>
<polygon fill="#e5e5e5" stroke="#dddddd" points="525,-309 237,-309 237,-251 525,-251 525,-309"/>
<text text-anchor="start" x="249" y="-289.2" font-family="Helvetica,sans-Serif" font-weight="bold" font-size="16.00" fill="#707070">IAM::Role</text>
<text text-anchor="start" x="249" y="-264.2" font-family="Helvetica,sans-Serif" font-size="16.00" fill="#383838">sam&#45;app&#45;PipeRole&#45;HY6EHVTRSCJE</text>
</g>
<!-- Queue::sam&#45;app&#45;source&#45;queue -->
<g id="node8" class="node">
<title>Queue::sam&#45;app&#45;source&#45;queue</title>
<polygon fill="#e5e5e5" stroke="#dddddd" points="820.5,-281 628.5,-281 628.5,-223 820.5,-223 820.5,-281"/>
<text text-anchor="start" x="640.5" y="-261.2" font-family="Helvetica,sans-Serif" font-weight="bold" font-size="16.00" fill="#707070">SQS::Queue</text>
<text text-anchor="start" x="640.5" y="-236.2" font-family="Helvetica,sans-Serif" font-size="16.00" fill="#383838">sam&#45;app&#45;source&#45;queue</text>
</g>
<!-- Role::sam&#45;app&#45;PipeRole&#45;HY6EHVTRSCJE&#45;&gt;Queue::sam&#45;app&#45;source&#45;queue -->
<g id="edge2" class="edge">
<title>Role::sam&#45;app&#45;PipeRole&#45;HY6EHVTRSCJE&#45;&gt;Queue::sam&#45;app&#45;source&#45;queue</title>
<path fill="none" stroke="#707070" d="M525.34,-268.25C556.45,-265.7 588.8,-263.04 618.12,-260.64"/>
<polygon fill="#707070" stroke="#707070" points="618.68,-264.11 628.36,-259.8 618.1,-257.13 618.68,-264.11"/>
</g>
<!-- StateMachine::EnrichmentStateMachine&#45;qfZFOX1lZ2S6 -->
<g id="node11" class="node">
<title>StateMachine::EnrichmentStateMachine&#45;qfZFOX1lZ2S6</title>
<polygon fill="#e5e5e5" stroke="#dddddd" points="876,-357 573,-357 573,-299 876,-299 876,-357"/>
<text text-anchor="start" x="585.5" y="-337.2" font-family="Helvetica,sans-Serif" font-weight="bold" font-size="16.00" fill="#707070">StepFunctions::StateMachine</text>
<text text-anchor="start" x="585.5" y="-312.2" font-family="Helvetica,sans-Serif" font-size="16.00" fill="#383838">EnrichmentStateMachine&#45;qfZFOX1lZ...</text>
</g>
<!-- Role::sam&#45;app&#45;PipeRole&#45;HY6EHVTRSCJE&#45;&gt;StateMachine::EnrichmentStateMachine&#45;qfZFOX1lZ2S6 -->
<g id="edge3" class="edge">
<title>Role::sam&#45;app&#45;PipeRole&#45;HY6EHVTRSCJE&#45;&gt;StateMachine::EnrichmentStateMachine&#45;qfZFOX1lZ2S6</title>
<path fill="none" stroke="#707070" d="M525.34,-300.15C537.73,-301.89 550.31,-303.66 562.82,-305.42"/>
<polygon fill="#707070" stroke="#707070" points="562.45,-308.9 572.84,-306.82 563.42,-301.97 562.45,-308.9"/>
</g>
<!-- Role::sam&#45;app&#45;TargetRole&#45;J97H5E26J5AT -->
<g id="node5" class="node">
<title>Role::sam&#45;app&#45;TargetRole&#45;J97H5E26J5AT</title>
<polygon fill="#e5e5e5" stroke="#dddddd" points="868,-129 581,-129 581,-71 868,-71 868,-129"/>
<text text-anchor="start" x="593.5" y="-109.2" font-family="Helvetica,sans-Serif" font-weight="bold" font-size="16.00" fill="#707070">IAM::Role</text>
<text text-anchor="start" x="593.5" y="-84.2" font-family="Helvetica,sans-Serif" font-size="16.00" fill="#383838">sam&#45;app&#45;TargetRole&#45;J97H5E26J5AT</text>
</g>
<!-- Function::sam&#45;app&#45;target&#45;lambda -->
<g id="node6" class="node">
<title>Function::sam&#45;app&#45;target&#45;lambda</title>
<polygon fill="#e5e5e5" stroke="#dddddd" points="477.5,-133 284.5,-133 284.5,-75 477.5,-75 477.5,-133"/>
<text text-anchor="start" x="297" y="-113.2" font-family="Helvetica,sans-Serif" font-weight="bold" font-size="16.00" fill="#707070">Lambda::Function</text>
<text text-anchor="start" x="297" y="-88.2" font-family="Helvetica,sans-Serif" font-size="16.00" fill="#383838">sam&#45;app&#45;target&#45;lambda</text>
</g>
<!-- Function::sam&#45;app&#45;target&#45;lambda&#45;&gt;Role::sam&#45;app&#45;TargetRole&#45;J97H5E26J5AT -->
<g id="edge4" class="edge">
<title>Function::sam&#45;app&#45;target&#45;lambda&#45;&gt;Role::sam&#45;app&#45;TargetRole&#45;J97H5E26J5AT</title>
<path fill="none" stroke="#707070" d="M477.58,-102.88C506.51,-102.54 539.04,-102.16 570.74,-101.79"/>
<polygon fill="#707070" stroke="#707070" points="571.04,-105.29 581,-101.67 570.95,-98.29 571.04,-105.29"/>
</g>
<!-- Pipe::sam&#45;app&#45;sqs&#45;lambda -->
<g id="node7" class="node">
<title>Pipe::sam&#45;app&#45;sqs&#45;lambda</title>
<polygon fill="#e5e5e5" stroke="#dddddd" points="201,-285 24,-285 24,-227 201,-227 201,-285"/>
<text text-anchor="start" x="36.5" y="-265.2" font-family="Helvetica,sans-Serif" font-weight="bold" font-size="16.00" fill="#707070">Pipes::Pipe</text>
<text text-anchor="start" x="36.5" y="-240.2" font-family="Helvetica,sans-Serif" font-size="16.00" fill="#383838">sam&#45;app&#45;sqs&#45;lambda</text>
</g>
<!-- Pipe::sam&#45;app&#45;sqs&#45;lambda&#45;&gt;Role::sam&#45;app&#45;PipeRole&#45;HY6EHVTRSCJE -->
<g id="edge5" class="edge">
<title>Pipe::sam&#45;app&#45;sqs&#45;lambda&#45;&gt;Role::sam&#45;app&#45;PipeRole&#45;HY6EHVTRSCJE</title>
<path fill="none" stroke="#707070" d="M201.13,-263.89C209.42,-264.64 217.97,-265.41 226.64,-266.19"/>
<polygon fill="#707070" stroke="#707070" points="226.59,-269.7 236.87,-267.11 227.22,-262.73 226.59,-269.7"/>
</g>
<!-- Pipe::sam&#45;app&#45;sqs&#45;lambda&#45;&gt;Function::sam&#45;app&#45;target&#45;lambda -->
<g id="edge8" class="edge">
<title>Pipe::sam&#45;app&#45;sqs&#45;lambda&#45;&gt;Function::sam&#45;app&#45;target&#45;lambda</title>
<path fill="none" stroke="#707070" d="M137.49,-226.94C160.45,-200.98 197.36,-163.79 237,-142 248.77,-135.53 261.71,-130.11 274.83,-125.6"/>
<polygon fill="#707070" stroke="#707070" points="276,-128.9 284.41,-122.46 273.82,-122.25 276,-128.9"/>
</g>
<!-- Pipe::sam&#45;app&#45;sqs&#45;lambda&#45;&gt;Queue::sam&#45;app&#45;source&#45;queue -->
<g id="edge6" class="edge">
<title>Pipe::sam&#45;app&#45;sqs&#45;lambda&#45;&gt;Queue::sam&#45;app&#45;source&#45;queue</title>
<path fill="none" stroke="#707070" d="M201.1,-244.83C213.15,-243.66 225.37,-242.66 237,-242 368.15,-234.59 519.47,-239.87 618.07,-245.16"/>
<polygon fill="#707070" stroke="#707070" points="618.16,-248.67 628.34,-245.72 618.54,-241.68 618.16,-248.67"/>
</g>
<!-- Pipe::sam&#45;app&#45;sqs&#45;lambda&#45;&gt;StateMachine::EnrichmentStateMachine&#45;qfZFOX1lZ2S6 -->
<g id="edge7" class="edge">
<title>Pipe::sam&#45;app&#45;sqs&#45;lambda&#45;&gt;StateMachine::EnrichmentStateMachine&#45;qfZFOX1lZ2S6</title>
<path fill="none" stroke="#707070" d="M159.09,-285.01C181.62,-297.72 209.75,-311.25 237,-318 343.32,-344.35 466.74,-346.57 562.67,-342.35"/>
<polygon fill="#707070" stroke="#707070" points="562.92,-345.84 572.75,-341.88 562.6,-338.85 562.92,-345.84"/>
</g>
<!-- Queue::sam&#45;app&#45;SourceQueueDLQ&#45;yjrSLFwMCnw1 -->
<g id="node9" class="node">
<title>Queue::sam&#45;app&#45;SourceQueueDLQ&#45;yjrSLFwMCnw1</title>
<polygon fill="#e5e5e5" stroke="#dddddd" points="888,-205 561,-205 561,-147 888,-147 888,-205"/>
<text text-anchor="start" x="573.5" y="-185.2" font-family="Helvetica,sans-Serif" font-weight="bold" font-size="16.00" fill="#707070">SQS::Queue</text>
<text text-anchor="start" x="573.5" y="-160.2" font-family="Helvetica,sans-Serif" font-size="16.00" fill="#383838">sam&#45;app&#45;SourceQueueDLQ&#45;yjrSLFwMC...</text>
</g>
<!-- QueueRedrivePolicy::sam&#45;app&#45;source&#45;queue -->
<g id="node10" class="node">
<title>QueueRedrivePolicy::sam&#45;app&#45;source&#45;queue</title>
<polygon fill="#e5e5e5" stroke="#dddddd" points="493.5,-209 268.5,-209 268.5,-151 493.5,-151 493.5,-209"/>
<text text-anchor="start" x="281" y="-189.2" font-family="Helvetica,sans-Serif" font-weight="bold" font-size="16.00" fill="#707070">SQS::QueueRedrivePolicy</text>
<text text-anchor="start" x="281" y="-164.2" font-family="Helvetica,sans-Serif" font-size="16.00" fill="#383838">sam&#45;app&#45;source&#45;queue</text>
</g>
<!-- QueueRedrivePolicy::sam&#45;app&#45;source&#45;queue&#45;&gt;Queue::sam&#45;app&#45;source&#45;queue -->
<g id="edge9" class="edge">
<title>QueueRedrivePolicy::sam&#45;app&#45;source&#45;queue&#45;&gt;Queue::sam&#45;app&#45;source&#45;queue</title>
<path fill="none" stroke="#707070" d="M493.82,-203.58C533.9,-212.03 578.92,-221.52 618.41,-229.84"/>
<polygon fill="#707070" stroke="#707070" points="617.81,-233.29 628.32,-231.93 619.26,-226.44 617.81,-233.29"/>
</g>
<!-- QueueRedrivePolicy::sam&#45;app&#45;source&#45;queue&#45;&gt;Queue::sam&#45;app&#45;SourceQueueDLQ&#45;yjrSLFwMCnw1 -->
<g id="edge10" class="edge">
<title>QueueRedrivePolicy::sam&#45;app&#45;source&#45;queue&#45;&gt;Queue::sam&#45;app&#45;SourceQueueDLQ&#45;yjrSLFwMCnw1</title>
<path fill="none" stroke="#707070" d="M493.82,-178.69C512.12,-178.48 531.46,-178.25 550.82,-178.02"/>
<polygon fill="#707070" stroke="#707070" points="550.99,-181.52 560.95,-177.9 550.91,-174.52 550.99,-181.52"/>
</g>
<!-- StateMachine::EnrichmentStateMachine&#45;qfZFOX1lZ2S6&#45;&gt;LogGroup::stepfunctions/StateMachine -->
<g id="edge12" class="edge">
<title>StateMachine::EnrichmentStateMachine&#45;qfZFOX1lZ2S6&#45;&gt;LogGroup::stepfunctions/StateMachine</title>
<path fill="none" stroke="#707070" d="M859.45,-299C887.77,-292.86 917.62,-286.4 945.82,-280.3"/>
<polygon fill="#707070" stroke="#707070" points="946.69,-283.69 955.72,-278.15 945.2,-276.85 946.69,-283.69"/>
</g>
<!-- StateMachine::EnrichmentStateMachine&#45;qfZFOX1lZ2S6&#45;&gt;Role::sam&#45;app&#45;EnrichmentStateMachineRole&#45;VHHJR3QAFHSP -->
<g id="edge11" class="edge">
<title>StateMachine::EnrichmentStateMachine&#45;qfZFOX1lZ2S6&#45;&gt;Role::sam&#45;app&#45;EnrichmentStateMachineRole&#45;VHHJR3QAFHSP</title>
<path fill="none" stroke="#707070" d="M876.14,-328C888.61,-328 901.25,-328 913.8,-328"/>
<polygon fill="#707070" stroke="#707070" points="913.85,-331.5 923.85,-328 913.85,-324.5 913.85,-331.5"/>
</g>
</g>
</svg>
