<?xml version="1.0" encoding="UTF-8" standalone="no"?>
<!DOCTYPE svg PUBLIC "-//W3C//DTD SVG 1.1//EN"
 "http://www.w3.org/Graphics/SVG/1.1/DTD/svg11.dtd">
<!-- Generated by graphviz version 6.0.0 (20220910.1538)
 -->
<!-- Title: graphname Pages: 1 -->
<svg width="1022pt" height="389pt"
 viewBox="0.00 0.00 1022.00 389.00" xmlns="http://www.w3.org/2000/svg" xmlns:xlink="http://www.w3.org/1999/xlink">
<g id="graph0" class="graph" transform="scale(1 1) rotate(0) translate(4 385)">
<title>graphname</title>
<polygon fill="#fafafa" stroke="none" points="-4,4 -4,-385 1018,-385 1018,4 -4,4"/>
<text text-anchor="start" x="371" y="-356.4" font-family="Helvetica,sans-Serif" font-weight="bold" font-size="22.00" fill="#383838">Project apigw&#45;lambda&#45;cdk</text>
<text text-anchor="start" x="503" y="-340.8" font-family="Helvetica,sans-Serif" font-size="14.00"> &#160;</text>
<text text-anchor="start" x="371" y="-319.2" font-family="Helvetica,sans-Serif" font-weight="bold" font-size="16.00" fill="#707070">Target Diagram</text>
<g id="clust1" class="cluster">
<title>cluster_aws</title>
<polygon fill="#f5f5f5" stroke="#f5f5f5" points="8,-8 8,-297 1006,-297 1006,-8 8,-8"/>
<text text-anchor="start" x="445" y="-23" font-family="Helvetica,sans-Serif" font-weight="bold" font-size="20.00" fill="#707070">Provider aws</text>
</g>
<g id="clust2" class="cluster">
<title>cluster_aws_</title>
<polygon fill="#eeeeee" stroke="#eeeeee" points="16,-54 16,-289 998,-289 998,-54 16,-54"/>
<text text-anchor="start" x="506.86" y="-58.3" font-family="Helvetica,sans-Serif" font-size="1.00" fill="#383838"> </text>
</g>
<!-- Account::default -->
<g id="node1" class="node">
<title>Account::default</title>
<polygon fill="#e5e5e5" stroke="#dddddd" points="607.5,-281 415.5,-281 415.5,-223 607.5,-223 607.5,-281"/>
<text text-anchor="start" x="427.5" y="-261.2" font-family="Helvetica,sans-Serif" font-weight="bold" font-size="16.00" fill="#707070">APIGateway::Account</text>
<text text-anchor="start" x="427.5" y="-236.2" font-family="Helvetica,sans-Serif" font-size="16.00" fill="#383838">default</text>
</g>
<!-- Role::ServerlessLand&#45;ServerlessLandCloudWatchRole836732A&#45;W72RXN6FCTVP -->
<g id="node5" class="node">
<title>Role::ServerlessLand&#45;ServerlessLandCloudWatchRole836732A&#45;W72RXN6FCTVP</title>
<polygon fill="#e5e5e5" stroke="#dddddd" points="990,-281 698,-281 698,-223 990,-223 990,-281"/>
<text text-anchor="start" x="710" y="-261.2" font-family="Helvetica,sans-Serif" font-weight="bold" font-size="16.00" fill="#707070">IAM::Role</text>
<text text-anchor="start" x="710" y="-236.2" font-family="Helvetica,sans-Serif" font-size="16.00" fill="#383838">ServerlessLand&#45;ServerlessLandClo...</text>
</g>
<!-- Account::default&#45;&gt;Role::ServerlessLand&#45;ServerlessLandCloudWatchRole836732A&#45;W72RXN6FCTVP -->
<g id="edge1" class="edge">
<title>Account::default&#45;&gt;Role::ServerlessLand&#45;ServerlessLandCloudWatchRole836732A&#45;W72RXN6FCTVP</title>
<path fill="none" stroke="#707070" d="M607.65,-252C632.7,-252 660.39,-252 687.72,-252"/>
<polygon fill="#707070" stroke="#707070" points="687.76,-255.5 697.76,-252 687.76,-248.5 687.76,-255.5"/>
</g>
<!-- RestApi::ServerlessLand -->
<g id="node2" class="node">
<title>RestApi::ServerlessLand</title>
<polygon fill="#e5e5e5" stroke="#dddddd" points="605.5,-205 417.5,-205 417.5,-147 605.5,-147 605.5,-205"/>
<text text-anchor="start" x="429.5" y="-185.2" font-family="Helvetica,sans-Serif" font-weight="bold" font-size="16.00" fill="#707070">APIGateway::RestApi</text>
<text text-anchor="start" x="429.5" y="-160.2" font-family="Helvetica,sans-Serif" font-size="16.00" fill="#383838">ServerlessLand</text>
</g>
<!-- Stage::ServerlessLand::prod -->
<g id="node3" class="node">
<title>Stage::ServerlessLand::prod</title>
<polygon fill="#e5e5e5" stroke="#dddddd" points="263.5,-243 85.5,-243 85.5,-185 263.5,-185 263.5,-243"/>
<text text-anchor="start" x="97.5" y="-223.2" font-family="Helvetica,sans-Serif" font-weight="bold" font-size="16.00" fill="#707070">APIGateway::Stage</text>
<text text-anchor="start" x="97.5" y="-198.2" font-family="Helvetica,sans-Serif" font-size="16.00" fill="#383838">ServerlessLand::prod</text>
</g>
<!-- Stage::ServerlessLand::prod&#45;&gt;Account::default -->
<g id="edge3" class="edge">
<title>Stage::ServerlessLand::prod&#45;&gt;Account::default</title>
<path fill="none" stroke="#707070" d="M263.52,-223.98C306.95,-228.91 359.67,-234.89 405.23,-240.06"/>
<polygon fill="#707070" stroke="#707070" points="405.1,-243.57 415.43,-241.22 405.89,-236.61 405.1,-243.57"/>
</g>
<!-- Stage::ServerlessLand::prod&#45;&gt;RestApi::ServerlessLand -->
<g id="edge2" class="edge">
<title>Stage::ServerlessLand::prod&#45;&gt;RestApi::ServerlessLand</title>
<path fill="none" stroke="#707070" d="M263.52,-204.02C307.58,-199.02 361.21,-192.93 407.21,-187.72"/>
<polygon fill="#707070" stroke="#707070" points="407.67,-191.19 417.21,-186.58 406.88,-184.23 407.67,-191.19"/>
</g>
<!-- Role::ServerlessLand&#45;handlerServiceRole187D5A5A&#45;1QKSYX4MFFNOR -->
<g id="node4" class="node">
<title>Role::ServerlessLand&#45;handlerServiceRole187D5A5A&#45;1QKSYX4MFFNOR</title>
<polygon fill="#e5e5e5" stroke="#dddddd" points="988,-129 700,-129 700,-71 988,-71 988,-129"/>
<text text-anchor="start" x="712" y="-109.2" font-family="Helvetica,sans-Serif" font-weight="bold" font-size="16.00" fill="#707070">IAM::Role</text>
<text text-anchor="start" x="712" y="-84.2" font-family="Helvetica,sans-Serif" font-size="16.00" fill="#383838">ServerlessLand&#45;handlerServiceRol...</text>
</g>
<!-- Function::ServerlessLand&#45;handlerE1533BD5&#45;zl2CyOxo8mTL -->
<g id="node6" class="node">
<title>Function::ServerlessLand&#45;handlerE1533BD5&#45;zl2CyOxo8mTL</title>
<polygon fill="#e5e5e5" stroke="#dddddd" points="662,-129 361,-129 361,-71 662,-71 662,-129"/>
<text text-anchor="start" x="373.5" y="-109.2" font-family="Helvetica,sans-Serif" font-weight="bold" font-size="16.00" fill="#707070">Lambda::Function</text>
<text text-anchor="start" x="373.5" y="-84.2" font-family="Helvetica,sans-Serif" font-size="16.00" fill="#383838">ServerlessLand&#45;handlerE1533BD5&#45;z...</text>
</g>
<!-- Function::ServerlessLand&#45;handlerE1533BD5&#45;zl2CyOxo8mTL&#45;&gt;Role::ServerlessLand&#45;handlerServiceRole187D5A5A&#45;1QKSYX4MFFNOR -->
<g id="edge4" class="edge">
<title>Function::ServerlessLand&#45;handlerE1533BD5&#45;zl2CyOxo8mTL&#45;&gt;Role::ServerlessLand&#45;handlerServiceRole187D5A5A&#45;1QKSYX4MFFNOR</title>
<path fill="none" stroke="#707070" d="M662.28,-100C671.34,-100 680.46,-100 689.53,-100"/>
<polygon fill="#707070" stroke="#707070" points="689.75,-103.5 699.75,-100 689.75,-96.5 689.75,-103.5"/>
</g>
<!-- Permission::ServerlessLand&#45;handlerE1533BD5&#45;zl2CyOxo8mTL -->
<g id="node7" class="node">
<title>Permission::ServerlessLand&#45;handlerE1533BD5&#45;zl2CyOxo8mTL</title>
<polygon fill="#e5e5e5" stroke="#dddddd" points="325,-167 24,-167 24,-109 325,-109 325,-167"/>
<text text-anchor="start" x="36.5" y="-147.2" font-family="Helvetica,sans-Serif" font-weight="bold" font-size="16.00" fill="#707070">Lambda::Permission</text>
<text text-anchor="start" x="36.5" y="-122.2" font-family="Helvetica,sans-Serif" font-size="16.00" fill="#383838">ServerlessLand&#45;handlerE1533BD5&#45;z...</text>
</g>
<!-- Permission::ServerlessLand&#45;handlerE1533BD5&#45;zl2CyOxo8mTL&#45;&gt;RestApi::ServerlessLand -->
<g id="edge6" class="edge">
<title>Permission::ServerlessLand&#45;handlerE1533BD5&#45;zl2CyOxo8mTL&#45;&gt;RestApi::ServerlessLand</title>
<path fill="none" stroke="#707070" d="M325.36,-155C353.05,-158.14 381.38,-161.35 407.29,-164.29"/>
<polygon fill="#707070" stroke="#707070" points="407.15,-167.8 417.48,-165.45 407.93,-160.84 407.15,-167.8"/>
</g>
<!-- Permission::ServerlessLand&#45;handlerE1533BD5&#45;zl2CyOxo8mTL&#45;&gt;Function::ServerlessLand&#45;handlerE1533BD5&#45;zl2CyOxo8mTL -->
<g id="edge5" class="edge">
<title>Permission::ServerlessLand&#45;handlerE1533BD5&#45;zl2CyOxo8mTL&#45;&gt;Function::ServerlessLand&#45;handlerE1533BD5&#45;zl2CyOxo8mTL</title>
<path fill="none" stroke="#707070" d="M325.36,-121C333.82,-120.04 342.33,-119.08 350.81,-118.11"/>
<polygon fill="#707070" stroke="#707070" points="351.22,-121.59 360.76,-116.99 350.43,-114.64 351.22,-121.59"/>
</g>
</g>
</svg>
