<?xml version="1.0" encoding="UTF-8" standalone="no"?>
<!DOCTYPE svg PUBLIC "-//W3C//DTD SVG 1.1//EN"
 "http://www.w3.org/Graphics/SVG/1.1/DTD/svg11.dtd">
<!-- Generated by graphviz version 2.44.1 (20200629.0846)
 -->
<!-- Title: graphname Pages: 1 -->
<svg width="381pt" height="207pt"
 viewBox="0.00 0.00 381.47 207.00" xmlns="http://www.w3.org/2000/svg" xmlns:xlink="http://www.w3.org/1999/xlink">
<g id="graph0" class="graph" transform="scale(1 1) rotate(0) translate(4 203)">
<title>graphname</title>
<polygon fill="white" stroke="transparent" points="-4,4 -4,-203 377.47,-203 377.47,4 -4,4"/>
<g id="clust1" class="cluster">
<title>cluster_mock</title>
<polygon fill="none" stroke="black" points="8,-8 8,-191 365.47,-191 365.47,-8 8,-8"/>
<text text-anchor="middle" x="186.74" y="-175.8" font-family="Times,serif" font-size="14.00">mock</text>
</g>
<!-- Ip::myip -->
<g id="node1" class="node">
<title>Ip::myip</title>
<ellipse fill="none" stroke="black" cx="282.08" cy="-34" rx="41.69" ry="18"/>
<text text-anchor="middle" x="282.08" y="-30.3" font-family="Times,serif" font-size="14.00">Ip::myip</text>
</g>
<!-- Image::ubuntu -->
<g id="node2" class="node">
<title>Image::ubuntu</title>
<ellipse fill="none" stroke="black" cx="93.34" cy="-142" rx="62.29" ry="18"/>
<text text-anchor="middle" x="93.34" y="-138.3" font-family="Times,serif" font-size="14.00">Image::ubuntu</text>
</g>
<!-- Volume::volume1 -->
<g id="node3" class="node">
<title>Volume::volume1</title>
<ellipse fill="none" stroke="black" cx="282.08" cy="-88" rx="74.99" ry="18"/>
<text text-anchor="middle" x="282.08" y="-84.3" font-family="Times,serif" font-size="14.00">Volume::volume1</text>
</g>
<!-- SecurityGroup::sg -->
<g id="node4" class="node">
<title>SecurityGroup::sg</title>
<ellipse fill="none" stroke="black" cx="282.08" cy="-142" rx="75.29" ry="18"/>
<text text-anchor="middle" x="282.08" y="-138.3" font-family="Times,serif" font-size="14.00">SecurityGroup::sg</text>
</g>
<!-- Server::web&#45;server -->
<g id="node5" class="node">
<title>Server::web&#45;server</title>
<ellipse fill="none" stroke="black" cx="93.34" cy="-88" rx="77.19" ry="18"/>
<text text-anchor="middle" x="93.34" y="-84.3" font-family="Times,serif" font-size="14.00">Server::web&#45;server</text>
</g>
<!-- Server::web&#45;server&#45;&gt;Ip::myip -->
<g id="edge3" class="edge">
<title>Server::web&#45;server&#45;&gt;Ip::myip</title>
<path fill="none" stroke="black" d="M142.92,-73.95C172.21,-65.48 209.21,-54.78 237.54,-46.59"/>
<polygon fill="black" stroke="black" points="238.54,-49.94 247.18,-43.8 236.6,-43.22 238.54,-49.94"/>
</g>
<!-- Server::web&#45;server&#45;&gt;Volume::volume1 -->
<g id="edge1" class="edge">
<title>Server::web&#45;server&#45;&gt;Volume::volume1</title>
<path fill="none" stroke="black" d="M170.83,-88C179.45,-88 188.26,-88 196.97,-88"/>
<polygon fill="black" stroke="black" points="197.12,-91.5 207.12,-88 197.12,-84.5 197.12,-91.5"/>
</g>
<!-- Server::web&#45;server&#45;&gt;SecurityGroup::sg -->
<g id="edge2" class="edge">
<title>Server::web&#45;server&#45;&gt;SecurityGroup::sg</title>
<path fill="none" stroke="black" d="M142.92,-102.05C167.64,-109.2 197.85,-117.93 223.72,-125.41"/>
<polygon fill="black" stroke="black" points="222.81,-128.79 233.39,-128.21 224.76,-122.07 222.81,-128.79"/>
</g>
</g>
</svg>
