<?xml version="1.0" encoding="UTF-8" standalone="no"?>
<!DOCTYPE svg PUBLIC "-//W3C//DTD SVG 1.1//EN"
 "http://www.w3.org/Graphics/SVG/1.1/DTD/svg11.dtd">
<!-- Generated by graphviz version 6.0.0 (20220910.1538)
 -->
<!-- Title: graphname Pages: 1 -->
<svg width="946pt" height="541pt"
 viewBox="0.00 0.00 946.00 541.00" xmlns="http://www.w3.org/2000/svg" xmlns:xlink="http://www.w3.org/1999/xlink">
<g id="graph0" class="graph" transform="scale(1 1) rotate(0) translate(4 537)">
<title>graphname</title>
<polygon fill="#fafafa" stroke="none" points="-4,4 -4,-537 942,-537 942,4 -4,4"/>
<text text-anchor="start" x="350" y="-508.4" font-family="Helvetica,sans-Serif" font-weight="bold" font-size="22.00" fill="#383838">Project redshift&#45;simple</text>
<text text-anchor="start" x="465" y="-492.8" font-family="Helvetica,sans-Serif" font-size="14.00"> &#160;</text>
<text text-anchor="start" x="350" y="-471.2" font-family="Helvetica,sans-Serif" font-weight="bold" font-size="16.00" fill="#707070">Target Diagram</text>
<g id="clust1" class="cluster">
<title>cluster_aws</title>
<polygon fill="#f5f5f5" stroke="#f5f5f5" points="8,-8 8,-449 930,-449 930,-8 8,-8"/>
<text text-anchor="start" x="407" y="-23" font-family="Helvetica,sans-Serif" font-weight="bold" font-size="20.00" fill="#707070">Provider aws</text>
</g>
<g id="clust2" class="cluster">
<title>cluster_aws_</title>
<polygon fill="#eeeeee" stroke="#eeeeee" points="16,-54 16,-441 922,-441 922,-54 16,-54"/>
<text text-anchor="start" x="468.86" y="-58.3" font-family="Helvetica,sans-Serif" font-size="1.00" fill="#383838"> </text>
</g>
<!-- Vpc::vpc -->
<g id="node1" class="node">
<title>Vpc::vpc</title>
<polygon fill="#e5e5e5" stroke="#dddddd" points="914,-281 819,-281 819,-223 914,-223 914,-281"/>
<text text-anchor="start" x="831.5" y="-261.2" font-family="Helvetica,sans-Serif" font-weight="bold" font-size="16.00" fill="#707070">EC2::Vpc</text>
<text text-anchor="start" x="831.5" y="-236.2" font-family="Helvetica,sans-Serif" font-size="16.00" fill="#383838">vpc</text>
</g>
<!-- Subnet::vpc::subnet&#45;private1&#45;us&#45;east&#45;1a -->
<g id="node2" class="node">
<title>Subnet::vpc::subnet&#45;private1&#45;us&#45;east&#45;1a</title>
<polygon fill="#e5e5e5" stroke="#dddddd" points="783,-357 530,-357 530,-299 783,-299 783,-357"/>
<text text-anchor="start" x="542.5" y="-337.2" font-family="Helvetica,sans-Serif" font-weight="bold" font-size="16.00" fill="#707070">EC2::Subnet</text>
<text text-anchor="start" x="542.5" y="-312.2" font-family="Helvetica,sans-Serif" font-size="16.00" fill="#383838">vpc::subnet&#45;private1&#45;us&#45;east&#45;1a</text>
</g>
<!-- Subnet::vpc::subnet&#45;private1&#45;us&#45;east&#45;1a&#45;&gt;Vpc::vpc -->
<g id="edge1" class="edge">
<title>Subnet::vpc::subnet&#45;private1&#45;us&#45;east&#45;1a&#45;&gt;Vpc::vpc</title>
<path fill="none" stroke="#707070" d="M757.93,-298.94C766.46,-296.07 774.91,-293.07 783,-290 791.66,-286.71 800.69,-282.93 809.47,-279.06"/>
<polygon fill="#707070" stroke="#707070" points="811.17,-282.13 818.86,-274.84 808.3,-275.74 811.17,-282.13"/>
</g>
<!-- Subnet::vpc::subnet&#45;private2&#45;us&#45;east&#45;1b -->
<g id="node3" class="node">
<title>Subnet::vpc::subnet&#45;private2&#45;us&#45;east&#45;1b</title>
<polygon fill="#e5e5e5" stroke="#dddddd" points="783,-281 530,-281 530,-223 783,-223 783,-281"/>
<text text-anchor="start" x="542.5" y="-261.2" font-family="Helvetica,sans-Serif" font-weight="bold" font-size="16.00" fill="#707070">EC2::Subnet</text>
<text text-anchor="start" x="542.5" y="-236.2" font-family="Helvetica,sans-Serif" font-size="16.00" fill="#383838">vpc::subnet&#45;private2&#45;us&#45;east&#45;1b</text>
</g>
<!-- Subnet::vpc::subnet&#45;private2&#45;us&#45;east&#45;1b&#45;&gt;Vpc::vpc -->
<g id="edge2" class="edge">
<title>Subnet::vpc::subnet&#45;private2&#45;us&#45;east&#45;1b&#45;&gt;Vpc::vpc</title>
<path fill="none" stroke="#707070" d="M783.29,-252C791.98,-252 800.45,-252 808.45,-252"/>
<polygon fill="#707070" stroke="#707070" points="808.68,-255.5 818.68,-252 808.68,-248.5 808.68,-255.5"/>
</g>
<!-- RouteTable::vpc::rtb&#45;private1&#45;us&#45;east&#45;1a -->
<g id="node4" class="node">
<title>RouteTable::vpc::rtb&#45;private1&#45;us&#45;east&#45;1a</title>
<polygon fill="#e5e5e5" stroke="#dddddd" points="768,-433 545,-433 545,-375 768,-375 768,-433"/>
<text text-anchor="start" x="557.5" y="-413.2" font-family="Helvetica,sans-Serif" font-weight="bold" font-size="16.00" fill="#707070">EC2::RouteTable</text>
<text text-anchor="start" x="557.5" y="-388.2" font-family="Helvetica,sans-Serif" font-size="16.00" fill="#383838">vpc::rtb&#45;private1&#45;us&#45;east&#45;1a</text>
</g>
<!-- RouteTable::vpc::rtb&#45;private1&#45;us&#45;east&#45;1a&#45;&gt;Vpc::vpc -->
<g id="edge3" class="edge">
<title>RouteTable::vpc::rtb&#45;private1&#45;us&#45;east&#45;1a&#45;&gt;Vpc::vpc</title>
<path fill="none" stroke="#707070" d="M768.01,-375.25C773.24,-372.44 778.27,-369.37 783,-366 810.38,-346.49 832.16,-315.02 846.45,-290.08"/>
<polygon fill="#707070" stroke="#707070" points="849.57,-291.66 851.37,-281.22 843.46,-288.26 849.57,-291.66"/>
</g>
<!-- RouteTable::vpc::rtb&#45;private2&#45;us&#45;east&#45;1b -->
<g id="node5" class="node">
<title>RouteTable::vpc::rtb&#45;private2&#45;us&#45;east&#45;1b</title>
<polygon fill="#e5e5e5" stroke="#dddddd" points="768,-205 545,-205 545,-147 768,-147 768,-205"/>
<text text-anchor="start" x="557.5" y="-185.2" font-family="Helvetica,sans-Serif" font-weight="bold" font-size="16.00" fill="#707070">EC2::RouteTable</text>
<text text-anchor="start" x="557.5" y="-160.2" font-family="Helvetica,sans-Serif" font-size="16.00" fill="#383838">vpc::rtb&#45;private2&#45;us&#45;east&#45;1b</text>
</g>
<!-- RouteTable::vpc::rtb&#45;private2&#45;us&#45;east&#45;1b&#45;&gt;Vpc::vpc -->
<g id="edge4" class="edge">
<title>RouteTable::vpc::rtb&#45;private2&#45;us&#45;east&#45;1b&#45;&gt;Vpc::vpc</title>
<path fill="none" stroke="#707070" d="M757.93,-205.06C766.46,-207.93 774.91,-210.93 783,-214 791.66,-217.29 800.69,-221.07 809.47,-224.94"/>
<polygon fill="#707070" stroke="#707070" points="808.3,-228.26 818.86,-229.16 811.17,-221.87 808.3,-228.26"/>
</g>
<!-- RouteTableAssociation::rt&#45;assoc::vpc::rtb&#45;private1&#45;us&#45;east&#45;1a::vpc::subnet&#45;private1&#45;us&#45;east&#45;1a -->
<g id="node6" class="node">
<title>RouteTableAssociation::rt&#45;assoc::vpc::rtb&#45;private1&#45;us&#45;east&#45;1a::vpc::subnet&#45;private1&#45;us&#45;east&#45;1a</title>
<polygon fill="#e5e5e5" stroke="#dddddd" points="483,-433 225,-433 225,-375 483,-375 483,-433"/>
<text text-anchor="start" x="237" y="-413.2" font-family="Helvetica,sans-Serif" font-weight="bold" font-size="16.00" fill="#707070">EC2::RouteTableAssociation</text>
<text text-anchor="start" x="237" y="-388.2" font-family="Helvetica,sans-Serif" font-size="16.00" fill="#383838">rt&#45;assoc::vpc::rtb&#45;private1&#45;us&#45;e...</text>
</g>
<!-- RouteTableAssociation::rt&#45;assoc::vpc::rtb&#45;private1&#45;us&#45;east&#45;1a::vpc::subnet&#45;private1&#45;us&#45;east&#45;1a&#45;&gt;Subnet::vpc::subnet&#45;private1&#45;us&#45;east&#45;1a -->
<g id="edge6" class="edge">
<title>RouteTableAssociation::rt&#45;assoc::vpc::rtb&#45;private1&#45;us&#45;east&#45;1a::vpc::subnet&#45;private1&#45;us&#45;east&#45;1a&#45;&gt;Subnet::vpc::subnet&#45;private1&#45;us&#45;east&#45;1a</title>
<path fill="none" stroke="#707070" d="M469.89,-374.94C489.83,-369.9 510.64,-364.64 530.82,-359.53"/>
<polygon fill="#707070" stroke="#707070" points="531.83,-362.89 540.67,-357.04 530.12,-356.1 531.83,-362.89"/>
</g>
<!-- RouteTableAssociation::rt&#45;assoc::vpc::rtb&#45;private1&#45;us&#45;east&#45;1a::vpc::subnet&#45;private1&#45;us&#45;east&#45;1a&#45;&gt;RouteTable::vpc::rtb&#45;private1&#45;us&#45;east&#45;1a -->
<g id="edge5" class="edge">
<title>RouteTableAssociation::rt&#45;assoc::vpc::rtb&#45;private1&#45;us&#45;east&#45;1a::vpc::subnet&#45;private1&#45;us&#45;east&#45;1a&#45;&gt;RouteTable::vpc::rtb&#45;private1&#45;us&#45;east&#45;1a</title>
<path fill="none" stroke="#707070" d="M483.31,-404C500.22,-404 517.51,-404 534.29,-404"/>
<polygon fill="#707070" stroke="#707070" points="534.67,-407.5 544.67,-404 534.67,-400.5 534.67,-407.5"/>
</g>
<!-- RouteTableAssociation::rt&#45;assoc::vpc::rtb&#45;private2&#45;us&#45;east&#45;1b::vpc::subnet&#45;private2&#45;us&#45;east&#45;1b -->
<g id="node7" class="node">
<title>RouteTableAssociation::rt&#45;assoc::vpc::rtb&#45;private2&#45;us&#45;east&#45;1b::vpc::subnet&#45;private2&#45;us&#45;east&#45;1b</title>
<polygon fill="#e5e5e5" stroke="#dddddd" points="483,-205 225,-205 225,-147 483,-147 483,-205"/>
<text text-anchor="start" x="237" y="-185.2" font-family="Helvetica,sans-Serif" font-weight="bold" font-size="16.00" fill="#707070">EC2::RouteTableAssociation</text>
<text text-anchor="start" x="237" y="-160.2" font-family="Helvetica,sans-Serif" font-size="16.00" fill="#383838">rt&#45;assoc::vpc::rtb&#45;private2&#45;us&#45;e...</text>
</g>
<!-- RouteTableAssociation::rt&#45;assoc::vpc::rtb&#45;private2&#45;us&#45;east&#45;1b::vpc::subnet&#45;private2&#45;us&#45;east&#45;1b&#45;&gt;Subnet::vpc::subnet&#45;private2&#45;us&#45;east&#45;1b -->
<g id="edge8" class="edge">
<title>RouteTableAssociation::rt&#45;assoc::vpc::rtb&#45;private2&#45;us&#45;east&#45;1b::vpc::subnet&#45;private2&#45;us&#45;east&#45;1b&#45;&gt;Subnet::vpc::subnet&#45;private2&#45;us&#45;east&#45;1b</title>
<path fill="none" stroke="#707070" d="M469.89,-205.06C489.83,-210.1 510.64,-215.36 530.82,-220.47"/>
<polygon fill="#707070" stroke="#707070" points="530.12,-223.9 540.67,-222.96 531.83,-217.11 530.12,-223.9"/>
</g>
<!-- RouteTableAssociation::rt&#45;assoc::vpc::rtb&#45;private2&#45;us&#45;east&#45;1b::vpc::subnet&#45;private2&#45;us&#45;east&#45;1b&#45;&gt;RouteTable::vpc::rtb&#45;private2&#45;us&#45;east&#45;1b -->
<g id="edge7" class="edge">
<title>RouteTableAssociation::rt&#45;assoc::vpc::rtb&#45;private2&#45;us&#45;east&#45;1b::vpc::subnet&#45;private2&#45;us&#45;east&#45;1b&#45;&gt;RouteTable::vpc::rtb&#45;private2&#45;us&#45;east&#45;1b</title>
<path fill="none" stroke="#707070" d="M483.31,-176C500.22,-176 517.51,-176 534.29,-176"/>
<polygon fill="#707070" stroke="#707070" points="534.67,-179.5 544.67,-176 534.67,-172.5 534.67,-179.5"/>
</g>
<!-- SecurityGroup::sg::vpc::default -->
<g id="node8" class="node">
<title>SecurityGroup::sg::vpc::default</title>
<polygon fill="#e5e5e5" stroke="#dddddd" points="745,-129 568,-129 568,-71 745,-71 745,-129"/>
<text text-anchor="start" x="580.5" y="-109.2" font-family="Helvetica,sans-Serif" font-weight="bold" font-size="16.00" fill="#707070">EC2::SecurityGroup</text>
<text text-anchor="start" x="580.5" y="-84.2" font-family="Helvetica,sans-Serif" font-size="16.00" fill="#383838">sg::vpc::default</text>
</g>
<!-- SecurityGroup::sg::vpc::default&#45;&gt;Vpc::vpc -->
<g id="edge9" class="edge">
<title>SecurityGroup::sg::vpc::default&#45;&gt;Vpc::vpc</title>
<path fill="none" stroke="#707070" d="M745.01,-118.4C758.43,-123.46 771.6,-129.87 783,-138 810.38,-157.51 832.16,-188.98 846.45,-213.92"/>
<polygon fill="#707070" stroke="#707070" points="843.46,-215.74 851.37,-222.78 849.57,-212.34 843.46,-215.74"/>
</g>
<!-- Cluster::redshift&#45;cluster&#45;1 -->
<g id="node9" class="node">
<title>Cluster::redshift&#45;cluster&#45;1</title>
<polygon fill="#e5e5e5" stroke="#dddddd" points="178,-281 24,-281 24,-223 178,-223 178,-281"/>
<text text-anchor="start" x="36" y="-261.2" font-family="Helvetica,sans-Serif" font-weight="bold" font-size="16.00" fill="#707070">Redshift::Cluster</text>
<text text-anchor="start" x="36" y="-236.2" font-family="Helvetica,sans-Serif" font-size="16.00" fill="#383838">redshift&#45;cluster&#45;1</text>
</g>
<!-- Cluster::redshift&#45;cluster&#45;1&#45;&gt;SecurityGroup::sg::vpc::default -->
<g id="edge12" class="edge">
<title>Cluster::redshift&#45;cluster&#45;1&#45;&gt;SecurityGroup::sg::vpc::default</title>
<path fill="none" stroke="#707070" d="M121.24,-222.88C140.97,-195.72 174.34,-156.67 214,-138 323.35,-86.51 464.77,-83.91 557.71,-89.58"/>
<polygon fill="#707070" stroke="#707070" points="557.75,-93.09 567.95,-90.25 558.2,-86.11 557.75,-93.09"/>
</g>
<!-- ClusterParameterGroup::group&#45;1 -->
<g id="node10" class="node">
<title>ClusterParameterGroup::group&#45;1</title>
<polygon fill="#e5e5e5" stroke="#dddddd" points="494,-281 214,-281 214,-223 494,-223 494,-281"/>
<text text-anchor="start" x="226" y="-261.2" font-family="Helvetica,sans-Serif" font-weight="bold" font-size="16.00" fill="#707070">Redshift::ClusterParameterGroup</text>
<text text-anchor="start" x="226" y="-236.2" font-family="Helvetica,sans-Serif" font-size="16.00" fill="#383838">group&#45;1</text>
</g>
<!-- Cluster::redshift&#45;cluster&#45;1&#45;&gt;ClusterParameterGroup::group&#45;1 -->
<g id="edge11" class="edge">
<title>Cluster::redshift&#45;cluster&#45;1&#45;&gt;ClusterParameterGroup::group&#45;1</title>
<path fill="none" stroke="#707070" d="M178.33,-252C186.52,-252 195.04,-252 203.72,-252"/>
<polygon fill="#707070" stroke="#707070" points="203.97,-255.5 213.97,-252 203.97,-248.5 203.97,-255.5"/>
</g>
<!-- ClusterSubnetGroup::cluster&#45;subnet&#45;group&#45;1 -->
<g id="node11" class="node">
<title>ClusterSubnetGroup::cluster&#45;subnet&#45;group&#45;1</title>
<polygon fill="#e5e5e5" stroke="#dddddd" points="482,-357 226,-357 226,-299 482,-299 482,-357"/>
<text text-anchor="start" x="238" y="-337.2" font-family="Helvetica,sans-Serif" font-weight="bold" font-size="16.00" fill="#707070">Redshift::ClusterSubnetGroup</text>
<text text-anchor="start" x="238" y="-312.2" font-family="Helvetica,sans-Serif" font-size="16.00" fill="#383838">cluster&#45;subnet&#45;group&#45;1</text>
</g>
<!-- Cluster::redshift&#45;cluster&#45;1&#45;&gt;ClusterSubnetGroup::cluster&#45;subnet&#45;group&#45;1 -->
<g id="edge10" class="edge">
<title>Cluster::redshift&#45;cluster&#45;1&#45;&gt;ClusterSubnetGroup::cluster&#45;subnet&#45;group&#45;1</title>
<path fill="none" stroke="#707070" d="M178.01,-278.48C190.02,-282.46 202.32,-286.42 214,-290 220.59,-292.02 227.37,-294.04 234.23,-296.04"/>
<polygon fill="#707070" stroke="#707070" points="233.73,-299.54 244.31,-298.96 235.68,-292.82 233.73,-299.54"/>
</g>
<!-- ClusterSubnetGroup::cluster&#45;subnet&#45;group&#45;1&#45;&gt;Subnet::vpc::subnet&#45;private1&#45;us&#45;east&#45;1a -->
<g id="edge13" class="edge">
<title>ClusterSubnetGroup::cluster&#45;subnet&#45;group&#45;1&#45;&gt;Subnet::vpc::subnet&#45;private1&#45;us&#45;east&#45;1a</title>
<path fill="none" stroke="#707070" d="M482,-328C494.52,-328 507.25,-328 519.85,-328"/>
<polygon fill="#707070" stroke="#707070" points="519.91,-331.5 529.91,-328 519.91,-324.5 519.91,-331.5"/>
</g>
<!-- ClusterSubnetGroup::cluster&#45;subnet&#45;group&#45;1&#45;&gt;Subnet::vpc::subnet&#45;private2&#45;us&#45;east&#45;1b -->
<g id="edge14" class="edge">
<title>ClusterSubnetGroup::cluster&#45;subnet&#45;group&#45;1&#45;&gt;Subnet::vpc::subnet&#45;private2&#45;us&#45;east&#45;1b</title>
<path fill="none" stroke="#707070" d="M469.89,-298.94C489.83,-293.9 510.64,-288.64 530.82,-283.53"/>
<polygon fill="#707070" stroke="#707070" points="531.83,-286.89 540.67,-281.04 530.12,-280.1 531.83,-286.89"/>
</g>
</g>
</svg>
