<?xml version="1.0" encoding="UTF-8" standalone="no"?>
<!DOCTYPE svg PUBLIC "-//W3C//DTD SVG 1.1//EN"
 "http://www.w3.org/Graphics/SVG/1.1/DTD/svg11.dtd">
<!-- Generated by graphviz version 6.0.0 (20220910.1538)
 -->
<!-- Title: graphname Pages: 1 -->
<svg width="1278pt" height="313pt"
 viewBox="0.00 0.00 1278.00 313.00" xmlns="http://www.w3.org/2000/svg" xmlns:xlink="http://www.w3.org/1999/xlink">
<g id="graph0" class="graph" transform="scale(1 1) rotate(0) translate(4 309)">
<title>graphname</title>
<polygon fill="#fafafa" stroke="none" points="-4,4 -4,-309 1274,-309 1274,4 -4,4"/>
<text text-anchor="start" x="452" y="-280.4" font-family="Helvetica,sans-Serif" font-weight="bold" font-size="22.00" fill="#383838">Project sqs&#45;lambda&#45;dynamodb&#45;cdk</text>
<text text-anchor="start" x="631" y="-264.8" font-family="Helvetica,sans-Serif" font-size="14.00"> &#160;</text>
<text text-anchor="start" x="452" y="-243.2" font-family="Helvetica,sans-Serif" font-weight="bold" font-size="16.00" fill="#707070">Target Diagram</text>
<g id="clust1" class="cluster">
<title>cluster_aws</title>
<polygon fill="#f5f5f5" stroke="#f5f5f5" points="8,-8 8,-221 1262,-221 1262,-8 8,-8"/>
<text text-anchor="start" x="573" y="-23" font-family="Helvetica,sans-Serif" font-weight="bold" font-size="20.00" fill="#707070">Provider aws</text>
</g>
<g id="clust2" class="cluster">
<title>cluster_aws_</title>
<polygon fill="#eeeeee" stroke="#eeeeee" points="16,-54 16,-213 1254,-213 1254,-54 16,-54"/>
<text text-anchor="start" x="634.86" y="-58.3" font-family="Helvetica,sans-Serif" font-size="1.00" fill="#383838"> </text>
</g>
<!-- Table::CLIENT -->
<g id="node1" class="node">
<title>Table::CLIENT</title>
<polygon fill="#e5e5e5" stroke="#dddddd" points="1246,-129 1085,-129 1085,-71 1246,-71 1246,-129"/>
<text text-anchor="start" x="1097.5" y="-109.2" font-family="Helvetica,sans-Serif" font-weight="bold" font-size="16.00" fill="#707070">DynamoDB::Table</text>
<text text-anchor="start" x="1097.5" y="-84.2" font-family="Helvetica,sans-Serif" font-size="16.00" fill="#383838">CLIENT</text>
</g>
<!-- Role::vsam&#45;to&#45;dynamo&#45;SQSToDynamoFunctionServiceRole574AE&#45;1UJ4RMVYBA5KC -->
<g id="node2" class="node">
<title>Role::vsam&#45;to&#45;dynamo&#45;SQSToDynamoFunctionServiceRole574AE&#45;1UJ4RMVYBA5KC</title>
<polygon fill="#e5e5e5" stroke="#dddddd" points="1049,-129 730,-129 730,-71 1049,-71 1049,-129"/>
<text text-anchor="start" x="742.5" y="-109.2" font-family="Helvetica,sans-Serif" font-weight="bold" font-size="16.00" fill="#707070">IAM::Role</text>
<text text-anchor="start" x="742.5" y="-84.2" font-family="Helvetica,sans-Serif" font-size="16.00" fill="#383838">vsam&#45;to&#45;dynamo&#45;SQSToDynamoFuncti...</text>
</g>
<!-- Role::vsam&#45;to&#45;dynamo&#45;SQSToDynamoFunctionServiceRole574AE&#45;1UJ4RMVYBA5KC&#45;&gt;Table::CLIENT -->
<g id="edge1" class="edge">
<title>Role::vsam&#45;to&#45;dynamo&#45;SQSToDynamoFunctionServiceRole574AE&#45;1UJ4RMVYBA5KC&#45;&gt;Table::CLIENT</title>
<path fill="none" stroke="#707070" d="M1049.09,-100C1057.84,-100 1066.47,-100 1074.84,-100"/>
<polygon fill="#707070" stroke="#707070" points="1074.89,-103.5 1084.89,-100 1074.89,-96.5 1074.89,-103.5"/>
</g>
<!-- EventSourceMapping::mapping::vsam&#45;to&#45;dynamo&#45;SQSToDynamoFunction17164FFE&#45;9HwjnbSRjKQt::VsamToDynamoQueue -->
<g id="node3" class="node">
<title>EventSourceMapping::mapping::vsam&#45;to&#45;dynamo&#45;SQSToDynamoFunction17164FFE&#45;9HwjnbSRjKQt::VsamToDynamoQueue</title>
<polygon fill="#e5e5e5" stroke="#dddddd" points="339,-167 24,-167 24,-109 339,-109 339,-167"/>
<text text-anchor="start" x="36.5" y="-147.2" font-family="Helvetica,sans-Serif" font-weight="bold" font-size="16.00" fill="#707070">Lambda::EventSourceMapping</text>
<text text-anchor="start" x="36.5" y="-122.2" font-family="Helvetica,sans-Serif" font-size="16.00" fill="#383838">mapping::vsam&#45;to&#45;dynamo&#45;SQSToDyn...</text>
</g>
<!-- Function::vsam&#45;to&#45;dynamo&#45;SQSToDynamoFunction17164FFE&#45;9HwjnbSRjKQt -->
<g id="node4" class="node">
<title>Function::vsam&#45;to&#45;dynamo&#45;SQSToDynamoFunction17164FFE&#45;9HwjnbSRjKQt</title>
<polygon fill="#e5e5e5" stroke="#dddddd" points="694,-129 375,-129 375,-71 694,-71 694,-129"/>
<text text-anchor="start" x="387.5" y="-109.2" font-family="Helvetica,sans-Serif" font-weight="bold" font-size="16.00" fill="#707070">Lambda::Function</text>
<text text-anchor="start" x="387.5" y="-84.2" font-family="Helvetica,sans-Serif" font-size="16.00" fill="#383838">vsam&#45;to&#45;dynamo&#45;SQSToDynamoFuncti...</text>
</g>
<!-- EventSourceMapping::mapping::vsam&#45;to&#45;dynamo&#45;SQSToDynamoFunction17164FFE&#45;9HwjnbSRjKQt::VsamToDynamoQueue&#45;&gt;Function::vsam&#45;to&#45;dynamo&#45;SQSToDynamoFunction17164FFE&#45;9HwjnbSRjKQt -->
<g id="edge2" class="edge">
<title>EventSourceMapping::mapping::vsam&#45;to&#45;dynamo&#45;SQSToDynamoFunction17164FFE&#45;9HwjnbSRjKQt::VsamToDynamoQueue&#45;&gt;Function::vsam&#45;to&#45;dynamo&#45;SQSToDynamoFunction17164FFE&#45;9HwjnbSRjKQt</title>
<path fill="none" stroke="#707070" d="M339.01,-121.06C347.55,-120.13 356.15,-119.2 364.73,-118.27"/>
<polygon fill="#707070" stroke="#707070" points="365.22,-121.74 374.79,-117.18 364.47,-114.78 365.22,-121.74"/>
</g>
<!-- Queue::VsamToDynamoQueue -->
<g id="node5" class="node">
<title>Queue::VsamToDynamoQueue</title>
<polygon fill="#e5e5e5" stroke="#dddddd" points="630.5,-205 438.5,-205 438.5,-147 630.5,-147 630.5,-205"/>
<text text-anchor="start" x="450.5" y="-185.2" font-family="Helvetica,sans-Serif" font-weight="bold" font-size="16.00" fill="#707070">SQS::Queue</text>
<text text-anchor="start" x="450.5" y="-160.2" font-family="Helvetica,sans-Serif" font-size="16.00" fill="#383838">VsamToDynamoQueue</text>
</g>
<!-- EventSourceMapping::mapping::vsam&#45;to&#45;dynamo&#45;SQSToDynamoFunction17164FFE&#45;9HwjnbSRjKQt::VsamToDynamoQueue&#45;&gt;Queue::VsamToDynamoQueue -->
<g id="edge3" class="edge">
<title>EventSourceMapping::mapping::vsam&#45;to&#45;dynamo&#45;SQSToDynamoFunction17164FFE&#45;9HwjnbSRjKQt::VsamToDynamoQueue&#45;&gt;Queue::VsamToDynamoQueue</title>
<path fill="none" stroke="#707070" d="M339.01,-154.94C369.13,-158.2 400.01,-161.55 428.03,-164.58"/>
<polygon fill="#707070" stroke="#707070" points="427.9,-168.09 438.22,-165.69 428.66,-161.13 427.9,-168.09"/>
</g>
<!-- Function::vsam&#45;to&#45;dynamo&#45;SQSToDynamoFunction17164FFE&#45;9HwjnbSRjKQt&#45;&gt;Role::vsam&#45;to&#45;dynamo&#45;SQSToDynamoFunctionServiceRole574AE&#45;1UJ4RMVYBA5KC -->
<g id="edge4" class="edge">
<title>Function::vsam&#45;to&#45;dynamo&#45;SQSToDynamoFunction17164FFE&#45;9HwjnbSRjKQt&#45;&gt;Role::vsam&#45;to&#45;dynamo&#45;SQSToDynamoFunctionServiceRole574AE&#45;1UJ4RMVYBA5KC</title>
<path fill="none" stroke="#707070" d="M694.19,-100C702.59,-100 711.04,-100 719.47,-100"/>
<polygon fill="#707070" stroke="#707070" points="719.73,-103.5 729.73,-100 719.73,-96.5 719.73,-103.5"/>
</g>
</g>
</svg>
