<?xml version="1.0" encoding="UTF-8" standalone="no"?>
<!DOCTYPE svg PUBLIC "-//W3C//DTD SVG 1.1//EN"
 "http://www.w3.org/Graphics/SVG/1.1/DTD/svg11.dtd">
<!-- Generated by graphviz version 7.1.0 (20230121.1956)
 -->
<!-- Title: graphname Pages: 1 -->
<svg width="1791pt" height="409pt"
 viewBox="0.00 0.00 1791.00 409.00" xmlns="http://www.w3.org/2000/svg" xmlns:xlink="http://www.w3.org/1999/xlink">
<g id="graph0" class="graph" transform="scale(1 1) rotate(0) translate(4 405)">
<title>graphname</title>
<polygon fill="#fafafa" stroke="none" points="-4,4 -4,-405 1787,-405 1787,4 -4,4"/>
<text text-anchor="start" x="730.5" y="-376.4" font-family="Helvetica,sans-Serif" font-weight="bold" font-size="22.00" fill="#383838">Project cognito&#45;identity&#45;simple</text>
<text text-anchor="start" x="887.5" y="-360.8" font-family="Helvetica,sans-Serif" font-size="14.00"> &#160;</text>
<text text-anchor="start" x="730.5" y="-339.2" font-family="Helvetica,sans-Serif" font-weight="bold" font-size="16.00" fill="#707070">Target Diagram</text>
<g id="clust1" class="cluster">
<title>cluster_aws</title>
<polygon fill="#f5f5f5" stroke="#f5f5f5" points="8,-8 8,-317 1775,-317 1775,-8 8,-8"/>
<text text-anchor="start" x="829.5" y="-23" font-family="Helvetica,sans-Serif" font-weight="bold" font-size="20.00" fill="#707070">Provider aws</text>
</g>
<g id="clust2" class="cluster">
<title>cluster_aws_</title>
<polygon fill="#eeeeee" stroke="#eeeeee" points="16,-54 16,-309 1767,-309 1767,-54 16,-54"/>
<text text-anchor="start" x="891.36" y="-58.3" font-family="Helvetica,sans-Serif" font-size="1.00" fill="#383838"> </text>
</g>
<!-- IdentityPool::my&#45;identity&#45;pool -->
<g id="node1" class="node">
<title>IdentityPool::my&#45;identity&#45;pool</title>
<polygon fill="#e5e5e5" stroke="#dddddd" points="956,-225 769,-225 769,-167 956,-167 956,-225"/>
<text text-anchor="start" x="781.5" y="-205.2" font-family="Helvetica,sans-Serif" font-weight="bold" font-size="16.00" fill="#707070">Cognito::IdentityPool</text>
<text text-anchor="start" x="781.5" y="-180.2" font-family="Helvetica,sans-Serif" font-size="16.00" fill="#383838">my&#45;identity&#45;pool</text>
</g>
<!-- UserPoolClient::my&#45;app -->
<g id="node5" class="node">
<title>UserPoolClient::my&#45;app</title>
<polygon fill="#e5e5e5" stroke="#dddddd" points="1380,-232 992,-232 992,-174 1380,-174 1380,-232"/>
<text text-anchor="start" x="1004" y="-212.2" font-family="Helvetica,sans-Serif" font-weight="bold" font-size="16.00" fill="#707070">CognitoIdentityServiceProvider::UserPoolClient</text>
<text text-anchor="start" x="1004" y="-187.2" font-family="Helvetica,sans-Serif" font-size="16.00" fill="#383838">my&#45;app</text>
</g>
<!-- IdentityPool::my&#45;identity&#45;pool&#45;&gt;UserPoolClient::my&#45;app -->
<g id="edge1" class="edge">
<title>IdentityPool::my&#45;identity&#45;pool&#45;&gt;UserPoolClient::my&#45;app</title>
<path fill="none" stroke="#707070" d="M956.49,-198.02C964.27,-198.19 972.3,-198.37 980.51,-198.55"/>
<polygon fill="#707070" stroke="#707070" points="980.19,-202.04 990.27,-198.76 980.35,-195.04 980.19,-202.04"/>
</g>
<!-- IdentityPoolProviderPrincipalTag::my&#45;identity&#45;pool -->
<g id="node2" class="node">
<title>IdentityPoolProviderPrincipalTag::my&#45;identity&#45;pool</title>
<polygon fill="#e5e5e5" stroke="#dddddd" points="733,-301 387,-301 387,-243 733,-243 733,-301"/>
<text text-anchor="start" x="399" y="-281.2" font-family="Helvetica,sans-Serif" font-weight="bold" font-size="16.00" fill="#707070">Cognito::IdentityPoolProviderPrincipalTag</text>
<text text-anchor="start" x="399" y="-256.2" font-family="Helvetica,sans-Serif" font-size="16.00" fill="#383838">my&#45;identity&#45;pool</text>
</g>
<!-- IdentityPoolProviderPrincipalTag::my&#45;identity&#45;pool&#45;&gt;IdentityPool::my&#45;identity&#45;pool -->
<g id="edge2" class="edge">
<title>IdentityPoolProviderPrincipalTag::my&#45;identity&#45;pool&#45;&gt;IdentityPool::my&#45;identity&#45;pool</title>
<path fill="none" stroke="#707070" d="M698.28,-242.58C710.05,-239.78 721.75,-236.9 733,-234 741.07,-231.92 749.39,-229.68 757.74,-227.36"/>
<polygon fill="#707070" stroke="#707070" points="758.58,-230.76 767.26,-224.68 756.69,-224.02 758.58,-230.76"/>
</g>
<!-- UserPool::my&#45;pool -->
<g id="node4" class="node">
<title>UserPool::my&#45;pool</title>
<polygon fill="#e5e5e5" stroke="#dddddd" points="1759,-263 1416,-263 1416,-205 1759,-205 1759,-263"/>
<text text-anchor="start" x="1428.5" y="-243.2" font-family="Helvetica,sans-Serif" font-weight="bold" font-size="16.00" fill="#707070">CognitoIdentityServiceProvider::UserPool</text>
<text text-anchor="start" x="1428.5" y="-218.2" font-family="Helvetica,sans-Serif" font-size="16.00" fill="#383838">my&#45;pool</text>
</g>
<!-- IdentityPoolProviderPrincipalTag::my&#45;identity&#45;pool&#45;&gt;UserPool::my&#45;pool -->
<g id="edge3" class="edge">
<title>IdentityPoolProviderPrincipalTag::my&#45;identity&#45;pool&#45;&gt;UserPool::my&#45;pool</title>
<path fill="none" stroke="#707070" d="M733.22,-265.62C919.26,-258.72 1214.44,-247.79 1404.28,-240.75"/>
<polygon fill="#707070" stroke="#707070" points="1404.4,-244.25 1414.27,-240.38 1404.14,-237.25 1404.4,-244.25"/>
</g>
<!-- IdentityPoolRolesAttachments::my&#45;identity&#45;pool -->
<g id="node3" class="node">
<title>IdentityPoolRolesAttachments::my&#45;identity&#45;pool</title>
<polygon fill="#e5e5e5" stroke="#dddddd" points="351,-149 24,-149 24,-91 351,-91 351,-149"/>
<text text-anchor="start" x="36.5" y="-129.2" font-family="Helvetica,sans-Serif" font-weight="bold" font-size="16.00" fill="#707070">Cognito::IdentityPoolRolesAttachments</text>
<text text-anchor="start" x="36.5" y="-104.2" font-family="Helvetica,sans-Serif" font-size="16.00" fill="#383838">my&#45;identity&#45;pool</text>
</g>
<!-- IdentityPoolRolesAttachments::my&#45;identity&#45;pool&#45;&gt;IdentityPool::my&#45;identity&#45;pool -->
<g id="edge4" class="edge">
<title>IdentityPoolRolesAttachments::my&#45;identity&#45;pool&#45;&gt;IdentityPool::my&#45;identity&#45;pool</title>
<path fill="none" stroke="#707070" d="M281.06,-90.52C392.26,-60.24 582.62,-24.91 733,-82 773,-97.19 808.53,-131.16 832.03,-158.09"/>
<polygon fill="#707070" stroke="#707070" points="829.1,-160.05 838.25,-165.4 834.43,-155.51 829.1,-160.05"/>
</g>
<!-- Role::Cognito_myidentitypoolAuth_Role -->
<g id="node6" class="node">
<title>Role::Cognito_myidentitypoolAuth_Role</title>
<polygon fill="#e5e5e5" stroke="#dddddd" points="694,-149 426,-149 426,-91 694,-91 694,-149"/>
<text text-anchor="start" x="438" y="-129.2" font-family="Helvetica,sans-Serif" font-weight="bold" font-size="16.00" fill="#707070">IAM::Role</text>
<text text-anchor="start" x="438" y="-104.2" font-family="Helvetica,sans-Serif" font-size="16.00" fill="#383838">Cognito_myidentitypoolAuth_Role</text>
</g>
<!-- IdentityPoolRolesAttachments::my&#45;identity&#45;pool&#45;&gt;Role::Cognito_myidentitypoolAuth_Role -->
<g id="edge5" class="edge">
<title>IdentityPoolRolesAttachments::my&#45;identity&#45;pool&#45;&gt;Role::Cognito_myidentitypoolAuth_Role</title>
<path fill="none" stroke="#707070" d="M351.28,-120C372.26,-120 393.63,-120 414.3,-120"/>
<polygon fill="#707070" stroke="#707070" points="414.19,-123.5 424.19,-120 414.19,-116.5 414.19,-123.5"/>
</g>
<!-- Role::Cognito_myidentitypoolUnauth_Role -->
<g id="node7" class="node">
<title>Role::Cognito_myidentitypoolUnauth_Role</title>
<polygon fill="#e5e5e5" stroke="#dddddd" points="706,-225 414,-225 414,-167 706,-167 706,-225"/>
<text text-anchor="start" x="426" y="-205.2" font-family="Helvetica,sans-Serif" font-weight="bold" font-size="16.00" fill="#707070">IAM::Role</text>
<text text-anchor="start" x="426" y="-180.2" font-family="Helvetica,sans-Serif" font-size="16.00" fill="#383838">Cognito_myidentitypoolUnauth_Rol...</text>
</g>
<!-- IdentityPoolRolesAttachments::my&#45;identity&#45;pool&#45;&gt;Role::Cognito_myidentitypoolUnauth_Role -->
<g id="edge6" class="edge">
<title>IdentityPoolRolesAttachments::my&#45;identity&#45;pool&#45;&gt;Role::Cognito_myidentitypoolUnauth_Role</title>
<path fill="none" stroke="#707070" d="M332.28,-149.49C355.81,-154.32 380.28,-159.34 404.06,-164.22"/>
<polygon fill="#707070" stroke="#707070" points="403.32,-167.64 413.82,-166.22 404.73,-160.78 403.32,-167.64"/>
</g>
<!-- UserPoolClient::my&#45;app&#45;&gt;UserPool::my&#45;pool -->
<g id="edge7" class="edge">
<title>UserPoolClient::my&#45;app&#45;&gt;UserPool::my&#45;pool</title>
<path fill="none" stroke="#707070" d="M1380.31,-218C1388.37,-218.63 1396.44,-219.25 1404.47,-219.87"/>
<polygon fill="#707070" stroke="#707070" points="1404.04,-223.35 1414.28,-220.64 1404.58,-216.37 1404.04,-223.35"/>
</g>
<!-- Role::Cognito_myidentitypoolAuth_Role&#45;&gt;IdentityPool::my&#45;identity&#45;pool -->
<g id="edge8" class="edge">
<title>Role::Cognito_myidentitypoolAuth_Role&#45;&gt;IdentityPool::my&#45;identity&#45;pool</title>
<path fill="none" stroke="#707070" d="M694.09,-148.43C707.27,-151.54 720.42,-154.75 733,-158 741.07,-160.08 749.39,-162.32 757.74,-164.64"/>
<polygon fill="#707070" stroke="#707070" points="756.69,-167.98 767.26,-167.32 758.58,-161.24 756.69,-167.98"/>
</g>
<!-- Role::Cognito_myidentitypoolUnauth_Role&#45;&gt;IdentityPool::my&#45;identity&#45;pool -->
<g id="edge9" class="edge">
<title>Role::Cognito_myidentitypoolUnauth_Role&#45;&gt;IdentityPool::my&#45;identity&#45;pool</title>
<path fill="none" stroke="#707070" d="M706.41,-196C723.69,-196 741.06,-196 757.6,-196"/>
<polygon fill="#707070" stroke="#707070" points="757.4,-199.5 767.4,-196 757.4,-192.5 757.4,-199.5"/>
</g>
</g>
</svg>
