<?xml version="1.0" encoding="UTF-8" standalone="no"?>
<!DOCTYPE svg PUBLIC "-//W3C//DTD SVG 1.1//EN"
 "http://www.w3.org/Graphics/SVG/1.1/DTD/svg11.dtd">
<!-- Generated by graphviz version 5.0.0 (20220707.1540)
 -->
<!-- Title: graphname Pages: 1 -->
<svg width="549pt" height="389pt"
 viewBox="0.00 0.00 549.00 389.00" xmlns="http://www.w3.org/2000/svg" xmlns:xlink="http://www.w3.org/1999/xlink">
<g id="graph0" class="graph" transform="scale(1 1) rotate(0) translate(4 385)">
<title>graphname</title>
<polygon fill="#fafafa" stroke="transparent" points="-4,4 -4,-385 545,-385 545,4 -4,4"/>
<text text-anchor="start" x="134.5" y="-356.4" font-family="Helvetica,sans-Serif" font-weight="bold" font-size="22.00" fill="#383838">Project customer&#45;gateway</text>
<text text-anchor="start" x="267" y="-340.8" font-family="Helvetica,sans-Serif" font-size="14.00"> &#160;</text>
<text text-anchor="start" x="134.5" y="-319.2" font-family="Helvetica,sans-Serif" font-weight="bold" font-size="16.00" fill="#707070">Target Diagram</text>
<g id="clust1" class="cluster">
<title>cluster_aws</title>
<polygon fill="#f5f5f5" stroke="#f5f5f5" points="8,-8 8,-297 533,-297 533,-8 8,-8"/>
<text text-anchor="start" x="208.5" y="-23" font-family="Helvetica,sans-Serif" font-weight="bold" font-size="20.00" fill="#707070">Provider aws</text>
</g>
<g id="clust2" class="cluster">
<title>cluster_aws_</title>
<polygon fill="#eeeeee" stroke="#eeeeee" points="16,-54 16,-289 525,-289 525,-54 16,-54"/>
<text text-anchor="start" x="270.36" y="-58.3" font-family="Helvetica,sans-Serif" font-size="1.00" fill="#383838"> </text>
</g>
<!-- CustomerGateway::cgw -->
<g id="node1" class="node">
<title>CustomerGateway::cgw</title>
<polygon fill="#e5e5e5" stroke="#dddddd" points="517,-129 310,-129 310,-71 517,-71 517,-129"/>
<text text-anchor="start" x="322.5" y="-109.2" font-family="Helvetica,sans-Serif" font-weight="bold" font-size="16.00" fill="#707070">EC2::CustomerGateway</text>
<text text-anchor="start" x="322.5" y="-84.2" font-family="Helvetica,sans-Serif" font-size="16.00" fill="#383838">cgw</text>
</g>
<!-- Vpc::vpc&#45;vpn -->
<g id="node2" class="node">
<title>Vpc::vpc&#45;vpn</title>
<polygon fill="#e5e5e5" stroke="#dddddd" points="461,-281 366,-281 366,-223 461,-223 461,-281"/>
<text text-anchor="start" x="378.5" y="-261.2" font-family="Helvetica,sans-Serif" font-weight="bold" font-size="16.00" fill="#707070">EC2::Vpc</text>
<text text-anchor="start" x="378.5" y="-236.2" font-family="Helvetica,sans-Serif" font-size="16.00" fill="#383838">vpc&#45;vpn</text>
</g>
<!-- VpnGateway::vpw -->
<g id="node3" class="node">
<title>VpnGateway::vpw</title>
<polygon fill="#e5e5e5" stroke="#dddddd" points="495,-205 332,-205 332,-147 495,-147 495,-205"/>
<text text-anchor="start" x="344.5" y="-185.2" font-family="Helvetica,sans-Serif" font-weight="bold" font-size="16.00" fill="#707070">EC2::VpnGateway</text>
<text text-anchor="start" x="344.5" y="-160.2" font-family="Helvetica,sans-Serif" font-size="16.00" fill="#383838">vpw</text>
</g>
<!-- VpnGatewayAttachment::vpn&#45;gw&#45;attach::vpw::vpc&#45;vpn -->
<g id="node4" class="node">
<title>VpnGatewayAttachment::vpn&#45;gw&#45;attach::vpw::vpc&#45;vpn</title>
<polygon fill="#e5e5e5" stroke="#dddddd" points="274,-243 24,-243 24,-185 274,-185 274,-243"/>
<text text-anchor="start" x="36" y="-223.2" font-family="Helvetica,sans-Serif" font-weight="bold" font-size="16.00" fill="#707070">EC2::VpnGatewayAttachment</text>
<text text-anchor="start" x="36" y="-198.2" font-family="Helvetica,sans-Serif" font-size="16.00" fill="#383838">vpn&#45;gw&#45;attach::vpw::vpc&#45;vpn</text>
</g>
<!-- VpnGatewayAttachment::vpn&#45;gw&#45;attach::vpw::vpc&#45;vpn&#45;&gt;Vpc::vpc&#45;vpn -->
<g id="edge1" class="edge">
<title>VpnGatewayAttachment::vpn&#45;gw&#45;attach::vpw::vpc&#45;vpn&#45;&gt;Vpc::vpc&#45;vpn</title>
<path fill="none" stroke="#707070" d="M274.33,-232C302.86,-236.13 331.82,-240.32 355.81,-243.79"/>
<polygon fill="#707070" stroke="#707070" points="355.37,-247.27 365.77,-245.23 356.37,-240.34 355.37,-247.27"/>
</g>
<!-- VpnGatewayAttachment::vpn&#45;gw&#45;attach::vpw::vpc&#45;vpn&#45;&gt;VpnGateway::vpw -->
<g id="edge2" class="edge">
<title>VpnGatewayAttachment::vpn&#45;gw&#45;attach::vpw::vpc&#45;vpn&#45;&gt;VpnGateway::vpw</title>
<path fill="none" stroke="#707070" d="M274.33,-196C290.31,-193.69 306.43,-191.36 321.73,-189.14"/>
<polygon fill="#707070" stroke="#707070" points="322.26,-192.6 331.66,-187.7 321.26,-185.67 322.26,-192.6"/>
</g>
<!-- VpnConnection::vpn&#45;connection -->
<g id="node5" class="node">
<title>VpnConnection::vpn&#45;connection</title>
<polygon fill="#e5e5e5" stroke="#dddddd" points="241,-167 57,-167 57,-109 241,-109 241,-167"/>
<text text-anchor="start" x="69" y="-147.2" font-family="Helvetica,sans-Serif" font-weight="bold" font-size="16.00" fill="#707070">EC2::VpnConnection</text>
<text text-anchor="start" x="69" y="-122.2" font-family="Helvetica,sans-Serif" font-size="16.00" fill="#383838">vpn&#45;connection</text>
</g>
<!-- VpnConnection::vpn&#45;connection&#45;&gt;CustomerGateway::cgw -->
<g id="edge3" class="edge">
<title>VpnConnection::vpn&#45;connection&#45;&gt;CustomerGateway::cgw</title>
<path fill="none" stroke="#707070" d="M241.07,-124.82C260.07,-122.07 280.32,-119.13 299.99,-116.29"/>
<polygon fill="#707070" stroke="#707070" points="300.51,-119.75 309.9,-114.85 299.51,-112.82 300.51,-119.75"/>
</g>
<!-- VpnConnection::vpn&#45;connection&#45;&gt;VpnGateway::vpw -->
<g id="edge4" class="edge">
<title>VpnConnection::vpn&#45;connection&#45;&gt;VpnGateway::vpw</title>
<path fill="none" stroke="#707070" d="M241.07,-151.18C267.09,-154.95 295.43,-159.05 321.45,-162.82"/>
<polygon fill="#707070" stroke="#707070" points="321.27,-166.33 331.67,-164.3 322.28,-159.4 321.27,-166.33"/>
</g>
</g>
</svg>
