<?xml version="1.0" encoding="UTF-8" standalone="no"?>
<!DOCTYPE svg PUBLIC "-//W3C//DTD SVG 1.1//EN"
 "http://www.w3.org/Graphics/SVG/1.1/DTD/svg11.dtd">
<!-- Generated by graphviz version 2.44.1 (20200629.0846)
 -->
<!-- Title: graphname Pages: 1 -->
<svg width="832pt" height="525pt"
 viewBox="0.00 0.00 832.00 525.00" xmlns="http://www.w3.org/2000/svg" xmlns:xlink="http://www.w3.org/1999/xlink">
<g id="graph0" class="graph" transform="scale(1 1) rotate(0) translate(4 521)">
<title>graphname</title>
<polygon fill="#fafafa" stroke="transparent" points="-4,4 -4,-521 828,-521 828,4 -4,4"/>
<text text-anchor="start" x="334" y="-492.4" font-family="Helvetica,sans-Serif" font-weight="bold" font-size="22.00" fill="#383838">Project volume</text>
<text text-anchor="start" x="408.5" y="-476.8" font-family="Helvetica,sans-Serif" font-size="14.00"> &#160;</text>
<text text-anchor="start" x="334" y="-455.2" font-family="Helvetica,sans-Serif" font-weight="bold" font-size="16.00" fill="#707070">Live Diagram</text>
<g id="clust1" class="cluster">
<title>cluster_aws</title>
<polygon fill="#f5f5f5" stroke="#f5f5f5" points="8,-8 8,-433 816,-433 816,-8 8,-8"/>
<text text-anchor="start" x="350" y="-23" font-family="Helvetica,sans-Serif" font-weight="bold" font-size="20.00" fill="#707070">Provider aws</text>
</g>
<g id="clust2" class="cluster">
<title>cluster_aws_</title>
<polygon fill="#eeeeee" stroke="#eeeeee" points="16,-54 16,-425 808,-425 808,-54 16,-54"/>
<text text-anchor="start" x="411.86" y="-58.3" font-family="Helvetica,sans-Serif" font-size="1.00" fill="#383838"> </text>
</g>
<!-- Image::::Amazon Linux 2 -->
<g id="node1" class="node">
<title>Image::::Amazon Linux 2</title>
<polygon fill="#e5e5e5" stroke="#dddddd" points="403.5,-129 262.5,-129 262.5,-71 403.5,-71 403.5,-129"/>
<text text-anchor="start" x="275" y="-109.2" font-family="Helvetica,sans-Serif" font-weight="bold" font-size="16.00" fill="#707070">EC2::Image</text>
<text text-anchor="start" x="275" y="-84.2" font-family="Helvetica,sans-Serif" font-size="16.00" fill="#383838">Amazon Linux 2</text>
</g>
<!-- Instance::::server&#45;4&#45;test&#45;volume -->
<g id="node2" class="node">
<title>Instance::::server&#45;4&#45;test&#45;volume</title>
<polygon fill="#e5e5e5" stroke="#dddddd" points="197,-301 24,-301 24,-243 197,-243 197,-301"/>
<text text-anchor="start" x="36.5" y="-281.2" font-family="Helvetica,sans-Serif" font-weight="bold" font-size="16.00" fill="#707070">EC2::Instance</text>
<text text-anchor="start" x="36.5" y="-256.2" font-family="Helvetica,sans-Serif" font-size="16.00" fill="#383838">server&#45;4&#45;test&#45;volume</text>
</g>
<!-- Instance::::server&#45;4&#45;test&#45;volume&#45;&gt;Image::::Amazon Linux 2 -->
<g id="edge1" class="edge">
<title>Instance::::server&#45;4&#45;test&#45;volume&#45;&gt;Image::::Amazon Linux 2</title>
<path fill="none" stroke="#707070" d="M133.16,-242.86C155.57,-214.35 192.85,-171.21 233,-143 239.36,-138.53 246.26,-134.38 253.35,-130.56"/>
<polygon fill="#707070" stroke="#707070" points="255.12,-133.59 262.42,-125.91 251.93,-127.36 255.12,-133.59"/>
</g>
<!-- Subnet::::subnet&#45;default -->
<g id="node4" class="node">
<title>Subnet::::subnet&#45;default</title>
<polygon fill="#e5e5e5" stroke="#dddddd" points="628,-321 501,-321 501,-263 628,-263 628,-321"/>
<text text-anchor="start" x="513.5" y="-301.2" font-family="Helvetica,sans-Serif" font-weight="bold" font-size="16.00" fill="#707070">EC2::Subnet</text>
<text text-anchor="start" x="513.5" y="-276.2" font-family="Helvetica,sans-Serif" font-size="16.00" fill="#383838">subnet&#45;default</text>
</g>
<!-- Instance::::server&#45;4&#45;test&#45;volume&#45;&gt;Subnet::::subnet&#45;default -->
<g id="edge3" class="edge">
<title>Instance::::server&#45;4&#45;test&#45;volume&#45;&gt;Subnet::::subnet&#45;default</title>
<path fill="none" stroke="#707070" d="M192.39,-301.01C205.8,-304.74 219.67,-307.96 233,-310 321.07,-323.45 423.69,-314.01 490.93,-304.47"/>
<polygon fill="#707070" stroke="#707070" points="491.61,-307.9 501,-303 490.6,-300.98 491.61,-307.9"/>
</g>
<!-- Volume::::vol&#45;server&#45;4&#45;test&#45;volume -->
<g id="node5" class="node">
<title>Volume::::vol&#45;server&#45;4&#45;test&#45;volume</title>
<polygon fill="#e5e5e5" stroke="#dddddd" points="432.5,-225 233.5,-225 233.5,-167 432.5,-167 432.5,-225"/>
<text text-anchor="start" x="246" y="-205.2" font-family="Helvetica,sans-Serif" font-weight="bold" font-size="16.00" fill="#707070">EC2::Volume</text>
<text text-anchor="start" x="246" y="-180.2" font-family="Helvetica,sans-Serif" font-size="16.00" fill="#383838">vol&#45;server&#45;4&#45;test&#45;volume</text>
</g>
<!-- Instance::::server&#45;4&#45;test&#45;volume&#45;&gt;Volume::::vol&#45;server&#45;4&#45;test&#45;volume -->
<g id="edge4" class="edge">
<title>Instance::::server&#45;4&#45;test&#45;volume&#45;&gt;Volume::::vol&#45;server&#45;4&#45;test&#45;volume</title>
<path fill="none" stroke="#707070" d="M195.81,-242.94C209.63,-238.18 224.04,-233.21 238.09,-228.37"/>
<polygon fill="#707070" stroke="#707070" points="239.43,-231.61 247.74,-225.04 237.15,-224.99 239.43,-231.61"/>
</g>
<!-- Volume::::volume&#45;test&#45;volume -->
<g id="node6" class="node">
<title>Volume::::volume&#45;test&#45;volume</title>
<polygon fill="#e5e5e5" stroke="#dddddd" points="416,-301 250,-301 250,-243 416,-243 416,-301"/>
<text text-anchor="start" x="262" y="-281.2" font-family="Helvetica,sans-Serif" font-weight="bold" font-size="16.00" fill="#707070">EC2::Volume</text>
<text text-anchor="start" x="262" y="-256.2" font-family="Helvetica,sans-Serif" font-size="16.00" fill="#383838">volume&#45;test&#45;volume</text>
</g>
<!-- Instance::::server&#45;4&#45;test&#45;volume&#45;&gt;Volume::::volume&#45;test&#45;volume -->
<g id="edge5" class="edge">
<title>Instance::::server&#45;4&#45;test&#45;volume&#45;&gt;Volume::::volume&#45;test&#45;volume</title>
<path fill="none" stroke="#707070" d="M197.07,-272C211,-272 225.48,-272 239.57,-272"/>
<polygon fill="#707070" stroke="#707070" points="239.74,-275.5 249.74,-272 239.74,-268.5 239.74,-275.5"/>
</g>
<!-- Vpc::::vpc&#45;default -->
<g id="node7" class="node">
<title>Vpc::::vpc&#45;default</title>
<polygon fill="#e5e5e5" stroke="#dddddd" points="800,-321 696,-321 696,-263 800,-263 800,-321"/>
<text text-anchor="start" x="708" y="-301.2" font-family="Helvetica,sans-Serif" font-weight="bold" font-size="16.00" fill="#707070">EC2::Vpc</text>
<text text-anchor="start" x="708" y="-276.2" font-family="Helvetica,sans-Serif" font-size="16.00" fill="#383838">vpc&#45;default</text>
</g>
<!-- Instance::::server&#45;4&#45;test&#45;volume&#45;&gt;Vpc::::vpc&#45;default -->
<g id="edge2" class="edge">
<title>Instance::::server&#45;4&#45;test&#45;volume&#45;&gt;Vpc::::vpc&#45;default</title>
<path fill="none" stroke="#707070" d="M131.99,-242.85C153.49,-215.05 190.1,-174.97 233,-158 315.65,-125.3 345.88,-140.34 433,-158 526.38,-176.93 626.29,-224.92 687.72,-258.01"/>
<polygon fill="#707070" stroke="#707070" points="686.41,-261.29 696.87,-262.99 689.75,-255.14 686.41,-261.29"/>
</g>
<!-- NetworkInterface::::eni&#45;0127f59368544463a -->
<g id="node8" class="node">
<title>NetworkInterface::::eni&#45;0127f59368544463a</title>
<polygon fill="#e5e5e5" stroke="#dddddd" points="433,-397 233,-397 233,-339 433,-339 433,-397"/>
<text text-anchor="start" x="245" y="-377.2" font-family="Helvetica,sans-Serif" font-weight="bold" font-size="16.00" fill="#707070">EC2::NetworkInterface</text>
<text text-anchor="start" x="245" y="-352.2" font-family="Helvetica,sans-Serif" font-size="16.00" fill="#383838">eni&#45;0127f59368544463a</text>
</g>
<!-- Instance::::server&#45;4&#45;test&#45;volume&#45;&gt;NetworkInterface::::eni&#45;0127f59368544463a -->
<g id="edge6" class="edge">
<title>Instance::::server&#45;4&#45;test&#45;volume&#45;&gt;NetworkInterface::::eni&#45;0127f59368544463a</title>
<path fill="none" stroke="#707070" d="M178.02,-301.04C195.87,-308.83 215.17,-317.24 233,-325 240.39,-328.22 248.09,-331.57 255.79,-334.91"/>
<polygon fill="#707070" stroke="#707070" points="254.59,-338.21 265.16,-338.99 257.38,-331.79 254.59,-338.21"/>
</g>
<!-- SecurityGroup::::sg&#45;default&#45;vpc&#45;default -->
<g id="node9" class="node">
<title>SecurityGroup::::sg&#45;default&#45;vpc&#45;default</title>
<polygon fill="#e5e5e5" stroke="#dddddd" points="655,-417 474,-417 474,-359 655,-359 655,-417"/>
<text text-anchor="start" x="486.5" y="-397.2" font-family="Helvetica,sans-Serif" font-weight="bold" font-size="16.00" fill="#707070">EC2::SecurityGroup</text>
<text text-anchor="start" x="486.5" y="-372.2" font-family="Helvetica,sans-Serif" font-size="16.00" fill="#383838">sg&#45;default&#45;vpc&#45;default</text>
</g>
<!-- Instance::::server&#45;4&#45;test&#45;volume&#45;&gt;SecurityGroup::::sg&#45;default&#45;vpc&#45;default -->
<g id="edge7" class="edge">
<title>Instance::::server&#45;4&#45;test&#45;volume&#45;&gt;SecurityGroup::::sg&#45;default&#45;vpc&#45;default</title>
<path fill="none" stroke="#707070" d="M127.6,-301.04C147.51,-333.6 184.77,-384.63 233,-406 305.61,-438.18 396.14,-430.36 464.09,-416.36"/>
<polygon fill="#707070" stroke="#707070" points="464.89,-419.77 473.94,-414.26 463.43,-412.92 464.89,-419.77"/>
</g>
<!-- InternetGateway::::default -->
<g id="node3" class="node">
<title>InternetGateway::::default</title>
<polygon fill="#e5e5e5" stroke="#dddddd" points="660,-129 469,-129 469,-71 660,-71 660,-129"/>
<text text-anchor="start" x="481.5" y="-109.2" font-family="Helvetica,sans-Serif" font-weight="bold" font-size="16.00" fill="#707070">EC2::InternetGateway</text>
<text text-anchor="start" x="481.5" y="-84.2" font-family="Helvetica,sans-Serif" font-size="16.00" fill="#383838">default</text>
</g>
<!-- InternetGateway::::default&#45;&gt;Vpc::::vpc&#45;default -->
<g id="edge8" class="edge">
<title>InternetGateway::::default&#45;&gt;Vpc::::vpc&#45;default</title>
<path fill="none" stroke="#707070" d="M641.43,-129.27C648.06,-133.36 654.38,-137.93 660,-143 693.89,-173.61 718.27,-220.6 732.45,-253.61"/>
<polygon fill="#707070" stroke="#707070" points="729.26,-255.07 736.35,-262.95 735.72,-252.37 729.26,-255.07"/>
</g>
<!-- Subnet::::subnet&#45;default&#45;&gt;Vpc::::vpc&#45;default -->
<g id="edge13" class="edge">
<title>Subnet::::subnet&#45;default&#45;&gt;Vpc::::vpc&#45;default</title>
<path fill="none" stroke="#707070" d="M628.22,-292C646.89,-292 667.32,-292 685.89,-292"/>
<polygon fill="#707070" stroke="#707070" points="685.99,-295.5 695.99,-292 685.99,-288.5 685.99,-295.5"/>
</g>
<!-- NetworkInterface::::eni&#45;0127f59368544463a&#45;&gt;Subnet::::subnet&#45;default -->
<g id="edge11" class="edge">
<title>NetworkInterface::::eni&#45;0127f59368544463a&#45;&gt;Subnet::::subnet&#45;default</title>
<path fill="none" stroke="#707070" d="M421.75,-338.94C444.67,-331.35 469.13,-323.25 491.15,-315.96"/>
<polygon fill="#707070" stroke="#707070" points="492.37,-319.24 500.76,-312.78 490.17,-312.6 492.37,-319.24"/>
</g>
<!-- NetworkInterface::::eni&#45;0127f59368544463a&#45;&gt;Vpc::::vpc&#45;default -->
<g id="edge10" class="edge">
<title>NetworkInterface::::eni&#45;0127f59368544463a&#45;&gt;Vpc::::vpc&#45;default</title>
<path fill="none" stroke="#707070" d="M433.12,-354.46C445.2,-352.9 457.38,-351.38 469,-350 553.76,-339.91 577.47,-351.78 660,-330 668.78,-327.68 677.81,-324.6 686.57,-321.2"/>
<polygon fill="#707070" stroke="#707070" points="688,-324.4 695.95,-317.4 685.37,-317.91 688,-324.4"/>
</g>
<!-- NetworkInterface::::eni&#45;0127f59368544463a&#45;&gt;SecurityGroup::::sg&#45;default&#45;vpc&#45;default -->
<g id="edge9" class="edge">
<title>NetworkInterface::::eni&#45;0127f59368544463a&#45;&gt;SecurityGroup::::sg&#45;default&#45;vpc&#45;default</title>
<path fill="none" stroke="#707070" d="M433.33,-376.66C443.41,-377.53 453.66,-378.43 463.75,-379.31"/>
<polygon fill="#707070" stroke="#707070" points="463.51,-382.8 473.77,-380.18 464.12,-375.83 463.51,-382.8"/>
</g>
<!-- SecurityGroup::::sg&#45;default&#45;vpc&#45;default&#45;&gt;Vpc::::vpc&#45;default -->
<g id="edge12" class="edge">
<title>SecurityGroup::::sg&#45;default&#45;vpc&#45;default&#45;&gt;Vpc::::vpc&#45;default</title>
<path fill="none" stroke="#707070" d="M632.08,-358.92C641.54,-354.44 651.08,-349.72 660,-345 670.75,-339.31 681.99,-332.85 692.7,-326.45"/>
<polygon fill="#707070" stroke="#707070" points="694.8,-329.27 701.54,-321.11 691.17,-323.28 694.8,-329.27"/>
</g>
</g>
</svg>
