<?xml version="1.0" encoding="UTF-8" standalone="no"?>
<!DOCTYPE svg PUBLIC "-//W3C//DTD SVG 1.1//EN"
 "http://www.w3.org/Graphics/SVG/1.1/DTD/svg11.dtd">
<!-- Generated by graphviz version 7.1.0 (20230121.1956)
 -->
<!-- Title: graphname Pages: 1 -->
<svg width="932pt" height="313pt"
 viewBox="0.00 0.00 932.00 313.00" xmlns="http://www.w3.org/2000/svg" xmlns:xlink="http://www.w3.org/1999/xlink">
<g id="graph0" class="graph" transform="scale(1 1) rotate(0) translate(4 309)">
<title>graphname</title>
<polygon fill="#fafafa" stroke="none" points="-4,4 -4,-309 928,-309 928,4 -4,4"/>
<text text-anchor="start" x="384" y="-280.4" font-family="Helvetica,sans-Serif" font-weight="bold" font-size="22.00" fill="#383838">Project volume</text>
<text text-anchor="start" x="458.5" y="-264.8" font-family="Helvetica,sans-Serif" font-size="14.00"> &#160;</text>
<text text-anchor="start" x="384" y="-243.2" font-family="Helvetica,sans-Serif" font-weight="bold" font-size="16.00" fill="#707070">Target Diagram</text>
<g id="clust1" class="cluster">
<title>cluster_aws</title>
<polygon fill="#f5f5f5" stroke="#f5f5f5" points="8,-8 8,-221 916,-221 916,-8 8,-8"/>
<text text-anchor="start" x="400" y="-23" font-family="Helvetica,sans-Serif" font-weight="bold" font-size="20.00" fill="#707070">Provider aws</text>
</g>
<g id="clust2" class="cluster">
<title>cluster_aws_</title>
<polygon fill="#eeeeee" stroke="#eeeeee" points="16,-54 16,-213 908,-213 908,-54 16,-54"/>
<text text-anchor="start" x="461.86" y="-58.3" font-family="Helvetica,sans-Serif" font-size="1.00" fill="#383838"> </text>
</g>
<!-- Volume::my&#45;volume -->
<g id="node1" class="node">
<title>Volume::my&#45;volume</title>
<polygon fill="#e5e5e5" stroke="#dddddd" points="481,-129 359,-129 359,-71 481,-71 481,-129"/>
<text text-anchor="start" x="371" y="-109.2" font-family="Helvetica,sans-Serif" font-weight="bold" font-size="16.00" fill="#707070">EC2::Volume</text>
<text text-anchor="start" x="371" y="-84.2" font-family="Helvetica,sans-Serif" font-size="16.00" fill="#383838">my&#45;volume</text>
</g>
<!-- VolumeAttachment::vol&#45;attachment::my&#45;volume::machine4volume -->
<g id="node2" class="node">
<title>VolumeAttachment::vol&#45;attachment::my&#45;volume::machine4volume</title>
<polygon fill="#e5e5e5" stroke="#dddddd" points="310,-167 24,-167 24,-109 310,-109 310,-167"/>
<text text-anchor="start" x="36" y="-147.2" font-family="Helvetica,sans-Serif" font-weight="bold" font-size="16.00" fill="#707070">EC2::VolumeAttachment</text>
<text text-anchor="start" x="36" y="-122.2" font-family="Helvetica,sans-Serif" font-size="16.00" fill="#383838">vol&#45;attachment::my&#45;volume::machi...</text>
</g>
<!-- VolumeAttachment::vol&#45;attachment::my&#45;volume::machine4volume&#45;&gt;Volume::my&#45;volume -->
<g id="edge1" class="edge">
<title>VolumeAttachment::vol&#45;attachment::my&#45;volume::machine4volume&#45;&gt;Volume::my&#45;volume</title>
<path fill="none" stroke="#707070" d="M310.37,-116.45C323.2,-114.5 335.79,-112.6 347.59,-110.81"/>
<polygon fill="#707070" stroke="#707070" points="347.78,-114.32 357.14,-109.36 346.73,-107.4 347.78,-114.32"/>
</g>
<!-- Instance::machine4volume -->
<g id="node6" class="node">
<title>Instance::machine4volume</title>
<polygon fill="#e5e5e5" stroke="#dddddd" points="494,-205 346,-205 346,-147 494,-147 494,-205"/>
<text text-anchor="start" x="358" y="-185.2" font-family="Helvetica,sans-Serif" font-weight="bold" font-size="16.00" fill="#707070">EC2::Instance</text>
<text text-anchor="start" x="358" y="-160.2" font-family="Helvetica,sans-Serif" font-size="16.00" fill="#383838">machine4volume</text>
</g>
<!-- VolumeAttachment::vol&#45;attachment::my&#45;volume::machine4volume&#45;&gt;Instance::machine4volume -->
<g id="edge2" class="edge">
<title>VolumeAttachment::vol&#45;attachment::my&#45;volume::machine4volume&#45;&gt;Instance::machine4volume</title>
<path fill="none" stroke="#707070" d="M310.37,-159.55C318.55,-160.79 326.63,-162.01 334.47,-163.2"/>
<polygon fill="#707070" stroke="#707070" points="333.86,-166.65 344.27,-164.69 334.91,-159.73 333.86,-166.65"/>
</g>
<!-- Vpc::vpc&#45;default -->
<g id="node3" class="node">
<title>Vpc::vpc&#45;default</title>
<polygon fill="#e5e5e5" stroke="#dddddd" points="900,-167 796,-167 796,-109 900,-109 900,-167"/>
<text text-anchor="start" x="808" y="-147.2" font-family="Helvetica,sans-Serif" font-weight="bold" font-size="16.00" fill="#707070">EC2::Vpc</text>
<text text-anchor="start" x="808" y="-122.2" font-family="Helvetica,sans-Serif" font-size="16.00" fill="#383838">vpc&#45;default</text>
</g>
<!-- Subnet::vpc&#45;default::subnet&#45;default&#45;a -->
<g id="node4" class="node">
<title>Subnet::vpc&#45;default::subnet&#45;default&#45;a</title>
<polygon fill="#e5e5e5" stroke="#dddddd" points="760,-129 530,-129 530,-71 760,-71 760,-129"/>
<text text-anchor="start" x="542" y="-109.2" font-family="Helvetica,sans-Serif" font-weight="bold" font-size="16.00" fill="#707070">EC2::Subnet</text>
<text text-anchor="start" x="542" y="-84.2" font-family="Helvetica,sans-Serif" font-size="16.00" fill="#383838">vpc&#45;default::subnet&#45;default&#45;a</text>
</g>
<!-- Subnet::vpc&#45;default::subnet&#45;default&#45;a&#45;&gt;Vpc::vpc&#45;default -->
<g id="edge3" class="edge">
<title>Subnet::vpc&#45;default::subnet&#45;default&#45;a&#45;&gt;Vpc::vpc&#45;default</title>
<path fill="none" stroke="#707070" d="M760.3,-121.61C768.61,-123.18 776.8,-124.73 784.62,-126.21"/>
<polygon fill="#707070" stroke="#707070" points="783.83,-129.62 794.31,-128.04 785.13,-122.74 783.83,-129.62"/>
</g>
<!-- SecurityGroup::sg::vpc&#45;default::default -->
<g id="node5" class="node">
<title>SecurityGroup::sg::vpc&#45;default::default</title>
<polygon fill="#e5e5e5" stroke="#dddddd" points="739,-205 551,-205 551,-147 739,-147 739,-205"/>
<text text-anchor="start" x="563" y="-185.2" font-family="Helvetica,sans-Serif" font-weight="bold" font-size="16.00" fill="#707070">EC2::SecurityGroup</text>
<text text-anchor="start" x="563" y="-160.2" font-family="Helvetica,sans-Serif" font-size="16.00" fill="#383838">sg::vpc&#45;default::default</text>
</g>
<!-- SecurityGroup::sg::vpc&#45;default::default&#45;&gt;Vpc::vpc&#45;default -->
<g id="edge4" class="edge">
<title>SecurityGroup::sg::vpc&#45;default::default&#45;&gt;Vpc::vpc&#45;default</title>
<path fill="none" stroke="#707070" d="M739.44,-158.33C754.73,-155.44 770.24,-152.51 784.54,-149.81"/>
<polygon fill="#707070" stroke="#707070" points="785.06,-153.27 794.24,-147.98 783.76,-146.39 785.06,-153.27"/>
</g>
<!-- Instance::machine4volume&#45;&gt;Subnet::vpc&#45;default::subnet&#45;default&#45;a -->
<g id="edge5" class="edge">
<title>Instance::machine4volume&#45;&gt;Subnet::vpc&#45;default::subnet&#45;default&#45;a</title>
<path fill="none" stroke="#707070" d="M494.24,-150.31C506.18,-146.17 518.43,-141.95 530,-138 534.74,-136.38 539.59,-134.74 544.49,-133.08"/>
<polygon fill="#707070" stroke="#707070" points="545.48,-136.44 553.84,-129.93 543.25,-129.81 545.48,-136.44"/>
</g>
<!-- Instance::machine4volume&#45;&gt;SecurityGroup::sg::vpc&#45;default::default -->
<g id="edge6" class="edge">
<title>Instance::machine4volume&#45;&gt;SecurityGroup::sg::vpc&#45;default::default</title>
<path fill="none" stroke="#707070" d="M494.33,-176C508.83,-176 524.32,-176 539.62,-176"/>
<polygon fill="#707070" stroke="#707070" points="539.21,-179.5 549.21,-176 539.21,-172.5 539.21,-179.5"/>
</g>
</g>
</svg>
