<?xml version="1.0" encoding="UTF-8" standalone="no"?>
<!DOCTYPE svg PUBLIC "-//W3C//DTD SVG 1.1//EN"
 "http://www.w3.org/Graphics/SVG/1.1/DTD/svg11.dtd">
<!-- Generated by graphviz version 3.0.0 (20220226.1711)
 -->
<!-- Title: graphname Pages: 1 -->
<svg width="890pt" height="409pt"
 viewBox="0.00 0.00 890.00 409.00" xmlns="http://www.w3.org/2000/svg" xmlns:xlink="http://www.w3.org/1999/xlink">
<g id="graph0" class="graph" transform="scale(1 1) rotate(0) translate(4 405)">
<title>graphname</title>
<polygon fill="#fafafa" stroke="transparent" points="-4,4 -4,-405 886,-405 886,4 -4,4"/>
<text text-anchor="start" x="363" y="-376.4" font-family="Helvetica,sans-Serif" font-weight="bold" font-size="22.00" fill="#383838">Project volume</text>
<text text-anchor="start" x="437.5" y="-360.8" font-family="Helvetica,sans-Serif" font-size="14.00"> &#160;</text>
<text text-anchor="start" x="363" y="-339.2" font-family="Helvetica,sans-Serif" font-weight="bold" font-size="16.00" fill="#707070">Live Diagram</text>
<g id="clust1" class="cluster">
<title>cluster_aws</title>
<polygon fill="#f5f5f5" stroke="#f5f5f5" points="8,-8 8,-317 874,-317 874,-8 8,-8"/>
<text text-anchor="start" x="379" y="-23" font-family="Helvetica,sans-Serif" font-weight="bold" font-size="20.00" fill="#707070">Provider aws</text>
</g>
<g id="clust2" class="cluster">
<title>cluster_aws_</title>
<polygon fill="#eeeeee" stroke="#eeeeee" points="16,-54 16,-309 866,-309 866,-54 16,-54"/>
<text text-anchor="start" x="440.86" y="-58.3" font-family="Helvetica,sans-Serif" font-size="1.00" fill="#383838"> </text>
</g>
<!-- Instance::::machine4volume -->
<g id="node1" class="node">
<title>Instance::::machine4volume</title>
<polygon fill="#e5e5e5" stroke="#dddddd" points="494,-253 346,-253 346,-195 494,-195 494,-253"/>
<text text-anchor="start" x="358" y="-233.2" font-family="Helvetica,sans-Serif" font-weight="bold" font-size="16.00" fill="#707070">EC2::Instance</text>
<text text-anchor="start" x="358" y="-208.2" font-family="Helvetica,sans-Serif" font-size="16.00" fill="#383838">machine4volume</text>
</g>
<!-- SecurityGroup::::sg::vpc&#45;default::default -->
<g id="node2" class="node">
<title>SecurityGroup::::sg::vpc&#45;default::default</title>
<polygon fill="#e5e5e5" stroke="#dddddd" points="718,-205 530,-205 530,-147 718,-147 718,-205"/>
<text text-anchor="start" x="542" y="-185.2" font-family="Helvetica,sans-Serif" font-weight="bold" font-size="16.00" fill="#707070">EC2::SecurityGroup</text>
<text text-anchor="start" x="542" y="-160.2" font-family="Helvetica,sans-Serif" font-size="16.00" fill="#383838">sg::vpc&#45;default::default</text>
</g>
<!-- Instance::::machine4volume&#45;&gt;SecurityGroup::::sg::vpc&#45;default::default -->
<g id="edge4" class="edge">
<title>Instance::::machine4volume&#45;&gt;SecurityGroup::::sg::vpc&#45;default::default</title>
<path fill="none" stroke="#707070" d="M494.21,-206.6C502.58,-204.61 511.22,-202.56 519.89,-200.5"/>
<polygon fill="#707070" stroke="#707070" points="520.74,-203.9 529.66,-198.18 519.13,-197.09 520.74,-203.9"/>
</g>
<!-- Subnet::::subnet&#45;default&#45;a -->
<g id="node3" class="node">
<title>Subnet::::subnet&#45;default&#45;a</title>
<polygon fill="#e5e5e5" stroke="#dddddd" points="695,-129 553,-129 553,-71 695,-71 695,-129"/>
<text text-anchor="start" x="565" y="-109.2" font-family="Helvetica,sans-Serif" font-weight="bold" font-size="16.00" fill="#707070">EC2::Subnet</text>
<text text-anchor="start" x="565" y="-84.2" font-family="Helvetica,sans-Serif" font-size="16.00" fill="#383838">subnet&#45;default&#45;a</text>
</g>
<!-- Instance::::machine4volume&#45;&gt;Subnet::::subnet&#45;default&#45;a -->
<g id="edge2" class="edge">
<title>Instance::::machine4volume&#45;&gt;Subnet::::subnet&#45;default&#45;a</title>
<path fill="none" stroke="#707070" d="M453.13,-194.7C473.97,-176.73 502.31,-154.15 530,-138 534.41,-135.43 539.02,-132.95 543.74,-130.58"/>
<polygon fill="#707070" stroke="#707070" points="545.43,-133.65 552.91,-126.14 542.38,-127.35 545.43,-133.65"/>
</g>
<!-- Volume::::my&#45;volume -->
<g id="node4" class="node">
<title>Volume::::my&#45;volume</title>
<polygon fill="#e5e5e5" stroke="#dddddd" points="685,-301 563,-301 563,-243 685,-243 685,-301"/>
<text text-anchor="start" x="575" y="-281.2" font-family="Helvetica,sans-Serif" font-weight="bold" font-size="16.00" fill="#707070">EC2::Volume</text>
<text text-anchor="start" x="575" y="-256.2" font-family="Helvetica,sans-Serif" font-size="16.00" fill="#383838">my&#45;volume</text>
</g>
<!-- Instance::::machine4volume&#45;&gt;Volume::::my&#45;volume -->
<g id="edge3" class="edge">
<title>Instance::::machine4volume&#45;&gt;Volume::::my&#45;volume</title>
<path fill="none" stroke="#707070" d="M494.21,-241.4C513.44,-245.97 534.13,-250.88 553.18,-255.41"/>
<polygon fill="#707070" stroke="#707070" points="552.43,-258.83 562.97,-257.74 554.05,-252.02 552.43,-258.83"/>
</g>
<!-- Vpc::::vpc&#45;default -->
<g id="node6" class="node">
<title>Vpc::::vpc&#45;default</title>
<polygon fill="#e5e5e5" stroke="#dddddd" points="858,-205 754,-205 754,-147 858,-147 858,-205"/>
<text text-anchor="start" x="766" y="-185.2" font-family="Helvetica,sans-Serif" font-weight="bold" font-size="16.00" fill="#707070">EC2::Vpc</text>
<text text-anchor="start" x="766" y="-160.2" font-family="Helvetica,sans-Serif" font-size="16.00" fill="#383838">vpc&#45;default</text>
</g>
<!-- Instance::::machine4volume&#45;&gt;Vpc::::vpc&#45;default -->
<g id="edge1" class="edge">
<title>Instance::::machine4volume&#45;&gt;Vpc::::vpc&#45;default</title>
<path fill="none" stroke="#707070" d="M494.3,-229.13C555.01,-231.58 643.15,-230.95 718,-214 726.64,-212.04 735.49,-209.23 744.08,-206.01"/>
<polygon fill="#707070" stroke="#707070" points="745.63,-209.16 753.64,-202.22 743.06,-202.65 745.63,-209.16"/>
</g>
<!-- SecurityGroup::::sg::vpc&#45;default::default&#45;&gt;Vpc::::vpc&#45;default -->
<g id="edge5" class="edge">
<title>SecurityGroup::::sg::vpc&#45;default::default&#45;&gt;Vpc::::vpc&#45;default</title>
<path fill="none" stroke="#707070" d="M718.16,-176C726.73,-176 735.26,-176 743.43,-176"/>
<polygon fill="#707070" stroke="#707070" points="743.58,-179.5 753.58,-176 743.58,-172.5 743.58,-179.5"/>
</g>
<!-- Subnet::::subnet&#45;default&#45;a&#45;&gt;Vpc::::vpc&#45;default -->
<g id="edge6" class="edge">
<title>Subnet::::subnet&#45;default&#45;a&#45;&gt;Vpc::::vpc&#45;default</title>
<path fill="none" stroke="#707070" d="M695.15,-128.46C702.87,-131.65 710.61,-134.88 718,-138 726.47,-141.58 735.39,-145.41 744.15,-149.2"/>
<polygon fill="#707070" stroke="#707070" points="743,-152.52 753.56,-153.29 745.79,-146.1 743,-152.52"/>
</g>
<!-- VolumeAttachment::::vol&#45;attachment::my&#45;volume::machine4volume -->
<g id="node5" class="node">
<title>VolumeAttachment::::vol&#45;attachment::my&#45;volume::machine4volume</title>
<polygon fill="#e5e5e5" stroke="#dddddd" points="310,-277 24,-277 24,-219 310,-219 310,-277"/>
<text text-anchor="start" x="36" y="-257.2" font-family="Helvetica,sans-Serif" font-weight="bold" font-size="16.00" fill="#707070">EC2::VolumeAttachment</text>
<text text-anchor="start" x="36" y="-232.2" font-family="Helvetica,sans-Serif" font-size="16.00" fill="#383838">vol&#45;attachment::my&#45;volume::machi...</text>
</g>
<!-- VolumeAttachment::::vol&#45;attachment::my&#45;volume::machine4volume&#45;&gt;Instance::::machine4volume -->
<g id="edge8" class="edge">
<title>VolumeAttachment::::vol&#45;attachment::my&#45;volume::machine4volume&#45;&gt;Instance::::machine4volume</title>
<path fill="none" stroke="#707070" d="M310,-234.42C318.76,-233.59 327.4,-232.76 335.76,-231.96"/>
<polygon fill="#707070" stroke="#707070" points="336.19,-235.43 345.81,-231 335.52,-228.47 336.19,-235.43"/>
</g>
<!-- VolumeAttachment::::vol&#45;attachment::my&#45;volume::machine4volume&#45;&gt;Volume::::my&#45;volume -->
<g id="edge7" class="edge">
<title>VolumeAttachment::::vol&#45;attachment::my&#45;volume::machine4volume&#45;&gt;Volume::::my&#45;volume</title>
<path fill="none" stroke="#707070" d="M310.3,-259.73C322.37,-260.56 334.39,-261.33 346,-262 416.33,-266.03 496.8,-268.72 552.82,-270.29"/>
<polygon fill="#707070" stroke="#707070" points="552.9,-273.79 562.99,-270.57 553.09,-266.79 552.9,-273.79"/>
</g>
</g>
</svg>
