<?xml version="1.0" encoding="UTF-8" standalone="no"?><svg xmlns="http://www.w3.org/2000/svg" xmlns:xlink="http://www.w3.org/1999/xlink" contentScriptType="application/ecmascript" contentStyleType="text/css" height="398px" preserveAspectRatio="none" style="width:498px;height:398px;background:#FFFFFF;" version="1.1" viewBox="0 0 498 398" width="498px" zoomAndPan="magnify"><defs><filter height="300%" id="fgms3l84jiwtz" width="300%" x="-1" y="-1"><feGaussianBlur result="blurOut" stdDeviation="2.0"/><feColorMatrix in="blurOut" result="blurOut2" type="matrix" values="0 0 0 0 0 0 0 0 0 0 0 0 0 0 0 0 0 0 .4 0"/><feOffset dx="4.0" dy="4.0" in="blurOut2" result="blurOut3"/><feBlend in="SourceGraphic" in2="blurOut3" mode="normal"/></filter></defs><g><rect fill="none" height="26.4883" style="stroke:none;stroke-width:1.0;" width="222" x="108" y="15"/><text fill="#000000" font-family="sans-serif" font-size="14" font-weight="bold" lengthAdjust="spacing" textLength="212" x="113" y="33.5352">Resources for project volume</text><rect fill="#F8F8F8" filter="url(#fgms3l84jiwtz)" height="36.4883" rx="12.5" ry="12.5" style="stroke:#383838;stroke-width:1.5;" width="52" x="10" y="198.709"/><text fill="#000000" font-family="sans-serif" font-size="14" lengthAdjust="spacing" textLength="32" x="20" y="222.2441">Infra</text><rect fill="#F8F8F8" filter="url(#fgms3l84jiwtz)" height="36.4883" rx="12.5" ry="12.5" style="stroke:#383838;stroke-width:1.5;" width="46" x="112" y="198.709"/><text fill="#000000" font-family="sans-serif" font-size="14" lengthAdjust="spacing" textLength="26" x="122" y="222.2441">aws</text><rect fill="#F8F8F8" filter="url(#fgms3l84jiwtz)" height="36.4883" rx="12.5" ry="12.5" style="stroke:#383838;stroke-width:1.5;" width="47" x="208" y="198.709"/><text fill="#000000" font-family="sans-serif" font-size="14" lengthAdjust="spacing" textLength="27" x="218" y="222.2441">EC2</text><rect fill="#F8F8F8" filter="url(#fgms3l84jiwtz)" height="36.4883" rx="12.5" ry="12.5" style="stroke:#383838;stroke-width:1.5;" width="95" x="305" y="57.4883"/><text fill="#000000" font-family="sans-serif" font-size="14" lengthAdjust="spacing" textLength="75" x="315" y="81.0234">Volume (1)</text><path d="M255,216.9531 L265,216.9531 C280,216.9531 280,75.7324 295,75.7324 L305,75.7324 " fill="none" style="stroke:#383838;stroke-width:1.0;"/><rect fill="#F8F8F8" filter="url(#fgms3l84jiwtz)" height="36.4883" rx="12.5" ry="12.5" style="stroke:#383838;stroke-width:1.5;" width="174" x="305" y="113.9766"/><text fill="#000000" font-family="sans-serif" font-size="14" lengthAdjust="spacing" textLength="154" x="315" y="137.5117">VolumeAttachment (1)</text><path d="M255,216.9531 L265,216.9531 C280,216.9531 280,132.2207 295,132.2207 L305,132.2207 " fill="none" style="stroke:#383838;stroke-width:1.0;"/><rect fill="#F8F8F8" filter="url(#fgms3l84jiwtz)" height="36.4883" rx="12.5" ry="12.5" style="stroke:#383838;stroke-width:1.5;" width="68" x="305" y="170.4648"/><text fill="#000000" font-family="sans-serif" font-size="14" lengthAdjust="spacing" textLength="48" x="315" y="194">Vpc (1)</text><path d="M255,216.9531 L265,216.9531 C280,216.9531 280,188.709 295,188.709 L305,188.709 " fill="none" style="stroke:#383838;stroke-width:1.0;"/><rect fill="#F8F8F8" filter="url(#fgms3l84jiwtz)" height="36.4883" rx="12.5" ry="12.5" style="stroke:#383838;stroke-width:1.5;" width="91" x="305" y="226.9531"/><text fill="#000000" font-family="sans-serif" font-size="14" lengthAdjust="spacing" textLength="71" x="315" y="250.4883">Subnet (1)</text><path d="M255,216.9531 L265,216.9531 C280,216.9531 280,245.1973 295,245.1973 L305,245.1973 " fill="none" style="stroke:#383838;stroke-width:1.0;"/><rect fill="#F8F8F8" filter="url(#fgms3l84jiwtz)" height="36.4883" rx="12.5" ry="12.5" style="stroke:#383838;stroke-width:1.5;" width="140" x="305" y="283.4414"/><text fill="#000000" font-family="sans-serif" font-size="14" lengthAdjust="spacing" textLength="120" x="315" y="306.9766">SecurityGroup (1)</text><path d="M255,216.9531 L265,216.9531 C280,216.9531 280,301.6855 295,301.6855 L305,301.6855 " fill="none" style="stroke:#383838;stroke-width:1.0;"/><rect fill="#F8F8F8" filter="url(#fgms3l84jiwtz)" height="36.4883" rx="12.5" ry="12.5" style="stroke:#383838;stroke-width:1.5;" width="100" x="305" y="339.9297"/><text fill="#000000" font-family="sans-serif" font-size="14" lengthAdjust="spacing" textLength="80" x="315" y="363.4648">Instance (1)</text><path d="M255,216.9531 L265,216.9531 C280,216.9531 280,358.1738 295,358.1738 L305,358.1738 " fill="none" style="stroke:#383838;stroke-width:1.0;"/><path d="M158,216.9531 L168,216.9531 C183,216.9531 183,216.9531 198,216.9531 L208,216.9531 " fill="none" style="stroke:#383838;stroke-width:1.0;"/><path d="M62,216.9531 L72,216.9531 C87,216.9531 87,216.9531 102,216.9531 L112,216.9531 " fill="none" style="stroke:#383838;stroke-width:1.0;"/><!--MD5=[36db113aa74d8cc71e22ad82bac5ef78]
@startmindmap
title Resources for project volume
skinparam monochrome true
+ Infra
++ aws
+++ EC2
++++ Volume (1)
++++ VolumeAttachment (1)
++++ Vpc (1)
++++ Subnet (1)
++++ SecurityGroup (1)
++++ Instance (1)
@endmindmap

PlantUML version 1.2021.8(Sat Jun 26 10:20:59 CEST 2021)
(GPL source distribution)
Java Runtime: OpenJDK Runtime Environment
JVM: OpenJDK 64-Bit Server VM
Default Encoding: UTF-8
Language: en
Country: GB
--></g></svg>