<?xml version="1.0" encoding="UTF-8" standalone="no"?>
<!DOCTYPE svg PUBLIC "-//W3C//DTD SVG 1.1//EN"
 "http://www.w3.org/Graphics/SVG/1.1/DTD/svg11.dtd">
<!-- Generated by graphviz version 2.44.1 (20200629.0846)
 -->
<!-- Title: graphname Pages: 1 -->
<svg width="322pt" height="845pt"
 viewBox="0.00 0.00 322.00 845.00" xmlns="http://www.w3.org/2000/svg" xmlns:xlink="http://www.w3.org/1999/xlink">
<g id="graph0" class="graph" transform="scale(1 1) rotate(0) translate(4 841)">
<title>graphname</title>
<polygon fill="#fafafa" stroke="transparent" points="-4,4 -4,-841 318,-841 318,4 -4,4"/>
<text text-anchor="start" x="94" y="-812.4" font-family="Helvetica,sans-Serif" font-weight="bold" font-size="22.00" fill="#383838">Project logs</text>
<text text-anchor="start" x="153" y="-796.8" font-family="Helvetica,sans-Serif" font-size="14.00"> &#160;</text>
<text text-anchor="start" x="94" y="-775.2" font-family="Helvetica,sans-Serif" font-weight="bold" font-size="16.00" fill="#707070">Live Diagram</text>
<g id="clust1" class="cluster">
<title>cluster_aws</title>
<polygon fill="#f5f5f5" stroke="#f5f5f5" points="8,-8 8,-753 306,-753 306,-8 8,-8"/>
<text text-anchor="start" x="95" y="-23" font-family="Helvetica,sans-Serif" font-weight="bold" font-size="20.00" fill="#707070">Provider aws</text>
</g>
<g id="clust2" class="cluster">
<title>cluster_aws_</title>
<polygon fill="#eeeeee" stroke="#eeeeee" points="16,-54 16,-745 298,-745 298,-54 16,-54"/>
<text text-anchor="start" x="156.86" y="-58.3" font-family="Helvetica,sans-Serif" font-size="1.00" fill="#383838"> </text>
</g>
<!-- LogGroup::::/aws/ecs/containerinsights/cluster/performance -->
<g id="node1" class="node">
<title>LogGroup::::/aws/ecs/containerinsights/cluster/performance</title>
<polygon fill="#e5e5e5" stroke="#dddddd" points="290,-737 24,-737 24,-679 290,-679 290,-737"/>
<text text-anchor="start" x="36" y="-717.2" font-family="Helvetica,sans-Serif" font-weight="bold" font-size="16.00" fill="#707070">CloudWatchLogs::LogGroup</text>
<text text-anchor="start" x="36" y="-692.2" font-family="Helvetica,sans-Serif" font-size="16.00" fill="#383838">/aws/ecs/containerinsights/clust...</text>
</g>
<!-- LogGroup::::/aws/events/ec2&#45;event&#45;test -->
<g id="node2" class="node">
<title>LogGroup::::/aws/events/ec2&#45;event&#45;test</title>
<polygon fill="#e5e5e5" stroke="#dddddd" points="278.5,-661 35.5,-661 35.5,-603 278.5,-603 278.5,-661"/>
<text text-anchor="start" x="48" y="-641.2" font-family="Helvetica,sans-Serif" font-weight="bold" font-size="16.00" fill="#707070">CloudWatchLogs::LogGroup</text>
<text text-anchor="start" x="48" y="-616.2" font-family="Helvetica,sans-Serif" font-size="16.00" fill="#383838">/aws/events/ec2&#45;event&#45;test</text>
</g>
<!-- LogGroup::::/aws/events/ec2&#45;test -->
<g id="node3" class="node">
<title>LogGroup::::/aws/events/ec2&#45;test</title>
<polygon fill="#e5e5e5" stroke="#dddddd" points="278.5,-585 35.5,-585 35.5,-527 278.5,-527 278.5,-585"/>
<text text-anchor="start" x="48" y="-565.2" font-family="Helvetica,sans-Serif" font-weight="bold" font-size="16.00" fill="#707070">CloudWatchLogs::LogGroup</text>
<text text-anchor="start" x="48" y="-540.2" font-family="Helvetica,sans-Serif" font-size="16.00" fill="#383838">/aws/events/ec2&#45;test</text>
</g>
<!-- LogGroup::::/aws/lambda/gc&#45;hello&#45;world -->
<g id="node4" class="node">
<title>LogGroup::::/aws/lambda/gc&#45;hello&#45;world</title>
<polygon fill="#e5e5e5" stroke="#dddddd" points="278.5,-509 35.5,-509 35.5,-451 278.5,-451 278.5,-509"/>
<text text-anchor="start" x="48" y="-489.2" font-family="Helvetica,sans-Serif" font-weight="bold" font-size="16.00" fill="#707070">CloudWatchLogs::LogGroup</text>
<text text-anchor="start" x="48" y="-464.2" font-family="Helvetica,sans-Serif" font-size="16.00" fill="#383838">/aws/lambda/gc&#45;hello&#45;world</text>
</g>
<!-- LogGroup::::/aws/lambda/my&#45;function -->
<g id="node5" class="node">
<title>LogGroup::::/aws/lambda/my&#45;function</title>
<polygon fill="#e5e5e5" stroke="#dddddd" points="278.5,-433 35.5,-433 35.5,-375 278.5,-375 278.5,-433"/>
<text text-anchor="start" x="48" y="-413.2" font-family="Helvetica,sans-Serif" font-weight="bold" font-size="16.00" fill="#707070">CloudWatchLogs::LogGroup</text>
<text text-anchor="start" x="48" y="-388.2" font-family="Helvetica,sans-Serif" font-size="16.00" fill="#383838">/aws/lambda/my&#45;function</text>
</g>
<!-- LogGroup::::/aws/rds/cluster/cluster&#45;postgres&#45;stateless/postgresql -->
<g id="node6" class="node">
<title>LogGroup::::/aws/rds/cluster/cluster&#45;postgres&#45;stateless/postgresql</title>
<polygon fill="#e5e5e5" stroke="#dddddd" points="288,-357 26,-357 26,-299 288,-299 288,-357"/>
<text text-anchor="start" x="38" y="-337.2" font-family="Helvetica,sans-Serif" font-weight="bold" font-size="16.00" fill="#707070">CloudWatchLogs::LogGroup</text>
<text text-anchor="start" x="38" y="-312.2" font-family="Helvetica,sans-Serif" font-size="16.00" fill="#383838">/aws/rds/cluster/cluster&#45;postgre...</text>
</g>
<!-- LogGroup::::/aws/rds/cluster/cluster/postgresql -->
<g id="node7" class="node">
<title>LogGroup::::/aws/rds/cluster/cluster/postgresql</title>
<polygon fill="#e5e5e5" stroke="#dddddd" points="288,-281 26,-281 26,-223 288,-223 288,-281"/>
<text text-anchor="start" x="38" y="-261.2" font-family="Helvetica,sans-Serif" font-weight="bold" font-size="16.00" fill="#707070">CloudWatchLogs::LogGroup</text>
<text text-anchor="start" x="38" y="-236.2" font-family="Helvetica,sans-Serif" font-size="16.00" fill="#383838">/aws/rds/cluster/cluster/postgre...</text>
</g>
<!-- LogGroup::::/ecs/first&#45;run&#45;task&#45;definition -->
<g id="node8" class="node">
<title>LogGroup::::/ecs/first&#45;run&#45;task&#45;definition</title>
<polygon fill="#e5e5e5" stroke="#dddddd" points="278.5,-205 35.5,-205 35.5,-147 278.5,-147 278.5,-205"/>
<text text-anchor="start" x="48" y="-185.2" font-family="Helvetica,sans-Serif" font-weight="bold" font-size="16.00" fill="#707070">CloudWatchLogs::LogGroup</text>
<text text-anchor="start" x="48" y="-160.2" font-family="Helvetica,sans-Serif" font-size="16.00" fill="#383838">/ecs/first&#45;run&#45;task&#45;definition</text>
</g>
<!-- LogGroup::::my&#45;loggroup -->
<g id="node9" class="node">
<title>LogGroup::::my&#45;loggroup</title>
<polygon fill="#e5e5e5" stroke="#dddddd" points="278.5,-129 35.5,-129 35.5,-71 278.5,-71 278.5,-129"/>
<text text-anchor="start" x="48" y="-109.2" font-family="Helvetica,sans-Serif" font-weight="bold" font-size="16.00" fill="#707070">CloudWatchLogs::LogGroup</text>
<text text-anchor="start" x="48" y="-84.2" font-family="Helvetica,sans-Serif" font-size="16.00" fill="#383838">my&#45;loggroup</text>
</g>
</g>
</svg>
