<?xml version="1.0" encoding="UTF-8" standalone="no"?>
<!DOCTYPE svg PUBLIC "-//W3C//DTD SVG 1.1//EN"
 "http://www.w3.org/Graphics/SVG/1.1/DTD/svg11.dtd">
<!-- Generated by graphviz version 2.44.1 (20200629.0846)
 -->
<!-- Title: graphname Pages: 1 -->
<svg width="494pt" height="237pt"
 viewBox="0.00 0.00 494.00 237.00" xmlns="http://www.w3.org/2000/svg" xmlns:xlink="http://www.w3.org/1999/xlink">
<g id="graph0" class="graph" transform="scale(1 1) rotate(0) translate(4 233)">
<title>graphname</title>
<polygon fill="#fafafa" stroke="transparent" points="-4,4 -4,-233 490,-233 490,4 -4,4"/>
<text text-anchor="start" x="123" y="-204.4" font-family="Helvetica,sans-Serif" font-weight="bold" font-size="22.00" fill="#383838">Project openstack2gcp</text>
<text text-anchor="start" x="239" y="-188.8" font-family="Helvetica,sans-Serif" font-size="14.00"> &#160;</text>
<text text-anchor="start" x="123" y="-167.2" font-family="Helvetica,sans-Serif" font-weight="bold" font-size="16.00" fill="#707070">Target Diagram</text>
<g id="clust1" class="cluster">
<title>cluster_google</title>
<polygon fill="#f5f5f5" stroke="#f5f5f5" points="8,-8 8,-145 478,-145 478,-8 8,-8"/>
<text text-anchor="start" x="168" y="-23" font-family="Helvetica,sans-Serif" font-weight="bold" font-size="20.00" fill="#707070">Provider google</text>
</g>
<g id="clust2" class="cluster">
<title>cluster_google_</title>
<polygon fill="#eeeeee" stroke="#eeeeee" points="16,-54 16,-137 470,-137 470,-54 16,-54"/>
<text text-anchor="start" x="242.86" y="-58.3" font-family="Helvetica,sans-Serif" font-size="1.00" fill="#383838"> </text>
</g>
<!-- Network::rhmig -->
<g id="node1" class="node">
<title>Network::rhmig</title>
<polygon fill="#e5e5e5" stroke="#dddddd" points="462,-129 374,-129 374,-71 462,-71 462,-129"/>
<text text-anchor="start" x="386" y="-109.2" font-family="Helvetica,sans-Serif" font-weight="bold" font-size="16.00" fill="#707070">Network</text>
<text text-anchor="start" x="386" y="-84.2" font-family="Helvetica,sans-Serif" font-size="16.00" fill="#383838">rhmig</text>
</g>
<!-- SubNetwork::subnet&#45;10&#45;0&#45;0&#45;0&#45;16 -->
<g id="node2" class="node">
<title>SubNetwork::subnet&#45;10&#45;0&#45;0&#45;0&#45;16</title>
<polygon fill="#e5e5e5" stroke="#dddddd" points="338,-129 175,-129 175,-71 338,-71 338,-129"/>
<text text-anchor="start" x="187.5" y="-109.2" font-family="Helvetica,sans-Serif" font-weight="bold" font-size="16.00" fill="#707070">SubNetwork</text>
<text text-anchor="start" x="187.5" y="-84.2" font-family="Helvetica,sans-Serif" font-size="16.00" fill="#383838">subnet&#45;10&#45;0&#45;0&#45;0&#45;16</text>
</g>
<!-- SubNetwork::subnet&#45;10&#45;0&#45;0&#45;0&#45;16&#45;&gt;Network::rhmig -->
<g id="edge1" class="edge">
<title>SubNetwork::subnet&#45;10&#45;0&#45;0&#45;0&#45;16&#45;&gt;Network::rhmig</title>
<path fill="none" stroke="#707070" d="M338.18,-100C346.88,-100 355.55,-100 363.8,-100"/>
<polygon fill="#707070" stroke="#707070" points="363.99,-103.5 373.99,-100 363.99,-96.5 363.99,-103.5"/>
</g>
<!-- VmInstance::s1&#45;2&#45;uk1 -->
<g id="node3" class="node">
<title>VmInstance::s1&#45;2&#45;uk1</title>
<polygon fill="#e5e5e5" stroke="#dddddd" points="139,-129 24,-129 24,-71 139,-71 139,-129"/>
<text text-anchor="start" x="36.5" y="-109.2" font-family="Helvetica,sans-Serif" font-weight="bold" font-size="16.00" fill="#707070">VmInstance</text>
<text text-anchor="start" x="36.5" y="-84.2" font-family="Helvetica,sans-Serif" font-size="16.00" fill="#383838">s1&#45;2&#45;uk1</text>
</g>
<!-- VmInstance::s1&#45;2&#45;uk1&#45;&gt;SubNetwork::subnet&#45;10&#45;0&#45;0&#45;0&#45;16 -->
<g id="edge2" class="edge">
<title>VmInstance::s1&#45;2&#45;uk1&#45;&gt;SubNetwork::subnet&#45;10&#45;0&#45;0&#45;0&#45;16</title>
<path fill="none" stroke="#707070" d="M139.15,-100C147.36,-100 155.99,-100 164.67,-100"/>
<polygon fill="#707070" stroke="#707070" points="164.87,-103.5 174.87,-100 164.87,-96.5 164.87,-103.5"/>
</g>
</g>
</svg>
