<?xml version="1.0" encoding="UTF-8" standalone="no"?><svg xmlns="http://www.w3.org/2000/svg" xmlns:xlink="http://www.w3.org/1999/xlink" contentScriptType="application/ecmascript" contentStyleType="text/css" height="796px" preserveAspectRatio="none" style="width:630px;height:796px;background:#FFFFFF;" version="1.1" viewBox="0 0 630 796" width="630px" zoomAndPan="magnify"><defs/><g><rect fill="#FFFFFF" height="784.2524" style="stroke:#000000;stroke-width:2.0;" width="617" x="6" y="6"/><line style="stroke:#000000;stroke-width:2.0;" x1="6" x2="623" y1="27.0146" y2="27.0146"/><text fill="#000000" font-family="Verdana" font-size="14" lengthAdjust="spacing" textLength="200" x="214.5" y="22.0752">OpenStack to GCP Migration</text><ellipse cx="232" cy="53.0146" fill="#000000" rx="10" ry="10" style="stroke:none;stroke-width:1.0;"/><rect fill="#FFFFFF" height="91.5986" style="stroke:#000000;stroke-width:2.0;" width="470" x="143" y="98.0146"/><path d="M360,98.0146 L360,108.0293 L350,118.0293 L143,118.0293 " fill="none" style="stroke:#000000;stroke-width:2.0;"/><text fill="#000000" font-family="Verdana" font-size="14" lengthAdjust="spacing" textLength="207" x="146" y="113.0898">STEP 1: Openstack Inventory</text><path d="M331,139.4216 L331,148.3213 L311,152.3213 L331,156.3213 L331,165.2209 A0,0 0 0 0 331,165.2209 L603,165.2209 A0,0 0 0 0 603,165.2209 L603,149.4216 L593,139.4216 L331,139.4216 A0,0 0 0 0 331,139.4216 " fill="#FFFFFF" style="stroke:#000000;stroke-width:1.0;"/><path d="M593,139.4216 L593,149.4216 L603,149.4216 L593,139.4216 " fill="#FFFFFF" style="stroke:#000000;stroke-width:1.0;"/><text fill="#000000" font-family="Verdana" font-size="13" lengthAdjust="spacing" textLength="251" x="337" y="157.4915">Network, Subnet, Server, Disk etc ...</text><rect fill="#FFFFFF" height="34.584" rx="12.5" ry="12.5" style="stroke:#000000;stroke-width:1.0;" width="158" x="153" y="135.0293"/><text fill="#000000" font-family="Verdana" font-size="12" lengthAdjust="spacing" textLength="134" x="167" y="157.0938">Retrieve live inventory</text><rect fill="#FFFFFF" height="134.4126" style="stroke:#000000;stroke-width:2.0;" width="393" x="16" y="224.6133"/><path d="M399,224.6133 L399,234.6279 L389,244.6279 L16,244.6279 " fill="none" style="stroke:#000000;stroke-width:2.0;"/><text fill="#000000" font-family="Verdana" font-size="14" lengthAdjust="spacing" textLength="373" x="19" y="239.6885">STEP 2: Convert OpenStack Inventory into GCP code</text><path d="M58.5,271.6279 L58.5,329.0259 L187.5,329.0259 L187.5,281.6279 L177.5,271.6279 L58.5,271.6279 " fill="#FFFFFF" style="stroke:#000000;stroke-width:1.0;"/><path d="M177.5,271.6279 L177.5,281.6279 L187.5,281.6279 L177.5,271.6279 " fill="#FFFFFF" style="stroke:#000000;stroke-width:1.0;"/><text fill="#000000" font-family="Verdana" font-size="13" lengthAdjust="spacing" textLength="40" x="64.5" y="289.6978">Input:</text><ellipse cx="70" cy="300.7266" fill="#000000" rx="2.5" ry="2.5" style="stroke:#000000;stroke-width:0.0;"/><text fill="#000000" font-family="Verdana" font-size="13" lengthAdjust="spacing" textLength="95" x="77.5" y="305.4971">inventory.json</text><ellipse cx="70" cy="316.5259" fill="#000000" rx="2.5" ry="2.5" style="stroke:#000000;stroke-width:0.0;"/><text fill="#000000" font-family="Verdana" font-size="13" lengthAdjust="spacing" textLength="89" x="77.5" y="321.2964">mapping.json</text><path d="M276.5,271.6279 L276.5,329.0259 L366.5,329.0259 L366.5,281.6279 L356.5,271.6279 L276.5,271.6279 " fill="#FFFFFF" style="stroke:#000000;stroke-width:1.0;"/><path d="M356.5,271.6279 L356.5,281.6279 L366.5,281.6279 L356.5,271.6279 " fill="#FFFFFF" style="stroke:#000000;stroke-width:1.0;"/><text fill="#000000" font-family="Verdana" font-size="13" lengthAdjust="spacing" textLength="48" x="282.5" y="289.6978">output:</text><ellipse cx="288" cy="300.7266" fill="#000000" rx="2.5" ry="2.5" style="stroke:#000000;stroke-width:0.0;"/><text fill="#000000" font-family="Verdana" font-size="13" lengthAdjust="spacing" textLength="35" x="295.5" y="305.4971">iac.js</text><ellipse cx="288" cy="316.5259" fill="#000000" rx="2.5" ry="2.5" style="stroke:#000000;stroke-width:0.0;"/><text fill="#000000" font-family="Verdana" font-size="13" lengthAdjust="spacing" textLength="56" x="295.5" y="321.2964">config.js</text><rect fill="#FFFFFF" height="32" rx="12.5" ry="12.5" style="stroke:#000000;stroke-width:1.0;" width="69" x="197.5" y="284.3269"/><text fill="#000000" font-family="Courier" font-size="12" lengthAdjust="spacing" textLength="42" x="207.5" y="303.3738">os2gcp</text><rect fill="#FFFFFF" height="197.2119" style="stroke:#000000;stroke-width:2.0;" width="306" x="184" y="394.0259"/><path d="M356,394.0259 L356,404.0405 L346,414.0405 L184,414.0405 " fill="none" style="stroke:#000000;stroke-width:2.0;"/><text fill="#000000" font-family="Verdana" font-size="14" lengthAdjust="spacing" textLength="162" x="187" y="409.1011">STEP 3: Deploy to GCP</text><path d="M286.5,431.0405 L286.5,463.6392 L266.5,467.6392 L286.5,471.6392 L286.5,504.2378 A0,0 0 0 0 286.5,504.2378 L427.5,504.2378 A0,0 0 0 0 427.5,504.2378 L427.5,441.0405 L417.5,431.0405 L286.5,431.0405 A0,0 0 0 0 286.5,431.0405 " fill="#FFFFFF" style="stroke:#000000;stroke-width:1.0;"/><path d="M417.5,431.0405 L417.5,441.0405 L427.5,441.0405 L417.5,431.0405 " fill="#FFFFFF" style="stroke:#000000;stroke-width:1.0;"/><ellipse cx="298" cy="444.3398" fill="#000000" rx="2.5" ry="2.5" style="stroke:#000000;stroke-width:0.0;"/><text fill="#000000" font-family="Verdana" font-size="13" lengthAdjust="spacing" textLength="107" x="305.5" y="449.1104">Project Creation</text><ellipse cx="298" cy="460.1392" fill="#000000" rx="2.5" ry="2.5" style="stroke:#000000;stroke-width:0.0;"/><text fill="#000000" font-family="Verdana" font-size="13" lengthAdjust="spacing" textLength="46" x="305.5" y="464.9097">Billing,</text><ellipse cx="298" cy="475.9385" fill="#000000" rx="2.5" ry="2.5" style="stroke:#000000;stroke-width:0.0;"/><text fill="#000000" font-family="Verdana" font-size="13" lengthAdjust="spacing" textLength="82" x="305.5" y="480.709">Service API,</text><ellipse cx="298" cy="491.7378" fill="#000000" rx="2.5" ry="2.5" style="stroke:#000000;stroke-width:0.0;"/><text fill="#000000" font-family="Verdana" font-size="13" lengthAdjust="spacing" textLength="96" x="305.5" y="496.5083">Credential File</text><rect fill="#FFFFFF" height="32" rx="12.5" ry="12.5" style="stroke:#000000;stroke-width:1.0;" width="69" x="197.5" y="451.6392"/><text fill="#000000" font-family="Courier" font-size="12" lengthAdjust="spacing" textLength="49" x="207.5" y="470.686">gc init</text><path d="M290,542.3381 L290,551.2378 L270,555.2378 L290,559.2378 L290,568.1375 A0,0 0 0 0 290,568.1375 L480,568.1375 A0,0 0 0 0 480,568.1375 L480,552.3381 L470,542.3381 L290,542.3381 A0,0 0 0 0 290,542.3381 " fill="#FFFFFF" style="stroke:#000000;stroke-width:1.0;"/><path d="M470,542.3381 L470,552.3381 L480,552.3381 L470,542.3381 " fill="#FFFFFF" style="stroke:#000000;stroke-width:1.0;"/><text fill="#000000" font-family="Verdana" font-size="13" lengthAdjust="spacing" textLength="169" x="296" y="560.408">Deploy the Infrastructure</text><rect fill="#FFFFFF" height="32" rx="12.5" ry="12.5" style="stroke:#000000;stroke-width:1.0;" width="76" x="194" y="539.2378"/><text fill="#000000" font-family="Courier" font-size="12" lengthAdjust="spacing" textLength="56" x="204" y="558.2847">gc apply</text><rect fill="#FFFFFF" height="89.0146" style="stroke:#000000;stroke-width:2.0;" width="338" x="63" y="626.2378"/><path d="M391,626.2378 L391,636.2524 L381,646.2524 L63,646.2524 " fill="none" style="stroke:#000000;stroke-width:2.0;"/><text fill="#000000" font-family="Verdana" font-size="14" lengthAdjust="spacing" textLength="318" x="66" y="641.313">STEP 4: Generate Terraform code from live *</text><rect fill="#FFFFFF" height="32" rx="12.5" ry="12.5" style="stroke:#000000;stroke-width:1.0;" width="104" x="180" y="663.2524"/><text fill="#000000" font-family="Courier" font-size="12" lengthAdjust="spacing" textLength="84" x="190" y="682.2993">terracognita</text><ellipse cx="232" cy="760.2524" fill="#FFFFFF" rx="10" ry="10" style="stroke:#000000;stroke-width:1.5;"/><line style="stroke:#000000;stroke-width:2.5;" x1="225.8128" x2="238.1872" y1="754.0653" y2="766.4396"/><line style="stroke:#000000;stroke-width:2.5;" x1="238.1872" x2="225.8128" y1="754.0653" y2="766.4396"/><line style="stroke:#000000;stroke-width:1.5;" x1="232" x2="232" y1="63.0146" y2="135.0293"/><polygon fill="#000000" points="228,125.0293,232,135.0293,236,125.0293,232,129.0293" style="stroke:#000000;stroke-width:1.0;"/><line style="stroke:#000000;stroke-width:1.5;" x1="232" x2="232" y1="169.6133" y2="284.3269"/><polygon fill="#000000" points="228,274.3269,232,284.3269,236,274.3269,232,278.3269" style="stroke:#000000;stroke-width:1.0;"/><line style="stroke:#000000;stroke-width:1.5;" x1="232" x2="232" y1="483.6392" y2="539.2378"/><polygon fill="#000000" points="228,529.2378,232,539.2378,236,529.2378,232,533.2378" style="stroke:#000000;stroke-width:1.0;"/><line style="stroke:#000000;stroke-width:1.5;" x1="232" x2="232" y1="316.3269" y2="451.6392"/><polygon fill="#000000" points="228,441.6392,232,451.6392,236,441.6392,232,445.6392" style="stroke:#000000;stroke-width:1.0;"/><line style="stroke:#000000;stroke-width:1.5;" x1="232" x2="232" y1="571.2378" y2="663.2524"/><polygon fill="#000000" points="228,653.2524,232,663.2524,236,653.2524,232,657.2524" style="stroke:#000000;stroke-width:1.0;"/><line style="stroke:#000000;stroke-width:1.5;" x1="232" x2="232" y1="695.2524" y2="750.2524"/><polygon fill="#000000" points="228,740.2524,232,750.2524,236,740.2524,232,744.2524" style="stroke:#000000;stroke-width:1.0;"/><!--MD5=[1eb365853be3a5bd7658203164d4d6be]
@startuml OpenStack2GCP
!theme plain

skinparam svgLinkTarget _blank

card "OpenStack to GCP Migration" {
start

partition "STEP 1: Openstack Inventory" {
: Retrieve live inventory;
note right
Network, Subnet, Server, Disk etc ...
end note
}

partition "STEP 2: Convert OpenStack Inventory into GCP code" {
  :""os2gcp "";
note left
Input: 
* inventory.json
* mapping.json
end note
note right
output: 
* iac.js
* config.js
end note
}

partition "STEP 3: Deploy to GCP" {
  :""gc init"";
note right
* Project Creation
* Billing, 
* Service API,
* Credential File 
end note
:""gc apply"";
note right
Deploy the Infrastructure
end note
}

partition "STEP 4: Generate Terraform code from live *" {
  :""terracognita"";
}

end
}
@enduml

@startuml OpenStack2GCP







<style>
  root {
    BackgroundColor white
    FontColor black
    FontName Verdana
    HyperLinkColor blue
    LineColor black
    LineThickness 1
    Margin 5
  }
  caption {
    LineThickness 0
  }
  footer {
    LineThickness 0
  }
  header {
    LineThickness 0
  }
  node {
    MaximumWidth 300
  }
  title {
    FontSize 22
    LineThickness 0
  }
</style>

skinparam ArrowLollipopColor black
skinparam BackgroundColor white
skinparam DefaultFontName Verdana
skinparam DefaultMonospacedFontName Courier
skinparam LifelineStrategy nosolid
skinparam ParticipantPadding 10
skinparam SequenceLifeLineBorderColor black
skinparam Shadowing false
skinparam UseBetaStyle true

skinparam Activity {
  BackgroundColor white
  BarColor black
  BorderColor black
  FontColor black
  FontName Verdana
}
skinparam Boundary {
  FontColor black
}
skinparam Box {
  Padding 5
}
skinparam CircledCharacter {
  FontColor black
  FontName Courier
  Radius 9
}
skinparam Class {
  BackgroundColor white
  BorderColor black
  FontColor black
  FontName Verdana
}
skinparam ClassAttribute {
  FontColor black
  FontName Verdana
}
skinparam ClassStereotype {
  FontColor black
  FontName Verdana
}
skinparam Footer {
  FontColor black
  FontName Verdana
}
skinparam Header {
  FontColor black
  FontName Verdana
}
skinparam Hyperlink {
  Color blue
}
skinparam IconPackage {
  Color black
  BackgroundColor white
}
skinparam IconPrivate {
  Color black
  BackgroundColor white
}
skinparam IconProtected {
  Color black
  BackgroundColor white
}
skinparam IconPublic {
  Color black
  BackgroundColor white
}
skinparam Note {
  FontColor black
  FontName Verdana
}
skinparam Package {
  BorderColor black
  FontColor black
  FontName Verdana
}
skinparam State {
  BackgroundColor white
  BorderColor black
}
skinparam StereotypeA {
  BackgroundColor white
  BorderColor black
}
skinparam StereotypeC {
  BackgroundColor white
  BorderColor black
}
skinparam StereotypeE {
  BackgroundColor white
  BorderColor black
}
skinparam StereotypeI {
  BackgroundColor white
  BorderColor black
}
skinparam StereotypeN {
  BackgroundColor white
  BorderColor black
}
skinparam UseCaseStereoType {
  FontColor black
  FontName Verdana
}

skinparam svgLinkTarget _blank

card "OpenStack to GCP Migration" {
start

partition "STEP 1: Openstack Inventory" {
: Retrieve live inventory;
note right
Network, Subnet, Server, Disk etc ...
end note
}

partition "STEP 2: Convert OpenStack Inventory into GCP code" {
  :""os2gcp "";
note left
Input: 
* inventory.json
* mapping.json
end note
note right
output: 
* iac.js
* config.js
end note
}

partition "STEP 3: Deploy to GCP" {
  :""gc init"";
note right
* Project Creation
* Billing, 
* Service API,
* Credential File 
end note
:""gc apply"";
note right
Deploy the Infrastructure
end note
}

partition "STEP 4: Generate Terraform code from live *" {
  :""terracognita"";
}

end
}
@enduml

PlantUML version 1.2021.7(Sun May 23 14:40:07 CEST 2021)
(GPL source distribution)
Java Runtime: OpenJDK Runtime Environment
JVM: OpenJDK 64-Bit Server VM
Default Encoding: UTF-8
Language: en
Country: GB
--></g></svg>