<?xml version="1.0" encoding="UTF-8" standalone="no"?>
<!DOCTYPE svg PUBLIC "-//W3C//DTD SVG 1.1//EN"
 "http://www.w3.org/Graphics/SVG/1.1/DTD/svg11.dtd">
<!-- Generated by graphviz version 7.1.0 (20230121.1956)
 -->
<!-- Title: graphname Pages: 1 -->
<svg width="1773pt" height="617pt"
 viewBox="0.00 0.00 1773.00 617.00" xmlns="http://www.w3.org/2000/svg" xmlns:xlink="http://www.w3.org/1999/xlink">
<g id="graph0" class="graph" transform="scale(1 1) rotate(0) translate(4 613)">
<title>graphname</title>
<polygon fill="#fafafa" stroke="none" points="-4,4 -4,-613 1769,-613 1769,4 -4,4"/>
<text text-anchor="start" x="724.5" y="-584.4" font-family="Helvetica,sans-Serif" font-weight="bold" font-size="22.00" fill="#383838">Project apigw&#45;lambda&#45;efs&#45;sam</text>
<text text-anchor="start" x="879" y="-568.8" font-family="Helvetica,sans-Serif" font-size="14.00"> &#160;</text>
<text text-anchor="start" x="724.5" y="-547.2" font-family="Helvetica,sans-Serif" font-weight="bold" font-size="16.00" fill="#707070">Target Diagram</text>
<g id="clust1" class="cluster">
<title>cluster_aws</title>
<polygon fill="#f5f5f5" stroke="#f5f5f5" points="8,-8 8,-525 1757,-525 1757,-8 8,-8"/>
<text text-anchor="start" x="820.5" y="-23" font-family="Helvetica,sans-Serif" font-weight="bold" font-size="20.00" fill="#707070">Provider aws</text>
</g>
<g id="clust2" class="cluster">
<title>cluster_aws_</title>
<polygon fill="#eeeeee" stroke="#eeeeee" points="16,-54 16,-517 1749,-517 1749,-54 16,-54"/>
<text text-anchor="start" x="882.36" y="-58.3" font-family="Helvetica,sans-Serif" font-size="1.00" fill="#383838"> </text>
</g>
<!-- Api::sam&#45;app -->
<g id="node1" class="node">
<title>Api::sam&#45;app</title>
<polygon fill="#e5e5e5" stroke="#dddddd" points="868,-205 696,-205 696,-147 868,-147 868,-205"/>
<text text-anchor="start" x="708" y="-185.2" font-family="Helvetica,sans-Serif" font-weight="bold" font-size="16.00" fill="#707070">ApiGatewayV2::Api</text>
<text text-anchor="start" x="708" y="-160.2" font-family="Helvetica,sans-Serif" font-size="16.00" fill="#383838">sam&#45;app</text>
</g>
<!-- Deployment::deployment::sam&#45;app -->
<g id="node2" class="node">
<title>Deployment::deployment::sam&#45;app</title>
<polygon fill="#e5e5e5" stroke="#dddddd" points="262,-186 24,-186 24,-128 262,-128 262,-186"/>
<text text-anchor="start" x="36" y="-166.2" font-family="Helvetica,sans-Serif" font-weight="bold" font-size="16.00" fill="#707070">ApiGatewayV2::Deployment</text>
<text text-anchor="start" x="36" y="-141.2" font-family="Helvetica,sans-Serif" font-size="16.00" fill="#383838">deployment::sam&#45;app</text>
</g>
<!-- Deployment::deployment::sam&#45;app&#45;&gt;Api::sam&#45;app -->
<g id="edge1" class="edge">
<title>Deployment::deployment::sam&#45;app&#45;&gt;Api::sam&#45;app</title>
<path fill="none" stroke="#707070" d="M262.41,-140.9C274.42,-139.72 286.44,-138.71 298,-138 428.86,-129.96 462.54,-124.95 593,-138 623.11,-141.01 655.54,-146.68 684.85,-152.73"/>
<polygon fill="#707070" stroke="#707070" points="683.92,-156.11 694.43,-154.75 685.37,-149.26 683.92,-156.11"/>
</g>
<!-- Stage::sam&#45;app::$default -->
<g id="node5" class="node">
<title>Stage::sam&#45;app::$default</title>
<polygon fill="#e5e5e5" stroke="#dddddd" points="540.5,-205 350.5,-205 350.5,-147 540.5,-147 540.5,-205"/>
<text text-anchor="start" x="362.5" y="-185.2" font-family="Helvetica,sans-Serif" font-weight="bold" font-size="16.00" fill="#707070">ApiGatewayV2::Stage</text>
<text text-anchor="start" x="362.5" y="-160.2" font-family="Helvetica,sans-Serif" font-size="16.00" fill="#383838">sam&#45;app::$default</text>
</g>
<!-- Deployment::deployment::sam&#45;app&#45;&gt;Stage::sam&#45;app::$default -->
<g id="edge2" class="edge">
<title>Deployment::deployment::sam&#45;app&#45;&gt;Stage::sam&#45;app::$default</title>
<path fill="none" stroke="#707070" d="M262.33,-164.48C287.69,-166.08 314.31,-167.77 339.13,-169.34"/>
<polygon fill="#707070" stroke="#707070" points="338.69,-172.82 348.89,-169.95 339.13,-165.83 338.69,-172.82"/>
</g>
<!-- Integration::integration::sam&#45;app::sam&#45;app&#45;HelloEfsFunction&#45;gxX5FJyW51jA -->
<g id="node3" class="node">
<title>Integration::integration::sam&#45;app::sam&#45;app&#45;HelloEfsFunction&#45;gxX5FJyW51jA</title>
<polygon fill="#e5e5e5" stroke="#dddddd" points="587,-301 304,-301 304,-243 587,-243 587,-301"/>
<text text-anchor="start" x="316.5" y="-281.2" font-family="Helvetica,sans-Serif" font-weight="bold" font-size="16.00" fill="#707070">ApiGatewayV2::Integration</text>
<text text-anchor="start" x="316.5" y="-256.2" font-family="Helvetica,sans-Serif" font-size="16.00" fill="#383838">integration::sam&#45;app::sam&#45;app&#45;He...</text>
</g>
<!-- Integration::integration::sam&#45;app::sam&#45;app&#45;HelloEfsFunction&#45;gxX5FJyW51jA&#45;&gt;Api::sam&#45;app -->
<g id="edge3" class="edge">
<title>Integration::integration::sam&#45;app::sam&#45;app&#45;HelloEfsFunction&#45;gxX5FJyW51jA&#45;&gt;Api::sam&#45;app</title>
<path fill="none" stroke="#707070" d="M551.78,-242.61C565.72,-238.28 579.76,-233.69 593,-229 609.34,-223.22 612.55,-219.45 629,-214 646.72,-208.13 665.87,-202.67 684.41,-197.83"/>
<polygon fill="#707070" stroke="#707070" points="685.25,-201.23 694.07,-195.36 683.52,-194.45 685.25,-201.23"/>
</g>
<!-- Function::sam&#45;app&#45;HelloEfsFunction&#45;gxX5FJyW51jA -->
<g id="node17" class="node">
<title>Function::sam&#45;app&#45;HelloEfsFunction&#45;gxX5FJyW51jA</title>
<polygon fill="#e5e5e5" stroke="#dddddd" points="929.5,-433 634.5,-433 634.5,-375 929.5,-375 929.5,-433"/>
<text text-anchor="start" x="647" y="-413.2" font-family="Helvetica,sans-Serif" font-weight="bold" font-size="16.00" fill="#707070">Lambda::Function</text>
<text text-anchor="start" x="647" y="-388.2" font-family="Helvetica,sans-Serif" font-size="16.00" fill="#383838">sam&#45;app&#45;HelloEfsFunction&#45;gxX5FJy...</text>
</g>
<!-- Integration::integration::sam&#45;app::sam&#45;app&#45;HelloEfsFunction&#45;gxX5FJyW51jA&#45;&gt;Function::sam&#45;app&#45;HelloEfsFunction&#45;gxX5FJyW51jA -->
<g id="edge4" class="edge">
<title>Integration::integration::sam&#45;app::sam&#45;app&#45;HelloEfsFunction&#45;gxX5FJyW51jA&#45;&gt;Function::sam&#45;app&#45;HelloEfsFunction&#45;gxX5FJyW51jA</title>
<path fill="none" stroke="#707070" d="M520.89,-301.42C544.55,-311.84 570.42,-324.4 593,-338 610.36,-348.46 610.77,-357.13 629,-366 632.08,-367.5 635.23,-368.94 638.42,-370.33"/>
<polygon fill="#707070" stroke="#707070" points="636.8,-373.45 647.38,-374.02 639.46,-366.98 636.8,-373.45"/>
</g>
<!-- Route::route::sam&#45;app::$default -->
<g id="node4" class="node">
<title>Route::route::sam&#45;app::$default</title>
<polygon fill="#e5e5e5" stroke="#dddddd" points="243,-272 43,-272 43,-214 243,-214 243,-272"/>
<text text-anchor="start" x="55" y="-252.2" font-family="Helvetica,sans-Serif" font-weight="bold" font-size="16.00" fill="#707070">ApiGatewayV2::Route</text>
<text text-anchor="start" x="55" y="-227.2" font-family="Helvetica,sans-Serif" font-size="16.00" fill="#383838">route::sam&#45;app::$default</text>
</g>
<!-- Route::route::sam&#45;app::$default&#45;&gt;Api::sam&#45;app -->
<g id="edge5" class="edge">
<title>Route::route::sam&#45;app::$default&#45;&gt;Api::sam&#45;app</title>
<path fill="none" stroke="#707070" d="M243.42,-236.92C370.42,-229.1 575.98,-216.26 593,-214 623,-210.02 655.4,-204.07 684.71,-198.06"/>
<polygon fill="#707070" stroke="#707070" points="685.22,-201.53 694.29,-196.07 683.79,-194.68 685.22,-201.53"/>
</g>
<!-- Route::route::sam&#45;app::$default&#45;&gt;Integration::integration::sam&#45;app::sam&#45;app&#45;HelloEfsFunction&#45;gxX5FJyW51jA -->
<g id="edge6" class="edge">
<title>Route::route::sam&#45;app::$default&#45;&gt;Integration::integration::sam&#45;app::sam&#45;app&#45;HelloEfsFunction&#45;gxX5FJyW51jA</title>
<path fill="none" stroke="#707070" d="M243.23,-252.58C259.07,-254.11 275.78,-255.72 292.52,-257.33"/>
<polygon fill="#707070" stroke="#707070" points="291.71,-260.77 302,-258.25 292.38,-253.8 291.71,-260.77"/>
</g>
<!-- Stage::sam&#45;app::$default&#45;&gt;Api::sam&#45;app -->
<g id="edge7" class="edge">
<title>Stage::sam&#45;app::$default&#45;&gt;Api::sam&#45;app</title>
<path fill="none" stroke="#707070" d="M540.57,-176C585.46,-176 639.11,-176 684.33,-176"/>
<polygon fill="#707070" stroke="#707070" points="684.12,-179.5 694.12,-176 684.12,-172.5 684.12,-179.5"/>
</g>
<!-- Vpc::EfsLambdaVpc -->
<g id="node6" class="node">
<title>Vpc::EfsLambdaVpc</title>
<polygon fill="#e5e5e5" stroke="#dddddd" points="1485.5,-317 1351.5,-317 1351.5,-259 1485.5,-259 1485.5,-317"/>
<text text-anchor="start" x="1363.5" y="-297.2" font-family="Helvetica,sans-Serif" font-weight="bold" font-size="16.00" fill="#707070">EC2::Vpc</text>
<text text-anchor="start" x="1363.5" y="-272.2" font-family="Helvetica,sans-Serif" font-size="16.00" fill="#383838">EfsLambdaVpc</text>
</g>
<!-- Subnet::EfsLambdaVpc::EfsLambdaSubnetA -->
<g id="node7" class="node">
<title>Subnet::EfsLambdaVpc::EfsLambdaSubnetA</title>
<polygon fill="#e5e5e5" stroke="#dddddd" points="1267,-241 981,-241 981,-183 1267,-183 1267,-241"/>
<text text-anchor="start" x="993" y="-221.2" font-family="Helvetica,sans-Serif" font-weight="bold" font-size="16.00" fill="#707070">EC2::Subnet</text>
<text text-anchor="start" x="993" y="-196.2" font-family="Helvetica,sans-Serif" font-size="16.00" fill="#383838">EfsLambdaVpc::EfsLambdaSubnetA</text>
</g>
<!-- Subnet::EfsLambdaVpc::EfsLambdaSubnetA&#45;&gt;Vpc::EfsLambdaVpc -->
<g id="edge8" class="edge">
<title>Subnet::EfsLambdaVpc::EfsLambdaSubnetA&#45;&gt;Vpc::EfsLambdaVpc</title>
<path fill="none" stroke="#707070" d="M1243.71,-241.45C1254.97,-244.31 1266.21,-247.19 1277,-250 1297.52,-255.34 1319.69,-261.26 1340.21,-266.81"/>
<polygon fill="#707070" stroke="#707070" points="1339.07,-270.13 1349.64,-269.37 1340.9,-263.37 1339.07,-270.13"/>
</g>
<!-- Subnet::EfsLambdaVpc::EfsLambdaSubnetB -->
<g id="node8" class="node">
<title>Subnet::EfsLambdaVpc::EfsLambdaSubnetB</title>
<polygon fill="#e5e5e5" stroke="#dddddd" points="1267,-413 981,-413 981,-355 1267,-355 1267,-413"/>
<text text-anchor="start" x="993" y="-393.2" font-family="Helvetica,sans-Serif" font-weight="bold" font-size="16.00" fill="#707070">EC2::Subnet</text>
<text text-anchor="start" x="993" y="-368.2" font-family="Helvetica,sans-Serif" font-size="16.00" fill="#383838">EfsLambdaVpc::EfsLambdaSubnetB</text>
</g>
<!-- Subnet::EfsLambdaVpc::EfsLambdaSubnetB&#45;&gt;Vpc::EfsLambdaVpc -->
<g id="edge9" class="edge">
<title>Subnet::EfsLambdaVpc::EfsLambdaSubnetB&#45;&gt;Vpc::EfsLambdaVpc</title>
<path fill="none" stroke="#707070" d="M1214.75,-354.54C1254.96,-341.34 1301.92,-325.93 1340.51,-313.27"/>
<polygon fill="#707070" stroke="#707070" points="1341.31,-316.69 1349.72,-310.25 1339.13,-310.04 1341.31,-316.69"/>
</g>
<!-- SecurityGroup::sg::EfsLambdaVpc::sam&#45;app&#45;EfsLambdaSecurityGroup&#45;1470HXE3IQCYM -->
<g id="node9" class="node">
<title>SecurityGroup::sg::EfsLambdaVpc::sam&#45;app&#45;EfsLambdaSecurityGroup&#45;1470HXE3IQCYM</title>
<polygon fill="#e5e5e5" stroke="#dddddd" points="1277,-317 971,-317 971,-259 1277,-259 1277,-317"/>
<text text-anchor="start" x="983" y="-297.2" font-family="Helvetica,sans-Serif" font-weight="bold" font-size="16.00" fill="#707070">EC2::SecurityGroup</text>
<text text-anchor="start" x="983" y="-272.2" font-family="Helvetica,sans-Serif" font-size="16.00" fill="#383838">sg::EfsLambdaVpc::sam&#45;app&#45;EfsLam...</text>
</g>
<!-- SecurityGroup::sg::EfsLambdaVpc::sam&#45;app&#45;EfsLambdaSecurityGroup&#45;1470HXE3IQCYM&#45;&gt;Vpc::EfsLambdaVpc -->
<g id="edge10" class="edge">
<title>SecurityGroup::sg::EfsLambdaVpc::sam&#45;app&#45;EfsLambdaSecurityGroup&#45;1470HXE3IQCYM&#45;&gt;Vpc::EfsLambdaVpc</title>
<path fill="none" stroke="#707070" d="M1277.25,-288C1298.84,-288 1320.27,-288 1339.63,-288"/>
<polygon fill="#707070" stroke="#707070" points="1339.57,-291.5 1349.57,-288 1339.57,-284.5 1339.57,-291.5"/>
</g>
<!-- SecurityGroupRuleIngress::sg::EfsLambdaVpc::sam&#45;app&#45;EfsLambdaSecurityGroup&#45;1470HXE3IQCYM&#45;rule&#45;ingress&#45;tcp&#45;0&#45;65535 -->
<g id="node10" class="node">
<title>SecurityGroupRuleIngress::sg::EfsLambdaVpc::sam&#45;app&#45;EfsLambdaSecurityGroup&#45;1470HXE3IQCYM&#45;rule&#45;ingress&#45;tcp&#45;0&#45;65535</title>
<polygon fill="#e5e5e5" stroke="#dddddd" points="935,-357 629,-357 629,-299 935,-299 935,-357"/>
<text text-anchor="start" x="641" y="-337.2" font-family="Helvetica,sans-Serif" font-weight="bold" font-size="16.00" fill="#707070">EC2::SecurityGroupRuleIngress</text>
<text text-anchor="start" x="641" y="-312.2" font-family="Helvetica,sans-Serif" font-size="16.00" fill="#383838">sg::EfsLambdaVpc::sam&#45;app&#45;EfsLam...</text>
</g>
<!-- SecurityGroupRuleIngress::sg::EfsLambdaVpc::sam&#45;app&#45;EfsLambdaSecurityGroup&#45;1470HXE3IQCYM&#45;rule&#45;ingress&#45;tcp&#45;0&#45;65535&#45;&gt;SecurityGroup::sg::EfsLambdaVpc::sam&#45;app&#45;EfsLambdaSecurityGroup&#45;1470HXE3IQCYM -->
<g id="edge11" class="edge">
<title>SecurityGroupRuleIngress::sg::EfsLambdaVpc::sam&#45;app&#45;EfsLambdaSecurityGroup&#45;1470HXE3IQCYM&#45;rule&#45;ingress&#45;tcp&#45;0&#45;65535&#45;&gt;SecurityGroup::sg::EfsLambdaVpc::sam&#45;app&#45;EfsLambdaSecurityGroup&#45;1470HXE3IQCYM</title>
<path fill="none" stroke="#707070" d="M935.1,-310.11C943.15,-309.16 951.26,-308.2 959.34,-307.25"/>
<polygon fill="#707070" stroke="#707070" points="959.73,-310.73 969.25,-306.09 958.91,-303.78 959.73,-310.73"/>
</g>
<!-- SecurityGroupRuleEgress::sg::EfsLambdaVpc::sam&#45;app&#45;EfsLambdaSecurityGroup&#45;1470HXE3IQCYM&#45;rule&#45;egress&#45;tcp&#45;0&#45;65535 -->
<g id="node11" class="node">
<title>SecurityGroupRuleEgress::sg::EfsLambdaVpc::sam&#45;app&#45;EfsLambdaSecurityGroup&#45;1470HXE3IQCYM&#45;rule&#45;egress&#45;tcp&#45;0&#45;65535</title>
<polygon fill="#e5e5e5" stroke="#dddddd" points="935,-281 629,-281 629,-223 935,-223 935,-281"/>
<text text-anchor="start" x="641" y="-261.2" font-family="Helvetica,sans-Serif" font-weight="bold" font-size="16.00" fill="#707070">EC2::SecurityGroupRuleEgress</text>
<text text-anchor="start" x="641" y="-236.2" font-family="Helvetica,sans-Serif" font-size="16.00" fill="#383838">sg::EfsLambdaVpc::sam&#45;app&#45;EfsLam...</text>
</g>
<!-- SecurityGroupRuleEgress::sg::EfsLambdaVpc::sam&#45;app&#45;EfsLambdaSecurityGroup&#45;1470HXE3IQCYM&#45;rule&#45;egress&#45;tcp&#45;0&#45;65535&#45;&gt;SecurityGroup::sg::EfsLambdaVpc::sam&#45;app&#45;EfsLambdaSecurityGroup&#45;1470HXE3IQCYM -->
<g id="edge12" class="edge">
<title>SecurityGroupRuleEgress::sg::EfsLambdaVpc::sam&#45;app&#45;EfsLambdaSecurityGroup&#45;1470HXE3IQCYM&#45;rule&#45;egress&#45;tcp&#45;0&#45;65535&#45;&gt;SecurityGroup::sg::EfsLambdaVpc::sam&#45;app&#45;EfsLambdaSecurityGroup&#45;1470HXE3IQCYM</title>
<path fill="none" stroke="#707070" d="M935.1,-268.1C943.15,-268.96 951.26,-269.82 959.34,-270.67"/>
<polygon fill="#707070" stroke="#707070" points="958.94,-274.15 969.25,-271.72 959.68,-267.19 958.94,-274.15"/>
</g>
<!-- FileSystem::fs&#45;0ecf7b37ffa6a3610 -->
<g id="node12" class="node">
<title>FileSystem::fs&#45;0ecf7b37ffa6a3610</title>
<polygon fill="#e5e5e5" stroke="#dddddd" points="1741,-465 1560,-465 1560,-407 1741,-407 1741,-465"/>
<text text-anchor="start" x="1572.5" y="-445.2" font-family="Helvetica,sans-Serif" font-weight="bold" font-size="16.00" fill="#707070">EFS::FileSystem</text>
<text text-anchor="start" x="1572.5" y="-420.2" font-family="Helvetica,sans-Serif" font-size="16.00" fill="#383838">fs&#45;0ecf7b37ffa6a3610</text>
</g>
<!-- AccessPoint::fsap&#45;0c808ca4e28193cea -->
<g id="node13" class="node">
<title>AccessPoint::fsap&#45;0c808ca4e28193cea</title>
<polygon fill="#e5e5e5" stroke="#dddddd" points="1524,-441 1313,-441 1313,-383 1524,-383 1524,-441"/>
<text text-anchor="start" x="1325.5" y="-421.2" font-family="Helvetica,sans-Serif" font-weight="bold" font-size="16.00" fill="#707070">EFS::AccessPoint</text>
<text text-anchor="start" x="1325.5" y="-396.2" font-family="Helvetica,sans-Serif" font-size="16.00" fill="#383838">fsap&#45;0c808ca4e28193cea</text>
</g>
<!-- AccessPoint::fsap&#45;0c808ca4e28193cea&#45;&gt;FileSystem::fs&#45;0ecf7b37ffa6a3610 -->
<g id="edge13" class="edge">
<title>AccessPoint::fsap&#45;0c808ca4e28193cea&#45;&gt;FileSystem::fs&#45;0ecf7b37ffa6a3610</title>
<path fill="none" stroke="#707070" d="M1524.4,-422.95C1532.28,-423.77 1540.23,-424.6 1548.09,-425.42"/>
<polygon fill="#707070" stroke="#707070" points="1547.71,-428.9 1558.02,-426.45 1548.43,-421.93 1547.71,-428.9"/>
</g>
<!-- MountTarget::mount&#45;target::fs&#45;0ecf7b37ffa6a3610::a -->
<g id="node14" class="node">
<title>MountTarget::mount&#45;target::fs&#45;0ecf7b37ffa6a3610::a</title>
<polygon fill="#e5e5e5" stroke="#dddddd" points="920.5,-129 643.5,-129 643.5,-71 920.5,-71 920.5,-129"/>
<text text-anchor="start" x="656" y="-109.2" font-family="Helvetica,sans-Serif" font-weight="bold" font-size="16.00" fill="#707070">EFS::MountTarget</text>
<text text-anchor="start" x="656" y="-84.2" font-family="Helvetica,sans-Serif" font-size="16.00" fill="#383838">mount&#45;target::fs&#45;0ecf7b37ffa6a36...</text>
</g>
<!-- MountTarget::mount&#45;target::fs&#45;0ecf7b37ffa6a3610::a&#45;&gt;Subnet::EfsLambdaVpc::EfsLambdaSubnetA -->
<g id="edge15" class="edge">
<title>MountTarget::mount&#45;target::fs&#45;0ecf7b37ffa6a3610::a&#45;&gt;Subnet::EfsLambdaVpc::EfsLambdaSubnetA</title>
<path fill="none" stroke="#707070" d="M906.57,-129.45C916.24,-132.19 925.8,-135.05 935,-138 971.32,-149.63 1010.7,-164.74 1044,-178.26"/>
<polygon fill="#707070" stroke="#707070" points="1042.6,-181.47 1053.18,-182.02 1045.25,-174.99 1042.6,-181.47"/>
</g>
<!-- MountTarget::mount&#45;target::fs&#45;0ecf7b37ffa6a3610::a&#45;&gt;SecurityGroup::sg::EfsLambdaVpc::sam&#45;app&#45;EfsLambdaSecurityGroup&#45;1470HXE3IQCYM -->
<g id="edge16" class="edge">
<title>MountTarget::mount&#45;target::fs&#45;0ecf7b37ffa6a3610::a&#45;&gt;SecurityGroup::sg::EfsLambdaVpc::sam&#45;app&#45;EfsLambdaSecurityGroup&#45;1470HXE3IQCYM</title>
<path fill="none" stroke="#707070" d="M920.87,-126.96C925.89,-130.24 930.63,-133.91 935,-138 973.17,-173.73 932.83,-214.27 971,-250 971.51,-250.48 972.03,-250.95 972.55,-251.42"/>
<polygon fill="#707070" stroke="#707070" points="970.24,-254.05 980.23,-257.56 974.61,-248.58 970.24,-254.05"/>
</g>
<!-- MountTarget::mount&#45;target::fs&#45;0ecf7b37ffa6a3610::a&#45;&gt;FileSystem::fs&#45;0ecf7b37ffa6a3610 -->
<g id="edge14" class="edge">
<title>MountTarget::mount&#45;target::fs&#45;0ecf7b37ffa6a3610::a&#45;&gt;FileSystem::fs&#45;0ecf7b37ffa6a3610</title>
<path fill="none" stroke="#707070" d="M920.9,-94.43C1081.12,-94.95 1346.19,-118.2 1524,-250 1575.5,-288.17 1612.64,-354.12 1632.61,-396.37"/>
<polygon fill="#707070" stroke="#707070" points="1629.32,-397.58 1636.68,-405.19 1635.67,-394.65 1629.32,-397.58"/>
</g>
<!-- MountTarget::mount&#45;target::fs&#45;0ecf7b37ffa6a3610::b -->
<g id="node15" class="node">
<title>MountTarget::mount&#45;target::fs&#45;0ecf7b37ffa6a3610::b</title>
<polygon fill="#e5e5e5" stroke="#dddddd" points="920.5,-509 643.5,-509 643.5,-451 920.5,-451 920.5,-509"/>
<text text-anchor="start" x="656" y="-489.2" font-family="Helvetica,sans-Serif" font-weight="bold" font-size="16.00" fill="#707070">EFS::MountTarget</text>
<text text-anchor="start" x="656" y="-464.2" font-family="Helvetica,sans-Serif" font-size="16.00" fill="#383838">mount&#45;target::fs&#45;0ecf7b37ffa6a36...</text>
</g>
<!-- MountTarget::mount&#45;target::fs&#45;0ecf7b37ffa6a3610::b&#45;&gt;Subnet::EfsLambdaVpc::EfsLambdaSubnetB -->
<g id="edge18" class="edge">
<title>MountTarget::mount&#45;target::fs&#45;0ecf7b37ffa6a3610::b&#45;&gt;Subnet::EfsLambdaVpc::EfsLambdaSubnetB</title>
<path fill="none" stroke="#707070" d="M911.08,-450.58C919.25,-447.91 927.28,-445.05 935,-442 952.02,-435.28 953.98,-428.72 971,-422 975.34,-420.29 979.78,-418.63 984.29,-417.04"/>
<polygon fill="#707070" stroke="#707070" points="985.15,-420.44 993.49,-413.91 982.89,-413.81 985.15,-420.44"/>
</g>
<!-- MountTarget::mount&#45;target::fs&#45;0ecf7b37ffa6a3610::b&#45;&gt;SecurityGroup::sg::EfsLambdaVpc::sam&#45;app&#45;EfsLambdaSecurityGroup&#45;1470HXE3IQCYM -->
<g id="edge19" class="edge">
<title>MountTarget::mount&#45;target::fs&#45;0ecf7b37ffa6a3610::b&#45;&gt;SecurityGroup::sg::EfsLambdaVpc::sam&#45;app&#45;EfsLambdaSecurityGroup&#45;1470HXE3IQCYM</title>
<path fill="none" stroke="#707070" d="M920.98,-452.56C925.93,-449.4 930.64,-445.89 935,-442 969,-411.66 938.87,-378.31 971,-346 980.01,-336.94 990.58,-329.27 1001.89,-322.78"/>
<polygon fill="#707070" stroke="#707070" points="1003.48,-325.89 1010.65,-318.09 1000.18,-319.72 1003.48,-325.89"/>
</g>
<!-- MountTarget::mount&#45;target::fs&#45;0ecf7b37ffa6a3610::b&#45;&gt;FileSystem::fs&#45;0ecf7b37ffa6a3610 -->
<g id="edge17" class="edge">
<title>MountTarget::mount&#45;target::fs&#45;0ecf7b37ffa6a3610::b&#45;&gt;FileSystem::fs&#45;0ecf7b37ffa6a3610</title>
<path fill="none" stroke="#707070" d="M920.99,-494.73C937.82,-496.08 954.79,-497.23 971,-498 1106.85,-504.49 1141.42,-508.64 1277,-498 1387.8,-489.31 1414.44,-477.69 1524,-459 1531.96,-457.64 1540.19,-456.21 1548.46,-454.74"/>
<polygon fill="#707070" stroke="#707070" points="1549.02,-458.2 1558.25,-452.99 1547.79,-451.3 1549.02,-458.2"/>
</g>
<!-- Role::sam&#45;app&#45;HelloEfsFunctionRole&#45;FWOZW59G6M1X -->
<g id="node16" class="node">
<title>Role::sam&#45;app&#45;HelloEfsFunctionRole&#45;FWOZW59G6M1X</title>
<polygon fill="#e5e5e5" stroke="#dddddd" points="1276,-489 972,-489 972,-431 1276,-431 1276,-489"/>
<text text-anchor="start" x="984" y="-469.2" font-family="Helvetica,sans-Serif" font-weight="bold" font-size="16.00" fill="#707070">IAM::Role</text>
<text text-anchor="start" x="984" y="-444.2" font-family="Helvetica,sans-Serif" font-size="16.00" fill="#383838">sam&#45;app&#45;HelloEfsFunctionRole&#45;FWO...</text>
</g>
<!-- Role::sam&#45;app&#45;HelloEfsFunctionRole&#45;FWOZW59G6M1X&#45;&gt;FileSystem::fs&#45;0ecf7b37ffa6a3610 -->
<g id="edge21" class="edge">
<title>Role::sam&#45;app&#45;HelloEfsFunctionRole&#45;FWOZW59G6M1X&#45;&gt;FileSystem::fs&#45;0ecf7b37ffa6a3610</title>
<path fill="none" stroke="#707070" d="M1276.24,-459.27C1350.89,-458.13 1442.25,-455.57 1524,-450 1531.97,-449.46 1540.21,-448.78 1548.49,-448.03"/>
<polygon fill="#707070" stroke="#707070" points="1548.65,-451.53 1558.27,-447.1 1547.98,-444.56 1548.65,-451.53"/>
</g>
<!-- Role::sam&#45;app&#45;HelloEfsFunctionRole&#45;FWOZW59G6M1X&#45;&gt;AccessPoint::fsap&#45;0c808ca4e28193cea -->
<g id="edge20" class="edge">
<title>Role::sam&#45;app&#45;HelloEfsFunctionRole&#45;FWOZW59G6M1X&#45;&gt;AccessPoint::fsap&#45;0c808ca4e28193cea</title>
<path fill="none" stroke="#707070" d="M1276.39,-435.16C1284.82,-433.77 1293.24,-432.39 1301.51,-431.03"/>
<polygon fill="#707070" stroke="#707070" points="1301.91,-434.52 1311.21,-429.44 1300.77,-427.61 1301.91,-434.52"/>
</g>
<!-- Function::sam&#45;app&#45;HelloEfsFunction&#45;gxX5FJyW51jA&#45;&gt;Subnet::EfsLambdaVpc::EfsLambdaSubnetA -->
<g id="edge23" class="edge">
<title>Function::sam&#45;app&#45;HelloEfsFunction&#45;gxX5FJyW51jA&#45;&gt;Subnet::EfsLambdaVpc::EfsLambdaSubnetA</title>
<path fill="none" stroke="#707070" d="M924.62,-374.55C928.27,-371.93 931.74,-369.08 935,-366 974.22,-328.91 931.78,-287.09 971,-250 971.51,-249.52 972.02,-249.04 972.54,-248.57"/>
<polygon fill="#707070" stroke="#707070" points="974.61,-251.4 980.2,-242.4 970.22,-245.95 974.61,-251.4"/>
</g>
<!-- Function::sam&#45;app&#45;HelloEfsFunction&#45;gxX5FJyW51jA&#45;&gt;Subnet::EfsLambdaVpc::EfsLambdaSubnetB -->
<g id="edge24" class="edge">
<title>Function::sam&#45;app&#45;HelloEfsFunction&#45;gxX5FJyW51jA&#45;&gt;Subnet::EfsLambdaVpc::EfsLambdaSubnetB</title>
<path fill="none" stroke="#707070" d="M929.66,-395.37C942.72,-394.6 955.98,-393.82 969.1,-393.05"/>
<polygon fill="#707070" stroke="#707070" points="969.31,-396.55 979.09,-392.47 968.9,-389.56 969.31,-396.55"/>
</g>
<!-- Function::sam&#45;app&#45;HelloEfsFunction&#45;gxX5FJyW51jA&#45;&gt;SecurityGroup::sg::EfsLambdaVpc::sam&#45;app&#45;EfsLambdaSecurityGroup&#45;1470HXE3IQCYM -->
<g id="edge25" class="edge">
<title>Function::sam&#45;app&#45;HelloEfsFunction&#45;gxX5FJyW51jA&#45;&gt;SecurityGroup::sg::EfsLambdaVpc::sam&#45;app&#45;EfsLambdaSecurityGroup&#45;1470HXE3IQCYM</title>
<path fill="none" stroke="#707070" d="M917.57,-374.6C923.58,-371.97 929.42,-369.11 935,-366 954.5,-355.14 951.67,-342.16 971,-331 976.63,-327.75 982.52,-324.73 988.57,-321.94"/>
<polygon fill="#707070" stroke="#707070" points="989.75,-325.24 997.51,-318.03 986.95,-318.83 989.75,-325.24"/>
</g>
<!-- Function::sam&#45;app&#45;HelloEfsFunction&#45;gxX5FJyW51jA&#45;&gt;AccessPoint::fsap&#45;0c808ca4e28193cea -->
<g id="edge26" class="edge">
<title>Function::sam&#45;app&#45;HelloEfsFunction&#45;gxX5FJyW51jA&#45;&gt;AccessPoint::fsap&#45;0c808ca4e28193cea</title>
<path fill="none" stroke="#707070" d="M911.08,-374.58C919.25,-371.91 927.28,-369.05 935,-366 952.02,-359.28 953.28,-350.59 971,-346 1036.83,-328.94 1210.63,-331.19 1277,-346 1305.08,-352.27 1334.17,-364.78 1358.55,-377.25"/>
<polygon fill="#707070" stroke="#707070" points="1356.87,-380.32 1367.35,-381.86 1360.12,-374.12 1356.87,-380.32"/>
</g>
<!-- Function::sam&#45;app&#45;HelloEfsFunction&#45;gxX5FJyW51jA&#45;&gt;Role::sam&#45;app&#45;HelloEfsFunctionRole&#45;FWOZW59G6M1X -->
<g id="edge22" class="edge">
<title>Function::sam&#45;app&#45;HelloEfsFunction&#45;gxX5FJyW51jA&#45;&gt;Role::sam&#45;app&#45;HelloEfsFunctionRole&#45;FWOZW59G6M1X</title>
<path fill="none" stroke="#707070" d="M929.66,-428.16C939.89,-429.84 950.23,-431.54 960.54,-433.24"/>
<polygon fill="#707070" stroke="#707070" points="959.77,-436.66 970.21,-434.83 960.91,-429.76 959.77,-436.66"/>
</g>
<!-- Permission::sam&#45;app&#45;HelloEfsFunction&#45;gxX5FJyW51jA -->
<g id="node18" class="node">
<title>Permission::sam&#45;app&#45;HelloEfsFunction&#45;gxX5FJyW51jA</title>
<polygon fill="#e5e5e5" stroke="#dddddd" points="593,-405 298,-405 298,-347 593,-347 593,-405"/>
<text text-anchor="start" x="310.5" y="-385.2" font-family="Helvetica,sans-Serif" font-weight="bold" font-size="16.00" fill="#707070">Lambda::Permission</text>
<text text-anchor="start" x="310.5" y="-360.2" font-family="Helvetica,sans-Serif" font-size="16.00" fill="#383838">sam&#45;app&#45;HelloEfsFunction&#45;gxX5FJy...</text>
</g>
<!-- Permission::sam&#45;app&#45;HelloEfsFunction&#45;gxX5FJyW51jA&#45;&gt;Api::sam&#45;app -->
<g id="edge28" class="edge">
<title>Permission::sam&#45;app&#45;HelloEfsFunction&#45;gxX5FJyW51jA&#45;&gt;Api::sam&#45;app</title>
<path fill="none" stroke="#707070" d="M541.19,-346.57C560.19,-337.25 578.69,-325.26 593,-310 624.17,-276.76 595,-244.34 629,-214 644.57,-200.11 664.46,-191.13 684.68,-185.37"/>
<polygon fill="#707070" stroke="#707070" points="685.31,-188.82 694.12,-182.94 683.57,-182.04 685.31,-188.82"/>
</g>
<!-- Permission::sam&#45;app&#45;HelloEfsFunction&#45;gxX5FJyW51jA&#45;&gt;Function::sam&#45;app&#45;HelloEfsFunction&#45;gxX5FJyW51jA -->
<g id="edge27" class="edge">
<title>Permission::sam&#45;app&#45;HelloEfsFunction&#45;gxX5FJyW51jA&#45;&gt;Function::sam&#45;app&#45;HelloEfsFunction&#45;gxX5FJyW51jA</title>
<path fill="none" stroke="#707070" d="M593.22,-388.28C603.1,-389.11 613.08,-389.94 623.02,-390.78"/>
<polygon fill="#707070" stroke="#707070" points="622.45,-394.24 632.71,-391.59 623.03,-387.26 622.45,-394.24"/>
</g>
</g>
</svg>
