<?xml version="1.0" encoding="UTF-8" standalone="no"?>
<!DOCTYPE svg PUBLIC "-//W3C//DTD SVG 1.1//EN"
 "http://www.w3.org/Graphics/SVG/1.1/DTD/svg11.dtd">
<!-- Generated by graphviz version 7.1.0 (20230121.1956)
 -->
<!-- Title: graphname Pages: 1 -->
<svg width="1113pt" height="389pt"
 viewBox="0.00 0.00 1113.00 389.00" xmlns="http://www.w3.org/2000/svg" xmlns:xlink="http://www.w3.org/1999/xlink">
<g id="graph0" class="graph" transform="scale(1 1) rotate(0) translate(4 385)">
<title>graphname</title>
<polygon fill="#fafafa" stroke="none" points="-4,4 -4,-385 1109,-385 1109,4 -4,4"/>
<text text-anchor="start" x="354.5" y="-356.4" font-family="Helvetica,sans-Serif" font-weight="bold" font-size="22.00" fill="#383838">Project apigw&#45;lambda&#45;dynamodb&#45;xray</text>
<text text-anchor="start" x="549" y="-340.8" font-family="Helvetica,sans-Serif" font-size="14.00"> &#160;</text>
<text text-anchor="start" x="354.5" y="-319.2" font-family="Helvetica,sans-Serif" font-weight="bold" font-size="16.00" fill="#707070">Target Diagram</text>
<g id="clust1" class="cluster">
<title>cluster_aws</title>
<polygon fill="#f5f5f5" stroke="#f5f5f5" points="8,-8 8,-297 1097,-297 1097,-8 8,-8"/>
<text text-anchor="start" x="490.5" y="-23" font-family="Helvetica,sans-Serif" font-weight="bold" font-size="20.00" fill="#707070">Provider aws</text>
</g>
<g id="clust2" class="cluster">
<title>cluster_aws_</title>
<polygon fill="#eeeeee" stroke="#eeeeee" points="16,-54 16,-289 1089,-289 1089,-54 16,-54"/>
<text text-anchor="start" x="552.36" y="-58.3" font-family="Helvetica,sans-Serif" font-size="1.00" fill="#383838"> </text>
</g>
<!-- Account::default -->
<g id="node1" class="node">
<title>Account::default</title>
<polygon fill="#e5e5e5" stroke="#dddddd" points="646.5,-281 454.5,-281 454.5,-223 646.5,-223 646.5,-281"/>
<text text-anchor="start" x="466.5" y="-261.2" font-family="Helvetica,sans-Serif" font-weight="bold" font-size="16.00" fill="#707070">APIGateway::Account</text>
<text text-anchor="start" x="466.5" y="-236.2" font-family="Helvetica,sans-Serif" font-size="16.00" fill="#383838">default</text>
</g>
<!-- Role::ApigwLambdaDynamodbCdkTsS&#45;RestAPICloudWatchRole025&#45;HHXYKBKAOFS5 -->
<g id="node6" class="node">
<title>Role::ApigwLambdaDynamodbCdkTsS&#45;RestAPICloudWatchRole025&#45;HHXYKBKAOFS5</title>
<polygon fill="#e5e5e5" stroke="#dddddd" points="1081,-281 750,-281 750,-223 1081,-223 1081,-281"/>
<text text-anchor="start" x="762.5" y="-261.2" font-family="Helvetica,sans-Serif" font-weight="bold" font-size="16.00" fill="#707070">IAM::Role</text>
<text text-anchor="start" x="762.5" y="-236.2" font-family="Helvetica,sans-Serif" font-size="16.00" fill="#383838">ApigwLambdaDynamodbCdkTsS&#45;RestAP...</text>
</g>
<!-- Account::default&#45;&gt;Role::ApigwLambdaDynamodbCdkTsS&#45;RestAPICloudWatchRole025&#45;HHXYKBKAOFS5 -->
<g id="edge1" class="edge">
<title>Account::default&#45;&gt;Role::ApigwLambdaDynamodbCdkTsS&#45;RestAPICloudWatchRole025&#45;HHXYKBKAOFS5</title>
<path fill="none" stroke="#707070" d="M646.87,-252C675.06,-252 706.85,-252 738.43,-252"/>
<polygon fill="#707070" stroke="#707070" points="738.07,-255.5 748.07,-252 738.07,-248.5 738.07,-255.5"/>
</g>
<!-- RestApi::RestAPI -->
<g id="node2" class="node">
<title>RestApi::RestAPI</title>
<polygon fill="#e5e5e5" stroke="#dddddd" points="644.5,-205 456.5,-205 456.5,-147 644.5,-147 644.5,-205"/>
<text text-anchor="start" x="468.5" y="-185.2" font-family="Helvetica,sans-Serif" font-weight="bold" font-size="16.00" fill="#707070">APIGateway::RestApi</text>
<text text-anchor="start" x="468.5" y="-160.2" font-family="Helvetica,sans-Serif" font-size="16.00" fill="#383838">RestAPI</text>
</g>
<!-- Stage::RestAPI::prod -->
<g id="node3" class="node">
<title>Stage::RestAPI::prod</title>
<polygon fill="#e5e5e5" stroke="#dddddd" points="273.5,-281 101.5,-281 101.5,-223 273.5,-223 273.5,-281"/>
<text text-anchor="start" x="113.5" y="-261.2" font-family="Helvetica,sans-Serif" font-weight="bold" font-size="16.00" fill="#707070">APIGateway::Stage</text>
<text text-anchor="start" x="113.5" y="-236.2" font-family="Helvetica,sans-Serif" font-size="16.00" fill="#383838">RestAPI::prod</text>
</g>
<!-- Stage::RestAPI::prod&#45;&gt;Account::default -->
<g id="edge3" class="edge">
<title>Stage::RestAPI::prod&#45;&gt;Account::default</title>
<path fill="none" stroke="#707070" d="M273.59,-252C324.19,-252 388.83,-252 442.82,-252"/>
<polygon fill="#707070" stroke="#707070" points="442.65,-255.5 452.65,-252 442.65,-248.5 442.65,-255.5"/>
</g>
<!-- Stage::RestAPI::prod&#45;&gt;RestApi::RestAPI -->
<g id="edge2" class="edge">
<title>Stage::RestAPI::prod&#45;&gt;RestApi::RestAPI</title>
<path fill="none" stroke="#707070" d="M273.59,-234.09C324.88,-223.29 390.6,-209.45 445.02,-198"/>
<polygon fill="#707070" stroke="#707070" points="445.56,-201.46 454.62,-195.97 444.12,-194.61 445.56,-201.46"/>
</g>
<!-- Table::ApigwLambdaDynamodbCdkTsStack&#45;TableCD117FA1&#45;26TB2N6F0U9N -->
<g id="node4" class="node">
<title>Table::ApigwLambdaDynamodbCdkTsStack&#45;TableCD117FA1&#45;26TB2N6F0U9N</title>
<polygon fill="#e5e5e5" stroke="#dddddd" points="350,-205 25,-205 25,-147 350,-147 350,-205"/>
<text text-anchor="start" x="37.5" y="-185.2" font-family="Helvetica,sans-Serif" font-weight="bold" font-size="16.00" fill="#707070">DynamoDB::Table</text>
<text text-anchor="start" x="37.5" y="-160.2" font-family="Helvetica,sans-Serif" font-size="16.00" fill="#383838">ApigwLambdaDynamodbCdkTsStack&#45;Ta...</text>
</g>
<!-- Role::ApigwLambdaDynamodbCdkTsS&#45;lambdaFunctionServiceRol&#45;82IDRINPVWDS -->
<g id="node5" class="node">
<title>Role::ApigwLambdaDynamodbCdkTsS&#45;lambdaFunctionServiceRol&#45;82IDRINPVWDS</title>
<polygon fill="#e5e5e5" stroke="#dddddd" points="1081,-129 750,-129 750,-71 1081,-71 1081,-129"/>
<text text-anchor="start" x="762.5" y="-109.2" font-family="Helvetica,sans-Serif" font-weight="bold" font-size="16.00" fill="#707070">IAM::Role</text>
<text text-anchor="start" x="762.5" y="-84.2" font-family="Helvetica,sans-Serif" font-size="16.00" fill="#383838">ApigwLambdaDynamodbCdkTsS&#45;lambda...</text>
</g>
<!-- Function::ApigwLambdaDynamodbCdkTsSta&#45;lambdaFunction940E68AD&#45;7fPOd66txEZp -->
<g id="node7" class="node">
<title>Function::ApigwLambdaDynamodbCdkTsSta&#45;lambdaFunction940E68AD&#45;7fPOd66txEZp</title>
<polygon fill="#e5e5e5" stroke="#dddddd" points="714,-129 387,-129 387,-71 714,-71 714,-129"/>
<text text-anchor="start" x="399.5" y="-109.2" font-family="Helvetica,sans-Serif" font-weight="bold" font-size="16.00" fill="#707070">Lambda::Function</text>
<text text-anchor="start" x="399.5" y="-84.2" font-family="Helvetica,sans-Serif" font-size="16.00" fill="#383838">ApigwLambdaDynamodbCdkTsSta&#45;lamb...</text>
</g>
<!-- Function::ApigwLambdaDynamodbCdkTsSta&#45;lambdaFunction940E68AD&#45;7fPOd66txEZp&#45;&gt;Role::ApigwLambdaDynamodbCdkTsS&#45;lambdaFunctionServiceRol&#45;82IDRINPVWDS -->
<g id="edge4" class="edge">
<title>Function::ApigwLambdaDynamodbCdkTsSta&#45;lambdaFunction940E68AD&#45;7fPOd66txEZp&#45;&gt;Role::ApigwLambdaDynamodbCdkTsS&#45;lambdaFunctionServiceRol&#45;82IDRINPVWDS</title>
<path fill="none" stroke="#707070" d="M714.42,-100C722.36,-100 730.35,-100 738.33,-100"/>
<polygon fill="#707070" stroke="#707070" points="738.08,-103.5 748.08,-100 738.08,-96.5 738.08,-103.5"/>
</g>
<!-- Permission::ApigwLambdaDynamodbCdkTsSta&#45;lambdaFunction940E68AD&#45;7fPOd66txEZp -->
<g id="node8" class="node">
<title>Permission::ApigwLambdaDynamodbCdkTsSta&#45;lambdaFunction940E68AD&#45;7fPOd66txEZp</title>
<polygon fill="#e5e5e5" stroke="#dddddd" points="351,-129 24,-129 24,-71 351,-71 351,-129"/>
<text text-anchor="start" x="36.5" y="-109.2" font-family="Helvetica,sans-Serif" font-weight="bold" font-size="16.00" fill="#707070">Lambda::Permission</text>
<text text-anchor="start" x="36.5" y="-84.2" font-family="Helvetica,sans-Serif" font-size="16.00" fill="#383838">ApigwLambdaDynamodbCdkTsSta&#45;lamb...</text>
</g>
<!-- Permission::ApigwLambdaDynamodbCdkTsSta&#45;lambdaFunction940E68AD&#45;7fPOd66txEZp&#45;&gt;RestApi::RestAPI -->
<g id="edge6" class="edge">
<title>Permission::ApigwLambdaDynamodbCdkTsSta&#45;lambdaFunction940E68AD&#45;7fPOd66txEZp&#45;&gt;RestApi::RestAPI</title>
<path fill="none" stroke="#707070" d="M328.59,-129.49C367.3,-137.64 408.61,-146.34 444.92,-153.98"/>
<polygon fill="#707070" stroke="#707070" points="444.03,-157.37 454.54,-156.01 445.48,-150.52 444.03,-157.37"/>
</g>
<!-- Permission::ApigwLambdaDynamodbCdkTsSta&#45;lambdaFunction940E68AD&#45;7fPOd66txEZp&#45;&gt;Function::ApigwLambdaDynamodbCdkTsSta&#45;lambdaFunction940E68AD&#45;7fPOd66txEZp -->
<g id="edge5" class="edge">
<title>Permission::ApigwLambdaDynamodbCdkTsSta&#45;lambdaFunction940E68AD&#45;7fPOd66txEZp&#45;&gt;Function::ApigwLambdaDynamodbCdkTsSta&#45;lambdaFunction940E68AD&#45;7fPOd66txEZp</title>
<path fill="none" stroke="#707070" d="M351.31,-100C359.32,-100 367.37,-100 375.41,-100"/>
<polygon fill="#707070" stroke="#707070" points="375.24,-103.5 385.24,-100 375.24,-96.5 375.24,-103.5"/>
</g>
</g>
</svg>
