<?xml version="1.0" encoding="UTF-8" standalone="no"?><svg xmlns="http://www.w3.org/2000/svg" xmlns:xlink="http://www.w3.org/1999/xlink" contentStyleType="text/css" height="454px" preserveAspectRatio="none" style="width:474px;height:454px;background:#FFFFFF;" version="1.1" viewBox="0 0 474 454" width="474px" zoomAndPan="magnify"><defs/><g><rect height="26.4883" style="stroke:#00000000;stroke-width:1.0;fill:none;" width="397" x="15" y="15"/><text fill="#000000" font-family="sans-serif" font-size="14" font-weight="bold" lengthAdjust="spacing" textLength="387" x="20" y="33.5352">Resources for project apigw-lambda-dynamodb-xray</text><rect fill="#F1F1F1" height="36.4883" rx="12.5" ry="12.5" style="stroke:#181818;stroke-width:1.5;" width="52" x="16" y="226.9531"/><text fill="#000000" font-family="sans-serif" font-size="14" lengthAdjust="spacing" textLength="32" x="26" y="250.4883">Infra</text><rect fill="#F1F1F1" height="36.4883" rx="12.5" ry="12.5" style="stroke:#181818;stroke-width:1.5;" width="46" x="118" y="226.9531"/><text fill="#000000" font-family="sans-serif" font-size="14" lengthAdjust="spacing" textLength="26" x="128" y="250.4883">aws</text><rect fill="#F1F1F1" height="36.4883" rx="12.5" ry="12.5" style="stroke:#181818;stroke-width:1.5;" width="99" x="214" y="113.9766"/><text fill="#000000" font-family="sans-serif" font-size="14" lengthAdjust="spacing" textLength="79" x="224" y="137.5117">APIGateway</text><rect fill="#F1F1F1" height="36.4883" rx="12.5" ry="12.5" style="stroke:#181818;stroke-width:1.5;" width="99" x="363" y="57.4883"/><text fill="#000000" font-family="sans-serif" font-size="14" lengthAdjust="spacing" textLength="79" x="373" y="81.0234">Account (1)</text><path d="M313,132.2207 L323,132.2207 C338,132.2207 338,75.7324 353,75.7324 L363,75.7324 " fill="none" style="stroke:#181818;stroke-width:1.0;"/><rect fill="#F1F1F1" height="36.4883" rx="12.5" ry="12.5" style="stroke:#181818;stroke-width:1.5;" width="95" x="363" y="113.9766"/><text fill="#000000" font-family="sans-serif" font-size="14" lengthAdjust="spacing" textLength="75" x="373" y="137.5117">RestApi (1)</text><path d="M313,132.2207 L323,132.2207 C338,132.2207 338,132.2207 353,132.2207 L363,132.2207 " fill="none" style="stroke:#181818;stroke-width:1.0;"/><rect fill="#F1F1F1" height="36.4883" rx="12.5" ry="12.5" style="stroke:#181818;stroke-width:1.5;" width="81" x="363" y="170.4648"/><text fill="#000000" font-family="sans-serif" font-size="14" lengthAdjust="spacing" textLength="61" x="373" y="194">Stage (1)</text><path d="M313,132.2207 L323,132.2207 C338,132.2207 338,188.709 353,188.709 L363,188.709 " fill="none" style="stroke:#181818;stroke-width:1.0;"/><path d="M164,245.1973 L174,245.1973 C189,245.1973 189,132.2207 204,132.2207 L214,132.2207 " fill="none" style="stroke:#181818;stroke-width:1.0;"/><rect fill="#F1F1F1" height="36.4883" rx="12.5" ry="12.5" style="stroke:#181818;stroke-width:1.5;" width="94" x="214" y="226.9531"/><text fill="#000000" font-family="sans-serif" font-size="14" lengthAdjust="spacing" textLength="74" x="224" y="250.4883">DynamoDB</text><rect fill="#F1F1F1" height="36.4883" rx="12.5" ry="12.5" style="stroke:#181818;stroke-width:1.5;" width="81" x="358" y="226.9531"/><text fill="#000000" font-family="sans-serif" font-size="14" lengthAdjust="spacing" textLength="61" x="368" y="250.4883">Table (1)</text><path d="M308,245.1973 L318,245.1973 C333,245.1973 333,245.1973 348,245.1973 L358,245.1973 " fill="none" style="stroke:#181818;stroke-width:1.0;"/><path d="M164,245.1973 L174,245.1973 C189,245.1973 189,245.1973 204,245.1973 L214,245.1973 " fill="none" style="stroke:#181818;stroke-width:1.0;"/><rect fill="#F1F1F1" height="36.4883" rx="12.5" ry="12.5" style="stroke:#181818;stroke-width:1.5;" width="46" x="214" y="283.4414"/><text fill="#000000" font-family="sans-serif" font-size="14" lengthAdjust="spacing" textLength="26" x="224" y="306.9766">IAM</text><rect fill="#F1F1F1" height="36.4883" rx="12.5" ry="12.5" style="stroke:#181818;stroke-width:1.5;" width="73" x="310" y="283.4414"/><text fill="#000000" font-family="sans-serif" font-size="14" lengthAdjust="spacing" textLength="53" x="320" y="306.9766">Role (2)</text><path d="M260,301.6855 L270,301.6855 C285,301.6855 285,301.6855 300,301.6855 L310,301.6855 " fill="none" style="stroke:#181818;stroke-width:1.0;"/><path d="M164,245.1973 L174,245.1973 C189,245.1973 189,301.6855 204,301.6855 L214,301.6855 " fill="none" style="stroke:#181818;stroke-width:1.0;"/><rect fill="#F1F1F1" height="36.4883" rx="12.5" ry="12.5" style="stroke:#181818;stroke-width:1.5;" width="74" x="214" y="368.1738"/><text fill="#000000" font-family="sans-serif" font-size="14" lengthAdjust="spacing" textLength="54" x="224" y="391.709">Lambda</text><rect fill="#F1F1F1" height="36.4883" rx="12.5" ry="12.5" style="stroke:#181818;stroke-width:1.5;" width="103" x="338" y="339.9297"/><text fill="#000000" font-family="sans-serif" font-size="14" lengthAdjust="spacing" textLength="83" x="348" y="363.4648">Function (1)</text><path d="M288,386.418 L298,386.418 C313,386.418 313,358.1738 328,358.1738 L338,358.1738 " fill="none" style="stroke:#181818;stroke-width:1.0;"/><rect fill="#F1F1F1" height="36.4883" rx="12.5" ry="12.5" style="stroke:#181818;stroke-width:1.5;" width="118" x="338" y="396.418"/><text fill="#000000" font-family="sans-serif" font-size="14" lengthAdjust="spacing" textLength="98" x="348" y="419.9531">Permission (1)</text><path d="M288,386.418 L298,386.418 C313,386.418 313,414.6621 328,414.6621 L338,414.6621 " fill="none" style="stroke:#181818;stroke-width:1.0;"/><path d="M164,245.1973 L174,245.1973 C189,245.1973 189,386.418 204,386.418 L214,386.418 " fill="none" style="stroke:#181818;stroke-width:1.0;"/><path d="M68,245.1973 L78,245.1973 C93,245.1973 93,245.1973 108,245.1973 L118,245.1973 " fill="none" style="stroke:#181818;stroke-width:1.0;"/><!--MD5=[a8a5f305ca6d79b62e4e075952ed5386]
@startmindmap
title Resources for project apigw-lambda-dynamodb-xray
skinparam monochrome true
+ Infra
++ aws
+++ APIGateway
++++ Account (1)
++++ RestApi (1)
++++ Stage (1)
+++ DynamoDB
++++ Table (1)
+++ IAM
++++ Role (2)
+++ Lambda
++++ Function (1)
++++ Permission (1)
@endmindmap

PlantUML version 1.2022.6(Tue Jun 21 12:34:49 COT 2022)
(GPL source distribution)
Java Runtime: Java(TM) SE Runtime Environment
JVM: Java HotSpot(TM) 64-Bit Server VM
Default Encoding: UTF-8
Language: en
Country: GB
--></g></svg>