<?xml version="1.0" encoding="UTF-8" standalone="no"?>
<!DOCTYPE svg PUBLIC "-//W3C//DTD SVG 1.1//EN"
 "http://www.w3.org/Graphics/SVG/1.1/DTD/svg11.dtd">
<!-- Generated by graphviz version 7.1.0 (20230121.1956)
 -->
<!-- Title: graphname Pages: 1 -->
<svg width="396pt" height="313pt"
 viewBox="0.00 0.00 396.00 313.00" xmlns="http://www.w3.org/2000/svg" xmlns:xlink="http://www.w3.org/1999/xlink">
<g id="graph0" class="graph" transform="scale(1 1) rotate(0) translate(4 309)">
<title>graphname</title>
<polygon fill="#fafafa" stroke="none" points="-4,4 -4,-309 392,-309 392,4 -4,4"/>
<text text-anchor="start" x="67" y="-280.4" font-family="Helvetica,sans-Serif" font-weight="bold" font-size="22.00" fill="#383838">Project flow&#45;logs&#45;vpc&#45;s3</text>
<text text-anchor="start" x="190" y="-264.8" font-family="Helvetica,sans-Serif" font-size="14.00"> &#160;</text>
<text text-anchor="start" x="67" y="-243.2" font-family="Helvetica,sans-Serif" font-weight="bold" font-size="16.00" fill="#707070">Target Diagram</text>
<g id="clust1" class="cluster">
<title>cluster_aws</title>
<polygon fill="#f5f5f5" stroke="#f5f5f5" points="8,-8 8,-221 380,-221 380,-8 8,-8"/>
<text text-anchor="start" x="132" y="-23" font-family="Helvetica,sans-Serif" font-weight="bold" font-size="20.00" fill="#707070">Provider aws</text>
</g>
<g id="clust2" class="cluster">
<title>cluster_aws_</title>
<polygon fill="#eeeeee" stroke="#eeeeee" points="16,-54 16,-213 372,-213 372,-54 16,-54"/>
<text text-anchor="start" x="193.86" y="-58.3" font-family="Helvetica,sans-Serif" font-size="1.00" fill="#383838"> </text>
</g>
<!-- FlowLogs::my&#45;fl -->
<g id="node1" class="node">
<title>FlowLogs::my&#45;fl</title>
<polygon fill="#e5e5e5" stroke="#dddddd" points="165,-167 24,-167 24,-109 165,-109 165,-167"/>
<text text-anchor="start" x="36.5" y="-147.2" font-family="Helvetica,sans-Serif" font-weight="bold" font-size="16.00" fill="#707070">EC2::FlowLogs</text>
<text text-anchor="start" x="36.5" y="-122.2" font-family="Helvetica,sans-Serif" font-size="16.00" fill="#383838">my&#45;fl</text>
</g>
<!-- Vpc::my&#45;vpc -->
<g id="node2" class="node">
<title>Vpc::my&#45;vpc</title>
<polygon fill="#e5e5e5" stroke="#dddddd" points="330,-129 235,-129 235,-71 330,-71 330,-129"/>
<text text-anchor="start" x="247.5" y="-109.2" font-family="Helvetica,sans-Serif" font-weight="bold" font-size="16.00" fill="#707070">EC2::Vpc</text>
<text text-anchor="start" x="247.5" y="-84.2" font-family="Helvetica,sans-Serif" font-size="16.00" fill="#383838">my&#45;vpc</text>
</g>
<!-- FlowLogs::my&#45;fl&#45;&gt;Vpc::my&#45;vpc -->
<g id="edge1" class="edge">
<title>FlowLogs::my&#45;fl&#45;&gt;Vpc::my&#45;vpc</title>
<path fill="none" stroke="#707070" d="M165.29,-123.74C184.5,-119.82 205.11,-115.61 223.57,-111.83"/>
<polygon fill="#707070" stroke="#707070" points="224.17,-115.28 233.27,-109.85 222.77,-108.43 224.17,-115.28"/>
</g>
<!-- Bucket::gc&#45;flowlogs&#45;my&#45;vpc -->
<g id="node3" class="node">
<title>Bucket::gc&#45;flowlogs&#45;my&#45;vpc</title>
<polygon fill="#e5e5e5" stroke="#dddddd" points="364,-205 201,-205 201,-147 364,-147 364,-205"/>
<text text-anchor="start" x="213.5" y="-185.2" font-family="Helvetica,sans-Serif" font-weight="bold" font-size="16.00" fill="#707070">S3::Bucket</text>
<text text-anchor="start" x="213.5" y="-160.2" font-family="Helvetica,sans-Serif" font-size="16.00" fill="#383838">gc&#45;flowlogs&#45;my&#45;vpc</text>
</g>
<!-- FlowLogs::my&#45;fl&#45;&gt;Bucket::gc&#45;flowlogs&#45;my&#45;vpc -->
<g id="edge2" class="edge">
<title>FlowLogs::my&#45;fl&#45;&gt;Bucket::gc&#45;flowlogs&#45;my&#45;vpc</title>
<path fill="none" stroke="#707070" d="M165.29,-152.26C173.23,-153.88 181.4,-155.55 189.57,-157.22"/>
<polygon fill="#707070" stroke="#707070" points="188.7,-160.61 199.2,-159.19 190.1,-153.75 188.7,-160.61"/>
</g>
</g>
</svg>
