<?xml version="1.0" encoding="UTF-8" standalone="no"?>
<!DOCTYPE svg PUBLIC "-//W3C//DTD SVG 1.1//EN"
 "http://www.w3.org/Graphics/SVG/1.1/DTD/svg11.dtd">
<!-- Generated by graphviz version 7.1.0 (20230121.1956)
 -->
<!-- Title: graphname Pages: 1 -->
<svg width="699pt" height="237pt"
 viewBox="0.00 0.00 699.00 237.00" xmlns="http://www.w3.org/2000/svg" xmlns:xlink="http://www.w3.org/1999/xlink">
<g id="graph0" class="graph" transform="scale(1 1) rotate(0) translate(4 233)">
<title>graphname</title>
<polygon fill="#fafafa" stroke="none" points="-4,4 -4,-233 695,-233 695,4 -4,4"/>
<text text-anchor="start" x="202.5" y="-204.4" font-family="Helvetica,sans-Serif" font-weight="bold" font-size="22.00" fill="#383838">Project lambda&#45;athena&#45;sam</text>
<text text-anchor="start" x="341.5" y="-188.8" font-family="Helvetica,sans-Serif" font-size="14.00"> &#160;</text>
<text text-anchor="start" x="202.5" y="-167.2" font-family="Helvetica,sans-Serif" font-weight="bold" font-size="16.00" fill="#707070">Target Diagram</text>
<g id="clust1" class="cluster">
<title>cluster_aws</title>
<polygon fill="#f5f5f5" stroke="#f5f5f5" points="8,-8 8,-145 683,-145 683,-8 8,-8"/>
<text text-anchor="start" x="283.5" y="-23" font-family="Helvetica,sans-Serif" font-weight="bold" font-size="20.00" fill="#707070">Provider aws</text>
</g>
<g id="clust2" class="cluster">
<title>cluster_aws_</title>
<polygon fill="#eeeeee" stroke="#eeeeee" points="16,-54 16,-137 675,-137 675,-54 16,-54"/>
<text text-anchor="start" x="345.36" y="-58.3" font-family="Helvetica,sans-Serif" font-size="1.00" fill="#383838"> </text>
</g>
<!-- Role::sam&#45;app&#45;AthenaQueryFunctionRole&#45;ZMFKGE8TVMT8 -->
<g id="node1" class="node">
<title>Role::sam&#45;app&#45;AthenaQueryFunctionRole&#45;ZMFKGE8TVMT8</title>
<polygon fill="#e5e5e5" stroke="#dddddd" points="667,-129 365,-129 365,-71 667,-71 667,-129"/>
<text text-anchor="start" x="377" y="-109.2" font-family="Helvetica,sans-Serif" font-weight="bold" font-size="16.00" fill="#707070">IAM::Role</text>
<text text-anchor="start" x="377" y="-84.2" font-family="Helvetica,sans-Serif" font-size="16.00" fill="#383838">sam&#45;app&#45;AthenaQueryFunctionRole&#45;...</text>
</g>
<!-- Function::sam&#45;app&#45;AthenaQueryFunction&#45;2up4aj6n2l4M -->
<g id="node2" class="node">
<title>Function::sam&#45;app&#45;AthenaQueryFunction&#45;2up4aj6n2l4M</title>
<polygon fill="#e5e5e5" stroke="#dddddd" points="329,-129 24,-129 24,-71 329,-71 329,-129"/>
<text text-anchor="start" x="36.5" y="-109.2" font-family="Helvetica,sans-Serif" font-weight="bold" font-size="16.00" fill="#707070">Lambda::Function</text>
<text text-anchor="start" x="36.5" y="-84.2" font-family="Helvetica,sans-Serif" font-size="16.00" fill="#383838">sam&#45;app&#45;AthenaQueryFunction&#45;2up4...</text>
</g>
<!-- Function::sam&#45;app&#45;AthenaQueryFunction&#45;2up4aj6n2l4M&#45;&gt;Role::sam&#45;app&#45;AthenaQueryFunctionRole&#45;ZMFKGE8TVMT8 -->
<g id="edge1" class="edge">
<title>Function::sam&#45;app&#45;AthenaQueryFunction&#45;2up4aj6n2l4M&#45;&gt;Role::sam&#45;app&#45;AthenaQueryFunctionRole&#45;ZMFKGE8TVMT8</title>
<path fill="none" stroke="#707070" d="M329.47,-100C337.43,-100 345.45,-100 353.45,-100"/>
<polygon fill="#707070" stroke="#707070" points="353.22,-103.5 363.22,-100 353.22,-96.5 353.22,-103.5"/>
</g>
</g>
</svg>
