<?xml version="1.0" encoding="UTF-8" standalone="no"?>
<!DOCTYPE svg PUBLIC "-//W3C//DTD SVG 1.1//EN"
 "http://www.w3.org/Graphics/SVG/1.1/DTD/svg11.dtd">
<!-- Generated by graphviz version 3.0.0 (20220226.1711)
 -->
<!-- Title: graphname Pages: 1 -->
<svg width="813pt" height="465pt"
 viewBox="0.00 0.00 813.00 465.00" xmlns="http://www.w3.org/2000/svg" xmlns:xlink="http://www.w3.org/1999/xlink">
<g id="graph0" class="graph" transform="scale(1 1) rotate(0) translate(4 461)">
<title>graphname</title>
<polygon fill="#fafafa" stroke="transparent" points="-4,4 -4,-461 809,-461 809,4 -4,4"/>
<text text-anchor="start" x="277.5" y="-432.4" font-family="Helvetica,sans-Serif" font-weight="bold" font-size="22.00" fill="#383838">Project record&#45;weighted</text>
<text text-anchor="start" x="399" y="-416.8" font-family="Helvetica,sans-Serif" font-size="14.00"> &#160;</text>
<text text-anchor="start" x="277.5" y="-395.2" font-family="Helvetica,sans-Serif" font-weight="bold" font-size="16.00" fill="#707070">Target Diagram</text>
<g id="clust1" class="cluster">
<title>cluster_aws</title>
<polygon fill="#f5f5f5" stroke="#f5f5f5" points="8,-8 8,-373 797,-373 797,-8 8,-8"/>
<text text-anchor="start" x="340.5" y="-23" font-family="Helvetica,sans-Serif" font-weight="bold" font-size="20.00" fill="#707070">Provider aws</text>
</g>
<g id="clust2" class="cluster">
<title>cluster_aws_</title>
<polygon fill="#eeeeee" stroke="#eeeeee" points="16,-54 16,-365 789,-365 789,-54 16,-54"/>
<text text-anchor="start" x="402.36" y="-58.3" font-family="Helvetica,sans-Serif" font-size="1.00" fill="#383838"> </text>
</g>
<!-- HostedZone::grucloud.org. -->
<g id="node1" class="node">
<title>HostedZone::grucloud.org.</title>
<polygon fill="#e5e5e5" stroke="#dddddd" points="521,-243 331,-243 331,-185 521,-185 521,-243"/>
<text text-anchor="start" x="343" y="-223.2" font-family="Helvetica,sans-Serif" font-weight="bold" font-size="16.00" fill="#707070">Route53::HostedZone</text>
<text text-anchor="start" x="343" y="-198.2" font-family="Helvetica,sans-Serif" font-size="16.00" fill="#383838">grucloud.org.</text>
</g>
<!-- Domain::grucloud.org -->
<g id="node6" class="node">
<title>Domain::grucloud.org</title>
<polygon fill="#e5e5e5" stroke="#dddddd" points="781,-243 557,-243 557,-185 781,-185 781,-243"/>
<text text-anchor="start" x="569" y="-223.2" font-family="Helvetica,sans-Serif" font-weight="bold" font-size="16.00" fill="#707070">Route53Domains::Domain</text>
<text text-anchor="start" x="569" y="-198.2" font-family="Helvetica,sans-Serif" font-size="16.00" fill="#383838">grucloud.org</text>
</g>
<!-- HostedZone::grucloud.org.&#45;&gt;Domain::grucloud.org -->
<g id="edge1" class="edge">
<title>HostedZone::grucloud.org.&#45;&gt;Domain::grucloud.org</title>
<path fill="none" stroke="#707070" d="M521.21,-214C529.56,-214 538.09,-214 546.62,-214"/>
<polygon fill="#707070" stroke="#707070" points="546.63,-217.5 556.63,-214 546.63,-210.5 546.63,-217.5"/>
</g>
<!-- Record::record::A::latency.grucloud.org.::eu&#45;west&#45;2 -->
<g id="node2" class="node">
<title>Record::record::A::latency.grucloud.org.::eu&#45;west&#45;2</title>
<polygon fill="#e5e5e5" stroke="#dddddd" points="290.5,-357 28.5,-357 28.5,-299 290.5,-299 290.5,-357"/>
<text text-anchor="start" x="40.5" y="-337.2" font-family="Helvetica,sans-Serif" font-weight="bold" font-size="16.00" fill="#707070">Route53::Record</text>
<text text-anchor="start" x="40.5" y="-312.2" font-family="Helvetica,sans-Serif" font-size="16.00" fill="#383838">record::A::latency.grucloud.org....</text>
</g>
<!-- Record::record::A::latency.grucloud.org.::eu&#45;west&#45;2&#45;&gt;HostedZone::grucloud.org. -->
<g id="edge2" class="edge">
<title>Record::record::A::latency.grucloud.org.::eu&#45;west&#45;2&#45;&gt;HostedZone::grucloud.org.</title>
<path fill="none" stroke="#707070" d="M271.74,-298.99C279.69,-296.18 287.52,-293.18 295,-290 321.77,-278.61 349.83,-262.76 373,-248.48"/>
<polygon fill="#707070" stroke="#707070" points="375,-251.36 381.63,-243.1 371.3,-245.42 375,-251.36"/>
</g>
<!-- Record::record::A::latency.grucloud.org.::us&#45;east&#45;1 -->
<g id="node3" class="node">
<title>Record::record::A::latency.grucloud.org.::us&#45;east&#45;1</title>
<polygon fill="#e5e5e5" stroke="#dddddd" points="290.5,-281 28.5,-281 28.5,-223 290.5,-223 290.5,-281"/>
<text text-anchor="start" x="40.5" y="-261.2" font-family="Helvetica,sans-Serif" font-weight="bold" font-size="16.00" fill="#707070">Route53::Record</text>
<text text-anchor="start" x="40.5" y="-236.2" font-family="Helvetica,sans-Serif" font-size="16.00" fill="#383838">record::A::latency.grucloud.org....</text>
</g>
<!-- Record::record::A::latency.grucloud.org.::us&#45;east&#45;1&#45;&gt;HostedZone::grucloud.org. -->
<g id="edge3" class="edge">
<title>Record::record::A::latency.grucloud.org.::us&#45;east&#45;1&#45;&gt;HostedZone::grucloud.org.</title>
<path fill="none" stroke="#707070" d="M290.81,-233.28C300.78,-231.85 310.76,-230.41 320.54,-229.01"/>
<polygon fill="#707070" stroke="#707070" points="321.23,-232.44 330.63,-227.56 320.24,-225.52 321.23,-232.44"/>
</g>
<!-- Record::record::A::weighted.grucloud.org.::weighted&#45;1 -->
<g id="node4" class="node">
<title>Record::record::A::weighted.grucloud.org.::weighted&#45;1</title>
<polygon fill="#e5e5e5" stroke="#dddddd" points="295,-205 24,-205 24,-147 295,-147 295,-205"/>
<text text-anchor="start" x="36.5" y="-185.2" font-family="Helvetica,sans-Serif" font-weight="bold" font-size="16.00" fill="#707070">Route53::Record</text>
<text text-anchor="start" x="36.5" y="-160.2" font-family="Helvetica,sans-Serif" font-size="16.00" fill="#383838">record::A::weighted.grucloud.org...</text>
</g>
<!-- Record::record::A::weighted.grucloud.org.::weighted&#45;1&#45;&gt;HostedZone::grucloud.org. -->
<g id="edge4" class="edge">
<title>Record::record::A::weighted.grucloud.org.::weighted&#45;1&#45;&gt;HostedZone::grucloud.org.</title>
<path fill="none" stroke="#707070" d="M295.07,-195.33C303.79,-196.59 312.49,-197.84 321.02,-199.06"/>
<polygon fill="#707070" stroke="#707070" points="320.56,-202.53 330.96,-200.49 321.56,-195.6 320.56,-202.53"/>
</g>
<!-- Record::record::A::weighted.grucloud.org.::weighted&#45;2 -->
<g id="node5" class="node">
<title>Record::record::A::weighted.grucloud.org.::weighted&#45;2</title>
<polygon fill="#e5e5e5" stroke="#dddddd" points="295,-129 24,-129 24,-71 295,-71 295,-129"/>
<text text-anchor="start" x="36.5" y="-109.2" font-family="Helvetica,sans-Serif" font-weight="bold" font-size="16.00" fill="#707070">Route53::Record</text>
<text text-anchor="start" x="36.5" y="-84.2" font-family="Helvetica,sans-Serif" font-size="16.00" fill="#383838">record::A::weighted.grucloud.org...</text>
</g>
<!-- Record::record::A::weighted.grucloud.org.::weighted&#45;2&#45;&gt;HostedZone::grucloud.org. -->
<g id="edge5" class="edge">
<title>Record::record::A::weighted.grucloud.org.::weighted&#45;2&#45;&gt;HostedZone::grucloud.org.</title>
<path fill="none" stroke="#707070" d="M271.74,-129.01C279.69,-131.82 287.52,-134.82 295,-138 321.77,-149.39 349.83,-165.24 373,-179.52"/>
<polygon fill="#707070" stroke="#707070" points="371.3,-182.58 381.63,-184.9 375,-176.64 371.3,-182.58"/>
</g>
</g>
</svg>
