<?xml version="1.0" encoding="UTF-8" standalone="no"?>
<!DOCTYPE svg PUBLIC "-//W3C//DTD SVG 1.1//EN"
 "http://www.w3.org/Graphics/SVG/1.1/DTD/svg11.dtd">
<!-- Generated by graphviz version 2.44.1 (20200629.0846)
 -->
<!-- Title: graphname Pages: 1 -->
<svg width="497pt" height="485pt"
 viewBox="0.00 0.00 497.00 485.00" xmlns="http://www.w3.org/2000/svg" xmlns:xlink="http://www.w3.org/1999/xlink">
<g id="graph0" class="graph" transform="scale(1 1) rotate(0) translate(4 481)">
<title>graphname</title>
<polygon fill="#fafafa" stroke="transparent" points="-4,4 -4,-481 493,-481 493,4 -4,4"/>
<text text-anchor="start" x="157.5" y="-452.4" font-family="Helvetica,sans-Serif" font-weight="bold" font-size="22.00" fill="#383838">Project gcp&#45;infra</text>
<text text-anchor="start" x="241" y="-436.8" font-family="Helvetica,sans-Serif" font-size="14.00"> &#160;</text>
<text text-anchor="start" x="157.5" y="-415.2" font-family="Helvetica,sans-Serif" font-weight="bold" font-size="16.00" fill="#707070">Live Diagram</text>
<g id="clust1" class="cluster">
<title>cluster_google</title>
<polygon fill="#f5f5f5" stroke="#f5f5f5" points="8,-8 8,-393 481,-393 481,-8 8,-8"/>
<text text-anchor="start" x="169.5" y="-23" font-family="Helvetica,sans-Serif" font-weight="bold" font-size="20.00" fill="#707070">Provider google</text>
</g>
<g id="clust2" class="cluster">
<title>cluster_google_</title>
<polygon fill="#eeeeee" stroke="#eeeeee" points="16,-54 16,-385 473,-385 473,-54 16,-54"/>
<text text-anchor="start" x="244.36" y="-58.3" font-family="Helvetica,sans-Serif" font-size="1.00" fill="#383838"> </text>
</g>
<!-- Network::::6508522117029286282 -->
<g id="node1" class="node">
<title>Network::::6508522117029286282</title>
<polygon fill="#e5e5e5" stroke="#dddddd" points="303.5,-377 215.5,-377 215.5,-319 303.5,-319 303.5,-377"/>
<text text-anchor="start" x="227.5" y="-357.2" font-family="Helvetica,sans-Serif" font-weight="bold" font-size="16.00" fill="#707070">Network</text>
<text text-anchor="start" x="227.5" y="-332.2" font-family="Helvetica,sans-Serif" font-size="16.00" fill="#383838">default</text>
</g>
<!-- Network::::7995717546143710571 -->
<g id="node2" class="node">
<title>Network::::7995717546143710571</title>
<polygon fill="#e5e5e5" stroke="#dddddd" points="465,-215 377,-215 377,-157 465,-157 465,-215"/>
<text text-anchor="start" x="389" y="-195.2" font-family="Helvetica,sans-Serif" font-weight="bold" font-size="16.00" fill="#707070">Network</text>
<text text-anchor="start" x="389" y="-170.2" font-family="Helvetica,sans-Serif" font-size="16.00" fill="#383838">rhmig</text>
</g>
<!-- Disk::::790647583386172779 -->
<g id="node3" class="node">
<title>Disk::::790647583386172779</title>
<polygon fill="#e5e5e5" stroke="#dddddd" points="307,-149 212,-149 212,-91 307,-91 307,-149"/>
<text text-anchor="start" x="224.5" y="-129.2" font-family="Helvetica,sans-Serif" font-weight="bold" font-size="16.00" fill="#707070">Disk</text>
<text text-anchor="start" x="224.5" y="-104.2" font-family="Helvetica,sans-Serif" font-size="16.00" fill="#383838">extra&#45;disk</text>
</g>
<!-- Disk::::3881309416842132829 -->
<g id="node4" class="node">
<title>Disk::::3881309416842132829</title>
<polygon fill="#e5e5e5" stroke="#dddddd" points="303.5,-225 215.5,-225 215.5,-167 303.5,-167 303.5,-225"/>
<text text-anchor="start" x="227.5" y="-205.2" font-family="Helvetica,sans-Serif" font-weight="bold" font-size="16.00" fill="#707070">Disk</text>
<text text-anchor="start" x="227.5" y="-180.2" font-family="Helvetica,sans-Serif" font-size="16.00" fill="#383838">s1&#45;2&#45;uk1</text>
</g>
<!-- SubNetwork::::6873674008832627076 -->
<g id="node5" class="node">
<title>SubNetwork::::6873674008832627076</title>
<polygon fill="#e5e5e5" stroke="#dddddd" points="142,-377 24,-377 24,-319 142,-319 142,-377"/>
<text text-anchor="start" x="36" y="-357.2" font-family="Helvetica,sans-Serif" font-weight="bold" font-size="16.00" fill="#707070">SubNetwork</text>
<text text-anchor="start" x="36" y="-332.2" font-family="Helvetica,sans-Serif" font-size="16.00" fill="#383838">default</text>
</g>
<!-- SubNetwork::::6873674008832627076&#45;&gt;Network::::6508522117029286282 -->
<g id="edge1" class="edge">
<title>SubNetwork::::6873674008832627076&#45;&gt;Network::::6508522117029286282</title>
<path fill="none" stroke="#707070" d="M142.11,-348C162.45,-348 185.19,-348 205.13,-348"/>
<polygon fill="#707070" stroke="#707070" points="205.28,-351.5 215.28,-348 205.28,-344.5 205.28,-351.5"/>
</g>
<!-- SubNetwork::::1565430452037156212 -->
<g id="node6" class="node">
<title>SubNetwork::::1565430452037156212</title>
<polygon fill="#e5e5e5" stroke="#dddddd" points="341,-301 178,-301 178,-243 341,-243 341,-301"/>
<text text-anchor="start" x="190.5" y="-281.2" font-family="Helvetica,sans-Serif" font-weight="bold" font-size="16.00" fill="#707070">SubNetwork</text>
<text text-anchor="start" x="190.5" y="-256.2" font-family="Helvetica,sans-Serif" font-size="16.00" fill="#383838">subnet&#45;10&#45;0&#45;0&#45;0&#45;16</text>
</g>
<!-- SubNetwork::::1565430452037156212&#45;&gt;Network::::7995717546143710571 -->
<g id="edge2" class="edge">
<title>SubNetwork::::1565430452037156212&#45;&gt;Network::::7995717546143710571</title>
<path fill="none" stroke="#707070" d="M323.66,-242.96C329.56,-240.02 335.42,-237 341,-234 349.8,-229.27 358.99,-224 367.86,-218.73"/>
<polygon fill="#707070" stroke="#707070" points="369.83,-221.64 376.6,-213.49 366.22,-215.63 369.83,-221.64"/>
</g>
<!-- VmInstance::::4338533042260868445 -->
<g id="node7" class="node">
<title>VmInstance::::4338533042260868445</title>
<polygon fill="#e5e5e5" stroke="#dddddd" points="140.5,-187 25.5,-187 25.5,-129 140.5,-129 140.5,-187"/>
<text text-anchor="start" x="38" y="-167.2" font-family="Helvetica,sans-Serif" font-weight="bold" font-size="16.00" fill="#707070">VmInstance</text>
<text text-anchor="start" x="38" y="-142.2" font-family="Helvetica,sans-Serif" font-size="16.00" fill="#383838">s1&#45;2&#45;uk1</text>
</g>
<!-- VmInstance::::4338533042260868445&#45;&gt;Network::::7995717546143710571 -->
<g id="edge3" class="edge">
<title>VmInstance::::4338533042260868445&#45;&gt;Network::::7995717546143710571</title>
<path fill="none" stroke="#707070" d="M110.02,-128.67C127.34,-111.46 151.69,-91.31 178,-82 246.3,-57.84 276.1,-49.8 341,-82 368.43,-95.61 388.91,-123.81 402.13,-147.42"/>
<polygon fill="#707070" stroke="#707070" points="399.21,-149.37 407.02,-156.53 405.38,-146.06 399.21,-149.37"/>
</g>
<!-- VmInstance::::4338533042260868445&#45;&gt;Disk::::790647583386172779 -->
<g id="edge6" class="edge">
<title>VmInstance::::4338533042260868445&#45;&gt;Disk::::790647583386172779</title>
<path fill="none" stroke="#707070" d="M140.66,-145.66C160.23,-141.4 182.16,-136.62 201.74,-132.36"/>
<polygon fill="#707070" stroke="#707070" points="202.72,-135.73 211.75,-130.18 201.23,-128.89 202.72,-135.73"/>
</g>
<!-- VmInstance::::4338533042260868445&#45;&gt;Disk::::3881309416842132829 -->
<g id="edge5" class="edge">
<title>VmInstance::::4338533042260868445&#45;&gt;Disk::::3881309416842132829</title>
<path fill="none" stroke="#707070" d="M140.66,-170.34C161.52,-174.88 185.06,-180.01 205.59,-184.48"/>
<polygon fill="#707070" stroke="#707070" points="204.88,-187.91 215.4,-186.61 206.37,-181.07 204.88,-187.91"/>
</g>
<!-- VmInstance::::4338533042260868445&#45;&gt;SubNetwork::::1565430452037156212 -->
<g id="edge4" class="edge">
<title>VmInstance::::4338533042260868445&#45;&gt;SubNetwork::::1565430452037156212</title>
<path fill="none" stroke="#707070" d="M116.05,-187.11C133.58,-202.2 156.14,-220.28 178,-234 179.97,-235.23 181.98,-236.46 184.03,-237.66"/>
<polygon fill="#707070" stroke="#707070" points="182.76,-240.96 193.19,-242.83 186.2,-234.87 182.76,-240.96"/>
</g>
</g>
</svg>
