<?xml version="1.0" encoding="UTF-8" standalone="no"?><svg xmlns="http://www.w3.org/2000/svg" xmlns:xlink="http://www.w3.org/1999/xlink" contentStyleType="text/css" height="228px" preserveAspectRatio="none" style="width:521px;height:228px;background:#FFFFFF;" version="1.1" viewBox="0 0 521 228" width="521px" zoomAndPan="magnify"><defs/><g><rect height="26.4883" style="stroke:#00000000;stroke-width:1.0;fill:none;" width="226" x="121" y="15"/><text fill="#000000" font-family="sans-serif" font-size="14" font-weight="bold" lengthAdjust="spacing" textLength="216" x="126" y="33.5352">Resources for project sfn-sns</text><rect fill="#F1F1F1" height="36.4883" rx="12.5" ry="12.5" style="stroke:#181818;stroke-width:1.5;" width="52" x="10" y="113.9766"/><text fill="#000000" font-family="sans-serif" font-size="14" lengthAdjust="spacing" textLength="32" x="20" y="137.5117">Infra</text><rect fill="#F1F1F1" height="36.4883" rx="12.5" ry="12.5" style="stroke:#181818;stroke-width:1.5;" width="46" x="112" y="113.9766"/><text fill="#000000" font-family="sans-serif" font-size="14" lengthAdjust="spacing" textLength="26" x="122" y="137.5117">aws</text><rect fill="#F1F1F1" height="36.4883" rx="12.5" ry="12.5" style="stroke:#181818;stroke-width:1.5;" width="46" x="208" y="57.4883"/><text fill="#000000" font-family="sans-serif" font-size="14" lengthAdjust="spacing" textLength="26" x="218" y="81.0234">IAM</text><rect fill="#F1F1F1" height="36.4883" rx="12.5" ry="12.5" style="stroke:#181818;stroke-width:1.5;" width="73" x="304" y="57.4883"/><text fill="#000000" font-family="sans-serif" font-size="14" lengthAdjust="spacing" textLength="53" x="314" y="81.0234">Role (1)</text><path d="M254,75.7324 L264,75.7324 C279,75.7324 279,75.7324 294,75.7324 L304,75.7324 " fill="none" style="stroke:#181818;stroke-width:1.0;"/><path d="M158,132.2207 L168,132.2207 C183,132.2207 183,75.7324 198,75.7324 L208,75.7324 " fill="none" style="stroke:#181818;stroke-width:1.0;"/><rect fill="#F1F1F1" height="36.4883" rx="12.5" ry="12.5" style="stroke:#181818;stroke-width:1.5;" width="46" x="208" y="113.9766"/><text fill="#000000" font-family="sans-serif" font-size="14" lengthAdjust="spacing" textLength="26" x="218" y="137.5117">SNS</text><rect fill="#F1F1F1" height="36.4883" rx="12.5" ry="12.5" style="stroke:#181818;stroke-width:1.5;" width="81" x="304" y="113.9766"/><text fill="#000000" font-family="sans-serif" font-size="14" lengthAdjust="spacing" textLength="61" x="314" y="137.5117">Topic (1)</text><path d="M254,132.2207 L264,132.2207 C279,132.2207 279,132.2207 294,132.2207 L304,132.2207 " fill="none" style="stroke:#181818;stroke-width:1.0;"/><path d="M158,132.2207 L168,132.2207 C183,132.2207 183,132.2207 198,132.2207 L208,132.2207 " fill="none" style="stroke:#181818;stroke-width:1.0;"/><rect fill="#F1F1F1" height="36.4883" rx="12.5" ry="12.5" style="stroke:#181818;stroke-width:1.5;" width="117" x="208" y="170.4648"/><text fill="#000000" font-family="sans-serif" font-size="14" lengthAdjust="spacing" textLength="97" x="218" y="194">StepFunctions</text><rect fill="#F1F1F1" height="36.4883" rx="12.5" ry="12.5" style="stroke:#181818;stroke-width:1.5;" width="134" x="375" y="170.4648"/><text fill="#000000" font-family="sans-serif" font-size="14" lengthAdjust="spacing" textLength="114" x="385" y="194">StateMachine (1)</text><path d="M325,188.709 L335,188.709 C350,188.709 350,188.709 365,188.709 L375,188.709 " fill="none" style="stroke:#181818;stroke-width:1.0;"/><path d="M158,132.2207 L168,132.2207 C183,132.2207 183,188.709 198,188.709 L208,188.709 " fill="none" style="stroke:#181818;stroke-width:1.0;"/><path d="M62,132.2207 L72,132.2207 C87,132.2207 87,132.2207 102,132.2207 L112,132.2207 " fill="none" style="stroke:#181818;stroke-width:1.0;"/><!--MD5=[0ea593ee35e8d8b58fefa056539bd1da]
@startmindmap
title Resources for project sfn-sns
skinparam monochrome true
+ Infra
++ aws
+++ IAM
++++ Role (1)
+++ SNS
++++ Topic (1)
+++ StepFunctions
++++ StateMachine (1)
@endmindmap

PlantUML version 1.2022.6(Tue Jun 21 12:34:49 COT 2022)
(GPL source distribution)
Java Runtime: Java(TM) SE Runtime Environment
JVM: Java HotSpot(TM) 64-Bit Server VM
Default Encoding: UTF-8
Language: en
Country: GB
--></g></svg>