<?xml version="1.0" encoding="UTF-8" standalone="no"?>
<!DOCTYPE svg PUBLIC "-//W3C//DTD SVG 1.1//EN"
 "http://www.w3.org/Graphics/SVG/1.1/DTD/svg11.dtd">
<!-- Generated by graphviz version 6.0.0 (20220910.1538)
 -->
<!-- Title: graphname Pages: 1 -->
<svg width="1019pt" height="389pt"
 viewBox="0.00 0.00 1019.00 389.00" xmlns="http://www.w3.org/2000/svg" xmlns:xlink="http://www.w3.org/1999/xlink">
<g id="graph0" class="graph" transform="scale(1 1) rotate(0) translate(4 385)">
<title>graphname</title>
<polygon fill="#fafafa" stroke="none" points="-4,4 -4,-385 1015,-385 1015,4 -4,4"/>
<text text-anchor="start" x="306.5" y="-356.4" font-family="Helvetica,sans-Serif" font-weight="bold" font-size="22.00" fill="#383838">Project apigw&#45;custom&#45;resource&#45;policy</text>
<text text-anchor="start" x="501.5" y="-340.8" font-family="Helvetica,sans-Serif" font-size="14.00"> &#160;</text>
<text text-anchor="start" x="306.5" y="-319.2" font-family="Helvetica,sans-Serif" font-weight="bold" font-size="16.00" fill="#707070">Target Diagram</text>
<g id="clust1" class="cluster">
<title>cluster_aws</title>
<polygon fill="#f5f5f5" stroke="#f5f5f5" points="8,-8 8,-297 1003,-297 1003,-8 8,-8"/>
<text text-anchor="start" x="443.5" y="-23" font-family="Helvetica,sans-Serif" font-weight="bold" font-size="20.00" fill="#707070">Provider aws</text>
</g>
<g id="clust2" class="cluster">
<title>cluster_aws_</title>
<polygon fill="#eeeeee" stroke="#eeeeee" points="16,-54 16,-289 995,-289 995,-54 16,-54"/>
<text text-anchor="start" x="505.36" y="-58.3" font-family="Helvetica,sans-Serif" font-size="1.00" fill="#383838"> </text>
</g>
<!-- RestApi::sam&#45;app -->
<g id="node1" class="node">
<title>RestApi::sam&#45;app</title>
<polygon fill="#e5e5e5" stroke="#dddddd" points="601,-205 413,-205 413,-147 601,-147 601,-205"/>
<text text-anchor="start" x="425" y="-185.2" font-family="Helvetica,sans-Serif" font-weight="bold" font-size="16.00" fill="#707070">APIGateway::RestApi</text>
<text text-anchor="start" x="425" y="-160.2" font-family="Helvetica,sans-Serif" font-size="16.00" fill="#383838">sam&#45;app</text>
</g>
<!-- Stage::sam&#45;app::Prod -->
<g id="node2" class="node">
<title>Stage::sam&#45;app::Prod</title>
<polygon fill="#e5e5e5" stroke="#dddddd" points="259,-281 87,-281 87,-223 259,-223 259,-281"/>
<text text-anchor="start" x="99" y="-261.2" font-family="Helvetica,sans-Serif" font-weight="bold" font-size="16.00" fill="#707070">APIGateway::Stage</text>
<text text-anchor="start" x="99" y="-236.2" font-family="Helvetica,sans-Serif" font-size="16.00" fill="#383838">sam&#45;app::Prod</text>
</g>
<!-- Stage::sam&#45;app::Prod&#45;&gt;RestApi::sam&#45;app -->
<g id="edge1" class="edge">
<title>Stage::sam&#45;app::Prod&#45;&gt;RestApi::sam&#45;app</title>
<path fill="none" stroke="#707070" d="M259.07,-232.53C303.01,-222.47 356.97,-210.11 403.23,-199.52"/>
<polygon fill="#707070" stroke="#707070" points="404.02,-202.94 412.98,-197.29 402.45,-196.11 404.02,-202.94"/>
</g>
<!-- Stage::sam&#45;app::Stage -->
<g id="node3" class="node">
<title>Stage::sam&#45;app::Stage</title>
<polygon fill="#e5e5e5" stroke="#dddddd" points="259,-205 87,-205 87,-147 259,-147 259,-205"/>
<text text-anchor="start" x="99" y="-185.2" font-family="Helvetica,sans-Serif" font-weight="bold" font-size="16.00" fill="#707070">APIGateway::Stage</text>
<text text-anchor="start" x="99" y="-160.2" font-family="Helvetica,sans-Serif" font-size="16.00" fill="#383838">sam&#45;app::Stage</text>
</g>
<!-- Stage::sam&#45;app::Stage&#45;&gt;RestApi::sam&#45;app -->
<g id="edge2" class="edge">
<title>Stage::sam&#45;app::Stage&#45;&gt;RestApi::sam&#45;app</title>
<path fill="none" stroke="#707070" d="M259.07,-176C302.92,-176 356.75,-176 402.94,-176"/>
<polygon fill="#707070" stroke="#707070" points="402.98,-179.5 412.98,-176 402.98,-172.5 402.98,-179.5"/>
</g>
<!-- Role::sam&#45;app&#45;HelloWorldFunctionRole&#45;1UXSAQ9500WJX -->
<g id="node4" class="node">
<title>Role::sam&#45;app&#45;HelloWorldFunctionRole&#45;1UXSAQ9500WJX</title>
<polygon fill="#e5e5e5" stroke="#dddddd" points="987,-129 692,-129 692,-71 987,-71 987,-129"/>
<text text-anchor="start" x="704.5" y="-109.2" font-family="Helvetica,sans-Serif" font-weight="bold" font-size="16.00" fill="#707070">IAM::Role</text>
<text text-anchor="start" x="704.5" y="-84.2" font-family="Helvetica,sans-Serif" font-size="16.00" fill="#383838">sam&#45;app&#45;HelloWorldFunctionRole&#45;1...</text>
</g>
<!-- Function::sam&#45;app&#45;HelloWorldFunction&#45;lw4XCITD06t5 -->
<g id="node5" class="node">
<title>Function::sam&#45;app&#45;HelloWorldFunction&#45;lw4XCITD06t5</title>
<polygon fill="#e5e5e5" stroke="#dddddd" points="656,-129 358,-129 358,-71 656,-71 656,-129"/>
<text text-anchor="start" x="370" y="-109.2" font-family="Helvetica,sans-Serif" font-weight="bold" font-size="16.00" fill="#707070">Lambda::Function</text>
<text text-anchor="start" x="370" y="-84.2" font-family="Helvetica,sans-Serif" font-size="16.00" fill="#383838">sam&#45;app&#45;HelloWorldFunction&#45;lw4XC...</text>
</g>
<!-- Function::sam&#45;app&#45;HelloWorldFunction&#45;lw4XCITD06t5&#45;&gt;Role::sam&#45;app&#45;HelloWorldFunctionRole&#45;1UXSAQ9500WJX -->
<g id="edge3" class="edge">
<title>Function::sam&#45;app&#45;HelloWorldFunction&#45;lw4XCITD06t5&#45;&gt;Role::sam&#45;app&#45;HelloWorldFunctionRole&#45;1UXSAQ9500WJX</title>
<path fill="none" stroke="#707070" d="M656.33,-100C664.84,-100 673.41,-100 681.95,-100"/>
<polygon fill="#707070" stroke="#707070" points="681.96,-103.5 691.96,-100 681.96,-96.5 681.96,-103.5"/>
</g>
<!-- Permission::sam&#45;app&#45;HelloWorldFunction&#45;lw4XCITD06t5 -->
<g id="node6" class="node">
<title>Permission::sam&#45;app&#45;HelloWorldFunction&#45;lw4XCITD06t5</title>
<polygon fill="#e5e5e5" stroke="#dddddd" points="322,-129 24,-129 24,-71 322,-71 322,-129"/>
<text text-anchor="start" x="36" y="-109.2" font-family="Helvetica,sans-Serif" font-weight="bold" font-size="16.00" fill="#707070">Lambda::Permission</text>
<text text-anchor="start" x="36" y="-84.2" font-family="Helvetica,sans-Serif" font-size="16.00" fill="#383838">sam&#45;app&#45;HelloWorldFunction&#45;lw4XC...</text>
</g>
<!-- Permission::sam&#45;app&#45;HelloWorldFunction&#45;lw4XCITD06t5&#45;&gt;RestApi::sam&#45;app -->
<g id="edge5" class="edge">
<title>Permission::sam&#45;app&#45;HelloWorldFunction&#45;lw4XCITD06t5&#45;&gt;RestApi::sam&#45;app</title>
<path fill="none" stroke="#707070" d="M300.94,-129.06C334.7,-136.79 370.74,-145.04 403.04,-152.43"/>
<polygon fill="#707070" stroke="#707070" points="402.41,-155.88 412.94,-154.7 403.98,-149.05 402.41,-155.88"/>
</g>
<!-- Permission::sam&#45;app&#45;HelloWorldFunction&#45;lw4XCITD06t5&#45;&gt;Function::sam&#45;app&#45;HelloWorldFunction&#45;lw4XCITD06t5 -->
<g id="edge4" class="edge">
<title>Permission::sam&#45;app&#45;HelloWorldFunction&#45;lw4XCITD06t5&#45;&gt;Function::sam&#45;app&#45;HelloWorldFunction&#45;lw4XCITD06t5</title>
<path fill="none" stroke="#707070" d="M322.04,-100C330.61,-100 339.25,-100 347.87,-100"/>
<polygon fill="#707070" stroke="#707070" points="347.96,-103.5 357.96,-100 347.96,-96.5 347.96,-103.5"/>
</g>
</g>
</svg>
