<?xml version="1.0" encoding="UTF-8" standalone="no"?>
<!DOCTYPE svg PUBLIC "-//W3C//DTD SVG 1.1//EN"
 "http://www.w3.org/Graphics/SVG/1.1/DTD/svg11.dtd">
<!-- Generated by graphviz version 2.44.1 (20200629.0846)
 -->
<!-- Title: graphname Pages: 1 -->
<svg width="360pt" height="1394pt"
 viewBox="0.00 0.00 360.00 1394.00" xmlns="http://www.w3.org/2000/svg" xmlns:xlink="http://www.w3.org/1999/xlink">
<g id="graph0" class="graph" transform="scale(1 1) rotate(0) translate(4 1390)">
<title>graphname</title>
<polygon fill="#fafafa" stroke="transparent" points="-4,4 -4,-1390 356,-1390 356,4 -4,4"/>
<text text-anchor="start" x="92" y="-1361.4" font-family="Helvetica,sans-Serif" font-weight="bold" font-size="22.00" fill="#383838">Project example</text>
<text text-anchor="start" x="172" y="-1345.8" font-family="Helvetica,sans-Serif" font-size="14.00"> &#160;</text>
<text text-anchor="start" x="92" y="-1324.2" font-family="Helvetica,sans-Serif" font-weight="bold" font-size="16.00" fill="#707070">Live Diagram</text>
<g id="clust1" class="cluster">
<title>cluster_k8s</title>
<polygon fill="#f5f5f5" stroke="#f5f5f5" points="8,-8 8,-1302 344,-1302 344,-8 8,-8"/>
<text text-anchor="start" x="116" y="-23" font-family="Helvetica,sans-Serif" font-weight="bold" font-size="20.00" fill="#707070">Provider k8s</text>
</g>
<g id="clust2" class="cluster">
<title>cluster_k8s_ingress&#45;nginx</title>
<polygon fill="#eeeeee" stroke="#eeeeee" points="34,-734 34,-1294 318,-1294 318,-734 34,-734"/>
<text text-anchor="start" x="111" y="-745" font-family="Helvetica,sans-Serif" font-weight="bold" font-size="20.00" fill="#383838">ingress&#45;nginx</text>
</g>
<g id="clust3" class="cluster">
<title>cluster_k8s_default</title>
<polygon fill="#eeeeee" stroke="#eeeeee" points="16,-394 16,-726 336,-726 336,-394 16,-394"/>
<text text-anchor="start" x="143" y="-405" font-family="Helvetica,sans-Serif" font-weight="bold" font-size="20.00" fill="#383838">default</text>
</g>
<g id="clust4" class="cluster">
<title>cluster_k8s_test&#45;postgres</title>
<polygon fill="#eeeeee" stroke="#eeeeee" points="99,-54 99,-386 253,-386 253,-54 99,-54"/>
<text text-anchor="start" x="112.5" y="-65" font-family="Helvetica,sans-Serif" font-weight="bold" font-size="20.00" fill="#383838">test&#45;postgres</text>
</g>
<!-- ConfigMap::ingress&#45;nginx::ingress&#45;controller&#45;leader&#45;nginx -->
<g id="node1" class="node">
<title>ConfigMap::ingress&#45;nginx::ingress&#45;controller&#45;leader&#45;nginx</title>
<polygon fill="#e5e5e5" stroke="#dddddd" points="298,-1286 54,-1286 54,-1228 298,-1228 298,-1286"/>
<text text-anchor="start" x="66" y="-1266.2" font-family="Helvetica,sans-Serif" font-weight="bold" font-size="16.00" fill="#707070">::ConfigMap</text>
<text text-anchor="start" x="66" y="-1241.2" font-family="Helvetica,sans-Serif" font-size="16.00" fill="#383838">ingress&#45;controller&#45;leader&#45;nginx</text>
</g>
<!-- ConfigMap::ingress&#45;nginx::ingress&#45;nginx&#45;controller -->
<g id="node2" class="node">
<title>ConfigMap::ingress&#45;nginx::ingress&#45;nginx&#45;controller</title>
<polygon fill="#e5e5e5" stroke="#dddddd" points="272.5,-1210 79.5,-1210 79.5,-1152 272.5,-1152 272.5,-1210"/>
<text text-anchor="start" x="92" y="-1190.2" font-family="Helvetica,sans-Serif" font-weight="bold" font-size="16.00" fill="#707070">::ConfigMap</text>
<text text-anchor="start" x="92" y="-1165.2" font-family="Helvetica,sans-Serif" font-size="16.00" fill="#383838">ingress&#45;nginx&#45;controller</text>
</g>
<!-- ConfigMap::ingress&#45;nginx::kube&#45;root&#45;ca.crt -->
<g id="node3" class="node">
<title>ConfigMap::ingress&#45;nginx::kube&#45;root&#45;ca.crt</title>
<polygon fill="#e5e5e5" stroke="#dddddd" points="245,-1134 107,-1134 107,-1076 245,-1076 245,-1134"/>
<text text-anchor="start" x="119" y="-1114.2" font-family="Helvetica,sans-Serif" font-weight="bold" font-size="16.00" fill="#707070">::ConfigMap</text>
<text text-anchor="start" x="119" y="-1089.2" font-family="Helvetica,sans-Serif" font-size="16.00" fill="#383838">kube&#45;root&#45;ca.crt</text>
</g>
<!-- ConfigMap::ingress&#45;nginx::tcp&#45;services -->
<g id="node4" class="node">
<title>ConfigMap::ingress&#45;nginx::tcp&#45;services</title>
<polygon fill="#e5e5e5" stroke="#dddddd" points="235,-1058 117,-1058 117,-1000 235,-1000 235,-1058"/>
<text text-anchor="start" x="129" y="-1038.2" font-family="Helvetica,sans-Serif" font-weight="bold" font-size="16.00" fill="#707070">::ConfigMap</text>
<text text-anchor="start" x="129" y="-1013.2" font-family="Helvetica,sans-Serif" font-size="16.00" fill="#383838">tcp&#45;services</text>
</g>
<!-- ConfigMap::ingress&#45;nginx::udp&#45;services -->
<g id="node5" class="node">
<title>ConfigMap::ingress&#45;nginx::udp&#45;services</title>
<polygon fill="#e5e5e5" stroke="#dddddd" points="235,-982 117,-982 117,-924 235,-924 235,-982"/>
<text text-anchor="start" x="129" y="-962.2" font-family="Helvetica,sans-Serif" font-weight="bold" font-size="16.00" fill="#707070">::ConfigMap</text>
<text text-anchor="start" x="129" y="-937.2" font-family="Helvetica,sans-Serif" font-size="16.00" fill="#383838">udp&#45;services</text>
</g>
<!-- Service::ingress&#45;nginx::ingress&#45;nginx&#45;controller -->
<g id="node6" class="node">
<title>Service::ingress&#45;nginx::ingress&#45;nginx&#45;controller</title>
<polygon fill="#e5e5e5" stroke="#dddddd" points="272.5,-906 79.5,-906 79.5,-848 272.5,-848 272.5,-906"/>
<text text-anchor="start" x="92" y="-886.2" font-family="Helvetica,sans-Serif" font-weight="bold" font-size="16.00" fill="#707070">::Service</text>
<text text-anchor="start" x="92" y="-861.2" font-family="Helvetica,sans-Serif" font-size="16.00" fill="#383838">ingress&#45;nginx&#45;controller</text>
</g>
<!-- Service::ingress&#45;nginx::ingress&#45;nginx&#45;controller&#45;admission -->
<g id="node7" class="node">
<title>Service::ingress&#45;nginx::ingress&#45;nginx&#45;controller&#45;admission</title>
<polygon fill="#e5e5e5" stroke="#dddddd" points="310,-830 42,-830 42,-772 310,-772 310,-830"/>
<text text-anchor="start" x="54" y="-810.2" font-family="Helvetica,sans-Serif" font-weight="bold" font-size="16.00" fill="#707070">::Service</text>
<text text-anchor="start" x="54" y="-785.2" font-family="Helvetica,sans-Serif" font-size="16.00" fill="#383838">ingress&#45;nginx&#45;controller&#45;admissi...</text>
</g>
<!-- ConfigMap::default::kube&#45;root&#45;ca.crt -->
<g id="node8" class="node">
<title>ConfigMap::default::kube&#45;root&#45;ca.crt</title>
<polygon fill="#e5e5e5" stroke="#dddddd" points="245,-718 107,-718 107,-660 245,-660 245,-718"/>
<text text-anchor="start" x="119" y="-698.2" font-family="Helvetica,sans-Serif" font-weight="bold" font-size="16.00" fill="#707070">::ConfigMap</text>
<text text-anchor="start" x="119" y="-673.2" font-family="Helvetica,sans-Serif" font-size="16.00" fill="#383838">kube&#45;root&#45;ca.crt</text>
</g>
<!-- PersistentVolume::default::pv&#45;db -->
<g id="node9" class="node">
<title>PersistentVolume::default::pv&#45;db</title>
<polygon fill="#e5e5e5" stroke="#dddddd" points="260.5,-642 91.5,-642 91.5,-584 260.5,-584 260.5,-642"/>
<text text-anchor="start" x="104" y="-622.2" font-family="Helvetica,sans-Serif" font-weight="bold" font-size="16.00" fill="#707070">::PersistentVolume</text>
<text text-anchor="start" x="104" y="-597.2" font-family="Helvetica,sans-Serif" font-size="16.00" fill="#383838">pv&#45;db</text>
</g>
<!-- PersistentVolume::default::pvc&#45;1a1880cd&#45;5ba0&#45;451c&#45;821d&#45;79cea3a26e2c -->
<g id="node10" class="node">
<title>PersistentVolume::default::pvc&#45;1a1880cd&#45;5ba0&#45;451c&#45;821d&#45;79cea3a26e2c</title>
<polygon fill="#e5e5e5" stroke="#dddddd" points="328,-566 24,-566 24,-508 328,-508 328,-566"/>
<text text-anchor="start" x="36" y="-546.2" font-family="Helvetica,sans-Serif" font-weight="bold" font-size="16.00" fill="#707070">::PersistentVolume</text>
<text text-anchor="start" x="36" y="-521.2" font-family="Helvetica,sans-Serif" font-size="16.00" fill="#383838">pvc&#45;1a1880cd&#45;5ba0&#45;451c&#45;821d&#45;79ce...</text>
</g>
<!-- Service::default::kubernetes -->
<g id="node11" class="node">
<title>Service::default::kubernetes</title>
<polygon fill="#e5e5e5" stroke="#dddddd" points="228.5,-490 123.5,-490 123.5,-432 228.5,-432 228.5,-490"/>
<text text-anchor="start" x="136" y="-470.2" font-family="Helvetica,sans-Serif" font-weight="bold" font-size="16.00" fill="#707070">::Service</text>
<text text-anchor="start" x="136" y="-445.2" font-family="Helvetica,sans-Serif" font-size="16.00" fill="#383838">kubernetes</text>
</g>
<!-- ConfigMap::test&#45;postgres::kube&#45;root&#45;ca.crt -->
<g id="node12" class="node">
<title>ConfigMap::test&#45;postgres::kube&#45;root&#45;ca.crt</title>
<polygon fill="#e5e5e5" stroke="#dddddd" points="245,-378 107,-378 107,-320 245,-320 245,-378"/>
<text text-anchor="start" x="119" y="-358.2" font-family="Helvetica,sans-Serif" font-weight="bold" font-size="16.00" fill="#707070">::ConfigMap</text>
<text text-anchor="start" x="119" y="-333.2" font-family="Helvetica,sans-Serif" font-size="16.00" fill="#383838">kube&#45;root&#45;ca.crt</text>
</g>
<!-- ConfigMap::test&#45;postgres::postgres -->
<g id="node13" class="node">
<title>ConfigMap::test&#45;postgres::postgres</title>
<polygon fill="#e5e5e5" stroke="#dddddd" points="235,-302 117,-302 117,-244 235,-244 235,-302"/>
<text text-anchor="start" x="129" y="-282.2" font-family="Helvetica,sans-Serif" font-weight="bold" font-size="16.00" fill="#707070">::ConfigMap</text>
<text text-anchor="start" x="129" y="-257.2" font-family="Helvetica,sans-Serif" font-size="16.00" fill="#383838">postgres</text>
</g>
<!-- Service::test&#45;postgres::postgres -->
<g id="node14" class="node">
<title>Service::test&#45;postgres::postgres</title>
<polygon fill="#e5e5e5" stroke="#dddddd" points="222,-226 130,-226 130,-168 222,-168 222,-226"/>
<text text-anchor="start" x="142" y="-206.2" font-family="Helvetica,sans-Serif" font-weight="bold" font-size="16.00" fill="#707070">::Service</text>
<text text-anchor="start" x="142" y="-181.2" font-family="Helvetica,sans-Serif" font-size="16.00" fill="#383838">postgres</text>
</g>
<!-- StatefulSet::test&#45;postgres::postgres -->
<g id="node15" class="node">
<title>StatefulSet::test&#45;postgres::postgres</title>
<polygon fill="#e5e5e5" stroke="#dddddd" points="235,-150 117,-150 117,-92 235,-92 235,-150"/>
<text text-anchor="start" x="129" y="-130.2" font-family="Helvetica,sans-Serif" font-weight="bold" font-size="16.00" fill="#707070">::StatefulSet</text>
<text text-anchor="start" x="129" y="-105.2" font-family="Helvetica,sans-Serif" font-size="16.00" fill="#383838">postgres</text>
</g>
</g>
</svg>
