<?xml version="1.0" encoding="UTF-8" standalone="no"?>
<!DOCTYPE svg PUBLIC "-//W3C//DTD SVG 1.1//EN"
 "http://www.w3.org/Graphics/SVG/1.1/DTD/svg11.dtd">
<!-- Generated by graphviz version 2.44.1 (20200629.0846)
 -->
<!-- Title: graphname Pages: 1 -->
<svg width="1765pt" height="617pt"
 viewBox="0.00 0.00 1765.00 617.00" xmlns="http://www.w3.org/2000/svg" xmlns:xlink="http://www.w3.org/1999/xlink">
<g id="graph0" class="graph" transform="scale(1 1) rotate(0) translate(4 613)">
<title>graphname</title>
<polygon fill="#fafafa" stroke="transparent" points="-4,4 -4,-613 1761,-613 1761,4 -4,4"/>
<text text-anchor="start" x="782.5" y="-584.4" font-family="Helvetica,sans-Serif" font-weight="bold" font-size="22.00" fill="#383838">Project ecs&#45;simple</text>
<text text-anchor="start" x="875" y="-568.8" font-family="Helvetica,sans-Serif" font-size="14.00"> &#160;</text>
<text text-anchor="start" x="782.5" y="-547.2" font-family="Helvetica,sans-Serif" font-weight="bold" font-size="16.00" fill="#707070">Target Diagram</text>
<g id="clust1" class="cluster">
<title>cluster_aws</title>
<polygon fill="#f5f5f5" stroke="#f5f5f5" points="8,-8 8,-525 1749,-525 1749,-8 8,-8"/>
<text text-anchor="start" x="816.5" y="-23" font-family="Helvetica,sans-Serif" font-weight="bold" font-size="20.00" fill="#707070">Provider aws</text>
</g>
<g id="clust2" class="cluster">
<title>cluster_aws_</title>
<polygon fill="#eeeeee" stroke="#eeeeee" points="16,-54 16,-517 1741,-517 1741,-54 16,-54"/>
<text text-anchor="start" x="878.36" y="-58.3" font-family="Helvetica,sans-Serif" font-size="1.00" fill="#383838"> </text>
</g>
<!-- AutoScalingGroup::EcsInstanceAsg -->
<g id="node1" class="node">
<title>AutoScalingGroup::EcsInstanceAsg</title>
<polygon fill="#e5e5e5" stroke="#dddddd" points="708,-377 542,-377 542,-319 708,-319 708,-377"/>
<text text-anchor="start" x="554" y="-357.2" font-family="Helvetica,sans-Serif" font-weight="bold" font-size="16.00" fill="#707070">AutoScalingGroup</text>
<text text-anchor="start" x="554" y="-332.2" font-family="Helvetica,sans-Serif" font-size="16.00" fill="#383838">EcsInstanceAsg</text>
</g>
<!-- LaunchConfiguration::EC2ContainerService&#45;cluster&#45;EcsInstanceLc&#45;COYK3CQZ0QRJ -->
<g id="node2" class="node">
<title>LaunchConfiguration::EC2ContainerService&#45;cluster&#45;EcsInstanceLc&#45;COYK3CQZ0QRJ</title>
<polygon fill="#e5e5e5" stroke="#dddddd" points="1027.5,-505 744.5,-505 744.5,-447 1027.5,-447 1027.5,-505"/>
<text text-anchor="start" x="757" y="-485.2" font-family="Helvetica,sans-Serif" font-weight="bold" font-size="16.00" fill="#707070">LaunchConfiguration</text>
<text text-anchor="start" x="757" y="-460.2" font-family="Helvetica,sans-Serif" font-size="16.00" fill="#383838">EC2ContainerService&#45;cluster&#45;EcsI...</text>
</g>
<!-- AutoScalingGroup::EcsInstanceAsg&#45;&gt;LaunchConfiguration::EC2ContainerService&#45;cluster&#45;EcsInstanceLc&#45;COYK3CQZ0QRJ -->
<g id="edge3" class="edge">
<title>AutoScalingGroup::EcsInstanceAsg&#45;&gt;LaunchConfiguration::EC2ContainerService&#45;cluster&#45;EcsInstanceLc&#45;COYK3CQZ0QRJ</title>
<path fill="none" stroke="#707070" d="M657.28,-377.3C679.84,-397.01 711.87,-422.18 744,-438 747.55,-439.75 751.18,-441.42 754.88,-443.02"/>
<polygon fill="#707070" stroke="#707070" points="753.63,-446.29 764.21,-446.87 756.3,-439.82 753.63,-446.29"/>
</g>
<!-- Subnet::PubSubnetAz1 -->
<g id="node5" class="node">
<title>Subnet::PubSubnetAz1</title>
<polygon fill="#e5e5e5" stroke="#dddddd" points="1207.5,-129 1075.5,-129 1075.5,-71 1207.5,-71 1207.5,-129"/>
<text text-anchor="start" x="1087.5" y="-109.2" font-family="Helvetica,sans-Serif" font-weight="bold" font-size="16.00" fill="#707070">Subnet</text>
<text text-anchor="start" x="1087.5" y="-84.2" font-family="Helvetica,sans-Serif" font-size="16.00" fill="#383838">PubSubnetAz1</text>
</g>
<!-- AutoScalingGroup::EcsInstanceAsg&#45;&gt;Subnet::PubSubnetAz1 -->
<g id="edge1" class="edge">
<title>AutoScalingGroup::EcsInstanceAsg&#45;&gt;Subnet::PubSubnetAz1</title>
<path fill="none" stroke="#707070" d="M630.6,-318.92C640.6,-266.54 669.74,-157.38 744,-110 841.02,-48.1 980.36,-62.76 1065.41,-80.4"/>
<polygon fill="#707070" stroke="#707070" points="1064.74,-83.84 1075.25,-82.51 1066.2,-76.99 1064.74,-83.84"/>
</g>
<!-- Subnet::PubSubnetAz2 -->
<g id="node6" class="node">
<title>Subnet::PubSubnetAz2</title>
<polygon fill="#e5e5e5" stroke="#dddddd" points="1207.5,-357 1075.5,-357 1075.5,-299 1207.5,-299 1207.5,-357"/>
<text text-anchor="start" x="1087.5" y="-337.2" font-family="Helvetica,sans-Serif" font-weight="bold" font-size="16.00" fill="#707070">Subnet</text>
<text text-anchor="start" x="1087.5" y="-312.2" font-family="Helvetica,sans-Serif" font-size="16.00" fill="#383838">PubSubnetAz2</text>
</g>
<!-- AutoScalingGroup::EcsInstanceAsg&#45;&gt;Subnet::PubSubnetAz2 -->
<g id="edge2" class="edge">
<title>AutoScalingGroup::EcsInstanceAsg&#45;&gt;Subnet::PubSubnetAz2</title>
<path fill="none" stroke="#707070" d="M708.06,-347.49C789.34,-346.62 917.35,-344.29 1028,-338 1040.01,-337.32 1052.72,-336.39 1065.1,-335.37"/>
<polygon fill="#707070" stroke="#707070" points="1065.74,-338.83 1075.41,-334.5 1065.15,-331.85 1065.74,-338.83"/>
</g>
<!-- SecurityGroup::EcsSecurityGroup -->
<g id="node11" class="node">
<title>SecurityGroup::EcsSecurityGroup</title>
<polygon fill="#e5e5e5" stroke="#dddddd" points="1219,-433 1064,-433 1064,-375 1219,-375 1219,-433"/>
<text text-anchor="start" x="1076.5" y="-413.2" font-family="Helvetica,sans-Serif" font-weight="bold" font-size="16.00" fill="#707070">SecurityGroup</text>
<text text-anchor="start" x="1076.5" y="-388.2" font-family="Helvetica,sans-Serif" font-size="16.00" fill="#383838">EcsSecurityGroup</text>
</g>
<!-- LaunchConfiguration::EC2ContainerService&#45;cluster&#45;EcsInstanceLc&#45;COYK3CQZ0QRJ&#45;&gt;SecurityGroup::EcsSecurityGroup -->
<g id="edge5" class="edge">
<title>LaunchConfiguration::EC2ContainerService&#45;cluster&#45;EcsInstanceLc&#45;COYK3CQZ0QRJ&#45;&gt;SecurityGroup::EcsSecurityGroup</title>
<path fill="none" stroke="#707070" d="M996.01,-446.97C1006.83,-443.99 1017.64,-440.96 1028,-438 1036.41,-435.6 1045.16,-433.04 1053.89,-430.46"/>
<polygon fill="#707070" stroke="#707070" points="1055.15,-433.74 1063.74,-427.54 1053.15,-427.03 1055.15,-433.74"/>
</g>
<!-- InstanceProfile::ecsInstanceRole -->
<g id="node19" class="node">
<title>InstanceProfile::ecsInstanceRole</title>
<polygon fill="#e5e5e5" stroke="#dddddd" points="1214,-509 1069,-509 1069,-451 1214,-451 1214,-509"/>
<text text-anchor="start" x="1081.5" y="-489.2" font-family="Helvetica,sans-Serif" font-weight="bold" font-size="16.00" fill="#707070">InstanceProfile</text>
<text text-anchor="start" x="1081.5" y="-464.2" font-family="Helvetica,sans-Serif" font-size="16.00" fill="#383838">ecsInstanceRole</text>
</g>
<!-- LaunchConfiguration::EC2ContainerService&#45;cluster&#45;EcsInstanceLc&#45;COYK3CQZ0QRJ&#45;&gt;InstanceProfile::ecsInstanceRole -->
<g id="edge4" class="edge">
<title>LaunchConfiguration::EC2ContainerService&#45;cluster&#45;EcsInstanceLc&#45;COYK3CQZ0QRJ&#45;&gt;InstanceProfile::ecsInstanceRole</title>
<path fill="none" stroke="#707070" d="M1027.83,-478.22C1038.32,-478.39 1048.68,-478.55 1058.62,-478.71"/>
<polygon fill="#707070" stroke="#707070" points="1058.75,-482.21 1068.8,-478.87 1058.86,-475.21 1058.75,-482.21"/>
</g>
<!-- Vpc::Vpc -->
<g id="node3" class="node">
<title>Vpc::Vpc</title>
<polygon fill="#e5e5e5" stroke="#dddddd" points="1354.5,-281 1300.5,-281 1300.5,-223 1354.5,-223 1354.5,-281"/>
<text text-anchor="start" x="1312.5" y="-261.2" font-family="Helvetica,sans-Serif" font-weight="bold" font-size="16.00" fill="#707070">Vpc</text>
<text text-anchor="start" x="1312.5" y="-236.2" font-family="Helvetica,sans-Serif" font-size="16.00" fill="#383838">Vpc</text>
</g>
<!-- InternetGateway::InternetGateway -->
<g id="node4" class="node">
<title>InternetGateway::InternetGateway</title>
<polygon fill="#e5e5e5" stroke="#dddddd" points="1216.5,-205 1066.5,-205 1066.5,-147 1216.5,-147 1216.5,-205"/>
<text text-anchor="start" x="1078.5" y="-185.2" font-family="Helvetica,sans-Serif" font-weight="bold" font-size="16.00" fill="#707070">InternetGateway</text>
<text text-anchor="start" x="1078.5" y="-160.2" font-family="Helvetica,sans-Serif" font-size="16.00" fill="#383838">InternetGateway</text>
</g>
<!-- InternetGateway::InternetGateway&#45;&gt;Vpc::Vpc -->
<g id="edge6" class="edge">
<title>InternetGateway::InternetGateway&#45;&gt;Vpc::Vpc</title>
<path fill="none" stroke="#707070" d="M1212.85,-205.06C1239.54,-216.08 1268.81,-228.17 1290.96,-237.32"/>
<polygon fill="#707070" stroke="#707070" points="1289.71,-240.59 1300.29,-241.17 1292.38,-234.12 1289.71,-240.59"/>
</g>
<!-- Subnet::PubSubnetAz1&#45;&gt;Vpc::Vpc -->
<g id="edge7" class="edge">
<title>Subnet::PubSubnetAz1&#45;&gt;Vpc::Vpc</title>
<path fill="none" stroke="#707070" d="M1205.78,-129.15C1210.37,-131.95 1214.83,-134.91 1219,-138 1248.65,-159.98 1277.06,-190.68 1297.22,-214.68"/>
<polygon fill="#707070" stroke="#707070" points="1294.66,-217.07 1303.74,-222.54 1300.05,-212.61 1294.66,-217.07"/>
</g>
<!-- Subnet::PubSubnetAz2&#45;&gt;Vpc::Vpc -->
<g id="edge8" class="edge">
<title>Subnet::PubSubnetAz2&#45;&gt;Vpc::Vpc</title>
<path fill="none" stroke="#707070" d="M1207.63,-301.1C1235.62,-289.54 1267.24,-276.48 1290.83,-266.73"/>
<polygon fill="#707070" stroke="#707070" points="1292.18,-269.96 1300.09,-262.91 1289.51,-263.49 1292.18,-269.96"/>
</g>
<!-- RouteTable::RouteViaIgw -->
<g id="node7" class="node">
<title>RouteTable::RouteViaIgw</title>
<polygon fill="#e5e5e5" stroke="#dddddd" points="1199,-281 1084,-281 1084,-223 1199,-223 1199,-281"/>
<text text-anchor="start" x="1096.5" y="-261.2" font-family="Helvetica,sans-Serif" font-weight="bold" font-size="16.00" fill="#707070">RouteTable</text>
<text text-anchor="start" x="1096.5" y="-236.2" font-family="Helvetica,sans-Serif" font-size="16.00" fill="#383838">RouteViaIgw</text>
</g>
<!-- RouteTable::RouteViaIgw&#45;&gt;Vpc::Vpc -->
<g id="edge9" class="edge">
<title>RouteTable::RouteViaIgw&#45;&gt;Vpc::Vpc</title>
<path fill="none" stroke="#707070" d="M1199.21,-252C1228.91,-252 1264.39,-252 1290.34,-252"/>
<polygon fill="#707070" stroke="#707070" points="1290.48,-255.5 1300.48,-252 1290.48,-248.5 1290.48,-255.5"/>
</g>
<!-- RouteTableAssociation::rt&#45;assoc::RouteViaIgw::PubSubnetAz1 -->
<g id="node8" class="node">
<title>RouteTableAssociation::rt&#45;assoc::RouteViaIgw::PubSubnetAz1</title>
<polygon fill="#e5e5e5" stroke="#dddddd" points="1028,-177 744,-177 744,-119 1028,-119 1028,-177"/>
<text text-anchor="start" x="756" y="-157.2" font-family="Helvetica,sans-Serif" font-weight="bold" font-size="16.00" fill="#707070">RouteTableAssociation</text>
<text text-anchor="start" x="756" y="-132.2" font-family="Helvetica,sans-Serif" font-size="16.00" fill="#383838">rt&#45;assoc::RouteViaIgw::PubSubnet...</text>
</g>
<!-- RouteTableAssociation::rt&#45;assoc::RouteViaIgw::PubSubnetAz1&#45;&gt;Subnet::PubSubnetAz1 -->
<g id="edge11" class="edge">
<title>RouteTableAssociation::rt&#45;assoc::RouteViaIgw::PubSubnetAz1&#45;&gt;Subnet::PubSubnetAz1</title>
<path fill="none" stroke="#707070" d="M1028.2,-121.26C1040.87,-118.87 1053.33,-116.5 1065.09,-114.28"/>
<polygon fill="#707070" stroke="#707070" points="1066.05,-117.66 1075.23,-112.36 1064.75,-110.78 1066.05,-117.66"/>
</g>
<!-- RouteTableAssociation::rt&#45;assoc::RouteViaIgw::PubSubnetAz1&#45;&gt;RouteTable::RouteViaIgw -->
<g id="edge10" class="edge">
<title>RouteTableAssociation::rt&#45;assoc::RouteViaIgw::PubSubnetAz1&#45;&gt;RouteTable::RouteViaIgw</title>
<path fill="none" stroke="#707070" d="M1007.82,-177.06C1014.76,-179.8 1021.53,-182.78 1028,-186 1046.14,-195.04 1046.84,-203.22 1064,-214 1067.53,-216.22 1071.21,-218.41 1074.96,-220.55"/>
<polygon fill="#707070" stroke="#707070" points="1073.37,-223.67 1083.81,-225.45 1076.75,-217.54 1073.37,-223.67"/>
</g>
<!-- RouteTableAssociation::rt&#45;assoc::RouteViaIgw::PubSubnetAz2 -->
<g id="node9" class="node">
<title>RouteTableAssociation::rt&#45;assoc::RouteViaIgw::PubSubnetAz2</title>
<polygon fill="#e5e5e5" stroke="#dddddd" points="1028,-329 744,-329 744,-271 1028,-271 1028,-329"/>
<text text-anchor="start" x="756" y="-309.2" font-family="Helvetica,sans-Serif" font-weight="bold" font-size="16.00" fill="#707070">RouteTableAssociation</text>
<text text-anchor="start" x="756" y="-284.2" font-family="Helvetica,sans-Serif" font-size="16.00" fill="#383838">rt&#45;assoc::RouteViaIgw::PubSubnet...</text>
</g>
<!-- RouteTableAssociation::rt&#45;assoc::RouteViaIgw::PubSubnetAz2&#45;&gt;Subnet::PubSubnetAz2 -->
<g id="edge13" class="edge">
<title>RouteTableAssociation::rt&#45;assoc::RouteViaIgw::PubSubnetAz2&#45;&gt;Subnet::PubSubnetAz2</title>
<path fill="none" stroke="#707070" d="M1028.2,-315.6C1040.87,-317 1053.33,-318.37 1065.09,-319.67"/>
<polygon fill="#707070" stroke="#707070" points="1064.9,-323.17 1075.23,-320.79 1065.67,-316.21 1064.9,-323.17"/>
</g>
<!-- RouteTableAssociation::rt&#45;assoc::RouteViaIgw::PubSubnetAz2&#45;&gt;RouteTable::RouteViaIgw -->
<g id="edge12" class="edge">
<title>RouteTableAssociation::rt&#45;assoc::RouteViaIgw::PubSubnetAz2&#45;&gt;RouteTable::RouteViaIgw</title>
<path fill="none" stroke="#707070" d="M1028.2,-273.26C1044.03,-270.27 1059.55,-267.33 1073.77,-264.64"/>
<polygon fill="#707070" stroke="#707070" points="1074.69,-268.02 1083.87,-262.72 1073.39,-261.14 1074.69,-268.02"/>
</g>
<!-- Route::RouteViaIgw&#45;igw -->
<g id="node10" class="node">
<title>Route::RouteViaIgw&#45;igw</title>
<polygon fill="#e5e5e5" stroke="#dddddd" points="958.5,-253 813.5,-253 813.5,-195 958.5,-195 958.5,-253"/>
<text text-anchor="start" x="826" y="-233.2" font-family="Helvetica,sans-Serif" font-weight="bold" font-size="16.00" fill="#707070">Route</text>
<text text-anchor="start" x="826" y="-208.2" font-family="Helvetica,sans-Serif" font-size="16.00" fill="#383838">RouteViaIgw&#45;igw</text>
</g>
<!-- Route::RouteViaIgw&#45;igw&#45;&gt;InternetGateway::InternetGateway -->
<g id="edge15" class="edge">
<title>Route::RouteViaIgw&#45;igw&#45;&gt;InternetGateway::InternetGateway</title>
<path fill="none" stroke="#707070" d="M958.63,-210.44C989.01,-204.68 1024.65,-197.94 1056.28,-191.95"/>
<polygon fill="#707070" stroke="#707070" points="1057.23,-195.33 1066.4,-190.03 1055.93,-188.45 1057.23,-195.33"/>
</g>
<!-- Route::RouteViaIgw&#45;igw&#45;&gt;RouteTable::RouteViaIgw -->
<g id="edge14" class="edge">
<title>Route::RouteViaIgw&#45;igw&#45;&gt;RouteTable::RouteViaIgw</title>
<path fill="none" stroke="#707070" d="M958.63,-231.91C994.74,-235.9 1038.27,-240.71 1073.68,-244.62"/>
<polygon fill="#707070" stroke="#707070" points="1073.6,-248.13 1083.92,-245.75 1074.36,-241.17 1073.6,-248.13"/>
</g>
<!-- SecurityGroup::EcsSecurityGroup&#45;&gt;Vpc::Vpc -->
<g id="edge16" class="edge">
<title>SecurityGroup::EcsSecurityGroup&#45;&gt;Vpc::Vpc</title>
<path fill="none" stroke="#707070" d="M1205.78,-374.85C1210.37,-372.05 1214.83,-369.09 1219,-366 1248.65,-344.02 1277.06,-313.32 1297.22,-289.32"/>
<polygon fill="#707070" stroke="#707070" points="1300.05,-291.39 1303.74,-281.46 1294.66,-286.93 1300.05,-291.39"/>
</g>
<!-- SecurityGroupRuleIngress::EcsSecurityGroup&#45;rule&#45;ingress&#45;tcp&#45;80&#45;v4 -->
<g id="node12" class="node">
<title>SecurityGroupRuleIngress::EcsSecurityGroup&#45;rule&#45;ingress&#45;tcp&#45;80&#45;v4</title>
<polygon fill="#e5e5e5" stroke="#dddddd" points="1024.5,-429 747.5,-429 747.5,-371 1024.5,-371 1024.5,-429"/>
<text text-anchor="start" x="760" y="-409.2" font-family="Helvetica,sans-Serif" font-weight="bold" font-size="16.00" fill="#707070">SecurityGroupRuleIngress</text>
<text text-anchor="start" x="760" y="-384.2" font-family="Helvetica,sans-Serif" font-size="16.00" fill="#383838">EcsSecurityGroup&#45;rule&#45;ingress&#45;tc...</text>
</g>
<!-- SecurityGroupRuleIngress::EcsSecurityGroup&#45;rule&#45;ingress&#45;tcp&#45;80&#45;v4&#45;&gt;SecurityGroup::EcsSecurityGroup -->
<g id="edge17" class="edge">
<title>SecurityGroupRuleIngress::EcsSecurityGroup&#45;rule&#45;ingress&#45;tcp&#45;80&#45;v4&#45;&gt;SecurityGroup::EcsSecurityGroup</title>
<path fill="none" stroke="#707070" d="M1024.51,-402.17C1034.42,-402.33 1044.25,-402.48 1053.74,-402.63"/>
<polygon fill="#707070" stroke="#707070" points="1053.85,-406.13 1063.9,-402.79 1053.96,-399.13 1053.85,-406.13"/>
</g>
<!-- CapacityProvider::cp -->
<g id="node13" class="node">
<title>CapacityProvider::cp</title>
<polygon fill="#e5e5e5" stroke="#dddddd" points="506,-377 350,-377 350,-319 506,-319 506,-377"/>
<text text-anchor="start" x="362" y="-357.2" font-family="Helvetica,sans-Serif" font-weight="bold" font-size="16.00" fill="#707070">CapacityProvider</text>
<text text-anchor="start" x="362" y="-332.2" font-family="Helvetica,sans-Serif" font-size="16.00" fill="#383838">cp</text>
</g>
<!-- CapacityProvider::cp&#45;&gt;AutoScalingGroup::EcsInstanceAsg -->
<g id="edge18" class="edge">
<title>CapacityProvider::cp&#45;&gt;AutoScalingGroup::EcsInstanceAsg</title>
<path fill="none" stroke="#707070" d="M506.07,-348C514.49,-348 523.12,-348 531.69,-348"/>
<polygon fill="#707070" stroke="#707070" points="531.72,-351.5 541.72,-348 531.72,-344.5 531.72,-351.5"/>
</g>
<!-- Cluster::cluster -->
<g id="node14" class="node">
<title>Cluster::cluster</title>
<polygon fill="#e5e5e5" stroke="#dddddd" points="287,-377 208,-377 208,-319 287,-319 287,-377"/>
<text text-anchor="start" x="220.5" y="-357.2" font-family="Helvetica,sans-Serif" font-weight="bold" font-size="16.00" fill="#707070">Cluster</text>
<text text-anchor="start" x="220.5" y="-332.2" font-family="Helvetica,sans-Serif" font-size="16.00" fill="#383838">cluster</text>
</g>
<!-- Cluster::cluster&#45;&gt;CapacityProvider::cp -->
<g id="edge19" class="edge">
<title>Cluster::cluster&#45;&gt;CapacityProvider::cp</title>
<path fill="none" stroke="#707070" d="M287.23,-348C302.72,-348 321.23,-348 339.63,-348"/>
<polygon fill="#707070" stroke="#707070" points="339.83,-351.5 349.83,-348 339.83,-344.5 339.83,-351.5"/>
</g>
<!-- TaskDefinition::nginx -->
<g id="node15" class="node">
<title>TaskDefinition::nginx</title>
<polygon fill="#e5e5e5" stroke="#dddddd" points="314,-453 181,-453 181,-395 314,-395 314,-453"/>
<text text-anchor="start" x="193.5" y="-433.2" font-family="Helvetica,sans-Serif" font-weight="bold" font-size="16.00" fill="#707070">TaskDefinition</text>
<text text-anchor="start" x="193.5" y="-408.2" font-family="Helvetica,sans-Serif" font-size="16.00" fill="#383838">nginx</text>
</g>
<!-- Service::service&#45;nginx -->
<g id="node16" class="node">
<title>Service::service&#45;nginx</title>
<polygon fill="#e5e5e5" stroke="#dddddd" points="145,-415 24,-415 24,-357 145,-357 145,-415"/>
<text text-anchor="start" x="36.5" y="-395.2" font-family="Helvetica,sans-Serif" font-weight="bold" font-size="16.00" fill="#707070">Service</text>
<text text-anchor="start" x="36.5" y="-370.2" font-family="Helvetica,sans-Serif" font-size="16.00" fill="#383838">service&#45;nginx</text>
</g>
<!-- Service::service&#45;nginx&#45;&gt;Cluster::cluster -->
<g id="edge20" class="edge">
<title>Service::service&#45;nginx&#45;&gt;Cluster::cluster</title>
<path fill="none" stroke="#707070" d="M145.45,-371.85C162.78,-367.76 181.46,-363.35 198,-359.45"/>
<polygon fill="#707070" stroke="#707070" points="199.05,-362.79 207.98,-357.09 197.44,-355.98 199.05,-362.79"/>
</g>
<!-- Service::service&#45;nginx&#45;&gt;TaskDefinition::nginx -->
<g id="edge21" class="edge">
<title>Service::service&#45;nginx&#45;&gt;TaskDefinition::nginx</title>
<path fill="none" stroke="#707070" d="M145.45,-400.15C153.74,-402.11 162.34,-404.14 170.87,-406.15"/>
<polygon fill="#707070" stroke="#707070" points="170.29,-409.61 180.82,-408.5 171.89,-402.79 170.29,-409.61"/>
</g>
<!-- Role::ecsInstanceRole -->
<g id="node17" class="node">
<title>Role::ecsInstanceRole</title>
<polygon fill="#e5e5e5" stroke="#dddddd" points="1400,-509 1255,-509 1255,-451 1400,-451 1400,-509"/>
<text text-anchor="start" x="1267.5" y="-489.2" font-family="Helvetica,sans-Serif" font-weight="bold" font-size="16.00" fill="#707070">Role</text>
<text text-anchor="start" x="1267.5" y="-464.2" font-family="Helvetica,sans-Serif" font-size="16.00" fill="#383838">ecsInstanceRole</text>
</g>
<!-- Policy::service&#45;role/AmazonEC2ContainerServiceforEC2Role -->
<g id="node18" class="node">
<title>Policy::service&#45;role/AmazonEC2ContainerServiceforEC2Role</title>
<polygon fill="#e5e5e5" stroke="#dddddd" points="1733,-509 1436,-509 1436,-451 1733,-451 1733,-509"/>
<text text-anchor="start" x="1448.5" y="-489.2" font-family="Helvetica,sans-Serif" font-weight="bold" font-size="16.00" fill="#707070">Policy</text>
<text text-anchor="start" x="1448.5" y="-464.2" font-family="Helvetica,sans-Serif" font-size="16.00" fill="#383838">service&#45;role/AmazonEC2ContainerS...</text>
</g>
<!-- Role::ecsInstanceRole&#45;&gt;Policy::service&#45;role/AmazonEC2ContainerServiceforEC2Role -->
<g id="edge22" class="edge">
<title>Role::ecsInstanceRole&#45;&gt;Policy::service&#45;role/AmazonEC2ContainerServiceforEC2Role</title>
<path fill="none" stroke="#707070" d="M1400.21,-480C1408.45,-480 1417.08,-480 1425.91,-480"/>
<polygon fill="#707070" stroke="#707070" points="1425.96,-483.5 1435.96,-480 1425.96,-476.5 1425.96,-483.5"/>
</g>
<!-- InstanceProfile::ecsInstanceRole&#45;&gt;Role::ecsInstanceRole -->
<g id="edge23" class="edge">
<title>InstanceProfile::ecsInstanceRole&#45;&gt;Role::ecsInstanceRole</title>
<path fill="none" stroke="#707070" d="M1214.17,-480C1224.16,-480 1234.48,-480 1244.64,-480"/>
<polygon fill="#707070" stroke="#707070" points="1244.73,-483.5 1254.73,-480 1244.73,-476.5 1244.73,-483.5"/>
</g>
</g>
</svg>
