<?xml version="1.0" encoding="UTF-8" standalone="no"?>
<!DOCTYPE svg PUBLIC "-//W3C//DTD SVG 1.1//EN"
 "http://www.w3.org/Graphics/SVG/1.1/DTD/svg11.dtd">
<!-- Generated by graphviz version 3.0.0 (20220226.1711)
 -->
<!-- Title: graphname Pages: 1 -->
<svg width="1692pt" height="617pt"
 viewBox="0.00 0.00 1692.00 617.00" xmlns="http://www.w3.org/2000/svg" xmlns:xlink="http://www.w3.org/1999/xlink">
<g id="graph0" class="graph" transform="scale(1 1) rotate(0) translate(4 613)">
<title>graphname</title>
<polygon fill="#fafafa" stroke="transparent" points="-4,4 -4,-613 1688,-613 1688,4 -4,4"/>
<text text-anchor="start" x="746" y="-584.4" font-family="Helvetica,sans-Serif" font-weight="bold" font-size="22.00" fill="#383838">Project ecs&#45;simple</text>
<text text-anchor="start" x="838.5" y="-568.8" font-family="Helvetica,sans-Serif" font-size="14.00"> &#160;</text>
<text text-anchor="start" x="746" y="-547.2" font-family="Helvetica,sans-Serif" font-weight="bold" font-size="16.00" fill="#707070">Target Diagram</text>
<g id="clust1" class="cluster">
<title>cluster_aws</title>
<polygon fill="#f5f5f5" stroke="#f5f5f5" points="8,-8 8,-525 1676,-525 1676,-8 8,-8"/>
<text text-anchor="start" x="780" y="-23" font-family="Helvetica,sans-Serif" font-weight="bold" font-size="20.00" fill="#707070">Provider aws</text>
</g>
<g id="clust2" class="cluster">
<title>cluster_aws_</title>
<polygon fill="#eeeeee" stroke="#eeeeee" points="16,-54 16,-517 1668,-517 1668,-54 16,-54"/>
<text text-anchor="start" x="841.86" y="-58.3" font-family="Helvetica,sans-Serif" font-size="1.00" fill="#383838"> </text>
</g>
<!-- AutoScalingGroup::EcsInstanceAsg -->
<g id="node1" class="node">
<title>AutoScalingGroup::EcsInstanceAsg</title>
<polygon fill="#e5e5e5" stroke="#dddddd" points="900,-377 631,-377 631,-319 900,-319 900,-377"/>
<text text-anchor="start" x="643.5" y="-357.2" font-family="Helvetica,sans-Serif" font-weight="bold" font-size="16.00" fill="#707070">AutoScaling::AutoScalingGroup</text>
<text text-anchor="start" x="643.5" y="-332.2" font-family="Helvetica,sans-Serif" font-size="16.00" fill="#383838">EcsInstanceAsg</text>
</g>
<!-- LaunchConfiguration::EC2ContainerService&#45;cluster&#45;EcsInstanceLc&#45;COYK3CQZ0QRJ -->
<g id="node2" class="node">
<title>LaunchConfiguration::EC2ContainerService&#45;cluster&#45;EcsInstanceLc&#45;COYK3CQZ0QRJ</title>
<polygon fill="#e5e5e5" stroke="#dddddd" points="1225,-505 936,-505 936,-447 1225,-447 1225,-505"/>
<text text-anchor="start" x="948.5" y="-485.2" font-family="Helvetica,sans-Serif" font-weight="bold" font-size="16.00" fill="#707070">AutoScaling::LaunchConfiguration</text>
<text text-anchor="start" x="948.5" y="-460.2" font-family="Helvetica,sans-Serif" font-size="16.00" fill="#383838">EC2ContainerService&#45;cluster&#45;EcsI...</text>
</g>
<!-- AutoScalingGroup::EcsInstanceAsg&#45;&gt;LaunchConfiguration::EC2ContainerService&#45;cluster&#45;EcsInstanceLc&#45;COYK3CQZ0QRJ -->
<g id="edge3" class="edge">
<title>AutoScalingGroup::EcsInstanceAsg&#45;&gt;LaunchConfiguration::EC2ContainerService&#45;cluster&#45;EcsInstanceLc&#45;COYK3CQZ0QRJ</title>
<path fill="none" stroke="#707070" d="M814.05,-377.04C847.28,-396.38 893.19,-421.22 936,-438 941.02,-439.97 946.19,-441.87 951.43,-443.7"/>
<polygon fill="#707070" stroke="#707070" points="950.35,-447.03 960.95,-446.92 952.6,-440.4 950.35,-447.03"/>
</g>
<!-- Subnet::PubSubnetAz1 -->
<g id="node5" class="node">
<title>Subnet::PubSubnetAz1</title>
<polygon fill="#e5e5e5" stroke="#dddddd" points="1436,-129 1304,-129 1304,-71 1436,-71 1436,-129"/>
<text text-anchor="start" x="1316" y="-109.2" font-family="Helvetica,sans-Serif" font-weight="bold" font-size="16.00" fill="#707070">EC2::Subnet</text>
<text text-anchor="start" x="1316" y="-84.2" font-family="Helvetica,sans-Serif" font-size="16.00" fill="#383838">PubSubnetAz1</text>
</g>
<!-- AutoScalingGroup::EcsInstanceAsg&#45;&gt;Subnet::PubSubnetAz1 -->
<g id="edge1" class="edge">
<title>AutoScalingGroup::EcsInstanceAsg&#45;&gt;Subnet::PubSubnetAz1</title>
<path fill="none" stroke="#707070" d="M777.01,-318.95C797.9,-266.11 850.17,-155.5 936,-110 1049.18,-49.99 1203.48,-65.42 1294.05,-82.46"/>
<polygon fill="#707070" stroke="#707070" points="1293.48,-85.92 1303.96,-84.38 1294.81,-79.05 1293.48,-85.92"/>
</g>
<!-- Subnet::PubSubnetAz2 -->
<g id="node6" class="node">
<title>Subnet::PubSubnetAz2</title>
<polygon fill="#e5e5e5" stroke="#dddddd" points="1436,-357 1304,-357 1304,-299 1436,-299 1436,-357"/>
<text text-anchor="start" x="1316" y="-337.2" font-family="Helvetica,sans-Serif" font-weight="bold" font-size="16.00" fill="#707070">EC2::Subnet</text>
<text text-anchor="start" x="1316" y="-312.2" font-family="Helvetica,sans-Serif" font-size="16.00" fill="#383838">PubSubnetAz2</text>
</g>
<!-- AutoScalingGroup::EcsInstanceAsg&#45;&gt;Subnet::PubSubnetAz2 -->
<g id="edge2" class="edge">
<title>AutoScalingGroup::EcsInstanceAsg&#45;&gt;Subnet::PubSubnetAz2</title>
<path fill="none" stroke="#707070" d="M900.48,-346.75C991.93,-345.49 1115.84,-342.98 1225,-338 1247.36,-336.98 1271.65,-335.45 1293.79,-333.9"/>
<polygon fill="#707070" stroke="#707070" points="1294.08,-337.39 1303.81,-333.19 1293.58,-330.41 1294.08,-337.39"/>
</g>
<!-- SecurityGroup::sg::Vpc::EcsSecurityGroup -->
<g id="node11" class="node">
<title>SecurityGroup::sg::Vpc::EcsSecurityGroup</title>
<polygon fill="#e5e5e5" stroke="#dddddd" points="1479,-433 1261,-433 1261,-375 1479,-375 1479,-433"/>
<text text-anchor="start" x="1273" y="-413.2" font-family="Helvetica,sans-Serif" font-weight="bold" font-size="16.00" fill="#707070">EC2::SecurityGroup</text>
<text text-anchor="start" x="1273" y="-388.2" font-family="Helvetica,sans-Serif" font-size="16.00" fill="#383838">sg::Vpc::EcsSecurityGroup</text>
</g>
<!-- LaunchConfiguration::EC2ContainerService&#45;cluster&#45;EcsInstanceLc&#45;COYK3CQZ0QRJ&#45;&gt;SecurityGroup::sg::Vpc::EcsSecurityGroup -->
<g id="edge5" class="edge">
<title>LaunchConfiguration::EC2ContainerService&#45;cluster&#45;EcsInstanceLc&#45;COYK3CQZ0QRJ&#45;&gt;SecurityGroup::sg::Vpc::EcsSecurityGroup</title>
<path fill="none" stroke="#707070" d="M1197.61,-446.92C1215.23,-442.51 1233.42,-437.95 1251.08,-433.53"/>
<polygon fill="#707070" stroke="#707070" points="1251.98,-436.91 1260.83,-431.09 1250.28,-430.12 1251.98,-436.91"/>
</g>
<!-- InstanceProfile::ecsInstanceRole -->
<g id="node18" class="node">
<title>InstanceProfile::ecsInstanceRole</title>
<polygon fill="#e5e5e5" stroke="#dddddd" points="1459.5,-509 1280.5,-509 1280.5,-451 1459.5,-451 1459.5,-509"/>
<text text-anchor="start" x="1293" y="-489.2" font-family="Helvetica,sans-Serif" font-weight="bold" font-size="16.00" fill="#707070">IAM::InstanceProfile</text>
<text text-anchor="start" x="1293" y="-464.2" font-family="Helvetica,sans-Serif" font-size="16.00" fill="#383838">ecsInstanceRole</text>
</g>
<!-- LaunchConfiguration::EC2ContainerService&#45;cluster&#45;EcsInstanceLc&#45;COYK3CQZ0QRJ&#45;&gt;InstanceProfile::ecsInstanceRole -->
<g id="edge4" class="edge">
<title>LaunchConfiguration::EC2ContainerService&#45;cluster&#45;EcsInstanceLc&#45;COYK3CQZ0QRJ&#45;&gt;InstanceProfile::ecsInstanceRole</title>
<path fill="none" stroke="#707070" d="M1225.25,-478C1240.39,-478.21 1255.52,-478.42 1269.99,-478.62"/>
<polygon fill="#707070" stroke="#707070" points="1270.35,-482.13 1280.39,-478.77 1270.44,-475.13 1270.35,-482.13"/>
</g>
<!-- Vpc::Vpc -->
<g id="node3" class="node">
<title>Vpc::Vpc</title>
<polygon fill="#e5e5e5" stroke="#dddddd" points="1635,-281 1540,-281 1540,-223 1635,-223 1635,-281"/>
<text text-anchor="start" x="1552.5" y="-261.2" font-family="Helvetica,sans-Serif" font-weight="bold" font-size="16.00" fill="#707070">EC2::Vpc</text>
<text text-anchor="start" x="1552.5" y="-236.2" font-family="Helvetica,sans-Serif" font-size="16.00" fill="#383838">Vpc</text>
</g>
<!-- InternetGateway::InternetGateway -->
<g id="node4" class="node">
<title>InternetGateway::InternetGateway</title>
<polygon fill="#e5e5e5" stroke="#dddddd" points="1465.5,-205 1274.5,-205 1274.5,-147 1465.5,-147 1465.5,-205"/>
<text text-anchor="start" x="1287" y="-185.2" font-family="Helvetica,sans-Serif" font-weight="bold" font-size="16.00" fill="#707070">EC2::InternetGateway</text>
<text text-anchor="start" x="1287" y="-160.2" font-family="Helvetica,sans-Serif" font-size="16.00" fill="#383838">InternetGateway</text>
</g>
<!-- InternetGateway::InternetGateway&#45;&gt;Vpc::Vpc -->
<g id="edge6" class="edge">
<title>InternetGateway::InternetGateway&#45;&gt;Vpc::Vpc</title>
<path fill="none" stroke="#707070" d="M1453.56,-205.03C1462.15,-208.06 1470.75,-211.09 1479,-214 1495.7,-219.89 1513.85,-226.3 1530.4,-232.15"/>
<polygon fill="#707070" stroke="#707070" points="1529.35,-235.49 1539.94,-235.53 1531.68,-228.89 1529.35,-235.49"/>
</g>
<!-- Subnet::PubSubnetAz1&#45;&gt;Vpc::Vpc -->
<g id="edge7" class="edge">
<title>Subnet::PubSubnetAz1&#45;&gt;Vpc::Vpc</title>
<path fill="none" stroke="#707070" d="M1436.18,-117.31C1450.9,-122.72 1466,-129.55 1479,-138 1510.35,-158.38 1539.03,-189.75 1558.86,-214.42"/>
<polygon fill="#707070" stroke="#707070" points="1556.3,-216.82 1565.24,-222.51 1561.8,-212.49 1556.3,-216.82"/>
</g>
<!-- Subnet::PubSubnetAz2&#45;&gt;Vpc::Vpc -->
<g id="edge8" class="edge">
<title>Subnet::PubSubnetAz2&#45;&gt;Vpc::Vpc</title>
<path fill="none" stroke="#707070" d="M1436.11,-305.11C1450.25,-300.13 1465.13,-294.89 1479,-290 1495.7,-284.11 1513.85,-277.7 1530.4,-271.85"/>
<polygon fill="#707070" stroke="#707070" points="1531.68,-275.11 1539.94,-268.47 1529.35,-268.51 1531.68,-275.11"/>
</g>
<!-- RouteTable::RouteViaIgw -->
<g id="node7" class="node">
<title>RouteTable::RouteViaIgw</title>
<polygon fill="#e5e5e5" stroke="#dddddd" points="1445.5,-281 1294.5,-281 1294.5,-223 1445.5,-223 1445.5,-281"/>
<text text-anchor="start" x="1307" y="-261.2" font-family="Helvetica,sans-Serif" font-weight="bold" font-size="16.00" fill="#707070">EC2::RouteTable</text>
<text text-anchor="start" x="1307" y="-236.2" font-family="Helvetica,sans-Serif" font-size="16.00" fill="#383838">RouteViaIgw</text>
</g>
<!-- RouteTable::RouteViaIgw&#45;&gt;Vpc::Vpc -->
<g id="edge9" class="edge">
<title>RouteTable::RouteViaIgw&#45;&gt;Vpc::Vpc</title>
<path fill="none" stroke="#707070" d="M1445.77,-252C1473.23,-252 1503.85,-252 1529.5,-252"/>
<polygon fill="#707070" stroke="#707070" points="1529.79,-255.5 1539.79,-252 1529.79,-248.5 1529.79,-255.5"/>
</g>
<!-- RouteTableAssociation::rt&#45;assoc::RouteViaIgw::PubSubnetAz1 -->
<g id="node8" class="node">
<title>RouteTableAssociation::rt&#45;assoc::RouteViaIgw::PubSubnetAz1</title>
<polygon fill="#e5e5e5" stroke="#dddddd" points="1222.5,-177 938.5,-177 938.5,-119 1222.5,-119 1222.5,-177"/>
<text text-anchor="start" x="950.5" y="-157.2" font-family="Helvetica,sans-Serif" font-weight="bold" font-size="16.00" fill="#707070">EC2::RouteTableAssociation</text>
<text text-anchor="start" x="950.5" y="-132.2" font-family="Helvetica,sans-Serif" font-size="16.00" fill="#383838">rt&#45;assoc::RouteViaIgw::PubSubnet...</text>
</g>
<!-- RouteTableAssociation::rt&#45;assoc::RouteViaIgw::PubSubnetAz1&#45;&gt;Subnet::PubSubnetAz1 -->
<g id="edge11" class="edge">
<title>RouteTableAssociation::rt&#45;assoc::RouteViaIgw::PubSubnetAz1&#45;&gt;Subnet::PubSubnetAz1</title>
<path fill="none" stroke="#707070" d="M1222.72,-124.42C1247.35,-120.31 1272.08,-116.18 1294.01,-112.52"/>
<polygon fill="#707070" stroke="#707070" points="1294.6,-115.97 1303.89,-110.87 1293.45,-109.07 1294.6,-115.97"/>
</g>
<!-- RouteTableAssociation::rt&#45;assoc::RouteViaIgw::PubSubnetAz1&#45;&gt;RouteTable::RouteViaIgw -->
<g id="edge10" class="edge">
<title>RouteTableAssociation::rt&#45;assoc::RouteViaIgw::PubSubnetAz1&#45;&gt;RouteTable::RouteViaIgw</title>
<path fill="none" stroke="#707070" d="M1204.84,-177.11C1211.77,-179.84 1218.53,-182.8 1225,-186 1243.16,-195 1243.21,-204.29 1261,-214 1268.61,-218.15 1276.75,-221.99 1285.04,-225.51"/>
<polygon fill="#707070" stroke="#707070" points="1283.84,-228.8 1294.43,-229.33 1286.49,-222.32 1283.84,-228.8"/>
</g>
<!-- RouteTableAssociation::rt&#45;assoc::RouteViaIgw::PubSubnetAz2 -->
<g id="node9" class="node">
<title>RouteTableAssociation::rt&#45;assoc::RouteViaIgw::PubSubnetAz2</title>
<polygon fill="#e5e5e5" stroke="#dddddd" points="1222.5,-329 938.5,-329 938.5,-271 1222.5,-271 1222.5,-329"/>
<text text-anchor="start" x="950.5" y="-309.2" font-family="Helvetica,sans-Serif" font-weight="bold" font-size="16.00" fill="#707070">EC2::RouteTableAssociation</text>
<text text-anchor="start" x="950.5" y="-284.2" font-family="Helvetica,sans-Serif" font-size="16.00" fill="#383838">rt&#45;assoc::RouteViaIgw::PubSubnet...</text>
</g>
<!-- RouteTableAssociation::rt&#45;assoc::RouteViaIgw::PubSubnetAz2&#45;&gt;Subnet::PubSubnetAz2 -->
<g id="edge13" class="edge">
<title>RouteTableAssociation::rt&#45;assoc::RouteViaIgw::PubSubnetAz2&#45;&gt;Subnet::PubSubnetAz2</title>
<path fill="none" stroke="#707070" d="M1222.72,-313.75C1247.24,-316.14 1271.86,-318.54 1293.72,-320.67"/>
<polygon fill="#707070" stroke="#707070" points="1293.59,-324.17 1303.89,-321.66 1294.27,-317.21 1293.59,-324.17"/>
</g>
<!-- RouteTableAssociation::rt&#45;assoc::RouteViaIgw::PubSubnetAz2&#45;&gt;RouteTable::RouteViaIgw -->
<g id="edge12" class="edge">
<title>RouteTableAssociation::rt&#45;assoc::RouteViaIgw::PubSubnetAz2&#45;&gt;RouteTable::RouteViaIgw</title>
<path fill="none" stroke="#707070" d="M1222.72,-276.42C1243.76,-272.91 1264.88,-269.38 1284.26,-266.15"/>
<polygon fill="#707070" stroke="#707070" points="1284.94,-269.58 1294.23,-264.48 1283.79,-262.68 1284.94,-269.58"/>
</g>
<!-- Route::RouteViaIgw&#45;igw -->
<g id="node10" class="node">
<title>Route::RouteViaIgw&#45;igw</title>
<polygon fill="#e5e5e5" stroke="#dddddd" points="1153,-253 1008,-253 1008,-195 1153,-195 1153,-253"/>
<text text-anchor="start" x="1020.5" y="-233.2" font-family="Helvetica,sans-Serif" font-weight="bold" font-size="16.00" fill="#707070">EC2::Route</text>
<text text-anchor="start" x="1020.5" y="-208.2" font-family="Helvetica,sans-Serif" font-size="16.00" fill="#383838">RouteViaIgw&#45;igw</text>
</g>
<!-- Route::RouteViaIgw&#45;igw&#45;&gt;InternetGateway::InternetGateway -->
<g id="edge15" class="edge">
<title>Route::RouteViaIgw&#45;igw&#45;&gt;InternetGateway::InternetGateway</title>
<path fill="none" stroke="#707070" d="M1153.31,-212.01C1186.75,-206.43 1227.2,-199.67 1263.99,-193.53"/>
<polygon fill="#707070" stroke="#707070" points="1264.97,-196.92 1274.26,-191.82 1263.82,-190.01 1264.97,-196.92"/>
</g>
<!-- Route::RouteViaIgw&#45;igw&#45;&gt;RouteTable::RouteViaIgw -->
<g id="edge14" class="edge">
<title>Route::RouteViaIgw&#45;igw&#45;&gt;RouteTable::RouteViaIgw</title>
<path fill="none" stroke="#707070" d="M1153.31,-230.99C1193.03,-234.86 1242.62,-239.69 1284.23,-243.74"/>
<polygon fill="#707070" stroke="#707070" points="1284.06,-247.24 1294.35,-244.73 1284.74,-240.28 1284.06,-247.24"/>
</g>
<!-- SecurityGroup::sg::Vpc::EcsSecurityGroup&#45;&gt;Vpc::Vpc -->
<g id="edge16" class="edge">
<title>SecurityGroup::sg::Vpc::EcsSecurityGroup&#45;&gt;Vpc::Vpc</title>
<path fill="none" stroke="#707070" d="M1463.48,-374.9C1468.87,-372.16 1474.08,-369.2 1479,-366 1510.35,-345.62 1539.03,-314.25 1558.86,-289.58"/>
<polygon fill="#707070" stroke="#707070" points="1561.8,-291.51 1565.24,-281.49 1556.3,-287.18 1561.8,-291.51"/>
</g>
<!-- SecurityGroupRuleIngress::sg::Vpc::EcsSecurityGroup&#45;rule&#45;ingress&#45;tcp&#45;80 -->
<g id="node12" class="node">
<title>SecurityGroupRuleIngress::sg::Vpc::EcsSecurityGroup&#45;rule&#45;ingress&#45;tcp&#45;80</title>
<polygon fill="#e5e5e5" stroke="#dddddd" points="1217,-429 944,-429 944,-371 1217,-371 1217,-429"/>
<text text-anchor="start" x="956.5" y="-409.2" font-family="Helvetica,sans-Serif" font-weight="bold" font-size="16.00" fill="#707070">EC2::SecurityGroupRuleIngress</text>
<text text-anchor="start" x="956.5" y="-384.2" font-family="Helvetica,sans-Serif" font-size="16.00" fill="#383838">sg::Vpc::EcsSecurityGroup&#45;rule&#45;i...</text>
</g>
<!-- SecurityGroupRuleIngress::sg::Vpc::EcsSecurityGroup&#45;rule&#45;ingress&#45;tcp&#45;80&#45;&gt;SecurityGroup::sg::Vpc::EcsSecurityGroup -->
<g id="edge17" class="edge">
<title>SecurityGroupRuleIngress::sg::Vpc::EcsSecurityGroup&#45;rule&#45;ingress&#45;tcp&#45;80&#45;&gt;SecurityGroup::sg::Vpc::EcsSecurityGroup</title>
<path fill="none" stroke="#707070" d="M1217.25,-401.89C1228.38,-402.04 1239.58,-402.2 1250.57,-402.35"/>
<polygon fill="#707070" stroke="#707070" points="1250.55,-405.85 1260.6,-402.49 1250.65,-398.85 1250.55,-405.85"/>
</g>
<!-- CapacityProvider::cp -->
<g id="node13" class="node">
<title>CapacityProvider::cp</title>
<polygon fill="#e5e5e5" stroke="#dddddd" points="595,-377 396,-377 396,-319 595,-319 595,-377"/>
<text text-anchor="start" x="408.5" y="-357.2" font-family="Helvetica,sans-Serif" font-weight="bold" font-size="16.00" fill="#707070">ECS::CapacityProvider</text>
<text text-anchor="start" x="408.5" y="-332.2" font-family="Helvetica,sans-Serif" font-size="16.00" fill="#383838">cp</text>
</g>
<!-- CapacityProvider::cp&#45;&gt;AutoScalingGroup::EcsInstanceAsg -->
<g id="edge18" class="edge">
<title>CapacityProvider::cp&#45;&gt;AutoScalingGroup::EcsInstanceAsg</title>
<path fill="none" stroke="#707070" d="M595.15,-348C603.52,-348 612.08,-348 620.7,-348"/>
<polygon fill="#707070" stroke="#707070" points="620.84,-351.5 630.84,-348 620.84,-344.5 620.84,-351.5"/>
</g>
<!-- Cluster::cluster -->
<g id="node14" class="node">
<title>Cluster::cluster</title>
<polygon fill="#e5e5e5" stroke="#dddddd" points="333,-377 211,-377 211,-319 333,-319 333,-377"/>
<text text-anchor="start" x="223" y="-357.2" font-family="Helvetica,sans-Serif" font-weight="bold" font-size="16.00" fill="#707070">ECS::Cluster</text>
<text text-anchor="start" x="223" y="-332.2" font-family="Helvetica,sans-Serif" font-size="16.00" fill="#383838">cluster</text>
</g>
<!-- Cluster::cluster&#45;&gt;CapacityProvider::cp -->
<g id="edge19" class="edge">
<title>Cluster::cluster&#45;&gt;CapacityProvider::cp</title>
<path fill="none" stroke="#707070" d="M333.23,-348C349.55,-348 367.74,-348 385.85,-348"/>
<polygon fill="#707070" stroke="#707070" points="385.89,-351.5 395.89,-348 385.89,-344.5 385.89,-351.5"/>
</g>
<!-- TaskDefinition::nginx -->
<g id="node15" class="node">
<title>TaskDefinition::nginx</title>
<polygon fill="#e5e5e5" stroke="#dddddd" points="360,-453 184,-453 184,-395 360,-395 360,-453"/>
<text text-anchor="start" x="196" y="-433.2" font-family="Helvetica,sans-Serif" font-weight="bold" font-size="16.00" fill="#707070">ECS::TaskDefinition</text>
<text text-anchor="start" x="196" y="-408.2" font-family="Helvetica,sans-Serif" font-size="16.00" fill="#383838">nginx</text>
</g>
<!-- Service::service&#45;nginx -->
<g id="node16" class="node">
<title>Service::service&#45;nginx</title>
<polygon fill="#e5e5e5" stroke="#dddddd" points="148,-415 24,-415 24,-357 148,-357 148,-415"/>
<text text-anchor="start" x="36" y="-395.2" font-family="Helvetica,sans-Serif" font-weight="bold" font-size="16.00" fill="#707070">ECS::Service</text>
<text text-anchor="start" x="36" y="-370.2" font-family="Helvetica,sans-Serif" font-size="16.00" fill="#383838">service&#45;nginx</text>
</g>
<!-- Service::service&#45;nginx&#45;&gt;Cluster::cluster -->
<g id="edge20" class="edge">
<title>Service::service&#45;nginx&#45;&gt;Cluster::cluster</title>
<path fill="none" stroke="#707070" d="M148.01,-373.4C164.89,-369.91 183.34,-366.1 200.7,-362.52"/>
<polygon fill="#707070" stroke="#707070" points="201.69,-365.89 210.78,-360.44 200.28,-359.03 201.69,-365.89"/>
</g>
<!-- Service::service&#45;nginx&#45;&gt;TaskDefinition::nginx -->
<g id="edge21" class="edge">
<title>Service::service&#45;nginx&#45;&gt;TaskDefinition::nginx</title>
<path fill="none" stroke="#707070" d="M148.01,-398.6C156.37,-400.33 165.12,-402.13 173.93,-403.95"/>
<polygon fill="#707070" stroke="#707070" points="173.39,-407.41 183.89,-406.01 174.8,-400.56 173.39,-407.41"/>
</g>
<!-- Role::ecsInstanceRole -->
<g id="node17" class="node">
<title>Role::ecsInstanceRole</title>
<polygon fill="#e5e5e5" stroke="#dddddd" points="1660,-509 1515,-509 1515,-451 1660,-451 1660,-509"/>
<text text-anchor="start" x="1527.5" y="-489.2" font-family="Helvetica,sans-Serif" font-weight="bold" font-size="16.00" fill="#707070">IAM::Role</text>
<text text-anchor="start" x="1527.5" y="-464.2" font-family="Helvetica,sans-Serif" font-size="16.00" fill="#383838">ecsInstanceRole</text>
</g>
<!-- InstanceProfile::ecsInstanceRole&#45;&gt;Role::ecsInstanceRole -->
<g id="edge22" class="edge">
<title>InstanceProfile::ecsInstanceRole&#45;&gt;Role::ecsInstanceRole</title>
<path fill="none" stroke="#707070" d="M1459.59,-480C1474.49,-480 1489.9,-480 1504.62,-480"/>
<polygon fill="#707070" stroke="#707070" points="1504.69,-483.5 1514.69,-480 1504.69,-476.5 1504.69,-483.5"/>
</g>
</g>
</svg>
