<?xml version="1.0" encoding="UTF-8" standalone="no"?>
<!DOCTYPE svg PUBLIC "-//W3C//DTD SVG 1.1//EN"
 "http://www.w3.org/Graphics/SVG/1.1/DTD/svg11.dtd">
<!-- Generated by graphviz version 3.0.0 (20220226.1711)
 -->
<!-- Title: graphname Pages: 1 -->
<svg width="1707pt" height="581pt"
 viewBox="0.00 0.00 1707.00 581.00" xmlns="http://www.w3.org/2000/svg" xmlns:xlink="http://www.w3.org/1999/xlink">
<g id="graph0" class="graph" transform="scale(1 1) rotate(0) translate(4 577)">
<title>graphname</title>
<polygon fill="#fafafa" stroke="transparent" points="-4,4 -4,-577 1703,-577 1703,4 -4,4"/>
<text text-anchor="start" x="753.5" y="-548.4" font-family="Helvetica,sans-Serif" font-weight="bold" font-size="22.00" fill="#383838">Project ecs&#45;simple</text>
<text text-anchor="start" x="846" y="-532.8" font-family="Helvetica,sans-Serif" font-size="14.00"> &#160;</text>
<text text-anchor="start" x="753.5" y="-511.2" font-family="Helvetica,sans-Serif" font-weight="bold" font-size="16.00" fill="#707070">Live Diagram</text>
<g id="clust1" class="cluster">
<title>cluster_aws</title>
<polygon fill="#f5f5f5" stroke="#f5f5f5" points="8,-8 8,-489 1691,-489 1691,-8 8,-8"/>
<text text-anchor="start" x="787.5" y="-23" font-family="Helvetica,sans-Serif" font-weight="bold" font-size="20.00" fill="#707070">Provider aws</text>
</g>
<g id="clust2" class="cluster">
<title>cluster_aws_</title>
<polygon fill="#eeeeee" stroke="#eeeeee" points="16,-54 16,-481 1683,-481 1683,-54 16,-54"/>
<text text-anchor="start" x="849.36" y="-58.3" font-family="Helvetica,sans-Serif" font-size="1.00" fill="#383838"> </text>
</g>
<!-- AutoScalingGroup::::EcsInstanceAsg -->
<g id="node1" class="node">
<title>AutoScalingGroup::::EcsInstanceAsg</title>
<polygon fill="#e5e5e5" stroke="#dddddd" points="907.5,-217 638.5,-217 638.5,-159 907.5,-159 907.5,-217"/>
<text text-anchor="start" x="651" y="-197.2" font-family="Helvetica,sans-Serif" font-weight="bold" font-size="16.00" fill="#707070">AutoScaling::AutoScalingGroup</text>
<text text-anchor="start" x="651" y="-172.2" font-family="Helvetica,sans-Serif" font-size="16.00" fill="#383838">EcsInstanceAsg</text>
</g>
<!-- LaunchConfiguration::::EC2ContainerService&#45;cluster&#45;EcsInstanceLc&#45;COYK3CQZ0QRJ -->
<g id="node2" class="node">
<title>LaunchConfiguration::::EC2ContainerService&#45;cluster&#45;EcsInstanceLc&#45;COYK3CQZ0QRJ</title>
<polygon fill="#e5e5e5" stroke="#dddddd" points="1240,-129 951,-129 951,-71 1240,-71 1240,-129"/>
<text text-anchor="start" x="963.5" y="-109.2" font-family="Helvetica,sans-Serif" font-weight="bold" font-size="16.00" fill="#707070">AutoScaling::LaunchConfiguration</text>
<text text-anchor="start" x="963.5" y="-84.2" font-family="Helvetica,sans-Serif" font-size="16.00" fill="#383838">EC2ContainerService&#45;cluster&#45;EcsI...</text>
</g>
<!-- AutoScalingGroup::::EcsInstanceAsg&#45;&gt;LaunchConfiguration::::EC2ContainerService&#45;cluster&#45;EcsInstanceLc&#45;COYK3CQZ0QRJ -->
<g id="edge1" class="edge">
<title>AutoScalingGroup::::EcsInstanceAsg&#45;&gt;LaunchConfiguration::::EC2ContainerService&#45;cluster&#45;EcsInstanceLc&#45;COYK3CQZ0QRJ</title>
<path fill="none" stroke="#707070" d="M875.94,-158.89C900.5,-151.97 926.67,-144.66 951,-138 958.52,-135.94 966.26,-133.84 974.07,-131.74"/>
<polygon fill="#707070" stroke="#707070" points="975.24,-135.05 983.99,-129.07 973.42,-128.29 975.24,-135.05"/>
</g>
<!-- Subnet::::PubSubnetAz1 -->
<g id="node11" class="node">
<title>Subnet::::PubSubnetAz1</title>
<polygon fill="#e5e5e5" stroke="#dddddd" points="1451,-357 1319,-357 1319,-299 1451,-299 1451,-357"/>
<text text-anchor="start" x="1331" y="-337.2" font-family="Helvetica,sans-Serif" font-weight="bold" font-size="16.00" fill="#707070">EC2::Subnet</text>
<text text-anchor="start" x="1331" y="-312.2" font-family="Helvetica,sans-Serif" font-size="16.00" fill="#383838">PubSubnetAz1</text>
</g>
<!-- AutoScalingGroup::::EcsInstanceAsg&#45;&gt;Subnet::::PubSubnetAz1 -->
<g id="edge2" class="edge">
<title>AutoScalingGroup::::EcsInstanceAsg&#45;&gt;Subnet::::PubSubnetAz1</title>
<path fill="none" stroke="#707070" d="M891.48,-217.01C911.32,-221.78 931.73,-226.59 951,-231 1079.06,-260.29 1111.94,-263.71 1240,-293 1262.4,-298.12 1286.7,-303.93 1308.85,-309.33"/>
<polygon fill="#707070" stroke="#707070" points="1308.31,-312.8 1318.86,-311.77 1309.97,-306 1308.31,-312.8"/>
</g>
<!-- Subnet::::PubSubnetAz2 -->
<g id="node12" class="node">
<title>Subnet::::PubSubnetAz2</title>
<polygon fill="#e5e5e5" stroke="#dddddd" points="1451,-281 1319,-281 1319,-223 1451,-223 1451,-281"/>
<text text-anchor="start" x="1331" y="-261.2" font-family="Helvetica,sans-Serif" font-weight="bold" font-size="16.00" fill="#707070">EC2::Subnet</text>
<text text-anchor="start" x="1331" y="-236.2" font-family="Helvetica,sans-Serif" font-size="16.00" fill="#383838">PubSubnetAz2</text>
</g>
<!-- AutoScalingGroup::::EcsInstanceAsg&#45;&gt;Subnet::::PubSubnetAz2 -->
<g id="edge3" class="edge">
<title>AutoScalingGroup::::EcsInstanceAsg&#45;&gt;Subnet::::PubSubnetAz2</title>
<path fill="none" stroke="#707070" d="M907.74,-208.51C922.32,-210.49 936.96,-212.36 951,-214 1079.06,-228.93 1111.58,-227.65 1240,-239 1262.33,-240.97 1286.61,-243.15 1308.76,-245.15"/>
<polygon fill="#707070" stroke="#707070" points="1308.5,-248.64 1318.77,-246.06 1309.13,-241.67 1308.5,-248.64"/>
</g>
<!-- SecurityGroup::::sg::Vpc::EcsSecurityGroup -->
<g id="node9" class="node">
<title>SecurityGroup::::sg::Vpc::EcsSecurityGroup</title>
<polygon fill="#e5e5e5" stroke="#dddddd" points="1494,-205 1276,-205 1276,-147 1494,-147 1494,-205"/>
<text text-anchor="start" x="1288" y="-185.2" font-family="Helvetica,sans-Serif" font-weight="bold" font-size="16.00" fill="#707070">EC2::SecurityGroup</text>
<text text-anchor="start" x="1288" y="-160.2" font-family="Helvetica,sans-Serif" font-size="16.00" fill="#383838">sg::Vpc::EcsSecurityGroup</text>
</g>
<!-- LaunchConfiguration::::EC2ContainerService&#45;cluster&#45;EcsInstanceLc&#45;COYK3CQZ0QRJ&#45;&gt;SecurityGroup::::sg::Vpc::EcsSecurityGroup -->
<g id="edge4" class="edge">
<title>LaunchConfiguration::::EC2ContainerService&#45;cluster&#45;EcsInstanceLc&#45;COYK3CQZ0QRJ&#45;&gt;SecurityGroup::::sg::Vpc::EcsSecurityGroup</title>
<path fill="none" stroke="#707070" d="M1206.42,-129.06C1225.81,-134.18 1246.08,-139.54 1265.69,-144.72"/>
<polygon fill="#707070" stroke="#707070" points="1265,-148.16 1275.56,-147.34 1266.79,-141.4 1265,-148.16"/>
</g>
<!-- InstanceProfile::::ecsInstanceRole -->
<g id="node18" class="node">
<title>InstanceProfile::::ecsInstanceRole</title>
<polygon fill="#e5e5e5" stroke="#dddddd" points="1474.5,-129 1295.5,-129 1295.5,-71 1474.5,-71 1474.5,-129"/>
<text text-anchor="start" x="1308" y="-109.2" font-family="Helvetica,sans-Serif" font-weight="bold" font-size="16.00" fill="#707070">IAM::InstanceProfile</text>
<text text-anchor="start" x="1308" y="-84.2" font-family="Helvetica,sans-Serif" font-size="16.00" fill="#383838">ecsInstanceRole</text>
</g>
<!-- LaunchConfiguration::::EC2ContainerService&#45;cluster&#45;EcsInstanceLc&#45;COYK3CQZ0QRJ&#45;&gt;InstanceProfile::::ecsInstanceRole -->
<g id="edge5" class="edge">
<title>LaunchConfiguration::::EC2ContainerService&#45;cluster&#45;EcsInstanceLc&#45;COYK3CQZ0QRJ&#45;&gt;InstanceProfile::::ecsInstanceRole</title>
<path fill="none" stroke="#707070" d="M1240.25,-100C1255.39,-100 1270.52,-100 1284.99,-100"/>
<polygon fill="#707070" stroke="#707070" points="1285.39,-103.5 1295.39,-100 1285.39,-96.5 1285.39,-103.5"/>
</g>
<!-- InternetGateway::::InternetGateway -->
<g id="node3" class="node">
<title>InternetGateway::::InternetGateway</title>
<polygon fill="#e5e5e5" stroke="#dddddd" points="1480.5,-453 1289.5,-453 1289.5,-395 1480.5,-395 1480.5,-453"/>
<text text-anchor="start" x="1302" y="-433.2" font-family="Helvetica,sans-Serif" font-weight="bold" font-size="16.00" fill="#707070">EC2::InternetGateway</text>
<text text-anchor="start" x="1302" y="-408.2" font-family="Helvetica,sans-Serif" font-size="16.00" fill="#383838">InternetGateway</text>
</g>
<!-- Vpc::::Vpc -->
<g id="node13" class="node">
<title>Vpc::::Vpc</title>
<polygon fill="#e5e5e5" stroke="#dddddd" points="1650,-381 1555,-381 1555,-323 1650,-323 1650,-381"/>
<text text-anchor="start" x="1567.5" y="-361.2" font-family="Helvetica,sans-Serif" font-weight="bold" font-size="16.00" fill="#707070">EC2::Vpc</text>
<text text-anchor="start" x="1567.5" y="-336.2" font-family="Helvetica,sans-Serif" font-size="16.00" fill="#383838">Vpc</text>
</g>
<!-- InternetGateway::::InternetGateway&#45;&gt;Vpc::::Vpc -->
<g id="edge6" class="edge">
<title>InternetGateway::::InternetGateway&#45;&gt;Vpc::::Vpc</title>
<path fill="none" stroke="#707070" d="M1473.03,-394.92C1497.45,-386.76 1523.35,-378.11 1545.45,-370.73"/>
<polygon fill="#707070" stroke="#707070" points="1546.61,-374.03 1554.99,-367.54 1544.39,-367.39 1546.61,-374.03"/>
</g>
<!-- InternetGatewayAttachment::::ig&#45;attach::InternetGateway::Vpc -->
<g id="node4" class="node">
<title>InternetGatewayAttachment::::ig&#45;attach::InternetGateway::Vpc</title>
<polygon fill="#e5e5e5" stroke="#dddddd" points="1235,-473 956,-473 956,-415 1235,-415 1235,-473"/>
<text text-anchor="start" x="968.5" y="-453.2" font-family="Helvetica,sans-Serif" font-weight="bold" font-size="16.00" fill="#707070">EC2::InternetGatewayAttachment</text>
<text text-anchor="start" x="968.5" y="-428.2" font-family="Helvetica,sans-Serif" font-size="16.00" fill="#383838">ig&#45;attach::InternetGateway::Vpc</text>
</g>
<!-- InternetGatewayAttachment::::ig&#45;attach::InternetGateway::Vpc&#45;&gt;InternetGateway::::InternetGateway -->
<g id="edge8" class="edge">
<title>InternetGatewayAttachment::::ig&#45;attach::InternetGateway::Vpc&#45;&gt;InternetGateway::::InternetGateway</title>
<path fill="none" stroke="#707070" d="M1235.2,-434.35C1249.99,-433.32 1264.85,-432.29 1279.15,-431.29"/>
<polygon fill="#707070" stroke="#707070" points="1279.73,-434.76 1289.46,-430.58 1279.24,-427.78 1279.73,-434.76"/>
</g>
<!-- InternetGatewayAttachment::::ig&#45;attach::InternetGateway::Vpc&#45;&gt;Vpc::::Vpc -->
<g id="edge7" class="edge">
<title>InternetGatewayAttachment::::ig&#45;attach::InternetGateway::Vpc&#45;&gt;Vpc::::Vpc</title>
<path fill="none" stroke="#707070" d="M1203.39,-473.05C1286.02,-489.89 1401.52,-500.93 1494,-462 1528.98,-447.28 1558.25,-415 1577.37,-389.2"/>
<polygon fill="#707070" stroke="#707070" points="1580.22,-391.24 1583.22,-381.08 1574.53,-387.15 1580.22,-391.24"/>
</g>
<!-- Route::::RouteViaIgw&#45;igw -->
<g id="node5" class="node">
<title>Route::::RouteViaIgw&#45;igw</title>
<polygon fill="#e5e5e5" stroke="#dddddd" points="845.5,-445 700.5,-445 700.5,-387 845.5,-387 845.5,-445"/>
<text text-anchor="start" x="713" y="-425.2" font-family="Helvetica,sans-Serif" font-weight="bold" font-size="16.00" fill="#707070">EC2::Route</text>
<text text-anchor="start" x="713" y="-400.2" font-family="Helvetica,sans-Serif" font-size="16.00" fill="#383838">RouteViaIgw&#45;igw</text>
</g>
<!-- Route::::RouteViaIgw&#45;igw&#45;&gt;InternetGateway::::InternetGateway -->
<g id="edge10" class="edge">
<title>Route::::RouteViaIgw&#45;igw&#45;&gt;InternetGateway::::InternetGateway</title>
<path fill="none" stroke="#707070" d="M845.53,-410.76C937.06,-404.9 1100.48,-397.31 1240,-406 1252.72,-406.79 1266.04,-407.97 1279.23,-409.36"/>
<polygon fill="#707070" stroke="#707070" points="1278.95,-412.85 1289.27,-410.46 1279.71,-405.89 1278.95,-412.85"/>
</g>
<!-- RouteTable::::RouteViaIgw -->
<g id="node6" class="node">
<title>RouteTable::::RouteViaIgw</title>
<polygon fill="#e5e5e5" stroke="#dddddd" points="1171,-373 1020,-373 1020,-315 1171,-315 1171,-373"/>
<text text-anchor="start" x="1032.5" y="-353.2" font-family="Helvetica,sans-Serif" font-weight="bold" font-size="16.00" fill="#707070">EC2::RouteTable</text>
<text text-anchor="start" x="1032.5" y="-328.2" font-family="Helvetica,sans-Serif" font-size="16.00" fill="#383838">RouteViaIgw</text>
</g>
<!-- Route::::RouteViaIgw&#45;igw&#45;&gt;RouteTable::::RouteViaIgw -->
<g id="edge9" class="edge">
<title>Route::::RouteViaIgw&#45;igw&#45;&gt;RouteTable::::RouteViaIgw</title>
<path fill="none" stroke="#707070" d="M845.53,-399.93C894.13,-389.01 958.63,-374.52 1009.8,-363.03"/>
<polygon fill="#707070" stroke="#707070" points="1010.86,-366.38 1019.85,-360.77 1009.33,-359.55 1010.86,-366.38"/>
</g>
<!-- RouteTable::::RouteViaIgw&#45;&gt;Subnet::::PubSubnetAz1 -->
<g id="edge13" class="edge">
<title>RouteTable::::RouteViaIgw&#45;&gt;Subnet::::PubSubnetAz1</title>
<path fill="none" stroke="#707070" d="M1171.29,-339.84C1213.64,-337.48 1266.47,-334.54 1308.88,-332.18"/>
<polygon fill="#707070" stroke="#707070" points="1309.08,-335.67 1318.87,-331.62 1308.69,-328.69 1309.08,-335.67"/>
</g>
<!-- RouteTable::::RouteViaIgw&#45;&gt;Subnet::::PubSubnetAz2 -->
<g id="edge12" class="edge">
<title>RouteTable::::RouteViaIgw&#45;&gt;Subnet::::PubSubnetAz2</title>
<path fill="none" stroke="#707070" d="M1171.29,-320.07C1213.73,-306.49 1266.69,-289.54 1309.15,-275.95"/>
<polygon fill="#707070" stroke="#707070" points="1310.42,-279.22 1318.87,-272.84 1308.28,-272.56 1310.42,-279.22"/>
</g>
<!-- RouteTable::::RouteViaIgw&#45;&gt;Vpc::::Vpc -->
<g id="edge11" class="edge">
<title>RouteTable::::RouteViaIgw&#45;&gt;Vpc::::Vpc</title>
<path fill="none" stroke="#707070" d="M1171.42,-355.25C1203.54,-359.54 1241.53,-363.9 1276,-366 1372.71,-371.9 1397.31,-372.27 1494,-366 1510.56,-364.93 1528.47,-362.93 1544.84,-360.78"/>
<polygon fill="#707070" stroke="#707070" points="1545.36,-364.24 1554.8,-359.42 1544.42,-357.3 1545.36,-364.24"/>
</g>
<!-- RouteTableAssociation::::rt&#45;assoc::RouteViaIgw::PubSubnetAz1 -->
<g id="node7" class="node">
<title>RouteTableAssociation::::rt&#45;assoc::RouteViaIgw::PubSubnetAz1</title>
<polygon fill="#e5e5e5" stroke="#dddddd" points="915,-369 631,-369 631,-311 915,-311 915,-369"/>
<text text-anchor="start" x="643" y="-349.2" font-family="Helvetica,sans-Serif" font-weight="bold" font-size="16.00" fill="#707070">EC2::RouteTableAssociation</text>
<text text-anchor="start" x="643" y="-324.2" font-family="Helvetica,sans-Serif" font-size="16.00" fill="#383838">rt&#45;assoc::RouteViaIgw::PubSubnet...</text>
</g>
<!-- RouteTableAssociation::::rt&#45;assoc::RouteViaIgw::PubSubnetAz1&#45;&gt;RouteTable::::RouteViaIgw -->
<g id="edge14" class="edge">
<title>RouteTableAssociation::::rt&#45;assoc::RouteViaIgw::PubSubnetAz1&#45;&gt;RouteTable::::RouteViaIgw</title>
<path fill="none" stroke="#707070" d="M915.04,-341.76C947.34,-342.16 980.7,-342.58 1009.76,-342.94"/>
<polygon fill="#707070" stroke="#707070" points="1009.81,-346.44 1019.85,-343.07 1009.89,-339.44 1009.81,-346.44"/>
</g>
<!-- RouteTableAssociation::::rt&#45;assoc::RouteViaIgw::PubSubnetAz1&#45;&gt;Subnet::::PubSubnetAz1 -->
<g id="edge15" class="edge">
<title>RouteTableAssociation::::rt&#45;assoc::RouteViaIgw::PubSubnetAz1&#45;&gt;Subnet::::PubSubnetAz1</title>
<path fill="none" stroke="#707070" d="M911.33,-310.98C924.69,-308.96 938.07,-307.23 951,-306 1078.87,-293.83 1111.92,-296.27 1240,-306 1262.41,-307.7 1286.62,-310.87 1308.68,-314.29"/>
<polygon fill="#707070" stroke="#707070" points="1308.22,-317.76 1318.65,-315.87 1309.32,-310.85 1308.22,-317.76"/>
</g>
<!-- RouteTableAssociation::::rt&#45;assoc::RouteViaIgw::PubSubnetAz2 -->
<g id="node8" class="node">
<title>RouteTableAssociation::::rt&#45;assoc::RouteViaIgw::PubSubnetAz2</title>
<polygon fill="#e5e5e5" stroke="#dddddd" points="915,-293 631,-293 631,-235 915,-235 915,-293"/>
<text text-anchor="start" x="643" y="-273.2" font-family="Helvetica,sans-Serif" font-weight="bold" font-size="16.00" fill="#707070">EC2::RouteTableAssociation</text>
<text text-anchor="start" x="643" y="-248.2" font-family="Helvetica,sans-Serif" font-size="16.00" fill="#383838">rt&#45;assoc::RouteViaIgw::PubSubnet...</text>
</g>
<!-- RouteTableAssociation::::rt&#45;assoc::RouteViaIgw::PubSubnetAz2&#45;&gt;RouteTable::::RouteViaIgw -->
<g id="edge16" class="edge">
<title>RouteTableAssociation::::rt&#45;assoc::RouteViaIgw::PubSubnetAz2&#45;&gt;RouteTable::::RouteViaIgw</title>
<path fill="none" stroke="#707070" d="M890.61,-293.11C930.04,-302.95 973.28,-313.74 1009.76,-322.85"/>
<polygon fill="#707070" stroke="#707070" points="1009.31,-326.34 1019.86,-325.37 1011.01,-319.55 1009.31,-326.34"/>
</g>
<!-- RouteTableAssociation::::rt&#45;assoc::RouteViaIgw::PubSubnetAz2&#45;&gt;Subnet::::PubSubnetAz2 -->
<g id="edge17" class="edge">
<title>RouteTableAssociation::::rt&#45;assoc::RouteViaIgw::PubSubnetAz2&#45;&gt;Subnet::::PubSubnetAz2</title>
<path fill="none" stroke="#707070" d="M915.1,-261.22C1037.79,-258.81 1210.83,-255.41 1308.74,-253.48"/>
<polygon fill="#707070" stroke="#707070" points="1308.92,-256.98 1318.85,-253.28 1308.78,-249.98 1308.92,-256.98"/>
</g>
<!-- SecurityGroup::::sg::Vpc::EcsSecurityGroup&#45;&gt;Vpc::::Vpc -->
<g id="edge18" class="edge">
<title>SecurityGroup::::sg::Vpc::EcsSecurityGroup&#45;&gt;Vpc::::Vpc</title>
<path fill="none" stroke="#707070" d="M1479.66,-205C1484.66,-207.76 1489.48,-210.75 1494,-214 1530.91,-240.55 1561.42,-283.25 1580.38,-314.13"/>
<polygon fill="#707070" stroke="#707070" points="1577.51,-316.13 1585.66,-322.9 1583.5,-312.52 1577.51,-316.13"/>
</g>
<!-- SecurityGroupRuleIngress::::sg::Vpc::EcsSecurityGroup&#45;rule&#45;ingress&#45;tcp&#45;80 -->
<g id="node10" class="node">
<title>SecurityGroupRuleIngress::::sg::Vpc::EcsSecurityGroup&#45;rule&#45;ingress&#45;tcp&#45;80</title>
<polygon fill="#e5e5e5" stroke="#dddddd" points="1232,-205 959,-205 959,-147 1232,-147 1232,-205"/>
<text text-anchor="start" x="971.5" y="-185.2" font-family="Helvetica,sans-Serif" font-weight="bold" font-size="16.00" fill="#707070">EC2::SecurityGroupRuleIngress</text>
<text text-anchor="start" x="971.5" y="-160.2" font-family="Helvetica,sans-Serif" font-size="16.00" fill="#383838">sg::Vpc::EcsSecurityGroup&#45;rule&#45;i...</text>
</g>
<!-- SecurityGroupRuleIngress::::sg::Vpc::EcsSecurityGroup&#45;rule&#45;ingress&#45;tcp&#45;80&#45;&gt;SecurityGroup::::sg::Vpc::EcsSecurityGroup -->
<g id="edge19" class="edge">
<title>SecurityGroupRuleIngress::::sg::Vpc::EcsSecurityGroup&#45;rule&#45;ingress&#45;tcp&#45;80&#45;&gt;SecurityGroup::::sg::Vpc::EcsSecurityGroup</title>
<path fill="none" stroke="#707070" d="M1232.25,-176C1243.38,-176 1254.58,-176 1265.57,-176"/>
<polygon fill="#707070" stroke="#707070" points="1265.6,-179.5 1275.6,-176 1265.6,-172.5 1265.6,-179.5"/>
</g>
<!-- Subnet::::PubSubnetAz1&#45;&gt;Vpc::::Vpc -->
<g id="edge20" class="edge">
<title>Subnet::::PubSubnetAz1&#45;&gt;Vpc::::Vpc</title>
<path fill="none" stroke="#707070" d="M1451.24,-335.27C1481.03,-338.58 1515.98,-342.48 1544.68,-345.67"/>
<polygon fill="#707070" stroke="#707070" points="1544.62,-349.19 1554.94,-346.82 1545.39,-342.23 1544.62,-349.19"/>
</g>
<!-- Subnet::::PubSubnetAz2&#45;&gt;Vpc::::Vpc -->
<g id="edge21" class="edge">
<title>Subnet::::PubSubnetAz2&#45;&gt;Vpc::::Vpc</title>
<path fill="none" stroke="#707070" d="M1451.02,-272.69C1465.38,-277.86 1480.36,-283.73 1494,-290 1511.51,-298.05 1529.91,-308.04 1546.43,-317.63"/>
<polygon fill="#707070" stroke="#707070" points="1545.01,-320.86 1555.4,-322.91 1548.56,-314.82 1545.01,-320.86"/>
</g>
<!-- CapacityProvider::::cp -->
<g id="node14" class="node">
<title>CapacityProvider::::cp</title>
<polygon fill="#e5e5e5" stroke="#dddddd" points="595,-217 396,-217 396,-159 595,-159 595,-217"/>
<text text-anchor="start" x="408.5" y="-197.2" font-family="Helvetica,sans-Serif" font-weight="bold" font-size="16.00" fill="#707070">ECS::CapacityProvider</text>
<text text-anchor="start" x="408.5" y="-172.2" font-family="Helvetica,sans-Serif" font-size="16.00" fill="#383838">cp</text>
</g>
<!-- CapacityProvider::::cp&#45;&gt;AutoScalingGroup::::EcsInstanceAsg -->
<g id="edge22" class="edge">
<title>CapacityProvider::::cp&#45;&gt;AutoScalingGroup::::EcsInstanceAsg</title>
<path fill="none" stroke="#707070" d="M595.18,-188C605.94,-188 617.04,-188 628.2,-188"/>
<polygon fill="#707070" stroke="#707070" points="628.45,-191.5 638.45,-188 628.45,-184.5 628.45,-191.5"/>
</g>
<!-- Cluster::::cluster -->
<g id="node15" class="node">
<title>Cluster::::cluster</title>
<polygon fill="#e5e5e5" stroke="#dddddd" points="333,-217 211,-217 211,-159 333,-159 333,-217"/>
<text text-anchor="start" x="223" y="-197.2" font-family="Helvetica,sans-Serif" font-weight="bold" font-size="16.00" fill="#707070">ECS::Cluster</text>
<text text-anchor="start" x="223" y="-172.2" font-family="Helvetica,sans-Serif" font-size="16.00" fill="#383838">cluster</text>
</g>
<!-- Cluster::::cluster&#45;&gt;CapacityProvider::::cp -->
<g id="edge23" class="edge">
<title>Cluster::::cluster&#45;&gt;CapacityProvider::::cp</title>
<path fill="none" stroke="#707070" d="M333.23,-188C349.55,-188 367.74,-188 385.85,-188"/>
<polygon fill="#707070" stroke="#707070" points="385.89,-191.5 395.89,-188 385.89,-184.5 385.89,-191.5"/>
</g>
<!-- Service::::service&#45;nginx -->
<g id="node16" class="node">
<title>Service::::service&#45;nginx</title>
<polygon fill="#e5e5e5" stroke="#dddddd" points="148,-255 24,-255 24,-197 148,-197 148,-255"/>
<text text-anchor="start" x="36" y="-235.2" font-family="Helvetica,sans-Serif" font-weight="bold" font-size="16.00" fill="#707070">ECS::Service</text>
<text text-anchor="start" x="36" y="-210.2" font-family="Helvetica,sans-Serif" font-size="16.00" fill="#383838">service&#45;nginx</text>
</g>
<!-- Service::::service&#45;nginx&#45;&gt;Cluster::::cluster -->
<g id="edge24" class="edge">
<title>Service::::service&#45;nginx&#45;&gt;Cluster::::cluster</title>
<path fill="none" stroke="#707070" d="M148.01,-213.4C164.89,-209.91 183.34,-206.1 200.7,-202.52"/>
<polygon fill="#707070" stroke="#707070" points="201.69,-205.89 210.78,-200.44 200.28,-199.03 201.69,-205.89"/>
</g>
<!-- TaskDefinition::::nginx -->
<g id="node17" class="node">
<title>TaskDefinition::::nginx</title>
<polygon fill="#e5e5e5" stroke="#dddddd" points="360,-293 184,-293 184,-235 360,-235 360,-293"/>
<text text-anchor="start" x="196" y="-273.2" font-family="Helvetica,sans-Serif" font-weight="bold" font-size="16.00" fill="#707070">ECS::TaskDefinition</text>
<text text-anchor="start" x="196" y="-248.2" font-family="Helvetica,sans-Serif" font-size="16.00" fill="#383838">nginx</text>
</g>
<!-- Service::::service&#45;nginx&#45;&gt;TaskDefinition::::nginx -->
<g id="edge25" class="edge">
<title>Service::::service&#45;nginx&#45;&gt;TaskDefinition::::nginx</title>
<path fill="none" stroke="#707070" d="M148.01,-238.6C156.37,-240.33 165.12,-242.13 173.93,-243.95"/>
<polygon fill="#707070" stroke="#707070" points="173.39,-247.41 183.89,-246.01 174.8,-240.56 173.39,-247.41"/>
</g>
<!-- Role::::ecsInstanceRole -->
<g id="node19" class="node">
<title>Role::::ecsInstanceRole</title>
<polygon fill="#e5e5e5" stroke="#dddddd" points="1675,-129 1530,-129 1530,-71 1675,-71 1675,-129"/>
<text text-anchor="start" x="1542.5" y="-109.2" font-family="Helvetica,sans-Serif" font-weight="bold" font-size="16.00" fill="#707070">IAM::Role</text>
<text text-anchor="start" x="1542.5" y="-84.2" font-family="Helvetica,sans-Serif" font-size="16.00" fill="#383838">ecsInstanceRole</text>
</g>
<!-- InstanceProfile::::ecsInstanceRole&#45;&gt;Role::::ecsInstanceRole -->
<g id="edge26" class="edge">
<title>InstanceProfile::::ecsInstanceRole&#45;&gt;Role::::ecsInstanceRole</title>
<path fill="none" stroke="#707070" d="M1474.59,-100C1489.49,-100 1504.9,-100 1519.62,-100"/>
<polygon fill="#707070" stroke="#707070" points="1519.69,-103.5 1529.69,-100 1519.69,-96.5 1519.69,-103.5"/>
</g>
</g>
</svg>
