<?xml version="1.0" encoding="UTF-8" standalone="no"?>
<!DOCTYPE svg PUBLIC "-//W3C//DTD SVG 1.1//EN"
 "http://www.w3.org/Graphics/SVG/1.1/DTD/svg11.dtd">
<!-- Generated by graphviz version 2.44.1 (20200629.0846)
 -->
<!-- Title: graphname Pages: 1 -->
<svg width="2137pt" height="701pt"
 viewBox="0.00 0.00 2137.00 700.75" xmlns="http://www.w3.org/2000/svg" xmlns:xlink="http://www.w3.org/1999/xlink">
<g id="graph0" class="graph" transform="scale(1 1) rotate(0) translate(4 696.75)">
<title>graphname</title>
<polygon fill="#fafafa" stroke="transparent" points="-4,4 -4,-696.75 2133,-696.75 2133,4 -4,4"/>
<text text-anchor="start" x="968.5" y="-668.15" font-family="Helvetica,sans-Serif" font-weight="bold" font-size="22.00" fill="#383838">Project ecs&#45;simple</text>
<text text-anchor="start" x="1061" y="-652.55" font-family="Helvetica,sans-Serif" font-size="14.00"> &#160;</text>
<text text-anchor="start" x="968.5" y="-630.95" font-family="Helvetica,sans-Serif" font-weight="bold" font-size="16.00" fill="#707070">Live Diagram</text>
<g id="clust1" class="cluster">
<title>cluster_aws</title>
<polygon fill="#f5f5f5" stroke="#f5f5f5" points="8,-8 8,-589 2121,-589 2121,-8 8,-8"/>
<text text-anchor="start" x="1002.5" y="-23" font-family="Helvetica,sans-Serif" font-weight="bold" font-size="20.00" fill="#707070">Provider aws</text>
</g>
<g id="clust2" class="cluster">
<title>cluster_aws_</title>
<polygon fill="#eeeeee" stroke="#eeeeee" points="16,-54 16,-581 2113,-581 2113,-54 16,-54"/>
<text text-anchor="start" x="1064.36" y="-58.3" font-family="Helvetica,sans-Serif" font-size="1.00" fill="#383838"> </text>
</g>
<!-- AutoScalingGroup::::EcsInstanceAsg -->
<g id="node1" class="node">
<title>AutoScalingGroup::::EcsInstanceAsg</title>
<polygon fill="#e5e5e5" stroke="#dddddd" points="907,-417 638,-417 638,-359 907,-359 907,-417"/>
<text text-anchor="start" x="650.5" y="-397.2" font-family="Helvetica,sans-Serif" font-weight="bold" font-size="16.00" fill="#707070">AutoScaling::AutoScalingGroup</text>
<text text-anchor="start" x="650.5" y="-372.2" font-family="Helvetica,sans-Serif" font-size="16.00" fill="#383838">EcsInstanceAsg</text>
</g>
<!-- LaunchConfiguration::::EC2ContainerService&#45;cluster&#45;EcsInstanceLc&#45;COYK3CQZ0QRJ -->
<g id="node2" class="node">
<title>LaunchConfiguration::::EC2ContainerService&#45;cluster&#45;EcsInstanceLc&#45;COYK3CQZ0QRJ</title>
<polygon fill="#e5e5e5" stroke="#dddddd" points="1232,-273 943,-273 943,-215 1232,-215 1232,-273"/>
<text text-anchor="start" x="955.5" y="-253.2" font-family="Helvetica,sans-Serif" font-weight="bold" font-size="16.00" fill="#707070">AutoScaling::LaunchConfiguration</text>
<text text-anchor="start" x="955.5" y="-228.2" font-family="Helvetica,sans-Serif" font-size="16.00" fill="#383838">EC2ContainerService&#45;cluster&#45;EcsI...</text>
</g>
<!-- AutoScalingGroup::::EcsInstanceAsg&#45;&gt;LaunchConfiguration::::EC2ContainerService&#45;cluster&#45;EcsInstanceLc&#45;COYK3CQZ0QRJ -->
<g id="edge1" class="edge">
<title>AutoScalingGroup::::EcsInstanceAsg&#45;&gt;LaunchConfiguration::::EC2ContainerService&#45;cluster&#45;EcsInstanceLc&#45;COYK3CQZ0QRJ</title>
<path fill="none" stroke="#707070" d="M827.89,-358.91C860.85,-341.66 903.95,-319.76 943,-302 961.81,-293.44 982.28,-284.79 1001.7,-276.88"/>
<polygon fill="#707070" stroke="#707070" points="1003.18,-280.05 1011.14,-273.06 1000.55,-273.57 1003.18,-280.05"/>
</g>
<!-- Instance::::EcsInstanceAsg -->
<g id="node3" class="node">
<title>Instance::::EcsInstanceAsg</title>
<polygon fill="#e5e5e5" stroke="#dddddd" points="1158,-369 1017,-369 1017,-311 1158,-311 1158,-369"/>
<text text-anchor="start" x="1029.5" y="-349.2" font-family="Helvetica,sans-Serif" font-weight="bold" font-size="16.00" fill="#707070">EC2::Instance</text>
<text text-anchor="start" x="1029.5" y="-324.2" font-family="Helvetica,sans-Serif" font-size="16.00" fill="#383838">EcsInstanceAsg</text>
</g>
<!-- AutoScalingGroup::::EcsInstanceAsg&#45;&gt;Instance::::EcsInstanceAsg -->
<g id="edge2" class="edge">
<title>AutoScalingGroup::::EcsInstanceAsg&#45;&gt;Instance::::EcsInstanceAsg</title>
<path fill="none" stroke="#707070" d="M907.15,-367.5C941.04,-362.31 976.38,-356.89 1006.65,-352.25"/>
<polygon fill="#707070" stroke="#707070" points="1007.36,-355.68 1016.71,-350.7 1006.3,-348.76 1007.36,-355.68"/>
</g>
<!-- Subnet::::PubSubnetAz1 -->
<g id="node7" class="node">
<title>Subnet::::PubSubnetAz1</title>
<polygon fill="#e5e5e5" stroke="#dddddd" points="1742.5,-381 1610.5,-381 1610.5,-323 1742.5,-323 1742.5,-381"/>
<text text-anchor="start" x="1622.5" y="-361.2" font-family="Helvetica,sans-Serif" font-weight="bold" font-size="16.00" fill="#707070">EC2::Subnet</text>
<text text-anchor="start" x="1622.5" y="-336.2" font-family="Helvetica,sans-Serif" font-size="16.00" fill="#383838">PubSubnetAz1</text>
</g>
<!-- AutoScalingGroup::::EcsInstanceAsg&#45;&gt;Subnet::::PubSubnetAz1 -->
<g id="edge3" class="edge">
<title>AutoScalingGroup::::EcsInstanceAsg&#45;&gt;Subnet::::PubSubnetAz1</title>
<path fill="none" stroke="#707070" d="M898.51,-417.06C1053.13,-447.83 1323.11,-484.53 1545,-426 1546.05,-425.72 1581.77,-405.45 1615.57,-386.2"/>
<polygon fill="#707070" stroke="#707070" points="1617.6,-389.07 1624.56,-381.08 1614.14,-382.99 1617.6,-389.07"/>
</g>
<!-- Subnet::::PubSubnetAz2 -->
<g id="node8" class="node">
<title>Subnet::::PubSubnetAz2</title>
<polygon fill="#e5e5e5" stroke="#dddddd" points="1742.5,-497 1610.5,-497 1610.5,-439 1742.5,-439 1742.5,-497"/>
<text text-anchor="start" x="1622.5" y="-477.2" font-family="Helvetica,sans-Serif" font-weight="bold" font-size="16.00" fill="#707070">EC2::Subnet</text>
<text text-anchor="start" x="1622.5" y="-452.2" font-family="Helvetica,sans-Serif" font-size="16.00" fill="#383838">PubSubnetAz2</text>
</g>
<!-- AutoScalingGroup::::EcsInstanceAsg&#45;&gt;Subnet::::PubSubnetAz2 -->
<g id="edge4" class="edge">
<title>AutoScalingGroup::::EcsInstanceAsg&#45;&gt;Subnet::::PubSubnetAz2</title>
<path fill="none" stroke="#707070" d="M794.42,-417.28C823.04,-454.52 878.28,-516.99 943,-542 1192.57,-638.44 1297.81,-644.39 1545,-542 1565.91,-533.34 1562.12,-518.47 1581,-506 1587.19,-501.91 1593.88,-498.14 1600.76,-494.7"/>
<polygon fill="#707070" stroke="#707070" points="1602.68,-497.66 1610.2,-490.21 1599.67,-491.34 1602.68,-497.66"/>
</g>
<!-- InstanceProfile::::ecsInstanceRole -->
<g id="node15" class="node">
<title>InstanceProfile::::ecsInstanceRole</title>
<polygon fill="#e5e5e5" stroke="#dddddd" points="1496,-129 1317,-129 1317,-71 1496,-71 1496,-129"/>
<text text-anchor="start" x="1329.5" y="-109.2" font-family="Helvetica,sans-Serif" font-weight="bold" font-size="16.00" fill="#707070">IAM::InstanceProfile</text>
<text text-anchor="start" x="1329.5" y="-84.2" font-family="Helvetica,sans-Serif" font-size="16.00" fill="#383838">ecsInstanceRole</text>
</g>
<!-- LaunchConfiguration::::EC2ContainerService&#45;cluster&#45;EcsInstanceLc&#45;COYK3CQZ0QRJ&#45;&gt;InstanceProfile::::ecsInstanceRole -->
<g id="edge6" class="edge">
<title>LaunchConfiguration::::EC2ContainerService&#45;cluster&#45;EcsInstanceLc&#45;COYK3CQZ0QRJ&#45;&gt;InstanceProfile::::ecsInstanceRole</title>
<path fill="none" stroke="#707070" d="M1134,-214.87C1169.49,-193.03 1220.57,-163.49 1268,-143 1280.47,-137.61 1293.84,-132.57 1307.16,-127.98"/>
<polygon fill="#707070" stroke="#707070" points="1308.49,-131.23 1316.85,-124.72 1306.25,-124.6 1308.49,-131.23"/>
</g>
<!-- SecurityGroup::::EcsSecurityGroup -->
<g id="node21" class="node">
<title>SecurityGroup::::EcsSecurityGroup</title>
<polygon fill="#e5e5e5" stroke="#dddddd" points="1765,-273 1588,-273 1588,-215 1765,-215 1765,-273"/>
<text text-anchor="start" x="1600.5" y="-253.2" font-family="Helvetica,sans-Serif" font-weight="bold" font-size="16.00" fill="#707070">EC2::SecurityGroup</text>
<text text-anchor="start" x="1600.5" y="-228.2" font-family="Helvetica,sans-Serif" font-size="16.00" fill="#383838">EcsSecurityGroup</text>
</g>
<!-- LaunchConfiguration::::EC2ContainerService&#45;cluster&#45;EcsInstanceLc&#45;COYK3CQZ0QRJ&#45;&gt;SecurityGroup::::EcsSecurityGroup -->
<g id="edge5" class="edge">
<title>LaunchConfiguration::::EC2ContainerService&#45;cluster&#45;EcsInstanceLc&#45;COYK3CQZ0QRJ&#45;&gt;SecurityGroup::::EcsSecurityGroup</title>
<path fill="none" stroke="#707070" d="M1232.1,-244C1339.51,-244 1483.54,-244 1577.89,-244"/>
<polygon fill="#707070" stroke="#707070" points="1578,-247.5 1588,-244 1578,-240.5 1578,-247.5"/>
</g>
<!-- Instance::::EcsInstanceAsg&#45;&gt;Subnet::::PubSubnetAz1 -->
<g id="edge8" class="edge">
<title>Instance::::EcsInstanceAsg&#45;&gt;Subnet::::PubSubnetAz1</title>
<path fill="none" stroke="#707070" d="M1158.14,-341.42C1269.28,-343.7 1485.85,-348.12 1600.36,-350.46"/>
<polygon fill="#707070" stroke="#707070" points="1600.37,-353.96 1610.44,-350.67 1600.52,-346.97 1600.37,-353.96"/>
</g>
<!-- Volume::::vol&#45;EcsInstanceAsg -->
<g id="node9" class="node">
<title>Volume::::vol&#45;EcsInstanceAsg</title>
<polygon fill="#e5e5e5" stroke="#dddddd" points="1490,-417 1323,-417 1323,-359 1490,-359 1490,-417"/>
<text text-anchor="start" x="1335.5" y="-397.2" font-family="Helvetica,sans-Serif" font-weight="bold" font-size="16.00" fill="#707070">EC2::Volume</text>
<text text-anchor="start" x="1335.5" y="-372.2" font-family="Helvetica,sans-Serif" font-size="16.00" fill="#383838">vol&#45;EcsInstanceAsg</text>
</g>
<!-- Instance::::EcsInstanceAsg&#45;&gt;Volume::::vol&#45;EcsInstanceAsg -->
<g id="edge9" class="edge">
<title>Instance::::EcsInstanceAsg&#45;&gt;Volume::::vol&#45;EcsInstanceAsg</title>
<path fill="none" stroke="#707070" d="M1158.07,-350.53C1203.51,-357.41 1263.37,-366.48 1312.83,-373.97"/>
<polygon fill="#707070" stroke="#707070" points="1312.48,-377.45 1322.89,-375.49 1313.53,-370.53 1312.48,-377.45"/>
</g>
<!-- Vpc::::Vpc -->
<g id="node10" class="node">
<title>Vpc::::Vpc</title>
<polygon fill="#e5e5e5" stroke="#dddddd" points="2004,-429 1909,-429 1909,-371 2004,-371 2004,-429"/>
<text text-anchor="start" x="1921.5" y="-409.2" font-family="Helvetica,sans-Serif" font-weight="bold" font-size="16.00" fill="#707070">EC2::Vpc</text>
<text text-anchor="start" x="1921.5" y="-384.2" font-family="Helvetica,sans-Serif" font-size="16.00" fill="#383838">Vpc</text>
</g>
<!-- Instance::::EcsInstanceAsg&#45;&gt;Vpc::::Vpc -->
<g id="edge7" class="edge">
<title>Instance::::EcsInstanceAsg&#45;&gt;Vpc::::Vpc</title>
<path fill="none" stroke="#707070" d="M1134.38,-369.08C1169.45,-389.5 1219.81,-415.05 1268,-426 1388.05,-453.27 1425.82,-456.88 1545,-426 1562.72,-421.41 1563.32,-410.73 1581,-406 1639.16,-390.43 1809.11,-394.25 1898.71,-397.55"/>
<polygon fill="#707070" stroke="#707070" points="1898.84,-401.06 1908.96,-397.94 1899.1,-394.06 1898.84,-401.06"/>
</g>
<!-- Instance::::EcsInstanceAsg&#45;&gt;InstanceProfile::::ecsInstanceRole -->
<g id="edge12" class="edge">
<title>Instance::::EcsInstanceAsg&#45;&gt;InstanceProfile::::ecsInstanceRole</title>
<path fill="none" stroke="#707070" d="M1158.11,-326.01C1184.6,-317.42 1212.95,-303.72 1232,-282 1274.08,-234.03 1224.01,-189.23 1268,-143 1278.82,-131.63 1292.6,-123.25 1307.23,-117.08"/>
<polygon fill="#707070" stroke="#707070" points="1308.88,-120.19 1316.95,-113.33 1306.36,-113.66 1308.88,-120.19"/>
</g>
<!-- NetworkInterface::::eni&#45;0631a2dfe0a8b716e -->
<g id="node20" class="node">
<title>NetworkInterface::::eni&#45;0631a2dfe0a8b716e</title>
<polygon fill="#e5e5e5" stroke="#dddddd" points="1506.5,-321 1306.5,-321 1306.5,-263 1506.5,-263 1506.5,-321"/>
<text text-anchor="start" x="1318.5" y="-301.2" font-family="Helvetica,sans-Serif" font-weight="bold" font-size="16.00" fill="#707070">EC2::NetworkInterface</text>
<text text-anchor="start" x="1318.5" y="-276.2" font-family="Helvetica,sans-Serif" font-size="16.00" fill="#383838">eni&#45;0631a2dfe0a8b716e</text>
</g>
<!-- Instance::::EcsInstanceAsg&#45;&gt;NetworkInterface::::eni&#45;0631a2dfe0a8b716e -->
<g id="edge10" class="edge">
<title>Instance::::EcsInstanceAsg&#45;&gt;NetworkInterface::::eni&#45;0631a2dfe0a8b716e</title>
<path fill="none" stroke="#707070" d="M1158.07,-329.47C1198.56,-323.33 1250.51,-315.47 1296.34,-308.53"/>
<polygon fill="#707070" stroke="#707070" points="1296.96,-311.97 1306.33,-307.02 1295.92,-305.05 1296.96,-311.97"/>
</g>
<!-- Instance::::EcsInstanceAsg&#45;&gt;SecurityGroup::::EcsSecurityGroup -->
<g id="edge11" class="edge">
<title>Instance::::EcsInstanceAsg&#45;&gt;SecurityGroup::::EcsSecurityGroup</title>
<path fill="none" stroke="#707070" d="M1158.16,-325.61C1184.5,-316.97 1212.73,-303.34 1232,-282 1270.47,-239.41 1222.11,-192.46 1268,-158 1292.61,-139.52 1515.52,-149.16 1545,-158 1578.27,-167.98 1610.91,-189.49 1635.22,-208.49"/>
<polygon fill="#707070" stroke="#707070" points="1633.13,-211.31 1643.13,-214.82 1637.51,-205.84 1633.13,-211.31"/>
</g>
<!-- InternetGateway::::InternetGateway -->
<g id="node4" class="node">
<title>InternetGateway::::InternetGateway</title>
<polygon fill="#e5e5e5" stroke="#dddddd" points="1772,-573 1581,-573 1581,-515 1772,-515 1772,-573"/>
<text text-anchor="start" x="1593.5" y="-553.2" font-family="Helvetica,sans-Serif" font-weight="bold" font-size="16.00" fill="#707070">EC2::InternetGateway</text>
<text text-anchor="start" x="1593.5" y="-528.2" font-family="Helvetica,sans-Serif" font-size="16.00" fill="#383838">InternetGateway</text>
</g>
<!-- InternetGateway::::InternetGateway&#45;&gt;Vpc::::Vpc -->
<g id="edge13" class="edge">
<title>InternetGateway::::InternetGateway&#45;&gt;Vpc::::Vpc</title>
<path fill="none" stroke="#707070" d="M1752.47,-515C1759.13,-512.08 1765.72,-509.06 1772,-506 1816.37,-484.4 1864.62,-456.33 1900.5,-434.51"/>
<polygon fill="#707070" stroke="#707070" points="1902.64,-437.3 1909.35,-429.1 1898.99,-431.33 1902.64,-437.3"/>
</g>
<!-- Route::::RouteViaIgw&#45;igw -->
<g id="node5" class="node">
<title>Route::::RouteViaIgw&#45;igw</title>
<polygon fill="#e5e5e5" stroke="#dddddd" points="1160,-533 1015,-533 1015,-475 1160,-475 1160,-533"/>
<text text-anchor="start" x="1027.5" y="-513.2" font-family="Helvetica,sans-Serif" font-weight="bold" font-size="16.00" fill="#707070">EC2::Route</text>
<text text-anchor="start" x="1027.5" y="-488.2" font-family="Helvetica,sans-Serif" font-size="16.00" fill="#383838">RouteViaIgw&#45;igw</text>
</g>
<!-- Route::::RouteViaIgw&#45;igw&#45;&gt;InternetGateway::::InternetGateway -->
<g id="edge18" class="edge">
<title>Route::::RouteViaIgw&#45;igw&#45;&gt;InternetGateway::::InternetGateway</title>
<path fill="none" stroke="#707070" d="M1160.02,-522.63C1192.7,-530.24 1232.05,-538.15 1268,-542 1370.47,-552.98 1488.28,-552.11 1570.78,-549.32"/>
<polygon fill="#707070" stroke="#707070" points="1571.04,-552.82 1580.91,-548.97 1570.8,-545.82 1571.04,-552.82"/>
</g>
<!-- RouteTable::::RouteViaIgw -->
<g id="node6" class="node">
<title>RouteTable::::RouteViaIgw</title>
<polygon fill="#e5e5e5" stroke="#dddddd" points="1482,-533 1331,-533 1331,-475 1482,-475 1482,-533"/>
<text text-anchor="start" x="1343.5" y="-513.2" font-family="Helvetica,sans-Serif" font-weight="bold" font-size="16.00" fill="#707070">EC2::RouteTable</text>
<text text-anchor="start" x="1343.5" y="-488.2" font-family="Helvetica,sans-Serif" font-size="16.00" fill="#383838">RouteViaIgw</text>
</g>
<!-- Route::::RouteViaIgw&#45;igw&#45;&gt;RouteTable::::RouteViaIgw -->
<g id="edge17" class="edge">
<title>Route::::RouteViaIgw&#45;igw&#45;&gt;RouteTable::::RouteViaIgw</title>
<path fill="none" stroke="#707070" d="M1160.04,-504C1207.7,-504 1270.56,-504 1320.74,-504"/>
<polygon fill="#707070" stroke="#707070" points="1320.92,-507.5 1330.92,-504 1320.92,-500.5 1320.92,-507.5"/>
</g>
<!-- RouteTable::::RouteViaIgw&#45;&gt;Subnet::::PubSubnetAz1 -->
<g id="edge20" class="edge">
<title>RouteTable::::RouteViaIgw&#45;&gt;Subnet::::PubSubnetAz1</title>
<path fill="none" stroke="#707070" d="M1478.08,-474.85C1499.98,-464.97 1523.9,-453.29 1545,-441 1562.05,-431.06 1564.79,-426.25 1581,-415 1594.41,-405.69 1609.04,-395.81 1622.69,-386.7"/>
<polygon fill="#707070" stroke="#707070" points="1624.65,-389.6 1631.04,-381.15 1620.77,-383.77 1624.65,-389.6"/>
</g>
<!-- RouteTable::::RouteViaIgw&#45;&gt;Subnet::::PubSubnetAz2 -->
<g id="edge21" class="edge">
<title>RouteTable::::RouteViaIgw&#45;&gt;Subnet::::PubSubnetAz2</title>
<path fill="none" stroke="#707070" d="M1482.15,-493.97C1518.96,-489.03 1563.26,-483.08 1600.16,-478.12"/>
<polygon fill="#707070" stroke="#707070" points="1600.91,-481.55 1610.36,-476.75 1599.98,-474.61 1600.91,-481.55"/>
</g>
<!-- RouteTable::::RouteViaIgw&#45;&gt;Vpc::::Vpc -->
<g id="edge19" class="edge">
<title>RouteTable::::RouteViaIgw&#45;&gt;Vpc::::Vpc</title>
<path fill="none" stroke="#707070" d="M1482.21,-486.67C1503.25,-480.2 1525.65,-471.75 1545,-461 1563.46,-450.75 1561.51,-438.13 1581,-430 1609.52,-418.09 1801.11,-407.37 1898.66,-402.61"/>
<polygon fill="#707070" stroke="#707070" points="1898.83,-406.1 1908.65,-402.13 1898.49,-399.11 1898.83,-406.1"/>
</g>
<!-- Subnet::::PubSubnetAz1&#45;&gt;Vpc::::Vpc -->
<g id="edge24" class="edge">
<title>Subnet::::PubSubnetAz1&#45;&gt;Vpc::::Vpc</title>
<path fill="none" stroke="#707070" d="M1742.68,-363.25C1790.12,-371.45 1853.74,-382.43 1899.03,-390.25"/>
<polygon fill="#707070" stroke="#707070" points="1898.52,-393.71 1908.97,-391.97 1899.71,-386.82 1898.52,-393.71"/>
</g>
<!-- Subnet::::PubSubnetAz2&#45;&gt;Vpc::::Vpc -->
<g id="edge25" class="edge">
<title>Subnet::::PubSubnetAz2&#45;&gt;Vpc::::Vpc</title>
<path fill="none" stroke="#707070" d="M1742.68,-452.06C1790.12,-440.45 1853.74,-424.89 1899.03,-413.81"/>
<polygon fill="#707070" stroke="#707070" points="1900.09,-417.16 1908.97,-411.38 1898.43,-410.36 1900.09,-417.16"/>
</g>
<!-- CapacityProvider::::cp -->
<g id="node11" class="node">
<title>CapacityProvider::::cp</title>
<polygon fill="#e5e5e5" stroke="#dddddd" points="602,-417 403,-417 403,-359 602,-359 602,-417"/>
<text text-anchor="start" x="415.5" y="-397.2" font-family="Helvetica,sans-Serif" font-weight="bold" font-size="16.00" fill="#707070">ECS::CapacityProvider</text>
<text text-anchor="start" x="415.5" y="-372.2" font-family="Helvetica,sans-Serif" font-size="16.00" fill="#383838">cp</text>
</g>
<!-- CapacityProvider::::cp&#45;&gt;AutoScalingGroup::::EcsInstanceAsg -->
<g id="edge26" class="edge">
<title>CapacityProvider::::cp&#45;&gt;AutoScalingGroup::::EcsInstanceAsg</title>
<path fill="none" stroke="#707070" d="M602.15,-388C610.52,-388 619.08,-388 627.7,-388"/>
<polygon fill="#707070" stroke="#707070" points="627.84,-391.5 637.84,-388 627.84,-384.5 627.84,-391.5"/>
</g>
<!-- Cluster::::cluster -->
<g id="node12" class="node">
<title>Cluster::::cluster</title>
<polygon fill="#e5e5e5" stroke="#dddddd" points="340,-417 218,-417 218,-359 340,-359 340,-417"/>
<text text-anchor="start" x="230" y="-397.2" font-family="Helvetica,sans-Serif" font-weight="bold" font-size="16.00" fill="#707070">ECS::Cluster</text>
<text text-anchor="start" x="230" y="-372.2" font-family="Helvetica,sans-Serif" font-size="16.00" fill="#383838">cluster</text>
</g>
<!-- Cluster::::cluster&#45;&gt;CapacityProvider::::cp -->
<g id="edge27" class="edge">
<title>Cluster::::cluster&#45;&gt;CapacityProvider::::cp</title>
<path fill="none" stroke="#707070" d="M340.23,-388C356.55,-388 374.74,-388 392.85,-388"/>
<polygon fill="#707070" stroke="#707070" points="392.89,-391.5 402.89,-388 392.89,-384.5 392.89,-391.5"/>
</g>
<!-- Service::::service&#45;nginx -->
<g id="node13" class="node">
<title>Service::::service&#45;nginx</title>
<polygon fill="#e5e5e5" stroke="#dddddd" points="151.5,-455 27.5,-455 27.5,-397 151.5,-397 151.5,-455"/>
<text text-anchor="start" x="39.5" y="-435.2" font-family="Helvetica,sans-Serif" font-weight="bold" font-size="16.00" fill="#707070">ECS::Service</text>
<text text-anchor="start" x="39.5" y="-410.2" font-family="Helvetica,sans-Serif" font-size="16.00" fill="#383838">service&#45;nginx</text>
</g>
<!-- Service::::service&#45;nginx&#45;&gt;Cluster::::cluster -->
<g id="edge28" class="edge">
<title>Service::::service&#45;nginx&#45;&gt;Cluster::::cluster</title>
<path fill="none" stroke="#707070" d="M151.64,-413.61C169.66,-409.96 189.53,-405.93 208.06,-402.17"/>
<polygon fill="#707070" stroke="#707070" points="208.8,-405.6 217.91,-400.18 207.41,-398.73 208.8,-405.6"/>
</g>
<!-- TaskDefinition::::nginx -->
<g id="node14" class="node">
<title>TaskDefinition::::nginx</title>
<polygon fill="#e5e5e5" stroke="#dddddd" points="367,-493 191,-493 191,-435 367,-435 367,-493"/>
<text text-anchor="start" x="203" y="-473.2" font-family="Helvetica,sans-Serif" font-weight="bold" font-size="16.00" fill="#707070">ECS::TaskDefinition</text>
<text text-anchor="start" x="203" y="-448.2" font-family="Helvetica,sans-Serif" font-size="16.00" fill="#383838">nginx</text>
</g>
<!-- Service::::service&#45;nginx&#45;&gt;TaskDefinition::::nginx -->
<g id="edge29" class="edge">
<title>Service::::service&#45;nginx&#45;&gt;TaskDefinition::::nginx</title>
<path fill="none" stroke="#707070" d="M151.64,-438.39C161.01,-440.29 170.89,-442.29 180.81,-444.3"/>
<polygon fill="#707070" stroke="#707070" points="180.25,-447.76 190.74,-446.32 181.64,-440.9 180.25,-447.76"/>
</g>
<!-- Role::::ecsInstanceRole -->
<g id="node17" class="node">
<title>Role::::ecsInstanceRole</title>
<polygon fill="#e5e5e5" stroke="#dddddd" points="1749,-129 1604,-129 1604,-71 1749,-71 1749,-129"/>
<text text-anchor="start" x="1616.5" y="-109.2" font-family="Helvetica,sans-Serif" font-weight="bold" font-size="16.00" fill="#707070">IAM::Role</text>
<text text-anchor="start" x="1616.5" y="-84.2" font-family="Helvetica,sans-Serif" font-size="16.00" fill="#383838">ecsInstanceRole</text>
</g>
<!-- InstanceProfile::::ecsInstanceRole&#45;&gt;Role::::ecsInstanceRole -->
<g id="edge30" class="edge">
<title>InstanceProfile::::ecsInstanceRole&#45;&gt;Role::::ecsInstanceRole</title>
<path fill="none" stroke="#707070" d="M1496.37,-100C1527.72,-100 1562.8,-100 1593.55,-100"/>
<polygon fill="#707070" stroke="#707070" points="1593.8,-103.5 1603.8,-100 1593.8,-96.5 1593.8,-103.5"/>
</g>
<!-- Policy::::service&#45;role/AmazonEC2ContainerServiceforEC2Role -->
<g id="node16" class="node">
<title>Policy::::service&#45;role/AmazonEC2ContainerServiceforEC2Role</title>
<polygon fill="#e5e5e5" stroke="#dddddd" points="2105,-129 1808,-129 1808,-71 2105,-71 2105,-129"/>
<text text-anchor="start" x="1820.5" y="-109.2" font-family="Helvetica,sans-Serif" font-weight="bold" font-size="16.00" fill="#707070">IAM::Policy</text>
<text text-anchor="start" x="1820.5" y="-84.2" font-family="Helvetica,sans-Serif" font-size="16.00" fill="#383838">service&#45;role/AmazonEC2ContainerS...</text>
</g>
<!-- Role::::ecsInstanceRole&#45;&gt;Policy::::service&#45;role/AmazonEC2ContainerServiceforEC2Role -->
<g id="edge31" class="edge">
<title>Role::::ecsInstanceRole&#45;&gt;Policy::::service&#45;role/AmazonEC2ContainerServiceforEC2Role</title>
<path fill="none" stroke="#707070" d="M1749.09,-100C1764.29,-100 1780.9,-100 1797.9,-100"/>
<polygon fill="#707070" stroke="#707070" points="1797.94,-103.5 1807.94,-100 1797.94,-96.5 1797.94,-103.5"/>
</g>
<!-- Key::::eks&#45;key -->
<g id="node18" class="node">
<title>Key::::eks&#45;key</title>
<polygon fill="#e5e5e5" stroke="#dddddd" points="139.5,-338 39.5,-338 39.5,-280 139.5,-280 139.5,-338"/>
<text text-anchor="start" x="51.5" y="-318.2" font-family="Helvetica,sans-Serif" font-weight="bold" font-size="16.00" fill="#707070">KMS::Key</text>
<text text-anchor="start" x="51.5" y="-293.2" font-family="Helvetica,sans-Serif" font-size="16.00" fill="#383838">eks&#45;key</text>
</g>
<!-- Key::::secret&#45;key&#45;test -->
<g id="node19" class="node">
<title>Key::::secret&#45;key&#45;test</title>
<polygon fill="#e5e5e5" stroke="#dddddd" points="155,-180 24,-180 24,-122 155,-122 155,-180"/>
<text text-anchor="start" x="36.5" y="-160.2" font-family="Helvetica,sans-Serif" font-weight="bold" font-size="16.00" fill="#707070">KMS::Key</text>
<text text-anchor="start" x="36.5" y="-135.2" font-family="Helvetica,sans-Serif" font-size="16.00" fill="#383838">secret&#45;key&#45;test</text>
</g>
<!-- NetworkInterface::::eni&#45;0631a2dfe0a8b716e&#45;&gt;Subnet::::PubSubnetAz1 -->
<g id="edge16" class="edge">
<title>NetworkInterface::::eni&#45;0631a2dfe0a8b716e&#45;&gt;Subnet::::PubSubnetAz1</title>
<path fill="none" stroke="#707070" d="M1506.53,-314.17C1537.48,-321.1 1571.1,-328.63 1600.14,-335.13"/>
<polygon fill="#707070" stroke="#707070" points="1599.68,-338.61 1610.21,-337.38 1601.21,-331.78 1599.68,-338.61"/>
</g>
<!-- NetworkInterface::::eni&#45;0631a2dfe0a8b716e&#45;&gt;Vpc::::Vpc -->
<g id="edge15" class="edge">
<title>NetworkInterface::::eni&#45;0631a2dfe0a8b716e&#45;&gt;Vpc::::Vpc</title>
<path fill="none" stroke="#707070" d="M1506.51,-288C1580.71,-287.39 1684.15,-291.63 1772,-314 1816.91,-325.43 1864.19,-347.87 1899.51,-366.96"/>
<polygon fill="#707070" stroke="#707070" points="1898.23,-370.25 1908.68,-371.99 1901.59,-364.11 1898.23,-370.25"/>
</g>
<!-- NetworkInterface::::eni&#45;0631a2dfe0a8b716e&#45;&gt;SecurityGroup::::EcsSecurityGroup -->
<g id="edge14" class="edge">
<title>NetworkInterface::::eni&#45;0631a2dfe0a8b716e&#45;&gt;SecurityGroup::::EcsSecurityGroup</title>
<path fill="none" stroke="#707070" d="M1506.53,-274.26C1529.89,-270.08 1554.76,-265.62 1578.05,-261.45"/>
<polygon fill="#707070" stroke="#707070" points="1578.69,-264.89 1587.92,-259.69 1577.46,-258 1578.69,-264.89"/>
</g>
<!-- SecurityGroup::::EcsSecurityGroup&#45;&gt;Vpc::::Vpc -->
<g id="edge22" class="edge">
<title>SecurityGroup::::EcsSecurityGroup&#45;&gt;Vpc::::Vpc</title>
<path fill="none" stroke="#707070" d="M1734.71,-273.09C1747.07,-279.53 1760.02,-286.41 1772,-293 1815.34,-316.85 1863.64,-345.08 1899.8,-366.56"/>
<polygon fill="#707070" stroke="#707070" points="1898.34,-369.76 1908.72,-371.86 1901.92,-363.74 1898.34,-369.76"/>
</g>
<!-- SecurityGroupRuleIngress::::EcsSecurityGroup&#45;rule&#45;ingress&#45;tcp&#45;80&#45;v4 -->
<g id="node22" class="node">
<title>SecurityGroupRuleIngress::::EcsSecurityGroup&#45;rule&#45;ingress&#45;tcp&#45;80&#45;v4</title>
<polygon fill="#e5e5e5" stroke="#dddddd" points="1545,-225 1268,-225 1268,-167 1545,-167 1545,-225"/>
<text text-anchor="start" x="1280.5" y="-205.2" font-family="Helvetica,sans-Serif" font-weight="bold" font-size="16.00" fill="#707070">EC2::SecurityGroupRuleIngress</text>
<text text-anchor="start" x="1280.5" y="-180.2" font-family="Helvetica,sans-Serif" font-size="16.00" fill="#383838">EcsSecurityGroup&#45;rule&#45;ingress&#45;tc...</text>
</g>
<!-- SecurityGroupRuleIngress::::EcsSecurityGroup&#45;rule&#45;ingress&#45;tcp&#45;80&#45;v4&#45;&gt;SecurityGroup::::EcsSecurityGroup -->
<g id="edge23" class="edge">
<title>SecurityGroupRuleIngress::::EcsSecurityGroup&#45;rule&#45;ingress&#45;tcp&#45;80&#45;v4&#45;&gt;SecurityGroup::::EcsSecurityGroup</title>
<path fill="none" stroke="#707070" d="M1545.03,-220.63C1556.04,-222.6 1567.01,-224.57 1577.66,-226.48"/>
<polygon fill="#707070" stroke="#707070" points="1577.29,-229.97 1587.75,-228.28 1578.53,-223.08 1577.29,-229.97"/>
</g>
</g>
</svg>
