<?xml version="1.0" encoding="UTF-8" standalone="no"?><svg xmlns="http://www.w3.org/2000/svg" xmlns:xlink="http://www.w3.org/1999/xlink" contentStyleType="text/css" height="1019px" preserveAspectRatio="none" style="width:560px;height:1019px;background:#FFFFFF;" version="1.1" viewBox="0 0 560 1019" width="560px" zoomAndPan="magnify"><defs/><g><rect height="26.4883" style="stroke:#00000000;stroke-width:1.0;fill:none;" width="250" x="128.5" y="15"/><text fill="#000000" font-family="sans-serif" font-size="14" font-weight="bold" lengthAdjust="spacing" textLength="240" x="133.5" y="33.5352">Resources for project ecs-simple</text><rect fill="#F1F1F1" height="36.4883" rx="12.5" ry="12.5" style="stroke:#181818;stroke-width:1.5;" width="52" x="10" y="509.3945"/><text fill="#000000" font-family="sans-serif" font-size="14" lengthAdjust="spacing" textLength="32" x="20" y="532.9297">Infra</text><rect fill="#F1F1F1" height="36.4883" rx="12.5" ry="12.5" style="stroke:#181818;stroke-width:1.5;" width="46" x="112" y="509.3945"/><text fill="#000000" font-family="sans-serif" font-size="14" lengthAdjust="spacing" textLength="26" x="122" y="532.9297">aws</text><rect fill="#F1F1F1" height="36.4883" rx="12.5" ry="12.5" style="stroke:#181818;stroke-width:1.5;" width="102" x="208" y="85.7324"/><text fill="#000000" font-family="sans-serif" font-size="14" lengthAdjust="spacing" textLength="82" x="218" y="109.2676">AutoScaling</text><rect fill="#F1F1F1" height="36.4883" rx="12.5" ry="12.5" style="stroke:#181818;stroke-width:1.5;" width="168" x="360" y="57.4883"/><text fill="#000000" font-family="sans-serif" font-size="14" lengthAdjust="spacing" textLength="148" x="370" y="81.0234">AutoScalingGroup (1)</text><path d="M310,103.9766 L320,103.9766 C335,103.9766 335,75.7324 350,75.7324 L360,75.7324 " fill="none" style="stroke:#181818;stroke-width:1.0;"/><rect fill="#F1F1F1" height="36.4883" rx="12.5" ry="12.5" style="stroke:#181818;stroke-width:1.5;" width="188" x="360" y="113.9766"/><text fill="#000000" font-family="sans-serif" font-size="14" lengthAdjust="spacing" textLength="168" x="370" y="137.5117">LaunchConfiguration (1)</text><path d="M310,103.9766 L320,103.9766 C335,103.9766 335,132.2207 350,132.2207 L360,132.2207 " fill="none" style="stroke:#181818;stroke-width:1.0;"/><path d="M158,527.6387 L168,527.6387 C183,527.6387 183,103.9766 198,103.9766 L208,103.9766 " fill="none" style="stroke:#181818;stroke-width:1.0;"/><rect fill="#F1F1F1" height="36.4883" rx="12.5" ry="12.5" style="stroke:#181818;stroke-width:1.5;" width="47" x="208" y="396.418"/><text fill="#000000" font-family="sans-serif" font-size="14" lengthAdjust="spacing" textLength="27" x="218" y="419.9531">EC2</text><rect fill="#F1F1F1" height="36.4883" rx="12.5" ry="12.5" style="stroke:#181818;stroke-width:1.5;" width="68" x="305" y="170.4648"/><text fill="#000000" font-family="sans-serif" font-size="14" lengthAdjust="spacing" textLength="48" x="315" y="194">Vpc (1)</text><path d="M255,414.6621 L265,414.6621 C280,414.6621 280,188.709 295,188.709 L305,188.709 " fill="none" style="stroke:#181818;stroke-width:1.0;"/><rect fill="#F1F1F1" height="36.4883" rx="12.5" ry="12.5" style="stroke:#181818;stroke-width:1.5;" width="154" x="305" y="226.9531"/><text fill="#000000" font-family="sans-serif" font-size="14" lengthAdjust="spacing" textLength="134" x="315" y="250.4883">InternetGateway (1)</text><path d="M255,414.6621 L265,414.6621 C280,414.6621 280,245.1973 295,245.1973 L305,245.1973 " fill="none" style="stroke:#181818;stroke-width:1.0;"/><rect fill="#F1F1F1" height="36.4883" rx="12.5" ry="12.5" style="stroke:#181818;stroke-width:1.5;" width="233" x="305" y="283.4414"/><text fill="#000000" font-family="sans-serif" font-size="14" lengthAdjust="spacing" textLength="213" x="315" y="306.9766">InternetGatewayAttachment (1)</text><path d="M255,414.6621 L265,414.6621 C280,414.6621 280,301.6855 295,301.6855 L305,301.6855 " fill="none" style="stroke:#181818;stroke-width:1.0;"/><rect fill="#F1F1F1" height="36.4883" rx="12.5" ry="12.5" style="stroke:#181818;stroke-width:1.5;" width="91" x="305" y="339.9297"/><text fill="#000000" font-family="sans-serif" font-size="14" lengthAdjust="spacing" textLength="71" x="315" y="363.4648">Subnet (2)</text><path d="M255,414.6621 L265,414.6621 C280,414.6621 280,358.1738 295,358.1738 L305,358.1738 " fill="none" style="stroke:#181818;stroke-width:1.0;"/><rect fill="#F1F1F1" height="36.4883" rx="12.5" ry="12.5" style="stroke:#181818;stroke-width:1.5;" width="121" x="305" y="396.418"/><text fill="#000000" font-family="sans-serif" font-size="14" lengthAdjust="spacing" textLength="101" x="315" y="419.9531">RouteTable (1)</text><path d="M255,414.6621 L265,414.6621 C280,414.6621 280,414.6621 295,414.6621 L305,414.6621 " fill="none" style="stroke:#181818;stroke-width:1.0;"/><rect fill="#F1F1F1" height="36.4883" rx="12.5" ry="12.5" style="stroke:#181818;stroke-width:1.5;" width="200" x="305" y="452.9063"/><text fill="#000000" font-family="sans-serif" font-size="14" lengthAdjust="spacing" textLength="180" x="315" y="476.4414">RouteTableAssociation (2)</text><path d="M255,414.6621 L265,414.6621 C280,414.6621 280,471.1504 295,471.1504 L305,471.1504 " fill="none" style="stroke:#181818;stroke-width:1.0;"/><rect fill="#F1F1F1" height="36.4883" rx="12.5" ry="12.5" style="stroke:#181818;stroke-width:1.5;" width="83" x="305" y="509.3945"/><text fill="#000000" font-family="sans-serif" font-size="14" lengthAdjust="spacing" textLength="63" x="315" y="532.9297">Route (1)</text><path d="M255,414.6621 L265,414.6621 C280,414.6621 280,527.6387 295,527.6387 L305,527.6387 " fill="none" style="stroke:#181818;stroke-width:1.0;"/><rect fill="#F1F1F1" height="36.4883" rx="12.5" ry="12.5" style="stroke:#181818;stroke-width:1.5;" width="140" x="305" y="565.8828"/><text fill="#000000" font-family="sans-serif" font-size="14" lengthAdjust="spacing" textLength="120" x="315" y="589.418">SecurityGroup (1)</text><path d="M255,414.6621 L265,414.6621 C280,414.6621 280,584.127 295,584.127 L305,584.127 " fill="none" style="stroke:#181818;stroke-width:1.0;"/><rect fill="#F1F1F1" height="36.4883" rx="12.5" ry="12.5" style="stroke:#181818;stroke-width:1.5;" width="220" x="305" y="622.3711"/><text fill="#000000" font-family="sans-serif" font-size="14" lengthAdjust="spacing" textLength="200" x="315" y="645.9063">SecurityGroupRuleIngress (1)</text><path d="M255,414.6621 L265,414.6621 C280,414.6621 280,640.6152 295,640.6152 L305,640.6152 " fill="none" style="stroke:#181818;stroke-width:1.0;"/><path d="M158,527.6387 L168,527.6387 C183,527.6387 183,414.6621 198,414.6621 L208,414.6621 " fill="none" style="stroke:#181818;stroke-width:1.0;"/><rect fill="#F1F1F1" height="36.4883" rx="12.5" ry="12.5" style="stroke:#181818;stroke-width:1.5;" width="46" x="208" y="763.5918"/><text fill="#000000" font-family="sans-serif" font-size="14" lengthAdjust="spacing" textLength="26" x="218" y="787.127">ECS</text><rect fill="#F1F1F1" height="36.4883" rx="12.5" ry="12.5" style="stroke:#181818;stroke-width:1.5;" width="158" x="304" y="678.8594"/><text fill="#000000" font-family="sans-serif" font-size="14" lengthAdjust="spacing" textLength="138" x="314" y="702.3945">CapacityProvider (1)</text><path d="M254,781.8359 L264,781.8359 C279,781.8359 279,697.1035 294,697.1035 L304,697.1035 " fill="none" style="stroke:#181818;stroke-width:1.0;"/><rect fill="#F1F1F1" height="36.4883" rx="12.5" ry="12.5" style="stroke:#181818;stroke-width:1.5;" width="92" x="304" y="735.3477"/><text fill="#000000" font-family="sans-serif" font-size="14" lengthAdjust="spacing" textLength="72" x="314" y="758.8828">Cluster (1)</text><path d="M254,781.8359 L264,781.8359 C279,781.8359 279,753.5918 294,753.5918 L304,753.5918 " fill="none" style="stroke:#181818;stroke-width:1.0;"/><rect fill="#F1F1F1" height="36.4883" rx="12.5" ry="12.5" style="stroke:#181818;stroke-width:1.5;" width="142" x="304" y="791.8359"/><text fill="#000000" font-family="sans-serif" font-size="14" lengthAdjust="spacing" textLength="122" x="314" y="815.3711">TaskDefinition (1)</text><path d="M254,781.8359 L264,781.8359 C279,781.8359 279,810.0801 294,810.0801 L304,810.0801 " fill="none" style="stroke:#181818;stroke-width:1.0;"/><rect fill="#F1F1F1" height="36.4883" rx="12.5" ry="12.5" style="stroke:#181818;stroke-width:1.5;" width="91" x="304" y="848.3242"/><text fill="#000000" font-family="sans-serif" font-size="14" lengthAdjust="spacing" textLength="71" x="314" y="871.8594">Service (1)</text><path d="M254,781.8359 L264,781.8359 C279,781.8359 279,866.5684 294,866.5684 L304,866.5684 " fill="none" style="stroke:#181818;stroke-width:1.0;"/><path d="M158,527.6387 L168,527.6387 C183,527.6387 183,781.8359 198,781.8359 L208,781.8359 " fill="none" style="stroke:#181818;stroke-width:1.0;"/><rect fill="#F1F1F1" height="36.4883" rx="12.5" ry="12.5" style="stroke:#181818;stroke-width:1.5;" width="46" x="208" y="933.0566"/><text fill="#000000" font-family="sans-serif" font-size="14" lengthAdjust="spacing" textLength="26" x="218" y="956.5918">IAM</text><rect fill="#F1F1F1" height="36.4883" rx="12.5" ry="12.5" style="stroke:#181818;stroke-width:1.5;" width="73" x="304" y="904.8125"/><text fill="#000000" font-family="sans-serif" font-size="14" lengthAdjust="spacing" textLength="53" x="314" y="928.3477">Role (1)</text><path d="M254,951.3008 L264,951.3008 C279,951.3008 279,923.0566 294,923.0566 L304,923.0566 " fill="none" style="stroke:#181818;stroke-width:1.0;"/><rect fill="#F1F1F1" height="36.4883" rx="12.5" ry="12.5" style="stroke:#181818;stroke-width:1.5;" width="144" x="304" y="961.3008"/><text fill="#000000" font-family="sans-serif" font-size="14" lengthAdjust="spacing" textLength="124" x="314" y="984.8359">InstanceProfile (1)</text><path d="M254,951.3008 L264,951.3008 C279,951.3008 279,979.5449 294,979.5449 L304,979.5449 " fill="none" style="stroke:#181818;stroke-width:1.0;"/><path d="M158,527.6387 L168,527.6387 C183,527.6387 183,951.3008 198,951.3008 L208,951.3008 " fill="none" style="stroke:#181818;stroke-width:1.0;"/><path d="M62,527.6387 L72,527.6387 C87,527.6387 87,527.6387 102,527.6387 L112,527.6387 " fill="none" style="stroke:#181818;stroke-width:1.0;"/><!--MD5=[0a39464961a525f2068754be75be14db]
@startmindmap
title Resources for project ecs-simple
skinparam monochrome true
+ Infra
++ aws
+++ AutoScaling
++++ AutoScalingGroup (1)
++++ LaunchConfiguration (1)
+++ EC2
++++ Vpc (1)
++++ InternetGateway (1)
++++ InternetGatewayAttachment (1)
++++ Subnet (2)
++++ RouteTable (1)
++++ RouteTableAssociation (2)
++++ Route (1)
++++ SecurityGroup (1)
++++ SecurityGroupRuleIngress (1)
+++ ECS
++++ CapacityProvider (1)
++++ Cluster (1)
++++ TaskDefinition (1)
++++ Service (1)
+++ IAM
++++ Role (1)
++++ InstanceProfile (1)
@endmindmap

PlantUML version 1.2022.6(Tue Jun 21 14:34:49 BRT 2022)
(GPL source distribution)
Java Runtime: Java(TM) SE Runtime Environment
JVM: Java HotSpot(TM) 64-Bit Server VM
Default Encoding: UTF-8
Language: en
Country: GB
--></g></svg>