<?xml version="1.0" encoding="UTF-8" standalone="no"?>
<!DOCTYPE svg PUBLIC "-//W3C//DTD SVG 1.1//EN"
 "http://www.w3.org/Graphics/SVG/1.1/DTD/svg11.dtd">
<!-- Generated by graphviz version 7.1.0 (20230121.1956)
 -->
<!-- Title: graphname Pages: 1 -->
<svg width="939pt" height="693pt"
 viewBox="0.00 0.00 939.00 693.00" xmlns="http://www.w3.org/2000/svg" xmlns:xlink="http://www.w3.org/1999/xlink">
<g id="graph0" class="graph" transform="scale(1 1) rotate(0) translate(4 689)">
<title>graphname</title>
<polygon fill="#fafafa" stroke="none" points="-4,4 -4,-689 935,-689 935,4 -4,4"/>
<text text-anchor="start" x="168.5" y="-660.4" font-family="Helvetica,sans-Serif" font-weight="bold" font-size="22.00" fill="#383838">Project lambda&#45;vpc&#45;interface&#45;endpoints&#45;secrets&#45;manager</text>
<text text-anchor="start" x="462" y="-644.8" font-family="Helvetica,sans-Serif" font-size="14.00"> &#160;</text>
<text text-anchor="start" x="168.5" y="-623.2" font-family="Helvetica,sans-Serif" font-weight="bold" font-size="16.00" fill="#707070">Target Diagram</text>
<g id="clust1" class="cluster">
<title>cluster_aws</title>
<polygon fill="#f5f5f5" stroke="#f5f5f5" points="8,-8 8,-601 923,-601 923,-8 8,-8"/>
<text text-anchor="start" x="403.5" y="-23" font-family="Helvetica,sans-Serif" font-weight="bold" font-size="20.00" fill="#707070">Provider aws</text>
</g>
<g id="clust2" class="cluster">
<title>cluster_aws_</title>
<polygon fill="#eeeeee" stroke="#eeeeee" points="16,-54 16,-593 915,-593 915,-54 16,-54"/>
<text text-anchor="start" x="465.36" y="-58.3" font-family="Helvetica,sans-Serif" font-size="1.00" fill="#383838"> </text>
</g>
<!-- Vpc::PrivateLambdaVPC -->
<g id="node1" class="node">
<title>Vpc::PrivateLambdaVPC</title>
<polygon fill="#e5e5e5" stroke="#dddddd" points="907,-319 741,-319 741,-261 907,-261 907,-319"/>
<text text-anchor="start" x="753" y="-299.2" font-family="Helvetica,sans-Serif" font-weight="bold" font-size="16.00" fill="#707070">EC2::Vpc</text>
<text text-anchor="start" x="753" y="-274.2" font-family="Helvetica,sans-Serif" font-size="16.00" fill="#383838">PrivateLambdaVPC</text>
</g>
<!-- Subnet::PrivateLambdaVPC::AwsLambdaPrivSubnetStack/PrivateLambdaVPC/IsolatedSubnet1 -->
<g id="node2" class="node">
<title>Subnet::PrivateLambdaVPC::AwsLambdaPrivSubnetStack/PrivateLambdaVPC/IsolatedSubnet1</title>
<polygon fill="#e5e5e5" stroke="#dddddd" points="703.5,-357 388.5,-357 388.5,-299 703.5,-299 703.5,-357"/>
<text text-anchor="start" x="401" y="-337.2" font-family="Helvetica,sans-Serif" font-weight="bold" font-size="16.00" fill="#707070">EC2::Subnet</text>
<text text-anchor="start" x="401" y="-312.2" font-family="Helvetica,sans-Serif" font-size="16.00" fill="#383838">PrivateLambdaVPC::AwsLambdaPrivS...</text>
</g>
<!-- Subnet::PrivateLambdaVPC::AwsLambdaPrivSubnetStack/PrivateLambdaVPC/IsolatedSubnet1&#45;&gt;Vpc::PrivateLambdaVPC -->
<g id="edge1" class="edge">
<title>Subnet::PrivateLambdaVPC::AwsLambdaPrivSubnetStack/PrivateLambdaVPC/IsolatedSubnet1&#45;&gt;Vpc::PrivateLambdaVPC</title>
<path fill="none" stroke="#707070" d="M703.95,-306.39C712.63,-305.2 721.2,-304.02 729.53,-302.87"/>
<polygon fill="#707070" stroke="#707070" points="729.81,-306.36 739.23,-301.53 728.85,-299.43 729.81,-306.36"/>
</g>
<!-- Subnet::PrivateLambdaVPC::AwsLambdaPrivSubnetStack/PrivateLambdaVPC/IsolatedSubnet2 -->
<g id="node3" class="node">
<title>Subnet::PrivateLambdaVPC::AwsLambdaPrivSubnetStack/PrivateLambdaVPC/IsolatedSubnet2</title>
<polygon fill="#e5e5e5" stroke="#dddddd" points="703.5,-281 388.5,-281 388.5,-223 703.5,-223 703.5,-281"/>
<text text-anchor="start" x="401" y="-261.2" font-family="Helvetica,sans-Serif" font-weight="bold" font-size="16.00" fill="#707070">EC2::Subnet</text>
<text text-anchor="start" x="401" y="-236.2" font-family="Helvetica,sans-Serif" font-size="16.00" fill="#383838">PrivateLambdaVPC::AwsLambdaPrivS...</text>
</g>
<!-- Subnet::PrivateLambdaVPC::AwsLambdaPrivSubnetStack/PrivateLambdaVPC/IsolatedSubnet2&#45;&gt;Vpc::PrivateLambdaVPC -->
<g id="edge2" class="edge">
<title>Subnet::PrivateLambdaVPC::AwsLambdaPrivSubnetStack/PrivateLambdaVPC/IsolatedSubnet2&#45;&gt;Vpc::PrivateLambdaVPC</title>
<path fill="none" stroke="#707070" d="M703.95,-273.61C712.63,-274.8 721.2,-275.98 729.53,-277.13"/>
<polygon fill="#707070" stroke="#707070" points="728.85,-280.57 739.23,-278.47 729.81,-273.64 728.85,-280.57"/>
</g>
<!-- RouteTable::PrivateLambdaVPC::AwsLambdaPrivSubnetStack/PrivateLambdaVPC/IsolatedSubnet1 -->
<g id="node4" class="node">
<title>RouteTable::PrivateLambdaVPC::AwsLambdaPrivSubnetStack/PrivateLambdaVPC/IsolatedSubnet1</title>
<polygon fill="#e5e5e5" stroke="#dddddd" points="703.5,-205 388.5,-205 388.5,-147 703.5,-147 703.5,-205"/>
<text text-anchor="start" x="401" y="-185.2" font-family="Helvetica,sans-Serif" font-weight="bold" font-size="16.00" fill="#707070">EC2::RouteTable</text>
<text text-anchor="start" x="401" y="-160.2" font-family="Helvetica,sans-Serif" font-size="16.00" fill="#383838">PrivateLambdaVPC::AwsLambdaPrivS...</text>
</g>
<!-- RouteTable::PrivateLambdaVPC::AwsLambdaPrivSubnetStack/PrivateLambdaVPC/IsolatedSubnet1&#45;&gt;Vpc::PrivateLambdaVPC -->
<g id="edge3" class="edge">
<title>RouteTable::PrivateLambdaVPC::AwsLambdaPrivSubnetStack/PrivateLambdaVPC/IsolatedSubnet1&#45;&gt;Vpc::PrivateLambdaVPC</title>
<path fill="none" stroke="#707070" d="M682.87,-205.49C690.44,-208.12 697.87,-210.95 705,-214 729.58,-224.51 754.76,-239.97 775.51,-254.2"/>
<polygon fill="#707070" stroke="#707070" points="773.28,-256.91 783.48,-259.77 777.29,-251.17 773.28,-256.91"/>
</g>
<!-- RouteTable::PrivateLambdaVPC::AwsLambdaPrivSubnetStack/PrivateLambdaVPC/IsolatedSubnet2 -->
<g id="node5" class="node">
<title>RouteTable::PrivateLambdaVPC::AwsLambdaPrivSubnetStack/PrivateLambdaVPC/IsolatedSubnet2</title>
<polygon fill="#e5e5e5" stroke="#dddddd" points="703.5,-129 388.5,-129 388.5,-71 703.5,-71 703.5,-129"/>
<text text-anchor="start" x="401" y="-109.2" font-family="Helvetica,sans-Serif" font-weight="bold" font-size="16.00" fill="#707070">EC2::RouteTable</text>
<text text-anchor="start" x="401" y="-84.2" font-family="Helvetica,sans-Serif" font-size="16.00" fill="#383838">PrivateLambdaVPC::AwsLambdaPrivS...</text>
</g>
<!-- RouteTable::PrivateLambdaVPC::AwsLambdaPrivSubnetStack/PrivateLambdaVPC/IsolatedSubnet2&#45;&gt;Vpc::PrivateLambdaVPC -->
<g id="edge4" class="edge">
<title>RouteTable::PrivateLambdaVPC::AwsLambdaPrivSubnetStack/PrivateLambdaVPC/IsolatedSubnet2&#45;&gt;Vpc::PrivateLambdaVPC</title>
<path fill="none" stroke="#707070" d="M689.79,-129.34C695.05,-131.98 700.14,-134.86 705,-138 748.55,-166.12 782.66,-216 802.78,-250.93"/>
<polygon fill="#707070" stroke="#707070" points="799.63,-252.47 807.58,-259.48 805.73,-249.05 799.63,-252.47"/>
</g>
<!-- RouteTableAssociation::rt&#45;assoc::PrivateLambdaVPC::AwsLambdaPrivSubnetStack/PrivateLambdaVPC/IsolatedSubnet1::PrivateLambdaVPC::AwsLambdaPrivSubnetStack/PrivateLambdaVPC/IsolatedSubnet1 -->
<g id="node6" class="node">
<title>RouteTableAssociation::rt&#45;assoc::PrivateLambdaVPC::AwsLambdaPrivSubnetStack/PrivateLambdaVPC/IsolatedSubnet1::PrivateLambdaVPC::AwsLambdaPrivSubnetStack/PrivateLambdaVPC/IsolatedSubnet1</title>
<polygon fill="#e5e5e5" stroke="#dddddd" points="334.5,-281 40.5,-281 40.5,-223 334.5,-223 334.5,-281"/>
<text text-anchor="start" x="52.5" y="-261.2" font-family="Helvetica,sans-Serif" font-weight="bold" font-size="16.00" fill="#707070">EC2::RouteTableAssociation</text>
<text text-anchor="start" x="52.5" y="-236.2" font-family="Helvetica,sans-Serif" font-size="16.00" fill="#383838">rt&#45;assoc::PrivateLambdaVPC::AwsL...</text>
</g>
<!-- RouteTableAssociation::rt&#45;assoc::PrivateLambdaVPC::AwsLambdaPrivSubnetStack/PrivateLambdaVPC/IsolatedSubnet1::PrivateLambdaVPC::AwsLambdaPrivSubnetStack/PrivateLambdaVPC/IsolatedSubnet1&#45;&gt;Subnet::PrivateLambdaVPC::AwsLambdaPrivSubnetStack/PrivateLambdaVPC/IsolatedSubnet1 -->
<g id="edge6" class="edge">
<title>RouteTableAssociation::rt&#45;assoc::PrivateLambdaVPC::AwsLambdaPrivSubnetStack/PrivateLambdaVPC/IsolatedSubnet1::PrivateLambdaVPC::AwsLambdaPrivSubnetStack/PrivateLambdaVPC/IsolatedSubnet1&#45;&gt;Subnet::PrivateLambdaVPC::AwsLambdaPrivSubnetStack/PrivateLambdaVPC/IsolatedSubnet1</title>
<path fill="none" stroke="#707070" d="M326.84,-281.49C349.38,-286.3 372.82,-291.29 395.61,-296.15"/>
<polygon fill="#707070" stroke="#707070" points="394.75,-299.55 405.26,-298.21 396.2,-292.7 394.75,-299.55"/>
</g>
<!-- RouteTableAssociation::rt&#45;assoc::PrivateLambdaVPC::AwsLambdaPrivSubnetStack/PrivateLambdaVPC/IsolatedSubnet1::PrivateLambdaVPC::AwsLambdaPrivSubnetStack/PrivateLambdaVPC/IsolatedSubnet1&#45;&gt;RouteTable::PrivateLambdaVPC::AwsLambdaPrivSubnetStack/PrivateLambdaVPC/IsolatedSubnet1 -->
<g id="edge5" class="edge">
<title>RouteTableAssociation::rt&#45;assoc::PrivateLambdaVPC::AwsLambdaPrivSubnetStack/PrivateLambdaVPC/IsolatedSubnet1::PrivateLambdaVPC::AwsLambdaPrivSubnetStack/PrivateLambdaVPC/IsolatedSubnet1&#45;&gt;RouteTable::PrivateLambdaVPC::AwsLambdaPrivSubnetStack/PrivateLambdaVPC/IsolatedSubnet1</title>
<path fill="none" stroke="#707070" d="M326.84,-222.51C349.38,-217.7 372.82,-212.71 395.61,-207.85"/>
<polygon fill="#707070" stroke="#707070" points="396.2,-211.3 405.26,-205.79 394.75,-204.45 396.2,-211.3"/>
</g>
<!-- RouteTableAssociation::rt&#45;assoc::PrivateLambdaVPC::AwsLambdaPrivSubnetStack/PrivateLambdaVPC/IsolatedSubnet2::PrivateLambdaVPC::AwsLambdaPrivSubnetStack/PrivateLambdaVPC/IsolatedSubnet2 -->
<g id="node7" class="node">
<title>RouteTableAssociation::rt&#45;assoc::PrivateLambdaVPC::AwsLambdaPrivSubnetStack/PrivateLambdaVPC/IsolatedSubnet2::PrivateLambdaVPC::AwsLambdaPrivSubnetStack/PrivateLambdaVPC/IsolatedSubnet2</title>
<polygon fill="#e5e5e5" stroke="#dddddd" points="334.5,-205 40.5,-205 40.5,-147 334.5,-147 334.5,-205"/>
<text text-anchor="start" x="52.5" y="-185.2" font-family="Helvetica,sans-Serif" font-weight="bold" font-size="16.00" fill="#707070">EC2::RouteTableAssociation</text>
<text text-anchor="start" x="52.5" y="-160.2" font-family="Helvetica,sans-Serif" font-size="16.00" fill="#383838">rt&#45;assoc::PrivateLambdaVPC::AwsL...</text>
</g>
<!-- RouteTableAssociation::rt&#45;assoc::PrivateLambdaVPC::AwsLambdaPrivSubnetStack/PrivateLambdaVPC/IsolatedSubnet2::PrivateLambdaVPC::AwsLambdaPrivSubnetStack/PrivateLambdaVPC/IsolatedSubnet2&#45;&gt;Subnet::PrivateLambdaVPC::AwsLambdaPrivSubnetStack/PrivateLambdaVPC/IsolatedSubnet2 -->
<g id="edge8" class="edge">
<title>RouteTableAssociation::rt&#45;assoc::PrivateLambdaVPC::AwsLambdaPrivSubnetStack/PrivateLambdaVPC/IsolatedSubnet2::PrivateLambdaVPC::AwsLambdaPrivSubnetStack/PrivateLambdaVPC/IsolatedSubnet2&#45;&gt;Subnet::PrivateLambdaVPC::AwsLambdaPrivSubnetStack/PrivateLambdaVPC/IsolatedSubnet2</title>
<path fill="none" stroke="#707070" d="M326.84,-205.49C349.38,-210.3 372.82,-215.29 395.61,-220.15"/>
<polygon fill="#707070" stroke="#707070" points="394.75,-223.55 405.26,-222.21 396.2,-216.7 394.75,-223.55"/>
</g>
<!-- RouteTableAssociation::rt&#45;assoc::PrivateLambdaVPC::AwsLambdaPrivSubnetStack/PrivateLambdaVPC/IsolatedSubnet2::PrivateLambdaVPC::AwsLambdaPrivSubnetStack/PrivateLambdaVPC/IsolatedSubnet2&#45;&gt;RouteTable::PrivateLambdaVPC::AwsLambdaPrivSubnetStack/PrivateLambdaVPC/IsolatedSubnet2 -->
<g id="edge7" class="edge">
<title>RouteTableAssociation::rt&#45;assoc::PrivateLambdaVPC::AwsLambdaPrivSubnetStack/PrivateLambdaVPC/IsolatedSubnet2::PrivateLambdaVPC::AwsLambdaPrivSubnetStack/PrivateLambdaVPC/IsolatedSubnet2&#45;&gt;RouteTable::PrivateLambdaVPC::AwsLambdaPrivSubnetStack/PrivateLambdaVPC/IsolatedSubnet2</title>
<path fill="none" stroke="#707070" d="M326.84,-146.51C349.38,-141.7 372.82,-136.71 395.61,-131.85"/>
<polygon fill="#707070" stroke="#707070" points="396.2,-135.3 405.26,-129.79 394.75,-128.45 396.2,-135.3"/>
</g>
<!-- SecurityGroup::sg::PrivateLambdaVPC::PrivateLambdaSG -->
<g id="node8" class="node">
<title>SecurityGroup::sg::PrivateLambdaVPC::PrivateLambdaSG</title>
<polygon fill="#e5e5e5" stroke="#dddddd" points="694,-529 398,-529 398,-471 694,-471 694,-529"/>
<text text-anchor="start" x="410" y="-509.2" font-family="Helvetica,sans-Serif" font-weight="bold" font-size="16.00" fill="#707070">EC2::SecurityGroup</text>
<text text-anchor="start" x="410" y="-484.2" font-family="Helvetica,sans-Serif" font-size="16.00" fill="#383838">sg::PrivateLambdaVPC::PrivateLam...</text>
</g>
<!-- SecurityGroup::sg::PrivateLambdaVPC::PrivateLambdaSG&#45;&gt;Vpc::PrivateLambdaVPC -->
<g id="edge9" class="edge">
<title>SecurityGroup::sg::PrivateLambdaVPC::PrivateLambdaSG&#45;&gt;Vpc::PrivateLambdaVPC</title>
<path fill="none" stroke="#707070" d="M690.79,-470.61C695.71,-467.98 700.47,-465.12 705,-462 753.09,-428.9 787.41,-369.28 806.23,-329.66"/>
<polygon fill="#707070" stroke="#707070" points="809.36,-331.23 810.38,-320.68 803.01,-328.29 809.36,-331.23"/>
</g>
<!-- SecurityGroupRuleIngress::sg::PrivateLambdaVPC::PrivateLambdaSG&#45;rule&#45;ingress&#45;all -->
<g id="node9" class="node">
<title>SecurityGroupRuleIngress::sg::PrivateLambdaVPC::PrivateLambdaSG&#45;rule&#45;ingress&#45;all</title>
<polygon fill="#e5e5e5" stroke="#dddddd" points="335.5,-509 39.5,-509 39.5,-451 335.5,-451 335.5,-509"/>
<text text-anchor="start" x="51.5" y="-489.2" font-family="Helvetica,sans-Serif" font-weight="bold" font-size="16.00" fill="#707070">EC2::SecurityGroupRuleIngress</text>
<text text-anchor="start" x="51.5" y="-464.2" font-family="Helvetica,sans-Serif" font-size="16.00" fill="#383838">sg::PrivateLambdaVPC::PrivateLam...</text>
</g>
<!-- SecurityGroupRuleIngress::sg::PrivateLambdaVPC::PrivateLambdaSG&#45;rule&#45;ingress&#45;all&#45;&gt;SecurityGroup::sg::PrivateLambdaVPC::PrivateLambdaSG -->
<g id="edge10" class="edge">
<title>SecurityGroupRuleIngress::sg::PrivateLambdaVPC::PrivateLambdaSG&#45;rule&#45;ingress&#45;all&#45;&gt;SecurityGroup::sg::PrivateLambdaVPC::PrivateLambdaSG</title>
<path fill="none" stroke="#707070" d="M335.82,-481.61C352.56,-482.45 369.68,-483.39 386.57,-484.4"/>
<polygon fill="#707070" stroke="#707070" points="385.91,-487.87 396.11,-484.98 386.34,-480.88 385.91,-487.87"/>
</g>
<!-- SecurityGroupRuleIngress::sg::PrivateLambdaVPC::PrivateLambdaSG&#45;rule&#45;ingress&#45;all&#45;&gt;SecurityGroup::sg::PrivateLambdaVPC::PrivateLambdaSG -->
<g id="edge11" class="edge">
<title>SecurityGroupRuleIngress::sg::PrivateLambdaVPC::PrivateLambdaSG&#45;rule&#45;ingress&#45;all&#45;&gt;SecurityGroup::sg::PrivateLambdaVPC::PrivateLambdaSG</title>
<path fill="none" stroke="#707070" d="M335.82,-494.92C352.56,-495.96 369.68,-496.94 386.57,-497.82"/>
<polygon fill="#707070" stroke="#707070" points="385.94,-501.3 396.11,-498.31 386.3,-494.31 385.94,-501.3"/>
</g>
<!-- SecurityGroupRuleIngress::sg::PrivateLambdaVPC::PrivateLambdaSG&#45;rule&#45;ingress&#45;tcp&#45;443 -->
<g id="node10" class="node">
<title>SecurityGroupRuleIngress::sg::PrivateLambdaVPC::PrivateLambdaSG&#45;rule&#45;ingress&#45;tcp&#45;443</title>
<polygon fill="#e5e5e5" stroke="#dddddd" points="335.5,-585 39.5,-585 39.5,-527 335.5,-527 335.5,-585"/>
<text text-anchor="start" x="51.5" y="-565.2" font-family="Helvetica,sans-Serif" font-weight="bold" font-size="16.00" fill="#707070">EC2::SecurityGroupRuleIngress</text>
<text text-anchor="start" x="51.5" y="-540.2" font-family="Helvetica,sans-Serif" font-size="16.00" fill="#383838">sg::PrivateLambdaVPC::PrivateLam...</text>
</g>
<!-- SecurityGroupRuleIngress::sg::PrivateLambdaVPC::PrivateLambdaSG&#45;rule&#45;ingress&#45;tcp&#45;443&#45;&gt;SecurityGroup::sg::PrivateLambdaVPC::PrivateLambdaSG -->
<g id="edge12" class="edge">
<title>SecurityGroupRuleIngress::sg::PrivateLambdaVPC::PrivateLambdaSG&#45;rule&#45;ingress&#45;tcp&#45;443&#45;&gt;SecurityGroup::sg::PrivateLambdaVPC::PrivateLambdaSG</title>
<path fill="none" stroke="#707070" d="M335.82,-532.86C352.56,-530.23 369.68,-527.54 386.57,-524.89"/>
<polygon fill="#707070" stroke="#707070" points="386.79,-528.4 396.12,-523.39 385.7,-521.48 386.79,-528.4"/>
</g>
<!-- VpcEndpoint::PrivateLambdaVPC::com.amazonaws.us&#45;east&#45;1.secretsmanager -->
<g id="node11" class="node">
<title>VpcEndpoint::PrivateLambdaVPC::com.amazonaws.us&#45;east&#45;1.secretsmanager</title>
<polygon fill="#e5e5e5" stroke="#dddddd" points="344.5,-357 30.5,-357 30.5,-299 344.5,-299 344.5,-357"/>
<text text-anchor="start" x="42.5" y="-337.2" font-family="Helvetica,sans-Serif" font-weight="bold" font-size="16.00" fill="#707070">EC2::VpcEndpoint</text>
<text text-anchor="start" x="42.5" y="-312.2" font-family="Helvetica,sans-Serif" font-size="16.00" fill="#383838">PrivateLambdaVPC::com.amazonaws....</text>
</g>
<!-- VpcEndpoint::PrivateLambdaVPC::com.amazonaws.us&#45;east&#45;1.secretsmanager&#45;&gt;Vpc::PrivateLambdaVPC -->
<g id="edge13" class="edge">
<title>VpcEndpoint::PrivateLambdaVPC::com.amazonaws.us&#45;east&#45;1.secretsmanager&#45;&gt;Vpc::PrivateLambdaVPC</title>
<path fill="none" stroke="#707070" d="M324.15,-357.49C345.1,-361.02 366.57,-364.06 387,-366 457.35,-372.67 637.21,-385.94 705,-366 732.08,-358.03 758.82,-341.71 779.98,-326.23"/>
<polygon fill="#707070" stroke="#707070" points="781.9,-329.16 787.78,-320.35 777.69,-323.57 781.9,-329.16"/>
</g>
<!-- VpcEndpoint::PrivateLambdaVPC::com.amazonaws.us&#45;east&#45;1.secretsmanager&#45;&gt;Subnet::PrivateLambdaVPC::AwsLambdaPrivSubnetStack/PrivateLambdaVPC/IsolatedSubnet1 -->
<g id="edge14" class="edge">
<title>VpcEndpoint::PrivateLambdaVPC::com.amazonaws.us&#45;east&#45;1.secretsmanager&#45;&gt;Subnet::PrivateLambdaVPC::AwsLambdaPrivSubnetStack/PrivateLambdaVPC/IsolatedSubnet1</title>
<path fill="none" stroke="#707070" d="M344.87,-328C355.56,-328 366.36,-328 377.1,-328"/>
<polygon fill="#707070" stroke="#707070" points="376.77,-331.5 386.77,-328 376.77,-324.5 376.77,-331.5"/>
</g>
<!-- VpcEndpoint::PrivateLambdaVPC::com.amazonaws.us&#45;east&#45;1.secretsmanager&#45;&gt;Subnet::PrivateLambdaVPC::AwsLambdaPrivSubnetStack/PrivateLambdaVPC/IsolatedSubnet2 -->
<g id="edge15" class="edge">
<title>VpcEndpoint::PrivateLambdaVPC::com.amazonaws.us&#45;east&#45;1.secretsmanager&#45;&gt;Subnet::PrivateLambdaVPC::AwsLambdaPrivSubnetStack/PrivateLambdaVPC/IsolatedSubnet2</title>
<path fill="none" stroke="#707070" d="M326.84,-298.51C349.38,-293.7 372.82,-288.71 395.61,-283.85"/>
<polygon fill="#707070" stroke="#707070" points="396.2,-287.3 405.26,-281.79 394.75,-280.45 396.2,-287.3"/>
</g>
<!-- VpcEndpoint::PrivateLambdaVPC::com.amazonaws.us&#45;east&#45;1.secretsmanager&#45;&gt;SecurityGroup::sg::PrivateLambdaVPC::PrivateLambdaSG -->
<g id="edge16" class="edge">
<title>VpcEndpoint::PrivateLambdaVPC::com.amazonaws.us&#45;east&#45;1.secretsmanager&#45;&gt;SecurityGroup::sg::PrivateLambdaVPC::PrivateLambdaSG</title>
<path fill="none" stroke="#707070" d="M339.63,-357.26C343.61,-359.94 347.41,-362.84 351,-366 385.23,-396.08 352.86,-431.82 387,-462 387.65,-462.58 388.32,-463.15 388.98,-463.71"/>
<polygon fill="#707070" stroke="#707070" points="386.74,-466.4 396.83,-469.64 390.96,-460.82 386.74,-466.4"/>
</g>
<!-- Role::AwsLambdaPrivSubnetStack&#45;LambdaFunctionPrivateServ&#45;1PJW75N0R82N7 -->
<g id="node12" class="node">
<title>Role::AwsLambdaPrivSubnetStack&#45;LambdaFunctionPrivateServ&#45;1PJW75N0R82N7</title>
<polygon fill="#e5e5e5" stroke="#dddddd" points="705,-453 387,-453 387,-395 705,-395 705,-453"/>
<text text-anchor="start" x="399" y="-433.2" font-family="Helvetica,sans-Serif" font-weight="bold" font-size="16.00" fill="#707070">IAM::Role</text>
<text text-anchor="start" x="399" y="-408.2" font-family="Helvetica,sans-Serif" font-size="16.00" fill="#383838">AwsLambdaPrivSubnetStack&#45;LambdaF...</text>
</g>
<!-- Function::LambdaFunctionPrivate -->
<g id="node13" class="node">
<title>Function::LambdaFunctionPrivate</title>
<polygon fill="#e5e5e5" stroke="#dddddd" points="285.5,-433 89.5,-433 89.5,-375 285.5,-375 285.5,-433"/>
<text text-anchor="start" x="101.5" y="-413.2" font-family="Helvetica,sans-Serif" font-weight="bold" font-size="16.00" fill="#707070">Lambda::Function</text>
<text text-anchor="start" x="101.5" y="-388.2" font-family="Helvetica,sans-Serif" font-size="16.00" fill="#383838">LambdaFunctionPrivate</text>
</g>
<!-- Function::LambdaFunctionPrivate&#45;&gt;Subnet::PrivateLambdaVPC::AwsLambdaPrivSubnetStack/PrivateLambdaVPC/IsolatedSubnet1 -->
<g id="edge18" class="edge">
<title>Function::LambdaFunctionPrivate&#45;&gt;Subnet::PrivateLambdaVPC::AwsLambdaPrivSubnetStack/PrivateLambdaVPC/IsolatedSubnet1</title>
<path fill="none" stroke="#707070" d="M285.92,-383.23C319.88,-375.99 358.81,-367.69 395.99,-359.77"/>
<polygon fill="#707070" stroke="#707070" points="396.41,-363.25 405.46,-357.75 394.95,-356.41 396.41,-363.25"/>
</g>
<!-- Function::LambdaFunctionPrivate&#45;&gt;Subnet::PrivateLambdaVPC::AwsLambdaPrivSubnetStack/PrivateLambdaVPC/IsolatedSubnet2 -->
<g id="edge19" class="edge">
<title>Function::LambdaFunctionPrivate&#45;&gt;Subnet::PrivateLambdaVPC::AwsLambdaPrivSubnetStack/PrivateLambdaVPC/IsolatedSubnet2</title>
<path fill="none" stroke="#707070" d="M285.62,-395.98C308.91,-390.3 332.4,-381.01 351,-366 380.08,-342.53 357.99,-313.57 387,-290 387.96,-289.22 388.93,-288.46 389.91,-287.71"/>
<polygon fill="#707070" stroke="#707070" points="391.6,-290.8 397.85,-282.24 387.63,-285.04 391.6,-290.8"/>
</g>
<!-- Function::LambdaFunctionPrivate&#45;&gt;SecurityGroup::sg::PrivateLambdaVPC::PrivateLambdaSG -->
<g id="edge20" class="edge">
<title>Function::LambdaFunctionPrivate&#45;&gt;SecurityGroup::sg::PrivateLambdaVPC::PrivateLambdaSG</title>
<path fill="none" stroke="#707070" d="M285.64,-422.08C307.49,-427.41 330.32,-434.02 351,-442 368.08,-448.59 369.95,-455.35 387,-462 391.44,-463.73 395.97,-465.39 400.58,-467"/>
<polygon fill="#707070" stroke="#707070" points="399.41,-470.3 410,-470.15 401.63,-463.66 399.41,-470.3"/>
</g>
<!-- Function::LambdaFunctionPrivate&#45;&gt;Role::AwsLambdaPrivSubnetStack&#45;LambdaFunctionPrivateServ&#45;1PJW75N0R82N7 -->
<g id="edge17" class="edge">
<title>Function::LambdaFunctionPrivate&#45;&gt;Role::AwsLambdaPrivSubnetStack&#45;LambdaFunctionPrivateServ&#45;1PJW75N0R82N7</title>
<path fill="none" stroke="#707070" d="M285.92,-409.47C313.64,-411.02 344.68,-412.76 375.37,-414.48"/>
<polygon fill="#707070" stroke="#707070" points="374.96,-417.97 385.14,-415.03 375.36,-410.98 374.96,-417.97"/>
</g>
<!-- Secret::CDKExampleSecret23C61B24&#45;xgHFg67ZoX5Y -->
<g id="node14" class="node">
<title>Secret::CDKExampleSecret23C61B24&#45;xgHFg67ZoX5Y</title>
<polygon fill="#e5e5e5" stroke="#dddddd" points="351,-129 24,-129 24,-71 351,-71 351,-129"/>
<text text-anchor="start" x="36.5" y="-109.2" font-family="Helvetica,sans-Serif" font-weight="bold" font-size="16.00" fill="#707070">SecretsManager::Secret</text>
<text text-anchor="start" x="36.5" y="-84.2" font-family="Helvetica,sans-Serif" font-size="16.00" fill="#383838">CDKExampleSecret23C61B24&#45;xgHFg67...</text>
</g>
</g>
</svg>
