<?xml version="1.0" encoding="UTF-8" standalone="no"?>
<!DOCTYPE svg PUBLIC "-//W3C//DTD SVG 1.1//EN"
 "http://www.w3.org/Graphics/SVG/1.1/DTD/svg11.dtd">
<!-- Generated by graphviz version 7.1.0 (20230121.1956)
 -->
<!-- Title: graphname Pages: 1 -->
<svg width="758pt" height="541pt"
 viewBox="0.00 0.00 758.00 541.00" xmlns="http://www.w3.org/2000/svg" xmlns:xlink="http://www.w3.org/1999/xlink">
<g id="graph0" class="graph" transform="scale(1 1) rotate(0) translate(4 537)">
<title>graphname</title>
<polygon fill="#fafafa" stroke="none" points="-4,4 -4,-537 754,-537 754,4 -4,4"/>
<text text-anchor="start" x="255" y="-508.4" font-family="Helvetica,sans-Serif" font-weight="bold" font-size="22.00" fill="#383838">Project lambda&#45;glue&#45;s3</text>
<text text-anchor="start" x="371.5" y="-492.8" font-family="Helvetica,sans-Serif" font-size="14.00"> &#160;</text>
<text text-anchor="start" x="255" y="-471.2" font-family="Helvetica,sans-Serif" font-weight="bold" font-size="16.00" fill="#707070">Target Diagram</text>
<g id="clust1" class="cluster">
<title>cluster_aws</title>
<polygon fill="#f5f5f5" stroke="#f5f5f5" points="8,-8 8,-449 742,-449 742,-8 8,-8"/>
<text text-anchor="start" x="313" y="-23" font-family="Helvetica,sans-Serif" font-weight="bold" font-size="20.00" fill="#707070">Provider aws</text>
</g>
<g id="clust2" class="cluster">
<title>cluster_aws_</title>
<polygon fill="#eeeeee" stroke="#eeeeee" points="16,-54 16,-441 734,-441 734,-54 16,-54"/>
<text text-anchor="start" x="374.86" y="-58.3" font-family="Helvetica,sans-Serif" font-size="1.00" fill="#383838"> </text>
</g>
<!-- Job::cdk&#45;glue&#45;etl&#45;job -->
<g id="node1" class="node">
<title>Job::cdk&#45;glue&#45;etl&#45;job</title>
<polygon fill="#e5e5e5" stroke="#dddddd" points="258.5,-433 122.5,-433 122.5,-375 258.5,-375 258.5,-433"/>
<text text-anchor="start" x="134.5" y="-413.2" font-family="Helvetica,sans-Serif" font-weight="bold" font-size="16.00" fill="#707070">Glue::Job</text>
<text text-anchor="start" x="134.5" y="-388.2" font-family="Helvetica,sans-Serif" font-size="16.00" fill="#383838">cdk&#45;glue&#45;etl&#45;job</text>
</g>
<!-- Role::CdkLambdaGlueS3Stack&#45;GlueJobRoleD29FD79E&#45;1KWHI77IFZMTG -->
<g id="node5" class="node">
<title>Role::CdkLambdaGlueS3Stack&#45;GlueJobRoleD29FD79E&#45;1KWHI77IFZMTG</title>
<polygon fill="#e5e5e5" stroke="#dddddd" points="719,-433 400,-433 400,-375 719,-375 719,-433"/>
<text text-anchor="start" x="412.5" y="-413.2" font-family="Helvetica,sans-Serif" font-weight="bold" font-size="16.00" fill="#707070">IAM::Role</text>
<text text-anchor="start" x="412.5" y="-388.2" font-family="Helvetica,sans-Serif" font-size="16.00" fill="#383838">CdkLambdaGlueS3Stack&#45;GlueJobRole...</text>
</g>
<!-- Job::cdk&#45;glue&#45;etl&#45;job&#45;&gt;Role::CdkLambdaGlueS3Stack&#45;GlueJobRoleD29FD79E&#45;1KWHI77IFZMTG -->
<g id="edge1" class="edge">
<title>Job::cdk&#45;glue&#45;etl&#45;job&#45;&gt;Role::CdkLambdaGlueS3Stack&#45;GlueJobRoleD29FD79E&#45;1KWHI77IFZMTG</title>
<path fill="none" stroke="#707070" d="M258.81,-404C295.42,-404 342.51,-404 388.47,-404"/>
<polygon fill="#707070" stroke="#707070" points="388.3,-407.5 398.3,-404 388.3,-400.5 388.3,-407.5"/>
</g>
<!-- Role::CdkLambdaGlueS3Stack&#45;CustomCDKBucketDeployment8693&#45;7R743TFLOA71 -->
<g id="node2" class="node">
<title>Role::CdkLambdaGlueS3Stack&#45;CustomCDKBucketDeployment8693&#45;7R743TFLOA71</title>
<polygon fill="#e5e5e5" stroke="#dddddd" points="726,-357 393,-357 393,-299 726,-299 726,-357"/>
<text text-anchor="start" x="405.5" y="-337.2" font-family="Helvetica,sans-Serif" font-weight="bold" font-size="16.00" fill="#707070">IAM::Role</text>
<text text-anchor="start" x="405.5" y="-312.2" font-family="Helvetica,sans-Serif" font-size="16.00" fill="#383838">CdkLambdaGlueS3Stack&#45;CustomCDKBu...</text>
</g>
<!-- Role::CdkLambdaGlueS3Stack&#45;CustomS3AutoDeleteObjectsCust&#45;1X1B36HWFF31B -->
<g id="node3" class="node">
<title>Role::CdkLambdaGlueS3Stack&#45;CustomS3AutoDeleteObjectsCust&#45;1X1B36HWFF31B</title>
<polygon fill="#e5e5e5" stroke="#dddddd" points="721.5,-281 397.5,-281 397.5,-223 721.5,-223 721.5,-281"/>
<text text-anchor="start" x="409.5" y="-261.2" font-family="Helvetica,sans-Serif" font-weight="bold" font-size="16.00" fill="#707070">IAM::Role</text>
<text text-anchor="start" x="409.5" y="-236.2" font-family="Helvetica,sans-Serif" font-size="16.00" fill="#383838">CdkLambdaGlueS3Stack&#45;CustomS3Aut...</text>
</g>
<!-- Role::CdkLambdaGlueS3Stack&#45;GlueHandlerServiceRole714E829&#45;3HKYP8HE9PJZ -->
<g id="node4" class="node">
<title>Role::CdkLambdaGlueS3Stack&#45;GlueHandlerServiceRole714E829&#45;3HKYP8HE9PJZ</title>
<polygon fill="#e5e5e5" stroke="#dddddd" points="717,-205 402,-205 402,-147 717,-147 717,-205"/>
<text text-anchor="start" x="414.5" y="-185.2" font-family="Helvetica,sans-Serif" font-weight="bold" font-size="16.00" fill="#707070">IAM::Role</text>
<text text-anchor="start" x="414.5" y="-160.2" font-family="Helvetica,sans-Serif" font-size="16.00" fill="#383838">CdkLambdaGlueS3Stack&#45;GlueHandler...</text>
</g>
<!-- Function::CdkLambdaGlueS3Stack&#45;CustomCDKBucketDeployment8693&#45;mhVJN0MvgnZ0 -->
<g id="node6" class="node">
<title>Function::CdkLambdaGlueS3Stack&#45;CustomCDKBucketDeployment8693&#45;mhVJN0MvgnZ0</title>
<polygon fill="#e5e5e5" stroke="#dddddd" points="357,-357 24,-357 24,-299 357,-299 357,-357"/>
<text text-anchor="start" x="36.5" y="-337.2" font-family="Helvetica,sans-Serif" font-weight="bold" font-size="16.00" fill="#707070">Lambda::Function</text>
<text text-anchor="start" x="36.5" y="-312.2" font-family="Helvetica,sans-Serif" font-size="16.00" fill="#383838">CdkLambdaGlueS3Stack&#45;CustomCDKBu...</text>
</g>
<!-- Function::CdkLambdaGlueS3Stack&#45;CustomCDKBucketDeployment8693&#45;mhVJN0MvgnZ0&#45;&gt;Role::CdkLambdaGlueS3Stack&#45;CustomCDKBucketDeployment8693&#45;7R743TFLOA71 -->
<g id="edge2" class="edge">
<title>Function::CdkLambdaGlueS3Stack&#45;CustomCDKBucketDeployment8693&#45;mhVJN0MvgnZ0&#45;&gt;Role::CdkLambdaGlueS3Stack&#45;CustomCDKBucketDeployment8693&#45;7R743TFLOA71</title>
<path fill="none" stroke="#707070" d="M357.28,-328C365.29,-328 373.34,-328 381.37,-328"/>
<polygon fill="#707070" stroke="#707070" points="381.2,-331.5 391.2,-328 381.2,-324.5 381.2,-331.5"/>
</g>
<!-- Function::CdkLambdaGlueS3Stack&#45;CustomS3AutoDeleteObjectsCust&#45;wGB7tRJC8sgA -->
<g id="node7" class="node">
<title>Function::CdkLambdaGlueS3Stack&#45;CustomS3AutoDeleteObjectsCust&#45;wGB7tRJC8sgA</title>
<polygon fill="#e5e5e5" stroke="#dddddd" points="352.5,-281 28.5,-281 28.5,-223 352.5,-223 352.5,-281"/>
<text text-anchor="start" x="40.5" y="-261.2" font-family="Helvetica,sans-Serif" font-weight="bold" font-size="16.00" fill="#707070">Lambda::Function</text>
<text text-anchor="start" x="40.5" y="-236.2" font-family="Helvetica,sans-Serif" font-size="16.00" fill="#383838">CdkLambdaGlueS3Stack&#45;CustomS3Aut...</text>
</g>
<!-- Function::CdkLambdaGlueS3Stack&#45;CustomS3AutoDeleteObjectsCust&#45;wGB7tRJC8sgA&#45;&gt;Role::CdkLambdaGlueS3Stack&#45;CustomS3AutoDeleteObjectsCust&#45;1X1B36HWFF31B -->
<g id="edge3" class="edge">
<title>Function::CdkLambdaGlueS3Stack&#45;CustomS3AutoDeleteObjectsCust&#45;wGB7tRJC8sgA&#45;&gt;Role::CdkLambdaGlueS3Stack&#45;CustomS3AutoDeleteObjectsCust&#45;1X1B36HWFF31B</title>
<path fill="none" stroke="#707070" d="M352.74,-252C363.67,-252 374.7,-252 385.68,-252"/>
<polygon fill="#707070" stroke="#707070" points="385.59,-255.5 395.59,-252 385.59,-248.5 385.59,-255.5"/>
</g>
<!-- Function::MyGlueHandler -->
<g id="node8" class="node">
<title>Function::MyGlueHandler</title>
<polygon fill="#e5e5e5" stroke="#dddddd" points="272.5,-205 108.5,-205 108.5,-147 272.5,-147 272.5,-205"/>
<text text-anchor="start" x="120.5" y="-185.2" font-family="Helvetica,sans-Serif" font-weight="bold" font-size="16.00" fill="#707070">Lambda::Function</text>
<text text-anchor="start" x="120.5" y="-160.2" font-family="Helvetica,sans-Serif" font-size="16.00" fill="#383838">MyGlueHandler</text>
</g>
<!-- Function::MyGlueHandler&#45;&gt;Role::CdkLambdaGlueS3Stack&#45;GlueHandlerServiceRole714E829&#45;3HKYP8HE9PJZ -->
<g id="edge4" class="edge">
<title>Function::MyGlueHandler&#45;&gt;Role::CdkLambdaGlueS3Stack&#45;GlueHandlerServiceRole714E829&#45;3HKYP8HE9PJZ</title>
<path fill="none" stroke="#707070" d="M272.95,-176C307.6,-176 349.36,-176 390.13,-176"/>
<polygon fill="#707070" stroke="#707070" points="390.08,-179.5 400.08,-176 390.08,-172.5 390.08,-179.5"/>
</g>
<!-- Bucket::my&#45;glue&#45;job&#45;bucket -->
<g id="node9" class="node">
<title>Bucket::my&#45;glue&#45;job&#45;bucket</title>
<polygon fill="#e5e5e5" stroke="#dddddd" points="272,-129 109,-129 109,-71 272,-71 272,-129"/>
<text text-anchor="start" x="121.5" y="-109.2" font-family="Helvetica,sans-Serif" font-weight="bold" font-size="16.00" fill="#707070">S3::Bucket</text>
<text text-anchor="start" x="121.5" y="-84.2" font-family="Helvetica,sans-Serif" font-size="16.00" fill="#383838">my&#45;glue&#45;job&#45;bucket</text>
</g>
</g>
</svg>
