<?xml version="1.0" encoding="UTF-8" standalone="no"?>
<!DOCTYPE svg PUBLIC "-//W3C//DTD SVG 1.1//EN"
 "http://www.w3.org/Graphics/SVG/1.1/DTD/svg11.dtd">
<!-- Generated by graphviz version 2.44.1 (20200629.0846)
 -->
<!-- Title: graphname Pages: 1 -->
<svg width="817pt" height="475pt"
 viewBox="0.00 0.00 817.00 475.00" xmlns="http://www.w3.org/2000/svg" xmlns:xlink="http://www.w3.org/1999/xlink">
<g id="graph0" class="graph" transform="scale(1 1) rotate(0) translate(4 471)">
<title>graphname</title>
<polygon fill="white" stroke="transparent" points="-4,4 -4,-471 813,-471 813,4 -4,4"/>
<g id="clust1" class="cluster">
<title>cluster_k8s</title>
<polygon fill="none" stroke="#383838" points="8,-8 8,-459 801,-459 801,-8 8,-8"/>
<text text-anchor="start" x="387.5" y="-440" font-family="Helvetica,sans-Serif" font-weight="bold" font-size="20.00" fill="#383838">k8s</text>
</g>
<!-- Namespace::starhackit -->
<g id="node1" class="node">
<title>Namespace::starhackit</title>
<polygon fill="none" stroke="#383838" points="793,-184.5 711,-184.5 711,-137.5 793,-137.5 793,-184.5"/>
<text text-anchor="start" x="723" y="-169" font-family="Helvetica,sans-Serif" font-weight="bold" font-size="10.00" fill="#707070">Namespace</text>
<text text-anchor="start" x="723" y="-148.6" font-family="Helvetica,sans-Serif" font-size="13.00" fill="#383838">starhackit</text>
</g>
<!-- ConfigMap::postgres -->
<g id="node2" class="node">
<title>ConfigMap::postgres</title>
<polygon fill="none" stroke="#383838" points="660,-163.5 584,-163.5 584,-116.5 660,-116.5 660,-163.5"/>
<text text-anchor="start" x="596" y="-148" font-family="Helvetica,sans-Serif" font-weight="bold" font-size="10.00" fill="#707070">ConfigMap</text>
<text text-anchor="start" x="596" y="-127.6" font-family="Helvetica,sans-Serif" font-size="13.00" fill="#383838">postgres</text>
</g>
<!-- ConfigMap::postgres&#45;&gt;Namespace::starhackit -->
<g id="edge1" class="edge">
<title>ConfigMap::postgres&#45;&gt;Namespace::starhackit</title>
<path fill="none" stroke="#383838" d="M660.02,-146.07C672.73,-148.16 687.18,-150.53 700.76,-152.76"/>
<polygon fill="#383838" stroke="#383838" points="700.49,-156.26 710.93,-154.43 701.63,-149.35 700.49,-156.26"/>
</g>
<!-- StatefulSet::postgres -->
<g id="node3" class="node">
<title>StatefulSet::postgres</title>
<polygon fill="none" stroke="#383838" points="533,-143.5 457,-143.5 457,-96.5 533,-96.5 533,-143.5"/>
<text text-anchor="start" x="469" y="-128" font-family="Helvetica,sans-Serif" font-weight="bold" font-size="10.00" fill="#707070">StatefulSet</text>
<text text-anchor="start" x="469" y="-107.6" font-family="Helvetica,sans-Serif" font-size="13.00" fill="#383838">postgres</text>
</g>
<!-- StatefulSet::postgres&#45;&gt;Namespace::starhackit -->
<g id="edge2" class="edge">
<title>StatefulSet::postgres&#45;&gt;Namespace::starhackit</title>
<path fill="none" stroke="#383838" d="M533.27,-109.74C570.15,-101.38 627.76,-93.15 675,-108 690.21,-112.78 705.04,-121.8 717.5,-131.07"/>
<polygon fill="#383838" stroke="#383838" points="715.68,-134.09 725.72,-137.47 719.98,-128.57 715.68,-134.09"/>
</g>
<!-- StatefulSet::postgres&#45;&gt;ConfigMap::postgres -->
<g id="edge3" class="edge">
<title>StatefulSet::postgres&#45;&gt;ConfigMap::postgres</title>
<path fill="none" stroke="#383838" d="M533.17,-125.95C545.9,-127.98 560.32,-130.29 573.74,-132.44"/>
<polygon fill="#383838" stroke="#383838" points="573.33,-135.92 583.76,-134.04 574.44,-129.01 573.33,-135.92"/>
</g>
<!-- Service::postgres -->
<g id="node4" class="node">
<title>Service::postgres</title>
<polygon fill="none" stroke="#383838" points="414.5,-133.5 338.5,-133.5 338.5,-86.5 414.5,-86.5 414.5,-133.5"/>
<text text-anchor="start" x="350.5" y="-118" font-family="Helvetica,sans-Serif" font-weight="bold" font-size="10.00" fill="#707070">Service</text>
<text text-anchor="start" x="350.5" y="-97.6" font-family="Helvetica,sans-Serif" font-size="13.00" fill="#383838">postgres</text>
</g>
<!-- Service::postgres&#45;&gt;Namespace::starhackit -->
<g id="edge4" class="edge">
<title>Service::postgres&#45;&gt;Namespace::starhackit</title>
<path fill="none" stroke="#383838" d="M414.68,-97.48C427.88,-93.63 442.95,-89.91 457,-88 501.77,-81.92 674.06,-94.62 675,-95 693.74,-102.53 711.06,-116.72 724.41,-130.02"/>
<polygon fill="#383838" stroke="#383838" points="721.94,-132.5 731.4,-137.26 726.97,-127.64 721.94,-132.5"/>
</g>
<!-- Service::postgres&#45;&gt;StatefulSet::postgres -->
<g id="edge5" class="edge">
<title>Service::postgres&#45;&gt;StatefulSet::postgres</title>
<path fill="none" stroke="#383838" d="M414.68,-113.19C424.88,-114.07 436.06,-115.03 446.74,-115.94"/>
<polygon fill="#383838" stroke="#383838" points="446.51,-119.44 456.77,-116.8 447.11,-112.46 446.51,-119.44"/>
</g>
<!-- StatefulSet::redis -->
<g id="node5" class="node">
<title>StatefulSet::redis</title>
<polygon fill="none" stroke="#383838" points="659.5,-249.5 584.5,-249.5 584.5,-202.5 659.5,-202.5 659.5,-249.5"/>
<text text-anchor="start" x="597" y="-234" font-family="Helvetica,sans-Serif" font-weight="bold" font-size="10.00" fill="#707070">StatefulSet</text>
<text text-anchor="start" x="597" y="-213.6" font-family="Helvetica,sans-Serif" font-size="13.00" fill="#383838">redis</text>
</g>
<!-- StatefulSet::redis&#45;&gt;Namespace::starhackit -->
<g id="edge6" class="edge">
<title>StatefulSet::redis&#45;&gt;Namespace::starhackit</title>
<path fill="none" stroke="#383838" d="M659.68,-207.37C672.77,-200.73 687.74,-193.13 701.71,-186.03"/>
<polygon fill="#383838" stroke="#383838" points="703.39,-189.1 710.73,-181.45 700.22,-182.86 703.39,-189.1"/>
</g>
<!-- Service::redis -->
<g id="node6" class="node">
<title>Service::redis</title>
<polygon fill="none" stroke="#383838" points="524.5,-208.5 465.5,-208.5 465.5,-161.5 524.5,-161.5 524.5,-208.5"/>
<text text-anchor="start" x="478" y="-193" font-family="Helvetica,sans-Serif" font-weight="bold" font-size="10.00" fill="#707070">Service</text>
<text text-anchor="start" x="478" y="-172.6" font-family="Helvetica,sans-Serif" font-size="13.00" fill="#383838">redis</text>
</g>
<!-- Service::redis&#45;&gt;Namespace::starhackit -->
<g id="edge7" class="edge">
<title>Service::redis&#45;&gt;Namespace::starhackit</title>
<path fill="none" stroke="#383838" d="M524.59,-183.87C559.99,-182.3 622.07,-178.94 675,-173 683.4,-172.06 692.28,-170.85 700.9,-169.56"/>
<polygon fill="#383838" stroke="#383838" points="701.51,-173.01 710.86,-168.03 700.44,-166.09 701.51,-173.01"/>
</g>
<!-- Service::redis&#45;&gt;StatefulSet::redis -->
<g id="edge8" class="edge">
<title>Service::redis&#45;&gt;StatefulSet::redis</title>
<path fill="none" stroke="#383838" d="M524.68,-194.41C539.5,-199.27 557.95,-205.32 574.73,-210.82"/>
<polygon fill="#383838" stroke="#383838" points="573.78,-214.2 584.38,-213.99 575.96,-207.54 573.78,-214.2"/>
</g>
<!-- ConfigMap::rest&#45;server -->
<g id="node7" class="node">
<title>ConfigMap::rest&#45;server</title>
<polygon fill="none" stroke="#383838" points="421,-263.5 332,-263.5 332,-216.5 421,-216.5 421,-263.5"/>
<text text-anchor="start" x="344.5" y="-248" font-family="Helvetica,sans-Serif" font-weight="bold" font-size="10.00" fill="#707070">ConfigMap</text>
<text text-anchor="start" x="344.5" y="-227.6" font-family="Helvetica,sans-Serif" font-size="13.00" fill="#383838">rest&#45;server</text>
</g>
<!-- ConfigMap::rest&#45;server&#45;&gt;Namespace::starhackit -->
<g id="edge9" class="edge">
<title>ConfigMap::rest&#45;server&#45;&gt;Namespace::starhackit</title>
<path fill="none" stroke="#383838" d="M421.22,-248.04C492.83,-260.34 631.55,-280.29 675,-259 702.53,-245.51 722.95,-216.71 735.65,-193.81"/>
<polygon fill="#383838" stroke="#383838" points="738.87,-195.2 740.45,-184.73 732.68,-191.93 738.87,-195.2"/>
</g>
<!-- Deployment::rest -->
<g id="node8" class="node">
<title>Deployment::rest</title>
<polygon fill="none" stroke="#383838" points="296,-133.5 215,-133.5 215,-86.5 296,-86.5 296,-133.5"/>
<text text-anchor="start" x="227.5" y="-118" font-family="Helvetica,sans-Serif" font-weight="bold" font-size="10.00" fill="#707070">Deployment</text>
<text text-anchor="start" x="227.5" y="-97.6" font-family="Helvetica,sans-Serif" font-size="13.00" fill="#383838">rest</text>
</g>
<!-- Deployment::rest&#45;&gt;Namespace::starhackit -->
<g id="edge10" class="edge">
<title>Deployment::rest&#45;&gt;Namespace::starhackit</title>
<path fill="none" stroke="#383838" d="M296.29,-89.63C307.54,-84.85 320,-80.44 332,-78 404.33,-63.3 598.57,-50.98 675,-84 696.93,-93.47 715.83,-112.54 729.3,-129.33"/>
<polygon fill="#383838" stroke="#383838" points="726.59,-131.55 735.46,-137.34 732.13,-127.28 726.59,-131.55"/>
</g>
<!-- Deployment::rest&#45;&gt;Service::postgres -->
<g id="edge12" class="edge">
<title>Deployment::rest&#45;&gt;Service::postgres</title>
<path fill="none" stroke="#383838" d="M296.13,-110C306.48,-110 317.73,-110 328.43,-110"/>
<polygon fill="#383838" stroke="#383838" points="328.46,-113.5 338.46,-110 328.46,-106.5 328.46,-113.5"/>
</g>
<!-- Deployment::rest&#45;&gt;Service::redis -->
<g id="edge13" class="edge">
<title>Deployment::rest&#45;&gt;Service::redis</title>
<path fill="none" stroke="#383838" d="M296.39,-128.84C307.75,-133.82 320.24,-138.93 332,-143 373.26,-157.26 421.88,-169.25 455.02,-176.72"/>
<polygon fill="#383838" stroke="#383838" points="454.69,-180.23 465.21,-178.99 456.21,-173.4 454.69,-180.23"/>
</g>
<!-- Deployment::rest&#45;&gt;ConfigMap::rest&#45;server -->
<g id="edge11" class="edge">
<title>Deployment::rest&#45;&gt;ConfigMap::rest&#45;server</title>
<path fill="none" stroke="#383838" d="M278.05,-133.54C297.31,-154.58 325.66,-185.56 346.83,-208.68"/>
<polygon fill="#383838" stroke="#383838" points="344.37,-211.18 353.71,-216.19 349.54,-206.45 344.37,-211.18"/>
</g>
<!-- Service::rest -->
<g id="node9" class="node">
<title>Service::rest</title>
<polygon fill="none" stroke="#383838" points="179,-103.5 120,-103.5 120,-56.5 179,-56.5 179,-103.5"/>
<text text-anchor="start" x="132.5" y="-88" font-family="Helvetica,sans-Serif" font-weight="bold" font-size="10.00" fill="#707070">Service</text>
<text text-anchor="start" x="132.5" y="-67.6" font-family="Helvetica,sans-Serif" font-size="13.00" fill="#383838">rest</text>
</g>
<!-- Service::rest&#45;&gt;Namespace::starhackit -->
<g id="edge14" class="edge">
<title>Service::rest&#45;&gt;Namespace::starhackit</title>
<path fill="none" stroke="#383838" d="M179.29,-70.88C221.76,-58.26 303.91,-37 375.5,-37 375.5,-37 375.5,-37 496,-37 576.21,-37 605.66,-19.68 675,-60 702.01,-75.71 722.48,-105.19 735.34,-128.26"/>
<polygon fill="#383838" stroke="#383838" points="732.41,-130.21 740.21,-137.38 738.59,-126.91 732.41,-130.21"/>
</g>
<!-- Service::rest&#45;&gt;Deployment::rest -->
<g id="edge15" class="edge">
<title>Service::rest&#45;&gt;Deployment::rest</title>
<path fill="none" stroke="#383838" d="M179.19,-88.28C187.14,-90.57 196.01,-93.13 204.79,-95.66"/>
<polygon fill="#383838" stroke="#383838" points="204.03,-99.09 214.61,-98.49 205.97,-92.36 204.03,-99.09"/>
</g>
<!-- Deployment::web -->
<g id="node10" class="node">
<title>Deployment::web</title>
<polygon fill="none" stroke="#383838" points="662.5,-355.5 581.5,-355.5 581.5,-308.5 662.5,-308.5 662.5,-355.5"/>
<text text-anchor="start" x="594" y="-340" font-family="Helvetica,sans-Serif" font-weight="bold" font-size="10.00" fill="#707070">Deployment</text>
<text text-anchor="start" x="594" y="-319.6" font-family="Helvetica,sans-Serif" font-size="13.00" fill="#383838">web</text>
</g>
<!-- Deployment::web&#45;&gt;Namespace::starhackit -->
<g id="edge16" class="edge">
<title>Deployment::web&#45;&gt;Namespace::starhackit</title>
<path fill="none" stroke="#383838" d="M659.64,-308.3C665.12,-303.9 670.45,-299.09 675,-294 702.07,-263.72 723.89,-222.23 737.09,-193.68"/>
<polygon fill="#383838" stroke="#383838" points="740.3,-195.09 741.23,-184.53 733.92,-192.2 740.3,-195.09"/>
</g>
<!-- Service::web -->
<g id="node11" class="node">
<title>Service::web</title>
<polygon fill="none" stroke="#383838" points="524.5,-335.5 465.5,-335.5 465.5,-288.5 524.5,-288.5 524.5,-335.5"/>
<text text-anchor="start" x="478" y="-320" font-family="Helvetica,sans-Serif" font-weight="bold" font-size="10.00" fill="#707070">Service</text>
<text text-anchor="start" x="478" y="-299.6" font-family="Helvetica,sans-Serif" font-size="13.00" fill="#383838">web</text>
</g>
<!-- Service::web&#45;&gt;Namespace::starhackit -->
<g id="edge17" class="edge">
<title>Service::web&#45;&gt;Namespace::starhackit</title>
<path fill="none" stroke="#383838" d="M524.56,-307.15C571.89,-298.93 662.63,-282.36 675,-274 703.84,-254.52 724.64,-220.09 737.11,-194.33"/>
<polygon fill="#383838" stroke="#383838" points="740.44,-195.48 741.48,-184.94 734.09,-192.53 740.44,-195.48"/>
</g>
<!-- Service::web&#45;&gt;Deployment::web -->
<g id="edge18" class="edge">
<title>Service::web&#45;&gt;Deployment::web</title>
<path fill="none" stroke="#383838" d="M524.68,-316.59C538.39,-318.78 555.22,-321.48 570.95,-323.99"/>
<polygon fill="#383838" stroke="#383838" points="570.66,-327.49 581.09,-325.61 571.77,-320.58 570.66,-327.49"/>
</g>
<!-- PersistentVolume::pv&#45;db -->
<g id="node12" class="node">
<title>PersistentVolume::pv&#45;db</title>
<polygon fill="none" stroke="#383838" points="675,-420.5 569,-420.5 569,-373.5 675,-373.5 675,-420.5"/>
<text text-anchor="start" x="581" y="-405" font-family="Helvetica,sans-Serif" font-weight="bold" font-size="10.00" fill="#707070">PersistentVolume</text>
<text text-anchor="start" x="581" y="-384.6" font-family="Helvetica,sans-Serif" font-size="13.00" fill="#383838">pv&#45;db</text>
</g>
<!-- PersistentVolume::pv&#45;db&#45;&gt;Namespace::starhackit -->
<g id="edge19" class="edge">
<title>PersistentVolume::pv&#45;db&#45;&gt;Namespace::starhackit</title>
<path fill="none" stroke="#383838" d="M666.84,-373.25C669.81,-370.7 672.58,-367.95 675,-365 716.79,-314.15 736.89,-238.08 745.48,-194.64"/>
<polygon fill="#383838" stroke="#383838" points="748.96,-195.06 747.37,-184.59 742.08,-193.77 748.96,-195.06"/>
</g>
<!-- Ingress::ingress -->
<g id="node13" class="node">
<title>Ingress::ingress</title>
<polygon fill="none" stroke="#383838" points="84,-103.5 16,-103.5 16,-56.5 84,-56.5 84,-103.5"/>
<text text-anchor="start" x="28" y="-88" font-family="Helvetica,sans-Serif" font-weight="bold" font-size="10.00" fill="#707070">Ingress</text>
<text text-anchor="start" x="28" y="-67.6" font-family="Helvetica,sans-Serif" font-size="13.00" fill="#383838">ingress</text>
</g>
<!-- Ingress::ingress&#45;&gt;Namespace::starhackit -->
<g id="edge20" class="edge">
<title>Ingress::ingress&#45;&gt;Namespace::starhackit</title>
<path fill="none" stroke="#383838" d="M84.23,-62.95C123.74,-44.29 192.18,-17 254.5,-17 254.5,-17 254.5,-17 496,-17 575.77,-17 607.37,12.29 675,-30 710.2,-52.01 730.9,-96.71 741.58,-127.74"/>
<polygon fill="#383838" stroke="#383838" points="738.27,-128.87 744.71,-137.28 744.92,-126.69 738.27,-128.87"/>
</g>
<!-- Ingress::ingress&#45;&gt;Service::rest -->
<g id="edge22" class="edge">
<title>Ingress::ingress&#45;&gt;Service::rest</title>
<path fill="none" stroke="#383838" d="M84.01,-80C92.26,-80 101.18,-80 109.68,-80"/>
<polygon fill="#383838" stroke="#383838" points="109.77,-83.5 119.77,-80 109.77,-76.5 109.77,-83.5"/>
</g>
<!-- Ingress::ingress&#45;&gt;Service::web -->
<g id="edge21" class="edge">
<title>Ingress::ingress&#45;&gt;Service::web</title>
<path fill="none" stroke="#383838" d="M78.05,-103.71C125.91,-144.42 230.09,-227.61 332,-273 372.23,-290.92 421.91,-301.32 455.57,-306.81"/>
<polygon fill="#383838" stroke="#383838" points="455.05,-310.27 465.47,-308.35 456.13,-303.35 455.05,-310.27"/>
</g>
</g>
</svg>
