<?xml version="1.0" encoding="UTF-8" standalone="no"?>
<!DOCTYPE svg PUBLIC "-//W3C//DTD SVG 1.1//EN"
 "http://www.w3.org/Graphics/SVG/1.1/DTD/svg11.dtd">
<!-- Generated by graphviz version 2.44.1 (20200629.0846)
 -->
<!-- Title: graphname Pages: 1 -->
<svg width="856pt" height="542pt"
 viewBox="0.00 0.00 856.00 542.26" xmlns="http://www.w3.org/2000/svg" xmlns:xlink="http://www.w3.org/1999/xlink">
<g id="graph0" class="graph" transform="scale(1 1) rotate(0) translate(4 538.26)">
<title>graphname</title>
<polygon fill="white" stroke="transparent" points="-4,4 -4,-538.26 852,-538.26 852,4 -4,4"/>
<g id="clust1" class="cluster">
<title>cluster_k8s</title>
<polygon fill="none" stroke="#383838" points="8,-10.26 8,-526.26 840,-526.26 840,-10.26 8,-10.26"/>
<text text-anchor="start" x="407" y="-507.26" font-family="Helvetica,sans-Serif" font-weight="bold" font-size="20.00" fill="#383838">k8s</text>
</g>
<!-- Namespace::default -->
<g id="node1" class="node">
<title>Namespace::default</title>
<polygon fill="none" stroke="#383838" points="832,-230.76 753,-230.76 753,-183.76 832,-183.76 832,-230.76"/>
<text text-anchor="start" x="765.5" y="-215.26" font-family="Helvetica,sans-Serif" font-weight="bold" font-size="10.00" fill="#707070">Namespace</text>
<text text-anchor="start" x="765.5" y="-194.86" font-family="Helvetica,sans-Serif" font-size="13.00" fill="#383838">default</text>
</g>
<!-- ConfigMap::postgres -->
<g id="node2" class="node">
<title>ConfigMap::postgres</title>
<polygon fill="none" stroke="#383838" points="681,-165.76 605,-165.76 605,-118.76 681,-118.76 681,-165.76"/>
<text text-anchor="start" x="617" y="-150.26" font-family="Helvetica,sans-Serif" font-weight="bold" font-size="10.00" fill="#707070">ConfigMap</text>
<text text-anchor="start" x="617" y="-129.86" font-family="Helvetica,sans-Serif" font-size="13.00" fill="#383838">postgres</text>
</g>
<!-- ConfigMap::postgres&#45;&gt;Namespace::default -->
<g id="edge1" class="edge">
<title>ConfigMap::postgres&#45;&gt;Namespace::default</title>
<path fill="none" stroke="#383838" d="M681.22,-158.66C700.08,-166.97 723.21,-177.16 743.4,-186.06"/>
<polygon fill="#383838" stroke="#383838" points="742.18,-189.35 752.75,-190.18 745.01,-182.94 742.18,-189.35"/>
</g>
<!-- PersistentVolume::pv&#45;db -->
<g id="node3" class="node">
<title>PersistentVolume::pv&#45;db</title>
<polygon fill="none" stroke="#383838" points="696,-230.76 590,-230.76 590,-183.76 696,-183.76 696,-230.76"/>
<text text-anchor="start" x="602" y="-215.26" font-family="Helvetica,sans-Serif" font-weight="bold" font-size="10.00" fill="#707070">PersistentVolume</text>
<text text-anchor="start" x="602" y="-194.86" font-family="Helvetica,sans-Serif" font-size="13.00" fill="#383838">pv&#45;db</text>
</g>
<!-- PersistentVolume::pv&#45;db&#45;&gt;Namespace::default -->
<g id="edge2" class="edge">
<title>PersistentVolume::pv&#45;db&#45;&gt;Namespace::default</title>
<path fill="none" stroke="#383838" d="M696,-207.26C711.23,-207.26 727.82,-207.26 742.84,-207.26"/>
<polygon fill="#383838" stroke="#383838" points="742.94,-210.76 752.94,-207.26 742.94,-203.76 742.94,-210.76"/>
</g>
<!-- StatefulSet::postgres -->
<g id="node4" class="node">
<title>StatefulSet::postgres</title>
<polygon fill="none" stroke="#383838" points="533,-155.76 457,-155.76 457,-108.76 533,-108.76 533,-155.76"/>
<text text-anchor="start" x="469" y="-140.26" font-family="Helvetica,sans-Serif" font-weight="bold" font-size="10.00" fill="#707070">StatefulSet</text>
<text text-anchor="start" x="469" y="-119.86" font-family="Helvetica,sans-Serif" font-size="13.00" fill="#383838">postgres</text>
</g>
<!-- StatefulSet::postgres&#45;&gt;Namespace::default -->
<g id="edge3" class="edge">
<title>StatefulSet::postgres&#45;&gt;Namespace::default</title>
<path fill="none" stroke="#383838" d="M533.35,-116.95C579.12,-100.72 657.86,-81.11 717,-110.26 743.95,-123.54 763.87,-151.78 776.3,-174.38"/>
<polygon fill="#383838" stroke="#383838" points="773.26,-176.12 781,-183.34 779.45,-172.86 773.26,-176.12"/>
</g>
<!-- StatefulSet::postgres&#45;&gt;ConfigMap::postgres -->
<g id="edge4" class="edge">
<title>StatefulSet::postgres&#45;&gt;ConfigMap::postgres</title>
<path fill="none" stroke="#383838" d="M533.22,-134.81C551.93,-136.09 574.79,-137.65 594.73,-139.02"/>
<polygon fill="#383838" stroke="#383838" points="594.63,-142.52 604.85,-139.71 595.11,-135.54 594.63,-142.52"/>
</g>
<!-- StatefulSet::postgres&#45;&gt;PersistentVolume::pv&#45;db -->
<g id="edge5" class="edge">
<title>StatefulSet::postgres&#45;&gt;PersistentVolume::pv&#45;db</title>
<path fill="none" stroke="#383838" d="M533.03,-155.22C544.41,-161.97 557.08,-169.16 569,-175.26 572.74,-177.17 576.62,-179.08 580.56,-180.96"/>
<polygon fill="#383838" stroke="#383838" points="579.26,-184.22 589.8,-185.28 582.22,-177.88 579.26,-184.22"/>
</g>
<!-- Service::postgres -->
<g id="node5" class="node">
<title>Service::postgres</title>
<polygon fill="none" stroke="#383838" points="414.5,-145.76 338.5,-145.76 338.5,-98.76 414.5,-98.76 414.5,-145.76"/>
<text text-anchor="start" x="350.5" y="-130.26" font-family="Helvetica,sans-Serif" font-weight="bold" font-size="10.00" fill="#707070">Service</text>
<text text-anchor="start" x="350.5" y="-109.86" font-family="Helvetica,sans-Serif" font-size="13.00" fill="#383838">postgres</text>
</g>
<!-- Service::postgres&#45;&gt;Namespace::default -->
<g id="edge6" class="edge">
<title>Service::postgres&#45;&gt;Namespace::default</title>
<path fill="none" stroke="#383838" d="M414.66,-106.08C480.2,-80.2 618.7,-37.56 717,-91.26 748.8,-108.63 769.05,-146.03 780.28,-173.69"/>
<polygon fill="#383838" stroke="#383838" points="777.15,-175.31 784.02,-183.38 783.69,-172.79 777.15,-175.31"/>
</g>
<!-- Service::postgres&#45;&gt;StatefulSet::postgres -->
<g id="edge7" class="edge">
<title>Service::postgres&#45;&gt;StatefulSet::postgres</title>
<path fill="none" stroke="#383838" d="M414.68,-125.45C424.88,-126.32 436.06,-127.28 446.74,-128.2"/>
<polygon fill="#383838" stroke="#383838" points="446.51,-131.69 456.77,-129.06 447.11,-124.72 446.51,-131.69"/>
</g>
<!-- StatefulSet::redis -->
<g id="node6" class="node">
<title>StatefulSet::redis</title>
<polygon fill="none" stroke="#383838" points="680.5,-316.76 605.5,-316.76 605.5,-269.76 680.5,-269.76 680.5,-316.76"/>
<text text-anchor="start" x="618" y="-301.26" font-family="Helvetica,sans-Serif" font-weight="bold" font-size="10.00" fill="#707070">StatefulSet</text>
<text text-anchor="start" x="618" y="-280.86" font-family="Helvetica,sans-Serif" font-size="13.00" fill="#383838">redis</text>
</g>
<!-- StatefulSet::redis&#45;&gt;Namespace::default -->
<g id="edge8" class="edge">
<title>StatefulSet::redis&#45;&gt;Namespace::default</title>
<path fill="none" stroke="#383838" d="M680.75,-274.97C692.46,-268.92 705.39,-262 717,-255.26 727.08,-249.4 737.73,-242.8 747.72,-236.42"/>
<polygon fill="#383838" stroke="#383838" points="749.79,-239.25 756.29,-230.89 745.99,-233.37 749.79,-239.25"/>
</g>
<!-- Service::redis -->
<g id="node7" class="node">
<title>Service::redis</title>
<polygon fill="none" stroke="#383838" points="524.5,-273.76 465.5,-273.76 465.5,-226.76 524.5,-226.76 524.5,-273.76"/>
<text text-anchor="start" x="478" y="-258.26" font-family="Helvetica,sans-Serif" font-weight="bold" font-size="10.00" fill="#707070">Service</text>
<text text-anchor="start" x="478" y="-237.86" font-family="Helvetica,sans-Serif" font-size="13.00" fill="#383838">redis</text>
</g>
<!-- Service::redis&#45;&gt;Namespace::default -->
<g id="edge9" class="edge">
<title>Service::redis&#45;&gt;Namespace::default</title>
<path fill="none" stroke="#383838" d="M524.72,-252.3C567.33,-254.59 649.52,-256.14 717,-240.26 725.7,-238.21 734.65,-235.16 743.19,-231.73"/>
<polygon fill="#383838" stroke="#383838" points="744.79,-234.86 752.63,-227.73 742.05,-228.41 744.79,-234.86"/>
</g>
<!-- Service::redis&#45;&gt;StatefulSet::redis -->
<g id="edge10" class="edge">
<title>Service::redis&#45;&gt;StatefulSet::redis</title>
<path fill="none" stroke="#383838" d="M524.84,-258.75C545.06,-264.71 572.51,-272.79 595.76,-279.64"/>
<polygon fill="#383838" stroke="#383838" points="594.85,-283.02 605.43,-282.49 596.83,-276.3 594.85,-283.02"/>
</g>
<!-- ConfigMap::rest&#45;server -->
<g id="node8" class="node">
<title>ConfigMap::rest&#45;server</title>
<polygon fill="none" stroke="#383838" points="421,-316.76 332,-316.76 332,-269.76 421,-269.76 421,-316.76"/>
<text text-anchor="start" x="344.5" y="-301.26" font-family="Helvetica,sans-Serif" font-weight="bold" font-size="10.00" fill="#707070">ConfigMap</text>
<text text-anchor="start" x="344.5" y="-280.86" font-family="Helvetica,sans-Serif" font-size="13.00" fill="#383838">rest&#45;server</text>
</g>
<!-- ConfigMap::rest&#45;server&#45;&gt;Namespace::default -->
<g id="edge11" class="edge">
<title>ConfigMap::rest&#45;server&#45;&gt;Namespace::default</title>
<path fill="none" stroke="#383838" d="M421.22,-303.58C501.16,-321.46 667.27,-353.8 717,-326.26 749.71,-308.14 769.97,-269 780.96,-240.54"/>
<polygon fill="#383838" stroke="#383838" points="784.31,-241.57 784.46,-230.97 777.74,-239.16 784.31,-241.57"/>
</g>
<!-- Deployment::rest -->
<g id="node9" class="node">
<title>Deployment::rest</title>
<polygon fill="none" stroke="#383838" points="296,-145.76 215,-145.76 215,-98.76 296,-98.76 296,-145.76"/>
<text text-anchor="start" x="227.5" y="-130.26" font-family="Helvetica,sans-Serif" font-weight="bold" font-size="10.00" fill="#707070">Deployment</text>
<text text-anchor="start" x="227.5" y="-109.86" font-family="Helvetica,sans-Serif" font-size="13.00" fill="#383838">rest</text>
</g>
<!-- Deployment::rest&#45;&gt;Namespace::default -->
<g id="edge12" class="edge">
<title>Deployment::rest&#45;&gt;Namespace::default</title>
<path fill="none" stroke="#383838" d="M296.24,-103.43C307.6,-98.59 320.12,-93.77 332,-90.26 414.23,-65.94 643.68,-19.78 717,-64.26 755.93,-87.87 775.47,-139.22 784.54,-173.51"/>
<polygon fill="#383838" stroke="#383838" points="781.23,-174.7 787.03,-183.56 788.02,-173.01 781.23,-174.7"/>
</g>
<!-- Deployment::rest&#45;&gt;Service::postgres -->
<g id="edge14" class="edge">
<title>Deployment::rest&#45;&gt;Service::postgres</title>
<path fill="none" stroke="#383838" d="M296.13,-122.26C306.48,-122.26 317.73,-122.26 328.43,-122.26"/>
<polygon fill="#383838" stroke="#383838" points="328.46,-125.76 338.46,-122.26 328.46,-118.76 328.46,-125.76"/>
</g>
<!-- Deployment::rest&#45;&gt;Service::redis -->
<g id="edge15" class="edge">
<title>Deployment::rest&#45;&gt;Service::redis</title>
<path fill="none" stroke="#383838" d="M296.25,-143.68C340.88,-167.73 412.75,-206.47 456.46,-230.02"/>
<polygon fill="#383838" stroke="#383838" points="454.87,-233.15 465.34,-234.81 458.19,-226.98 454.87,-233.15"/>
</g>
<!-- Deployment::rest&#45;&gt;ConfigMap::rest&#45;server -->
<g id="edge13" class="edge">
<title>Deployment::rest&#45;&gt;ConfigMap::rest&#45;server</title>
<path fill="none" stroke="#383838" d="M273.05,-146.03C293.92,-176.02 329.88,-227.71 353.17,-261.18"/>
<polygon fill="#383838" stroke="#383838" points="350.51,-263.47 359.09,-269.68 356.25,-259.48 350.51,-263.47"/>
</g>
<!-- Service::rest -->
<g id="node10" class="node">
<title>Service::rest</title>
<polygon fill="none" stroke="#383838" points="179,-105.76 120,-105.76 120,-58.76 179,-58.76 179,-105.76"/>
<text text-anchor="start" x="132.5" y="-90.26" font-family="Helvetica,sans-Serif" font-weight="bold" font-size="10.00" fill="#707070">Service</text>
<text text-anchor="start" x="132.5" y="-69.86" font-family="Helvetica,sans-Serif" font-size="13.00" fill="#383838">rest</text>
</g>
<!-- Service::rest&#45;&gt;Namespace::default -->
<g id="edge16" class="edge">
<title>Service::rest&#45;&gt;Namespace::default</title>
<path fill="none" stroke="#383838" d="M179.29,-73.14C221.76,-60.52 303.91,-39.26 375.5,-39.26 375.5,-39.26 375.5,-39.26 496,-39.26 545.12,-39.26 675.97,-17.24 717,-44.26 760.82,-73.12 779.24,-134.69 786.7,-173.35"/>
<polygon fill="#383838" stroke="#383838" points="783.33,-174.37 788.53,-183.6 790.22,-173.14 783.33,-174.37"/>
</g>
<!-- Service::rest&#45;&gt;Deployment::rest -->
<g id="edge17" class="edge">
<title>Service::rest&#45;&gt;Deployment::rest</title>
<path fill="none" stroke="#383838" d="M179.19,-93.29C187.23,-96.38 196.2,-99.83 205.07,-103.25"/>
<polygon fill="#383838" stroke="#383838" points="204.02,-106.59 214.61,-106.92 206.54,-100.06 204.02,-106.59"/>
</g>
<!-- Deployment::web -->
<g id="node11" class="node">
<title>Deployment::web</title>
<polygon fill="none" stroke="#383838" points="683.5,-422.76 602.5,-422.76 602.5,-375.76 683.5,-375.76 683.5,-422.76"/>
<text text-anchor="start" x="615" y="-407.26" font-family="Helvetica,sans-Serif" font-weight="bold" font-size="10.00" fill="#707070">Deployment</text>
<text text-anchor="start" x="615" y="-386.86" font-family="Helvetica,sans-Serif" font-size="13.00" fill="#383838">web</text>
</g>
<!-- Deployment::web&#45;&gt;Namespace::default -->
<g id="edge18" class="edge">
<title>Deployment::web&#45;&gt;Namespace::default</title>
<path fill="none" stroke="#383838" d="M683.84,-384.25C695.58,-378.41 707.74,-370.79 717,-361.26 750.38,-326.89 771.27,-274.68 782.16,-240.77"/>
<polygon fill="#383838" stroke="#383838" points="785.61,-241.46 785.22,-230.87 778.92,-239.39 785.61,-241.46"/>
</g>
<!-- Service::web -->
<g id="node12" class="node">
<title>Service::web</title>
<polygon fill="none" stroke="#383838" points="524.5,-402.76 465.5,-402.76 465.5,-355.76 524.5,-355.76 524.5,-402.76"/>
<text text-anchor="start" x="478" y="-387.26" font-family="Helvetica,sans-Serif" font-weight="bold" font-size="10.00" fill="#707070">Service</text>
<text text-anchor="start" x="478" y="-366.86" font-family="Helvetica,sans-Serif" font-size="13.00" fill="#383838">web</text>
</g>
<!-- Service::web&#45;&gt;Namespace::default -->
<g id="edge19" class="edge">
<title>Service::web&#45;&gt;Namespace::default</title>
<path fill="none" stroke="#383838" d="M524.59,-374.5C583.91,-364.62 715.04,-342.65 717,-341.26 751.29,-316.94 771.62,-271.64 782.17,-240.49"/>
<polygon fill="#383838" stroke="#383838" points="785.52,-241.51 785.26,-230.92 778.86,-239.36 785.52,-241.51"/>
</g>
<!-- Service::web&#45;&gt;Deployment::web -->
<g id="edge20" class="edge">
<title>Service::web&#45;&gt;Deployment::web</title>
<path fill="none" stroke="#383838" d="M524.84,-383.21C544.09,-385.84 569.88,-389.38 592.37,-392.46"/>
<polygon fill="#383838" stroke="#383838" points="592.06,-395.95 602.44,-393.84 593.01,-389.01 592.06,-395.95"/>
</g>
<!-- ServiceAccount::service&#45;account&#45;aws -->
<g id="node13" class="node">
<title>ServiceAccount::service&#45;account&#45;aws</title>
<polygon fill="none" stroke="#383838" points="717,-487.76 569,-487.76 569,-440.76 717,-440.76 717,-487.76"/>
<text text-anchor="start" x="581" y="-472.26" font-family="Helvetica,sans-Serif" font-weight="bold" font-size="10.00" fill="#707070">ServiceAccount</text>
<text text-anchor="start" x="581" y="-451.86" font-family="Helvetica,sans-Serif" font-size="13.00" fill="#383838">service&#45;account&#45;aws</text>
</g>
<!-- ServiceAccount::service&#45;account&#45;aws&#45;&gt;Namespace::default -->
<g id="edge21" class="edge">
<title>ServiceAccount::service&#45;account&#45;aws&#45;&gt;Namespace::default</title>
<path fill="none" stroke="#383838" d="M707.69,-440.65C711.06,-438.12 714.2,-435.33 717,-432.26 766.71,-377.67 783.34,-289.07 788.83,-240.95"/>
<polygon fill="#383838" stroke="#383838" points="792.34,-241.07 789.9,-230.76 785.38,-240.34 792.34,-241.07"/>
</g>
<!-- Ingress::ingress -->
<g id="node14" class="node">
<title>Ingress::ingress</title>
<polygon fill="none" stroke="#383838" points="84,-105.76 16,-105.76 16,-58.76 84,-58.76 84,-105.76"/>
<text text-anchor="start" x="28" y="-90.26" font-family="Helvetica,sans-Serif" font-weight="bold" font-size="10.00" fill="#707070">Ingress</text>
<text text-anchor="start" x="28" y="-69.86" font-family="Helvetica,sans-Serif" font-size="13.00" fill="#383838">ingress</text>
</g>
<!-- Ingress::ingress&#45;&gt;Namespace::default -->
<g id="edge22" class="edge">
<title>Ingress::ingress&#45;&gt;Namespace::default</title>
<path fill="none" stroke="#383838" d="M84.23,-65.21C123.74,-46.55 192.18,-19.26 254.5,-19.26 254.5,-19.26 254.5,-19.26 496,-19.26 594.29,-19.26 636.29,28.83 717,-27.26 765.14,-60.71 782.24,-131.36 788.27,-173.52"/>
<polygon fill="#383838" stroke="#383838" points="784.82,-174.12 789.58,-183.58 791.76,-173.22 784.82,-174.12"/>
</g>
<!-- Ingress::ingress&#45;&gt;Service::rest -->
<g id="edge24" class="edge">
<title>Ingress::ingress&#45;&gt;Service::rest</title>
<path fill="none" stroke="#383838" d="M84.01,-82.26C92.26,-82.26 101.18,-82.26 109.68,-82.26"/>
<polygon fill="#383838" stroke="#383838" points="109.77,-85.76 119.77,-82.26 109.77,-78.76 109.77,-85.76"/>
</g>
<!-- Ingress::ingress&#45;&gt;Service::web -->
<g id="edge23" class="edge">
<title>Ingress::ingress&#45;&gt;Service::web</title>
<path fill="none" stroke="#383838" d="M71.92,-105.89C115.64,-153.96 221.83,-263.82 332,-326.26 371.31,-348.54 421.37,-363.1 455.36,-371.22"/>
<polygon fill="#383838" stroke="#383838" points="454.83,-374.69 465.36,-373.53 456.41,-367.87 454.83,-374.69"/>
</g>
</g>
</svg>
