<?xml version="1.0" encoding="UTF-8" standalone="no"?>
<!DOCTYPE svg PUBLIC "-//W3C//DTD SVG 1.1//EN"
 "http://www.w3.org/Graphics/SVG/1.1/DTD/svg11.dtd">
<!-- Generated by graphviz version 2.44.1 (20200629.0846)
 -->
<!-- Title: graphname Pages: 1 -->
<svg width="814pt" height="475pt"
 viewBox="0.00 0.00 814.00 475.00" xmlns="http://www.w3.org/2000/svg" xmlns:xlink="http://www.w3.org/1999/xlink">
<g id="graph0" class="graph" transform="scale(1 1) rotate(0) translate(4 471)">
<title>graphname</title>
<polygon fill="white" stroke="transparent" points="-4,4 -4,-471 810,-471 810,4 -4,4"/>
<g id="clust1" class="cluster">
<title>cluster_k8s</title>
<polygon fill="none" stroke="#383838" points="8,-8 8,-459 798,-459 798,-8 8,-8"/>
<text text-anchor="start" x="386" y="-440" font-family="Helvetica,sans-Serif" font-weight="bold" font-size="20.00" fill="#383838">k8s</text>
</g>
<!-- Namespace::default -->
<g id="node1" class="node">
<title>Namespace::default</title>
<polygon fill="none" stroke="#383838" points="790,-184.5 711,-184.5 711,-137.5 790,-137.5 790,-184.5"/>
<text text-anchor="start" x="723.5" y="-169" font-family="Helvetica,sans-Serif" font-weight="bold" font-size="10.00" fill="#707070">Namespace</text>
<text text-anchor="start" x="723.5" y="-148.6" font-family="Helvetica,sans-Serif" font-size="13.00" fill="#383838">default</text>
</g>
<!-- ConfigMap::postgres -->
<g id="node2" class="node">
<title>ConfigMap::postgres</title>
<polygon fill="none" stroke="#383838" points="660,-163.5 584,-163.5 584,-116.5 660,-116.5 660,-163.5"/>
<text text-anchor="start" x="596" y="-148" font-family="Helvetica,sans-Serif" font-weight="bold" font-size="10.00" fill="#707070">ConfigMap</text>
<text text-anchor="start" x="596" y="-127.6" font-family="Helvetica,sans-Serif" font-size="13.00" fill="#383838">postgres</text>
</g>
<!-- ConfigMap::postgres&#45;&gt;Namespace::default -->
<g id="edge1" class="edge">
<title>ConfigMap::postgres&#45;&gt;Namespace::default</title>
<path fill="none" stroke="#383838" d="M660.27,-146.19C672.93,-148.29 687.27,-150.67 700.7,-152.9"/>
<polygon fill="#383838" stroke="#383838" points="700.3,-156.38 710.74,-154.57 701.45,-149.48 700.3,-156.38"/>
</g>
<!-- StatefulSet::postgres -->
<g id="node3" class="node">
<title>StatefulSet::postgres</title>
<polygon fill="none" stroke="#383838" points="533,-143.5 457,-143.5 457,-96.5 533,-96.5 533,-143.5"/>
<text text-anchor="start" x="469" y="-128" font-family="Helvetica,sans-Serif" font-weight="bold" font-size="10.00" fill="#707070">StatefulSet</text>
<text text-anchor="start" x="469" y="-107.6" font-family="Helvetica,sans-Serif" font-size="13.00" fill="#383838">postgres</text>
</g>
<!-- StatefulSet::postgres&#45;&gt;Namespace::default -->
<g id="edge2" class="edge">
<title>StatefulSet::postgres&#45;&gt;Namespace::default</title>
<path fill="none" stroke="#383838" d="M533.3,-109.65C570.2,-101.21 627.83,-92.93 675,-108 689.99,-112.79 704.54,-121.81 716.74,-131.08"/>
<polygon fill="#383838" stroke="#383838" points="714.79,-134 724.8,-137.48 719.15,-128.52 714.79,-134"/>
</g>
<!-- StatefulSet::postgres&#45;&gt;ConfigMap::postgres -->
<g id="edge3" class="edge">
<title>StatefulSet::postgres&#45;&gt;ConfigMap::postgres</title>
<path fill="none" stroke="#383838" d="M533.17,-125.95C545.9,-127.98 560.32,-130.29 573.74,-132.44"/>
<polygon fill="#383838" stroke="#383838" points="573.33,-135.92 583.76,-134.04 574.44,-129.01 573.33,-135.92"/>
</g>
<!-- Service::postgres -->
<g id="node4" class="node">
<title>Service::postgres</title>
<polygon fill="none" stroke="#383838" points="414.5,-133.5 338.5,-133.5 338.5,-86.5 414.5,-86.5 414.5,-133.5"/>
<text text-anchor="start" x="350.5" y="-118" font-family="Helvetica,sans-Serif" font-weight="bold" font-size="10.00" fill="#707070">Service</text>
<text text-anchor="start" x="350.5" y="-97.6" font-family="Helvetica,sans-Serif" font-size="13.00" fill="#383838">postgres</text>
</g>
<!-- Service::postgres&#45;&gt;Namespace::default -->
<g id="edge4" class="edge">
<title>Service::postgres&#45;&gt;Namespace::default</title>
<path fill="none" stroke="#383838" d="M414.68,-97.48C427.88,-93.63 442.95,-89.91 457,-88 501.78,-81.92 674.07,-94.62 675,-95 693.32,-102.47 710.16,-116.47 723.18,-129.65"/>
<polygon fill="#383838" stroke="#383838" points="720.97,-132.41 730.38,-137.27 726.05,-127.6 720.97,-132.41"/>
</g>
<!-- Service::postgres&#45;&gt;StatefulSet::postgres -->
<g id="edge5" class="edge">
<title>Service::postgres&#45;&gt;StatefulSet::postgres</title>
<path fill="none" stroke="#383838" d="M414.68,-113.19C424.88,-114.07 436.06,-115.03 446.74,-115.94"/>
<polygon fill="#383838" stroke="#383838" points="446.51,-119.44 456.77,-116.8 447.11,-112.46 446.51,-119.44"/>
</g>
<!-- StatefulSet::redis -->
<g id="node5" class="node">
<title>StatefulSet::redis</title>
<polygon fill="none" stroke="#383838" points="659.5,-249.5 584.5,-249.5 584.5,-202.5 659.5,-202.5 659.5,-249.5"/>
<text text-anchor="start" x="597" y="-234" font-family="Helvetica,sans-Serif" font-weight="bold" font-size="10.00" fill="#707070">StatefulSet</text>
<text text-anchor="start" x="597" y="-213.6" font-family="Helvetica,sans-Serif" font-size="13.00" fill="#383838">redis</text>
</g>
<!-- StatefulSet::redis&#45;&gt;Namespace::default -->
<g id="edge6" class="edge">
<title>StatefulSet::redis&#45;&gt;Namespace::default</title>
<path fill="none" stroke="#383838" d="M659.59,-207.2C672.76,-200.43 687.81,-192.7 701.79,-185.51"/>
<polygon fill="#383838" stroke="#383838" points="703.49,-188.57 710.79,-180.89 700.29,-182.35 703.49,-188.57"/>
</g>
<!-- Service::redis -->
<g id="node6" class="node">
<title>Service::redis</title>
<polygon fill="none" stroke="#383838" points="524.5,-208.5 465.5,-208.5 465.5,-161.5 524.5,-161.5 524.5,-208.5"/>
<text text-anchor="start" x="478" y="-193" font-family="Helvetica,sans-Serif" font-weight="bold" font-size="10.00" fill="#707070">Service</text>
<text text-anchor="start" x="478" y="-172.6" font-family="Helvetica,sans-Serif" font-size="13.00" fill="#383838">redis</text>
</g>
<!-- Service::redis&#45;&gt;Namespace::default -->
<g id="edge7" class="edge">
<title>Service::redis&#45;&gt;Namespace::default</title>
<path fill="none" stroke="#383838" d="M524.6,-183.9C559.99,-182.35 622.08,-179.02 675,-173 683.42,-172.04 692.34,-170.8 700.97,-169.48"/>
<polygon fill="#383838" stroke="#383838" points="701.6,-172.93 710.93,-167.91 700.5,-166.01 701.6,-172.93"/>
</g>
<!-- Service::redis&#45;&gt;StatefulSet::redis -->
<g id="edge8" class="edge">
<title>Service::redis&#45;&gt;StatefulSet::redis</title>
<path fill="none" stroke="#383838" d="M524.68,-194.41C539.5,-199.27 557.95,-205.32 574.73,-210.82"/>
<polygon fill="#383838" stroke="#383838" points="573.78,-214.2 584.38,-213.99 575.96,-207.54 573.78,-214.2"/>
</g>
<!-- ConfigMap::rest&#45;server -->
<g id="node7" class="node">
<title>ConfigMap::rest&#45;server</title>
<polygon fill="none" stroke="#383838" points="421,-263.5 332,-263.5 332,-216.5 421,-216.5 421,-263.5"/>
<text text-anchor="start" x="344.5" y="-248" font-family="Helvetica,sans-Serif" font-weight="bold" font-size="10.00" fill="#707070">ConfigMap</text>
<text text-anchor="start" x="344.5" y="-227.6" font-family="Helvetica,sans-Serif" font-size="13.00" fill="#383838">rest&#45;server</text>
</g>
<!-- ConfigMap::rest&#45;server&#45;&gt;Namespace::default -->
<g id="edge9" class="edge">
<title>ConfigMap::rest&#45;server&#45;&gt;Namespace::default</title>
<path fill="none" stroke="#383838" d="M421.24,-248.08C492.89,-260.45 631.65,-280.5 675,-259 702.26,-245.48 722.24,-216.68 734.61,-193.79"/>
<polygon fill="#383838" stroke="#383838" points="737.82,-195.21 739.29,-184.71 731.6,-192 737.82,-195.21"/>
</g>
<!-- Deployment::rest -->
<g id="node8" class="node">
<title>Deployment::rest</title>
<polygon fill="none" stroke="#383838" points="296,-133.5 215,-133.5 215,-86.5 296,-86.5 296,-133.5"/>
<text text-anchor="start" x="227.5" y="-118" font-family="Helvetica,sans-Serif" font-weight="bold" font-size="10.00" fill="#707070">Deployment</text>
<text text-anchor="start" x="227.5" y="-97.6" font-family="Helvetica,sans-Serif" font-size="13.00" fill="#383838">rest</text>
</g>
<!-- Deployment::rest&#45;&gt;Namespace::default -->
<g id="edge10" class="edge">
<title>Deployment::rest&#45;&gt;Namespace::default</title>
<path fill="none" stroke="#383838" d="M296.29,-89.63C307.54,-84.85 320,-80.44 332,-78 404.58,-63.25 599.28,-50.84 675,-84 696.67,-93.49 715.2,-112.56 728.36,-129.34"/>
<polygon fill="#383838" stroke="#383838" points="725.57,-131.46 734.37,-137.35 731.16,-127.25 725.57,-131.46"/>
</g>
<!-- Deployment::rest&#45;&gt;Service::postgres -->
<g id="edge12" class="edge">
<title>Deployment::rest&#45;&gt;Service::postgres</title>
<path fill="none" stroke="#383838" d="M296.13,-110C306.48,-110 317.73,-110 328.43,-110"/>
<polygon fill="#383838" stroke="#383838" points="328.46,-113.5 338.46,-110 328.46,-106.5 328.46,-113.5"/>
</g>
<!-- Deployment::rest&#45;&gt;Service::redis -->
<g id="edge13" class="edge">
<title>Deployment::rest&#45;&gt;Service::redis</title>
<path fill="none" stroke="#383838" d="M296.39,-128.84C307.75,-133.82 320.24,-138.93 332,-143 373.26,-157.26 421.88,-169.25 455.02,-176.72"/>
<polygon fill="#383838" stroke="#383838" points="454.69,-180.23 465.21,-178.99 456.21,-173.4 454.69,-180.23"/>
</g>
<!-- Deployment::rest&#45;&gt;ConfigMap::rest&#45;server -->
<g id="edge11" class="edge">
<title>Deployment::rest&#45;&gt;ConfigMap::rest&#45;server</title>
<path fill="none" stroke="#383838" d="M278.05,-133.54C297.31,-154.58 325.66,-185.56 346.83,-208.68"/>
<polygon fill="#383838" stroke="#383838" points="344.37,-211.18 353.71,-216.19 349.54,-206.45 344.37,-211.18"/>
</g>
<!-- Service::rest -->
<g id="node9" class="node">
<title>Service::rest</title>
<polygon fill="none" stroke="#383838" points="179,-103.5 120,-103.5 120,-56.5 179,-56.5 179,-103.5"/>
<text text-anchor="start" x="132.5" y="-88" font-family="Helvetica,sans-Serif" font-weight="bold" font-size="10.00" fill="#707070">Service</text>
<text text-anchor="start" x="132.5" y="-67.6" font-family="Helvetica,sans-Serif" font-size="13.00" fill="#383838">rest</text>
</g>
<!-- Service::rest&#45;&gt;Namespace::default -->
<g id="edge14" class="edge">
<title>Service::rest&#45;&gt;Namespace::default</title>
<path fill="none" stroke="#383838" d="M179.29,-70.88C221.76,-58.26 303.91,-37 375.5,-37 375.5,-37 375.5,-37 496,-37 576.21,-37 605.86,-19.35 675,-60 701.74,-75.72 721.78,-105.2 734.31,-128.27"/>
<polygon fill="#383838" stroke="#383838" points="731.33,-130.13 739.05,-137.38 737.54,-126.9 731.33,-130.13"/>
</g>
<!-- Service::rest&#45;&gt;Deployment::rest -->
<g id="edge15" class="edge">
<title>Service::rest&#45;&gt;Deployment::rest</title>
<path fill="none" stroke="#383838" d="M179.19,-88.28C187.14,-90.57 196.01,-93.13 204.79,-95.66"/>
<polygon fill="#383838" stroke="#383838" points="204.03,-99.09 214.61,-98.49 205.97,-92.36 204.03,-99.09"/>
</g>
<!-- Deployment::web -->
<g id="node10" class="node">
<title>Deployment::web</title>
<polygon fill="none" stroke="#383838" points="662.5,-355.5 581.5,-355.5 581.5,-308.5 662.5,-308.5 662.5,-355.5"/>
<text text-anchor="start" x="594" y="-340" font-family="Helvetica,sans-Serif" font-weight="bold" font-size="10.00" fill="#707070">Deployment</text>
<text text-anchor="start" x="594" y="-319.6" font-family="Helvetica,sans-Serif" font-size="13.00" fill="#383838">web</text>
</g>
<!-- Deployment::web&#45;&gt;Namespace::default -->
<g id="edge16" class="edge">
<title>Deployment::web&#45;&gt;Namespace::default</title>
<path fill="none" stroke="#383838" d="M659.68,-308.33C665.16,-303.93 670.48,-299.1 675,-294 701.81,-263.75 723.15,-222.25 736,-193.7"/>
<polygon fill="#383838" stroke="#383838" points="739.2,-195.11 740.03,-184.54 732.8,-192.29 739.2,-195.11"/>
</g>
<!-- Service::web -->
<g id="node11" class="node">
<title>Service::web</title>
<polygon fill="none" stroke="#383838" points="524.5,-335.5 465.5,-335.5 465.5,-288.5 524.5,-288.5 524.5,-335.5"/>
<text text-anchor="start" x="478" y="-320" font-family="Helvetica,sans-Serif" font-weight="bold" font-size="10.00" fill="#707070">Service</text>
<text text-anchor="start" x="478" y="-299.6" font-family="Helvetica,sans-Serif" font-size="13.00" fill="#383838">web</text>
</g>
<!-- Service::web&#45;&gt;Namespace::default -->
<g id="edge17" class="edge">
<title>Service::web&#45;&gt;Namespace::default</title>
<path fill="none" stroke="#383838" d="M524.57,-307.16C571.91,-298.96 662.66,-282.41 675,-274 703.57,-254.51 723.92,-220.08 736.05,-194.32"/>
<polygon fill="#383838" stroke="#383838" points="739.37,-195.48 740.3,-184.93 732.99,-192.6 739.37,-195.48"/>
</g>
<!-- Service::web&#45;&gt;Deployment::web -->
<g id="edge18" class="edge">
<title>Service::web&#45;&gt;Deployment::web</title>
<path fill="none" stroke="#383838" d="M524.68,-316.59C538.39,-318.78 555.22,-321.48 570.95,-323.99"/>
<polygon fill="#383838" stroke="#383838" points="570.66,-327.49 581.09,-325.61 571.77,-320.58 570.66,-327.49"/>
</g>
<!-- PersistentVolume::pv&#45;db -->
<g id="node12" class="node">
<title>PersistentVolume::pv&#45;db</title>
<polygon fill="none" stroke="#383838" points="675,-420.5 569,-420.5 569,-373.5 675,-373.5 675,-420.5"/>
<text text-anchor="start" x="581" y="-405" font-family="Helvetica,sans-Serif" font-weight="bold" font-size="10.00" fill="#707070">PersistentVolume</text>
<text text-anchor="start" x="581" y="-384.6" font-family="Helvetica,sans-Serif" font-size="13.00" fill="#383838">pv&#45;db</text>
</g>
<!-- PersistentVolume::pv&#45;db&#45;&gt;Namespace::default -->
<g id="edge19" class="edge">
<title>PersistentVolume::pv&#45;db&#45;&gt;Namespace::default</title>
<path fill="none" stroke="#383838" d="M666.86,-373.27C669.82,-370.71 672.59,-367.96 675,-365 716.52,-314.14 736.03,-238.08 744.26,-194.63"/>
<polygon fill="#383838" stroke="#383838" points="747.74,-195.05 746.07,-184.59 740.85,-193.81 747.74,-195.05"/>
</g>
<!-- Ingress::ingress -->
<g id="node13" class="node">
<title>Ingress::ingress</title>
<polygon fill="none" stroke="#383838" points="84,-103.5 16,-103.5 16,-56.5 84,-56.5 84,-103.5"/>
<text text-anchor="start" x="28" y="-88" font-family="Helvetica,sans-Serif" font-weight="bold" font-size="10.00" fill="#707070">Ingress</text>
<text text-anchor="start" x="28" y="-67.6" font-family="Helvetica,sans-Serif" font-size="13.00" fill="#383838">ingress</text>
</g>
<!-- Ingress::ingress&#45;&gt;Namespace::default -->
<g id="edge20" class="edge">
<title>Ingress::ingress&#45;&gt;Namespace::default</title>
<path fill="none" stroke="#383838" d="M84.23,-62.95C123.74,-44.29 192.18,-17 254.5,-17 254.5,-17 254.5,-17 496,-17 575.77,-17 607.55,12.58 675,-30 709.94,-52.05 730.12,-96.74 740.46,-127.75"/>
<polygon fill="#383838" stroke="#383838" points="737.12,-128.82 743.47,-137.3 743.8,-126.71 737.12,-128.82"/>
</g>
<!-- Ingress::ingress&#45;&gt;Service::rest -->
<g id="edge22" class="edge">
<title>Ingress::ingress&#45;&gt;Service::rest</title>
<path fill="none" stroke="#383838" d="M84.01,-80C92.26,-80 101.18,-80 109.68,-80"/>
<polygon fill="#383838" stroke="#383838" points="109.77,-83.5 119.77,-80 109.77,-76.5 109.77,-83.5"/>
</g>
<!-- Ingress::ingress&#45;&gt;Service::web -->
<g id="edge21" class="edge">
<title>Ingress::ingress&#45;&gt;Service::web</title>
<path fill="none" stroke="#383838" d="M78.05,-103.71C125.91,-144.42 230.09,-227.61 332,-273 372.23,-290.92 421.91,-301.32 455.57,-306.81"/>
<polygon fill="#383838" stroke="#383838" points="455.05,-310.27 465.47,-308.35 456.13,-303.35 455.05,-310.27"/>
</g>
</g>
</svg>
