<?xml version="1.0" encoding="UTF-8" standalone="no"?><svg xmlns="http://www.w3.org/2000/svg" xmlns:xlink="http://www.w3.org/1999/xlink" contentStyleType="text/css" height="454px" preserveAspectRatio="none" style="width:519px;height:454px;background:#FFFFFF;" version="1.1" viewBox="0 0 519 454" width="519px" zoomAndPan="magnify"><defs/><g><rect height="26.4883" style="stroke:#00000000;stroke-width:1.0;fill:none;" width="439" x="15" y="15"/><text fill="#000000" font-family="sans-serif" font-size="14" font-weight="bold" lengthAdjust="spacing" textLength="429" x="20" y="33.5352">Resources for project memorydb-parameter-group-default</text><rect fill="#F1F1F1" height="36.4883" rx="12.5" ry="12.5" style="stroke:#181818;stroke-width:1.5;" width="52" x="12.5" y="226.9531"/><text fill="#000000" font-family="sans-serif" font-size="14" lengthAdjust="spacing" textLength="32" x="22.5" y="250.4883">Infra</text><rect fill="#F1F1F1" height="36.4883" rx="12.5" ry="12.5" style="stroke:#181818;stroke-width:1.5;" width="46" x="114.5" y="226.9531"/><text fill="#000000" font-family="sans-serif" font-size="14" lengthAdjust="spacing" textLength="26" x="124.5" y="250.4883">aws</text><rect fill="#F1F1F1" height="36.4883" rx="12.5" ry="12.5" style="stroke:#181818;stroke-width:1.5;" width="47" x="210.5" y="170.4648"/><text fill="#000000" font-family="sans-serif" font-size="14" lengthAdjust="spacing" textLength="27" x="220.5" y="194">EC2</text><rect fill="#F1F1F1" height="36.4883" rx="12.5" ry="12.5" style="stroke:#181818;stroke-width:1.5;" width="121" x="307.5" y="57.4883"/><text fill="#000000" font-family="sans-serif" font-size="14" lengthAdjust="spacing" textLength="101" x="317.5" y="81.0234">RouteTable (2)</text><path d="M257.5,188.709 L267.5,188.709 C282.5,188.709 282.5,75.7324 297.5,75.7324 L307.5,75.7324 " fill="none" style="stroke:#181818;stroke-width:1.0;"/><rect fill="#F1F1F1" height="36.4883" rx="12.5" ry="12.5" style="stroke:#181818;stroke-width:1.5;" width="200" x="307.5" y="113.9766"/><text fill="#000000" font-family="sans-serif" font-size="14" lengthAdjust="spacing" textLength="180" x="317.5" y="137.5117">RouteTableAssociation (2)</text><path d="M257.5,188.709 L267.5,188.709 C282.5,188.709 282.5,132.2207 297.5,132.2207 L307.5,132.2207 " fill="none" style="stroke:#181818;stroke-width:1.0;"/><rect fill="#F1F1F1" height="36.4883" rx="12.5" ry="12.5" style="stroke:#181818;stroke-width:1.5;" width="140" x="307.5" y="170.4648"/><text fill="#000000" font-family="sans-serif" font-size="14" lengthAdjust="spacing" textLength="120" x="317.5" y="194">SecurityGroup (1)</text><path d="M257.5,188.709 L267.5,188.709 C282.5,188.709 282.5,188.709 297.5,188.709 L307.5,188.709 " fill="none" style="stroke:#181818;stroke-width:1.0;"/><rect fill="#F1F1F1" height="36.4883" rx="12.5" ry="12.5" style="stroke:#181818;stroke-width:1.5;" width="91" x="307.5" y="226.9531"/><text fill="#000000" font-family="sans-serif" font-size="14" lengthAdjust="spacing" textLength="71" x="317.5" y="250.4883">Subnet (2)</text><path d="M257.5,188.709 L267.5,188.709 C282.5,188.709 282.5,245.1973 297.5,245.1973 L307.5,245.1973 " fill="none" style="stroke:#181818;stroke-width:1.0;"/><rect fill="#F1F1F1" height="36.4883" rx="12.5" ry="12.5" style="stroke:#181818;stroke-width:1.5;" width="68" x="307.5" y="283.4414"/><text fill="#000000" font-family="sans-serif" font-size="14" lengthAdjust="spacing" textLength="48" x="317.5" y="306.9766">Vpc (1)</text><path d="M257.5,188.709 L267.5,188.709 C282.5,188.709 282.5,301.6855 297.5,301.6855 L307.5,301.6855 " fill="none" style="stroke:#181818;stroke-width:1.0;"/><path d="M160.5,245.1973 L170.5,245.1973 C185.5,245.1973 185.5,188.709 200.5,188.709 L210.5,188.709 " fill="none" style="stroke:#181818;stroke-width:1.0;"/><rect fill="#F1F1F1" height="36.4883" rx="12.5" ry="12.5" style="stroke:#181818;stroke-width:1.5;" width="93" x="210.5" y="368.1738"/><text fill="#000000" font-family="sans-serif" font-size="14" lengthAdjust="spacing" textLength="73" x="220.5" y="391.709">MemoryDB</text><rect fill="#F1F1F1" height="36.4883" rx="12.5" ry="12.5" style="stroke:#181818;stroke-width:1.5;" width="92" x="353.5" y="339.9297"/><text fill="#000000" font-family="sans-serif" font-size="14" lengthAdjust="spacing" textLength="72" x="363.5" y="363.4648">Cluster (1)</text><path d="M303.5,386.418 L313.5,386.418 C328.5,386.418 328.5,358.1738 343.5,358.1738 L353.5,358.1738 " fill="none" style="stroke:#181818;stroke-width:1.0;"/><rect fill="#F1F1F1" height="36.4883" rx="12.5" ry="12.5" style="stroke:#181818;stroke-width:1.5;" width="134" x="353.5" y="396.418"/><text fill="#000000" font-family="sans-serif" font-size="14" lengthAdjust="spacing" textLength="114" x="363.5" y="419.9531">SubnetGroup (1)</text><path d="M303.5,386.418 L313.5,386.418 C328.5,386.418 328.5,414.6621 343.5,414.6621 L353.5,414.6621 " fill="none" style="stroke:#181818;stroke-width:1.0;"/><path d="M160.5,245.1973 L170.5,245.1973 C185.5,245.1973 185.5,386.418 200.5,386.418 L210.5,386.418 " fill="none" style="stroke:#181818;stroke-width:1.0;"/><path d="M64.5,245.1973 L74.5,245.1973 C89.5,245.1973 89.5,245.1973 104.5,245.1973 L114.5,245.1973 " fill="none" style="stroke:#181818;stroke-width:1.0;"/><!--MD5=[ac9f597f833c6d854d7aab71b4c52bfe]
@startmindmap
title Resources for project memorydb-parameter-group-default
skinparam monochrome true
+ Infra
++ aws
+++ EC2
++++ RouteTable (2)
++++ RouteTableAssociation (2)
++++ SecurityGroup (1)
++++ Subnet (2)
++++ Vpc (1)
+++ MemoryDB
++++ Cluster (1)
++++ SubnetGroup (1)
@endmindmap

PlantUML version 1.2022.6(Tue Jun 21 19:34:49 CEST 2022)
(GPL source distribution)
Java Runtime: Java(TM) SE Runtime Environment
JVM: Java HotSpot(TM) 64-Bit Server VM
Default Encoding: UTF-8
Language: en
Country: GB
--></g></svg>