<?xml version="1.0" encoding="UTF-8" standalone="no"?>
<!DOCTYPE svg PUBLIC "-//W3C//DTD SVG 1.1//EN"
 "http://www.w3.org/Graphics/SVG/1.1/DTD/svg11.dtd">
<!-- Generated by graphviz version 3.0.0 (20220226.1711)
 -->
<!-- Title: graphname Pages: 1 -->
<svg width="1139pt" height="1024pt"
 viewBox="0.00 0.00 1139.00 1023.72" xmlns="http://www.w3.org/2000/svg" xmlns:xlink="http://www.w3.org/1999/xlink">
<g id="graph0" class="graph" transform="scale(1 1) rotate(0) translate(4 1019.72)">
<title>graphname</title>
<polygon fill="#fafafa" stroke="transparent" points="-4,4 -4,-1019.72 1135,-1019.72 1135,4 -4,4"/>
<text text-anchor="start" x="469.5" y="-991.12" font-family="Helvetica,sans-Serif" font-weight="bold" font-size="22.00" fill="#383838">Project eks&#45;simple</text>
<text text-anchor="start" x="562" y="-975.52" font-family="Helvetica,sans-Serif" font-size="14.00"> &#160;</text>
<text text-anchor="start" x="469.5" y="-953.92" font-family="Helvetica,sans-Serif" font-weight="bold" font-size="16.00" fill="#707070">Live Diagram</text>
<g id="clust1" class="cluster">
<title>cluster_aws</title>
<polygon fill="#f5f5f5" stroke="#f5f5f5" points="8,-8 8,-913 1123,-913 1123,-8 8,-8"/>
<text text-anchor="start" x="503.5" y="-23" font-family="Helvetica,sans-Serif" font-weight="bold" font-size="20.00" fill="#707070">Provider aws</text>
</g>
<g id="clust2" class="cluster">
<title>cluster_aws_</title>
<polygon fill="#eeeeee" stroke="#eeeeee" points="16,-54 16,-905 1115,-905 1115,-54 16,-54"/>
<text text-anchor="start" x="565.36" y="-58.3" font-family="Helvetica,sans-Serif" font-size="1.00" fill="#383838"> </text>
</g>
<!-- ElasticIpAddress::::NATIP -->
<g id="node1" class="node">
<title>ElasticIpAddress::::NATIP</title>
<polygon fill="#e5e5e5" stroke="#dddddd" points="932,-705 736,-705 736,-647 932,-647 932,-705"/>
<text text-anchor="start" x="748" y="-685.2" font-family="Helvetica,sans-Serif" font-weight="bold" font-size="16.00" fill="#707070">EC2::ElasticIpAddress</text>
<text text-anchor="start" x="748" y="-660.2" font-family="Helvetica,sans-Serif" font-size="16.00" fill="#383838">NATIP</text>
</g>
<!-- InternetGateway::::InternetGateway -->
<g id="node2" class="node">
<title>InternetGateway::::InternetGateway</title>
<polygon fill="#e5e5e5" stroke="#dddddd" points="929.5,-877 738.5,-877 738.5,-819 929.5,-819 929.5,-877"/>
<text text-anchor="start" x="751" y="-857.2" font-family="Helvetica,sans-Serif" font-weight="bold" font-size="16.00" fill="#707070">EC2::InternetGateway</text>
<text text-anchor="start" x="751" y="-832.2" font-family="Helvetica,sans-Serif" font-size="16.00" fill="#383838">InternetGateway</text>
</g>
<!-- Vpc::::VPC -->
<g id="node24" class="node">
<title>Vpc::::VPC</title>
<polygon fill="#e5e5e5" stroke="#dddddd" points="1107,-533 1012,-533 1012,-475 1107,-475 1107,-533"/>
<text text-anchor="start" x="1024.5" y="-513.2" font-family="Helvetica,sans-Serif" font-weight="bold" font-size="16.00" fill="#707070">EC2::Vpc</text>
<text text-anchor="start" x="1024.5" y="-488.2" font-family="Helvetica,sans-Serif" font-size="16.00" fill="#383838">VPC</text>
</g>
<!-- InternetGateway::::InternetGateway&#45;&gt;Vpc::::VPC -->
<g id="edge1" class="edge">
<title>InternetGateway::::InternetGateway&#45;&gt;Vpc::::VPC</title>
<path fill="none" stroke="#707070" d="M929.64,-833.5C946.85,-827.14 963.34,-818.03 976,-805 1046.11,-732.86 1057.92,-607.04 1059.12,-543.34"/>
<polygon fill="#707070" stroke="#707070" points="1062.62,-543.34 1059.23,-533.3 1055.62,-543.26 1062.62,-543.34"/>
</g>
<!-- InternetGatewayAttachment::::ig&#45;attach::InternetGateway::VPC -->
<g id="node3" class="node">
<title>InternetGatewayAttachment::::ig&#45;attach::InternetGateway::VPC</title>
<polygon fill="#e5e5e5" stroke="#dddddd" points="649.5,-897 370.5,-897 370.5,-839 649.5,-839 649.5,-897"/>
<text text-anchor="start" x="383" y="-877.2" font-family="Helvetica,sans-Serif" font-weight="bold" font-size="16.00" fill="#707070">EC2::InternetGatewayAttachment</text>
<text text-anchor="start" x="383" y="-852.2" font-family="Helvetica,sans-Serif" font-size="16.00" fill="#383838">ig&#45;attach::InternetGateway::VPC</text>
</g>
<!-- InternetGatewayAttachment::::ig&#45;attach::InternetGateway::VPC&#45;&gt;InternetGateway::::InternetGateway -->
<g id="edge3" class="edge">
<title>InternetGatewayAttachment::::ig&#45;attach::InternetGateway::VPC&#45;&gt;InternetGateway::::InternetGateway</title>
<path fill="none" stroke="#707070" d="M649.89,-859.37C676.07,-857.75 703.05,-856.07 727.98,-854.52"/>
<polygon fill="#707070" stroke="#707070" points="728.4,-858 738.16,-853.89 727.96,-851.02 728.4,-858"/>
</g>
<!-- InternetGatewayAttachment::::ig&#45;attach::InternetGateway::VPC&#45;&gt;Vpc::::VPC -->
<g id="edge2" class="edge">
<title>InternetGatewayAttachment::::ig&#45;attach::InternetGateway::VPC&#45;&gt;Vpc::::VPC</title>
<path fill="none" stroke="#707070" d="M582.61,-897C682.49,-932.21 863.94,-976.44 976,-886 1029.08,-843.16 1049.67,-631.95 1056.07,-543.29"/>
<polygon fill="#707070" stroke="#707070" points="1059.57,-543.32 1056.78,-533.1 1052.59,-542.84 1059.57,-543.32"/>
</g>
<!-- LaunchTemplate::::eksctl&#45;my&#45;cluster&#45;nodegroup&#45;ng&#45;1 -->
<g id="node4" class="node">
<title>LaunchTemplate::::eksctl&#45;my&#45;cluster&#45;nodegroup&#45;ng&#45;1</title>
<polygon fill="#e5e5e5" stroke="#dddddd" points="650,-225 370,-225 370,-167 650,-167 650,-225"/>
<text text-anchor="start" x="382" y="-205.2" font-family="Helvetica,sans-Serif" font-weight="bold" font-size="16.00" fill="#707070">EC2::LaunchTemplate</text>
<text text-anchor="start" x="382" y="-180.2" font-family="Helvetica,sans-Serif" font-size="16.00" fill="#383838">eksctl&#45;my&#45;cluster&#45;nodegroup&#45;ng&#45;1...</text>
</g>
<!-- SecurityGroup::::sg::VPC::eks&#45;cluster&#45;sg&#45;my&#45;cluster&#45;1909614887 -->
<g id="node18" class="node">
<title>SecurityGroup::::sg::VPC::eks&#45;cluster&#45;sg&#45;my&#45;cluster&#45;1909614887</title>
<polygon fill="#e5e5e5" stroke="#dddddd" points="970.5,-171 697.5,-171 697.5,-113 970.5,-113 970.5,-171"/>
<text text-anchor="start" x="710" y="-151.2" font-family="Helvetica,sans-Serif" font-weight="bold" font-size="16.00" fill="#707070">EC2::SecurityGroup</text>
<text text-anchor="start" x="710" y="-126.2" font-family="Helvetica,sans-Serif" font-size="16.00" fill="#383838">sg::VPC::eks&#45;cluster&#45;sg&#45;my&#45;clust...</text>
</g>
<!-- LaunchTemplate::::eksctl&#45;my&#45;cluster&#45;nodegroup&#45;ng&#45;1&#45;&gt;SecurityGroup::::sg::VPC::eks&#45;cluster&#45;sg&#45;my&#45;cluster&#45;1909614887 -->
<g id="edge4" class="edge">
<title>LaunchTemplate::::eksctl&#45;my&#45;cluster&#45;nodegroup&#45;ng&#45;1&#45;&gt;SecurityGroup::::sg::VPC::eks&#45;cluster&#45;sg&#45;my&#45;cluster&#45;1909614887</title>
<path fill="none" stroke="#707070" d="M650.36,-172.63C662.51,-170.59 674.83,-168.53 687.03,-166.48"/>
<polygon fill="#707070" stroke="#707070" points="687.96,-169.87 697.25,-164.77 686.8,-162.97 687.96,-169.87"/>
</g>
<!-- NatGateway::::NATGateway -->
<g id="node5" class="node">
<title>NatGateway::::NATGateway</title>
<polygon fill="#e5e5e5" stroke="#dddddd" points="589,-725 431,-725 431,-667 589,-667 589,-725"/>
<text text-anchor="start" x="443" y="-705.2" font-family="Helvetica,sans-Serif" font-weight="bold" font-size="16.00" fill="#707070">EC2::NatGateway</text>
<text text-anchor="start" x="443" y="-680.2" font-family="Helvetica,sans-Serif" font-size="16.00" fill="#383838">NATGateway</text>
</g>
<!-- NatGateway::::NATGateway&#45;&gt;ElasticIpAddress::::NATIP -->
<g id="edge6" class="edge">
<title>NatGateway::::NATGateway&#45;&gt;ElasticIpAddress::::NATIP</title>
<path fill="none" stroke="#707070" d="M589.36,-691.13C630.38,-688.59 681.21,-685.43 725.82,-682.66"/>
<polygon fill="#707070" stroke="#707070" points="726.06,-686.15 735.83,-682.04 725.63,-679.16 726.06,-686.15"/>
</g>
<!-- Subnet::::SubnetPublicUSEAST1F -->
<g id="node23" class="node">
<title>Subnet::::SubnetPublicUSEAST1F</title>
<polygon fill="#e5e5e5" stroke="#dddddd" points="935,-533 733,-533 733,-475 935,-475 935,-533"/>
<text text-anchor="start" x="745" y="-513.2" font-family="Helvetica,sans-Serif" font-weight="bold" font-size="16.00" fill="#707070">EC2::Subnet</text>
<text text-anchor="start" x="745" y="-488.2" font-family="Helvetica,sans-Serif" font-size="16.00" fill="#383838">SubnetPublicUSEAST1F</text>
</g>
<!-- NatGateway::::NATGateway&#45;&gt;Subnet::::SubnetPublicUSEAST1F -->
<g id="edge5" class="edge">
<title>NatGateway::::NATGateway&#45;&gt;Subnet::::SubnetPublicUSEAST1F</title>
<path fill="none" stroke="#707070" d="M589.16,-678.02C613.11,-669.28 637.89,-656.51 656,-638 687.87,-605.43 658.28,-572.65 692,-542 701.18,-533.66 712,-527.12 723.5,-521.99"/>
<polygon fill="#707070" stroke="#707070" points="724.91,-525.2 732.85,-518.18 722.27,-518.72 724.91,-525.2"/>
</g>
<!-- Route::::PrivateRouteTableUSEAST1D&#45;nat&#45;gateway -->
<g id="node6" class="node">
<title>Route::::PrivateRouteTableUSEAST1D&#45;nat&#45;gateway</title>
<polygon fill="#e5e5e5" stroke="#dddddd" points="328,-801 24,-801 24,-743 328,-743 328,-801"/>
<text text-anchor="start" x="36" y="-781.2" font-family="Helvetica,sans-Serif" font-weight="bold" font-size="16.00" fill="#707070">EC2::Route</text>
<text text-anchor="start" x="36" y="-756.2" font-family="Helvetica,sans-Serif" font-size="16.00" fill="#383838">PrivateRouteTableUSEAST1D&#45;nat&#45;ga...</text>
</g>
<!-- Route::::PrivateRouteTableUSEAST1D&#45;nat&#45;gateway&#45;&gt;NatGateway::::NATGateway -->
<g id="edge8" class="edge">
<title>Route::::PrivateRouteTableUSEAST1D&#45;nat&#45;gateway&#45;&gt;NatGateway::::NATGateway</title>
<path fill="none" stroke="#707070" d="M303.94,-742.94C342.92,-734.02 384.96,-724.4 420.76,-716.2"/>
<polygon fill="#707070" stroke="#707070" points="421.72,-719.57 430.68,-713.93 420.15,-712.75 421.72,-719.57"/>
</g>
<!-- RouteTable::::PrivateRouteTableUSEAST1D -->
<g id="node9" class="node">
<title>RouteTable::::PrivateRouteTableUSEAST1D</title>
<polygon fill="#e5e5e5" stroke="#dddddd" points="630,-801 390,-801 390,-743 630,-743 630,-801"/>
<text text-anchor="start" x="402" y="-781.2" font-family="Helvetica,sans-Serif" font-weight="bold" font-size="16.00" fill="#707070">EC2::RouteTable</text>
<text text-anchor="start" x="402" y="-756.2" font-family="Helvetica,sans-Serif" font-size="16.00" fill="#383838">PrivateRouteTableUSEAST1D</text>
</g>
<!-- Route::::PrivateRouteTableUSEAST1D&#45;nat&#45;gateway&#45;&gt;RouteTable::::PrivateRouteTableUSEAST1D -->
<g id="edge7" class="edge">
<title>Route::::PrivateRouteTableUSEAST1D&#45;nat&#45;gateway&#45;&gt;RouteTable::::PrivateRouteTableUSEAST1D</title>
<path fill="none" stroke="#707070" d="M328.43,-772C345.42,-772 362.62,-772 379.31,-772"/>
<polygon fill="#707070" stroke="#707070" points="379.62,-775.5 389.62,-772 379.62,-768.5 379.62,-775.5"/>
</g>
<!-- Route::::PrivateRouteTableUSEAST1F&#45;nat&#45;gateway -->
<g id="node7" class="node">
<title>Route::::PrivateRouteTableUSEAST1F&#45;nat&#45;gateway</title>
<polygon fill="#e5e5e5" stroke="#dddddd" points="327.5,-725 24.5,-725 24.5,-667 327.5,-667 327.5,-725"/>
<text text-anchor="start" x="37" y="-705.2" font-family="Helvetica,sans-Serif" font-weight="bold" font-size="16.00" fill="#707070">EC2::Route</text>
<text text-anchor="start" x="37" y="-680.2" font-family="Helvetica,sans-Serif" font-size="16.00" fill="#383838">PrivateRouteTableUSEAST1F&#45;nat&#45;ga...</text>
</g>
<!-- Route::::PrivateRouteTableUSEAST1F&#45;nat&#45;gateway&#45;&gt;NatGateway::::NATGateway -->
<g id="edge10" class="edge">
<title>Route::::PrivateRouteTableUSEAST1F&#45;nat&#45;gateway&#45;&gt;NatGateway::::NATGateway</title>
<path fill="none" stroke="#707070" d="M327.94,-696C359.67,-696 392.15,-696 420.67,-696"/>
<polygon fill="#707070" stroke="#707070" points="420.99,-699.5 430.99,-696 420.99,-692.5 420.99,-699.5"/>
</g>
<!-- RouteTable::::PrivateRouteTableUSEAST1F -->
<g id="node10" class="node">
<title>RouteTable::::PrivateRouteTableUSEAST1F</title>
<polygon fill="#e5e5e5" stroke="#dddddd" points="629,-629 391,-629 391,-571 629,-571 629,-629"/>
<text text-anchor="start" x="403" y="-609.2" font-family="Helvetica,sans-Serif" font-weight="bold" font-size="16.00" fill="#707070">EC2::RouteTable</text>
<text text-anchor="start" x="403" y="-584.2" font-family="Helvetica,sans-Serif" font-size="16.00" fill="#383838">PrivateRouteTableUSEAST1F</text>
</g>
<!-- Route::::PrivateRouteTableUSEAST1F&#45;nat&#45;gateway&#45;&gt;RouteTable::::PrivateRouteTableUSEAST1F -->
<g id="edge9" class="edge">
<title>Route::::PrivateRouteTableUSEAST1F&#45;nat&#45;gateway&#45;&gt;RouteTable::::PrivateRouteTableUSEAST1F</title>
<path fill="none" stroke="#707070" d="M295.48,-666.95C306.5,-664.02 317.47,-661.01 328,-658 355.67,-650.09 385.5,-640.84 412.8,-632.08"/>
<polygon fill="#707070" stroke="#707070" points="413.9,-635.4 422.34,-629 411.75,-628.74 413.9,-635.4"/>
</g>
<!-- Route::::PublicRouteTable&#45;igw -->
<g id="node8" class="node">
<title>Route::::PublicRouteTable&#45;igw</title>
<polygon fill="#e5e5e5" stroke="#dddddd" points="266,-573 86,-573 86,-515 266,-515 266,-573"/>
<text text-anchor="start" x="98" y="-553.2" font-family="Helvetica,sans-Serif" font-weight="bold" font-size="16.00" fill="#707070">EC2::Route</text>
<text text-anchor="start" x="98" y="-528.2" font-family="Helvetica,sans-Serif" font-size="16.00" fill="#383838">PublicRouteTable&#45;igw</text>
</g>
<!-- Route::::PublicRouteTable&#45;igw&#45;&gt;InternetGateway::::InternetGateway -->
<g id="edge12" class="edge">
<title>Route::::PublicRouteTable&#45;igw&#45;&gt;InternetGateway::::InternetGateway</title>
<path fill="none" stroke="#707070" d="M266.1,-554.77C287.77,-560.42 309.89,-568.99 328,-582 352.03,-599.26 338.53,-622.94 364,-638 419.99,-671.1 605.69,-616.78 656,-658 703.04,-696.54 651.75,-744.42 692,-790 702.28,-801.64 715.25,-810.99 729.13,-818.48"/>
<polygon fill="#707070" stroke="#707070" points="727.87,-821.77 738.37,-823.15 731.02,-815.52 727.87,-821.77"/>
</g>
<!-- RouteTable::::PublicRouteTable -->
<g id="node11" class="node">
<title>RouteTable::::PublicRouteTable</title>
<polygon fill="#e5e5e5" stroke="#dddddd" points="585.5,-513 434.5,-513 434.5,-455 585.5,-455 585.5,-513"/>
<text text-anchor="start" x="447" y="-493.2" font-family="Helvetica,sans-Serif" font-weight="bold" font-size="16.00" fill="#707070">EC2::RouteTable</text>
<text text-anchor="start" x="447" y="-468.2" font-family="Helvetica,sans-Serif" font-size="16.00" fill="#383838">PublicRouteTable</text>
</g>
<!-- Route::::PublicRouteTable&#45;igw&#45;&gt;RouteTable::::PublicRouteTable -->
<g id="edge11" class="edge">
<title>Route::::PublicRouteTable&#45;igw&#45;&gt;RouteTable::::PublicRouteTable</title>
<path fill="none" stroke="#707070" d="M266.41,-527.84C315.45,-518.98 375.91,-508.05 424.2,-499.32"/>
<polygon fill="#707070" stroke="#707070" points="425.1,-502.72 434.32,-497.5 423.85,-495.83 425.1,-502.72"/>
</g>
<!-- Subnet::::SubnetPrivateUSEAST1D -->
<g id="node20" class="node">
<title>Subnet::::SubnetPrivateUSEAST1D</title>
<polygon fill="#e5e5e5" stroke="#dddddd" points="938.5,-781 729.5,-781 729.5,-723 938.5,-723 938.5,-781"/>
<text text-anchor="start" x="742" y="-761.2" font-family="Helvetica,sans-Serif" font-weight="bold" font-size="16.00" fill="#707070">EC2::Subnet</text>
<text text-anchor="start" x="742" y="-736.2" font-family="Helvetica,sans-Serif" font-size="16.00" fill="#383838">SubnetPrivateUSEAST1D</text>
</g>
<!-- RouteTable::::PrivateRouteTableUSEAST1D&#45;&gt;Subnet::::SubnetPrivateUSEAST1D -->
<g id="edge14" class="edge">
<title>RouteTable::::PrivateRouteTableUSEAST1D&#45;&gt;Subnet::::SubnetPrivateUSEAST1D</title>
<path fill="none" stroke="#707070" d="M630.44,-764.58C659.5,-762.78 690.5,-760.85 719.28,-759.06"/>
<polygon fill="#707070" stroke="#707070" points="719.6,-762.55 729.37,-758.44 719.17,-755.56 719.6,-762.55"/>
</g>
<!-- RouteTable::::PrivateRouteTableUSEAST1D&#45;&gt;Vpc::::VPC -->
<g id="edge13" class="edge">
<title>RouteTable::::PrivateRouteTableUSEAST1D&#45;&gt;Vpc::::VPC</title>
<path fill="none" stroke="#707070" d="M630.14,-785.54C650.74,-787.4 671.97,-789.01 692,-790 755.03,-793.13 925.57,-827.94 976,-790 1015.66,-760.17 1042.24,-614.13 1053.05,-543.03"/>
<polygon fill="#707070" stroke="#707070" points="1056.52,-543.52 1054.53,-533.11 1049.59,-542.49 1056.52,-543.52"/>
</g>
<!-- Subnet::::SubnetPrivateUSEAST1F -->
<g id="node21" class="node">
<title>Subnet::::SubnetPrivateUSEAST1F</title>
<polygon fill="#e5e5e5" stroke="#dddddd" points="938,-609 730,-609 730,-551 938,-551 938,-609"/>
<text text-anchor="start" x="742" y="-589.2" font-family="Helvetica,sans-Serif" font-weight="bold" font-size="16.00" fill="#707070">EC2::Subnet</text>
<text text-anchor="start" x="742" y="-564.2" font-family="Helvetica,sans-Serif" font-size="16.00" fill="#383838">SubnetPrivateUSEAST1F</text>
</g>
<!-- RouteTable::::PrivateRouteTableUSEAST1F&#45;&gt;Subnet::::SubnetPrivateUSEAST1F -->
<g id="edge16" class="edge">
<title>RouteTable::::PrivateRouteTableUSEAST1F&#45;&gt;Subnet::::SubnetPrivateUSEAST1F</title>
<path fill="none" stroke="#707070" d="M629.07,-592.67C658.62,-590.83 690.24,-588.87 719.55,-587.05"/>
<polygon fill="#707070" stroke="#707070" points="720.05,-590.52 729.82,-586.41 719.62,-583.54 720.05,-590.52"/>
</g>
<!-- RouteTable::::PrivateRouteTableUSEAST1F&#45;&gt;Vpc::::VPC -->
<g id="edge15" class="edge">
<title>RouteTable::::PrivateRouteTableUSEAST1F&#45;&gt;Vpc::::VPC</title>
<path fill="none" stroke="#707070" d="M629.2,-617.5C746.73,-632.63 917.68,-647.79 976,-618 1006.95,-602.2 1028.97,-568.76 1042.44,-542.17"/>
<polygon fill="#707070" stroke="#707070" points="1045.63,-543.61 1046.84,-533.09 1039.33,-540.56 1045.63,-543.61"/>
</g>
<!-- Subnet::::SubnetPublicUSEAST1D -->
<g id="node22" class="node">
<title>Subnet::::SubnetPublicUSEAST1D</title>
<polygon fill="#e5e5e5" stroke="#dddddd" points="935.5,-437 732.5,-437 732.5,-379 935.5,-379 935.5,-437"/>
<text text-anchor="start" x="745" y="-417.2" font-family="Helvetica,sans-Serif" font-weight="bold" font-size="16.00" fill="#707070">EC2::Subnet</text>
<text text-anchor="start" x="745" y="-392.2" font-family="Helvetica,sans-Serif" font-size="16.00" fill="#383838">SubnetPublicUSEAST1D</text>
</g>
<!-- RouteTable::::PublicRouteTable&#45;&gt;Subnet::::SubnetPublicUSEAST1D -->
<g id="edge19" class="edge">
<title>RouteTable::::PublicRouteTable&#45;&gt;Subnet::::SubnetPublicUSEAST1D</title>
<path fill="none" stroke="#707070" d="M585.68,-466.37C626.36,-456.77 677.47,-444.71 722.65,-434.04"/>
<polygon fill="#707070" stroke="#707070" points="723.57,-437.42 732.5,-431.72 721.96,-430.61 723.57,-437.42"/>
</g>
<!-- RouteTable::::PublicRouteTable&#45;&gt;Subnet::::SubnetPublicUSEAST1F -->
<g id="edge18" class="edge">
<title>RouteTable::::PublicRouteTable&#45;&gt;Subnet::::SubnetPublicUSEAST1F</title>
<path fill="none" stroke="#707070" d="M585.68,-488.64C626.36,-491.17 677.47,-494.34 722.66,-497.15"/>
<polygon fill="#707070" stroke="#707070" points="722.6,-500.65 732.8,-497.78 723.04,-493.66 722.6,-500.65"/>
</g>
<!-- RouteTable::::PublicRouteTable&#45;&gt;Vpc::::VPC -->
<g id="edge17" class="edge">
<title>RouteTable::::PublicRouteTable&#45;&gt;Vpc::::VPC</title>
<path fill="none" stroke="#707070" d="M585.71,-469.65C678.44,-454.44 840.86,-436.37 976,-466 984.82,-467.93 993.83,-470.91 1002.49,-474.35"/>
<polygon fill="#707070" stroke="#707070" points="1001.16,-477.59 1011.74,-478.25 1003.88,-471.14 1001.16,-477.59"/>
</g>
<!-- RouteTableAssociation::::rt&#45;assoc::PrivateRouteTableUSEAST1D::SubnetPrivateUSEAST1D -->
<g id="node12" class="node">
<title>RouteTableAssociation::::rt&#45;assoc::PrivateRouteTableUSEAST1D::SubnetPrivateUSEAST1D</title>
<polygon fill="#e5e5e5" stroke="#dddddd" points="321,-877 31,-877 31,-819 321,-819 321,-877"/>
<text text-anchor="start" x="43" y="-857.2" font-family="Helvetica,sans-Serif" font-weight="bold" font-size="16.00" fill="#707070">EC2::RouteTableAssociation</text>
<text text-anchor="start" x="43" y="-832.2" font-family="Helvetica,sans-Serif" font-size="16.00" fill="#383838">rt&#45;assoc::PrivateRouteTableUSEAS...</text>
</g>
<!-- RouteTableAssociation::::rt&#45;assoc::PrivateRouteTableUSEAST1D::SubnetPrivateUSEAST1D&#45;&gt;RouteTable::::PrivateRouteTableUSEAST1D -->
<g id="edge20" class="edge">
<title>RouteTableAssociation::::rt&#45;assoc::PrivateRouteTableUSEAST1D::SubnetPrivateUSEAST1D&#45;&gt;RouteTable::::PrivateRouteTableUSEAST1D</title>
<path fill="none" stroke="#707070" d="M303.94,-818.94C328.82,-813.25 354.95,-807.26 379.91,-801.55"/>
<polygon fill="#707070" stroke="#707070" points="380.81,-804.93 389.78,-799.29 379.25,-798.11 380.81,-804.93"/>
</g>
<!-- RouteTableAssociation::::rt&#45;assoc::PrivateRouteTableUSEAST1D::SubnetPrivateUSEAST1D&#45;&gt;Subnet::::SubnetPrivateUSEAST1D -->
<g id="edge21" class="edge">
<title>RouteTableAssociation::::rt&#45;assoc::PrivateRouteTableUSEAST1D::SubnetPrivateUSEAST1D&#45;&gt;Subnet::::SubnetPrivateUSEAST1D</title>
<path fill="none" stroke="#707070" d="M321.17,-833.72C335.63,-832.41 350.1,-831.14 364,-830 493.64,-819.32 528.32,-834.89 656,-810 686.8,-804 719.68,-794.21 748.64,-784.37"/>
<polygon fill="#707070" stroke="#707070" points="749.99,-787.61 758.3,-781.04 747.7,-780.99 749.99,-787.61"/>
</g>
<!-- RouteTableAssociation::::rt&#45;assoc::PrivateRouteTableUSEAST1F::SubnetPrivateUSEAST1F -->
<g id="node13" class="node">
<title>RouteTableAssociation::::rt&#45;assoc::PrivateRouteTableUSEAST1F::SubnetPrivateUSEAST1F</title>
<polygon fill="#e5e5e5" stroke="#dddddd" points="321,-649 31,-649 31,-591 321,-591 321,-649"/>
<text text-anchor="start" x="43" y="-629.2" font-family="Helvetica,sans-Serif" font-weight="bold" font-size="16.00" fill="#707070">EC2::RouteTableAssociation</text>
<text text-anchor="start" x="43" y="-604.2" font-family="Helvetica,sans-Serif" font-size="16.00" fill="#383838">rt&#45;assoc::PrivateRouteTableUSEAS...</text>
</g>
<!-- RouteTableAssociation::::rt&#45;assoc::PrivateRouteTableUSEAST1F::SubnetPrivateUSEAST1F&#45;&gt;RouteTable::::PrivateRouteTableUSEAST1F -->
<g id="edge22" class="edge">
<title>RouteTableAssociation::::rt&#45;assoc::PrivateRouteTableUSEAST1F::SubnetPrivateUSEAST1F&#45;&gt;RouteTable::::PrivateRouteTableUSEAST1F</title>
<path fill="none" stroke="#707070" d="M321.17,-611.31C340.99,-610.12 361.23,-608.9 380.74,-607.73"/>
<polygon fill="#707070" stroke="#707070" points="381.1,-611.21 390.87,-607.12 380.68,-604.22 381.1,-611.21"/>
</g>
<!-- RouteTableAssociation::::rt&#45;assoc::PrivateRouteTableUSEAST1F::SubnetPrivateUSEAST1F&#45;&gt;Subnet::::SubnetPrivateUSEAST1F -->
<g id="edge23" class="edge">
<title>RouteTableAssociation::::rt&#45;assoc::PrivateRouteTableUSEAST1F::SubnetPrivateUSEAST1F&#45;&gt;Subnet::::SubnetPrivateUSEAST1F</title>
<path fill="none" stroke="#707070" d="M303.04,-590.94C311.56,-588.16 319.96,-585.18 328,-582 345.02,-575.27 346.28,-566.59 364,-562 482.46,-531.3 623.35,-542.82 719.57,-557.58"/>
<polygon fill="#707070" stroke="#707070" points="719.2,-561.07 729.62,-559.16 720.28,-554.15 719.2,-561.07"/>
</g>
<!-- RouteTableAssociation::::rt&#45;assoc::PublicRouteTable::SubnetPublicUSEAST1D -->
<g id="node14" class="node">
<title>RouteTableAssociation::::rt&#45;assoc::PublicRouteTable::SubnetPublicUSEAST1D</title>
<polygon fill="#e5e5e5" stroke="#dddddd" points="314.5,-421 37.5,-421 37.5,-363 314.5,-363 314.5,-421"/>
<text text-anchor="start" x="50" y="-401.2" font-family="Helvetica,sans-Serif" font-weight="bold" font-size="16.00" fill="#707070">EC2::RouteTableAssociation</text>
<text text-anchor="start" x="50" y="-376.2" font-family="Helvetica,sans-Serif" font-size="16.00" fill="#383838">rt&#45;assoc::PublicRouteTable::Subn...</text>
</g>
<!-- RouteTableAssociation::::rt&#45;assoc::PublicRouteTable::SubnetPublicUSEAST1D&#45;&gt;RouteTable::::PublicRouteTable -->
<g id="edge24" class="edge">
<title>RouteTableAssociation::::rt&#45;assoc::PublicRouteTable::SubnetPublicUSEAST1D&#45;&gt;RouteTable::::PublicRouteTable</title>
<path fill="none" stroke="#707070" d="M295.03,-421.1C306.19,-424.03 317.32,-427.03 328,-430 344.12,-434.49 347.98,-436.18 364,-441 383.66,-446.92 404.84,-453.23 424.78,-459.15"/>
<polygon fill="#707070" stroke="#707070" points="423.87,-462.53 434.45,-462.02 425.86,-455.82 423.87,-462.53"/>
</g>
<!-- RouteTableAssociation::::rt&#45;assoc::PublicRouteTable::SubnetPublicUSEAST1D&#45;&gt;Subnet::::SubnetPublicUSEAST1D -->
<g id="edge25" class="edge">
<title>RouteTableAssociation::::rt&#45;assoc::PublicRouteTable::SubnetPublicUSEAST1D&#45;&gt;Subnet::::SubnetPublicUSEAST1D</title>
<path fill="none" stroke="#707070" d="M314.74,-419.93C331.28,-422.43 347.98,-424.56 364,-426 493.25,-437.65 526.39,-432.57 656,-426 677.4,-424.91 700.2,-423.1 722.07,-421.02"/>
<polygon fill="#707070" stroke="#707070" points="722.43,-424.5 732.05,-420.05 721.75,-417.53 722.43,-424.5"/>
</g>
<!-- RouteTableAssociation::::rt&#45;assoc::PublicRouteTable::SubnetPublicUSEAST1F -->
<g id="node15" class="node">
<title>RouteTableAssociation::::rt&#45;assoc::PublicRouteTable::SubnetPublicUSEAST1F</title>
<polygon fill="#e5e5e5" stroke="#dddddd" points="314.5,-497 37.5,-497 37.5,-439 314.5,-439 314.5,-497"/>
<text text-anchor="start" x="50" y="-477.2" font-family="Helvetica,sans-Serif" font-weight="bold" font-size="16.00" fill="#707070">EC2::RouteTableAssociation</text>
<text text-anchor="start" x="50" y="-452.2" font-family="Helvetica,sans-Serif" font-size="16.00" fill="#383838">rt&#45;assoc::PublicRouteTable::Subn...</text>
</g>
<!-- RouteTableAssociation::::rt&#45;assoc::PublicRouteTable::SubnetPublicUSEAST1F&#45;&gt;RouteTable::::PublicRouteTable -->
<g id="edge26" class="edge">
<title>RouteTableAssociation::::rt&#45;assoc::PublicRouteTable::SubnetPublicUSEAST1F&#45;&gt;RouteTable::::PublicRouteTable</title>
<path fill="none" stroke="#707070" d="M314.91,-474.65C351.89,-476.43 390.77,-478.3 423.95,-479.9"/>
<polygon fill="#707070" stroke="#707070" points="423.9,-483.4 434.05,-480.39 424.23,-476.41 423.9,-483.4"/>
</g>
<!-- RouteTableAssociation::::rt&#45;assoc::PublicRouteTable::SubnetPublicUSEAST1F&#45;&gt;Subnet::::SubnetPublicUSEAST1F -->
<g id="edge27" class="edge">
<title>RouteTableAssociation::::rt&#45;assoc::PublicRouteTable::SubnetPublicUSEAST1F&#45;&gt;Subnet::::SubnetPublicUSEAST1F</title>
<path fill="none" stroke="#707070" d="M299.9,-497.04C309.47,-499.88 318.93,-502.87 328,-506 344.55,-511.71 346.87,-518.37 364,-522 484.86,-547.65 627.09,-536.6 722.97,-523.32"/>
<polygon fill="#707070" stroke="#707070" points="723.56,-526.78 732.98,-521.91 722.58,-519.85 723.56,-526.78"/>
</g>
<!-- SecurityGroup::::sg::VPC::ClusterSharedNodeSecurityGroup -->
<g id="node16" class="node">
<title>SecurityGroup::::sg::VPC::ClusterSharedNodeSecurityGroup</title>
<polygon fill="#e5e5e5" stroke="#dddddd" points="656,-129 364,-129 364,-71 656,-71 656,-129"/>
<text text-anchor="start" x="376" y="-109.2" font-family="Helvetica,sans-Serif" font-weight="bold" font-size="16.00" fill="#707070">EC2::SecurityGroup</text>
<text text-anchor="start" x="376" y="-84.2" font-family="Helvetica,sans-Serif" font-size="16.00" fill="#383838">sg::VPC::ClusterSharedNodeSecuri...</text>
</g>
<!-- SecurityGroup::::sg::VPC::ClusterSharedNodeSecurityGroup&#45;&gt;SecurityGroup::::sg::VPC::eks&#45;cluster&#45;sg&#45;my&#45;cluster&#45;1909614887 -->
<g id="edge29" class="edge">
<title>SecurityGroup::::sg::VPC::ClusterSharedNodeSecurityGroup&#45;&gt;SecurityGroup::::sg::VPC::eks&#45;cluster&#45;sg&#45;my&#45;cluster&#45;1909614887</title>
<path fill="none" stroke="#707070" d="M656.46,-118.97C666.58,-120.29 676.79,-121.62 686.92,-122.95"/>
<polygon fill="#707070" stroke="#707070" points="686.64,-126.44 697.01,-124.26 687.55,-119.5 686.64,-126.44"/>
</g>
<!-- SecurityGroup::::sg::VPC::ClusterSharedNodeSecurityGroup&#45;&gt;Vpc::::VPC -->
<g id="edge28" class="edge">
<title>SecurityGroup::::sg::VPC::ClusterSharedNodeSecurityGroup&#45;&gt;Vpc::::VPC</title>
<path fill="none" stroke="#707070" d="M599.55,-70.93C702.21,-43.29 870.76,-17.49 976,-104 1031.39,-149.53 1050.75,-372.77 1056.44,-464.52"/>
<polygon fill="#707070" stroke="#707070" points="1052.96,-465 1057.05,-474.78 1059.95,-464.59 1052.96,-465"/>
</g>
<!-- SecurityGroup::::sg::VPC::ControlPlaneSecurityGroup -->
<g id="node17" class="node">
<title>SecurityGroup::::sg::VPC::ControlPlaneSecurityGroup</title>
<polygon fill="#e5e5e5" stroke="#dddddd" points="976,-361 692,-361 692,-303 976,-303 976,-361"/>
<text text-anchor="start" x="704" y="-341.2" font-family="Helvetica,sans-Serif" font-weight="bold" font-size="16.00" fill="#707070">EC2::SecurityGroup</text>
<text text-anchor="start" x="704" y="-316.2" font-family="Helvetica,sans-Serif" font-size="16.00" fill="#383838">sg::VPC::ControlPlaneSecurityGro...</text>
</g>
<!-- SecurityGroup::::sg::VPC::ControlPlaneSecurityGroup&#45;&gt;Vpc::::VPC -->
<g id="edge30" class="edge">
<title>SecurityGroup::::sg::VPC::ControlPlaneSecurityGroup&#45;&gt;Vpc::::VPC</title>
<path fill="none" stroke="#707070" d="M962.19,-361.03C967,-363.76 971.63,-366.74 976,-370 1008.4,-394.18 1030.91,-435.18 1044.14,-465.48"/>
<polygon fill="#707070" stroke="#707070" points="1041,-467.04 1048.11,-474.9 1047.45,-464.33 1041,-467.04"/>
</g>
<!-- SecurityGroup::::sg::VPC::eks&#45;cluster&#45;sg&#45;my&#45;cluster&#45;1909614887&#45;&gt;SecurityGroup::::sg::VPC::eks&#45;cluster&#45;sg&#45;my&#45;cluster&#45;1909614887 -->
<g id="edge32" class="edge">
<title>SecurityGroup::::sg::VPC::eks&#45;cluster&#45;sg&#45;my&#45;cluster&#45;1909614887&#45;&gt;SecurityGroup::::sg::VPC::eks&#45;cluster&#45;sg&#45;my&#45;cluster&#45;1909614887</title>
<path fill="none" stroke="#707070" d="M792,-171.38C792,-181.17 806,-189 834,-189 852.38,-189 864.72,-185.63 871.04,-180.54"/>
<polygon fill="#707070" stroke="#707070" points="874.32,-181.84 876,-171.38 868.16,-178.5 874.32,-181.84"/>
</g>
<!-- SecurityGroup::::sg::VPC::eks&#45;cluster&#45;sg&#45;my&#45;cluster&#45;1909614887&#45;&gt;Vpc::::VPC -->
<g id="edge31" class="edge">
<title>SecurityGroup::::sg::VPC::eks&#45;cluster&#45;sg&#45;my&#45;cluster&#45;1909614887&#45;&gt;Vpc::::VPC</title>
<path fill="none" stroke="#707070" d="M941.09,-171.16C954.14,-178.28 966.27,-187.09 976,-198 1043.98,-274.26 1056.75,-400.86 1058.63,-464.66"/>
<polygon fill="#707070" stroke="#707070" points="1055.13,-464.8 1058.85,-474.72 1062.13,-464.64 1055.13,-464.8"/>
</g>
<!-- Cluster::::my&#45;cluster -->
<g id="node25" class="node">
<title>Cluster::::my&#45;cluster</title>
<polygon fill="#e5e5e5" stroke="#dddddd" points="571,-301 449,-301 449,-243 571,-243 571,-301"/>
<text text-anchor="start" x="461" y="-281.2" font-family="Helvetica,sans-Serif" font-weight="bold" font-size="16.00" fill="#707070">EKS::Cluster</text>
<text text-anchor="start" x="461" y="-256.2" font-family="Helvetica,sans-Serif" font-size="16.00" fill="#383838">my&#45;cluster</text>
</g>
<!-- SecurityGroup::::sg::VPC::eks&#45;cluster&#45;sg&#45;my&#45;cluster&#45;1909614887&#45;&gt;Cluster::::my&#45;cluster -->
<g id="edge33" class="edge">
<title>SecurityGroup::::sg::VPC::eks&#45;cluster&#45;sg&#45;my&#45;cluster&#45;1909614887&#45;&gt;Cluster::::my&#45;cluster</title>
<path fill="none" stroke="#707070" d="M764.97,-171.1C740.86,-180.58 714.23,-192.38 692,-207 673.09,-219.43 675.63,-231.74 656,-243 633.28,-256.03 606.02,-264.69 581.29,-269.85"/>
<polygon fill="#707070" stroke="#707070" points="580.4,-266.46 571.24,-271.79 581.72,-273.34 580.4,-266.46"/>
</g>
<!-- SecurityGroupRuleIngress::::sg::VPC::ClusterSharedNodeSecurityGroup&#45;rule&#45;ingress&#45;all -->
<g id="node19" class="node">
<title>SecurityGroupRuleIngress::::sg::VPC::ClusterSharedNodeSecurityGroup&#45;rule&#45;ingress&#45;all</title>
<polygon fill="#e5e5e5" stroke="#dddddd" points="322,-153 30,-153 30,-95 322,-95 322,-153"/>
<text text-anchor="start" x="42" y="-133.2" font-family="Helvetica,sans-Serif" font-weight="bold" font-size="16.00" fill="#707070">EC2::SecurityGroupRuleIngress</text>
<text text-anchor="start" x="42" y="-108.2" font-family="Helvetica,sans-Serif" font-size="16.00" fill="#383838">sg::VPC::ClusterSharedNodeSecuri...</text>
</g>
<!-- SecurityGroupRuleIngress::::sg::VPC::ClusterSharedNodeSecurityGroup&#45;rule&#45;ingress&#45;all&#45;&gt;SecurityGroup::::sg::VPC::ClusterSharedNodeSecurityGroup -->
<g id="edge34" class="edge">
<title>SecurityGroupRuleIngress::::sg::VPC::ClusterSharedNodeSecurityGroup&#45;rule&#45;ingress&#45;all&#45;&gt;SecurityGroup::::sg::VPC::ClusterSharedNodeSecurityGroup</title>
<path fill="none" stroke="#707070" d="M322.14,-113.51C332.65,-112.75 343.27,-111.98 353.84,-111.22"/>
<polygon fill="#707070" stroke="#707070" points="354.23,-114.7 363.95,-110.49 353.72,-107.72 354.23,-114.7"/>
</g>
<!-- SecurityGroupRuleIngress::::sg::VPC::ClusterSharedNodeSecurityGroup&#45;rule&#45;ingress&#45;all&#45;&gt;SecurityGroup::::sg::VPC::eks&#45;cluster&#45;sg&#45;my&#45;cluster&#45;1909614887 -->
<g id="edge35" class="edge">
<title>SecurityGroupRuleIngress::::sg::VPC::ClusterSharedNodeSecurityGroup&#45;rule&#45;ingress&#45;all&#45;&gt;SecurityGroup::::sg::VPC::eks&#45;cluster&#45;sg&#45;my&#45;cluster&#45;1909614887</title>
<path fill="none" stroke="#707070" d="M322.17,-135.82C336.3,-136.68 350.42,-137.43 364,-138 472.32,-142.51 594.84,-143.41 687.48,-143.24"/>
<polygon fill="#707070" stroke="#707070" points="687.49,-146.74 697.49,-143.21 687.48,-139.74 687.49,-146.74"/>
</g>
<!-- Subnet::::SubnetPrivateUSEAST1D&#45;&gt;Vpc::::VPC -->
<g id="edge36" class="edge">
<title>Subnet::::SubnetPrivateUSEAST1D&#45;&gt;Vpc::::VPC</title>
<path fill="none" stroke="#707070" d="M938.62,-736.28C952.27,-730.86 965.23,-723.64 976,-714 1025.94,-669.32 1045.97,-590.59 1053.77,-543.26"/>
<polygon fill="#707070" stroke="#707070" points="1057.28,-543.5 1055.34,-533.09 1050.36,-542.44 1057.28,-543.5"/>
</g>
<!-- Subnet::::SubnetPrivateUSEAST1F&#45;&gt;Vpc::::VPC -->
<g id="edge37" class="edge">
<title>Subnet::::SubnetPrivateUSEAST1F&#45;&gt;Vpc::::VPC</title>
<path fill="none" stroke="#707070" d="M938.05,-554.39C950.93,-550.56 963.84,-546.4 976,-542 984.71,-538.85 993.77,-535.14 1002.56,-531.3"/>
<polygon fill="#707070" stroke="#707070" points="1004.25,-534.37 1011.95,-527.1 1001.4,-527.98 1004.25,-534.37"/>
</g>
<!-- Subnet::::SubnetPublicUSEAST1D&#45;&gt;Vpc::::VPC -->
<g id="edge38" class="edge">
<title>Subnet::::SubnetPublicUSEAST1D&#45;&gt;Vpc::::VPC</title>
<path fill="none" stroke="#707070" d="M935.65,-434.96C949.43,-439.73 963.23,-445.09 976,-451 987.34,-456.25 998.95,-462.84 1009.76,-469.58"/>
<polygon fill="#707070" stroke="#707070" points="1007.92,-472.56 1018.23,-474.99 1011.68,-466.66 1007.92,-472.56"/>
</g>
<!-- Subnet::::SubnetPublicUSEAST1F&#45;&gt;Vpc::::VPC -->
<g id="edge39" class="edge">
<title>Subnet::::SubnetPublicUSEAST1F&#45;&gt;Vpc::::VPC</title>
<path fill="none" stroke="#707070" d="M935.31,-504C958.04,-504 981.4,-504 1001.6,-504"/>
<polygon fill="#707070" stroke="#707070" points="1001.84,-507.5 1011.84,-504 1001.84,-500.5 1001.84,-507.5"/>
</g>
<!-- Cluster::::my&#45;cluster&#45;&gt;SecurityGroup::::sg::VPC::ControlPlaneSecurityGroup -->
<g id="edge47" class="edge">
<title>Cluster::::my&#45;cluster&#45;&gt;SecurityGroup::::sg::VPC::ControlPlaneSecurityGroup</title>
<path fill="none" stroke="#707070" d="M571.19,-283.22C602.65,-289.08 642.71,-296.54 681.98,-303.86"/>
<polygon fill="#707070" stroke="#707070" points="681.46,-307.32 691.94,-305.71 682.75,-300.44 681.46,-307.32"/>
</g>
<!-- Cluster::::my&#45;cluster&#45;&gt;SecurityGroup::::sg::VPC::eks&#45;cluster&#45;sg&#45;my&#45;cluster&#45;1909614887 -->
<g id="edge46" class="edge">
<title>Cluster::::my&#45;cluster&#45;&gt;SecurityGroup::::sg::VPC::eks&#45;cluster&#45;sg&#45;my&#45;cluster&#45;1909614887</title>
<path fill="none" stroke="#707070" d="M571.24,-255.4C598.42,-248.99 630.15,-239.83 656,-225 675.63,-213.74 673.09,-201.43 692,-189 699.28,-184.22 707.02,-179.73 715,-175.57"/>
<polygon fill="#707070" stroke="#707070" points="716.72,-178.63 724.09,-171.02 713.58,-172.37 716.72,-178.63"/>
</g>
<!-- Cluster::::my&#45;cluster&#45;&gt;Subnet::::SubnetPrivateUSEAST1D -->
<g id="edge42" class="edge">
<title>Cluster::::my&#45;cluster&#45;&gt;Subnet::::SubnetPrivateUSEAST1D</title>
<path fill="none" stroke="#707070" d="M571.22,-289.3C601.71,-301.28 636.34,-320.51 656,-350 701.08,-417.64 639.45,-651.99 692,-714 699.75,-723.14 709.44,-730.2 720.1,-735.64"/>
<polygon fill="#707070" stroke="#707070" points="718.7,-738.85 729.25,-739.84 721.62,-732.49 718.7,-738.85"/>
</g>
<!-- Cluster::::my&#45;cluster&#45;&gt;Subnet::::SubnetPrivateUSEAST1F -->
<g id="edge43" class="edge">
<title>Cluster::::my&#45;cluster&#45;&gt;Subnet::::SubnetPrivateUSEAST1F</title>
<path fill="none" stroke="#707070" d="M571.31,-290.45C601.24,-302.66 635.33,-321.73 656,-350 707.24,-420.09 633.05,-478.26 692,-542 700.07,-550.72 709.91,-557.53 720.61,-562.82"/>
<polygon fill="#707070" stroke="#707070" points="719.21,-566.03 729.77,-566.92 722.07,-559.64 719.21,-566.03"/>
</g>
<!-- Cluster::::my&#45;cluster&#45;&gt;Subnet::::SubnetPublicUSEAST1D -->
<g id="edge44" class="edge">
<title>Cluster::::my&#45;cluster&#45;&gt;Subnet::::SubnetPublicUSEAST1D</title>
<path fill="none" stroke="#707070" d="M571.03,-280.04C598.95,-286.1 631.35,-296.66 656,-315 679.44,-332.44 668.35,-352.85 692,-370 701.29,-376.73 711.7,-382.27 722.54,-386.83"/>
<polygon fill="#707070" stroke="#707070" points="721.58,-390.21 732.16,-390.59 724.12,-383.69 721.58,-390.21"/>
</g>
<!-- Cluster::::my&#45;cluster&#45;&gt;Subnet::::SubnetPublicUSEAST1F -->
<g id="edge45" class="edge">
<title>Cluster::::my&#45;cluster&#45;&gt;Subnet::::SubnetPublicUSEAST1F</title>
<path fill="none" stroke="#707070" d="M571.18,-285.69C600.34,-295.12 633.77,-310.52 656,-335 690.87,-373.39 656.76,-407.95 692,-446 701.03,-455.75 711.94,-463.91 723.65,-470.72"/>
<polygon fill="#707070" stroke="#707070" points="722.28,-473.96 732.74,-475.67 725.63,-467.81 722.28,-473.96"/>
</g>
<!-- Cluster::::my&#45;cluster&#45;&gt;Vpc::::VPC -->
<g id="edge40" class="edge">
<title>Cluster::::my&#45;cluster&#45;&gt;Vpc::::VPC</title>
<path fill="none" stroke="#707070" d="M571.13,-273.12C693.18,-275.63 959.82,-282.41 976,-294 1031.02,-333.44 1049.35,-415.33 1055.46,-464.39"/>
<polygon fill="#707070" stroke="#707070" points="1052.01,-465.08 1056.61,-474.62 1058.97,-464.29 1052.01,-465.08"/>
</g>
<!-- Role::::eksctl&#45;my&#45;cluster&#45;cluster&#45;ServiceRole&#45;1T8YHA5ZIYVRB -->
<g id="node27" class="node">
<title>Role::::eksctl&#45;my&#45;cluster&#45;cluster&#45;ServiceRole&#45;1T8YHA5ZIYVRB</title>
<polygon fill="#e5e5e5" stroke="#dddddd" points="966,-265 702,-265 702,-207 966,-207 966,-265"/>
<text text-anchor="start" x="714" y="-245.2" font-family="Helvetica,sans-Serif" font-weight="bold" font-size="16.00" fill="#707070">IAM::Role</text>
<text text-anchor="start" x="714" y="-220.2" font-family="Helvetica,sans-Serif" font-size="16.00" fill="#383838">eksctl&#45;my&#45;cluster&#45;cluster&#45;Servic...</text>
</g>
<!-- Cluster::::my&#45;cluster&#45;&gt;Role::::eksctl&#45;my&#45;cluster&#45;cluster&#45;ServiceRole&#45;1T8YHA5ZIYVRB -->
<g id="edge41" class="edge">
<title>Cluster::::my&#45;cluster&#45;&gt;Role::::eksctl&#45;my&#45;cluster&#45;cluster&#45;ServiceRole&#45;1T8YHA5ZIYVRB</title>
<path fill="none" stroke="#707070" d="M571.19,-265.27C605.23,-261.47 649.33,-256.53 691.6,-251.81"/>
<polygon fill="#707070" stroke="#707070" points="692.18,-255.27 701.73,-250.68 691.4,-248.31 692.18,-255.27"/>
</g>
<!-- NodeGroup::::ng&#45;1 -->
<g id="node26" class="node">
<title>NodeGroup::::ng&#45;1</title>
<polygon fill="#e5e5e5" stroke="#dddddd" points="253.5,-345 98.5,-345 98.5,-287 253.5,-287 253.5,-345"/>
<text text-anchor="start" x="111" y="-325.2" font-family="Helvetica,sans-Serif" font-weight="bold" font-size="16.00" fill="#707070">EKS::NodeGroup</text>
<text text-anchor="start" x="111" y="-300.2" font-family="Helvetica,sans-Serif" font-size="16.00" fill="#383838">ng&#45;1</text>
</g>
<!-- NodeGroup::::ng&#45;1&#45;&gt;LaunchTemplate::::eksctl&#45;my&#45;cluster&#45;nodegroup&#45;ng&#45;1 -->
<g id="edge52" class="edge">
<title>NodeGroup::::ng&#45;1&#45;&gt;LaunchTemplate::::eksctl&#45;my&#45;cluster&#45;nodegroup&#45;ng&#45;1</title>
<path fill="none" stroke="#707070" d="M236.68,-286.96C272.93,-270.05 320.47,-249.14 364,-234 369.89,-231.95 375.94,-229.95 382.08,-228.02"/>
<polygon fill="#707070" stroke="#707070" points="383.27,-231.31 391.79,-225.02 381.2,-224.63 383.27,-231.31"/>
</g>
<!-- NodeGroup::::ng&#45;1&#45;&gt;Subnet::::SubnetPublicUSEAST1D -->
<g id="edge49" class="edge">
<title>NodeGroup::::ng&#45;1&#45;&gt;Subnet::::SubnetPublicUSEAST1D</title>
<path fill="none" stroke="#707070" d="M253.58,-316.05C379.54,-316.57 620.13,-319.6 656,-335 676.51,-343.8 672.6,-358.96 692,-370 701.63,-375.48 712.08,-380.19 722.79,-384.25"/>
<polygon fill="#707070" stroke="#707070" points="721.66,-387.56 732.26,-387.64 724.02,-380.97 721.66,-387.56"/>
</g>
<!-- NodeGroup::::ng&#45;1&#45;&gt;Subnet::::SubnetPublicUSEAST1F -->
<g id="edge50" class="edge">
<title>NodeGroup::::ng&#45;1&#45;&gt;Subnet::::SubnetPublicUSEAST1F</title>
<path fill="none" stroke="#707070" d="M253.86,-322.43C287.64,-325.18 327.78,-328.37 364,-331 396.43,-333.36 629.89,-330.62 656,-350 692.59,-377.16 660.29,-413.28 692,-446 701.17,-455.47 712.11,-463.45 723.79,-470.16"/>
<polygon fill="#707070" stroke="#707070" points="722.38,-473.37 732.84,-475.05 725.71,-467.21 722.38,-473.37"/>
</g>
<!-- NodeGroup::::ng&#45;1&#45;&gt;Cluster::::my&#45;cluster -->
<g id="edge48" class="edge">
<title>NodeGroup::::ng&#45;1&#45;&gt;Cluster::::my&#45;cluster</title>
<path fill="none" stroke="#707070" d="M253.58,-305.85C309.35,-298.46 384.32,-288.52 438.6,-281.33"/>
<polygon fill="#707070" stroke="#707070" points="439.37,-284.76 448.82,-279.98 438.45,-277.82 439.37,-284.76"/>
</g>
<!-- Role::::eksctl&#45;my&#45;cluster&#45;nodegroup&#45;ng&#45;1&#45;NodeInstanceRole&#45;1LT5OVYUG2SEI -->
<g id="node28" class="node">
<title>Role::::eksctl&#45;my&#45;cluster&#45;nodegroup&#45;ng&#45;1&#45;NodeInstanceRole&#45;1LT5OVYUG2SEI</title>
<polygon fill="#e5e5e5" stroke="#dddddd" points="650,-417 370,-417 370,-359 650,-359 650,-417"/>
<text text-anchor="start" x="382" y="-397.2" font-family="Helvetica,sans-Serif" font-weight="bold" font-size="16.00" fill="#707070">IAM::Role</text>
<text text-anchor="start" x="382" y="-372.2" font-family="Helvetica,sans-Serif" font-size="16.00" fill="#383838">eksctl&#45;my&#45;cluster&#45;nodegroup&#45;ng&#45;1...</text>
</g>
<!-- NodeGroup::::ng&#45;1&#45;&gt;Role::::eksctl&#45;my&#45;cluster&#45;nodegroup&#45;ng&#45;1&#45;NodeInstanceRole&#45;1LT5OVYUG2SEI -->
<g id="edge51" class="edge">
<title>NodeGroup::::ng&#45;1&#45;&gt;Role::::eksctl&#45;my&#45;cluster&#45;nodegroup&#45;ng&#45;1&#45;NodeInstanceRole&#45;1LT5OVYUG2SEI</title>
<path fill="none" stroke="#707070" d="M253.58,-332.61C286.72,-339.79 326.63,-348.45 364.96,-356.76"/>
<polygon fill="#707070" stroke="#707070" points="364.67,-360.28 375.19,-358.98 366.15,-353.44 364.67,-360.28"/>
</g>
</g>
</svg>
