<?xml version="1.0" encoding="UTF-8" standalone="no"?>
<!DOCTYPE svg PUBLIC "-//W3C//DTD SVG 1.1//EN"
 "http://www.w3.org/Graphics/SVG/1.1/DTD/svg11.dtd">
<!-- Generated by graphviz version 3.0.0 (20220226.1711)
 -->
<!-- Title: graphname Pages: 1 -->
<svg width="1096pt" height="1149pt"
 viewBox="0.00 0.00 1096.00 1149.00" xmlns="http://www.w3.org/2000/svg" xmlns:xlink="http://www.w3.org/1999/xlink">
<g id="graph0" class="graph" transform="scale(1 1) rotate(0) translate(4 1145)">
<title>graphname</title>
<polygon fill="#fafafa" stroke="transparent" points="-4,4 -4,-1145 1092,-1145 1092,4 -4,4"/>
<text text-anchor="start" x="442" y="-1116.4" font-family="Helvetica,sans-Serif" font-weight="bold" font-size="22.00" fill="#383838">Project EKS Simple</text>
<text text-anchor="start" x="540.5" y="-1100.8" font-family="Helvetica,sans-Serif" font-size="14.00"> &#160;</text>
<text text-anchor="start" x="442" y="-1079.2" font-family="Helvetica,sans-Serif" font-weight="bold" font-size="16.00" fill="#707070">Target Diagram</text>
<g id="clust1" class="cluster">
<title>cluster_aws</title>
<polygon fill="#f5f5f5" stroke="#f5f5f5" points="8,-8 8,-1057 1080,-1057 1080,-8 8,-8"/>
<text text-anchor="start" x="482" y="-23" font-family="Helvetica,sans-Serif" font-weight="bold" font-size="20.00" fill="#707070">Provider aws</text>
</g>
<g id="clust2" class="cluster">
<title>cluster_aws_</title>
<polygon fill="#eeeeee" stroke="#eeeeee" points="16,-54 16,-1049 1072,-1049 1072,-54 16,-54"/>
<text text-anchor="start" x="543.86" y="-58.3" font-family="Helvetica,sans-Serif" font-size="1.00" fill="#383838"> </text>
</g>
<!-- Vpc::VPC -->
<g id="node1" class="node">
<title>Vpc::VPC</title>
<polygon fill="#e5e5e5" stroke="#dddddd" points="1064,-547 1007,-547 1007,-489 1064,-489 1064,-547"/>
<text text-anchor="start" x="1019.5" y="-527.2" font-family="Helvetica,sans-Serif" font-weight="bold" font-size="16.00" fill="#707070">Vpc</text>
<text text-anchor="start" x="1019.5" y="-502.2" font-family="Helvetica,sans-Serif" font-size="16.00" fill="#383838">VPC</text>
</g>
<!-- InternetGateway::InternetGateway -->
<g id="node2" class="node">
<title>InternetGateway::InternetGateway</title>
<polygon fill="#e5e5e5" stroke="#dddddd" points="906.5,-813 756.5,-813 756.5,-755 906.5,-755 906.5,-813"/>
<text text-anchor="start" x="768.5" y="-793.2" font-family="Helvetica,sans-Serif" font-weight="bold" font-size="16.00" fill="#707070">InternetGateway</text>
<text text-anchor="start" x="768.5" y="-768.2" font-family="Helvetica,sans-Serif" font-size="16.00" fill="#383838">InternetGateway</text>
</g>
<!-- InternetGateway::InternetGateway&#45;&gt;Vpc::VPC -->
<g id="edge1" class="edge">
<title>InternetGateway::InternetGateway&#45;&gt;Vpc::VPC</title>
<path fill="none" stroke="#707070" d="M906.59,-777.99C929.83,-772.66 953.87,-763.07 971,-746 1021.69,-695.51 1032.8,-608.23 1034.72,-557.56"/>
<polygon fill="#707070" stroke="#707070" points="1038.23,-557.42 1035.01,-547.33 1031.23,-557.23 1038.23,-557.42"/>
</g>
<!-- NatGateway::NATGateway -->
<g id="node3" class="node">
<title>NatGateway::NATGateway</title>
<polygon fill="#e5e5e5" stroke="#dddddd" points="569,-291 451,-291 451,-233 569,-233 569,-291"/>
<text text-anchor="start" x="463" y="-271.2" font-family="Helvetica,sans-Serif" font-weight="bold" font-size="16.00" fill="#707070">NatGateway</text>
<text text-anchor="start" x="463" y="-246.2" font-family="Helvetica,sans-Serif" font-size="16.00" fill="#383838">NATGateway</text>
</g>
<!-- Subnet::SubnetPublicUSEAST1F -->
<g id="node7" class="node">
<title>Subnet::SubnetPublicUSEAST1F</title>
<polygon fill="#e5e5e5" stroke="#dddddd" points="932.5,-357 730.5,-357 730.5,-299 932.5,-299 932.5,-357"/>
<text text-anchor="start" x="742.5" y="-337.2" font-family="Helvetica,sans-Serif" font-weight="bold" font-size="16.00" fill="#707070">Subnet</text>
<text text-anchor="start" x="742.5" y="-312.2" font-family="Helvetica,sans-Serif" font-size="16.00" fill="#383838">SubnetPublicUSEAST1F</text>
</g>
<!-- NatGateway::NATGateway&#45;&gt;Subnet::SubnetPublicUSEAST1F -->
<g id="edge2" class="edge">
<title>NatGateway::NATGateway&#45;&gt;Subnet::SubnetPublicUSEAST1F</title>
<path fill="none" stroke="#707070" d="M569.23,-274.03C611.33,-282.73 669.49,-294.74 720.26,-305.23"/>
<polygon fill="#707070" stroke="#707070" points="719.8,-308.71 730.3,-307.3 721.22,-301.85 719.8,-308.71"/>
</g>
<!-- ElasticIpAddress::NATIP -->
<g id="node23" class="node">
<title>ElasticIpAddress::NATIP</title>
<polygon fill="#e5e5e5" stroke="#dddddd" points="908.5,-205 754.5,-205 754.5,-147 908.5,-147 908.5,-205"/>
<text text-anchor="start" x="766.5" y="-185.2" font-family="Helvetica,sans-Serif" font-weight="bold" font-size="16.00" fill="#707070">ElasticIpAddress</text>
<text text-anchor="start" x="766.5" y="-160.2" font-family="Helvetica,sans-Serif" font-size="16.00" fill="#383838">NATIP</text>
</g>
<!-- NatGateway::NATGateway&#45;&gt;ElasticIpAddress::NATIP -->
<g id="edge3" class="edge">
<title>NatGateway::NATGateway&#45;&gt;ElasticIpAddress::NATIP</title>
<path fill="none" stroke="#707070" d="M569.23,-246.33C618.22,-233.14 688.95,-214.1 744.46,-199.16"/>
<polygon fill="#707070" stroke="#707070" points="745.55,-202.49 754.29,-196.51 743.73,-195.73 745.55,-202.49"/>
</g>
<!-- Subnet::SubnetPrivateUSEAST1D -->
<g id="node4" class="node">
<title>Subnet::SubnetPrivateUSEAST1D</title>
<polygon fill="#e5e5e5" stroke="#dddddd" points="936,-281 727,-281 727,-223 936,-223 936,-281"/>
<text text-anchor="start" x="739.5" y="-261.2" font-family="Helvetica,sans-Serif" font-weight="bold" font-size="16.00" fill="#707070">Subnet</text>
<text text-anchor="start" x="739.5" y="-236.2" font-family="Helvetica,sans-Serif" font-size="16.00" fill="#383838">SubnetPrivateUSEAST1D</text>
</g>
<!-- Subnet::SubnetPrivateUSEAST1D&#45;&gt;Vpc::VPC -->
<g id="edge4" class="edge">
<title>Subnet::SubnetPrivateUSEAST1D&#45;&gt;Vpc::VPC</title>
<path fill="none" stroke="#707070" d="M936.25,-267.44C949.13,-272.92 961.2,-280.23 971,-290 1021.69,-340.49 1032.8,-427.77 1034.72,-478.44"/>
<polygon fill="#707070" stroke="#707070" points="1031.23,-478.77 1035.01,-488.67 1038.23,-478.58 1031.23,-478.77"/>
</g>
<!-- Subnet::SubnetPrivateUSEAST1F -->
<g id="node5" class="node">
<title>Subnet::SubnetPrivateUSEAST1F</title>
<polygon fill="#e5e5e5" stroke="#dddddd" points="935.5,-737 727.5,-737 727.5,-679 935.5,-679 935.5,-737"/>
<text text-anchor="start" x="739.5" y="-717.2" font-family="Helvetica,sans-Serif" font-weight="bold" font-size="16.00" fill="#707070">Subnet</text>
<text text-anchor="start" x="739.5" y="-692.2" font-family="Helvetica,sans-Serif" font-size="16.00" fill="#383838">SubnetPrivateUSEAST1F</text>
</g>
<!-- Subnet::SubnetPrivateUSEAST1F&#45;&gt;Vpc::VPC -->
<g id="edge5" class="edge">
<title>Subnet::SubnetPrivateUSEAST1F&#45;&gt;Vpc::VPC</title>
<path fill="none" stroke="#707070" d="M935.52,-691.26C948.44,-685.98 960.7,-679.06 971,-670 1004.08,-640.9 1020.35,-591.78 1028.05,-557.27"/>
<polygon fill="#707070" stroke="#707070" points="1031.56,-557.57 1030.18,-547.06 1024.71,-556.14 1031.56,-557.57"/>
</g>
<!-- Subnet::SubnetPublicUSEAST1D -->
<g id="node6" class="node">
<title>Subnet::SubnetPublicUSEAST1D</title>
<polygon fill="#e5e5e5" stroke="#dddddd" points="933,-509 730,-509 730,-451 933,-451 933,-509"/>
<text text-anchor="start" x="742.5" y="-489.2" font-family="Helvetica,sans-Serif" font-weight="bold" font-size="16.00" fill="#707070">Subnet</text>
<text text-anchor="start" x="742.5" y="-464.2" font-family="Helvetica,sans-Serif" font-size="16.00" fill="#383838">SubnetPublicUSEAST1D</text>
</g>
<!-- Subnet::SubnetPublicUSEAST1D&#45;&gt;Vpc::VPC -->
<g id="edge6" class="edge">
<title>Subnet::SubnetPublicUSEAST1D&#45;&gt;Vpc::VPC</title>
<path fill="none" stroke="#707070" d="M933.2,-498.94C955.95,-503.22 978.71,-507.5 996.88,-510.92"/>
<polygon fill="#707070" stroke="#707070" points="996.26,-514.37 1006.74,-512.78 997.56,-507.49 996.26,-514.37"/>
</g>
<!-- Subnet::SubnetPublicUSEAST1F&#45;&gt;Vpc::VPC -->
<g id="edge7" class="edge">
<title>Subnet::SubnetPublicUSEAST1F&#45;&gt;Vpc::VPC</title>
<path fill="none" stroke="#707070" d="M932.7,-343.61C946.64,-349.03 959.95,-356.28 971,-366 1004.08,-395.1 1020.35,-444.22 1028.05,-478.73"/>
<polygon fill="#707070" stroke="#707070" points="1024.71,-479.86 1030.18,-488.94 1031.56,-478.43 1024.71,-479.86"/>
</g>
<!-- RouteTable::PrivateRouteTableUSEAST1D -->
<g id="node8" class="node">
<title>RouteTable::PrivateRouteTableUSEAST1D</title>
<polygon fill="#e5e5e5" stroke="#dddddd" points="951.5,-129 711.5,-129 711.5,-71 951.5,-71 951.5,-129"/>
<text text-anchor="start" x="723.5" y="-109.2" font-family="Helvetica,sans-Serif" font-weight="bold" font-size="16.00" fill="#707070">RouteTable</text>
<text text-anchor="start" x="723.5" y="-84.2" font-family="Helvetica,sans-Serif" font-size="16.00" fill="#383838">PrivateRouteTableUSEAST1D</text>
</g>
<!-- RouteTable::PrivateRouteTableUSEAST1D&#45;&gt;Vpc::VPC -->
<g id="edge8" class="edge">
<title>RouteTable::PrivateRouteTableUSEAST1D&#45;&gt;Vpc::VPC</title>
<path fill="none" stroke="#707070" d="M951.5,-121.97C958.7,-126.42 965.32,-131.71 971,-138 1015.85,-187.69 1029.39,-391.97 1033.16,-478.73"/>
<polygon fill="#707070" stroke="#707070" points="1029.67,-479.11 1033.58,-488.95 1036.66,-478.82 1029.67,-479.11"/>
</g>
<!-- RouteTable::PrivateRouteTableUSEAST1F -->
<g id="node9" class="node">
<title>RouteTable::PrivateRouteTableUSEAST1F</title>
<polygon fill="#e5e5e5" stroke="#dddddd" points="950.5,-889 712.5,-889 712.5,-831 950.5,-831 950.5,-889"/>
<text text-anchor="start" x="724.5" y="-869.2" font-family="Helvetica,sans-Serif" font-weight="bold" font-size="16.00" fill="#707070">RouteTable</text>
<text text-anchor="start" x="724.5" y="-844.2" font-family="Helvetica,sans-Serif" font-size="16.00" fill="#383838">PrivateRouteTableUSEAST1F</text>
</g>
<!-- RouteTable::PrivateRouteTableUSEAST1F&#45;&gt;Vpc::VPC -->
<g id="edge9" class="edge">
<title>RouteTable::PrivateRouteTableUSEAST1F&#45;&gt;Vpc::VPC</title>
<path fill="none" stroke="#707070" d="M950.58,-838.15C958.09,-833.69 965.02,-828.36 971,-822 1006.64,-784.09 1024.63,-630.54 1031.33,-557.27"/>
<polygon fill="#707070" stroke="#707070" points="1034.84,-557.34 1032.24,-547.07 1027.87,-556.72 1034.84,-557.34"/>
</g>
<!-- RouteTable::PublicRouteTable -->
<g id="node10" class="node">
<title>RouteTable::PublicRouteTable</title>
<polygon fill="#e5e5e5" stroke="#dddddd" points="907,-433 756,-433 756,-375 907,-375 907,-433"/>
<text text-anchor="start" x="768.5" y="-413.2" font-family="Helvetica,sans-Serif" font-weight="bold" font-size="16.00" fill="#707070">RouteTable</text>
<text text-anchor="start" x="768.5" y="-388.2" font-family="Helvetica,sans-Serif" font-size="16.00" fill="#383838">PublicRouteTable</text>
</g>
<!-- RouteTable::PublicRouteTable&#45;&gt;Vpc::VPC -->
<g id="edge10" class="edge">
<title>RouteTable::PublicRouteTable&#45;&gt;Vpc::VPC</title>
<path fill="none" stroke="#707070" d="M907.15,-415.72C928.9,-421.38 951.91,-429.73 971,-442 986.48,-451.95 1000.11,-466.86 1010.73,-480.84"/>
<polygon fill="#707070" stroke="#707070" points="1007.91,-482.91 1016.64,-488.92 1013.57,-478.78 1007.91,-482.91"/>
</g>
<!-- RouteTableAssociation::rt&#45;assoc::PrivateRouteTableUSEAST1D::SubnetPrivateUSEAST1D -->
<g id="node11" class="node">
<title>RouteTableAssociation::rt&#45;assoc::PrivateRouteTableUSEAST1D::SubnetPrivateUSEAST1D</title>
<polygon fill="#e5e5e5" stroke="#dddddd" points="655,-204 365,-204 365,-146 655,-146 655,-204"/>
<text text-anchor="start" x="377" y="-184.2" font-family="Helvetica,sans-Serif" font-weight="bold" font-size="16.00" fill="#707070">RouteTableAssociation</text>
<text text-anchor="start" x="377" y="-159.2" font-family="Helvetica,sans-Serif" font-size="16.00" fill="#383838">rt&#45;assoc::PrivateRouteTableUSEAS...</text>
</g>
<!-- RouteTableAssociation::rt&#45;assoc::PrivateRouteTableUSEAST1D::SubnetPrivateUSEAST1D&#45;&gt;Subnet::SubnetPrivateUSEAST1D -->
<g id="edge12" class="edge">
<title>RouteTableAssociation::rt&#45;assoc::PrivateRouteTableUSEAST1D::SubnetPrivateUSEAST1D&#45;&gt;Subnet::SubnetPrivateUSEAST1D</title>
<path fill="none" stroke="#707070" d="M631.33,-204C659.42,-210.77 689.24,-217.96 717.02,-224.65"/>
<polygon fill="#707070" stroke="#707070" points="716.21,-228.06 726.75,-227 717.85,-221.25 716.21,-228.06"/>
</g>
<!-- RouteTableAssociation::rt&#45;assoc::PrivateRouteTableUSEAST1D::SubnetPrivateUSEAST1D&#45;&gt;RouteTable::PrivateRouteTableUSEAST1D -->
<g id="edge11" class="edge">
<title>RouteTableAssociation::rt&#45;assoc::PrivateRouteTableUSEAST1D::SubnetPrivateUSEAST1D&#45;&gt;RouteTable::PrivateRouteTableUSEAST1D</title>
<path fill="none" stroke="#707070" d="M634.98,-145.9C656.74,-140.79 679.42,-135.46 701.31,-130.33"/>
<polygon fill="#707070" stroke="#707070" points="702.37,-133.67 711.31,-127.98 700.77,-126.86 702.37,-133.67"/>
</g>
<!-- RouteTableAssociation::rt&#45;assoc::PrivateRouteTableUSEAST1F::SubnetPrivateUSEAST1F -->
<g id="node12" class="node">
<title>RouteTableAssociation::rt&#45;assoc::PrivateRouteTableUSEAST1F::SubnetPrivateUSEAST1F</title>
<polygon fill="#e5e5e5" stroke="#dddddd" points="655,-793 365,-793 365,-735 655,-735 655,-793"/>
<text text-anchor="start" x="377" y="-773.2" font-family="Helvetica,sans-Serif" font-weight="bold" font-size="16.00" fill="#707070">RouteTableAssociation</text>
<text text-anchor="start" x="377" y="-748.2" font-family="Helvetica,sans-Serif" font-size="16.00" fill="#383838">rt&#45;assoc::PrivateRouteTableUSEAS...</text>
</g>
<!-- RouteTableAssociation::rt&#45;assoc::PrivateRouteTableUSEAST1F::SubnetPrivateUSEAST1F&#45;&gt;Subnet::SubnetPrivateUSEAST1F -->
<g id="edge14" class="edge">
<title>RouteTableAssociation::rt&#45;assoc::PrivateRouteTableUSEAST1F::SubnetPrivateUSEAST1F&#45;&gt;Subnet::SubnetPrivateUSEAST1F</title>
<path fill="none" stroke="#707070" d="M655.33,-738.7C676.12,-735.06 697.27,-731.35 717.34,-727.83"/>
<polygon fill="#707070" stroke="#707070" points="718.17,-731.24 727.42,-726.07 716.96,-724.35 718.17,-731.24"/>
</g>
<!-- RouteTableAssociation::rt&#45;assoc::PrivateRouteTableUSEAST1F::SubnetPrivateUSEAST1F&#45;&gt;RouteTable::PrivateRouteTableUSEAST1F -->
<g id="edge13" class="edge">
<title>RouteTableAssociation::rt&#45;assoc::PrivateRouteTableUSEAST1F::SubnetPrivateUSEAST1F&#45;&gt;RouteTable::PrivateRouteTableUSEAST1F</title>
<path fill="none" stroke="#707070" d="M614.02,-793.07C628.2,-797.51 642.52,-802.21 656,-807 672.33,-812.81 675.61,-816.36 692,-822 697.88,-824.02 703.93,-826.01 710.06,-827.95"/>
<polygon fill="#707070" stroke="#707070" points="709.15,-831.34 719.74,-830.97 711.23,-824.65 709.15,-831.34"/>
</g>
<!-- RouteTableAssociation::rt&#45;assoc::PublicRouteTable::SubnetPublicUSEAST1D -->
<g id="node13" class="node">
<title>RouteTableAssociation::rt&#45;assoc::PublicRouteTable::SubnetPublicUSEAST1D</title>
<polygon fill="#e5e5e5" stroke="#dddddd" points="648.5,-469 371.5,-469 371.5,-411 648.5,-411 648.5,-469"/>
<text text-anchor="start" x="384" y="-449.2" font-family="Helvetica,sans-Serif" font-weight="bold" font-size="16.00" fill="#707070">RouteTableAssociation</text>
<text text-anchor="start" x="384" y="-424.2" font-family="Helvetica,sans-Serif" font-size="16.00" fill="#383838">rt&#45;assoc::PublicRouteTable::Subn...</text>
</g>
<!-- RouteTableAssociation::rt&#45;assoc::PublicRouteTable::SubnetPublicUSEAST1D&#45;&gt;Subnet::SubnetPublicUSEAST1D -->
<g id="edge16" class="edge">
<title>RouteTableAssociation::rt&#45;assoc::PublicRouteTable::SubnetPublicUSEAST1D&#45;&gt;Subnet::SubnetPublicUSEAST1D</title>
<path fill="none" stroke="#707070" d="M648.81,-457.25C672.5,-460.22 696.84,-463.27 719.7,-466.13"/>
<polygon fill="#707070" stroke="#707070" points="719.39,-469.62 729.75,-467.39 720.26,-462.67 719.39,-469.62"/>
</g>
<!-- RouteTableAssociation::rt&#45;assoc::PublicRouteTable::SubnetPublicUSEAST1D&#45;&gt;RouteTable::PublicRouteTable -->
<g id="edge15" class="edge">
<title>RouteTableAssociation::rt&#45;assoc::PublicRouteTable::SubnetPublicUSEAST1D&#45;&gt;RouteTable::PublicRouteTable</title>
<path fill="none" stroke="#707070" d="M648.81,-424.47C681.75,-420.76 715.95,-416.91 745.68,-413.56"/>
<polygon fill="#707070" stroke="#707070" points="746.45,-416.99 756,-412.39 745.67,-410.04 746.45,-416.99"/>
</g>
<!-- RouteTableAssociation::rt&#45;assoc::PublicRouteTable::SubnetPublicUSEAST1F -->
<g id="node14" class="node">
<title>RouteTableAssociation::rt&#45;assoc::PublicRouteTable::SubnetPublicUSEAST1F</title>
<polygon fill="#e5e5e5" stroke="#dddddd" points="648.5,-393 371.5,-393 371.5,-335 648.5,-335 648.5,-393"/>
<text text-anchor="start" x="384" y="-373.2" font-family="Helvetica,sans-Serif" font-weight="bold" font-size="16.00" fill="#707070">RouteTableAssociation</text>
<text text-anchor="start" x="384" y="-348.2" font-family="Helvetica,sans-Serif" font-size="16.00" fill="#383838">rt&#45;assoc::PublicRouteTable::Subn...</text>
</g>
<!-- RouteTableAssociation::rt&#45;assoc::PublicRouteTable::SubnetPublicUSEAST1F&#45;&gt;Subnet::SubnetPublicUSEAST1F -->
<g id="edge18" class="edge">
<title>RouteTableAssociation::rt&#45;assoc::PublicRouteTable::SubnetPublicUSEAST1F&#45;&gt;Subnet::SubnetPublicUSEAST1F</title>
<path fill="none" stroke="#707070" d="M648.81,-348.47C672.65,-345.79 697.15,-343.03 720.13,-340.44"/>
<polygon fill="#707070" stroke="#707070" points="720.68,-343.9 730.23,-339.3 719.9,-336.94 720.68,-343.9"/>
</g>
<!-- RouteTableAssociation::rt&#45;assoc::PublicRouteTable::SubnetPublicUSEAST1F&#45;&gt;RouteTable::PublicRouteTable -->
<g id="edge17" class="edge">
<title>RouteTableAssociation::rt&#45;assoc::PublicRouteTable::SubnetPublicUSEAST1F&#45;&gt;RouteTable::PublicRouteTable</title>
<path fill="none" stroke="#707070" d="M648.81,-381.25C681.89,-385.4 716.25,-389.7 746.07,-393.43"/>
<polygon fill="#707070" stroke="#707070" points="745.64,-396.9 756,-394.67 746.51,-389.96 745.64,-396.9"/>
</g>
<!-- Route::PrivateRouteTableUSEAST1D&#45;nat&#45;gateway -->
<g id="node15" class="node">
<title>Route::PrivateRouteTableUSEAST1D&#45;nat&#45;gateway</title>
<polygon fill="#e5e5e5" stroke="#dddddd" points="328,-241 24,-241 24,-183 328,-183 328,-241"/>
<text text-anchor="start" x="36" y="-221.2" font-family="Helvetica,sans-Serif" font-weight="bold" font-size="16.00" fill="#707070">Route</text>
<text text-anchor="start" x="36" y="-196.2" font-family="Helvetica,sans-Serif" font-size="16.00" fill="#383838">PrivateRouteTableUSEAST1D&#45;nat&#45;ga...</text>
</g>
<!-- Route::PrivateRouteTableUSEAST1D&#45;nat&#45;gateway&#45;&gt;NatGateway::NATGateway -->
<g id="edge20" class="edge">
<title>Route::PrivateRouteTableUSEAST1D&#45;nat&#45;gateway&#45;&gt;NatGateway::NATGateway</title>
<path fill="none" stroke="#707070" d="M328.43,-234.81C367.62,-240.71 407.91,-246.78 440.46,-251.68"/>
<polygon fill="#707070" stroke="#707070" points="440.34,-255.2 450.75,-253.23 441.38,-248.28 440.34,-255.2"/>
</g>
<!-- Route::PrivateRouteTableUSEAST1D&#45;nat&#45;gateway&#45;&gt;RouteTable::PrivateRouteTableUSEAST1D -->
<g id="edge19" class="edge">
<title>Route::PrivateRouteTableUSEAST1D&#45;nat&#45;gateway&#45;&gt;RouteTable::PrivateRouteTableUSEAST1D</title>
<path fill="none" stroke="#707070" d="M236.13,-182.92C272.2,-166.56 319.73,-147.38 364,-137 475.81,-110.79 606.37,-102.24 700.88,-99.84"/>
<polygon fill="#707070" stroke="#707070" points="701.15,-103.34 711.07,-99.61 700.99,-96.34 701.15,-103.34"/>
</g>
<!-- Route::PrivateRouteTableUSEAST1F&#45;nat&#45;gateway -->
<g id="node16" class="node">
<title>Route::PrivateRouteTableUSEAST1F&#45;nat&#45;gateway</title>
<polygon fill="#e5e5e5" stroke="#dddddd" points="327.5,-341 24.5,-341 24.5,-283 327.5,-283 327.5,-341"/>
<text text-anchor="start" x="37" y="-321.2" font-family="Helvetica,sans-Serif" font-weight="bold" font-size="16.00" fill="#707070">Route</text>
<text text-anchor="start" x="37" y="-296.2" font-family="Helvetica,sans-Serif" font-size="16.00" fill="#383838">PrivateRouteTableUSEAST1F&#45;nat&#45;ga...</text>
</g>
<!-- Route::PrivateRouteTableUSEAST1F&#45;nat&#45;gateway&#45;&gt;NatGateway::NATGateway -->
<g id="edge22" class="edge">
<title>Route::PrivateRouteTableUSEAST1F&#45;nat&#45;gateway&#45;&gt;NatGateway::NATGateway</title>
<path fill="none" stroke="#707070" d="M327.94,-289.27C367.53,-283.31 408.26,-277.17 441.05,-272.23"/>
<polygon fill="#707070" stroke="#707070" points="441.59,-275.69 450.96,-270.74 440.55,-268.77 441.59,-275.69"/>
</g>
<!-- Route::PrivateRouteTableUSEAST1F&#45;nat&#45;gateway&#45;&gt;RouteTable::PrivateRouteTableUSEAST1F -->
<g id="edge21" class="edge">
<title>Route::PrivateRouteTableUSEAST1F&#45;nat&#45;gateway&#45;&gt;RouteTable::PrivateRouteTableUSEAST1F</title>
<path fill="none" stroke="#707070" d="M209.9,-341.22C245.61,-375.08 301.12,-434.4 328,-498 354.48,-560.66 314.72,-755.1 364,-802 387.56,-824.42 623.8,-817.42 656,-822 670.98,-824.13 686.59,-826.83 702.05,-829.81"/>
<polygon fill="#707070" stroke="#707070" points="701.69,-833.3 712.18,-831.8 703.04,-826.44 701.69,-833.3"/>
</g>
<!-- Route::PublicRouteTable&#45;igw -->
<g id="node17" class="node">
<title>Route::PublicRouteTable&#45;igw</title>
<polygon fill="#e5e5e5" stroke="#dddddd" points="600,-717 420,-717 420,-659 600,-659 600,-717"/>
<text text-anchor="start" x="432" y="-697.2" font-family="Helvetica,sans-Serif" font-weight="bold" font-size="16.00" fill="#707070">Route</text>
<text text-anchor="start" x="432" y="-672.2" font-family="Helvetica,sans-Serif" font-size="16.00" fill="#383838">PublicRouteTable&#45;igw</text>
</g>
<!-- Route::PublicRouteTable&#45;igw&#45;&gt;InternetGateway::InternetGateway -->
<g id="edge24" class="edge">
<title>Route::PublicRouteTable&#45;igw&#45;&gt;InternetGateway::InternetGateway</title>
<path fill="none" stroke="#707070" d="M600.33,-707.64C619,-712.79 638.37,-718.92 656,-726 672.99,-732.82 675.05,-739.08 692,-746 709.32,-753.07 728.38,-759.26 746.68,-764.47"/>
<polygon fill="#707070" stroke="#707070" points="745.88,-767.88 756.45,-767.19 747.76,-761.14 745.88,-767.88"/>
</g>
<!-- Route::PublicRouteTable&#45;igw&#45;&gt;RouteTable::PublicRouteTable -->
<g id="edge23" class="edge">
<title>Route::PublicRouteTable&#45;igw&#45;&gt;RouteTable::PublicRouteTable</title>
<path fill="none" stroke="#707070" d="M600.14,-681.19C621.01,-675.49 641.39,-665.91 656,-650 719.46,-580.9 628.93,-511.46 692,-442 706.04,-426.53 725.73,-417.12 745.86,-411.45"/>
<polygon fill="#707070" stroke="#707070" points="746.92,-414.8 755.76,-408.96 745.21,-408.01 746.92,-414.8"/>
</g>
<!-- SecurityGroup::ClusterSharedNodeSecurityGroup -->
<g id="node18" class="node">
<title>SecurityGroup::ClusterSharedNodeSecurityGroup</title>
<polygon fill="#e5e5e5" stroke="#dddddd" points="966,-1041 697,-1041 697,-983 966,-983 966,-1041"/>
<text text-anchor="start" x="709.5" y="-1021.2" font-family="Helvetica,sans-Serif" font-weight="bold" font-size="16.00" fill="#707070">SecurityGroup</text>
<text text-anchor="start" x="709.5" y="-996.2" font-family="Helvetica,sans-Serif" font-size="16.00" fill="#383838">ClusterSharedNodeSecurityGroup</text>
</g>
<!-- SecurityGroup::ClusterSharedNodeSecurityGroup&#45;&gt;Vpc::VPC -->
<g id="edge25" class="edge">
<title>SecurityGroup::ClusterSharedNodeSecurityGroup&#45;&gt;Vpc::VPC</title>
<path fill="none" stroke="#707070" d="M961.93,-982.81C965.17,-980.11 968.2,-977.18 971,-974 1025.14,-912.36 1033.28,-656.39 1034.39,-557.36"/>
<polygon fill="#707070" stroke="#707070" points="1037.89,-557.21 1034.48,-547.18 1030.89,-557.15 1037.89,-557.21"/>
</g>
<!-- SecurityGroup::ControlPlaneSecurityGroup -->
<g id="node19" class="node">
<title>SecurityGroup::ControlPlaneSecurityGroup</title>
<polygon fill="#e5e5e5" stroke="#dddddd" points="942,-585 721,-585 721,-527 942,-527 942,-585"/>
<text text-anchor="start" x="733.5" y="-565.2" font-family="Helvetica,sans-Serif" font-weight="bold" font-size="16.00" fill="#707070">SecurityGroup</text>
<text text-anchor="start" x="733.5" y="-540.2" font-family="Helvetica,sans-Serif" font-size="16.00" fill="#383838">ControlPlaneSecurityGroup</text>
</g>
<!-- SecurityGroup::ControlPlaneSecurityGroup&#45;&gt;Vpc::VPC -->
<g id="edge26" class="edge">
<title>SecurityGroup::ControlPlaneSecurityGroup&#45;&gt;Vpc::VPC</title>
<path fill="none" stroke="#707070" d="M942.07,-535.39C961.85,-531.67 981.19,-528.03 997.03,-525.05"/>
<polygon fill="#707070" stroke="#707070" points="997.71,-528.48 1006.89,-523.19 996.42,-521.6 997.71,-528.48"/>
</g>
<!-- SecurityGroup::eks&#45;cluster&#45;sg&#45;my&#45;cluster&#45;1909614887 -->
<g id="node20" class="node">
<title>SecurityGroup::eks&#45;cluster&#45;sg&#45;my&#45;cluster&#45;1909614887</title>
<polygon fill="#e5e5e5" stroke="#dddddd" points="971,-965 692,-965 692,-907 971,-907 971,-965"/>
<text text-anchor="start" x="704.5" y="-945.2" font-family="Helvetica,sans-Serif" font-weight="bold" font-size="16.00" fill="#707070">SecurityGroup</text>
<text text-anchor="start" x="704.5" y="-920.2" font-family="Helvetica,sans-Serif" font-size="16.00" fill="#383838">eks&#45;cluster&#45;sg&#45;my&#45;cluster&#45;190961...</text>
</g>
<!-- SecurityGroupRuleIngress::ClusterSharedNodeSecurityGroup&#45;rule&#45;ingress&#45;all -->
<g id="node21" class="node">
<title>SecurityGroupRuleIngress::ClusterSharedNodeSecurityGroup&#45;rule&#45;ingress&#45;all</title>
<polygon fill="#e5e5e5" stroke="#dddddd" points="656,-965 364,-965 364,-907 656,-907 656,-965"/>
<text text-anchor="start" x="376" y="-945.2" font-family="Helvetica,sans-Serif" font-weight="bold" font-size="16.00" fill="#707070">SecurityGroupRuleIngress</text>
<text text-anchor="start" x="376" y="-920.2" font-family="Helvetica,sans-Serif" font-size="16.00" fill="#383838">ClusterSharedNodeSecurityGroup&#45;r...</text>
</g>
<!-- SecurityGroupRuleIngress::ClusterSharedNodeSecurityGroup&#45;rule&#45;ingress&#45;all&#45;&gt;SecurityGroup::ClusterSharedNodeSecurityGroup -->
<g id="edge27" class="edge">
<title>SecurityGroupRuleIngress::ClusterSharedNodeSecurityGroup&#45;rule&#45;ingress&#45;all&#45;&gt;SecurityGroup::ClusterSharedNodeSecurityGroup</title>
<path fill="none" stroke="#707070" d="M633.16,-965.06C654.54,-970.15 676.88,-975.46 698.52,-980.61"/>
<polygon fill="#707070" stroke="#707070" points="697.87,-984.05 708.41,-982.96 699.49,-977.24 697.87,-984.05"/>
</g>
<!-- SecurityGroupRuleIngress::ClusterSharedNodeSecurityGroup&#45;rule&#45;ingress&#45;all&#45;&gt;SecurityGroup::eks&#45;cluster&#45;sg&#45;my&#45;cluster&#45;1909614887 -->
<g id="edge28" class="edge">
<title>SecurityGroupRuleIngress::ClusterSharedNodeSecurityGroup&#45;rule&#45;ingress&#45;all&#45;&gt;SecurityGroup::eks&#45;cluster&#45;sg&#45;my&#45;cluster&#45;1909614887</title>
<path fill="none" stroke="#707070" d="M656.26,-936C664.79,-936 673.38,-936 681.92,-936"/>
<polygon fill="#707070" stroke="#707070" points="681.92,-939.5 691.92,-936 681.92,-932.5 681.92,-939.5"/>
</g>
<!-- SecurityGroupRuleIngress::eks&#45;cluster&#45;sg&#45;my&#45;cluster&#45;1909614887&#45;rule&#45;ingress&#45;all -->
<g id="node22" class="node">
<title>SecurityGroupRuleIngress::eks&#45;cluster&#45;sg&#45;my&#45;cluster&#45;1909614887&#45;rule&#45;ingress&#45;all</title>
<polygon fill="#e5e5e5" stroke="#dddddd" points="649.5,-1041 370.5,-1041 370.5,-983 649.5,-983 649.5,-1041"/>
<text text-anchor="start" x="383" y="-1021.2" font-family="Helvetica,sans-Serif" font-weight="bold" font-size="16.00" fill="#707070">SecurityGroupRuleIngress</text>
<text text-anchor="start" x="383" y="-996.2" font-family="Helvetica,sans-Serif" font-size="16.00" fill="#383838">eks&#45;cluster&#45;sg&#45;my&#45;cluster&#45;190961...</text>
</g>
<!-- SecurityGroupRuleIngress::eks&#45;cluster&#45;sg&#45;my&#45;cluster&#45;1909614887&#45;rule&#45;ingress&#45;all&#45;&gt;SecurityGroup::ClusterSharedNodeSecurityGroup -->
<g id="edge30" class="edge">
<title>SecurityGroupRuleIngress::eks&#45;cluster&#45;sg&#45;my&#45;cluster&#45;1909614887&#45;rule&#45;ingress&#45;all&#45;&gt;SecurityGroup::ClusterSharedNodeSecurityGroup</title>
<path fill="none" stroke="#707070" d="M649.74,-1012C661.98,-1012 674.38,-1012 686.66,-1012"/>
<polygon fill="#707070" stroke="#707070" points="686.93,-1015.5 696.93,-1012 686.93,-1008.5 686.93,-1015.5"/>
</g>
<!-- SecurityGroupRuleIngress::eks&#45;cluster&#45;sg&#45;my&#45;cluster&#45;1909614887&#45;rule&#45;ingress&#45;all&#45;&gt;SecurityGroup::eks&#45;cluster&#45;sg&#45;my&#45;cluster&#45;1909614887 -->
<g id="edge29" class="edge">
<title>SecurityGroupRuleIngress::eks&#45;cluster&#45;sg&#45;my&#45;cluster&#45;1909614887&#45;rule&#45;ingress&#45;all&#45;&gt;SecurityGroup::eks&#45;cluster&#45;sg&#45;my&#45;cluster&#45;1909614887</title>
<path fill="none" stroke="#707070" d="M633.16,-982.94C654.54,-977.85 676.88,-972.54 698.52,-967.39"/>
<polygon fill="#707070" stroke="#707070" points="699.49,-970.76 708.41,-965.04 697.87,-963.95 699.49,-970.76"/>
</g>
<!-- LaunchTemplate::eksctl&#45;my&#45;cluster&#45;nodegroup&#45;ng&#45;1 -->
<g id="node24" class="node">
<title>LaunchTemplate::eksctl&#45;my&#45;cluster&#45;nodegroup&#45;ng&#45;1</title>
<polygon fill="#e5e5e5" stroke="#dddddd" points="650,-889 370,-889 370,-831 650,-831 650,-889"/>
<text text-anchor="start" x="382" y="-869.2" font-family="Helvetica,sans-Serif" font-weight="bold" font-size="16.00" fill="#707070">LaunchTemplate</text>
<text text-anchor="start" x="382" y="-844.2" font-family="Helvetica,sans-Serif" font-size="16.00" fill="#383838">eksctl&#45;my&#45;cluster&#45;nodegroup&#45;ng&#45;1...</text>
</g>
<!-- LaunchTemplate::eksctl&#45;my&#45;cluster&#45;nodegroup&#45;ng&#45;1&#45;&gt;SecurityGroup::eks&#45;cluster&#45;sg&#45;my&#45;cluster&#45;1909614887 -->
<g id="edge31" class="edge">
<title>LaunchTemplate::eksctl&#45;my&#45;cluster&#45;nodegroup&#45;ng&#45;1&#45;&gt;SecurityGroup::eks&#45;cluster&#45;sg&#45;my&#45;cluster&#45;1909614887</title>
<path fill="none" stroke="#707070" d="M633.16,-889.06C654.54,-894.15 676.88,-899.46 698.52,-904.61"/>
<polygon fill="#707070" stroke="#707070" points="697.87,-908.05 708.41,-906.96 699.49,-901.24 697.87,-908.05"/>
</g>
<!-- Cluster::my&#45;cluster -->
<g id="node25" class="node">
<title>Cluster::my&#45;cluster</title>
<polygon fill="#e5e5e5" stroke="#dddddd" points="560,-565 460,-565 460,-507 560,-507 560,-565"/>
<text text-anchor="start" x="472" y="-545.2" font-family="Helvetica,sans-Serif" font-weight="bold" font-size="16.00" fill="#707070">Cluster</text>
<text text-anchor="start" x="472" y="-520.2" font-family="Helvetica,sans-Serif" font-size="16.00" fill="#383838">my&#45;cluster</text>
</g>
<!-- Cluster::my&#45;cluster&#45;&gt;Subnet::SubnetPrivateUSEAST1D -->
<g id="edge32" class="edge">
<title>Cluster::my&#45;cluster&#45;&gt;Subnet::SubnetPrivateUSEAST1D</title>
<path fill="none" stroke="#707070" d="M560.19,-528.71C592.21,-521.36 632.28,-506.76 656,-478 710.14,-412.37 634.25,-352.47 692,-290 699.25,-282.16 707.94,-275.88 717.4,-270.86"/>
<polygon fill="#707070" stroke="#707070" points="719.17,-273.89 726.68,-266.42 716.15,-267.58 719.17,-273.89"/>
</g>
<!-- Cluster::my&#45;cluster&#45;&gt;Subnet::SubnetPrivateUSEAST1F -->
<g id="edge33" class="edge">
<title>Cluster::my&#45;cluster&#45;&gt;Subnet::SubnetPrivateUSEAST1F</title>
<path fill="none" stroke="#707070" d="M560.08,-537.67C591.02,-541.18 629.92,-550.46 656,-574 689.83,-604.53 658.35,-639.28 692,-670 699.68,-677.01 708.52,-682.74 717.96,-687.43"/>
<polygon fill="#707070" stroke="#707070" points="716.61,-690.66 727.16,-691.61 719.5,-684.29 716.61,-690.66"/>
</g>
<!-- Cluster::my&#45;cluster&#45;&gt;Subnet::SubnetPublicUSEAST1D -->
<g id="edge34" class="edge">
<title>Cluster::my&#45;cluster&#45;&gt;Subnet::SubnetPublicUSEAST1D</title>
<path fill="none" stroke="#707070" d="M560.22,-527.37C602.65,-519.94 665.49,-508.92 719.9,-499.38"/>
<polygon fill="#707070" stroke="#707070" points="720.71,-502.8 729.96,-497.62 719.5,-495.9 720.71,-502.8"/>
</g>
<!-- Cluster::my&#45;cluster&#45;&gt;Subnet::SubnetPublicUSEAST1F -->
<g id="edge35" class="edge">
<title>Cluster::my&#45;cluster&#45;&gt;Subnet::SubnetPublicUSEAST1F</title>
<path fill="none" stroke="#707070" d="M560.13,-527.49C591.5,-519.65 630.85,-504.96 656,-478 691.66,-439.77 654.24,-402.16 692,-366 700.36,-358 710.23,-351.65 720.81,-346.61"/>
<polygon fill="#707070" stroke="#707070" points="722.47,-349.71 730.26,-342.52 719.69,-343.28 722.47,-349.71"/>
</g>
<!-- Cluster::my&#45;cluster&#45;&gt;SecurityGroup::ControlPlaneSecurityGroup -->
<g id="edge36" class="edge">
<title>Cluster::my&#45;cluster&#45;&gt;SecurityGroup::ControlPlaneSecurityGroup</title>
<path fill="none" stroke="#707070" d="M560.22,-539.08C600.35,-541.59 658.72,-545.25 710.96,-548.52"/>
<polygon fill="#707070" stroke="#707070" points="710.77,-552.01 720.97,-549.14 711.21,-545.03 710.77,-552.01"/>
</g>
<!-- Role::eksctl&#45;my&#45;cluster&#45;cluster&#45;ServiceRole&#45;1T8YHA5ZIYVRB -->
<g id="node27" class="node">
<title>Role::eksctl&#45;my&#45;cluster&#45;cluster&#45;ServiceRole&#45;1T8YHA5ZIYVRB</title>
<polygon fill="#e5e5e5" stroke="#dddddd" points="963.5,-661 699.5,-661 699.5,-603 963.5,-603 963.5,-661"/>
<text text-anchor="start" x="711.5" y="-641.2" font-family="Helvetica,sans-Serif" font-weight="bold" font-size="16.00" fill="#707070">Role</text>
<text text-anchor="start" x="711.5" y="-616.2" font-family="Helvetica,sans-Serif" font-size="16.00" fill="#383838">eksctl&#45;my&#45;cluster&#45;cluster&#45;Servic...</text>
</g>
<!-- Cluster::my&#45;cluster&#45;&gt;Role::eksctl&#45;my&#45;cluster&#45;cluster&#45;ServiceRole&#45;1T8YHA5ZIYVRB -->
<g id="edge37" class="edge">
<title>Cluster::my&#45;cluster&#45;&gt;Role::eksctl&#45;my&#45;cluster&#45;cluster&#45;ServiceRole&#45;1T8YHA5ZIYVRB</title>
<path fill="none" stroke="#707070" d="M560.32,-545.69C588.84,-552.09 625.09,-561.59 656,-574 672.99,-580.82 675.05,-587.08 692,-594 696.71,-595.92 701.55,-597.78 706.47,-599.57"/>
<polygon fill="#707070" stroke="#707070" points="705.43,-602.91 716.02,-602.93 707.75,-596.31 705.43,-602.91"/>
</g>
<!-- NodeGroup::ng&#45;1 -->
<g id="node26" class="node">
<title>NodeGroup::ng&#45;1</title>
<polygon fill="#e5e5e5" stroke="#dddddd" points="232,-565 120,-565 120,-507 232,-507 232,-565"/>
<text text-anchor="start" x="132" y="-545.2" font-family="Helvetica,sans-Serif" font-weight="bold" font-size="16.00" fill="#707070">NodeGroup</text>
<text text-anchor="start" x="132" y="-520.2" font-family="Helvetica,sans-Serif" font-size="16.00" fill="#383838">ng&#45;1</text>
</g>
<!-- NodeGroup::ng&#45;1&#45;&gt;Subnet::SubnetPublicUSEAST1D -->
<g id="edge39" class="edge">
<title>NodeGroup::ng&#45;1&#45;&gt;Subnet::SubnetPublicUSEAST1D</title>
<path fill="none" stroke="#707070" d="M232.26,-522.32C269.29,-513.76 319.27,-503.37 364,-498 484.93,-483.48 624.63,-479.8 719.4,-479.24"/>
<polygon fill="#707070" stroke="#707070" points="719.59,-482.74 729.57,-479.19 719.56,-475.74 719.59,-482.74"/>
</g>
<!-- NodeGroup::ng&#45;1&#45;&gt;Subnet::SubnetPublicUSEAST1F -->
<g id="edge40" class="edge">
<title>NodeGroup::ng&#45;1&#45;&gt;Subnet::SubnetPublicUSEAST1F</title>
<path fill="none" stroke="#707070" d="M198.2,-506.78C237.43,-453.71 321.24,-345.18 364,-326 425.26,-298.52 602.83,-307.48 720.37,-317.2"/>
<polygon fill="#707070" stroke="#707070" points="720.23,-320.7 730.49,-318.05 720.82,-313.72 720.23,-320.7"/>
</g>
<!-- NodeGroup::ng&#45;1&#45;&gt;LaunchTemplate::eksctl&#45;my&#45;cluster&#45;nodegroup&#45;ng&#45;1 -->
<g id="edge42" class="edge">
<title>NodeGroup::ng&#45;1&#45;&gt;LaunchTemplate::eksctl&#45;my&#45;cluster&#45;nodegroup&#45;ng&#45;1</title>
<path fill="none" stroke="#707070" d="M188.32,-565.14C212,-622.27 272.31,-749.3 364,-817 368.42,-820.27 373.09,-823.28 377.94,-826.07"/>
<polygon fill="#707070" stroke="#707070" points="376.37,-829.21 386.84,-830.86 379.68,-823.04 376.37,-829.21"/>
</g>
<!-- NodeGroup::ng&#45;1&#45;&gt;Cluster::my&#45;cluster -->
<g id="edge38" class="edge">
<title>NodeGroup::ng&#45;1&#45;&gt;Cluster::my&#45;cluster</title>
<path fill="none" stroke="#707070" d="M232.2,-536C292.24,-536 387.89,-536 449.56,-536"/>
<polygon fill="#707070" stroke="#707070" points="449.9,-539.5 459.9,-536 449.9,-532.5 449.9,-539.5"/>
</g>
<!-- Role::eksctl&#45;my&#45;cluster&#45;nodegroup&#45;ng&#45;1&#45;NodeInstanceRole&#45;1LT5OVYUG2SEI -->
<g id="node28" class="node">
<title>Role::eksctl&#45;my&#45;cluster&#45;nodegroup&#45;ng&#45;1&#45;NodeInstanceRole&#45;1LT5OVYUG2SEI</title>
<polygon fill="#e5e5e5" stroke="#dddddd" points="650,-641 370,-641 370,-583 650,-583 650,-641"/>
<text text-anchor="start" x="382" y="-621.2" font-family="Helvetica,sans-Serif" font-weight="bold" font-size="16.00" fill="#707070">Role</text>
<text text-anchor="start" x="382" y="-596.2" font-family="Helvetica,sans-Serif" font-size="16.00" fill="#383838">eksctl&#45;my&#45;cluster&#45;nodegroup&#45;ng&#45;1...</text>
</g>
<!-- NodeGroup::ng&#45;1&#45;&gt;Role::eksctl&#45;my&#45;cluster&#45;nodegroup&#45;ng&#45;1&#45;NodeInstanceRole&#45;1LT5OVYUG2SEI -->
<g id="edge41" class="edge">
<title>NodeGroup::ng&#45;1&#45;&gt;Role::eksctl&#45;my&#45;cluster&#45;nodegroup&#45;ng&#45;1&#45;NodeInstanceRole&#45;1LT5OVYUG2SEI</title>
<path fill="none" stroke="#707070" d="M232.2,-548.64C270.48,-557.4 323.25,-569.48 372.45,-580.74"/>
<polygon fill="#707070" stroke="#707070" points="371.7,-584.16 382.23,-582.98 373.27,-577.34 371.7,-584.16"/>
</g>
</g>
</svg>
