<?xml version="1.0" encoding="UTF-8" standalone="no"?>
<!DOCTYPE svg PUBLIC "-//W3C//DTD SVG 1.1//EN"
 "http://www.w3.org/Graphics/SVG/1.1/DTD/svg11.dtd">
<!-- Generated by graphviz version 3.0.0 (20220226.1711)
 -->
<!-- Title: graphname Pages: 1 -->
<svg width="1134pt" height="1149pt"
 viewBox="0.00 0.00 1134.00 1149.00" xmlns="http://www.w3.org/2000/svg" xmlns:xlink="http://www.w3.org/1999/xlink">
<g id="graph0" class="graph" transform="scale(1 1) rotate(0) translate(4 1145)">
<title>graphname</title>
<polygon fill="#fafafa" stroke="transparent" points="-4,4 -4,-1145 1130,-1145 1130,4 -4,4"/>
<text text-anchor="start" x="461" y="-1116.4" font-family="Helvetica,sans-Serif" font-weight="bold" font-size="22.00" fill="#383838">Project EKS Simple</text>
<text text-anchor="start" x="559.5" y="-1100.8" font-family="Helvetica,sans-Serif" font-size="14.00"> &#160;</text>
<text text-anchor="start" x="461" y="-1079.2" font-family="Helvetica,sans-Serif" font-weight="bold" font-size="16.00" fill="#707070">Target Diagram</text>
<g id="clust1" class="cluster">
<title>cluster_aws</title>
<polygon fill="#f5f5f5" stroke="#f5f5f5" points="8,-8 8,-1057 1118,-1057 1118,-8 8,-8"/>
<text text-anchor="start" x="501" y="-23" font-family="Helvetica,sans-Serif" font-weight="bold" font-size="20.00" fill="#707070">Provider aws</text>
</g>
<g id="clust2" class="cluster">
<title>cluster_aws_</title>
<polygon fill="#eeeeee" stroke="#eeeeee" points="16,-54 16,-1049 1110,-1049 1110,-54 16,-54"/>
<text text-anchor="start" x="562.86" y="-58.3" font-family="Helvetica,sans-Serif" font-size="1.00" fill="#383838"> </text>
</g>
<!-- Vpc::VPC -->
<g id="node1" class="node">
<title>Vpc::VPC</title>
<polygon fill="#e5e5e5" stroke="#dddddd" points="1102,-547 1007,-547 1007,-489 1102,-489 1102,-547"/>
<text text-anchor="start" x="1019.5" y="-527.2" font-family="Helvetica,sans-Serif" font-weight="bold" font-size="16.00" fill="#707070">EC2::Vpc</text>
<text text-anchor="start" x="1019.5" y="-502.2" font-family="Helvetica,sans-Serif" font-size="16.00" fill="#383838">VPC</text>
</g>
<!-- InternetGateway::InternetGateway -->
<g id="node2" class="node">
<title>InternetGateway::InternetGateway</title>
<polygon fill="#e5e5e5" stroke="#dddddd" points="927,-813 736,-813 736,-755 927,-755 927,-813"/>
<text text-anchor="start" x="748.5" y="-793.2" font-family="Helvetica,sans-Serif" font-weight="bold" font-size="16.00" fill="#707070">EC2::InternetGateway</text>
<text text-anchor="start" x="748.5" y="-768.2" font-family="Helvetica,sans-Serif" font-size="16.00" fill="#383838">InternetGateway</text>
</g>
<!-- InternetGateway::InternetGateway&#45;&gt;Vpc::VPC -->
<g id="edge1" class="edge">
<title>InternetGateway::InternetGateway&#45;&gt;Vpc::VPC</title>
<path fill="none" stroke="#707070" d="M927.08,-771.11C943.16,-765.46 958.64,-757.42 971,-746 1025.1,-696.03 1043.79,-607.88 1050.2,-557.07"/>
<polygon fill="#707070" stroke="#707070" points="1053.67,-557.46 1051.35,-547.12 1046.72,-556.65 1053.67,-557.46"/>
</g>
<!-- NatGateway::NATGateway -->
<g id="node3" class="node">
<title>NatGateway::NATGateway</title>
<polygon fill="#e5e5e5" stroke="#dddddd" points="589,-291 431,-291 431,-233 589,-233 589,-291"/>
<text text-anchor="start" x="443" y="-271.2" font-family="Helvetica,sans-Serif" font-weight="bold" font-size="16.00" fill="#707070">EC2::NatGateway</text>
<text text-anchor="start" x="443" y="-246.2" font-family="Helvetica,sans-Serif" font-size="16.00" fill="#383838">NATGateway</text>
</g>
<!-- Subnet::SubnetPublicUSEAST1F -->
<g id="node7" class="node">
<title>Subnet::SubnetPublicUSEAST1F</title>
<polygon fill="#e5e5e5" stroke="#dddddd" points="932.5,-357 730.5,-357 730.5,-299 932.5,-299 932.5,-357"/>
<text text-anchor="start" x="742.5" y="-337.2" font-family="Helvetica,sans-Serif" font-weight="bold" font-size="16.00" fill="#707070">EC2::Subnet</text>
<text text-anchor="start" x="742.5" y="-312.2" font-family="Helvetica,sans-Serif" font-size="16.00" fill="#383838">SubnetPublicUSEAST1F</text>
</g>
<!-- NatGateway::NATGateway&#45;&gt;Subnet::SubnetPublicUSEAST1F -->
<g id="edge2" class="edge">
<title>NatGateway::NATGateway&#45;&gt;Subnet::SubnetPublicUSEAST1F</title>
<path fill="none" stroke="#707070" d="M589.16,-278.15C628.66,-286.31 677.27,-296.35 720.48,-305.27"/>
<polygon fill="#707070" stroke="#707070" points="719.97,-308.74 730.48,-307.34 721.39,-301.89 719.97,-308.74"/>
</g>
<!-- ElasticIpAddress::NATIP -->
<g id="node23" class="node">
<title>ElasticIpAddress::NATIP</title>
<polygon fill="#e5e5e5" stroke="#dddddd" points="929.5,-205 733.5,-205 733.5,-147 929.5,-147 929.5,-205"/>
<text text-anchor="start" x="745.5" y="-185.2" font-family="Helvetica,sans-Serif" font-weight="bold" font-size="16.00" fill="#707070">EC2::ElasticIpAddress</text>
<text text-anchor="start" x="745.5" y="-160.2" font-family="Helvetica,sans-Serif" font-size="16.00" fill="#383838">NATIP</text>
</g>
<!-- NatGateway::NATGateway&#45;&gt;ElasticIpAddress::NATIP -->
<g id="edge3" class="edge">
<title>NatGateway::NATGateway&#45;&gt;ElasticIpAddress::NATIP</title>
<path fill="none" stroke="#707070" d="M589.16,-240.96C629.61,-230.07 679.59,-216.62 723.56,-204.78"/>
<polygon fill="#707070" stroke="#707070" points="724.68,-208.11 733.43,-202.13 722.86,-201.35 724.68,-208.11"/>
</g>
<!-- Subnet::SubnetPrivateUSEAST1D -->
<g id="node4" class="node">
<title>Subnet::SubnetPrivateUSEAST1D</title>
<polygon fill="#e5e5e5" stroke="#dddddd" points="936,-281 727,-281 727,-223 936,-223 936,-281"/>
<text text-anchor="start" x="739.5" y="-261.2" font-family="Helvetica,sans-Serif" font-weight="bold" font-size="16.00" fill="#707070">EC2::Subnet</text>
<text text-anchor="start" x="739.5" y="-236.2" font-family="Helvetica,sans-Serif" font-size="16.00" fill="#383838">SubnetPrivateUSEAST1D</text>
</g>
<!-- Subnet::SubnetPrivateUSEAST1D&#45;&gt;Vpc::VPC -->
<g id="edge4" class="edge">
<title>Subnet::SubnetPrivateUSEAST1D&#45;&gt;Vpc::VPC</title>
<path fill="none" stroke="#707070" d="M936.29,-268.43C949.01,-273.76 961.02,-280.78 971,-290 1025.1,-339.97 1043.79,-428.12 1050.2,-478.93"/>
<polygon fill="#707070" stroke="#707070" points="1046.72,-479.35 1051.35,-488.88 1053.67,-478.54 1046.72,-479.35"/>
</g>
<!-- Subnet::SubnetPrivateUSEAST1F -->
<g id="node5" class="node">
<title>Subnet::SubnetPrivateUSEAST1F</title>
<polygon fill="#e5e5e5" stroke="#dddddd" points="935.5,-737 727.5,-737 727.5,-679 935.5,-679 935.5,-737"/>
<text text-anchor="start" x="739.5" y="-717.2" font-family="Helvetica,sans-Serif" font-weight="bold" font-size="16.00" fill="#707070">EC2::Subnet</text>
<text text-anchor="start" x="739.5" y="-692.2" font-family="Helvetica,sans-Serif" font-size="16.00" fill="#383838">SubnetPrivateUSEAST1F</text>
</g>
<!-- Subnet::SubnetPrivateUSEAST1F&#45;&gt;Vpc::VPC -->
<g id="edge5" class="edge">
<title>Subnet::SubnetPrivateUSEAST1F&#45;&gt;Vpc::VPC</title>
<path fill="none" stroke="#707070" d="M935.76,-689.85C948.42,-684.78 960.55,-678.29 971,-670 1007.4,-641.13 1029.93,-591.63 1042.07,-556.99"/>
<polygon fill="#707070" stroke="#707070" points="1045.49,-557.79 1045.36,-547.2 1038.86,-555.56 1045.49,-557.79"/>
</g>
<!-- Subnet::SubnetPublicUSEAST1D -->
<g id="node6" class="node">
<title>Subnet::SubnetPublicUSEAST1D</title>
<polygon fill="#e5e5e5" stroke="#dddddd" points="933,-509 730,-509 730,-451 933,-451 933,-509"/>
<text text-anchor="start" x="742.5" y="-489.2" font-family="Helvetica,sans-Serif" font-weight="bold" font-size="16.00" fill="#707070">EC2::Subnet</text>
<text text-anchor="start" x="742.5" y="-464.2" font-family="Helvetica,sans-Serif" font-size="16.00" fill="#383838">SubnetPublicUSEAST1D</text>
</g>
<!-- Subnet::SubnetPublicUSEAST1D&#45;&gt;Vpc::VPC -->
<g id="edge6" class="edge">
<title>Subnet::SubnetPublicUSEAST1D&#45;&gt;Vpc::VPC</title>
<path fill="none" stroke="#707070" d="M933.3,-497.33C955.21,-501.1 977.63,-504.95 997.08,-508.3"/>
<polygon fill="#707070" stroke="#707070" points="996.52,-511.75 1006.97,-510 997.7,-504.85 996.52,-511.75"/>
</g>
<!-- Subnet::SubnetPublicUSEAST1F&#45;&gt;Vpc::VPC -->
<g id="edge7" class="edge">
<title>Subnet::SubnetPublicUSEAST1F&#45;&gt;Vpc::VPC</title>
<path fill="none" stroke="#707070" d="M932.56,-344.9C946.37,-350.15 959.67,-357.01 971,-366 1007.4,-394.87 1029.93,-444.37 1042.07,-479.01"/>
<polygon fill="#707070" stroke="#707070" points="1038.86,-480.44 1045.36,-488.8 1045.49,-478.21 1038.86,-480.44"/>
</g>
<!-- RouteTable::PrivateRouteTableUSEAST1D -->
<g id="node8" class="node">
<title>RouteTable::PrivateRouteTableUSEAST1D</title>
<polygon fill="#e5e5e5" stroke="#dddddd" points="951.5,-129 711.5,-129 711.5,-71 951.5,-71 951.5,-129"/>
<text text-anchor="start" x="723.5" y="-109.2" font-family="Helvetica,sans-Serif" font-weight="bold" font-size="16.00" fill="#707070">EC2::RouteTable</text>
<text text-anchor="start" x="723.5" y="-84.2" font-family="Helvetica,sans-Serif" font-size="16.00" fill="#383838">PrivateRouteTableUSEAST1D</text>
</g>
<!-- RouteTable::PrivateRouteTableUSEAST1D&#45;&gt;Vpc::VPC -->
<g id="edge8" class="edge">
<title>RouteTable::PrivateRouteTableUSEAST1D&#45;&gt;Vpc::VPC</title>
<path fill="none" stroke="#707070" d="M951.81,-122.67C958.84,-126.96 965.34,-132.03 971,-138 1017.51,-187.09 1041.75,-392.1 1050.09,-478.9"/>
<polygon fill="#707070" stroke="#707070" points="1046.61,-479.26 1051.03,-488.88 1053.58,-478.6 1046.61,-479.26"/>
</g>
<!-- RouteTable::PrivateRouteTableUSEAST1F -->
<g id="node9" class="node">
<title>RouteTable::PrivateRouteTableUSEAST1F</title>
<polygon fill="#e5e5e5" stroke="#dddddd" points="950.5,-889 712.5,-889 712.5,-831 950.5,-831 950.5,-889"/>
<text text-anchor="start" x="724.5" y="-869.2" font-family="Helvetica,sans-Serif" font-weight="bold" font-size="16.00" fill="#707070">EC2::RouteTable</text>
<text text-anchor="start" x="724.5" y="-844.2" font-family="Helvetica,sans-Serif" font-size="16.00" fill="#383838">PrivateRouteTableUSEAST1F</text>
</g>
<!-- RouteTable::PrivateRouteTableUSEAST1F&#45;&gt;Vpc::VPC -->
<g id="edge9" class="edge">
<title>RouteTable::PrivateRouteTableUSEAST1F&#45;&gt;Vpc::VPC</title>
<path fill="none" stroke="#707070" d="M950.81,-837.38C958.17,-833.08 965.01,-828 971,-822 1008.27,-784.63 1036.23,-630.81 1047.74,-557.37"/>
<polygon fill="#707070" stroke="#707070" points="1051.25,-557.56 1049.32,-547.14 1044.34,-556.49 1051.25,-557.56"/>
</g>
<!-- RouteTable::PublicRouteTable -->
<g id="node10" class="node">
<title>RouteTable::PublicRouteTable</title>
<polygon fill="#e5e5e5" stroke="#dddddd" points="907,-433 756,-433 756,-375 907,-375 907,-433"/>
<text text-anchor="start" x="768.5" y="-413.2" font-family="Helvetica,sans-Serif" font-weight="bold" font-size="16.00" fill="#707070">EC2::RouteTable</text>
<text text-anchor="start" x="768.5" y="-388.2" font-family="Helvetica,sans-Serif" font-size="16.00" fill="#383838">PublicRouteTable</text>
</g>
<!-- RouteTable::PublicRouteTable&#45;&gt;Vpc::VPC -->
<g id="edge10" class="edge">
<title>RouteTable::PublicRouteTable&#45;&gt;Vpc::VPC</title>
<path fill="none" stroke="#707070" d="M907.28,-417.59C928.68,-423.28 951.48,-431.18 971,-442 989.42,-452.21 1007,-467.36 1021.16,-481.45"/>
<polygon fill="#707070" stroke="#707070" points="1018.75,-483.99 1028.24,-488.69 1023.76,-479.09 1018.75,-483.99"/>
</g>
<!-- RouteTableAssociation::rt&#45;assoc::PrivateRouteTableUSEAST1D::SubnetPrivateUSEAST1D -->
<g id="node11" class="node">
<title>RouteTableAssociation::rt&#45;assoc::PrivateRouteTableUSEAST1D::SubnetPrivateUSEAST1D</title>
<polygon fill="#e5e5e5" stroke="#dddddd" points="655,-204 365,-204 365,-146 655,-146 655,-204"/>
<text text-anchor="start" x="377" y="-184.2" font-family="Helvetica,sans-Serif" font-weight="bold" font-size="16.00" fill="#707070">EC2::RouteTableAssociation</text>
<text text-anchor="start" x="377" y="-159.2" font-family="Helvetica,sans-Serif" font-size="16.00" fill="#383838">rt&#45;assoc::PrivateRouteTableUSEAS...</text>
</g>
<!-- RouteTableAssociation::rt&#45;assoc::PrivateRouteTableUSEAST1D::SubnetPrivateUSEAST1D&#45;&gt;Subnet::SubnetPrivateUSEAST1D -->
<g id="edge12" class="edge">
<title>RouteTableAssociation::rt&#45;assoc::PrivateRouteTableUSEAST1D::SubnetPrivateUSEAST1D&#45;&gt;Subnet::SubnetPrivateUSEAST1D</title>
<path fill="none" stroke="#707070" d="M631.33,-204C659.42,-210.77 689.24,-217.96 717.02,-224.65"/>
<polygon fill="#707070" stroke="#707070" points="716.21,-228.06 726.75,-227 717.85,-221.25 716.21,-228.06"/>
</g>
<!-- RouteTableAssociation::rt&#45;assoc::PrivateRouteTableUSEAST1D::SubnetPrivateUSEAST1D&#45;&gt;RouteTable::PrivateRouteTableUSEAST1D -->
<g id="edge11" class="edge">
<title>RouteTableAssociation::rt&#45;assoc::PrivateRouteTableUSEAST1D::SubnetPrivateUSEAST1D&#45;&gt;RouteTable::PrivateRouteTableUSEAST1D</title>
<path fill="none" stroke="#707070" d="M634.98,-145.9C656.74,-140.79 679.42,-135.46 701.31,-130.33"/>
<polygon fill="#707070" stroke="#707070" points="702.37,-133.67 711.31,-127.98 700.77,-126.86 702.37,-133.67"/>
</g>
<!-- RouteTableAssociation::rt&#45;assoc::PrivateRouteTableUSEAST1F::SubnetPrivateUSEAST1F -->
<g id="node12" class="node">
<title>RouteTableAssociation::rt&#45;assoc::PrivateRouteTableUSEAST1F::SubnetPrivateUSEAST1F</title>
<polygon fill="#e5e5e5" stroke="#dddddd" points="655,-793 365,-793 365,-735 655,-735 655,-793"/>
<text text-anchor="start" x="377" y="-773.2" font-family="Helvetica,sans-Serif" font-weight="bold" font-size="16.00" fill="#707070">EC2::RouteTableAssociation</text>
<text text-anchor="start" x="377" y="-748.2" font-family="Helvetica,sans-Serif" font-size="16.00" fill="#383838">rt&#45;assoc::PrivateRouteTableUSEAS...</text>
</g>
<!-- RouteTableAssociation::rt&#45;assoc::PrivateRouteTableUSEAST1F::SubnetPrivateUSEAST1F&#45;&gt;Subnet::SubnetPrivateUSEAST1F -->
<g id="edge14" class="edge">
<title>RouteTableAssociation::rt&#45;assoc::PrivateRouteTableUSEAST1F::SubnetPrivateUSEAST1F&#45;&gt;Subnet::SubnetPrivateUSEAST1F</title>
<path fill="none" stroke="#707070" d="M655.33,-738.7C676.12,-735.06 697.27,-731.35 717.34,-727.83"/>
<polygon fill="#707070" stroke="#707070" points="718.17,-731.24 727.42,-726.07 716.96,-724.35 718.17,-731.24"/>
</g>
<!-- RouteTableAssociation::rt&#45;assoc::PrivateRouteTableUSEAST1F::SubnetPrivateUSEAST1F&#45;&gt;RouteTable::PrivateRouteTableUSEAST1F -->
<g id="edge13" class="edge">
<title>RouteTableAssociation::rt&#45;assoc::PrivateRouteTableUSEAST1F::SubnetPrivateUSEAST1F&#45;&gt;RouteTable::PrivateRouteTableUSEAST1F</title>
<path fill="none" stroke="#707070" d="M614.02,-793.07C628.2,-797.51 642.52,-802.21 656,-807 672.33,-812.81 675.61,-816.36 692,-822 697.88,-824.02 703.93,-826.01 710.06,-827.95"/>
<polygon fill="#707070" stroke="#707070" points="709.15,-831.34 719.74,-830.97 711.23,-824.65 709.15,-831.34"/>
</g>
<!-- RouteTableAssociation::rt&#45;assoc::PublicRouteTable::SubnetPublicUSEAST1D -->
<g id="node13" class="node">
<title>RouteTableAssociation::rt&#45;assoc::PublicRouteTable::SubnetPublicUSEAST1D</title>
<polygon fill="#e5e5e5" stroke="#dddddd" points="648.5,-469 371.5,-469 371.5,-411 648.5,-411 648.5,-469"/>
<text text-anchor="start" x="384" y="-449.2" font-family="Helvetica,sans-Serif" font-weight="bold" font-size="16.00" fill="#707070">EC2::RouteTableAssociation</text>
<text text-anchor="start" x="384" y="-424.2" font-family="Helvetica,sans-Serif" font-size="16.00" fill="#383838">rt&#45;assoc::PublicRouteTable::Subn...</text>
</g>
<!-- RouteTableAssociation::rt&#45;assoc::PublicRouteTable::SubnetPublicUSEAST1D&#45;&gt;Subnet::SubnetPublicUSEAST1D -->
<g id="edge16" class="edge">
<title>RouteTableAssociation::rt&#45;assoc::PublicRouteTable::SubnetPublicUSEAST1D&#45;&gt;Subnet::SubnetPublicUSEAST1D</title>
<path fill="none" stroke="#707070" d="M648.81,-457.25C672.5,-460.22 696.84,-463.27 719.7,-466.13"/>
<polygon fill="#707070" stroke="#707070" points="719.39,-469.62 729.75,-467.39 720.26,-462.67 719.39,-469.62"/>
</g>
<!-- RouteTableAssociation::rt&#45;assoc::PublicRouteTable::SubnetPublicUSEAST1D&#45;&gt;RouteTable::PublicRouteTable -->
<g id="edge15" class="edge">
<title>RouteTableAssociation::rt&#45;assoc::PublicRouteTable::SubnetPublicUSEAST1D&#45;&gt;RouteTable::PublicRouteTable</title>
<path fill="none" stroke="#707070" d="M648.81,-424.47C681.75,-420.76 715.95,-416.91 745.68,-413.56"/>
<polygon fill="#707070" stroke="#707070" points="746.45,-416.99 756,-412.39 745.67,-410.04 746.45,-416.99"/>
</g>
<!-- RouteTableAssociation::rt&#45;assoc::PublicRouteTable::SubnetPublicUSEAST1F -->
<g id="node14" class="node">
<title>RouteTableAssociation::rt&#45;assoc::PublicRouteTable::SubnetPublicUSEAST1F</title>
<polygon fill="#e5e5e5" stroke="#dddddd" points="648.5,-393 371.5,-393 371.5,-335 648.5,-335 648.5,-393"/>
<text text-anchor="start" x="384" y="-373.2" font-family="Helvetica,sans-Serif" font-weight="bold" font-size="16.00" fill="#707070">EC2::RouteTableAssociation</text>
<text text-anchor="start" x="384" y="-348.2" font-family="Helvetica,sans-Serif" font-size="16.00" fill="#383838">rt&#45;assoc::PublicRouteTable::Subn...</text>
</g>
<!-- RouteTableAssociation::rt&#45;assoc::PublicRouteTable::SubnetPublicUSEAST1F&#45;&gt;Subnet::SubnetPublicUSEAST1F -->
<g id="edge18" class="edge">
<title>RouteTableAssociation::rt&#45;assoc::PublicRouteTable::SubnetPublicUSEAST1F&#45;&gt;Subnet::SubnetPublicUSEAST1F</title>
<path fill="none" stroke="#707070" d="M648.81,-348.47C672.65,-345.79 697.15,-343.03 720.13,-340.44"/>
<polygon fill="#707070" stroke="#707070" points="720.68,-343.9 730.23,-339.3 719.9,-336.94 720.68,-343.9"/>
</g>
<!-- RouteTableAssociation::rt&#45;assoc::PublicRouteTable::SubnetPublicUSEAST1F&#45;&gt;RouteTable::PublicRouteTable -->
<g id="edge17" class="edge">
<title>RouteTableAssociation::rt&#45;assoc::PublicRouteTable::SubnetPublicUSEAST1F&#45;&gt;RouteTable::PublicRouteTable</title>
<path fill="none" stroke="#707070" d="M648.81,-381.25C681.89,-385.4 716.25,-389.7 746.07,-393.43"/>
<polygon fill="#707070" stroke="#707070" points="745.64,-396.9 756,-394.67 746.51,-389.96 745.64,-396.9"/>
</g>
<!-- Route::PrivateRouteTableUSEAST1D&#45;nat&#45;gateway -->
<g id="node15" class="node">
<title>Route::PrivateRouteTableUSEAST1D&#45;nat&#45;gateway</title>
<polygon fill="#e5e5e5" stroke="#dddddd" points="328,-241 24,-241 24,-183 328,-183 328,-241"/>
<text text-anchor="start" x="36" y="-221.2" font-family="Helvetica,sans-Serif" font-weight="bold" font-size="16.00" fill="#707070">EC2::Route</text>
<text text-anchor="start" x="36" y="-196.2" font-family="Helvetica,sans-Serif" font-size="16.00" fill="#383838">PrivateRouteTableUSEAST1D&#45;nat&#45;ga...</text>
</g>
<!-- Route::PrivateRouteTableUSEAST1D&#45;nat&#45;gateway&#45;&gt;NatGateway::NATGateway -->
<g id="edge20" class="edge">
<title>Route::PrivateRouteTableUSEAST1D&#45;nat&#45;gateway&#45;&gt;NatGateway::NATGateway</title>
<path fill="none" stroke="#707070" d="M328.43,-234.81C359.96,-239.55 392.19,-244.41 420.54,-248.68"/>
<polygon fill="#707070" stroke="#707070" points="420.39,-252.19 430.8,-250.22 421.43,-245.27 420.39,-252.19"/>
</g>
<!-- Route::PrivateRouteTableUSEAST1D&#45;nat&#45;gateway&#45;&gt;RouteTable::PrivateRouteTableUSEAST1D -->
<g id="edge19" class="edge">
<title>Route::PrivateRouteTableUSEAST1D&#45;nat&#45;gateway&#45;&gt;RouteTable::PrivateRouteTableUSEAST1D</title>
<path fill="none" stroke="#707070" d="M236.13,-182.92C272.2,-166.56 319.73,-147.38 364,-137 475.81,-110.79 606.37,-102.24 700.88,-99.84"/>
<polygon fill="#707070" stroke="#707070" points="701.15,-103.34 711.07,-99.61 700.99,-96.34 701.15,-103.34"/>
</g>
<!-- Route::PrivateRouteTableUSEAST1F&#45;nat&#45;gateway -->
<g id="node16" class="node">
<title>Route::PrivateRouteTableUSEAST1F&#45;nat&#45;gateway</title>
<polygon fill="#e5e5e5" stroke="#dddddd" points="327.5,-341 24.5,-341 24.5,-283 327.5,-283 327.5,-341"/>
<text text-anchor="start" x="37" y="-321.2" font-family="Helvetica,sans-Serif" font-weight="bold" font-size="16.00" fill="#707070">EC2::Route</text>
<text text-anchor="start" x="37" y="-296.2" font-family="Helvetica,sans-Serif" font-size="16.00" fill="#383838">PrivateRouteTableUSEAST1F&#45;nat&#45;ga...</text>
</g>
<!-- Route::PrivateRouteTableUSEAST1F&#45;nat&#45;gateway&#45;&gt;NatGateway::NATGateway -->
<g id="edge22" class="edge">
<title>Route::PrivateRouteTableUSEAST1F&#45;nat&#45;gateway&#45;&gt;NatGateway::NATGateway</title>
<path fill="none" stroke="#707070" d="M327.94,-289.27C359.81,-284.47 392.43,-279.56 421.04,-275.25"/>
<polygon fill="#707070" stroke="#707070" points="421.62,-278.7 430.99,-273.75 420.58,-271.78 421.62,-278.7"/>
</g>
<!-- Route::PrivateRouteTableUSEAST1F&#45;nat&#45;gateway&#45;&gt;RouteTable::PrivateRouteTableUSEAST1F -->
<g id="edge21" class="edge">
<title>Route::PrivateRouteTableUSEAST1F&#45;nat&#45;gateway&#45;&gt;RouteTable::PrivateRouteTableUSEAST1F</title>
<path fill="none" stroke="#707070" d="M209.9,-341.22C245.61,-375.08 301.12,-434.4 328,-498 354.48,-560.66 314.72,-755.1 364,-802 387.56,-824.42 623.8,-817.42 656,-822 670.98,-824.13 686.59,-826.83 702.05,-829.81"/>
<polygon fill="#707070" stroke="#707070" points="701.69,-833.3 712.18,-831.8 703.04,-826.44 701.69,-833.3"/>
</g>
<!-- Route::PublicRouteTable&#45;igw -->
<g id="node17" class="node">
<title>Route::PublicRouteTable&#45;igw</title>
<polygon fill="#e5e5e5" stroke="#dddddd" points="600,-717 420,-717 420,-659 600,-659 600,-717"/>
<text text-anchor="start" x="432" y="-697.2" font-family="Helvetica,sans-Serif" font-weight="bold" font-size="16.00" fill="#707070">EC2::Route</text>
<text text-anchor="start" x="432" y="-672.2" font-family="Helvetica,sans-Serif" font-size="16.00" fill="#383838">PublicRouteTable&#45;igw</text>
</g>
<!-- Route::PublicRouteTable&#45;igw&#45;&gt;InternetGateway::InternetGateway -->
<g id="edge24" class="edge">
<title>Route::PublicRouteTable&#45;igw&#45;&gt;InternetGateway::InternetGateway</title>
<path fill="none" stroke="#707070" d="M600.33,-707.64C619,-712.79 638.37,-718.92 656,-726 672.99,-732.82 675.05,-739.08 692,-746 702.91,-750.45 714.52,-754.56 726.18,-758.29"/>
<polygon fill="#707070" stroke="#707070" points="725.4,-761.71 735.99,-761.34 727.48,-755.02 725.4,-761.71"/>
</g>
<!-- Route::PublicRouteTable&#45;igw&#45;&gt;RouteTable::PublicRouteTable -->
<g id="edge23" class="edge">
<title>Route::PublicRouteTable&#45;igw&#45;&gt;RouteTable::PublicRouteTable</title>
<path fill="none" stroke="#707070" d="M600.14,-681.19C621.01,-675.49 641.39,-665.91 656,-650 719.46,-580.9 628.93,-511.46 692,-442 706.04,-426.53 725.73,-417.12 745.86,-411.45"/>
<polygon fill="#707070" stroke="#707070" points="746.92,-414.8 755.76,-408.96 745.21,-408.01 746.92,-414.8"/>
</g>
<!-- SecurityGroup::ClusterSharedNodeSecurityGroup -->
<g id="node18" class="node">
<title>SecurityGroup::ClusterSharedNodeSecurityGroup</title>
<polygon fill="#e5e5e5" stroke="#dddddd" points="966,-1041 697,-1041 697,-983 966,-983 966,-1041"/>
<text text-anchor="start" x="709.5" y="-1021.2" font-family="Helvetica,sans-Serif" font-weight="bold" font-size="16.00" fill="#707070">EC2::SecurityGroup</text>
<text text-anchor="start" x="709.5" y="-996.2" font-family="Helvetica,sans-Serif" font-size="16.00" fill="#383838">ClusterSharedNodeSecurityGroup</text>
</g>
<!-- SecurityGroup::ClusterSharedNodeSecurityGroup&#45;&gt;Vpc::VPC -->
<g id="edge25" class="edge">
<title>SecurityGroup::ClusterSharedNodeSecurityGroup&#45;&gt;Vpc::VPC</title>
<path fill="none" stroke="#707070" d="M961.48,-982.89C964.86,-980.18 968.05,-977.22 971,-974 1026.74,-913.08 1046.13,-656.67 1051.63,-557.45"/>
<polygon fill="#707070" stroke="#707070" points="1055.14,-557.41 1052.18,-547.24 1048.15,-557.04 1055.14,-557.41"/>
</g>
<!-- SecurityGroup::ControlPlaneSecurityGroup -->
<g id="node19" class="node">
<title>SecurityGroup::ControlPlaneSecurityGroup</title>
<polygon fill="#e5e5e5" stroke="#dddddd" points="942,-585 721,-585 721,-527 942,-527 942,-585"/>
<text text-anchor="start" x="733.5" y="-565.2" font-family="Helvetica,sans-Serif" font-weight="bold" font-size="16.00" fill="#707070">EC2::SecurityGroup</text>
<text text-anchor="start" x="733.5" y="-540.2" font-family="Helvetica,sans-Serif" font-size="16.00" fill="#383838">ControlPlaneSecurityGroup</text>
</g>
<!-- SecurityGroup::ControlPlaneSecurityGroup&#45;&gt;Vpc::VPC -->
<g id="edge26" class="edge">
<title>SecurityGroup::ControlPlaneSecurityGroup&#45;&gt;Vpc::VPC</title>
<path fill="none" stroke="#707070" d="M942.03,-537.17C960.99,-533.91 980,-530.64 996.8,-527.75"/>
<polygon fill="#707070" stroke="#707070" points="997.7,-531.15 1006.97,-526 996.52,-524.25 997.7,-531.15"/>
</g>
<!-- SecurityGroup::eks&#45;cluster&#45;sg&#45;my&#45;cluster&#45;1909614887 -->
<g id="node20" class="node">
<title>SecurityGroup::eks&#45;cluster&#45;sg&#45;my&#45;cluster&#45;1909614887</title>
<polygon fill="#e5e5e5" stroke="#dddddd" points="971,-965 692,-965 692,-907 971,-907 971,-965"/>
<text text-anchor="start" x="704.5" y="-945.2" font-family="Helvetica,sans-Serif" font-weight="bold" font-size="16.00" fill="#707070">EC2::SecurityGroup</text>
<text text-anchor="start" x="704.5" y="-920.2" font-family="Helvetica,sans-Serif" font-size="16.00" fill="#383838">eks&#45;cluster&#45;sg&#45;my&#45;cluster&#45;190961...</text>
</g>
<!-- SecurityGroupRuleIngress::ClusterSharedNodeSecurityGroup&#45;rule&#45;ingress&#45;all -->
<g id="node21" class="node">
<title>SecurityGroupRuleIngress::ClusterSharedNodeSecurityGroup&#45;rule&#45;ingress&#45;all</title>
<polygon fill="#e5e5e5" stroke="#dddddd" points="656,-965 364,-965 364,-907 656,-907 656,-965"/>
<text text-anchor="start" x="376" y="-945.2" font-family="Helvetica,sans-Serif" font-weight="bold" font-size="16.00" fill="#707070">EC2::SecurityGroupRuleIngress</text>
<text text-anchor="start" x="376" y="-920.2" font-family="Helvetica,sans-Serif" font-size="16.00" fill="#383838">ClusterSharedNodeSecurityGroup&#45;r...</text>
</g>
<!-- SecurityGroupRuleIngress::ClusterSharedNodeSecurityGroup&#45;rule&#45;ingress&#45;all&#45;&gt;SecurityGroup::ClusterSharedNodeSecurityGroup -->
<g id="edge27" class="edge">
<title>SecurityGroupRuleIngress::ClusterSharedNodeSecurityGroup&#45;rule&#45;ingress&#45;all&#45;&gt;SecurityGroup::ClusterSharedNodeSecurityGroup</title>
<path fill="none" stroke="#707070" d="M633.16,-965.06C654.54,-970.15 676.88,-975.46 698.52,-980.61"/>
<polygon fill="#707070" stroke="#707070" points="697.87,-984.05 708.41,-982.96 699.49,-977.24 697.87,-984.05"/>
</g>
<!-- SecurityGroupRuleIngress::ClusterSharedNodeSecurityGroup&#45;rule&#45;ingress&#45;all&#45;&gt;SecurityGroup::eks&#45;cluster&#45;sg&#45;my&#45;cluster&#45;1909614887 -->
<g id="edge28" class="edge">
<title>SecurityGroupRuleIngress::ClusterSharedNodeSecurityGroup&#45;rule&#45;ingress&#45;all&#45;&gt;SecurityGroup::eks&#45;cluster&#45;sg&#45;my&#45;cluster&#45;1909614887</title>
<path fill="none" stroke="#707070" d="M656.26,-936C664.79,-936 673.38,-936 681.92,-936"/>
<polygon fill="#707070" stroke="#707070" points="681.92,-939.5 691.92,-936 681.92,-932.5 681.92,-939.5"/>
</g>
<!-- SecurityGroupRuleIngress::eks&#45;cluster&#45;sg&#45;my&#45;cluster&#45;1909614887&#45;rule&#45;ingress&#45;all -->
<g id="node22" class="node">
<title>SecurityGroupRuleIngress::eks&#45;cluster&#45;sg&#45;my&#45;cluster&#45;1909614887&#45;rule&#45;ingress&#45;all</title>
<polygon fill="#e5e5e5" stroke="#dddddd" points="649.5,-1041 370.5,-1041 370.5,-983 649.5,-983 649.5,-1041"/>
<text text-anchor="start" x="383" y="-1021.2" font-family="Helvetica,sans-Serif" font-weight="bold" font-size="16.00" fill="#707070">EC2::SecurityGroupRuleIngress</text>
<text text-anchor="start" x="383" y="-996.2" font-family="Helvetica,sans-Serif" font-size="16.00" fill="#383838">eks&#45;cluster&#45;sg&#45;my&#45;cluster&#45;190961...</text>
</g>
<!-- SecurityGroupRuleIngress::eks&#45;cluster&#45;sg&#45;my&#45;cluster&#45;1909614887&#45;rule&#45;ingress&#45;all&#45;&gt;SecurityGroup::ClusterSharedNodeSecurityGroup -->
<g id="edge30" class="edge">
<title>SecurityGroupRuleIngress::eks&#45;cluster&#45;sg&#45;my&#45;cluster&#45;1909614887&#45;rule&#45;ingress&#45;all&#45;&gt;SecurityGroup::ClusterSharedNodeSecurityGroup</title>
<path fill="none" stroke="#707070" d="M649.74,-1012C661.98,-1012 674.38,-1012 686.66,-1012"/>
<polygon fill="#707070" stroke="#707070" points="686.93,-1015.5 696.93,-1012 686.93,-1008.5 686.93,-1015.5"/>
</g>
<!-- SecurityGroupRuleIngress::eks&#45;cluster&#45;sg&#45;my&#45;cluster&#45;1909614887&#45;rule&#45;ingress&#45;all&#45;&gt;SecurityGroup::eks&#45;cluster&#45;sg&#45;my&#45;cluster&#45;1909614887 -->
<g id="edge29" class="edge">
<title>SecurityGroupRuleIngress::eks&#45;cluster&#45;sg&#45;my&#45;cluster&#45;1909614887&#45;rule&#45;ingress&#45;all&#45;&gt;SecurityGroup::eks&#45;cluster&#45;sg&#45;my&#45;cluster&#45;1909614887</title>
<path fill="none" stroke="#707070" d="M633.16,-982.94C654.54,-977.85 676.88,-972.54 698.52,-967.39"/>
<polygon fill="#707070" stroke="#707070" points="699.49,-970.76 708.41,-965.04 697.87,-963.95 699.49,-970.76"/>
</g>
<!-- LaunchTemplate::eksctl&#45;my&#45;cluster&#45;nodegroup&#45;ng&#45;1 -->
<g id="node24" class="node">
<title>LaunchTemplate::eksctl&#45;my&#45;cluster&#45;nodegroup&#45;ng&#45;1</title>
<polygon fill="#e5e5e5" stroke="#dddddd" points="650,-889 370,-889 370,-831 650,-831 650,-889"/>
<text text-anchor="start" x="382" y="-869.2" font-family="Helvetica,sans-Serif" font-weight="bold" font-size="16.00" fill="#707070">EC2::LaunchTemplate</text>
<text text-anchor="start" x="382" y="-844.2" font-family="Helvetica,sans-Serif" font-size="16.00" fill="#383838">eksctl&#45;my&#45;cluster&#45;nodegroup&#45;ng&#45;1...</text>
</g>
<!-- LaunchTemplate::eksctl&#45;my&#45;cluster&#45;nodegroup&#45;ng&#45;1&#45;&gt;SecurityGroup::eks&#45;cluster&#45;sg&#45;my&#45;cluster&#45;1909614887 -->
<g id="edge31" class="edge">
<title>LaunchTemplate::eksctl&#45;my&#45;cluster&#45;nodegroup&#45;ng&#45;1&#45;&gt;SecurityGroup::eks&#45;cluster&#45;sg&#45;my&#45;cluster&#45;1909614887</title>
<path fill="none" stroke="#707070" d="M633.16,-889.06C654.54,-894.15 676.88,-899.46 698.52,-904.61"/>
<polygon fill="#707070" stroke="#707070" points="697.87,-908.05 708.41,-906.96 699.49,-901.24 697.87,-908.05"/>
</g>
<!-- Cluster::my&#45;cluster -->
<g id="node25" class="node">
<title>Cluster::my&#45;cluster</title>
<polygon fill="#e5e5e5" stroke="#dddddd" points="571,-565 449,-565 449,-507 571,-507 571,-565"/>
<text text-anchor="start" x="461" y="-545.2" font-family="Helvetica,sans-Serif" font-weight="bold" font-size="16.00" fill="#707070">EKS::Cluster</text>
<text text-anchor="start" x="461" y="-520.2" font-family="Helvetica,sans-Serif" font-size="16.00" fill="#383838">my&#45;cluster</text>
</g>
<!-- Cluster::my&#45;cluster&#45;&gt;Subnet::SubnetPrivateUSEAST1D -->
<g id="edge32" class="edge">
<title>Cluster::my&#45;cluster&#45;&gt;Subnet::SubnetPrivateUSEAST1D</title>
<path fill="none" stroke="#707070" d="M571.29,-525.94C601.03,-517.88 634.95,-503.52 656,-478 710.14,-412.37 634.25,-352.47 692,-290 699.25,-282.16 707.94,-275.88 717.4,-270.86"/>
<polygon fill="#707070" stroke="#707070" points="719.17,-273.89 726.68,-266.42 716.15,-267.58 719.17,-273.89"/>
</g>
<!-- Cluster::my&#45;cluster&#45;&gt;Subnet::SubnetPrivateUSEAST1F -->
<g id="edge33" class="edge">
<title>Cluster::my&#45;cluster&#45;&gt;Subnet::SubnetPrivateUSEAST1F</title>
<path fill="none" stroke="#707070" d="M571.02,-539.12C599.78,-543.5 632.91,-553.17 656,-574 689.83,-604.53 658.35,-639.28 692,-670 699.68,-677.01 708.52,-682.74 717.96,-687.43"/>
<polygon fill="#707070" stroke="#707070" points="716.61,-690.66 727.16,-691.61 719.5,-684.29 716.61,-690.66"/>
</g>
<!-- Cluster::my&#45;cluster&#45;&gt;Subnet::SubnetPublicUSEAST1D -->
<g id="edge34" class="edge">
<title>Cluster::my&#45;cluster&#45;&gt;Subnet::SubnetPublicUSEAST1D</title>
<path fill="none" stroke="#707070" d="M571.1,-525.47C612.95,-518.13 670.01,-508.13 719.96,-499.38"/>
<polygon fill="#707070" stroke="#707070" points="720.6,-502.82 729.84,-497.64 719.39,-495.92 720.6,-502.82"/>
</g>
<!-- Cluster::my&#45;cluster&#45;&gt;Subnet::SubnetPublicUSEAST1F -->
<g id="edge35" class="edge">
<title>Cluster::my&#45;cluster&#45;&gt;Subnet::SubnetPublicUSEAST1F</title>
<path fill="none" stroke="#707070" d="M571.13,-524.53C600.28,-516.14 633.71,-501.89 656,-478 691.66,-439.77 654.24,-402.16 692,-366 700.36,-358 710.23,-351.65 720.81,-346.61"/>
<polygon fill="#707070" stroke="#707070" points="722.47,-349.71 730.26,-342.52 719.69,-343.28 722.47,-349.71"/>
</g>
<!-- Cluster::my&#45;cluster&#45;&gt;SecurityGroup::ControlPlaneSecurityGroup -->
<g id="edge36" class="edge">
<title>Cluster::my&#45;cluster&#45;&gt;SecurityGroup::ControlPlaneSecurityGroup</title>
<path fill="none" stroke="#707070" d="M571.1,-539.76C610.42,-542.22 663.15,-545.52 710.8,-548.51"/>
<polygon fill="#707070" stroke="#707070" points="710.69,-552.01 720.89,-549.14 711.12,-545.02 710.69,-552.01"/>
</g>
<!-- Role::eksctl&#45;my&#45;cluster&#45;cluster&#45;ServiceRole&#45;1T8YHA5ZIYVRB -->
<g id="node27" class="node">
<title>Role::eksctl&#45;my&#45;cluster&#45;cluster&#45;ServiceRole&#45;1T8YHA5ZIYVRB</title>
<polygon fill="#e5e5e5" stroke="#dddddd" points="963.5,-661 699.5,-661 699.5,-603 963.5,-603 963.5,-661"/>
<text text-anchor="start" x="711.5" y="-641.2" font-family="Helvetica,sans-Serif" font-weight="bold" font-size="16.00" fill="#707070">IAM::Role</text>
<text text-anchor="start" x="711.5" y="-616.2" font-family="Helvetica,sans-Serif" font-size="16.00" fill="#383838">eksctl&#45;my&#45;cluster&#45;cluster&#45;Servic...</text>
</g>
<!-- Cluster::my&#45;cluster&#45;&gt;Role::eksctl&#45;my&#45;cluster&#45;cluster&#45;ServiceRole&#45;1T8YHA5ZIYVRB -->
<g id="edge37" class="edge">
<title>Cluster::my&#45;cluster&#45;&gt;Role::eksctl&#45;my&#45;cluster&#45;cluster&#45;ServiceRole&#45;1T8YHA5ZIYVRB</title>
<path fill="none" stroke="#707070" d="M571.35,-548.24C597.82,-554.51 628.95,-563.14 656,-574 672.99,-580.82 675.05,-587.08 692,-594 696.71,-595.92 701.55,-597.78 706.47,-599.57"/>
<polygon fill="#707070" stroke="#707070" points="705.43,-602.91 716.02,-602.93 707.75,-596.31 705.43,-602.91"/>
</g>
<!-- NodeGroup::ng&#45;1 -->
<g id="node26" class="node">
<title>NodeGroup::ng&#45;1</title>
<polygon fill="#e5e5e5" stroke="#dddddd" points="253.5,-565 98.5,-565 98.5,-507 253.5,-507 253.5,-565"/>
<text text-anchor="start" x="111" y="-545.2" font-family="Helvetica,sans-Serif" font-weight="bold" font-size="16.00" fill="#707070">EKS::NodeGroup</text>
<text text-anchor="start" x="111" y="-520.2" font-family="Helvetica,sans-Serif" font-size="16.00" fill="#383838">ng&#45;1</text>
</g>
<!-- NodeGroup::ng&#45;1&#45;&gt;Subnet::SubnetPublicUSEAST1D -->
<g id="edge39" class="edge">
<title>NodeGroup::ng&#45;1&#45;&gt;Subnet::SubnetPublicUSEAST1D</title>
<path fill="none" stroke="#707070" d="M253.88,-517.46C287.48,-510.11 327.49,-502.38 364,-498 484.93,-483.48 624.63,-479.8 719.4,-479.24"/>
<polygon fill="#707070" stroke="#707070" points="719.59,-482.74 729.57,-479.19 719.56,-475.74 719.59,-482.74"/>
</g>
<!-- NodeGroup::ng&#45;1&#45;&gt;Subnet::SubnetPublicUSEAST1F -->
<g id="edge40" class="edge">
<title>NodeGroup::ng&#45;1&#45;&gt;Subnet::SubnetPublicUSEAST1F</title>
<path fill="none" stroke="#707070" d="M198.2,-506.78C237.43,-453.71 321.24,-345.18 364,-326 425.26,-298.52 602.83,-307.48 720.37,-317.2"/>
<polygon fill="#707070" stroke="#707070" points="720.23,-320.7 730.49,-318.05 720.82,-313.72 720.23,-320.7"/>
</g>
<!-- NodeGroup::ng&#45;1&#45;&gt;LaunchTemplate::eksctl&#45;my&#45;cluster&#45;nodegroup&#45;ng&#45;1 -->
<g id="edge42" class="edge">
<title>NodeGroup::ng&#45;1&#45;&gt;LaunchTemplate::eksctl&#45;my&#45;cluster&#45;nodegroup&#45;ng&#45;1</title>
<path fill="none" stroke="#707070" d="M188.32,-565.14C212,-622.27 272.31,-749.3 364,-817 368.42,-820.27 373.09,-823.28 377.94,-826.07"/>
<polygon fill="#707070" stroke="#707070" points="376.37,-829.21 386.84,-830.86 379.68,-823.04 376.37,-829.21"/>
</g>
<!-- NodeGroup::ng&#45;1&#45;&gt;Cluster::my&#45;cluster -->
<g id="edge38" class="edge">
<title>NodeGroup::ng&#45;1&#45;&gt;Cluster::my&#45;cluster</title>
<path fill="none" stroke="#707070" d="M253.58,-536C309.35,-536 384.32,-536 438.6,-536"/>
<polygon fill="#707070" stroke="#707070" points="438.82,-539.5 448.82,-536 438.82,-532.5 438.82,-539.5"/>
</g>
<!-- Role::eksctl&#45;my&#45;cluster&#45;nodegroup&#45;ng&#45;1&#45;NodeInstanceRole&#45;1LT5OVYUG2SEI -->
<g id="node28" class="node">
<title>Role::eksctl&#45;my&#45;cluster&#45;nodegroup&#45;ng&#45;1&#45;NodeInstanceRole&#45;1LT5OVYUG2SEI</title>
<polygon fill="#e5e5e5" stroke="#dddddd" points="650,-641 370,-641 370,-583 650,-583 650,-641"/>
<text text-anchor="start" x="382" y="-621.2" font-family="Helvetica,sans-Serif" font-weight="bold" font-size="16.00" fill="#707070">IAM::Role</text>
<text text-anchor="start" x="382" y="-596.2" font-family="Helvetica,sans-Serif" font-size="16.00" fill="#383838">eksctl&#45;my&#45;cluster&#45;nodegroup&#45;ng&#45;1...</text>
</g>
<!-- NodeGroup::ng&#45;1&#45;&gt;Role::eksctl&#45;my&#45;cluster&#45;nodegroup&#45;ng&#45;1&#45;NodeInstanceRole&#45;1LT5OVYUG2SEI -->
<g id="edge41" class="edge">
<title>NodeGroup::ng&#45;1&#45;&gt;Role::eksctl&#45;my&#45;cluster&#45;nodegroup&#45;ng&#45;1&#45;NodeInstanceRole&#45;1LT5OVYUG2SEI</title>
<path fill="none" stroke="#707070" d="M253.58,-553.53C288.79,-561.59 331.64,-571.4 372.11,-580.66"/>
<polygon fill="#707070" stroke="#707070" points="371.54,-584.12 382.07,-582.94 373.1,-577.3 371.54,-584.12"/>
</g>
</g>
</svg>
