<?xml version="1.0" encoding="UTF-8" standalone="no"?>
<!DOCTYPE svg PUBLIC "-//W3C//DTD SVG 1.1//EN"
 "http://www.w3.org/Graphics/SVG/1.1/DTD/svg11.dtd">
<!-- Generated by graphviz version 3.0.0 (20220226.1711)
 -->
<!-- Title: graphname Pages: 1 -->
<svg width="1426pt" height="1057pt"
 viewBox="0.00 0.00 1426.00 1057.00" xmlns="http://www.w3.org/2000/svg" xmlns:xlink="http://www.w3.org/1999/xlink">
<g id="graph0" class="graph" transform="scale(1 1) rotate(0) translate(4 1053)">
<title>graphname</title>
<polygon fill="#fafafa" stroke="transparent" points="-4,4 -4,-1053 1422,-1053 1422,4 -4,4"/>
<text text-anchor="start" x="613" y="-1024.4" font-family="Helvetica,sans-Serif" font-weight="bold" font-size="22.00" fill="#383838">Project eks&#45;simple</text>
<text text-anchor="start" x="705.5" y="-1008.8" font-family="Helvetica,sans-Serif" font-size="14.00"> &#160;</text>
<text text-anchor="start" x="613" y="-987.2" font-family="Helvetica,sans-Serif" font-weight="bold" font-size="16.00" fill="#707070">Live Diagram</text>
<g id="clust1" class="cluster">
<title>cluster_aws</title>
<polygon fill="#f5f5f5" stroke="#f5f5f5" points="8,-8 8,-965 1410,-965 1410,-8 8,-8"/>
<text text-anchor="start" x="647" y="-23" font-family="Helvetica,sans-Serif" font-weight="bold" font-size="20.00" fill="#707070">Provider aws</text>
</g>
<g id="clust2" class="cluster">
<title>cluster_aws_</title>
<polygon fill="#eeeeee" stroke="#eeeeee" points="16,-54 16,-957 1402,-957 1402,-54 16,-54"/>
<text text-anchor="start" x="708.86" y="-58.3" font-family="Helvetica,sans-Serif" font-size="1.00" fill="#383838"> </text>
</g>
<!-- ElasticIpAddress::::NATIP -->
<g id="node1" class="node">
<title>ElasticIpAddress::::NATIP</title>
<polygon fill="#e5e5e5" stroke="#dddddd" points="1226.5,-833 1030.5,-833 1030.5,-775 1226.5,-775 1226.5,-833"/>
<text text-anchor="start" x="1042.5" y="-813.2" font-family="Helvetica,sans-Serif" font-weight="bold" font-size="16.00" fill="#707070">EC2::ElasticIpAddress</text>
<text text-anchor="start" x="1042.5" y="-788.2" font-family="Helvetica,sans-Serif" font-size="16.00" fill="#383838">NATIP</text>
</g>
<!-- InternetGateway::::InternetGateway -->
<g id="node2" class="node">
<title>InternetGateway::::InternetGateway</title>
<polygon fill="#e5e5e5" stroke="#dddddd" points="1224,-170 1033,-170 1033,-112 1224,-112 1224,-170"/>
<text text-anchor="start" x="1045.5" y="-150.2" font-family="Helvetica,sans-Serif" font-weight="bold" font-size="16.00" fill="#707070">EC2::InternetGateway</text>
<text text-anchor="start" x="1045.5" y="-125.2" font-family="Helvetica,sans-Serif" font-size="16.00" fill="#383838">InternetGateway</text>
</g>
<!-- Vpc::::VPC -->
<g id="node19" class="node">
<title>Vpc::::VPC</title>
<polygon fill="#e5e5e5" stroke="#dddddd" points="1394,-551 1299,-551 1299,-493 1394,-493 1394,-551"/>
<text text-anchor="start" x="1311.5" y="-531.2" font-family="Helvetica,sans-Serif" font-weight="bold" font-size="16.00" fill="#707070">EC2::Vpc</text>
<text text-anchor="start" x="1311.5" y="-506.2" font-family="Helvetica,sans-Serif" font-size="16.00" fill="#383838">VPC</text>
</g>
<!-- InternetGateway::::InternetGateway&#45;&gt;Vpc::::VPC -->
<g id="edge1" class="edge">
<title>InternetGateway::::InternetGateway&#45;&gt;Vpc::::VPC</title>
<path fill="none" stroke="#707070" d="M1224.07,-166.77C1238.69,-174.23 1252.41,-183.78 1263,-196 1334.85,-278.93 1345.67,-415.8 1346.34,-482.72"/>
<polygon fill="#707070" stroke="#707070" points="1342.84,-482.84 1346.37,-492.83 1349.84,-482.82 1342.84,-482.84"/>
</g>
<!-- LaunchTemplate::::eksctl&#45;my&#45;cluster&#45;nodegroup&#45;ng&#45;1 -->
<g id="node3" class="node">
<title>LaunchTemplate::::eksctl&#45;my&#45;cluster&#45;nodegroup&#45;ng&#45;1</title>
<polygon fill="#e5e5e5" stroke="#dddddd" points="631,-549 351,-549 351,-491 631,-491 631,-549"/>
<text text-anchor="start" x="363" y="-529.2" font-family="Helvetica,sans-Serif" font-weight="bold" font-size="16.00" fill="#707070">EC2::LaunchTemplate</text>
<text text-anchor="start" x="363" y="-504.2" font-family="Helvetica,sans-Serif" font-size="16.00" fill="#383838">eksctl&#45;my&#45;cluster&#45;nodegroup&#45;ng&#45;1...</text>
</g>
<!-- SecurityGroup::::eks&#45;cluster&#45;sg&#45;my&#45;cluster&#45;1909614887 -->
<g id="node26" class="node">
<title>SecurityGroup::::eks&#45;cluster&#45;sg&#45;my&#45;cluster&#45;1909614887</title>
<polygon fill="#e5e5e5" stroke="#dddddd" points="958,-623 679,-623 679,-565 958,-565 958,-623"/>
<text text-anchor="start" x="691.5" y="-603.2" font-family="Helvetica,sans-Serif" font-weight="bold" font-size="16.00" fill="#707070">EC2::SecurityGroup</text>
<text text-anchor="start" x="691.5" y="-578.2" font-family="Helvetica,sans-Serif" font-size="16.00" fill="#383838">eks&#45;cluster&#45;sg&#45;my&#45;cluster&#45;190961...</text>
</g>
<!-- LaunchTemplate::::eksctl&#45;my&#45;cluster&#45;nodegroup&#45;ng&#45;1&#45;&gt;SecurityGroup::::eks&#45;cluster&#45;sg&#45;my&#45;cluster&#45;1909614887 -->
<g id="edge2" class="edge">
<title>LaunchTemplate::::eksctl&#45;my&#45;cluster&#45;nodegroup&#45;ng&#45;1&#45;&gt;SecurityGroup::::eks&#45;cluster&#45;sg&#45;my&#45;cluster&#45;1909614887</title>
<path fill="none" stroke="#707070" d="M619.71,-549.03C639.53,-553.54 660.08,-558.21 680.11,-562.76"/>
<polygon fill="#707070" stroke="#707070" points="679.36,-566.18 689.89,-564.99 680.91,-559.36 679.36,-566.18"/>
</g>
<!-- NatGateway::::NATGateway -->
<g id="node4" class="node">
<title>NatGateway::::NATGateway</title>
<polygon fill="#e5e5e5" stroke="#dddddd" points="897.5,-853 739.5,-853 739.5,-795 897.5,-795 897.5,-853"/>
<text text-anchor="start" x="751.5" y="-833.2" font-family="Helvetica,sans-Serif" font-weight="bold" font-size="16.00" fill="#707070">EC2::NatGateway</text>
<text text-anchor="start" x="751.5" y="-808.2" font-family="Helvetica,sans-Serif" font-size="16.00" fill="#383838">NATGateway</text>
</g>
<!-- NatGateway::::NATGateway&#45;&gt;ElasticIpAddress::::NATIP -->
<g id="edge4" class="edge">
<title>NatGateway::::NATGateway&#45;&gt;ElasticIpAddress::::NATIP</title>
<path fill="none" stroke="#707070" d="M897.62,-818.93C934.83,-816.51 979.93,-813.58 1020.28,-810.96"/>
<polygon fill="#707070" stroke="#707070" points="1020.68,-814.44 1030.43,-810.3 1020.23,-807.46 1020.68,-814.44"/>
</g>
<!-- Subnet::::SubnetPublicUSEAST1F -->
<g id="node18" class="node">
<title>Subnet::::SubnetPublicUSEAST1F</title>
<polygon fill="#e5e5e5" stroke="#dddddd" points="1229.5,-359 1027.5,-359 1027.5,-301 1229.5,-301 1229.5,-359"/>
<text text-anchor="start" x="1039.5" y="-339.2" font-family="Helvetica,sans-Serif" font-weight="bold" font-size="16.00" fill="#707070">EC2::Subnet</text>
<text text-anchor="start" x="1039.5" y="-314.2" font-family="Helvetica,sans-Serif" font-size="16.00" fill="#383838">SubnetPublicUSEAST1F</text>
</g>
<!-- NatGateway::::NATGateway&#45;&gt;Subnet::::SubnetPublicUSEAST1F -->
<g id="edge3" class="edge">
<title>NatGateway::::NATGateway&#45;&gt;Subnet::::SubnetPublicUSEAST1F</title>
<path fill="none" stroke="#707070" d="M897.66,-818.43C920.05,-813.04 942.55,-803.29 958,-786 1026.93,-708.84 959.07,-653.39 994,-556 1019.6,-484.62 1068.33,-410.55 1099.3,-367.44"/>
<polygon fill="#707070" stroke="#707070" points="1102.21,-369.39 1105.24,-359.24 1096.54,-365.28 1102.21,-369.39"/>
</g>
<!-- Route::::PrivateRouteTableUSEAST1D&#45;nat&#45;gateway -->
<g id="node5" class="node">
<title>Route::::PrivateRouteTableUSEAST1D&#45;nat&#45;gateway</title>
<polygon fill="#e5e5e5" stroke="#dddddd" points="643,-873 339,-873 339,-815 643,-815 643,-873"/>
<text text-anchor="start" x="351" y="-853.2" font-family="Helvetica,sans-Serif" font-weight="bold" font-size="16.00" fill="#707070">EC2::Route</text>
<text text-anchor="start" x="351" y="-828.2" font-family="Helvetica,sans-Serif" font-size="16.00" fill="#383838">PrivateRouteTableUSEAST1D&#45;nat&#45;ga...</text>
</g>
<!-- Route::::PrivateRouteTableUSEAST1D&#45;nat&#45;gateway&#45;&gt;NatGateway::::NATGateway -->
<g id="edge6" class="edge">
<title>Route::::PrivateRouteTableUSEAST1D&#45;nat&#45;gateway&#45;&gt;NatGateway::::NATGateway</title>
<path fill="none" stroke="#707070" d="M643.32,-834.7C672.76,-832.89 702.7,-831.05 729.27,-829.42"/>
<polygon fill="#707070" stroke="#707070" points="729.51,-832.91 739.28,-828.81 729.08,-825.93 729.51,-832.91"/>
</g>
<!-- RouteTable::::PrivateRouteTableUSEAST1D -->
<g id="node8" class="node">
<title>RouteTable::::PrivateRouteTableUSEAST1D</title>
<polygon fill="#e5e5e5" stroke="#dddddd" points="938.5,-929 698.5,-929 698.5,-871 938.5,-871 938.5,-929"/>
<text text-anchor="start" x="710.5" y="-909.2" font-family="Helvetica,sans-Serif" font-weight="bold" font-size="16.00" fill="#707070">EC2::RouteTable</text>
<text text-anchor="start" x="710.5" y="-884.2" font-family="Helvetica,sans-Serif" font-size="16.00" fill="#383838">PrivateRouteTableUSEAST1D</text>
</g>
<!-- Route::::PrivateRouteTableUSEAST1D&#45;nat&#45;gateway&#45;&gt;RouteTable::::PrivateRouteTableUSEAST1D -->
<g id="edge5" class="edge">
<title>Route::::PrivateRouteTableUSEAST1D&#45;nat&#45;gateway&#45;&gt;RouteTable::::PrivateRouteTableUSEAST1D</title>
<path fill="none" stroke="#707070" d="M643.32,-870.03C658.29,-872.61 673.39,-875.21 688.11,-877.74"/>
<polygon fill="#707070" stroke="#707070" points="687.79,-881.24 698.24,-879.48 688.98,-874.34 687.79,-881.24"/>
</g>
<!-- Route::::PrivateRouteTableUSEAST1F&#45;nat&#45;gateway -->
<g id="node6" class="node">
<title>Route::::PrivateRouteTableUSEAST1F&#45;nat&#45;gateway</title>
<polygon fill="#e5e5e5" stroke="#dddddd" points="642.5,-797 339.5,-797 339.5,-739 642.5,-739 642.5,-797"/>
<text text-anchor="start" x="352" y="-777.2" font-family="Helvetica,sans-Serif" font-weight="bold" font-size="16.00" fill="#707070">EC2::Route</text>
<text text-anchor="start" x="352" y="-752.2" font-family="Helvetica,sans-Serif" font-size="16.00" fill="#383838">PrivateRouteTableUSEAST1F&#45;nat&#45;ga...</text>
</g>
<!-- Route::::PrivateRouteTableUSEAST1F&#45;nat&#45;gateway&#45;&gt;NatGateway::::NATGateway -->
<g id="edge8" class="edge">
<title>Route::::PrivateRouteTableUSEAST1F&#45;nat&#45;gateway&#45;&gt;NatGateway::::NATGateway</title>
<path fill="none" stroke="#707070" d="M642.84,-793.95C672.48,-799.05 702.65,-804.24 729.39,-808.84"/>
<polygon fill="#707070" stroke="#707070" points="729.01,-812.33 739.46,-810.57 730.2,-805.43 729.01,-812.33"/>
</g>
<!-- RouteTable::::PrivateRouteTableUSEAST1F -->
<g id="node9" class="node">
<title>RouteTable::::PrivateRouteTableUSEAST1F</title>
<polygon fill="#e5e5e5" stroke="#dddddd" points="937.5,-777 699.5,-777 699.5,-719 937.5,-719 937.5,-777"/>
<text text-anchor="start" x="711.5" y="-757.2" font-family="Helvetica,sans-Serif" font-weight="bold" font-size="16.00" fill="#707070">EC2::RouteTable</text>
<text text-anchor="start" x="711.5" y="-732.2" font-family="Helvetica,sans-Serif" font-size="16.00" fill="#383838">PrivateRouteTableUSEAST1F</text>
</g>
<!-- Route::::PrivateRouteTableUSEAST1F&#45;nat&#45;gateway&#45;&gt;RouteTable::::PrivateRouteTableUSEAST1F -->
<g id="edge7" class="edge">
<title>Route::::PrivateRouteTableUSEAST1F&#45;nat&#45;gateway&#45;&gt;RouteTable::::PrivateRouteTableUSEAST1F</title>
<path fill="none" stroke="#707070" d="M642.84,-758.73C658.24,-757.79 673.79,-756.83 688.92,-755.9"/>
<polygon fill="#707070" stroke="#707070" points="689.56,-759.37 699.33,-755.26 689.13,-752.38 689.56,-759.37"/>
</g>
<!-- Route::::PublicRouteTable&#45;igw -->
<g id="node7" class="node">
<title>Route::::PublicRouteTable&#45;igw</title>
<polygon fill="#e5e5e5" stroke="#dddddd" points="581,-225 401,-225 401,-167 581,-167 581,-225"/>
<text text-anchor="start" x="413" y="-205.2" font-family="Helvetica,sans-Serif" font-weight="bold" font-size="16.00" fill="#707070">EC2::Route</text>
<text text-anchor="start" x="413" y="-180.2" font-family="Helvetica,sans-Serif" font-size="16.00" fill="#383838">PublicRouteTable&#45;igw</text>
</g>
<!-- Route::::PublicRouteTable&#45;igw&#45;&gt;InternetGateway::::InternetGateway -->
<g id="edge10" class="edge">
<title>Route::::PublicRouteTable&#45;igw&#45;&gt;InternetGateway::::InternetGateway</title>
<path fill="none" stroke="#707070" d="M581.03,-188.29C696.99,-178.26 899.4,-160.74 1022.65,-150.07"/>
<polygon fill="#707070" stroke="#707070" points="1023.2,-153.54 1032.86,-149.19 1022.59,-146.57 1023.2,-153.54"/>
</g>
<!-- RouteTable::::PublicRouteTable -->
<g id="node10" class="node">
<title>RouteTable::::PublicRouteTable</title>
<polygon fill="#e5e5e5" stroke="#dddddd" points="894,-275 743,-275 743,-217 894,-217 894,-275"/>
<text text-anchor="start" x="755.5" y="-255.2" font-family="Helvetica,sans-Serif" font-weight="bold" font-size="16.00" fill="#707070">EC2::RouteTable</text>
<text text-anchor="start" x="755.5" y="-230.2" font-family="Helvetica,sans-Serif" font-size="16.00" fill="#383838">PublicRouteTable</text>
</g>
<!-- Route::::PublicRouteTable&#45;igw&#45;&gt;RouteTable::::PublicRouteTable -->
<g id="edge9" class="edge">
<title>Route::::PublicRouteTable&#45;igw&#45;&gt;RouteTable::::PublicRouteTable</title>
<path fill="none" stroke="#707070" d="M581.37,-209.73C628.63,-216.99 686.32,-225.85 732.85,-233"/>
<polygon fill="#707070" stroke="#707070" points="732.49,-236.48 742.9,-234.54 733.55,-229.56 732.49,-236.48"/>
</g>
<!-- Subnet::::SubnetPrivateUSEAST1D -->
<g id="node15" class="node">
<title>Subnet::::SubnetPrivateUSEAST1D</title>
<polygon fill="#e5e5e5" stroke="#dddddd" points="1233,-929 1024,-929 1024,-871 1233,-871 1233,-929"/>
<text text-anchor="start" x="1036.5" y="-909.2" font-family="Helvetica,sans-Serif" font-weight="bold" font-size="16.00" fill="#707070">EC2::Subnet</text>
<text text-anchor="start" x="1036.5" y="-884.2" font-family="Helvetica,sans-Serif" font-size="16.00" fill="#383838">SubnetPrivateUSEAST1D</text>
</g>
<!-- RouteTable::::PrivateRouteTableUSEAST1D&#45;&gt;Subnet::::SubnetPrivateUSEAST1D -->
<g id="edge12" class="edge">
<title>RouteTable::::PrivateRouteTableUSEAST1D&#45;&gt;Subnet::::SubnetPrivateUSEAST1D</title>
<path fill="none" stroke="#707070" d="M938.58,-900C963.28,-900 989.24,-900 1013.74,-900"/>
<polygon fill="#707070" stroke="#707070" points="1013.78,-903.5 1023.78,-900 1013.78,-896.5 1013.78,-903.5"/>
</g>
<!-- RouteTable::::PrivateRouteTableUSEAST1D&#45;&gt;Vpc::::VPC -->
<g id="edge11" class="edge">
<title>RouteTable::::PrivateRouteTableUSEAST1D&#45;&gt;Vpc::::VPC</title>
<path fill="none" stroke="#707070" d="M938.78,-871.7C957.19,-868.01 976.05,-864.61 994,-862 1023.66,-857.69 1240.01,-861.22 1263,-842 1305.98,-806.06 1331.4,-638.7 1341.04,-561.36"/>
<polygon fill="#707070" stroke="#707070" points="1344.55,-561.42 1342.29,-551.07 1337.61,-560.58 1344.55,-561.42"/>
</g>
<!-- Subnet::::SubnetPrivateUSEAST1F -->
<g id="node16" class="node">
<title>Subnet::::SubnetPrivateUSEAST1F</title>
<polygon fill="#e5e5e5" stroke="#dddddd" points="1232.5,-704 1024.5,-704 1024.5,-646 1232.5,-646 1232.5,-704"/>
<text text-anchor="start" x="1036.5" y="-684.2" font-family="Helvetica,sans-Serif" font-weight="bold" font-size="16.00" fill="#707070">EC2::Subnet</text>
<text text-anchor="start" x="1036.5" y="-659.2" font-family="Helvetica,sans-Serif" font-size="16.00" fill="#383838">SubnetPrivateUSEAST1F</text>
</g>
<!-- RouteTable::::PrivateRouteTableUSEAST1F&#45;&gt;Subnet::::SubnetPrivateUSEAST1F -->
<g id="edge14" class="edge">
<title>RouteTable::::PrivateRouteTableUSEAST1F&#45;&gt;Subnet::::SubnetPrivateUSEAST1F</title>
<path fill="none" stroke="#707070" d="M937.7,-719.99C962.86,-714.02 989.37,-707.74 1014.34,-701.82"/>
<polygon fill="#707070" stroke="#707070" points="1015.27,-705.2 1024.19,-699.49 1013.65,-698.39 1015.27,-705.2"/>
</g>
<!-- RouteTable::::PrivateRouteTableUSEAST1F&#45;&gt;Vpc::::VPC -->
<g id="edge13" class="edge">
<title>RouteTable::::PrivateRouteTableUSEAST1F&#45;&gt;Vpc::::VPC</title>
<path fill="none" stroke="#707070" d="M937.56,-752.08C1051.06,-753.66 1212.59,-749.06 1263,-713 1312.61,-677.52 1332.66,-605.75 1340.57,-561"/>
<polygon fill="#707070" stroke="#707070" points="1344.04,-561.5 1342.21,-551.06 1337.13,-560.36 1344.04,-561.5"/>
</g>
<!-- Subnet::::SubnetPublicUSEAST1D -->
<g id="node17" class="node">
<title>Subnet::::SubnetPublicUSEAST1D</title>
<polygon fill="#e5e5e5" stroke="#dddddd" points="1230,-263 1027,-263 1027,-205 1230,-205 1230,-263"/>
<text text-anchor="start" x="1039.5" y="-243.2" font-family="Helvetica,sans-Serif" font-weight="bold" font-size="16.00" fill="#707070">EC2::Subnet</text>
<text text-anchor="start" x="1039.5" y="-218.2" font-family="Helvetica,sans-Serif" font-size="16.00" fill="#383838">SubnetPublicUSEAST1D</text>
</g>
<!-- RouteTable::::PublicRouteTable&#45;&gt;Subnet::::SubnetPublicUSEAST1D -->
<g id="edge16" class="edge">
<title>RouteTable::::PublicRouteTable&#45;&gt;Subnet::::SubnetPublicUSEAST1D</title>
<path fill="none" stroke="#707070" d="M894.06,-243.1C930.82,-241.66 975.9,-239.91 1016.61,-238.32"/>
<polygon fill="#707070" stroke="#707070" points="1017.01,-241.81 1026.86,-237.92 1016.73,-234.81 1017.01,-241.81"/>
</g>
<!-- RouteTable::::PublicRouteTable&#45;&gt;Subnet::::SubnetPublicUSEAST1F -->
<g id="edge17" class="edge">
<title>RouteTable::::PublicRouteTable&#45;&gt;Subnet::::SubnetPublicUSEAST1F</title>
<path fill="none" stroke="#707070" d="M894.06,-266.33C931.14,-276.45 976.69,-288.87 1017.68,-300.05"/>
<polygon fill="#707070" stroke="#707070" points="1016.87,-303.46 1027.44,-302.71 1018.71,-296.7 1016.87,-303.46"/>
</g>
<!-- RouteTable::::PublicRouteTable&#45;&gt;Vpc::::VPC -->
<g id="edge15" class="edge">
<title>RouteTable::::PublicRouteTable&#45;&gt;Vpc::::VPC</title>
<path fill="none" stroke="#707070" d="M894.07,-258.35C924.93,-263.13 961.12,-268.33 994,-272 1023.79,-275.32 1239.15,-273.85 1263,-292 1322.82,-337.51 1339.36,-430.2 1343.87,-482.96"/>
<polygon fill="#707070" stroke="#707070" points="1340.38,-483.25 1344.62,-492.96 1347.36,-482.72 1340.38,-483.25"/>
</g>
<!-- RouteTableAssociation::::rt&#45;assoc::PrivateRouteTableUSEAST1D::SubnetPrivateUSEAST1D -->
<g id="node11" class="node">
<title>RouteTableAssociation::::rt&#45;assoc::PrivateRouteTableUSEAST1D::SubnetPrivateUSEAST1D</title>
<polygon fill="#e5e5e5" stroke="#dddddd" points="636,-949 346,-949 346,-891 636,-891 636,-949"/>
<text text-anchor="start" x="358" y="-929.2" font-family="Helvetica,sans-Serif" font-weight="bold" font-size="16.00" fill="#707070">EC2::RouteTableAssociation</text>
<text text-anchor="start" x="358" y="-904.2" font-family="Helvetica,sans-Serif" font-size="16.00" fill="#383838">rt&#45;assoc::PrivateRouteTableUSEAS...</text>
</g>
<!-- RouteTableAssociation::::rt&#45;assoc::PrivateRouteTableUSEAST1D::SubnetPrivateUSEAST1D&#45;&gt;RouteTable::::PrivateRouteTableUSEAST1D -->
<g id="edge18" class="edge">
<title>RouteTableAssociation::::rt&#45;assoc::PrivateRouteTableUSEAST1D::SubnetPrivateUSEAST1D&#45;&gt;RouteTable::::PrivateRouteTableUSEAST1D</title>
<path fill="none" stroke="#707070" d="M636.19,-911.14C653.53,-910.07 671.16,-908.99 688.27,-907.94"/>
<polygon fill="#707070" stroke="#707070" points="688.51,-911.43 698.28,-907.33 688.08,-904.45 688.51,-911.43"/>
</g>
<!-- RouteTableAssociation::::rt&#45;assoc::PrivateRouteTableUSEAST1D::SubnetPrivateUSEAST1D&#45;&gt;Subnet::::SubnetPrivateUSEAST1D -->
<g id="edge19" class="edge">
<title>RouteTableAssociation::::rt&#45;assoc::PrivateRouteTableUSEAST1D::SubnetPrivateUSEAST1D&#45;&gt;Subnet::::SubnetPrivateUSEAST1D</title>
<path fill="none" stroke="#707070" d="M636.2,-936.59C728.46,-944.49 850.57,-949.89 958,-938 976.17,-935.99 995.23,-932.8 1013.75,-929.1"/>
<polygon fill="#707070" stroke="#707070" points="1014.58,-932.51 1023.68,-927.07 1013.18,-925.65 1014.58,-932.51"/>
</g>
<!-- RouteTableAssociation::::rt&#45;assoc::PrivateRouteTableUSEAST1F::SubnetPrivateUSEAST1F -->
<g id="node12" class="node">
<title>RouteTableAssociation::::rt&#45;assoc::PrivateRouteTableUSEAST1F::SubnetPrivateUSEAST1F</title>
<polygon fill="#e5e5e5" stroke="#dddddd" points="636,-721 346,-721 346,-663 636,-663 636,-721"/>
<text text-anchor="start" x="358" y="-701.2" font-family="Helvetica,sans-Serif" font-weight="bold" font-size="16.00" fill="#707070">EC2::RouteTableAssociation</text>
<text text-anchor="start" x="358" y="-676.2" font-family="Helvetica,sans-Serif" font-size="16.00" fill="#383838">rt&#45;assoc::PrivateRouteTableUSEAS...</text>
</g>
<!-- RouteTableAssociation::::rt&#45;assoc::PrivateRouteTableUSEAST1F::SubnetPrivateUSEAST1F&#45;&gt;RouteTable::::PrivateRouteTableUSEAST1F -->
<g id="edge20" class="edge">
<title>RouteTableAssociation::::rt&#45;assoc::PrivateRouteTableUSEAST1F::SubnetPrivateUSEAST1F&#45;&gt;RouteTable::::PrivateRouteTableUSEAST1F</title>
<path fill="none" stroke="#707070" d="M636.19,-716.81C653.82,-719.84 671.74,-722.92 689.11,-725.91"/>
<polygon fill="#707070" stroke="#707070" points="688.82,-729.41 699.27,-727.66 690.01,-722.51 688.82,-729.41"/>
</g>
<!-- RouteTableAssociation::::rt&#45;assoc::PrivateRouteTableUSEAST1F::SubnetPrivateUSEAST1F&#45;&gt;Subnet::::SubnetPrivateUSEAST1F -->
<g id="edge21" class="edge">
<title>RouteTableAssociation::::rt&#45;assoc::PrivateRouteTableUSEAST1F::SubnetPrivateUSEAST1F&#45;&gt;Subnet::::SubnetPrivateUSEAST1F</title>
<path fill="none" stroke="#707070" d="M636.2,-688.14C750.79,-685.08 908.82,-680.85 1014.39,-678.03"/>
<polygon fill="#707070" stroke="#707070" points="1014.54,-681.52 1024.44,-677.76 1014.35,-674.53 1014.54,-681.52"/>
</g>
<!-- RouteTableAssociation::::rt&#45;assoc::PublicRouteTable::SubnetPublicUSEAST1D -->
<g id="node13" class="node">
<title>RouteTableAssociation::::rt&#45;assoc::PublicRouteTable::SubnetPublicUSEAST1D</title>
<polygon fill="#e5e5e5" stroke="#dddddd" points="629.5,-301 352.5,-301 352.5,-243 629.5,-243 629.5,-301"/>
<text text-anchor="start" x="365" y="-281.2" font-family="Helvetica,sans-Serif" font-weight="bold" font-size="16.00" fill="#707070">EC2::RouteTableAssociation</text>
<text text-anchor="start" x="365" y="-256.2" font-family="Helvetica,sans-Serif" font-size="16.00" fill="#383838">rt&#45;assoc::PublicRouteTable::Subn...</text>
</g>
<!-- RouteTableAssociation::::rt&#45;assoc::PublicRouteTable::SubnetPublicUSEAST1D&#45;&gt;RouteTable::::PublicRouteTable -->
<g id="edge22" class="edge">
<title>RouteTableAssociation::::rt&#45;assoc::PublicRouteTable::SubnetPublicUSEAST1D&#45;&gt;RouteTable::::PublicRouteTable</title>
<path fill="none" stroke="#707070" d="M629.57,-261.01C664.64,-258.21 701.31,-255.28 732.85,-252.76"/>
<polygon fill="#707070" stroke="#707070" points="733.21,-256.24 742.9,-251.96 732.65,-249.27 733.21,-256.24"/>
</g>
<!-- RouteTableAssociation::::rt&#45;assoc::PublicRouteTable::SubnetPublicUSEAST1D&#45;&gt;Subnet::::SubnetPublicUSEAST1D -->
<g id="edge23" class="edge">
<title>RouteTableAssociation::::rt&#45;assoc::PublicRouteTable::SubnetPublicUSEAST1D&#45;&gt;Subnet::::SubnetPublicUSEAST1D</title>
<path fill="none" stroke="#707070" d="M621.65,-242.87C628.97,-240.15 636.14,-237.2 643,-234 660.89,-225.66 660.22,-214.07 679,-208 789.98,-172.11 924.36,-187.03 1016.92,-205.64"/>
<polygon fill="#707070" stroke="#707070" points="1016.37,-209.1 1026.87,-207.68 1017.78,-202.24 1016.37,-209.1"/>
</g>
<!-- RouteTableAssociation::::rt&#45;assoc::PublicRouteTable::SubnetPublicUSEAST1F -->
<g id="node14" class="node">
<title>RouteTableAssociation::::rt&#45;assoc::PublicRouteTable::SubnetPublicUSEAST1F</title>
<polygon fill="#e5e5e5" stroke="#dddddd" points="629.5,-377 352.5,-377 352.5,-319 629.5,-319 629.5,-377"/>
<text text-anchor="start" x="365" y="-357.2" font-family="Helvetica,sans-Serif" font-weight="bold" font-size="16.00" fill="#707070">EC2::RouteTableAssociation</text>
<text text-anchor="start" x="365" y="-332.2" font-family="Helvetica,sans-Serif" font-size="16.00" fill="#383838">rt&#45;assoc::PublicRouteTable::Subn...</text>
</g>
<!-- RouteTableAssociation::::rt&#45;assoc::PublicRouteTable::SubnetPublicUSEAST1F&#45;&gt;RouteTable::::PublicRouteTable -->
<g id="edge24" class="edge">
<title>RouteTableAssociation::::rt&#45;assoc::PublicRouteTable::SubnetPublicUSEAST1F&#45;&gt;RouteTable::::PublicRouteTable</title>
<path fill="none" stroke="#707070" d="M618.91,-318.87C627.15,-316.12 635.24,-313.17 643,-310 660.15,-303 662.05,-296.46 679,-289 696.09,-281.48 714.91,-274.71 733.01,-268.88"/>
<polygon fill="#707070" stroke="#707070" points="734.2,-272.17 742.69,-265.83 732.1,-265.5 734.2,-272.17"/>
</g>
<!-- RouteTableAssociation::::rt&#45;assoc::PublicRouteTable::SubnetPublicUSEAST1F&#45;&gt;Subnet::::SubnetPublicUSEAST1F -->
<g id="edge25" class="edge">
<title>RouteTableAssociation::::rt&#45;assoc::PublicRouteTable::SubnetPublicUSEAST1F&#45;&gt;Subnet::::SubnetPublicUSEAST1F</title>
<path fill="none" stroke="#707070" d="M629.75,-332.41C646.32,-331 663.03,-329.81 679,-329 802.84,-322.72 834,-328.63 958,-329 977.05,-329.06 997.29,-329.15 1016.92,-329.25"/>
<polygon fill="#707070" stroke="#707070" points="1017.1,-332.75 1027.12,-329.31 1017.14,-325.75 1017.1,-332.75"/>
</g>
<!-- Subnet::::SubnetPrivateUSEAST1D&#45;&gt;Vpc::::VPC -->
<g id="edge37" class="edge">
<title>Subnet::::SubnetPrivateUSEAST1D&#45;&gt;Vpc::::VPC</title>
<path fill="none" stroke="#707070" d="M1233.26,-878.75C1244.34,-873.11 1254.62,-865.99 1263,-857 1303.06,-814.02 1330.18,-640.16 1340.66,-561.27"/>
<polygon fill="#707070" stroke="#707070" points="1344.14,-561.61 1341.97,-551.24 1337.2,-560.7 1344.14,-561.61"/>
</g>
<!-- Subnet::::SubnetPrivateUSEAST1F&#45;&gt;Vpc::::VPC -->
<g id="edge38" class="edge">
<title>Subnet::::SubnetPrivateUSEAST1F&#45;&gt;Vpc::::VPC</title>
<path fill="none" stroke="#707070" d="M1232.52,-649.1C1243.29,-644.3 1253.68,-638.64 1263,-632 1289.2,-613.32 1310.68,-583.82 1325.15,-560.07"/>
<polygon fill="#707070" stroke="#707070" points="1328.26,-561.67 1330.34,-551.28 1322.24,-558.11 1328.26,-561.67"/>
</g>
<!-- Subnet::::SubnetPublicUSEAST1D&#45;&gt;Vpc::::VPC -->
<g id="edge39" class="edge">
<title>Subnet::::SubnetPublicUSEAST1D&#45;&gt;Vpc::::VPC</title>
<path fill="none" stroke="#707070" d="M1230.2,-254.82C1242.29,-260.51 1253.64,-267.76 1263,-277 1319.6,-332.86 1337.37,-428.76 1342.95,-482.52"/>
<polygon fill="#707070" stroke="#707070" points="1339.49,-483.06 1343.91,-492.68 1346.45,-482.4 1339.49,-483.06"/>
</g>
<!-- Subnet::::SubnetPublicUSEAST1F&#45;&gt;Vpc::::VPC -->
<g id="edge40" class="edge">
<title>Subnet::::SubnetPublicUSEAST1F&#45;&gt;Vpc::::VPC</title>
<path fill="none" stroke="#707070" d="M1229.74,-352.92C1241.69,-358.28 1253.13,-364.88 1263,-373 1298.02,-401.81 1320.69,-449.57 1333.24,-483.24"/>
<polygon fill="#707070" stroke="#707070" points="1329.99,-484.54 1336.66,-492.77 1336.57,-482.18 1329.99,-484.54"/>
</g>
<!-- Cluster::::my&#45;cluster -->
<g id="node20" class="node">
<title>Cluster::::my&#45;cluster</title>
<polygon fill="#e5e5e5" stroke="#dddddd" points="552,-473 430,-473 430,-415 552,-415 552,-473"/>
<text text-anchor="start" x="442" y="-453.2" font-family="Helvetica,sans-Serif" font-weight="bold" font-size="16.00" fill="#707070">EKS::Cluster</text>
<text text-anchor="start" x="442" y="-428.2" font-family="Helvetica,sans-Serif" font-size="16.00" fill="#383838">my&#45;cluster</text>
</g>
<!-- Cluster::::my&#45;cluster&#45;&gt;Subnet::::SubnetPrivateUSEAST1D -->
<g id="edge43" class="edge">
<title>Cluster::::my&#45;cluster&#45;&gt;Subnet::::SubnetPrivateUSEAST1D</title>
<path fill="none" stroke="#707070" d="M552.09,-444.61C583.27,-448.13 619.63,-457.78 643,-482 696.03,-536.94 625.02,-595.98 679,-650 768.65,-739.72 865.91,-622.79 958,-710 1002.15,-751.81 954.2,-796.03 994,-842 1002.09,-851.35 1011.97,-859.24 1022.65,-865.89"/>
<polygon fill="#707070" stroke="#707070" points="1020.96,-868.96 1031.37,-870.96 1024.48,-862.91 1020.96,-868.96"/>
</g>
<!-- Cluster::::my&#45;cluster&#45;&gt;Subnet::::SubnetPrivateUSEAST1F -->
<g id="edge44" class="edge">
<title>Cluster::::my&#45;cluster&#45;&gt;Subnet::::SubnetPrivateUSEAST1F</title>
<path fill="none" stroke="#707070" d="M552.13,-448.94C581.66,-453.77 616.5,-463.29 643,-482 666.56,-498.63 654.07,-521.49 679,-536 732.72,-567.27 906.7,-520.9 958,-556 988.85,-577.1 965.9,-607.35 994,-632 1000.45,-637.65 1007.65,-642.57 1015.27,-646.84"/>
<polygon fill="#707070" stroke="#707070" points="1013.9,-650.07 1024.39,-651.55 1017.12,-643.85 1013.9,-650.07"/>
</g>
<!-- Cluster::::my&#45;cluster&#45;&gt;Subnet::::SubnetPublicUSEAST1D -->
<g id="edge45" class="edge">
<title>Cluster::::my&#45;cluster&#45;&gt;Subnet::::SubnetPublicUSEAST1D</title>
<path fill="none" stroke="#707070" d="M552.34,-429.59C581.75,-420.49 616.42,-406.49 643,-386 664.69,-369.28 655.88,-350.67 679,-336 785.5,-268.41 835.35,-313.44 958,-284 979.96,-278.73 1003.3,-272.36 1025.42,-265.95"/>
<polygon fill="#707070" stroke="#707070" points="1026.53,-269.27 1035.15,-263.11 1024.57,-262.55 1026.53,-269.27"/>
</g>
<!-- Cluster::::my&#45;cluster&#45;&gt;Subnet::::SubnetPublicUSEAST1F -->
<g id="edge46" class="edge">
<title>Cluster::::my&#45;cluster&#45;&gt;Subnet::::SubnetPublicUSEAST1F</title>
<path fill="none" stroke="#707070" d="M552.12,-433.39C580.81,-426.73 614.92,-416.41 643,-401 661.77,-390.7 659.34,-377.47 679,-369 709.28,-355.96 894.54,-343.16 1017.29,-335.96"/>
<polygon fill="#707070" stroke="#707070" points="1017.71,-339.44 1027.49,-335.36 1017.3,-332.45 1017.71,-339.44"/>
</g>
<!-- Cluster::::my&#45;cluster&#45;&gt;Vpc::::VPC -->
<g id="edge41" class="edge">
<title>Cluster::::my&#45;cluster&#45;&gt;Vpc::::VPC</title>
<path fill="none" stroke="#707070" d="M552.22,-426.78C580.01,-418.55 613.35,-408.27 643,-398 659.22,-392.38 662.13,-387.17 679,-384 800.87,-361.14 835.81,-362.89 958,-384 1080.65,-405.19 1215.92,-461.49 1289.76,-495.28"/>
<polygon fill="#707070" stroke="#707070" points="1288.35,-498.48 1298.89,-499.48 1291.28,-492.12 1288.35,-498.48"/>
</g>
<!-- Role::::eksctl&#45;my&#45;cluster&#45;cluster&#45;ServiceRole&#45;1T8YHA5ZIYVRB -->
<g id="node22" class="node">
<title>Role::::eksctl&#45;my&#45;cluster&#45;cluster&#45;ServiceRole&#45;1T8YHA5ZIYVRB</title>
<polygon fill="#e5e5e5" stroke="#dddddd" points="950.5,-451 686.5,-451 686.5,-393 950.5,-393 950.5,-451"/>
<text text-anchor="start" x="698.5" y="-431.2" font-family="Helvetica,sans-Serif" font-weight="bold" font-size="16.00" fill="#707070">IAM::Role</text>
<text text-anchor="start" x="698.5" y="-406.2" font-family="Helvetica,sans-Serif" font-size="16.00" fill="#383838">eksctl&#45;my&#45;cluster&#45;cluster&#45;Servic...</text>
</g>
<!-- Cluster::::my&#45;cluster&#45;&gt;Role::::eksctl&#45;my&#45;cluster&#45;cluster&#45;ServiceRole&#45;1T8YHA5ZIYVRB -->
<g id="edge42" class="edge">
<title>Cluster::::my&#45;cluster&#45;&gt;Role::::eksctl&#45;my&#45;cluster&#45;cluster&#45;ServiceRole&#45;1T8YHA5ZIYVRB</title>
<path fill="none" stroke="#707070" d="M552.08,-439.94C587.02,-437.58 632.62,-434.5 676.15,-431.55"/>
<polygon fill="#707070" stroke="#707070" points="676.53,-435.04 686.27,-430.87 676.06,-428.05 676.53,-435.04"/>
</g>
<!-- SecurityGroup::::ControlPlaneSecurityGroup -->
<g id="node25" class="node">
<title>SecurityGroup::::ControlPlaneSecurityGroup</title>
<polygon fill="#e5e5e5" stroke="#dddddd" points="929,-527 708,-527 708,-469 929,-469 929,-527"/>
<text text-anchor="start" x="720.5" y="-507.2" font-family="Helvetica,sans-Serif" font-weight="bold" font-size="16.00" fill="#707070">EC2::SecurityGroup</text>
<text text-anchor="start" x="720.5" y="-482.2" font-family="Helvetica,sans-Serif" font-size="16.00" fill="#383838">ControlPlaneSecurityGroup</text>
</g>
<!-- Cluster::::my&#45;cluster&#45;&gt;SecurityGroup::::ControlPlaneSecurityGroup -->
<g id="edge48" class="edge">
<title>Cluster::::my&#45;cluster&#45;&gt;SecurityGroup::::ControlPlaneSecurityGroup</title>
<path fill="none" stroke="#707070" d="M552.08,-453.97C592.81,-460.72 648.04,-469.89 697.57,-478.1"/>
<polygon fill="#707070" stroke="#707070" points="697.28,-481.6 707.72,-479.79 698.43,-474.7 697.28,-481.6"/>
</g>
<!-- Cluster::::my&#45;cluster&#45;&gt;SecurityGroup::::eks&#45;cluster&#45;sg&#45;my&#45;cluster&#45;1909614887 -->
<g id="edge47" class="edge">
<title>Cluster::::my&#45;cluster&#45;&gt;SecurityGroup::::eks&#45;cluster&#45;sg&#45;my&#45;cluster&#45;1909614887</title>
<path fill="none" stroke="#707070" d="M552.27,-439.6C582.19,-443.14 617.33,-452.73 643,-473 670.15,-494.43 652.44,-519.84 679,-542 687.99,-549.5 698.27,-555.69 709.1,-560.86"/>
<polygon fill="#707070" stroke="#707070" points="707.74,-564.09 718.3,-564.97 710.59,-557.7 707.74,-564.09"/>
</g>
<!-- NodeGroup::::ng&#45;1 -->
<g id="node21" class="node">
<title>NodeGroup::::ng&#45;1</title>
<polygon fill="#e5e5e5" stroke="#dddddd" points="241,-425 86,-425 86,-367 241,-367 241,-425"/>
<text text-anchor="start" x="98.5" y="-405.2" font-family="Helvetica,sans-Serif" font-weight="bold" font-size="16.00" fill="#707070">EKS::NodeGroup</text>
<text text-anchor="start" x="98.5" y="-380.2" font-family="Helvetica,sans-Serif" font-size="16.00" fill="#383838">ng&#45;1</text>
</g>
<!-- NodeGroup::::ng&#45;1&#45;&gt;LaunchTemplate::::eksctl&#45;my&#45;cluster&#45;nodegroup&#45;ng&#45;1 -->
<g id="edge53" class="edge">
<title>NodeGroup::::ng&#45;1&#45;&gt;LaunchTemplate::::eksctl&#45;my&#45;cluster&#45;nodegroup&#45;ng&#45;1</title>
<path fill="none" stroke="#707070" d="M216.3,-425.14C250.36,-443.39 296.36,-466.33 339,-482 344.53,-484.03 350.21,-485.99 355.97,-487.88"/>
<polygon fill="#707070" stroke="#707070" points="355.16,-491.29 365.75,-490.99 357.28,-484.62 355.16,-491.29"/>
</g>
<!-- NodeGroup::::ng&#45;1&#45;&gt;Subnet::::SubnetPublicUSEAST1D -->
<g id="edge50" class="edge">
<title>NodeGroup::::ng&#45;1&#45;&gt;Subnet::::SubnetPublicUSEAST1D</title>
<path fill="none" stroke="#707070" d="M175.48,-366.74C197.25,-313.53 251.48,-202.35 339,-158 400.4,-126.89 890.37,-169.21 958,-182 983.63,-186.85 1010.87,-194.18 1035.84,-201.83"/>
<polygon fill="#707070" stroke="#707070" points="1035.07,-205.25 1045.66,-204.89 1037.15,-198.57 1035.07,-205.25"/>
</g>
<!-- NodeGroup::::ng&#45;1&#45;&gt;Subnet::::SubnetPublicUSEAST1F -->
<g id="edge51" class="edge">
<title>NodeGroup::::ng&#45;1&#45;&gt;Subnet::::SubnetPublicUSEAST1F</title>
<path fill="none" stroke="#707070" d="M241.23,-398.01C367.4,-400.78 608.23,-403.62 643,-386 666.47,-374.11 655.52,-350.88 679,-339 693.86,-331.48 889.24,-329.99 1017.17,-329.83"/>
<polygon fill="#707070" stroke="#707070" points="1017.42,-333.33 1027.41,-329.82 1017.41,-326.33 1017.42,-333.33"/>
</g>
<!-- NodeGroup::::ng&#45;1&#45;&gt;Cluster::::my&#45;cluster -->
<g id="edge49" class="edge">
<title>NodeGroup::::ng&#45;1&#45;&gt;Cluster::::my&#45;cluster</title>
<path fill="none" stroke="#707070" d="M241.23,-407.31C295.35,-415.3 367.28,-425.9 419.87,-433.66"/>
<polygon fill="#707070" stroke="#707070" points="419.38,-437.12 429.78,-435.12 420.4,-430.2 419.38,-437.12"/>
</g>
<!-- Role::::eksctl&#45;my&#45;cluster&#45;nodegroup&#45;ng&#45;1&#45;NodeInstanceRole&#45;1LT5OVYUG2SEI -->
<g id="node23" class="node">
<title>Role::::eksctl&#45;my&#45;cluster&#45;nodegroup&#45;ng&#45;1&#45;NodeInstanceRole&#45;1LT5OVYUG2SEI</title>
<polygon fill="#e5e5e5" stroke="#dddddd" points="631,-129 351,-129 351,-71 631,-71 631,-129"/>
<text text-anchor="start" x="363" y="-109.2" font-family="Helvetica,sans-Serif" font-weight="bold" font-size="16.00" fill="#707070">IAM::Role</text>
<text text-anchor="start" x="363" y="-84.2" font-family="Helvetica,sans-Serif" font-size="16.00" fill="#383838">eksctl&#45;my&#45;cluster&#45;nodegroup&#45;ng&#45;1...</text>
</g>
<!-- NodeGroup::::ng&#45;1&#45;&gt;Role::::eksctl&#45;my&#45;cluster&#45;nodegroup&#45;ng&#45;1&#45;NodeInstanceRole&#45;1LT5OVYUG2SEI -->
<g id="edge52" class="edge">
<title>NodeGroup::::ng&#45;1&#45;&gt;Role::::eksctl&#45;my&#45;cluster&#45;nodegroup&#45;ng&#45;1&#45;NodeInstanceRole&#45;1LT5OVYUG2SEI</title>
<path fill="none" stroke="#707070" d="M176.52,-366.84C199.81,-314 256.19,-202.4 339,-143 343.57,-139.72 348.38,-136.7 353.37,-133.9"/>
<polygon fill="#707070" stroke="#707070" points="355.28,-136.85 362.52,-129.11 352.04,-130.64 355.28,-136.85"/>
</g>
<!-- SecurityGroup::::ClusterSharedNodeSecurityGroup -->
<g id="node24" class="node">
<title>SecurityGroup::::ClusterSharedNodeSecurityGroup</title>
<polygon fill="#e5e5e5" stroke="#dddddd" points="1263,-623 994,-623 994,-565 1263,-565 1263,-623"/>
<text text-anchor="start" x="1006.5" y="-603.2" font-family="Helvetica,sans-Serif" font-weight="bold" font-size="16.00" fill="#707070">EC2::SecurityGroup</text>
<text text-anchor="start" x="1006.5" y="-578.2" font-family="Helvetica,sans-Serif" font-size="16.00" fill="#383838">ClusterSharedNodeSecurityGroup</text>
</g>
<!-- SecurityGroup::::ClusterSharedNodeSecurityGroup&#45;&gt;Vpc::::VPC -->
<g id="edge26" class="edge">
<title>SecurityGroup::::ClusterSharedNodeSecurityGroup&#45;&gt;Vpc::::VPC</title>
<path fill="none" stroke="#707070" d="M1216.73,-564.92C1241.21,-556.76 1267.17,-548.11 1289.32,-540.73"/>
<polygon fill="#707070" stroke="#707070" points="1290.5,-544.02 1298.88,-537.54 1288.29,-537.38 1290.5,-544.02"/>
</g>
<!-- SecurityGroup::::ClusterSharedNodeSecurityGroup&#45;&gt;SecurityGroup::::eks&#45;cluster&#45;sg&#45;my&#45;cluster&#45;1909614887 -->
<g id="edge27" class="edge">
<title>SecurityGroup::::ClusterSharedNodeSecurityGroup&#45;&gt;SecurityGroup::::eks&#45;cluster&#45;sg&#45;my&#45;cluster&#45;1909614887</title>
<path fill="none" stroke="#707070" d="M993.71,-600.7C985.34,-600.74 976.89,-600.76 968.45,-600.75"/>
<polygon fill="#707070" stroke="#707070" points="968.19,-597.25 958.18,-600.72 968.17,-604.25 968.19,-597.25"/>
</g>
<!-- SecurityGroup::::ControlPlaneSecurityGroup&#45;&gt;Vpc::::VPC -->
<g id="edge28" class="edge">
<title>SecurityGroup::::ControlPlaneSecurityGroup&#45;&gt;Vpc::::VPC</title>
<path fill="none" stroke="#707070" d="M929.13,-503C1038.78,-508.01 1203.11,-515.5 1288.85,-519.42"/>
<polygon fill="#707070" stroke="#707070" points="1288.76,-522.91 1298.91,-519.87 1289.08,-515.92 1288.76,-522.91"/>
</g>
<!-- SecurityGroup::::eks&#45;cluster&#45;sg&#45;my&#45;cluster&#45;1909614887&#45;&gt;Vpc::::VPC -->
<g id="edge29" class="edge">
<title>SecurityGroup::::eks&#45;cluster&#45;sg&#45;my&#45;cluster&#45;1909614887&#45;&gt;Vpc::::VPC</title>
<path fill="none" stroke="#707070" d="M944.51,-564.92C961.09,-561.6 977.92,-558.52 994,-556 1097.27,-539.82 1218.9,-530.11 1288.62,-525.43"/>
<polygon fill="#707070" stroke="#707070" points="1289.19,-528.9 1298.94,-524.75 1288.73,-521.91 1289.19,-528.9"/>
</g>
<!-- SecurityGroup::::eks&#45;cluster&#45;sg&#45;my&#45;cluster&#45;1909614887&#45;&gt;Cluster::::my&#45;cluster -->
<g id="edge32" class="edge">
<title>SecurityGroup::::eks&#45;cluster&#45;sg&#45;my&#45;cluster&#45;1909614887&#45;&gt;Cluster::::my&#45;cluster</title>
<path fill="none" stroke="#707070" d="M685.28,-564.88C683.13,-563.32 681.03,-561.69 679,-560 652.44,-537.84 670.15,-512.43 643,-491 620.13,-472.95 589.76,-463.36 562.25,-457.64"/>
<polygon fill="#707070" stroke="#707070" points="562.75,-454.17 552.27,-455.7 561.42,-461.04 562.75,-454.17"/>
</g>
<!-- SecurityGroup::::eks&#45;cluster&#45;sg&#45;my&#45;cluster&#45;1909614887&#45;&gt;SecurityGroup::::ClusterSharedNodeSecurityGroup -->
<g id="edge31" class="edge">
<title>SecurityGroup::::eks&#45;cluster&#45;sg&#45;my&#45;cluster&#45;1909614887&#45;&gt;SecurityGroup::::ClusterSharedNodeSecurityGroup</title>
<path fill="none" stroke="#707070" d="M958.18,-587.28C966.58,-587.25 975.04,-587.24 983.47,-587.26"/>
<polygon fill="#707070" stroke="#707070" points="983.7,-590.76 993.71,-587.3 983.73,-583.76 983.7,-590.76"/>
</g>
<!-- SecurityGroup::::eks&#45;cluster&#45;sg&#45;my&#45;cluster&#45;1909614887&#45;&gt;SecurityGroup::::eks&#45;cluster&#45;sg&#45;my&#45;cluster&#45;1909614887 -->
<g id="edge30" class="edge">
<title>SecurityGroup::::eks&#45;cluster&#45;sg&#45;my&#45;cluster&#45;1909614887&#45;&gt;SecurityGroup::::eks&#45;cluster&#45;sg&#45;my&#45;cluster&#45;1909614887</title>
<path fill="none" stroke="#707070" d="M760.38,-623.38C760.38,-633.17 779.75,-641 818.5,-641 845.14,-641 862.62,-637.3 870.95,-631.8"/>
<polygon fill="#707070" stroke="#707070" points="873.94,-633.62 876.62,-623.38 868.14,-629.71 873.94,-633.62"/>
</g>
<!-- SecurityGroupRuleIngress::::ClusterSharedNodeSecurityGroup&#45;rule&#45;ingress&#45;all -->
<g id="node27" class="node">
<title>SecurityGroupRuleIngress::::ClusterSharedNodeSecurityGroup&#45;rule&#45;ingress&#45;all</title>
<polygon fill="#e5e5e5" stroke="#dddddd" points="637,-645 345,-645 345,-587 637,-587 637,-645"/>
<text text-anchor="start" x="357" y="-625.2" font-family="Helvetica,sans-Serif" font-weight="bold" font-size="16.00" fill="#707070">EC2::SecurityGroupRuleIngress</text>
<text text-anchor="start" x="357" y="-600.2" font-family="Helvetica,sans-Serif" font-size="16.00" fill="#383838">ClusterSharedNodeSecurityGroup&#45;r...</text>
</g>
<!-- SecurityGroupRuleIngress::::ClusterSharedNodeSecurityGroup&#45;rule&#45;ingress&#45;all&#45;&gt;SecurityGroup::::ClusterSharedNodeSecurityGroup -->
<g id="edge33" class="edge">
<title>SecurityGroupRuleIngress::::ClusterSharedNodeSecurityGroup&#45;rule&#45;ingress&#45;all&#45;&gt;SecurityGroup::::ClusterSharedNodeSecurityGroup</title>
<path fill="none" stroke="#707070" d="M637.24,-644.81C729.64,-658.66 851.53,-668.64 958,-650 974.76,-647.07 977.9,-642.5 994,-637 1004.43,-633.44 1015.34,-629.79 1026.24,-626.21"/>
<polygon fill="#707070" stroke="#707070" points="1027.39,-629.51 1035.8,-623.07 1025.2,-622.86 1027.39,-629.51"/>
</g>
<!-- SecurityGroupRuleIngress::::ClusterSharedNodeSecurityGroup&#45;rule&#45;ingress&#45;all&#45;&gt;SecurityGroup::::eks&#45;cluster&#45;sg&#45;my&#45;cluster&#45;1909614887 -->
<g id="edge34" class="edge">
<title>SecurityGroupRuleIngress::::ClusterSharedNodeSecurityGroup&#45;rule&#45;ingress&#45;all&#45;&gt;SecurityGroup::::eks&#45;cluster&#45;sg&#45;my&#45;cluster&#45;1909614887</title>
<path fill="none" stroke="#707070" d="M637.14,-606.19C647.67,-605.48 658.31,-604.76 668.86,-604.05"/>
<polygon fill="#707070" stroke="#707070" points="669.21,-607.53 678.95,-603.36 668.74,-600.55 669.21,-607.53"/>
</g>
<!-- SecurityGroupRuleIngress::::eks&#45;cluster&#45;sg&#45;my&#45;cluster&#45;1909614887&#45;rule&#45;ingress&#45;all -->
<g id="node28" class="node">
<title>SecurityGroupRuleIngress::::eks&#45;cluster&#45;sg&#45;my&#45;cluster&#45;1909614887&#45;rule&#45;ingress&#45;all</title>
<polygon fill="#e5e5e5" stroke="#dddddd" points="303,-549 24,-549 24,-491 303,-491 303,-549"/>
<text text-anchor="start" x="36.5" y="-529.2" font-family="Helvetica,sans-Serif" font-weight="bold" font-size="16.00" fill="#707070">EC2::SecurityGroupRuleIngress</text>
<text text-anchor="start" x="36.5" y="-504.2" font-family="Helvetica,sans-Serif" font-size="16.00" fill="#383838">eks&#45;cluster&#45;sg&#45;my&#45;cluster&#45;190961...</text>
</g>
<!-- SecurityGroupRuleIngress::::eks&#45;cluster&#45;sg&#45;my&#45;cluster&#45;1909614887&#45;rule&#45;ingress&#45;all&#45;&gt;Cluster::::my&#45;cluster -->
<g id="edge36" class="edge">
<title>SecurityGroupRuleIngress::::eks&#45;cluster&#45;sg&#45;my&#45;cluster&#45;1909614887&#45;rule&#45;ingress&#45;all&#45;&gt;Cluster::::my&#45;cluster</title>
<path fill="none" stroke="#707070" d="M288.95,-490.94C333.27,-480.59 381.6,-469.31 419.77,-460.4"/>
<polygon fill="#707070" stroke="#707070" points="420.81,-463.75 429.75,-458.07 419.22,-456.93 420.81,-463.75"/>
</g>
<!-- SecurityGroupRuleIngress::::eks&#45;cluster&#45;sg&#45;my&#45;cluster&#45;1909614887&#45;rule&#45;ingress&#45;all&#45;&gt;SecurityGroup::::eks&#45;cluster&#45;sg&#45;my&#45;cluster&#45;1909614887 -->
<g id="edge35" class="edge">
<title>SecurityGroupRuleIngress::::eks&#45;cluster&#45;sg&#45;my&#45;cluster&#45;1909614887&#45;rule&#45;ingress&#45;all&#45;&gt;SecurityGroup::::eks&#45;cluster&#45;sg&#45;my&#45;cluster&#45;1909614887</title>
<path fill="none" stroke="#707070" d="M287.07,-549.09C304.43,-552.51 322.11,-555.62 339,-558 473.08,-576.9 508.01,-567.37 643,-578 651.39,-578.66 660.01,-579.37 668.7,-580.1"/>
<polygon fill="#707070" stroke="#707070" points="668.68,-583.61 678.94,-580.97 669.27,-576.63 668.68,-583.61"/>
</g>
</g>
</svg>
