<?xml version="1.0" encoding="UTF-8" standalone="no"?><svg xmlns="http://www.w3.org/2000/svg" xmlns:xlink="http://www.w3.org/1999/xlink" contentScriptType="application/ecmascript" contentStyleType="text/css" height="2036px" preserveAspectRatio="none" style="width:1291px;height:2036px;background:#FFFFFF;" version="1.1" viewBox="0 0 1291 2036" width="1291px" zoomAndPan="magnify"><defs><filter height="300%" id="f2b0lxelko9f4" width="300%" x="-1" y="-1"><feGaussianBlur result="blurOut" stdDeviation="2.0"/><feColorMatrix in="blurOut" result="blurOut2" type="matrix" values="0 0 0 0 0 0 0 0 0 0 0 0 0 0 0 0 0 0 .4 0"/><feOffset dx="4.0" dy="4.0" in="blurOut2" result="blurOut3"/><feBlend in="SourceGraphic" in2="blurOut3" mode="normal"/></filter></defs><g><rect fill="none" height="26.4883" style="stroke:none;stroke-width:1.0;" width="229" x="501" y="15"/><text fill="#000000" font-family="sans-serif" font-size="14" font-weight="bold" lengthAdjust="spacing" textLength="219" x="506" y="33.5352">Resources for project example</text><rect fill="#F8F8F8" filter="url(#f2b0lxelko9f4)" height="36.4883" rx="12.5" ry="12.5" style="stroke:#383838;stroke-width:1.5;" width="52" x="10" y="1017.7891"/><text fill="#000000" font-family="sans-serif" font-size="14" lengthAdjust="spacing" textLength="32" x="20" y="1041.3242">Infra</text><rect fill="#F8F8F8" filter="url(#f2b0lxelko9f4)" height="36.4883" rx="12.5" ry="12.5" style="stroke:#383838;stroke-width:1.5;" width="46" x="112" y="1017.7891"/><text fill="#000000" font-family="sans-serif" font-size="14" lengthAdjust="spacing" textLength="26" x="122" y="1041.3242">aws</text><rect fill="#F8F8F8" filter="url(#f2b0lxelko9f4)" height="36.4883" rx="12.5" ry="12.5" style="stroke:#383838;stroke-width:1.5;" width="47" x="208" y="735.3477"/><text fill="#000000" font-family="sans-serif" font-size="14" lengthAdjust="spacing" textLength="27" x="218" y="758.8828">EC2</text><rect fill="#F8F8F8" filter="url(#f2b0lxelko9f4)" height="36.4883" rx="12.5" ry="12.5" style="stroke:#383838;stroke-width:1.5;" width="68" x="305" y="57.4883"/><text fill="#000000" font-family="sans-serif" font-size="14" lengthAdjust="spacing" textLength="48" x="315" y="81.0234">Vpc (1)</text><rect fill="#F8F8F8" filter="url(#f2b0lxelko9f4)" height="36.4883" rx="12.5" ry="12.5" style="stroke:#383838;stroke-width:1.5;" width="47" x="423" y="57.4883"/><text fill="#000000" font-family="sans-serif" font-size="14" lengthAdjust="spacing" textLength="27" x="433" y="81.0234">VPC</text><path d="M373,75.7324 L383,75.7324 C398,75.7324 398,75.7324 413,75.7324 L423,75.7324 " fill="none" style="stroke:#383838;stroke-width:1.0;"/><path d="M255,753.5918 L265,753.5918 C280,753.5918 280,75.7324 295,75.7324 L305,75.7324 " fill="none" style="stroke:#383838;stroke-width:1.0;"/><rect fill="#F8F8F8" filter="url(#f2b0lxelko9f4)" height="36.4883" rx="12.5" ry="12.5" style="stroke:#383838;stroke-width:1.5;" width="154" x="305" y="113.9766"/><text fill="#000000" font-family="sans-serif" font-size="14" lengthAdjust="spacing" textLength="134" x="315" y="137.5117">InternetGateway (1)</text><rect fill="#F8F8F8" filter="url(#f2b0lxelko9f4)" height="36.4883" rx="12.5" ry="12.5" style="stroke:#383838;stroke-width:1.5;" width="131" x="509" y="113.9766"/><text fill="#000000" font-family="sans-serif" font-size="14" lengthAdjust="spacing" textLength="111" x="519" y="137.5117">InternetGateway</text><path d="M459,132.2207 L469,132.2207 C484,132.2207 484,132.2207 499,132.2207 L509,132.2207 " fill="none" style="stroke:#383838;stroke-width:1.0;"/><path d="M255,753.5918 L265,753.5918 C280,753.5918 280,132.2207 295,132.2207 L305,132.2207 " fill="none" style="stroke:#383838;stroke-width:1.0;"/><rect fill="#F8F8F8" filter="url(#f2b0lxelko9f4)" height="36.4883" rx="12.5" ry="12.5" style="stroke:#383838;stroke-width:1.5;" width="123" x="305" y="170.4648"/><text fill="#000000" font-family="sans-serif" font-size="14" lengthAdjust="spacing" textLength="103" x="315" y="194">NatGateway (1)</text><rect fill="#F8F8F8" filter="url(#f2b0lxelko9f4)" height="36.4883" rx="12.5" ry="12.5" style="stroke:#383838;stroke-width:1.5;" width="106" x="478" y="170.4648"/><text fill="#000000" font-family="sans-serif" font-size="14" lengthAdjust="spacing" textLength="86" x="488" y="194">NATGateway</text><path d="M428,188.709 L438,188.709 C453,188.709 453,188.709 468,188.709 L478,188.709 " fill="none" style="stroke:#383838;stroke-width:1.0;"/><path d="M255,753.5918 L265,753.5918 C280,753.5918 280,188.709 295,188.709 L305,188.709 " fill="none" style="stroke:#383838;stroke-width:1.0;"/><rect fill="#F8F8F8" filter="url(#f2b0lxelko9f4)" height="36.4883" rx="12.5" ry="12.5" style="stroke:#383838;stroke-width:1.5;" width="91" x="305" y="311.6855"/><text fill="#000000" font-family="sans-serif" font-size="14" lengthAdjust="spacing" textLength="71" x="315" y="335.2207">Subnet (4)</text><rect fill="#F8F8F8" filter="url(#f2b0lxelko9f4)" height="36.4883" rx="12.5" ry="12.5" style="stroke:#383838;stroke-width:1.5;" width="186" x="446" y="226.9531"/><text fill="#000000" font-family="sans-serif" font-size="14" lengthAdjust="spacing" textLength="166" x="456" y="250.4883">SubnetPrivateUSEAST1D</text><path d="M396,329.9297 L406,329.9297 C421,329.9297 421,245.1973 436,245.1973 L446,245.1973 " fill="none" style="stroke:#383838;stroke-width:1.0;"/><rect fill="#F8F8F8" filter="url(#f2b0lxelko9f4)" height="36.4883" rx="12.5" ry="12.5" style="stroke:#383838;stroke-width:1.5;" width="184" x="446" y="283.4414"/><text fill="#000000" font-family="sans-serif" font-size="14" lengthAdjust="spacing" textLength="164" x="456" y="306.9766">SubnetPrivateUSEAST1F</text><path d="M396,329.9297 L406,329.9297 C421,329.9297 421,301.6855 436,301.6855 L446,301.6855 " fill="none" style="stroke:#383838;stroke-width:1.0;"/><rect fill="#F8F8F8" filter="url(#f2b0lxelko9f4)" height="36.4883" rx="12.5" ry="12.5" style="stroke:#383838;stroke-width:1.5;" width="181" x="446" y="339.9297"/><text fill="#000000" font-family="sans-serif" font-size="14" lengthAdjust="spacing" textLength="161" x="456" y="363.4648">SubnetPublicUSEAST1D</text><path d="M396,329.9297 L406,329.9297 C421,329.9297 421,358.1738 436,358.1738 L446,358.1738 " fill="none" style="stroke:#383838;stroke-width:1.0;"/><rect fill="#F8F8F8" filter="url(#f2b0lxelko9f4)" height="36.4883" rx="12.5" ry="12.5" style="stroke:#383838;stroke-width:1.5;" width="179" x="446" y="396.418"/><text fill="#000000" font-family="sans-serif" font-size="14" lengthAdjust="spacing" textLength="159" x="456" y="419.9531">SubnetPublicUSEAST1F</text><path d="M396,329.9297 L406,329.9297 C421,329.9297 421,414.6621 436,414.6621 L446,414.6621 " fill="none" style="stroke:#383838;stroke-width:1.0;"/><path d="M255,753.5918 L265,753.5918 C280,753.5918 280,329.9297 295,329.9297 L305,329.9297 " fill="none" style="stroke:#383838;stroke-width:1.0;"/><rect fill="#F8F8F8" filter="url(#f2b0lxelko9f4)" height="36.4883" rx="12.5" ry="12.5" style="stroke:#383838;stroke-width:1.5;" width="121" x="305" y="509.3945"/><text fill="#000000" font-family="sans-serif" font-size="14" lengthAdjust="spacing" textLength="101" x="315" y="532.9297">RouteTable (3)</text><rect fill="#F8F8F8" filter="url(#f2b0lxelko9f4)" height="36.4883" rx="12.5" ry="12.5" style="stroke:#383838;stroke-width:1.5;" width="216" x="476" y="452.9063"/><text fill="#000000" font-family="sans-serif" font-size="14" lengthAdjust="spacing" textLength="196" x="486" y="476.4414">PrivateRouteTableUSEAST1D</text><path d="M426,527.6387 L436,527.6387 C451,527.6387 451,471.1504 466,471.1504 L476,471.1504 " fill="none" style="stroke:#383838;stroke-width:1.0;"/><rect fill="#F8F8F8" filter="url(#f2b0lxelko9f4)" height="36.4883" rx="12.5" ry="12.5" style="stroke:#383838;stroke-width:1.5;" width="214" x="476" y="509.3945"/><text fill="#000000" font-family="sans-serif" font-size="14" lengthAdjust="spacing" textLength="194" x="486" y="532.9297">PrivateRouteTableUSEAST1F</text><path d="M426,527.6387 L436,527.6387 C451,527.6387 451,527.6387 466,527.6387 L476,527.6387 " fill="none" style="stroke:#383838;stroke-width:1.0;"/><rect fill="#F8F8F8" filter="url(#f2b0lxelko9f4)" height="36.4883" rx="12.5" ry="12.5" style="stroke:#383838;stroke-width:1.5;" width="139" x="476" y="565.8828"/><text fill="#000000" font-family="sans-serif" font-size="14" lengthAdjust="spacing" textLength="119" x="486" y="589.418">PublicRouteTable</text><path d="M426,527.6387 L436,527.6387 C451,527.6387 451,584.127 466,584.127 L476,584.127 " fill="none" style="stroke:#383838;stroke-width:1.0;"/><path d="M255,753.5918 L265,753.5918 C280,753.5918 280,527.6387 295,527.6387 L305,527.6387 " fill="none" style="stroke:#383838;stroke-width:1.0;"/><rect fill="#F8F8F8" filter="url(#f2b0lxelko9f4)" height="36.4883" rx="12.5" ry="12.5" style="stroke:#383838;stroke-width:1.5;" width="200" x="305" y="707.1035"/><text fill="#000000" font-family="sans-serif" font-size="14" lengthAdjust="spacing" textLength="180" x="315" y="730.6387">RouteTableAssociation (4)</text><rect fill="#F8F8F8" filter="url(#f2b0lxelko9f4)" height="36.4883" rx="12.5" ry="12.5" style="stroke:#383838;stroke-width:1.5;" width="455" x="555" y="622.3711"/><text fill="#000000" font-family="sans-serif" font-size="14" lengthAdjust="spacing" textLength="435" x="565" y="645.9063">rt-assoc::PrivateRouteTableUSEAST1D::SubnetPrivateUSEAST1D</text><path d="M505,725.3477 L515,725.3477 C530,725.3477 530,640.6152 545,640.6152 L555,640.6152 " fill="none" style="stroke:#383838;stroke-width:1.0;"/><rect fill="#F8F8F8" filter="url(#f2b0lxelko9f4)" height="36.4883" rx="12.5" ry="12.5" style="stroke:#383838;stroke-width:1.5;" width="451" x="555" y="678.8594"/><text fill="#000000" font-family="sans-serif" font-size="14" lengthAdjust="spacing" textLength="431" x="565" y="702.3945">rt-assoc::PrivateRouteTableUSEAST1F::SubnetPrivateUSEAST1F</text><path d="M505,725.3477 L515,725.3477 C530,725.3477 530,697.1035 545,697.1035 L555,697.1035 " fill="none" style="stroke:#383838;stroke-width:1.0;"/><rect fill="#F8F8F8" filter="url(#f2b0lxelko9f4)" height="36.4883" rx="12.5" ry="12.5" style="stroke:#383838;stroke-width:1.5;" width="373" x="555" y="735.3477"/><text fill="#000000" font-family="sans-serif" font-size="14" lengthAdjust="spacing" textLength="353" x="565" y="758.8828">rt-assoc::PublicRouteTable::SubnetPublicUSEAST1D</text><path d="M505,725.3477 L515,725.3477 C530,725.3477 530,753.5918 545,753.5918 L555,753.5918 " fill="none" style="stroke:#383838;stroke-width:1.0;"/><rect fill="#F8F8F8" filter="url(#f2b0lxelko9f4)" height="36.4883" rx="12.5" ry="12.5" style="stroke:#383838;stroke-width:1.5;" width="371" x="555" y="791.8359"/><text fill="#000000" font-family="sans-serif" font-size="14" lengthAdjust="spacing" textLength="351" x="565" y="815.3711">rt-assoc::PublicRouteTable::SubnetPublicUSEAST1F</text><path d="M505,725.3477 L515,725.3477 C530,725.3477 530,810.0801 545,810.0801 L555,810.0801 " fill="none" style="stroke:#383838;stroke-width:1.0;"/><path d="M255,753.5918 L265,753.5918 C280,753.5918 280,725.3477 295,725.3477 L305,725.3477 " fill="none" style="stroke:#383838;stroke-width:1.0;"/><rect fill="#F8F8F8" filter="url(#f2b0lxelko9f4)" height="36.4883" rx="12.5" ry="12.5" style="stroke:#383838;stroke-width:1.5;" width="83" x="305" y="904.8125"/><text fill="#000000" font-family="sans-serif" font-size="14" lengthAdjust="spacing" textLength="63" x="315" y="928.3477">Route (3)</text><rect fill="#F8F8F8" filter="url(#f2b0lxelko9f4)" height="36.4883" rx="12.5" ry="12.5" style="stroke:#383838;stroke-width:1.5;" width="310" x="438" y="848.3242"/><text fill="#000000" font-family="sans-serif" font-size="14" lengthAdjust="spacing" textLength="290" x="448" y="871.8594">PrivateRouteTableUSEAST1D-nat-gateway</text><path d="M388,923.0566 L398,923.0566 C413,923.0566 413,866.5684 428,866.5684 L438,866.5684 " fill="none" style="stroke:#383838;stroke-width:1.0;"/><rect fill="#F8F8F8" filter="url(#f2b0lxelko9f4)" height="36.4883" rx="12.5" ry="12.5" style="stroke:#383838;stroke-width:1.5;" width="308" x="438" y="904.8125"/><text fill="#000000" font-family="sans-serif" font-size="14" lengthAdjust="spacing" textLength="288" x="448" y="928.3477">PrivateRouteTableUSEAST1F-nat-gateway</text><path d="M388,923.0566 L398,923.0566 C413,923.0566 413,923.0566 428,923.0566 L438,923.0566 " fill="none" style="stroke:#383838;stroke-width:1.0;"/><rect fill="#F8F8F8" filter="url(#f2b0lxelko9f4)" height="36.4883" rx="12.5" ry="12.5" style="stroke:#383838;stroke-width:1.5;" width="171" x="438" y="961.3008"/><text fill="#000000" font-family="sans-serif" font-size="14" lengthAdjust="spacing" textLength="151" x="448" y="984.8359">PublicRouteTable-igw</text><path d="M388,923.0566 L398,923.0566 C413,923.0566 413,979.5449 428,979.5449 L438,979.5449 " fill="none" style="stroke:#383838;stroke-width:1.0;"/><path d="M255,753.5918 L265,753.5918 C280,753.5918 280,923.0566 295,923.0566 L305,923.0566 " fill="none" style="stroke:#383838;stroke-width:1.0;"/><rect fill="#F8F8F8" filter="url(#f2b0lxelko9f4)" height="36.4883" rx="12.5" ry="12.5" style="stroke:#383838;stroke-width:1.5;" width="140" x="305" y="1074.2773"/><text fill="#000000" font-family="sans-serif" font-size="14" lengthAdjust="spacing" textLength="120" x="315" y="1097.8125">SecurityGroup (3)</text><rect fill="#F8F8F8" filter="url(#f2b0lxelko9f4)" height="36.4883" rx="12.5" ry="12.5" style="stroke:#383838;stroke-width:1.5;" width="250" x="495" y="1017.7891"/><text fill="#000000" font-family="sans-serif" font-size="14" lengthAdjust="spacing" textLength="230" x="505" y="1041.3242">ClusterSharedNodeSecurityGroup</text><path d="M445,1092.5215 L455,1092.5215 C470,1092.5215 470,1036.0332 485,1036.0332 L495,1036.0332 " fill="none" style="stroke:#383838;stroke-width:1.0;"/><rect fill="#F8F8F8" filter="url(#f2b0lxelko9f4)" height="36.4883" rx="12.5" ry="12.5" style="stroke:#383838;stroke-width:1.5;" width="206" x="495" y="1074.2773"/><text fill="#000000" font-family="sans-serif" font-size="14" lengthAdjust="spacing" textLength="186" x="505" y="1097.8125">ControlPlaneSecurityGroup</text><path d="M445,1092.5215 L455,1092.5215 C470,1092.5215 470,1092.5215 485,1092.5215 L495,1092.5215 " fill="none" style="stroke:#383838;stroke-width:1.0;"/><rect fill="#F8F8F8" filter="url(#f2b0lxelko9f4)" height="36.4883" rx="12.5" ry="12.5" style="stroke:#383838;stroke-width:1.5;" width="301" x="495" y="1130.7656"/><text fill="#000000" font-family="sans-serif" font-size="14" lengthAdjust="spacing" textLength="281" x="505" y="1154.3008">eks-cluster-sg-my-cluster-1909614887</text><path d="M445,1092.5215 L455,1092.5215 C470,1092.5215 470,1149.0098 485,1149.0098 L495,1149.0098 " fill="none" style="stroke:#383838;stroke-width:1.0;"/><path d="M255,753.5918 L265,753.5918 C280,753.5918 280,1092.5215 295,1092.5215 L305,1092.5215 " fill="none" style="stroke:#383838;stroke-width:1.0;"/><rect fill="#F8F8F8" filter="url(#f2b0lxelko9f4)" height="36.4883" rx="12.5" ry="12.5" style="stroke:#383838;stroke-width:1.5;" width="220" x="305" y="1243.7422"/><text fill="#000000" font-family="sans-serif" font-size="14" lengthAdjust="spacing" textLength="200" x="315" y="1267.2773">SecurityGroupRuleIngress (3)</text><rect fill="#F8F8F8" filter="url(#f2b0lxelko9f4)" height="36.4883" rx="12.5" ry="12.5" style="stroke:#383838;stroke-width:1.5;" width="646" x="575" y="1187.2539"/><text fill="#000000" font-family="sans-serif" font-size="14" lengthAdjust="spacing" textLength="626" x="585" y="1210.7891">ClusterSharedNodeSecurityGroup-rule-ingress-all-from-ClusterSharedNodeSecurityGroup</text><path d="M525,1261.9863 L535,1261.9863 C550,1261.9863 550,1205.498 565,1205.498 L575,1205.498 " fill="none" style="stroke:#383838;stroke-width:1.0;"/><rect fill="#F8F8F8" filter="url(#f2b0lxelko9f4)" height="36.4883" rx="12.5" ry="12.5" style="stroke:#383838;stroke-width:1.5;" width="697" x="575" y="1243.7422"/><text fill="#000000" font-family="sans-serif" font-size="14" lengthAdjust="spacing" textLength="677" x="585" y="1267.2773">ClusterSharedNodeSecurityGroup-rule-ingress-all-from-eks-cluster-sg-my-cluster-1909614887</text><path d="M525,1261.9863 L535,1261.9863 C550,1261.9863 550,1261.9863 565,1261.9863 L575,1261.9863 " fill="none" style="stroke:#383838;stroke-width:1.0;"/><rect fill="#F8F8F8" filter="url(#f2b0lxelko9f4)" height="36.4883" rx="12.5" ry="12.5" style="stroke:#383838;stroke-width:1.5;" width="697" x="575" y="1300.2305"/><text fill="#000000" font-family="sans-serif" font-size="14" lengthAdjust="spacing" textLength="677" x="585" y="1323.7656">eks-cluster-sg-my-cluster-1909614887-rule-ingress-all-from-ClusterSharedNodeSecurityGroup</text><path d="M525,1261.9863 L535,1261.9863 C550,1261.9863 550,1318.4746 565,1318.4746 L575,1318.4746 " fill="none" style="stroke:#383838;stroke-width:1.0;"/><path d="M255,753.5918 L265,753.5918 C280,753.5918 280,1261.9863 295,1261.9863 L305,1261.9863 " fill="none" style="stroke:#383838;stroke-width:1.0;"/><rect fill="#F8F8F8" filter="url(#f2b0lxelko9f4)" height="36.4883" rx="12.5" ry="12.5" style="stroke:#383838;stroke-width:1.5;" width="155" x="305" y="1356.7188"/><text fill="#000000" font-family="sans-serif" font-size="14" lengthAdjust="spacing" textLength="135" x="315" y="1380.2539">ElasticIpAddress (1)</text><rect fill="#F8F8F8" filter="url(#f2b0lxelko9f4)" height="36.4883" rx="12.5" ry="12.5" style="stroke:#383838;stroke-width:1.5;" width="61" x="510" y="1356.7188"/><text fill="#000000" font-family="sans-serif" font-size="14" lengthAdjust="spacing" textLength="41" x="520" y="1380.2539">NATIP</text><path d="M460,1374.9629 L470,1374.9629 C485,1374.9629 485,1374.9629 500,1374.9629 L510,1374.9629 " fill="none" style="stroke:#383838;stroke-width:1.0;"/><path d="M255,753.5918 L265,753.5918 C280,753.5918 280,1374.9629 295,1374.9629 L305,1374.9629 " fill="none" style="stroke:#383838;stroke-width:1.0;"/><rect fill="#F8F8F8" filter="url(#f2b0lxelko9f4)" height="36.4883" rx="12.5" ry="12.5" style="stroke:#383838;stroke-width:1.5;" width="156" x="305" y="1413.207"/><text fill="#000000" font-family="sans-serif" font-size="14" lengthAdjust="spacing" textLength="136" x="315" y="1436.7422">LaunchTemplate (1)</text><rect fill="#F8F8F8" filter="url(#f2b0lxelko9f4)" height="36.4883" rx="12.5" ry="12.5" style="stroke:#383838;stroke-width:1.5;" width="269" x="511" y="1413.207"/><text fill="#000000" font-family="sans-serif" font-size="14" lengthAdjust="spacing" textLength="249" x="521" y="1436.7422">eksctl-my-cluster-nodegroup-ng-1</text><path d="M461,1431.4512 L471,1431.4512 C486,1431.4512 486,1431.4512 501,1431.4512 L511,1431.4512 " fill="none" style="stroke:#383838;stroke-width:1.0;"/><path d="M255,753.5918 L265,753.5918 C280,753.5918 280,1431.4512 295,1431.4512 L305,1431.4512 " fill="none" style="stroke:#383838;stroke-width:1.0;"/><path d="M158,1036.0332 L168,1036.0332 C183,1036.0332 183,753.5918 198,753.5918 L208,753.5918 " fill="none" style="stroke:#383838;stroke-width:1.0;"/><rect fill="#F8F8F8" filter="url(#f2b0lxelko9f4)" height="36.4883" rx="12.5" ry="12.5" style="stroke:#383838;stroke-width:1.5;" width="45" x="208" y="1497.9395"/><text fill="#000000" font-family="sans-serif" font-size="14" lengthAdjust="spacing" textLength="25" x="218" y="1521.4746">EKS</text><rect fill="#F8F8F8" filter="url(#f2b0lxelko9f4)" height="36.4883" rx="12.5" ry="12.5" style="stroke:#383838;stroke-width:1.5;" width="92" x="303" y="1469.6953"/><text fill="#000000" font-family="sans-serif" font-size="14" lengthAdjust="spacing" textLength="72" x="313" y="1493.2305">Cluster (1)</text><rect fill="#F8F8F8" filter="url(#f2b0lxelko9f4)" height="36.4883" rx="12.5" ry="12.5" style="stroke:#383838;stroke-width:1.5;" width="94" x="445" y="1469.6953"/><text fill="#000000" font-family="sans-serif" font-size="14" lengthAdjust="spacing" textLength="74" x="455" y="1493.2305">my-cluster</text><path d="M395,1487.9395 L405,1487.9395 C420,1487.9395 420,1487.9395 435,1487.9395 L445,1487.9395 " fill="none" style="stroke:#383838;stroke-width:1.0;"/><path d="M253,1516.1836 L263,1516.1836 C278,1516.1836 278,1487.9395 293,1487.9395 L303,1487.9395 " fill="none" style="stroke:#383838;stroke-width:1.0;"/><rect fill="#F8F8F8" filter="url(#f2b0lxelko9f4)" height="36.4883" rx="12.5" ry="12.5" style="stroke:#383838;stroke-width:1.5;" width="122" x="303" y="1526.1836"/><text fill="#000000" font-family="sans-serif" font-size="14" lengthAdjust="spacing" textLength="102" x="313" y="1549.7188">NodeGroup (1)</text><rect fill="#F8F8F8" filter="url(#f2b0lxelko9f4)" height="36.4883" rx="12.5" ry="12.5" style="stroke:#383838;stroke-width:1.5;" width="55" x="475" y="1526.1836"/><text fill="#000000" font-family="sans-serif" font-size="14" lengthAdjust="spacing" textLength="35" x="485" y="1549.7188">ng-1</text><path d="M425,1544.4277 L435,1544.4277 C450,1544.4277 450,1544.4277 465,1544.4277 L475,1544.4277 " fill="none" style="stroke:#383838;stroke-width:1.0;"/><path d="M253,1516.1836 L263,1516.1836 C278,1516.1836 278,1544.4277 293,1544.4277 L303,1544.4277 " fill="none" style="stroke:#383838;stroke-width:1.0;"/><path d="M158,1036.0332 L168,1036.0332 C183,1036.0332 183,1516.1836 198,1516.1836 L208,1516.1836 " fill="none" style="stroke:#383838;stroke-width:1.0;"/><rect fill="#F8F8F8" filter="url(#f2b0lxelko9f4)" height="36.4883" rx="12.5" ry="12.5" style="stroke:#383838;stroke-width:1.5;" width="46" x="208" y="1780.3809"/><text fill="#000000" font-family="sans-serif" font-size="14" lengthAdjust="spacing" textLength="26" x="218" y="1803.916">IAM</text><rect fill="#F8F8F8" filter="url(#f2b0lxelko9f4)" height="36.4883" rx="12.5" ry="12.5" style="stroke:#383838;stroke-width:1.5;" width="73" x="304" y="1610.916"/><text fill="#000000" font-family="sans-serif" font-size="14" lengthAdjust="spacing" textLength="53" x="314" y="1634.4512">Role (2)</text><rect fill="#F8F8F8" filter="url(#f2b0lxelko9f4)" height="36.4883" rx="12.5" ry="12.5" style="stroke:#383838;stroke-width:1.5;" width="401" x="427" y="1582.6719"/><text fill="#000000" font-family="sans-serif" font-size="14" lengthAdjust="spacing" textLength="381" x="437" y="1606.207">eksctl-my-cluster-cluster-ServiceRole-1T8YHA5ZIYVRB</text><path d="M377,1629.1602 L387,1629.1602 C402,1629.1602 402,1600.916 417,1600.916 L427,1600.916 " fill="none" style="stroke:#383838;stroke-width:1.0;"/><rect fill="#F8F8F8" filter="url(#f2b0lxelko9f4)" height="36.4883" rx="12.5" ry="12.5" style="stroke:#383838;stroke-width:1.5;" width="520" x="427" y="1639.1602"/><text fill="#000000" font-family="sans-serif" font-size="14" lengthAdjust="spacing" textLength="500" x="437" y="1662.6953">eksctl-my-cluster-nodegroup-ng-1-NodeInstanceRole-1LT5OVYUG2SEI</text><path d="M377,1629.1602 L387,1629.1602 C402,1629.1602 402,1657.4043 417,1657.4043 L427,1657.4043 " fill="none" style="stroke:#383838;stroke-width:1.0;"/><path d="M254,1798.625 L264,1798.625 C279,1798.625 279,1629.1602 294,1629.1602 L304,1629.1602 " fill="none" style="stroke:#383838;stroke-width:1.0;"/><rect fill="#F8F8F8" filter="url(#f2b0lxelko9f4)" height="36.4883" rx="12.5" ry="12.5" style="stroke:#383838;stroke-width:1.5;" width="82" x="304" y="1836.8691"/><text fill="#000000" font-family="sans-serif" font-size="14" lengthAdjust="spacing" textLength="62" x="314" y="1860.4043">Policy (6)</text><rect fill="#F8F8F8" filter="url(#f2b0lxelko9f4)" height="36.4883" rx="12.5" ry="12.5" style="stroke:#383838;stroke-width:1.5;" width="292" x="436" y="1695.6484"/><text fill="#000000" font-family="sans-serif" font-size="14" lengthAdjust="spacing" textLength="272" x="446" y="1719.1836">AmazonEC2ContainerRegistryReadOnly</text><path d="M386,1855.1133 L396,1855.1133 C411,1855.1133 411,1713.8926 426,1713.8926 L436,1713.8926 " fill="none" style="stroke:#383838;stroke-width:1.0;"/><rect fill="#F8F8F8" filter="url(#f2b0lxelko9f4)" height="36.4883" rx="12.5" ry="12.5" style="stroke:#383838;stroke-width:1.5;" width="179" x="436" y="1752.1367"/><text fill="#000000" font-family="sans-serif" font-size="14" lengthAdjust="spacing" textLength="159" x="446" y="1775.6719">AmazonEKS_CNI_Policy</text><path d="M386,1855.1133 L396,1855.1133 C411,1855.1133 411,1770.3809 426,1770.3809 L436,1770.3809 " fill="none" style="stroke:#383838;stroke-width:1.0;"/><rect fill="#F8F8F8" filter="url(#f2b0lxelko9f4)" height="36.4883" rx="12.5" ry="12.5" style="stroke:#383838;stroke-width:1.5;" width="190" x="436" y="1808.625"/><text fill="#000000" font-family="sans-serif" font-size="14" lengthAdjust="spacing" textLength="170" x="446" y="1832.1602">AmazonEKSClusterPolicy</text><path d="M386,1855.1133 L396,1855.1133 C411,1855.1133 411,1826.8691 426,1826.8691 L436,1826.8691 " fill="none" style="stroke:#383838;stroke-width:1.0;"/><rect fill="#F8F8F8" filter="url(#f2b0lxelko9f4)" height="36.4883" rx="12.5" ry="12.5" style="stroke:#383838;stroke-width:1.5;" width="262" x="436" y="1865.1133"/><text fill="#000000" font-family="sans-serif" font-size="14" lengthAdjust="spacing" textLength="242" x="446" y="1888.6484">AmazonEKSVPCResourceController</text><path d="M386,1855.1133 L396,1855.1133 C411,1855.1133 411,1883.3574 426,1883.3574 L436,1883.3574 " fill="none" style="stroke:#383838;stroke-width:1.0;"/><rect fill="#F8F8F8" filter="url(#f2b0lxelko9f4)" height="36.4883" rx="12.5" ry="12.5" style="stroke:#383838;stroke-width:1.5;" width="226" x="436" y="1921.6016"/><text fill="#000000" font-family="sans-serif" font-size="14" lengthAdjust="spacing" textLength="206" x="446" y="1945.1367">AmazonEKSWorkerNodePolicy</text><path d="M386,1855.1133 L396,1855.1133 C411,1855.1133 411,1939.8457 426,1939.8457 L436,1939.8457 " fill="none" style="stroke:#383838;stroke-width:1.0;"/><rect fill="#F8F8F8" filter="url(#f2b0lxelko9f4)" height="36.4883" rx="12.5" ry="12.5" style="stroke:#383838;stroke-width:1.5;" width="258" x="436" y="1978.0898"/><text fill="#000000" font-family="sans-serif" font-size="14" lengthAdjust="spacing" textLength="238" x="446" y="2001.625">AmazonSSMManagedInstanceCore</text><path d="M386,1855.1133 L396,1855.1133 C411,1855.1133 411,1996.334 426,1996.334 L436,1996.334 " fill="none" style="stroke:#383838;stroke-width:1.0;"/><path d="M254,1798.625 L264,1798.625 C279,1798.625 279,1855.1133 294,1855.1133 L304,1855.1133 " fill="none" style="stroke:#383838;stroke-width:1.0;"/><path d="M158,1036.0332 L168,1036.0332 C183,1036.0332 183,1798.625 198,1798.625 L208,1798.625 " fill="none" style="stroke:#383838;stroke-width:1.0;"/><path d="M62,1036.0332 L72,1036.0332 C87,1036.0332 87,1036.0332 102,1036.0332 L112,1036.0332 " fill="none" style="stroke:#383838;stroke-width:1.0;"/><!--MD5=[d0aad7e8ef132a8d8255fa0b862fe939]
@startmindmap
title Resources for project example
skinparam monochrome true
+ Infra
++ aws
+++ EC2
++++ Vpc (1)
+++++ VPC
++++ InternetGateway (1)
+++++ InternetGateway
++++ NatGateway (1)
+++++ NATGateway
++++ Subnet (4)
+++++ SubnetPrivateUSEAST1D
+++++ SubnetPrivateUSEAST1F
+++++ SubnetPublicUSEAST1D
+++++ SubnetPublicUSEAST1F
++++ RouteTable (3)
+++++ PrivateRouteTableUSEAST1D
+++++ PrivateRouteTableUSEAST1F
+++++ PublicRouteTable
++++ RouteTableAssociation (4)
+++++ rt-assoc::PrivateRouteTableUSEAST1D::SubnetPrivateUSEAST1D
+++++ rt-assoc::PrivateRouteTableUSEAST1F::SubnetPrivateUSEAST1F
+++++ rt-assoc::PublicRouteTable::SubnetPublicUSEAST1D
+++++ rt-assoc::PublicRouteTable::SubnetPublicUSEAST1F
++++ Route (3)
+++++ PrivateRouteTableUSEAST1D-nat-gateway
+++++ PrivateRouteTableUSEAST1F-nat-gateway
+++++ PublicRouteTable-igw
++++ SecurityGroup (3)
+++++ ClusterSharedNodeSecurityGroup
+++++ ControlPlaneSecurityGroup
+++++ eks-cluster-sg-my-cluster-1909614887
++++ SecurityGroupRuleIngress (3)
+++++ ClusterSharedNodeSecurityGroup-rule-ingress-all-from-ClusterSharedNodeSecurityGroup
+++++ ClusterSharedNodeSecurityGroup-rule-ingress-all-from-eks-cluster-sg-my-cluster-1909614887
+++++ eks-cluster-sg-my-cluster-1909614887-rule-ingress-all-from-ClusterSharedNodeSecurityGroup
++++ ElasticIpAddress (1)
+++++ NATIP
++++ LaunchTemplate (1)
+++++ eksctl-my-cluster-nodegroup-ng-1
+++ EKS
++++ Cluster (1)
+++++ my-cluster
++++ NodeGroup (1)
+++++ ng-1
+++ IAM
++++ Role (2)
+++++ eksctl-my-cluster-cluster-ServiceRole-1T8YHA5ZIYVRB
+++++ eksctl-my-cluster-nodegroup-ng-1-NodeInstanceRole-1LT5OVYUG2SEI
++++ Policy (6)
+++++ AmazonEC2ContainerRegistryReadOnly
+++++ AmazonEKS_CNI_Policy
+++++ AmazonEKSClusterPolicy
+++++ AmazonEKSVPCResourceController
+++++ AmazonEKSWorkerNodePolicy
+++++ AmazonSSMManagedInstanceCore
@endmindmap

PlantUML version 1.2021.8(Sat Jun 26 05:20:59 BRT 2021)
(GPL source distribution)
Java Runtime: OpenJDK Runtime Environment
JVM: OpenJDK 64-Bit Server VM
Default Encoding: UTF-8
Language: en
Country: GB
--></g></svg>