<?xml version="1.0" encoding="UTF-8" standalone="no"?>
<!DOCTYPE svg PUBLIC "-//W3C//DTD SVG 1.1//EN"
 "http://www.w3.org/Graphics/SVG/1.1/DTD/svg11.dtd">
<!-- Generated by graphviz version 2.44.1 (20200629.0846)
 -->
<!-- Title: graphname Pages: 1 -->
<svg width="340pt" height="921pt"
 viewBox="0.00 0.00 340.00 921.00" xmlns="http://www.w3.org/2000/svg" xmlns:xlink="http://www.w3.org/1999/xlink">
<g id="graph0" class="graph" transform="scale(1 1) rotate(0) translate(4 917)">
<title>graphname</title>
<polygon fill="#fafafa" stroke="transparent" points="-4,4 -4,-917 336,-917 336,4 -4,4"/>
<text text-anchor="start" x="94" y="-888.4" font-family="Helvetica,sans-Serif" font-weight="bold" font-size="22.00" fill="#383838">Project empty</text>
<text text-anchor="start" x="162.5" y="-872.8" font-family="Helvetica,sans-Serif" font-size="14.00"> &#160;</text>
<text text-anchor="start" x="94" y="-851.2" font-family="Helvetica,sans-Serif" font-weight="bold" font-size="16.00" fill="#707070">Live Diagram</text>
<g id="clust1" class="cluster">
<title>cluster_google</title>
<polygon fill="#f5f5f5" stroke="#f5f5f5" points="8,-8 8,-829 324,-829 324,-8 8,-8"/>
<text text-anchor="start" x="91" y="-23" font-family="Helvetica,sans-Serif" font-weight="bold" font-size="20.00" fill="#707070">Provider google</text>
</g>
<g id="clust2" class="cluster">
<title>cluster_google_</title>
<polygon fill="#eeeeee" stroke="#eeeeee" points="16,-54 16,-821 316,-821 316,-54 16,-54"/>
<text text-anchor="start" x="165.86" y="-58.3" font-family="Helvetica,sans-Serif" font-size="1.00" fill="#383838"> </text>
</g>
<!-- Binding::::roles/compute.admin -->
<g id="node1" class="node">
<title>Binding::::roles/compute.admin</title>
<polygon fill="#e5e5e5" stroke="#dddddd" points="253.5,-813 78.5,-813 78.5,-755 253.5,-755 253.5,-813"/>
<text text-anchor="start" x="91" y="-793.2" font-family="Helvetica,sans-Serif" font-weight="bold" font-size="16.00" fill="#707070">iam::Binding</text>
<text text-anchor="start" x="91" y="-768.2" font-family="Helvetica,sans-Serif" font-size="16.00" fill="#383838">roles/compute.admin</text>
</g>
<!-- Binding::::roles/compute.serviceAgent -->
<g id="node2" class="node">
<title>Binding::::roles/compute.serviceAgent</title>
<polygon fill="#e5e5e5" stroke="#dddddd" points="278.5,-737 53.5,-737 53.5,-679 278.5,-679 278.5,-737"/>
<text text-anchor="start" x="66" y="-717.2" font-family="Helvetica,sans-Serif" font-weight="bold" font-size="16.00" fill="#707070">iam::Binding</text>
<text text-anchor="start" x="66" y="-692.2" font-family="Helvetica,sans-Serif" font-size="16.00" fill="#383838">roles/compute.serviceAgent</text>
</g>
<!-- Binding::::roles/compute.viewer -->
<g id="node3" class="node">
<title>Binding::::roles/compute.viewer</title>
<polygon fill="#e5e5e5" stroke="#dddddd" points="255,-661 77,-661 77,-603 255,-603 255,-661"/>
<text text-anchor="start" x="89" y="-641.2" font-family="Helvetica,sans-Serif" font-weight="bold" font-size="16.00" fill="#707070">iam::Binding</text>
<text text-anchor="start" x="89" y="-616.2" font-family="Helvetica,sans-Serif" font-size="16.00" fill="#383838">roles/compute.viewer</text>
</g>
<!-- Binding::::roles/dns.admin -->
<g id="node4" class="node">
<title>Binding::::roles/dns.admin</title>
<polygon fill="#e5e5e5" stroke="#dddddd" points="235.5,-585 96.5,-585 96.5,-527 235.5,-527 235.5,-585"/>
<text text-anchor="start" x="109" y="-565.2" font-family="Helvetica,sans-Serif" font-weight="bold" font-size="16.00" fill="#707070">iam::Binding</text>
<text text-anchor="start" x="109" y="-540.2" font-family="Helvetica,sans-Serif" font-size="16.00" fill="#383838">roles/dns.admin</text>
</g>
<!-- Binding::::roles/iam.serviceAccountAdmin -->
<g id="node5" class="node">
<title>Binding::::roles/iam.serviceAccountAdmin</title>
<polygon fill="#e5e5e5" stroke="#dddddd" points="291.5,-509 40.5,-509 40.5,-451 291.5,-451 291.5,-509"/>
<text text-anchor="start" x="53" y="-489.2" font-family="Helvetica,sans-Serif" font-weight="bold" font-size="16.00" fill="#707070">iam::Binding</text>
<text text-anchor="start" x="53" y="-464.2" font-family="Helvetica,sans-Serif" font-size="16.00" fill="#383838">roles/iam.serviceAccountAdmin</text>
</g>
<!-- Binding::::roles/owner -->
<g id="node6" class="node">
<title>Binding::::roles/owner</title>
<polygon fill="#e5e5e5" stroke="#dddddd" points="227,-433 105,-433 105,-375 227,-375 227,-433"/>
<text text-anchor="start" x="117" y="-413.2" font-family="Helvetica,sans-Serif" font-weight="bold" font-size="16.00" fill="#707070">iam::Binding</text>
<text text-anchor="start" x="117" y="-388.2" font-family="Helvetica,sans-Serif" font-size="16.00" fill="#383838">roles/owner</text>
</g>
<!-- Binding::::roles/resourcemanager.projectIamAdmin -->
<g id="node7" class="node">
<title>Binding::::roles/resourcemanager.projectIamAdmin</title>
<polygon fill="#e5e5e5" stroke="#dddddd" points="308,-357 24,-357 24,-299 308,-299 308,-357"/>
<text text-anchor="start" x="36" y="-337.2" font-family="Helvetica,sans-Serif" font-weight="bold" font-size="16.00" fill="#707070">iam::Binding</text>
<text text-anchor="start" x="36" y="-312.2" font-family="Helvetica,sans-Serif" font-size="16.00" fill="#383838">roles/resourcemanager.projectIam...</text>
</g>
<!-- Binding::::roles/storage.admin -->
<g id="node8" class="node">
<title>Binding::::roles/storage.admin</title>
<polygon fill="#e5e5e5" stroke="#dddddd" points="249.5,-281 82.5,-281 82.5,-223 249.5,-223 249.5,-281"/>
<text text-anchor="start" x="95" y="-261.2" font-family="Helvetica,sans-Serif" font-weight="bold" font-size="16.00" fill="#707070">iam::Binding</text>
<text text-anchor="start" x="95" y="-236.2" font-family="Helvetica,sans-Serif" font-size="16.00" fill="#383838">roles/storage.admin</text>
</g>
<!-- Binding::::roles/storage.objectAdmin -->
<g id="node9" class="node">
<title>Binding::::roles/storage.objectAdmin</title>
<polygon fill="#e5e5e5" stroke="#dddddd" points="272,-205 60,-205 60,-147 272,-147 272,-205"/>
<text text-anchor="start" x="72" y="-185.2" font-family="Helvetica,sans-Serif" font-weight="bold" font-size="16.00" fill="#707070">iam::Binding</text>
<text text-anchor="start" x="72" y="-160.2" font-family="Helvetica,sans-Serif" font-size="16.00" fill="#383838">roles/storage.objectAdmin</text>
</g>
<!-- Policy::::policy -->
<g id="node10" class="node">
<title>Policy::::policy</title>
<polygon fill="#e5e5e5" stroke="#dddddd" points="221,-129 111,-129 111,-71 221,-71 221,-129"/>
<text text-anchor="start" x="123" y="-109.2" font-family="Helvetica,sans-Serif" font-weight="bold" font-size="16.00" fill="#707070">iam::Policy</text>
<text text-anchor="start" x="123" y="-84.2" font-family="Helvetica,sans-Serif" font-size="16.00" fill="#383838">policy</text>
</g>
</g>
</svg>
