<?xml version="1.0" encoding="UTF-8" standalone="no"?><svg xmlns="http://www.w3.org/2000/svg" xmlns:xlink="http://www.w3.org/1999/xlink" contentStyleType="text/css" height="341px" preserveAspectRatio="none" style="width:521px;height:341px;background:#FFFFFF;" version="1.1" viewBox="0 0 521 341" width="521px" zoomAndPan="magnify"><defs/><g><rect height="26.4883" style="stroke:#00000000;stroke-width:1.0;fill:none;" width="332" x="68" y="15"/><text fill="#000000" font-family="sans-serif" font-size="14" font-weight="bold" lengthAdjust="spacing" textLength="322" x="73" y="33.5352">Resources for project terraform-lambda-sfn</text><rect fill="#F1F1F1" height="36.4883" rx="12.5" ry="12.5" style="stroke:#181818;stroke-width:1.5;" width="52" x="10" y="170.4648"/><text fill="#000000" font-family="sans-serif" font-size="14" lengthAdjust="spacing" textLength="32" x="20" y="194">Infra</text><rect fill="#F1F1F1" height="36.4883" rx="12.5" ry="12.5" style="stroke:#181818;stroke-width:1.5;" width="46" x="112" y="170.4648"/><text fill="#000000" font-family="sans-serif" font-size="14" lengthAdjust="spacing" textLength="26" x="122" y="194">aws</text><rect fill="#F1F1F1" height="36.4883" rx="12.5" ry="12.5" style="stroke:#181818;stroke-width:1.5;" width="134" x="208" y="57.4883"/><text fill="#000000" font-family="sans-serif" font-size="14" lengthAdjust="spacing" textLength="114" x="218" y="81.0234">CloudWatchLogs</text><rect fill="#F1F1F1" height="36.4883" rx="12.5" ry="12.5" style="stroke:#181818;stroke-width:1.5;" width="111" x="392" y="57.4883"/><text fill="#000000" font-family="sans-serif" font-size="14" lengthAdjust="spacing" textLength="91" x="402" y="81.0234">LogGroup (1)</text><path d="M342,75.7324 L352,75.7324 C367,75.7324 367,75.7324 382,75.7324 L392,75.7324 " fill="none" style="stroke:#181818;stroke-width:1.0;"/><path d="M158,188.709 L168,188.709 C183,188.709 183,75.7324 198,75.7324 L208,75.7324 " fill="none" style="stroke:#181818;stroke-width:1.0;"/><rect fill="#F1F1F1" height="36.4883" rx="12.5" ry="12.5" style="stroke:#181818;stroke-width:1.5;" width="46" x="208" y="142.2207"/><text fill="#000000" font-family="sans-serif" font-size="14" lengthAdjust="spacing" textLength="26" x="218" y="165.7559">IAM</text><rect fill="#F1F1F1" height="36.4883" rx="12.5" ry="12.5" style="stroke:#181818;stroke-width:1.5;" width="73" x="304" y="113.9766"/><text fill="#000000" font-family="sans-serif" font-size="14" lengthAdjust="spacing" textLength="53" x="314" y="137.5117">Role (3)</text><path d="M254,160.4648 L264,160.4648 C279,160.4648 279,132.2207 294,132.2207 L304,132.2207 " fill="none" style="stroke:#181818;stroke-width:1.0;"/><rect fill="#F1F1F1" height="36.4883" rx="12.5" ry="12.5" style="stroke:#181818;stroke-width:1.5;" width="82" x="304" y="170.4648"/><text fill="#000000" font-family="sans-serif" font-size="14" lengthAdjust="spacing" textLength="62" x="314" y="194">Policy (7)</text><path d="M254,160.4648 L264,160.4648 C279,160.4648 279,188.709 294,188.709 L304,188.709 " fill="none" style="stroke:#181818;stroke-width:1.0;"/><path d="M158,188.709 L168,188.709 C183,188.709 183,160.4648 198,160.4648 L208,160.4648 " fill="none" style="stroke:#181818;stroke-width:1.0;"/><rect fill="#F1F1F1" height="36.4883" rx="12.5" ry="12.5" style="stroke:#181818;stroke-width:1.5;" width="74" x="208" y="226.9531"/><text fill="#000000" font-family="sans-serif" font-size="14" lengthAdjust="spacing" textLength="54" x="218" y="250.4883">Lambda</text><rect fill="#F1F1F1" height="36.4883" rx="12.5" ry="12.5" style="stroke:#181818;stroke-width:1.5;" width="103" x="332" y="226.9531"/><text fill="#000000" font-family="sans-serif" font-size="14" lengthAdjust="spacing" textLength="83" x="342" y="250.4883">Function (1)</text><path d="M282,245.1973 L292,245.1973 C307,245.1973 307,245.1973 322,245.1973 L332,245.1973 " fill="none" style="stroke:#181818;stroke-width:1.0;"/><path d="M158,188.709 L168,188.709 C183,188.709 183,245.1973 198,245.1973 L208,245.1973 " fill="none" style="stroke:#181818;stroke-width:1.0;"/><rect fill="#F1F1F1" height="36.4883" rx="12.5" ry="12.5" style="stroke:#181818;stroke-width:1.5;" width="117" x="208" y="283.4414"/><text fill="#000000" font-family="sans-serif" font-size="14" lengthAdjust="spacing" textLength="97" x="218" y="306.9766">StepFunctions</text><rect fill="#F1F1F1" height="36.4883" rx="12.5" ry="12.5" style="stroke:#181818;stroke-width:1.5;" width="134" x="375" y="283.4414"/><text fill="#000000" font-family="sans-serif" font-size="14" lengthAdjust="spacing" textLength="114" x="385" y="306.9766">StateMachine (1)</text><path d="M325,301.6855 L335,301.6855 C350,301.6855 350,301.6855 365,301.6855 L375,301.6855 " fill="none" style="stroke:#181818;stroke-width:1.0;"/><path d="M158,188.709 L168,188.709 C183,188.709 183,301.6855 198,301.6855 L208,301.6855 " fill="none" style="stroke:#181818;stroke-width:1.0;"/><path d="M62,188.709 L72,188.709 C87,188.709 87,188.709 102,188.709 L112,188.709 " fill="none" style="stroke:#181818;stroke-width:1.0;"/><!--MD5=[cd42ea93c34bc3848d552650c420f87d]
@startmindmap
title Resources for project terraform-lambda-sfn
skinparam monochrome true
+ Infra
++ aws
+++ CloudWatchLogs
++++ LogGroup (1)
+++ IAM
++++ Role (3)
++++ Policy (7)
+++ Lambda
++++ Function (1)
+++ StepFunctions
++++ StateMachine (1)
@endmindmap

PlantUML version 1.2022.6(Tue Jun 21 12:34:49 COT 2022)
(GPL source distribution)
Java Runtime: Java(TM) SE Runtime Environment
JVM: Java HotSpot(TM) 64-Bit Server VM
Default Encoding: UTF-8
Language: en
Country: GB
--></g></svg>