<?xml version="1.0" encoding="UTF-8" standalone="no"?>
<!DOCTYPE svg PUBLIC "-//W3C//DTD SVG 1.1//EN"
 "http://www.w3.org/Graphics/SVG/1.1/DTD/svg11.dtd">
<!-- Generated by graphviz version 6.0.0 (20220910.1538)
 -->
<!-- Title: graphname Pages: 1 -->
<svg width="1063pt" height="429pt"
 viewBox="0.00 0.00 1063.00 429.00" xmlns="http://www.w3.org/2000/svg" xmlns:xlink="http://www.w3.org/1999/xlink">
<g id="graph0" class="graph" transform="scale(1 1) rotate(0) translate(4 425)">
<title>graphname</title>
<polygon fill="#fafafa" stroke="none" points="-4,4 -4,-425 1059,-425 1059,4 -4,4"/>
<text text-anchor="start" x="322.5" y="-396.4" font-family="Helvetica,sans-Serif" font-weight="bold" font-size="22.00" fill="#383838">Project apigw&#45;websocket&#45;api&#45;sfn&#45;async</text>
<text text-anchor="start" x="524" y="-380.8" font-family="Helvetica,sans-Serif" font-size="14.00"> &#160;</text>
<text text-anchor="start" x="322.5" y="-359.2" font-family="Helvetica,sans-Serif" font-weight="bold" font-size="16.00" fill="#707070">Target Diagram</text>
<g id="clust1" class="cluster">
<title>cluster_aws</title>
<polygon fill="#f5f5f5" stroke="#f5f5f5" points="8,-8 8,-337 1047,-337 1047,-8 8,-8"/>
<text text-anchor="start" x="465.5" y="-23" font-family="Helvetica,sans-Serif" font-weight="bold" font-size="20.00" fill="#707070">Provider aws</text>
</g>
<g id="clust2" class="cluster">
<title>cluster_aws_</title>
<polygon fill="#eeeeee" stroke="#eeeeee" points="16,-54 16,-329 1039,-329 1039,-54 16,-54"/>
<text text-anchor="start" x="527.36" y="-58.3" font-family="Helvetica,sans-Serif" font-size="1.00" fill="#383838"> </text>
</g>
<!-- Api::sam&#45;app&#45;WebSocketApi -->
<g id="node1" class="node">
<title>Api::sam&#45;app&#45;WebSocketApi</title>
<polygon fill="#e5e5e5" stroke="#dddddd" points="962,-245 763,-245 763,-187 962,-187 962,-245"/>
<text text-anchor="start" x="775.5" y="-225.2" font-family="Helvetica,sans-Serif" font-weight="bold" font-size="16.00" fill="#707070">ApiGatewayV2::Api</text>
<text text-anchor="start" x="775.5" y="-200.2" font-family="Helvetica,sans-Serif" font-size="16.00" fill="#383838">sam&#45;app&#45;WebSocketApi</text>
</g>
<!-- Deployment::deployment::sam&#45;app&#45;WebSocketApi -->
<g id="node2" class="node">
<title>Deployment::deployment::sam&#45;app&#45;WebSocketApi</title>
<polygon fill="#e5e5e5" stroke="#dddddd" points="329,-215 24,-215 24,-157 329,-157 329,-215"/>
<text text-anchor="start" x="36.5" y="-195.2" font-family="Helvetica,sans-Serif" font-weight="bold" font-size="16.00" fill="#707070">ApiGatewayV2::Deployment</text>
<text text-anchor="start" x="36.5" y="-170.2" font-family="Helvetica,sans-Serif" font-size="16.00" fill="#383838">deployment::sam&#45;app&#45;WebSocketApi...</text>
</g>
<!-- Deployment::deployment::sam&#45;app&#45;WebSocketApi&#45;&gt;Api::sam&#45;app&#45;WebSocketApi -->
<g id="edge1" class="edge">
<title>Deployment::deployment::sam&#45;app&#45;WebSocketApi&#45;&gt;Api::sam&#45;app&#45;WebSocketApi</title>
<path fill="none" stroke="#707070" d="M329.25,-210.56C341.32,-211.93 353.35,-213.11 365,-214 498.16,-224.16 651.99,-222.75 752.7,-220.06"/>
<polygon fill="#707070" stroke="#707070" points="752.99,-223.55 762.89,-219.78 752.8,-216.56 752.99,-223.55"/>
</g>
<!-- Stage::sam&#45;app&#45;WebSocketApi::api -->
<g id="node5" class="node">
<title>Stage::sam&#45;app&#45;WebSocketApi::api</title>
<polygon fill="#e5e5e5" stroke="#dddddd" points="626,-205 397,-205 397,-147 626,-147 626,-205"/>
<text text-anchor="start" x="409.5" y="-185.2" font-family="Helvetica,sans-Serif" font-weight="bold" font-size="16.00" fill="#707070">ApiGatewayV2::Stage</text>
<text text-anchor="start" x="409.5" y="-160.2" font-family="Helvetica,sans-Serif" font-size="16.00" fill="#383838">sam&#45;app&#45;WebSocketApi::api</text>
</g>
<!-- Deployment::deployment::sam&#45;app&#45;WebSocketApi&#45;&gt;Stage::sam&#45;app&#45;WebSocketApi::api -->
<g id="edge2" class="edge">
<title>Deployment::deployment::sam&#45;app&#45;WebSocketApi&#45;&gt;Stage::sam&#45;app&#45;WebSocketApi::api</title>
<path fill="none" stroke="#707070" d="M329.38,-181.44C348.49,-180.87 367.85,-180.28 386.46,-179.73"/>
<polygon fill="#707070" stroke="#707070" points="386.82,-183.22 396.71,-179.42 386.61,-176.22 386.82,-183.22"/>
</g>
<!-- Integration::integration::sam&#45;app&#45;WebSocketApi::arn:aws:apigateway:us&#45;east&#45;1:states:action/StartExecution -->
<g id="node3" class="node">
<title>Integration::integration::sam&#45;app&#45;WebSocketApi::arn:aws:apigateway:us&#45;east&#45;1:states:action/StartExecution</title>
<polygon fill="#e5e5e5" stroke="#dddddd" points="658,-321 365,-321 365,-263 658,-263 658,-321"/>
<text text-anchor="start" x="377.5" y="-301.2" font-family="Helvetica,sans-Serif" font-weight="bold" font-size="16.00" fill="#707070">ApiGatewayV2::Integration</text>
<text text-anchor="start" x="377.5" y="-276.2" font-family="Helvetica,sans-Serif" font-size="16.00" fill="#383838">integration::sam&#45;app&#45;WebSocketAp...</text>
</g>
<!-- Integration::integration::sam&#45;app&#45;WebSocketApi::arn:aws:apigateway:us&#45;east&#45;1:states:action/StartExecution&#45;&gt;Api::sam&#45;app&#45;WebSocketApi -->
<g id="edge3" class="edge">
<title>Integration::integration::sam&#45;app&#45;WebSocketApi::arn:aws:apigateway:us&#45;east&#45;1:states:action/StartExecution&#45;&gt;Api::sam&#45;app&#45;WebSocketApi</title>
<path fill="none" stroke="#707070" d="M645.94,-262.94C681.31,-255.24 719.08,-247.01 752.96,-239.64"/>
<polygon fill="#707070" stroke="#707070" points="753.84,-243.03 762.87,-237.48 752.35,-236.19 753.84,-243.03"/>
</g>
<!-- Role::sam&#45;app&#45;StepFunctionsAsyncExecutionRole&#45;J88DT7UYD523 -->
<g id="node7" class="node">
<title>Role::sam&#45;app&#45;StepFunctionsAsyncExecutionRole&#45;J88DT7UYD523</title>
<polygon fill="#e5e5e5" stroke="#dddddd" points="1014.5,-321 710.5,-321 710.5,-263 1014.5,-263 1014.5,-321"/>
<text text-anchor="start" x="722.5" y="-301.2" font-family="Helvetica,sans-Serif" font-weight="bold" font-size="16.00" fill="#707070">IAM::Role</text>
<text text-anchor="start" x="722.5" y="-276.2" font-family="Helvetica,sans-Serif" font-size="16.00" fill="#383838">sam&#45;app&#45;StepFunctionsAsyncExecut...</text>
</g>
<!-- Integration::integration::sam&#45;app&#45;WebSocketApi::arn:aws:apigateway:us&#45;east&#45;1:states:action/StartExecution&#45;&gt;Role::sam&#45;app&#45;StepFunctionsAsyncExecutionRole&#45;J88DT7UYD523 -->
<g id="edge4" class="edge">
<title>Integration::integration::sam&#45;app&#45;WebSocketApi::arn:aws:apigateway:us&#45;east&#45;1:states:action/StartExecution&#45;&gt;Role::sam&#45;app&#45;StepFunctionsAsyncExecutionRole&#45;J88DT7UYD523</title>
<path fill="none" stroke="#707070" d="M658.23,-292C672.07,-292 686.16,-292 700.13,-292"/>
<polygon fill="#707070" stroke="#707070" points="700.28,-295.5 710.28,-292 700.28,-288.5 700.28,-295.5"/>
</g>
<!-- Route::route::sam&#45;app&#45;WebSocketApi::$default -->
<g id="node4" class="node">
<title>Route::route::sam&#45;app&#45;WebSocketApi::$default</title>
<polygon fill="#e5e5e5" stroke="#dddddd" points="323.5,-311 29.5,-311 29.5,-253 323.5,-253 323.5,-311"/>
<text text-anchor="start" x="41.5" y="-291.2" font-family="Helvetica,sans-Serif" font-weight="bold" font-size="16.00" fill="#707070">ApiGatewayV2::Route</text>
<text text-anchor="start" x="41.5" y="-266.2" font-family="Helvetica,sans-Serif" font-size="16.00" fill="#383838">route::sam&#45;app&#45;WebSocketApi::$de...</text>
</g>
<!-- Route::route::sam&#45;app&#45;WebSocketApi::$default&#45;&gt;Api::sam&#45;app&#45;WebSocketApi -->
<g id="edge5" class="edge">
<title>Route::route::sam&#45;app&#45;WebSocketApi::$default&#45;&gt;Api::sam&#45;app&#45;WebSocketApi</title>
<path fill="none" stroke="#707070" d="M323.74,-259.12C337.67,-257.26 351.59,-255.51 365,-254 498.09,-238.99 651.94,-228.23 752.67,-222.07"/>
<polygon fill="#707070" stroke="#707070" points="753.09,-225.55 762.86,-221.46 752.67,-218.57 753.09,-225.55"/>
</g>
<!-- Route::route::sam&#45;app&#45;WebSocketApi::$default&#45;&gt;Integration::integration::sam&#45;app&#45;WebSocketApi::arn:aws:apigateway:us&#45;east&#45;1:states:action/StartExecution -->
<g id="edge6" class="edge">
<title>Route::route::sam&#45;app&#45;WebSocketApi::$default&#45;&gt;Integration::integration::sam&#45;app&#45;WebSocketApi::arn:aws:apigateway:us&#45;east&#45;1:states:action/StartExecution</title>
<path fill="none" stroke="#707070" d="M323.56,-286.39C333.85,-286.7 344.24,-287.01 354.58,-287.32"/>
<polygon fill="#707070" stroke="#707070" points="354.8,-290.83 364.9,-287.63 355.01,-283.83 354.8,-290.83"/>
</g>
<!-- Stage::sam&#45;app&#45;WebSocketApi::api&#45;&gt;Api::sam&#45;app&#45;WebSocketApi -->
<g id="edge7" class="edge">
<title>Stage::sam&#45;app&#45;WebSocketApi::api&#45;&gt;Api::sam&#45;app&#45;WebSocketApi</title>
<path fill="none" stroke="#707070" d="M626.29,-189.04C666.91,-193.7 712.54,-198.93 752.73,-203.53"/>
<polygon fill="#707070" stroke="#707070" points="752.49,-207.03 762.82,-204.69 753.28,-200.07 752.49,-207.03"/>
</g>
<!-- Role::sam&#45;app&#45;AsyncSFnRole&#45;8NQQ0TS8GG6S -->
<g id="node6" class="node">
<title>Role::sam&#45;app&#45;AsyncSFnRole&#45;8NQQ0TS8GG6S</title>
<polygon fill="#e5e5e5" stroke="#dddddd" points="1031,-129 694,-129 694,-71 1031,-71 1031,-129"/>
<text text-anchor="start" x="706.5" y="-109.2" font-family="Helvetica,sans-Serif" font-weight="bold" font-size="16.00" fill="#707070">IAM::Role</text>
<text text-anchor="start" x="706.5" y="-84.2" font-family="Helvetica,sans-Serif" font-size="16.00" fill="#383838">sam&#45;app&#45;AsyncSFnRole&#45;8NQQ0TS8GG6...</text>
</g>
<!-- StateMachine::AsyncSFn&#45;fcqiU5cPyW3T -->
<g id="node8" class="node">
<title>StateMachine::AsyncSFn&#45;fcqiU5cPyW3T</title>
<polygon fill="#e5e5e5" stroke="#dddddd" points="636.5,-129 386.5,-129 386.5,-71 636.5,-71 636.5,-129"/>
<text text-anchor="start" x="398.5" y="-109.2" font-family="Helvetica,sans-Serif" font-weight="bold" font-size="16.00" fill="#707070">StepFunctions::StateMachine</text>
<text text-anchor="start" x="398.5" y="-84.2" font-family="Helvetica,sans-Serif" font-size="16.00" fill="#383838">AsyncSFn&#45;fcqiU5cPyW3T</text>
</g>
<!-- StateMachine::AsyncSFn&#45;fcqiU5cPyW3T&#45;&gt;Api::sam&#45;app&#45;WebSocketApi -->
<g id="edge9" class="edge">
<title>StateMachine::AsyncSFn&#45;fcqiU5cPyW3T&#45;&gt;Api::sam&#45;app&#45;WebSocketApi</title>
<path fill="none" stroke="#707070" d="M628.39,-129.02C638.45,-131.92 648.43,-134.93 658,-138 699.51,-151.33 744.89,-168.47 782.23,-183.28"/>
<polygon fill="#707070" stroke="#707070" points="780.96,-186.54 791.55,-186.99 783.55,-180.04 780.96,-186.54"/>
</g>
<!-- StateMachine::AsyncSFn&#45;fcqiU5cPyW3T&#45;&gt;Role::sam&#45;app&#45;AsyncSFnRole&#45;8NQQ0TS8GG6S -->
<g id="edge8" class="edge">
<title>StateMachine::AsyncSFn&#45;fcqiU5cPyW3T&#45;&gt;Role::sam&#45;app&#45;AsyncSFnRole&#45;8NQQ0TS8GG6S</title>
<path fill="none" stroke="#707070" d="M636.53,-100C651.8,-100 667.63,-100 683.5,-100"/>
<polygon fill="#707070" stroke="#707070" points="683.93,-103.5 693.93,-100 683.93,-96.5 683.93,-103.5"/>
</g>
</g>
</svg>
