<?xml version="1.0" encoding="UTF-8" standalone="no"?>
<!DOCTYPE svg PUBLIC "-//W3C//DTD SVG 1.1//EN"
 "http://www.w3.org/Graphics/SVG/1.1/DTD/svg11.dtd">
<!-- Generated by graphviz version 6.0.0 (20220910.1538)
 -->
<!-- Title: graphname Pages: 1 -->
<svg width="1046pt" height="389pt"
 viewBox="0.00 0.00 1046.00 389.00" xmlns="http://www.w3.org/2000/svg" xmlns:xlink="http://www.w3.org/1999/xlink">
<g id="graph0" class="graph" transform="scale(1 1) rotate(0) translate(4 385)">
<title>graphname</title>
<polygon fill="#fafafa" stroke="none" points="-4,4 -4,-385 1042,-385 1042,4 -4,4"/>
<text text-anchor="start" x="399" y="-356.4" font-family="Helvetica,sans-Serif" font-weight="bold" font-size="22.00" fill="#383838">Project lambda&#45;lambda</text>
<text text-anchor="start" x="515.5" y="-340.8" font-family="Helvetica,sans-Serif" font-size="14.00"> &#160;</text>
<text text-anchor="start" x="399" y="-319.2" font-family="Helvetica,sans-Serif" font-weight="bold" font-size="16.00" fill="#707070">Target Diagram</text>
<g id="clust1" class="cluster">
<title>cluster_aws</title>
<polygon fill="#f5f5f5" stroke="#f5f5f5" points="8,-8 8,-297 1030,-297 1030,-8 8,-8"/>
<text text-anchor="start" x="457" y="-23" font-family="Helvetica,sans-Serif" font-weight="bold" font-size="20.00" fill="#707070">Provider aws</text>
</g>
<g id="clust2" class="cluster">
<title>cluster_aws_</title>
<polygon fill="#eeeeee" stroke="#eeeeee" points="16,-54 16,-289 1022,-289 1022,-54 16,-54"/>
<text text-anchor="start" x="518.86" y="-58.3" font-family="Helvetica,sans-Serif" font-size="1.00" fill="#383838"> </text>
</g>
<!-- Role::sam&#45;app&#45;OnFailureFunctionRole&#45;1F4V5FIK907PV -->
<g id="node1" class="node">
<title>Role::sam&#45;app&#45;OnFailureFunctionRole&#45;1F4V5FIK907PV</title>
<polygon fill="#e5e5e5" stroke="#dddddd" points="1008,-205 713,-205 713,-147 1008,-147 1008,-205"/>
<text text-anchor="start" x="725.5" y="-185.2" font-family="Helvetica,sans-Serif" font-weight="bold" font-size="16.00" fill="#707070">IAM::Role</text>
<text text-anchor="start" x="725.5" y="-160.2" font-family="Helvetica,sans-Serif" font-size="16.00" fill="#383838">sam&#45;app&#45;OnFailureFunctionRole&#45;1F...</text>
</g>
<!-- Role::sam&#45;app&#45;OnSuccessFunctionRole&#45;1F2XESIKF6EV9 -->
<g id="node2" class="node">
<title>Role::sam&#45;app&#45;OnSuccessFunctionRole&#45;1F2XESIKF6EV9</title>
<polygon fill="#e5e5e5" stroke="#dddddd" points="1014,-281 707,-281 707,-223 1014,-223 1014,-281"/>
<text text-anchor="start" x="719.5" y="-261.2" font-family="Helvetica,sans-Serif" font-weight="bold" font-size="16.00" fill="#707070">IAM::Role</text>
<text text-anchor="start" x="719.5" y="-236.2" font-family="Helvetica,sans-Serif" font-size="16.00" fill="#383838">sam&#45;app&#45;OnSuccessFunctionRole&#45;1F...</text>
</g>
<!-- Role::sam&#45;app&#45;ProducerFunctionRole&#45;PNQ5UE1I36B9 -->
<g id="node3" class="node">
<title>Role::sam&#45;app&#45;ProducerFunctionRole&#45;PNQ5UE1I36B9</title>
<polygon fill="#e5e5e5" stroke="#dddddd" points="669.5,-129 362.5,-129 362.5,-71 669.5,-71 669.5,-129"/>
<text text-anchor="start" x="375" y="-109.2" font-family="Helvetica,sans-Serif" font-weight="bold" font-size="16.00" fill="#707070">IAM::Role</text>
<text text-anchor="start" x="375" y="-84.2" font-family="Helvetica,sans-Serif" font-size="16.00" fill="#383838">sam&#45;app&#45;ProducerFunctionRole&#45;PNQ...</text>
</g>
<!-- Function::sam&#45;app&#45;OnFailureFunction&#45;IFj57VVcPFjr -->
<g id="node4" class="node">
<title>Function::sam&#45;app&#45;OnFailureFunction&#45;IFj57VVcPFjr</title>
<polygon fill="#e5e5e5" stroke="#dddddd" points="661,-205 371,-205 371,-147 661,-147 661,-205"/>
<text text-anchor="start" x="383" y="-185.2" font-family="Helvetica,sans-Serif" font-weight="bold" font-size="16.00" fill="#707070">Lambda::Function</text>
<text text-anchor="start" x="383" y="-160.2" font-family="Helvetica,sans-Serif" font-size="16.00" fill="#383838">sam&#45;app&#45;OnFailureFunction&#45;IFj57V...</text>
</g>
<!-- Function::sam&#45;app&#45;OnFailureFunction&#45;IFj57VVcPFjr&#45;&gt;Role::sam&#45;app&#45;OnFailureFunctionRole&#45;1F4V5FIK907PV -->
<g id="edge1" class="edge">
<title>Function::sam&#45;app&#45;OnFailureFunction&#45;IFj57VVcPFjr&#45;&gt;Role::sam&#45;app&#45;OnFailureFunctionRole&#45;1F4V5FIK907PV</title>
<path fill="none" stroke="#707070" d="M661.26,-176C675.01,-176 689.01,-176 702.87,-176"/>
<polygon fill="#707070" stroke="#707070" points="702.94,-179.5 712.94,-176 702.94,-172.5 702.94,-179.5"/>
</g>
<!-- Function::sam&#45;app&#45;OnSuccessFunction&#45;MZzIdxTUTmet -->
<g id="node5" class="node">
<title>Function::sam&#45;app&#45;OnSuccessFunction&#45;MZzIdxTUTmet</title>
<polygon fill="#e5e5e5" stroke="#dddddd" points="671,-281 361,-281 361,-223 671,-223 671,-281"/>
<text text-anchor="start" x="373" y="-261.2" font-family="Helvetica,sans-Serif" font-weight="bold" font-size="16.00" fill="#707070">Lambda::Function</text>
<text text-anchor="start" x="373" y="-236.2" font-family="Helvetica,sans-Serif" font-size="16.00" fill="#383838">sam&#45;app&#45;OnSuccessFunction&#45;MZzIdx...</text>
</g>
<!-- Function::sam&#45;app&#45;OnSuccessFunction&#45;MZzIdxTUTmet&#45;&gt;Role::sam&#45;app&#45;OnSuccessFunctionRole&#45;1F2XESIKF6EV9 -->
<g id="edge2" class="edge">
<title>Function::sam&#45;app&#45;OnSuccessFunction&#45;MZzIdxTUTmet&#45;&gt;Role::sam&#45;app&#45;OnSuccessFunctionRole&#45;1F2XESIKF6EV9</title>
<path fill="none" stroke="#707070" d="M671.22,-252C679.61,-252 688.06,-252 696.48,-252"/>
<polygon fill="#707070" stroke="#707070" points="696.74,-255.5 706.74,-252 696.74,-248.5 696.74,-255.5"/>
</g>
<!-- Function::sam&#45;app&#45;ProducerFunction&#45;rCp6FupDywg8 -->
<g id="node6" class="node">
<title>Function::sam&#45;app&#45;ProducerFunction&#45;rCp6FupDywg8</title>
<polygon fill="#e5e5e5" stroke="#dddddd" points="325,-205 24,-205 24,-147 325,-147 325,-205"/>
<text text-anchor="start" x="36.5" y="-185.2" font-family="Helvetica,sans-Serif" font-weight="bold" font-size="16.00" fill="#707070">Lambda::Function</text>
<text text-anchor="start" x="36.5" y="-160.2" font-family="Helvetica,sans-Serif" font-size="16.00" fill="#383838">sam&#45;app&#45;ProducerFunction&#45;rCp6Fup...</text>
</g>
<!-- Function::sam&#45;app&#45;ProducerFunction&#45;rCp6FupDywg8&#45;&gt;Role::sam&#45;app&#45;ProducerFunctionRole&#45;PNQ5UE1I36B9 -->
<g id="edge5" class="edge">
<title>Function::sam&#45;app&#45;ProducerFunction&#45;rCp6FupDywg8&#45;&gt;Role::sam&#45;app&#45;ProducerFunctionRole&#45;PNQ5UE1I36B9</title>
<path fill="none" stroke="#707070" d="M305.3,-146.94C328.23,-141.81 352.2,-136.44 375.38,-131.25"/>
<polygon fill="#707070" stroke="#707070" points="376.27,-134.64 385.27,-129.04 374.75,-127.81 376.27,-134.64"/>
</g>
<!-- Function::sam&#45;app&#45;ProducerFunction&#45;rCp6FupDywg8&#45;&gt;Function::sam&#45;app&#45;OnFailureFunction&#45;IFj57VVcPFjr -->
<g id="edge4" class="edge">
<title>Function::sam&#45;app&#45;ProducerFunction&#45;rCp6FupDywg8&#45;&gt;Function::sam&#45;app&#45;OnFailureFunction&#45;IFj57VVcPFjr</title>
<path fill="none" stroke="#707070" d="M325.4,-176C337.08,-176 348.88,-176 360.59,-176"/>
<polygon fill="#707070" stroke="#707070" points="360.84,-179.5 370.84,-176 360.84,-172.5 360.84,-179.5"/>
</g>
<!-- Function::sam&#45;app&#45;ProducerFunction&#45;rCp6FupDywg8&#45;&gt;Function::sam&#45;app&#45;OnSuccessFunction&#45;MZzIdxTUTmet -->
<g id="edge3" class="edge">
<title>Function::sam&#45;app&#45;ProducerFunction&#45;rCp6FupDywg8&#45;&gt;Function::sam&#45;app&#45;OnSuccessFunction&#45;MZzIdxTUTmet</title>
<path fill="none" stroke="#707070" d="M305.3,-205.06C328.23,-210.19 352.2,-215.56 375.38,-220.75"/>
<polygon fill="#707070" stroke="#707070" points="374.75,-224.19 385.27,-222.96 376.27,-217.36 374.75,-224.19"/>
</g>
</g>
</svg>
