<?xml version="1.0" encoding="UTF-8" standalone="no"?>
<!DOCTYPE svg PUBLIC "-//W3C//DTD SVG 1.1//EN"
 "http://www.w3.org/Graphics/SVG/1.1/DTD/svg11.dtd">
<!-- Generated by graphviz version 6.0.0 (20220910.1538)
 -->
<!-- Title: graphname Pages: 1 -->
<svg width="457pt" height="237pt"
 viewBox="0.00 0.00 457.00 237.00" xmlns="http://www.w3.org/2000/svg" xmlns:xlink="http://www.w3.org/1999/xlink">
<g id="graph0" class="graph" transform="scale(1 1) rotate(0) translate(4 233)">
<title>graphname</title>
<polygon fill="#fafafa" stroke="none" points="-4,4 -4,-233 453,-233 453,4 -4,4"/>
<text text-anchor="start" x="76.5" y="-204.4" font-family="Helvetica,sans-Serif" font-weight="bold" font-size="22.00" fill="#383838">Project identity&#45;store&#45;simple</text>
<text text-anchor="start" x="220.5" y="-188.8" font-family="Helvetica,sans-Serif" font-size="14.00"> &#160;</text>
<text text-anchor="start" x="76.5" y="-167.2" font-family="Helvetica,sans-Serif" font-weight="bold" font-size="16.00" fill="#707070">Target Diagram</text>
<g id="clust1" class="cluster">
<title>cluster_aws</title>
<polygon fill="#f5f5f5" stroke="#f5f5f5" points="8,-8 8,-145 441,-145 441,-8 8,-8"/>
<text text-anchor="start" x="162.5" y="-23" font-family="Helvetica,sans-Serif" font-weight="bold" font-size="20.00" fill="#707070">Provider aws</text>
</g>
<g id="clust2" class="cluster">
<title>cluster_aws_</title>
<polygon fill="#eeeeee" stroke="#eeeeee" points="16,-54 16,-137 433,-137 433,-54 16,-54"/>
<text text-anchor="start" x="224.36" y="-58.3" font-family="Helvetica,sans-Serif" font-size="1.00" fill="#383838"> </text>
</g>
<!-- Group::my&#45;group -->
<g id="node1" class="node">
<title>Group::my&#45;group</title>
<polygon fill="#e5e5e5" stroke="#dddddd" points="205,-129 24,-129 24,-71 205,-71 205,-129"/>
<text text-anchor="start" x="36.5" y="-109.2" font-family="Helvetica,sans-Serif" font-weight="bold" font-size="16.00" fill="#707070">IdentityStore::Group</text>
<text text-anchor="start" x="36.5" y="-84.2" font-family="Helvetica,sans-Serif" font-size="16.00" fill="#383838">my&#45;group</text>
</g>
<!-- Instance::default -->
<g id="node2" class="node">
<title>Instance::default</title>
<polygon fill="#e5e5e5" stroke="#dddddd" points="425,-129 241,-129 241,-71 425,-71 425,-129"/>
<text text-anchor="start" x="253" y="-109.2" font-family="Helvetica,sans-Serif" font-weight="bold" font-size="16.00" fill="#707070">SSOAdmin::Instance</text>
<text text-anchor="start" x="253" y="-84.2" font-family="Helvetica,sans-Serif" font-size="16.00" fill="#383838">default</text>
</g>
<!-- Group::my&#45;group&#45;&gt;Instance::default -->
<g id="edge1" class="edge">
<title>Group::my&#45;group&#45;&gt;Instance::default</title>
<path fill="none" stroke="#707070" d="M205.12,-100C213.47,-100 221.98,-100 230.43,-100"/>
<polygon fill="#707070" stroke="#707070" points="230.7,-103.5 240.7,-100 230.7,-96.5 230.7,-103.5"/>
</g>
</g>
</svg>
