<?xml version="1.0" encoding="UTF-8" standalone="no"?>
<!DOCTYPE svg PUBLIC "-//W3C//DTD SVG 1.1//EN"
 "http://www.w3.org/Graphics/SVG/1.1/DTD/svg11.dtd">
<!-- Generated by graphviz version 3.0.0 (20220226.1711)
 -->
<!-- Title: graphname Pages: 1 -->
<svg width="1256pt" height="389pt"
 viewBox="0.00 0.00 1256.00 389.00" xmlns="http://www.w3.org/2000/svg" xmlns:xlink="http://www.w3.org/1999/xlink">
<g id="graph0" class="graph" transform="scale(1 1) rotate(0) translate(4 385)">
<title>graphname</title>
<polygon fill="#fafafa" stroke="transparent" points="-4,4 -4,-385 1252,-385 1252,4 -4,4"/>
<text text-anchor="start" x="474" y="-356.4" font-family="Helvetica,sans-Serif" font-weight="bold" font-size="22.00" fill="#383838">Project appsync&#45;eventbridge</text>
<text text-anchor="start" x="620.5" y="-340.8" font-family="Helvetica,sans-Serif" font-size="14.00"> &#160;</text>
<text text-anchor="start" x="474" y="-319.2" font-family="Helvetica,sans-Serif" font-weight="bold" font-size="16.00" fill="#707070">Live Diagram</text>
<g id="clust1" class="cluster">
<title>cluster_aws</title>
<polygon fill="#f5f5f5" stroke="#f5f5f5" points="8,-8 8,-297 1240,-297 1240,-8 8,-8"/>
<text text-anchor="start" x="562" y="-23" font-family="Helvetica,sans-Serif" font-weight="bold" font-size="20.00" fill="#707070">Provider aws</text>
</g>
<g id="clust2" class="cluster">
<title>cluster_aws_</title>
<polygon fill="#eeeeee" stroke="#eeeeee" points="16,-54 16,-289 1232,-289 1232,-54 16,-54"/>
<text text-anchor="start" x="623.86" y="-58.3" font-family="Helvetica,sans-Serif" font-size="1.00" fill="#383838"> </text>
</g>
<!-- DataSource::::events -->
<g id="node1" class="node">
<title>DataSource::::events</title>
<polygon fill="#e5e5e5" stroke="#dddddd" points="560,-233 367,-233 367,-175 560,-175 560,-233"/>
<text text-anchor="start" x="379.5" y="-213.2" font-family="Helvetica,sans-Serif" font-weight="bold" font-size="16.00" fill="#707070">AppSync::DataSource</text>
<text text-anchor="start" x="379.5" y="-188.2" font-family="Helvetica,sans-Serif" font-size="16.00" fill="#383838">events</text>
</g>
<!-- GraphqlApi::::AppSyncEventBridgeAPI -->
<g id="node2" class="node">
<title>GraphqlApi::::AppSyncEventBridgeAPI</title>
<polygon fill="#e5e5e5" stroke="#dddddd" points="844.5,-281 642.5,-281 642.5,-223 844.5,-223 844.5,-281"/>
<text text-anchor="start" x="654.5" y="-261.2" font-family="Helvetica,sans-Serif" font-weight="bold" font-size="16.00" fill="#707070">AppSync::GraphqlApi</text>
<text text-anchor="start" x="654.5" y="-236.2" font-family="Helvetica,sans-Serif" font-size="16.00" fill="#383838">AppSyncEventBridgeAPI</text>
</g>
<!-- DataSource::::events&#45;&gt;GraphqlApi::::AppSyncEventBridgeAPI -->
<g id="edge1" class="edge">
<title>DataSource::::events&#45;&gt;GraphqlApi::::AppSyncEventBridgeAPI</title>
<path fill="none" stroke="#707070" d="M560.17,-220.52C583.4,-224.53 608.42,-228.85 632.25,-232.96"/>
<polygon fill="#707070" stroke="#707070" points="631.94,-236.46 642.39,-234.71 633.13,-229.56 631.94,-236.46"/>
</g>
<!-- Role::::AppsyncEventbridgeStack&#45;ApieventsServiceRole531FB6&#45;1OV5AQSZ4CWBK -->
<g id="node6" class="node">
<title>Role::::AppsyncEventbridgeStack&#45;ApieventsServiceRole531FB6&#45;1OV5AQSZ4CWBK</title>
<polygon fill="#e5e5e5" stroke="#dddddd" points="891,-205 596,-205 596,-147 891,-147 891,-205"/>
<text text-anchor="start" x="608.5" y="-185.2" font-family="Helvetica,sans-Serif" font-weight="bold" font-size="16.00" fill="#707070">IAM::Role</text>
<text text-anchor="start" x="608.5" y="-160.2" font-family="Helvetica,sans-Serif" font-size="16.00" fill="#383838">AppsyncEventbridgeStack&#45;Apievent...</text>
</g>
<!-- DataSource::::events&#45;&gt;Role::::AppsyncEventbridgeStack&#45;ApieventsServiceRole531FB6&#45;1OV5AQSZ4CWBK -->
<g id="edge2" class="edge">
<title>DataSource::::events&#45;&gt;Role::::AppsyncEventbridgeStack&#45;ApieventsServiceRole531FB6&#45;1OV5AQSZ4CWBK</title>
<path fill="none" stroke="#707070" d="M560.17,-194.36C568.41,-193.53 576.88,-192.68 585.44,-191.82"/>
<polygon fill="#707070" stroke="#707070" points="585.92,-195.29 595.52,-190.8 585.22,-188.32 585.92,-195.29"/>
</g>
<!-- Role::::AppsyncEventbridgeStack&#45;ApiApiLogsRole90293F72&#45;7E0RPUK5AGTI -->
<g id="node5" class="node">
<title>Role::::AppsyncEventbridgeStack&#45;ApiApiLogsRole90293F72&#45;7E0RPUK5AGTI</title>
<polygon fill="#e5e5e5" stroke="#dddddd" points="1224,-281 927,-281 927,-223 1224,-223 1224,-281"/>
<text text-anchor="start" x="939.5" y="-261.2" font-family="Helvetica,sans-Serif" font-weight="bold" font-size="16.00" fill="#707070">IAM::Role</text>
<text text-anchor="start" x="939.5" y="-236.2" font-family="Helvetica,sans-Serif" font-size="16.00" fill="#383838">AppsyncEventbridgeStack&#45;ApiApiLo...</text>
</g>
<!-- GraphqlApi::::AppSyncEventBridgeAPI&#45;&gt;Role::::AppsyncEventbridgeStack&#45;ApiApiLogsRole90293F72&#45;7E0RPUK5AGTI -->
<g id="edge3" class="edge">
<title>GraphqlApi::::AppSyncEventBridgeAPI&#45;&gt;Role::::AppsyncEventbridgeStack&#45;ApiApiLogsRole90293F72&#45;7E0RPUK5AGTI</title>
<path fill="none" stroke="#707070" d="M844.85,-252C867.6,-252 892.3,-252 916.78,-252"/>
<polygon fill="#707070" stroke="#707070" points="916.89,-255.5 926.89,-252 916.89,-248.5 916.89,-255.5"/>
</g>
<!-- Resolver::::resolver::Mutation::putEvent -->
<g id="node3" class="node">
<title>Resolver::::resolver::Mutation::putEvent</title>
<polygon fill="#e5e5e5" stroke="#dddddd" points="290.5,-281 64.5,-281 64.5,-223 290.5,-223 290.5,-281"/>
<text text-anchor="start" x="76.5" y="-261.2" font-family="Helvetica,sans-Serif" font-weight="bold" font-size="16.00" fill="#707070">AppSync::Resolver</text>
<text text-anchor="start" x="76.5" y="-236.2" font-family="Helvetica,sans-Serif" font-size="16.00" fill="#383838">resolver::Mutation::putEvent</text>
</g>
<!-- Resolver::::resolver::Mutation::putEvent&#45;&gt;DataSource::::events -->
<g id="edge5" class="edge">
<title>Resolver::::resolver::Mutation::putEvent&#45;&gt;DataSource::::events</title>
<path fill="none" stroke="#707070" d="M290.74,-233.03C312.43,-229.36 335.08,-225.54 356.55,-221.91"/>
<polygon fill="#707070" stroke="#707070" points="357.38,-225.32 366.66,-220.2 356.22,-218.41 357.38,-225.32"/>
</g>
<!-- Resolver::::resolver::Mutation::putEvent&#45;&gt;GraphqlApi::::AppSyncEventBridgeAPI -->
<g id="edge4" class="edge">
<title>Resolver::::resolver::Mutation::putEvent&#45;&gt;GraphqlApi::::AppSyncEventBridgeAPI</title>
<path fill="none" stroke="#707070" d="M290.6,-252C389.73,-252 533.52,-252 632.13,-252"/>
<polygon fill="#707070" stroke="#707070" points="632.42,-255.5 642.42,-252 632.42,-248.5 632.42,-255.5"/>
</g>
<!-- EventBus::::AppSyncEventBus -->
<g id="node4" class="node">
<title>EventBus::::AppSyncEventBus</title>
<polygon fill="#e5e5e5" stroke="#dddddd" points="304,-205 51,-205 51,-147 304,-147 304,-205"/>
<text text-anchor="start" x="63.5" y="-185.2" font-family="Helvetica,sans-Serif" font-weight="bold" font-size="16.00" fill="#707070">CloudWatchEvents::EventBus</text>
<text text-anchor="start" x="63.5" y="-160.2" font-family="Helvetica,sans-Serif" font-size="16.00" fill="#383838">AppSyncEventBus</text>
</g>
<!-- Role::::AppsyncEventbridgeStack&#45;AppSyncEventBridgeRoleE2F3&#45;1A2KOXUYDW21 -->
<g id="node7" class="node">
<title>Role::::AppsyncEventbridgeStack&#45;AppSyncEventBridgeRoleE2F3&#45;1A2KOXUYDW21</title>
<polygon fill="#e5e5e5" stroke="#dddddd" points="331,-129 24,-129 24,-71 331,-71 331,-129"/>
<text text-anchor="start" x="36.5" y="-109.2" font-family="Helvetica,sans-Serif" font-weight="bold" font-size="16.00" fill="#707070">IAM::Role</text>
<text text-anchor="start" x="36.5" y="-84.2" font-family="Helvetica,sans-Serif" font-size="16.00" fill="#383838">AppsyncEventbridgeStack&#45;AppSyncE...</text>
</g>
</g>
</svg>
