<?xml version="1.0" encoding="UTF-8" standalone="no"?>
<!DOCTYPE svg PUBLIC "-//W3C//DTD SVG 1.1//EN"
 "http://www.w3.org/Graphics/SVG/1.1/DTD/svg11.dtd">
<!-- Generated by graphviz version 2.50.0 (20211204.2007)
 -->
<!-- Title: graphname Pages: 1 -->
<svg width="195pt" height="389pt"
 viewBox="0.00 0.00 195.00 389.00" xmlns="http://www.w3.org/2000/svg" xmlns:xlink="http://www.w3.org/1999/xlink">
<g id="graph0" class="graph" transform="scale(1 1) rotate(0) translate(4 385)">
<title>graphname</title>
<polygon fill="#fafafa" stroke="transparent" points="-4,4 -4,-385 191,-385 191,4 -4,4"/>
<text text-anchor="start" x="12.5" y="-356.4" font-family="Helvetica,sans-Serif" font-weight="bold" font-size="22.00" fill="#383838">Project k8s&#45;app</text>
<text text-anchor="start" x="90" y="-340.8" font-family="Helvetica,sans-Serif" font-size="14.00"> &#160;</text>
<text text-anchor="start" x="12.5" y="-319.2" font-family="Helvetica,sans-Serif" font-weight="bold" font-size="16.00" fill="#707070">Target Diagram</text>
<g id="clust1" class="cluster">
<title>cluster_k8s</title>
<polygon fill="#f5f5f5" stroke="#f5f5f5" points="21.5,-8 21.5,-297 165.5,-297 165.5,-8 21.5,-8"/>
<text text-anchor="start" x="33.5" y="-23" font-family="Helvetica,sans-Serif" font-weight="bold" font-size="20.00" fill="#707070">Provider k8s</text>
</g>
<g id="clust2" class="cluster">
<title>cluster_k8s_</title>
<polygon fill="#eeeeee" stroke="#eeeeee" points="35.5,-54 35.5,-289 151.5,-289 151.5,-54 35.5,-54"/>
<text text-anchor="start" x="93.36" y="-58.3" font-family="Helvetica,sans-Serif" font-size="1.00" fill="#383838"> </text>
</g>
<!-- Pod::aspnetapp -->
<g id="node1" class="node">
<title>Pod::aspnetapp</title>
<polygon fill="#e5e5e5" stroke="#dddddd" points="143.5,-281 43.5,-281 43.5,-223 143.5,-223 143.5,-281"/>
<text text-anchor="start" x="55.5" y="-261.2" font-family="Helvetica,sans-Serif" font-weight="bold" font-size="16.00" fill="#707070">Pod</text>
<text text-anchor="start" x="55.5" y="-236.2" font-family="Helvetica,sans-Serif" font-size="16.00" fill="#383838">aspnetapp</text>
</g>
<!-- Service::aspnetapp -->
<g id="node2" class="node">
<title>Service::aspnetapp</title>
<polygon fill="#e5e5e5" stroke="#dddddd" points="143.5,-205 43.5,-205 43.5,-147 143.5,-147 143.5,-205"/>
<text text-anchor="start" x="55.5" y="-185.2" font-family="Helvetica,sans-Serif" font-weight="bold" font-size="16.00" fill="#707070">Service</text>
<text text-anchor="start" x="55.5" y="-160.2" font-family="Helvetica,sans-Serif" font-size="16.00" fill="#383838">aspnetapp</text>
</g>
<!-- Ingress::aspnetapp -->
<g id="node3" class="node">
<title>Ingress::aspnetapp</title>
<polygon fill="#e5e5e5" stroke="#dddddd" points="143.5,-129 43.5,-129 43.5,-71 143.5,-71 143.5,-129"/>
<text text-anchor="start" x="55.5" y="-109.2" font-family="Helvetica,sans-Serif" font-weight="bold" font-size="16.00" fill="#707070">Ingress</text>
<text text-anchor="start" x="55.5" y="-84.2" font-family="Helvetica,sans-Serif" font-size="16.00" fill="#383838">aspnetapp</text>
</g>
</g>
</svg>
