<?xml version="1.0" encoding="UTF-8" standalone="no"?>
<!DOCTYPE svg PUBLIC "-//W3C//DTD SVG 1.1//EN"
 "http://www.w3.org/Graphics/SVG/1.1/DTD/svg11.dtd">
<!-- Generated by graphviz version 2.44.1 (20200629.0846)
 -->
<!-- Title: graphname Pages: 1 -->
<svg width="987pt" height="2315pt"
 viewBox="0.00 0.00 987.00 2315.00" xmlns="http://www.w3.org/2000/svg" xmlns:xlink="http://www.w3.org/1999/xlink">
<g id="graph0" class="graph" transform="scale(1 1) rotate(0) translate(4 2311)">
<title>graphname</title>
<polygon fill="#fafafa" stroke="transparent" points="-4,4 -4,-2311 983,-2311 983,4 -4,4"/>
<text text-anchor="start" x="423.5" y="-2282.4" font-family="Helvetica,sans-Serif" font-weight="bold" font-size="22.00" fill="#383838">Project multi</text>
<text text-anchor="start" x="486" y="-2266.8" font-family="Helvetica,sans-Serif" font-size="14.00"> &#160;</text>
<text text-anchor="start" x="423.5" y="-2245.2" font-family="Helvetica,sans-Serif" font-weight="bold" font-size="16.00" fill="#707070">Live Diagram</text>
<g id="clust1" class="cluster">
<title>cluster_google</title>
<polygon fill="#f5f5f5" stroke="#f5f5f5" points="11,-8 11,-1361 732.5,-1361 732.5,-8 11,-8"/>
<text text-anchor="start" x="296.75" y="-23" font-family="Helvetica,sans-Serif" font-weight="bold" font-size="20.00" fill="#707070">Provider google</text>
</g>
<g id="clust2" class="cluster">
<title>cluster_google_</title>
<polygon fill="#eeeeee" stroke="#eeeeee" points="19,-54 19,-1353 724.5,-1353 724.5,-54 19,-54"/>
<text text-anchor="start" x="371.61" y="-58.3" font-family="Helvetica,sans-Serif" font-size="1.00" fill="#383838"> </text>
</g>
<g id="clust3" class="cluster">
<title>cluster_azure</title>
<polygon fill="#f5f5f5" stroke="#f5f5f5" points="70,-1369 70,-1698 971,-1698 971,-1369 70,-1369"/>
<text text-anchor="start" x="451.5" y="-1384" font-family="Helvetica,sans-Serif" font-weight="bold" font-size="20.00" fill="#707070">Provider azure</text>
</g>
<g id="clust4" class="cluster">
<title>cluster_azure_</title>
<polygon fill="#eeeeee" stroke="#eeeeee" points="78,-1415 78,-1690 963,-1690 963,-1415 78,-1415"/>
<text text-anchor="start" x="520.36" y="-1419.3" font-family="Helvetica,sans-Serif" font-size="1.00" fill="#383838"> </text>
</g>
<g id="clust5" class="cluster">
<title>cluster_aws</title>
<polygon fill="#f5f5f5" stroke="#f5f5f5" points="8,-1706 8,-2223 725,-2223 725,-1706 8,-1706"/>
<text text-anchor="start" x="304.5" y="-1721" font-family="Helvetica,sans-Serif" font-weight="bold" font-size="20.00" fill="#707070">Provider aws</text>
</g>
<g id="clust6" class="cluster">
<title>cluster_aws_</title>
<polygon fill="#eeeeee" stroke="#eeeeee" points="16,-1752 16,-2215 717,-2215 717,-1752 16,-1752"/>
<text text-anchor="start" x="366.36" y="-1756.3" font-family="Helvetica,sans-Serif" font-size="1.00" fill="#383838"> </text>
</g>
<!-- Network::::2173775813186288475 -->
<g id="node1" class="node">
<title>Network::::2173775813186288475</title>
<polygon fill="#e5e5e5" stroke="#dddddd" points="716.5,-225 628.5,-225 628.5,-167 716.5,-167 716.5,-225"/>
<text text-anchor="start" x="640.5" y="-205.2" font-family="Helvetica,sans-Serif" font-weight="bold" font-size="16.00" fill="#707070">Network</text>
<text text-anchor="start" x="640.5" y="-180.2" font-family="Helvetica,sans-Serif" font-size="16.00" fill="#383838">vpc&#45;dev</text>
</g>
<!-- Disk::::1740658670968896313 -->
<g id="node2" class="node">
<title>Disk::::1740658670968896313</title>
<polygon fill="#e5e5e5" stroke="#dddddd" points="490,-149 416,-149 416,-91 490,-91 490,-149"/>
<text text-anchor="start" x="428" y="-129.2" font-family="Helvetica,sans-Serif" font-weight="bold" font-size="16.00" fill="#707070">Disk</text>
<text text-anchor="start" x="428" y="-104.2" font-family="Helvetica,sans-Serif" font-size="16.00" fill="#383838">db&#45;dev</text>
</g>
<!-- Disk::::60228286634916699 -->
<g id="node3" class="node">
<title>Disk::::60228286634916699</title>
<polygon fill="#e5e5e5" stroke="#dddddd" points="211.5,-1345 126.5,-1345 126.5,-1287 211.5,-1287 211.5,-1345"/>
<text text-anchor="start" x="139" y="-1325.2" font-family="Helvetica,sans-Serif" font-weight="bold" font-size="16.00" fill="#707070">Disk</text>
<text text-anchor="start" x="139" y="-1300.2" font-family="Helvetica,sans-Serif" font-size="16.00" fill="#383838">disk&#45;dev</text>
</g>
<!-- Address::::2040409236035205978 -->
<g id="node4" class="node">
<title>Address::::2040409236035205978</title>
<polygon fill="#e5e5e5" stroke="#dddddd" points="243,-1269 95,-1269 95,-1211 243,-1211 243,-1269"/>
<text text-anchor="start" x="107" y="-1249.2" font-family="Helvetica,sans-Serif" font-weight="bold" font-size="16.00" fill="#707070">Address</text>
<text text-anchor="start" x="107" y="-1224.2" font-family="Helvetica,sans-Serif" font-size="16.00" fill="#383838">ip&#45;webserver&#45;dev</text>
</g>
<!-- Binding::::roles/compute.admin -->
<g id="node5" class="node">
<title>Binding::::roles/compute.admin</title>
<polygon fill="#e5e5e5" stroke="#dddddd" points="256.5,-1193 81.5,-1193 81.5,-1135 256.5,-1135 256.5,-1193"/>
<text text-anchor="start" x="94" y="-1173.2" font-family="Helvetica,sans-Serif" font-weight="bold" font-size="16.00" fill="#707070">Binding</text>
<text text-anchor="start" x="94" y="-1148.2" font-family="Helvetica,sans-Serif" font-size="16.00" fill="#383838">roles/compute.admin</text>
</g>
<!-- Binding::::roles/compute.serviceAgent -->
<g id="node6" class="node">
<title>Binding::::roles/compute.serviceAgent</title>
<polygon fill="#e5e5e5" stroke="#dddddd" points="281.5,-1117 56.5,-1117 56.5,-1059 281.5,-1059 281.5,-1117"/>
<text text-anchor="start" x="69" y="-1097.2" font-family="Helvetica,sans-Serif" font-weight="bold" font-size="16.00" fill="#707070">Binding</text>
<text text-anchor="start" x="69" y="-1072.2" font-family="Helvetica,sans-Serif" font-size="16.00" fill="#383838">roles/compute.serviceAgent</text>
</g>
<!-- Binding::::roles/compute.viewer -->
<g id="node7" class="node">
<title>Binding::::roles/compute.viewer</title>
<polygon fill="#e5e5e5" stroke="#dddddd" points="258,-1041 80,-1041 80,-983 258,-983 258,-1041"/>
<text text-anchor="start" x="92" y="-1021.2" font-family="Helvetica,sans-Serif" font-weight="bold" font-size="16.00" fill="#707070">Binding</text>
<text text-anchor="start" x="92" y="-996.2" font-family="Helvetica,sans-Serif" font-size="16.00" fill="#383838">roles/compute.viewer</text>
</g>
<!-- Binding::::roles/dns.admin -->
<g id="node8" class="node">
<title>Binding::::roles/dns.admin</title>
<polygon fill="#e5e5e5" stroke="#dddddd" points="238.5,-965 99.5,-965 99.5,-907 238.5,-907 238.5,-965"/>
<text text-anchor="start" x="112" y="-945.2" font-family="Helvetica,sans-Serif" font-weight="bold" font-size="16.00" fill="#707070">Binding</text>
<text text-anchor="start" x="112" y="-920.2" font-family="Helvetica,sans-Serif" font-size="16.00" fill="#383838">roles/dns.admin</text>
</g>
<!-- Binding::::roles/firebasenotifications.viewer -->
<g id="node9" class="node">
<title>Binding::::roles/firebasenotifications.viewer</title>
<polygon fill="#e5e5e5" stroke="#dddddd" points="298,-889 40,-889 40,-831 298,-831 298,-889"/>
<text text-anchor="start" x="52" y="-869.2" font-family="Helvetica,sans-Serif" font-weight="bold" font-size="16.00" fill="#707070">Binding</text>
<text text-anchor="start" x="52" y="-844.2" font-family="Helvetica,sans-Serif" font-size="16.00" fill="#383838">roles/firebasenotifications.view...</text>
</g>
<!-- Binding::::roles/iam.serviceAccountAdmin -->
<g id="node10" class="node">
<title>Binding::::roles/iam.serviceAccountAdmin</title>
<polygon fill="#e5e5e5" stroke="#dddddd" points="294.5,-813 43.5,-813 43.5,-755 294.5,-755 294.5,-813"/>
<text text-anchor="start" x="56" y="-793.2" font-family="Helvetica,sans-Serif" font-weight="bold" font-size="16.00" fill="#707070">Binding</text>
<text text-anchor="start" x="56" y="-768.2" font-family="Helvetica,sans-Serif" font-size="16.00" fill="#383838">roles/iam.serviceAccountAdmin</text>
</g>
<!-- Binding::::roles/owner -->
<g id="node11" class="node">
<title>Binding::::roles/owner</title>
<polygon fill="#e5e5e5" stroke="#dddddd" points="223,-737 115,-737 115,-679 223,-679 223,-737"/>
<text text-anchor="start" x="127" y="-717.2" font-family="Helvetica,sans-Serif" font-weight="bold" font-size="16.00" fill="#707070">Binding</text>
<text text-anchor="start" x="127" y="-692.2" font-family="Helvetica,sans-Serif" font-size="16.00" fill="#383838">roles/owner</text>
</g>
<!-- Binding::::roles/resourcemanager.projectIamAdmin -->
<g id="node12" class="node">
<title>Binding::::roles/resourcemanager.projectIamAdmin</title>
<polygon fill="#e5e5e5" stroke="#dddddd" points="311,-661 27,-661 27,-603 311,-603 311,-661"/>
<text text-anchor="start" x="39" y="-641.2" font-family="Helvetica,sans-Serif" font-weight="bold" font-size="16.00" fill="#707070">Binding</text>
<text text-anchor="start" x="39" y="-616.2" font-family="Helvetica,sans-Serif" font-size="16.00" fill="#383838">roles/resourcemanager.projectIam...</text>
</g>
<!-- Binding::::roles/storage.admin -->
<g id="node13" class="node">
<title>Binding::::roles/storage.admin</title>
<polygon fill="#e5e5e5" stroke="#dddddd" points="252.5,-585 85.5,-585 85.5,-527 252.5,-527 252.5,-585"/>
<text text-anchor="start" x="98" y="-565.2" font-family="Helvetica,sans-Serif" font-weight="bold" font-size="16.00" fill="#707070">Binding</text>
<text text-anchor="start" x="98" y="-540.2" font-family="Helvetica,sans-Serif" font-size="16.00" fill="#383838">roles/storage.admin</text>
</g>
<!-- Binding::::roles/storage.objectAdmin -->
<g id="node14" class="node">
<title>Binding::::roles/storage.objectAdmin</title>
<polygon fill="#e5e5e5" stroke="#dddddd" points="275,-509 63,-509 63,-451 275,-451 275,-509"/>
<text text-anchor="start" x="75" y="-489.2" font-family="Helvetica,sans-Serif" font-weight="bold" font-size="16.00" fill="#707070">Binding</text>
<text text-anchor="start" x="75" y="-464.2" font-family="Helvetica,sans-Serif" font-size="16.00" fill="#383838">roles/storage.objectAdmin</text>
</g>
<!-- Firewall::::8380734134138305323 -->
<g id="node15" class="node">
<title>Firewall::::8380734134138305323</title>
<polygon fill="#e5e5e5" stroke="#dddddd" points="506,-301 400,-301 400,-243 506,-243 506,-301"/>
<text text-anchor="start" x="412" y="-281.2" font-family="Helvetica,sans-Serif" font-weight="bold" font-size="16.00" fill="#707070">Firewall</text>
<text text-anchor="start" x="412" y="-256.2" font-family="Helvetica,sans-Serif" font-size="16.00" fill="#383838">firewall&#45;dev</text>
</g>
<!-- Firewall::::8380734134138305323&#45;&gt;Network::::2173775813186288475 -->
<g id="edge1" class="edge">
<title>Firewall::::8380734134138305323&#45;&gt;Network::::2173775813186288475</title>
<path fill="none" stroke="#707070" d="M506.1,-253.8C540.07,-241.93 584.27,-226.48 618.44,-214.54"/>
<polygon fill="#707070" stroke="#707070" points="619.96,-217.72 628.24,-211.12 617.65,-211.11 619.96,-217.72"/>
</g>
<!-- SubNetwork::::8919960075490949930 -->
<g id="node16" class="node">
<title>SubNetwork::::8919960075490949930</title>
<polygon fill="#e5e5e5" stroke="#dddddd" points="522.5,-225 383.5,-225 383.5,-167 522.5,-167 522.5,-225"/>
<text text-anchor="start" x="396" y="-205.2" font-family="Helvetica,sans-Serif" font-weight="bold" font-size="16.00" fill="#707070">SubNetwork</text>
<text text-anchor="start" x="396" y="-180.2" font-family="Helvetica,sans-Serif" font-size="16.00" fill="#383838">subnetwork&#45;dev</text>
</g>
<!-- SubNetwork::::8919960075490949930&#45;&gt;Network::::2173775813186288475 -->
<g id="edge2" class="edge">
<title>SubNetwork::::8919960075490949930&#45;&gt;Network::::2173775813186288475</title>
<path fill="none" stroke="#707070" d="M522.52,-196C553.35,-196 589.2,-196 618.01,-196"/>
<polygon fill="#707070" stroke="#707070" points="618.28,-199.5 628.28,-196 618.28,-192.5 618.28,-199.5"/>
</g>
<!-- ServiceAccount::::112950954233185370823 -->
<g id="node17" class="node">
<title>ServiceAccount::::112950954233185370823</title>
<polygon fill="#e5e5e5" stroke="#dddddd" points="241.5,-433 96.5,-433 96.5,-375 241.5,-375 241.5,-433"/>
<text text-anchor="start" x="109" y="-413.2" font-family="Helvetica,sans-Serif" font-weight="bold" font-size="16.00" fill="#707070">ServiceAccount</text>
<text text-anchor="start" x="109" y="-388.2" font-family="Helvetica,sans-Serif" font-size="16.00" fill="#383838">grucloud</text>
</g>
<!-- ServiceAccount::::116099554802634020507 -->
<g id="node18" class="node">
<title>ServiceAccount::::116099554802634020507</title>
<polygon fill="#e5e5e5" stroke="#dddddd" points="264,-357 74,-357 74,-299 264,-299 264,-357"/>
<text text-anchor="start" x="86" y="-337.2" font-family="Helvetica,sans-Serif" font-weight="bold" font-size="16.00" fill="#707070">ServiceAccount</text>
<text text-anchor="start" x="86" y="-312.2" font-family="Helvetica,sans-Serif" font-size="16.00" fill="#383838">91170824493&#45;compute</text>
</g>
<!-- ServiceAccount::::105908581481869541232 -->
<g id="node19" class="node">
<title>ServiceAccount::::105908581481869541232</title>
<polygon fill="#e5e5e5" stroke="#dddddd" points="241.5,-281 96.5,-281 96.5,-223 241.5,-223 241.5,-281"/>
<text text-anchor="start" x="109" y="-261.2" font-family="Helvetica,sans-Serif" font-weight="bold" font-size="16.00" fill="#707070">ServiceAccount</text>
<text text-anchor="start" x="109" y="-236.2" font-family="Helvetica,sans-Serif" font-size="16.00" fill="#383838">sa&#45;grucloud</text>
</g>
<!-- ServiceAccount::::101587745957025771638 -->
<g id="node20" class="node">
<title>ServiceAccount::::101587745957025771638</title>
<polygon fill="#e5e5e5" stroke="#dddddd" points="241.5,-205 96.5,-205 96.5,-147 241.5,-147 241.5,-205"/>
<text text-anchor="start" x="109" y="-185.2" font-family="Helvetica,sans-Serif" font-weight="bold" font-size="16.00" fill="#707070">ServiceAccount</text>
<text text-anchor="start" x="109" y="-160.2" font-family="Helvetica,sans-Serif" font-size="16.00" fill="#383838">sa&#45;dev</text>
</g>
<!-- VmInstance::::5321387409748654905 -->
<g id="node21" class="node">
<title>VmInstance::::5321387409748654905</title>
<polygon fill="#e5e5e5" stroke="#dddddd" points="226.5,-129 111.5,-129 111.5,-71 226.5,-71 226.5,-129"/>
<text text-anchor="start" x="124" y="-109.2" font-family="Helvetica,sans-Serif" font-weight="bold" font-size="16.00" fill="#707070">VmInstance</text>
<text text-anchor="start" x="124" y="-84.2" font-family="Helvetica,sans-Serif" font-size="16.00" fill="#383838">db&#45;dev</text>
</g>
<!-- VmInstance::::5321387409748654905&#45;&gt;Network::::2173775813186288475 -->
<g id="edge3" class="edge">
<title>VmInstance::::5321387409748654905&#45;&gt;Network::::2173775813186288475</title>
<path fill="none" stroke="#707070" d="M226.53,-82.95C304.08,-62.71 446.3,-36.98 556,-82 593.68,-97.46 625.63,-131.81 646.31,-158.78"/>
<polygon fill="#707070" stroke="#707070" points="643.57,-160.97 652.36,-166.89 649.18,-156.78 643.57,-160.97"/>
</g>
<!-- VmInstance::::5321387409748654905&#45;&gt;Disk::::1740658670968896313 -->
<g id="edge5" class="edge">
<title>VmInstance::::5321387409748654905&#45;&gt;Disk::::1740658670968896313</title>
<path fill="none" stroke="#707070" d="M226.73,-104.02C279.43,-107.76 356.95,-113.26 405.93,-116.73"/>
<polygon fill="#707070" stroke="#707070" points="405.71,-120.23 415.93,-117.44 406.2,-113.24 405.71,-120.23"/>
</g>
<!-- VmInstance::::5321387409748654905&#45;&gt;SubNetwork::::8919960075490949930 -->
<g id="edge4" class="edge">
<title>VmInstance::::5321387409748654905&#45;&gt;SubNetwork::::8919960075490949930</title>
<path fill="none" stroke="#707070" d="M226.78,-111.54C253.72,-117.88 286.06,-126.76 314,-138 330.98,-144.83 333.38,-150.34 350,-158 357.65,-161.52 365.72,-164.97 373.85,-168.27"/>
<polygon fill="#707070" stroke="#707070" points="372.8,-171.62 383.38,-172.06 375.38,-165.11 372.8,-171.62"/>
</g>
<!-- ResourceGroup::::/subscriptions/8e0e234e&#45;8384&#45;438d&#45;a652&#45;105826b63bc9/resourceGroups/NetworkWatcherRG -->
<g id="node22" class="node">
<title>ResourceGroup::::/subscriptions/8e0e234e&#45;8384&#45;438d&#45;a652&#45;105826b63bc9/resourceGroups/NetworkWatcherRG</title>
<polygon fill="#e5e5e5" stroke="#dddddd" points="252,-1634 86,-1634 86,-1576 252,-1576 252,-1634"/>
<text text-anchor="start" x="98" y="-1614.2" font-family="Helvetica,sans-Serif" font-weight="bold" font-size="16.00" fill="#707070">ResourceGroup</text>
<text text-anchor="start" x="98" y="-1589.2" font-family="Helvetica,sans-Serif" font-size="16.00" fill="#383838">NetworkWatcherRG</text>
</g>
<!-- ResourceGroup::::/subscriptions/8e0e234e&#45;8384&#45;438d&#45;a652&#45;105826b63bc9/resourceGroups/resource&#45;group&#45;dev -->
<g id="node23" class="node">
<title>ResourceGroup::::/subscriptions/8e0e234e&#45;8384&#45;438d&#45;a652&#45;105826b63bc9/resourceGroups/resource&#45;group&#45;dev</title>
<polygon fill="#e5e5e5" stroke="#dddddd" points="955,-1530 789,-1530 789,-1472 955,-1472 955,-1530"/>
<text text-anchor="start" x="801" y="-1510.2" font-family="Helvetica,sans-Serif" font-weight="bold" font-size="16.00" fill="#707070">ResourceGroup</text>
<text text-anchor="start" x="801" y="-1485.2" font-family="Helvetica,sans-Serif" font-size="16.00" fill="#383838">resource&#45;group&#45;dev</text>
</g>
<!-- VirtualNetwork::::/subscriptions/8e0e234e&#45;8384&#45;438d&#45;a652&#45;105826b63bc9/resourceGroups/resource&#45;group&#45;dev/providers/Microsoft.Network/virtualNetworks/virtual&#45;network&#45;dev -->
<g id="node24" class="node">
<title>VirtualNetwork::::/subscriptions/8e0e234e&#45;8384&#45;438d&#45;a652&#45;105826b63bc9/resourceGroups/resource&#45;group&#45;dev/providers/Microsoft.Network/virtualNetworks/virtual&#45;network&#45;dev</title>
<polygon fill="#e5e5e5" stroke="#dddddd" points="753,-1530 592,-1530 592,-1472 753,-1472 753,-1530"/>
<text text-anchor="start" x="604.5" y="-1510.2" font-family="Helvetica,sans-Serif" font-weight="bold" font-size="16.00" fill="#707070">VirtualNetwork</text>
<text text-anchor="start" x="604.5" y="-1485.2" font-family="Helvetica,sans-Serif" font-size="16.00" fill="#383838">virtual&#45;network&#45;dev</text>
</g>
<!-- VirtualNetwork::::/subscriptions/8e0e234e&#45;8384&#45;438d&#45;a652&#45;105826b63bc9/resourceGroups/resource&#45;group&#45;dev/providers/Microsoft.Network/virtualNetworks/virtual&#45;network&#45;dev&#45;&gt;ResourceGroup::::/subscriptions/8e0e234e&#45;8384&#45;438d&#45;a652&#45;105826b63bc9/resourceGroups/resource&#45;group&#45;dev -->
<g id="edge6" class="edge">
<title>VirtualNetwork::::/subscriptions/8e0e234e&#45;8384&#45;438d&#45;a652&#45;105826b63bc9/resourceGroups/resource&#45;group&#45;dev/providers/Microsoft.Network/virtualNetworks/virtual&#45;network&#45;dev&#45;&gt;ResourceGroup::::/subscriptions/8e0e234e&#45;8384&#45;438d&#45;a652&#45;105826b63bc9/resourceGroups/resource&#45;group&#45;dev</title>
<path fill="none" stroke="#707070" d="M753.26,-1501C761.56,-1501 770.04,-1501 778.46,-1501"/>
<polygon fill="#707070" stroke="#707070" points="778.69,-1504.5 788.69,-1501 778.69,-1497.5 778.69,-1504.5"/>
</g>
<!-- SecurityGroup::::/subscriptions/8e0e234e&#45;8384&#45;438d&#45;a652&#45;105826b63bc9/resourceGroups/resource&#45;group&#45;dev/providers/Microsoft.Network/networkSecurityGroups/security&#45;group&#45;dev -->
<g id="node25" class="node">
<title>SecurityGroup::::/subscriptions/8e0e234e&#45;8384&#45;438d&#45;a652&#45;105826b63bc9/resourceGroups/resource&#45;group&#45;dev/providers/Microsoft.Network/networkSecurityGroups/security&#45;group&#45;dev</title>
<polygon fill="#e5e5e5" stroke="#dddddd" points="752,-1606 593,-1606 593,-1548 752,-1548 752,-1606"/>
<text text-anchor="start" x="605.5" y="-1586.2" font-family="Helvetica,sans-Serif" font-weight="bold" font-size="16.00" fill="#707070">SecurityGroup</text>
<text text-anchor="start" x="605.5" y="-1561.2" font-family="Helvetica,sans-Serif" font-size="16.00" fill="#383838">security&#45;group&#45;dev</text>
</g>
<!-- SecurityGroup::::/subscriptions/8e0e234e&#45;8384&#45;438d&#45;a652&#45;105826b63bc9/resourceGroups/resource&#45;group&#45;dev/providers/Microsoft.Network/networkSecurityGroups/security&#45;group&#45;dev&#45;&gt;ResourceGroup::::/subscriptions/8e0e234e&#45;8384&#45;438d&#45;a652&#45;105826b63bc9/resourceGroups/resource&#45;group&#45;dev -->
<g id="edge7" class="edge">
<title>SecurityGroup::::/subscriptions/8e0e234e&#45;8384&#45;438d&#45;a652&#45;105826b63bc9/resourceGroups/resource&#45;group&#45;dev/providers/Microsoft.Network/networkSecurityGroups/security&#45;group&#45;dev&#45;&gt;ResourceGroup::::/subscriptions/8e0e234e&#45;8384&#45;438d&#45;a652&#45;105826b63bc9/resourceGroups/resource&#45;group&#45;dev</title>
<path fill="none" stroke="#707070" d="M749.01,-1547.94C761.16,-1543.27 773.81,-1538.4 786.16,-1533.65"/>
<polygon fill="#707070" stroke="#707070" points="787.45,-1536.9 795.53,-1530.04 784.94,-1530.37 787.45,-1536.9"/>
</g>
<!-- PublicIpAddress::::/subscriptions/8e0e234e&#45;8384&#45;438d&#45;a652&#45;105826b63bc9/resourceGroups/resource&#45;group&#45;dev/providers/Microsoft.Network/publicIPAddresses/ip&#45;dev -->
<g id="node26" class="node">
<title>PublicIpAddress::::/subscriptions/8e0e234e&#45;8384&#45;438d&#45;a652&#45;105826b63bc9/resourceGroups/resource&#45;group&#45;dev/providers/Microsoft.Network/publicIPAddresses/ip&#45;dev</title>
<polygon fill="#e5e5e5" stroke="#dddddd" points="748,-1682 597,-1682 597,-1624 748,-1624 748,-1682"/>
<text text-anchor="start" x="609.5" y="-1662.2" font-family="Helvetica,sans-Serif" font-weight="bold" font-size="16.00" fill="#707070">PublicIpAddress</text>
<text text-anchor="start" x="609.5" y="-1637.2" font-family="Helvetica,sans-Serif" font-size="16.00" fill="#383838">ip&#45;dev</text>
</g>
<!-- PublicIpAddress::::/subscriptions/8e0e234e&#45;8384&#45;438d&#45;a652&#45;105826b63bc9/resourceGroups/resource&#45;group&#45;dev/providers/Microsoft.Network/publicIPAddresses/ip&#45;dev&#45;&gt;ResourceGroup::::/subscriptions/8e0e234e&#45;8384&#45;438d&#45;a652&#45;105826b63bc9/resourceGroups/resource&#45;group&#45;dev -->
<g id="edge8" class="edge">
<title>PublicIpAddress::::/subscriptions/8e0e234e&#45;8384&#45;438d&#45;a652&#45;105826b63bc9/resourceGroups/resource&#45;group&#45;dev/providers/Microsoft.Network/publicIPAddresses/ip&#45;dev&#45;&gt;ResourceGroup::::/subscriptions/8e0e234e&#45;8384&#45;438d&#45;a652&#45;105826b63bc9/resourceGroups/resource&#45;group&#45;dev</title>
<path fill="none" stroke="#707070" d="M739.12,-1623.77C743.92,-1620.98 748.6,-1618.05 753,-1615 784.88,-1592.86 816.25,-1561.99 838.62,-1537.96"/>
<polygon fill="#707070" stroke="#707070" points="841.37,-1540.15 845.56,-1530.42 836.22,-1535.41 841.37,-1540.15"/>
</g>
<!-- NetworkInterface::::/subscriptions/8e0e234e&#45;8384&#45;438d&#45;a652&#45;105826b63bc9/resourceGroups/resource&#45;group&#45;dev/providers/Microsoft.Network/networkInterfaces/network&#45;interface&#45;dev -->
<g id="node27" class="node">
<title>NetworkInterface::::/subscriptions/8e0e234e&#45;8384&#45;438d&#45;a652&#45;105826b63bc9/resourceGroups/resource&#45;group&#45;dev/providers/Microsoft.Network/networkInterfaces/network&#45;interface&#45;dev</title>
<polygon fill="#e5e5e5" stroke="#dddddd" points="543,-1530 363,-1530 363,-1472 543,-1472 543,-1530"/>
<text text-anchor="start" x="375" y="-1510.2" font-family="Helvetica,sans-Serif" font-weight="bold" font-size="16.00" fill="#707070">NetworkInterface</text>
<text text-anchor="start" x="375" y="-1485.2" font-family="Helvetica,sans-Serif" font-size="16.00" fill="#383838">network&#45;interface&#45;dev</text>
</g>
<!-- NetworkInterface::::/subscriptions/8e0e234e&#45;8384&#45;438d&#45;a652&#45;105826b63bc9/resourceGroups/resource&#45;group&#45;dev/providers/Microsoft.Network/networkInterfaces/network&#45;interface&#45;dev&#45;&gt;ResourceGroup::::/subscriptions/8e0e234e&#45;8384&#45;438d&#45;a652&#45;105826b63bc9/resourceGroups/resource&#45;group&#45;dev -->
<g id="edge9" class="edge">
<title>NetworkInterface::::/subscriptions/8e0e234e&#45;8384&#45;438d&#45;a652&#45;105826b63bc9/resourceGroups/resource&#45;group&#45;dev/providers/Microsoft.Network/networkInterfaces/network&#45;interface&#45;dev&#45;&gt;ResourceGroup::::/subscriptions/8e0e234e&#45;8384&#45;438d&#45;a652&#45;105826b63bc9/resourceGroups/resource&#45;group&#45;dev</title>
<path fill="none" stroke="#707070" d="M543.1,-1472.72C559.22,-1468.68 575.99,-1465.16 592,-1463 662.91,-1453.42 682.31,-1451.9 753,-1463 762.73,-1464.53 772.75,-1466.72 782.64,-1469.3"/>
<polygon fill="#707070" stroke="#707070" points="781.91,-1472.73 792.48,-1471.99 783.76,-1465.98 781.91,-1472.73"/>
</g>
<!-- NetworkInterface::::/subscriptions/8e0e234e&#45;8384&#45;438d&#45;a652&#45;105826b63bc9/resourceGroups/resource&#45;group&#45;dev/providers/Microsoft.Network/networkInterfaces/network&#45;interface&#45;dev&#45;&gt;VirtualNetwork::::/subscriptions/8e0e234e&#45;8384&#45;438d&#45;a652&#45;105826b63bc9/resourceGroups/resource&#45;group&#45;dev/providers/Microsoft.Network/virtualNetworks/virtual&#45;network&#45;dev -->
<g id="edge10" class="edge">
<title>NetworkInterface::::/subscriptions/8e0e234e&#45;8384&#45;438d&#45;a652&#45;105826b63bc9/resourceGroups/resource&#45;group&#45;dev/providers/Microsoft.Network/networkInterfaces/network&#45;interface&#45;dev&#45;&gt;VirtualNetwork::::/subscriptions/8e0e234e&#45;8384&#45;438d&#45;a652&#45;105826b63bc9/resourceGroups/resource&#45;group&#45;dev/providers/Microsoft.Network/virtualNetworks/virtual&#45;network&#45;dev</title>
<path fill="none" stroke="#707070" d="M543.09,-1501C555.87,-1501 569.02,-1501 581.8,-1501"/>
<polygon fill="#707070" stroke="#707070" points="581.97,-1504.5 591.97,-1501 581.97,-1497.5 581.97,-1504.5"/>
</g>
<!-- NetworkInterface::::/subscriptions/8e0e234e&#45;8384&#45;438d&#45;a652&#45;105826b63bc9/resourceGroups/resource&#45;group&#45;dev/providers/Microsoft.Network/networkInterfaces/network&#45;interface&#45;dev&#45;&gt;SecurityGroup::::/subscriptions/8e0e234e&#45;8384&#45;438d&#45;a652&#45;105826b63bc9/resourceGroups/resource&#45;group&#45;dev/providers/Microsoft.Network/networkSecurityGroups/security&#45;group&#45;dev -->
<g id="edge12" class="edge">
<title>NetworkInterface::::/subscriptions/8e0e234e&#45;8384&#45;438d&#45;a652&#45;105826b63bc9/resourceGroups/resource&#45;group&#45;dev/providers/Microsoft.Network/networkInterfaces/network&#45;interface&#45;dev&#45;&gt;SecurityGroup::::/subscriptions/8e0e234e&#45;8384&#45;438d&#45;a652&#45;105826b63bc9/resourceGroups/resource&#45;group&#45;dev/providers/Microsoft.Network/networkSecurityGroups/security&#45;group&#45;dev</title>
<path fill="none" stroke="#707070" d="M537.16,-1530.06C552.11,-1535.28 567.75,-1540.75 582.85,-1546.02"/>
<polygon fill="#707070" stroke="#707070" points="582.09,-1549.47 592.68,-1549.46 584.4,-1542.86 582.09,-1549.47"/>
</g>
<!-- NetworkInterface::::/subscriptions/8e0e234e&#45;8384&#45;438d&#45;a652&#45;105826b63bc9/resourceGroups/resource&#45;group&#45;dev/providers/Microsoft.Network/networkInterfaces/network&#45;interface&#45;dev&#45;&gt;PublicIpAddress::::/subscriptions/8e0e234e&#45;8384&#45;438d&#45;a652&#45;105826b63bc9/resourceGroups/resource&#45;group&#45;dev/providers/Microsoft.Network/publicIPAddresses/ip&#45;dev -->
<g id="edge11" class="edge">
<title>NetworkInterface::::/subscriptions/8e0e234e&#45;8384&#45;438d&#45;a652&#45;105826b63bc9/resourceGroups/resource&#45;group&#45;dev/providers/Microsoft.Network/networkInterfaces/network&#45;interface&#45;dev&#45;&gt;PublicIpAddress::::/subscriptions/8e0e234e&#45;8384&#45;438d&#45;a652&#45;105826b63bc9/resourceGroups/resource&#45;group&#45;dev/providers/Microsoft.Network/publicIPAddresses/ip&#45;dev</title>
<path fill="none" stroke="#707070" d="M484.64,-1530.06C511.54,-1554.63 552.45,-1589.75 592,-1615 593.94,-1616.24 595.92,-1617.46 597.94,-1618.67"/>
<polygon fill="#707070" stroke="#707070" points="596.56,-1621.91 606.98,-1623.84 600.04,-1615.83 596.56,-1621.91"/>
</g>
<!-- VirtualMachine::::/subscriptions/8e0e234e&#45;8384&#45;438d&#45;a652&#45;105826b63bc9/resourceGroups/RESOURCE&#45;GROUP&#45;DEV/providers/Microsoft.Compute/virtualMachines/vm&#45;dev -->
<g id="node28" class="node">
<title>VirtualMachine::::/subscriptions/8e0e234e&#45;8384&#45;438d&#45;a652&#45;105826b63bc9/resourceGroups/RESOURCE&#45;GROUP&#45;DEV/providers/Microsoft.Compute/virtualMachines/vm&#45;dev</title>
<polygon fill="#e5e5e5" stroke="#dddddd" points="238.5,-1510 99.5,-1510 99.5,-1452 238.5,-1452 238.5,-1510"/>
<text text-anchor="start" x="112" y="-1490.2" font-family="Helvetica,sans-Serif" font-weight="bold" font-size="16.00" fill="#707070">VirtualMachine</text>
<text text-anchor="start" x="112" y="-1465.2" font-family="Helvetica,sans-Serif" font-size="16.00" fill="#383838">vm&#45;dev</text>
</g>
<!-- VirtualMachine::::/subscriptions/8e0e234e&#45;8384&#45;438d&#45;a652&#45;105826b63bc9/resourceGroups/RESOURCE&#45;GROUP&#45;DEV/providers/Microsoft.Compute/virtualMachines/vm&#45;dev&#45;&gt;ResourceGroup::::/subscriptions/8e0e234e&#45;8384&#45;438d&#45;a652&#45;105826b63bc9/resourceGroups/resource&#45;group&#45;dev -->
<g id="edge13" class="edge">
<title>VirtualMachine::::/subscriptions/8e0e234e&#45;8384&#45;438d&#45;a652&#45;105826b63bc9/resourceGroups/RESOURCE&#45;GROUP&#45;DEV/providers/Microsoft.Compute/virtualMachines/vm&#45;dev&#45;&gt;ResourceGroup::::/subscriptions/8e0e234e&#45;8384&#45;438d&#45;a652&#45;105826b63bc9/resourceGroups/resource&#45;group&#45;dev</title>
<path fill="none" stroke="#707070" d="M238.59,-1466.49C348.42,-1445.7 570,-1413.83 753,-1451 770.59,-1454.57 788.81,-1460.86 805.52,-1467.79"/>
<polygon fill="#707070" stroke="#707070" points="804.59,-1471.21 815.16,-1471.94 807.36,-1464.77 804.59,-1471.21"/>
</g>
<!-- VirtualMachine::::/subscriptions/8e0e234e&#45;8384&#45;438d&#45;a652&#45;105826b63bc9/resourceGroups/RESOURCE&#45;GROUP&#45;DEV/providers/Microsoft.Compute/virtualMachines/vm&#45;dev&#45;&gt;NetworkInterface::::/subscriptions/8e0e234e&#45;8384&#45;438d&#45;a652&#45;105826b63bc9/resourceGroups/resource&#45;group&#45;dev/providers/Microsoft.Network/networkInterfaces/network&#45;interface&#45;dev -->
<g id="edge14" class="edge">
<title>VirtualMachine::::/subscriptions/8e0e234e&#45;8384&#45;438d&#45;a652&#45;105826b63bc9/resourceGroups/RESOURCE&#45;GROUP&#45;DEV/providers/Microsoft.Compute/virtualMachines/vm&#45;dev&#45;&gt;NetworkInterface::::/subscriptions/8e0e234e&#45;8384&#45;438d&#45;a652&#45;105826b63bc9/resourceGroups/resource&#45;group&#45;dev/providers/Microsoft.Network/networkInterfaces/network&#45;interface&#45;dev</title>
<path fill="none" stroke="#707070" d="M238.62,-1485.87C272.97,-1488.3 315.18,-1491.3 352.96,-1493.98"/>
<polygon fill="#707070" stroke="#707070" points="352.76,-1497.47 362.98,-1494.69 353.25,-1490.49 352.76,-1497.47"/>
</g>
<!-- KeyPair::::kp -->
<g id="node29" class="node">
<title>KeyPair::::kp</title>
<polygon fill="#e5e5e5" stroke="#dddddd" points="211,-2207 127,-2207 127,-2149 211,-2149 211,-2207"/>
<text text-anchor="start" x="139" y="-2187.2" font-family="Helvetica,sans-Serif" font-weight="bold" font-size="16.00" fill="#707070">KeyPair</text>
<text text-anchor="start" x="139" y="-2162.2" font-family="Helvetica,sans-Serif" font-size="16.00" fill="#383838">kp</text>
</g>
<!-- KeyPair::::kubernetes.kops.example.grucloud.org&#45;0e:29:14:fb:1b:d2:de:6c:a7:c8:a0:cb:1c:41:2a:6c -->
<g id="node30" class="node">
<title>KeyPair::::kubernetes.kops.example.grucloud.org&#45;0e:29:14:fb:1b:d2:de:6c:a7:c8:a0:cb:1c:41:2a:6c</title>
<polygon fill="#e5e5e5" stroke="#dddddd" points="314,-2131 24,-2131 24,-2073 314,-2073 314,-2131"/>
<text text-anchor="start" x="36" y="-2111.2" font-family="Helvetica,sans-Serif" font-weight="bold" font-size="16.00" fill="#707070">KeyPair</text>
<text text-anchor="start" x="36" y="-2086.2" font-family="Helvetica,sans-Serif" font-size="16.00" fill="#383838">kubernetes.kops.example.grucloud...</text>
</g>
<!-- Policy::::arn:aws:iam::aws:policy/AmazonEKSWorkerNodePolicy -->
<g id="node31" class="node">
<title>Policy::::arn:aws:iam::aws:policy/AmazonEKSWorkerNodePolicy</title>
<polygon fill="#e5e5e5" stroke="#dddddd" points="293.5,-2055 44.5,-2055 44.5,-1997 293.5,-1997 293.5,-2055"/>
<text text-anchor="start" x="57" y="-2035.2" font-family="Helvetica,sans-Serif" font-weight="bold" font-size="16.00" fill="#707070">Policy</text>
<text text-anchor="start" x="57" y="-2010.2" font-family="Helvetica,sans-Serif" font-size="16.00" fill="#383838">AmazonEKSWorkerNodePolicy</text>
</g>
<!-- Vpc::::vpc&#45;bbbafcd3 -->
<g id="node32" class="node">
<title>Vpc::::vpc&#45;bbbafcd3</title>
<polygon fill="#e5e5e5" stroke="#dddddd" points="709,-1899 636,-1899 636,-1841 709,-1841 709,-1899"/>
<text text-anchor="start" x="648.5" y="-1879.2" font-family="Helvetica,sans-Serif" font-weight="bold" font-size="16.00" fill="#707070">Vpc</text>
<text text-anchor="start" x="648.5" y="-1854.2" font-family="Helvetica,sans-Serif" font-size="16.00" fill="#383838">default</text>
</g>
<!-- Route53Domain::::grucloud.org -->
<g id="node33" class="node">
<title>Route53Domain::::grucloud.org</title>
<polygon fill="#e5e5e5" stroke="#dddddd" points="242,-1979 96,-1979 96,-1921 242,-1921 242,-1979"/>
<text text-anchor="start" x="108" y="-1959.2" font-family="Helvetica,sans-Serif" font-weight="bold" font-size="16.00" fill="#707070">Route53Domain</text>
<text text-anchor="start" x="108" y="-1934.2" font-family="Helvetica,sans-Serif" font-size="16.00" fill="#383838">grucloud.org</text>
</g>
<!-- InternetGateway::::igw&#45;041e0d42bb3b4149c -->
<g id="node34" class="node">
<title>InternetGateway::::igw&#45;041e0d42bb3b4149c</title>
<polygon fill="#e5e5e5" stroke="#dddddd" points="556,-1923 350,-1923 350,-1865 556,-1865 556,-1923"/>
<text text-anchor="start" x="362" y="-1903.2" font-family="Helvetica,sans-Serif" font-weight="bold" font-size="16.00" fill="#707070">InternetGateway</text>
<text text-anchor="start" x="362" y="-1878.2" font-family="Helvetica,sans-Serif" font-size="16.00" fill="#383838">igw&#45;041e0d42bb3b4149c</text>
</g>
<!-- InternetGateway::::igw&#45;041e0d42bb3b4149c&#45;&gt;Vpc::::vpc&#45;bbbafcd3 -->
<g id="edge15" class="edge">
<title>InternetGateway::::igw&#45;041e0d42bb3b4149c&#45;&gt;Vpc::::vpc&#45;bbbafcd3</title>
<path fill="none" stroke="#707070" d="M556.06,-1882.74C580.61,-1880.03 605.62,-1877.27 626.05,-1875.02"/>
<polygon fill="#707070" stroke="#707070" points="626.43,-1878.49 635.99,-1873.92 625.67,-1871.54 626.43,-1878.49"/>
</g>
<!-- Image::::ami&#45;00f61f0016c09a299 -->
<g id="node35" class="node">
<title>Image::::ami&#45;00f61f0016c09a299</title>
<polygon fill="#e5e5e5" stroke="#dddddd" points="239.5,-1903 98.5,-1903 98.5,-1845 239.5,-1845 239.5,-1903"/>
<text text-anchor="start" x="111" y="-1883.2" font-family="Helvetica,sans-Serif" font-weight="bold" font-size="16.00" fill="#707070">Image</text>
<text text-anchor="start" x="111" y="-1858.2" font-family="Helvetica,sans-Serif" font-size="16.00" fill="#383838">Amazon Linux 2</text>
</g>
<!-- Subnet::::subnet&#45;0f6f085fc384bf8ce -->
<g id="node36" class="node">
<title>Subnet::::subnet&#45;0f6f085fc384bf8ce</title>
<polygon fill="#e5e5e5" stroke="#dddddd" points="492.5,-1999 413.5,-1999 413.5,-1941 492.5,-1941 492.5,-1999"/>
<text text-anchor="start" x="426" y="-1979.2" font-family="Helvetica,sans-Serif" font-weight="bold" font-size="16.00" fill="#707070">Subnet</text>
<text text-anchor="start" x="426" y="-1954.2" font-family="Helvetica,sans-Serif" font-size="16.00" fill="#383838">default</text>
</g>
<!-- Subnet::::subnet&#45;0f6f085fc384bf8ce&#45;&gt;Vpc::::vpc&#45;bbbafcd3 -->
<g id="edge16" class="edge">
<title>Subnet::::subnet&#45;0f6f085fc384bf8ce&#45;&gt;Vpc::::vpc&#45;bbbafcd3</title>
<path fill="none" stroke="#707070" d="M492.76,-1956.96C512.03,-1950.13 535.51,-1941.26 556,-1932 580.04,-1921.13 606,-1907.39 627.2,-1895.61"/>
<polygon fill="#707070" stroke="#707070" points="628.96,-1898.63 635.98,-1890.69 625.54,-1892.52 628.96,-1898.63"/>
</g>
<!-- RouteTable::::rtb&#45;668fbc0e -->
<g id="node37" class="node">
<title>RouteTable::::rtb&#45;668fbc0e</title>
<polygon fill="#e5e5e5" stroke="#dddddd" points="226.5,-1827 111.5,-1827 111.5,-1769 226.5,-1769 226.5,-1827"/>
<text text-anchor="start" x="124" y="-1807.2" font-family="Helvetica,sans-Serif" font-weight="bold" font-size="16.00" fill="#707070">RouteTable</text>
<text text-anchor="start" x="124" y="-1782.2" font-family="Helvetica,sans-Serif" font-size="16.00" fill="#383838">rtb&#45;668fbc0e</text>
</g>
<!-- RouteTable::::rtb&#45;668fbc0e&#45;&gt;Vpc::::vpc&#45;bbbafcd3 -->
<g id="edge17" class="edge">
<title>RouteTable::::rtb&#45;668fbc0e&#45;&gt;Vpc::::vpc&#45;bbbafcd3</title>
<path fill="none" stroke="#707070" d="M226.85,-1811.7C262.13,-1819.77 308.49,-1829.62 350,-1836 440.92,-1849.97 464.56,-1846.02 556,-1856 579.04,-1858.51 604.62,-1861.59 625.85,-1864.21"/>
<polygon fill="#707070" stroke="#707070" points="625.53,-1867.7 635.88,-1865.46 626.39,-1860.75 625.53,-1867.7"/>
</g>
<!-- RouteTable::::rtb&#45;668fbc0e&#45;&gt;InternetGateway::::igw&#45;041e0d42bb3b4149c -->
<g id="edge18" class="edge">
<title>RouteTable::::rtb&#45;668fbc0e&#45;&gt;InternetGateway::::igw&#45;041e0d42bb3b4149c</title>
<path fill="none" stroke="#707070" d="M226.62,-1811C253.38,-1817.63 285.61,-1826.34 314,-1836 315.76,-1836.6 343.62,-1848.29 373.85,-1861.03"/>
<polygon fill="#707070" stroke="#707070" points="372.71,-1864.34 383.28,-1865 375.42,-1857.89 372.71,-1864.34"/>
</g>
<!-- SecurityGroup::::sg&#45;f4139a96 -->
<g id="node38" class="node">
<title>SecurityGroup::::sg&#45;f4139a96</title>
<polygon fill="#e5e5e5" stroke="#dddddd" points="521,-1827 385,-1827 385,-1769 521,-1769 521,-1827"/>
<text text-anchor="start" x="397" y="-1807.2" font-family="Helvetica,sans-Serif" font-weight="bold" font-size="16.00" fill="#707070">SecurityGroup</text>
<text text-anchor="start" x="397" y="-1782.2" font-family="Helvetica,sans-Serif" font-size="16.00" fill="#383838">default</text>
</g>
<!-- SecurityGroup::::sg&#45;f4139a96&#45;&gt;Vpc::::vpc&#45;bbbafcd3 -->
<g id="edge19" class="edge">
<title>SecurityGroup::::sg&#45;f4139a96&#45;&gt;Vpc::::vpc&#45;bbbafcd3</title>
<path fill="none" stroke="#707070" d="M521.03,-1820.19C555.27,-1831.52 596.01,-1845.01 626.46,-1855.09"/>
<polygon fill="#707070" stroke="#707070" points="625.37,-1858.42 635.96,-1858.24 627.57,-1851.77 625.37,-1858.42"/>
</g>
</g>
</svg>
