<?xml version="1.0" encoding="UTF-8" standalone="no"?>
<!DOCTYPE svg PUBLIC "-//W3C//DTD SVG 1.1//EN"
 "http://www.w3.org/Graphics/SVG/1.1/DTD/svg11.dtd">
<!-- Generated by graphviz version 2.44.1 (20200629.0846)
 -->
<!-- Title: graphname Pages: 1 -->
<svg width="1275pt" height="1626pt"
 viewBox="0.00 0.00 1275.00 1626.00" xmlns="http://www.w3.org/2000/svg" xmlns:xlink="http://www.w3.org/1999/xlink">
<g id="graph0" class="graph" transform="scale(1 1) rotate(0) translate(4 1622)">
<title>graphname</title>
<polygon fill="#fafafa" stroke="transparent" points="-4,4 -4,-1622 1271,-1622 1271,4 -4,4"/>
<text text-anchor="start" x="567.5" y="-1593.4" font-family="Helvetica,sans-Serif" font-weight="bold" font-size="22.00" fill="#383838">Project multi</text>
<text text-anchor="start" x="567.5" y="-1568.2" font-family="Helvetica,sans-Serif" font-weight="bold" font-size="16.00" fill="#707070">Target Diagram</text>
<g id="clust1" class="cluster">
<title>cluster_aws</title>
<polygon fill="#f5f5f5" stroke="#f5f5f5" points="8,-8 8,-1209 1259,-1209 1259,-8 8,-8"/>
<text text-anchor="start" x="571.5" y="-23" font-family="Helvetica,sans-Serif" font-weight="bold" font-size="20.00" fill="#707070">Provider aws</text>
</g>
<g id="clust2" class="cluster">
<title>cluster_aws_</title>
<polygon fill="#eeeeee" stroke="#eeeeee" points="16,-54 16,-1201 1251,-1201 1251,-54 16,-54"/>
<text text-anchor="start" x="633.36" y="-58.3" font-family="Helvetica,sans-Serif" font-size="1.00" fill="#383838"> </text>
</g>
<g id="clust3" class="cluster">
<title>cluster_azure</title>
<polygon fill="#f5f5f5" stroke="#f5f5f5" points="60.5,-1217 60.5,-1546 963,-1546 963,-1217 60.5,-1217"/>
<text text-anchor="start" x="442.75" y="-1232" font-family="Helvetica,sans-Serif" font-weight="bold" font-size="20.00" fill="#707070">Provider azure</text>
</g>
<g id="clust4" class="cluster">
<title>cluster_azure_</title>
<polygon fill="#eeeeee" stroke="#eeeeee" points="68.5,-1263 68.5,-1538 955,-1538 955,-1263 68.5,-1263"/>
<text text-anchor="start" x="511.61" y="-1267.3" font-family="Helvetica,sans-Serif" font-size="1.00" fill="#383838"> </text>
</g>
<!-- KeyPair::kp -->
<g id="node1" class="node">
<title>KeyPair::kp</title>
<polygon fill="#e5e5e5" stroke="#dddddd" points="692.5,-661 608.5,-661 608.5,-603 692.5,-603 692.5,-661"/>
<text text-anchor="start" x="620.5" y="-641.2" font-family="Helvetica,sans-Serif" font-weight="bold" font-size="16.00" fill="#707070">KeyPair</text>
<text text-anchor="start" x="620.5" y="-616.2" font-family="Helvetica,sans-Serif" font-size="16.00" fill="#383838">kp</text>
</g>
<!-- ElasticIpAddress::eip -->
<g id="node2" class="node">
<title>ElasticIpAddress::eip</title>
<polygon fill="#e5e5e5" stroke="#dddddd" points="727.5,-737 573.5,-737 573.5,-679 727.5,-679 727.5,-737"/>
<text text-anchor="start" x="585.5" y="-717.2" font-family="Helvetica,sans-Serif" font-weight="bold" font-size="16.00" fill="#707070">ElasticIpAddress</text>
<text text-anchor="start" x="585.5" y="-692.2" font-family="Helvetica,sans-Serif" font-size="16.00" fill="#383838">eip</text>
</g>
<!-- Image::Amazon Linux 2 -->
<g id="node3" class="node">
<title>Image::Amazon Linux 2</title>
<polygon fill="#e5e5e5" stroke="#dddddd" points="721,-813 580,-813 580,-755 721,-755 721,-813"/>
<text text-anchor="start" x="592.5" y="-793.2" font-family="Helvetica,sans-Serif" font-weight="bold" font-size="16.00" fill="#707070">Image</text>
<text text-anchor="start" x="592.5" y="-768.2" font-family="Helvetica,sans-Serif" font-size="16.00" fill="#383838">Amazon Linux 2</text>
</g>
<!-- EC2::web&#45;server&#45;ec2&#45;example -->
<g id="node4" class="node">
<title>EC2::web&#45;server&#45;ec2&#45;example</title>
<polygon fill="#e5e5e5" stroke="#dddddd" points="518.5,-813 316.5,-813 316.5,-755 518.5,-755 518.5,-813"/>
<text text-anchor="start" x="328.5" y="-793.2" font-family="Helvetica,sans-Serif" font-weight="bold" font-size="16.00" fill="#707070">EC2</text>
<text text-anchor="start" x="328.5" y="-768.2" font-family="Helvetica,sans-Serif" font-size="16.00" fill="#383838">web&#45;server&#45;ec2&#45;example</text>
</g>
<!-- EC2::web&#45;server&#45;ec2&#45;example&#45;&gt;KeyPair::kp -->
<g id="edge1" class="edge">
<title>EC2::web&#45;server&#45;ec2&#45;example&#45;&gt;KeyPair::kp</title>
<path fill="none" stroke="#707070" d="M518.59,-755.38C522.98,-752.54 527.15,-749.43 531,-746 558.92,-721.16 540.43,-696.29 567,-670 576.02,-661.07 587.53,-654 599.06,-648.51"/>
<polygon fill="#707070" stroke="#707070" points="600.54,-651.68 608.27,-644.43 597.71,-645.28 600.54,-651.68"/>
</g>
<!-- EC2::web&#45;server&#45;ec2&#45;example&#45;&gt;ElasticIpAddress::eip -->
<g id="edge2" class="edge">
<title>EC2::web&#45;server&#45;ec2&#45;example&#45;&gt;ElasticIpAddress::eip</title>
<path fill="none" stroke="#707070" d="M506.82,-754.94C525.48,-748.8 545.13,-742.34 563.69,-736.23"/>
<polygon fill="#707070" stroke="#707070" points="564.88,-739.52 573.29,-733.07 562.7,-732.87 564.88,-739.52"/>
</g>
<!-- EC2::web&#45;server&#45;ec2&#45;example&#45;&gt;Image::Amazon Linux 2 -->
<g id="edge3" class="edge">
<title>EC2::web&#45;server&#45;ec2&#45;example&#45;&gt;Image::Amazon Linux 2</title>
<path fill="none" stroke="#707070" d="M518.81,-784C535.85,-784 553.34,-784 569.76,-784"/>
<polygon fill="#707070" stroke="#707070" points="569.83,-787.5 579.83,-784 569.83,-780.5 569.83,-787.5"/>
</g>
<!-- Vpc::vpc -->
<g id="node5" class="node">
<title>Vpc::vpc</title>
<polygon fill="#e5e5e5" stroke="#dddddd" points="891,-1141 837,-1141 837,-1083 891,-1083 891,-1141"/>
<text text-anchor="start" x="849" y="-1121.2" font-family="Helvetica,sans-Serif" font-weight="bold" font-size="16.00" fill="#707070">Vpc</text>
<text text-anchor="start" x="849" y="-1096.2" font-family="Helvetica,sans-Serif" font-size="16.00" fill="#383838">vpc</text>
</g>
<!-- InternetGateway::ig -->
<g id="node6" class="node">
<title>InternetGateway::ig</title>
<polygon fill="#e5e5e5" stroke="#dddddd" points="492.5,-1193 342.5,-1193 342.5,-1135 492.5,-1135 492.5,-1193"/>
<text text-anchor="start" x="354.5" y="-1173.2" font-family="Helvetica,sans-Serif" font-weight="bold" font-size="16.00" fill="#707070">InternetGateway</text>
<text text-anchor="start" x="354.5" y="-1148.2" font-family="Helvetica,sans-Serif" font-size="16.00" fill="#383838">ig</text>
</g>
<!-- InternetGateway::ig&#45;&gt;Vpc::vpc -->
<g id="edge4" class="edge">
<title>InternetGateway::ig&#45;&gt;Vpc::vpc</title>
<path fill="none" stroke="#707070" d="M492.6,-1158.06C556.63,-1152.6 651.59,-1143.75 734,-1133 765.44,-1128.9 801,-1123.02 826.81,-1118.52"/>
<polygon fill="#707070" stroke="#707070" points="827.64,-1121.93 836.88,-1116.75 826.43,-1115.04 827.64,-1121.93"/>
</g>
<!-- Subnet::subnet -->
<g id="node7" class="node">
<title>Subnet::subnet</title>
<polygon fill="#e5e5e5" stroke="#dddddd" points="690,-1117 611,-1117 611,-1059 690,-1059 690,-1117"/>
<text text-anchor="start" x="623.5" y="-1097.2" font-family="Helvetica,sans-Serif" font-weight="bold" font-size="16.00" fill="#707070">Subnet</text>
<text text-anchor="start" x="623.5" y="-1072.2" font-family="Helvetica,sans-Serif" font-size="16.00" fill="#383838">subnet</text>
</g>
<!-- Subnet::subnet&#45;&gt;Vpc::vpc -->
<g id="edge5" class="edge">
<title>Subnet::subnet&#45;&gt;Vpc::vpc</title>
<path fill="none" stroke="#707070" d="M690.29,-1092.4C729.21,-1096.82 788.67,-1103.57 826.69,-1107.88"/>
<polygon fill="#707070" stroke="#707070" points="826.47,-1111.38 836.8,-1109.03 827.26,-1104.42 826.47,-1111.38"/>
</g>
<!-- RouteTable::route&#45;table -->
<g id="node8" class="node">
<title>RouteTable::route&#45;table</title>
<polygon fill="#e5e5e5" stroke="#dddddd" points="472.5,-1117 362.5,-1117 362.5,-1059 472.5,-1059 472.5,-1117"/>
<text text-anchor="start" x="374.5" y="-1097.2" font-family="Helvetica,sans-Serif" font-weight="bold" font-size="16.00" fill="#707070">RouteTable</text>
<text text-anchor="start" x="374.5" y="-1072.2" font-family="Helvetica,sans-Serif" font-size="16.00" fill="#383838">route&#45;table</text>
</g>
<!-- RouteTable::route&#45;table&#45;&gt;Vpc::vpc -->
<g id="edge6" class="edge">
<title>RouteTable::route&#45;table&#45;&gt;Vpc::vpc</title>
<path fill="none" stroke="#707070" d="M472.53,-1105.3C500.42,-1113.34 535.18,-1121.99 567,-1126 640.64,-1135.27 659.89,-1130.01 734,-1126 765.44,-1124.3 800.99,-1120.28 826.8,-1116.99"/>
<polygon fill="#707070" stroke="#707070" points="827.41,-1120.44 836.88,-1115.67 826.51,-1113.5 827.41,-1120.44"/>
</g>
<!-- RouteTable::route&#45;table&#45;&gt;Subnet::subnet -->
<g id="edge7" class="edge">
<title>RouteTable::route&#45;table&#45;&gt;Subnet::subnet</title>
<path fill="none" stroke="#707070" d="M472.66,-1088C511.42,-1088 563.17,-1088 600.66,-1088"/>
<polygon fill="#707070" stroke="#707070" points="600.84,-1091.5 610.84,-1088 600.84,-1084.5 600.84,-1091.5"/>
</g>
<!-- Route::route&#45;ig -->
<g id="node9" class="node">
<title>Route::route&#45;ig</title>
<polygon fill="#e5e5e5" stroke="#dddddd" points="185.5,-1193 106.5,-1193 106.5,-1135 185.5,-1135 185.5,-1193"/>
<text text-anchor="start" x="119" y="-1173.2" font-family="Helvetica,sans-Serif" font-weight="bold" font-size="16.00" fill="#707070">Route</text>
<text text-anchor="start" x="119" y="-1148.2" font-family="Helvetica,sans-Serif" font-size="16.00" fill="#383838">route&#45;ig</text>
</g>
<!-- Route::route&#45;ig&#45;&gt;InternetGateway::ig -->
<g id="edge9" class="edge">
<title>Route::route&#45;ig&#45;&gt;InternetGateway::ig</title>
<path fill="none" stroke="#707070" d="M185.61,-1164C223.66,-1164 283.04,-1164 332.06,-1164"/>
<polygon fill="#707070" stroke="#707070" points="332.35,-1167.5 342.35,-1164 332.35,-1160.5 332.35,-1167.5"/>
</g>
<!-- Route::route&#45;ig&#45;&gt;RouteTable::route&#45;table -->
<g id="edge8" class="edge">
<title>Route::route&#45;ig&#45;&gt;RouteTable::route&#45;table</title>
<path fill="none" stroke="#707070" d="M185.61,-1153.11C229.09,-1140.85 300.44,-1120.73 352.33,-1106.1"/>
<polygon fill="#707070" stroke="#707070" points="353.43,-1109.42 362.11,-1103.34 351.54,-1102.68 353.43,-1109.42"/>
</g>
<!-- SecurityGroup::security&#45;group -->
<g id="node10" class="node">
<title>SecurityGroup::security&#45;group</title>
<polygon fill="#e5e5e5" stroke="#dddddd" points="718.5,-1041 582.5,-1041 582.5,-983 718.5,-983 718.5,-1041"/>
<text text-anchor="start" x="594.5" y="-1021.2" font-family="Helvetica,sans-Serif" font-weight="bold" font-size="16.00" fill="#707070">SecurityGroup</text>
<text text-anchor="start" x="594.5" y="-996.2" font-family="Helvetica,sans-Serif" font-size="16.00" fill="#383838">security&#45;group</text>
</g>
<!-- SecurityGroup::security&#45;group&#45;&gt;Vpc::vpc -->
<g id="edge10" class="edge">
<title>SecurityGroup::security&#45;group&#45;&gt;Vpc::vpc</title>
<path fill="none" stroke="#707070" d="M715.06,-1041.15C721.46,-1044.12 727.86,-1047.11 734,-1050 765.84,-1064.98 801.93,-1082.36 827.82,-1094.9"/>
<polygon fill="#707070" stroke="#707070" points="826.35,-1098.07 836.87,-1099.29 829.4,-1091.78 826.35,-1098.07"/>
</g>
<!-- SecurityGroupRuleIngress::sg&#45;rule&#45;ingress&#45;ssh -->
<g id="node11" class="node">
<title>SecurityGroupRuleIngress::sg&#45;rule&#45;ingress&#45;ssh</title>
<polygon fill="#e5e5e5" stroke="#dddddd" points="531,-1041 304,-1041 304,-983 531,-983 531,-1041"/>
<text text-anchor="start" x="316.5" y="-1021.2" font-family="Helvetica,sans-Serif" font-weight="bold" font-size="16.00" fill="#707070">SecurityGroupRuleIngress</text>
<text text-anchor="start" x="316.5" y="-996.2" font-family="Helvetica,sans-Serif" font-size="16.00" fill="#383838">sg&#45;rule&#45;ingress&#45;ssh</text>
</g>
<!-- SecurityGroupRuleIngress::sg&#45;rule&#45;ingress&#45;ssh&#45;&gt;SecurityGroup::security&#45;group -->
<g id="edge11" class="edge">
<title>SecurityGroupRuleIngress::sg&#45;rule&#45;ingress&#45;ssh&#45;&gt;SecurityGroup::security&#45;group</title>
<path fill="none" stroke="#707070" d="M531.29,-1012C545.12,-1012 559,-1012 572.13,-1012"/>
<polygon fill="#707070" stroke="#707070" points="572.5,-1015.5 582.5,-1012 572.5,-1008.5 572.5,-1015.5"/>
</g>
<!-- SecurityGroupRuleIngress::sg&#45;rule&#45;ingress&#45;icmp -->
<g id="node12" class="node">
<title>SecurityGroupRuleIngress::sg&#45;rule&#45;ingress&#45;icmp</title>
<polygon fill="#e5e5e5" stroke="#dddddd" points="531,-965 304,-965 304,-907 531,-907 531,-965"/>
<text text-anchor="start" x="316.5" y="-945.2" font-family="Helvetica,sans-Serif" font-weight="bold" font-size="16.00" fill="#707070">SecurityGroupRuleIngress</text>
<text text-anchor="start" x="316.5" y="-920.2" font-family="Helvetica,sans-Serif" font-size="16.00" fill="#383838">sg&#45;rule&#45;ingress&#45;icmp</text>
</g>
<!-- SecurityGroupRuleIngress::sg&#45;rule&#45;ingress&#45;icmp&#45;&gt;SecurityGroup::security&#45;group -->
<g id="edge12" class="edge">
<title>SecurityGroupRuleIngress::sg&#45;rule&#45;ingress&#45;icmp&#45;&gt;SecurityGroup::security&#45;group</title>
<path fill="none" stroke="#707070" d="M506.82,-965.06C528.58,-972.22 551.7,-979.82 572.86,-986.78"/>
<polygon fill="#707070" stroke="#707070" points="571.83,-990.13 582.43,-989.93 574.02,-983.48 571.83,-990.13"/>
</g>
<!-- ElasticIpAddress::myip -->
<g id="node13" class="node">
<title>ElasticIpAddress::myip</title>
<polygon fill="#e5e5e5" stroke="#dddddd" points="727.5,-965 573.5,-965 573.5,-907 727.5,-907 727.5,-965"/>
<text text-anchor="start" x="585.5" y="-945.2" font-family="Helvetica,sans-Serif" font-weight="bold" font-size="16.00" fill="#707070">ElasticIpAddress</text>
<text text-anchor="start" x="585.5" y="-920.2" font-family="Helvetica,sans-Serif" font-size="16.00" fill="#383838">myip</text>
</g>
<!-- Volume::volume -->
<g id="node14" class="node">
<title>Volume::volume</title>
<polygon fill="#e5e5e5" stroke="#dddddd" points="691,-889 610,-889 610,-831 691,-831 691,-889"/>
<text text-anchor="start" x="622.5" y="-869.2" font-family="Helvetica,sans-Serif" font-weight="bold" font-size="16.00" fill="#707070">Volume</text>
<text text-anchor="start" x="622.5" y="-844.2" font-family="Helvetica,sans-Serif" font-size="16.00" fill="#383838">volume</text>
</g>
<!-- EC2::web&#45;server -->
<g id="node15" class="node">
<title>EC2::web&#45;server</title>
<polygon fill="#e5e5e5" stroke="#dddddd" points="469.5,-889 365.5,-889 365.5,-831 469.5,-831 469.5,-889"/>
<text text-anchor="start" x="377.5" y="-869.2" font-family="Helvetica,sans-Serif" font-weight="bold" font-size="16.00" fill="#707070">EC2</text>
<text text-anchor="start" x="377.5" y="-844.2" font-family="Helvetica,sans-Serif" font-size="16.00" fill="#383838">web&#45;server</text>
</g>
<!-- EC2::web&#45;server&#45;&gt;KeyPair::kp -->
<g id="edge13" class="edge">
<title>EC2::web&#45;server&#45;&gt;KeyPair::kp</title>
<path fill="none" stroke="#707070" d="M469.62,-853.86C491.34,-848.73 515.24,-839.3 531,-822 577.75,-770.68 523.03,-723.73 567,-670 575.27,-659.89 586.83,-652.34 598.69,-646.76"/>
<polygon fill="#707070" stroke="#707070" points="600.38,-649.84 608.2,-642.69 597.63,-643.41 600.38,-649.84"/>
</g>
<!-- EC2::web&#45;server&#45;&gt;Image::Amazon Linux 2 -->
<g id="edge18" class="edge">
<title>EC2::web&#45;server&#45;&gt;Image::Amazon Linux 2</title>
<path fill="none" stroke="#707070" d="M469.77,-843.13C499.28,-833.42 537.01,-821.01 570.27,-810.07"/>
<polygon fill="#707070" stroke="#707070" points="571.57,-813.32 579.98,-806.87 569.38,-806.67 571.57,-813.32"/>
</g>
<!-- EC2::web&#45;server&#45;&gt;Subnet::subnet -->
<g id="edge14" class="edge">
<title>EC2::web&#45;server&#45;&gt;Subnet::subnet</title>
<path fill="none" stroke="#707070" d="M469.62,-866.14C491.34,-871.27 515.24,-880.7 531,-898 577.75,-949.32 523.03,-996.27 567,-1050 575.92,-1060.9 588.66,-1068.82 601.47,-1074.51"/>
<polygon fill="#707070" stroke="#707070" points="600.17,-1077.76 610.75,-1078.27 602.8,-1071.27 600.17,-1077.76"/>
</g>
<!-- EC2::web&#45;server&#45;&gt;SecurityGroup::security&#45;group -->
<g id="edge15" class="edge">
<title>EC2::web&#45;server&#45;&gt;SecurityGroup::security&#45;group</title>
<path fill="none" stroke="#707070" d="M469.72,-868.2C490.69,-873.71 513.98,-882.86 531,-898 558.92,-922.84 540.43,-947.71 567,-974 569.15,-976.13 571.45,-978.16 573.85,-980.08"/>
<polygon fill="#707070" stroke="#707070" points="572.24,-983.23 582.4,-986.23 576.33,-977.55 572.24,-983.23"/>
</g>
<!-- EC2::web&#45;server&#45;&gt;ElasticIpAddress::myip -->
<g id="edge16" class="edge">
<title>EC2::web&#45;server&#45;&gt;ElasticIpAddress::myip</title>
<path fill="none" stroke="#707070" d="M469.77,-876.87C497.35,-885.94 532.1,-897.38 563.68,-907.77"/>
<polygon fill="#707070" stroke="#707070" points="562.77,-911.15 573.37,-910.95 564.96,-904.5 562.77,-911.15"/>
</g>
<!-- EC2::web&#45;server&#45;&gt;Volume::volume -->
<g id="edge17" class="edge">
<title>EC2::web&#45;server&#45;&gt;Volume::volume</title>
<path fill="none" stroke="#707070" d="M469.77,-860C508.4,-860 561.1,-860 599.44,-860"/>
<polygon fill="#707070" stroke="#707070" points="599.85,-863.5 609.85,-860 599.85,-856.5 599.85,-863.5"/>
</g>
<!-- S3Bucket::grucloud&#45;test&#45;basic -->
<g id="node16" class="node">
<title>S3Bucket::grucloud&#45;test&#45;basic</title>
<polygon fill="#e5e5e5" stroke="#dddddd" points="498.5,-737 336.5,-737 336.5,-679 498.5,-679 498.5,-737"/>
<text text-anchor="start" x="348.5" y="-717.2" font-family="Helvetica,sans-Serif" font-weight="bold" font-size="16.00" fill="#707070">S3Bucket</text>
<text text-anchor="start" x="348.5" y="-692.2" font-family="Helvetica,sans-Serif" font-size="16.00" fill="#383838">grucloud&#45;test&#45;basic</text>
</g>
<!-- S3Bucket::grucloud&#45;log&#45;destination -->
<g id="node17" class="node">
<title>S3Bucket::grucloud&#45;log&#45;destination</title>
<polygon fill="#e5e5e5" stroke="#dddddd" points="245,-1117 47,-1117 47,-1059 245,-1059 245,-1117"/>
<text text-anchor="start" x="59" y="-1097.2" font-family="Helvetica,sans-Serif" font-weight="bold" font-size="16.00" fill="#707070">S3Bucket</text>
<text text-anchor="start" x="59" y="-1072.2" font-family="Helvetica,sans-Serif" font-size="16.00" fill="#383838">grucloud&#45;log&#45;destination</text>
</g>
<!-- S3Object::file&#45;test -->
<g id="node18" class="node">
<title>S3Object::file&#45;test</title>
<polygon fill="#e5e5e5" stroke="#dddddd" points="193,-1041 99,-1041 99,-983 193,-983 193,-1041"/>
<text text-anchor="start" x="111" y="-1021.2" font-family="Helvetica,sans-Serif" font-weight="bold" font-size="16.00" fill="#707070">S3Object</text>
<text text-anchor="start" x="111" y="-996.2" font-family="Helvetica,sans-Serif" font-size="16.00" fill="#383838">file&#45;test</text>
</g>
<!-- S3Object::file&#45;test&#45;&gt;S3Bucket::grucloud&#45;test&#45;basic -->
<g id="edge19" class="edge">
<title>S3Object::file&#45;test&#45;&gt;S3Bucket::grucloud&#45;test&#45;basic</title>
<path fill="none" stroke="#707070" d="M193.1,-1009.11C218.87,-1004.99 249.45,-995.51 268,-974 334.99,-896.3 237.85,-824.41 304,-746 310.43,-738.38 318.45,-732.28 327.22,-727.4"/>
<polygon fill="#707070" stroke="#707070" points="328.83,-730.51 336.22,-722.92 325.71,-724.25 328.83,-730.51"/>
</g>
<!-- S3Bucket::grucloud&#45;acceleration -->
<g id="node19" class="node">
<title>S3Bucket::grucloud&#45;acceleration</title>
<polygon fill="#e5e5e5" stroke="#dddddd" points="236,-965 56,-965 56,-907 236,-907 236,-965"/>
<text text-anchor="start" x="68" y="-945.2" font-family="Helvetica,sans-Serif" font-weight="bold" font-size="16.00" fill="#707070">S3Bucket</text>
<text text-anchor="start" x="68" y="-920.2" font-family="Helvetica,sans-Serif" font-size="16.00" fill="#383838">grucloud&#45;acceleration</text>
</g>
<!-- S3Bucket::grucloud&#45;cors -->
<g id="node20" class="node">
<title>S3Bucket::grucloud&#45;cors</title>
<polygon fill="#e5e5e5" stroke="#dddddd" points="207.5,-889 84.5,-889 84.5,-831 207.5,-831 207.5,-889"/>
<text text-anchor="start" x="97" y="-869.2" font-family="Helvetica,sans-Serif" font-weight="bold" font-size="16.00" fill="#707070">S3Bucket</text>
<text text-anchor="start" x="97" y="-844.2" font-family="Helvetica,sans-Serif" font-size="16.00" fill="#383838">grucloud&#45;cors</text>
</g>
<!-- S3Bucket::grucloud&#45;encryption -->
<g id="node21" class="node">
<title>S3Bucket::grucloud&#45;encryption</title>
<polygon fill="#e5e5e5" stroke="#dddddd" points="229.5,-813 62.5,-813 62.5,-755 229.5,-755 229.5,-813"/>
<text text-anchor="start" x="75" y="-793.2" font-family="Helvetica,sans-Serif" font-weight="bold" font-size="16.00" fill="#707070">S3Bucket</text>
<text text-anchor="start" x="75" y="-768.2" font-family="Helvetica,sans-Serif" font-size="16.00" fill="#383838">grucloud&#45;encryption</text>
</g>
<!-- S3Bucket::grucloud&#45;lifecycleconfiguration -->
<g id="node22" class="node">
<title>S3Bucket::grucloud&#45;lifecycleconfiguration</title>
<polygon fill="#e5e5e5" stroke="#dddddd" points="268,-737 24,-737 24,-679 268,-679 268,-737"/>
<text text-anchor="start" x="36" y="-717.2" font-family="Helvetica,sans-Serif" font-weight="bold" font-size="16.00" fill="#707070">S3Bucket</text>
<text text-anchor="start" x="36" y="-692.2" font-family="Helvetica,sans-Serif" font-size="16.00" fill="#383838">grucloud&#45;lifecycleconfiguration</text>
</g>
<!-- S3Bucket::grucloud&#45;policy -->
<g id="node23" class="node">
<title>S3Bucket::grucloud&#45;policy</title>
<polygon fill="#e5e5e5" stroke="#dddddd" points="213,-661 79,-661 79,-603 213,-603 213,-661"/>
<text text-anchor="start" x="91" y="-641.2" font-family="Helvetica,sans-Serif" font-weight="bold" font-size="16.00" fill="#707070">S3Bucket</text>
<text text-anchor="start" x="91" y="-616.2" font-family="Helvetica,sans-Serif" font-size="16.00" fill="#383838">grucloud&#45;policy</text>
</g>
<!-- S3Bucket::grucloud&#45;request&#45;payment -->
<g id="node24" class="node">
<title>S3Bucket::grucloud&#45;request&#45;payment</title>
<polygon fill="#e5e5e5" stroke="#dddddd" points="253,-585 39,-585 39,-527 253,-527 253,-585"/>
<text text-anchor="start" x="51" y="-565.2" font-family="Helvetica,sans-Serif" font-weight="bold" font-size="16.00" fill="#707070">S3Bucket</text>
<text text-anchor="start" x="51" y="-540.2" font-family="Helvetica,sans-Serif" font-size="16.00" fill="#383838">grucloud&#45;request&#45;payment</text>
</g>
<!-- S3Bucket::grucloud&#45;tag -->
<g id="node25" class="node">
<title>S3Bucket::grucloud&#45;tag</title>
<polygon fill="#e5e5e5" stroke="#dddddd" points="203.5,-509 88.5,-509 88.5,-451 203.5,-451 203.5,-509"/>
<text text-anchor="start" x="101" y="-489.2" font-family="Helvetica,sans-Serif" font-weight="bold" font-size="16.00" fill="#707070">S3Bucket</text>
<text text-anchor="start" x="101" y="-464.2" font-family="Helvetica,sans-Serif" font-size="16.00" fill="#383838">grucloud&#45;tag</text>
</g>
<!-- S3Bucket::grucloud&#45;versioning -->
<g id="node26" class="node">
<title>S3Bucket::grucloud&#45;versioning</title>
<polygon fill="#e5e5e5" stroke="#dddddd" points="229,-433 63,-433 63,-375 229,-375 229,-433"/>
<text text-anchor="start" x="75" y="-413.2" font-family="Helvetica,sans-Serif" font-weight="bold" font-size="16.00" fill="#707070">S3Bucket</text>
<text text-anchor="start" x="75" y="-388.2" font-family="Helvetica,sans-Serif" font-size="16.00" fill="#383838">grucloud&#45;versioning</text>
</g>
<!-- S3Bucket::grucloud&#45;website -->
<g id="node27" class="node">
<title>S3Bucket::grucloud&#45;website</title>
<polygon fill="#e5e5e5" stroke="#dddddd" points="219.5,-357 72.5,-357 72.5,-299 219.5,-299 219.5,-357"/>
<text text-anchor="start" x="85" y="-337.2" font-family="Helvetica,sans-Serif" font-weight="bold" font-size="16.00" fill="#707070">S3Bucket</text>
<text text-anchor="start" x="85" y="-312.2" font-family="Helvetica,sans-Serif" font-size="16.00" fill="#383838">grucloud&#45;website</text>
</g>
<!-- S3Bucket::grucloud&#45;bucket&#45;0 -->
<g id="node28" class="node">
<title>S3Bucket::grucloud&#45;bucket&#45;0</title>
<polygon fill="#e5e5e5" stroke="#dddddd" points="223,-281 69,-281 69,-223 223,-223 223,-281"/>
<text text-anchor="start" x="81" y="-261.2" font-family="Helvetica,sans-Serif" font-weight="bold" font-size="16.00" fill="#707070">S3Bucket</text>
<text text-anchor="start" x="81" y="-236.2" font-family="Helvetica,sans-Serif" font-size="16.00" fill="#383838">grucloud&#45;bucket&#45;0</text>
</g>
<!-- S3Bucket::grucloud&#45;bucket&#45;1 -->
<g id="node29" class="node">
<title>S3Bucket::grucloud&#45;bucket&#45;1</title>
<polygon fill="#e5e5e5" stroke="#dddddd" points="223,-205 69,-205 69,-147 223,-147 223,-205"/>
<text text-anchor="start" x="81" y="-185.2" font-family="Helvetica,sans-Serif" font-weight="bold" font-size="16.00" fill="#707070">S3Bucket</text>
<text text-anchor="start" x="81" y="-160.2" font-family="Helvetica,sans-Serif" font-size="16.00" fill="#383838">grucloud&#45;bucket&#45;1</text>
</g>
<!-- IamPolicy::myPolicy&#45;to&#45;user -->
<g id="node30" class="node">
<title>IamPolicy::myPolicy&#45;to&#45;user</title>
<polygon fill="#e5e5e5" stroke="#dddddd" points="490,-205 345,-205 345,-147 490,-147 490,-205"/>
<text text-anchor="start" x="357.5" y="-185.2" font-family="Helvetica,sans-Serif" font-weight="bold" font-size="16.00" fill="#707070">IamPolicy</text>
<text text-anchor="start" x="357.5" y="-160.2" font-family="Helvetica,sans-Serif" font-size="16.00" fill="#383838">myPolicy&#45;to&#45;user</text>
</g>
<!-- IamPolicy::myPolicy&#45;to&#45;role -->
<g id="node31" class="node">
<title>IamPolicy::myPolicy&#45;to&#45;role</title>
<polygon fill="#e5e5e5" stroke="#dddddd" points="1189,-547 1048,-547 1048,-489 1189,-489 1189,-547"/>
<text text-anchor="start" x="1060.5" y="-527.2" font-family="Helvetica,sans-Serif" font-weight="bold" font-size="16.00" fill="#707070">IamPolicy</text>
<text text-anchor="start" x="1060.5" y="-502.2" font-family="Helvetica,sans-Serif" font-size="16.00" fill="#383838">myPolicy&#45;to&#45;role</text>
</g>
<!-- IamPolicy::myPolicy&#45;to&#45;group -->
<g id="node32" class="node">
<title>IamPolicy::myPolicy&#45;to&#45;group</title>
<polygon fill="#e5e5e5" stroke="#dddddd" points="728,-129 573,-129 573,-71 728,-71 728,-129"/>
<text text-anchor="start" x="585.5" y="-109.2" font-family="Helvetica,sans-Serif" font-weight="bold" font-size="16.00" fill="#707070">IamPolicy</text>
<text text-anchor="start" x="585.5" y="-84.2" font-family="Helvetica,sans-Serif" font-size="16.00" fill="#383838">myPolicy&#45;to&#45;group</text>
</g>
<!-- IamPolicy::AmazonEKSWorkerNodePolicy -->
<g id="node33" class="node">
<title>IamPolicy::AmazonEKSWorkerNodePolicy</title>
<polygon fill="#e5e5e5" stroke="#dddddd" points="1243,-623 994,-623 994,-565 1243,-565 1243,-623"/>
<text text-anchor="start" x="1006.5" y="-603.2" font-family="Helvetica,sans-Serif" font-weight="bold" font-size="16.00" fill="#707070">IamPolicy</text>
<text text-anchor="start" x="1006.5" y="-578.2" font-family="Helvetica,sans-Serif" font-size="16.00" fill="#383838">AmazonEKSWorkerNodePolicy</text>
</g>
<!-- IamGroup::Admin -->
<g id="node34" class="node">
<title>IamGroup::Admin</title>
<polygon fill="#e5e5e5" stroke="#dddddd" points="467.5,-129 367.5,-129 367.5,-71 467.5,-71 467.5,-129"/>
<text text-anchor="start" x="379.5" y="-109.2" font-family="Helvetica,sans-Serif" font-weight="bold" font-size="16.00" fill="#707070">IamGroup</text>
<text text-anchor="start" x="379.5" y="-84.2" font-family="Helvetica,sans-Serif" font-size="16.00" fill="#383838">Admin</text>
</g>
<!-- IamGroup::Admin&#45;&gt;IamPolicy::myPolicy&#45;to&#45;group -->
<g id="edge20" class="edge">
<title>IamGroup::Admin&#45;&gt;IamPolicy::myPolicy&#45;to&#45;group</title>
<path fill="none" stroke="#707070" d="M467.77,-100C495.27,-100 530.34,-100 562.32,-100"/>
<polygon fill="#707070" stroke="#707070" points="562.58,-103.5 572.58,-100 562.58,-96.5 562.58,-103.5"/>
</g>
<!-- IamUser::Alice -->
<g id="node35" class="node">
<title>IamUser::Alice</title>
<polygon fill="#e5e5e5" stroke="#dddddd" points="190,-129 102,-129 102,-71 190,-71 190,-129"/>
<text text-anchor="start" x="114" y="-109.2" font-family="Helvetica,sans-Serif" font-weight="bold" font-size="16.00" fill="#707070">IamUser</text>
<text text-anchor="start" x="114" y="-84.2" font-family="Helvetica,sans-Serif" font-size="16.00" fill="#383838">Alice</text>
</g>
<!-- IamUser::Alice&#45;&gt;IamPolicy::myPolicy&#45;to&#45;user -->
<g id="edge22" class="edge">
<title>IamUser::Alice&#45;&gt;IamPolicy::myPolicy&#45;to&#45;user</title>
<path fill="none" stroke="#707070" d="M190,-112.13C228.93,-123.1 287.31,-139.57 335.05,-153.03"/>
<polygon fill="#707070" stroke="#707070" points="334.19,-156.42 344.76,-155.77 336.09,-149.69 334.19,-156.42"/>
</g>
<!-- IamUser::Alice&#45;&gt;IamGroup::Admin -->
<g id="edge21" class="edge">
<title>IamUser::Alice&#45;&gt;IamGroup::Admin</title>
<path fill="none" stroke="#707070" d="M190,-100C235.19,-100 306.58,-100 357.12,-100"/>
<polygon fill="#707070" stroke="#707070" points="357.26,-103.5 367.26,-100 357.26,-96.5 357.26,-103.5"/>
</g>
<!-- IamRole::role&#45;allow&#45;assume&#45;role -->
<g id="node36" class="node">
<title>IamRole::role&#45;allow&#45;assume&#45;role</title>
<polygon fill="#e5e5e5" stroke="#dddddd" points="958,-585 770,-585 770,-527 958,-527 958,-585"/>
<text text-anchor="start" x="782" y="-565.2" font-family="Helvetica,sans-Serif" font-weight="bold" font-size="16.00" fill="#707070">IamRole</text>
<text text-anchor="start" x="782" y="-540.2" font-family="Helvetica,sans-Serif" font-size="16.00" fill="#383838">role&#45;allow&#45;assume&#45;role</text>
</g>
<!-- IamRole::role&#45;allow&#45;assume&#45;role&#45;&gt;IamPolicy::myPolicy&#45;to&#45;role -->
<g id="edge23" class="edge">
<title>IamRole::role&#45;allow&#45;assume&#45;role&#45;&gt;IamPolicy::myPolicy&#45;to&#45;role</title>
<path fill="none" stroke="#707070" d="M958.3,-541.96C984.47,-538.02 1012.67,-533.78 1037.96,-529.97"/>
<polygon fill="#707070" stroke="#707070" points="1038.5,-533.43 1047.86,-528.48 1037.46,-526.51 1038.5,-533.43"/>
</g>
<!-- IamRole::role&#45;allow&#45;assume&#45;role&#45;&gt;IamPolicy::AmazonEKSWorkerNodePolicy -->
<g id="edge24" class="edge">
<title>IamRole::role&#45;allow&#45;assume&#45;role&#45;&gt;IamPolicy::AmazonEKSWorkerNodePolicy</title>
<path fill="none" stroke="#707070" d="M958.3,-570.04C966.58,-571.29 975.07,-572.56 983.6,-573.85"/>
<polygon fill="#707070" stroke="#707070" points="983.21,-577.33 993.62,-575.36 984.25,-570.41 983.21,-577.33"/>
</g>
<!-- IamInstanceProfile::my&#45;profile -->
<g id="node37" class="node">
<title>IamInstanceProfile::my&#45;profile</title>
<polygon fill="#e5e5e5" stroke="#dddddd" points="734,-585 567,-585 567,-527 734,-527 734,-585"/>
<text text-anchor="start" x="579.5" y="-565.2" font-family="Helvetica,sans-Serif" font-weight="bold" font-size="16.00" fill="#707070">IamInstanceProfile</text>
<text text-anchor="start" x="579.5" y="-540.2" font-family="Helvetica,sans-Serif" font-size="16.00" fill="#383838">my&#45;profile</text>
</g>
<!-- IamInstanceProfile::my&#45;profile&#45;&gt;IamRole::role&#45;allow&#45;assume&#45;role -->
<g id="edge25" class="edge">
<title>IamInstanceProfile::my&#45;profile&#45;&gt;IamRole::role&#45;allow&#45;assume&#45;role</title>
<path fill="none" stroke="#707070" d="M734.18,-556C742.59,-556 751.21,-556 759.8,-556"/>
<polygon fill="#707070" stroke="#707070" points="759.86,-559.5 769.86,-556 759.86,-552.5 759.86,-559.5"/>
</g>
<!-- EC2::web&#45;iam -->
<g id="node38" class="node">
<title>EC2::web&#45;iam</title>
<polygon fill="#e5e5e5" stroke="#dddddd" points="460,-661 375,-661 375,-603 460,-603 460,-661"/>
<text text-anchor="start" x="387.5" y="-641.2" font-family="Helvetica,sans-Serif" font-weight="bold" font-size="16.00" fill="#707070">EC2</text>
<text text-anchor="start" x="387.5" y="-616.2" font-family="Helvetica,sans-Serif" font-size="16.00" fill="#383838">web&#45;iam</text>
</g>
<!-- EC2::web&#45;iam&#45;&gt;KeyPair::kp -->
<g id="edge27" class="edge">
<title>EC2::web&#45;iam&#45;&gt;KeyPair::kp</title>
<path fill="none" stroke="#707070" d="M460.06,-632C498.74,-632 556.51,-632 598.07,-632"/>
<polygon fill="#707070" stroke="#707070" points="598.27,-635.5 608.27,-632 598.27,-628.5 598.27,-635.5"/>
</g>
<!-- EC2::web&#45;iam&#45;&gt;Image::Amazon Linux 2 -->
<g id="edge26" class="edge">
<title>EC2::web&#45;iam&#45;&gt;Image::Amazon Linux 2</title>
<path fill="none" stroke="#707070" d="M460.24,-637.91C483.38,-643.03 511.36,-652.53 531,-670 558.92,-694.84 540.43,-719.71 567,-746 568.59,-747.58 570.27,-749.1 572,-750.56"/>
<polygon fill="#707070" stroke="#707070" points="569.9,-753.36 579.98,-756.62 574.13,-747.78 569.9,-753.36"/>
</g>
<!-- EC2::web&#45;iam&#45;&gt;IamInstanceProfile::my&#45;profile -->
<g id="edge28" class="edge">
<title>EC2::web&#45;iam&#45;&gt;IamInstanceProfile::my&#45;profile</title>
<path fill="none" stroke="#707070" d="M460.06,-618.32C487.02,-609.46 523.24,-597.54 556.8,-586.5"/>
<polygon fill="#707070" stroke="#707070" points="558.24,-589.71 566.64,-583.26 556.05,-583.06 558.24,-589.71"/>
</g>
<!-- ResourceGroup::resource&#45;group&#45;dev -->
<g id="node39" class="node">
<title>ResourceGroup::resource&#45;group&#45;dev</title>
<polygon fill="#e5e5e5" stroke="#dddddd" points="947,-1434 781,-1434 781,-1376 947,-1376 947,-1434"/>
<text text-anchor="start" x="793" y="-1414.2" font-family="Helvetica,sans-Serif" font-weight="bold" font-size="16.00" fill="#707070">ResourceGroup</text>
<text text-anchor="start" x="793" y="-1389.2" font-family="Helvetica,sans-Serif" font-size="16.00" fill="#383838">resource&#45;group&#45;dev</text>
</g>
<!-- VirtualNetwork::virtual&#45;network&#45;dev -->
<g id="node40" class="node">
<title>VirtualNetwork::virtual&#45;network&#45;dev</title>
<polygon fill="#e5e5e5" stroke="#dddddd" points="731,-1530 570,-1530 570,-1472 731,-1472 731,-1530"/>
<text text-anchor="start" x="582.5" y="-1510.2" font-family="Helvetica,sans-Serif" font-weight="bold" font-size="16.00" fill="#707070">VirtualNetwork</text>
<text text-anchor="start" x="582.5" y="-1485.2" font-family="Helvetica,sans-Serif" font-size="16.00" fill="#383838">virtual&#45;network&#45;dev</text>
</g>
<!-- VirtualNetwork::virtual&#45;network&#45;dev&#45;&gt;ResourceGroup::resource&#45;group&#45;dev -->
<g id="edge29" class="edge">
<title>VirtualNetwork::virtual&#45;network&#45;dev&#45;&gt;ResourceGroup::resource&#45;group&#45;dev</title>
<path fill="none" stroke="#707070" d="M715.53,-1471.94C738.93,-1461.32 765.56,-1449.23 789.7,-1438.27"/>
<polygon fill="#707070" stroke="#707070" points="791.16,-1441.45 798.82,-1434.13 788.27,-1435.08 791.16,-1441.45"/>
</g>
<!-- SecurityGroup::security&#45;group&#45;dev -->
<g id="node41" class="node">
<title>SecurityGroup::security&#45;group&#45;dev</title>
<polygon fill="#e5e5e5" stroke="#dddddd" points="730,-1358 571,-1358 571,-1300 730,-1300 730,-1358"/>
<text text-anchor="start" x="583.5" y="-1338.2" font-family="Helvetica,sans-Serif" font-weight="bold" font-size="16.00" fill="#707070">SecurityGroup</text>
<text text-anchor="start" x="583.5" y="-1313.2" font-family="Helvetica,sans-Serif" font-size="16.00" fill="#383838">security&#45;group&#45;dev</text>
</g>
<!-- SecurityGroup::security&#45;group&#45;dev&#45;&gt;ResourceGroup::resource&#45;group&#45;dev -->
<g id="edge30" class="edge">
<title>SecurityGroup::security&#45;group&#45;dev&#45;&gt;ResourceGroup::resource&#45;group&#45;dev</title>
<path fill="none" stroke="#707070" d="M730.25,-1357.3C744,-1362.24 758.39,-1367.41 772.42,-1372.45"/>
<polygon fill="#707070" stroke="#707070" points="771.47,-1375.83 782.06,-1375.92 773.83,-1369.24 771.47,-1375.83"/>
</g>
<!-- PublicIpAddress::ip&#45;dev -->
<g id="node42" class="node">
<title>PublicIpAddress::ip&#45;dev</title>
<polygon fill="#e5e5e5" stroke="#dddddd" points="726,-1434 575,-1434 575,-1376 726,-1376 726,-1434"/>
<text text-anchor="start" x="587.5" y="-1414.2" font-family="Helvetica,sans-Serif" font-weight="bold" font-size="16.00" fill="#707070">PublicIpAddress</text>
<text text-anchor="start" x="587.5" y="-1389.2" font-family="Helvetica,sans-Serif" font-size="16.00" fill="#383838">ip&#45;dev</text>
</g>
<!-- PublicIpAddress::ip&#45;dev&#45;&gt;ResourceGroup::resource&#45;group&#45;dev -->
<g id="edge31" class="edge">
<title>PublicIpAddress::ip&#45;dev&#45;&gt;ResourceGroup::resource&#45;group&#45;dev</title>
<path fill="none" stroke="#707070" d="M726.07,-1405C740.46,-1405 755.71,-1405 770.6,-1405"/>
<polygon fill="#707070" stroke="#707070" points="770.83,-1408.5 780.83,-1405 770.83,-1401.5 770.83,-1408.5"/>
</g>
<!-- NetworkInterface::network&#45;interface&#45;dev -->
<g id="node43" class="node">
<title>NetworkInterface::network&#45;interface&#45;dev</title>
<polygon fill="#e5e5e5" stroke="#dddddd" points="507.5,-1434 327.5,-1434 327.5,-1376 507.5,-1376 507.5,-1434"/>
<text text-anchor="start" x="339.5" y="-1414.2" font-family="Helvetica,sans-Serif" font-weight="bold" font-size="16.00" fill="#707070">NetworkInterface</text>
<text text-anchor="start" x="339.5" y="-1389.2" font-family="Helvetica,sans-Serif" font-size="16.00" fill="#383838">network&#45;interface&#45;dev</text>
</g>
<!-- NetworkInterface::network&#45;interface&#45;dev&#45;&gt;ResourceGroup::resource&#45;group&#45;dev -->
<g id="edge32" class="edge">
<title>NetworkInterface::network&#45;interface&#45;dev&#45;&gt;ResourceGroup::resource&#45;group&#45;dev</title>
<path fill="none" stroke="#707070" d="M507.72,-1431.68C527.09,-1436.38 547.59,-1440.56 567,-1443 640.64,-1452.27 660.54,-1453.59 734,-1443 746.13,-1441.25 758.7,-1438.62 771.03,-1435.55"/>
<polygon fill="#707070" stroke="#707070" points="772.05,-1438.9 780.85,-1433 770.29,-1432.12 772.05,-1438.9"/>
</g>
<!-- NetworkInterface::network&#45;interface&#45;dev&#45;&gt;VirtualNetwork::virtual&#45;network&#45;dev -->
<g id="edge33" class="edge">
<title>NetworkInterface::network&#45;interface&#45;dev&#45;&gt;VirtualNetwork::virtual&#45;network&#45;dev</title>
<path fill="none" stroke="#707070" d="M488.43,-1434.06C514.21,-1444.78 543.59,-1456.99 570.14,-1468.02"/>
<polygon fill="#707070" stroke="#707070" points="568.83,-1471.26 579.4,-1471.87 571.51,-1464.8 568.83,-1471.26"/>
</g>
<!-- NetworkInterface::network&#45;interface&#45;dev&#45;&gt;SecurityGroup::security&#45;group&#45;dev -->
<g id="edge34" class="edge">
<title>NetworkInterface::network&#45;interface&#45;dev&#45;&gt;SecurityGroup::security&#45;group&#45;dev</title>
<path fill="none" stroke="#707070" d="M506.82,-1375.94C524.55,-1370.11 543.19,-1363.98 560.93,-1358.14"/>
<polygon fill="#707070" stroke="#707070" points="562.28,-1361.38 570.68,-1354.93 560.09,-1354.73 562.28,-1361.38"/>
</g>
<!-- NetworkInterface::network&#45;interface&#45;dev&#45;&gt;PublicIpAddress::ip&#45;dev -->
<g id="edge35" class="edge">
<title>NetworkInterface::network&#45;interface&#45;dev&#45;&gt;PublicIpAddress::ip&#45;dev</title>
<path fill="none" stroke="#707070" d="M507.81,-1405C526.45,-1405 546.05,-1405 564.53,-1405"/>
<polygon fill="#707070" stroke="#707070" points="564.66,-1408.5 574.66,-1405 564.66,-1401.5 564.66,-1408.5"/>
</g>
<!-- VirtualMachine::vm&#45;dev -->
<g id="node44" class="node">
<title>VirtualMachine::vm&#45;dev</title>
<polygon fill="#e5e5e5" stroke="#dddddd" points="215.5,-1386 76.5,-1386 76.5,-1328 215.5,-1328 215.5,-1386"/>
<text text-anchor="start" x="89" y="-1366.2" font-family="Helvetica,sans-Serif" font-weight="bold" font-size="16.00" fill="#707070">VirtualMachine</text>
<text text-anchor="start" x="89" y="-1341.2" font-family="Helvetica,sans-Serif" font-size="16.00" fill="#383838">vm&#45;dev</text>
</g>
<!-- VirtualMachine::vm&#45;dev&#45;&gt;ResourceGroup::resource&#45;group&#45;dev -->
<g id="edge36" class="edge">
<title>VirtualMachine::vm&#45;dev&#45;&gt;ResourceGroup::resource&#45;group&#45;dev</title>
<path fill="none" stroke="#707070" d="M215.56,-1329.42C327.8,-1288.56 556.09,-1223.65 734,-1291 774.58,-1306.36 810.62,-1340.96 834.22,-1368.04"/>
<polygon fill="#707070" stroke="#707070" points="831.69,-1370.46 840.83,-1375.81 837.02,-1365.93 831.69,-1370.46"/>
</g>
<!-- VirtualMachine::vm&#45;dev&#45;&gt;NetworkInterface::network&#45;interface&#45;dev -->
<g id="edge37" class="edge">
<title>VirtualMachine::vm&#45;dev&#45;&gt;NetworkInterface::network&#45;interface&#45;dev</title>
<path fill="none" stroke="#707070" d="M215.7,-1369.24C246.58,-1374.74 283.59,-1381.33 317.39,-1387.35"/>
<polygon fill="#707070" stroke="#707070" points="316.83,-1390.8 327.29,-1389.11 318.06,-1383.91 316.83,-1390.8"/>
</g>
</g>
</svg>
