<?xml version="1.0" encoding="UTF-8" standalone="no"?>
<!DOCTYPE svg PUBLIC "-//W3C//DTD SVG 1.1//EN"
 "http://www.w3.org/Graphics/SVG/1.1/DTD/svg11.dtd">
<!-- Generated by graphviz version 6.0.0 (20220910.1538)
 -->
<!-- Title: graphname Pages: 1 -->
<svg width="676pt" height="313pt"
 viewBox="0.00 0.00 676.00 313.00" xmlns="http://www.w3.org/2000/svg" xmlns:xlink="http://www.w3.org/1999/xlink">
<g id="graph0" class="graph" transform="scale(1 1) rotate(0) translate(4 309)">
<title>graphname</title>
<polygon fill="#fafafa" stroke="none" points="-4,4 -4,-309 672,-309 672,4 -4,4"/>
<text text-anchor="start" x="233" y="-280.4" font-family="Helvetica,sans-Serif" font-weight="bold" font-size="22.00" fill="#383838">Project lambda&#45;sns</text>
<text text-anchor="start" x="330" y="-264.8" font-family="Helvetica,sans-Serif" font-size="14.00"> &#160;</text>
<text text-anchor="start" x="233" y="-243.2" font-family="Helvetica,sans-Serif" font-weight="bold" font-size="16.00" fill="#707070">Target Diagram</text>
<g id="clust1" class="cluster">
<title>cluster_aws</title>
<polygon fill="#f5f5f5" stroke="#f5f5f5" points="8,-8 8,-221 660,-221 660,-8 8,-8"/>
<text text-anchor="start" x="272" y="-23" font-family="Helvetica,sans-Serif" font-weight="bold" font-size="20.00" fill="#707070">Provider aws</text>
</g>
<g id="clust2" class="cluster">
<title>cluster_aws_</title>
<polygon fill="#eeeeee" stroke="#eeeeee" points="16,-54 16,-213 652,-213 652,-54 16,-54"/>
<text text-anchor="start" x="333.86" y="-58.3" font-family="Helvetica,sans-Serif" font-size="1.00" fill="#383838"> </text>
</g>
<!-- Role::sam&#45;app&#45;TopicPublisherFunctionRole&#45;12ZGFF8O8M7GH -->
<g id="node1" class="node">
<title>Role::sam&#45;app&#45;TopicPublisherFunctionRole&#45;12ZGFF8O8M7GH</title>
<polygon fill="#e5e5e5" stroke="#dddddd" points="644,-129 349,-129 349,-71 644,-71 644,-129"/>
<text text-anchor="start" x="361.5" y="-109.2" font-family="Helvetica,sans-Serif" font-weight="bold" font-size="16.00" fill="#707070">IAM::Role</text>
<text text-anchor="start" x="361.5" y="-84.2" font-family="Helvetica,sans-Serif" font-size="16.00" fill="#383838">sam&#45;app&#45;TopicPublisherFunctionRo...</text>
</g>
<!-- Function::sam&#45;app&#45;TopicPublisherFunction&#45;3UFzSVBp2h7r -->
<g id="node2" class="node">
<title>Function::sam&#45;app&#45;TopicPublisherFunction&#45;3UFzSVBp2h7r</title>
<polygon fill="#e5e5e5" stroke="#dddddd" points="313,-167 24,-167 24,-109 313,-109 313,-167"/>
<text text-anchor="start" x="36.5" y="-147.2" font-family="Helvetica,sans-Serif" font-weight="bold" font-size="16.00" fill="#707070">Lambda::Function</text>
<text text-anchor="start" x="36.5" y="-122.2" font-family="Helvetica,sans-Serif" font-size="16.00" fill="#383838">sam&#45;app&#45;TopicPublisherFunction&#45;3...</text>
</g>
<!-- Function::sam&#45;app&#45;TopicPublisherFunction&#45;3UFzSVBp2h7r&#45;&gt;Role::sam&#45;app&#45;TopicPublisherFunctionRole&#45;12ZGFF8O8M7GH -->
<g id="edge1" class="edge">
<title>Function::sam&#45;app&#45;TopicPublisherFunction&#45;3UFzSVBp2h7r&#45;&gt;Role::sam&#45;app&#45;TopicPublisherFunctionRole&#45;12ZGFF8O8M7GH</title>
<path fill="none" stroke="#707070" d="M313.44,-121.22C321.9,-120.24 330.42,-119.24 338.93,-118.25"/>
<polygon fill="#707070" stroke="#707070" points="339.37,-121.72 348.9,-117.09 338.56,-114.77 339.37,-121.72"/>
</g>
<!-- Topic::sam&#45;app&#45;MySnsTopic&#45;7dvkJx2kzjiv -->
<g id="node3" class="node">
<title>Topic::sam&#45;app&#45;MySnsTopic&#45;7dvkJx2kzjiv</title>
<polygon fill="#e5e5e5" stroke="#dddddd" points="635.5,-205 357.5,-205 357.5,-147 635.5,-147 635.5,-205"/>
<text text-anchor="start" x="369.5" y="-185.2" font-family="Helvetica,sans-Serif" font-weight="bold" font-size="16.00" fill="#707070">SNS::Topic</text>
<text text-anchor="start" x="369.5" y="-160.2" font-family="Helvetica,sans-Serif" font-size="16.00" fill="#383838">sam&#45;app&#45;MySnsTopic&#45;7dvkJx2kzjiv</text>
</g>
<!-- Function::sam&#45;app&#45;TopicPublisherFunction&#45;3UFzSVBp2h7r&#45;&gt;Topic::sam&#45;app&#45;MySnsTopic&#45;7dvkJx2kzjiv -->
<g id="edge2" class="edge">
<title>Function::sam&#45;app&#45;TopicPublisherFunction&#45;3UFzSVBp2h7r&#45;&gt;Topic::sam&#45;app&#45;MySnsTopic&#45;7dvkJx2kzjiv</title>
<path fill="none" stroke="#707070" d="M313.44,-154.78C324.6,-156.08 335.89,-157.4 347.08,-158.7"/>
<polygon fill="#707070" stroke="#707070" points="346.99,-162.21 357.33,-159.89 347.8,-155.26 346.99,-162.21"/>
</g>
</g>
</svg>
