<?xml version="1.0" encoding="UTF-8" standalone="no"?><svg xmlns="http://www.w3.org/2000/svg" xmlns:xlink="http://www.w3.org/1999/xlink" contentStyleType="text/css" height="1245px" preserveAspectRatio="none" style="width:584px;height:1245px;background:#FFFFFF;" version="1.1" viewBox="0 0 584 1245" width="584px" zoomAndPan="magnify"><defs/><g><rect height="26.4883" style="stroke:#00000000;stroke-width:1.0;fill:none;" width="314" x="108.5" y="15"/><text fill="#000000" font-family="sans-serif" font-size="14" font-weight="bold" lengthAdjust="spacing" textLength="304" x="113.5" y="33.5352">Resources for project fargate-eventbridge</text><rect fill="#F1F1F1" height="36.4883" rx="12.5" ry="12.5" style="stroke:#181818;stroke-width:1.5;" width="52" x="10" y="622.3711"/><text fill="#000000" font-family="sans-serif" font-size="14" lengthAdjust="spacing" textLength="32" x="20" y="645.9063">Infra</text><rect fill="#F1F1F1" height="36.4883" rx="12.5" ry="12.5" style="stroke:#181818;stroke-width:1.5;" width="46" x="112" y="622.3711"/><text fill="#000000" font-family="sans-serif" font-size="14" lengthAdjust="spacing" textLength="26" x="122" y="645.9063">aws</text><rect fill="#F1F1F1" height="36.4883" rx="12.5" ry="12.5" style="stroke:#181818;stroke-width:1.5;" width="146" x="208" y="57.4883"/><text fill="#000000" font-family="sans-serif" font-size="14" lengthAdjust="spacing" textLength="126" x="218" y="81.0234">CloudWatchEvents</text><rect fill="#F1F1F1" height="36.4883" rx="12.5" ry="12.5" style="stroke:#181818;stroke-width:1.5;" width="104" x="404" y="57.4883"/><text fill="#000000" font-family="sans-serif" font-size="14" lengthAdjust="spacing" textLength="84" x="414" y="81.0234">EventBus (1)</text><path d="M354,75.7324 L364,75.7324 C379,75.7324 379,75.7324 394,75.7324 L404,75.7324 " fill="none" style="stroke:#181818;stroke-width:1.0;"/><path d="M158,640.6152 L168,640.6152 C183,640.6152 183,75.7324 198,75.7324 L208,75.7324 " fill="none" style="stroke:#181818;stroke-width:1.0;"/><rect fill="#F1F1F1" height="36.4883" rx="12.5" ry="12.5" style="stroke:#181818;stroke-width:1.5;" width="134" x="208" y="113.9766"/><text fill="#000000" font-family="sans-serif" font-size="14" lengthAdjust="spacing" textLength="114" x="218" y="137.5117">CloudWatchLogs</text><rect fill="#F1F1F1" height="36.4883" rx="12.5" ry="12.5" style="stroke:#181818;stroke-width:1.5;" width="111" x="392" y="113.9766"/><text fill="#000000" font-family="sans-serif" font-size="14" lengthAdjust="spacing" textLength="91" x="402" y="137.5117">LogGroup (1)</text><path d="M342,132.2207 L352,132.2207 C367,132.2207 367,132.2207 382,132.2207 L392,132.2207 " fill="none" style="stroke:#181818;stroke-width:1.0;"/><path d="M158,640.6152 L168,640.6152 C183,640.6152 183,132.2207 198,132.2207 L208,132.2207 " fill="none" style="stroke:#181818;stroke-width:1.0;"/><rect fill="#F1F1F1" height="36.4883" rx="12.5" ry="12.5" style="stroke:#181818;stroke-width:1.5;" width="47" x="208" y="509.3945"/><text fill="#000000" font-family="sans-serif" font-size="14" lengthAdjust="spacing" textLength="27" x="218" y="532.9297">EC2</text><rect fill="#F1F1F1" height="36.4883" rx="12.5" ry="12.5" style="stroke:#181818;stroke-width:1.5;" width="68" x="305" y="170.4648"/><text fill="#000000" font-family="sans-serif" font-size="14" lengthAdjust="spacing" textLength="48" x="315" y="194">Vpc (1)</text><path d="M255,527.6387 L265,527.6387 C280,527.6387 280,188.709 295,188.709 L305,188.709 " fill="none" style="stroke:#181818;stroke-width:1.0;"/><rect fill="#F1F1F1" height="36.4883" rx="12.5" ry="12.5" style="stroke:#181818;stroke-width:1.5;" width="154" x="305" y="226.9531"/><text fill="#000000" font-family="sans-serif" font-size="14" lengthAdjust="spacing" textLength="134" x="315" y="250.4883">InternetGateway (1)</text><path d="M255,527.6387 L265,527.6387 C280,527.6387 280,245.1973 295,245.1973 L305,245.1973 " fill="none" style="stroke:#181818;stroke-width:1.0;"/><rect fill="#F1F1F1" height="36.4883" rx="12.5" ry="12.5" style="stroke:#181818;stroke-width:1.5;" width="233" x="305" y="283.4414"/><text fill="#000000" font-family="sans-serif" font-size="14" lengthAdjust="spacing" textLength="213" x="315" y="306.9766">InternetGatewayAttachment (1)</text><path d="M255,527.6387 L265,527.6387 C280,527.6387 280,301.6855 295,301.6855 L305,301.6855 " fill="none" style="stroke:#181818;stroke-width:1.0;"/><rect fill="#F1F1F1" height="36.4883" rx="12.5" ry="12.5" style="stroke:#181818;stroke-width:1.5;" width="123" x="305" y="339.9297"/><text fill="#000000" font-family="sans-serif" font-size="14" lengthAdjust="spacing" textLength="103" x="315" y="363.4648">NatGateway (2)</text><path d="M255,527.6387 L265,527.6387 C280,527.6387 280,358.1738 295,358.1738 L305,358.1738 " fill="none" style="stroke:#181818;stroke-width:1.0;"/><rect fill="#F1F1F1" height="36.4883" rx="12.5" ry="12.5" style="stroke:#181818;stroke-width:1.5;" width="91" x="305" y="396.418"/><text fill="#000000" font-family="sans-serif" font-size="14" lengthAdjust="spacing" textLength="71" x="315" y="419.9531">Subnet (4)</text><path d="M255,527.6387 L265,527.6387 C280,527.6387 280,414.6621 295,414.6621 L305,414.6621 " fill="none" style="stroke:#181818;stroke-width:1.0;"/><rect fill="#F1F1F1" height="36.4883" rx="12.5" ry="12.5" style="stroke:#181818;stroke-width:1.5;" width="121" x="305" y="452.9063"/><text fill="#000000" font-family="sans-serif" font-size="14" lengthAdjust="spacing" textLength="101" x="315" y="476.4414">RouteTable (4)</text><path d="M255,527.6387 L265,527.6387 C280,527.6387 280,471.1504 295,471.1504 L305,471.1504 " fill="none" style="stroke:#181818;stroke-width:1.0;"/><rect fill="#F1F1F1" height="36.4883" rx="12.5" ry="12.5" style="stroke:#181818;stroke-width:1.5;" width="200" x="305" y="509.3945"/><text fill="#000000" font-family="sans-serif" font-size="14" lengthAdjust="spacing" textLength="180" x="315" y="532.9297">RouteTableAssociation (4)</text><path d="M255,527.6387 L265,527.6387 C280,527.6387 280,527.6387 295,527.6387 L305,527.6387 " fill="none" style="stroke:#181818;stroke-width:1.0;"/><rect fill="#F1F1F1" height="36.4883" rx="12.5" ry="12.5" style="stroke:#181818;stroke-width:1.5;" width="83" x="305" y="565.8828"/><text fill="#000000" font-family="sans-serif" font-size="14" lengthAdjust="spacing" textLength="63" x="315" y="589.418">Route (4)</text><path d="M255,527.6387 L265,527.6387 C280,527.6387 280,584.127 295,584.127 L305,584.127 " fill="none" style="stroke:#181818;stroke-width:1.0;"/><rect fill="#F1F1F1" height="36.4883" rx="12.5" ry="12.5" style="stroke:#181818;stroke-width:1.5;" width="140" x="305" y="622.3711"/><text fill="#000000" font-family="sans-serif" font-size="14" lengthAdjust="spacing" textLength="120" x="315" y="645.9063">SecurityGroup (3)</text><path d="M255,527.6387 L265,527.6387 C280,527.6387 280,640.6152 295,640.6152 L305,640.6152 " fill="none" style="stroke:#181818;stroke-width:1.0;"/><rect fill="#F1F1F1" height="36.4883" rx="12.5" ry="12.5" style="stroke:#181818;stroke-width:1.5;" width="220" x="305" y="678.8594"/><text fill="#000000" font-family="sans-serif" font-size="14" lengthAdjust="spacing" textLength="200" x="315" y="702.3945">SecurityGroupRuleIngress (3)</text><path d="M255,527.6387 L265,527.6387 C280,527.6387 280,697.1035 295,697.1035 L305,697.1035 " fill="none" style="stroke:#181818;stroke-width:1.0;"/><rect fill="#F1F1F1" height="36.4883" rx="12.5" ry="12.5" style="stroke:#181818;stroke-width:1.5;" width="215" x="305" y="735.3477"/><text fill="#000000" font-family="sans-serif" font-size="14" lengthAdjust="spacing" textLength="195" x="315" y="758.8828">SecurityGroupRuleEgress (1)</text><path d="M255,527.6387 L265,527.6387 C280,527.6387 280,753.5918 295,753.5918 L305,753.5918 " fill="none" style="stroke:#181818;stroke-width:1.0;"/><rect fill="#F1F1F1" height="36.4883" rx="12.5" ry="12.5" style="stroke:#181818;stroke-width:1.5;" width="155" x="305" y="791.8359"/><text fill="#000000" font-family="sans-serif" font-size="14" lengthAdjust="spacing" textLength="135" x="315" y="815.3711">ElasticIpAddress (2)</text><path d="M255,527.6387 L265,527.6387 C280,527.6387 280,810.0801 295,810.0801 L305,810.0801 " fill="none" style="stroke:#181818;stroke-width:1.0;"/><rect fill="#F1F1F1" height="36.4883" rx="12.5" ry="12.5" style="stroke:#181818;stroke-width:1.5;" width="130" x="305" y="848.3242"/><text fill="#000000" font-family="sans-serif" font-size="14" lengthAdjust="spacing" textLength="110" x="315" y="871.8594">VpcEndpoint (1)</text><path d="M255,527.6387 L265,527.6387 C280,527.6387 280,866.5684 295,866.5684 L305,866.5684 " fill="none" style="stroke:#181818;stroke-width:1.0;"/><path d="M158,640.6152 L168,640.6152 C183,640.6152 183,527.6387 198,527.6387 L208,527.6387 " fill="none" style="stroke:#181818;stroke-width:1.0;"/><rect fill="#F1F1F1" height="36.4883" rx="12.5" ry="12.5" style="stroke:#181818;stroke-width:1.5;" width="46" x="208" y="961.3008"/><text fill="#000000" font-family="sans-serif" font-size="14" lengthAdjust="spacing" textLength="26" x="218" y="984.8359">ECS</text><rect fill="#F1F1F1" height="36.4883" rx="12.5" ry="12.5" style="stroke:#181818;stroke-width:1.5;" width="92" x="304" y="904.8125"/><text fill="#000000" font-family="sans-serif" font-size="14" lengthAdjust="spacing" textLength="72" x="314" y="928.3477">Cluster (1)</text><path d="M254,979.5449 L264,979.5449 C279,979.5449 279,923.0566 294,923.0566 L304,923.0566 " fill="none" style="stroke:#181818;stroke-width:1.0;"/><rect fill="#F1F1F1" height="36.4883" rx="12.5" ry="12.5" style="stroke:#181818;stroke-width:1.5;" width="91" x="304" y="961.3008"/><text fill="#000000" font-family="sans-serif" font-size="14" lengthAdjust="spacing" textLength="71" x="314" y="984.8359">Service (1)</text><path d="M254,979.5449 L264,979.5449 C279,979.5449 279,979.5449 294,979.5449 L304,979.5449 " fill="none" style="stroke:#181818;stroke-width:1.0;"/><rect fill="#F1F1F1" height="36.4883" rx="12.5" ry="12.5" style="stroke:#181818;stroke-width:1.5;" width="142" x="304" y="1017.7891"/><text fill="#000000" font-family="sans-serif" font-size="14" lengthAdjust="spacing" textLength="122" x="314" y="1041.3242">TaskDefinition (1)</text><path d="M254,979.5449 L264,979.5449 C279,979.5449 279,1036.0332 294,1036.0332 L304,1036.0332 " fill="none" style="stroke:#181818;stroke-width:1.0;"/><path d="M158,640.6152 L168,640.6152 C183,640.6152 183,979.5449 198,979.5449 L208,979.5449 " fill="none" style="stroke:#181818;stroke-width:1.0;"/><rect fill="#F1F1F1" height="36.4883" rx="12.5" ry="12.5" style="stroke:#181818;stroke-width:1.5;" width="180" x="208" y="1130.7656"/><text fill="#000000" font-family="sans-serif" font-size="14" lengthAdjust="spacing" textLength="160" x="218" y="1154.3008">ElasticLoadBalancingV2</text><rect fill="#F1F1F1" height="36.4883" rx="12.5" ry="12.5" style="stroke:#181818;stroke-width:1.5;" width="97" x="438" y="1074.2773"/><text fill="#000000" font-family="sans-serif" font-size="14" lengthAdjust="spacing" textLength="77" x="448" y="1097.8125">Listener (1)</text><path d="M388,1149.0098 L398,1149.0098 C413,1149.0098 413,1092.5215 428,1092.5215 L438,1092.5215 " fill="none" style="stroke:#181818;stroke-width:1.0;"/><rect fill="#F1F1F1" height="36.4883" rx="12.5" ry="12.5" style="stroke:#181818;stroke-width:1.5;" width="134" x="438" y="1130.7656"/><text fill="#000000" font-family="sans-serif" font-size="14" lengthAdjust="spacing" textLength="114" x="448" y="1154.3008">LoadBalancer (1)</text><path d="M388,1149.0098 L398,1149.0098 C413,1149.0098 413,1149.0098 428,1149.0098 L438,1149.0098 " fill="none" style="stroke:#181818;stroke-width:1.0;"/><rect fill="#F1F1F1" height="36.4883" rx="12.5" ry="12.5" style="stroke:#181818;stroke-width:1.5;" width="131" x="438" y="1187.2539"/><text fill="#000000" font-family="sans-serif" font-size="14" lengthAdjust="spacing" textLength="111" x="448" y="1210.7891">TargetGroup (1)</text><path d="M388,1149.0098 L398,1149.0098 C413,1149.0098 413,1205.498 428,1205.498 L438,1205.498 " fill="none" style="stroke:#181818;stroke-width:1.0;"/><path d="M158,640.6152 L168,640.6152 C183,640.6152 183,1149.0098 198,1149.0098 L208,1149.0098 " fill="none" style="stroke:#181818;stroke-width:1.0;"/><rect fill="#F1F1F1" height="36.4883" rx="12.5" ry="12.5" style="stroke:#181818;stroke-width:1.5;" width="46" x="208" y="1187.2539"/><text fill="#000000" font-family="sans-serif" font-size="14" lengthAdjust="spacing" textLength="26" x="218" y="1210.7891">IAM</text><rect fill="#F1F1F1" height="36.4883" rx="12.5" ry="12.5" style="stroke:#181818;stroke-width:1.5;" width="73" x="304" y="1187.2539"/><text fill="#000000" font-family="sans-serif" font-size="14" lengthAdjust="spacing" textLength="53" x="314" y="1210.7891">Role (2)</text><path d="M254,1205.498 L264,1205.498 C279,1205.498 279,1205.498 294,1205.498 L304,1205.498 " fill="none" style="stroke:#181818;stroke-width:1.0;"/><path d="M158,640.6152 L168,640.6152 C183,640.6152 183,1205.498 198,1205.498 L208,1205.498 " fill="none" style="stroke:#181818;stroke-width:1.0;"/><path d="M62,640.6152 L72,640.6152 C87,640.6152 87,640.6152 102,640.6152 L112,640.6152 " fill="none" style="stroke:#181818;stroke-width:1.0;"/><!--MD5=[ab9173d3ecfcddf67f042b8634578d65]
@startmindmap
title Resources for project fargate-eventbridge
skinparam monochrome true
+ Infra
++ aws
+++ CloudWatchEvents
++++ EventBus (1)
+++ CloudWatchLogs
++++ LogGroup (1)
+++ EC2
++++ Vpc (1)
++++ InternetGateway (1)
++++ InternetGatewayAttachment (1)
++++ NatGateway (2)
++++ Subnet (4)
++++ RouteTable (4)
++++ RouteTableAssociation (4)
++++ Route (4)
++++ SecurityGroup (3)
++++ SecurityGroupRuleIngress (3)
++++ SecurityGroupRuleEgress (1)
++++ ElasticIpAddress (2)
++++ VpcEndpoint (1)
+++ ECS
++++ Cluster (1)
++++ Service (1)
++++ TaskDefinition (1)
+++ ElasticLoadBalancingV2
++++ Listener (1)
++++ LoadBalancer (1)
++++ TargetGroup (1)
+++ IAM
++++ Role (2)
@endmindmap

PlantUML version 1.2022.6(Tue Jun 21 12:34:49 COT 2022)
(GPL source distribution)
Java Runtime: Java(TM) SE Runtime Environment
JVM: Java HotSpot(TM) 64-Bit Server VM
Default Encoding: UTF-8
Language: en
Country: GB
--></g></svg>