<?xml version="1.0" encoding="UTF-8" standalone="no"?>
<!DOCTYPE svg PUBLIC "-//W3C//DTD SVG 1.1//EN"
 "http://www.w3.org/Graphics/SVG/1.1/DTD/svg11.dtd">
<!-- Generated by graphviz version 6.0.0 (20220910.1538)
 -->
<!-- Title: graphname Pages: 1 -->
<svg width="454pt" height="313pt"
 viewBox="0.00 0.00 454.00 313.00" xmlns="http://www.w3.org/2000/svg" xmlns:xlink="http://www.w3.org/1999/xlink">
<g id="graph0" class="graph" transform="scale(1 1) rotate(0) translate(4 309)">
<title>graphname</title>
<polygon fill="#fafafa" stroke="none" points="-4,4 -4,-309 450,-309 450,4 -4,4"/>
<text text-anchor="start" x="26" y="-280.4" font-family="Helvetica,sans-Serif" font-weight="bold" font-size="22.00" fill="#383838">Project dms&#45;postgres&#45;secret&#45;manager</text>
<text text-anchor="start" x="219.5" y="-264.8" font-family="Helvetica,sans-Serif" font-size="14.00"> &#160;</text>
<text text-anchor="start" x="26" y="-243.2" font-family="Helvetica,sans-Serif" font-weight="bold" font-size="16.00" fill="#707070">Target Diagram</text>
<g id="clust1" class="cluster">
<title>cluster_aws</title>
<polygon fill="#f5f5f5" stroke="#f5f5f5" points="8,-8 8,-221 438,-221 438,-8 8,-8"/>
<text text-anchor="start" x="161" y="-23" font-family="Helvetica,sans-Serif" font-weight="bold" font-size="20.00" fill="#707070">Provider aws</text>
</g>
<g id="clust2" class="cluster">
<title>cluster_aws_</title>
<polygon fill="#eeeeee" stroke="#eeeeee" points="16,-54 16,-213 430,-213 430,-54 16,-54"/>
<text text-anchor="start" x="222.86" y="-58.3" font-family="Helvetica,sans-Serif" font-size="1.00" fill="#383838"> </text>
</g>
<!-- Endpoint::postgres&#45;endpoint -->
<g id="node1" class="node">
<title>Endpoint::postgres&#45;endpoint</title>
<polygon fill="#e5e5e5" stroke="#dddddd" points="178,-167 24,-167 24,-109 178,-109 178,-167"/>
<text text-anchor="start" x="36" y="-147.2" font-family="Helvetica,sans-Serif" font-weight="bold" font-size="16.00" fill="#707070">DMS::Endpoint</text>
<text text-anchor="start" x="36" y="-122.2" font-family="Helvetica,sans-Serif" font-size="16.00" fill="#383838">postgres&#45;endpoint</text>
</g>
<!-- Role::role&#45;secretsmanager -->
<g id="node2" class="node">
<title>Role::role&#45;secretsmanager</title>
<polygon fill="#e5e5e5" stroke="#dddddd" points="404.5,-129 231.5,-129 231.5,-71 404.5,-71 404.5,-129"/>
<text text-anchor="start" x="244" y="-109.2" font-family="Helvetica,sans-Serif" font-weight="bold" font-size="16.00" fill="#707070">IAM::Role</text>
<text text-anchor="start" x="244" y="-84.2" font-family="Helvetica,sans-Serif" font-size="16.00" fill="#383838">role&#45;secretsmanager</text>
</g>
<!-- Endpoint::postgres&#45;endpoint&#45;&gt;Role::role&#45;secretsmanager -->
<g id="edge1" class="edge">
<title>Endpoint::postgres&#45;endpoint&#45;&gt;Role::role&#45;secretsmanager</title>
<path fill="none" stroke="#707070" d="M178.1,-124.55C192.14,-122.07 206.96,-119.45 221.48,-116.88"/>
<polygon fill="#707070" stroke="#707070" points="222.23,-120.3 231.47,-115.12 221.02,-113.41 222.23,-120.3"/>
</g>
<!-- Secret::prod/db -->
<g id="node3" class="node">
<title>Secret::prod/db</title>
<polygon fill="#e5e5e5" stroke="#dddddd" points="422,-205 214,-205 214,-147 422,-147 422,-205"/>
<text text-anchor="start" x="226" y="-185.2" font-family="Helvetica,sans-Serif" font-weight="bold" font-size="16.00" fill="#707070">SecretsManager::Secret</text>
<text text-anchor="start" x="226" y="-160.2" font-family="Helvetica,sans-Serif" font-size="16.00" fill="#383838">prod/db</text>
</g>
<!-- Endpoint::postgres&#45;endpoint&#45;&gt;Secret::prod/db -->
<g id="edge2" class="edge">
<title>Endpoint::postgres&#45;endpoint&#45;&gt;Secret::prod/db</title>
<path fill="none" stroke="#707070" d="M178.1,-151.45C186.53,-152.94 195.24,-154.48 203.99,-156.03"/>
<polygon fill="#707070" stroke="#707070" points="203.43,-159.48 213.89,-157.78 204.65,-152.59 203.43,-159.48"/>
</g>
</g>
</svg>
