<?xml version="1.0" encoding="UTF-8" standalone="no"?>
<!DOCTYPE svg PUBLIC "-//W3C//DTD SVG 1.1//EN"
 "http://www.w3.org/Graphics/SVG/1.1/DTD/svg11.dtd">
<!-- Generated by graphviz version 2.44.1 (20200629.0846)
 -->
<!-- Title: graphname Pages: 1 -->
<svg width="825pt" height="601pt"
 viewBox="0.00 0.00 825.00 601.00" xmlns="http://www.w3.org/2000/svg" xmlns:xlink="http://www.w3.org/1999/xlink">
<g id="graph0" class="graph" transform="scale(1 1) rotate(0) translate(4 597)">
<title>graphname</title>
<polygon fill="#fafafa" stroke="transparent" points="-4,4 -4,-597 821,-597 821,4 -4,4"/>
<text text-anchor="start" x="330.5" y="-568.4" font-family="Helvetica,sans-Serif" font-weight="bold" font-size="22.00" fill="#383838">Project volume</text>
<text text-anchor="start" x="405" y="-552.8" font-family="Helvetica,sans-Serif" font-size="14.00"> &#160;</text>
<text text-anchor="start" x="330.5" y="-531.2" font-family="Helvetica,sans-Serif" font-weight="bold" font-size="16.00" fill="#707070">Live Diagram</text>
<g id="clust1" class="cluster">
<title>cluster_aws</title>
<polygon fill="#f5f5f5" stroke="#f5f5f5" points="8,-8 8,-509 809,-509 809,-8 8,-8"/>
<text text-anchor="start" x="346.5" y="-23" font-family="Helvetica,sans-Serif" font-weight="bold" font-size="20.00" fill="#707070">Provider aws</text>
</g>
<g id="clust2" class="cluster">
<title>cluster_aws_</title>
<polygon fill="#eeeeee" stroke="#eeeeee" points="16,-54 16,-501 801,-501 801,-54 16,-54"/>
<text text-anchor="start" x="408.36" y="-58.3" font-family="Helvetica,sans-Serif" font-size="1.00" fill="#383838"> </text>
</g>
<!-- Image::::Amazon Linux 2 -->
<g id="node1" class="node">
<title>Image::::Amazon Linux 2</title>
<polygon fill="#e5e5e5" stroke="#dddddd" points="405,-493 264,-493 264,-435 405,-435 405,-493"/>
<text text-anchor="start" x="276.5" y="-473.2" font-family="Helvetica,sans-Serif" font-weight="bold" font-size="16.00" fill="#707070">Image</text>
<text text-anchor="start" x="276.5" y="-448.2" font-family="Helvetica,sans-Serif" font-size="16.00" fill="#383838">Amazon Linux 2</text>
</g>
<!-- Instance::::server&#45;4&#45;test&#45;volume -->
<g id="node2" class="node">
<title>Instance::::server&#45;4&#45;test&#45;volume</title>
<polygon fill="#e5e5e5" stroke="#dddddd" points="197,-349 24,-349 24,-291 197,-291 197,-349"/>
<text text-anchor="start" x="36.5" y="-329.2" font-family="Helvetica,sans-Serif" font-weight="bold" font-size="16.00" fill="#707070">Instance</text>
<text text-anchor="start" x="36.5" y="-304.2" font-family="Helvetica,sans-Serif" font-size="16.00" fill="#383838">server&#45;4&#45;test&#45;volume</text>
</g>
<!-- Instance::::server&#45;4&#45;test&#45;volume&#45;&gt;Image::::Amazon Linux 2 -->
<g id="edge1" class="edge">
<title>Instance::::server&#45;4&#45;test&#45;volume&#45;&gt;Image::::Amazon Linux 2</title>
<path fill="none" stroke="#707070" d="M141.57,-349.25C165.07,-371.01 199.3,-400.39 233,-421 239.77,-425.14 247.02,-429.08 254.4,-432.77"/>
<polygon fill="#707070" stroke="#707070" points="253.26,-436.11 263.79,-437.3 256.31,-429.8 253.26,-436.11"/>
</g>
<!-- Subnet::::subnet&#45;default -->
<g id="node4" class="node">
<title>Subnet::::subnet&#45;default</title>
<polygon fill="#e5e5e5" stroke="#dddddd" points="626,-349 499,-349 499,-291 626,-291 626,-349"/>
<text text-anchor="start" x="511.5" y="-329.2" font-family="Helvetica,sans-Serif" font-weight="bold" font-size="16.00" fill="#707070">Subnet</text>
<text text-anchor="start" x="511.5" y="-304.2" font-family="Helvetica,sans-Serif" font-size="16.00" fill="#383838">subnet&#45;default</text>
</g>
<!-- Instance::::server&#45;4&#45;test&#45;volume&#45;&gt;Subnet::::subnet&#45;default -->
<g id="edge3" class="edge">
<title>Instance::::server&#45;4&#45;test&#45;volume&#45;&gt;Subnet::::subnet&#45;default</title>
<path fill="none" stroke="#707070" d="M197.2,-320C281.52,-320 408.87,-320 488.5,-320"/>
<polygon fill="#707070" stroke="#707070" points="488.93,-323.5 498.93,-320 488.93,-316.5 488.93,-323.5"/>
</g>
<!-- Volume::::vol&#45;0dc2999254334e778 -->
<g id="node5" class="node">
<title>Volume::::vol&#45;0dc2999254334e778</title>
<polygon fill="#e5e5e5" stroke="#dddddd" points="436,-225 233,-225 233,-167 436,-167 436,-225"/>
<text text-anchor="start" x="245.5" y="-205.2" font-family="Helvetica,sans-Serif" font-weight="bold" font-size="16.00" fill="#707070">Volume</text>
<text text-anchor="start" x="245.5" y="-180.2" font-family="Helvetica,sans-Serif" font-size="16.00" fill="#383838">vol&#45;0dc2999254334e778</text>
</g>
<!-- Instance::::server&#45;4&#45;test&#45;volume&#45;&gt;Volume::::vol&#45;0dc2999254334e778 -->
<g id="edge4" class="edge">
<title>Instance::::server&#45;4&#45;test&#45;volume&#45;&gt;Volume::::vol&#45;0dc2999254334e778</title>
<path fill="none" stroke="#707070" d="M147.41,-290.9C170.81,-272.89 202.54,-250.2 233,-234 235.92,-232.45 238.92,-230.92 241.98,-229.44"/>
<polygon fill="#707070" stroke="#707070" points="243.7,-232.5 251.27,-225.09 240.73,-226.16 243.7,-232.5"/>
</g>
<!-- Volume::::volume&#45;test&#45;volume -->
<g id="node6" class="node">
<title>Volume::::volume&#45;test&#45;volume</title>
<polygon fill="#e5e5e5" stroke="#dddddd" points="417.5,-301 251.5,-301 251.5,-243 417.5,-243 417.5,-301"/>
<text text-anchor="start" x="263.5" y="-281.2" font-family="Helvetica,sans-Serif" font-weight="bold" font-size="16.00" fill="#707070">Volume</text>
<text text-anchor="start" x="263.5" y="-256.2" font-family="Helvetica,sans-Serif" font-size="16.00" fill="#383838">volume&#45;test&#45;volume</text>
</g>
<!-- Instance::::server&#45;4&#45;test&#45;volume&#45;&gt;Volume::::volume&#45;test&#45;volume -->
<g id="edge5" class="edge">
<title>Instance::::server&#45;4&#45;test&#45;volume&#45;&gt;Volume::::volume&#45;test&#45;volume</title>
<path fill="none" stroke="#707070" d="M197.01,-301.51C211.5,-298.38 226.6,-295.11 241.26,-291.94"/>
<polygon fill="#707070" stroke="#707070" points="242.28,-295.3 251.32,-289.77 240.8,-288.46 242.28,-295.3"/>
</g>
<!-- Vpc::::vpc&#45;default -->
<g id="node7" class="node">
<title>Vpc::::vpc&#45;default</title>
<polygon fill="#e5e5e5" stroke="#dddddd" points="793,-349 689,-349 689,-291 793,-291 793,-349"/>
<text text-anchor="start" x="701" y="-329.2" font-family="Helvetica,sans-Serif" font-weight="bold" font-size="16.00" fill="#707070">Vpc</text>
<text text-anchor="start" x="701" y="-304.2" font-family="Helvetica,sans-Serif" font-size="16.00" fill="#383838">vpc&#45;default</text>
</g>
<!-- Instance::::server&#45;4&#45;test&#45;volume&#45;&gt;Vpc::::vpc&#45;default -->
<g id="edge2" class="edge">
<title>Instance::::server&#45;4&#45;test&#45;volume&#45;&gt;Vpc::::vpc&#45;default</title>
<path fill="none" stroke="#707070" d="M123.32,-290.86C140.77,-252.24 177.5,-185.75 233,-158 273.35,-137.83 392.23,-147.07 436,-158 533.96,-182.47 634.93,-245.13 692.34,-284.96"/>
<polygon fill="#707070" stroke="#707070" points="690.63,-288.03 700.83,-290.9 694.64,-282.3 690.63,-288.03"/>
</g>
<!-- NetworkInterface::::eni&#45;0d31efad764b057a1 -->
<g id="node10" class="node">
<title>NetworkInterface::::eni&#45;0d31efad764b057a1</title>
<polygon fill="#e5e5e5" stroke="#dddddd" points="434.5,-397 234.5,-397 234.5,-339 434.5,-339 434.5,-397"/>
<text text-anchor="start" x="246.5" y="-377.2" font-family="Helvetica,sans-Serif" font-weight="bold" font-size="16.00" fill="#707070">NetworkInterface</text>
<text text-anchor="start" x="246.5" y="-352.2" font-family="Helvetica,sans-Serif" font-size="16.00" fill="#383838">eni&#45;0d31efad764b057a1</text>
</g>
<!-- Instance::::server&#45;4&#45;test&#45;volume&#45;&gt;NetworkInterface::::eni&#45;0d31efad764b057a1 -->
<g id="edge6" class="edge">
<title>Instance::::server&#45;4&#45;test&#45;volume&#45;&gt;NetworkInterface::::eni&#45;0d31efad764b057a1</title>
<path fill="none" stroke="#707070" d="M197.01,-338.49C205.98,-340.43 215.19,-342.42 224.38,-344.41"/>
<polygon fill="#707070" stroke="#707070" points="223.81,-347.86 234.33,-346.56 225.29,-341.02 223.81,-347.86"/>
</g>
<!-- SecurityGroup::::sg&#45;default&#45;vpc&#45;default -->
<g id="node11" class="node">
<title>SecurityGroup::::sg&#45;default&#45;vpc&#45;default</title>
<polygon fill="#e5e5e5" stroke="#dddddd" points="653,-445 472,-445 472,-387 653,-387 653,-445"/>
<text text-anchor="start" x="484.5" y="-425.2" font-family="Helvetica,sans-Serif" font-weight="bold" font-size="16.00" fill="#707070">SecurityGroup</text>
<text text-anchor="start" x="484.5" y="-400.2" font-family="Helvetica,sans-Serif" font-size="16.00" fill="#383838">sg&#45;default&#45;vpc&#45;default</text>
</g>
<!-- Instance::::server&#45;4&#45;test&#45;volume&#45;&gt;SecurityGroup::::sg&#45;default&#45;vpc&#45;default -->
<g id="edge7" class="edge">
<title>Instance::::server&#45;4&#45;test&#45;volume&#45;&gt;SecurityGroup::::sg&#45;default&#45;vpc&#45;default</title>
<path fill="none" stroke="#707070" d="M141.62,-349.04C164.63,-369.16 198.2,-394.35 233,-406 273.86,-419.69 380.86,-420.7 461.72,-419.24"/>
<polygon fill="#707070" stroke="#707070" points="462.02,-422.73 471.95,-419.04 461.88,-415.73 462.02,-422.73"/>
</g>
<!-- InternetGateway::::default -->
<g id="node3" class="node">
<title>InternetGateway::::default</title>
<polygon fill="#e5e5e5" stroke="#dddddd" points="637.5,-129 487.5,-129 487.5,-71 637.5,-71 637.5,-129"/>
<text text-anchor="start" x="499.5" y="-109.2" font-family="Helvetica,sans-Serif" font-weight="bold" font-size="16.00" fill="#707070">InternetGateway</text>
<text text-anchor="start" x="499.5" y="-84.2" font-family="Helvetica,sans-Serif" font-size="16.00" fill="#383838">default</text>
</g>
<!-- InternetGateway::::default&#45;&gt;Vpc::::vpc&#45;default -->
<g id="edge8" class="edge">
<title>InternetGateway::::default&#45;&gt;Vpc::::vpc&#45;default</title>
<path fill="none" stroke="#707070" d="M635.78,-129.22C641.99,-133.32 647.86,-137.9 653,-143 692.15,-181.8 716.47,-241.8 729.12,-280.99"/>
<polygon fill="#707070" stroke="#707070" points="725.84,-282.22 732.16,-290.72 732.52,-280.13 725.84,-282.22"/>
</g>
<!-- Subnet::::subnet&#45;default&#45;&gt;Vpc::::vpc&#45;default -->
<g id="edge13" class="edge">
<title>Subnet::::subnet&#45;default&#45;&gt;Vpc::::vpc&#45;default</title>
<path fill="none" stroke="#707070" d="M626.22,-320C643.21,-320 661.57,-320 678.49,-320"/>
<polygon fill="#707070" stroke="#707070" points="678.81,-323.5 688.81,-320 678.81,-316.5 678.81,-323.5"/>
</g>
<!-- Policy::::lambda&#45;policy -->
<g id="node8" class="node">
<title>Policy::::lambda&#45;policy</title>
<polygon fill="#e5e5e5" stroke="#dddddd" points="397,-129 272,-129 272,-71 397,-71 397,-129"/>
<text text-anchor="start" x="284.5" y="-109.2" font-family="Helvetica,sans-Serif" font-weight="bold" font-size="16.00" fill="#707070">Policy</text>
<text text-anchor="start" x="284.5" y="-84.2" font-family="Helvetica,sans-Serif" font-size="16.00" fill="#383838">lambda&#45;policy</text>
</g>
<!-- Role::::lambda&#45;role -->
<g id="node9" class="node">
<title>Role::::lambda&#45;role</title>
<polygon fill="#e5e5e5" stroke="#dddddd" points="165.5,-129 55.5,-129 55.5,-71 165.5,-71 165.5,-129"/>
<text text-anchor="start" x="67.5" y="-109.2" font-family="Helvetica,sans-Serif" font-weight="bold" font-size="16.00" fill="#707070">Role</text>
<text text-anchor="start" x="67.5" y="-84.2" font-family="Helvetica,sans-Serif" font-size="16.00" fill="#383838">lambda&#45;role</text>
</g>
<!-- Role::::lambda&#45;role&#45;&gt;Policy::::lambda&#45;policy -->
<g id="edge14" class="edge">
<title>Role::::lambda&#45;role&#45;&gt;Policy::::lambda&#45;policy</title>
<path fill="none" stroke="#707070" d="M165.52,-100C194.35,-100 230.21,-100 261.39,-100"/>
<polygon fill="#707070" stroke="#707070" points="261.77,-103.5 271.77,-100 261.77,-96.5 261.77,-103.5"/>
</g>
<!-- NetworkInterface::::eni&#45;0d31efad764b057a1&#45;&gt;Subnet::::subnet&#45;default -->
<g id="edge11" class="edge">
<title>NetworkInterface::::eni&#45;0d31efad764b057a1&#45;&gt;Subnet::::subnet&#45;default</title>
<path fill="none" stroke="#707070" d="M434.63,-346.95C452.87,-343.07 471.6,-339.09 488.88,-335.42"/>
<polygon fill="#707070" stroke="#707070" points="489.82,-338.8 498.87,-333.3 488.37,-331.95 489.82,-338.8"/>
</g>
<!-- NetworkInterface::::eni&#45;0d31efad764b057a1&#45;&gt;Vpc::::vpc&#45;default -->
<g id="edge10" class="edge">
<title>NetworkInterface::::eni&#45;0d31efad764b057a1&#45;&gt;Vpc::::vpc&#45;default</title>
<path fill="none" stroke="#707070" d="M434.69,-374.44C497.92,-376.21 581.18,-374.19 653,-358 661.64,-356.05 670.5,-353.25 679.09,-350.03"/>
<polygon fill="#707070" stroke="#707070" points="680.64,-353.18 688.65,-346.24 678.06,-346.67 680.64,-353.18"/>
</g>
<!-- NetworkInterface::::eni&#45;0d31efad764b057a1&#45;&gt;SecurityGroup::::sg&#45;default&#45;vpc&#45;default -->
<g id="edge9" class="edge">
<title>NetworkInterface::::eni&#45;0d31efad764b057a1&#45;&gt;SecurityGroup::::sg&#45;default&#45;vpc&#45;default</title>
<path fill="none" stroke="#707070" d="M434.63,-389.05C443.59,-390.96 452.67,-392.89 461.64,-394.79"/>
<polygon fill="#707070" stroke="#707070" points="461.19,-398.27 471.7,-396.93 462.65,-391.43 461.19,-398.27"/>
</g>
<!-- SecurityGroup::::sg&#45;default&#45;vpc&#45;default&#45;&gt;Vpc::::vpc&#45;default -->
<g id="edge12" class="edge">
<title>SecurityGroup::::sg&#45;default&#45;vpc&#45;default&#45;&gt;Vpc::::vpc&#45;default</title>
<path fill="none" stroke="#707070" d="M626.01,-386.95C635.14,-382.42 644.37,-377.69 653,-373 663.56,-367.26 674.65,-360.84 685.24,-354.49"/>
<polygon fill="#707070" stroke="#707070" points="687.25,-357.37 693.99,-349.2 683.62,-351.38 687.25,-357.37"/>
</g>
</g>
</svg>
