<?xml version="1.0" encoding="UTF-8" standalone="no"?>
<!DOCTYPE svg PUBLIC "-//W3C//DTD SVG 1.1//EN"
 "http://www.w3.org/Graphics/SVG/1.1/DTD/svg11.dtd">
<!-- Generated by graphviz version 7.1.0 (20230121.1956)
 -->
<!-- Title: graphname Pages: 1 -->
<svg width="612pt" height="237pt"
 viewBox="0.00 0.00 612.00 237.00" xmlns="http://www.w3.org/2000/svg" xmlns:xlink="http://www.w3.org/1999/xlink">
<g id="graph0" class="graph" transform="scale(1 1) rotate(0) translate(4 233)">
<title>graphname</title>
<polygon fill="#fafafa" stroke="none" points="-4,4 -4,-233 608,-233 608,4 -4,4"/>
<text text-anchor="start" x="95" y="-204.4" font-family="Helvetica,sans-Serif" font-weight="bold" font-size="22.00" fill="#383838">Project apigw&#45;rest&#45;api&#45;mock&#45;integration</text>
<text text-anchor="start" x="298.5" y="-188.8" font-family="Helvetica,sans-Serif" font-size="14.00"> &#160;</text>
<text text-anchor="start" x="95" y="-167.2" font-family="Helvetica,sans-Serif" font-weight="bold" font-size="16.00" fill="#707070">Target Diagram</text>
<g id="clust1" class="cluster">
<title>cluster_aws</title>
<polygon fill="#f5f5f5" stroke="#f5f5f5" points="8,-8 8,-145 596,-145 596,-8 8,-8"/>
<text text-anchor="start" x="240" y="-23" font-family="Helvetica,sans-Serif" font-weight="bold" font-size="20.00" fill="#707070">Provider aws</text>
</g>
<g id="clust2" class="cluster">
<title>cluster_aws_</title>
<polygon fill="#eeeeee" stroke="#eeeeee" points="16,-54 16,-137 588,-137 588,-54 16,-54"/>
<text text-anchor="start" x="301.86" y="-58.3" font-family="Helvetica,sans-Serif" font-size="1.00" fill="#383838"> </text>
</g>
<!-- RestApi::apigw&#45;rest&#45;api&#45;mock&#45;integration -->
<g id="node1" class="node">
<title>RestApi::apigw&#45;rest&#45;api&#45;mock&#45;integration</title>
<polygon fill="#e5e5e5" stroke="#dddddd" points="580,-129 329,-129 329,-71 580,-71 580,-129"/>
<text text-anchor="start" x="341.5" y="-109.2" font-family="Helvetica,sans-Serif" font-weight="bold" font-size="16.00" fill="#707070">APIGateway::RestApi</text>
<text text-anchor="start" x="341.5" y="-84.2" font-family="Helvetica,sans-Serif" font-size="16.00" fill="#383838">apigw&#45;rest&#45;api&#45;mock&#45;integration</text>
</g>
<!-- Stage::apigw&#45;rest&#45;api&#45;mock&#45;integration::Prod -->
<g id="node2" class="node">
<title>Stage::apigw&#45;rest&#45;api&#45;mock&#45;integration::Prod</title>
<polygon fill="#e5e5e5" stroke="#dddddd" points="293,-129 24,-129 24,-71 293,-71 293,-129"/>
<text text-anchor="start" x="36.5" y="-109.2" font-family="Helvetica,sans-Serif" font-weight="bold" font-size="16.00" fill="#707070">APIGateway::Stage</text>
<text text-anchor="start" x="36.5" y="-84.2" font-family="Helvetica,sans-Serif" font-size="16.00" fill="#383838">apigw&#45;rest&#45;api&#45;mock&#45;integration:...</text>
</g>
<!-- Stage::apigw&#45;rest&#45;api&#45;mock&#45;integration::Prod&#45;&gt;RestApi::apigw&#45;rest&#45;api&#45;mock&#45;integration -->
<g id="edge1" class="edge">
<title>Stage::apigw&#45;rest&#45;api&#45;mock&#45;integration::Prod&#45;&gt;RestApi::apigw&#45;rest&#45;api&#45;mock&#45;integration</title>
<path fill="none" stroke="#707070" d="M293.17,-100C301.21,-100 309.3,-100 317.35,-100"/>
<polygon fill="#707070" stroke="#707070" points="317.19,-103.5 327.19,-100 317.19,-96.5 317.19,-103.5"/>
</g>
</g>
</svg>
