<?xml version="1.0" encoding="UTF-8" standalone="no"?>
<!DOCTYPE svg PUBLIC "-//W3C//DTD SVG 1.1//EN"
 "http://www.w3.org/Graphics/SVG/1.1/DTD/svg11.dtd">
<!-- Generated by graphviz version 6.0.0 (20220910.1538)
 -->
<!-- Title: graphname Pages: 1 -->
<svg width="464pt" height="561pt"
 viewBox="0.00 0.00 464.00 561.00" xmlns="http://www.w3.org/2000/svg" xmlns:xlink="http://www.w3.org/1999/xlink">
<g id="graph0" class="graph" transform="scale(1 1) rotate(0) translate(4 557)">
<title>graphname</title>
<polygon fill="#fafafa" stroke="none" points="-4,4 -4,-557 460,-557 460,4 -4,4"/>
<text text-anchor="start" x="162" y="-528.4" font-family="Helvetica,sans-Serif" font-weight="bold" font-size="22.00" fill="#383838">Project table</text>
<text text-anchor="start" x="224" y="-512.8" font-family="Helvetica,sans-Serif" font-size="14.00"> &#160;</text>
<text text-anchor="start" x="162" y="-491.2" font-family="Helvetica,sans-Serif" font-weight="bold" font-size="16.00" fill="#707070">Target Diagram</text>
<g id="clust1" class="cluster">
<title>cluster_aws</title>
<polygon fill="#f5f5f5" stroke="#f5f5f5" points="8,-8 8,-469 448,-469 448,-8 8,-8"/>
<text text-anchor="start" x="166" y="-23" font-family="Helvetica,sans-Serif" font-weight="bold" font-size="20.00" fill="#707070">Provider aws</text>
</g>
<g id="clust2" class="cluster">
<title>cluster_aws_</title>
<polygon fill="#eeeeee" stroke="#eeeeee" points="16,-54 16,-461 440,-461 440,-54 16,-54"/>
<text text-anchor="start" x="227.86" y="-58.3" font-family="Helvetica,sans-Serif" font-size="1.00" fill="#383838"> </text>
</g>
<!-- Table::myTable -->
<g id="node1" class="node">
<title>Table::myTable</title>
<polygon fill="#e5e5e5" stroke="#dddddd" points="432,-129 271,-129 271,-71 432,-71 432,-129"/>
<text text-anchor="start" x="283.5" y="-109.2" font-family="Helvetica,sans-Serif" font-weight="bold" font-size="16.00" fill="#707070">DynamoDB::Table</text>
<text text-anchor="start" x="283.5" y="-84.2" font-family="Helvetica,sans-Serif" font-size="16.00" fill="#383838">myTable</text>
</g>
<!-- TableItem::myTable::{ -->
<g id="node2" class="node">
<title>TableItem::myTable::{</title>
<polygon fill="#e5e5e5" stroke="#dddddd" points="202.5,-453 56.5,-453 56.5,-417 202.5,-417 202.5,-453"/>
<text text-anchor="middle" x="129.5" y="-431.3" font-family="Helvetica,sans-Serif" font-size="14.00">TableItem::myTable::{</text>
</g>
<!-- Id -->
<g id="node3" class="node">
<title>Id</title>
<polygon fill="#e5e5e5" stroke="#dddddd" points="156.5,-399 102.5,-399 102.5,-363 156.5,-363 156.5,-399"/>
<text text-anchor="middle" x="129.5" y="-377.3" font-family="Helvetica,sans-Serif" font-size="14.00">Id</text>
</g>
<!-- :{ -->
<g id="node4" class="node">
<title>:{</title>
<polygon fill="#e5e5e5" stroke="#dddddd" points="156.5,-345 102.5,-345 102.5,-309 156.5,-309 156.5,-345"/>
<text text-anchor="middle" x="129.5" y="-323.3" font-family="Helvetica,sans-Serif" font-size="14.00">:{</text>
</g>
<!-- S -->
<g id="node5" class="node">
<title>S</title>
<polygon fill="#e5e5e5" stroke="#dddddd" points="156.5,-291 102.5,-291 102.5,-255 156.5,-255 156.5,-291"/>
<text text-anchor="middle" x="129.5" y="-269.3" font-family="Helvetica,sans-Serif" font-size="14.00">S</text>
</g>
<!-- : -->
<g id="node6" class="node">
<title>:</title>
<polygon fill="#e5e5e5" stroke="#dddddd" points="156.5,-237 102.5,-237 102.5,-201 156.5,-201 156.5,-237"/>
<text text-anchor="middle" x="129.5" y="-215.3" font-family="Helvetica,sans-Serif" font-size="14.00">:</text>
</g>
<!-- 123 -->
<g id="node7" class="node">
<title>123</title>
<polygon fill="#e5e5e5" stroke="#dddddd" points="156.5,-183 102.5,-183 102.5,-147 156.5,-147 156.5,-183"/>
<text text-anchor="middle" x="129.5" y="-161.3" font-family="Helvetica,sans-Serif" font-size="14.00">123</text>
</g>
<!-- }} -->
<g id="node8" class="node">
<title>}}</title>
<polygon fill="#e5e5e5" stroke="#dddddd" points="235,-129 24,-129 24,-71 235,-71 235,-129"/>
<text text-anchor="start" x="36.5" y="-109.2" font-family="Helvetica,sans-Serif" font-weight="bold" font-size="16.00" fill="#707070">DynamoDB::TableItem</text>
<text text-anchor="start" x="36.5" y="-84.2" font-family="Helvetica,sans-Serif" font-size="16.00" fill="#383838">myTable::{&quot;Id&quot;:{&quot;S&quot;:&quot;123&quot;}}</text>
</g>
<!-- }}&#45;&gt;Table::myTable -->
<g id="edge1" class="edge">
<title>}}&#45;&gt;Table::myTable</title>
<path fill="none" stroke="#707070" d="M235.02,-100C243.61,-100 252.25,-100 260.72,-100"/>
<polygon fill="#707070" stroke="#707070" points="260.96,-103.5 270.96,-100 260.96,-96.5 260.96,-103.5"/>
</g>
</g>
</svg>
