<?xml version="1.0" encoding="UTF-8" standalone="no"?>
<!DOCTYPE svg PUBLIC "-//W3C//DTD SVG 1.1//EN"
 "http://www.w3.org/Graphics/SVG/1.1/DTD/svg11.dtd">
<!-- Generated by graphviz version 6.0.0 (20220910.1538)
 -->
<!-- Title: graphname Pages: 1 -->
<svg width="505pt" height="313pt"
 viewBox="0.00 0.00 505.00 313.00" xmlns="http://www.w3.org/2000/svg" xmlns:xlink="http://www.w3.org/1999/xlink">
<g id="graph0" class="graph" transform="scale(1 1) rotate(0) translate(4 309)">
<title>graphname</title>
<polygon fill="#fafafa" stroke="none" points="-4,4 -4,-309 501,-309 501,4 -4,4"/>
<text text-anchor="start" x="119.5" y="-280.4" font-family="Helvetica,sans-Serif" font-weight="bold" font-size="22.00" fill="#383838">Project ssoadmin&#45;simple</text>
<text text-anchor="start" x="245" y="-264.8" font-family="Helvetica,sans-Serif" font-size="14.00"> &#160;</text>
<text text-anchor="start" x="119.5" y="-243.2" font-family="Helvetica,sans-Serif" font-weight="bold" font-size="16.00" fill="#707070">Target Diagram</text>
<g id="clust1" class="cluster">
<title>cluster_aws</title>
<polygon fill="#f5f5f5" stroke="#f5f5f5" points="8,-8 8,-221 489,-221 489,-8 8,-8"/>
<text text-anchor="start" x="186.5" y="-23" font-family="Helvetica,sans-Serif" font-weight="bold" font-size="20.00" fill="#707070">Provider aws</text>
</g>
<g id="clust2" class="cluster">
<title>cluster_aws_</title>
<polygon fill="#eeeeee" stroke="#eeeeee" points="16,-54 16,-213 481,-213 481,-54 16,-54"/>
<text text-anchor="start" x="248.36" y="-58.3" font-family="Helvetica,sans-Serif" font-size="1.00" fill="#383838"> </text>
</g>
<!-- User::gc&#45;user -->
<g id="node1" class="node">
<title>User::gc&#45;user</title>
<polygon fill="#e5e5e5" stroke="#dddddd" points="222.5,-205 54.5,-205 54.5,-147 222.5,-147 222.5,-205"/>
<text text-anchor="start" x="66.5" y="-185.2" font-family="Helvetica,sans-Serif" font-weight="bold" font-size="16.00" fill="#707070">IdentityStore::User</text>
<text text-anchor="start" x="66.5" y="-160.2" font-family="Helvetica,sans-Serif" font-size="16.00" fill="#383838">gc&#45;user</text>
</g>
<!-- Instance::default -->
<g id="node2" class="node">
<title>Instance::default</title>
<polygon fill="#e5e5e5" stroke="#dddddd" points="473,-167 289,-167 289,-109 473,-109 473,-167"/>
<text text-anchor="start" x="301" y="-147.2" font-family="Helvetica,sans-Serif" font-weight="bold" font-size="16.00" fill="#707070">SSOAdmin::Instance</text>
<text text-anchor="start" x="301" y="-122.2" font-family="Helvetica,sans-Serif" font-size="16.00" fill="#383838">default</text>
</g>
<!-- User::gc&#45;user&#45;&gt;Instance::default -->
<g id="edge1" class="edge">
<title>User::gc&#45;user&#45;&gt;Instance::default</title>
<path fill="none" stroke="#707070" d="M222.6,-162.87C240.67,-160.01 259.98,-156.96 278.67,-154.01"/>
<polygon fill="#707070" stroke="#707070" points="279.34,-157.45 288.67,-152.43 278.25,-150.53 279.34,-157.45"/>
</g>
<!-- PermissionSet::ViewOnlyAccess -->
<g id="node3" class="node">
<title>PermissionSet::ViewOnlyAccess</title>
<polygon fill="#e5e5e5" stroke="#dddddd" points="253,-129 24,-129 24,-71 253,-71 253,-129"/>
<text text-anchor="start" x="36.5" y="-109.2" font-family="Helvetica,sans-Serif" font-weight="bold" font-size="16.00" fill="#707070">SSOAdmin::PermissionSet</text>
<text text-anchor="start" x="36.5" y="-84.2" font-family="Helvetica,sans-Serif" font-size="16.00" fill="#383838">ViewOnlyAccess</text>
</g>
<!-- PermissionSet::ViewOnlyAccess&#45;&gt;Instance::default -->
<g id="edge2" class="edge">
<title>PermissionSet::ViewOnlyAccess&#45;&gt;Instance::default</title>
<path fill="none" stroke="#707070" d="M253.06,-117.94C261.71,-119.31 270.41,-120.68 278.98,-122.04"/>
<polygon fill="#707070" stroke="#707070" points="278.54,-125.51 288.97,-123.62 279.63,-118.6 278.54,-125.51"/>
</g>
</g>
</svg>
