<?xml version="1.0" encoding="UTF-8" standalone="no"?><svg xmlns="http://www.w3.org/2000/svg" xmlns:xlink="http://www.w3.org/1999/xlink" contentStyleType="text/css" height="398px" preserveAspectRatio="none" style="width:542px;height:398px;background:#FFFFFF;" version="1.1" viewBox="0 0 542 398" width="542px" zoomAndPan="magnify"><defs/><g><rect height="26.4883" style="stroke:#00000000;stroke-width:1.0;fill:none;" width="297" x="96" y="15"/><text fill="#000000" font-family="sans-serif" font-size="14" font-weight="bold" lengthAdjust="spacing" textLength="287" x="101" y="33.5352">Resources for project ssoadmin-simple</text><rect fill="#F1F1F1" height="36.4883" rx="12.5" ry="12.5" style="stroke:#181818;stroke-width:1.5;" width="52" x="10" y="198.709"/><text fill="#000000" font-family="sans-serif" font-size="14" lengthAdjust="spacing" textLength="32" x="20" y="222.2441">Infra</text><rect fill="#F1F1F1" height="36.4883" rx="12.5" ry="12.5" style="stroke:#181818;stroke-width:1.5;" width="46" x="112" y="198.709"/><text fill="#000000" font-family="sans-serif" font-size="14" lengthAdjust="spacing" textLength="26" x="122" y="222.2441">aws</text><rect fill="#F1F1F1" height="36.4883" rx="12.5" ry="12.5" style="stroke:#181818;stroke-width:1.5;" width="46" x="208" y="57.4883"/><text fill="#000000" font-family="sans-serif" font-size="14" lengthAdjust="spacing" textLength="26" x="218" y="81.0234">IAM</text><rect fill="#F1F1F1" height="36.4883" rx="12.5" ry="12.5" style="stroke:#181818;stroke-width:1.5;" width="82" x="304" y="57.4883"/><text fill="#000000" font-family="sans-serif" font-size="14" lengthAdjust="spacing" textLength="62" x="314" y="81.0234">Policy (2)</text><path d="M254,75.7324 L264,75.7324 C279,75.7324 279,75.7324 294,75.7324 L304,75.7324 " fill="none" style="stroke:#181818;stroke-width:1.0;"/><path d="M158,216.9531 L168,216.9531 C183,216.9531 183,75.7324 198,75.7324 L208,75.7324 " fill="none" style="stroke:#181818;stroke-width:1.0;"/><rect fill="#F1F1F1" height="36.4883" rx="12.5" ry="12.5" style="stroke:#181818;stroke-width:1.5;" width="107" x="208" y="113.9766"/><text fill="#000000" font-family="sans-serif" font-size="14" lengthAdjust="spacing" textLength="87" x="218" y="137.5117">IdentityStore</text><rect fill="#F1F1F1" height="36.4883" rx="12.5" ry="12.5" style="stroke:#181818;stroke-width:1.5;" width="74" x="365" y="113.9766"/><text fill="#000000" font-family="sans-serif" font-size="14" lengthAdjust="spacing" textLength="54" x="375" y="137.5117">User (1)</text><path d="M315,132.2207 L325,132.2207 C340,132.2207 340,132.2207 355,132.2207 L365,132.2207 " fill="none" style="stroke:#181818;stroke-width:1.0;"/><path d="M158,216.9531 L168,216.9531 C183,216.9531 183,132.2207 198,132.2207 L208,132.2207 " fill="none" style="stroke:#181818;stroke-width:1.0;"/><rect fill="#F1F1F1" height="36.4883" rx="12.5" ry="12.5" style="stroke:#181818;stroke-width:1.5;" width="116" x="208" y="170.4648"/><text fill="#000000" font-family="sans-serif" font-size="14" lengthAdjust="spacing" textLength="96" x="218" y="194">Organisations</text><rect fill="#F1F1F1" height="36.4883" rx="12.5" ry="12.5" style="stroke:#181818;stroke-width:1.5;" width="99" x="374" y="170.4648"/><text fill="#000000" font-family="sans-serif" font-size="14" lengthAdjust="spacing" textLength="79" x="384" y="194">Account (1)</text><path d="M324,188.709 L334,188.709 C349,188.709 349,188.709 364,188.709 L374,188.709 " fill="none" style="stroke:#181818;stroke-width:1.0;"/><path d="M158,216.9531 L168,216.9531 C183,216.9531 183,188.709 198,188.709 L208,188.709 " fill="none" style="stroke:#181818;stroke-width:1.0;"/><rect fill="#F1F1F1" height="36.4883" rx="12.5" ry="12.5" style="stroke:#181818;stroke-width:1.5;" width="92" x="208" y="283.4414"/><text fill="#000000" font-family="sans-serif" font-size="14" lengthAdjust="spacing" textLength="72" x="218" y="306.9766">SSOAdmin</text><rect fill="#F1F1F1" height="36.4883" rx="12.5" ry="12.5" style="stroke:#181818;stroke-width:1.5;" width="180" x="350" y="226.9531"/><text fill="#000000" font-family="sans-serif" font-size="14" lengthAdjust="spacing" textLength="160" x="360" y="250.4883">AccountAssignment (1)</text><path d="M300,301.6855 L310,301.6855 C325,301.6855 325,245.1973 340,245.1973 L350,245.1973 " fill="none" style="stroke:#181818;stroke-width:1.0;"/><rect fill="#F1F1F1" height="36.4883" rx="12.5" ry="12.5" style="stroke:#181818;stroke-width:1.5;" width="100" x="350" y="283.4414"/><text fill="#000000" font-family="sans-serif" font-size="14" lengthAdjust="spacing" textLength="80" x="360" y="306.9766">Instance (1)</text><path d="M300,301.6855 L310,301.6855 C325,301.6855 325,301.6855 340,301.6855 L350,301.6855 " fill="none" style="stroke:#181818;stroke-width:1.0;"/><rect fill="#F1F1F1" height="36.4883" rx="12.5" ry="12.5" style="stroke:#181818;stroke-width:1.5;" width="139" x="350" y="339.9297"/><text fill="#000000" font-family="sans-serif" font-size="14" lengthAdjust="spacing" textLength="119" x="360" y="363.4648">PermissionSet (1)</text><path d="M300,301.6855 L310,301.6855 C325,301.6855 325,358.1738 340,358.1738 L350,358.1738 " fill="none" style="stroke:#181818;stroke-width:1.0;"/><path d="M158,216.9531 L168,216.9531 C183,216.9531 183,301.6855 198,301.6855 L208,301.6855 " fill="none" style="stroke:#181818;stroke-width:1.0;"/><path d="M62,216.9531 L72,216.9531 C87,216.9531 87,216.9531 102,216.9531 L112,216.9531 " fill="none" style="stroke:#181818;stroke-width:1.0;"/><!--MD5=[f35aaff6d5234db400d32ce5d0f36d76]
@startmindmap
title Resources for project ssoadmin-simple
skinparam monochrome true
+ Infra
++ aws
+++ IAM
++++ Policy (2)
+++ IdentityStore
++++ User (1)
+++ Organisations
++++ Account (1)
+++ SSOAdmin
++++ AccountAssignment (1)
++++ Instance (1)
++++ PermissionSet (1)
@endmindmap

PlantUML version 1.2022.6(Tue Jun 21 14:34:49 BRT 2022)
(GPL source distribution)
Java Runtime: Java(TM) SE Runtime Environment
JVM: Java HotSpot(TM) 64-Bit Server VM
Default Encoding: UTF-8
Language: en
Country: GB
--></g></svg>