<?xml version="1.0" encoding="UTF-8" standalone="no"?>
<!DOCTYPE svg PUBLIC "-//W3C//DTD SVG 1.1//EN"
 "http://www.w3.org/Graphics/SVG/1.1/DTD/svg11.dtd">
<!-- Generated by graphviz version 2.44.1 (20200629.0846)
 -->
<!-- Title: graphname Pages: 1 -->
<svg width="342pt" height="1242pt"
 viewBox="0.00 0.00 342.00 1242.00" xmlns="http://www.w3.org/2000/svg" xmlns:xlink="http://www.w3.org/1999/xlink">
<g id="graph0" class="graph" transform="scale(1 1) rotate(0) translate(4 1238)">
<title>graphname</title>
<polygon fill="#fafafa" stroke="transparent" points="-4,4 -4,-1238 338,-1238 338,4 -4,4"/>
<text text-anchor="start" x="100" y="-1209.4" font-family="Helvetica,sans-Serif" font-weight="bold" font-size="22.00" fill="#383838">Project tuto1</text>
<text text-anchor="start" x="163.5" y="-1193.8" font-family="Helvetica,sans-Serif" font-size="14.00"> &#160;</text>
<text text-anchor="start" x="100" y="-1172.2" font-family="Helvetica,sans-Serif" font-weight="bold" font-size="16.00" fill="#707070">Live Diagram</text>
<g id="clust1" class="cluster">
<title>cluster_k8s</title>
<polygon fill="#f5f5f5" stroke="#f5f5f5" points="8,-8 8,-1150 326,-1150 326,-8 8,-8"/>
<text text-anchor="start" x="107" y="-23" font-family="Helvetica,sans-Serif" font-weight="bold" font-size="20.00" fill="#707070">Provider k8s</text>
</g>
<g id="clust2" class="cluster">
<title>cluster_k8s_ingress&#45;nginx</title>
<polygon fill="#eeeeee" stroke="#eeeeee" points="16,-582 16,-1142 318,-1142 318,-582 16,-582"/>
<text text-anchor="start" x="102" y="-593" font-family="Helvetica,sans-Serif" font-weight="bold" font-size="20.00" fill="#383838">ingress&#45;nginx</text>
</g>
<g id="clust3" class="cluster">
<title>cluster_k8s_myapp</title>
<polygon fill="#eeeeee" stroke="#eeeeee" points="76,-318 76,-574 258,-574 258,-318 76,-318"/>
<text text-anchor="start" x="134.5" y="-329" font-family="Helvetica,sans-Serif" font-weight="bold" font-size="20.00" fill="#383838">myapp</text>
</g>
<g id="clust4" class="cluster">
<title>cluster_k8s_default</title>
<polygon fill="#eeeeee" stroke="#eeeeee" points="80,-54 80,-310 254,-310 254,-54 80,-54"/>
<text text-anchor="start" x="134" y="-65" font-family="Helvetica,sans-Serif" font-weight="bold" font-size="20.00" fill="#383838">default</text>
</g>
<!-- Deployment::ingress&#45;nginx::ingress&#45;nginx&#45;controller -->
<g id="node1" class="node">
<title>Deployment::ingress&#45;nginx::ingress&#45;nginx&#45;controller</title>
<polygon fill="#e5e5e5" stroke="#dddddd" points="263.5,-1134 70.5,-1134 70.5,-1076 263.5,-1076 263.5,-1134"/>
<text text-anchor="start" x="83" y="-1114.2" font-family="Helvetica,sans-Serif" font-weight="bold" font-size="16.00" fill="#707070">::Deployment</text>
<text text-anchor="start" x="83" y="-1089.2" font-family="Helvetica,sans-Serif" font-size="16.00" fill="#383838">ingress&#45;nginx&#45;controller</text>
</g>
<!-- Secret::ingress&#45;nginx::default&#45;token&#45;tzmzw -->
<g id="node2" class="node">
<title>Secret::ingress&#45;nginx::default&#45;token&#45;tzmzw</title>
<polygon fill="#e5e5e5" stroke="#dddddd" points="251.5,-1058 82.5,-1058 82.5,-1000 251.5,-1000 251.5,-1058"/>
<text text-anchor="start" x="95" y="-1038.2" font-family="Helvetica,sans-Serif" font-weight="bold" font-size="16.00" fill="#707070">::Secret</text>
<text text-anchor="start" x="95" y="-1013.2" font-family="Helvetica,sans-Serif" font-size="16.00" fill="#383838">default&#45;token&#45;tzmzw</text>
</g>
<!-- Secret::ingress&#45;nginx::ingress&#45;nginx&#45;admission -->
<g id="node3" class="node">
<title>Secret::ingress&#45;nginx::ingress&#45;nginx&#45;admission</title>
<polygon fill="#e5e5e5" stroke="#dddddd" points="267,-982 67,-982 67,-924 267,-924 267,-982"/>
<text text-anchor="start" x="79" y="-962.2" font-family="Helvetica,sans-Serif" font-weight="bold" font-size="16.00" fill="#707070">::Secret</text>
<text text-anchor="start" x="79" y="-937.2" font-family="Helvetica,sans-Serif" font-size="16.00" fill="#383838">ingress&#45;nginx&#45;admission</text>
</g>
<!-- Secret::ingress&#45;nginx::ingress&#45;nginx&#45;admission&#45;token&#45;m647n -->
<g id="node4" class="node">
<title>Secret::ingress&#45;nginx::ingress&#45;nginx&#45;admission&#45;token&#45;m647n</title>
<polygon fill="#e5e5e5" stroke="#dddddd" points="310,-906 24,-906 24,-848 310,-848 310,-906"/>
<text text-anchor="start" x="36" y="-886.2" font-family="Helvetica,sans-Serif" font-weight="bold" font-size="16.00" fill="#707070">::Secret</text>
<text text-anchor="start" x="36" y="-861.2" font-family="Helvetica,sans-Serif" font-size="16.00" fill="#383838">ingress&#45;nginx&#45;admission&#45;token&#45;m6...</text>
</g>
<!-- Secret::ingress&#45;nginx::ingress&#45;nginx&#45;token&#45;b8xtd -->
<g id="node5" class="node">
<title>Secret::ingress&#45;nginx::ingress&#45;nginx&#45;token&#45;b8xtd</title>
<polygon fill="#e5e5e5" stroke="#dddddd" points="272.5,-830 61.5,-830 61.5,-772 272.5,-772 272.5,-830"/>
<text text-anchor="start" x="74" y="-810.2" font-family="Helvetica,sans-Serif" font-weight="bold" font-size="16.00" fill="#707070">::Secret</text>
<text text-anchor="start" x="74" y="-785.2" font-family="Helvetica,sans-Serif" font-size="16.00" fill="#383838">ingress&#45;nginx&#45;token&#45;b8xtd</text>
</g>
<!-- Service::ingress&#45;nginx::ingress&#45;nginx&#45;controller -->
<g id="node6" class="node">
<title>Service::ingress&#45;nginx::ingress&#45;nginx&#45;controller</title>
<polygon fill="#e5e5e5" stroke="#dddddd" points="263.5,-754 70.5,-754 70.5,-696 263.5,-696 263.5,-754"/>
<text text-anchor="start" x="83" y="-734.2" font-family="Helvetica,sans-Serif" font-weight="bold" font-size="16.00" fill="#707070">::Service</text>
<text text-anchor="start" x="83" y="-709.2" font-family="Helvetica,sans-Serif" font-size="16.00" fill="#383838">ingress&#45;nginx&#45;controller</text>
</g>
<!-- Service::ingress&#45;nginx::ingress&#45;nginx&#45;controller&#45;admission -->
<g id="node7" class="node">
<title>Service::ingress&#45;nginx::ingress&#45;nginx&#45;controller&#45;admission</title>
<polygon fill="#e5e5e5" stroke="#dddddd" points="301,-678 33,-678 33,-620 301,-620 301,-678"/>
<text text-anchor="start" x="45" y="-658.2" font-family="Helvetica,sans-Serif" font-weight="bold" font-size="16.00" fill="#707070">::Service</text>
<text text-anchor="start" x="45" y="-633.2" font-family="Helvetica,sans-Serif" font-size="16.00" fill="#383838">ingress&#45;nginx&#45;controller&#45;admissi...</text>
</g>
<!-- Deployment::myapp::nginx&#45;deployment -->
<g id="node8" class="node">
<title>Deployment::myapp::nginx&#45;deployment</title>
<polygon fill="#e5e5e5" stroke="#dddddd" points="243.5,-566 90.5,-566 90.5,-508 243.5,-508 243.5,-566"/>
<text text-anchor="start" x="103" y="-546.2" font-family="Helvetica,sans-Serif" font-weight="bold" font-size="16.00" fill="#707070">::Deployment</text>
<text text-anchor="start" x="103" y="-521.2" font-family="Helvetica,sans-Serif" font-size="16.00" fill="#383838">nginx&#45;deployment</text>
</g>
<!-- Secret::myapp::default&#45;token&#45;wkqfd -->
<g id="node9" class="node">
<title>Secret::myapp::default&#45;token&#45;wkqfd</title>
<polygon fill="#e5e5e5" stroke="#dddddd" points="250,-490 84,-490 84,-432 250,-432 250,-490"/>
<text text-anchor="start" x="96" y="-470.2" font-family="Helvetica,sans-Serif" font-weight="bold" font-size="16.00" fill="#707070">::Secret</text>
<text text-anchor="start" x="96" y="-445.2" font-family="Helvetica,sans-Serif" font-size="16.00" fill="#383838">default&#45;token&#45;wkqfd</text>
</g>
<!-- Service::myapp::nginx&#45;service -->
<g id="node10" class="node">
<title>Service::myapp::nginx&#45;service</title>
<polygon fill="#e5e5e5" stroke="#dddddd" points="227.5,-414 106.5,-414 106.5,-356 227.5,-356 227.5,-414"/>
<text text-anchor="start" x="119" y="-394.2" font-family="Helvetica,sans-Serif" font-weight="bold" font-size="16.00" fill="#707070">::Service</text>
<text text-anchor="start" x="119" y="-369.2" font-family="Helvetica,sans-Serif" font-size="16.00" fill="#383838">nginx&#45;service</text>
</g>
<!-- Secret::default::default&#45;token&#45;dkgjt -->
<g id="node11" class="node">
<title>Secret::default::default&#45;token&#45;dkgjt</title>
<polygon fill="#e5e5e5" stroke="#dddddd" points="246,-302 88,-302 88,-244 246,-244 246,-302"/>
<text text-anchor="start" x="100" y="-282.2" font-family="Helvetica,sans-Serif" font-weight="bold" font-size="16.00" fill="#707070">::Secret</text>
<text text-anchor="start" x="100" y="-257.2" font-family="Helvetica,sans-Serif" font-size="16.00" fill="#383838">default&#45;token&#45;dkgjt</text>
</g>
<!-- Secret::default::my&#45;secret -->
<g id="node12" class="node">
<title>Secret::default::my&#45;secret</title>
<polygon fill="#e5e5e5" stroke="#dddddd" points="215,-226 119,-226 119,-168 215,-168 215,-226"/>
<text text-anchor="start" x="131" y="-206.2" font-family="Helvetica,sans-Serif" font-weight="bold" font-size="16.00" fill="#707070">::Secret</text>
<text text-anchor="start" x="131" y="-181.2" font-family="Helvetica,sans-Serif" font-size="16.00" fill="#383838">my&#45;secret</text>
</g>
<!-- Service::default::kubernetes -->
<g id="node13" class="node">
<title>Service::default::kubernetes</title>
<polygon fill="#e5e5e5" stroke="#dddddd" points="219.5,-150 114.5,-150 114.5,-92 219.5,-92 219.5,-150"/>
<text text-anchor="start" x="127" y="-130.2" font-family="Helvetica,sans-Serif" font-weight="bold" font-size="16.00" fill="#707070">::Service</text>
<text text-anchor="start" x="127" y="-105.2" font-family="Helvetica,sans-Serif" font-size="16.00" fill="#383838">kubernetes</text>
</g>
</g>
</svg>
