<?xml version="1.0" encoding="UTF-8" standalone="no"?>
<!DOCTYPE svg PUBLIC "-//W3C//DTD SVG 1.1//EN"
 "http://www.w3.org/Graphics/SVG/1.1/DTD/svg11.dtd">
<!-- Generated by graphviz version 7.1.0 (20230121.1956)
 -->
<!-- Title: graphname Pages: 1 -->
<svg width="789pt" height="465pt"
 viewBox="0.00 0.00 789.00 465.00" xmlns="http://www.w3.org/2000/svg" xmlns:xlink="http://www.w3.org/1999/xlink">
<g id="graph0" class="graph" transform="scale(1 1) rotate(0) translate(4 461)">
<title>graphname</title>
<polygon fill="#fafafa" stroke="none" points="-4,4 -4,-461 785,-461 785,4 -4,4"/>
<text text-anchor="start" x="272.5" y="-432.4" font-family="Helvetica,sans-Serif" font-weight="bold" font-size="22.00" fill="#383838">Project restapi&#45;lambda</text>
<text text-anchor="start" x="386.5" y="-416.8" font-family="Helvetica,sans-Serif" font-size="14.00"> &#160;</text>
<text text-anchor="start" x="272.5" y="-395.2" font-family="Helvetica,sans-Serif" font-weight="bold" font-size="16.00" fill="#707070">Target Diagram</text>
<g id="clust1" class="cluster">
<title>cluster_aws</title>
<polygon fill="#f5f5f5" stroke="#f5f5f5" points="8,-8 8,-373 773,-373 773,-8 8,-8"/>
<text text-anchor="start" x="328.5" y="-23" font-family="Helvetica,sans-Serif" font-weight="bold" font-size="20.00" fill="#707070">Provider aws</text>
</g>
<g id="clust2" class="cluster">
<title>cluster_aws_</title>
<polygon fill="#eeeeee" stroke="#eeeeee" points="16,-54 16,-365 765,-365 765,-54 16,-54"/>
<text text-anchor="start" x="390.36" y="-58.3" font-family="Helvetica,sans-Serif" font-size="1.00" fill="#383838"> </text>
</g>
<!-- Account::default -->
<g id="node1" class="node">
<title>Account::default</title>
<polygon fill="#e5e5e5" stroke="#dddddd" points="495,-205 303,-205 303,-147 495,-147 495,-205"/>
<text text-anchor="start" x="315" y="-185.2" font-family="Helvetica,sans-Serif" font-weight="bold" font-size="16.00" fill="#707070">APIGateway::Account</text>
<text text-anchor="start" x="315" y="-160.2" font-family="Helvetica,sans-Serif" font-size="16.00" fill="#383838">default</text>
</g>
<!-- Role::roleApiGatewayCloudWatch -->
<g id="node7" class="node">
<title>Role::roleApiGatewayCloudWatch</title>
<polygon fill="#e5e5e5" stroke="#dddddd" points="757,-205 531,-205 531,-147 757,-147 757,-205"/>
<text text-anchor="start" x="543" y="-185.2" font-family="Helvetica,sans-Serif" font-weight="bold" font-size="16.00" fill="#707070">IAM::Role</text>
<text text-anchor="start" x="543" y="-160.2" font-family="Helvetica,sans-Serif" font-size="16.00" fill="#383838">roleApiGatewayCloudWatch</text>
</g>
<!-- Account::default&#45;&gt;Role::roleApiGatewayCloudWatch -->
<g id="edge1" class="edge">
<title>Account::default&#45;&gt;Role::roleApiGatewayCloudWatch</title>
<path fill="none" stroke="#707070" d="M495.34,-176C503.21,-176 511.22,-176 519.25,-176"/>
<polygon fill="#707070" stroke="#707070" points="519.08,-179.5 529.08,-176 519.08,-172.5 519.08,-179.5"/>
</g>
<!-- ApiKey::my&#45;key -->
<g id="node2" class="node">
<title>ApiKey::my&#45;key</title>
<polygon fill="#e5e5e5" stroke="#dddddd" points="237,-357 54,-357 54,-299 237,-299 237,-357"/>
<text text-anchor="start" x="66.5" y="-337.2" font-family="Helvetica,sans-Serif" font-weight="bold" font-size="16.00" fill="#707070">APIGateway::ApiKey</text>
<text text-anchor="start" x="66.5" y="-312.2" font-family="Helvetica,sans-Serif" font-size="16.00" fill="#383838">my&#45;key</text>
</g>
<!-- RestApi::PetStore -->
<g id="node3" class="node">
<title>RestApi::PetStore</title>
<polygon fill="#e5e5e5" stroke="#dddddd" points="493,-281 305,-281 305,-223 493,-223 493,-281"/>
<text text-anchor="start" x="317" y="-261.2" font-family="Helvetica,sans-Serif" font-weight="bold" font-size="16.00" fill="#707070">APIGateway::RestApi</text>
<text text-anchor="start" x="317" y="-236.2" font-family="Helvetica,sans-Serif" font-size="16.00" fill="#383838">PetStore</text>
</g>
<!-- Stage::PetStore::dev -->
<g id="node4" class="node">
<title>Stage::PetStore::dev</title>
<polygon fill="#e5e5e5" stroke="#dddddd" points="231.5,-281 59.5,-281 59.5,-223 231.5,-223 231.5,-281"/>
<text text-anchor="start" x="71.5" y="-261.2" font-family="Helvetica,sans-Serif" font-weight="bold" font-size="16.00" fill="#707070">APIGateway::Stage</text>
<text text-anchor="start" x="71.5" y="-236.2" font-family="Helvetica,sans-Serif" font-size="16.00" fill="#383838">PetStore::dev</text>
</g>
<!-- Stage::PetStore::dev&#45;&gt;Account::default -->
<g id="edge3" class="edge">
<title>Stage::PetStore::dev&#45;&gt;Account::default</title>
<path fill="none" stroke="#707070" d="M232,-226.16C251.22,-220.35 271.85,-214.12 291.8,-208.09"/>
<polygon fill="#707070" stroke="#707070" points="292.8,-211.45 301.36,-205.2 290.77,-204.75 292.8,-211.45"/>
</g>
<!-- Stage::PetStore::dev&#45;&gt;RestApi::PetStore -->
<g id="edge2" class="edge">
<title>Stage::PetStore::dev&#45;&gt;RestApi::PetStore</title>
<path fill="none" stroke="#707070" d="M232,-252C251.7,-252 272.88,-252 293.3,-252"/>
<polygon fill="#707070" stroke="#707070" points="293.04,-255.5 303.04,-252 293.04,-248.5 293.04,-255.5"/>
</g>
<!-- Stage::PetStore::prod -->
<g id="node5" class="node">
<title>Stage::PetStore::prod</title>
<polygon fill="#e5e5e5" stroke="#dddddd" points="231.5,-205 59.5,-205 59.5,-147 231.5,-147 231.5,-205"/>
<text text-anchor="start" x="71.5" y="-185.2" font-family="Helvetica,sans-Serif" font-weight="bold" font-size="16.00" fill="#707070">APIGateway::Stage</text>
<text text-anchor="start" x="71.5" y="-160.2" font-family="Helvetica,sans-Serif" font-size="16.00" fill="#383838">PetStore::prod</text>
</g>
<!-- Stage::PetStore::prod&#45;&gt;Account::default -->
<g id="edge5" class="edge">
<title>Stage::PetStore::prod&#45;&gt;Account::default</title>
<path fill="none" stroke="#707070" d="M232,-176C251.13,-176 271.66,-176 291.53,-176"/>
<polygon fill="#707070" stroke="#707070" points="291.29,-179.5 301.29,-176 291.29,-172.5 291.29,-179.5"/>
</g>
<!-- Stage::PetStore::prod&#45;&gt;RestApi::PetStore -->
<g id="edge4" class="edge">
<title>Stage::PetStore::prod&#45;&gt;RestApi::PetStore</title>
<path fill="none" stroke="#707070" d="M232,-201.84C251.79,-207.82 273.08,-214.25 293.58,-220.45"/>
<polygon fill="#707070" stroke="#707070" points="292.52,-223.78 303.1,-223.32 294.54,-217.08 292.52,-223.78"/>
</g>
<!-- LogGroup::restapi -->
<g id="node6" class="node">
<title>LogGroup::restapi</title>
<polygon fill="#e5e5e5" stroke="#dddddd" points="267,-129 24,-129 24,-71 267,-71 267,-129"/>
<text text-anchor="start" x="36.5" y="-109.2" font-family="Helvetica,sans-Serif" font-weight="bold" font-size="16.00" fill="#707070">CloudWatchLogs::LogGroup</text>
<text text-anchor="start" x="36.5" y="-84.2" font-family="Helvetica,sans-Serif" font-size="16.00" fill="#383838">restapi</text>
</g>
</g>
</svg>
