<?xml version="1.0" encoding="UTF-8" standalone="no"?><svg xmlns="http://www.w3.org/2000/svg" xmlns:xlink="http://www.w3.org/1999/xlink" contentScriptType="application/ecmascript" contentStyleType="text/css" height="398px" preserveAspectRatio="none" style="width:522px;height:398px;background:#FFFFFF;" version="1.1" viewBox="0 0 522 398" width="522px" zoomAndPan="magnify"><defs><filter height="300%" id="fz3iek8trfgyh" width="300%" x="-1" y="-1"><feGaussianBlur result="blurOut" stdDeviation="2.0"/><feColorMatrix in="blurOut" result="blurOut2" type="matrix" values="0 0 0 0 0 0 0 0 0 0 0 0 0 0 0 0 0 0 .4 0"/><feOffset dx="4.0" dy="4.0" in="blurOut2" result="blurOut3"/><feBlend in="SourceGraphic" in2="blurOut3" mode="normal"/></filter></defs><g><rect fill="none" height="26.4883" style="stroke:none;stroke-width:1.0;" width="346" x="58" y="15"/><text fill="#000000" font-family="sans-serif" font-size="14" font-weight="bold" lengthAdjust="spacing" textLength="336" x="63" y="33.5352">Resources for project RestApiGateway Lambda</text><rect fill="#F8F8F8" filter="url(#fz3iek8trfgyh)" height="36.4883" rx="12.5" ry="12.5" style="stroke:#383838;stroke-width:1.5;" width="52" x="10" y="198.709"/><text fill="#000000" font-family="sans-serif" font-size="14" lengthAdjust="spacing" textLength="32" x="20" y="222.2441">Infra</text><rect fill="#F8F8F8" filter="url(#fz3iek8trfgyh)" height="36.4883" rx="12.5" ry="12.5" style="stroke:#383838;stroke-width:1.5;" width="46" x="112" y="198.709"/><text fill="#000000" font-family="sans-serif" font-size="14" lengthAdjust="spacing" textLength="26" x="122" y="222.2441">aws</text><rect fill="#F8F8F8" filter="url(#fz3iek8trfgyh)" height="36.4883" rx="12.5" ry="12.5" style="stroke:#383838;stroke-width:1.5;" width="99" x="208" y="142.2207"/><text fill="#000000" font-family="sans-serif" font-size="14" lengthAdjust="spacing" textLength="79" x="218" y="165.7559">APIGateway</text><rect fill="#F8F8F8" filter="url(#fz3iek8trfgyh)" height="36.4883" rx="12.5" ry="12.5" style="stroke:#383838;stroke-width:1.5;" width="99" x="357" y="57.4883"/><text fill="#000000" font-family="sans-serif" font-size="14" lengthAdjust="spacing" textLength="79" x="367" y="81.0234">Account (1)</text><path d="M307,160.4648 L317,160.4648 C332,160.4648 332,75.7324 347,75.7324 L357,75.7324 " fill="none" style="stroke:#383838;stroke-width:1.0;"/><rect fill="#F8F8F8" filter="url(#fz3iek8trfgyh)" height="36.4883" rx="12.5" ry="12.5" style="stroke:#383838;stroke-width:1.5;" width="90" x="357" y="113.9766"/><text fill="#000000" font-family="sans-serif" font-size="14" lengthAdjust="spacing" textLength="70" x="367" y="137.5117">ApiKey (1)</text><path d="M307,160.4648 L317,160.4648 C332,160.4648 332,132.2207 347,132.2207 L357,132.2207 " fill="none" style="stroke:#383838;stroke-width:1.0;"/><rect fill="#F8F8F8" filter="url(#fz3iek8trfgyh)" height="36.4883" rx="12.5" ry="12.5" style="stroke:#383838;stroke-width:1.5;" width="95" x="357" y="170.4648"/><text fill="#000000" font-family="sans-serif" font-size="14" lengthAdjust="spacing" textLength="75" x="367" y="194">RestApi (1)</text><path d="M307,160.4648 L317,160.4648 C332,160.4648 332,188.709 347,188.709 L357,188.709 " fill="none" style="stroke:#383838;stroke-width:1.0;"/><rect fill="#F8F8F8" filter="url(#fz3iek8trfgyh)" height="36.4883" rx="12.5" ry="12.5" style="stroke:#383838;stroke-width:1.5;" width="81" x="357" y="226.9531"/><text fill="#000000" font-family="sans-serif" font-size="14" lengthAdjust="spacing" textLength="61" x="367" y="250.4883">Stage (2)</text><path d="M307,160.4648 L317,160.4648 C332,160.4648 332,245.1973 347,245.1973 L357,245.1973 " fill="none" style="stroke:#383838;stroke-width:1.0;"/><path d="M158,216.9531 L168,216.9531 C183,216.9531 183,160.4648 198,160.4648 L208,160.4648 " fill="none" style="stroke:#383838;stroke-width:1.0;"/><rect fill="#F8F8F8" filter="url(#fz3iek8trfgyh)" height="36.4883" rx="12.5" ry="12.5" style="stroke:#383838;stroke-width:1.5;" width="134" x="208" y="283.4414"/><text fill="#000000" font-family="sans-serif" font-size="14" lengthAdjust="spacing" textLength="114" x="218" y="306.9766">CloudWatchLogs</text><rect fill="#F8F8F8" filter="url(#fz3iek8trfgyh)" height="36.4883" rx="12.5" ry="12.5" style="stroke:#383838;stroke-width:1.5;" width="111" x="392" y="283.4414"/><text fill="#000000" font-family="sans-serif" font-size="14" lengthAdjust="spacing" textLength="91" x="402" y="306.9766">LogGroup (1)</text><path d="M342,301.6855 L352,301.6855 C367,301.6855 367,301.6855 382,301.6855 L392,301.6855 " fill="none" style="stroke:#383838;stroke-width:1.0;"/><path d="M158,216.9531 L168,216.9531 C183,216.9531 183,301.6855 198,301.6855 L208,301.6855 " fill="none" style="stroke:#383838;stroke-width:1.0;"/><rect fill="#F8F8F8" filter="url(#fz3iek8trfgyh)" height="36.4883" rx="12.5" ry="12.5" style="stroke:#383838;stroke-width:1.5;" width="46" x="208" y="339.9297"/><text fill="#000000" font-family="sans-serif" font-size="14" lengthAdjust="spacing" textLength="26" x="218" y="363.4648">IAM</text><rect fill="#F8F8F8" filter="url(#fz3iek8trfgyh)" height="36.4883" rx="12.5" ry="12.5" style="stroke:#383838;stroke-width:1.5;" width="73" x="304" y="339.9297"/><text fill="#000000" font-family="sans-serif" font-size="14" lengthAdjust="spacing" textLength="53" x="314" y="363.4648">Role (1)</text><path d="M254,358.1738 L264,358.1738 C279,358.1738 279,358.1738 294,358.1738 L304,358.1738 " fill="none" style="stroke:#383838;stroke-width:1.0;"/><path d="M158,216.9531 L168,216.9531 C183,216.9531 183,358.1738 198,358.1738 L208,358.1738 " fill="none" style="stroke:#383838;stroke-width:1.0;"/><path d="M62,216.9531 L72,216.9531 C87,216.9531 87,216.9531 102,216.9531 L112,216.9531 " fill="none" style="stroke:#383838;stroke-width:1.0;"/><!--MD5=[81d0c118c10733a1691dc20f0a8689e0]
@startmindmap
title Resources for project RestApiGateway Lambda
skinparam monochrome true
+ Infra
++ aws
+++ APIGateway
++++ Account (1)
++++ ApiKey (1)
++++ RestApi (1)
++++ Stage (2)
+++ CloudWatchLogs
++++ LogGroup (1)
+++ IAM
++++ Role (1)
@endmindmap

PlantUML version 1.2021.8(Sat Jun 26 03:20:59 COT 2021)
(GPL source distribution)
Java Runtime: OpenJDK Runtime Environment
JVM: OpenJDK 64-Bit Server VM
Default Encoding: UTF-8
Language: en
Country: GB
--></g></svg>