<?xml version="1.0" encoding="UTF-8" standalone="no"?>
<!DOCTYPE svg PUBLIC "-//W3C//DTD SVG 1.1//EN"
 "http://www.w3.org/Graphics/SVG/1.1/DTD/svg11.dtd">
<!-- Generated by graphviz version 3.0.0 (20220226.1711)
 -->
<!-- Title: graphname Pages: 1 -->
<svg width="1377pt" height="733pt"
 viewBox="0.00 0.00 1377.00 733.00" xmlns="http://www.w3.org/2000/svg" xmlns:xlink="http://www.w3.org/1999/xlink">
<g id="graph0" class="graph" transform="scale(1 1) rotate(0) translate(4 729)">
<title>graphname</title>
<polygon fill="#fafafa" stroke="transparent" points="-4,4 -4,-729 1373,-729 1373,4 -4,4"/>
<text text-anchor="start" x="615.5" y="-700.4" font-family="Helvetica,sans-Serif" font-weight="bold" font-size="22.00" fill="#383838">Project auth0</text>
<text text-anchor="start" x="681" y="-684.8" font-family="Helvetica,sans-Serif" font-size="14.00"> &#160;</text>
<text text-anchor="start" x="615.5" y="-663.2" font-family="Helvetica,sans-Serif" font-weight="bold" font-size="16.00" fill="#707070">Live Diagram</text>
<g id="clust1" class="cluster">
<title>cluster_aws</title>
<polygon fill="#f5f5f5" stroke="#f5f5f5" points="8,-8 8,-641 1361,-641 1361,-8 8,-8"/>
<text text-anchor="start" x="622.5" y="-23" font-family="Helvetica,sans-Serif" font-weight="bold" font-size="20.00" fill="#707070">Provider aws</text>
</g>
<g id="clust2" class="cluster">
<title>cluster_aws_</title>
<polygon fill="#eeeeee" stroke="#eeeeee" points="16,-54 16,-633 1353,-633 1353,-54 16,-54"/>
<text text-anchor="start" x="684.36" y="-58.3" font-family="Helvetica,sans-Serif" font-size="1.00" fill="#383838"> </text>
</g>
<!-- Certificate::::grucloud.org -->
<g id="node1" class="node">
<title>Certificate::::grucloud.org</title>
<polygon fill="#e5e5e5" stroke="#dddddd" points="1137,-303 988,-303 988,-245 1137,-245 1137,-303"/>
<text text-anchor="start" x="1000.5" y="-283.2" font-family="Helvetica,sans-Serif" font-weight="bold" font-size="16.00" fill="#707070">ACM::Certificate</text>
<text text-anchor="start" x="1000.5" y="-258.2" font-family="Helvetica,sans-Serif" font-size="16.00" fill="#383838">grucloud.org</text>
</g>
<!-- Api::::my&#45;api -->
<g id="node2" class="node">
<title>Api::::my&#45;api</title>
<polygon fill="#e5e5e5" stroke="#dddddd" points="1148.5,-485 976.5,-485 976.5,-427 1148.5,-427 1148.5,-485"/>
<text text-anchor="start" x="988.5" y="-465.2" font-family="Helvetica,sans-Serif" font-weight="bold" font-size="16.00" fill="#707070">ApiGatewayV2::Api</text>
<text text-anchor="start" x="988.5" y="-440.2" font-family="Helvetica,sans-Serif" font-size="16.00" fill="#383838">my&#45;api</text>
</g>
<!-- ApiMapping::::apimapping::grucloud.org::my&#45;api::my&#45;api&#45;stage&#45;dev:: -->
<g id="node3" class="node">
<title>ApiMapping::::apimapping::grucloud.org::my&#45;api::my&#45;api&#45;stage&#45;dev::</title>
<polygon fill="#e5e5e5" stroke="#dddddd" points="606,-433 327,-433 327,-375 606,-375 606,-433"/>
<text text-anchor="start" x="339.5" y="-413.2" font-family="Helvetica,sans-Serif" font-weight="bold" font-size="16.00" fill="#707070">ApiGatewayV2::ApiMapping</text>
<text text-anchor="start" x="339.5" y="-388.2" font-family="Helvetica,sans-Serif" font-size="16.00" fill="#383838">apimapping::grucloud.org::my&#45;api...</text>
</g>
<!-- ApiMapping::::apimapping::grucloud.org::my&#45;api::my&#45;api&#45;stage&#45;dev::&#45;&gt;Api::::my&#45;api -->
<g id="edge1" class="edge">
<title>ApiMapping::::apimapping::grucloud.org::my&#45;api::my&#45;api&#45;stage&#45;dev::&#45;&gt;Api::::my&#45;api</title>
<path fill="none" stroke="#707070" d="M594.79,-374.99C603.4,-372.2 611.88,-369.2 620,-366 637.03,-359.28 638.28,-350.59 656,-346 709.56,-332.12 857.93,-316.91 905,-346 935.43,-364.81 913.78,-394.78 941,-418 948.78,-424.64 957.72,-430.11 967.14,-434.64"/>
<polygon fill="#707070" stroke="#707070" points="965.73,-437.84 976.29,-438.69 968.57,-431.44 965.73,-437.84"/>
</g>
<!-- DomainName::::grucloud.org -->
<g id="node6" class="node">
<title>DomainName::::grucloud.org</title>
<polygon fill="#e5e5e5" stroke="#dddddd" points="905,-317 656,-317 656,-259 905,-259 905,-317"/>
<text text-anchor="start" x="668.5" y="-297.2" font-family="Helvetica,sans-Serif" font-weight="bold" font-size="16.00" fill="#707070">ApiGatewayV2::DomainName</text>
<text text-anchor="start" x="668.5" y="-272.2" font-family="Helvetica,sans-Serif" font-size="16.00" fill="#383838">grucloud.org</text>
</g>
<!-- ApiMapping::::apimapping::grucloud.org::my&#45;api::my&#45;api&#45;stage&#45;dev::&#45;&gt;DomainName::::grucloud.org -->
<g id="edge2" class="edge">
<title>ApiMapping::::apimapping::grucloud.org::my&#45;api::my&#45;api&#45;stage&#45;dev::&#45;&gt;DomainName::::grucloud.org</title>
<path fill="none" stroke="#707070" d="M601.75,-374.95C608.04,-372.23 614.16,-369.25 620,-366 639.5,-355.15 637.01,-342.72 656,-331 661.45,-327.63 667.2,-324.49 673.12,-321.55"/>
<polygon fill="#707070" stroke="#707070" points="674.98,-324.54 682.53,-317.12 672,-318.21 674.98,-324.54"/>
</g>
<!-- Stage::::my&#45;api&#45;stage&#45;dev -->
<g id="node9" class="node">
<title>Stage::::my&#45;api&#45;stage&#45;dev</title>
<polygon fill="#e5e5e5" stroke="#dddddd" points="875.5,-413 685.5,-413 685.5,-355 875.5,-355 875.5,-413"/>
<text text-anchor="start" x="697.5" y="-393.2" font-family="Helvetica,sans-Serif" font-weight="bold" font-size="16.00" fill="#707070">ApiGatewayV2::Stage</text>
<text text-anchor="start" x="697.5" y="-368.2" font-family="Helvetica,sans-Serif" font-size="16.00" fill="#383838">my&#45;api&#45;stage&#45;dev</text>
</g>
<!-- ApiMapping::::apimapping::grucloud.org::my&#45;api::my&#45;api&#45;stage&#45;dev::&#45;&gt;Stage::::my&#45;api&#45;stage&#45;dev -->
<g id="edge3" class="edge">
<title>ApiMapping::::apimapping::grucloud.org::my&#45;api::my&#45;api&#45;stage&#45;dev::&#45;&gt;Stage::::my&#45;api&#45;stage&#45;dev</title>
<path fill="none" stroke="#707070" d="M606.16,-395.11C629.31,-393.63 652.97,-392.11 675.08,-390.69"/>
<polygon fill="#707070" stroke="#707070" points="675.36,-394.18 685.12,-390.05 674.91,-387.2 675.36,-394.18"/>
</g>
<!-- Authorizer::::authorizer&#45;auth0 -->
<g id="node4" class="node">
<title>Authorizer::::authorizer&#45;auth0</title>
<polygon fill="#e5e5e5" stroke="#dddddd" points="893.5,-529 667.5,-529 667.5,-471 893.5,-471 893.5,-529"/>
<text text-anchor="start" x="679.5" y="-509.2" font-family="Helvetica,sans-Serif" font-weight="bold" font-size="16.00" fill="#707070">ApiGatewayV2::Authorizer</text>
<text text-anchor="start" x="679.5" y="-484.2" font-family="Helvetica,sans-Serif" font-size="16.00" fill="#383838">authorizer&#45;auth0</text>
</g>
<!-- Authorizer::::authorizer&#45;auth0&#45;&gt;Api::::my&#45;api -->
<g id="edge4" class="edge">
<title>Authorizer::::authorizer&#45;auth0&#45;&gt;Api::::my&#45;api</title>
<path fill="none" stroke="#707070" d="M893.77,-482.36C917.87,-478.57 943.11,-474.6 966.47,-470.93"/>
<polygon fill="#707070" stroke="#707070" points="967.03,-474.39 976.37,-469.38 965.94,-467.47 967.03,-474.39"/>
</g>
<!-- Deployment::::deployment::my&#45;api -->
<g id="node5" class="node">
<title>Deployment::::deployment::my&#45;api</title>
<polygon fill="#e5e5e5" stroke="#dddddd" points="585.5,-509 347.5,-509 347.5,-451 585.5,-451 585.5,-509"/>
<text text-anchor="start" x="359.5" y="-489.2" font-family="Helvetica,sans-Serif" font-weight="bold" font-size="16.00" fill="#707070">ApiGatewayV2::Deployment</text>
<text text-anchor="start" x="359.5" y="-464.2" font-family="Helvetica,sans-Serif" font-size="16.00" fill="#383838">deployment::my&#45;api</text>
</g>
<!-- Deployment::::deployment::my&#45;api&#45;&gt;Api::::my&#45;api -->
<g id="edge5" class="edge">
<title>Deployment::::deployment::my&#45;api&#45;&gt;Api::::my&#45;api</title>
<path fill="none" stroke="#707070" d="M585.74,-456.08C608.94,-452.3 633.16,-448.98 656,-447 766.25,-437.42 794.38,-443.82 905,-447 924.78,-447.57 945.95,-448.54 966.13,-449.64"/>
<polygon fill="#707070" stroke="#707070" points="966.07,-453.14 976.25,-450.21 966.47,-446.15 966.07,-453.14"/>
</g>
<!-- Deployment::::deployment::my&#45;api&#45;&gt;Stage::::my&#45;api&#45;stage&#45;dev -->
<g id="edge6" class="edge">
<title>Deployment::::deployment::my&#45;api&#45;&gt;Stage::::my&#45;api&#45;stage&#45;dev</title>
<path fill="none" stroke="#707070" d="M585.81,-452.39C597.43,-449.12 608.99,-445.64 620,-442 636.46,-436.56 639.81,-433.19 656,-427 665.15,-423.51 674.72,-419.97 684.31,-416.5"/>
<polygon fill="#707070" stroke="#707070" points="685.66,-419.74 693.89,-413.06 683.29,-413.15 685.66,-419.74"/>
</g>
<!-- DomainName::::grucloud.org&#45;&gt;Certificate::::grucloud.org -->
<g id="edge7" class="edge">
<title>DomainName::::grucloud.org&#45;&gt;Certificate::::grucloud.org</title>
<path fill="none" stroke="#707070" d="M905.13,-281.82C929.76,-280.59 955.07,-279.32 977.97,-278.18"/>
<polygon fill="#707070" stroke="#707070" points="978.15,-281.67 987.96,-277.68 977.8,-274.68 978.15,-281.67"/>
</g>
<!-- Integration::::integration::my&#45;api::my&#45;function -->
<g id="node7" class="node">
<title>Integration::::integration::my&#45;api::my&#45;function</title>
<polygon fill="#e5e5e5" stroke="#dddddd" points="599,-625 334,-625 334,-567 599,-567 599,-625"/>
<text text-anchor="start" x="346.5" y="-605.2" font-family="Helvetica,sans-Serif" font-weight="bold" font-size="16.00" fill="#707070">ApiGatewayV2::Integration</text>
<text text-anchor="start" x="346.5" y="-580.2" font-family="Helvetica,sans-Serif" font-size="16.00" fill="#383838">integration::my&#45;api::my&#45;function...</text>
</g>
<!-- Integration::::integration::my&#45;api::my&#45;function&#45;&gt;Api::::my&#45;api -->
<g id="edge8" class="edge">
<title>Integration::::integration::my&#45;api::my&#45;function&#45;&gt;Api::::my&#45;api</title>
<path fill="none" stroke="#707070" d="M599.24,-567.37C618.23,-563.85 637.57,-560.59 656,-558 765.94,-542.56 798.34,-568.83 905,-538 941.59,-527.42 979.49,-507.82 1008.84,-490.43"/>
<polygon fill="#707070" stroke="#707070" points="1010.9,-493.28 1017.66,-485.12 1007.29,-487.28 1010.9,-493.28"/>
</g>
<!-- Function::::my&#45;function -->
<g id="node13" class="node">
<title>Function::::my&#45;function</title>
<polygon fill="#e5e5e5" stroke="#dddddd" points="862.5,-625 698.5,-625 698.5,-567 862.5,-567 862.5,-625"/>
<text text-anchor="start" x="710.5" y="-605.2" font-family="Helvetica,sans-Serif" font-weight="bold" font-size="16.00" fill="#707070">Lambda::Function</text>
<text text-anchor="start" x="710.5" y="-580.2" font-family="Helvetica,sans-Serif" font-size="16.00" fill="#383838">my&#45;function</text>
</g>
<!-- Integration::::integration::my&#45;api::my&#45;function&#45;&gt;Function::::my&#45;function -->
<g id="edge9" class="edge">
<title>Integration::::integration::my&#45;api::my&#45;function&#45;&gt;Function::::my&#45;function</title>
<path fill="none" stroke="#707070" d="M599.36,-596C629.28,-596 660.42,-596 688.22,-596"/>
<polygon fill="#707070" stroke="#707070" points="688.3,-599.5 698.3,-596 688.3,-592.5 688.3,-599.5"/>
</g>
<!-- Route::::route::my&#45;api::ANY /my&#45;function -->
<g id="node8" class="node">
<title>Route::::route::my&#45;api::ANY /my&#45;function</title>
<polygon fill="#e5e5e5" stroke="#dddddd" points="277,-577 24,-577 24,-519 277,-519 277,-577"/>
<text text-anchor="start" x="36.5" y="-557.2" font-family="Helvetica,sans-Serif" font-weight="bold" font-size="16.00" fill="#707070">ApiGatewayV2::Route</text>
<text text-anchor="start" x="36.5" y="-532.2" font-family="Helvetica,sans-Serif" font-size="16.00" fill="#383838">route::my&#45;api::ANY /my&#45;function</text>
</g>
<!-- Route::::route::my&#45;api::ANY /my&#45;function&#45;&gt;Api::::my&#45;api -->
<g id="edge10" class="edge">
<title>Route::::route::my&#45;api::ANY /my&#45;function&#45;&gt;Api::::my&#45;api</title>
<path fill="none" stroke="#707070" d="M277.09,-535.79C289.22,-534.78 301.34,-533.83 313,-533 347.07,-530.59 590.43,-535.09 620,-518 645.62,-503.19 630.14,-476.37 656,-462 682.33,-447.37 854.71,-449.62 966.08,-452.72"/>
<polygon fill="#707070" stroke="#707070" points="966.23,-456.22 976.33,-453.01 966.43,-449.23 966.23,-456.22"/>
</g>
<!-- Route::::route::my&#45;api::ANY /my&#45;function&#45;&gt;Authorizer::::authorizer&#45;auth0 -->
<g id="edge12" class="edge">
<title>Route::::route::my&#45;api::ANY /my&#45;function&#45;&gt;Authorizer::::authorizer&#45;auth0</title>
<path fill="none" stroke="#707070" d="M277.21,-549.82C371.8,-549.78 504.44,-546.7 620,-533 632.19,-531.56 644.83,-529.65 657.41,-527.49"/>
<polygon fill="#707070" stroke="#707070" points="658.25,-530.89 667.49,-525.7 657.03,-524 658.25,-530.89"/>
</g>
<!-- Route::::route::my&#45;api::ANY /my&#45;function&#45;&gt;Integration::::integration::my&#45;api::my&#45;function -->
<g id="edge11" class="edge">
<title>Route::::route::my&#45;api::ANY /my&#45;function&#45;&gt;Integration::::integration::my&#45;api::my&#45;function</title>
<path fill="none" stroke="#707070" d="M277.41,-567.25C292.66,-569.58 308.33,-571.97 323.79,-574.34"/>
<polygon fill="#707070" stroke="#707070" points="323.5,-577.83 333.92,-575.89 324.56,-570.91 323.5,-577.83"/>
</g>
<!-- Stage::::my&#45;api&#45;stage&#45;dev&#45;&gt;Api::::my&#45;api -->
<g id="edge13" class="edge">
<title>Stage::::my&#45;api&#45;stage&#45;dev&#45;&gt;Api::::my&#45;api</title>
<path fill="none" stroke="#707070" d="M875.51,-408.18C904.78,-415.7 937.05,-424 966.39,-431.54"/>
<polygon fill="#707070" stroke="#707070" points="965.66,-434.97 976.21,-434.07 967.4,-428.19 965.66,-434.97"/>
</g>
<!-- LogGroup::::lg&#45;http&#45;test -->
<g id="node10" class="node">
<title>LogGroup::::lg&#45;http&#45;test</title>
<polygon fill="#e5e5e5" stroke="#dddddd" points="1184,-409 941,-409 941,-351 1184,-351 1184,-409"/>
<text text-anchor="start" x="953.5" y="-389.2" font-family="Helvetica,sans-Serif" font-weight="bold" font-size="16.00" fill="#707070">CloudWatchLogs::LogGroup</text>
<text text-anchor="start" x="953.5" y="-364.2" font-family="Helvetica,sans-Serif" font-size="16.00" fill="#383838">lg&#45;http&#45;test</text>
</g>
<!-- Stage::::my&#45;api&#45;stage&#45;dev&#45;&gt;LogGroup::::lg&#45;http&#45;test -->
<g id="edge14" class="edge">
<title>Stage::::my&#45;api&#45;stage&#45;dev&#45;&gt;LogGroup::::lg&#45;http&#45;test</title>
<path fill="none" stroke="#707070" d="M875.51,-382.66C893.29,-382.4 912.18,-382.13 930.85,-381.87"/>
<polygon fill="#707070" stroke="#707070" points="930.93,-385.37 940.88,-381.72 930.83,-378.37 930.93,-385.37"/>
</g>
<!-- Policy::::lambda&#45;policy -->
<g id="node11" class="node">
<title>Policy::::lambda&#45;policy</title>
<polygon fill="#e5e5e5" stroke="#dddddd" points="1345,-625 1220,-625 1220,-567 1345,-567 1345,-625"/>
<text text-anchor="start" x="1232.5" y="-605.2" font-family="Helvetica,sans-Serif" font-weight="bold" font-size="16.00" fill="#707070">IAM::Policy</text>
<text text-anchor="start" x="1232.5" y="-580.2" font-family="Helvetica,sans-Serif" font-size="16.00" fill="#383838">lambda&#45;policy</text>
</g>
<!-- Role::::lambda&#45;role -->
<g id="node12" class="node">
<title>Role::::lambda&#45;role</title>
<polygon fill="#e5e5e5" stroke="#dddddd" points="1117.5,-625 1007.5,-625 1007.5,-567 1117.5,-567 1117.5,-625"/>
<text text-anchor="start" x="1019.5" y="-605.2" font-family="Helvetica,sans-Serif" font-weight="bold" font-size="16.00" fill="#707070">IAM::Role</text>
<text text-anchor="start" x="1019.5" y="-580.2" font-family="Helvetica,sans-Serif" font-size="16.00" fill="#383838">lambda&#45;role</text>
</g>
<!-- Role::::lambda&#45;role&#45;&gt;Policy::::lambda&#45;policy -->
<g id="edge15" class="edge">
<title>Role::::lambda&#45;role&#45;&gt;Policy::::lambda&#45;policy</title>
<path fill="none" stroke="#707070" d="M1117.67,-596C1145.54,-596 1179.88,-596 1209.9,-596"/>
<polygon fill="#707070" stroke="#707070" points="1209.91,-599.5 1219.91,-596 1209.91,-592.5 1209.91,-599.5"/>
</g>
<!-- Function::::my&#45;function&#45;&gt;Api::::my&#45;api -->
<g id="edge16" class="edge">
<title>Function::::my&#45;function&#45;&gt;Api::::my&#45;api</title>
<path fill="none" stroke="#707070" d="M862.58,-570.64C876.94,-565.34 891.58,-559.4 905,-553 942.16,-535.28 981.54,-510.84 1011.5,-490.93"/>
<polygon fill="#707070" stroke="#707070" points="1013.73,-493.65 1020.09,-485.17 1009.83,-487.83 1013.73,-493.65"/>
</g>
<!-- Function::::my&#45;function&#45;&gt;Role::::lambda&#45;role -->
<g id="edge17" class="edge">
<title>Function::::my&#45;function&#45;&gt;Role::::lambda&#45;role</title>
<path fill="none" stroke="#707070" d="M862.86,-596C905.64,-596 957.34,-596 997.26,-596"/>
<polygon fill="#707070" stroke="#707070" points="997.41,-599.5 1007.41,-596 997.41,-592.5 997.41,-599.5"/>
</g>
<!-- HostedZone::::grucloud.org. -->
<g id="node14" class="node">
<title>HostedZone::::grucloud.org.</title>
<polygon fill="#e5e5e5" stroke="#dddddd" points="875.5,-213 685.5,-213 685.5,-155 875.5,-155 875.5,-213"/>
<text text-anchor="start" x="697.5" y="-193.2" font-family="Helvetica,sans-Serif" font-weight="bold" font-size="16.00" fill="#707070">Route53::HostedZone</text>
<text text-anchor="start" x="697.5" y="-168.2" font-family="Helvetica,sans-Serif" font-size="16.00" fill="#383838">grucloud.org.</text>
</g>
<!-- Domain::::grucloud.org -->
<g id="node19" class="node">
<title>Domain::::grucloud.org</title>
<polygon fill="#e5e5e5" stroke="#dddddd" points="1174.5,-213 950.5,-213 950.5,-155 1174.5,-155 1174.5,-213"/>
<text text-anchor="start" x="962.5" y="-193.2" font-family="Helvetica,sans-Serif" font-weight="bold" font-size="16.00" fill="#707070">Route53Domains::Domain</text>
<text text-anchor="start" x="962.5" y="-168.2" font-family="Helvetica,sans-Serif" font-size="16.00" fill="#383838">grucloud.org</text>
</g>
<!-- HostedZone::::grucloud.org.&#45;&gt;Domain::::grucloud.org -->
<g id="edge18" class="edge">
<title>HostedZone::::grucloud.org.&#45;&gt;Domain::::grucloud.org</title>
<path fill="none" stroke="#707070" d="M875.51,-184C896.22,-184 918.45,-184 940.06,-184"/>
<polygon fill="#707070" stroke="#707070" points="940.28,-187.5 950.28,-184 940.28,-180.5 940.28,-187.5"/>
</g>
<!-- Record::::record::ACM::Certificate::grucloud.org -->
<g id="node15" class="node">
<title>Record::::record::ACM::Certificate::grucloud.org</title>
<polygon fill="#e5e5e5" stroke="#dddddd" points="598,-281 335,-281 335,-223 598,-223 598,-281"/>
<text text-anchor="start" x="347.5" y="-261.2" font-family="Helvetica,sans-Serif" font-weight="bold" font-size="16.00" fill="#707070">Route53::Record</text>
<text text-anchor="start" x="347.5" y="-236.2" font-family="Helvetica,sans-Serif" font-size="16.00" fill="#383838">record::ACM::Certificate::gruclo...</text>
</g>
<!-- Record::::record::ACM::Certificate::grucloud.org&#45;&gt;Certificate::::grucloud.org -->
<g id="edge20" class="edge">
<title>Record::::record::ACM::Certificate::grucloud.org&#45;&gt;Certificate::::grucloud.org</title>
<path fill="none" stroke="#707070" d="M598.35,-245.9C685.39,-243.2 802.19,-242.16 905,-250 928.74,-251.81 954.34,-255.14 977.81,-258.76"/>
<polygon fill="#707070" stroke="#707070" points="977.31,-262.22 987.73,-260.33 978.4,-255.31 977.31,-262.22"/>
</g>
<!-- Record::::record::ACM::Certificate::grucloud.org&#45;&gt;HostedZone::::grucloud.org. -->
<g id="edge19" class="edge">
<title>Record::::record::ACM::Certificate::grucloud.org&#45;&gt;HostedZone::::grucloud.org.</title>
<path fill="none" stroke="#707070" d="M598.01,-223.56C623.69,-217.96 650.32,-212.15 675.01,-206.77"/>
<polygon fill="#707070" stroke="#707070" points="676.08,-210.12 685.1,-204.57 674.59,-203.28 676.08,-210.12"/>
</g>
<!-- Record::::record::ApiGatewayV2::DomainName::grucloud.org -->
<g id="node16" class="node">
<title>Record::::record::ApiGatewayV2::DomainName::grucloud.org</title>
<polygon fill="#e5e5e5" stroke="#dddddd" points="620,-357 313,-357 313,-299 620,-299 620,-357"/>
<text text-anchor="start" x="325.5" y="-337.2" font-family="Helvetica,sans-Serif" font-weight="bold" font-size="16.00" fill="#707070">Route53::Record</text>
<text text-anchor="start" x="325.5" y="-312.2" font-family="Helvetica,sans-Serif" font-size="16.00" fill="#383838">record::ApiGatewayV2::DomainName...</text>
</g>
<!-- Record::::record::ApiGatewayV2::DomainName::grucloud.org&#45;&gt;DomainName::::grucloud.org -->
<g id="edge22" class="edge">
<title>Record::::record::ApiGatewayV2::DomainName::grucloud.org&#45;&gt;DomainName::::grucloud.org</title>
<path fill="none" stroke="#707070" d="M620.3,-308.41C628.75,-307.33 637.22,-306.24 645.6,-305.17"/>
<polygon fill="#707070" stroke="#707070" points="646.29,-308.61 655.76,-303.86 645.4,-301.66 646.29,-308.61"/>
</g>
<!-- Record::::record::ApiGatewayV2::DomainName::grucloud.org&#45;&gt;HostedZone::::grucloud.org. -->
<g id="edge21" class="edge">
<title>Record::::record::ApiGatewayV2::DomainName::grucloud.org&#45;&gt;HostedZone::::grucloud.org.</title>
<path fill="none" stroke="#707070" d="M603.16,-298.9C608.98,-296.19 614.62,-293.23 620,-290 640.5,-277.68 637.17,-264.75 656,-250 671.24,-238.07 688.95,-227.17 706.11,-217.82"/>
<polygon fill="#707070" stroke="#707070" points="707.84,-220.87 715.02,-213.08 704.55,-214.69 707.84,-220.87"/>
</g>
<!-- Record::::record::grucloud.org.::NS -->
<g id="node17" class="node">
<title>Record::::record::grucloud.org.::NS</title>
<polygon fill="#e5e5e5" stroke="#dddddd" points="569,-129 364,-129 364,-71 569,-71 569,-129"/>
<text text-anchor="start" x="376.5" y="-109.2" font-family="Helvetica,sans-Serif" font-weight="bold" font-size="16.00" fill="#707070">Route53::Record</text>
<text text-anchor="start" x="376.5" y="-84.2" font-family="Helvetica,sans-Serif" font-size="16.00" fill="#383838">record::grucloud.org.::NS</text>
</g>
<!-- Record::::record::grucloud.org.::NS&#45;&gt;HostedZone::::grucloud.org. -->
<g id="edge23" class="edge">
<title>Record::::record::grucloud.org.::NS&#45;&gt;HostedZone::::grucloud.org.</title>
<path fill="none" stroke="#707070" d="M569.35,-124.83C586.29,-129.12 603.66,-133.61 620,-138 637.93,-142.82 656.94,-148.12 675.34,-153.37"/>
<polygon fill="#707070" stroke="#707070" points="674.62,-156.8 685.2,-156.19 676.55,-150.07 674.62,-156.8"/>
</g>
<!-- Record::::record::grucloud.org.::SOA -->
<g id="node18" class="node">
<title>Record::::record::grucloud.org.::SOA</title>
<polygon fill="#e5e5e5" stroke="#dddddd" points="575,-205 358,-205 358,-147 575,-147 575,-205"/>
<text text-anchor="start" x="370.5" y="-185.2" font-family="Helvetica,sans-Serif" font-weight="bold" font-size="16.00" fill="#707070">Route53::Record</text>
<text text-anchor="start" x="370.5" y="-160.2" font-family="Helvetica,sans-Serif" font-size="16.00" fill="#383838">record::grucloud.org.::SOA</text>
</g>
<!-- Record::::record::grucloud.org.::SOA&#45;&gt;HostedZone::::grucloud.org. -->
<g id="edge24" class="edge">
<title>Record::::record::grucloud.org.::SOA&#45;&gt;HostedZone::::grucloud.org.</title>
<path fill="none" stroke="#707070" d="M575.31,-178.76C607.65,-179.59 643.06,-180.5 675.18,-181.33"/>
<polygon fill="#707070" stroke="#707070" points="675.39,-184.83 685.48,-181.59 675.57,-177.83 675.39,-184.83"/>
</g>
</g>
</svg>
