<?xml version="1.0" encoding="UTF-8" standalone="no"?>
<!DOCTYPE svg PUBLIC "-//W3C//DTD SVG 1.1//EN"
 "http://www.w3.org/Graphics/SVG/1.1/DTD/svg11.dtd">
<!-- Generated by graphviz version 3.0.0 (20220226.1711)
 -->
<!-- Title: graphname Pages: 1 -->
<svg width="1377pt" height="641pt"
 viewBox="0.00 0.00 1377.00 641.00" xmlns="http://www.w3.org/2000/svg" xmlns:xlink="http://www.w3.org/1999/xlink">
<g id="graph0" class="graph" transform="scale(1 1) rotate(0) translate(4 637)">
<title>graphname</title>
<polygon fill="#fafafa" stroke="transparent" points="-4,4 -4,-637 1373,-637 1373,4 -4,4"/>
<text text-anchor="start" x="496.5" y="-608.4" font-family="Helvetica,sans-Serif" font-weight="bold" font-size="22.00" fill="#383838">Project ApiGateway Auth0 Autorizer</text>
<text text-anchor="start" x="680.5" y="-592.8" font-family="Helvetica,sans-Serif" font-size="14.00"> &#160;</text>
<text text-anchor="start" x="496.5" y="-571.2" font-family="Helvetica,sans-Serif" font-weight="bold" font-size="16.00" fill="#707070">Target Diagram</text>
<g id="clust1" class="cluster">
<title>cluster_aws</title>
<polygon fill="#f5f5f5" stroke="#f5f5f5" points="8,-8 8,-549 1361,-549 1361,-8 8,-8"/>
<text text-anchor="start" x="622.5" y="-23" font-family="Helvetica,sans-Serif" font-weight="bold" font-size="20.00" fill="#707070">Provider aws</text>
</g>
<g id="clust2" class="cluster">
<title>cluster_aws_</title>
<polygon fill="#eeeeee" stroke="#eeeeee" points="16,-54 16,-541 1353,-541 1353,-54 16,-54"/>
<text text-anchor="start" x="684.36" y="-58.3" font-family="Helvetica,sans-Serif" font-size="1.00" fill="#383838"> </text>
</g>
<!-- Certificate::grucloud.org -->
<g id="node1" class="node">
<title>Certificate::grucloud.org</title>
<polygon fill="#e5e5e5" stroke="#dddddd" points="1137,-129 988,-129 988,-71 1137,-71 1137,-129"/>
<text text-anchor="start" x="1000.5" y="-109.2" font-family="Helvetica,sans-Serif" font-weight="bold" font-size="16.00" fill="#707070">ACM::Certificate</text>
<text text-anchor="start" x="1000.5" y="-84.2" font-family="Helvetica,sans-Serif" font-size="16.00" fill="#383838">grucloud.org</text>
</g>
<!-- DomainName::grucloud.org -->
<g id="node2" class="node">
<title>DomainName::grucloud.org</title>
<polygon fill="#e5e5e5" stroke="#dddddd" points="905,-225 656,-225 656,-167 905,-167 905,-225"/>
<text text-anchor="start" x="668.5" y="-205.2" font-family="Helvetica,sans-Serif" font-weight="bold" font-size="16.00" fill="#707070">ApiGatewayV2::DomainName</text>
<text text-anchor="start" x="668.5" y="-180.2" font-family="Helvetica,sans-Serif" font-size="16.00" fill="#383838">grucloud.org</text>
</g>
<!-- DomainName::grucloud.org&#45;&gt;Certificate::grucloud.org -->
<g id="edge1" class="edge">
<title>DomainName::grucloud.org&#45;&gt;Certificate::grucloud.org</title>
<path fill="none" stroke="#707070" d="M882.23,-166.94C890,-164.11 897.67,-161.12 905,-158 921.84,-150.83 924.19,-145.23 941,-138 952.88,-132.89 965.68,-128.11 978.35,-123.8"/>
<polygon fill="#707070" stroke="#707070" points="979.61,-127.06 987.99,-120.58 977.4,-120.42 979.61,-127.06"/>
</g>
<!-- Api::my&#45;api -->
<g id="node3" class="node">
<title>Api::my&#45;api</title>
<polygon fill="#e5e5e5" stroke="#dddddd" points="1148.5,-393 976.5,-393 976.5,-335 1148.5,-335 1148.5,-393"/>
<text text-anchor="start" x="988.5" y="-373.2" font-family="Helvetica,sans-Serif" font-weight="bold" font-size="16.00" fill="#707070">ApiGatewayV2::Api</text>
<text text-anchor="start" x="988.5" y="-348.2" font-family="Helvetica,sans-Serif" font-size="16.00" fill="#383838">my&#45;api</text>
</g>
<!-- Stage::my&#45;api&#45;stage&#45;dev -->
<g id="node4" class="node">
<title>Stage::my&#45;api&#45;stage&#45;dev</title>
<polygon fill="#e5e5e5" stroke="#dddddd" points="875.5,-321 685.5,-321 685.5,-263 875.5,-263 875.5,-321"/>
<text text-anchor="start" x="697.5" y="-301.2" font-family="Helvetica,sans-Serif" font-weight="bold" font-size="16.00" fill="#707070">ApiGatewayV2::Stage</text>
<text text-anchor="start" x="697.5" y="-276.2" font-family="Helvetica,sans-Serif" font-size="16.00" fill="#383838">my&#45;api&#45;stage&#45;dev</text>
</g>
<!-- Stage::my&#45;api&#45;stage&#45;dev&#45;&gt;Api::my&#45;api -->
<g id="edge2" class="edge">
<title>Stage::my&#45;api&#45;stage&#45;dev&#45;&gt;Api::my&#45;api</title>
<path fill="none" stroke="#707070" d="M875.51,-316.18C904.78,-323.7 937.05,-332 966.39,-339.54"/>
<polygon fill="#707070" stroke="#707070" points="965.66,-342.97 976.21,-342.07 967.4,-336.19 965.66,-342.97"/>
</g>
<!-- LogGroup::lg&#45;http&#45;test -->
<g id="node10" class="node">
<title>LogGroup::lg&#45;http&#45;test</title>
<polygon fill="#e5e5e5" stroke="#dddddd" points="1184,-317 941,-317 941,-259 1184,-259 1184,-317"/>
<text text-anchor="start" x="953.5" y="-297.2" font-family="Helvetica,sans-Serif" font-weight="bold" font-size="16.00" fill="#707070">CloudWatchLogs::LogGroup</text>
<text text-anchor="start" x="953.5" y="-272.2" font-family="Helvetica,sans-Serif" font-size="16.00" fill="#383838">lg&#45;http&#45;test</text>
</g>
<!-- Stage::my&#45;api&#45;stage&#45;dev&#45;&gt;LogGroup::lg&#45;http&#45;test -->
<g id="edge3" class="edge">
<title>Stage::my&#45;api&#45;stage&#45;dev&#45;&gt;LogGroup::lg&#45;http&#45;test</title>
<path fill="none" stroke="#707070" d="M875.51,-290.66C893.29,-290.4 912.18,-290.13 930.85,-289.87"/>
<polygon fill="#707070" stroke="#707070" points="930.93,-293.37 940.88,-289.72 930.83,-286.37 930.93,-293.37"/>
</g>
<!-- Authorizer::authorizer&#45;auth0 -->
<g id="node5" class="node">
<title>Authorizer::authorizer&#45;auth0</title>
<polygon fill="#e5e5e5" stroke="#dddddd" points="893.5,-437 667.5,-437 667.5,-379 893.5,-379 893.5,-437"/>
<text text-anchor="start" x="679.5" y="-417.2" font-family="Helvetica,sans-Serif" font-weight="bold" font-size="16.00" fill="#707070">ApiGatewayV2::Authorizer</text>
<text text-anchor="start" x="679.5" y="-392.2" font-family="Helvetica,sans-Serif" font-size="16.00" fill="#383838">authorizer&#45;auth0</text>
</g>
<!-- Authorizer::authorizer&#45;auth0&#45;&gt;Api::my&#45;api -->
<g id="edge4" class="edge">
<title>Authorizer::authorizer&#45;auth0&#45;&gt;Api::my&#45;api</title>
<path fill="none" stroke="#707070" d="M893.77,-390.36C917.87,-386.57 943.11,-382.6 966.47,-378.93"/>
<polygon fill="#707070" stroke="#707070" points="967.03,-382.39 976.37,-377.38 965.94,-375.47 967.03,-382.39"/>
</g>
<!-- ApiMapping::apimapping::grucloud.org::my&#45;api::my&#45;api&#45;stage&#45;dev:: -->
<g id="node6" class="node">
<title>ApiMapping::apimapping::grucloud.org::my&#45;api::my&#45;api&#45;stage&#45;dev::</title>
<polygon fill="#e5e5e5" stroke="#dddddd" points="606,-281 327,-281 327,-223 606,-223 606,-281"/>
<text text-anchor="start" x="339.5" y="-261.2" font-family="Helvetica,sans-Serif" font-weight="bold" font-size="16.00" fill="#707070">ApiGatewayV2::ApiMapping</text>
<text text-anchor="start" x="339.5" y="-236.2" font-family="Helvetica,sans-Serif" font-size="16.00" fill="#383838">apimapping::grucloud.org::my&#45;api...</text>
</g>
<!-- ApiMapping::apimapping::grucloud.org::my&#45;api::my&#45;api&#45;stage&#45;dev::&#45;&gt;DomainName::grucloud.org -->
<g id="edge6" class="edge">
<title>ApiMapping::apimapping::grucloud.org::my&#45;api::my&#45;api&#45;stage&#45;dev::&#45;&gt;DomainName::grucloud.org</title>
<path fill="none" stroke="#707070" d="M606.16,-227.11C619.39,-224.74 632.79,-222.33 645.97,-219.97"/>
<polygon fill="#707070" stroke="#707070" points="646.77,-223.38 656,-218.17 645.54,-216.49 646.77,-223.38"/>
</g>
<!-- ApiMapping::apimapping::grucloud.org::my&#45;api::my&#45;api&#45;stage&#45;dev::&#45;&gt;Api::my&#45;api -->
<g id="edge5" class="edge">
<title>ApiMapping::apimapping::grucloud.org::my&#45;api::my&#45;api&#45;stage&#45;dev::&#45;&gt;Api::my&#45;api</title>
<path fill="none" stroke="#707070" d="M606.1,-245.45C724.64,-241.02 879.98,-238.46 905,-254 935.39,-272.88 913.78,-302.78 941,-326 948.78,-332.64 957.72,-338.11 967.14,-342.64"/>
<polygon fill="#707070" stroke="#707070" points="965.73,-345.84 976.29,-346.69 968.57,-339.44 965.73,-345.84"/>
</g>
<!-- ApiMapping::apimapping::grucloud.org::my&#45;api::my&#45;api&#45;stage&#45;dev::&#45;&gt;Stage::my&#45;api&#45;stage&#45;dev -->
<g id="edge7" class="edge">
<title>ApiMapping::apimapping::grucloud.org::my&#45;api::my&#45;api&#45;stage&#45;dev::&#45;&gt;Stage::my&#45;api&#45;stage&#45;dev</title>
<path fill="none" stroke="#707070" d="M606.16,-269.78C629.31,-272.74 652.97,-275.78 675.08,-278.61"/>
<polygon fill="#707070" stroke="#707070" points="674.75,-282.1 685.12,-279.9 675.64,-275.16 674.75,-282.1"/>
</g>
<!-- Integration::integration::my&#45;api::my&#45;function -->
<g id="node7" class="node">
<title>Integration::integration::my&#45;api::my&#45;function</title>
<polygon fill="#e5e5e5" stroke="#dddddd" points="599,-485 334,-485 334,-427 599,-427 599,-485"/>
<text text-anchor="start" x="346.5" y="-465.2" font-family="Helvetica,sans-Serif" font-weight="bold" font-size="16.00" fill="#707070">ApiGatewayV2::Integration</text>
<text text-anchor="start" x="346.5" y="-440.2" font-family="Helvetica,sans-Serif" font-size="16.00" fill="#383838">integration::my&#45;api::my&#45;function...</text>
</g>
<!-- Integration::integration::my&#45;api::my&#45;function&#45;&gt;Api::my&#45;api -->
<g id="edge8" class="edge">
<title>Integration::integration::my&#45;api::my&#45;function&#45;&gt;Api::my&#45;api</title>
<path fill="none" stroke="#707070" d="M599.1,-459.56C706.52,-461.25 849.32,-460.38 905,-446 942.41,-436.34 980.9,-416.33 1010.34,-398.5"/>
<polygon fill="#707070" stroke="#707070" points="1012.51,-401.28 1019.18,-393.05 1008.83,-395.32 1012.51,-401.28"/>
</g>
<!-- Function::my&#45;function -->
<g id="node13" class="node">
<title>Function::my&#45;function</title>
<polygon fill="#e5e5e5" stroke="#dddddd" points="862.5,-533 698.5,-533 698.5,-475 862.5,-475 862.5,-533"/>
<text text-anchor="start" x="710.5" y="-513.2" font-family="Helvetica,sans-Serif" font-weight="bold" font-size="16.00" fill="#707070">Lambda::Function</text>
<text text-anchor="start" x="710.5" y="-488.2" font-family="Helvetica,sans-Serif" font-size="16.00" fill="#383838">my&#45;function</text>
</g>
<!-- Integration::integration::my&#45;api::my&#45;function&#45;&gt;Function::my&#45;function -->
<g id="edge9" class="edge">
<title>Integration::integration::my&#45;api::my&#45;function&#45;&gt;Function::my&#45;function</title>
<path fill="none" stroke="#707070" d="M599.36,-476.29C629.28,-480.89 660.42,-485.68 688.22,-489.96"/>
<polygon fill="#707070" stroke="#707070" points="687.89,-493.45 698.3,-491.51 688.95,-486.53 687.89,-493.45"/>
</g>
<!-- Route::route::my&#45;api::ANY /my&#45;function -->
<g id="node8" class="node">
<title>Route::route::my&#45;api::ANY /my&#45;function</title>
<polygon fill="#e5e5e5" stroke="#dddddd" points="277,-437 24,-437 24,-379 277,-379 277,-437"/>
<text text-anchor="start" x="36.5" y="-417.2" font-family="Helvetica,sans-Serif" font-weight="bold" font-size="16.00" fill="#707070">ApiGatewayV2::Route</text>
<text text-anchor="start" x="36.5" y="-392.2" font-family="Helvetica,sans-Serif" font-size="16.00" fill="#383838">route::my&#45;api::ANY /my&#45;function</text>
</g>
<!-- Route::route::my&#45;api::ANY /my&#45;function&#45;&gt;Api::my&#45;api -->
<g id="edge10" class="edge">
<title>Route::route::my&#45;api::ANY /my&#45;function&#45;&gt;Api::my&#45;api</title>
<path fill="none" stroke="#707070" d="M277.07,-396.43C379.06,-387.53 526.68,-375.82 656,-370 762.17,-365.22 884.13,-363.99 966.33,-363.79"/>
<polygon fill="#707070" stroke="#707070" points="966.42,-367.29 976.41,-363.77 966.4,-360.29 966.42,-367.29"/>
</g>
<!-- Route::route::my&#45;api::ANY /my&#45;function&#45;&gt;Authorizer::authorizer&#45;auth0 -->
<g id="edge12" class="edge">
<title>Route::route::my&#45;api::ANY /my&#45;function&#45;&gt;Authorizer::authorizer&#45;auth0</title>
<path fill="none" stroke="#707070" d="M277.08,-408C387.63,-408 547.63,-408 657.2,-408"/>
<polygon fill="#707070" stroke="#707070" points="657.31,-411.5 667.31,-408 657.31,-404.5 657.31,-411.5"/>
</g>
<!-- Route::route::my&#45;api::ANY /my&#45;function&#45;&gt;Integration::integration::my&#45;api::my&#45;function -->
<g id="edge11" class="edge">
<title>Route::route::my&#45;api::ANY /my&#45;function&#45;&gt;Integration::integration::my&#45;api::my&#45;function</title>
<path fill="none" stroke="#707070" d="M277.41,-427.25C292.66,-429.58 308.33,-431.97 323.79,-434.34"/>
<polygon fill="#707070" stroke="#707070" points="323.5,-437.83 333.92,-435.89 324.56,-430.91 323.5,-437.83"/>
</g>
<!-- Deployment::deployment::my&#45;api -->
<g id="node9" class="node">
<title>Deployment::deployment::my&#45;api</title>
<polygon fill="#e5e5e5" stroke="#dddddd" points="585.5,-357 347.5,-357 347.5,-299 585.5,-299 585.5,-357"/>
<text text-anchor="start" x="359.5" y="-337.2" font-family="Helvetica,sans-Serif" font-weight="bold" font-size="16.00" fill="#707070">ApiGatewayV2::Deployment</text>
<text text-anchor="start" x="359.5" y="-312.2" font-family="Helvetica,sans-Serif" font-size="16.00" fill="#383838">deployment::my&#45;api</text>
</g>
<!-- Deployment::deployment::my&#45;api&#45;&gt;Api::my&#45;api -->
<g id="edge13" class="edge">
<title>Deployment::deployment::my&#45;api&#45;&gt;Api::my&#45;api</title>
<path fill="none" stroke="#707070" d="M585.57,-335.16C697.22,-341.92 862.67,-351.95 966.17,-358.22"/>
<polygon fill="#707070" stroke="#707070" points="966.11,-361.73 976.3,-358.84 966.53,-354.74 966.11,-361.73"/>
</g>
<!-- Deployment::deployment::my&#45;api&#45;&gt;Stage::my&#45;api&#45;stage&#45;dev -->
<g id="edge14" class="edge">
<title>Deployment::deployment::my&#45;api&#45;&gt;Stage::my&#45;api&#45;stage&#45;dev</title>
<path fill="none" stroke="#707070" d="M585.9,-314.34C615.35,-310.94 646.71,-307.32 675.41,-304.01"/>
<polygon fill="#707070" stroke="#707070" points="675.92,-307.48 685.45,-302.85 675.12,-300.52 675.92,-307.48"/>
</g>
<!-- Role::lambda&#45;role -->
<g id="node11" class="node">
<title>Role::lambda&#45;role</title>
<polygon fill="#e5e5e5" stroke="#dddddd" points="1117.5,-533 1007.5,-533 1007.5,-475 1117.5,-475 1117.5,-533"/>
<text text-anchor="start" x="1019.5" y="-513.2" font-family="Helvetica,sans-Serif" font-weight="bold" font-size="16.00" fill="#707070">IAM::Role</text>
<text text-anchor="start" x="1019.5" y="-488.2" font-family="Helvetica,sans-Serif" font-size="16.00" fill="#383838">lambda&#45;role</text>
</g>
<!-- Policy::lambda&#45;policy -->
<g id="node12" class="node">
<title>Policy::lambda&#45;policy</title>
<polygon fill="#e5e5e5" stroke="#dddddd" points="1345,-533 1220,-533 1220,-475 1345,-475 1345,-533"/>
<text text-anchor="start" x="1232.5" y="-513.2" font-family="Helvetica,sans-Serif" font-weight="bold" font-size="16.00" fill="#707070">IAM::Policy</text>
<text text-anchor="start" x="1232.5" y="-488.2" font-family="Helvetica,sans-Serif" font-size="16.00" fill="#383838">lambda&#45;policy</text>
</g>
<!-- Role::lambda&#45;role&#45;&gt;Policy::lambda&#45;policy -->
<g id="edge15" class="edge">
<title>Role::lambda&#45;role&#45;&gt;Policy::lambda&#45;policy</title>
<path fill="none" stroke="#707070" d="M1117.67,-504C1145.54,-504 1179.88,-504 1209.9,-504"/>
<polygon fill="#707070" stroke="#707070" points="1209.91,-507.5 1219.91,-504 1209.91,-500.5 1209.91,-507.5"/>
</g>
<!-- Function::my&#45;function&#45;&gt;Api::my&#45;api -->
<g id="edge17" class="edge">
<title>Function::my&#45;function&#45;&gt;Api::my&#45;api</title>
<path fill="none" stroke="#707070" d="M862.58,-478.64C876.94,-473.34 891.58,-467.4 905,-461 942.16,-443.28 981.54,-418.84 1011.5,-398.93"/>
<polygon fill="#707070" stroke="#707070" points="1013.73,-401.65 1020.09,-393.17 1009.83,-395.83 1013.73,-401.65"/>
</g>
<!-- Function::my&#45;function&#45;&gt;Role::lambda&#45;role -->
<g id="edge16" class="edge">
<title>Function::my&#45;function&#45;&gt;Role::lambda&#45;role</title>
<path fill="none" stroke="#707070" d="M862.86,-504C905.64,-504 957.34,-504 997.26,-504"/>
<polygon fill="#707070" stroke="#707070" points="997.41,-507.5 1007.41,-504 997.41,-500.5 997.41,-507.5"/>
</g>
<!-- HostedZone::grucloud.org. -->
<g id="node14" class="node">
<title>HostedZone::grucloud.org.</title>
<polygon fill="#e5e5e5" stroke="#dddddd" points="875.5,-149 685.5,-149 685.5,-91 875.5,-91 875.5,-149"/>
<text text-anchor="start" x="697.5" y="-129.2" font-family="Helvetica,sans-Serif" font-weight="bold" font-size="16.00" fill="#707070">Route53::HostedZone</text>
<text text-anchor="start" x="697.5" y="-104.2" font-family="Helvetica,sans-Serif" font-size="16.00" fill="#383838">grucloud.org.</text>
</g>
<!-- Domain::grucloud.org -->
<g id="node17" class="node">
<title>Domain::grucloud.org</title>
<polygon fill="#e5e5e5" stroke="#dddddd" points="1174.5,-205 950.5,-205 950.5,-147 1174.5,-147 1174.5,-205"/>
<text text-anchor="start" x="962.5" y="-185.2" font-family="Helvetica,sans-Serif" font-weight="bold" font-size="16.00" fill="#707070">Route53Domains::Domain</text>
<text text-anchor="start" x="962.5" y="-160.2" font-family="Helvetica,sans-Serif" font-size="16.00" fill="#383838">grucloud.org</text>
</g>
<!-- HostedZone::grucloud.org.&#45;&gt;Domain::grucloud.org -->
<g id="edge18" class="edge">
<title>HostedZone::grucloud.org.&#45;&gt;Domain::grucloud.org</title>
<path fill="none" stroke="#707070" d="M875.51,-138.8C896.32,-142.96 918.65,-147.43 940.36,-151.77"/>
<polygon fill="#707070" stroke="#707070" points="939.79,-155.23 950.28,-153.76 941.16,-148.36 939.79,-155.23"/>
</g>
<!-- Record::record::ACM::Certificate::CNAME::grucloud.org -->
<g id="node15" class="node">
<title>Record::record::ACM::Certificate::CNAME::grucloud.org</title>
<polygon fill="#e5e5e5" stroke="#dddddd" points="606.5,-129 326.5,-129 326.5,-71 606.5,-71 606.5,-129"/>
<text text-anchor="start" x="338.5" y="-109.2" font-family="Helvetica,sans-Serif" font-weight="bold" font-size="16.00" fill="#707070">Route53::Record</text>
<text text-anchor="start" x="338.5" y="-84.2" font-family="Helvetica,sans-Serif" font-size="16.00" fill="#383838">record::ACM::Certificate::CNAME:...</text>
</g>
<!-- Record::record::ACM::Certificate::CNAME::grucloud.org&#45;&gt;Certificate::grucloud.org -->
<g id="edge20" class="edge">
<title>Record::record::ACM::Certificate::CNAME::grucloud.org&#45;&gt;Certificate::grucloud.org</title>
<path fill="none" stroke="#707070" d="M606.62,-85.21C623.24,-83.89 639.99,-82.76 656,-82 766.54,-76.73 794.51,-75.67 905,-82 928.55,-83.35 953.99,-85.83 977.38,-88.53"/>
<polygon fill="#707070" stroke="#707070" points="977.27,-92.04 987.61,-89.74 978.09,-85.09 977.27,-92.04"/>
</g>
<!-- Record::record::ACM::Certificate::CNAME::grucloud.org&#45;&gt;HostedZone::grucloud.org. -->
<g id="edge19" class="edge">
<title>Record::record::ACM::Certificate::CNAME::grucloud.org&#45;&gt;HostedZone::grucloud.org.</title>
<path fill="none" stroke="#707070" d="M606.62,-108.92C629.73,-110.4 653.34,-111.91 675.39,-113.33"/>
<polygon fill="#707070" stroke="#707070" points="675.2,-116.82 685.4,-113.97 675.65,-109.84 675.2,-116.82"/>
</g>
<!-- Record::record::ApiGatewayV2::DomainName::A::grucloud.org -->
<g id="node16" class="node">
<title>Record::record::ApiGatewayV2::DomainName::A::grucloud.org</title>
<polygon fill="#e5e5e5" stroke="#dddddd" points="620,-205 313,-205 313,-147 620,-147 620,-205"/>
<text text-anchor="start" x="325.5" y="-185.2" font-family="Helvetica,sans-Serif" font-weight="bold" font-size="16.00" fill="#707070">Route53::Record</text>
<text text-anchor="start" x="325.5" y="-160.2" font-family="Helvetica,sans-Serif" font-size="16.00" fill="#383838">record::ApiGatewayV2::DomainName...</text>
</g>
<!-- Record::record::ApiGatewayV2::DomainName::A::grucloud.org&#45;&gt;DomainName::grucloud.org -->
<g id="edge22" class="edge">
<title>Record::record::ApiGatewayV2::DomainName::A::grucloud.org&#45;&gt;DomainName::grucloud.org</title>
<path fill="none" stroke="#707070" d="M620.3,-185.79C628.75,-186.34 637.22,-186.88 645.6,-187.42"/>
<polygon fill="#707070" stroke="#707070" points="645.56,-190.92 655.76,-188.07 646.01,-183.94 645.56,-190.92"/>
</g>
<!-- Record::record::ApiGatewayV2::DomainName::A::grucloud.org&#45;&gt;HostedZone::grucloud.org. -->
<g id="edge21" class="edge">
<title>Record::record::ApiGatewayV2::DomainName::A::grucloud.org&#45;&gt;HostedZone::grucloud.org.</title>
<path fill="none" stroke="#707070" d="M620.3,-148.57C638.89,-145.24 657.53,-141.89 675.18,-138.72"/>
<polygon fill="#707070" stroke="#707070" points="676.23,-142.09 685.45,-136.88 674.99,-135.2 676.23,-142.09"/>
</g>
</g>
</svg>
