<?xml version="1.0" encoding="UTF-8" standalone="no"?>
<!DOCTYPE svg PUBLIC "-//W3C//DTD SVG 1.1//EN"
 "http://www.w3.org/Graphics/SVG/1.1/DTD/svg11.dtd">
<!-- Generated by graphviz version 7.1.0 (20230121.1956)
 -->
<!-- Title: graphname Pages: 1 -->
<svg width="1250pt" height="684pt"
 viewBox="0.00 0.00 1250.00 684.02" xmlns="http://www.w3.org/2000/svg" xmlns:xlink="http://www.w3.org/1999/xlink">
<g id="graph0" class="graph" transform="scale(1 1) rotate(0) translate(4 680.02)">
<title>graphname</title>
<polygon fill="#fafafa" stroke="none" points="-4,4 -4,-680.02 1246,-680.02 1246,4 -4,4"/>
<text text-anchor="start" x="552" y="-651.42" font-family="Helvetica,sans-Serif" font-weight="bold" font-size="22.00" fill="#383838">Project auth0</text>
<text text-anchor="start" x="617.5" y="-635.82" font-family="Helvetica,sans-Serif" font-size="14.00"> &#160;</text>
<text text-anchor="start" x="552" y="-614.22" font-family="Helvetica,sans-Serif" font-weight="bold" font-size="16.00" fill="#707070">Target Diagram</text>
<g id="clust1" class="cluster">
<title>cluster_aws</title>
<polygon fill="#f5f5f5" stroke="#f5f5f5" points="8,-8 8,-585 1234,-585 1234,-8 8,-8"/>
<text text-anchor="start" x="559" y="-23" font-family="Helvetica,sans-Serif" font-weight="bold" font-size="20.00" fill="#707070">Provider aws</text>
</g>
<g id="clust2" class="cluster">
<title>cluster_aws_</title>
<polygon fill="#eeeeee" stroke="#eeeeee" points="16,-54 16,-577 1226,-577 1226,-54 16,-54"/>
<text text-anchor="start" x="620.86" y="-58.3" font-family="Helvetica,sans-Serif" font-size="1.00" fill="#383838"> </text>
</g>
<!-- Certificate::grucloud.org -->
<g id="node1" class="node">
<title>Certificate::grucloud.org</title>
<polygon fill="#e5e5e5" stroke="#dddddd" points="864,-129 715,-129 715,-71 864,-71 864,-129"/>
<text text-anchor="start" x="727.5" y="-109.2" font-family="Helvetica,sans-Serif" font-weight="bold" font-size="16.00" fill="#707070">ACM::Certificate</text>
<text text-anchor="start" x="727.5" y="-84.2" font-family="Helvetica,sans-Serif" font-size="16.00" fill="#383838">grucloud.org</text>
</g>
<!-- Api::my&#45;api -->
<g id="node2" class="node">
<title>Api::my&#45;api</title>
<polygon fill="#e5e5e5" stroke="#dddddd" points="875.5,-463 703.5,-463 703.5,-405 875.5,-405 875.5,-463"/>
<text text-anchor="start" x="715.5" y="-443.2" font-family="Helvetica,sans-Serif" font-weight="bold" font-size="16.00" fill="#707070">ApiGatewayV2::Api</text>
<text text-anchor="start" x="715.5" y="-418.2" font-family="Helvetica,sans-Serif" font-size="16.00" fill="#383838">my&#45;api</text>
</g>
<!-- ApiMapping::apimapping::grucloud.org::my&#45;api::my&#45;api&#45;stage&#45;dev -->
<g id="node3" class="node">
<title>ApiMapping::apimapping::grucloud.org::my&#45;api::my&#45;api&#45;stage&#45;dev</title>
<polygon fill="#e5e5e5" stroke="#dddddd" points="317,-339 38,-339 38,-281 317,-281 317,-339"/>
<text text-anchor="start" x="50.5" y="-319.2" font-family="Helvetica,sans-Serif" font-weight="bold" font-size="16.00" fill="#707070">ApiGatewayV2::ApiMapping</text>
<text text-anchor="start" x="50.5" y="-294.2" font-family="Helvetica,sans-Serif" font-size="16.00" fill="#383838">apimapping::grucloud.org::my&#45;api...</text>
</g>
<!-- DomainName::grucloud.org -->
<g id="node6" class="node">
<title>DomainName::grucloud.org</title>
<polygon fill="#e5e5e5" stroke="#dddddd" points="624,-225 375,-225 375,-167 624,-167 624,-225"/>
<text text-anchor="start" x="387.5" y="-205.2" font-family="Helvetica,sans-Serif" font-weight="bold" font-size="16.00" fill="#707070">ApiGatewayV2::DomainName</text>
<text text-anchor="start" x="387.5" y="-180.2" font-family="Helvetica,sans-Serif" font-size="16.00" fill="#383838">grucloud.org</text>
</g>
<!-- ApiMapping::apimapping::grucloud.org::my&#45;api::my&#45;api&#45;stage&#45;dev&#45;&gt;DomainName::grucloud.org -->
<g id="edge1" class="edge">
<title>ApiMapping::apimapping::grucloud.org::my&#45;api::my&#45;api&#45;stage&#45;dev&#45;&gt;DomainName::grucloud.org</title>
<path fill="none" stroke="#707070" d="M246.8,-280.5C282.32,-265.67 326.64,-247.93 367,-234 372,-232.27 377.13,-230.56 382.32,-228.87"/>
<polygon fill="#707070" stroke="#707070" points="383.15,-232.28 391.61,-225.9 381.02,-225.61 383.15,-232.28"/>
</g>
<!-- Stage::my&#45;api::my&#45;api&#45;stage&#45;dev -->
<g id="node9" class="node">
<title>Stage::my&#45;api::my&#45;api&#45;stage&#45;dev</title>
<polygon fill="#e5e5e5" stroke="#dddddd" points="603.5,-549 395.5,-549 395.5,-491 603.5,-491 603.5,-549"/>
<text text-anchor="start" x="407.5" y="-529.2" font-family="Helvetica,sans-Serif" font-weight="bold" font-size="16.00" fill="#707070">ApiGatewayV2::Stage</text>
<text text-anchor="start" x="407.5" y="-504.2" font-family="Helvetica,sans-Serif" font-size="16.00" fill="#383838">my&#45;api::my&#45;api&#45;stage&#45;dev</text>
</g>
<!-- ApiMapping::apimapping::grucloud.org::my&#45;api::my&#45;api&#45;stage&#45;dev&#45;&gt;Stage::my&#45;api::my&#45;api&#45;stage&#45;dev -->
<g id="edge2" class="edge">
<title>ApiMapping::apimapping::grucloud.org::my&#45;api::my&#45;api&#45;stage&#45;dev&#45;&gt;Stage::my&#45;api::my&#45;api&#45;stage&#45;dev</title>
<path fill="none" stroke="#707070" d="M262.22,-339.49C286.62,-351.12 311.85,-366.46 331,-386 357.16,-412.69 340.22,-435.93 367,-462 376.13,-470.88 386.84,-478.53 398.15,-485.08"/>
<polygon fill="#707070" stroke="#707070" points="396.43,-488.13 406.89,-489.84 399.78,-481.98 396.43,-488.13"/>
</g>
<!-- Authorizer::authorizer&#45;auth0 -->
<g id="node4" class="node">
<title>Authorizer::authorizer&#45;auth0</title>
<polygon fill="#e5e5e5" stroke="#dddddd" points="612.5,-453 386.5,-453 386.5,-395 612.5,-395 612.5,-453"/>
<text text-anchor="start" x="398.5" y="-433.2" font-family="Helvetica,sans-Serif" font-weight="bold" font-size="16.00" fill="#707070">ApiGatewayV2::Authorizer</text>
<text text-anchor="start" x="398.5" y="-408.2" font-family="Helvetica,sans-Serif" font-size="16.00" fill="#383838">authorizer&#45;auth0</text>
</g>
<!-- Authorizer::authorizer&#45;auth0&#45;&gt;Api::my&#45;api -->
<g id="edge3" class="edge">
<title>Authorizer::authorizer&#45;auth0&#45;&gt;Api::my&#45;api</title>
<path fill="none" stroke="#707070" d="M612.67,-427.89C638.95,-428.81 666.72,-429.77 692.23,-430.66"/>
<polygon fill="#707070" stroke="#707070" points="691.77,-434.14 701.88,-430.99 692.01,-427.15 691.77,-434.14"/>
</g>
<!-- Deployment::deployment::my&#45;api -->
<g id="node5" class="node">
<title>Deployment::deployment::my&#45;api</title>
<polygon fill="#e5e5e5" stroke="#dddddd" points="296.5,-559 58.5,-559 58.5,-501 296.5,-501 296.5,-559"/>
<text text-anchor="start" x="70.5" y="-539.2" font-family="Helvetica,sans-Serif" font-weight="bold" font-size="16.00" fill="#707070">ApiGatewayV2::Deployment</text>
<text text-anchor="start" x="70.5" y="-514.2" font-family="Helvetica,sans-Serif" font-size="16.00" fill="#383838">deployment::my&#45;api</text>
</g>
<!-- Deployment::deployment::my&#45;api&#45;&gt;Api::my&#45;api -->
<g id="edge4" class="edge">
<title>Deployment::deployment::my&#45;api&#45;&gt;Api::my&#45;api</title>
<path fill="none" stroke="#707070" d="M252.58,-559.37C348.19,-592.08 516.02,-631.4 632,-558 663.58,-538.01 640.75,-507.58 668,-482 675.42,-475.04 683.97,-469.04 693.02,-463.88"/>
<polygon fill="#707070" stroke="#707070" points="694.46,-467.08 701.67,-459.31 691.19,-460.89 694.46,-467.08"/>
</g>
<!-- Deployment::deployment::my&#45;api&#45;&gt;Stage::my&#45;api::my&#45;api&#45;stage&#45;dev -->
<g id="edge5" class="edge">
<title>Deployment::deployment::my&#45;api&#45;&gt;Stage::my&#45;api::my&#45;api&#45;stage&#45;dev</title>
<path fill="none" stroke="#707070" d="M296.75,-526.3C325.27,-525.41 355.71,-524.46 384.06,-523.58"/>
<polygon fill="#707070" stroke="#707070" points="383.83,-527.09 393.71,-523.27 383.61,-520.09 383.83,-527.09"/>
</g>
<!-- DomainName::grucloud.org&#45;&gt;Certificate::grucloud.org -->
<g id="edge6" class="edge">
<title>DomainName::grucloud.org&#45;&gt;Certificate::grucloud.org</title>
<path fill="none" stroke="#707070" d="M609.53,-166.59C617.2,-163.88 624.76,-161.01 632,-158 648.9,-150.97 651.19,-145.23 668,-138 679.45,-133.07 691.76,-128.46 703.98,-124.26"/>
<polygon fill="#707070" stroke="#707070" points="704.87,-127.66 713.24,-121.17 702.65,-121.02 704.87,-127.66"/>
</g>
<!-- Integration::integration::my&#45;api::my&#45;function -->
<g id="node7" class="node">
<title>Integration::integration::my&#45;api::my&#45;function</title>
<polygon fill="#e5e5e5" stroke="#dddddd" points="632,-377 367,-377 367,-319 632,-319 632,-377"/>
<text text-anchor="start" x="379.5" y="-357.2" font-family="Helvetica,sans-Serif" font-weight="bold" font-size="16.00" fill="#707070">ApiGatewayV2::Integration</text>
<text text-anchor="start" x="379.5" y="-332.2" font-family="Helvetica,sans-Serif" font-size="16.00" fill="#383838">integration::my&#45;api::my&#45;function...</text>
</g>
<!-- Integration::integration::my&#45;api::my&#45;function&#45;&gt;Api::my&#45;api -->
<g id="edge7" class="edge">
<title>Integration::integration::my&#45;api::my&#45;function&#45;&gt;Api::my&#45;api</title>
<path fill="none" stroke="#707070" d="M602.85,-377.4C612.71,-380.28 622.55,-383.19 632,-386 651.53,-391.82 672.41,-398.14 692.33,-404.23"/>
<polygon fill="#707070" stroke="#707070" points="691.26,-407.57 701.84,-407.15 693.31,-400.87 691.26,-407.57"/>
</g>
<!-- Function::my&#45;function -->
<g id="node13" class="node">
<title>Function::my&#45;function</title>
<polygon fill="#e5e5e5" stroke="#dddddd" points="871.5,-339 707.5,-339 707.5,-281 871.5,-281 871.5,-339"/>
<text text-anchor="start" x="719.5" y="-319.2" font-family="Helvetica,sans-Serif" font-weight="bold" font-size="16.00" fill="#707070">Lambda::Function</text>
<text text-anchor="start" x="719.5" y="-294.2" font-family="Helvetica,sans-Serif" font-size="16.00" fill="#383838">my&#45;function</text>
</g>
<!-- Integration::integration::my&#45;api::my&#45;function&#45;&gt;Function::my&#45;function -->
<g id="edge8" class="edge">
<title>Integration::integration::my&#45;api::my&#45;function&#45;&gt;Function::my&#45;function</title>
<path fill="none" stroke="#707070" d="M632.28,-330.61C653.67,-327.79 675.43,-324.92 695.64,-322.25"/>
<polygon fill="#707070" stroke="#707070" points="696.07,-325.73 705.53,-320.95 695.15,-318.79 696.07,-325.73"/>
</g>
<!-- Route::route::my&#45;api::ANY /my&#45;function -->
<g id="node8" class="node">
<title>Route::route::my&#45;api::ANY /my&#45;function</title>
<polygon fill="#e5e5e5" stroke="#dddddd" points="304,-453 51,-453 51,-395 304,-395 304,-453"/>
<text text-anchor="start" x="63.5" y="-433.2" font-family="Helvetica,sans-Serif" font-weight="bold" font-size="16.00" fill="#707070">ApiGatewayV2::Route</text>
<text text-anchor="start" x="63.5" y="-408.2" font-family="Helvetica,sans-Serif" font-size="16.00" fill="#383838">route::my&#45;api::ANY /my&#45;function</text>
</g>
<!-- Route::route::my&#45;api::ANY /my&#45;function&#45;&gt;Api::my&#45;api -->
<g id="edge9" class="edge">
<title>Route::route::my&#45;api::ANY /my&#45;function&#45;&gt;Api::my&#45;api</title>
<path fill="none" stroke="#707070" d="M304.47,-452.99C325.25,-456.74 346.65,-459.97 367,-462 484.2,-473.7 514.68,-472.41 632,-462 651.51,-460.27 672.23,-457.35 691.99,-454.02"/>
<polygon fill="#707070" stroke="#707070" points="692.43,-457.5 701.68,-452.34 691.23,-450.6 692.43,-457.5"/>
</g>
<!-- Route::route::my&#45;api::ANY /my&#45;function&#45;&gt;Authorizer::authorizer&#45;auth0 -->
<g id="edge11" class="edge">
<title>Route::route::my&#45;api::ANY /my&#45;function&#45;&gt;Authorizer::authorizer&#45;auth0</title>
<path fill="none" stroke="#707070" d="M304.05,-424C327.3,-424 351.57,-424 374.76,-424"/>
<polygon fill="#707070" stroke="#707070" points="374.54,-427.5 384.54,-424 374.54,-420.5 374.54,-427.5"/>
</g>
<!-- Route::route::my&#45;api::ANY /my&#45;function&#45;&gt;Integration::integration::my&#45;api::my&#45;function -->
<g id="edge10" class="edge">
<title>Route::route::my&#45;api::ANY /my&#45;function&#45;&gt;Integration::integration::my&#45;api::my&#45;function</title>
<path fill="none" stroke="#707070" d="M302.68,-394.51C322.54,-389.79 343.18,-384.89 363.29,-380.11"/>
<polygon fill="#707070" stroke="#707070" points="364,-383.54 372.92,-377.83 362.38,-376.73 364,-383.54"/>
</g>
<!-- Stage::my&#45;api::my&#45;api&#45;stage&#45;dev&#45;&gt;Api::my&#45;api -->
<g id="edge12" class="edge">
<title>Stage::my&#45;api::my&#45;api&#45;stage&#45;dev&#45;&gt;Api::my&#45;api</title>
<path fill="none" stroke="#707070" d="M599.21,-490.52C629.38,-481.52 662.49,-471.63 692.48,-462.67"/>
<polygon fill="#707070" stroke="#707070" points="693.34,-466.07 701.92,-459.85 691.34,-459.36 693.34,-466.07"/>
</g>
<!-- LogGroup::lg&#45;http&#45;test -->
<g id="node10" class="node">
<title>LogGroup::lg&#45;http&#45;test</title>
<polygon fill="#e5e5e5" stroke="#dddddd" points="911,-549 668,-549 668,-491 911,-491 911,-549"/>
<text text-anchor="start" x="680.5" y="-529.2" font-family="Helvetica,sans-Serif" font-weight="bold" font-size="16.00" fill="#707070">CloudWatchLogs::LogGroup</text>
<text text-anchor="start" x="680.5" y="-504.2" font-family="Helvetica,sans-Serif" font-size="16.00" fill="#383838">lg&#45;http&#45;test</text>
</g>
<!-- Stage::my&#45;api::my&#45;api&#45;stage&#45;dev&#45;&gt;LogGroup::lg&#45;http&#45;test -->
<g id="edge13" class="edge">
<title>Stage::my&#45;api::my&#45;api&#45;stage&#45;dev&#45;&gt;LogGroup::lg&#45;http&#45;test</title>
<path fill="none" stroke="#707070" d="M603.66,-520C620.82,-520 638.83,-520 656.58,-520"/>
<polygon fill="#707070" stroke="#707070" points="656.39,-523.5 666.39,-520 656.39,-516.5 656.39,-523.5"/>
</g>
<!-- Role::lambda&#45;role -->
<g id="node11" class="node">
<title>Role::lambda&#45;role</title>
<polygon fill="#e5e5e5" stroke="#dddddd" points="1057,-339 947,-339 947,-281 1057,-281 1057,-339"/>
<text text-anchor="start" x="959" y="-319.2" font-family="Helvetica,sans-Serif" font-weight="bold" font-size="16.00" fill="#707070">IAM::Role</text>
<text text-anchor="start" x="959" y="-294.2" font-family="Helvetica,sans-Serif" font-size="16.00" fill="#383838">lambda&#45;role</text>
</g>
<!-- Policy::lambda&#45;policy -->
<g id="node12" class="node">
<title>Policy::lambda&#45;policy</title>
<polygon fill="#e5e5e5" stroke="#dddddd" points="1218,-339 1093,-339 1093,-281 1218,-281 1218,-339"/>
<text text-anchor="start" x="1105.5" y="-319.2" font-family="Helvetica,sans-Serif" font-weight="bold" font-size="16.00" fill="#707070">IAM::Policy</text>
<text text-anchor="start" x="1105.5" y="-294.2" font-family="Helvetica,sans-Serif" font-size="16.00" fill="#383838">lambda&#45;policy</text>
</g>
<!-- Role::lambda&#45;role&#45;&gt;Policy::lambda&#45;policy -->
<g id="edge14" class="edge">
<title>Role::lambda&#45;role&#45;&gt;Policy::lambda&#45;policy</title>
<path fill="none" stroke="#707070" d="M1057.27,-310C1065.06,-310 1073.18,-310 1081.26,-310"/>
<polygon fill="#707070" stroke="#707070" points="1081.11,-313.5 1091.11,-310 1081.11,-306.5 1081.11,-313.5"/>
</g>
<!-- Function::my&#45;function&#45;&gt;Role::lambda&#45;role -->
<g id="edge15" class="edge">
<title>Function::my&#45;function&#45;&gt;Role::lambda&#45;role</title>
<path fill="none" stroke="#707070" d="M871.88,-310C892.97,-310 915.4,-310 935.55,-310"/>
<polygon fill="#707070" stroke="#707070" points="935.29,-313.5 945.29,-310 935.29,-306.5 935.29,-313.5"/>
</g>
<!-- Permission::my&#45;function -->
<g id="node14" class="node">
<title>Permission::my&#45;function</title>
<polygon fill="#e5e5e5" stroke="#dddddd" points="591,-301 408,-301 408,-243 591,-243 591,-301"/>
<text text-anchor="start" x="420.5" y="-281.2" font-family="Helvetica,sans-Serif" font-weight="bold" font-size="16.00" fill="#707070">Lambda::Permission</text>
<text text-anchor="start" x="420.5" y="-256.2" font-family="Helvetica,sans-Serif" font-size="16.00" fill="#383838">my&#45;function</text>
</g>
<!-- Permission::my&#45;function&#45;&gt;Api::my&#45;api -->
<g id="edge17" class="edge">
<title>Permission::my&#45;function&#45;&gt;Api::my&#45;api</title>
<path fill="none" stroke="#707070" d="M591.26,-291.31C605.44,-296.26 619.52,-302.4 632,-310 651.87,-322.1 650.45,-332.73 668,-348 688.34,-365.7 712.25,-383.34 733.39,-398"/>
<polygon fill="#707070" stroke="#707070" points="731.41,-400.88 741.64,-403.65 735.37,-395.11 731.41,-400.88"/>
</g>
<!-- Permission::my&#45;function&#45;&gt;Function::my&#45;function -->
<g id="edge16" class="edge">
<title>Permission::my&#45;function&#45;&gt;Function::my&#45;function</title>
<path fill="none" stroke="#707070" d="M591.23,-283.97C624.56,-288.37 662.32,-293.35 695.82,-297.77"/>
<polygon fill="#707070" stroke="#707070" points="695.13,-301.21 705.51,-299.05 696.05,-294.27 695.13,-301.21"/>
</g>
<!-- HostedZone::grucloud.org. -->
<g id="node15" class="node">
<title>HostedZone::grucloud.org.</title>
<polygon fill="#e5e5e5" stroke="#dddddd" points="594.5,-149 404.5,-149 404.5,-91 594.5,-91 594.5,-149"/>
<text text-anchor="start" x="416.5" y="-129.2" font-family="Helvetica,sans-Serif" font-weight="bold" font-size="16.00" fill="#707070">Route53::HostedZone</text>
<text text-anchor="start" x="416.5" y="-104.2" font-family="Helvetica,sans-Serif" font-size="16.00" fill="#383838">grucloud.org.</text>
</g>
<!-- Domain::grucloud.org -->
<g id="node18" class="node">
<title>Domain::grucloud.org</title>
<polygon fill="#e5e5e5" stroke="#dddddd" points="901.5,-205 677.5,-205 677.5,-147 901.5,-147 901.5,-205"/>
<text text-anchor="start" x="689.5" y="-185.2" font-family="Helvetica,sans-Serif" font-weight="bold" font-size="16.00" fill="#707070">Route53Domains::Domain</text>
<text text-anchor="start" x="689.5" y="-160.2" font-family="Helvetica,sans-Serif" font-size="16.00" fill="#383838">grucloud.org</text>
</g>
<!-- HostedZone::grucloud.org.&#45;&gt;Domain::grucloud.org -->
<g id="edge18" class="edge">
<title>HostedZone::grucloud.org.&#45;&gt;Domain::grucloud.org</title>
<path fill="none" stroke="#707070" d="M594.8,-138.34C617.53,-142.76 642.15,-147.54 665.96,-152.17"/>
<polygon fill="#707070" stroke="#707070" points="665.23,-155.6 675.71,-154.07 666.57,-148.73 665.23,-155.6"/>
</g>
<!-- Record::record::ACM::Certificate::CNAME::grucloud.org -->
<g id="node16" class="node">
<title>Record::record::ACM::Certificate::CNAME::grucloud.org</title>
<polygon fill="#e5e5e5" stroke="#dddddd" points="317.5,-139 37.5,-139 37.5,-81 317.5,-81 317.5,-139"/>
<text text-anchor="start" x="49.5" y="-119.2" font-family="Helvetica,sans-Serif" font-weight="bold" font-size="16.00" fill="#707070">Route53::Record</text>
<text text-anchor="start" x="49.5" y="-94.2" font-family="Helvetica,sans-Serif" font-size="16.00" fill="#383838">record::ACM::Certificate::CNAME:...</text>
</g>
<!-- Record::record::ACM::Certificate::CNAME::grucloud.org&#45;&gt;Certificate::grucloud.org -->
<g id="edge20" class="edge">
<title>Record::record::ACM::Certificate::CNAME::grucloud.org&#45;&gt;Certificate::grucloud.org</title>
<path fill="none" stroke="#707070" d="M317.98,-86.93C334.46,-84.9 351.08,-83.18 367,-82 484.46,-73.32 514.42,-75.26 632,-82 655.23,-83.33 680.3,-85.77 703.43,-88.42"/>
<polygon fill="#707070" stroke="#707070" points="702.77,-91.87 713.11,-89.56 703.59,-84.92 702.77,-91.87"/>
</g>
<!-- Record::record::ACM::Certificate::CNAME::grucloud.org&#45;&gt;HostedZone::grucloud.org. -->
<g id="edge19" class="edge">
<title>Record::record::ACM::Certificate::CNAME::grucloud.org&#45;&gt;HostedZone::grucloud.org.</title>
<path fill="none" stroke="#707070" d="M317.93,-114.36C343.08,-115.14 368.92,-115.95 392.91,-116.7"/>
<polygon fill="#707070" stroke="#707070" points="392.55,-120.19 402.65,-117 392.76,-113.19 392.55,-120.19"/>
</g>
<!-- Record::record::ApiGatewayV2::DomainName::A::grucloud.org -->
<g id="node17" class="node">
<title>Record::record::ApiGatewayV2::DomainName::A::grucloud.org</title>
<polygon fill="#e5e5e5" stroke="#dddddd" points="331,-225 24,-225 24,-167 331,-167 331,-225"/>
<text text-anchor="start" x="36.5" y="-205.2" font-family="Helvetica,sans-Serif" font-weight="bold" font-size="16.00" fill="#707070">Route53::Record</text>
<text text-anchor="start" x="36.5" y="-180.2" font-family="Helvetica,sans-Serif" font-size="16.00" fill="#383838">record::ApiGatewayV2::DomainName...</text>
</g>
<!-- Record::record::ApiGatewayV2::DomainName::A::grucloud.org&#45;&gt;DomainName::grucloud.org -->
<g id="edge22" class="edge">
<title>Record::record::ApiGatewayV2::DomainName::A::grucloud.org&#45;&gt;DomainName::grucloud.org</title>
<path fill="none" stroke="#707070" d="M331.47,-196C342.09,-196 352.75,-196 363.27,-196"/>
<polygon fill="#707070" stroke="#707070" points="363.1,-199.5 373.1,-196 363.1,-192.5 363.1,-199.5"/>
</g>
<!-- Record::record::ApiGatewayV2::DomainName::A::grucloud.org&#45;&gt;HostedZone::grucloud.org. -->
<g id="edge21" class="edge">
<title>Record::record::ApiGatewayV2::DomainName::A::grucloud.org&#45;&gt;HostedZone::grucloud.org.</title>
<path fill="none" stroke="#707070" d="M302.68,-166.51C332.59,-159.4 364.26,-151.88 393.21,-145.01"/>
<polygon fill="#707070" stroke="#707070" points="393.77,-148.47 402.69,-142.75 392.16,-141.66 393.77,-148.47"/>
</g>
</g>
</svg>
