<?xml version="1.0" encoding="UTF-8" standalone="no"?>
<!DOCTYPE svg PUBLIC "-//W3C//DTD SVG 1.1//EN"
 "http://www.w3.org/Graphics/SVG/1.1/DTD/svg11.dtd">
<!-- Generated by graphviz version 3.0.0 (20220226.1711)
 -->
<!-- Title: graphname Pages: 1 -->
<svg width="1250pt" height="700pt"
 viewBox="0.00 0.00 1250.00 700.25" xmlns="http://www.w3.org/2000/svg" xmlns:xlink="http://www.w3.org/1999/xlink">
<g id="graph0" class="graph" transform="scale(1 1) rotate(0) translate(4 696.25)">
<title>graphname</title>
<polygon fill="#fafafa" stroke="transparent" points="-4,4 -4,-696.25 1246,-696.25 1246,4 -4,4"/>
<text text-anchor="start" x="552" y="-667.65" font-family="Helvetica,sans-Serif" font-weight="bold" font-size="22.00" fill="#383838">Project auth0</text>
<text text-anchor="start" x="617.5" y="-652.05" font-family="Helvetica,sans-Serif" font-size="14.00"> &#160;</text>
<text text-anchor="start" x="552" y="-630.45" font-family="Helvetica,sans-Serif" font-weight="bold" font-size="16.00" fill="#707070">Live Diagram</text>
<g id="clust1" class="cluster">
<title>cluster_aws</title>
<polygon fill="#f5f5f5" stroke="#f5f5f5" points="8,-8 8,-601 1234,-601 1234,-8 8,-8"/>
<text text-anchor="start" x="559" y="-23" font-family="Helvetica,sans-Serif" font-weight="bold" font-size="20.00" fill="#707070">Provider aws</text>
</g>
<g id="clust2" class="cluster">
<title>cluster_aws_</title>
<polygon fill="#eeeeee" stroke="#eeeeee" points="16,-54 16,-593 1226,-593 1226,-54 16,-54"/>
<text text-anchor="start" x="620.86" y="-58.3" font-family="Helvetica,sans-Serif" font-size="1.00" fill="#383838"> </text>
</g>
<!-- Certificate::::grucloud.org -->
<g id="node1" class="node">
<title>Certificate::::grucloud.org</title>
<polygon fill="#e5e5e5" stroke="#dddddd" points="864,-287 715,-287 715,-229 864,-229 864,-287"/>
<text text-anchor="start" x="727.5" y="-267.2" font-family="Helvetica,sans-Serif" font-weight="bold" font-size="16.00" fill="#707070">ACM::Certificate</text>
<text text-anchor="start" x="727.5" y="-242.2" font-family="Helvetica,sans-Serif" font-size="16.00" fill="#383838">grucloud.org</text>
</g>
<!-- Api::::my&#45;api -->
<g id="node2" class="node">
<title>Api::::my&#45;api</title>
<polygon fill="#e5e5e5" stroke="#dddddd" points="875.5,-497 703.5,-497 703.5,-439 875.5,-439 875.5,-497"/>
<text text-anchor="start" x="715.5" y="-477.2" font-family="Helvetica,sans-Serif" font-weight="bold" font-size="16.00" fill="#707070">ApiGatewayV2::Api</text>
<text text-anchor="start" x="715.5" y="-452.2" font-family="Helvetica,sans-Serif" font-size="16.00" fill="#383838">my&#45;api</text>
</g>
<!-- ApiMapping::::apimapping::grucloud.org::my&#45;api::my&#45;api&#45;stage&#45;dev:: -->
<g id="node3" class="node">
<title>ApiMapping::::apimapping::grucloud.org::my&#45;api::my&#45;api&#45;stage&#45;dev::</title>
<polygon fill="#e5e5e5" stroke="#dddddd" points="317,-509 38,-509 38,-451 317,-451 317,-509"/>
<text text-anchor="start" x="50.5" y="-489.2" font-family="Helvetica,sans-Serif" font-weight="bold" font-size="16.00" fill="#707070">ApiGatewayV2::ApiMapping</text>
<text text-anchor="start" x="50.5" y="-464.2" font-family="Helvetica,sans-Serif" font-size="16.00" fill="#383838">apimapping::grucloud.org::my&#45;api...</text>
</g>
<!-- ApiMapping::::apimapping::grucloud.org::my&#45;api::my&#45;api&#45;stage&#45;dev::&#45;&gt;Api::::my&#45;api -->
<g id="edge1" class="edge">
<title>ApiMapping::::apimapping::grucloud.org::my&#45;api::my&#45;api&#45;stage&#45;dev::&#45;&gt;Api::::my&#45;api</title>
<path fill="none" stroke="#707070" d="M317.2,-478.45C406.98,-477.3 526.42,-475.5 632,-473 651.76,-472.53 672.92,-471.93 693.09,-471.3"/>
<polygon fill="#707070" stroke="#707070" points="693.34,-474.79 703.22,-470.98 693.12,-467.8 693.34,-474.79"/>
</g>
<!-- DomainName::::grucloud.org -->
<g id="node6" class="node">
<title>DomainName::::grucloud.org</title>
<polygon fill="#e5e5e5" stroke="#dddddd" points="624,-297 375,-297 375,-239 624,-239 624,-297"/>
<text text-anchor="start" x="387.5" y="-277.2" font-family="Helvetica,sans-Serif" font-weight="bold" font-size="16.00" fill="#707070">ApiGatewayV2::DomainName</text>
<text text-anchor="start" x="387.5" y="-252.2" font-family="Helvetica,sans-Serif" font-size="16.00" fill="#383838">grucloud.org</text>
</g>
<!-- ApiMapping::::apimapping::grucloud.org::my&#45;api::my&#45;api&#45;stage&#45;dev::&#45;&gt;DomainName::::grucloud.org -->
<g id="edge2" class="edge">
<title>ApiMapping::::apimapping::grucloud.org::my&#45;api::my&#45;api&#45;stage&#45;dev::&#45;&gt;DomainName::::grucloud.org</title>
<path fill="none" stroke="#707070" d="M317.1,-453.36C322.06,-449.98 326.72,-446.21 331,-442 375.53,-398.11 323.29,-350.71 367,-306 367.79,-305.19 368.59,-304.4 369.41,-303.63"/>
<polygon fill="#707070" stroke="#707070" points="371.78,-306.21 377.18,-297.1 367.27,-300.86 371.78,-306.21"/>
</g>
<!-- Stage::::my&#45;api&#45;stage&#45;dev -->
<g id="node9" class="node">
<title>Stage::::my&#45;api&#45;stage&#45;dev</title>
<polygon fill="#e5e5e5" stroke="#dddddd" points="594.5,-565 404.5,-565 404.5,-507 594.5,-507 594.5,-565"/>
<text text-anchor="start" x="416.5" y="-545.2" font-family="Helvetica,sans-Serif" font-weight="bold" font-size="16.00" fill="#707070">ApiGatewayV2::Stage</text>
<text text-anchor="start" x="416.5" y="-520.2" font-family="Helvetica,sans-Serif" font-size="16.00" fill="#383838">my&#45;api&#45;stage&#45;dev</text>
</g>
<!-- ApiMapping::::apimapping::grucloud.org::my&#45;api::my&#45;api&#45;stage&#45;dev::&#45;&gt;Stage::::my&#45;api&#45;stage&#45;dev -->
<g id="edge3" class="edge">
<title>ApiMapping::::apimapping::grucloud.org::my&#45;api::my&#45;api&#45;stage&#45;dev::&#45;&gt;Stage::::my&#45;api&#45;stage&#45;dev</title>
<path fill="none" stroke="#707070" d="M317.46,-504.32C343.26,-508.83 369.79,-513.48 394.33,-517.77"/>
<polygon fill="#707070" stroke="#707070" points="393.89,-521.25 404.35,-519.52 395.1,-514.35 393.89,-521.25"/>
</g>
<!-- Authorizer::::authorizer&#45;auth0 -->
<g id="node4" class="node">
<title>Authorizer::::authorizer&#45;auth0</title>
<polygon fill="#e5e5e5" stroke="#dddddd" points="612.5,-449 386.5,-449 386.5,-391 612.5,-391 612.5,-449"/>
<text text-anchor="start" x="398.5" y="-429.2" font-family="Helvetica,sans-Serif" font-weight="bold" font-size="16.00" fill="#707070">ApiGatewayV2::Authorizer</text>
<text text-anchor="start" x="398.5" y="-404.2" font-family="Helvetica,sans-Serif" font-size="16.00" fill="#383838">authorizer&#45;auth0</text>
</g>
<!-- Authorizer::::authorizer&#45;auth0&#45;&gt;Api::::my&#45;api -->
<g id="edge4" class="edge">
<title>Authorizer::::authorizer&#45;auth0&#45;&gt;Api::::my&#45;api</title>
<path fill="none" stroke="#707070" d="M612.67,-438.7C639.3,-443.13 667.46,-447.83 693.26,-452.13"/>
<polygon fill="#707070" stroke="#707070" points="692.96,-455.62 703.4,-453.82 694.11,-448.72 692.96,-455.62"/>
</g>
<!-- Deployment::::deployment::my&#45;api -->
<g id="node5" class="node">
<title>Deployment::::deployment::my&#45;api</title>
<polygon fill="#e5e5e5" stroke="#dddddd" points="296.5,-585 58.5,-585 58.5,-527 296.5,-527 296.5,-585"/>
<text text-anchor="start" x="70.5" y="-565.2" font-family="Helvetica,sans-Serif" font-weight="bold" font-size="16.00" fill="#707070">ApiGatewayV2::Deployment</text>
<text text-anchor="start" x="70.5" y="-540.2" font-family="Helvetica,sans-Serif" font-size="16.00" fill="#383838">deployment::my&#45;api</text>
</g>
<!-- Deployment::::deployment::my&#45;api&#45;&gt;Api::::my&#45;api -->
<g id="edge5" class="edge">
<title>Deployment::::deployment::my&#45;api&#45;&gt;Api::::my&#45;api</title>
<path fill="none" stroke="#707070" d="M262.22,-585.12C358.73,-613.19 518.59,-642.28 632,-574 661.3,-556.36 641.73,-527.89 668,-506 675.85,-499.46 684.84,-494.03 694.29,-489.54"/>
<polygon fill="#707070" stroke="#707070" points="695.72,-492.74 703.47,-485.52 692.91,-486.33 695.72,-492.74"/>
</g>
<!-- Deployment::::deployment::my&#45;api&#45;&gt;Stage::::my&#45;api&#45;stage&#45;dev -->
<g id="edge6" class="edge">
<title>Deployment::::deployment::my&#45;api&#45;&gt;Stage::::my&#45;api&#45;stage&#45;dev</title>
<path fill="none" stroke="#707070" d="M296.75,-548.61C328.8,-546.61 363.25,-544.45 394.46,-542.5"/>
<polygon fill="#707070" stroke="#707070" points="394.7,-545.99 404.47,-541.88 394.27,-539.01 394.7,-545.99"/>
</g>
<!-- DomainName::::grucloud.org&#45;&gt;Certificate::::grucloud.org -->
<g id="edge7" class="edge">
<title>DomainName::::grucloud.org&#45;&gt;Certificate::::grucloud.org</title>
<path fill="none" stroke="#707070" d="M624.31,-263.7C651.38,-262.76 679.41,-261.79 704.5,-260.92"/>
<polygon fill="#707070" stroke="#707070" points="704.81,-264.41 714.68,-260.56 704.57,-257.41 704.81,-264.41"/>
</g>
<!-- Integration::::integration::my&#45;api::my&#45;function -->
<g id="node7" class="node">
<title>Integration::::integration::my&#45;api::my&#45;function</title>
<polygon fill="#e5e5e5" stroke="#dddddd" points="632,-373 367,-373 367,-315 632,-315 632,-373"/>
<text text-anchor="start" x="379.5" y="-353.2" font-family="Helvetica,sans-Serif" font-weight="bold" font-size="16.00" fill="#707070">ApiGatewayV2::Integration</text>
<text text-anchor="start" x="379.5" y="-328.2" font-family="Helvetica,sans-Serif" font-size="16.00" fill="#383838">integration::my&#45;api::my&#45;function...</text>
</g>
<!-- Integration::::integration::my&#45;api::my&#45;function&#45;&gt;Api::::my&#45;api -->
<g id="edge8" class="edge">
<title>Integration::::integration::my&#45;api::my&#45;function&#45;&gt;Api::::my&#45;api</title>
<path fill="none" stroke="#707070" d="M608.46,-373.08C616.5,-375.89 624.42,-378.87 632,-382 666.79,-396.38 703.79,-416.47 733.08,-433.61"/>
<polygon fill="#707070" stroke="#707070" points="731.52,-436.76 741.91,-438.83 735.08,-430.73 731.52,-436.76"/>
</g>
<!-- Function::::my&#45;function -->
<g id="node13" class="node">
<title>Function::::my&#45;function</title>
<polygon fill="#e5e5e5" stroke="#dddddd" points="871.5,-373 707.5,-373 707.5,-315 871.5,-315 871.5,-373"/>
<text text-anchor="start" x="719.5" y="-353.2" font-family="Helvetica,sans-Serif" font-weight="bold" font-size="16.00" fill="#707070">Lambda::Function</text>
<text text-anchor="start" x="719.5" y="-328.2" font-family="Helvetica,sans-Serif" font-size="16.00" fill="#383838">my&#45;function</text>
</g>
<!-- Integration::::integration::my&#45;api::my&#45;function&#45;&gt;Function::::my&#45;function -->
<g id="edge9" class="edge">
<title>Integration::::integration::my&#45;api::my&#45;function&#45;&gt;Function::::my&#45;function</title>
<path fill="none" stroke="#707070" d="M632.28,-344C654.3,-344 676.7,-344 697.41,-344"/>
<polygon fill="#707070" stroke="#707070" points="697.43,-347.5 707.43,-344 697.43,-340.5 697.43,-347.5"/>
</g>
<!-- Route::::route::my&#45;api::ANY /my&#45;function -->
<g id="node8" class="node">
<title>Route::::route::my&#45;api::ANY /my&#45;function</title>
<polygon fill="#e5e5e5" stroke="#dddddd" points="304,-433 51,-433 51,-375 304,-375 304,-433"/>
<text text-anchor="start" x="63.5" y="-413.2" font-family="Helvetica,sans-Serif" font-weight="bold" font-size="16.00" fill="#707070">ApiGatewayV2::Route</text>
<text text-anchor="start" x="63.5" y="-388.2" font-family="Helvetica,sans-Serif" font-size="16.00" fill="#383838">route::my&#45;api::ANY /my&#45;function</text>
</g>
<!-- Route::::route::my&#45;api::ANY /my&#45;function&#45;&gt;Api::::my&#45;api -->
<g id="edge10" class="edge">
<title>Route::::route::my&#45;api::ANY /my&#45;function&#45;&gt;Api::::my&#45;api</title>
<path fill="none" stroke="#707070" d="M303.04,-433.12C312.56,-435.93 321.97,-438.89 331,-442 347.56,-447.69 349.92,-454.16 367,-458 426.7,-471.41 588.19,-471.57 693.06,-470.07"/>
<polygon fill="#707070" stroke="#707070" points="693.39,-473.56 703.34,-469.91 693.29,-466.56 693.39,-473.56"/>
</g>
<!-- Route::::route::my&#45;api::ANY /my&#45;function&#45;&gt;Authorizer::::authorizer&#45;auth0 -->
<g id="edge12" class="edge">
<title>Route::::route::my&#45;api::ANY /my&#45;function&#45;&gt;Authorizer::::authorizer&#45;auth0</title>
<path fill="none" stroke="#707070" d="M304.05,-410.28C327.8,-411.47 352.61,-412.71 376.26,-413.89"/>
<polygon fill="#707070" stroke="#707070" points="376.15,-417.39 386.31,-414.39 376.5,-410.4 376.15,-417.39"/>
</g>
<!-- Route::::route::my&#45;api::ANY /my&#45;function&#45;&gt;Integration::::integration::my&#45;api::my&#45;function -->
<g id="edge11" class="edge">
<title>Route::::route::my&#45;api::ANY /my&#45;function&#45;&gt;Integration::::integration::my&#45;api::my&#45;function</title>
<path fill="none" stroke="#707070" d="M304.05,-380.46C321.33,-377.22 339.16,-373.88 356.7,-370.59"/>
<polygon fill="#707070" stroke="#707070" points="357.8,-373.94 366.98,-368.66 356.51,-367.06 357.8,-373.94"/>
</g>
<!-- Stage::::my&#45;api&#45;stage&#45;dev&#45;&gt;Api::::my&#45;api -->
<g id="edge13" class="edge">
<title>Stage::::my&#45;api&#45;stage&#45;dev&#45;&gt;Api::::my&#45;api</title>
<path fill="none" stroke="#707070" d="M594.8,-513.73C626.33,-506.29 661.49,-497.99 693.1,-490.53"/>
<polygon fill="#707070" stroke="#707070" points="694.3,-493.84 703.23,-488.13 692.69,-487.03 694.3,-493.84"/>
</g>
<!-- LogGroup::::lg&#45;http&#45;test -->
<g id="node10" class="node">
<title>LogGroup::::lg&#45;http&#45;test</title>
<polygon fill="#e5e5e5" stroke="#dddddd" points="911,-573 668,-573 668,-515 911,-515 911,-573"/>
<text text-anchor="start" x="680.5" y="-553.2" font-family="Helvetica,sans-Serif" font-weight="bold" font-size="16.00" fill="#707070">CloudWatchLogs::LogGroup</text>
<text text-anchor="start" x="680.5" y="-528.2" font-family="Helvetica,sans-Serif" font-size="16.00" fill="#383838">lg&#45;http&#45;test</text>
</g>
<!-- Stage::::my&#45;api&#45;stage&#45;dev&#45;&gt;LogGroup::::lg&#45;http&#45;test -->
<g id="edge14" class="edge">
<title>Stage::::my&#45;api&#45;stage&#45;dev&#45;&gt;LogGroup::::lg&#45;http&#45;test</title>
<path fill="none" stroke="#707070" d="M594.8,-538.62C614.98,-539.18 636.65,-539.78 657.92,-540.37"/>
<polygon fill="#707070" stroke="#707070" points="657.9,-543.87 667.99,-540.65 658.09,-536.88 657.9,-543.87"/>
</g>
<!-- Policy::::lambda&#45;policy -->
<g id="node11" class="node">
<title>Policy::::lambda&#45;policy</title>
<polygon fill="#e5e5e5" stroke="#dddddd" points="1218,-373 1093,-373 1093,-315 1218,-315 1218,-373"/>
<text text-anchor="start" x="1105.5" y="-353.2" font-family="Helvetica,sans-Serif" font-weight="bold" font-size="16.00" fill="#707070">IAM::Policy</text>
<text text-anchor="start" x="1105.5" y="-328.2" font-family="Helvetica,sans-Serif" font-size="16.00" fill="#383838">lambda&#45;policy</text>
</g>
<!-- Role::::lambda&#45;role -->
<g id="node12" class="node">
<title>Role::::lambda&#45;role</title>
<polygon fill="#e5e5e5" stroke="#dddddd" points="1057,-373 947,-373 947,-315 1057,-315 1057,-373"/>
<text text-anchor="start" x="959" y="-353.2" font-family="Helvetica,sans-Serif" font-weight="bold" font-size="16.00" fill="#707070">IAM::Role</text>
<text text-anchor="start" x="959" y="-328.2" font-family="Helvetica,sans-Serif" font-size="16.00" fill="#383838">lambda&#45;role</text>
</g>
<!-- Role::::lambda&#45;role&#45;&gt;Policy::::lambda&#45;policy -->
<g id="edge15" class="edge">
<title>Role::::lambda&#45;role&#45;&gt;Policy::::lambda&#45;policy</title>
<path fill="none" stroke="#707070" d="M1057.27,-344C1065.57,-344 1074.24,-344 1082.84,-344"/>
<polygon fill="#707070" stroke="#707070" points="1082.89,-347.5 1092.89,-344 1082.89,-340.5 1082.89,-347.5"/>
</g>
<!-- Function::::my&#45;function&#45;&gt;Role::::lambda&#45;role -->
<g id="edge16" class="edge">
<title>Function::::my&#45;function&#45;&gt;Role::::lambda&#45;role</title>
<path fill="none" stroke="#707070" d="M871.58,-344C893.18,-344 916.22,-344 936.78,-344"/>
<polygon fill="#707070" stroke="#707070" points="936.97,-347.5 946.97,-344 936.97,-340.5 936.97,-347.5"/>
</g>
<!-- HostedZone::::grucloud.org. -->
<g id="node14" class="node">
<title>HostedZone::::grucloud.org.</title>
<polygon fill="#e5e5e5" stroke="#dddddd" points="594.5,-201 404.5,-201 404.5,-143 594.5,-143 594.5,-201"/>
<text text-anchor="start" x="416.5" y="-181.2" font-family="Helvetica,sans-Serif" font-weight="bold" font-size="16.00" fill="#707070">Route53::HostedZone</text>
<text text-anchor="start" x="416.5" y="-156.2" font-family="Helvetica,sans-Serif" font-size="16.00" fill="#383838">grucloud.org.</text>
</g>
<!-- Domain::::grucloud.org -->
<g id="node19" class="node">
<title>Domain::::grucloud.org</title>
<polygon fill="#e5e5e5" stroke="#dddddd" points="901.5,-201 677.5,-201 677.5,-143 901.5,-143 901.5,-201"/>
<text text-anchor="start" x="689.5" y="-181.2" font-family="Helvetica,sans-Serif" font-weight="bold" font-size="16.00" fill="#707070">Route53Domains::Domain</text>
<text text-anchor="start" x="689.5" y="-156.2" font-family="Helvetica,sans-Serif" font-size="16.00" fill="#383838">grucloud.org</text>
</g>
<!-- HostedZone::::grucloud.org.&#45;&gt;Domain::::grucloud.org -->
<g id="edge17" class="edge">
<title>HostedZone::::grucloud.org.&#45;&gt;Domain::::grucloud.org</title>
<path fill="none" stroke="#707070" d="M594.8,-172C617.91,-172 642.97,-172 667.15,-172"/>
<polygon fill="#707070" stroke="#707070" points="667.45,-175.5 677.45,-172 667.45,-168.5 667.45,-175.5"/>
</g>
<!-- Record::::record::ACM::Certificate::grucloud.org -->
<g id="node15" class="node">
<title>Record::::record::ACM::Certificate::grucloud.org</title>
<polygon fill="#e5e5e5" stroke="#dddddd" points="309,-281 46,-281 46,-223 309,-223 309,-281"/>
<text text-anchor="start" x="58.5" y="-261.2" font-family="Helvetica,sans-Serif" font-weight="bold" font-size="16.00" fill="#707070">Route53::Record</text>
<text text-anchor="start" x="58.5" y="-236.2" font-family="Helvetica,sans-Serif" font-size="16.00" fill="#383838">record::ACM::Certificate::gruclo...</text>
</g>
<!-- Record::::record::ACM::Certificate::grucloud.org&#45;&gt;Certificate::::grucloud.org -->
<g id="edge19" class="edge">
<title>Record::::record::ACM::Certificate::grucloud.org&#45;&gt;Certificate::::grucloud.org</title>
<path fill="none" stroke="#707070" d="M309.14,-234.76C328.51,-232.79 348.25,-231.09 367,-230 484.58,-223.16 514.68,-219.59 632,-230 655.82,-232.11 681.43,-236 704.91,-240.22"/>
<polygon fill="#707070" stroke="#707070" points="704.36,-243.68 714.82,-242.05 705.62,-236.8 704.36,-243.68"/>
</g>
<!-- Record::::record::ACM::Certificate::grucloud.org&#45;&gt;HostedZone::::grucloud.org. -->
<g id="edge18" class="edge">
<title>Record::::record::ACM::Certificate::grucloud.org&#45;&gt;HostedZone::::grucloud.org.</title>
<path fill="none" stroke="#707070" d="M295.07,-222.97C307.2,-219.94 319.35,-216.91 331,-214 351.46,-208.88 373.33,-203.41 394.28,-198.16"/>
<polygon fill="#707070" stroke="#707070" points="395.31,-201.51 404.16,-195.68 393.61,-194.72 395.31,-201.51"/>
</g>
<!-- Record::::record::ApiGatewayV2::DomainName::grucloud.org -->
<g id="node16" class="node">
<title>Record::::record::ApiGatewayV2::DomainName::grucloud.org</title>
<polygon fill="#e5e5e5" stroke="#dddddd" points="331,-357 24,-357 24,-299 331,-299 331,-357"/>
<text text-anchor="start" x="36.5" y="-337.2" font-family="Helvetica,sans-Serif" font-weight="bold" font-size="16.00" fill="#707070">Route53::Record</text>
<text text-anchor="start" x="36.5" y="-312.2" font-family="Helvetica,sans-Serif" font-size="16.00" fill="#383838">record::ApiGatewayV2::DomainName...</text>
</g>
<!-- Record::::record::ApiGatewayV2::DomainName::grucloud.org&#45;&gt;DomainName::::grucloud.org -->
<g id="edge21" class="edge">
<title>Record::::record::ApiGatewayV2::DomainName::grucloud.org&#45;&gt;DomainName::::grucloud.org</title>
<path fill="none" stroke="#707070" d="M331,-299.41C342.22,-297.3 353.48,-295.19 364.58,-293.11"/>
<polygon fill="#707070" stroke="#707070" points="365.52,-296.49 374.71,-291.21 364.23,-289.61 365.52,-296.49"/>
</g>
<!-- Record::::record::ApiGatewayV2::DomainName::grucloud.org&#45;&gt;HostedZone::::grucloud.org. -->
<g id="edge20" class="edge">
<title>Record::::record::ApiGatewayV2::DomainName::grucloud.org&#45;&gt;HostedZone::::grucloud.org.</title>
<path fill="none" stroke="#707070" d="M317.17,-298.94C321.98,-296.22 326.61,-293.25 331,-290 355.99,-271.5 343.68,-250.57 367,-230 377.64,-220.61 390.05,-212.53 402.9,-205.64"/>
<polygon fill="#707070" stroke="#707070" points="404.55,-208.73 411.86,-201.06 401.37,-202.5 404.55,-208.73"/>
</g>
<!-- Record::::record::grucloud.org.::NS -->
<g id="node17" class="node">
<title>Record::::record::grucloud.org.::NS</title>
<polygon fill="#e5e5e5" stroke="#dddddd" points="280,-129 75,-129 75,-71 280,-71 280,-129"/>
<text text-anchor="start" x="87.5" y="-109.2" font-family="Helvetica,sans-Serif" font-weight="bold" font-size="16.00" fill="#707070">Route53::Record</text>
<text text-anchor="start" x="87.5" y="-84.2" font-family="Helvetica,sans-Serif" font-size="16.00" fill="#383838">record::grucloud.org.::NS</text>
</g>
<!-- Record::::record::grucloud.org.::NS&#45;&gt;HostedZone::::grucloud.org. -->
<g id="edge22" class="edge">
<title>Record::::record::grucloud.org.::NS&#45;&gt;HostedZone::::grucloud.org.</title>
<path fill="none" stroke="#707070" d="M280.19,-122.88C316.57,-131.07 357.62,-140.3 394.22,-148.54"/>
<polygon fill="#707070" stroke="#707070" points="393.89,-152.05 404.41,-150.83 395.43,-145.22 393.89,-152.05"/>
</g>
<!-- Record::::record::grucloud.org.::SOA -->
<g id="node18" class="node">
<title>Record::::record::grucloud.org.::SOA</title>
<polygon fill="#e5e5e5" stroke="#dddddd" points="286,-205 69,-205 69,-147 286,-147 286,-205"/>
<text text-anchor="start" x="81.5" y="-185.2" font-family="Helvetica,sans-Serif" font-weight="bold" font-size="16.00" fill="#707070">Route53::Record</text>
<text text-anchor="start" x="81.5" y="-160.2" font-family="Helvetica,sans-Serif" font-size="16.00" fill="#383838">record::grucloud.org.::SOA</text>
</g>
<!-- Record::::record::grucloud.org.::SOA&#45;&gt;HostedZone::::grucloud.org. -->
<g id="edge23" class="edge">
<title>Record::::record::grucloud.org.::SOA&#45;&gt;HostedZone::::grucloud.org.</title>
<path fill="none" stroke="#707070" d="M286.39,-174.65C321.24,-174.22 359.78,-173.73 394.35,-173.3"/>
<polygon fill="#707070" stroke="#707070" points="394.51,-176.8 404.47,-173.18 394.42,-169.8 394.51,-176.8"/>
</g>
</g>
</svg>
