<?xml version="1.0" encoding="UTF-8" standalone="no"?>
<!DOCTYPE svg PUBLIC "-//W3C//DTD SVG 1.1//EN"
 "http://www.w3.org/Graphics/SVG/1.1/DTD/svg11.dtd">
<!-- Generated by graphviz version 2.44.1 (20200629.0846)
 -->
<!-- Title: graphname Pages: 1 -->
<svg width="1714pt" height="982pt"
 viewBox="0.00 0.00 1714.00 982.11" xmlns="http://www.w3.org/2000/svg" xmlns:xlink="http://www.w3.org/1999/xlink">
<g id="graph0" class="graph" transform="scale(1 1) rotate(0) translate(4 978.11)">
<title>graphname</title>
<polygon fill="white" stroke="transparent" points="-4,4 -4,-978.11 1710,-978.11 1710,4 -4,4"/>
<g id="clust1" class="cluster">
<title>cluster_aws</title>
<polygon fill="none" stroke="#383838" points="8,-39.11 8,-966.11 1698,-966.11 1698,-39.11 8,-39.11"/>
<text text-anchor="start" x="833.5" y="-947.11" font-family="Helvetica,sans-Serif" font-weight="bold" font-size="20.00" fill="#383838">aws</text>
</g>
<!-- Vpc::vpc -->
<g id="node1" class="node">
<title>Vpc::vpc</title>
<polygon fill="none" stroke="#383838" points="1690,-627.61 1636,-627.61 1636,-580.61 1690,-580.61 1690,-627.61"/>
<text text-anchor="start" x="1652" y="-612.11" font-family="Helvetica,sans-Serif" font-weight="bold" font-size="10.00" fill="#707070">Vpc</text>
<text text-anchor="start" x="1652" y="-591.71" font-family="Helvetica,sans-Serif" font-size="13.00" fill="#383838">vpc</text>
</g>
<!-- InternetGateway::internet&#45;gateway -->
<g id="node2" class="node">
<title>InternetGateway::internet&#45;gateway</title>
<polygon fill="none" stroke="#383838" points="1030,-862.61 906,-862.61 906,-815.61 1030,-815.61 1030,-862.61"/>
<text text-anchor="start" x="918" y="-847.11" font-family="Helvetica,sans-Serif" font-weight="bold" font-size="10.00" fill="#707070">InternetGateway</text>
<text text-anchor="start" x="918" y="-826.71" font-family="Helvetica,sans-Serif" font-size="13.00" fill="#383838">internet&#45;gateway</text>
</g>
<!-- InternetGateway::internet&#45;gateway&#45;&gt;Vpc::vpc -->
<g id="edge1" class="edge">
<title>InternetGateway::internet&#45;gateway&#45;&gt;Vpc::vpc</title>
<path fill="none" stroke="#383838" d="M1030.23,-846.84C1171.07,-863.25 1512.64,-894.81 1600,-827.11 1629.84,-803.98 1649.28,-694.68 1657.51,-638.15"/>
<polygon fill="#383838" stroke="#383838" points="1661.02,-638.31 1658.96,-627.92 1654.09,-637.33 1661.02,-638.31"/>
</g>
<!-- ElasticIpAddress::eip -->
<g id="node3" class="node">
<title>ElasticIpAddress::eip</title>
<polygon fill="none" stroke="#383838" points="1457,-670.61 1353,-670.61 1353,-623.61 1457,-623.61 1457,-670.61"/>
<text text-anchor="start" x="1365" y="-655.11" font-family="Helvetica,sans-Serif" font-weight="bold" font-size="10.00" fill="#707070">ElasticIpAddress</text>
<text text-anchor="start" x="1365" y="-634.71" font-family="Helvetica,sans-Serif" font-size="13.00" fill="#383838">eip</text>
</g>
<!-- Subnet::subnet&#45;public&#45;1 -->
<g id="node4" class="node">
<title>Subnet::subnet&#45;public&#45;1</title>
<polygon fill="none" stroke="#383838" points="1463.5,-735.61 1346.5,-735.61 1346.5,-688.61 1463.5,-688.61 1463.5,-735.61"/>
<text text-anchor="start" x="1359" y="-720.11" font-family="Helvetica,sans-Serif" font-weight="bold" font-size="10.00" fill="#707070">Subnet</text>
<text text-anchor="start" x="1359" y="-699.71" font-family="Helvetica,sans-Serif" font-size="13.00" fill="#383838">subnet&#45;public&#45;1</text>
</g>
<!-- Subnet::subnet&#45;public&#45;1&#45;&gt;Vpc::vpc -->
<g id="edge2" class="edge">
<title>Subnet::subnet&#45;public&#45;1&#45;&gt;Vpc::vpc</title>
<path fill="none" stroke="#383838" d="M1463.93,-713.1C1504.5,-711.38 1558.65,-704.06 1600,-680.11 1617.9,-669.74 1632.78,-652.09 1643.47,-636.41"/>
<polygon fill="#383838" stroke="#383838" points="1646.44,-638.25 1648.97,-627.96 1640.58,-634.43 1646.44,-638.25"/>
</g>
<!-- Subnet::subnet&#45;public&#45;2 -->
<g id="node5" class="node">
<title>Subnet::subnet&#45;public&#45;2</title>
<polygon fill="none" stroke="#383838" points="1463.5,-800.61 1346.5,-800.61 1346.5,-753.61 1463.5,-753.61 1463.5,-800.61"/>
<text text-anchor="start" x="1359" y="-785.11" font-family="Helvetica,sans-Serif" font-weight="bold" font-size="10.00" fill="#707070">Subnet</text>
<text text-anchor="start" x="1359" y="-764.71" font-family="Helvetica,sans-Serif" font-size="13.00" fill="#383838">subnet&#45;public&#45;2</text>
</g>
<!-- Subnet::subnet&#45;public&#45;2&#45;&gt;Vpc::vpc -->
<g id="edge3" class="edge">
<title>Subnet::subnet&#45;public&#45;2&#45;&gt;Vpc::vpc</title>
<path fill="none" stroke="#383838" d="M1463.93,-781.4C1505.81,-781.47 1561.57,-774.93 1600,-745.11 1633.74,-718.92 1649.51,-670.53 1656.6,-637.83"/>
<polygon fill="#383838" stroke="#383838" points="1660.08,-638.3 1658.61,-627.81 1653.22,-636.93 1660.08,-638.3"/>
</g>
<!-- RouteTables::route&#45;table&#45;subnet&#45;public&#45;1 -->
<g id="node6" class="node">
<title>RouteTables::route&#45;table&#45;subnet&#45;public&#45;1</title>
<polygon fill="none" stroke="#383838" points="1061,-797.61 875,-797.61 875,-750.61 1061,-750.61 1061,-797.61"/>
<text text-anchor="start" x="887" y="-782.11" font-family="Helvetica,sans-Serif" font-weight="bold" font-size="10.00" fill="#707070">RouteTables</text>
<text text-anchor="start" x="887" y="-761.71" font-family="Helvetica,sans-Serif" font-size="13.00" fill="#383838">route&#45;table&#45;subnet&#45;public&#45;1</text>
</g>
<!-- RouteTables::route&#45;table&#45;subnet&#45;public&#45;1&#45;&gt;Vpc::vpc -->
<g id="edge4" class="edge">
<title>RouteTables::route&#45;table&#45;subnet&#45;public&#45;1&#45;&gt;Vpc::vpc</title>
<path fill="none" stroke="#383838" d="M1061.05,-791.13C1105.83,-798.57 1160.53,-806.43 1210,-810.11 1296.43,-816.53 1530.44,-861.81 1600,-810.11 1627.82,-789.43 1647.89,-690.43 1656.83,-637.56"/>
<polygon fill="#383838" stroke="#383838" points="1660.29,-638.08 1658.46,-627.64 1653.38,-636.94 1660.29,-638.08"/>
</g>
<!-- RouteTables::route&#45;table&#45;subnet&#45;public&#45;1&#45;&gt;Subnet::subnet&#45;public&#45;1 -->
<g id="edge5" class="edge">
<title>RouteTables::route&#45;table&#45;subnet&#45;public&#45;1&#45;&gt;Subnet::subnet&#45;public&#45;1</title>
<path fill="none" stroke="#383838" d="M1061.25,-760.96C1143.67,-749.21 1262.48,-732.28 1336.37,-721.75"/>
<polygon fill="#383838" stroke="#383838" points="1337.08,-725.18 1346.49,-720.3 1336.09,-718.25 1337.08,-725.18"/>
</g>
<!-- RouteTables::route&#45;table&#45;subnet&#45;public&#45;2 -->
<g id="node7" class="node">
<title>RouteTables::route&#45;table&#45;subnet&#45;public&#45;2</title>
<polygon fill="none" stroke="#383838" points="1061,-927.61 875,-927.61 875,-880.61 1061,-880.61 1061,-927.61"/>
<text text-anchor="start" x="887" y="-912.11" font-family="Helvetica,sans-Serif" font-weight="bold" font-size="10.00" fill="#707070">RouteTables</text>
<text text-anchor="start" x="887" y="-891.71" font-family="Helvetica,sans-Serif" font-size="13.00" fill="#383838">route&#45;table&#45;subnet&#45;public&#45;2</text>
</g>
<!-- RouteTables::route&#45;table&#45;subnet&#45;public&#45;2&#45;&gt;Vpc::vpc -->
<g id="edge6" class="edge">
<title>RouteTables::route&#45;table&#45;subnet&#45;public&#45;2&#45;&gt;Vpc::vpc</title>
<path fill="none" stroke="#383838" d="M1061.25,-926.6C1196.41,-953.63 1448.56,-980.71 1600,-852.11 1632.46,-824.54 1651.09,-698.95 1658.39,-637.78"/>
<polygon fill="#383838" stroke="#383838" points="1661.87,-638.18 1659.54,-627.84 1654.91,-637.37 1661.87,-638.18"/>
</g>
<!-- RouteTables::route&#45;table&#45;subnet&#45;public&#45;2&#45;&gt;Subnet::subnet&#45;public&#45;2 -->
<g id="edge7" class="edge">
<title>RouteTables::route&#45;table&#45;subnet&#45;public&#45;2&#45;&gt;Subnet::subnet&#45;public&#45;2</title>
<path fill="none" stroke="#383838" d="M1061.07,-894.46C1096.75,-889.5 1137.67,-882.29 1174,-872.11 1234.91,-855.03 1301.38,-826.42 1347.13,-805.04"/>
<polygon fill="#383838" stroke="#383838" points="1348.72,-808.16 1356.28,-800.73 1345.74,-801.83 1348.72,-808.16"/>
</g>
<!-- Route::route&#45;igw&#45;route&#45;table&#45;subnet&#45;public&#45;1 -->
<g id="node8" class="node">
<title>Route::route&#45;igw&#45;route&#45;table&#45;subnet&#45;public&#45;1</title>
<polygon fill="none" stroke="#383838" points="724,-829.61 478,-829.61 478,-782.61 724,-782.61 724,-829.61"/>
<text text-anchor="start" x="490" y="-814.11" font-family="Helvetica,sans-Serif" font-weight="bold" font-size="10.00" fill="#707070">Route</text>
<text text-anchor="start" x="490" y="-793.71" font-family="Helvetica,sans-Serif" font-size="13.00" fill="#383838">route&#45;igw&#45;route&#45;table&#45;subnet&#45;public&#45;1</text>
</g>
<!-- Route::route&#45;igw&#45;route&#45;table&#45;subnet&#45;public&#45;1&#45;&gt;InternetGateway::internet&#45;gateway -->
<g id="edge9" class="edge">
<title>Route::route&#45;igw&#45;route&#45;table&#45;subnet&#45;public&#45;1&#45;&gt;InternetGateway::internet&#45;gateway</title>
<path fill="none" stroke="#383838" d="M724.05,-817.14C781.03,-822.29 846.87,-828.24 895.63,-832.65"/>
<polygon fill="#383838" stroke="#383838" points="895.49,-836.15 905.76,-833.57 896.12,-829.18 895.49,-836.15"/>
</g>
<!-- Route::route&#45;igw&#45;route&#45;table&#45;subnet&#45;public&#45;1&#45;&gt;RouteTables::route&#45;table&#45;subnet&#45;public&#45;1 -->
<g id="edge8" class="edge">
<title>Route::route&#45;igw&#45;route&#45;table&#45;subnet&#45;public&#45;1&#45;&gt;RouteTables::route&#45;table&#45;subnet&#45;public&#45;1</title>
<path fill="none" stroke="#383838" d="M724.05,-795.41C769.71,-791.4 821.07,-786.9 864.76,-783.07"/>
<polygon fill="#383838" stroke="#383838" points="865.17,-786.55 874.82,-782.19 864.55,-779.57 865.17,-786.55"/>
</g>
<!-- Route::route&#45;igw&#45;route&#45;table&#45;subnet&#45;public&#45;2 -->
<g id="node9" class="node">
<title>Route::route&#45;igw&#45;route&#45;table&#45;subnet&#45;public&#45;2</title>
<polygon fill="none" stroke="#383838" points="724,-910.61 478,-910.61 478,-863.61 724,-863.61 724,-910.61"/>
<text text-anchor="start" x="490" y="-895.11" font-family="Helvetica,sans-Serif" font-weight="bold" font-size="10.00" fill="#707070">Route</text>
<text text-anchor="start" x="490" y="-874.71" font-family="Helvetica,sans-Serif" font-size="13.00" fill="#383838">route&#45;igw&#45;route&#45;table&#45;subnet&#45;public&#45;2</text>
</g>
<!-- Route::route&#45;igw&#45;route&#45;table&#45;subnet&#45;public&#45;2&#45;&gt;InternetGateway::internet&#45;gateway -->
<g id="edge11" class="edge">
<title>Route::route&#45;igw&#45;route&#45;table&#45;subnet&#45;public&#45;2&#45;&gt;InternetGateway::internet&#45;gateway</title>
<path fill="none" stroke="#383838" d="M724.05,-871.06C781.03,-863.56 846.87,-854.9 895.63,-848.49"/>
<polygon fill="#383838" stroke="#383838" points="896.3,-851.93 905.76,-847.16 895.39,-844.99 896.3,-851.93"/>
</g>
<!-- Route::route&#45;igw&#45;route&#45;table&#45;subnet&#45;public&#45;2&#45;&gt;RouteTables::route&#45;table&#45;subnet&#45;public&#45;2 -->
<g id="edge10" class="edge">
<title>Route::route&#45;igw&#45;route&#45;table&#45;subnet&#45;public&#45;2&#45;&gt;RouteTables::route&#45;table&#45;subnet&#45;public&#45;2</title>
<path fill="none" stroke="#383838" d="M724.05,-892.79C769.71,-894.92 821.07,-897.31 864.76,-899.34"/>
<polygon fill="#383838" stroke="#383838" points="864.67,-902.84 874.82,-899.81 865,-895.85 864.67,-902.84"/>
</g>
<!-- NatGateway::nat&#45;gateway&#45;subnet&#45;public&#45;1 -->
<g id="node10" class="node">
<title>NatGateway::nat&#45;gateway&#45;subnet&#45;public&#45;1</title>
<polygon fill="none" stroke="#383838" points="1065.5,-651.61 870.5,-651.61 870.5,-604.61 1065.5,-604.61 1065.5,-651.61"/>
<text text-anchor="start" x="883" y="-636.11" font-family="Helvetica,sans-Serif" font-weight="bold" font-size="10.00" fill="#707070">NatGateway</text>
<text text-anchor="start" x="883" y="-615.71" font-family="Helvetica,sans-Serif" font-size="13.00" fill="#383838">nat&#45;gateway&#45;subnet&#45;public&#45;1</text>
</g>
<!-- NatGateway::nat&#45;gateway&#45;subnet&#45;public&#45;1&#45;&gt;ElasticIpAddress::eip -->
<g id="edge13" class="edge">
<title>NatGateway::nat&#45;gateway&#45;subnet&#45;public&#45;1&#45;&gt;ElasticIpAddress::eip</title>
<path fill="none" stroke="#383838" d="M1065.54,-632.32C1150.11,-636.02 1270.46,-641.27 1342.54,-644.42"/>
<polygon fill="#383838" stroke="#383838" points="1342.67,-647.93 1352.81,-644.87 1342.97,-640.94 1342.67,-647.93"/>
</g>
<!-- NatGateway::nat&#45;gateway&#45;subnet&#45;public&#45;1&#45;&gt;Subnet::subnet&#45;public&#45;1 -->
<g id="edge12" class="edge">
<title>NatGateway::nat&#45;gateway&#45;subnet&#45;public&#45;1&#45;&gt;Subnet::subnet&#45;public&#45;1</title>
<path fill="none" stroke="#383838" d="M1065.55,-642.16C1100.09,-648.2 1139.1,-656.18 1174,-666.11 1190.51,-670.8 1193.44,-675.57 1210,-680.11 1251.23,-691.39 1298.54,-699.29 1336.13,-704.42"/>
<polygon fill="#383838" stroke="#383838" points="1336.08,-707.95 1346.45,-705.79 1337,-701.01 1336.08,-707.95"/>
</g>
<!-- Subnet::subnet&#45;private&#45;1 -->
<g id="node11" class="node">
<title>Subnet::subnet&#45;private&#45;1</title>
<polygon fill="none" stroke="#383838" points="1466,-283.61 1344,-283.61 1344,-236.61 1466,-236.61 1466,-283.61"/>
<text text-anchor="start" x="1356" y="-268.11" font-family="Helvetica,sans-Serif" font-weight="bold" font-size="10.00" fill="#707070">Subnet</text>
<text text-anchor="start" x="1356" y="-247.71" font-family="Helvetica,sans-Serif" font-size="13.00" fill="#383838">subnet&#45;private&#45;1</text>
</g>
<!-- Subnet::subnet&#45;private&#45;1&#45;&gt;Vpc::vpc -->
<g id="edge14" class="edge">
<title>Subnet::subnet&#45;private&#45;1&#45;&gt;Vpc::vpc</title>
<path fill="none" stroke="#383838" d="M1466.13,-255.56C1509.13,-255.77 1565.31,-263.64 1600,-298.11 1638.13,-335.99 1654.39,-498.82 1659.78,-570.27"/>
<polygon fill="#383838" stroke="#383838" points="1656.31,-570.8 1660.53,-580.52 1663.29,-570.3 1656.31,-570.8"/>
</g>
<!-- Subnet::subnet&#45;private&#45;2 -->
<g id="node12" class="node">
<title>Subnet::subnet&#45;private&#45;2</title>
<polygon fill="none" stroke="#383838" points="1466,-454.61 1344,-454.61 1344,-407.61 1466,-407.61 1466,-454.61"/>
<text text-anchor="start" x="1356" y="-439.11" font-family="Helvetica,sans-Serif" font-weight="bold" font-size="10.00" fill="#707070">Subnet</text>
<text text-anchor="start" x="1356" y="-418.71" font-family="Helvetica,sans-Serif" font-size="13.00" fill="#383838">subnet&#45;private&#45;2</text>
</g>
<!-- Subnet::subnet&#45;private&#45;2&#45;&gt;Vpc::vpc -->
<g id="edge15" class="edge">
<title>Subnet::subnet&#45;private&#45;2&#45;&gt;Vpc::vpc</title>
<path fill="none" stroke="#383838" d="M1466.15,-427.2C1507.77,-427.62 1562.25,-434.74 1600,-464.11 1633.51,-490.18 1649.34,-538.21 1656.51,-570.65"/>
<polygon fill="#383838" stroke="#383838" points="1653.11,-571.5 1658.54,-580.59 1659.96,-570.09 1653.11,-571.5"/>
</g>
<!-- RouteTables::route&#45;table&#45;subnet&#45;private&#45;1 -->
<g id="node13" class="node">
<title>RouteTables::route&#45;table&#45;subnet&#45;private&#45;1</title>
<polygon fill="none" stroke="#383838" points="1063.5,-350.61 872.5,-350.61 872.5,-303.61 1063.5,-303.61 1063.5,-350.61"/>
<text text-anchor="start" x="885" y="-335.11" font-family="Helvetica,sans-Serif" font-weight="bold" font-size="10.00" fill="#707070">RouteTables</text>
<text text-anchor="start" x="885" y="-314.71" font-family="Helvetica,sans-Serif" font-size="13.00" fill="#383838">route&#45;table&#45;subnet&#45;private&#45;1</text>
</g>
<!-- RouteTables::route&#45;table&#45;subnet&#45;private&#45;1&#45;&gt;Vpc::vpc -->
<g id="edge16" class="edge">
<title>RouteTables::route&#45;table&#45;subnet&#45;private&#45;1&#45;&gt;Vpc::vpc</title>
<path fill="none" stroke="#383838" d="M1063.82,-318.54C1229.82,-304.51 1559.43,-281.29 1600,-314.11 1639.42,-345.99 1654.88,-500.48 1659.92,-570.04"/>
<polygon fill="#383838" stroke="#383838" points="1656.46,-570.71 1660.64,-580.44 1663.44,-570.22 1656.46,-570.71"/>
</g>
<!-- RouteTables::route&#45;table&#45;subnet&#45;private&#45;1&#45;&gt;Subnet::subnet&#45;private&#45;1 -->
<g id="edge17" class="edge">
<title>RouteTables::route&#45;table&#45;subnet&#45;private&#45;1&#45;&gt;Subnet::subnet&#45;private&#45;1</title>
<path fill="none" stroke="#383838" d="M1063.66,-312.53C1145.06,-299.99 1260.61,-282.19 1333.93,-270.9"/>
<polygon fill="#383838" stroke="#383838" points="1334.64,-274.33 1343.99,-269.35 1333.57,-267.41 1334.64,-274.33"/>
</g>
<!-- RouteTables::route&#45;table&#45;subnet&#45;private&#45;2 -->
<g id="node14" class="node">
<title>RouteTables::route&#45;table&#45;subnet&#45;private&#45;2</title>
<polygon fill="none" stroke="#383838" points="1063.5,-586.61 872.5,-586.61 872.5,-539.61 1063.5,-539.61 1063.5,-586.61"/>
<text text-anchor="start" x="885" y="-571.11" font-family="Helvetica,sans-Serif" font-weight="bold" font-size="10.00" fill="#707070">RouteTables</text>
<text text-anchor="start" x="885" y="-550.71" font-family="Helvetica,sans-Serif" font-size="13.00" fill="#383838">route&#45;table&#45;subnet&#45;private&#45;2</text>
</g>
<!-- RouteTables::route&#45;table&#45;subnet&#45;private&#45;2&#45;&gt;Vpc::vpc -->
<g id="edge18" class="edge">
<title>RouteTables::route&#45;table&#45;subnet&#45;private&#45;2&#45;&gt;Vpc::vpc</title>
<path fill="none" stroke="#383838" d="M1063.77,-577.65C1108.08,-583.84 1161.62,-590.47 1210,-594.11 1364.37,-605.71 1549.16,-605.37 1625.87,-604.6"/>
<polygon fill="#383838" stroke="#383838" points="1626,-608.1 1635.97,-604.49 1625.93,-601.1 1626,-608.1"/>
</g>
<!-- RouteTables::route&#45;table&#45;subnet&#45;private&#45;2&#45;&gt;Subnet::subnet&#45;private&#45;2 -->
<g id="edge19" class="edge">
<title>RouteTables::route&#45;table&#45;subnet&#45;private&#45;2&#45;&gt;Subnet::subnet&#45;private&#45;2</title>
<path fill="none" stroke="#383838" d="M1063.76,-565.91C1101,-562.76 1142.33,-553.54 1174,-531.11 1201.58,-511.57 1182.55,-483.83 1210,-464.11 1245.48,-438.61 1293.91,-430.35 1333.51,-428.47"/>
<polygon fill="#383838" stroke="#383838" points="1333.77,-431.96 1343.64,-428.12 1333.52,-424.97 1333.77,-431.96"/>
</g>
<!-- Route::route&#45;nat&#45;route&#45;table&#45;subnet&#45;private&#45;1 -->
<g id="node15" class="node">
<title>Route::route&#45;nat&#45;route&#45;table&#45;subnet&#45;private&#45;1</title>
<polygon fill="none" stroke="#383838" points="726,-381.61 476,-381.61 476,-334.61 726,-334.61 726,-381.61"/>
<text text-anchor="start" x="488" y="-366.11" font-family="Helvetica,sans-Serif" font-weight="bold" font-size="10.00" fill="#707070">Route</text>
<text text-anchor="start" x="488" y="-345.71" font-family="Helvetica,sans-Serif" font-size="13.00" fill="#383838">route&#45;nat&#45;route&#45;table&#45;subnet&#45;private&#45;1</text>
</g>
<!-- Route::route&#45;nat&#45;route&#45;table&#45;subnet&#45;private&#45;1&#45;&gt;NatGateway::nat&#45;gateway&#45;subnet&#45;public&#45;1 -->
<g id="edge21" class="edge">
<title>Route::route&#45;nat&#45;route&#45;table&#45;subnet&#45;private&#45;1&#45;&gt;NatGateway::nat&#45;gateway&#45;subnet&#45;public&#45;1</title>
<path fill="none" stroke="#383838" d="M672.23,-381.66C692.29,-391.55 712.38,-405.06 726,-423.11 773.31,-485.79 705.09,-541.99 762,-596.11 787.96,-620.79 824.68,-631.12 859.88,-634.53"/>
<polygon fill="#383838" stroke="#383838" points="860.01,-638.05 870.25,-635.35 860.56,-631.08 860.01,-638.05"/>
</g>
<!-- Route::route&#45;nat&#45;route&#45;table&#45;subnet&#45;private&#45;1&#45;&gt;RouteTables::route&#45;table&#45;subnet&#45;private&#45;1 -->
<g id="edge20" class="edge">
<title>Route::route&#45;nat&#45;route&#45;table&#45;subnet&#45;private&#45;1&#45;&gt;RouteTables::route&#45;table&#45;subnet&#45;private&#45;1</title>
<path fill="none" stroke="#383838" d="M726.08,-347.57C770.37,-343.81 819.8,-339.61 862.3,-336"/>
<polygon fill="#383838" stroke="#383838" points="862.71,-339.48 872.38,-335.14 862.12,-332.5 862.71,-339.48"/>
</g>
<!-- Route::route&#45;nat&#45;route&#45;table&#45;subnet&#45;private&#45;2 -->
<g id="node16" class="node">
<title>Route::route&#45;nat&#45;route&#45;table&#45;subnet&#45;private&#45;2</title>
<polygon fill="none" stroke="#383838" points="726,-618.61 476,-618.61 476,-571.61 726,-571.61 726,-618.61"/>
<text text-anchor="start" x="488" y="-603.11" font-family="Helvetica,sans-Serif" font-weight="bold" font-size="10.00" fill="#707070">Route</text>
<text text-anchor="start" x="488" y="-582.71" font-family="Helvetica,sans-Serif" font-size="13.00" fill="#383838">route&#45;nat&#45;route&#45;table&#45;subnet&#45;private&#45;2</text>
</g>
<!-- Route::route&#45;nat&#45;route&#45;table&#45;subnet&#45;private&#45;2&#45;&gt;NatGateway::nat&#45;gateway&#45;subnet&#45;public&#45;1 -->
<g id="edge23" class="edge">
<title>Route::route&#45;nat&#45;route&#45;table&#45;subnet&#45;private&#45;2&#45;&gt;NatGateway::nat&#45;gateway&#45;subnet&#45;public&#45;1</title>
<path fill="none" stroke="#383838" d="M726.08,-606.32C769.7,-610.27 818.31,-614.66 860.37,-618.46"/>
<polygon fill="#383838" stroke="#383838" points="860.08,-621.95 870.35,-619.37 860.71,-614.98 860.08,-621.95"/>
</g>
<!-- Route::route&#45;nat&#45;route&#45;table&#45;subnet&#45;private&#45;2&#45;&gt;RouteTables::route&#45;table&#45;subnet&#45;private&#45;2 -->
<g id="edge22" class="edge">
<title>Route::route&#45;nat&#45;route&#45;table&#45;subnet&#45;private&#45;2&#45;&gt;RouteTables::route&#45;table&#45;subnet&#45;private&#45;2</title>
<path fill="none" stroke="#383838" d="M726.08,-584.23C770.37,-580.34 819.8,-576.01 862.3,-572.28"/>
<polygon fill="#383838" stroke="#383838" points="862.72,-575.76 872.38,-571.4 862.11,-568.79 862.72,-575.76"/>
</g>
<!-- IamPolicyReadOnly::arn:aws:iam::aws:policy/AmazonEKSClusterPolicy -->
<g id="node17" class="node">
<title>IamPolicyReadOnly::arn:aws:iam::aws:policy/AmazonEKSClusterPolicy</title>
<polygon fill="none" stroke="#383838" points="1567.5,-584.61 1242.5,-584.61 1242.5,-537.61 1567.5,-537.61 1567.5,-584.61"/>
<text text-anchor="start" x="1255" y="-569.11" font-family="Helvetica,sans-Serif" font-weight="bold" font-size="10.00" fill="#707070">IamPolicyReadOnly</text>
<text text-anchor="start" x="1255" y="-548.71" font-family="Helvetica,sans-Serif" font-size="13.00" fill="#383838">arn:aws:iam::aws:policy/AmazonEKSClusterPolicy</text>
</g>
<!-- IamPolicyReadOnly::arn:aws:iam::aws:policy/AmazonEKSVPCResourceController -->
<g id="node18" class="node">
<title>IamPolicyReadOnly::arn:aws:iam::aws:policy/AmazonEKSVPCResourceController</title>
<polygon fill="none" stroke="#383838" points="1600,-519.61 1210,-519.61 1210,-472.61 1600,-472.61 1600,-519.61"/>
<text text-anchor="start" x="1222" y="-504.11" font-family="Helvetica,sans-Serif" font-weight="bold" font-size="10.00" fill="#707070">IamPolicyReadOnly</text>
<text text-anchor="start" x="1222" y="-483.71" font-family="Helvetica,sans-Serif" font-size="13.00" fill="#383838">arn:aws:iam::aws:policy/AmazonEKSVPCResourceController</text>
</g>
<!-- IamRole::role&#45;cluster -->
<g id="node19" class="node">
<title>IamRole::role&#45;cluster</title>
<polygon fill="none" stroke="#383838" points="1013.5,-521.61 922.5,-521.61 922.5,-474.61 1013.5,-474.61 1013.5,-521.61"/>
<text text-anchor="start" x="935" y="-506.11" font-family="Helvetica,sans-Serif" font-weight="bold" font-size="10.00" fill="#707070">IamRole</text>
<text text-anchor="start" x="935" y="-485.71" font-family="Helvetica,sans-Serif" font-size="13.00" fill="#383838">role&#45;cluster</text>
</g>
<!-- IamRole::role&#45;cluster&#45;&gt;IamPolicyReadOnly::arn:aws:iam::aws:policy/AmazonEKSClusterPolicy -->
<g id="edge24" class="edge">
<title>IamRole::role&#45;cluster&#45;&gt;IamPolicyReadOnly::arn:aws:iam::aws:policy/AmazonEKSClusterPolicy</title>
<path fill="none" stroke="#383838" d="M1013.51,-504.55C1065.01,-512.01 1152.92,-524.74 1232.3,-536.24"/>
<polygon fill="#383838" stroke="#383838" points="1232.04,-539.74 1242.44,-537.71 1233.04,-532.81 1232.04,-539.74"/>
</g>
<!-- IamRole::role&#45;cluster&#45;&gt;IamPolicyReadOnly::arn:aws:iam::aws:policy/AmazonEKSVPCResourceController -->
<g id="edge25" class="edge">
<title>IamRole::role&#45;cluster&#45;&gt;IamPolicyReadOnly::arn:aws:iam::aws:policy/AmazonEKSVPCResourceController</title>
<path fill="none" stroke="#383838" d="M1013.51,-497.9C1057.98,-497.7 1129.62,-497.37 1199.47,-497.05"/>
<polygon fill="#383838" stroke="#383838" points="1199.77,-500.54 1209.76,-497 1199.74,-493.54 1199.77,-500.54"/>
</g>
<!-- IamPolicyReadOnly::arn:aws:iam::aws:policy/AmazonEKSWorkerNodePolicy -->
<g id="node20" class="node">
<title>IamPolicyReadOnly::arn:aws:iam::aws:policy/AmazonEKSWorkerNodePolicy</title>
<polygon fill="none" stroke="#383838" points="1146,-264.61 790,-264.61 790,-217.61 1146,-217.61 1146,-264.61"/>
<text text-anchor="start" x="802" y="-249.11" font-family="Helvetica,sans-Serif" font-weight="bold" font-size="10.00" fill="#707070">IamPolicyReadOnly</text>
<text text-anchor="start" x="802" y="-228.71" font-family="Helvetica,sans-Serif" font-size="13.00" fill="#383838">arn:aws:iam::aws:policy/AmazonEKSWorkerNodePolicy</text>
</g>
<!-- IamPolicyReadOnly::arn:aws:iam::aws:policy/AmazonEC2ContainerRegistryReadOnly -->
<g id="node21" class="node">
<title>IamPolicyReadOnly::arn:aws:iam::aws:policy/AmazonEC2ContainerRegistryReadOnly</title>
<polygon fill="none" stroke="#383838" points="1174,-134.61 762,-134.61 762,-87.61 1174,-87.61 1174,-134.61"/>
<text text-anchor="start" x="774" y="-119.11" font-family="Helvetica,sans-Serif" font-weight="bold" font-size="10.00" fill="#707070">IamPolicyReadOnly</text>
<text text-anchor="start" x="774" y="-98.71" font-family="Helvetica,sans-Serif" font-size="13.00" fill="#383838">arn:aws:iam::aws:policy/AmazonEC2ContainerRegistryReadOnly</text>
</g>
<!-- IamPolicyReadOnly::arn:aws:iam::aws:policy/AmazonEKS_CNI_Policy -->
<g id="node22" class="node">
<title>IamPolicyReadOnly::arn:aws:iam::aws:policy/AmazonEKS_CNI_Policy</title>
<polygon fill="none" stroke="#383838" points="1128,-199.61 808,-199.61 808,-152.61 1128,-152.61 1128,-199.61"/>
<text text-anchor="start" x="820" y="-184.11" font-family="Helvetica,sans-Serif" font-weight="bold" font-size="10.00" fill="#707070">IamPolicyReadOnly</text>
<text text-anchor="start" x="820" y="-163.71" font-family="Helvetica,sans-Serif" font-size="13.00" fill="#383838">arn:aws:iam::aws:policy/AmazonEKS_CNI_Policy</text>
</g>
<!-- IamRole::role&#45;node&#45;group -->
<g id="node23" class="node">
<title>IamRole::role&#45;node&#45;group</title>
<polygon fill="none" stroke="#383838" points="661.5,-199.61 540.5,-199.61 540.5,-152.61 661.5,-152.61 661.5,-199.61"/>
<text text-anchor="start" x="553" y="-184.11" font-family="Helvetica,sans-Serif" font-weight="bold" font-size="10.00" fill="#707070">IamRole</text>
<text text-anchor="start" x="553" y="-163.71" font-family="Helvetica,sans-Serif" font-size="13.00" fill="#383838">role&#45;node&#45;group</text>
</g>
<!-- IamRole::role&#45;node&#45;group&#45;&gt;IamPolicyReadOnly::arn:aws:iam::aws:policy/AmazonEKSWorkerNodePolicy -->
<g id="edge26" class="edge">
<title>IamRole::role&#45;node&#45;group&#45;&gt;IamPolicyReadOnly::arn:aws:iam::aws:policy/AmazonEKSWorkerNodePolicy</title>
<path fill="none" stroke="#383838" d="M661.51,-189.1C691.57,-195.48 728.65,-203.07 762,-209.11 774.64,-211.39 787.74,-213.67 800.92,-215.88"/>
<polygon fill="#383838" stroke="#383838" points="800.57,-219.37 811.01,-217.56 801.72,-212.47 800.57,-219.37"/>
</g>
<!-- IamRole::role&#45;node&#45;group&#45;&gt;IamPolicyReadOnly::arn:aws:iam::aws:policy/AmazonEC2ContainerRegistryReadOnly -->
<g id="edge27" class="edge">
<title>IamRole::role&#45;node&#45;group&#45;&gt;IamPolicyReadOnly::arn:aws:iam::aws:policy/AmazonEC2ContainerRegistryReadOnly</title>
<path fill="none" stroke="#383838" d="M661.54,-163.64C691.61,-157.49 728.69,-150.12 762,-144.11 776.48,-141.49 791.55,-138.88 806.66,-136.32"/>
<polygon fill="#383838" stroke="#383838" points="807.3,-139.76 816.59,-134.65 806.14,-132.86 807.3,-139.76"/>
</g>
<!-- IamRole::role&#45;node&#45;group&#45;&gt;IamPolicyReadOnly::arn:aws:iam::aws:policy/AmazonEKS_CNI_Policy -->
<g id="edge28" class="edge">
<title>IamRole::role&#45;node&#45;group&#45;&gt;IamPolicyReadOnly::arn:aws:iam::aws:policy/AmazonEKS_CNI_Policy</title>
<path fill="none" stroke="#383838" d="M661.86,-176.11C699.14,-176.11 749.12,-176.11 797.82,-176.11"/>
<polygon fill="#383838" stroke="#383838" points="797.86,-179.61 807.86,-176.11 797.86,-172.61 797.86,-179.61"/>
</g>
<!-- SecurityGroup::security&#45;group&#45;cluster -->
<g id="node24" class="node">
<title>SecurityGroup::security&#45;group&#45;cluster</title>
<polygon fill="none" stroke="#383838" points="1482,-389.61 1328,-389.61 1328,-342.61 1482,-342.61 1482,-389.61"/>
<text text-anchor="start" x="1340" y="-374.11" font-family="Helvetica,sans-Serif" font-weight="bold" font-size="10.00" fill="#707070">SecurityGroup</text>
<text text-anchor="start" x="1340" y="-353.71" font-family="Helvetica,sans-Serif" font-size="13.00" fill="#383838">security&#45;group&#45;cluster</text>
</g>
<!-- SecurityGroup::security&#45;group&#45;cluster&#45;&gt;Vpc::vpc -->
<g id="edge29" class="edge">
<title>SecurityGroup::security&#45;group&#45;cluster&#45;&gt;Vpc::vpc</title>
<path fill="none" stroke="#383838" d="M1482.2,-361.03C1521.72,-362.46 1568.23,-371.08 1600,-399.11 1649.54,-442.8 1660.18,-524.58 1662.05,-570.54"/>
<polygon fill="#383838" stroke="#383838" points="1658.56,-570.7 1662.35,-580.59 1665.55,-570.5 1658.56,-570.7"/>
</g>
<!-- SecurityGroup::security&#45;group&#45;nodes -->
<g id="node25" class="node">
<title>SecurityGroup::security&#45;group&#45;nodes</title>
<polygon fill="none" stroke="#383838" points="1043.5,-415.61 892.5,-415.61 892.5,-368.61 1043.5,-368.61 1043.5,-415.61"/>
<text text-anchor="start" x="905" y="-400.11" font-family="Helvetica,sans-Serif" font-weight="bold" font-size="10.00" fill="#707070">SecurityGroup</text>
<text text-anchor="start" x="905" y="-379.71" font-family="Helvetica,sans-Serif" font-size="13.00" fill="#383838">security&#45;group&#45;nodes</text>
</g>
<!-- SecurityGroup::security&#45;group&#45;nodes&#45;&gt;Vpc::vpc -->
<g id="edge30" class="edge">
<title>SecurityGroup::security&#45;group&#45;nodes&#45;&gt;Vpc::vpc</title>
<path fill="none" stroke="#383838" d="M1043.84,-388.86C1083.7,-385.07 1132.86,-377.03 1174,-360.11 1192.25,-352.6 1191.22,-340.18 1210,-334.11 1251.23,-320.77 1566.1,-307.11 1600,-334.11 1636.62,-363.27 1653.4,-504.2 1659.33,-570.06"/>
<polygon fill="#383838" stroke="#383838" points="1655.87,-570.67 1660.23,-580.32 1662.85,-570.06 1655.87,-570.67"/>
</g>
<!-- SecurityGroup::security&#45;group&#45;nodes&#45;&gt;SecurityGroup::security&#45;group&#45;cluster -->
<g id="edge31" class="edge">
<title>SecurityGroup::security&#45;group&#45;nodes&#45;&gt;SecurityGroup::security&#45;group&#45;cluster</title>
<path fill="none" stroke="#383838" d="M1043.78,-387.64C1119.84,-383.09 1237.59,-376.05 1317.59,-371.27"/>
<polygon fill="#383838" stroke="#383838" points="1317.87,-374.76 1327.64,-370.67 1317.45,-367.77 1317.87,-374.76"/>
</g>
<!-- EKSCluster::cluster -->
<g id="node26" class="node">
<title>EKSCluster::cluster</title>
<polygon fill="none" stroke="#383838" points="640.5,-478.61 561.5,-478.61 561.5,-431.61 640.5,-431.61 640.5,-478.61"/>
<text text-anchor="start" x="574" y="-463.11" font-family="Helvetica,sans-Serif" font-weight="bold" font-size="10.00" fill="#707070">EKSCluster</text>
<text text-anchor="start" x="574" y="-442.71" font-family="Helvetica,sans-Serif" font-size="13.00" fill="#383838">cluster</text>
</g>
<!-- EKSCluster::cluster&#45;&gt;Subnet::subnet&#45;public&#45;1 -->
<g id="edge32" class="edge">
<title>EKSCluster::cluster&#45;&gt;Subnet::subnet&#45;public&#45;1</title>
<path fill="none" stroke="#383838" d="M637.91,-478.78C665.35,-498.48 702.36,-528.78 726,-563.11 752.32,-601.32 724.77,-633.41 762,-661.11 798.79,-688.48 1128.31,-682.14 1174,-686.11 1228.71,-690.85 1290.56,-697.94 1336.33,-703.52"/>
<polygon fill="#383838" stroke="#383838" points="1336.07,-707.01 1346.42,-704.76 1336.92,-700.07 1336.07,-707.01"/>
</g>
<!-- EKSCluster::cluster&#45;&gt;Subnet::subnet&#45;public&#45;2 -->
<g id="edge33" class="edge">
<title>EKSCluster::cluster&#45;&gt;Subnet::subnet&#45;public&#45;2</title>
<path fill="none" stroke="#383838" d="M638.66,-478.67C666.33,-498.2 703.28,-528.33 726,-563.11 755.3,-607.94 720.75,-643.94 762,-678.11 832.99,-736.9 1085.96,-698.8 1174,-726.11 1191.28,-731.47 1192.85,-739.34 1210,-745.11 1250.66,-758.79 1298.16,-766.75 1335.98,-771.31"/>
<polygon fill="#383838" stroke="#383838" points="1336.04,-774.84 1346.37,-772.5 1336.84,-767.88 1336.04,-774.84"/>
</g>
<!-- EKSCluster::cluster&#45;&gt;Subnet::subnet&#45;private&#45;1 -->
<g id="edge34" class="edge">
<title>EKSCluster::cluster&#45;&gt;Subnet::subnet&#45;private&#45;1</title>
<path fill="none" stroke="#383838" d="M640.56,-443.53C667.75,-433.58 703.23,-416.73 726,-391.11 756.27,-357.04 725.22,-322.01 762,-295.11 799,-268.05 1128.23,-276.66 1174,-274.11 1227.66,-271.11 1288.34,-267.4 1333.89,-264.55"/>
<polygon fill="#383838" stroke="#383838" points="1334.2,-268.04 1343.96,-263.92 1333.76,-261.05 1334.2,-268.04"/>
</g>
<!-- EKSCluster::cluster&#45;&gt;Subnet::subnet&#45;private&#45;2 -->
<g id="edge35" class="edge">
<title>EKSCluster::cluster&#45;&gt;Subnet::subnet&#45;private&#45;2</title>
<path fill="none" stroke="#383838" d="M640.5,-454.27C732.66,-452.22 973.19,-446.67 1174,-440.11 1227.66,-438.35 1288.33,-435.96 1333.89,-434.08"/>
<polygon fill="#383838" stroke="#383838" points="1334.11,-437.58 1343.96,-433.67 1333.82,-430.58 1334.11,-437.58"/>
</g>
<!-- EKSCluster::cluster&#45;&gt;IamRole::role&#45;cluster -->
<g id="edge38" class="edge">
<title>EKSCluster::cluster&#45;&gt;IamRole::role&#45;cluster</title>
<path fill="none" stroke="#383838" d="M640.72,-459.67C705.9,-467.35 837.73,-482.88 912.33,-491.67"/>
<polygon fill="#383838" stroke="#383838" points="912.12,-495.16 922.46,-492.86 912.94,-488.21 912.12,-495.16"/>
</g>
<!-- EKSCluster::cluster&#45;&gt;SecurityGroup::security&#45;group&#45;cluster -->
<g id="edge36" class="edge">
<title>EKSCluster::cluster&#45;&gt;SecurityGroup::security&#45;group&#45;cluster</title>
<path fill="none" stroke="#383838" d="M640.75,-450.85C673.12,-447.44 720.52,-442.8 762,-440.11 807.71,-437.13 1130.68,-439.99 1174,-425.11 1192.67,-418.69 1191.8,-406.74 1210,-399.11 1243.7,-384.98 1283.09,-376.9 1317.55,-372.27"/>
<polygon fill="#383838" stroke="#383838" points="1318.12,-375.73 1327.6,-371 1317.24,-368.78 1318.12,-375.73"/>
</g>
<!-- EKSCluster::cluster&#45;&gt;SecurityGroup::security&#45;group&#45;nodes -->
<g id="edge37" class="edge">
<title>EKSCluster::cluster&#45;&gt;SecurityGroup::security&#45;group&#45;nodes</title>
<path fill="none" stroke="#383838" d="M640.72,-448.42C697.87,-438.56 806.26,-419.85 882.38,-406.71"/>
<polygon fill="#383838" stroke="#383838" points="883.17,-410.13 892.43,-404.98 881.98,-403.23 883.17,-410.13"/>
</g>
<!-- EKSNodeGroup::node&#45;group&#45;public&#45;cluster -->
<g id="node27" class="node">
<title>EKSNodeGroup::node&#45;group&#45;public&#45;cluster</title>
<polygon fill="none" stroke="#383838" points="401.5,-638.61 223.5,-638.61 223.5,-591.61 401.5,-591.61 401.5,-638.61"/>
<text text-anchor="start" x="235.5" y="-623.11" font-family="Helvetica,sans-Serif" font-weight="bold" font-size="10.00" fill="#707070">EKSNodeGroup</text>
<text text-anchor="start" x="235.5" y="-602.71" font-family="Helvetica,sans-Serif" font-size="13.00" fill="#383838">node&#45;group&#45;public&#45;cluster</text>
</g>
<!-- EKSNodeGroup::node&#45;group&#45;public&#45;cluster&#45;&gt;Subnet::subnet&#45;public&#45;1 -->
<g id="edge39" class="edge">
<title>EKSNodeGroup::node&#45;group&#45;public&#45;cluster&#45;&gt;Subnet::subnet&#45;public&#45;1</title>
<path fill="none" stroke="#383838" d="M401.73,-629.8C491.99,-644.3 636.38,-665.98 762,-678.11 970.68,-698.25 1218.75,-707.14 1336.07,-710.44"/>
<polygon fill="#383838" stroke="#383838" points="1336.23,-713.95 1346.33,-710.73 1336.43,-706.95 1336.23,-713.95"/>
</g>
<!-- EKSNodeGroup::node&#45;group&#45;public&#45;cluster&#45;&gt;Subnet::subnet&#45;public&#45;2 -->
<g id="edge40" class="edge">
<title>EKSNodeGroup::node&#45;group&#45;public&#45;cluster&#45;&gt;Subnet::subnet&#45;public&#45;2</title>
<path fill="none" stroke="#383838" d="M385.67,-638.72C413.63,-647.15 446.07,-656.04 476,-662.11 601.46,-687.53 634.84,-681.45 762,-696.11 945.04,-717.2 991.33,-718.02 1174,-742.11 1228.73,-749.32 1290.57,-758.81 1336.33,-766.08"/>
<polygon fill="#383838" stroke="#383838" points="1336.01,-769.58 1346.43,-767.69 1337.11,-762.66 1336.01,-769.58"/>
</g>
<!-- EKSNodeGroup::node&#45;group&#45;public&#45;cluster&#45;&gt;IamRole::role&#45;node&#45;group -->
<g id="edge42" class="edge">
<title>EKSNodeGroup::node&#45;group&#45;public&#45;cluster&#45;&gt;IamRole::role&#45;node&#45;group</title>
<path fill="none" stroke="#383838" d="M345.65,-591.6C374.81,-568.53 416.68,-530.69 440,-488.11 475.43,-423.42 443.6,-392.37 476,-326.11 498.68,-279.71 538.48,-235.25 566.87,-206.95"/>
<polygon fill="#383838" stroke="#383838" points="569.51,-209.26 574.19,-199.76 564.6,-204.27 569.51,-209.26"/>
</g>
<!-- EKSNodeGroup::node&#45;group&#45;public&#45;cluster&#45;&gt;EKSCluster::cluster -->
<g id="edge41" class="edge">
<title>EKSNodeGroup::node&#45;group&#45;public&#45;cluster&#45;&gt;EKSCluster::cluster</title>
<path fill="none" stroke="#383838" d="M355.77,-591.5C408.26,-562.18 497.56,-512.32 552.4,-481.69"/>
<polygon fill="#383838" stroke="#383838" points="554.21,-484.69 561.23,-476.76 550.79,-478.58 554.21,-484.69"/>
</g>
<!-- EKSNodeGroup::node&#45;group&#45;private&#45;cluster -->
<g id="node28" class="node">
<title>EKSNodeGroup::node&#45;group&#45;private&#45;cluster</title>
<polygon fill="none" stroke="#383838" points="404,-147.61 221,-147.61 221,-100.61 404,-100.61 404,-147.61"/>
<text text-anchor="start" x="233.5" y="-132.11" font-family="Helvetica,sans-Serif" font-weight="bold" font-size="10.00" fill="#707070">EKSNodeGroup</text>
<text text-anchor="start" x="233.5" y="-111.71" font-family="Helvetica,sans-Serif" font-size="13.00" fill="#383838">node&#45;group&#45;private&#45;cluster</text>
</g>
<!-- EKSNodeGroup::node&#45;group&#45;private&#45;cluster&#45;&gt;Subnet::subnet&#45;private&#45;1 -->
<g id="edge43" class="edge">
<title>EKSNodeGroup::node&#45;group&#45;private&#45;cluster&#45;&gt;Subnet::subnet&#45;private&#45;1</title>
<path fill="none" stroke="#383838" d="M362.33,-100.51C393.93,-86.57 436.42,-70.29 476,-63.11 781.23,-7.7 883.03,44.47 1174,-63.11 1263.78,-96.3 1342.19,-181.92 1380,-228.61"/>
<polygon fill="#383838" stroke="#383838" points="1377.38,-230.95 1386.36,-236.58 1382.85,-226.58 1377.38,-230.95"/>
</g>
<!-- EKSNodeGroup::node&#45;group&#45;private&#45;cluster&#45;&gt;Subnet::subnet&#45;private&#45;2 -->
<g id="edge44" class="edge">
<title>EKSNodeGroup::node&#45;group&#45;private&#45;cluster&#45;&gt;Subnet::subnet&#45;private&#45;2</title>
<path fill="none" stroke="#383838" d="M404.3,-112.27C613.85,-85.96 1117.64,-28.73 1174,-79.11 1227.35,-126.79 1160.72,-347.22 1210,-399.11 1241.06,-431.8 1291.72,-439.28 1333.49,-438.85"/>
<polygon fill="#383838" stroke="#383838" points="1333.71,-442.35 1343.62,-438.59 1333.54,-435.35 1333.71,-442.35"/>
</g>
<!-- EKSNodeGroup::node&#45;group&#45;private&#45;cluster&#45;&gt;IamRole::role&#45;node&#45;group -->
<g id="edge46" class="edge">
<title>EKSNodeGroup::node&#45;group&#45;private&#45;cluster&#45;&gt;IamRole::role&#45;node&#45;group</title>
<path fill="none" stroke="#383838" d="M404.15,-140.56C444.93,-147.96 492.32,-156.56 530.27,-163.45"/>
<polygon fill="#383838" stroke="#383838" points="529.74,-166.91 540.2,-165.25 530.99,-160.02 529.74,-166.91"/>
</g>
<!-- EKSNodeGroup::node&#45;group&#45;private&#45;cluster&#45;&gt;EKSCluster::cluster -->
<g id="edge45" class="edge">
<title>EKSNodeGroup::node&#45;group&#45;private&#45;cluster&#45;&gt;EKSCluster::cluster</title>
<path fill="none" stroke="#383838" d="M322.64,-147.73C343.18,-198.19 397.4,-317.85 476,-391.11 497.84,-411.46 527.4,-427.06 552.17,-437.75"/>
<polygon fill="#383838" stroke="#383838" points="550.83,-440.98 561.41,-441.61 553.53,-434.52 550.83,-440.98"/>
</g>
<!-- IamOpenIDConnectProvider::oidc&#45;eks -->
<g id="node29" class="node">
<title>IamOpenIDConnectProvider::oidc&#45;eks</title>
<polygon fill="none" stroke="#383838" points="390.5,-478.61 234.5,-478.61 234.5,-431.61 390.5,-431.61 390.5,-478.61"/>
<text text-anchor="start" x="246.5" y="-463.11" font-family="Helvetica,sans-Serif" font-weight="bold" font-size="10.00" fill="#707070">IamOpenIDConnectProvider</text>
<text text-anchor="start" x="246.5" y="-442.71" font-family="Helvetica,sans-Serif" font-size="13.00" fill="#383838">oidc&#45;eks</text>
</g>
<!-- IamOpenIDConnectProvider::oidc&#45;eks&#45;&gt;EKSCluster::cluster -->
<g id="edge47" class="edge">
<title>IamOpenIDConnectProvider::oidc&#45;eks&#45;&gt;EKSCluster::cluster</title>
<path fill="none" stroke="#383838" d="M390.65,-455.11C441.75,-455.11 507.21,-455.11 551.21,-455.11"/>
<polygon fill="#383838" stroke="#383838" points="551.37,-458.61 561.37,-455.11 551.37,-451.61 551.37,-458.61"/>
</g>
<!-- IamPolicy::AWSLoadBalancerControllerIAMPolicy -->
<g id="node30" class="node">
<title>IamPolicy::AWSLoadBalancerControllerIAMPolicy</title>
<polygon fill="none" stroke="#383838" points="440,-413.61 185,-413.61 185,-366.61 440,-366.61 440,-413.61"/>
<text text-anchor="start" x="197.5" y="-398.11" font-family="Helvetica,sans-Serif" font-weight="bold" font-size="10.00" fill="#707070">IamPolicy</text>
<text text-anchor="start" x="197.5" y="-377.71" font-family="Helvetica,sans-Serif" font-size="13.00" fill="#383838">AWSLoadBalancerControllerIAMPolicy</text>
</g>
<!-- IamRole::role&#45;load&#45;balancer -->
<g id="node31" class="node">
<title>IamRole::role&#45;load&#45;balancer</title>
<polygon fill="none" stroke="#383838" points="149,-445.61 16,-445.61 16,-398.61 149,-398.61 149,-445.61"/>
<text text-anchor="start" x="28.5" y="-430.11" font-family="Helvetica,sans-Serif" font-weight="bold" font-size="10.00" fill="#707070">IamRole</text>
<text text-anchor="start" x="28.5" y="-409.71" font-family="Helvetica,sans-Serif" font-size="13.00" fill="#383838">role&#45;load&#45;balancer</text>
</g>
<!-- IamRole::role&#45;load&#45;balancer&#45;&gt;IamOpenIDConnectProvider::oidc&#45;eks -->
<g id="edge48" class="edge">
<title>IamRole::role&#45;load&#45;balancer&#45;&gt;IamOpenIDConnectProvider::oidc&#45;eks</title>
<path fill="none" stroke="#383838" d="M149.14,-431.61C172.5,-434.99 199.18,-438.85 224.07,-442.45"/>
<polygon fill="#383838" stroke="#383838" points="223.84,-445.95 234.24,-443.92 224.85,-439.03 223.84,-445.95"/>
</g>
<!-- IamRole::role&#45;load&#45;balancer&#45;&gt;IamPolicy::AWSLoadBalancerControllerIAMPolicy -->
<g id="edge49" class="edge">
<title>IamRole::role&#45;load&#45;balancer&#45;&gt;IamPolicy::AWSLoadBalancerControllerIAMPolicy</title>
<path fill="none" stroke="#383838" d="M149.14,-412.89C157.36,-411.74 165.99,-410.53 174.81,-409.29"/>
<polygon fill="#383838" stroke="#383838" points="175.42,-412.74 184.84,-407.88 174.45,-405.81 175.42,-412.74"/>
</g>
</g>
</svg>
