<?xml version="1.0" encoding="UTF-8" standalone="no"?><svg xmlns="http://www.w3.org/2000/svg" xmlns:xlink="http://www.w3.org/1999/xlink" contentScriptType="application/ecmascript" contentStyleType="text/css" height="1867px" preserveAspectRatio="none" style="width:867px;height:1867px;background:#FFFFFF;" version="1.1" viewBox="0 0 867 1867" width="867px" zoomAndPan="magnify"><defs><filter height="300%" id="f14ec83ksd9pdh" width="300%" x="-1" y="-1"><feGaussianBlur result="blurOut" stdDeviation="2.0"/><feColorMatrix in="blurOut" result="blurOut2" type="matrix" values="0 0 0 0 0 0 0 0 0 0 0 0 0 0 0 0 0 0 .4 0"/><feOffset dx="4.0" dy="4.0" in="blurOut2" result="blurOut3"/><feBlend in="SourceGraphic" in2="blurOut3" mode="normal"/></filter></defs><g><rect fill="none" height="26.4883" style="stroke:none;stroke-width:1.0;" width="229" x="289" y="15"/><text fill="#000000" font-family="sans-serif" font-size="14" font-weight="bold" lengthAdjust="spacing" textLength="219" x="294" y="33.5352">Resources for project example</text><rect fill="#F8F8F8" filter="url(#f14ec83ksd9pdh)" height="36.4883" rx="12.5" ry="12.5" style="stroke:#383838;stroke-width:1.5;" width="52" x="10" y="933.0566"/><text fill="#000000" font-family="sans-serif" font-size="14" lengthAdjust="spacing" textLength="32" x="20" y="956.5918">Infra</text><rect fill="#F8F8F8" filter="url(#f14ec83ksd9pdh)" height="36.4883" rx="12.5" ry="12.5" style="stroke:#383838;stroke-width:1.5;" width="46" x="112" y="933.0566"/><text fill="#000000" font-family="sans-serif" font-size="14" lengthAdjust="spacing" textLength="26" x="122" y="956.5918">aws</text><rect fill="#F8F8F8" filter="url(#f14ec83ksd9pdh)" height="36.4883" rx="12.5" ry="12.5" style="stroke:#383838;stroke-width:1.5;" width="44" x="208" y="565.8828"/><text fill="#000000" font-family="sans-serif" font-size="14" lengthAdjust="spacing" textLength="24" x="218" y="589.418">ec2</text><rect fill="#F8F8F8" filter="url(#f14ec83ksd9pdh)" height="36.4883" rx="12.5" ry="12.5" style="stroke:#383838;stroke-width:1.5;" width="68" x="302" y="57.4883"/><text fill="#000000" font-family="sans-serif" font-size="14" lengthAdjust="spacing" textLength="48" x="312" y="81.0234">Vpc (1)</text><rect fill="#F8F8F8" filter="url(#f14ec83ksd9pdh)" height="36.4883" rx="12.5" ry="12.5" style="stroke:#383838;stroke-width:1.5;" width="43" x="420" y="57.4883"/><text fill="#000000" font-family="sans-serif" font-size="14" lengthAdjust="spacing" textLength="23" x="430" y="81.0234">vpc</text><path d="M370,75.7324 L380,75.7324 C395,75.7324 395,75.7324 410,75.7324 L420,75.7324 " fill="none" style="stroke:#383838;stroke-width:1.0;"/><path d="M252,584.127 L262,584.127 C277,584.127 277,75.7324 292,75.7324 L302,75.7324 " fill="none" style="stroke:#383838;stroke-width:1.0;"/><rect fill="#F8F8F8" filter="url(#f14ec83ksd9pdh)" height="36.4883" rx="12.5" ry="12.5" style="stroke:#383838;stroke-width:1.5;" width="154" x="302" y="113.9766"/><text fill="#000000" font-family="sans-serif" font-size="14" lengthAdjust="spacing" textLength="134" x="312" y="137.5117">InternetGateway (1)</text><rect fill="#F8F8F8" filter="url(#f14ec83ksd9pdh)" height="36.4883" rx="12.5" ry="12.5" style="stroke:#383838;stroke-width:1.5;" width="138" x="506" y="113.9766"/><text fill="#000000" font-family="sans-serif" font-size="14" lengthAdjust="spacing" textLength="118" x="516" y="137.5117">internet-gateway</text><path d="M456,132.2207 L466,132.2207 C481,132.2207 481,132.2207 496,132.2207 L506,132.2207 " fill="none" style="stroke:#383838;stroke-width:1.0;"/><path d="M252,584.127 L262,584.127 C277,584.127 277,132.2207 292,132.2207 L302,132.2207 " fill="none" style="stroke:#383838;stroke-width:1.0;"/><rect fill="#F8F8F8" filter="url(#f14ec83ksd9pdh)" height="36.4883" rx="12.5" ry="12.5" style="stroke:#383838;stroke-width:1.5;" width="91" x="302" y="255.1973"/><text fill="#000000" font-family="sans-serif" font-size="14" lengthAdjust="spacing" textLength="71" x="312" y="278.7324">Subnet (4)</text><rect fill="#F8F8F8" filter="url(#f14ec83ksd9pdh)" height="36.4883" rx="12.5" ry="12.5" style="stroke:#383838;stroke-width:1.5;" width="133" x="443" y="170.4648"/><text fill="#000000" font-family="sans-serif" font-size="14" lengthAdjust="spacing" textLength="113" x="453" y="194">subnet-public-a</text><path d="M393,273.4414 L403,273.4414 C418,273.4414 418,188.709 433,188.709 L443,188.709 " fill="none" style="stroke:#383838;stroke-width:1.0;"/><rect fill="#F8F8F8" filter="url(#f14ec83ksd9pdh)" height="36.4883" rx="12.5" ry="12.5" style="stroke:#383838;stroke-width:1.5;" width="134" x="443" y="226.9531"/><text fill="#000000" font-family="sans-serif" font-size="14" lengthAdjust="spacing" textLength="114" x="453" y="250.4883">subnet-public-b</text><path d="M393,273.4414 L403,273.4414 C418,273.4414 418,245.1973 433,245.1973 L443,245.1973 " fill="none" style="stroke:#383838;stroke-width:1.0;"/><rect fill="#F8F8F8" filter="url(#f14ec83ksd9pdh)" height="36.4883" rx="12.5" ry="12.5" style="stroke:#383838;stroke-width:1.5;" width="138" x="443" y="283.4414"/><text fill="#000000" font-family="sans-serif" font-size="14" lengthAdjust="spacing" textLength="118" x="453" y="306.9766">subnet-private-a</text><path d="M393,273.4414 L403,273.4414 C418,273.4414 418,301.6855 433,301.6855 L443,301.6855 " fill="none" style="stroke:#383838;stroke-width:1.0;"/><rect fill="#F8F8F8" filter="url(#f14ec83ksd9pdh)" height="36.4883" rx="12.5" ry="12.5" style="stroke:#383838;stroke-width:1.5;" width="139" x="443" y="339.9297"/><text fill="#000000" font-family="sans-serif" font-size="14" lengthAdjust="spacing" textLength="119" x="453" y="363.4648">subnet-private-b</text><path d="M393,273.4414 L403,273.4414 C418,273.4414 418,358.1738 433,358.1738 L443,358.1738 " fill="none" style="stroke:#383838;stroke-width:1.0;"/><path d="M252,584.127 L262,584.127 C277,584.127 277,273.4414 292,273.4414 L302,273.4414 " fill="none" style="stroke:#383838;stroke-width:1.0;"/><rect fill="#F8F8F8" filter="url(#f14ec83ksd9pdh)" height="36.4883" rx="12.5" ry="12.5" style="stroke:#383838;stroke-width:1.5;" width="121" x="302" y="452.9063"/><text fill="#000000" font-family="sans-serif" font-size="14" lengthAdjust="spacing" textLength="101" x="312" y="476.4414">RouteTable (3)</text><rect fill="#F8F8F8" filter="url(#f14ec83ksd9pdh)" height="36.4883" rx="12.5" ry="12.5" style="stroke:#383838;stroke-width:1.5;" width="149" x="473" y="396.418"/><text fill="#000000" font-family="sans-serif" font-size="14" lengthAdjust="spacing" textLength="129" x="483" y="419.9531">route-table-public</text><path d="M423,471.1504 L433,471.1504 C448,471.1504 448,414.6621 463,414.6621 L473,414.6621 " fill="none" style="stroke:#383838;stroke-width:1.0;"/><rect fill="#F8F8F8" filter="url(#f14ec83ksd9pdh)" height="36.4883" rx="12.5" ry="12.5" style="stroke:#383838;stroke-width:1.5;" width="170" x="473" y="452.9063"/><text fill="#000000" font-family="sans-serif" font-size="14" lengthAdjust="spacing" textLength="150" x="483" y="476.4414">route-table-private-a</text><path d="M423,471.1504 L433,471.1504 C448,471.1504 448,471.1504 463,471.1504 L473,471.1504 " fill="none" style="stroke:#383838;stroke-width:1.0;"/><rect fill="#F8F8F8" filter="url(#f14ec83ksd9pdh)" height="36.4883" rx="12.5" ry="12.5" style="stroke:#383838;stroke-width:1.5;" width="171" x="473" y="509.3945"/><text fill="#000000" font-family="sans-serif" font-size="14" lengthAdjust="spacing" textLength="151" x="483" y="532.9297">route-table-private-b</text><path d="M423,471.1504 L433,471.1504 C448,471.1504 448,527.6387 463,527.6387 L473,527.6387 " fill="none" style="stroke:#383838;stroke-width:1.0;"/><path d="M252,584.127 L262,584.127 C277,584.127 277,471.1504 292,471.1504 L302,471.1504 " fill="none" style="stroke:#383838;stroke-width:1.0;"/><rect fill="#F8F8F8" filter="url(#f14ec83ksd9pdh)" height="36.4883" rx="12.5" ry="12.5" style="stroke:#383838;stroke-width:1.5;" width="83" x="302" y="622.3711"/><text fill="#000000" font-family="sans-serif" font-size="14" lengthAdjust="spacing" textLength="63" x="312" y="645.9063">Route (3)</text><rect fill="#F8F8F8" filter="url(#f14ec83ksd9pdh)" height="36.4883" rx="12.5" ry="12.5" style="stroke:#383838;stroke-width:1.5;" width="107" x="435" y="565.8828"/><text fill="#000000" font-family="sans-serif" font-size="14" lengthAdjust="spacing" textLength="87" x="445" y="589.418">route-public</text><path d="M385,640.6152 L395,640.6152 C410,640.6152 410,584.127 425,584.127 L435,584.127 " fill="none" style="stroke:#383838;stroke-width:1.0;"/><rect fill="#F8F8F8" filter="url(#f14ec83ksd9pdh)" height="36.4883" rx="12.5" ry="12.5" style="stroke:#383838;stroke-width:1.5;" width="128" x="435" y="622.3711"/><text fill="#000000" font-family="sans-serif" font-size="14" lengthAdjust="spacing" textLength="108" x="445" y="645.9063">route-private-a</text><path d="M385,640.6152 L395,640.6152 C410,640.6152 410,640.6152 425,640.6152 L435,640.6152 " fill="none" style="stroke:#383838;stroke-width:1.0;"/><rect fill="#F8F8F8" filter="url(#f14ec83ksd9pdh)" height="36.4883" rx="12.5" ry="12.5" style="stroke:#383838;stroke-width:1.5;" width="129" x="435" y="678.8594"/><text fill="#000000" font-family="sans-serif" font-size="14" lengthAdjust="spacing" textLength="109" x="445" y="702.3945">route-private-b</text><path d="M385,640.6152 L395,640.6152 C410,640.6152 410,697.1035 425,697.1035 L435,697.1035 " fill="none" style="stroke:#383838;stroke-width:1.0;"/><path d="M252,584.127 L262,584.127 C277,584.127 277,640.6152 292,640.6152 L302,640.6152 " fill="none" style="stroke:#383838;stroke-width:1.0;"/><rect fill="#F8F8F8" filter="url(#f14ec83ksd9pdh)" height="36.4883" rx="12.5" ry="12.5" style="stroke:#383838;stroke-width:1.5;" width="155" x="302" y="735.3477"/><text fill="#000000" font-family="sans-serif" font-size="14" lengthAdjust="spacing" textLength="135" x="312" y="758.8828">ElasticIpAddress (1)</text><rect fill="#F8F8F8" filter="url(#f14ec83ksd9pdh)" height="36.4883" rx="12.5" ry="12.5" style="stroke:#383838;stroke-width:1.5;" width="41" x="507" y="735.3477"/><text fill="#000000" font-family="sans-serif" font-size="14" lengthAdjust="spacing" textLength="21" x="517" y="758.8828">iep</text><path d="M457,753.5918 L467,753.5918 C482,753.5918 482,753.5918 497,753.5918 L507,753.5918 " fill="none" style="stroke:#383838;stroke-width:1.0;"/><path d="M252,584.127 L262,584.127 C277,584.127 277,753.5918 292,753.5918 L302,753.5918 " fill="none" style="stroke:#383838;stroke-width:1.0;"/><rect fill="#F8F8F8" filter="url(#f14ec83ksd9pdh)" height="36.4883" rx="12.5" ry="12.5" style="stroke:#383838;stroke-width:1.5;" width="123" x="302" y="791.8359"/><text fill="#000000" font-family="sans-serif" font-size="14" lengthAdjust="spacing" textLength="103" x="312" y="815.3711">NatGateway (1)</text><rect fill="#F8F8F8" filter="url(#f14ec83ksd9pdh)" height="36.4883" rx="12.5" ry="12.5" style="stroke:#383838;stroke-width:1.5;" width="106" x="475" y="791.8359"/><text fill="#000000" font-family="sans-serif" font-size="14" lengthAdjust="spacing" textLength="86" x="485" y="815.3711">nat-gateway</text><path d="M425,810.0801 L435,810.0801 C450,810.0801 450,810.0801 465,810.0801 L475,810.0801 " fill="none" style="stroke:#383838;stroke-width:1.0;"/><path d="M252,584.127 L262,584.127 C277,584.127 277,810.0801 292,810.0801 L302,810.0801 " fill="none" style="stroke:#383838;stroke-width:1.0;"/><rect fill="#F8F8F8" filter="url(#f14ec83ksd9pdh)" height="36.4883" rx="12.5" ry="12.5" style="stroke:#383838;stroke-width:1.5;" width="140" x="302" y="876.5684"/><text fill="#000000" font-family="sans-serif" font-size="14" lengthAdjust="spacing" textLength="120" x="312" y="900.1035">SecurityGroup (2)</text><rect fill="#F8F8F8" filter="url(#f14ec83ksd9pdh)" height="36.4883" rx="12.5" ry="12.5" style="stroke:#383838;stroke-width:1.5;" width="177" x="492" y="848.3242"/><text fill="#000000" font-family="sans-serif" font-size="14" lengthAdjust="spacing" textLength="157" x="502" y="871.8594">security-group-cluster</text><path d="M442,894.8125 L452,894.8125 C467,894.8125 467,866.5684 482,866.5684 L492,866.5684 " fill="none" style="stroke:#383838;stroke-width:1.0;"/><rect fill="#F8F8F8" filter="url(#f14ec83ksd9pdh)" height="36.4883" rx="12.5" ry="12.5" style="stroke:#383838;stroke-width:1.5;" width="166" x="492" y="904.8125"/><text fill="#000000" font-family="sans-serif" font-size="14" lengthAdjust="spacing" textLength="146" x="502" y="928.3477">security-group-node</text><path d="M442,894.8125 L452,894.8125 C467,894.8125 467,923.0566 482,923.0566 L492,923.0566 " fill="none" style="stroke:#383838;stroke-width:1.0;"/><path d="M252,584.127 L262,584.127 C277,584.127 277,894.8125 292,894.8125 L302,894.8125 " fill="none" style="stroke:#383838;stroke-width:1.0;"/><rect fill="#F8F8F8" filter="url(#f14ec83ksd9pdh)" height="36.4883" rx="12.5" ry="12.5" style="stroke:#383838;stroke-width:1.5;" width="220" x="302" y="989.5449"/><text fill="#000000" font-family="sans-serif" font-size="14" lengthAdjust="spacing" textLength="200" x="312" y="1013.0801">SecurityGroupRuleIngress (2)</text><rect fill="#F8F8F8" filter="url(#f14ec83ksd9pdh)" height="36.4883" rx="12.5" ry="12.5" style="stroke:#383838;stroke-width:1.5;" width="226" x="572" y="961.3008"/><text fill="#000000" font-family="sans-serif" font-size="14" lengthAdjust="spacing" textLength="206" x="582" y="984.8359">sg-cluster-rule-ingress-https</text><path d="M522,1007.7891 L532,1007.7891 C547,1007.7891 547,979.5449 562,979.5449 L572,979.5449 " fill="none" style="stroke:#383838;stroke-width:1.0;"/><rect fill="#F8F8F8" filter="url(#f14ec83ksd9pdh)" height="36.4883" rx="12.5" ry="12.5" style="stroke:#383838;stroke-width:1.5;" width="276" x="572" y="1017.7891"/><text fill="#000000" font-family="sans-serif" font-size="14" lengthAdjust="spacing" textLength="256" x="582" y="1041.3242">sg-rule-node-group-ingress-cluster</text><path d="M522,1007.7891 L532,1007.7891 C547,1007.7891 547,1036.0332 562,1036.0332 L572,1036.0332 " fill="none" style="stroke:#383838;stroke-width:1.0;"/><path d="M252,584.127 L262,584.127 C277,584.127 277,1007.7891 292,1007.7891 L302,1007.7891 " fill="none" style="stroke:#383838;stroke-width:1.0;"/><rect fill="#F8F8F8" filter="url(#f14ec83ksd9pdh)" height="36.4883" rx="12.5" ry="12.5" style="stroke:#383838;stroke-width:1.5;" width="215" x="302" y="1074.2773"/><text fill="#000000" font-family="sans-serif" font-size="14" lengthAdjust="spacing" textLength="195" x="312" y="1097.8125">SecurityGroupRuleEgress (1)</text><rect fill="#F8F8F8" filter="url(#f14ec83ksd9pdh)" height="36.4883" rx="12.5" ry="12.5" style="stroke:#383838;stroke-width:1.5;" width="178" x="567" y="1074.2773"/><text fill="#000000" font-family="sans-serif" font-size="14" lengthAdjust="spacing" textLength="158" x="577" y="1097.8125">sg-cluster-rule-egress</text><path d="M517,1092.5215 L527,1092.5215 C542,1092.5215 542,1092.5215 557,1092.5215 L567,1092.5215 " fill="none" style="stroke:#383838;stroke-width:1.0;"/><path d="M252,584.127 L262,584.127 C277,584.127 277,1092.5215 292,1092.5215 L302,1092.5215 " fill="none" style="stroke:#383838;stroke-width:1.0;"/><path d="M158,951.3008 L168,951.3008 C183,951.3008 183,584.127 198,584.127 L208,584.127 " fill="none" style="stroke:#383838;stroke-width:1.0;"/><rect fill="#F8F8F8" filter="url(#f14ec83ksd9pdh)" height="36.4883" rx="12.5" ry="12.5" style="stroke:#383838;stroke-width:1.5;" width="45" x="208" y="1384.9629"/><text fill="#000000" font-family="sans-serif" font-size="14" lengthAdjust="spacing" textLength="25" x="218" y="1408.498">iam</text><rect fill="#F8F8F8" filter="url(#f14ec83ksd9pdh)" height="36.4883" rx="12.5" ry="12.5" style="stroke:#383838;stroke-width:1.5;" width="82" x="303" y="1271.9863"/><text fill="#000000" font-family="sans-serif" font-size="14" lengthAdjust="spacing" textLength="62" x="313" y="1295.5215">Policy (6)</text><rect fill="#F8F8F8" filter="url(#f14ec83ksd9pdh)" height="36.4883" rx="12.5" ry="12.5" style="stroke:#383838;stroke-width:1.5;" width="190" x="435" y="1130.7656"/><text fill="#000000" font-family="sans-serif" font-size="14" lengthAdjust="spacing" textLength="170" x="445" y="1154.3008">AmazonEKSClusterPolicy</text><path d="M385,1290.2305 L395,1290.2305 C410,1290.2305 410,1149.0098 425,1149.0098 L435,1149.0098 " fill="none" style="stroke:#383838;stroke-width:1.0;"/><rect fill="#F8F8F8" filter="url(#f14ec83ksd9pdh)" height="36.4883" rx="12.5" ry="12.5" style="stroke:#383838;stroke-width:1.5;" width="262" x="435" y="1187.2539"/><text fill="#000000" font-family="sans-serif" font-size="14" lengthAdjust="spacing" textLength="242" x="445" y="1210.7891">AmazonEKSVPCResourceController</text><path d="M385,1290.2305 L395,1290.2305 C410,1290.2305 410,1205.498 425,1205.498 L435,1205.498 " fill="none" style="stroke:#383838;stroke-width:1.0;"/><rect fill="#F8F8F8" filter="url(#f14ec83ksd9pdh)" height="36.4883" rx="12.5" ry="12.5" style="stroke:#383838;stroke-width:1.5;" width="226" x="435" y="1243.7422"/><text fill="#000000" font-family="sans-serif" font-size="14" lengthAdjust="spacing" textLength="206" x="445" y="1267.2773">AmazonEKSWorkerNodePolicy</text><path d="M385,1290.2305 L395,1290.2305 C410,1290.2305 410,1261.9863 425,1261.9863 L435,1261.9863 " fill="none" style="stroke:#383838;stroke-width:1.0;"/><rect fill="#F8F8F8" filter="url(#f14ec83ksd9pdh)" height="36.4883" rx="12.5" ry="12.5" style="stroke:#383838;stroke-width:1.5;" width="292" x="435" y="1300.2305"/><text fill="#000000" font-family="sans-serif" font-size="14" lengthAdjust="spacing" textLength="272" x="445" y="1323.7656">AmazonEC2ContainerRegistryReadOnly</text><path d="M385,1290.2305 L395,1290.2305 C410,1290.2305 410,1318.4746 425,1318.4746 L435,1318.4746 " fill="none" style="stroke:#383838;stroke-width:1.0;"/><rect fill="#F8F8F8" filter="url(#f14ec83ksd9pdh)" height="36.4883" rx="12.5" ry="12.5" style="stroke:#383838;stroke-width:1.5;" width="179" x="435" y="1356.7188"/><text fill="#000000" font-family="sans-serif" font-size="14" lengthAdjust="spacing" textLength="159" x="445" y="1380.2539">AmazonEKS_CNI_Policy</text><path d="M385,1290.2305 L395,1290.2305 C410,1290.2305 410,1374.9629 425,1374.9629 L435,1374.9629 " fill="none" style="stroke:#383838;stroke-width:1.0;"/><rect fill="#F8F8F8" filter="url(#f14ec83ksd9pdh)" height="36.4883" rx="12.5" ry="12.5" style="stroke:#383838;stroke-width:1.5;" width="276" x="435" y="1413.207"/><text fill="#000000" font-family="sans-serif" font-size="14" lengthAdjust="spacing" textLength="256" x="445" y="1436.7422">AWSLoadBalancerControllerIAMPolicy</text><path d="M385,1290.2305 L395,1290.2305 C410,1290.2305 410,1431.4512 425,1431.4512 L435,1431.4512 " fill="none" style="stroke:#383838;stroke-width:1.0;"/><path d="M253,1403.207 L263,1403.207 C278,1403.207 278,1290.2305 293,1290.2305 L303,1290.2305 " fill="none" style="stroke:#383838;stroke-width:1.0;"/><rect fill="#F8F8F8" filter="url(#f14ec83ksd9pdh)" height="36.4883" rx="12.5" ry="12.5" style="stroke:#383838;stroke-width:1.5;" width="73" x="303" y="1526.1836"/><text fill="#000000" font-family="sans-serif" font-size="14" lengthAdjust="spacing" textLength="53" x="313" y="1549.7188">Role (3)</text><rect fill="#F8F8F8" filter="url(#f14ec83ksd9pdh)" height="36.4883" rx="12.5" ry="12.5" style="stroke:#383838;stroke-width:1.5;" width="101" x="426" y="1469.6953"/><text fill="#000000" font-family="sans-serif" font-size="14" lengthAdjust="spacing" textLength="81" x="436" y="1493.2305">role-cluster</text><path d="M376,1544.4277 L386,1544.4277 C401,1544.4277 401,1487.9395 416,1487.9395 L426,1487.9395 " fill="none" style="stroke:#383838;stroke-width:1.0;"/><rect fill="#F8F8F8" filter="url(#f14ec83ksd9pdh)" height="36.4883" rx="12.5" ry="12.5" style="stroke:#383838;stroke-width:1.5;" width="140" x="426" y="1526.1836"/><text fill="#000000" font-family="sans-serif" font-size="14" lengthAdjust="spacing" textLength="120" x="436" y="1549.7188">role-node-group</text><path d="M376,1544.4277 L386,1544.4277 C401,1544.4277 401,1544.4277 416,1544.4277 L426,1544.4277 " fill="none" style="stroke:#383838;stroke-width:1.0;"/><rect fill="#F8F8F8" filter="url(#f14ec83ksd9pdh)" height="36.4883" rx="12.5" ry="12.5" style="stroke:#383838;stroke-width:1.5;" width="152" x="426" y="1582.6719"/><text fill="#000000" font-family="sans-serif" font-size="14" lengthAdjust="spacing" textLength="132" x="436" y="1606.207">role-load-balancer</text><path d="M376,1544.4277 L386,1544.4277 C401,1544.4277 401,1600.916 416,1600.916 L426,1600.916 " fill="none" style="stroke:#383838;stroke-width:1.0;"/><path d="M253,1403.207 L263,1403.207 C278,1403.207 278,1544.4277 293,1544.4277 L303,1544.4277 " fill="none" style="stroke:#383838;stroke-width:1.0;"/><rect fill="#F8F8F8" filter="url(#f14ec83ksd9pdh)" height="36.4883" rx="12.5" ry="12.5" style="stroke:#383838;stroke-width:1.5;" width="208" x="303" y="1639.1602"/><text fill="#000000" font-family="sans-serif" font-size="14" lengthAdjust="spacing" textLength="188" x="313" y="1662.6953">OpenIDConnectProvider (1)</text><rect fill="#F8F8F8" filter="url(#f14ec83ksd9pdh)" height="36.4883" rx="12.5" ry="12.5" style="stroke:#383838;stroke-width:1.5;" width="80" x="561" y="1639.1602"/><text fill="#000000" font-family="sans-serif" font-size="14" lengthAdjust="spacing" textLength="60" x="571" y="1662.6953">oidc-eks</text><path d="M511,1657.4043 L521,1657.4043 C536,1657.4043 536,1657.4043 551,1657.4043 L561,1657.4043 " fill="none" style="stroke:#383838;stroke-width:1.0;"/><path d="M253,1403.207 L263,1403.207 C278,1403.207 278,1657.4043 293,1657.4043 L303,1657.4043 " fill="none" style="stroke:#383838;stroke-width:1.0;"/><path d="M158,951.3008 L168,951.3008 C183,951.3008 183,1403.207 198,1403.207 L208,1403.207 " fill="none" style="stroke:#383838;stroke-width:1.0;"/><rect fill="#F8F8F8" filter="url(#f14ec83ksd9pdh)" height="36.4883" rx="12.5" ry="12.5" style="stroke:#383838;stroke-width:1.5;" width="48" x="208" y="1695.6484"/><text fill="#000000" font-family="sans-serif" font-size="14" lengthAdjust="spacing" textLength="28" x="218" y="1719.1836">kms</text><rect fill="#F8F8F8" filter="url(#f14ec83ksd9pdh)" height="36.4883" rx="12.5" ry="12.5" style="stroke:#383838;stroke-width:1.5;" width="67" x="306" y="1695.6484"/><text fill="#000000" font-family="sans-serif" font-size="14" lengthAdjust="spacing" textLength="47" x="316" y="1719.1836">Key (1)</text><rect fill="#F8F8F8" filter="url(#f14ec83ksd9pdh)" height="36.4883" rx="12.5" ry="12.5" style="stroke:#383838;stroke-width:1.5;" width="74" x="423" y="1695.6484"/><text fill="#000000" font-family="sans-serif" font-size="14" lengthAdjust="spacing" textLength="54" x="433" y="1719.1836">eks-key</text><path d="M373,1713.8926 L383,1713.8926 C398,1713.8926 398,1713.8926 413,1713.8926 L423,1713.8926 " fill="none" style="stroke:#383838;stroke-width:1.0;"/><path d="M256,1713.8926 L266,1713.8926 C281,1713.8926 281,1713.8926 296,1713.8926 L306,1713.8926 " fill="none" style="stroke:#383838;stroke-width:1.0;"/><path d="M158,951.3008 L168,951.3008 C183,951.3008 183,1713.8926 198,1713.8926 L208,1713.8926 " fill="none" style="stroke:#383838;stroke-width:1.0;"/><rect fill="#F8F8F8" filter="url(#f14ec83ksd9pdh)" height="36.4883" rx="12.5" ry="12.5" style="stroke:#383838;stroke-width:1.5;" width="43" x="208" y="1780.3809"/><text fill="#000000" font-family="sans-serif" font-size="14" lengthAdjust="spacing" textLength="23" x="218" y="1803.916">eks</text><rect fill="#F8F8F8" filter="url(#f14ec83ksd9pdh)" height="36.4883" rx="12.5" ry="12.5" style="stroke:#383838;stroke-width:1.5;" width="92" x="301" y="1752.1367"/><text fill="#000000" font-family="sans-serif" font-size="14" lengthAdjust="spacing" textLength="72" x="311" y="1775.6719">Cluster (1)</text><rect fill="#F8F8F8" filter="url(#f14ec83ksd9pdh)" height="36.4883" rx="12.5" ry="12.5" style="stroke:#383838;stroke-width:1.5;" width="66" x="443" y="1752.1367"/><text fill="#000000" font-family="sans-serif" font-size="14" lengthAdjust="spacing" textLength="46" x="453" y="1775.6719">cluster</text><path d="M393,1770.3809 L403,1770.3809 C418,1770.3809 418,1770.3809 433,1770.3809 L443,1770.3809 " fill="none" style="stroke:#383838;stroke-width:1.0;"/><path d="M251,1798.625 L261,1798.625 C276,1798.625 276,1770.3809 291,1770.3809 L301,1770.3809 " fill="none" style="stroke:#383838;stroke-width:1.0;"/><rect fill="#F8F8F8" filter="url(#f14ec83ksd9pdh)" height="36.4883" rx="12.5" ry="12.5" style="stroke:#383838;stroke-width:1.5;" width="122" x="301" y="1808.625"/><text fill="#000000" font-family="sans-serif" font-size="14" lengthAdjust="spacing" textLength="102" x="311" y="1832.1602">NodeGroup (1)</text><rect fill="#F8F8F8" filter="url(#f14ec83ksd9pdh)" height="36.4883" rx="12.5" ry="12.5" style="stroke:#383838;stroke-width:1.5;" width="214" x="473" y="1808.625"/><text fill="#000000" font-family="sans-serif" font-size="14" lengthAdjust="spacing" textLength="194" x="483" y="1832.1602">node-group-private-cluster</text><path d="M423,1826.8691 L433,1826.8691 C448,1826.8691 448,1826.8691 463,1826.8691 L473,1826.8691 " fill="none" style="stroke:#383838;stroke-width:1.0;"/><path d="M251,1798.625 L261,1798.625 C276,1798.625 276,1826.8691 291,1826.8691 L301,1826.8691 " fill="none" style="stroke:#383838;stroke-width:1.0;"/><path d="M158,951.3008 L168,951.3008 C183,951.3008 183,1798.625 198,1798.625 L208,1798.625 " fill="none" style="stroke:#383838;stroke-width:1.0;"/><path d="M62,951.3008 L72,951.3008 C87,951.3008 87,951.3008 102,951.3008 L112,951.3008 " fill="none" style="stroke:#383838;stroke-width:1.0;"/><!--MD5=[803538eae33c7c05ae737e00368509d8]
@startmindmap
title Resources for project example
skinparam monochrome true
+ Infra
++ aws
+++ ec2
++++ Vpc (1)
+++++ vpc
++++ InternetGateway (1)
+++++ internet-gateway
++++ Subnet (4)
+++++ subnet-public-a
+++++ subnet-public-b
+++++ subnet-private-a
+++++ subnet-private-b
++++ RouteTable (3)
+++++ route-table-public
+++++ route-table-private-a
+++++ route-table-private-b
++++ Route (3)
+++++ route-public
+++++ route-private-a
+++++ route-private-b
++++ ElasticIpAddress (1)
+++++ iep
++++ NatGateway (1)
+++++ nat-gateway
++++ SecurityGroup (2)
+++++ security-group-cluster
+++++ security-group-node
++++ SecurityGroupRuleIngress (2)
+++++ sg-cluster-rule-ingress-https
+++++ sg-rule-node-group-ingress-cluster
++++ SecurityGroupRuleEgress (1)
+++++ sg-cluster-rule-egress
+++ iam
++++ Policy (6)
+++++ AmazonEKSClusterPolicy
+++++ AmazonEKSVPCResourceController
+++++ AmazonEKSWorkerNodePolicy
+++++ AmazonEC2ContainerRegistryReadOnly
+++++ AmazonEKS_CNI_Policy
+++++ AWSLoadBalancerControllerIAMPolicy
++++ Role (3)
+++++ role-cluster
+++++ role-node-group
+++++ role-load-balancer
++++ OpenIDConnectProvider (1)
+++++ oidc-eks
+++ kms
++++ Key (1)
+++++ eks-key
+++ eks
++++ Cluster (1)
+++++ cluster
++++ NodeGroup (1)
+++++ node-group-private-cluster
@endmindmap

PlantUML version 1.2021.8(Sat Jun 26 05:20:59 BRT 2021)
(GPL source distribution)
Java Runtime: OpenJDK Runtime Environment
JVM: OpenJDK 64-Bit Server VM
Default Encoding: UTF-8
Language: en
Country: GB
--></g></svg>