<?xml version="1.0" encoding="UTF-8" standalone="no"?>
<!DOCTYPE svg PUBLIC "-//W3C//DTD SVG 1.1//EN"
 "http://www.w3.org/Graphics/SVG/1.1/DTD/svg11.dtd">
<!-- Generated by graphviz version 6.0.0 (20220910.1538)
 -->
<!-- Title: graphname Pages: 1 -->
<svg width="1377pt" height="545pt"
 viewBox="0.00 0.00 1377.00 545.00" xmlns="http://www.w3.org/2000/svg" xmlns:xlink="http://www.w3.org/1999/xlink">
<g id="graph0" class="graph" transform="scale(1 1) rotate(0) translate(4 541)">
<title>graphname</title>
<polygon fill="#fafafa" stroke="none" points="-4,4 -4,-541 1373,-541 1373,4 -4,4"/>
<text text-anchor="start" x="502.5" y="-512.4" font-family="Helvetica,sans-Serif" font-weight="bold" font-size="22.00" fill="#383838">Project appconfig&#45;feature&#45;flag&#45;sam</text>
<text text-anchor="start" x="680.5" y="-496.8" font-family="Helvetica,sans-Serif" font-size="14.00"> &#160;</text>
<text text-anchor="start" x="502.5" y="-475.2" font-family="Helvetica,sans-Serif" font-weight="bold" font-size="16.00" fill="#707070">Target Diagram</text>
<g id="clust1" class="cluster">
<title>cluster_aws</title>
<polygon fill="#f5f5f5" stroke="#f5f5f5" points="8,-8 8,-453 1361,-453 1361,-8 8,-8"/>
<text text-anchor="start" x="622.5" y="-23" font-family="Helvetica,sans-Serif" font-weight="bold" font-size="20.00" fill="#707070">Provider aws</text>
</g>
<g id="clust2" class="cluster">
<title>cluster_aws_</title>
<polygon fill="#eeeeee" stroke="#eeeeee" points="16,-54 16,-445 1353,-445 1353,-54 16,-54"/>
<text text-anchor="start" x="684.36" y="-58.3" font-family="Helvetica,sans-Serif" font-size="1.00" fill="#383838"> </text>
</g>
<!-- Api::sam&#45;app -->
<g id="node1" class="node">
<title>Api::sam&#45;app</title>
<polygon fill="#e5e5e5" stroke="#dddddd" points="927,-393 755,-393 755,-335 927,-335 927,-393"/>
<text text-anchor="start" x="767" y="-373.2" font-family="Helvetica,sans-Serif" font-weight="bold" font-size="16.00" fill="#707070">ApiGatewayV2::Api</text>
<text text-anchor="start" x="767" y="-348.2" font-family="Helvetica,sans-Serif" font-size="16.00" fill="#383838">sam&#45;app</text>
</g>
<!-- Deployment::deployment::sam&#45;app -->
<g id="node2" class="node">
<title>Deployment::deployment::sam&#45;app</title>
<polygon fill="#e5e5e5" stroke="#dddddd" points="269.5,-427 31.5,-427 31.5,-369 269.5,-369 269.5,-427"/>
<text text-anchor="start" x="43.5" y="-407.2" font-family="Helvetica,sans-Serif" font-weight="bold" font-size="16.00" fill="#707070">ApiGatewayV2::Deployment</text>
<text text-anchor="start" x="43.5" y="-382.2" font-family="Helvetica,sans-Serif" font-size="16.00" fill="#383838">deployment::sam&#45;app</text>
</g>
<!-- Deployment::deployment::sam&#45;app&#45;&gt;Api::sam&#45;app -->
<g id="edge1" class="edge">
<title>Deployment::deployment::sam&#45;app&#45;&gt;Api::sam&#45;app</title>
<path fill="none" stroke="#707070" d="M269.84,-375.25C284.33,-373.12 298.97,-371.29 313,-370 463.5,-356.19 639.18,-357.7 744.89,-360.51"/>
<polygon fill="#707070" stroke="#707070" points="744.81,-364.01 754.9,-360.79 745,-357.02 744.81,-364.01"/>
</g>
<!-- Stage::sam&#45;app::$default -->
<g id="node5" class="node">
<title>Stage::sam&#45;app::$default</title>
<polygon fill="#e5e5e5" stroke="#dddddd" points="574,-437 384,-437 384,-379 574,-379 574,-437"/>
<text text-anchor="start" x="396" y="-417.2" font-family="Helvetica,sans-Serif" font-weight="bold" font-size="16.00" fill="#707070">ApiGatewayV2::Stage</text>
<text text-anchor="start" x="396" y="-392.2" font-family="Helvetica,sans-Serif" font-size="16.00" fill="#383838">sam&#45;app::$default</text>
</g>
<!-- Deployment::deployment::sam&#45;app&#45;&gt;Stage::sam&#45;app::$default -->
<g id="edge2" class="edge">
<title>Deployment::deployment::sam&#45;app&#45;&gt;Stage::sam&#45;app::$default</title>
<path fill="none" stroke="#707070" d="M269.84,-401.62C303.82,-402.67 340.63,-403.79 373.7,-404.81"/>
<polygon fill="#707070" stroke="#707070" points="373.74,-408.31 383.84,-405.12 373.95,-401.31 373.74,-408.31"/>
</g>
<!-- Integration::integration::sam&#45;app::sam&#45;app&#45;SAMConfigFunction&#45;QTjGGM76Kd6u -->
<g id="node3" class="node">
<title>Integration::integration::sam&#45;app::sam&#45;app&#45;SAMConfigFunction&#45;QTjGGM76Kd6u</title>
<polygon fill="#e5e5e5" stroke="#dddddd" points="621,-321 337,-321 337,-263 621,-263 621,-321"/>
<text text-anchor="start" x="349" y="-301.2" font-family="Helvetica,sans-Serif" font-weight="bold" font-size="16.00" fill="#707070">ApiGatewayV2::Integration</text>
<text text-anchor="start" x="349" y="-276.2" font-family="Helvetica,sans-Serif" font-size="16.00" fill="#383838">integration::sam&#45;app::sam&#45;app&#45;SA...</text>
</g>
<!-- Integration::integration::sam&#45;app::sam&#45;app&#45;SAMConfigFunction&#45;QTjGGM76Kd6u&#45;&gt;Api::sam&#45;app -->
<g id="edge3" class="edge">
<title>Integration::integration::sam&#45;app::sam&#45;app&#45;SAMConfigFunction&#45;QTjGGM76Kd6u&#45;&gt;Api::sam&#45;app</title>
<path fill="none" stroke="#707070" d="M621.25,-320.25C662.75,-328.55 707.13,-337.43 745,-345"/>
<polygon fill="#707070" stroke="#707070" points="744.5,-348.47 754.99,-347 745.87,-341.6 744.5,-348.47"/>
</g>
<!-- Function::sam&#45;app&#45;SAMConfigFunction&#45;QTjGGM76Kd6u -->
<g id="node13" class="node">
<title>Function::sam&#45;app&#45;SAMConfigFunction&#45;QTjGGM76Kd6u</title>
<polygon fill="#e5e5e5" stroke="#dddddd" points="1001,-317 681,-317 681,-259 1001,-259 1001,-317"/>
<text text-anchor="start" x="693" y="-297.2" font-family="Helvetica,sans-Serif" font-weight="bold" font-size="16.00" fill="#707070">Lambda::Function</text>
<text text-anchor="start" x="693" y="-272.2" font-family="Helvetica,sans-Serif" font-size="16.00" fill="#383838">sam&#45;app&#45;SAMConfigFunction&#45;QTjGGM...</text>
</g>
<!-- Integration::integration::sam&#45;app::sam&#45;app&#45;SAMConfigFunction&#45;QTjGGM76Kd6u&#45;&gt;Function::sam&#45;app&#45;SAMConfigFunction&#45;QTjGGM76Kd6u -->
<g id="edge4" class="edge">
<title>Integration::integration::sam&#45;app::sam&#45;app&#45;SAMConfigFunction&#45;QTjGGM76Kd6u&#45;&gt;Function::sam&#45;app&#45;SAMConfigFunction&#45;QTjGGM76Kd6u</title>
<path fill="none" stroke="#707070" d="M621.25,-290.43C637.48,-290.25 654.15,-290.06 670.7,-289.88"/>
<polygon fill="#707070" stroke="#707070" points="671.03,-293.38 680.99,-289.77 670.95,-286.38 671.03,-293.38"/>
</g>
<!-- Route::route::sam&#45;app::GET /config -->
<g id="node4" class="node">
<title>Route::route::sam&#45;app::GET /config</title>
<polygon fill="#e5e5e5" stroke="#dddddd" points="264.5,-331 36.5,-331 36.5,-273 264.5,-273 264.5,-331"/>
<text text-anchor="start" x="48.5" y="-311.2" font-family="Helvetica,sans-Serif" font-weight="bold" font-size="16.00" fill="#707070">ApiGatewayV2::Route</text>
<text text-anchor="start" x="48.5" y="-286.2" font-family="Helvetica,sans-Serif" font-size="16.00" fill="#383838">route::sam&#45;app::GET /config</text>
</g>
<!-- Route::route::sam&#45;app::GET /config&#45;&gt;Api::sam&#45;app -->
<g id="edge5" class="edge">
<title>Route::route::sam&#45;app::GET /config&#45;&gt;Api::sam&#45;app</title>
<path fill="none" stroke="#707070" d="M264.66,-323.2C280.84,-325.77 297.32,-328.14 313,-330 393.83,-339.59 616.07,-352.23 744.67,-359.08"/>
<polygon fill="#707070" stroke="#707070" points="744.73,-362.59 754.9,-359.62 745.1,-355.6 744.73,-362.59"/>
</g>
<!-- Route::route::sam&#45;app::GET /config&#45;&gt;Integration::integration::sam&#45;app::sam&#45;app&#45;SAMConfigFunction&#45;QTjGGM76Kd6u -->
<g id="edge6" class="edge">
<title>Route::route::sam&#45;app::GET /config&#45;&gt;Integration::integration::sam&#45;app::sam&#45;app&#45;SAMConfigFunction&#45;QTjGGM76Kd6u</title>
<path fill="none" stroke="#707070" d="M264.78,-298.53C284.72,-297.92 305.77,-297.28 326.55,-296.64"/>
<polygon fill="#707070" stroke="#707070" points="326.84,-300.13 336.73,-296.33 326.63,-293.13 326.84,-300.13"/>
</g>
<!-- Stage::sam&#45;app::$default&#45;&gt;Api::sam&#45;app -->
<g id="edge7" class="edge">
<title>Stage::sam&#45;app::$default&#45;&gt;Api::sam&#45;app</title>
<path fill="none" stroke="#707070" d="M574.12,-396.5C626.67,-390.07 691.97,-382.09 744.71,-375.65"/>
<polygon fill="#707070" stroke="#707070" points="745.24,-379.11 754.74,-374.42 744.39,-372.16 745.24,-379.11"/>
</g>
<!-- Application::appconfig&#45;feature&#45;flag&#45;sam -->
<g id="node6" class="node">
<title>Application::appconfig&#45;feature&#45;flag&#45;sam</title>
<polygon fill="#e5e5e5" stroke="#dddddd" points="1300,-203 1082,-203 1082,-145 1300,-145 1300,-203"/>
<text text-anchor="start" x="1094" y="-183.2" font-family="Helvetica,sans-Serif" font-weight="bold" font-size="16.00" fill="#707070">AppConfig::Application</text>
<text text-anchor="start" x="1094" y="-158.2" font-family="Helvetica,sans-Serif" font-size="16.00" fill="#383838">appconfig&#45;feature&#45;flag&#45;sam</text>
</g>
<!-- ConfigurationProfile::appconfig&#45;feature&#45;flag&#45;sam::TestConfig -->
<g id="node7" class="node">
<title>ConfigurationProfile::appconfig&#45;feature&#45;flag&#45;sam::TestConfig</title>
<polygon fill="#e5e5e5" stroke="#dddddd" points="976.5,-165 705.5,-165 705.5,-107 976.5,-107 976.5,-165"/>
<text text-anchor="start" x="718" y="-145.2" font-family="Helvetica,sans-Serif" font-weight="bold" font-size="16.00" fill="#707070">AppConfig::ConfigurationProfile</text>
<text text-anchor="start" x="718" y="-120.2" font-family="Helvetica,sans-Serif" font-size="16.00" fill="#383838">appconfig&#45;feature&#45;flag&#45;sam::Test...</text>
</g>
<!-- ConfigurationProfile::appconfig&#45;feature&#45;flag&#45;sam::TestConfig&#45;&gt;Application::appconfig&#45;feature&#45;flag&#45;sam -->
<g id="edge8" class="edge">
<title>ConfigurationProfile::appconfig&#45;feature&#45;flag&#45;sam::TestConfig&#45;&gt;Application::appconfig&#45;feature&#45;flag&#45;sam</title>
<path fill="none" stroke="#707070" d="M976.55,-150.69C1007.91,-154.12 1041.07,-157.74 1071.67,-161.08"/>
<polygon fill="#707070" stroke="#707070" points="1071.62,-164.59 1081.94,-162.2 1072.38,-157.64 1071.62,-164.59"/>
</g>
<!-- Deployment::appconfig&#45;feature&#45;flag&#45;sam::dev -->
<g id="node8" class="node">
<title>Deployment::appconfig&#45;feature&#45;flag&#45;sam::dev</title>
<polygon fill="#e5e5e5" stroke="#dddddd" points="277,-187 24,-187 24,-129 277,-129 277,-187"/>
<text text-anchor="start" x="36.5" y="-167.2" font-family="Helvetica,sans-Serif" font-weight="bold" font-size="16.00" fill="#707070">AppConfig::Deployment</text>
<text text-anchor="start" x="36.5" y="-142.2" font-family="Helvetica,sans-Serif" font-size="16.00" fill="#383838">appconfig&#45;feature&#45;flag&#45;sam::dev</text>
</g>
<!-- Deployment::appconfig&#45;feature&#45;flag&#45;sam::dev&#45;&gt;ConfigurationProfile::appconfig&#45;feature&#45;flag&#45;sam::TestConfig -->
<g id="edge9" class="edge">
<title>Deployment::appconfig&#45;feature&#45;flag&#45;sam::dev&#45;&gt;ConfigurationProfile::appconfig&#45;feature&#45;flag&#45;sam::TestConfig</title>
<path fill="none" stroke="#707070" d="M198.97,-128.84C230.13,-111.46 272.48,-91.06 313,-82 457,-49.81 498.79,-62.13 645,-82 678.12,-86.5 713.56,-95.12 745.02,-104.17"/>
<polygon fill="#707070" stroke="#707070" points="744.07,-107.54 754.65,-106.99 746.04,-100.82 744.07,-107.54"/>
</g>
<!-- DeploymentStrategy::SAMConfigDeploymentStrategy -->
<g id="node9" class="node">
<title>DeploymentStrategy::SAMConfigDeploymentStrategy</title>
<polygon fill="#e5e5e5" stroke="#dddddd" points="614.5,-149 343.5,-149 343.5,-91 614.5,-91 614.5,-149"/>
<text text-anchor="start" x="356" y="-129.2" font-family="Helvetica,sans-Serif" font-weight="bold" font-size="16.00" fill="#707070">AppConfig::DeploymentStrategy</text>
<text text-anchor="start" x="356" y="-104.2" font-family="Helvetica,sans-Serif" font-size="16.00" fill="#383838">SAMConfigDeploymentStrategy</text>
</g>
<!-- Deployment::appconfig&#45;feature&#45;flag&#45;sam::dev&#45;&gt;DeploymentStrategy::SAMConfigDeploymentStrategy -->
<g id="edge10" class="edge">
<title>Deployment::appconfig&#45;feature&#45;flag&#45;sam::dev&#45;&gt;DeploymentStrategy::SAMConfigDeploymentStrategy</title>
<path fill="none" stroke="#707070" d="M277.27,-143.36C295.62,-141.23 314.63,-139.01 333.32,-136.84"/>
<polygon fill="#707070" stroke="#707070" points="333.83,-140.3 343.36,-135.67 333.02,-133.35 333.83,-140.3"/>
</g>
<!-- Environment::appconfig&#45;feature&#45;flag&#45;sam::dev -->
<g id="node10" class="node">
<title>Environment::appconfig&#45;feature&#45;flag&#45;sam::dev</title>
<polygon fill="#e5e5e5" stroke="#dddddd" points="967.5,-241 714.5,-241 714.5,-183 967.5,-183 967.5,-241"/>
<text text-anchor="start" x="727" y="-221.2" font-family="Helvetica,sans-Serif" font-weight="bold" font-size="16.00" fill="#707070">AppConfig::Environment</text>
<text text-anchor="start" x="727" y="-196.2" font-family="Helvetica,sans-Serif" font-size="16.00" fill="#383838">appconfig&#45;feature&#45;flag&#45;sam::dev</text>
</g>
<!-- Deployment::appconfig&#45;feature&#45;flag&#45;sam::dev&#45;&gt;Environment::appconfig&#45;feature&#45;flag&#45;sam::dev -->
<g id="edge11" class="edge">
<title>Deployment::appconfig&#45;feature&#45;flag&#45;sam::dev&#45;&gt;Environment::appconfig&#45;feature&#45;flag&#45;sam::dev</title>
<path fill="none" stroke="#707070" d="M198.97,-187.16C230.13,-204.54 272.48,-224.94 313,-234 443.64,-263.2 596.93,-251.88 704.4,-236.79"/>
<polygon fill="#707070" stroke="#707070" points="704.92,-240.25 714.33,-235.37 703.93,-233.32 704.92,-240.25"/>
</g>
<!-- HostedConfigurationVersion::appconfig&#45;feature&#45;flag&#45;sam::TestConfig -->
<g id="node11" class="node">
<title>HostedConfigurationVersion::appconfig&#45;feature&#45;flag&#45;sam::TestConfig</title>
<polygon fill="#e5e5e5" stroke="#dddddd" points="645,-225 313,-225 313,-167 645,-167 645,-225"/>
<text text-anchor="start" x="325" y="-205.2" font-family="Helvetica,sans-Serif" font-weight="bold" font-size="16.00" fill="#707070">AppConfig::HostedConfigurationVersion</text>
<text text-anchor="start" x="325" y="-180.2" font-family="Helvetica,sans-Serif" font-size="16.00" fill="#383838">appconfig&#45;feature&#45;flag&#45;sam::Test...</text>
</g>
<!-- Deployment::appconfig&#45;feature&#45;flag&#45;sam::dev&#45;&gt;HostedConfigurationVersion::appconfig&#45;feature&#45;flag&#45;sam::TestConfig -->
<g id="edge12" class="edge">
<title>Deployment::appconfig&#45;feature&#45;flag&#45;sam::dev&#45;&gt;HostedConfigurationVersion::appconfig&#45;feature&#45;flag&#45;sam::TestConfig</title>
<path fill="none" stroke="#707070" d="M277.27,-172.64C285.66,-173.61 294.19,-174.61 302.77,-175.61"/>
<polygon fill="#707070" stroke="#707070" points="302.51,-179.1 312.85,-176.78 303.32,-172.15 302.51,-179.1"/>
</g>
<!-- Environment::appconfig&#45;feature&#45;flag&#45;sam::dev&#45;&gt;Application::appconfig&#45;feature&#45;flag&#45;sam -->
<g id="edge13" class="edge">
<title>Environment::appconfig&#45;feature&#45;flag&#45;sam::dev&#45;&gt;Application::appconfig&#45;feature&#45;flag&#45;sam</title>
<path fill="none" stroke="#707070" d="M967.64,-198.28C1001.51,-194.58 1038.04,-190.59 1071.52,-186.94"/>
<polygon fill="#707070" stroke="#707070" points="1072.24,-190.38 1081.8,-185.82 1071.48,-183.42 1072.24,-190.38"/>
</g>
<!-- HostedConfigurationVersion::appconfig&#45;feature&#45;flag&#45;sam::TestConfig&#45;&gt;ConfigurationProfile::appconfig&#45;feature&#45;flag&#45;sam::TestConfig -->
<g id="edge14" class="edge">
<title>HostedConfigurationVersion::appconfig&#45;feature&#45;flag&#45;sam::TestConfig&#45;&gt;ConfigurationProfile::appconfig&#45;feature&#45;flag&#45;sam::TestConfig</title>
<path fill="none" stroke="#707070" d="M645.25,-168.46C661.93,-165.68 678.79,-162.87 695.24,-160.13"/>
<polygon fill="#707070" stroke="#707070" points="696.13,-163.53 705.42,-158.43 694.98,-156.62 696.13,-163.53"/>
</g>
<!-- Role::sam&#45;app&#45;SAMConfigFunctionRole&#45;1NSH6HM6R15FV -->
<g id="node12" class="node">
<title>Role::sam&#45;app&#45;SAMConfigFunctionRole&#45;1NSH6HM6R15FV</title>
<polygon fill="#e5e5e5" stroke="#dddddd" points="1345,-317 1037,-317 1037,-259 1345,-259 1345,-317"/>
<text text-anchor="start" x="1049" y="-297.2" font-family="Helvetica,sans-Serif" font-weight="bold" font-size="16.00" fill="#707070">IAM::Role</text>
<text text-anchor="start" x="1049" y="-272.2" font-family="Helvetica,sans-Serif" font-size="16.00" fill="#383838">sam&#45;app&#45;SAMConfigFunctionRole&#45;1N...</text>
</g>
<!-- Function::sam&#45;app&#45;SAMConfigFunction&#45;QTjGGM76Kd6u&#45;&gt;Role::sam&#45;app&#45;SAMConfigFunctionRole&#45;1NSH6HM6R15FV -->
<g id="edge15" class="edge">
<title>Function::sam&#45;app&#45;SAMConfigFunction&#45;QTjGGM76Kd6u&#45;&gt;Role::sam&#45;app&#45;SAMConfigFunctionRole&#45;1NSH6HM6R15FV</title>
<path fill="none" stroke="#707070" d="M1001.23,-288C1009.79,-288 1018.39,-288 1026.96,-288"/>
<polygon fill="#707070" stroke="#707070" points="1026.99,-291.5 1036.99,-288 1026.99,-284.5 1026.99,-291.5"/>
</g>
</g>
</svg>
