<?xml version="1.0" encoding="UTF-8" standalone="no"?><svg xmlns="http://www.w3.org/2000/svg" xmlns:xlink="http://www.w3.org/1999/xlink" contentStyleType="text/css" height="850px" preserveAspectRatio="none" style="width:603px;height:850px;background:#FFFFFF;" version="1.1" viewBox="0 0 603 850" width="603px" zoomAndPan="magnify"><defs/><g><rect height="26.4883" style="stroke:#00000000;stroke-width:1.0;fill:none;" width="376" x="87" y="15"/><text fill="#000000" font-family="sans-serif" font-size="14" font-weight="bold" lengthAdjust="spacing" textLength="366" x="92" y="33.5352">Resources for project appconfig-feature-flag-sam</text><rect fill="#F1F1F1" height="36.4883" rx="12.5" ry="12.5" style="stroke:#181818;stroke-width:1.5;" width="52" x="10" y="424.6621"/><text fill="#000000" font-family="sans-serif" font-size="14" lengthAdjust="spacing" textLength="32" x="20" y="448.1973">Infra</text><rect fill="#F1F1F1" height="36.4883" rx="12.5" ry="12.5" style="stroke:#181818;stroke-width:1.5;" width="46" x="112" y="424.6621"/><text fill="#000000" font-family="sans-serif" font-size="14" lengthAdjust="spacing" textLength="26" x="122" y="448.1973">aws</text><rect fill="#F1F1F1" height="36.4883" rx="12.5" ry="12.5" style="stroke:#181818;stroke-width:1.5;" width="118" x="208" y="170.4648"/><text fill="#000000" font-family="sans-serif" font-size="14" lengthAdjust="spacing" textLength="98" x="218" y="194">ApiGatewayV2</text><rect fill="#F1F1F1" height="36.4883" rx="12.5" ry="12.5" style="stroke:#181818;stroke-width:1.5;" width="66" x="376" y="57.4883"/><text fill="#000000" font-family="sans-serif" font-size="14" lengthAdjust="spacing" textLength="46" x="386" y="81.0234">Api (1)</text><path d="M326,188.709 L336,188.709 C351,188.709 351,75.7324 366,75.7324 L376,75.7324 " fill="none" style="stroke:#181818;stroke-width:1.0;"/><rect fill="#F1F1F1" height="36.4883" rx="12.5" ry="12.5" style="stroke:#181818;stroke-width:1.5;" width="125" x="376" y="113.9766"/><text fill="#000000" font-family="sans-serif" font-size="14" lengthAdjust="spacing" textLength="105" x="386" y="137.5117">Deployment (1)</text><path d="M326,188.709 L336,188.709 C351,188.709 351,132.2207 366,132.2207 L376,132.2207 " fill="none" style="stroke:#181818;stroke-width:1.0;"/><rect fill="#F1F1F1" height="36.4883" rx="12.5" ry="12.5" style="stroke:#181818;stroke-width:1.5;" width="119" x="376" y="170.4648"/><text fill="#000000" font-family="sans-serif" font-size="14" lengthAdjust="spacing" textLength="99" x="386" y="194">Integration (1)</text><path d="M326,188.709 L336,188.709 C351,188.709 351,188.709 366,188.709 L376,188.709 " fill="none" style="stroke:#181818;stroke-width:1.0;"/><rect fill="#F1F1F1" height="36.4883" rx="12.5" ry="12.5" style="stroke:#181818;stroke-width:1.5;" width="83" x="376" y="226.9531"/><text fill="#000000" font-family="sans-serif" font-size="14" lengthAdjust="spacing" textLength="63" x="386" y="250.4883">Route (1)</text><path d="M326,188.709 L336,188.709 C351,188.709 351,245.1973 366,245.1973 L376,245.1973 " fill="none" style="stroke:#181818;stroke-width:1.0;"/><rect fill="#F1F1F1" height="36.4883" rx="12.5" ry="12.5" style="stroke:#181818;stroke-width:1.5;" width="81" x="376" y="283.4414"/><text fill="#000000" font-family="sans-serif" font-size="14" lengthAdjust="spacing" textLength="61" x="386" y="306.9766">Stage (1)</text><path d="M326,188.709 L336,188.709 C351,188.709 351,301.6855 366,301.6855 L376,301.6855 " fill="none" style="stroke:#181818;stroke-width:1.0;"/><path d="M158,442.9063 L168,442.9063 C183,442.9063 183,188.709 198,188.709 L208,188.709 " fill="none" style="stroke:#181818;stroke-width:1.0;"/><rect fill="#F1F1F1" height="36.4883" rx="12.5" ry="12.5" style="stroke:#181818;stroke-width:1.5;" width="94" x="208" y="481.1504"/><text fill="#000000" font-family="sans-serif" font-size="14" lengthAdjust="spacing" textLength="74" x="218" y="504.6855">AppConfig</text><rect fill="#F1F1F1" height="36.4883" rx="12.5" ry="12.5" style="stroke:#181818;stroke-width:1.5;" width="121" x="352" y="339.9297"/><text fill="#000000" font-family="sans-serif" font-size="14" lengthAdjust="spacing" textLength="101" x="362" y="363.4648">Application (1)</text><path d="M302,499.3945 L312,499.3945 C327,499.3945 327,358.1738 342,358.1738 L352,358.1738 " fill="none" style="stroke:#181818;stroke-width:1.0;"/><rect fill="#F1F1F1" height="36.4883" rx="12.5" ry="12.5" style="stroke:#181818;stroke-width:1.5;" width="183" x="352" y="396.418"/><text fill="#000000" font-family="sans-serif" font-size="14" lengthAdjust="spacing" textLength="163" x="362" y="419.9531">ConfigurationProfile (1)</text><path d="M302,499.3945 L312,499.3945 C327,499.3945 327,414.6621 342,414.6621 L352,414.6621 " fill="none" style="stroke:#181818;stroke-width:1.0;"/><rect fill="#F1F1F1" height="36.4883" rx="12.5" ry="12.5" style="stroke:#181818;stroke-width:1.5;" width="125" x="352" y="452.9063"/><text fill="#000000" font-family="sans-serif" font-size="14" lengthAdjust="spacing" textLength="105" x="362" y="476.4414">Deployment (1)</text><path d="M302,499.3945 L312,499.3945 C327,499.3945 327,471.1504 342,471.1504 L352,471.1504 " fill="none" style="stroke:#181818;stroke-width:1.0;"/><rect fill="#F1F1F1" height="36.4883" rx="12.5" ry="12.5" style="stroke:#181818;stroke-width:1.5;" width="181" x="352" y="509.3945"/><text fill="#000000" font-family="sans-serif" font-size="14" lengthAdjust="spacing" textLength="161" x="362" y="532.9297">DeploymentStrategy (1)</text><path d="M302,499.3945 L312,499.3945 C327,499.3945 327,527.6387 342,527.6387 L352,527.6387 " fill="none" style="stroke:#181818;stroke-width:1.0;"/><rect fill="#F1F1F1" height="36.4883" rx="12.5" ry="12.5" style="stroke:#181818;stroke-width:1.5;" width="130" x="352" y="565.8828"/><text fill="#000000" font-family="sans-serif" font-size="14" lengthAdjust="spacing" textLength="110" x="362" y="589.418">Environment (1)</text><path d="M302,499.3945 L312,499.3945 C327,499.3945 327,584.127 342,584.127 L352,584.127 " fill="none" style="stroke:#181818;stroke-width:1.0;"/><rect fill="#F1F1F1" height="36.4883" rx="12.5" ry="12.5" style="stroke:#181818;stroke-width:1.5;" width="239" x="352" y="622.3711"/><text fill="#000000" font-family="sans-serif" font-size="14" lengthAdjust="spacing" textLength="219" x="362" y="645.9063">HostedConfigurationVersion (1)</text><path d="M302,499.3945 L312,499.3945 C327,499.3945 327,640.6152 342,640.6152 L352,640.6152 " fill="none" style="stroke:#181818;stroke-width:1.0;"/><path d="M158,442.9063 L168,442.9063 C183,442.9063 183,499.3945 198,499.3945 L208,499.3945 " fill="none" style="stroke:#181818;stroke-width:1.0;"/><rect fill="#F1F1F1" height="36.4883" rx="12.5" ry="12.5" style="stroke:#181818;stroke-width:1.5;" width="46" x="208" y="678.8594"/><text fill="#000000" font-family="sans-serif" font-size="14" lengthAdjust="spacing" textLength="26" x="218" y="702.3945">IAM</text><rect fill="#F1F1F1" height="36.4883" rx="12.5" ry="12.5" style="stroke:#181818;stroke-width:1.5;" width="73" x="304" y="678.8594"/><text fill="#000000" font-family="sans-serif" font-size="14" lengthAdjust="spacing" textLength="53" x="314" y="702.3945">Role (1)</text><path d="M254,697.1035 L264,697.1035 C279,697.1035 279,697.1035 294,697.1035 L304,697.1035 " fill="none" style="stroke:#181818;stroke-width:1.0;"/><path d="M158,442.9063 L168,442.9063 C183,442.9063 183,697.1035 198,697.1035 L208,697.1035 " fill="none" style="stroke:#181818;stroke-width:1.0;"/><rect fill="#F1F1F1" height="36.4883" rx="12.5" ry="12.5" style="stroke:#181818;stroke-width:1.5;" width="74" x="208" y="763.5918"/><text fill="#000000" font-family="sans-serif" font-size="14" lengthAdjust="spacing" textLength="54" x="218" y="787.127">Lambda</text><rect fill="#F1F1F1" height="36.4883" rx="12.5" ry="12.5" style="stroke:#181818;stroke-width:1.5;" width="103" x="332" y="735.3477"/><text fill="#000000" font-family="sans-serif" font-size="14" lengthAdjust="spacing" textLength="83" x="342" y="758.8828">Function (1)</text><path d="M282,781.8359 L292,781.8359 C307,781.8359 307,753.5918 322,753.5918 L332,753.5918 " fill="none" style="stroke:#181818;stroke-width:1.0;"/><rect fill="#F1F1F1" height="36.4883" rx="12.5" ry="12.5" style="stroke:#181818;stroke-width:1.5;" width="118" x="332" y="791.8359"/><text fill="#000000" font-family="sans-serif" font-size="14" lengthAdjust="spacing" textLength="98" x="342" y="815.3711">Permission (1)</text><path d="M282,781.8359 L292,781.8359 C307,781.8359 307,810.0801 322,810.0801 L332,810.0801 " fill="none" style="stroke:#181818;stroke-width:1.0;"/><path d="M158,442.9063 L168,442.9063 C183,442.9063 183,781.8359 198,781.8359 L208,781.8359 " fill="none" style="stroke:#181818;stroke-width:1.0;"/><path d="M62,442.9063 L72,442.9063 C87,442.9063 87,442.9063 102,442.9063 L112,442.9063 " fill="none" style="stroke:#181818;stroke-width:1.0;"/><!--MD5=[493394ef99789829487ab9bcf88fa660]
@startmindmap
title Resources for project appconfig-feature-flag-sam
skinparam monochrome true
+ Infra
++ aws
+++ ApiGatewayV2
++++ Api (1)
++++ Deployment (1)
++++ Integration (1)
++++ Route (1)
++++ Stage (1)
+++ AppConfig
++++ Application (1)
++++ ConfigurationProfile (1)
++++ Deployment (1)
++++ DeploymentStrategy (1)
++++ Environment (1)
++++ HostedConfigurationVersion (1)
+++ IAM
++++ Role (1)
+++ Lambda
++++ Function (1)
++++ Permission (1)
@endmindmap

PlantUML version 1.2022.6(Tue Jun 21 12:34:49 COT 2022)
(GPL source distribution)
Java Runtime: Java(TM) SE Runtime Environment
JVM: Java HotSpot(TM) 64-Bit Server VM
Default Encoding: UTF-8
Language: en
Country: GB
--></g></svg>