<?xml version="1.0" encoding="UTF-8" standalone="no"?>
<!DOCTYPE svg PUBLIC "-//W3C//DTD SVG 1.1//EN"
 "http://www.w3.org/Graphics/SVG/1.1/DTD/svg11.dtd">
<!-- Generated by graphviz version 7.1.0 (20230121.1956)
 -->
<!-- Title: graphname Pages: 1 -->
<svg width="854pt" height="389pt"
 viewBox="0.00 0.00 854.00 389.00" xmlns="http://www.w3.org/2000/svg" xmlns:xlink="http://www.w3.org/1999/xlink">
<g id="graph0" class="graph" transform="scale(1 1) rotate(0) translate(4 385)">
<title>graphname</title>
<polygon fill="#fafafa" stroke="none" points="-4,4 -4,-385 850,-385 850,4 -4,4"/>
<text text-anchor="start" x="228" y="-356.4" font-family="Helvetica,sans-Serif" font-weight="bold" font-size="22.00" fill="#383838">Project lambda&#45;layer&#45;ssm&#45;parameters</text>
<text text-anchor="start" x="419.5" y="-340.8" font-family="Helvetica,sans-Serif" font-size="14.00"> &#160;</text>
<text text-anchor="start" x="228" y="-319.2" font-family="Helvetica,sans-Serif" font-weight="bold" font-size="16.00" fill="#707070">Target Diagram</text>
<g id="clust1" class="cluster">
<title>cluster_aws</title>
<polygon fill="#f5f5f5" stroke="#f5f5f5" points="8,-8 8,-297 838,-297 838,-8 8,-8"/>
<text text-anchor="start" x="361" y="-23" font-family="Helvetica,sans-Serif" font-weight="bold" font-size="20.00" fill="#707070">Provider aws</text>
</g>
<g id="clust2" class="cluster">
<title>cluster_aws_</title>
<polygon fill="#eeeeee" stroke="#eeeeee" points="16,-54 16,-289 830,-289 830,-54 16,-54"/>
<text text-anchor="start" x="422.86" y="-58.3" font-family="Helvetica,sans-Serif" font-size="1.00" fill="#383838"> </text>
</g>
<!-- Role::sam&#45;app&#45;Function&#45;1HSHFH3X2M7AK&#45;FunctionRole&#45;FASUSIX3EN4 -->
<g id="node1" class="node">
<title>Role::sam&#45;app&#45;Function&#45;1HSHFH3X2M7AK&#45;FunctionRole&#45;FASUSIX3EN4</title>
<polygon fill="#e5e5e5" stroke="#dddddd" points="822,-205 500,-205 500,-147 822,-147 822,-205"/>
<text text-anchor="start" x="512" y="-185.2" font-family="Helvetica,sans-Serif" font-weight="bold" font-size="16.00" fill="#707070">IAM::Role</text>
<text text-anchor="start" x="512" y="-160.2" font-family="Helvetica,sans-Serif" font-size="16.00" fill="#383838">sam&#45;app&#45;Function&#45;1HSHFH3X2M7AK&#45;F...</text>
</g>
<!-- Function::config&#45;example&#45;function -->
<g id="node2" class="node">
<title>Function::config&#45;example&#45;function</title>
<polygon fill="#e5e5e5" stroke="#dddddd" points="464,-281 267,-281 267,-223 464,-223 464,-281"/>
<text text-anchor="start" x="279.5" y="-261.2" font-family="Helvetica,sans-Serif" font-weight="bold" font-size="16.00" fill="#707070">Lambda::Function</text>
<text text-anchor="start" x="279.5" y="-236.2" font-family="Helvetica,sans-Serif" font-size="16.00" fill="#383838">config&#45;example&#45;function</text>
</g>
<!-- Function::config&#45;example&#45;function&#45;&gt;Role::sam&#45;app&#45;Function&#45;1HSHFH3X2M7AK&#45;FunctionRole&#45;FASUSIX3EN4 -->
<g id="edge2" class="edge">
<title>Function::config&#45;example&#45;function&#45;&gt;Role::sam&#45;app&#45;Function&#45;1HSHFH3X2M7AK&#45;FunctionRole&#45;FASUSIX3EN4</title>
<path fill="none" stroke="#707070" d="M464.43,-223.59C476.39,-220.28 488.46,-217.01 500,-214 507.42,-212.06 515.04,-210.12 522.74,-208.18"/>
<polygon fill="#707070" stroke="#707070" points="523.34,-211.64 532.2,-205.82 521.65,-204.85 523.34,-211.64"/>
</g>
<!-- Layer::config&#45;example&#45;layer -->
<g id="node3" class="node">
<title>Layer::config&#45;example&#45;layer</title>
<polygon fill="#e5e5e5" stroke="#dddddd" points="748.5,-281 573.5,-281 573.5,-223 748.5,-223 748.5,-281"/>
<text text-anchor="start" x="586" y="-261.2" font-family="Helvetica,sans-Serif" font-weight="bold" font-size="16.00" fill="#707070">Lambda::Layer</text>
<text text-anchor="start" x="586" y="-236.2" font-family="Helvetica,sans-Serif" font-size="16.00" fill="#383838">config&#45;example&#45;layer</text>
</g>
<!-- Function::config&#45;example&#45;function&#45;&gt;Layer::config&#45;example&#45;layer -->
<g id="edge1" class="edge">
<title>Function::config&#45;example&#45;function&#45;&gt;Layer::config&#45;example&#45;layer</title>
<path fill="none" stroke="#707070" d="M464.23,-252C495.57,-252 530.27,-252 561.66,-252"/>
<polygon fill="#707070" stroke="#707070" points="561.54,-255.5 571.54,-252 561.54,-248.5 561.54,-255.5"/>
</g>
<!-- Permission::config&#45;example&#45;function -->
<g id="node4" class="node">
<title>Permission::config&#45;example&#45;function</title>
<polygon fill="#e5e5e5" stroke="#dddddd" points="226,-281 29,-281 29,-223 226,-223 226,-281"/>
<text text-anchor="start" x="41.5" y="-261.2" font-family="Helvetica,sans-Serif" font-weight="bold" font-size="16.00" fill="#707070">Lambda::Permission</text>
<text text-anchor="start" x="41.5" y="-236.2" font-family="Helvetica,sans-Serif" font-size="16.00" fill="#383838">config&#45;example&#45;function</text>
</g>
<!-- Permission::config&#45;example&#45;function&#45;&gt;Function::config&#45;example&#45;function -->
<g id="edge3" class="edge">
<title>Permission::config&#45;example&#45;function&#45;&gt;Function::config&#45;example&#45;function</title>
<path fill="none" stroke="#707070" d="M226.19,-252C235.85,-252 245.7,-252 255.47,-252"/>
<polygon fill="#707070" stroke="#707070" points="255.37,-255.5 265.37,-252 255.37,-248.5 255.37,-255.5"/>
</g>
<!-- Parameter::/Config/Parameter1Name -->
<g id="node5" class="node">
<title>Parameter::/Config/Parameter1Name</title>
<polygon fill="#e5e5e5" stroke="#dddddd" points="231,-205 24,-205 24,-147 231,-147 231,-205"/>
<text text-anchor="start" x="36.5" y="-185.2" font-family="Helvetica,sans-Serif" font-weight="bold" font-size="16.00" fill="#707070">SSM::Parameter</text>
<text text-anchor="start" x="36.5" y="-160.2" font-family="Helvetica,sans-Serif" font-size="16.00" fill="#383838">/Config/Parameter1Name</text>
</g>
<!-- Parameter::/Config/Parameter2Name -->
<g id="node6" class="node">
<title>Parameter::/Config/Parameter2Name</title>
<polygon fill="#e5e5e5" stroke="#dddddd" points="231,-129 24,-129 24,-71 231,-71 231,-129"/>
<text text-anchor="start" x="36.5" y="-109.2" font-family="Helvetica,sans-Serif" font-weight="bold" font-size="16.00" fill="#707070">SSM::Parameter</text>
<text text-anchor="start" x="36.5" y="-84.2" font-family="Helvetica,sans-Serif" font-size="16.00" fill="#383838">/Config/Parameter2Name</text>
</g>
</g>
</svg>
