<?xml version="1.0" encoding="UTF-8" standalone="no"?>
<!DOCTYPE svg PUBLIC "-//W3C//DTD SVG 1.1//EN"
 "http://www.w3.org/Graphics/SVG/1.1/DTD/svg11.dtd">
<!-- Generated by graphviz version 7.1.0 (20230121.1956)
 -->
<!-- Title: graphname Pages: 1 -->
<svg width="260pt" height="237pt"
 viewBox="0.00 0.00 260.00 237.00" xmlns="http://www.w3.org/2000/svg" xmlns:xlink="http://www.w3.org/1999/xlink">
<g id="graph0" class="graph" transform="scale(1 1) rotate(0) translate(4 233)">
<title>graphname</title>
<polygon fill="#fafafa" stroke="none" points="-4,4 -4,-233 256,-233 256,4 -4,4"/>
<text text-anchor="start" x="12" y="-204.4" font-family="Helvetica,sans-Serif" font-weight="bold" font-size="22.00" fill="#383838">Project cloud9&#45;simple</text>
<text text-anchor="start" x="122" y="-188.8" font-family="Helvetica,sans-Serif" font-size="14.00"> &#160;</text>
<text text-anchor="start" x="12" y="-167.2" font-family="Helvetica,sans-Serif" font-weight="bold" font-size="16.00" fill="#707070">Target Diagram</text>
<g id="clust1" class="cluster">
<title>cluster_aws</title>
<polygon fill="#f5f5f5" stroke="#f5f5f5" points="16.5,-8 16.5,-145 235.5,-145 235.5,-8 16.5,-8"/>
<text text-anchor="start" x="64" y="-23" font-family="Helvetica,sans-Serif" font-weight="bold" font-size="20.00" fill="#707070">Provider aws</text>
</g>
<g id="clust2" class="cluster">
<title>cluster_aws_</title>
<polygon fill="#eeeeee" stroke="#eeeeee" points="24.5,-54 24.5,-137 227.5,-137 227.5,-54 24.5,-54"/>
<text text-anchor="start" x="125.86" y="-58.3" font-family="Helvetica,sans-Serif" font-size="1.00" fill="#383838"> </text>
</g>
<!-- Environment::my&#45;env -->
<g id="node1" class="node">
<title>Environment::my&#45;env</title>
<polygon fill="#e5e5e5" stroke="#dddddd" points="219.5,-129 32.5,-129 32.5,-71 219.5,-71 219.5,-129"/>
<text text-anchor="start" x="45" y="-109.2" font-family="Helvetica,sans-Serif" font-weight="bold" font-size="16.00" fill="#707070">Cloud9::Environment</text>
<text text-anchor="start" x="45" y="-84.2" font-family="Helvetica,sans-Serif" font-size="16.00" fill="#383838">my&#45;env</text>
</g>
</g>
</svg>
