<?xml version="1.0" encoding="UTF-8" standalone="no"?>
<!DOCTYPE svg PUBLIC "-//W3C//DTD SVG 1.1//EN"
 "http://www.w3.org/Graphics/SVG/1.1/DTD/svg11.dtd">
<!-- Generated by graphviz version 7.1.0 (20230121.1956)
 -->
<!-- Title: graphname Pages: 1 -->
<svg width="1077pt" height="505pt"
 viewBox="0.00 0.00 1077.00 505.00" xmlns="http://www.w3.org/2000/svg" xmlns:xlink="http://www.w3.org/1999/xlink">
<g id="graph0" class="graph" transform="scale(1 1) rotate(0) translate(4 501)">
<title>graphname</title>
<polygon fill="#fafafa" stroke="none" points="-4,4 -4,-501 1073,-501 1073,4 -4,4"/>
<text text-anchor="start" x="353.5" y="-472.4" font-family="Helvetica,sans-Serif" font-weight="bold" font-size="22.00" fill="#383838">Project apigw&#45;http&#45;api&#45;eventbridge</text>
<text text-anchor="start" x="531" y="-456.8" font-family="Helvetica,sans-Serif" font-size="14.00"> &#160;</text>
<text text-anchor="start" x="353.5" y="-435.2" font-family="Helvetica,sans-Serif" font-weight="bold" font-size="16.00" fill="#707070">Target Diagram</text>
<g id="clust1" class="cluster">
<title>cluster_aws</title>
<polygon fill="#f5f5f5" stroke="#f5f5f5" points="8,-8 8,-413 1061,-413 1061,-8 8,-8"/>
<text text-anchor="start" x="472.5" y="-23" font-family="Helvetica,sans-Serif" font-weight="bold" font-size="20.00" fill="#707070">Provider aws</text>
</g>
<g id="clust2" class="cluster">
<title>cluster_aws_</title>
<polygon fill="#eeeeee" stroke="#eeeeee" points="16,-54 16,-405 1053,-405 1053,-54 16,-54"/>
<text text-anchor="start" x="534.36" y="-58.3" font-family="Helvetica,sans-Serif" font-size="1.00" fill="#383838"> </text>
</g>
<!-- Api::API Gateway HTTP API to EventBridge -->
<g id="node1" class="node">
<title>Api::API Gateway HTTP API to EventBridge</title>
<polygon fill="#e5e5e5" stroke="#dddddd" points="1025.5,-353 735.5,-353 735.5,-295 1025.5,-295 1025.5,-353"/>
<text text-anchor="start" x="747.5" y="-333.2" font-family="Helvetica,sans-Serif" font-weight="bold" font-size="16.00" fill="#707070">ApiGatewayV2::Api</text>
<text text-anchor="start" x="747.5" y="-308.2" font-family="Helvetica,sans-Serif" font-size="16.00" fill="#383838">API Gateway HTTP API to EventBri...</text>
</g>
<!-- Deployment::deployment::API Gateway HTTP API to EventBridge -->
<g id="node2" class="node">
<title>Deployment::deployment::API Gateway HTTP API to EventBridge</title>
<polygon fill="#e5e5e5" stroke="#dddddd" points="324,-387 24,-387 24,-329 324,-329 324,-387"/>
<text text-anchor="start" x="36" y="-367.2" font-family="Helvetica,sans-Serif" font-weight="bold" font-size="16.00" fill="#707070">ApiGatewayV2::Deployment</text>
<text text-anchor="start" x="36" y="-342.2" font-family="Helvetica,sans-Serif" font-size="16.00" fill="#383838">deployment::API Gateway HTTP API...</text>
</g>
<!-- Deployment::deployment::API Gateway HTTP API to EventBridge&#45;&gt;Api::API Gateway HTTP API to EventBridge -->
<g id="edge1" class="edge">
<title>Deployment::deployment::API Gateway HTTP API to EventBridge&#45;&gt;Api::API Gateway HTTP API to EventBridge</title>
<path fill="none" stroke="#707070" d="M324.48,-333.57C336.48,-332.16 348.42,-330.94 360,-330 481.86,-320.12 620.31,-319.02 723.62,-320.17"/>
<polygon fill="#707070" stroke="#707070" points="723.54,-323.67 733.58,-320.29 723.62,-316.67 723.54,-323.67"/>
</g>
<!-- Stage::API Gateway HTTP API to EventBridge::$default -->
<g id="node5" class="node">
<title>Stage::API Gateway HTTP API to EventBridge::$default</title>
<polygon fill="#e5e5e5" stroke="#dddddd" points="665,-397 375,-397 375,-339 665,-339 665,-397"/>
<text text-anchor="start" x="387" y="-377.2" font-family="Helvetica,sans-Serif" font-weight="bold" font-size="16.00" fill="#707070">ApiGatewayV2::Stage</text>
<text text-anchor="start" x="387" y="-352.2" font-family="Helvetica,sans-Serif" font-size="16.00" fill="#383838">API Gateway HTTP API to EventBri...</text>
</g>
<!-- Deployment::deployment::API Gateway HTTP API to EventBridge&#45;&gt;Stage::API Gateway HTTP API to EventBridge::$default -->
<g id="edge2" class="edge">
<title>Deployment::deployment::API Gateway HTTP API to EventBridge&#45;&gt;Stage::API Gateway HTTP API to EventBridge::$default</title>
<path fill="none" stroke="#707070" d="M324.38,-362.34C337.28,-362.72 350.36,-363.1 363.31,-363.47"/>
<polygon fill="#707070" stroke="#707070" points="363.04,-366.97 373.14,-363.76 363.24,-359.97 363.04,-366.97"/>
</g>
<!-- Integration::integration::API Gateway HTTP API to EventBridge::eventBusDefault -->
<g id="node3" class="node">
<title>Integration::integration::API Gateway HTTP API to EventBridge::eventBusDefault</title>
<polygon fill="#e5e5e5" stroke="#dddddd" points="663,-281 377,-281 377,-223 663,-223 663,-281"/>
<text text-anchor="start" x="389" y="-261.2" font-family="Helvetica,sans-Serif" font-weight="bold" font-size="16.00" fill="#707070">ApiGatewayV2::Integration</text>
<text text-anchor="start" x="389" y="-236.2" font-family="Helvetica,sans-Serif" font-size="16.00" fill="#383838">integration::API Gateway HTTP AP...</text>
</g>
<!-- Integration::integration::API Gateway HTTP API to EventBridge::eventBusDefault&#45;&gt;Api::API Gateway HTTP API to EventBridge -->
<g id="edge3" class="edge">
<title>Integration::integration::API Gateway HTTP API to EventBridge::eventBusDefault&#45;&gt;Api::API Gateway HTTP API to EventBridge</title>
<path fill="none" stroke="#707070" d="M663.46,-280.61C683.33,-284.6 703.82,-288.72 723.91,-292.75"/>
<polygon fill="#707070" stroke="#707070" points="723.05,-296.15 733.54,-294.69 724.42,-289.29 723.05,-296.15"/>
</g>
<!-- Role::sam&#45;app&#45;MyHttpApiRole&#45;KV1DOMSBSRDO -->
<g id="node8" class="node">
<title>Role::sam&#45;app&#45;MyHttpApiRole&#45;KV1DOMSBSRDO</title>
<polygon fill="#e5e5e5" stroke="#dddddd" points="1045,-277 716,-277 716,-219 1045,-219 1045,-277"/>
<text text-anchor="start" x="728.5" y="-257.2" font-family="Helvetica,sans-Serif" font-weight="bold" font-size="16.00" fill="#707070">IAM::Role</text>
<text text-anchor="start" x="728.5" y="-232.2" font-family="Helvetica,sans-Serif" font-size="16.00" fill="#383838">sam&#45;app&#45;MyHttpApiRole&#45;KV1DOMSBSR...</text>
</g>
<!-- Integration::integration::API Gateway HTTP API to EventBridge::eventBusDefault&#45;&gt;Role::sam&#45;app&#45;MyHttpApiRole&#45;KV1DOMSBSRDO -->
<g id="edge4" class="edge">
<title>Integration::integration::API Gateway HTTP API to EventBridge::eventBusDefault&#45;&gt;Role::sam&#45;app&#45;MyHttpApiRole&#45;KV1DOMSBSRDO</title>
<path fill="none" stroke="#707070" d="M663.46,-250.41C676.89,-250.26 690.61,-250.11 704.3,-249.95"/>
<polygon fill="#707070" stroke="#707070" points="704.31,-253.45 714.27,-249.84 704.23,-246.46 704.31,-253.45"/>
</g>
<!-- Route::route::API Gateway HTTP API to EventBridge::POST / -->
<g id="node4" class="node">
<title>Route::route::API Gateway HTTP API to EventBridge::POST /</title>
<polygon fill="#e5e5e5" stroke="#dddddd" points="317,-291 31,-291 31,-233 317,-233 317,-291"/>
<text text-anchor="start" x="43" y="-271.2" font-family="Helvetica,sans-Serif" font-weight="bold" font-size="16.00" fill="#707070">ApiGatewayV2::Route</text>
<text text-anchor="start" x="43" y="-246.2" font-family="Helvetica,sans-Serif" font-size="16.00" fill="#383838">route::API Gateway HTTP API to E...</text>
</g>
<!-- Route::route::API Gateway HTTP API to EventBridge::POST /&#45;&gt;Api::API Gateway HTTP API to EventBridge -->
<g id="edge5" class="edge">
<title>Route::route::API Gateway HTTP API to EventBridge::POST /&#45;&gt;Api::API Gateway HTTP API to EventBridge</title>
<path fill="none" stroke="#707070" d="M317.25,-284.77C331.67,-286.71 346.11,-288.5 360,-290 481.8,-303.18 620.26,-311.93 723.59,-317.25"/>
<polygon fill="#707070" stroke="#707070" points="723.38,-320.75 733.54,-317.76 723.73,-313.76 723.38,-320.75"/>
</g>
<!-- Route::route::API Gateway HTTP API to EventBridge::POST /&#45;&gt;Integration::integration::API Gateway HTTP API to EventBridge::eventBusDefault -->
<g id="edge6" class="edge">
<title>Route::route::API Gateway HTTP API to EventBridge::POST /&#45;&gt;Integration::integration::API Gateway HTTP API to EventBridge::eventBusDefault</title>
<path fill="none" stroke="#707070" d="M317.4,-257.86C333.32,-257.4 349.59,-256.92 365.64,-256.46"/>
<polygon fill="#707070" stroke="#707070" points="365.3,-259.97 375.19,-256.18 365.1,-252.97 365.3,-259.97"/>
</g>
<!-- Stage::API Gateway HTTP API to EventBridge::$default&#45;&gt;Api::API Gateway HTTP API to EventBridge -->
<g id="edge7" class="edge">
<title>Stage::API Gateway HTTP API to EventBridge::$default&#45;&gt;Api::API Gateway HTTP API to EventBridge</title>
<path fill="none" stroke="#707070" d="M665.27,-350.29C684.54,-347.93 704.37,-345.49 723.83,-343.11"/>
<polygon fill="#707070" stroke="#707070" points="724.24,-346.58 733.74,-341.89 723.38,-339.63 724.24,-346.58"/>
</g>
<!-- Rule::sam&#45;app&#45;MyTriggeredLambdaEventBridgeTrigger&#45;1CZB0M0XR00UH -->
<g id="node6" class="node">
<title>Rule::sam&#45;app&#45;MyTriggeredLambdaEventBridgeTrigger&#45;1CZB0M0XR00UH</title>
<polygon fill="#e5e5e5" stroke="#dddddd" points="676,-129 364,-129 364,-71 676,-71 676,-129"/>
<text text-anchor="start" x="376" y="-109.2" font-family="Helvetica,sans-Serif" font-weight="bold" font-size="16.00" fill="#707070">CloudWatchEvents::Rule</text>
<text text-anchor="start" x="376" y="-84.2" font-family="Helvetica,sans-Serif" font-size="16.00" fill="#383838">sam&#45;app&#45;MyTriggeredLambdaEventBr...</text>
</g>
<!-- Target::target::sam&#45;app&#45;MyTriggeredLambdaEventBridgeTrigger&#45;1CZB0M0XR00UH::MyTriggeredLambdaEventBridgeTriggerLambdaTarget -->
<g id="node7" class="node">
<title>Target::target::sam&#45;app&#45;MyTriggeredLambdaEventBridgeTrigger&#45;1CZB0M0XR00UH::MyTriggeredLambdaEventBridgeTriggerLambdaTarget</title>
<polygon fill="#e5e5e5" stroke="#dddddd" points="322.5,-167 25.5,-167 25.5,-109 322.5,-109 322.5,-167"/>
<text text-anchor="start" x="38" y="-147.2" font-family="Helvetica,sans-Serif" font-weight="bold" font-size="16.00" fill="#707070">CloudWatchEvents::Target</text>
<text text-anchor="start" x="38" y="-122.2" font-family="Helvetica,sans-Serif" font-size="16.00" fill="#383838">target::sam&#45;app&#45;MyTriggeredLambd...</text>
</g>
<!-- Target::target::sam&#45;app&#45;MyTriggeredLambdaEventBridgeTrigger&#45;1CZB0M0XR00UH::MyTriggeredLambdaEventBridgeTriggerLambdaTarget&#45;&gt;Rule::sam&#45;app&#45;MyTriggeredLambdaEventBridgeTrigger&#45;1CZB0M0XR00UH -->
<g id="edge8" class="edge">
<title>Target::target::sam&#45;app&#45;MyTriggeredLambdaEventBridgeTrigger&#45;1CZB0M0XR00UH::MyTriggeredLambdaEventBridgeTriggerLambdaTarget&#45;&gt;Rule::sam&#45;app&#45;MyTriggeredLambdaEventBridgeTrigger&#45;1CZB0M0XR00UH</title>
<path fill="none" stroke="#707070" d="M322.88,-121.66C332.67,-120.58 342.57,-119.49 352.44,-118.4"/>
<polygon fill="#707070" stroke="#707070" points="352.51,-121.91 362.07,-117.34 351.75,-114.95 352.51,-121.91"/>
</g>
<!-- Function::sam&#45;app&#45;MyTriggeredLambda&#45;QtqMTZc89naA -->
<g id="node10" class="node">
<title>Function::sam&#45;app&#45;MyTriggeredLambda&#45;QtqMTZc89naA</title>
<polygon fill="#e5e5e5" stroke="#dddddd" points="680,-205 360,-205 360,-147 680,-147 680,-205"/>
<text text-anchor="start" x="372" y="-185.2" font-family="Helvetica,sans-Serif" font-weight="bold" font-size="16.00" fill="#707070">Lambda::Function</text>
<text text-anchor="start" x="372" y="-160.2" font-family="Helvetica,sans-Serif" font-size="16.00" fill="#383838">sam&#45;app&#45;MyTriggeredLambda&#45;QtqMTZ...</text>
</g>
<!-- Target::target::sam&#45;app&#45;MyTriggeredLambdaEventBridgeTrigger&#45;1CZB0M0XR00UH::MyTriggeredLambdaEventBridgeTriggerLambdaTarget&#45;&gt;Function::sam&#45;app&#45;MyTriggeredLambda&#45;QtqMTZc89naA -->
<g id="edge9" class="edge">
<title>Target::target::sam&#45;app&#45;MyTriggeredLambdaEventBridgeTrigger&#45;1CZB0M0XR00UH::MyTriggeredLambdaEventBridgeTriggerLambdaTarget&#45;&gt;Function::sam&#45;app&#45;MyTriggeredLambda&#45;QtqMTZc89naA</title>
<path fill="none" stroke="#707070" d="M322.88,-154.34C331.37,-155.27 339.93,-156.22 348.49,-157.16"/>
<polygon fill="#707070" stroke="#707070" points="347.9,-160.62 358.22,-158.24 348.67,-153.66 347.9,-160.62"/>
</g>
<!-- Role::sam&#45;app&#45;MyTriggeredLambdaRole&#45;PFCAXLPPKQG8 -->
<g id="node9" class="node">
<title>Role::sam&#45;app&#45;MyTriggeredLambdaRole&#45;PFCAXLPPKQG8</title>
<polygon fill="#e5e5e5" stroke="#dddddd" points="1037,-201 724,-201 724,-143 1037,-143 1037,-201"/>
<text text-anchor="start" x="736.5" y="-181.2" font-family="Helvetica,sans-Serif" font-weight="bold" font-size="16.00" fill="#707070">IAM::Role</text>
<text text-anchor="start" x="736.5" y="-156.2" font-family="Helvetica,sans-Serif" font-size="16.00" fill="#383838">sam&#45;app&#45;MyTriggeredLambdaRole&#45;PF...</text>
</g>
<!-- Function::sam&#45;app&#45;MyTriggeredLambda&#45;QtqMTZc89naA&#45;&gt;Role::sam&#45;app&#45;MyTriggeredLambdaRole&#45;PFCAXLPPKQG8 -->
<g id="edge10" class="edge">
<title>Function::sam&#45;app&#45;MyTriggeredLambda&#45;QtqMTZc89naA&#45;&gt;Role::sam&#45;app&#45;MyTriggeredLambdaRole&#45;PFCAXLPPKQG8</title>
<path fill="none" stroke="#707070" d="M680.33,-174.22C690.91,-174.1 701.57,-173.99 712.19,-173.87"/>
<polygon fill="#707070" stroke="#707070" points="712.2,-177.37 722.16,-173.76 712.12,-170.37 712.2,-177.37"/>
</g>
</g>
</svg>
