<?xml version="1.0" encoding="UTF-8" standalone="no"?>
<!DOCTYPE svg PUBLIC "-//W3C//DTD SVG 1.1//EN"
 "http://www.w3.org/Graphics/SVG/1.1/DTD/svg11.dtd">
<!-- Generated by graphviz version 3.0.0 (20220226.1711)
 -->
<!-- Title: graphname Pages: 1 -->
<svg width="926pt" height="713pt"
 viewBox="0.00 0.00 926.00 713.00" xmlns="http://www.w3.org/2000/svg" xmlns:xlink="http://www.w3.org/1999/xlink">
<g id="graph0" class="graph" transform="scale(1 1) rotate(0) translate(4 709)">
<title>graphname</title>
<polygon fill="#fafafa" stroke="transparent" points="-4,4 -4,-709 922,-709 922,4 -4,4"/>
<text text-anchor="start" x="274" y="-680.4" font-family="Helvetica,sans-Serif" font-weight="bold" font-size="22.00" fill="#383838">Project CloudFront WebSite HTTPS</text>
<text text-anchor="start" x="455" y="-664.8" font-family="Helvetica,sans-Serif" font-size="14.00"> &#160;</text>
<text text-anchor="start" x="274" y="-643.2" font-family="Helvetica,sans-Serif" font-weight="bold" font-size="16.00" fill="#707070">Target Diagram</text>
<g id="clust1" class="cluster">
<title>cluster_aws</title>
<polygon fill="#f5f5f5" stroke="#f5f5f5" points="8,-8 8,-621 910,-621 910,-8 8,-8"/>
<text text-anchor="start" x="397" y="-23" font-family="Helvetica,sans-Serif" font-weight="bold" font-size="20.00" fill="#707070">Provider aws</text>
</g>
<g id="clust2" class="cluster">
<title>cluster_aws_</title>
<polygon fill="#eeeeee" stroke="#eeeeee" points="16,-54 16,-613 902,-613 902,-54 16,-54"/>
<text text-anchor="start" x="458.86" y="-58.3" font-family="Helvetica,sans-Serif" font-size="1.00" fill="#383838"> </text>
</g>
<!-- Object::build/bundle.css -->
<g id="node1" class="node">
<title>Object::build/bundle.css</title>
<polygon fill="#e5e5e5" stroke="#dddddd" points="527,-605 385,-605 385,-547 527,-547 527,-605"/>
<text text-anchor="start" x="397" y="-585.2" font-family="Helvetica,sans-Serif" font-weight="bold" font-size="16.00" fill="#707070">Object</text>
<text text-anchor="start" x="397" y="-560.2" font-family="Helvetica,sans-Serif" font-size="16.00" fill="#383838">build/bundle.css</text>
</g>
<!-- Bucket::cloudfront.aws.test.grucloud.org -->
<g id="node12" class="node">
<title>Bucket::cloudfront.aws.test.grucloud.org</title>
<polygon fill="#e5e5e5" stroke="#dddddd" points="894,-415 626,-415 626,-357 894,-357 894,-415"/>
<text text-anchor="start" x="638" y="-395.2" font-family="Helvetica,sans-Serif" font-weight="bold" font-size="16.00" fill="#707070">Bucket</text>
<text text-anchor="start" x="638" y="-370.2" font-family="Helvetica,sans-Serif" font-size="16.00" fill="#383838">cloudfront.aws.test.grucloud.org...</text>
</g>
<!-- Object::build/bundle.css&#45;&gt;Bucket::cloudfront.aws.test.grucloud.org -->
<g id="edge1" class="edge">
<title>Object::build/bundle.css&#45;&gt;Bucket::cloudfront.aws.test.grucloud.org</title>
<path fill="none" stroke="#707070" d="M527.01,-562.37C548.06,-556.61 570.67,-548.7 590,-538 644.41,-507.89 695.87,-457.26 727.4,-422.77"/>
<polygon fill="#707070" stroke="#707070" points="730.09,-425.01 734.2,-415.24 724.9,-420.32 730.09,-425.01"/>
</g>
<!-- Object::build/bundle.js -->
<g id="node2" class="node">
<title>Object::build/bundle.js</title>
<polygon fill="#e5e5e5" stroke="#dddddd" points="520.5,-529 391.5,-529 391.5,-471 520.5,-471 520.5,-529"/>
<text text-anchor="start" x="404" y="-509.2" font-family="Helvetica,sans-Serif" font-weight="bold" font-size="16.00" fill="#707070">Object</text>
<text text-anchor="start" x="404" y="-484.2" font-family="Helvetica,sans-Serif" font-size="16.00" fill="#383838">build/bundle.js</text>
</g>
<!-- Object::build/bundle.js&#45;&gt;Bucket::cloudfront.aws.test.grucloud.org -->
<g id="edge2" class="edge">
<title>Object::build/bundle.js&#45;&gt;Bucket::cloudfront.aws.test.grucloud.org</title>
<path fill="none" stroke="#707070" d="M520.52,-483.86C542.72,-477.69 567.67,-470.16 590,-462 623.82,-449.64 660.37,-433.56 690.8,-419.38"/>
<polygon fill="#707070" stroke="#707070" points="692.47,-422.46 700.03,-415.04 689.5,-416.12 692.47,-422.46"/>
</g>
<!-- Object::favicon.png -->
<g id="node3" class="node">
<title>Object::favicon.png</title>
<polygon fill="#e5e5e5" stroke="#dddddd" points="510,-453 402,-453 402,-395 510,-395 510,-453"/>
<text text-anchor="start" x="414" y="-433.2" font-family="Helvetica,sans-Serif" font-weight="bold" font-size="16.00" fill="#707070">Object</text>
<text text-anchor="start" x="414" y="-408.2" font-family="Helvetica,sans-Serif" font-size="16.00" fill="#383838">favicon.png</text>
</g>
<!-- Object::favicon.png&#45;&gt;Bucket::cloudfront.aws.test.grucloud.org -->
<g id="edge3" class="edge">
<title>Object::favicon.png&#45;&gt;Bucket::cloudfront.aws.test.grucloud.org</title>
<path fill="none" stroke="#707070" d="M510.3,-417.29C539.83,-413.58 578.1,-408.76 615.73,-404.03"/>
<polygon fill="#707070" stroke="#707070" points="616.32,-407.48 625.8,-402.76 615.44,-400.54 616.32,-407.48"/>
</g>
<!-- Object::global.css -->
<g id="node4" class="node">
<title>Object::global.css</title>
<polygon fill="#e5e5e5" stroke="#dddddd" points="504.5,-377 407.5,-377 407.5,-319 504.5,-319 504.5,-377"/>
<text text-anchor="start" x="420" y="-357.2" font-family="Helvetica,sans-Serif" font-weight="bold" font-size="16.00" fill="#707070">Object</text>
<text text-anchor="start" x="420" y="-332.2" font-family="Helvetica,sans-Serif" font-size="16.00" fill="#383838">global.css</text>
</g>
<!-- Object::global.css&#45;&gt;Bucket::cloudfront.aws.test.grucloud.org -->
<g id="edge4" class="edge">
<title>Object::global.css&#45;&gt;Bucket::cloudfront.aws.test.grucloud.org</title>
<path fill="none" stroke="#707070" d="M504.52,-353.98C534.69,-357.78 575.47,-362.91 615.54,-367.95"/>
<polygon fill="#707070" stroke="#707070" points="615.35,-371.45 625.71,-369.23 616.23,-364.51 615.35,-371.45"/>
</g>
<!-- Object::index.html -->
<g id="node5" class="node">
<title>Object::index.html</title>
<polygon fill="#e5e5e5" stroke="#dddddd" points="505.5,-301 406.5,-301 406.5,-243 505.5,-243 505.5,-301"/>
<text text-anchor="start" x="419" y="-281.2" font-family="Helvetica,sans-Serif" font-weight="bold" font-size="16.00" fill="#707070">Object</text>
<text text-anchor="start" x="419" y="-256.2" font-family="Helvetica,sans-Serif" font-size="16.00" fill="#383838">index.html</text>
</g>
<!-- Object::index.html&#45;&gt;Bucket::cloudfront.aws.test.grucloud.org -->
<g id="edge5" class="edge">
<title>Object::index.html&#45;&gt;Bucket::cloudfront.aws.test.grucloud.org</title>
<path fill="none" stroke="#707070" d="M505.55,-284.07C530.99,-290.84 562.48,-299.94 590,-310 623.82,-322.36 660.37,-338.44 690.8,-352.62"/>
<polygon fill="#707070" stroke="#707070" points="689.5,-355.88 700.03,-356.96 692.47,-349.54 689.5,-355.88"/>
</g>
<!-- Certificate::cloudfront.aws.test.grucloud.org -->
<g id="node6" class="node">
<title>Certificate::cloudfront.aws.test.grucloud.org</title>
<polygon fill="#e5e5e5" stroke="#dddddd" points="894,-129 626,-129 626,-71 894,-71 894,-129"/>
<text text-anchor="start" x="638" y="-109.2" font-family="Helvetica,sans-Serif" font-weight="bold" font-size="16.00" fill="#707070">Certificate</text>
<text text-anchor="start" x="638" y="-84.2" font-family="Helvetica,sans-Serif" font-size="16.00" fill="#383838">cloudfront.aws.test.grucloud.org...</text>
</g>
<!-- Distribution::distribution&#45;cloudfront.aws.test.grucloud.org -->
<g id="node7" class="node">
<title>Distribution::distribution&#45;cloudfront.aws.test.grucloud.org</title>
<polygon fill="#e5e5e5" stroke="#dddddd" points="584.5,-225 327.5,-225 327.5,-167 584.5,-167 584.5,-225"/>
<text text-anchor="start" x="340" y="-205.2" font-family="Helvetica,sans-Serif" font-weight="bold" font-size="16.00" fill="#707070">Distribution</text>
<text text-anchor="start" x="340" y="-180.2" font-family="Helvetica,sans-Serif" font-size="16.00" fill="#383838">distribution&#45;cloudfront.aws.test...</text>
</g>
<!-- Distribution::distribution&#45;cloudfront.aws.test.grucloud.org&#45;&gt;Certificate::cloudfront.aws.test.grucloud.org -->
<g id="edge7" class="edge">
<title>Distribution::distribution&#45;cloudfront.aws.test.grucloud.org&#45;&gt;Certificate::cloudfront.aws.test.grucloud.org</title>
<path fill="none" stroke="#707070" d="M566.57,-166.88C574.57,-164.09 582.46,-161.12 590,-158 606.91,-151 609.09,-145 626,-138 630.48,-136.14 635.08,-134.35 639.75,-132.61"/>
<polygon fill="#707070" stroke="#707070" points="641.21,-135.8 649.43,-129.12 638.84,-129.21 641.21,-135.8"/>
</g>
<!-- Distribution::distribution&#45;cloudfront.aws.test.grucloud.org&#45;&gt;Bucket::cloudfront.aws.test.grucloud.org -->
<g id="edge6" class="edge">
<title>Distribution::distribution&#45;cloudfront.aws.test.grucloud.org&#45;&gt;Bucket::cloudfront.aws.test.grucloud.org</title>
<path fill="none" stroke="#707070" d="M571.91,-225.14C578.15,-227.85 584.22,-230.8 590,-234 644.41,-264.11 695.87,-314.74 727.4,-349.23"/>
<polygon fill="#707070" stroke="#707070" points="724.9,-351.68 734.2,-356.76 730.09,-346.99 724.9,-351.68"/>
</g>
<!-- HostedZone::cloudfront.aws.test.grucloud.org. -->
<g id="node8" class="node">
<title>HostedZone::cloudfront.aws.test.grucloud.org.</title>
<polygon fill="#e5e5e5" stroke="#dddddd" points="590,-149 322,-149 322,-91 590,-91 590,-149"/>
<text text-anchor="start" x="334" y="-129.2" font-family="Helvetica,sans-Serif" font-weight="bold" font-size="16.00" fill="#707070">HostedZone</text>
<text text-anchor="start" x="334" y="-104.2" font-family="Helvetica,sans-Serif" font-size="16.00" fill="#383838">cloudfront.aws.test.grucloud.org...</text>
</g>
<!-- Domain::grucloud.org -->
<g id="node11" class="node">
<title>Domain::grucloud.org</title>
<polygon fill="#e5e5e5" stroke="#dddddd" points="817.5,-205 702.5,-205 702.5,-147 817.5,-147 817.5,-205"/>
<text text-anchor="start" x="715" y="-185.2" font-family="Helvetica,sans-Serif" font-weight="bold" font-size="16.00" fill="#707070">Domain</text>
<text text-anchor="start" x="715" y="-160.2" font-family="Helvetica,sans-Serif" font-size="16.00" fill="#383838">grucloud.org</text>
</g>
<!-- HostedZone::cloudfront.aws.test.grucloud.org.&#45;&gt;Domain::grucloud.org -->
<g id="edge8" class="edge">
<title>HostedZone::cloudfront.aws.test.grucloud.org.&#45;&gt;Domain::grucloud.org</title>
<path fill="none" stroke="#707070" d="M590.34,-144.73C625.69,-151.28 662.35,-158.08 692.42,-163.65"/>
<polygon fill="#707070" stroke="#707070" points="691.89,-167.11 702.36,-165.5 693.16,-160.23 691.89,-167.11"/>
</g>
<!-- Record::record::ACM::Certificate::cloudfront.aws.test.grucloud.org -->
<g id="node9" class="node">
<title>Record::record::ACM::Certificate::cloudfront.aws.test.grucloud.org</title>
<polygon fill="#e5e5e5" stroke="#dddddd" points="286,-139 24,-139 24,-81 286,-81 286,-139"/>
<text text-anchor="start" x="36" y="-119.2" font-family="Helvetica,sans-Serif" font-weight="bold" font-size="16.00" fill="#707070">Record</text>
<text text-anchor="start" x="36" y="-94.2" font-family="Helvetica,sans-Serif" font-size="16.00" fill="#383838">record::ACM::Certificate::cloudf...</text>
</g>
<!-- Record::record::ACM::Certificate::cloudfront.aws.test.grucloud.org&#45;&gt;Certificate::cloudfront.aws.test.grucloud.org -->
<g id="edge10" class="edge">
<title>Record::record::ACM::Certificate::cloudfront.aws.test.grucloud.org&#45;&gt;Certificate::cloudfront.aws.test.grucloud.org</title>
<path fill="none" stroke="#707070" d="M286.23,-85.92C298.29,-84.33 310.35,-82.98 322,-82 440.7,-72.06 471.06,-75.68 590,-82 598.37,-82.44 606.95,-83.01 615.61,-83.67"/>
<polygon fill="#707070" stroke="#707070" points="615.55,-87.17 625.8,-84.48 616.11,-80.2 615.55,-87.17"/>
</g>
<!-- Record::record::ACM::Certificate::cloudfront.aws.test.grucloud.org&#45;&gt;HostedZone::cloudfront.aws.test.grucloud.org. -->
<g id="edge9" class="edge">
<title>Record::record::ACM::Certificate::cloudfront.aws.test.grucloud.org&#45;&gt;HostedZone::cloudfront.aws.test.grucloud.org.</title>
<path fill="none" stroke="#707070" d="M286.28,-114.36C294.76,-114.64 303.33,-114.93 311.87,-115.21"/>
<polygon fill="#707070" stroke="#707070" points="311.76,-118.71 321.87,-115.55 311.99,-111.72 311.76,-118.71"/>
</g>
<!-- Record::record::CloudFront::Distribution::distribution&#45;cloudfront.aws.test.grucloud.org -->
<g id="node10" class="node">
<title>Record::record::CloudFront::Distribution::distribution&#45;cloudfront.aws.test.grucloud.org</title>
<polygon fill="#e5e5e5" stroke="#dddddd" points="286,-220 24,-220 24,-162 286,-162 286,-220"/>
<text text-anchor="start" x="36" y="-200.2" font-family="Helvetica,sans-Serif" font-weight="bold" font-size="16.00" fill="#707070">Record</text>
<text text-anchor="start" x="36" y="-175.2" font-family="Helvetica,sans-Serif" font-size="16.00" fill="#383838">record::CloudFront::Distribution...</text>
</g>
<!-- Record::record::CloudFront::Distribution::distribution&#45;cloudfront.aws.test.grucloud.org&#45;&gt;Distribution::distribution&#45;cloudfront.aws.test.grucloud.org -->
<g id="edge12" class="edge">
<title>Record::record::CloudFront::Distribution::distribution&#45;cloudfront.aws.test.grucloud.org&#45;&gt;Distribution::distribution&#45;cloudfront.aws.test.grucloud.org</title>
<path fill="none" stroke="#707070" d="M286.28,-193.18C296.43,-193.35 306.7,-193.52 316.9,-193.69"/>
<polygon fill="#707070" stroke="#707070" points="317.01,-197.19 327.07,-193.86 317.13,-190.19 317.01,-197.19"/>
</g>
<!-- Record::record::CloudFront::Distribution::distribution&#45;cloudfront.aws.test.grucloud.org&#45;&gt;HostedZone::cloudfront.aws.test.grucloud.org. -->
<g id="edge11" class="edge">
<title>Record::record::CloudFront::Distribution::distribution&#45;cloudfront.aws.test.grucloud.org&#45;&gt;HostedZone::cloudfront.aws.test.grucloud.org.</title>
<path fill="none" stroke="#707070" d="M278.48,-161.92C293.02,-158.46 307.92,-154.93 322.6,-151.44"/>
<polygon fill="#707070" stroke="#707070" points="323.79,-154.75 332.71,-149.04 322.17,-147.94 323.79,-154.75"/>
</g>
</g>
</svg>
