<?xml version="1.0" encoding="UTF-8" standalone="no"?>
<!DOCTYPE svg PUBLIC "-//W3C//DTD SVG 1.1//EN"
 "http://www.w3.org/Graphics/SVG/1.1/DTD/svg11.dtd">
<!-- Generated by graphviz version 2.44.1 (20200629.0846)
 -->
<!-- Title: graphname Pages: 1 -->
<svg width="935pt" height="713pt"
 viewBox="0.00 0.00 935.00 713.00" xmlns="http://www.w3.org/2000/svg" xmlns:xlink="http://www.w3.org/1999/xlink">
<g id="graph0" class="graph" transform="scale(1 1) rotate(0) translate(4 709)">
<title>graphname</title>
<polygon fill="#fafafa" stroke="transparent" points="-4,4 -4,-709 931,-709 931,4 -4,4"/>
<text text-anchor="start" x="352.5" y="-680.4" font-family="Helvetica,sans-Serif" font-weight="bold" font-size="22.00" fill="#383838">Project website&#45;https</text>
<text text-anchor="start" x="460" y="-664.8" font-family="Helvetica,sans-Serif" font-size="14.00"> &#160;</text>
<text text-anchor="start" x="352.5" y="-643.2" font-family="Helvetica,sans-Serif" font-weight="bold" font-size="16.00" fill="#707070">Live Diagram</text>
<g id="clust1" class="cluster">
<title>cluster_aws</title>
<polygon fill="#f5f5f5" stroke="#f5f5f5" points="8,-8 8,-621 919,-621 919,-8 8,-8"/>
<text text-anchor="start" x="401.5" y="-23" font-family="Helvetica,sans-Serif" font-weight="bold" font-size="20.00" fill="#707070">Provider aws</text>
</g>
<g id="clust2" class="cluster">
<title>cluster_aws_</title>
<polygon fill="#eeeeee" stroke="#eeeeee" points="16,-54 16,-613 911,-613 911,-54 16,-54"/>
<text text-anchor="start" x="463.36" y="-58.3" font-family="Helvetica,sans-Serif" font-size="1.00" fill="#383838"> </text>
</g>
<!-- Certificate::::arn:aws:acm:us&#45;east&#45;1:840541460064:certificate/1ef2da5d&#45;bcf6&#45;4dcd&#45;94c1&#45;1532a8d64eaf -->
<g id="node1" class="node">
<title>Certificate::::arn:aws:acm:us&#45;east&#45;1:840541460064:certificate/1ef2da5d&#45;bcf6&#45;4dcd&#45;94c1&#45;1532a8d64eaf</title>
<polygon fill="#e5e5e5" stroke="#dddddd" points="903,-533 634,-533 634,-475 903,-475 903,-533"/>
<text text-anchor="start" x="646.5" y="-513.2" font-family="Helvetica,sans-Serif" font-weight="bold" font-size="16.00" fill="#707070">Certificate</text>
<text text-anchor="start" x="646.5" y="-488.2" font-family="Helvetica,sans-Serif" font-size="16.00" fill="#383838">dev.cloudfront.aws.test.grucloud...</text>
</g>
<!-- Certificate::::arn:aws:acm:us&#45;east&#45;1:840541460064:certificate/e7d947d6&#45;4709&#45;46e7&#45;b5ed&#45;68b7d31bb0e2 -->
<g id="node2" class="node">
<title>Certificate::::arn:aws:acm:us&#45;east&#45;1:840541460064:certificate/e7d947d6&#45;4709&#45;46e7&#45;b5ed&#45;68b7d31bb0e2</title>
<polygon fill="#e5e5e5" stroke="#dddddd" points="216,-605 101,-605 101,-547 216,-547 216,-605"/>
<text text-anchor="start" x="113.5" y="-585.2" font-family="Helvetica,sans-Serif" font-weight="bold" font-size="16.00" fill="#707070">Certificate</text>
<text text-anchor="start" x="113.5" y="-560.2" font-family="Helvetica,sans-Serif" font-size="16.00" fill="#383838">grucloud.org</text>
</g>
<!-- Distribution::::EZ3VKPT0X6XX0 -->
<g id="node3" class="node">
<title>Distribution::::EZ3VKPT0X6XX0</title>
<polygon fill="#e5e5e5" stroke="#dddddd" points="592,-509 335,-509 335,-451 592,-451 592,-509"/>
<text text-anchor="start" x="347.5" y="-489.2" font-family="Helvetica,sans-Serif" font-weight="bold" font-size="16.00" fill="#707070">Distribution</text>
<text text-anchor="start" x="347.5" y="-464.2" font-family="Helvetica,sans-Serif" font-size="16.00" fill="#383838">distribution&#45;cloudfront.aws.test...</text>
</g>
<!-- Distribution::::EZ3VKPT0X6XX0&#45;&gt;Certificate::::arn:aws:acm:us&#45;east&#45;1:840541460064:certificate/1ef2da5d&#45;bcf6&#45;4dcd&#45;94c1&#45;1532a8d64eaf -->
<g id="edge1" class="edge">
<title>Distribution::::EZ3VKPT0X6XX0&#45;&gt;Certificate::::arn:aws:acm:us&#45;east&#45;1:840541460064:certificate/1ef2da5d&#45;bcf6&#45;4dcd&#45;94c1&#45;1532a8d64eaf</title>
<path fill="none" stroke="#707070" d="M592.12,-490.11C602.54,-490.93 613.11,-491.77 623.63,-492.6"/>
<polygon fill="#707070" stroke="#707070" points="623.46,-496.1 633.7,-493.4 624.01,-489.12 623.46,-496.1"/>
</g>
<!-- Bucket::::cloudfront.aws.test.grucloud.org&#45;dev -->
<g id="node10" class="node">
<title>Bucket::::cloudfront.aws.test.grucloud.org&#45;dev</title>
<polygon fill="#e5e5e5" stroke="#dddddd" points="902.5,-319 634.5,-319 634.5,-261 902.5,-261 902.5,-319"/>
<text text-anchor="start" x="646.5" y="-299.2" font-family="Helvetica,sans-Serif" font-weight="bold" font-size="16.00" fill="#707070">Bucket</text>
<text text-anchor="start" x="646.5" y="-274.2" font-family="Helvetica,sans-Serif" font-size="16.00" fill="#383838">cloudfront.aws.test.grucloud.org...</text>
</g>
<!-- Distribution::::EZ3VKPT0X6XX0&#45;&gt;Bucket::::cloudfront.aws.test.grucloud.org&#45;dev -->
<g id="edge2" class="edge">
<title>Distribution::::EZ3VKPT0X6XX0&#45;&gt;Bucket::::cloudfront.aws.test.grucloud.org&#45;dev</title>
<path fill="none" stroke="#707070" d="M579.84,-450.87C586.1,-448.15 592.2,-445.2 598,-442 652.54,-411.91 704.16,-361.27 735.79,-326.78"/>
<polygon fill="#707070" stroke="#707070" points="738.49,-329.01 742.61,-319.25 733.31,-324.31 738.49,-329.01"/>
</g>
<!-- HostedZone::::/hostedzone/Z00958862OIUDDASQWLZU -->
<g id="node4" class="node">
<title>HostedZone::::/hostedzone/Z00958862OIUDDASQWLZU</title>
<polygon fill="#e5e5e5" stroke="#dddddd" points="598,-605 329,-605 329,-547 598,-547 598,-605"/>
<text text-anchor="start" x="341.5" y="-585.2" font-family="Helvetica,sans-Serif" font-weight="bold" font-size="16.00" fill="#707070">HostedZone</text>
<text text-anchor="start" x="341.5" y="-560.2" font-family="Helvetica,sans-Serif" font-size="16.00" fill="#383838">dev.cloudfront.aws.test.grucloud...</text>
</g>
<!-- Record::::dev.cloudfront.aws.test.grucloud.org.::NS -->
<g id="node5" class="node">
<title>Record::::dev.cloudfront.aws.test.grucloud.org.::NS</title>
<polygon fill="#e5e5e5" stroke="#dddddd" points="293,-529 24,-529 24,-471 293,-471 293,-529"/>
<text text-anchor="start" x="36.5" y="-509.2" font-family="Helvetica,sans-Serif" font-weight="bold" font-size="16.00" fill="#707070">Record</text>
<text text-anchor="start" x="36.5" y="-484.2" font-family="Helvetica,sans-Serif" font-size="16.00" fill="#383838">dev.cloudfront.aws.test.grucloud...</text>
</g>
<!-- Record::::dev.cloudfront.aws.test.grucloud.org.::NS&#45;&gt;HostedZone::::/hostedzone/Z00958862OIUDDASQWLZU -->
<g id="edge3" class="edge">
<title>Record::::dev.cloudfront.aws.test.grucloud.org.::NS&#45;&gt;HostedZone::::/hostedzone/Z00958862OIUDDASQWLZU</title>
<path fill="none" stroke="#707070" d="M275.35,-529.06C295.45,-534.1 316.44,-539.36 336.78,-544.47"/>
<polygon fill="#707070" stroke="#707070" points="336.16,-547.92 346.72,-546.96 337.87,-541.13 336.16,-547.92"/>
</g>
<!-- Record::::dev.cloudfront.aws.test.grucloud.org.::SOA -->
<g id="node6" class="node">
<title>Record::::dev.cloudfront.aws.test.grucloud.org.::SOA</title>
<polygon fill="#e5e5e5" stroke="#dddddd" points="293,-453 24,-453 24,-395 293,-395 293,-453"/>
<text text-anchor="start" x="36.5" y="-433.2" font-family="Helvetica,sans-Serif" font-weight="bold" font-size="16.00" fill="#707070">Record</text>
<text text-anchor="start" x="36.5" y="-408.2" font-family="Helvetica,sans-Serif" font-size="16.00" fill="#383838">dev.cloudfront.aws.test.grucloud...</text>
</g>
<!-- Record::::dev.cloudfront.aws.test.grucloud.org.::SOA&#45;&gt;HostedZone::::/hostedzone/Z00958862OIUDDASQWLZU -->
<g id="edge4" class="edge">
<title>Record::::dev.cloudfront.aws.test.grucloud.org.::SOA&#45;&gt;HostedZone::::/hostedzone/Z00958862OIUDDASQWLZU</title>
<path fill="none" stroke="#707070" d="M280.58,-453.14C284.93,-455.83 289.1,-458.78 293,-462 320.3,-484.5 302.09,-510.03 329,-533 332.53,-536.02 336.28,-538.82 340.19,-541.43"/>
<polygon fill="#707070" stroke="#707070" points="338.64,-544.59 349,-546.83 342.3,-538.62 338.64,-544.59"/>
</g>
<!-- Record::::dev.cloudfront.aws.test.grucloud.org.::A -->
<g id="node7" class="node">
<title>Record::::dev.cloudfront.aws.test.grucloud.org.::A</title>
<polygon fill="#e5e5e5" stroke="#dddddd" points="287,-301 30,-301 30,-243 287,-243 287,-301"/>
<text text-anchor="start" x="42.5" y="-281.2" font-family="Helvetica,sans-Serif" font-weight="bold" font-size="16.00" fill="#707070">Record</text>
<text text-anchor="start" x="42.5" y="-256.2" font-family="Helvetica,sans-Serif" font-size="16.00" fill="#383838">distribution&#45;alias&#45;dev.cloudfron...</text>
</g>
<!-- Record::::dev.cloudfront.aws.test.grucloud.org.::A&#45;&gt;Distribution::::EZ3VKPT0X6XX0 -->
<g id="edge6" class="edge">
<title>Record::::dev.cloudfront.aws.test.grucloud.org.::A&#45;&gt;Distribution::::EZ3VKPT0X6XX0</title>
<path fill="none" stroke="#707070" d="M282.62,-301.03C286.3,-303.76 289.78,-306.74 293,-310 335.76,-353.24 286.24,-398.76 329,-442 329.8,-442.81 330.63,-443.61 331.46,-444.39"/>
<polygon fill="#707070" stroke="#707070" points="329.45,-447.27 339.38,-450.97 333.92,-441.88 329.45,-447.27"/>
</g>
<!-- Record::::dev.cloudfront.aws.test.grucloud.org.::A&#45;&gt;HostedZone::::/hostedzone/Z00958862OIUDDASQWLZU -->
<g id="edge5" class="edge">
<title>Record::::dev.cloudfront.aws.test.grucloud.org.::A&#45;&gt;HostedZone::::/hostedzone/Z00958862OIUDDASQWLZU</title>
<path fill="none" stroke="#707070" d="M283.59,-301.1C286.95,-303.82 290.1,-306.77 293,-310 355.73,-379.76 271.02,-444.24 329,-518 336.19,-527.14 345.1,-534.87 354.9,-541.4"/>
<polygon fill="#707070" stroke="#707070" points="353.36,-544.57 363.71,-546.84 357.03,-538.61 353.36,-544.57"/>
</g>
<!-- Record::::_1c003a592ed0c0c949c1031f5deaef5e.dev.cloudfront.aws.test.grucloud.org.::CNAME -->
<g id="node8" class="node">
<title>Record::::_1c003a592ed0c0c949c1031f5deaef5e.dev.cloudfront.aws.test.grucloud.org.::CNAME</title>
<polygon fill="#e5e5e5" stroke="#dddddd" points="290.5,-377 26.5,-377 26.5,-319 290.5,-319 290.5,-377"/>
<text text-anchor="start" x="38.5" y="-357.2" font-family="Helvetica,sans-Serif" font-weight="bold" font-size="16.00" fill="#707070">Record</text>
<text text-anchor="start" x="38.5" y="-332.2" font-family="Helvetica,sans-Serif" font-size="16.00" fill="#383838">validation&#45;dev.cloudfront.aws.te...</text>
</g>
<!-- Record::::_1c003a592ed0c0c949c1031f5deaef5e.dev.cloudfront.aws.test.grucloud.org.::CNAME&#45;&gt;Certificate::::arn:aws:acm:us&#45;east&#45;1:840541460064:certificate/1ef2da5d&#45;bcf6&#45;4dcd&#45;94c1&#45;1532a8d64eaf -->
<g id="edge8" class="edge">
<title>Record::::_1c003a592ed0c0c949c1031f5deaef5e.dev.cloudfront.aws.test.grucloud.org.::CNAME&#45;&gt;Certificate::::arn:aws:acm:us&#45;east&#45;1:840541460064:certificate/1ef2da5d&#45;bcf6&#45;4dcd&#45;94c1&#45;1532a8d64eaf</title>
<path fill="none" stroke="#707070" d="M282.62,-377.03C286.3,-379.76 289.78,-382.74 293,-386 335.76,-429.24 280.67,-481.09 329,-518 352.2,-535.72 504.82,-527.2 623.57,-517.51"/>
<polygon fill="#707070" stroke="#707070" points="624.18,-520.97 633.86,-516.66 623.61,-513.99 624.18,-520.97"/>
</g>
<!-- Record::::_1c003a592ed0c0c949c1031f5deaef5e.dev.cloudfront.aws.test.grucloud.org.::CNAME&#45;&gt;HostedZone::::/hostedzone/Z00958862OIUDDASQWLZU -->
<g id="edge7" class="edge">
<title>Record::::_1c003a592ed0c0c949c1031f5deaef5e.dev.cloudfront.aws.test.grucloud.org.::CNAME&#45;&gt;HostedZone::::/hostedzone/Z00958862OIUDDASQWLZU</title>
<path fill="none" stroke="#707070" d="M283.02,-377.14C286.56,-379.84 289.91,-382.79 293,-386 339.67,-434.44 283.17,-483.77 329,-533 331.6,-535.79 334.38,-538.41 337.31,-540.85"/>
<polygon fill="#707070" stroke="#707070" points="335.31,-543.72 345.4,-546.93 339.51,-538.12 335.31,-543.72"/>
</g>
<!-- Domain::::grucloud.org -->
<g id="node9" class="node">
<title>Domain::::grucloud.org</title>
<polygon fill="#e5e5e5" stroke="#dddddd" points="216,-177 101,-177 101,-119 216,-119 216,-177"/>
<text text-anchor="start" x="113.5" y="-157.2" font-family="Helvetica,sans-Serif" font-weight="bold" font-size="16.00" fill="#707070">Domain</text>
<text text-anchor="start" x="113.5" y="-132.2" font-family="Helvetica,sans-Serif" font-size="16.00" fill="#383838">grucloud.org</text>
</g>
<!-- Object::::build/bundle.css -->
<g id="node11" class="node">
<title>Object::::build/bundle.css</title>
<polygon fill="#e5e5e5" stroke="#dddddd" points="534.5,-433 392.5,-433 392.5,-375 534.5,-375 534.5,-433"/>
<text text-anchor="start" x="404.5" y="-413.2" font-family="Helvetica,sans-Serif" font-weight="bold" font-size="16.00" fill="#707070">Object</text>
<text text-anchor="start" x="404.5" y="-388.2" font-family="Helvetica,sans-Serif" font-size="16.00" fill="#383838">build/bundle.css</text>
</g>
<!-- Object::::build/bundle.css&#45;&gt;Bucket::::cloudfront.aws.test.grucloud.org&#45;dev -->
<g id="edge9" class="edge">
<title>Object::::build/bundle.css&#45;&gt;Bucket::::cloudfront.aws.test.grucloud.org&#45;dev</title>
<path fill="none" stroke="#707070" d="M534.74,-386.06C555.32,-380.25 577.74,-373.38 598,-366 631.91,-353.64 668.57,-337.56 699.09,-323.38"/>
<polygon fill="#707070" stroke="#707070" points="700.78,-326.45 708.36,-319.05 697.82,-320.11 700.78,-326.45"/>
</g>
<!-- Object::::build/bundle.js -->
<g id="node12" class="node">
<title>Object::::build/bundle.js</title>
<polygon fill="#e5e5e5" stroke="#dddddd" points="528,-357 399,-357 399,-299 528,-299 528,-357"/>
<text text-anchor="start" x="411.5" y="-337.2" font-family="Helvetica,sans-Serif" font-weight="bold" font-size="16.00" fill="#707070">Object</text>
<text text-anchor="start" x="411.5" y="-312.2" font-family="Helvetica,sans-Serif" font-size="16.00" fill="#383838">build/bundle.js</text>
</g>
<!-- Object::::build/bundle.js&#45;&gt;Bucket::::cloudfront.aws.test.grucloud.org&#45;dev -->
<g id="edge10" class="edge">
<title>Object::::build/bundle.js&#45;&gt;Bucket::::cloudfront.aws.test.grucloud.org&#45;dev</title>
<path fill="none" stroke="#707070" d="M528.02,-320.03C556.21,-316.5 590.62,-312.18 624.47,-307.94"/>
<polygon fill="#707070" stroke="#707070" points="624.99,-311.4 634.47,-306.68 624.12,-304.45 624.99,-311.4"/>
</g>
<!-- Object::::favicon.png -->
<g id="node13" class="node">
<title>Object::::favicon.png</title>
<polygon fill="#e5e5e5" stroke="#dddddd" points="517.5,-281 409.5,-281 409.5,-223 517.5,-223 517.5,-281"/>
<text text-anchor="start" x="421.5" y="-261.2" font-family="Helvetica,sans-Serif" font-weight="bold" font-size="16.00" fill="#707070">Object</text>
<text text-anchor="start" x="421.5" y="-236.2" font-family="Helvetica,sans-Serif" font-size="16.00" fill="#383838">favicon.png</text>
</g>
<!-- Object::::favicon.png&#45;&gt;Bucket::::cloudfront.aws.test.grucloud.org&#45;dev -->
<g id="edge11" class="edge">
<title>Object::::favicon.png&#45;&gt;Bucket::::cloudfront.aws.test.grucloud.org&#45;dev</title>
<path fill="none" stroke="#707070" d="M517.63,-258.66C547.38,-262.39 586.06,-267.25 624.06,-272.01"/>
<polygon fill="#707070" stroke="#707070" points="623.87,-275.51 634.23,-273.29 624.74,-268.57 623.87,-275.51"/>
</g>
<!-- Object::::global.css -->
<g id="node14" class="node">
<title>Object::::global.css</title>
<polygon fill="#e5e5e5" stroke="#dddddd" points="512,-205 415,-205 415,-147 512,-147 512,-205"/>
<text text-anchor="start" x="427.5" y="-185.2" font-family="Helvetica,sans-Serif" font-weight="bold" font-size="16.00" fill="#707070">Object</text>
<text text-anchor="start" x="427.5" y="-160.2" font-family="Helvetica,sans-Serif" font-size="16.00" fill="#383838">global.css</text>
</g>
<!-- Object::::global.css&#45;&gt;Bucket::::cloudfront.aws.test.grucloud.org&#45;dev -->
<g id="edge12" class="edge">
<title>Object::::global.css&#45;&gt;Bucket::::cloudfront.aws.test.grucloud.org&#45;dev</title>
<path fill="none" stroke="#707070" d="M512.3,-187.81C537.98,-194.61 570.04,-203.81 598,-214 631.91,-226.36 668.57,-242.44 699.09,-256.62"/>
<polygon fill="#707070" stroke="#707070" points="697.82,-259.89 708.36,-260.95 700.78,-253.55 697.82,-259.89"/>
</g>
<!-- Object::::index.html -->
<g id="node15" class="node">
<title>Object::::index.html</title>
<polygon fill="#e5e5e5" stroke="#dddddd" points="513,-129 414,-129 414,-71 513,-71 513,-129"/>
<text text-anchor="start" x="426.5" y="-109.2" font-family="Helvetica,sans-Serif" font-weight="bold" font-size="16.00" fill="#707070">Object</text>
<text text-anchor="start" x="426.5" y="-84.2" font-family="Helvetica,sans-Serif" font-size="16.00" fill="#383838">index.html</text>
</g>
<!-- Object::::index.html&#45;&gt;Bucket::::cloudfront.aws.test.grucloud.org&#45;dev -->
<g id="edge13" class="edge">
<title>Object::::index.html&#45;&gt;Bucket::::cloudfront.aws.test.grucloud.org&#45;dev</title>
<path fill="none" stroke="#707070" d="M513.19,-108.31C539.44,-114.12 571.73,-123.51 598,-138 652.54,-168.09 704.16,-218.73 735.79,-253.22"/>
<polygon fill="#707070" stroke="#707070" points="733.31,-255.69 742.61,-260.75 738.49,-250.99 733.31,-255.69"/>
</g>
</g>
</svg>
