<?xml version="1.0" encoding="UTF-8" standalone="no"?>
<!DOCTYPE svg PUBLIC "-//W3C//DTD SVG 1.1//EN"
 "http://www.w3.org/Graphics/SVG/1.1/DTD/svg11.dtd">
<!-- Generated by graphviz version 2.44.1 (20200629.0846)
 -->
<!-- Title: graphname Pages: 1 -->
<svg width="929pt" height="713pt"
 viewBox="0.00 0.00 929.00 713.00" xmlns="http://www.w3.org/2000/svg" xmlns:xlink="http://www.w3.org/1999/xlink">
<g id="graph0" class="graph" transform="scale(1 1) rotate(0) translate(4 709)">
<title>graphname</title>
<polygon fill="#fafafa" stroke="transparent" points="-4,4 -4,-709 925,-709 925,4 -4,4"/>
<text text-anchor="start" x="349.5" y="-680.4" font-family="Helvetica,sans-Serif" font-weight="bold" font-size="22.00" fill="#383838">Project website&#45;https</text>
<text text-anchor="start" x="457" y="-664.8" font-family="Helvetica,sans-Serif" font-size="14.00"> &#160;</text>
<text text-anchor="start" x="349.5" y="-643.2" font-family="Helvetica,sans-Serif" font-weight="bold" font-size="16.00" fill="#707070">Target Diagram</text>
<g id="clust1" class="cluster">
<title>cluster_aws</title>
<polygon fill="#f5f5f5" stroke="#f5f5f5" points="8,-8 8,-621 913,-621 913,-8 8,-8"/>
<text text-anchor="start" x="398.5" y="-23" font-family="Helvetica,sans-Serif" font-weight="bold" font-size="20.00" fill="#707070">Provider aws</text>
</g>
<g id="clust2" class="cluster">
<title>cluster_aws_</title>
<polygon fill="#eeeeee" stroke="#eeeeee" points="16,-54 16,-613 905,-613 905,-54 16,-54"/>
<text text-anchor="start" x="460.36" y="-58.3" font-family="Helvetica,sans-Serif" font-size="1.00" fill="#383838"> </text>
</g>
<!-- Bucket::cloudfront.aws.test.grucloud.org&#45;dev -->
<g id="node1" class="node">
<title>Bucket::cloudfront.aws.test.grucloud.org&#45;dev</title>
<polygon fill="#e5e5e5" stroke="#dddddd" points="897,-415 629,-415 629,-357 897,-357 897,-415"/>
<text text-anchor="start" x="641" y="-395.2" font-family="Helvetica,sans-Serif" font-weight="bold" font-size="16.00" fill="#707070">Bucket</text>
<text text-anchor="start" x="641" y="-370.2" font-family="Helvetica,sans-Serif" font-size="16.00" fill="#383838">cloudfront.aws.test.grucloud.org...</text>
</g>
<!-- Object::build/bundle.css -->
<g id="node2" class="node">
<title>Object::build/bundle.css</title>
<polygon fill="#e5e5e5" stroke="#dddddd" points="529.5,-605 387.5,-605 387.5,-547 529.5,-547 529.5,-605"/>
<text text-anchor="start" x="399.5" y="-585.2" font-family="Helvetica,sans-Serif" font-weight="bold" font-size="16.00" fill="#707070">Object</text>
<text text-anchor="start" x="399.5" y="-560.2" font-family="Helvetica,sans-Serif" font-size="16.00" fill="#383838">build/bundle.css</text>
</g>
<!-- Object::build/bundle.css&#45;&gt;Bucket::cloudfront.aws.test.grucloud.org&#45;dev -->
<g id="edge1" class="edge">
<title>Object::build/bundle.css&#45;&gt;Bucket::cloudfront.aws.test.grucloud.org&#45;dev</title>
<path fill="none" stroke="#707070" d="M529.78,-562.4C550.9,-556.65 573.6,-548.72 593,-538 647.43,-507.92 698.88,-457.28 730.4,-422.79"/>
<polygon fill="#707070" stroke="#707070" points="733.1,-425.02 737.21,-415.25 727.91,-420.33 733.1,-425.02"/>
</g>
<!-- Object::build/bundle.js -->
<g id="node3" class="node">
<title>Object::build/bundle.js</title>
<polygon fill="#e5e5e5" stroke="#dddddd" points="523,-529 394,-529 394,-471 523,-471 523,-529"/>
<text text-anchor="start" x="406.5" y="-509.2" font-family="Helvetica,sans-Serif" font-weight="bold" font-size="16.00" fill="#707070">Object</text>
<text text-anchor="start" x="406.5" y="-484.2" font-family="Helvetica,sans-Serif" font-size="16.00" fill="#383838">build/bundle.js</text>
</g>
<!-- Object::build/bundle.js&#45;&gt;Bucket::cloudfront.aws.test.grucloud.org&#45;dev -->
<g id="edge2" class="edge">
<title>Object::build/bundle.js&#45;&gt;Bucket::cloudfront.aws.test.grucloud.org&#45;dev</title>
<path fill="none" stroke="#707070" d="M523.26,-483.88C545.55,-477.72 570.59,-470.18 593,-462 626.82,-449.66 663.37,-433.58 693.8,-419.39"/>
<polygon fill="#707070" stroke="#707070" points="695.48,-422.47 703.04,-415.06 692.5,-416.14 695.48,-422.47"/>
</g>
<!-- Object::favicon.png -->
<g id="node4" class="node">
<title>Object::favicon.png</title>
<polygon fill="#e5e5e5" stroke="#dddddd" points="512.5,-453 404.5,-453 404.5,-395 512.5,-395 512.5,-453"/>
<text text-anchor="start" x="416.5" y="-433.2" font-family="Helvetica,sans-Serif" font-weight="bold" font-size="16.00" fill="#707070">Object</text>
<text text-anchor="start" x="416.5" y="-408.2" font-family="Helvetica,sans-Serif" font-size="16.00" fill="#383838">favicon.png</text>
</g>
<!-- Object::favicon.png&#45;&gt;Bucket::cloudfront.aws.test.grucloud.org&#45;dev -->
<g id="edge3" class="edge">
<title>Object::favicon.png&#45;&gt;Bucket::cloudfront.aws.test.grucloud.org&#45;dev</title>
<path fill="none" stroke="#707070" d="M512.54,-417.34C542.25,-413.61 580.86,-408.75 618.8,-403.99"/>
<polygon fill="#707070" stroke="#707070" points="619.46,-407.43 628.95,-402.71 618.59,-400.49 619.46,-407.43"/>
</g>
<!-- Object::global.css -->
<g id="node5" class="node">
<title>Object::global.css</title>
<polygon fill="#e5e5e5" stroke="#dddddd" points="507,-377 410,-377 410,-319 507,-319 507,-377"/>
<text text-anchor="start" x="422.5" y="-357.2" font-family="Helvetica,sans-Serif" font-weight="bold" font-size="16.00" fill="#707070">Object</text>
<text text-anchor="start" x="422.5" y="-332.2" font-family="Helvetica,sans-Serif" font-size="16.00" fill="#383838">global.css</text>
</g>
<!-- Object::global.css&#45;&gt;Bucket::cloudfront.aws.test.grucloud.org&#45;dev -->
<g id="edge4" class="edge">
<title>Object::global.css&#45;&gt;Bucket::cloudfront.aws.test.grucloud.org&#45;dev</title>
<path fill="none" stroke="#707070" d="M507.1,-353.98C537.46,-357.79 578.55,-362.95 618.87,-368.02"/>
<polygon fill="#707070" stroke="#707070" points="618.46,-371.5 628.82,-369.27 619.33,-364.55 618.46,-371.5"/>
</g>
<!-- Object::index.html -->
<g id="node6" class="node">
<title>Object::index.html</title>
<polygon fill="#e5e5e5" stroke="#dddddd" points="508,-301 409,-301 409,-243 508,-243 508,-301"/>
<text text-anchor="start" x="421.5" y="-281.2" font-family="Helvetica,sans-Serif" font-weight="bold" font-size="16.00" fill="#707070">Object</text>
<text text-anchor="start" x="421.5" y="-256.2" font-family="Helvetica,sans-Serif" font-size="16.00" fill="#383838">index.html</text>
</g>
<!-- Object::index.html&#45;&gt;Bucket::cloudfront.aws.test.grucloud.org&#45;dev -->
<g id="edge5" class="edge">
<title>Object::index.html&#45;&gt;Bucket::cloudfront.aws.test.grucloud.org&#45;dev</title>
<path fill="none" stroke="#707070" d="M508.24,-284.05C533.77,-290.82 565.38,-299.92 593,-310 626.82,-322.34 663.37,-338.42 693.8,-352.61"/>
<polygon fill="#707070" stroke="#707070" points="692.5,-355.86 703.04,-356.94 695.48,-349.53 692.5,-355.86"/>
</g>
<!-- Certificate::certificate&#45;cloudfront.aws.test.grucloud.org&#45;dev -->
<g id="node7" class="node">
<title>Certificate::certificate&#45;cloudfront.aws.test.grucloud.org&#45;dev</title>
<polygon fill="#e5e5e5" stroke="#dddddd" points="889.5,-129 636.5,-129 636.5,-71 889.5,-71 889.5,-129"/>
<text text-anchor="start" x="649" y="-109.2" font-family="Helvetica,sans-Serif" font-weight="bold" font-size="16.00" fill="#707070">Certificate</text>
<text text-anchor="start" x="649" y="-84.2" font-family="Helvetica,sans-Serif" font-size="16.00" fill="#383838">certificate&#45;cloudfront.aws.test....</text>
</g>
<!-- Domain::grucloud.org -->
<g id="node8" class="node">
<title>Domain::grucloud.org</title>
<polygon fill="#e5e5e5" stroke="#dddddd" points="820.5,-205 705.5,-205 705.5,-147 820.5,-147 820.5,-205"/>
<text text-anchor="start" x="718" y="-185.2" font-family="Helvetica,sans-Serif" font-weight="bold" font-size="16.00" fill="#707070">Domain</text>
<text text-anchor="start" x="718" y="-160.2" font-family="Helvetica,sans-Serif" font-size="16.00" fill="#383838">grucloud.org</text>
</g>
<!-- HostedZone::dev.cloudfront.aws.test.grucloud.org. -->
<g id="node9" class="node">
<title>HostedZone::dev.cloudfront.aws.test.grucloud.org.</title>
<polygon fill="#e5e5e5" stroke="#dddddd" points="593,-149 324,-149 324,-91 593,-91 593,-149"/>
<text text-anchor="start" x="336.5" y="-129.2" font-family="Helvetica,sans-Serif" font-weight="bold" font-size="16.00" fill="#707070">HostedZone</text>
<text text-anchor="start" x="336.5" y="-104.2" font-family="Helvetica,sans-Serif" font-size="16.00" fill="#383838">dev.cloudfront.aws.test.grucloud...</text>
</g>
<!-- HostedZone::dev.cloudfront.aws.test.grucloud.org.&#45;&gt;Domain::grucloud.org -->
<g id="edge6" class="edge">
<title>HostedZone::dev.cloudfront.aws.test.grucloud.org.&#45;&gt;Domain::grucloud.org</title>
<path fill="none" stroke="#707070" d="M593.06,-144.73C628.47,-151.28 665.19,-158.08 695.31,-163.65"/>
<polygon fill="#707070" stroke="#707070" points="694.79,-167.12 705.26,-165.5 696.07,-160.23 694.79,-167.12"/>
</g>
<!-- Record::validation&#45;dev.cloudfront.aws.test.grucloud.org. -->
<g id="node10" class="node">
<title>Record::validation&#45;dev.cloudfront.aws.test.grucloud.org.</title>
<polygon fill="#e5e5e5" stroke="#dddddd" points="288,-139 24,-139 24,-81 288,-81 288,-139"/>
<text text-anchor="start" x="36" y="-119.2" font-family="Helvetica,sans-Serif" font-weight="bold" font-size="16.00" fill="#707070">Record</text>
<text text-anchor="start" x="36" y="-94.2" font-family="Helvetica,sans-Serif" font-size="16.00" fill="#383838">validation&#45;dev.cloudfront.aws.te...</text>
</g>
<!-- Record::validation&#45;dev.cloudfront.aws.test.grucloud.org.&#45;&gt;Certificate::certificate&#45;cloudfront.aws.test.grucloud.org&#45;dev -->
<g id="edge8" class="edge">
<title>Record::validation&#45;dev.cloudfront.aws.test.grucloud.org.&#45;&gt;Certificate::certificate&#45;cloudfront.aws.test.grucloud.org&#45;dev</title>
<path fill="none" stroke="#707070" d="M288.01,-85.92C300.15,-84.33 312.28,-82.98 324,-82 443.14,-72.08 473.61,-75.66 593,-82 603.72,-82.57 614.8,-83.34 625.92,-84.24"/>
<polygon fill="#707070" stroke="#707070" points="625.89,-87.75 636.15,-85.11 626.48,-80.78 625.89,-87.75"/>
</g>
<!-- Record::validation&#45;dev.cloudfront.aws.test.grucloud.org.&#45;&gt;HostedZone::dev.cloudfront.aws.test.grucloud.org. -->
<g id="edge7" class="edge">
<title>Record::validation&#45;dev.cloudfront.aws.test.grucloud.org.&#45;&gt;HostedZone::dev.cloudfront.aws.test.grucloud.org.</title>
<path fill="none" stroke="#707070" d="M288.37,-114.37C296.68,-114.65 305.06,-114.93 313.42,-115.21"/>
<polygon fill="#707070" stroke="#707070" points="313.49,-118.71 323.6,-115.54 313.72,-111.71 313.49,-118.71"/>
</g>
<!-- Distribution::distribution&#45;cloudfront.aws.test.grucloud.org&#45;dev -->
<g id="node11" class="node">
<title>Distribution::distribution&#45;cloudfront.aws.test.grucloud.org&#45;dev</title>
<polygon fill="#e5e5e5" stroke="#dddddd" points="587,-225 330,-225 330,-167 587,-167 587,-225"/>
<text text-anchor="start" x="342.5" y="-205.2" font-family="Helvetica,sans-Serif" font-weight="bold" font-size="16.00" fill="#707070">Distribution</text>
<text text-anchor="start" x="342.5" y="-180.2" font-family="Helvetica,sans-Serif" font-size="16.00" fill="#383838">distribution&#45;cloudfront.aws.test...</text>
</g>
<!-- Distribution::distribution&#45;cloudfront.aws.test.grucloud.org&#45;dev&#45;&gt;Bucket::cloudfront.aws.test.grucloud.org&#45;dev -->
<g id="edge9" class="edge">
<title>Distribution::distribution&#45;cloudfront.aws.test.grucloud.org&#45;dev&#45;&gt;Bucket::cloudfront.aws.test.grucloud.org&#45;dev</title>
<path fill="none" stroke="#707070" d="M574.85,-225.12C581.11,-227.84 587.2,-230.79 593,-234 647.43,-264.08 698.88,-314.72 730.4,-349.21"/>
<polygon fill="#707070" stroke="#707070" points="727.91,-351.67 737.21,-356.75 733.1,-346.98 727.91,-351.67"/>
</g>
<!-- Distribution::distribution&#45;cloudfront.aws.test.grucloud.org&#45;dev&#45;&gt;Certificate::certificate&#45;cloudfront.aws.test.grucloud.org&#45;dev -->
<g id="edge10" class="edge">
<title>Distribution::distribution&#45;cloudfront.aws.test.grucloud.org&#45;dev&#45;&gt;Certificate::certificate&#45;cloudfront.aws.test.grucloud.org&#45;dev</title>
<path fill="none" stroke="#707070" d="M569.48,-166.9C577.51,-164.1 585.43,-161.13 593,-158 609.91,-151 612.09,-145 629,-138 633.48,-136.14 638.08,-134.35 642.75,-132.61"/>
<polygon fill="#707070" stroke="#707070" points="644.21,-135.8 652.43,-129.12 641.84,-129.21 644.21,-135.8"/>
</g>
<!-- Record::distribution&#45;alias&#45;dev.cloudfront.aws.test.grucloud.org -->
<g id="node12" class="node">
<title>Record::distribution&#45;alias&#45;dev.cloudfront.aws.test.grucloud.org</title>
<polygon fill="#e5e5e5" stroke="#dddddd" points="284.5,-220 27.5,-220 27.5,-162 284.5,-162 284.5,-220"/>
<text text-anchor="start" x="40" y="-200.2" font-family="Helvetica,sans-Serif" font-weight="bold" font-size="16.00" fill="#707070">Record</text>
<text text-anchor="start" x="40" y="-175.2" font-family="Helvetica,sans-Serif" font-size="16.00" fill="#383838">distribution&#45;alias&#45;dev.cloudfron...</text>
</g>
<!-- Record::distribution&#45;alias&#45;dev.cloudfront.aws.test.grucloud.org&#45;&gt;HostedZone::dev.cloudfront.aws.test.grucloud.org. -->
<g id="edge11" class="edge">
<title>Record::distribution&#45;alias&#45;dev.cloudfront.aws.test.grucloud.org&#45;&gt;HostedZone::dev.cloudfront.aws.test.grucloud.org.</title>
<path fill="none" stroke="#707070" d="M280.09,-161.92C294.85,-158.43 309.97,-154.86 324.86,-151.34"/>
<polygon fill="#707070" stroke="#707070" points="325.67,-154.74 334.6,-149.04 324.06,-147.93 325.67,-154.74"/>
</g>
<!-- Record::distribution&#45;alias&#45;dev.cloudfront.aws.test.grucloud.org&#45;&gt;Distribution::distribution&#45;cloudfront.aws.test.grucloud.org&#45;dev -->
<g id="edge12" class="edge">
<title>Record::distribution&#45;alias&#45;dev.cloudfront.aws.test.grucloud.org&#45;&gt;Distribution::distribution&#45;cloudfront.aws.test.grucloud.org&#45;dev</title>
<path fill="none" stroke="#707070" d="M284.87,-193.13C296.37,-193.32 308.03,-193.51 319.6,-193.71"/>
<polygon fill="#707070" stroke="#707070" points="319.68,-197.21 329.74,-193.87 319.8,-190.21 319.68,-197.21"/>
</g>
</g>
</svg>
