<?xml version="1.0" encoding="UTF-8" standalone="no"?>
<!DOCTYPE svg PUBLIC "-//W3C//DTD SVG 1.1//EN"
 "http://www.w3.org/Graphics/SVG/1.1/DTD/svg11.dtd">
<!-- Generated by graphviz version 7.1.0 (20230121.1956)
 -->
<!-- Title: graphname Pages: 1 -->
<svg width="863pt" height="465pt"
 viewBox="0.00 0.00 863.00 465.00" xmlns="http://www.w3.org/2000/svg" xmlns:xlink="http://www.w3.org/1999/xlink">
<g id="graph0" class="graph" transform="scale(1 1) rotate(0) translate(4 461)">
<title>graphname</title>
<polygon fill="#fafafa" stroke="none" points="-4,4 -4,-461 859,-461 859,4 -4,4"/>
<text text-anchor="start" x="271.5" y="-432.4" font-family="Helvetica,sans-Serif" font-weight="bold" font-size="22.00" fill="#383838">Project nat&#45;gateway&#45;private&#45;ip</text>
<text text-anchor="start" x="424" y="-416.8" font-family="Helvetica,sans-Serif" font-size="14.00"> &#160;</text>
<text text-anchor="start" x="271.5" y="-395.2" font-family="Helvetica,sans-Serif" font-weight="bold" font-size="16.00" fill="#707070">Target Diagram</text>
<g id="clust1" class="cluster">
<title>cluster_aws</title>
<polygon fill="#f5f5f5" stroke="#f5f5f5" points="8,-8 8,-373 847,-373 847,-8 8,-8"/>
<text text-anchor="start" x="365.5" y="-23" font-family="Helvetica,sans-Serif" font-weight="bold" font-size="20.00" fill="#707070">Provider aws</text>
</g>
<g id="clust2" class="cluster">
<title>cluster_aws_</title>
<polygon fill="#eeeeee" stroke="#eeeeee" points="16,-54 16,-365 839,-365 839,-54 16,-54"/>
<text text-anchor="start" x="427.36" y="-58.3" font-family="Helvetica,sans-Serif" font-size="1.00" fill="#383838"> </text>
</g>
<!-- Vpc::my&#45;vpc -->
<g id="node1" class="node">
<title>Vpc::my&#45;vpc</title>
<polygon fill="#e5e5e5" stroke="#dddddd" points="783,-205 688,-205 688,-147 783,-147 783,-205"/>
<text text-anchor="start" x="700.5" y="-185.2" font-family="Helvetica,sans-Serif" font-weight="bold" font-size="16.00" fill="#707070">EC2::Vpc</text>
<text text-anchor="start" x="700.5" y="-160.2" font-family="Helvetica,sans-Serif" font-size="16.00" fill="#383838">my&#45;vpc</text>
</g>
<!-- InternetGateway::my&#45;nat&#45;gateway -->
<g id="node2" class="node">
<title>InternetGateway::my&#45;nat&#45;gateway</title>
<polygon fill="#e5e5e5" stroke="#dddddd" points="831,-357 640,-357 640,-299 831,-299 831,-357"/>
<text text-anchor="start" x="652.5" y="-337.2" font-family="Helvetica,sans-Serif" font-weight="bold" font-size="16.00" fill="#707070">EC2::InternetGateway</text>
<text text-anchor="start" x="652.5" y="-312.2" font-family="Helvetica,sans-Serif" font-size="16.00" fill="#383838">my&#45;nat&#45;gateway</text>
</g>
<!-- InternetGatewayAttachment::ig&#45;attach::my&#45;nat&#45;gateway::my&#45;vpc -->
<g id="node3" class="node">
<title>InternetGatewayAttachment::ig&#45;attach::my&#45;nat&#45;gateway::my&#45;vpc</title>
<polygon fill="#e5e5e5" stroke="#dddddd" points="604,-357 325,-357 325,-299 604,-299 604,-357"/>
<text text-anchor="start" x="337.5" y="-337.2" font-family="Helvetica,sans-Serif" font-weight="bold" font-size="16.00" fill="#707070">EC2::InternetGatewayAttachment</text>
<text text-anchor="start" x="337.5" y="-312.2" font-family="Helvetica,sans-Serif" font-size="16.00" fill="#383838">ig&#45;attach::my&#45;nat&#45;gateway::my&#45;vp...</text>
</g>
<!-- InternetGatewayAttachment::ig&#45;attach::my&#45;nat&#45;gateway::my&#45;vpc&#45;&gt;Vpc::my&#45;vpc -->
<g id="edge1" class="edge">
<title>InternetGatewayAttachment::ig&#45;attach::my&#45;nat&#45;gateway::my&#45;vpc&#45;&gt;Vpc::my&#45;vpc</title>
<path fill="none" stroke="#707070" d="M586.17,-298.52C592.31,-295.9 598.29,-293.07 604,-290 640.67,-270.3 675.82,-238.6 700.38,-213.62"/>
<polygon fill="#707070" stroke="#707070" points="702.81,-216.14 707.24,-206.52 697.78,-211.28 702.81,-216.14"/>
</g>
<!-- InternetGatewayAttachment::ig&#45;attach::my&#45;nat&#45;gateway::my&#45;vpc&#45;&gt;InternetGateway::my&#45;nat&#45;gateway -->
<g id="edge2" class="edge">
<title>InternetGatewayAttachment::ig&#45;attach::my&#45;nat&#45;gateway::my&#45;vpc&#45;&gt;InternetGateway::my&#45;nat&#45;gateway</title>
<path fill="none" stroke="#707070" d="M604.33,-328C612.36,-328 620.37,-328 628.24,-328"/>
<polygon fill="#707070" stroke="#707070" points="628.15,-331.5 638.15,-328 628.15,-324.5 628.15,-331.5"/>
</g>
<!-- NatGateway::my&#45;nat&#45;gateway -->
<g id="node4" class="node">
<title>NatGateway::my&#45;nat&#45;gateway</title>
<polygon fill="#e5e5e5" stroke="#dddddd" points="235.5,-243 77.5,-243 77.5,-185 235.5,-185 235.5,-243"/>
<text text-anchor="start" x="89.5" y="-223.2" font-family="Helvetica,sans-Serif" font-weight="bold" font-size="16.00" fill="#707070">EC2::NatGateway</text>
<text text-anchor="start" x="89.5" y="-198.2" font-family="Helvetica,sans-Serif" font-size="16.00" fill="#383838">my&#45;nat&#45;gateway</text>
</g>
<!-- Subnet::my&#45;vpc::subnet&#45;private -->
<g id="node5" class="node">
<title>Subnet::my&#45;vpc::subnet&#45;private</title>
<polygon fill="#e5e5e5" stroke="#dddddd" points="559,-205 370,-205 370,-147 559,-147 559,-205"/>
<text text-anchor="start" x="382.5" y="-185.2" font-family="Helvetica,sans-Serif" font-weight="bold" font-size="16.00" fill="#707070">EC2::Subnet</text>
<text text-anchor="start" x="382.5" y="-160.2" font-family="Helvetica,sans-Serif" font-size="16.00" fill="#383838">my&#45;vpc::subnet&#45;private</text>
</g>
<!-- NatGateway::my&#45;nat&#45;gateway&#45;&gt;Subnet::my&#45;vpc::subnet&#45;private -->
<g id="edge3" class="edge">
<title>NatGateway::my&#45;nat&#45;gateway&#45;&gt;Subnet::my&#45;vpc::subnet&#45;private</title>
<path fill="none" stroke="#707070" d="M235.91,-204.26C273.21,-199.63 318.36,-194.02 358.57,-189.03"/>
<polygon fill="#707070" stroke="#707070" points="358.78,-192.53 368.27,-187.83 357.91,-185.59 358.78,-192.53"/>
</g>
<!-- ElasticIpAddress::my&#45;ip -->
<g id="node8" class="node">
<title>ElasticIpAddress::my&#45;ip</title>
<polygon fill="#e5e5e5" stroke="#dddddd" points="562.5,-281 366.5,-281 366.5,-223 562.5,-223 562.5,-281"/>
<text text-anchor="start" x="378.5" y="-261.2" font-family="Helvetica,sans-Serif" font-weight="bold" font-size="16.00" fill="#707070">EC2::ElasticIpAddress</text>
<text text-anchor="start" x="378.5" y="-236.2" font-family="Helvetica,sans-Serif" font-size="16.00" fill="#383838">my&#45;ip</text>
</g>
<!-- NatGateway::my&#45;nat&#45;gateway&#45;&gt;ElasticIpAddress::my&#45;ip -->
<g id="edge4" class="edge">
<title>NatGateway::my&#45;nat&#45;gateway&#45;&gt;ElasticIpAddress::my&#45;ip</title>
<path fill="none" stroke="#707070" d="M235.91,-223.74C272.08,-228.23 315.63,-233.64 354.9,-238.51"/>
<polygon fill="#707070" stroke="#707070" points="354.27,-241.96 364.63,-239.72 355.13,-235.02 354.27,-241.96"/>
</g>
<!-- Subnet::my&#45;vpc::subnet&#45;private&#45;&gt;Vpc::my&#45;vpc -->
<g id="edge5" class="edge">
<title>Subnet::my&#45;vpc::subnet&#45;private&#45;&gt;Vpc::my&#45;vpc</title>
<path fill="none" stroke="#707070" d="M559.21,-176C598.17,-176 642.17,-176 676.35,-176"/>
<polygon fill="#707070" stroke="#707070" points="676.02,-179.5 686.02,-176 676.02,-172.5 676.02,-179.5"/>
</g>
<!-- RouteTable::my&#45;vpc::rtb&#45;1 -->
<g id="node6" class="node">
<title>RouteTable::my&#45;vpc::rtb&#45;1</title>
<polygon fill="#e5e5e5" stroke="#dddddd" points="540,-129 389,-129 389,-71 540,-71 540,-129"/>
<text text-anchor="start" x="401.5" y="-109.2" font-family="Helvetica,sans-Serif" font-weight="bold" font-size="16.00" fill="#707070">EC2::RouteTable</text>
<text text-anchor="start" x="401.5" y="-84.2" font-family="Helvetica,sans-Serif" font-size="16.00" fill="#383838">my&#45;vpc::rtb&#45;1</text>
</g>
<!-- RouteTable::my&#45;vpc::rtb&#45;1&#45;&gt;Vpc::my&#45;vpc -->
<g id="edge6" class="edge">
<title>RouteTable::my&#45;vpc::rtb&#45;1&#45;&gt;Vpc::my&#45;vpc</title>
<path fill="none" stroke="#707070" d="M540.31,-120.3C560.97,-125.96 583.37,-132.17 604,-138 627.9,-144.76 654.22,-152.39 676.91,-159.02"/>
<polygon fill="#707070" stroke="#707070" points="675.71,-162.32 686.29,-161.77 677.67,-155.6 675.71,-162.32"/>
</g>
<!-- RouteTableAssociation::rt&#45;assoc::my&#45;vpc::rtb&#45;1::my&#45;vpc::subnet&#45;private -->
<g id="node7" class="node">
<title>RouteTableAssociation::rt&#45;assoc::my&#45;vpc::rtb&#45;1::my&#45;vpc::subnet&#45;private</title>
<polygon fill="#e5e5e5" stroke="#dddddd" points="289,-167 24,-167 24,-109 289,-109 289,-167"/>
<text text-anchor="start" x="36.5" y="-147.2" font-family="Helvetica,sans-Serif" font-weight="bold" font-size="16.00" fill="#707070">EC2::RouteTableAssociation</text>
<text text-anchor="start" x="36.5" y="-122.2" font-family="Helvetica,sans-Serif" font-size="16.00" fill="#383838">rt&#45;assoc::my&#45;vpc::rtb&#45;1::my&#45;vpc:...</text>
</g>
<!-- RouteTableAssociation::rt&#45;assoc::my&#45;vpc::rtb&#45;1::my&#45;vpc::subnet&#45;private&#45;&gt;Subnet::my&#45;vpc::subnet&#45;private -->
<g id="edge8" class="edge">
<title>RouteTableAssociation::rt&#45;assoc::my&#45;vpc::rtb&#45;1::my&#45;vpc::subnet&#45;private&#45;&gt;Subnet::my&#45;vpc::subnet&#45;private</title>
<path fill="none" stroke="#707070" d="M289.49,-154.39C312.6,-157.26 336.36,-160.21 358.61,-162.97"/>
<polygon fill="#707070" stroke="#707070" points="357.89,-166.41 368.25,-164.17 358.75,-159.47 357.89,-166.41"/>
</g>
<!-- RouteTableAssociation::rt&#45;assoc::my&#45;vpc::rtb&#45;1::my&#45;vpc::subnet&#45;private&#45;&gt;RouteTable::my&#45;vpc::rtb&#45;1 -->
<g id="edge7" class="edge">
<title>RouteTableAssociation::rt&#45;assoc::my&#45;vpc::rtb&#45;1::my&#45;vpc::subnet&#45;private&#45;&gt;RouteTable::my&#45;vpc::rtb&#45;1</title>
<path fill="none" stroke="#707070" d="M289.49,-121.61C319.35,-117.9 350.29,-114.06 377.66,-110.66"/>
<polygon fill="#707070" stroke="#707070" points="377.76,-114.17 387.25,-109.47 376.9,-107.23 377.76,-114.17"/>
</g>
</g>
</svg>
