<?xml version="1.0" encoding="UTF-8" standalone="no"?>
<!DOCTYPE svg PUBLIC "-//W3C//DTD SVG 1.1//EN"
 "http://www.w3.org/Graphics/SVG/1.1/DTD/svg11.dtd">
<!-- Generated by graphviz version 6.0.0 (20220910.1538)
 -->
<!-- Title: graphname Pages: 1 -->
<svg width="348pt" height="237pt"
 viewBox="0.00 0.00 348.00 237.00" xmlns="http://www.w3.org/2000/svg" xmlns:xlink="http://www.w3.org/1999/xlink">
<g id="graph0" class="graph" transform="scale(1 1) rotate(0) translate(4 233)">
<title>graphname</title>
<polygon fill="#fafafa" stroke="none" points="-4,4 -4,-233 344,-233 344,4 -4,4"/>
<text text-anchor="start" x="12" y="-204.4" font-family="Helvetica,sans-Serif" font-weight="bold" font-size="22.00" fill="#383838">Project accessanalyzer&#45;simple</text>
<text text-anchor="start" x="166" y="-188.8" font-family="Helvetica,sans-Serif" font-size="14.00"> &#160;</text>
<text text-anchor="start" x="12" y="-167.2" font-family="Helvetica,sans-Serif" font-weight="bold" font-size="16.00" fill="#707070">Target Diagram</text>
<g id="clust1" class="cluster">
<title>cluster_aws</title>
<polygon fill="#f5f5f5" stroke="#f5f5f5" points="46,-8 46,-145 294,-145 294,-8 46,-8"/>
<text text-anchor="start" x="108" y="-23" font-family="Helvetica,sans-Serif" font-weight="bold" font-size="20.00" fill="#707070">Provider aws</text>
</g>
<g id="clust2" class="cluster">
<title>cluster_aws_</title>
<polygon fill="#eeeeee" stroke="#eeeeee" points="54,-54 54,-137 286,-137 286,-54 54,-54"/>
<text text-anchor="start" x="169.86" y="-58.3" font-family="Helvetica,sans-Serif" font-size="1.00" fill="#383838"> </text>
</g>
<!-- Analyzer::ConsoleAnalyzer -->
<g id="node1" class="node">
<title>Analyzer::ConsoleAnalyzer</title>
<polygon fill="#e5e5e5" stroke="#dddddd" points="278,-129 62,-129 62,-71 278,-71 278,-129"/>
<text text-anchor="start" x="74" y="-109.2" font-family="Helvetica,sans-Serif" font-weight="bold" font-size="16.00" fill="#707070">AcessAnalyzer::Analyzer</text>
<text text-anchor="start" x="74" y="-84.2" font-family="Helvetica,sans-Serif" font-size="16.00" fill="#383838">ConsoleAnalyzer</text>
</g>
</g>
</svg>
