<?xml version="1.0" encoding="UTF-8" standalone="no"?><svg xmlns="http://www.w3.org/2000/svg" xmlns:xlink="http://www.w3.org/1999/xlink" contentStyleType="text/css" height="228px" preserveAspectRatio="none" style="width:523px;height:228px;background:#FFFFFF;" version="1.1" viewBox="0 0 523 228" width="523px" zoomAndPan="magnify"><defs/><g><rect height="26.4883" style="stroke:#00000000;stroke-width:1.0;fill:none;" width="479" x="15" y="15"/><text fill="#000000" font-family="sans-serif" font-size="14" font-weight="bold" lengthAdjust="spacing" textLength="469" x="20" y="33.5352">Resources for project lambda-secretsmanager-node-sdkv3-sam</text><rect fill="#F1F1F1" height="36.4883" rx="12.5" ry="12.5" style="stroke:#181818;stroke-width:1.5;" width="52" x="49" y="113.9766"/><text fill="#000000" font-family="sans-serif" font-size="14" lengthAdjust="spacing" textLength="32" x="59" y="137.5117">Infra</text><rect fill="#F1F1F1" height="36.4883" rx="12.5" ry="12.5" style="stroke:#181818;stroke-width:1.5;" width="46" x="151" y="113.9766"/><text fill="#000000" font-family="sans-serif" font-size="14" lengthAdjust="spacing" textLength="26" x="161" y="137.5117">aws</text><rect fill="#F1F1F1" height="36.4883" rx="12.5" ry="12.5" style="stroke:#181818;stroke-width:1.5;" width="46" x="247" y="57.4883"/><text fill="#000000" font-family="sans-serif" font-size="14" lengthAdjust="spacing" textLength="26" x="257" y="81.0234">IAM</text><rect fill="#F1F1F1" height="36.4883" rx="12.5" ry="12.5" style="stroke:#181818;stroke-width:1.5;" width="73" x="343" y="57.4883"/><text fill="#000000" font-family="sans-serif" font-size="14" lengthAdjust="spacing" textLength="53" x="353" y="81.0234">Role (1)</text><path d="M293,75.7324 L303,75.7324 C318,75.7324 318,75.7324 333,75.7324 L343,75.7324 " fill="none" style="stroke:#181818;stroke-width:1.0;"/><path d="M197,132.2207 L207,132.2207 C222,132.2207 222,75.7324 237,75.7324 L247,75.7324 " fill="none" style="stroke:#181818;stroke-width:1.0;"/><rect fill="#F1F1F1" height="36.4883" rx="12.5" ry="12.5" style="stroke:#181818;stroke-width:1.5;" width="74" x="247" y="113.9766"/><text fill="#000000" font-family="sans-serif" font-size="14" lengthAdjust="spacing" textLength="54" x="257" y="137.5117">Lambda</text><rect fill="#F1F1F1" height="36.4883" rx="12.5" ry="12.5" style="stroke:#181818;stroke-width:1.5;" width="103" x="371" y="113.9766"/><text fill="#000000" font-family="sans-serif" font-size="14" lengthAdjust="spacing" textLength="83" x="381" y="137.5117">Function (1)</text><path d="M321,132.2207 L331,132.2207 C346,132.2207 346,132.2207 361,132.2207 L371,132.2207 " fill="none" style="stroke:#181818;stroke-width:1.0;"/><path d="M197,132.2207 L207,132.2207 C222,132.2207 222,132.2207 237,132.2207 L247,132.2207 " fill="none" style="stroke:#181818;stroke-width:1.0;"/><rect fill="#F1F1F1" height="36.4883" rx="12.5" ry="12.5" style="stroke:#181818;stroke-width:1.5;" width="129" x="247" y="170.4648"/><text fill="#000000" font-family="sans-serif" font-size="14" lengthAdjust="spacing" textLength="109" x="257" y="194">SecretsManager</text><rect fill="#F1F1F1" height="36.4883" rx="12.5" ry="12.5" style="stroke:#181818;stroke-width:1.5;" width="85" x="426" y="170.4648"/><text fill="#000000" font-family="sans-serif" font-size="14" lengthAdjust="spacing" textLength="65" x="436" y="194">Secret (1)</text><path d="M376,188.709 L386,188.709 C401,188.709 401,188.709 416,188.709 L426,188.709 " fill="none" style="stroke:#181818;stroke-width:1.0;"/><path d="M197,132.2207 L207,132.2207 C222,132.2207 222,188.709 237,188.709 L247,188.709 " fill="none" style="stroke:#181818;stroke-width:1.0;"/><path d="M101,132.2207 L111,132.2207 C126,132.2207 126,132.2207 141,132.2207 L151,132.2207 " fill="none" style="stroke:#181818;stroke-width:1.0;"/><!--MD5=[fb626c057010cdcf7d668ef1e206756e]
@startmindmap
title Resources for project lambda-secretsmanager-node-sdkv3-sam
skinparam monochrome true
+ Infra
++ aws
+++ IAM
++++ Role (1)
+++ Lambda
++++ Function (1)
+++ SecretsManager
++++ Secret (1)
@endmindmap

PlantUML version 1.2022.6(Tue Jun 21 12:34:49 COT 2022)
(GPL source distribution)
Java Runtime: Java(TM) SE Runtime Environment
JVM: Java HotSpot(TM) 64-Bit Server VM
Default Encoding: UTF-8
Language: en
Country: GB
--></g></svg>