<?xml version="1.0" encoding="UTF-8" standalone="no"?>
<!DOCTYPE svg PUBLIC "-//W3C//DTD SVG 1.1//EN"
 "http://www.w3.org/Graphics/SVG/1.1/DTD/svg11.dtd">
<!-- Generated by graphviz version 3.0.0 (20220226.1711)
 -->
<!-- Title: graphname Pages: 1 -->
<svg width="605pt" height="237pt"
 viewBox="0.00 0.00 605.00 237.00" xmlns="http://www.w3.org/2000/svg" xmlns:xlink="http://www.w3.org/1999/xlink">
<g id="graph0" class="graph" transform="scale(1 1) rotate(0) translate(4 233)">
<title>graphname</title>
<polygon fill="#fafafa" stroke="transparent" points="-4,4 -4,-233 601,-233 601,4 -4,4"/>
<text text-anchor="start" x="170.5" y="-204.4" font-family="Helvetica,sans-Serif" font-weight="bold" font-size="22.00" fill="#383838">Project cloudtrail&#45;simple</text>
<text text-anchor="start" x="294.5" y="-188.8" font-family="Helvetica,sans-Serif" font-size="14.00"> &#160;</text>
<text text-anchor="start" x="170.5" y="-167.2" font-family="Helvetica,sans-Serif" font-weight="bold" font-size="16.00" fill="#707070">Target Diagram</text>
<g id="clust1" class="cluster">
<title>cluster_aws</title>
<polygon fill="#f5f5f5" stroke="#f5f5f5" points="8,-8 8,-145 589,-145 589,-8 8,-8"/>
<text text-anchor="start" x="236.5" y="-23" font-family="Helvetica,sans-Serif" font-weight="bold" font-size="20.00" fill="#707070">Provider aws</text>
</g>
<g id="clust2" class="cluster">
<title>cluster_aws_</title>
<polygon fill="#eeeeee" stroke="#eeeeee" points="16,-54 16,-137 581,-137 581,-54 16,-54"/>
<text text-anchor="start" x="298.36" y="-58.3" font-family="Helvetica,sans-Serif" font-size="1.00" fill="#383838"> </text>
</g>
<!-- Trail::CloudTrailForS3ImagePushEvents -->
<g id="node1" class="node">
<title>Trail::CloudTrailForS3ImagePushEvents</title>
<polygon fill="#e5e5e5" stroke="#dddddd" points="297,-129 24,-129 24,-71 297,-71 297,-129"/>
<text text-anchor="start" x="36.5" y="-109.2" font-family="Helvetica,sans-Serif" font-weight="bold" font-size="16.00" fill="#707070">CloudTrail::Trail</text>
<text text-anchor="start" x="36.5" y="-84.2" font-family="Helvetica,sans-Serif" font-size="16.00" fill="#383838">CloudTrailForS3ImagePushEvents</text>
</g>
<!-- Bucket::grucloud&#45;s3&#45;event&#45;bridge&#45;logs -->
<g id="node2" class="node">
<title>Bucket::grucloud&#45;s3&#45;event&#45;bridge&#45;logs</title>
<polygon fill="#e5e5e5" stroke="#dddddd" points="573,-129 333,-129 333,-71 573,-71 573,-129"/>
<text text-anchor="start" x="345" y="-109.2" font-family="Helvetica,sans-Serif" font-weight="bold" font-size="16.00" fill="#707070">S3::Bucket</text>
<text text-anchor="start" x="345" y="-84.2" font-family="Helvetica,sans-Serif" font-size="16.00" fill="#383838">grucloud&#45;s3&#45;event&#45;bridge&#45;logs</text>
</g>
<!-- Trail::CloudTrailForS3ImagePushEvents&#45;&gt;Bucket::grucloud&#45;s3&#45;event&#45;bridge&#45;logs -->
<g id="edge1" class="edge">
<title>Trail::CloudTrailForS3ImagePushEvents&#45;&gt;Bucket::grucloud&#45;s3&#45;event&#45;bridge&#45;logs</title>
<path fill="none" stroke="#707070" d="M297.39,-100C305.79,-100 314.23,-100 322.6,-100"/>
<polygon fill="#707070" stroke="#707070" points="322.77,-103.5 332.77,-100 322.77,-96.5 322.77,-103.5"/>
</g>
</g>
</svg>
