<?xml version="1.0" encoding="UTF-8" standalone="no"?>
<!DOCTYPE svg PUBLIC "-//W3C//DTD SVG 1.1//EN"
 "http://www.w3.org/Graphics/SVG/1.1/DTD/svg11.dtd">
<!-- Generated by graphviz version 3.0.0 (20220226.1711)
 -->
<!-- Title: graphname Pages: 1 -->
<svg width="1016pt" height="505pt"
 viewBox="0.00 0.00 1016.00 505.00" xmlns="http://www.w3.org/2000/svg" xmlns:xlink="http://www.w3.org/1999/xlink">
<g id="graph0" class="graph" transform="scale(1 1) rotate(0) translate(4 501)">
<title>graphname</title>
<polygon fill="#fafafa" stroke="transparent" points="-4,4 -4,-501 1012,-501 1012,4 -4,4"/>
<text text-anchor="start" x="272" y="-472.4" font-family="Helvetica,sans-Serif" font-weight="bold" font-size="22.00" fill="#383838">Project apigw&#45;http&#45;api&#45;eventbridge&#45;grucloud</text>
<text text-anchor="start" x="500" y="-456.8" font-family="Helvetica,sans-Serif" font-size="14.00"> &#160;</text>
<text text-anchor="start" x="272" y="-435.2" font-family="Helvetica,sans-Serif" font-weight="bold" font-size="16.00" fill="#707070">Target Diagram</text>
<g id="clust1" class="cluster">
<title>cluster_aws</title>
<polygon fill="#f5f5f5" stroke="#f5f5f5" points="8,-8 8,-413 1000,-413 1000,-8 8,-8"/>
<text text-anchor="start" x="442" y="-23" font-family="Helvetica,sans-Serif" font-weight="bold" font-size="20.00" fill="#707070">Provider aws</text>
</g>
<g id="clust2" class="cluster">
<title>cluster_aws_</title>
<polygon fill="#eeeeee" stroke="#eeeeee" points="16,-54 16,-405 992,-405 992,-54 16,-54"/>
<text text-anchor="start" x="503.86" y="-58.3" font-family="Helvetica,sans-Serif" font-size="1.00" fill="#383838"> </text>
</g>
<!-- Api::MyHttpApi -->
<g id="node1" class="node">
<title>Api::MyHttpApi</title>
<polygon fill="#e5e5e5" stroke="#dddddd" points="890.5,-357 791.5,-357 791.5,-299 890.5,-299 890.5,-357"/>
<text text-anchor="start" x="804" y="-337.2" font-family="Helvetica,sans-Serif" font-weight="bold" font-size="16.00" fill="#707070">Api</text>
<text text-anchor="start" x="804" y="-312.2" font-family="Helvetica,sans-Serif" font-size="16.00" fill="#383838">MyHttpApi</text>
</g>
<!-- Stage::$default -->
<g id="node2" class="node">
<title>Stage::$default</title>
<polygon fill="#e5e5e5" stroke="#dddddd" points="552.5,-397 470.5,-397 470.5,-339 552.5,-339 552.5,-397"/>
<text text-anchor="start" x="482.5" y="-377.2" font-family="Helvetica,sans-Serif" font-weight="bold" font-size="16.00" fill="#707070">Stage</text>
<text text-anchor="start" x="482.5" y="-352.2" font-family="Helvetica,sans-Serif" font-size="16.00" fill="#383838">$default</text>
</g>
<!-- Stage::$default&#45;&gt;Api::MyHttpApi -->
<g id="edge1" class="edge">
<title>Stage::$default&#45;&gt;Api::MyHttpApi</title>
<path fill="none" stroke="#707070" d="M552.66,-363.1C609.81,-356.11 714.98,-343.27 781,-335.21"/>
<polygon fill="#707070" stroke="#707070" points="781.74,-338.64 791.25,-333.95 780.9,-331.69 781.74,-338.64"/>
</g>
<!-- Integration::integration::MyHttpApi::MyEventBus -->
<g id="node3" class="node">
<title>Integration::integration::MyHttpApi::MyEventBus</title>
<polygon fill="#e5e5e5" stroke="#dddddd" points="651.5,-281 371.5,-281 371.5,-223 651.5,-223 651.5,-281"/>
<text text-anchor="start" x="383.5" y="-261.2" font-family="Helvetica,sans-Serif" font-weight="bold" font-size="16.00" fill="#707070">Integration</text>
<text text-anchor="start" x="383.5" y="-236.2" font-family="Helvetica,sans-Serif" font-size="16.00" fill="#383838">integration::MyHttpApi::MyEventB...</text>
</g>
<!-- Integration::integration::MyHttpApi::MyEventBus&#45;&gt;Api::MyHttpApi -->
<g id="edge2" class="edge">
<title>Integration::integration::MyHttpApi::MyEventBus&#45;&gt;Api::MyHttpApi</title>
<path fill="none" stroke="#707070" d="M637.72,-281.06C687.16,-292.53 741.57,-305.16 781.49,-314.42"/>
<polygon fill="#707070" stroke="#707070" points="780.79,-317.85 791.32,-316.7 782.37,-311.03 780.79,-317.85"/>
</g>
<!-- EventBus::MyEventBus -->
<g id="node6" class="node">
<title>EventBus::MyEventBus</title>
<polygon fill="#e5e5e5" stroke="#dddddd" points="898.5,-205 783.5,-205 783.5,-147 898.5,-147 898.5,-205"/>
<text text-anchor="start" x="796" y="-185.2" font-family="Helvetica,sans-Serif" font-weight="bold" font-size="16.00" fill="#707070">EventBus</text>
<text text-anchor="start" x="796" y="-160.2" font-family="Helvetica,sans-Serif" font-size="16.00" fill="#383838">MyEventBus</text>
</g>
<!-- Integration::integration::MyHttpApi::MyEventBus&#45;&gt;EventBus::MyEventBus -->
<g id="edge3" class="edge">
<title>Integration::integration::MyHttpApi::MyEventBus&#45;&gt;EventBus::MyEventBus</title>
<path fill="none" stroke="#707070" d="M637.72,-222.94C683.8,-212.25 734.2,-200.55 773.16,-191.51"/>
<polygon fill="#707070" stroke="#707070" points="774.37,-194.82 783.32,-189.15 772.79,-188 774.37,-194.82"/>
</g>
<!-- Role::ApiEventbridgeStack&#45;EventBridgeIntegrationRoleB322&#45;V1AK3L262GGK -->
<g id="node10" class="node">
<title>Role::ApiEventbridgeStack&#45;EventBridgeIntegrationRoleB322&#45;V1AK3L262GGK</title>
<polygon fill="#e5e5e5" stroke="#dddddd" points="984,-281 698,-281 698,-223 984,-223 984,-281"/>
<text text-anchor="start" x="710" y="-261.2" font-family="Helvetica,sans-Serif" font-weight="bold" font-size="16.00" fill="#707070">Role</text>
<text text-anchor="start" x="710" y="-236.2" font-family="Helvetica,sans-Serif" font-size="16.00" fill="#383838">ApiEventbridgeStack&#45;EventBridgeI...</text>
</g>
<!-- Integration::integration::MyHttpApi::MyEventBus&#45;&gt;Role::ApiEventbridgeStack&#45;EventBridgeIntegrationRoleB322&#45;V1AK3L262GGK -->
<g id="edge4" class="edge">
<title>Integration::integration::MyHttpApi::MyEventBus&#45;&gt;Role::ApiEventbridgeStack&#45;EventBridgeIntegrationRoleB322&#45;V1AK3L262GGK</title>
<path fill="none" stroke="#707070" d="M651.86,-252C663.77,-252 675.84,-252 687.84,-252"/>
<polygon fill="#707070" stroke="#707070" points="687.89,-255.5 697.89,-252 687.89,-248.5 687.89,-255.5"/>
</g>
<!-- Route::route::MyHttpApi::POST / -->
<g id="node4" class="node">
<title>Route::route::MyHttpApi::POST /</title>
<polygon fill="#e5e5e5" stroke="#dddddd" points="277.5,-291 71.5,-291 71.5,-233 277.5,-233 277.5,-291"/>
<text text-anchor="start" x="83.5" y="-271.2" font-family="Helvetica,sans-Serif" font-weight="bold" font-size="16.00" fill="#707070">Route</text>
<text text-anchor="start" x="83.5" y="-246.2" font-family="Helvetica,sans-Serif" font-size="16.00" fill="#383838">route::MyHttpApi::POST /</text>
</g>
<!-- Route::route::MyHttpApi::POST /&#45;&gt;Api::MyHttpApi -->
<g id="edge5" class="edge">
<title>Route::route::MyHttpApi::POST /&#45;&gt;Api::MyHttpApi</title>
<path fill="none" stroke="#707070" d="M277.87,-278.77C304.85,-282.83 333.98,-286.89 361,-290 512.02,-307.37 690.75,-319.26 781.22,-324.68"/>
<polygon fill="#707070" stroke="#707070" points="781.09,-328.18 791.27,-325.28 781.5,-321.19 781.09,-328.18"/>
</g>
<!-- Route::route::MyHttpApi::POST /&#45;&gt;Integration::integration::MyHttpApi::MyEventBus -->
<g id="edge6" class="edge">
<title>Route::route::MyHttpApi::POST /&#45;&gt;Integration::integration::MyHttpApi::MyEventBus</title>
<path fill="none" stroke="#707070" d="M277.83,-258.95C304.14,-258.16 332.98,-257.3 361.14,-256.46"/>
<polygon fill="#707070" stroke="#707070" points="361.58,-259.95 371.47,-256.15 361.37,-252.95 361.58,-259.95"/>
</g>
<!-- Deployment::deployment::MyHttpApi -->
<g id="node5" class="node">
<title>Deployment::deployment::MyHttpApi</title>
<polygon fill="#e5e5e5" stroke="#dddddd" points="270.5,-387 78.5,-387 78.5,-329 270.5,-329 270.5,-387"/>
<text text-anchor="start" x="90.5" y="-367.2" font-family="Helvetica,sans-Serif" font-weight="bold" font-size="16.00" fill="#707070">Deployment</text>
<text text-anchor="start" x="90.5" y="-342.2" font-family="Helvetica,sans-Serif" font-size="16.00" fill="#383838">deployment::MyHttpApi</text>
</g>
<!-- Deployment::deployment::MyHttpApi&#45;&gt;Api::MyHttpApi -->
<g id="edge7" class="edge">
<title>Deployment::deployment::MyHttpApi&#45;&gt;Api::MyHttpApi</title>
<path fill="none" stroke="#707070" d="M270.52,-340.94C299.47,-336.48 331.45,-332.28 361,-330 512.09,-318.34 690.79,-322.27 781.23,-325.5"/>
<polygon fill="#707070" stroke="#707070" points="781.17,-329 791.29,-325.87 781.43,-322 781.17,-329"/>
</g>
<!-- Deployment::deployment::MyHttpApi&#45;&gt;Stage::$default -->
<g id="edge8" class="edge">
<title>Deployment::deployment::MyHttpApi&#45;&gt;Stage::$default</title>
<path fill="none" stroke="#707070" d="M270.6,-360.84C332.18,-362.68 409.93,-365 459.94,-366.49"/>
<polygon fill="#707070" stroke="#707070" points="460.07,-370 470.17,-366.8 460.28,-363 460.07,-370"/>
</g>
<!-- Rule::ApiEventbridgeStack&#45;EventLoggerRuleC0DD3E40&#45;J60T1BNGR6C6 -->
<g id="node7" class="node">
<title>Rule::ApiEventbridgeStack&#45;EventLoggerRuleC0DD3E40&#45;J60T1BNGR6C6</title>
<polygon fill="#e5e5e5" stroke="#dddddd" points="659.5,-205 363.5,-205 363.5,-147 659.5,-147 659.5,-205"/>
<text text-anchor="start" x="375.5" y="-185.2" font-family="Helvetica,sans-Serif" font-weight="bold" font-size="16.00" fill="#707070">Rule</text>
<text text-anchor="start" x="375.5" y="-160.2" font-family="Helvetica,sans-Serif" font-size="16.00" fill="#383838">ApiEventbridgeStack&#45;EventLoggerR...</text>
</g>
<!-- Rule::ApiEventbridgeStack&#45;EventLoggerRuleC0DD3E40&#45;J60T1BNGR6C6&#45;&gt;EventBus::MyEventBus -->
<g id="edge9" class="edge">
<title>Rule::ApiEventbridgeStack&#45;EventLoggerRuleC0DD3E40&#45;J60T1BNGR6C6&#45;&gt;EventBus::MyEventBus</title>
<path fill="none" stroke="#707070" d="M659.96,-176C699.49,-176 740.29,-176 773.04,-176"/>
<polygon fill="#707070" stroke="#707070" points="773.38,-179.5 783.38,-176 773.38,-172.5 773.38,-179.5"/>
</g>
<!-- LogGroup::/aws/events/MyEventBus -->
<g id="node8" class="node">
<title>LogGroup::/aws/events/MyEventBus</title>
<polygon fill="#e5e5e5" stroke="#dddddd" points="277,-215 72,-215 72,-157 277,-157 277,-215"/>
<text text-anchor="start" x="84.5" y="-195.2" font-family="Helvetica,sans-Serif" font-weight="bold" font-size="16.00" fill="#707070">LogGroup</text>
<text text-anchor="start" x="84.5" y="-170.2" font-family="Helvetica,sans-Serif" font-size="16.00" fill="#383838">/aws/events/MyEventBus</text>
</g>
<!-- Role::ApiEventbridgeStack&#45;AWS679f53fac002430cb0da5b7982b&#45;4YDZM1JYBBAN -->
<g id="node9" class="node">
<title>Role::ApiEventbridgeStack&#45;AWS679f53fac002430cb0da5b7982b&#45;4YDZM1JYBBAN</title>
<polygon fill="#e5e5e5" stroke="#dddddd" points="662,-129 361,-129 361,-71 662,-71 662,-129"/>
<text text-anchor="start" x="373.5" y="-109.2" font-family="Helvetica,sans-Serif" font-weight="bold" font-size="16.00" fill="#707070">Role</text>
<text text-anchor="start" x="373.5" y="-84.2" font-family="Helvetica,sans-Serif" font-size="16.00" fill="#383838">ApiEventbridgeStack&#45;AWS679f53fac...</text>
</g>
<!-- Function::ApiEventbridgeStack&#45;AWS679f53fac002430cb0da5b7982b&#45;WT09pJuMy2gE -->
<g id="node11" class="node">
<title>Function::ApiEventbridgeStack&#45;AWS679f53fac002430cb0da5b7982b&#45;WT09pJuMy2gE</title>
<polygon fill="#e5e5e5" stroke="#dddddd" points="325,-129 24,-129 24,-71 325,-71 325,-129"/>
<text text-anchor="start" x="36.5" y="-109.2" font-family="Helvetica,sans-Serif" font-weight="bold" font-size="16.00" fill="#707070">Function</text>
<text text-anchor="start" x="36.5" y="-84.2" font-family="Helvetica,sans-Serif" font-size="16.00" fill="#383838">ApiEventbridgeStack&#45;AWS679f53fac...</text>
</g>
<!-- Function::ApiEventbridgeStack&#45;AWS679f53fac002430cb0da5b7982b&#45;WT09pJuMy2gE&#45;&gt;Role::ApiEventbridgeStack&#45;AWS679f53fac002430cb0da5b7982b&#45;4YDZM1JYBBAN -->
<g id="edge10" class="edge">
<title>Function::ApiEventbridgeStack&#45;AWS679f53fac002430cb0da5b7982b&#45;WT09pJuMy2gE&#45;&gt;Role::ApiEventbridgeStack&#45;AWS679f53fac002430cb0da5b7982b&#45;4YDZM1JYBBAN</title>
<path fill="none" stroke="#707070" d="M325.36,-100C333.72,-100 342.14,-100 350.54,-100"/>
<polygon fill="#707070" stroke="#707070" points="350.76,-103.5 360.76,-100 350.76,-96.5 350.76,-103.5"/>
</g>
</g>
</svg>
