<?xml version="1.0" encoding="UTF-8" standalone="no"?>
<!DOCTYPE svg PUBLIC "-//W3C//DTD SVG 1.1//EN"
 "http://www.w3.org/Graphics/SVG/1.1/DTD/svg11.dtd">
<!-- Generated by graphviz version 7.1.0 (20230121.1956)
 -->
<!-- Title: graphname Pages: 1 -->
<svg width="1284pt" height="313pt"
 viewBox="0.00 0.00 1284.00 313.00" xmlns="http://www.w3.org/2000/svg" xmlns:xlink="http://www.w3.org/1999/xlink">
<g id="graph0" class="graph" transform="scale(1 1) rotate(0) translate(4 309)">
<title>graphname</title>
<polygon fill="#fafafa" stroke="none" points="-4,4 -4,-309 1280,-309 1280,4 -4,4"/>
<text text-anchor="start" x="504" y="-280.4" font-family="Helvetica,sans-Serif" font-weight="bold" font-size="22.00" fill="#383838">Project scheduler&#45;lambda</text>
<text text-anchor="start" x="634" y="-264.8" font-family="Helvetica,sans-Serif" font-size="14.00"> &#160;</text>
<text text-anchor="start" x="504" y="-243.2" font-family="Helvetica,sans-Serif" font-weight="bold" font-size="16.00" fill="#707070">Target Diagram</text>
<g id="clust1" class="cluster">
<title>cluster_aws</title>
<polygon fill="#f5f5f5" stroke="#f5f5f5" points="8,-8 8,-221 1268,-221 1268,-8 8,-8"/>
<text text-anchor="start" x="576" y="-23" font-family="Helvetica,sans-Serif" font-weight="bold" font-size="20.00" fill="#707070">Provider aws</text>
</g>
<g id="clust2" class="cluster">
<title>cluster_aws_</title>
<polygon fill="#eeeeee" stroke="#eeeeee" points="16,-54 16,-213 1260,-213 1260,-54 16,-54"/>
<text text-anchor="start" x="637.86" y="-58.3" font-family="Helvetica,sans-Serif" font-size="1.00" fill="#383838"> </text>
</g>
<!-- Role::Amazon_EventBridge_Scheduler_LAMBDA_d6db1d2ad4 -->
<g id="node1" class="node">
<title>Role::Amazon_EventBridge_Scheduler_LAMBDA_d6db1d2ad4</title>
<polygon fill="#e5e5e5" stroke="#dddddd" points="562,-129 244,-129 244,-71 562,-71 562,-129"/>
<text text-anchor="start" x="256" y="-109.2" font-family="Helvetica,sans-Serif" font-weight="bold" font-size="16.00" fill="#707070">IAM::Role</text>
<text text-anchor="start" x="256" y="-84.2" font-family="Helvetica,sans-Serif" font-size="16.00" fill="#383838">Amazon_EventBridge_Scheduler_LAM...</text>
</g>
<!-- Policy::Amazon&#45;EventBridge&#45;Scheduler&#45;Execution&#45;Policy&#45;3a54c973&#45;3820&#45;47e3&#45;a9f5&#45;01148ae3aa27 -->
<g id="node3" class="node">
<title>Policy::Amazon&#45;EventBridge&#45;Scheduler&#45;Execution&#45;Policy&#45;3a54c973&#45;3820&#45;47e3&#45;a9f5&#45;01148ae3aa27</title>
<polygon fill="#e5e5e5" stroke="#dddddd" points="899,-129 598,-129 598,-71 899,-71 899,-129"/>
<text text-anchor="start" x="610.5" y="-109.2" font-family="Helvetica,sans-Serif" font-weight="bold" font-size="16.00" fill="#707070">IAM::Policy</text>
<text text-anchor="start" x="610.5" y="-84.2" font-family="Helvetica,sans-Serif" font-size="16.00" fill="#383838">Amazon&#45;EventBridge&#45;Scheduler&#45;Exe...</text>
</g>
<!-- Role::Amazon_EventBridge_Scheduler_LAMBDA_d6db1d2ad4&#45;&gt;Policy::Amazon&#45;EventBridge&#45;Scheduler&#45;Execution&#45;Policy&#45;3a54c973&#45;3820&#45;47e3&#45;a9f5&#45;01148ae3aa27 -->
<g id="edge1" class="edge">
<title>Role::Amazon_EventBridge_Scheduler_LAMBDA_d6db1d2ad4&#45;&gt;Policy::Amazon&#45;EventBridge&#45;Scheduler&#45;Execution&#45;Policy&#45;3a54c973&#45;3820&#45;47e3&#45;a9f5&#45;01148ae3aa27</title>
<path fill="none" stroke="#707070" d="M562.43,-100C570.29,-100 578.19,-100 586.06,-100"/>
<polygon fill="#707070" stroke="#707070" points="586.04,-103.5 596.04,-100 586.04,-96.5 586.04,-103.5"/>
</g>
<!-- Role::mylambda&#45;role&#45;9ogx9vwe -->
<g id="node2" class="node">
<title>Role::mylambda&#45;role&#45;9ogx9vwe</title>
<polygon fill="#e5e5e5" stroke="#dddddd" points="853.5,-205 643.5,-205 643.5,-147 853.5,-147 853.5,-205"/>
<text text-anchor="start" x="655.5" y="-185.2" font-family="Helvetica,sans-Serif" font-weight="bold" font-size="16.00" fill="#707070">IAM::Role</text>
<text text-anchor="start" x="655.5" y="-160.2" font-family="Helvetica,sans-Serif" font-size="16.00" fill="#383838">mylambda&#45;role&#45;9ogx9vwe</text>
</g>
<!-- Policy::AWSLambdaBasicExecutionRole&#45;2c60bc7b&#45;a716&#45;4df4&#45;8688&#45;f7237aa45ae7 -->
<g id="node4" class="node">
<title>Policy::AWSLambdaBasicExecutionRole&#45;2c60bc7b&#45;a716&#45;4df4&#45;8688&#45;f7237aa45ae7</title>
<polygon fill="#e5e5e5" stroke="#dddddd" points="1252,-205 935,-205 935,-147 1252,-147 1252,-205"/>
<text text-anchor="start" x="947.5" y="-185.2" font-family="Helvetica,sans-Serif" font-weight="bold" font-size="16.00" fill="#707070">IAM::Policy</text>
<text text-anchor="start" x="947.5" y="-160.2" font-family="Helvetica,sans-Serif" font-size="16.00" fill="#383838">AWSLambdaBasicExecutionRole&#45;2c60...</text>
</g>
<!-- Role::mylambda&#45;role&#45;9ogx9vwe&#45;&gt;Policy::AWSLambdaBasicExecutionRole&#45;2c60bc7b&#45;a716&#45;4df4&#45;8688&#45;f7237aa45ae7 -->
<g id="edge2" class="edge">
<title>Role::mylambda&#45;role&#45;9ogx9vwe&#45;&gt;Policy::AWSLambdaBasicExecutionRole&#45;2c60bc7b&#45;a716&#45;4df4&#45;8688&#45;f7237aa45ae7</title>
<path fill="none" stroke="#707070" d="M853.81,-176C875.84,-176 899.63,-176 923.37,-176"/>
<polygon fill="#707070" stroke="#707070" points="923.12,-179.5 933.12,-176 923.12,-172.5 923.12,-179.5"/>
</g>
<!-- Function::mylambda -->
<g id="node5" class="node">
<title>Function::mylambda</title>
<polygon fill="#e5e5e5" stroke="#dddddd" points="485,-205 321,-205 321,-147 485,-147 485,-205"/>
<text text-anchor="start" x="333" y="-185.2" font-family="Helvetica,sans-Serif" font-weight="bold" font-size="16.00" fill="#707070">Lambda::Function</text>
<text text-anchor="start" x="333" y="-160.2" font-family="Helvetica,sans-Serif" font-size="16.00" fill="#383838">mylambda</text>
</g>
<!-- Function::mylambda&#45;&gt;Role::mylambda&#45;role&#45;9ogx9vwe -->
<g id="edge3" class="edge">
<title>Function::mylambda&#45;&gt;Role::mylambda&#45;role&#45;9ogx9vwe</title>
<path fill="none" stroke="#707070" d="M485.4,-176C529.12,-176 583.75,-176 631.8,-176"/>
<polygon fill="#707070" stroke="#707070" points="631.71,-179.5 641.71,-176 631.71,-172.5 631.71,-179.5"/>
</g>
<!-- Schedule::scheduleLambda -->
<g id="node6" class="node">
<title>Schedule::scheduleLambda</title>
<polygon fill="#e5e5e5" stroke="#dddddd" points="208,-167 24,-167 24,-109 208,-109 208,-167"/>
<text text-anchor="start" x="36" y="-147.2" font-family="Helvetica,sans-Serif" font-weight="bold" font-size="16.00" fill="#707070">Scheduler::Schedule</text>
<text text-anchor="start" x="36" y="-122.2" font-family="Helvetica,sans-Serif" font-size="16.00" fill="#383838">scheduleLambda</text>
</g>
<!-- Schedule::scheduleLambda&#45;&gt;Role::Amazon_EventBridge_Scheduler_LAMBDA_d6db1d2ad4 -->
<g id="edge4" class="edge">
<title>Schedule::scheduleLambda&#45;&gt;Role::Amazon_EventBridge_Scheduler_LAMBDA_d6db1d2ad4</title>
<path fill="none" stroke="#707070" d="M208.35,-125.82C216.19,-124.78 224.26,-123.7 232.46,-122.61"/>
<polygon fill="#707070" stroke="#707070" points="232.75,-126.1 242.2,-121.31 231.83,-119.16 232.75,-126.1"/>
</g>
<!-- Schedule::scheduleLambda&#45;&gt;Function::mylambda -->
<g id="edge5" class="edge">
<title>Schedule::scheduleLambda&#45;&gt;Function::mylambda</title>
<path fill="none" stroke="#707070" d="M208.35,-150.18C240.68,-154.49 277.07,-159.34 309.5,-163.67"/>
<polygon fill="#707070" stroke="#707070" points="308.91,-167.12 319.29,-164.97 309.84,-160.18 308.91,-167.12"/>
</g>
</g>
</svg>
