<?xml version="1.0" encoding="UTF-8" standalone="no"?>
<!DOCTYPE svg PUBLIC "-//W3C//DTD SVG 1.1//EN"
 "http://www.w3.org/Graphics/SVG/1.1/DTD/svg11.dtd">
<!-- Generated by graphviz version 3.0.0 (20220226.1711)
 -->
<!-- Title: graphname Pages: 1 -->
<svg width="664pt" height="313pt"
 viewBox="0.00 0.00 664.00 313.00" xmlns="http://www.w3.org/2000/svg" xmlns:xlink="http://www.w3.org/1999/xlink">
<g id="graph0" class="graph" transform="scale(1 1) rotate(0) translate(4 309)">
<title>graphname</title>
<polygon fill="#fafafa" stroke="transparent" points="-4,4 -4,-309 660,-309 660,4 -4,4"/>
<text text-anchor="start" x="221" y="-280.4" font-family="Helvetica,sans-Serif" font-weight="bold" font-size="22.00" fill="#383838">Project health&#45;check</text>
<text text-anchor="start" x="324" y="-264.8" font-family="Helvetica,sans-Serif" font-size="14.00"> &#160;</text>
<text text-anchor="start" x="221" y="-243.2" font-family="Helvetica,sans-Serif" font-weight="bold" font-size="16.00" fill="#707070">Target Diagram</text>
<g id="clust1" class="cluster">
<title>cluster_aws</title>
<polygon fill="#f5f5f5" stroke="#f5f5f5" points="8,-8 8,-221 648,-221 648,-8 8,-8"/>
<text text-anchor="start" x="266" y="-23" font-family="Helvetica,sans-Serif" font-weight="bold" font-size="20.00" fill="#707070">Provider aws</text>
</g>
<g id="clust2" class="cluster">
<title>cluster_aws_</title>
<polygon fill="#eeeeee" stroke="#eeeeee" points="16,-54 16,-213 640,-213 640,-54 16,-54"/>
<text text-anchor="start" x="327.86" y="-58.3" font-family="Helvetica,sans-Serif" font-size="1.00" fill="#383838"> </text>
</g>
<!-- MetricAlarm::healthcheck&#45;grucloud&#45;awsroute53&#45;5dcc5fa2&#45;2b2f&#45;4735&#45;9a2f&#45;109415b1e977&#45;Low&#45;HealthCheckStatus -->
<g id="node1" class="node">
<title>MetricAlarm::healthcheck&#45;grucloud&#45;awsroute53&#45;5dcc5fa2&#45;2b2f&#45;4735&#45;9a2f&#45;109415b1e977&#45;Low&#45;HealthCheckStatus</title>
<polygon fill="#e5e5e5" stroke="#dddddd" points="310,-167 24,-167 24,-109 310,-109 310,-167"/>
<text text-anchor="start" x="36" y="-147.2" font-family="Helvetica,sans-Serif" font-weight="bold" font-size="16.00" fill="#707070">CloudWatch::MetricAlarm</text>
<text text-anchor="start" x="36" y="-122.2" font-family="Helvetica,sans-Serif" font-size="16.00" fill="#383838">healthcheck&#45;grucloud&#45;awsroute53&#45;...</text>
</g>
<!-- HealthCheck::heathcheck::HTTP::healthcheck.grucloud.org -->
<g id="node2" class="node">
<title>HealthCheck::heathcheck::HTTP::healthcheck.grucloud.org</title>
<polygon fill="#e5e5e5" stroke="#dddddd" points="632,-129 346,-129 346,-71 632,-71 632,-129"/>
<text text-anchor="start" x="358" y="-109.2" font-family="Helvetica,sans-Serif" font-weight="bold" font-size="16.00" fill="#707070">Route53::HealthCheck</text>
<text text-anchor="start" x="358" y="-84.2" font-family="Helvetica,sans-Serif" font-size="16.00" fill="#383838">heathcheck::HTTP::healthcheck.gr...</text>
</g>
<!-- MetricAlarm::healthcheck&#45;grucloud&#45;awsroute53&#45;5dcc5fa2&#45;2b2f&#45;4735&#45;9a2f&#45;109415b1e977&#45;Low&#45;HealthCheckStatus&#45;&gt;HealthCheck::heathcheck::HTTP::healthcheck.grucloud.org -->
<g id="edge2" class="edge">
<title>MetricAlarm::healthcheck&#45;grucloud&#45;awsroute53&#45;5dcc5fa2&#45;2b2f&#45;4735&#45;9a2f&#45;109415b1e977&#45;Low&#45;HealthCheckStatus&#45;&gt;HealthCheck::heathcheck::HTTP::healthcheck.grucloud.org</title>
<path fill="none" stroke="#707070" d="M310.22,-121.11C318.74,-120.1 327.32,-119.08 335.88,-118.06"/>
<polygon fill="#707070" stroke="#707070" points="336.39,-121.53 345.91,-116.87 335.56,-114.58 336.39,-121.53"/>
</g>
<!-- Topic::healthcheck -->
<g id="node3" class="node">
<title>Topic::healthcheck</title>
<polygon fill="#e5e5e5" stroke="#dddddd" points="545,-205 433,-205 433,-147 545,-147 545,-205"/>
<text text-anchor="start" x="445" y="-185.2" font-family="Helvetica,sans-Serif" font-weight="bold" font-size="16.00" fill="#707070">SNS::Topic</text>
<text text-anchor="start" x="445" y="-160.2" font-family="Helvetica,sans-Serif" font-size="16.00" fill="#383838">healthcheck</text>
</g>
<!-- MetricAlarm::healthcheck&#45;grucloud&#45;awsroute53&#45;5dcc5fa2&#45;2b2f&#45;4735&#45;9a2f&#45;109415b1e977&#45;Low&#45;HealthCheckStatus&#45;&gt;Topic::healthcheck -->
<g id="edge1" class="edge">
<title>MetricAlarm::healthcheck&#45;grucloud&#45;awsroute53&#45;5dcc5fa2&#45;2b2f&#45;4735&#45;9a2f&#45;109415b1e977&#45;Low&#45;HealthCheckStatus&#45;&gt;Topic::healthcheck</title>
<path fill="none" stroke="#707070" d="M310.22,-154.89C349.38,-159.54 389.98,-164.36 422.48,-168.22"/>
<polygon fill="#707070" stroke="#707070" points="422.39,-171.73 432.73,-169.44 423.22,-164.78 422.39,-171.73"/>
</g>
</g>
</svg>
