<?xml version="1.0" encoding="UTF-8" standalone="no"?><svg xmlns="http://www.w3.org/2000/svg" xmlns:xlink="http://www.w3.org/1999/xlink" contentStyleType="text/css" height="228px" preserveAspectRatio="none" style="width:498px;height:228px;background:#FFFFFF;" version="1.1" viewBox="0 0 498 228" width="498px" zoomAndPan="magnify"><defs/><g><rect height="26.4883" style="stroke:#00000000;stroke-width:1.0;fill:none;" width="263" x="91" y="15"/><text fill="#000000" font-family="sans-serif" font-size="14" font-weight="bold" lengthAdjust="spacing" textLength="253" x="96" y="33.5352">Resources for project health-check</text><rect fill="#F1F1F1" height="36.4883" rx="12.5" ry="12.5" style="stroke:#181818;stroke-width:1.5;" width="52" x="10" y="113.9766"/><text fill="#000000" font-family="sans-serif" font-size="14" lengthAdjust="spacing" textLength="32" x="20" y="137.5117">Infra</text><rect fill="#F1F1F1" height="36.4883" rx="12.5" ry="12.5" style="stroke:#181818;stroke-width:1.5;" width="46" x="112" y="113.9766"/><text fill="#000000" font-family="sans-serif" font-size="14" lengthAdjust="spacing" textLength="26" x="122" y="137.5117">aws</text><rect fill="#F1F1F1" height="36.4883" rx="12.5" ry="12.5" style="stroke:#181818;stroke-width:1.5;" width="102" x="208" y="57.4883"/><text fill="#000000" font-family="sans-serif" font-size="14" lengthAdjust="spacing" textLength="82" x="218" y="81.0234">CloudWatch</text><rect fill="#F1F1F1" height="36.4883" rx="12.5" ry="12.5" style="stroke:#181818;stroke-width:1.5;" width="126" x="360" y="57.4883"/><text fill="#000000" font-family="sans-serif" font-size="14" lengthAdjust="spacing" textLength="106" x="370" y="81.0234">MetricAlarm (1)</text><path d="M310,75.7324 L320,75.7324 C335,75.7324 335,75.7324 350,75.7324 L360,75.7324 " fill="none" style="stroke:#181818;stroke-width:1.0;"/><path d="M158,132.2207 L168,132.2207 C183,132.2207 183,75.7324 198,75.7324 L208,75.7324 " fill="none" style="stroke:#181818;stroke-width:1.0;"/><rect fill="#F1F1F1" height="36.4883" rx="12.5" ry="12.5" style="stroke:#181818;stroke-width:1.5;" width="78" x="208" y="113.9766"/><text fill="#000000" font-family="sans-serif" font-size="14" lengthAdjust="spacing" textLength="58" x="218" y="137.5117">Route53</text><rect fill="#F1F1F1" height="36.4883" rx="12.5" ry="12.5" style="stroke:#181818;stroke-width:1.5;" width="129" x="336" y="113.9766"/><text fill="#000000" font-family="sans-serif" font-size="14" lengthAdjust="spacing" textLength="109" x="346" y="137.5117">HealthCheck (1)</text><path d="M286,132.2207 L296,132.2207 C311,132.2207 311,132.2207 326,132.2207 L336,132.2207 " fill="none" style="stroke:#181818;stroke-width:1.0;"/><path d="M158,132.2207 L168,132.2207 C183,132.2207 183,132.2207 198,132.2207 L208,132.2207 " fill="none" style="stroke:#181818;stroke-width:1.0;"/><rect fill="#F1F1F1" height="36.4883" rx="12.5" ry="12.5" style="stroke:#181818;stroke-width:1.5;" width="46" x="208" y="170.4648"/><text fill="#000000" font-family="sans-serif" font-size="14" lengthAdjust="spacing" textLength="26" x="218" y="194">SNS</text><rect fill="#F1F1F1" height="36.4883" rx="12.5" ry="12.5" style="stroke:#181818;stroke-width:1.5;" width="81" x="304" y="170.4648"/><text fill="#000000" font-family="sans-serif" font-size="14" lengthAdjust="spacing" textLength="61" x="314" y="194">Topic (1)</text><path d="M254,188.709 L264,188.709 C279,188.709 279,188.709 294,188.709 L304,188.709 " fill="none" style="stroke:#181818;stroke-width:1.0;"/><path d="M158,132.2207 L168,132.2207 C183,132.2207 183,188.709 198,188.709 L208,188.709 " fill="none" style="stroke:#181818;stroke-width:1.0;"/><path d="M62,132.2207 L72,132.2207 C87,132.2207 87,132.2207 102,132.2207 L112,132.2207 " fill="none" style="stroke:#181818;stroke-width:1.0;"/><!--MD5=[cf7b292b4e38949e2131c9b16e14878d]
@startmindmap
title Resources for project health-check
skinparam monochrome true
+ Infra
++ aws
+++ CloudWatch
++++ MetricAlarm (1)
+++ Route53
++++ HealthCheck (1)
+++ SNS
++++ Topic (1)
@endmindmap

PlantUML version 1.2022.6(Tue Jun 21 12:34:49 COT 2022)
(GPL source distribution)
Java Runtime: Java(TM) SE Runtime Environment
JVM: Java HotSpot(TM) 64-Bit Server VM
Default Encoding: UTF-8
Language: en
Country: GB
--></g></svg>