<?xml version="1.0" encoding="UTF-8" standalone="no"?>
<!DOCTYPE svg PUBLIC "-//W3C//DTD SVG 1.1//EN"
 "http://www.w3.org/Graphics/SVG/1.1/DTD/svg11.dtd">
<!-- Generated by graphviz version 7.1.0 (20230121.1956)
 -->
<!-- Title: graphname Pages: 1 -->
<svg width="1042pt" height="313pt"
 viewBox="0.00 0.00 1042.00 313.00" xmlns="http://www.w3.org/2000/svg" xmlns:xlink="http://www.w3.org/1999/xlink">
<g id="graph0" class="graph" transform="scale(1 1) rotate(0) translate(4 309)">
<title>graphname</title>
<polygon fill="#fafafa" stroke="none" points="-4,4 -4,-309 1038,-309 1038,4 -4,4"/>
<text text-anchor="start" x="427" y="-280.4" font-family="Helvetica,sans-Serif" font-weight="bold" font-size="22.00" fill="#383838">Project fsx&#45;ontap</text>
<text text-anchor="start" x="513" y="-264.8" font-family="Helvetica,sans-Serif" font-size="14.00"> &#160;</text>
<text text-anchor="start" x="427" y="-243.2" font-family="Helvetica,sans-Serif" font-weight="bold" font-size="16.00" fill="#707070">Target Diagram</text>
<g id="clust1" class="cluster">
<title>cluster_aws</title>
<polygon fill="#f5f5f5" stroke="#f5f5f5" points="8,-8 8,-221 1026,-221 1026,-8 8,-8"/>
<text text-anchor="start" x="455" y="-23" font-family="Helvetica,sans-Serif" font-weight="bold" font-size="20.00" fill="#707070">Provider aws</text>
</g>
<g id="clust2" class="cluster">
<title>cluster_aws_</title>
<polygon fill="#eeeeee" stroke="#eeeeee" points="16,-54 16,-213 1018,-213 1018,-54 16,-54"/>
<text text-anchor="start" x="516.86" y="-58.3" font-family="Helvetica,sans-Serif" font-size="1.00" fill="#383838"> </text>
</g>
<!-- Vpc::vpc&#45;default -->
<g id="node1" class="node">
<title>Vpc::vpc&#45;default</title>
<polygon fill="#e5e5e5" stroke="#dddddd" points="1010,-167 906,-167 906,-109 1010,-109 1010,-167"/>
<text text-anchor="start" x="918" y="-147.2" font-family="Helvetica,sans-Serif" font-weight="bold" font-size="16.00" fill="#707070">EC2::Vpc</text>
<text text-anchor="start" x="918" y="-122.2" font-family="Helvetica,sans-Serif" font-size="16.00" fill="#383838">vpc&#45;default</text>
</g>
<!-- Subnet::vpc&#45;default::subnet&#45;default&#45;d -->
<g id="node2" class="node">
<title>Subnet::vpc&#45;default::subnet&#45;default&#45;d</title>
<polygon fill="#e5e5e5" stroke="#dddddd" points="870,-129 640,-129 640,-71 870,-71 870,-129"/>
<text text-anchor="start" x="652" y="-109.2" font-family="Helvetica,sans-Serif" font-weight="bold" font-size="16.00" fill="#707070">EC2::Subnet</text>
<text text-anchor="start" x="652" y="-84.2" font-family="Helvetica,sans-Serif" font-size="16.00" fill="#383838">vpc&#45;default::subnet&#45;default&#45;d</text>
</g>
<!-- Subnet::vpc&#45;default::subnet&#45;default&#45;d&#45;&gt;Vpc::vpc&#45;default -->
<g id="edge1" class="edge">
<title>Subnet::vpc&#45;default::subnet&#45;default&#45;d&#45;&gt;Vpc::vpc&#45;default</title>
<path fill="none" stroke="#707070" d="M870.3,-121.61C878.61,-123.18 886.8,-124.73 894.62,-126.21"/>
<polygon fill="#707070" stroke="#707070" points="893.83,-129.62 904.31,-128.04 895.13,-122.74 893.83,-129.62"/>
</g>
<!-- SecurityGroup::sg::vpc&#45;default::default -->
<g id="node3" class="node">
<title>SecurityGroup::sg::vpc&#45;default::default</title>
<polygon fill="#e5e5e5" stroke="#dddddd" points="849,-205 661,-205 661,-147 849,-147 849,-205"/>
<text text-anchor="start" x="673" y="-185.2" font-family="Helvetica,sans-Serif" font-weight="bold" font-size="16.00" fill="#707070">EC2::SecurityGroup</text>
<text text-anchor="start" x="673" y="-160.2" font-family="Helvetica,sans-Serif" font-size="16.00" fill="#383838">sg::vpc&#45;default::default</text>
</g>
<!-- SecurityGroup::sg::vpc&#45;default::default&#45;&gt;Vpc::vpc&#45;default -->
<g id="edge2" class="edge">
<title>SecurityGroup::sg::vpc&#45;default::default&#45;&gt;Vpc::vpc&#45;default</title>
<path fill="none" stroke="#707070" d="M849.44,-158.33C864.73,-155.44 880.24,-152.51 894.54,-149.81"/>
<polygon fill="#707070" stroke="#707070" points="895.06,-153.27 904.24,-147.98 893.76,-146.39 895.06,-153.27"/>
</g>
<!-- FileSystem::my&#45;ontap&#45;fs -->
<g id="node4" class="node">
<title>FileSystem::my&#45;ontap&#45;fs</title>
<polygon fill="#e5e5e5" stroke="#dddddd" points="604,-146 455,-146 455,-88 604,-88 604,-146"/>
<text text-anchor="start" x="467.5" y="-126.2" font-family="Helvetica,sans-Serif" font-weight="bold" font-size="16.00" fill="#707070">FSx::FileSystem</text>
<text text-anchor="start" x="467.5" y="-101.2" font-family="Helvetica,sans-Serif" font-size="16.00" fill="#383838">my&#45;ontap&#45;fs</text>
</g>
<!-- FileSystem::my&#45;ontap&#45;fs&#45;&gt;Subnet::vpc&#45;default::subnet&#45;default&#45;d -->
<g id="edge3" class="edge">
<title>FileSystem::my&#45;ontap&#45;fs&#45;&gt;Subnet::vpc&#45;default::subnet&#45;default&#45;d</title>
<path fill="none" stroke="#707070" d="M604.3,-111.39C612.17,-110.79 620.32,-110.17 628.57,-109.54"/>
<polygon fill="#707070" stroke="#707070" points="628.66,-113.04 638.36,-108.8 628.13,-106.06 628.66,-113.04"/>
</g>
<!-- FileSystem::my&#45;ontap&#45;fs&#45;&gt;SecurityGroup::sg::vpc&#45;default::default -->
<g id="edge4" class="edge">
<title>FileSystem::my&#45;ontap&#45;fs&#45;&gt;SecurityGroup::sg::vpc&#45;default::default</title>
<path fill="none" stroke="#707070" d="M604.3,-136.48C618.83,-140.32 634.33,-144.41 649.64,-148.45"/>
<polygon fill="#707070" stroke="#707070" points="648.72,-151.83 659.28,-151 650.51,-145.06 648.72,-151.83"/>
</g>
<!-- StorageVirtualMachine::my&#45;ontap&#45;fs::fsx -->
<g id="node5" class="node">
<title>StorageVirtualMachine::my&#45;ontap&#45;fs::fsx</title>
<polygon fill="#e5e5e5" stroke="#dddddd" points="419,-163 181,-163 181,-105 419,-105 419,-163"/>
<text text-anchor="start" x="193" y="-143.2" font-family="Helvetica,sans-Serif" font-weight="bold" font-size="16.00" fill="#707070">FSx::StorageVirtualMachine</text>
<text text-anchor="start" x="193" y="-118.2" font-family="Helvetica,sans-Serif" font-size="16.00" fill="#383838">my&#45;ontap&#45;fs::fsx</text>
</g>
<!-- StorageVirtualMachine::my&#45;ontap&#45;fs::fsx&#45;&gt;FileSystem::my&#45;ontap&#45;fs -->
<g id="edge5" class="edge">
<title>StorageVirtualMachine::my&#45;ontap&#45;fs::fsx&#45;&gt;FileSystem::my&#45;ontap&#45;fs</title>
<path fill="none" stroke="#707070" d="M419.41,-125.15C427.47,-124.55 435.49,-123.95 443.31,-123.37"/>
<polygon fill="#707070" stroke="#707070" points="443.41,-126.87 453.12,-122.63 442.88,-119.89 443.41,-126.87"/>
</g>
<!-- Volume::vol1 -->
<g id="node6" class="node">
<title>Volume::vol1</title>
<polygon fill="#e5e5e5" stroke="#dddddd" points="145,-139 24,-139 24,-81 145,-81 145,-139"/>
<text text-anchor="start" x="36.5" y="-119.2" font-family="Helvetica,sans-Serif" font-weight="bold" font-size="16.00" fill="#707070">FSx::Volume</text>
<text text-anchor="start" x="36.5" y="-94.2" font-family="Helvetica,sans-Serif" font-size="16.00" fill="#383838">vol1</text>
</g>
<!-- Volume::vol1&#45;&gt;FileSystem::my&#45;ontap&#45;fs -->
<g id="edge6" class="edge">
<title>Volume::vol1&#45;&gt;FileSystem::my&#45;ontap&#45;fs</title>
<path fill="none" stroke="#707070" d="M145.47,-99.85C157.22,-98.25 169.47,-96.84 181,-96 286.5,-88.31 313.7,-85.99 419,-96 426.95,-96.76 435.18,-97.81 443.39,-99.05"/>
<polygon fill="#707070" stroke="#707070" points="442.63,-102.48 453.06,-100.61 443.75,-95.57 442.63,-102.48"/>
</g>
<!-- Volume::vol1&#45;&gt;StorageVirtualMachine::my&#45;ontap&#45;fs::fsx -->
<g id="edge7" class="edge">
<title>Volume::vol1&#45;&gt;StorageVirtualMachine::my&#45;ontap&#45;fs::fsx</title>
<path fill="none" stroke="#707070" d="M145.26,-116.72C153.06,-117.59 161.29,-118.52 169.71,-119.47"/>
<polygon fill="#707070" stroke="#707070" points="169.04,-122.91 179.37,-120.55 169.82,-115.96 169.04,-122.91"/>
</g>
</g>
</svg>
