<?xml version="1.0" encoding="UTF-8" standalone="no"?>
<!DOCTYPE svg PUBLIC "-//W3C//DTD SVG 1.1//EN"
 "http://www.w3.org/Graphics/SVG/1.1/DTD/svg11.dtd">
<!-- Generated by graphviz version 2.44.1 (20200629.0846)
 -->
<!-- Title: graphname Pages: 1 -->
<svg width="228pt" height="617pt"
 viewBox="0.00 0.00 228.00 617.00" xmlns="http://www.w3.org/2000/svg" xmlns:xlink="http://www.w3.org/1999/xlink">
<g id="graph0" class="graph" transform="scale(1 1) rotate(0) translate(4 613)">
<title>graphname</title>
<polygon fill="#fafafa" stroke="transparent" points="-4,4 -4,-613 224,-613 224,4 -4,4"/>
<text text-anchor="start" x="15" y="-584.4" font-family="Helvetica,sans-Serif" font-weight="bold" font-size="22.00" fill="#383838">Project symmetric</text>
<text text-anchor="start" x="106" y="-568.8" font-family="Helvetica,sans-Serif" font-size="14.00"> &#160;</text>
<text text-anchor="start" x="15" y="-547.2" font-family="Helvetica,sans-Serif" font-weight="bold" font-size="16.00" fill="#707070">Live Diagram</text>
<g id="clust1" class="cluster">
<title>cluster_aws</title>
<polygon fill="#f5f5f5" stroke="#f5f5f5" points="8,-8 8,-525 212,-525 212,-8 8,-8"/>
<text text-anchor="start" x="48" y="-23" font-family="Helvetica,sans-Serif" font-weight="bold" font-size="20.00" fill="#707070">Provider aws</text>
</g>
<g id="clust2" class="cluster">
<title>cluster_aws_</title>
<polygon fill="#eeeeee" stroke="#eeeeee" points="16,-54 16,-517 204,-517 204,-54 16,-54"/>
<text text-anchor="start" x="109.86" y="-58.3" font-family="Helvetica,sans-Serif" font-size="1.00" fill="#383838"> </text>
</g>
<!-- Key::::alias/aws/acm -->
<g id="node1" class="node">
<title>Key::::alias/aws/acm</title>
<polygon fill="#e5e5e5" stroke="#dddddd" points="173.5,-509 46.5,-509 46.5,-451 173.5,-451 173.5,-509"/>
<text text-anchor="start" x="59" y="-489.2" font-family="Helvetica,sans-Serif" font-weight="bold" font-size="16.00" fill="#707070">Key</text>
<text text-anchor="start" x="59" y="-464.2" font-family="Helvetica,sans-Serif" font-size="16.00" fill="#383838">alias/aws/acm</text>
</g>
<!-- Key::::alias/aws/dynamodb -->
<g id="node2" class="node">
<title>Key::::alias/aws/dynamodb</title>
<polygon fill="#e5e5e5" stroke="#dddddd" points="196,-433 24,-433 24,-375 196,-375 196,-433"/>
<text text-anchor="start" x="36" y="-413.2" font-family="Helvetica,sans-Serif" font-weight="bold" font-size="16.00" fill="#707070">Key</text>
<text text-anchor="start" x="36" y="-388.2" font-family="Helvetica,sans-Serif" font-size="16.00" fill="#383838">alias/aws/dynamodb</text>
</g>
<!-- Key::::alias/aws/ebs -->
<g id="node3" class="node">
<title>Key::::alias/aws/ebs</title>
<polygon fill="#e5e5e5" stroke="#dddddd" points="171,-357 49,-357 49,-299 171,-299 171,-357"/>
<text text-anchor="start" x="61" y="-337.2" font-family="Helvetica,sans-Serif" font-weight="bold" font-size="16.00" fill="#707070">Key</text>
<text text-anchor="start" x="61" y="-312.2" font-family="Helvetica,sans-Serif" font-size="16.00" fill="#383838">alias/aws/ebs</text>
</g>
<!-- Key::::alias/aws/rds -->
<g id="node4" class="node">
<title>Key::::alias/aws/rds</title>
<polygon fill="#e5e5e5" stroke="#dddddd" points="169,-281 51,-281 51,-223 169,-223 169,-281"/>
<text text-anchor="start" x="63" y="-261.2" font-family="Helvetica,sans-Serif" font-weight="bold" font-size="16.00" fill="#707070">Key</text>
<text text-anchor="start" x="63" y="-236.2" font-family="Helvetica,sans-Serif" font-size="16.00" fill="#383838">alias/aws/rds</text>
</g>
<!-- Key::::eks&#45;key -->
<g id="node5" class="node">
<title>Key::::eks&#45;key</title>
<polygon fill="#e5e5e5" stroke="#dddddd" points="150.5,-205 69.5,-205 69.5,-147 150.5,-147 150.5,-205"/>
<text text-anchor="start" x="82" y="-185.2" font-family="Helvetica,sans-Serif" font-weight="bold" font-size="16.00" fill="#707070">Key</text>
<text text-anchor="start" x="82" y="-160.2" font-family="Helvetica,sans-Serif" font-size="16.00" fill="#383838">eks&#45;key</text>
</g>
<!-- Key::::secret&#45;key&#45;test -->
<g id="node6" class="node">
<title>Key::::secret&#45;key&#45;test</title>
<polygon fill="#e5e5e5" stroke="#dddddd" points="175.5,-129 44.5,-129 44.5,-71 175.5,-71 175.5,-129"/>
<text text-anchor="start" x="57" y="-109.2" font-family="Helvetica,sans-Serif" font-weight="bold" font-size="16.00" fill="#707070">Key</text>
<text text-anchor="start" x="57" y="-84.2" font-family="Helvetica,sans-Serif" font-size="16.00" fill="#383838">secret&#45;key&#45;test</text>
</g>
</g>
</svg>
