<?xml version="1.0" encoding="UTF-8" standalone="no"?><svg xmlns="http://www.w3.org/2000/svg" xmlns:xlink="http://www.w3.org/1999/xlink" contentScriptType="application/ecmascript" contentStyleType="text/css" height="115px" preserveAspectRatio="none" style="width:397px;height:115px;background:#FFFFFF;" version="1.1" viewBox="0 0 397 115" width="397px" zoomAndPan="magnify"><defs><filter height="300%" id="f1dgsn6c38k7oy" width="300%" x="-1" y="-1"><feGaussianBlur result="blurOut" stdDeviation="2.0"/><feColorMatrix in="blurOut" result="blurOut2" type="matrix" values="0 0 0 0 0 0 0 0 0 0 0 0 0 0 0 0 0 0 .4 0"/><feOffset dx="4.0" dy="4.0" in="blurOut2" result="blurOut3"/><feBlend in="SourceGraphic" in2="blurOut3" mode="normal"/></filter></defs><g><rect fill="none" height="26.4883" style="stroke:none;stroke-width:1.0;" width="311" x="15" y="15"/><text fill="#000000" font-family="sans-serif" font-size="14" font-weight="bold" lengthAdjust="spacing" textLength="301" x="20" y="33.5352">Resources for project KMS Symmetric key</text><rect fill="#F8F8F8" filter="url(#f1dgsn6c38k7oy)" height="36.4883" rx="12.5" ry="12.5" style="stroke:#383838;stroke-width:1.5;" width="52" x="14" y="57.4883"/><text fill="#000000" font-family="sans-serif" font-size="14" lengthAdjust="spacing" textLength="32" x="24" y="81.0234">Infra</text><rect fill="#F8F8F8" filter="url(#f1dgsn6c38k7oy)" height="36.4883" rx="12.5" ry="12.5" style="stroke:#383838;stroke-width:1.5;" width="46" x="116" y="57.4883"/><text fill="#000000" font-family="sans-serif" font-size="14" lengthAdjust="spacing" textLength="26" x="126" y="81.0234">aws</text><rect fill="#F8F8F8" filter="url(#f1dgsn6c38k7oy)" height="36.4883" rx="12.5" ry="12.5" style="stroke:#383838;stroke-width:1.5;" width="49" x="212" y="57.4883"/><text fill="#000000" font-family="sans-serif" font-size="14" lengthAdjust="spacing" textLength="29" x="222" y="81.0234">KMS</text><rect fill="#F8F8F8" filter="url(#f1dgsn6c38k7oy)" height="36.4883" rx="12.5" ry="12.5" style="stroke:#383838;stroke-width:1.5;" width="67" x="311" y="57.4883"/><text fill="#000000" font-family="sans-serif" font-size="14" lengthAdjust="spacing" textLength="47" x="321" y="81.0234">Key (1)</text><path d="M261,75.7324 L271,75.7324 C286,75.7324 286,75.7324 301,75.7324 L311,75.7324 " fill="none" style="stroke:#383838;stroke-width:1.0;"/><path d="M162,75.7324 L172,75.7324 C187,75.7324 187,75.7324 202,75.7324 L212,75.7324 " fill="none" style="stroke:#383838;stroke-width:1.0;"/><path d="M66,75.7324 L76,75.7324 C91,75.7324 91,75.7324 106,75.7324 L116,75.7324 " fill="none" style="stroke:#383838;stroke-width:1.0;"/><!--MD5=[038a8d00ac702d2245d985c4bd110b36]
@startmindmap
title Resources for project KMS Symmetric key
skinparam monochrome true
+ Infra
++ aws
+++ KMS
++++ Key (1)
@endmindmap

PlantUML version 1.2021.8(Sat Jun 26 03:20:59 COT 2021)
(GPL source distribution)
Java Runtime: OpenJDK Runtime Environment
JVM: OpenJDK 64-Bit Server VM
Default Encoding: UTF-8
Language: en
Country: GB
--></g></svg>