<?xml version="1.0" encoding="UTF-8" standalone="no"?>
<!DOCTYPE svg PUBLIC "-//W3C//DTD SVG 1.1//EN"
 "http://www.w3.org/Graphics/SVG/1.1/DTD/svg11.dtd">
<!-- Generated by graphviz version 2.44.1 (20200629.0846)
 -->
<!-- Title: graphname Pages: 1 -->
<svg width="324pt" height="1365pt"
 viewBox="0.00 0.00 324.00 1365.00" xmlns="http://www.w3.org/2000/svg" xmlns:xlink="http://www.w3.org/1999/xlink">
<g id="graph0" class="graph" transform="scale(1 1) rotate(0) translate(4 1361)">
<title>graphname</title>
<polygon fill="#fafafa" stroke="transparent" points="-4,4 -4,-1361 320,-1361 320,4 -4,4"/>
<text text-anchor="start" x="61" y="-1332.4" font-family="Helvetica,sans-Serif" font-weight="bold" font-size="22.00" fill="#383838">Project Dashboard</text>
<text text-anchor="start" x="61" y="-1307.2" font-family="Helvetica,sans-Serif" font-weight="bold" font-size="16.00" fill="#707070">Target Diagram</text>
<g id="clust1" class="cluster">
<title>cluster_k8s</title>
<polygon fill="#f5f5f5" stroke="#f5f5f5" points="8,-8 8,-1285 308,-1285 308,-8 8,-8"/>
<text text-anchor="start" x="98" y="-23" font-family="Helvetica,sans-Serif" font-weight="bold" font-size="20.00" fill="#707070">Provider k8s</text>
</g>
<g id="clust2" class="cluster">
<title>cluster_k8s_</title>
<polygon fill="#eeeeee" stroke="#eeeeee" points="16,-54 16,-1277 300,-1277 300,-54 16,-54"/>
<text text-anchor="start" x="157.86" y="-58.3" font-family="Helvetica,sans-Serif" font-size="1.00" fill="#383838"> </text>
</g>
<!-- ServiceAccount::dashboard&#45;admin&#45;user -->
<g id="node1" class="node">
<title>ServiceAccount::dashboard&#45;admin&#45;user</title>
<polygon fill="#e5e5e5" stroke="#dddddd" points="251.5,-1269 64.5,-1269 64.5,-1211 251.5,-1211 251.5,-1269"/>
<text text-anchor="start" x="77" y="-1249.2" font-family="Helvetica,sans-Serif" font-weight="bold" font-size="16.00" fill="#707070">ServiceAccount</text>
<text text-anchor="start" x="77" y="-1224.2" font-family="Helvetica,sans-Serif" font-size="16.00" fill="#383838">dashboard&#45;admin&#45;user</text>
</g>
<!-- ClusterRoleBinding::dashboard&#45;admin&#45;user -->
<g id="node2" class="node">
<title>ClusterRoleBinding::dashboard&#45;admin&#45;user</title>
<polygon fill="#e5e5e5" stroke="#dddddd" points="251.5,-1193 64.5,-1193 64.5,-1135 251.5,-1135 251.5,-1193"/>
<text text-anchor="start" x="77" y="-1173.2" font-family="Helvetica,sans-Serif" font-weight="bold" font-size="16.00" fill="#707070">ClusterRoleBinding</text>
<text text-anchor="start" x="77" y="-1148.2" font-family="Helvetica,sans-Serif" font-size="16.00" fill="#383838">dashboard&#45;admin&#45;user</text>
</g>
<!-- Namespace::kubernetes&#45;dashboard -->
<g id="node3" class="node">
<title>Namespace::kubernetes&#45;dashboard</title>
<polygon fill="#e5e5e5" stroke="#dddddd" points="251.5,-1117 64.5,-1117 64.5,-1059 251.5,-1059 251.5,-1117"/>
<text text-anchor="start" x="77" y="-1097.2" font-family="Helvetica,sans-Serif" font-weight="bold" font-size="16.00" fill="#707070">Namespace</text>
<text text-anchor="start" x="77" y="-1072.2" font-family="Helvetica,sans-Serif" font-size="16.00" fill="#383838">kubernetes&#45;dashboard</text>
</g>
<!-- ServiceAccount::kubernetes&#45;dashboard -->
<g id="node4" class="node">
<title>ServiceAccount::kubernetes&#45;dashboard</title>
<polygon fill="#e5e5e5" stroke="#dddddd" points="251.5,-1041 64.5,-1041 64.5,-983 251.5,-983 251.5,-1041"/>
<text text-anchor="start" x="77" y="-1021.2" font-family="Helvetica,sans-Serif" font-weight="bold" font-size="16.00" fill="#707070">ServiceAccount</text>
<text text-anchor="start" x="77" y="-996.2" font-family="Helvetica,sans-Serif" font-size="16.00" fill="#383838">kubernetes&#45;dashboard</text>
</g>
<!-- Service::kubernetes&#45;dashboard -->
<g id="node5" class="node">
<title>Service::kubernetes&#45;dashboard</title>
<polygon fill="#e5e5e5" stroke="#dddddd" points="251.5,-965 64.5,-965 64.5,-907 251.5,-907 251.5,-965"/>
<text text-anchor="start" x="77" y="-945.2" font-family="Helvetica,sans-Serif" font-weight="bold" font-size="16.00" fill="#707070">Service</text>
<text text-anchor="start" x="77" y="-920.2" font-family="Helvetica,sans-Serif" font-size="16.00" fill="#383838">kubernetes&#45;dashboard</text>
</g>
<!-- Secret::kubernetes&#45;dashboard&#45;certs -->
<g id="node6" class="node">
<title>Secret::kubernetes&#45;dashboard&#45;certs</title>
<polygon fill="#e5e5e5" stroke="#dddddd" points="271.5,-889 44.5,-889 44.5,-831 271.5,-831 271.5,-889"/>
<text text-anchor="start" x="57" y="-869.2" font-family="Helvetica,sans-Serif" font-weight="bold" font-size="16.00" fill="#707070">Secret</text>
<text text-anchor="start" x="57" y="-844.2" font-family="Helvetica,sans-Serif" font-size="16.00" fill="#383838">kubernetes&#45;dashboard&#45;certs</text>
</g>
<!-- Secret::kubernetes&#45;dashboard&#45;csrf -->
<g id="node7" class="node">
<title>Secret::kubernetes&#45;dashboard&#45;csrf</title>
<polygon fill="#e5e5e5" stroke="#dddddd" points="267,-813 49,-813 49,-755 267,-755 267,-813"/>
<text text-anchor="start" x="61" y="-793.2" font-family="Helvetica,sans-Serif" font-weight="bold" font-size="16.00" fill="#707070">Secret</text>
<text text-anchor="start" x="61" y="-768.2" font-family="Helvetica,sans-Serif" font-size="16.00" fill="#383838">kubernetes&#45;dashboard&#45;csrf</text>
</g>
<!-- Secret::kubernetes&#45;dashboard&#45;key&#45;holder -->
<g id="node8" class="node">
<title>Secret::kubernetes&#45;dashboard&#45;key&#45;holder</title>
<polygon fill="#e5e5e5" stroke="#dddddd" points="292,-737 24,-737 24,-679 292,-679 292,-737"/>
<text text-anchor="start" x="36" y="-717.2" font-family="Helvetica,sans-Serif" font-weight="bold" font-size="16.00" fill="#707070">Secret</text>
<text text-anchor="start" x="36" y="-692.2" font-family="Helvetica,sans-Serif" font-size="16.00" fill="#383838">kubernetes&#45;dashboard&#45;key&#45;holder</text>
</g>
<!-- ConfigMap::kubernetes&#45;dashboard&#45;settings -->
<g id="node9" class="node">
<title>ConfigMap::kubernetes&#45;dashboard&#45;settings</title>
<polygon fill="#e5e5e5" stroke="#dddddd" points="282,-661 34,-661 34,-603 282,-603 282,-661"/>
<text text-anchor="start" x="46" y="-641.2" font-family="Helvetica,sans-Serif" font-weight="bold" font-size="16.00" fill="#707070">ConfigMap</text>
<text text-anchor="start" x="46" y="-616.2" font-family="Helvetica,sans-Serif" font-size="16.00" fill="#383838">kubernetes&#45;dashboard&#45;settings</text>
</g>
<!-- Role::kubernetes&#45;dashboard -->
<g id="node10" class="node">
<title>Role::kubernetes&#45;dashboard</title>
<polygon fill="#e5e5e5" stroke="#dddddd" points="251.5,-585 64.5,-585 64.5,-527 251.5,-527 251.5,-585"/>
<text text-anchor="start" x="77" y="-565.2" font-family="Helvetica,sans-Serif" font-weight="bold" font-size="16.00" fill="#707070">Role</text>
<text text-anchor="start" x="77" y="-540.2" font-family="Helvetica,sans-Serif" font-size="16.00" fill="#383838">kubernetes&#45;dashboard</text>
</g>
<!-- ClusterRole::kubernetes&#45;dashboard -->
<g id="node11" class="node">
<title>ClusterRole::kubernetes&#45;dashboard</title>
<polygon fill="#e5e5e5" stroke="#dddddd" points="251.5,-509 64.5,-509 64.5,-451 251.5,-451 251.5,-509"/>
<text text-anchor="start" x="77" y="-489.2" font-family="Helvetica,sans-Serif" font-weight="bold" font-size="16.00" fill="#707070">ClusterRole</text>
<text text-anchor="start" x="77" y="-464.2" font-family="Helvetica,sans-Serif" font-size="16.00" fill="#383838">kubernetes&#45;dashboard</text>
</g>
<!-- RoleBinding::kubernetes&#45;dashboard -->
<g id="node12" class="node">
<title>RoleBinding::kubernetes&#45;dashboard</title>
<polygon fill="#e5e5e5" stroke="#dddddd" points="251.5,-433 64.5,-433 64.5,-375 251.5,-375 251.5,-433"/>
<text text-anchor="start" x="77" y="-413.2" font-family="Helvetica,sans-Serif" font-weight="bold" font-size="16.00" fill="#707070">RoleBinding</text>
<text text-anchor="start" x="77" y="-388.2" font-family="Helvetica,sans-Serif" font-size="16.00" fill="#383838">kubernetes&#45;dashboard</text>
</g>
<!-- ClusterRoleBinding::kubernetes&#45;dashboard -->
<g id="node13" class="node">
<title>ClusterRoleBinding::kubernetes&#45;dashboard</title>
<polygon fill="#e5e5e5" stroke="#dddddd" points="251.5,-357 64.5,-357 64.5,-299 251.5,-299 251.5,-357"/>
<text text-anchor="start" x="77" y="-337.2" font-family="Helvetica,sans-Serif" font-weight="bold" font-size="16.00" fill="#707070">ClusterRoleBinding</text>
<text text-anchor="start" x="77" y="-312.2" font-family="Helvetica,sans-Serif" font-size="16.00" fill="#383838">kubernetes&#45;dashboard</text>
</g>
<!-- Deployment::kubernetes&#45;dashboard -->
<g id="node14" class="node">
<title>Deployment::kubernetes&#45;dashboard</title>
<polygon fill="#e5e5e5" stroke="#dddddd" points="251.5,-281 64.5,-281 64.5,-223 251.5,-223 251.5,-281"/>
<text text-anchor="start" x="77" y="-261.2" font-family="Helvetica,sans-Serif" font-weight="bold" font-size="16.00" fill="#707070">Deployment</text>
<text text-anchor="start" x="77" y="-236.2" font-family="Helvetica,sans-Serif" font-size="16.00" fill="#383838">kubernetes&#45;dashboard</text>
</g>
<!-- Service::dashboard&#45;metrics&#45;scraper -->
<g id="node15" class="node">
<title>Service::dashboard&#45;metrics&#45;scraper</title>
<polygon fill="#e5e5e5" stroke="#dddddd" points="267,-205 49,-205 49,-147 267,-147 267,-205"/>
<text text-anchor="start" x="61" y="-185.2" font-family="Helvetica,sans-Serif" font-weight="bold" font-size="16.00" fill="#707070">Service</text>
<text text-anchor="start" x="61" y="-160.2" font-family="Helvetica,sans-Serif" font-size="16.00" fill="#383838">dashboard&#45;metrics&#45;scraper</text>
</g>
<!-- Deployment::dashboard&#45;metrics&#45;scraper -->
<g id="node16" class="node">
<title>Deployment::dashboard&#45;metrics&#45;scraper</title>
<polygon fill="#e5e5e5" stroke="#dddddd" points="267,-129 49,-129 49,-71 267,-71 267,-129"/>
<text text-anchor="start" x="61" y="-109.2" font-family="Helvetica,sans-Serif" font-weight="bold" font-size="16.00" fill="#707070">Deployment</text>
<text text-anchor="start" x="61" y="-84.2" font-family="Helvetica,sans-Serif" font-size="16.00" fill="#383838">dashboard&#45;metrics&#45;scraper</text>
</g>
</g>
</svg>
