<?xml version="1.0" encoding="UTF-8" standalone="no"?>
<!DOCTYPE svg PUBLIC "-//W3C//DTD SVG 1.1//EN"
 "http://www.w3.org/Graphics/SVG/1.1/DTD/svg11.dtd">
<!-- Generated by graphviz version 2.44.1 (20200629.0846)
 -->
<!-- Title: graphname Pages: 1 -->
<svg width="316pt" height="1342pt"
 viewBox="0.00 0.00 316.00 1342.00" xmlns="http://www.w3.org/2000/svg" xmlns:xlink="http://www.w3.org/1999/xlink">
<g id="graph0" class="graph" transform="scale(1 1) rotate(0) translate(4 1338)">
<title>graphname</title>
<polygon fill="white" stroke="transparent" points="-4,4 -4,-1338 312,-1338 312,4 -4,4"/>
<g id="clust1" class="cluster">
<title>cluster_k8s</title>
<polygon fill="#f5f5f5" stroke="#f5f5f5" points="8,-8 8,-1326 300,-1326 300,-8 8,-8"/>
<text text-anchor="start" x="113" y="-1289.4" font-family="Helvetica,sans-Serif" font-weight="bold" font-size="42.00" fill="#383838">K8S</text>
</g>
<g id="clust2" class="cluster">
<title>cluster_k8s_default</title>
<polygon fill="#eeeeee" stroke="#eeeeee" points="16,-16 16,-1264 292,-1264 292,-16 16,-16"/>
<text text-anchor="start" x="113.5" y="-1241.8" font-family="Helvetica,sans-Serif" font-weight="bold" font-size="24.00" fill="#383838">default</text>
</g>
<!-- ServiceAccount::dashboard&#45;admin&#45;user -->
<g id="node1" class="node">
<title>ServiceAccount::dashboard&#45;admin&#45;user</title>
<polygon fill="#e5e5e5" stroke="#dddddd" points="243.5,-1222 64.5,-1222 64.5,-1164 243.5,-1164 243.5,-1222"/>
<text text-anchor="start" x="73" y="-1202.2" font-family="Helvetica,sans-Serif" font-weight="bold" font-size="16.00" fill="#707070">ServiceAccount</text>
<text text-anchor="start" x="73" y="-1177.2" font-family="Helvetica,sans-Serif" font-size="16.00" fill="#383838">dashboard&#45;admin&#45;user</text>
</g>
<!-- ClusterRoleBinding::dashboard&#45;admin&#45;user -->
<g id="node2" class="node">
<title>ClusterRoleBinding::dashboard&#45;admin&#45;user</title>
<polygon fill="#e5e5e5" stroke="#dddddd" points="243.5,-1146 64.5,-1146 64.5,-1088 243.5,-1088 243.5,-1146"/>
<text text-anchor="start" x="73" y="-1126.2" font-family="Helvetica,sans-Serif" font-weight="bold" font-size="16.00" fill="#707070">ClusterRoleBinding</text>
<text text-anchor="start" x="73" y="-1101.2" font-family="Helvetica,sans-Serif" font-size="16.00" fill="#383838">dashboard&#45;admin&#45;user</text>
</g>
<!-- Namespace::kubernetes&#45;dashboard -->
<g id="node3" class="node">
<title>Namespace::kubernetes&#45;dashboard</title>
<polygon fill="#e5e5e5" stroke="#dddddd" points="243.5,-1070 64.5,-1070 64.5,-1012 243.5,-1012 243.5,-1070"/>
<text text-anchor="start" x="73" y="-1050.2" font-family="Helvetica,sans-Serif" font-weight="bold" font-size="16.00" fill="#707070">Namespace</text>
<text text-anchor="start" x="73" y="-1025.2" font-family="Helvetica,sans-Serif" font-size="16.00" fill="#383838">kubernetes&#45;dashboard</text>
</g>
<!-- ServiceAccount::kubernetes&#45;dashboard -->
<g id="node4" class="node">
<title>ServiceAccount::kubernetes&#45;dashboard</title>
<polygon fill="#e5e5e5" stroke="#dddddd" points="243.5,-994 64.5,-994 64.5,-936 243.5,-936 243.5,-994"/>
<text text-anchor="start" x="73" y="-974.2" font-family="Helvetica,sans-Serif" font-weight="bold" font-size="16.00" fill="#707070">ServiceAccount</text>
<text text-anchor="start" x="73" y="-949.2" font-family="Helvetica,sans-Serif" font-size="16.00" fill="#383838">kubernetes&#45;dashboard</text>
</g>
<!-- Service::kubernetes&#45;dashboard -->
<g id="node5" class="node">
<title>Service::kubernetes&#45;dashboard</title>
<polygon fill="#e5e5e5" stroke="#dddddd" points="243.5,-918 64.5,-918 64.5,-860 243.5,-860 243.5,-918"/>
<text text-anchor="start" x="73" y="-898.2" font-family="Helvetica,sans-Serif" font-weight="bold" font-size="16.00" fill="#707070">Service</text>
<text text-anchor="start" x="73" y="-873.2" font-family="Helvetica,sans-Serif" font-size="16.00" fill="#383838">kubernetes&#45;dashboard</text>
</g>
<!-- Secret::kubernetes&#45;dashboard&#45;certs -->
<g id="node6" class="node">
<title>Secret::kubernetes&#45;dashboard&#45;certs</title>
<polygon fill="#e5e5e5" stroke="#dddddd" points="263.5,-842 44.5,-842 44.5,-784 263.5,-784 263.5,-842"/>
<text text-anchor="start" x="53" y="-822.2" font-family="Helvetica,sans-Serif" font-weight="bold" font-size="16.00" fill="#707070">Secret</text>
<text text-anchor="start" x="53" y="-797.2" font-family="Helvetica,sans-Serif" font-size="16.00" fill="#383838">kubernetes&#45;dashboard&#45;certs</text>
</g>
<!-- Secret::kubernetes&#45;dashboard&#45;csrf -->
<g id="node7" class="node">
<title>Secret::kubernetes&#45;dashboard&#45;csrf</title>
<polygon fill="#e5e5e5" stroke="#dddddd" points="259,-766 49,-766 49,-708 259,-708 259,-766"/>
<text text-anchor="start" x="57" y="-746.2" font-family="Helvetica,sans-Serif" font-weight="bold" font-size="16.00" fill="#707070">Secret</text>
<text text-anchor="start" x="57" y="-721.2" font-family="Helvetica,sans-Serif" font-size="16.00" fill="#383838">kubernetes&#45;dashboard&#45;csrf</text>
</g>
<!-- Secret::kubernetes&#45;dashboard&#45;key&#45;holder -->
<g id="node8" class="node">
<title>Secret::kubernetes&#45;dashboard&#45;key&#45;holder</title>
<polygon fill="#e5e5e5" stroke="#dddddd" points="284,-690 24,-690 24,-632 284,-632 284,-690"/>
<text text-anchor="start" x="32" y="-670.2" font-family="Helvetica,sans-Serif" font-weight="bold" font-size="16.00" fill="#707070">Secret</text>
<text text-anchor="start" x="32" y="-645.2" font-family="Helvetica,sans-Serif" font-size="16.00" fill="#383838">kubernetes&#45;dashboard&#45;key&#45;holder</text>
</g>
<!-- ConfigMap::kubernetes&#45;dashboard&#45;settings -->
<g id="node9" class="node">
<title>ConfigMap::kubernetes&#45;dashboard&#45;settings</title>
<polygon fill="#e5e5e5" stroke="#dddddd" points="274,-614 34,-614 34,-556 274,-556 274,-614"/>
<text text-anchor="start" x="42" y="-594.2" font-family="Helvetica,sans-Serif" font-weight="bold" font-size="16.00" fill="#707070">ConfigMap</text>
<text text-anchor="start" x="42" y="-569.2" font-family="Helvetica,sans-Serif" font-size="16.00" fill="#383838">kubernetes&#45;dashboard&#45;settings</text>
</g>
<!-- Role::kubernetes&#45;dashboard -->
<g id="node10" class="node">
<title>Role::kubernetes&#45;dashboard</title>
<polygon fill="#e5e5e5" stroke="#dddddd" points="243.5,-538 64.5,-538 64.5,-480 243.5,-480 243.5,-538"/>
<text text-anchor="start" x="73" y="-518.2" font-family="Helvetica,sans-Serif" font-weight="bold" font-size="16.00" fill="#707070">Role</text>
<text text-anchor="start" x="73" y="-493.2" font-family="Helvetica,sans-Serif" font-size="16.00" fill="#383838">kubernetes&#45;dashboard</text>
</g>
<!-- ClusterRole::kubernetes&#45;dashboard -->
<g id="node11" class="node">
<title>ClusterRole::kubernetes&#45;dashboard</title>
<polygon fill="#e5e5e5" stroke="#dddddd" points="243.5,-462 64.5,-462 64.5,-404 243.5,-404 243.5,-462"/>
<text text-anchor="start" x="73" y="-442.2" font-family="Helvetica,sans-Serif" font-weight="bold" font-size="16.00" fill="#707070">ClusterRole</text>
<text text-anchor="start" x="73" y="-417.2" font-family="Helvetica,sans-Serif" font-size="16.00" fill="#383838">kubernetes&#45;dashboard</text>
</g>
<!-- RoleBinding::kubernetes&#45;dashboard -->
<g id="node12" class="node">
<title>RoleBinding::kubernetes&#45;dashboard</title>
<polygon fill="#e5e5e5" stroke="#dddddd" points="243.5,-386 64.5,-386 64.5,-328 243.5,-328 243.5,-386"/>
<text text-anchor="start" x="73" y="-366.2" font-family="Helvetica,sans-Serif" font-weight="bold" font-size="16.00" fill="#707070">RoleBinding</text>
<text text-anchor="start" x="73" y="-341.2" font-family="Helvetica,sans-Serif" font-size="16.00" fill="#383838">kubernetes&#45;dashboard</text>
</g>
<!-- ClusterRoleBinding::kubernetes&#45;dashboard -->
<g id="node13" class="node">
<title>ClusterRoleBinding::kubernetes&#45;dashboard</title>
<polygon fill="#e5e5e5" stroke="#dddddd" points="243.5,-310 64.5,-310 64.5,-252 243.5,-252 243.5,-310"/>
<text text-anchor="start" x="73" y="-290.2" font-family="Helvetica,sans-Serif" font-weight="bold" font-size="16.00" fill="#707070">ClusterRoleBinding</text>
<text text-anchor="start" x="73" y="-265.2" font-family="Helvetica,sans-Serif" font-size="16.00" fill="#383838">kubernetes&#45;dashboard</text>
</g>
<!-- Deployment::kubernetes&#45;dashboard -->
<g id="node14" class="node">
<title>Deployment::kubernetes&#45;dashboard</title>
<polygon fill="#e5e5e5" stroke="#dddddd" points="243.5,-234 64.5,-234 64.5,-176 243.5,-176 243.5,-234"/>
<text text-anchor="start" x="73" y="-214.2" font-family="Helvetica,sans-Serif" font-weight="bold" font-size="16.00" fill="#707070">Deployment</text>
<text text-anchor="start" x="73" y="-189.2" font-family="Helvetica,sans-Serif" font-size="16.00" fill="#383838">kubernetes&#45;dashboard</text>
</g>
<!-- Service::dashboard&#45;metrics&#45;scraper -->
<g id="node15" class="node">
<title>Service::dashboard&#45;metrics&#45;scraper</title>
<polygon fill="#e5e5e5" stroke="#dddddd" points="259,-158 49,-158 49,-100 259,-100 259,-158"/>
<text text-anchor="start" x="57" y="-138.2" font-family="Helvetica,sans-Serif" font-weight="bold" font-size="16.00" fill="#707070">Service</text>
<text text-anchor="start" x="57" y="-113.2" font-family="Helvetica,sans-Serif" font-size="16.00" fill="#383838">dashboard&#45;metrics&#45;scraper</text>
</g>
<!-- Deployment::dashboard&#45;metrics&#45;scraper -->
<g id="node16" class="node">
<title>Deployment::dashboard&#45;metrics&#45;scraper</title>
<polygon fill="#e5e5e5" stroke="#dddddd" points="259,-82 49,-82 49,-24 259,-24 259,-82"/>
<text text-anchor="start" x="57" y="-62.2" font-family="Helvetica,sans-Serif" font-weight="bold" font-size="16.00" fill="#707070">Deployment</text>
<text text-anchor="start" x="57" y="-37.2" font-family="Helvetica,sans-Serif" font-size="16.00" fill="#383838">dashboard&#45;metrics&#45;scraper</text>
</g>
</g>
</svg>
