<?xml version="1.0" encoding="UTF-8" standalone="no"?>
<!DOCTYPE svg PUBLIC "-//W3C//DTD SVG 1.1//EN"
 "http://www.w3.org/Graphics/SVG/1.1/DTD/svg11.dtd">
<!-- Generated by graphviz version 3.0.0 (20220226.1711)
 -->
<!-- Title: graphname Pages: 1 -->
<svg width="978pt" height="389pt"
 viewBox="0.00 0.00 978.00 389.00" xmlns="http://www.w3.org/2000/svg" xmlns:xlink="http://www.w3.org/1999/xlink">
<g id="graph0" class="graph" transform="scale(1 1) rotate(0) translate(4 385)">
<title>graphname</title>
<polygon fill="#fafafa" stroke="transparent" points="-4,4 -4,-385 974,-385 974,4 -4,4"/>
<text text-anchor="start" x="233" y="-356.4" font-family="Helvetica,sans-Serif" font-weight="bold" font-size="22.00" fill="#383838">Project systems&#45;manager&#45;automation&#45;to&#45;lambda</text>
<text text-anchor="start" x="481.5" y="-340.8" font-family="Helvetica,sans-Serif" font-size="14.00"> &#160;</text>
<text text-anchor="start" x="233" y="-319.2" font-family="Helvetica,sans-Serif" font-weight="bold" font-size="16.00" fill="#707070">Target Diagram</text>
<g id="clust1" class="cluster">
<title>cluster_aws</title>
<polygon fill="#f5f5f5" stroke="#f5f5f5" points="8,-8 8,-297 962,-297 962,-8 8,-8"/>
<text text-anchor="start" x="423" y="-23" font-family="Helvetica,sans-Serif" font-weight="bold" font-size="20.00" fill="#707070">Provider aws</text>
</g>
<g id="clust2" class="cluster">
<title>cluster_aws_</title>
<polygon fill="#eeeeee" stroke="#eeeeee" points="16,-54 16,-289 954,-289 954,-54 16,-54"/>
<text text-anchor="start" x="484.86" y="-58.3" font-family="Helvetica,sans-Serif" font-size="1.00" fill="#383838"> </text>
</g>
<!-- Table::ServerlessLandTestTable -->
<g id="node1" class="node">
<title>Table::ServerlessLandTestTable</title>
<polygon fill="#e5e5e5" stroke="#dddddd" points="946,-205 740,-205 740,-147 946,-147 946,-205"/>
<text text-anchor="start" x="752" y="-185.2" font-family="Helvetica,sans-Serif" font-weight="bold" font-size="16.00" fill="#707070">DynamoDB::Table</text>
<text text-anchor="start" x="752" y="-160.2" font-family="Helvetica,sans-Serif" font-size="16.00" fill="#383838">ServerlessLandTestTable</text>
</g>
<!-- Role::ServerlessLandAuotomationExecutionRole -->
<g id="node2" class="node">
<title>Role::ServerlessLandAuotomationExecutionRole</title>
<polygon fill="#e5e5e5" stroke="#dddddd" points="337,-281 42,-281 42,-223 337,-223 337,-281"/>
<text text-anchor="start" x="54.5" y="-261.2" font-family="Helvetica,sans-Serif" font-weight="bold" font-size="16.00" fill="#707070">IAM::Role</text>
<text text-anchor="start" x="54.5" y="-236.2" font-family="Helvetica,sans-Serif" font-size="16.00" fill="#383838">ServerlessLandAuotomationExecuti...</text>
</g>
<!-- Role::sam&#45;app&#45;LambdaFunctionRole&#45;1OIERGCXDG4GR -->
<g id="node3" class="node">
<title>Role::sam&#45;app&#45;LambdaFunctionRole&#45;1OIERGCXDG4GR</title>
<polygon fill="#e5e5e5" stroke="#dddddd" points="704,-205 391,-205 391,-147 704,-147 704,-205"/>
<text text-anchor="start" x="403.5" y="-185.2" font-family="Helvetica,sans-Serif" font-weight="bold" font-size="16.00" fill="#707070">IAM::Role</text>
<text text-anchor="start" x="403.5" y="-160.2" font-family="Helvetica,sans-Serif" font-size="16.00" fill="#383838">sam&#45;app&#45;LambdaFunctionRole&#45;1OIER...</text>
</g>
<!-- Role::sam&#45;app&#45;LambdaFunctionRole&#45;1OIERGCXDG4GR&#45;&gt;Table::ServerlessLandTestTable -->
<g id="edge1" class="edge">
<title>Role::sam&#45;app&#45;LambdaFunctionRole&#45;1OIERGCXDG4GR&#45;&gt;Table::ServerlessLandTestTable</title>
<path fill="none" stroke="#707070" d="M704.27,-176C712.86,-176 721.4,-176 729.78,-176"/>
<polygon fill="#707070" stroke="#707070" points="729.92,-179.5 739.92,-176 729.92,-172.5 729.92,-179.5"/>
</g>
<!-- Function::sam&#45;app&#45;LambdaFunction&#45;XmYCD2eSMech -->
<g id="node4" class="node">
<title>Function::sam&#45;app&#45;LambdaFunction&#45;XmYCD2eSMech</title>
<polygon fill="#e5e5e5" stroke="#dddddd" points="355,-205 24,-205 24,-147 355,-147 355,-205"/>
<text text-anchor="start" x="36.5" y="-185.2" font-family="Helvetica,sans-Serif" font-weight="bold" font-size="16.00" fill="#707070">Lambda::Function</text>
<text text-anchor="start" x="36.5" y="-160.2" font-family="Helvetica,sans-Serif" font-size="16.00" fill="#383838">sam&#45;app&#45;LambdaFunction&#45;XmYCD2eSM...</text>
</g>
<!-- Function::sam&#45;app&#45;LambdaFunction&#45;XmYCD2eSMech&#45;&gt;Role::sam&#45;app&#45;LambdaFunctionRole&#45;1OIERGCXDG4GR -->
<g id="edge2" class="edge">
<title>Function::sam&#45;app&#45;LambdaFunction&#45;XmYCD2eSMech&#45;&gt;Role::sam&#45;app&#45;LambdaFunctionRole&#45;1OIERGCXDG4GR</title>
<path fill="none" stroke="#707070" d="M355.21,-176C363.63,-176 372.08,-176 380.49,-176"/>
<polygon fill="#707070" stroke="#707070" points="380.74,-179.5 390.74,-176 380.74,-172.5 380.74,-179.5"/>
</g>
<!-- Document::840541460064_serverlessland_automation -->
<g id="node5" class="node">
<title>Document::840541460064_serverlessland_automation</title>
<polygon fill="#e5e5e5" stroke="#dddddd" points="340,-129 39,-129 39,-71 340,-71 340,-129"/>
<text text-anchor="start" x="51.5" y="-109.2" font-family="Helvetica,sans-Serif" font-weight="bold" font-size="16.00" fill="#707070">SSM::Document</text>
<text text-anchor="start" x="51.5" y="-84.2" font-family="Helvetica,sans-Serif" font-size="16.00" fill="#383838">840541460064_serverlessland_auto...</text>
</g>
</g>
</svg>
