<?xml version="1.0" encoding="UTF-8" standalone="no"?>
<!DOCTYPE svg PUBLIC "-//W3C//DTD SVG 1.1//EN"
 "http://www.w3.org/Graphics/SVG/1.1/DTD/svg11.dtd">
<!-- Generated by graphviz version 3.0.0 (20220226.1711)
 -->
<!-- Title: graphname Pages: 1 -->
<svg width="1143pt" height="541pt"
 viewBox="0.00 0.00 1143.00 541.00" xmlns="http://www.w3.org/2000/svg" xmlns:xlink="http://www.w3.org/1999/xlink">
<g id="graph0" class="graph" transform="scale(1 1) rotate(0) translate(4 537)">
<title>graphname</title>
<polygon fill="#fafafa" stroke="transparent" points="-4,4 -4,-537 1139,-537 1139,4 -4,4"/>
<text text-anchor="start" x="441.5" y="-508.4" font-family="Helvetica,sans-Serif" font-weight="bold" font-size="22.00" fill="#383838">Project identity&#45;provider</text>
<text text-anchor="start" x="564" y="-492.8" font-family="Helvetica,sans-Serif" font-size="14.00"> &#160;</text>
<text text-anchor="start" x="441.5" y="-471.2" font-family="Helvetica,sans-Serif" font-weight="bold" font-size="16.00" fill="#707070">Live Diagram</text>
<g id="clust1" class="cluster">
<title>cluster_aws</title>
<polygon fill="#f5f5f5" stroke="#f5f5f5" points="8,-8 8,-449 1127,-449 1127,-8 8,-8"/>
<text text-anchor="start" x="505.5" y="-23" font-family="Helvetica,sans-Serif" font-weight="bold" font-size="20.00" fill="#707070">Provider aws</text>
</g>
<g id="clust2" class="cluster">
<title>cluster_aws_</title>
<polygon fill="#eeeeee" stroke="#eeeeee" points="16,-54 16,-441 1119,-441 1119,-54 16,-54"/>
<text text-anchor="start" x="567.36" y="-58.3" font-family="Helvetica,sans-Serif" font-size="1.00" fill="#383838"> </text>
</g>
<!-- Certificate::::grucloud.org -->
<g id="node1" class="node">
<title>Certificate::::grucloud.org</title>
<polygon fill="#e5e5e5" stroke="#dddddd" points="1014,-347 865,-347 865,-289 1014,-289 1014,-347"/>
<text text-anchor="start" x="877.5" y="-327.2" font-family="Helvetica,sans-Serif" font-weight="bold" font-size="16.00" fill="#707070">ACM::Certificate</text>
<text text-anchor="start" x="877.5" y="-302.2" font-family="Helvetica,sans-Serif" font-size="16.00" fill="#383838">grucloud.org</text>
</g>
<!-- UserPool::::my&#45;user&#45;pool -->
<g id="node2" class="node">
<title>UserPool::::my&#45;user&#45;pool</title>
<polygon fill="#e5e5e5" stroke="#dddddd" points="1111,-428 768,-428 768,-370 1111,-370 1111,-428"/>
<text text-anchor="start" x="780.5" y="-408.2" font-family="Helvetica,sans-Serif" font-weight="bold" font-size="16.00" fill="#707070">CognitoIdentityServiceProvider::UserPool</text>
<text text-anchor="start" x="780.5" y="-383.2" font-family="Helvetica,sans-Serif" font-size="16.00" fill="#383838">my&#45;user&#45;pool</text>
</g>
<!-- UserPoolClient::::my&#45;userpool&#45;client -->
<g id="node3" class="node">
<title>UserPoolClient::::my&#45;userpool&#45;client</title>
<polygon fill="#e5e5e5" stroke="#dddddd" points="725,-433 337,-433 337,-375 725,-375 725,-433"/>
<text text-anchor="start" x="349" y="-413.2" font-family="Helvetica,sans-Serif" font-weight="bold" font-size="16.00" fill="#707070">CognitoIdentityServiceProvider::UserPoolClient</text>
<text text-anchor="start" x="349" y="-388.2" font-family="Helvetica,sans-Serif" font-size="16.00" fill="#383838">my&#45;userpool&#45;client</text>
</g>
<!-- UserPoolClient::::my&#45;userpool&#45;client&#45;&gt;UserPool::::my&#45;user&#45;pool -->
<g id="edge1" class="edge">
<title>UserPoolClient::::my&#45;userpool&#45;client&#45;&gt;UserPool::::my&#45;user&#45;pool</title>
<path fill="none" stroke="#707070" d="M725.13,-401.62C735.92,-401.49 746.75,-401.36 757.49,-401.23"/>
<polygon fill="#707070" stroke="#707070" points="757.8,-404.72 767.76,-401.1 757.72,-397.72 757.8,-404.72"/>
</g>
<!-- UserPoolDomain::::auth.grucloud.org -->
<g id="node4" class="node">
<title>UserPoolDomain::::auth.grucloud.org</title>
<polygon fill="#e5e5e5" stroke="#dddddd" points="732,-357 330,-357 330,-299 732,-299 732,-357"/>
<text text-anchor="start" x="342" y="-337.2" font-family="Helvetica,sans-Serif" font-weight="bold" font-size="16.00" fill="#707070">CognitoIdentityServiceProvider::UserPoolDomain</text>
<text text-anchor="start" x="342" y="-312.2" font-family="Helvetica,sans-Serif" font-size="16.00" fill="#383838">auth.grucloud.org</text>
</g>
<!-- UserPoolDomain::::auth.grucloud.org&#45;&gt;Certificate::::grucloud.org -->
<g id="edge3" class="edge">
<title>UserPoolDomain::::auth.grucloud.org&#45;&gt;Certificate::::grucloud.org</title>
<path fill="none" stroke="#707070" d="M732.27,-323.07C775.32,-322.01 818.54,-320.95 854.22,-320.07"/>
<polygon fill="#707070" stroke="#707070" points="854.65,-323.56 864.56,-319.82 854.48,-316.57 854.65,-323.56"/>
</g>
<!-- UserPoolDomain::::auth.grucloud.org&#45;&gt;UserPool::::my&#45;user&#45;pool -->
<g id="edge2" class="edge">
<title>UserPoolDomain::::auth.grucloud.org&#45;&gt;UserPool::::my&#45;user&#45;pool</title>
<path fill="none" stroke="#707070" d="M698.22,-357.03C719.34,-360.72 741.01,-364.51 762.28,-368.22"/>
<polygon fill="#707070" stroke="#707070" points="761.89,-371.71 772.35,-369.98 763.1,-364.81 761.89,-371.71"/>
</g>
<!-- HostedZone::::grucloud.org. -->
<g id="node5" class="node">
<title>HostedZone::::grucloud.org.</title>
<polygon fill="#e5e5e5" stroke="#dddddd" points="626,-261 436,-261 436,-203 626,-203 626,-261"/>
<text text-anchor="start" x="448" y="-241.2" font-family="Helvetica,sans-Serif" font-weight="bold" font-size="16.00" fill="#707070">Route53::HostedZone</text>
<text text-anchor="start" x="448" y="-216.2" font-family="Helvetica,sans-Serif" font-size="16.00" fill="#383838">grucloud.org.</text>
</g>
<!-- Domain::::grucloud.org -->
<g id="node11" class="node">
<title>Domain::::grucloud.org</title>
<polygon fill="#e5e5e5" stroke="#dddddd" points="1051.5,-261 827.5,-261 827.5,-203 1051.5,-203 1051.5,-261"/>
<text text-anchor="start" x="839.5" y="-241.2" font-family="Helvetica,sans-Serif" font-weight="bold" font-size="16.00" fill="#707070">Route53Domains::Domain</text>
<text text-anchor="start" x="839.5" y="-216.2" font-family="Helvetica,sans-Serif" font-size="16.00" fill="#383838">grucloud.org</text>
</g>
<!-- HostedZone::::grucloud.org.&#45;&gt;Domain::::grucloud.org -->
<g id="edge4" class="edge">
<title>HostedZone::::grucloud.org.&#45;&gt;Domain::::grucloud.org</title>
<path fill="none" stroke="#707070" d="M626.03,-232C682.89,-232 755.99,-232 817.18,-232"/>
<polygon fill="#707070" stroke="#707070" points="817.29,-235.5 827.29,-232 817.29,-228.5 817.29,-235.5"/>
</g>
<!-- Record::::record::ACM::Certificate::grucloud.org -->
<g id="node6" class="node">
<title>Record::::record::ACM::Certificate::grucloud.org</title>
<polygon fill="#e5e5e5" stroke="#dddddd" points="290.5,-357 27.5,-357 27.5,-299 290.5,-299 290.5,-357"/>
<text text-anchor="start" x="40" y="-337.2" font-family="Helvetica,sans-Serif" font-weight="bold" font-size="16.00" fill="#707070">Route53::Record</text>
<text text-anchor="start" x="40" y="-312.2" font-family="Helvetica,sans-Serif" font-size="16.00" fill="#383838">record::ACM::Certificate::gruclo...</text>
</g>
<!-- Record::::record::ACM::Certificate::grucloud.org&#45;&gt;Certificate::::grucloud.org -->
<g id="edge6" class="edge">
<title>Record::::record::ACM::Certificate::grucloud.org&#45;&gt;Certificate::::grucloud.org</title>
<path fill="none" stroke="#707070" d="M273.73,-298.97C292.41,-295.24 311.66,-292.02 330,-290 507.59,-270.39 553.74,-277.97 732,-290 772.42,-292.73 816.99,-298.43 854.34,-303.97"/>
<polygon fill="#707070" stroke="#707070" points="854.26,-307.5 864.67,-305.53 855.31,-300.58 854.26,-307.5"/>
</g>
<!-- Record::::record::ACM::Certificate::grucloud.org&#45;&gt;HostedZone::::grucloud.org. -->
<g id="edge5" class="edge">
<title>Record::::record::ACM::Certificate::grucloud.org&#45;&gt;HostedZone::::grucloud.org.</title>
<path fill="none" stroke="#707070" d="M266.78,-298.96C276.03,-296.07 285.21,-293.07 294,-290 310.37,-284.29 313.46,-280.18 330,-275 360.74,-265.38 394.8,-257.18 425.96,-250.6"/>
<polygon fill="#707070" stroke="#707070" points="426.9,-253.98 435.97,-248.52 425.47,-247.13 426.9,-253.98"/>
</g>
<!-- Record::::record::CognitoIdentityServiceProvider::UserPoolDomain::auth.grucloud.org -->
<g id="node7" class="node">
<title>Record::::record::CognitoIdentityServiceProvider::UserPoolDomain::auth.grucloud.org</title>
<polygon fill="#e5e5e5" stroke="#dddddd" points="294,-433 24,-433 24,-375 294,-375 294,-433"/>
<text text-anchor="start" x="36" y="-413.2" font-family="Helvetica,sans-Serif" font-weight="bold" font-size="16.00" fill="#707070">Route53::Record</text>
<text text-anchor="start" x="36" y="-388.2" font-family="Helvetica,sans-Serif" font-size="16.00" fill="#383838">record::CognitoIdentityServicePr...</text>
</g>
<!-- Record::::record::CognitoIdentityServiceProvider::UserPoolDomain::auth.grucloud.org&#45;&gt;UserPoolDomain::::auth.grucloud.org -->
<g id="edge8" class="edge">
<title>Record::::record::CognitoIdentityServiceProvider::UserPoolDomain::auth.grucloud.org&#45;&gt;UserPoolDomain::::auth.grucloud.org</title>
<path fill="none" stroke="#707070" d="M288,-374.92C302.16,-371.85 316.38,-368.82 330,-366 341.29,-363.67 352.95,-361.31 364.7,-358.98"/>
<polygon fill="#707070" stroke="#707070" points="365.46,-362.39 374.59,-357.02 364.1,-355.53 365.46,-362.39"/>
</g>
<!-- Record::::record::CognitoIdentityServiceProvider::UserPoolDomain::auth.grucloud.org&#45;&gt;HostedZone::::grucloud.org. -->
<g id="edge7" class="edge">
<title>Record::::record::CognitoIdentityServiceProvider::UserPoolDomain::auth.grucloud.org&#45;&gt;HostedZone::::grucloud.org.</title>
<path fill="none" stroke="#707070" d="M281.95,-374.82C286.18,-372.14 290.22,-369.2 294,-366 322.53,-341.85 301.54,-314.23 330,-290 356.87,-267.12 392.33,-253.26 425.92,-244.86"/>
<polygon fill="#707070" stroke="#707070" points="426.87,-248.23 435.8,-242.53 425.26,-241.42 426.87,-248.23"/>
</g>
<!-- Record::::record::grucloud.org.::A -->
<g id="node8" class="node">
<title>Record::::record::grucloud.org.::A</title>
<polygon fill="#e5e5e5" stroke="#dddddd" points="255.5,-205 62.5,-205 62.5,-147 255.5,-147 255.5,-205"/>
<text text-anchor="start" x="75" y="-185.2" font-family="Helvetica,sans-Serif" font-weight="bold" font-size="16.00" fill="#707070">Route53::Record</text>
<text text-anchor="start" x="75" y="-160.2" font-family="Helvetica,sans-Serif" font-size="16.00" fill="#383838">record::grucloud.org.::A</text>
</g>
<!-- Record::::record::grucloud.org.::A&#45;&gt;HostedZone::::grucloud.org. -->
<g id="edge9" class="edge">
<title>Record::::record::grucloud.org.::A&#45;&gt;HostedZone::::grucloud.org.</title>
<path fill="none" stroke="#707070" d="M255.77,-190.49C307.86,-198.38 372.38,-208.14 425.74,-216.22"/>
<polygon fill="#707070" stroke="#707070" points="425.51,-219.72 435.92,-217.76 426.55,-212.8 425.51,-219.72"/>
</g>
<!-- Record::::record::grucloud.org.::NS -->
<g id="node9" class="node">
<title>Record::::record::grucloud.org.::NS</title>
<polygon fill="#e5e5e5" stroke="#dddddd" points="261.5,-129 56.5,-129 56.5,-71 261.5,-71 261.5,-129"/>
<text text-anchor="start" x="69" y="-109.2" font-family="Helvetica,sans-Serif" font-weight="bold" font-size="16.00" fill="#707070">Route53::Record</text>
<text text-anchor="start" x="69" y="-84.2" font-family="Helvetica,sans-Serif" font-size="16.00" fill="#383838">record::grucloud.org.::NS</text>
</g>
<!-- Record::::record::grucloud.org.::NS&#45;&gt;HostedZone::::grucloud.org. -->
<g id="edge10" class="edge">
<title>Record::::record::grucloud.org.::NS&#45;&gt;HostedZone::::grucloud.org.</title>
<path fill="none" stroke="#707070" d="M261.68,-127.64C272.64,-130.98 283.58,-134.46 294,-138 347.91,-156.33 407.47,-180.08 453.27,-199.12"/>
<polygon fill="#707070" stroke="#707070" points="451.95,-202.36 462.53,-202.98 454.65,-195.9 451.95,-202.36"/>
</g>
<!-- Record::::record::grucloud.org.::SOA -->
<g id="node10" class="node">
<title>Record::::record::grucloud.org.::SOA</title>
<polygon fill="#e5e5e5" stroke="#dddddd" points="267.5,-281 50.5,-281 50.5,-223 267.5,-223 267.5,-281"/>
<text text-anchor="start" x="63" y="-261.2" font-family="Helvetica,sans-Serif" font-weight="bold" font-size="16.00" fill="#707070">Route53::Record</text>
<text text-anchor="start" x="63" y="-236.2" font-family="Helvetica,sans-Serif" font-size="16.00" fill="#383838">record::grucloud.org.::SOA</text>
</g>
<!-- Record::::record::grucloud.org.::SOA&#45;&gt;HostedZone::::grucloud.org. -->
<g id="edge11" class="edge">
<title>Record::::record::grucloud.org.::SOA&#45;&gt;HostedZone::::grucloud.org.</title>
<path fill="none" stroke="#707070" d="M267.52,-246.19C317.32,-243.5 376.27,-240.31 425.67,-237.64"/>
<polygon fill="#707070" stroke="#707070" points="425.94,-241.13 435.74,-237.1 425.57,-234.14 425.94,-241.13"/>
</g>
</g>
</svg>
