<?xml version="1.0" encoding="UTF-8" standalone="no"?><svg xmlns="http://www.w3.org/2000/svg" xmlns:xlink="http://www.w3.org/1999/xlink" contentStyleType="text/css" height="341px" preserveAspectRatio="none" style="width:531px;height:341px;background:#FFFFFF;" version="1.1" viewBox="0 0 531 341" width="531px" zoomAndPan="magnify"><defs/><g><rect height="26.4883" style="stroke:#00000000;stroke-width:1.0;fill:none;" width="256" x="111" y="15"/><text fill="#000000" font-family="sans-serif" font-size="14" font-weight="bold" lengthAdjust="spacing" textLength="246" x="116" y="33.5352">Resources for project sqs-lambda</text><rect fill="#F1F1F1" height="36.4883" rx="12.5" ry="12.5" style="stroke:#181818;stroke-width:1.5;" width="52" x="10" y="170.4648"/><text fill="#000000" font-family="sans-serif" font-size="14" lengthAdjust="spacing" textLength="32" x="20" y="194">Infra</text><rect fill="#F1F1F1" height="36.4883" rx="12.5" ry="12.5" style="stroke:#181818;stroke-width:1.5;" width="46" x="112" y="170.4648"/><text fill="#000000" font-family="sans-serif" font-size="14" lengthAdjust="spacing" textLength="26" x="122" y="194">aws</text><rect fill="#F1F1F1" height="36.4883" rx="12.5" ry="12.5" style="stroke:#181818;stroke-width:1.5;" width="46" x="208" y="85.7324"/><text fill="#000000" font-family="sans-serif" font-size="14" lengthAdjust="spacing" textLength="26" x="218" y="109.2676">IAM</text><rect fill="#F1F1F1" height="36.4883" rx="12.5" ry="12.5" style="stroke:#181818;stroke-width:1.5;" width="73" x="304" y="57.4883"/><text fill="#000000" font-family="sans-serif" font-size="14" lengthAdjust="spacing" textLength="53" x="314" y="81.0234">Role (1)</text><path d="M254,103.9766 L264,103.9766 C279,103.9766 279,75.7324 294,75.7324 L304,75.7324 " fill="none" style="stroke:#181818;stroke-width:1.0;"/><rect fill="#F1F1F1" height="36.4883" rx="12.5" ry="12.5" style="stroke:#181818;stroke-width:1.5;" width="82" x="304" y="113.9766"/><text fill="#000000" font-family="sans-serif" font-size="14" lengthAdjust="spacing" textLength="62" x="314" y="137.5117">Policy (1)</text><path d="M254,103.9766 L264,103.9766 C279,103.9766 279,132.2207 294,132.2207 L304,132.2207 " fill="none" style="stroke:#181818;stroke-width:1.0;"/><path d="M158,188.709 L168,188.709 C183,188.709 183,103.9766 198,103.9766 L208,103.9766 " fill="none" style="stroke:#181818;stroke-width:1.0;"/><rect fill="#F1F1F1" height="36.4883" rx="12.5" ry="12.5" style="stroke:#181818;stroke-width:1.5;" width="74" x="208" y="198.709"/><text fill="#000000" font-family="sans-serif" font-size="14" lengthAdjust="spacing" textLength="54" x="218" y="222.2441">Lambda</text><rect fill="#F1F1F1" height="36.4883" rx="12.5" ry="12.5" style="stroke:#181818;stroke-width:1.5;" width="187" x="332" y="170.4648"/><text fill="#000000" font-family="sans-serif" font-size="14" lengthAdjust="spacing" textLength="167" x="342" y="194">EventSourceMapping (1)</text><path d="M282,216.9531 L292,216.9531 C307,216.9531 307,188.709 322,188.709 L332,188.709 " fill="none" style="stroke:#181818;stroke-width:1.0;"/><rect fill="#F1F1F1" height="36.4883" rx="12.5" ry="12.5" style="stroke:#181818;stroke-width:1.5;" width="103" x="332" y="226.9531"/><text fill="#000000" font-family="sans-serif" font-size="14" lengthAdjust="spacing" textLength="83" x="342" y="250.4883">Function (1)</text><path d="M282,216.9531 L292,216.9531 C307,216.9531 307,245.1973 322,245.1973 L332,245.1973 " fill="none" style="stroke:#181818;stroke-width:1.0;"/><path d="M158,188.709 L168,188.709 C183,188.709 183,216.9531 198,216.9531 L208,216.9531 " fill="none" style="stroke:#181818;stroke-width:1.0;"/><rect fill="#F1F1F1" height="36.4883" rx="12.5" ry="12.5" style="stroke:#181818;stroke-width:1.5;" width="47" x="208" y="283.4414"/><text fill="#000000" font-family="sans-serif" font-size="14" lengthAdjust="spacing" textLength="27" x="218" y="306.9766">SQS</text><rect fill="#F1F1F1" height="36.4883" rx="12.5" ry="12.5" style="stroke:#181818;stroke-width:1.5;" width="88" x="305" y="283.4414"/><text fill="#000000" font-family="sans-serif" font-size="14" lengthAdjust="spacing" textLength="68" x="315" y="306.9766">Queue (1)</text><path d="M255,301.6855 L265,301.6855 C280,301.6855 280,301.6855 295,301.6855 L305,301.6855 " fill="none" style="stroke:#181818;stroke-width:1.0;"/><path d="M158,188.709 L168,188.709 C183,188.709 183,301.6855 198,301.6855 L208,301.6855 " fill="none" style="stroke:#181818;stroke-width:1.0;"/><path d="M62,188.709 L72,188.709 C87,188.709 87,188.709 102,188.709 L112,188.709 " fill="none" style="stroke:#181818;stroke-width:1.0;"/><!--MD5=[c4d667b95a1c04e3026f523d08468e7e]
@startmindmap
title Resources for project sqs-lambda
skinparam monochrome true
+ Infra
++ aws
+++ IAM
++++ Role (1)
++++ Policy (1)
+++ Lambda
++++ EventSourceMapping (1)
++++ Function (1)
+++ SQS
++++ Queue (1)
@endmindmap

PlantUML version 1.2022.6(Tue Jun 21 12:34:49 COT 2022)
(GPL source distribution)
Java Runtime: Java(TM) SE Runtime Environment
JVM: Java HotSpot(TM) 64-Bit Server VM
Default Encoding: UTF-8
Language: en
Country: GB
--></g></svg>