<?xml version="1.0" encoding="UTF-8" standalone="no"?><svg xmlns="http://www.w3.org/2000/svg" xmlns:xlink="http://www.w3.org/1999/xlink" contentStyleType="text/css" height="172px" preserveAspectRatio="none" style="width:522px;height:172px;background:#FFFFFF;" version="1.1" viewBox="0 0 522 172" width="522px" zoomAndPan="magnify"><defs/><g><rect height="26.4883" style="stroke:#00000000;stroke-width:1.0;fill:none;" width="281" x="94" y="15"/><text fill="#000000" font-family="sans-serif" font-size="14" font-weight="bold" lengthAdjust="spacing" textLength="271" x="99" y="33.5352">Resources for project ssh-public-key</text><rect fill="#F1F1F1" height="36.4883" rx="12.5" ry="12.5" style="stroke:#181818;stroke-width:1.5;" width="52" x="10" y="85.7324"/><text fill="#000000" font-family="sans-serif" font-size="14" lengthAdjust="spacing" textLength="32" x="20" y="109.2676">Infra</text><rect fill="#F1F1F1" height="36.4883" rx="12.5" ry="12.5" style="stroke:#181818;stroke-width:1.5;" width="59" x="112" y="85.7324"/><text fill="#000000" font-family="sans-serif" font-size="14" lengthAdjust="spacing" textLength="39" x="122" y="109.2676">azure</text><rect fill="#F1F1F1" height="36.4883" rx="12.5" ry="12.5" style="stroke:#181818;stroke-width:1.5;" width="83" x="221" y="57.4883"/><text fill="#000000" font-family="sans-serif" font-size="14" lengthAdjust="spacing" textLength="63" x="231" y="81.0234">Compute</text><rect fill="#F1F1F1" height="36.4883" rx="12.5" ry="12.5" style="stroke:#181818;stroke-width:1.5;" width="132" x="354" y="57.4883"/><text fill="#000000" font-family="sans-serif" font-size="14" lengthAdjust="spacing" textLength="112" x="364" y="81.0234">SshPublicKey (1)</text><path d="M304,75.7324 L314,75.7324 C329,75.7324 329,75.7324 344,75.7324 L354,75.7324 " fill="none" style="stroke:#181818;stroke-width:1.0;"/><path d="M171,103.9766 L181,103.9766 C196,103.9766 196,75.7324 211,75.7324 L221,75.7324 " fill="none" style="stroke:#181818;stroke-width:1.0;"/><rect fill="#F1F1F1" height="36.4883" rx="12.5" ry="12.5" style="stroke:#181818;stroke-width:1.5;" width="90" x="221" y="113.9766"/><text fill="#000000" font-family="sans-serif" font-size="14" lengthAdjust="spacing" textLength="70" x="231" y="137.5117">Resources</text><rect fill="#F1F1F1" height="36.4883" rx="12.5" ry="12.5" style="stroke:#181818;stroke-width:1.5;" width="149" x="361" y="113.9766"/><text fill="#000000" font-family="sans-serif" font-size="14" lengthAdjust="spacing" textLength="129" x="371" y="137.5117">ResourceGroup (1)</text><path d="M311,132.2207 L321,132.2207 C336,132.2207 336,132.2207 351,132.2207 L361,132.2207 " fill="none" style="stroke:#181818;stroke-width:1.0;"/><path d="M171,103.9766 L181,103.9766 C196,103.9766 196,132.2207 211,132.2207 L221,132.2207 " fill="none" style="stroke:#181818;stroke-width:1.0;"/><path d="M62,103.9766 L72,103.9766 C87,103.9766 87,103.9766 102,103.9766 L112,103.9766 " fill="none" style="stroke:#181818;stroke-width:1.0;"/><!--MD5=[4737c741adb4a4ffede2b0ebdebcf59f]
@startmindmap
title Resources for project ssh-public-key
skinparam monochrome true
+ Infra
++ azure
+++ Compute
++++ SshPublicKey (1)
+++ Resources
++++ ResourceGroup (1)
@endmindmap

PlantUML version 1.2022.6(Tue Jun 21 19:34:49 CEST 2022)
(GPL source distribution)
Java Runtime: Java(TM) SE Runtime Environment
JVM: Java HotSpot(TM) 64-Bit Server VM
Default Encoding: UTF-8
Language: en
Country: GB
--></g></svg>