<?xml version="1.0" encoding="UTF-8" standalone="no"?>
<!DOCTYPE svg PUBLIC "-//W3C//DTD SVG 1.1//EN"
 "http://www.w3.org/Graphics/SVG/1.1/DTD/svg11.dtd">
<!-- Generated by graphviz version 3.0.0 (20220226.1711)
 -->
<!-- Title: graphname Pages: 1 -->
<svg width="811pt" height="237pt"
 viewBox="0.00 0.00 811.00 237.00" xmlns="http://www.w3.org/2000/svg" xmlns:xlink="http://www.w3.org/1999/xlink">
<g id="graph0" class="graph" transform="scale(1 1) rotate(0) translate(4 233)">
<title>graphname</title>
<polygon fill="#fafafa" stroke="transparent" points="-4,4 -4,-233 807,-233 807,4 -4,4"/>
<text text-anchor="start" x="285.5" y="-204.4" font-family="Helvetica,sans-Serif" font-weight="bold" font-size="22.00" fill="#383838">Project sfn&#45;dynamodb</text>
<text text-anchor="start" x="397.5" y="-188.8" font-family="Helvetica,sans-Serif" font-size="14.00"> &#160;</text>
<text text-anchor="start" x="285.5" y="-167.2" font-family="Helvetica,sans-Serif" font-weight="bold" font-size="16.00" fill="#707070">Target Diagram</text>
<g id="clust1" class="cluster">
<title>cluster_aws</title>
<polygon fill="#f5f5f5" stroke="#f5f5f5" points="8,-8 8,-145 795,-145 795,-8 8,-8"/>
<text text-anchor="start" x="339.5" y="-23" font-family="Helvetica,sans-Serif" font-weight="bold" font-size="20.00" fill="#707070">Provider aws</text>
</g>
<g id="clust2" class="cluster">
<title>cluster_aws_</title>
<polygon fill="#eeeeee" stroke="#eeeeee" points="16,-54 16,-137 787,-137 787,-54 16,-54"/>
<text text-anchor="start" x="401.36" y="-58.3" font-family="Helvetica,sans-Serif" font-size="1.00" fill="#383838"> </text>
</g>
<!-- Table::my&#45;table -->
<g id="node1" class="node">
<title>Table::my&#45;table</title>
<polygon fill="#e5e5e5" stroke="#dddddd" points="779,-129 692,-129 692,-71 779,-71 779,-129"/>
<text text-anchor="start" x="704.5" y="-109.2" font-family="Helvetica,sans-Serif" font-weight="bold" font-size="16.00" fill="#707070">Table</text>
<text text-anchor="start" x="704.5" y="-84.2" font-family="Helvetica,sans-Serif" font-size="16.00" fill="#383838">my&#45;table</text>
</g>
<!-- Role::sam&#45;app&#45;MyStateMachineExecutionRole&#45;ZVCE4J344HAN -->
<g id="node2" class="node">
<title>Role::sam&#45;app&#45;MyStateMachineExecutionRole&#45;ZVCE4J344HAN</title>
<polygon fill="#e5e5e5" stroke="#dddddd" points="656,-129 346,-129 346,-71 656,-71 656,-129"/>
<text text-anchor="start" x="358" y="-109.2" font-family="Helvetica,sans-Serif" font-weight="bold" font-size="16.00" fill="#707070">Role</text>
<text text-anchor="start" x="358" y="-84.2" font-family="Helvetica,sans-Serif" font-size="16.00" fill="#383838">sam&#45;app&#45;MyStateMachineExecutionR...</text>
</g>
<!-- Role::sam&#45;app&#45;MyStateMachineExecutionRole&#45;ZVCE4J344HAN&#45;&gt;Table::my&#45;table -->
<g id="edge1" class="edge">
<title>Role::sam&#45;app&#45;MyStateMachineExecutionRole&#45;ZVCE4J344HAN&#45;&gt;Table::my&#45;table</title>
<path fill="none" stroke="#707070" d="M656.11,-100C665,-100 673.57,-100 681.56,-100"/>
<polygon fill="#707070" stroke="#707070" points="681.71,-103.5 691.71,-100 681.71,-96.5 681.71,-103.5"/>
</g>
<!-- StateMachine::StateMachinetoDDB&#45;OZxx41bNDei3 -->
<g id="node3" class="node">
<title>StateMachine::StateMachinetoDDB&#45;OZxx41bNDei3</title>
<polygon fill="#e5e5e5" stroke="#dddddd" points="310,-129 24,-129 24,-71 310,-71 310,-129"/>
<text text-anchor="start" x="36" y="-109.2" font-family="Helvetica,sans-Serif" font-weight="bold" font-size="16.00" fill="#707070">StateMachine</text>
<text text-anchor="start" x="36" y="-84.2" font-family="Helvetica,sans-Serif" font-size="16.00" fill="#383838">StateMachinetoDDB&#45;OZxx41bNDei3</text>
</g>
<!-- StateMachine::StateMachinetoDDB&#45;OZxx41bNDei3&#45;&gt;Role::sam&#45;app&#45;MyStateMachineExecutionRole&#45;ZVCE4J344HAN -->
<g id="edge2" class="edge">
<title>StateMachine::StateMachinetoDDB&#45;OZxx41bNDei3&#45;&gt;Role::sam&#45;app&#45;MyStateMachineExecutionRole&#45;ZVCE4J344HAN</title>
<path fill="none" stroke="#707070" d="M310.24,-100C318.72,-100 327.28,-100 335.83,-100"/>
<polygon fill="#707070" stroke="#707070" points="335.86,-103.5 345.86,-100 335.86,-96.5 335.86,-103.5"/>
</g>
</g>
</svg>
