<?xml version="1.0" encoding="UTF-8" standalone="no"?>
<!DOCTYPE svg PUBLIC "-//W3C//DTD SVG 1.1//EN"
 "http://www.w3.org/Graphics/SVG/1.1/DTD/svg11.dtd">
<!-- Generated by graphviz version 3.0.0 (20220226.1711)
 -->
<!-- Title: graphname Pages: 1 -->
<svg width="1231pt" height="485pt"
 viewBox="0.00 0.00 1231.00 485.00" xmlns="http://www.w3.org/2000/svg" xmlns:xlink="http://www.w3.org/1999/xlink">
<g id="graph0" class="graph" transform="scale(1 1) rotate(0) translate(4 481)">
<title>graphname</title>
<polygon fill="#fafafa" stroke="transparent" points="-4,4 -4,-481 1227,-481 1227,4 -4,4"/>
<text text-anchor="start" x="407.5" y="-452.4" font-family="Helvetica,sans-Serif" font-weight="bold" font-size="22.00" fill="#383838">Project apigw&#45;http&#45;api&#45;eventbridge&#45;cdk</text>
<text text-anchor="start" x="607.5" y="-436.8" font-family="Helvetica,sans-Serif" font-size="14.00"> &#160;</text>
<text text-anchor="start" x="407.5" y="-415.2" font-family="Helvetica,sans-Serif" font-weight="bold" font-size="16.00" fill="#707070">Target Diagram</text>
<g id="clust1" class="cluster">
<title>cluster_aws</title>
<polygon fill="#f5f5f5" stroke="#f5f5f5" points="8,-8 8,-393 1215,-393 1215,-8 8,-8"/>
<text text-anchor="start" x="549.5" y="-23" font-family="Helvetica,sans-Serif" font-weight="bold" font-size="20.00" fill="#707070">Provider aws</text>
</g>
<g id="clust2" class="cluster">
<title>cluster_aws_</title>
<polygon fill="#eeeeee" stroke="#eeeeee" points="16,-54 16,-385 1207,-385 1207,-54 16,-54"/>
<text text-anchor="start" x="611.36" y="-58.3" font-family="Helvetica,sans-Serif" font-size="1.00" fill="#383838"> </text>
</g>
<!-- Api::MyHttpApi -->
<g id="node1" class="node">
<title>Api::MyHttpApi</title>
<polygon fill="#e5e5e5" stroke="#dddddd" points="848,-281 676,-281 676,-223 848,-223 848,-281"/>
<text text-anchor="start" x="688" y="-261.2" font-family="Helvetica,sans-Serif" font-weight="bold" font-size="16.00" fill="#707070">ApiGatewayV2::Api</text>
<text text-anchor="start" x="688" y="-236.2" font-family="Helvetica,sans-Serif" font-size="16.00" fill="#383838">MyHttpApi</text>
</g>
<!-- Stage::$default -->
<g id="node2" class="node">
<title>Stage::$default</title>
<polygon fill="#e5e5e5" stroke="#dddddd" points="533,-257 343,-257 343,-199 533,-199 533,-257"/>
<text text-anchor="start" x="355" y="-237.2" font-family="Helvetica,sans-Serif" font-weight="bold" font-size="16.00" fill="#707070">ApiGatewayV2::Stage</text>
<text text-anchor="start" x="355" y="-212.2" font-family="Helvetica,sans-Serif" font-size="16.00" fill="#383838">$default</text>
</g>
<!-- Stage::$default&#45;&gt;Api::MyHttpApi -->
<g id="edge1" class="edge">
<title>Stage::$default&#45;&gt;Api::MyHttpApi</title>
<path fill="none" stroke="#707070" d="M533,-235.01C574.76,-238.12 623.84,-241.78 665.74,-244.9"/>
<polygon fill="#707070" stroke="#707070" points="665.72,-248.41 675.95,-245.66 666.24,-241.43 665.72,-248.41"/>
</g>
<!-- Integration::integration::MyHttpApi::MyEventBus -->
<g id="node3" class="node">
<title>Integration::integration::MyHttpApi::MyEventBus</title>
<polygon fill="#e5e5e5" stroke="#dddddd" points="578,-353 298,-353 298,-295 578,-295 578,-353"/>
<text text-anchor="start" x="310" y="-333.2" font-family="Helvetica,sans-Serif" font-weight="bold" font-size="16.00" fill="#707070">ApiGatewayV2::Integration</text>
<text text-anchor="start" x="310" y="-308.2" font-family="Helvetica,sans-Serif" font-size="16.00" fill="#383838">integration::MyHttpApi::MyEventB...</text>
</g>
<!-- Integration::integration::MyHttpApi::MyEventBus&#45;&gt;Api::MyHttpApi -->
<g id="edge2" class="edge">
<title>Integration::integration::MyHttpApi::MyEventBus&#45;&gt;Api::MyHttpApi</title>
<path fill="none" stroke="#707070" d="M569.04,-294.92C601.35,-287.7 635.38,-280.09 665.67,-273.32"/>
<polygon fill="#707070" stroke="#707070" points="666.79,-276.65 675.79,-271.05 665.27,-269.82 666.79,-276.65"/>
</g>
<!-- EventBus::MyEventBus -->
<g id="node6" class="node">
<title>EventBus::MyEventBus</title>
<polygon fill="#e5e5e5" stroke="#dddddd" points="1199,-329 946,-329 946,-271 1199,-271 1199,-329"/>
<text text-anchor="start" x="958.5" y="-309.2" font-family="Helvetica,sans-Serif" font-weight="bold" font-size="16.00" fill="#707070">CloudWatchEvents::EventBus</text>
<text text-anchor="start" x="958.5" y="-284.2" font-family="Helvetica,sans-Serif" font-size="16.00" fill="#383838">MyEventBus</text>
</g>
<!-- Integration::integration::MyHttpApi::MyEventBus&#45;&gt;EventBus::MyEventBus -->
<g id="edge3" class="edge">
<title>Integration::integration::MyHttpApi::MyEventBus&#45;&gt;EventBus::MyEventBus</title>
<path fill="none" stroke="#707070" d="M578.41,-312.11C590.44,-311.31 602.43,-310.59 614,-310 722.02,-304.5 844.54,-302.02 935.59,-300.91"/>
<polygon fill="#707070" stroke="#707070" points="935.74,-304.41 945.7,-300.79 935.65,-297.41 935.74,-304.41"/>
</g>
<!-- Role::ApiEventbridgeStack&#45;EventBridgeIntegrationRoleB322&#45;1LXDAK3DKUOQS -->
<g id="node10" class="node">
<title>Role::ApiEventbridgeStack&#45;EventBridgeIntegrationRoleB322&#45;1LXDAK3DKUOQS</title>
<polygon fill="#e5e5e5" stroke="#dddddd" points="905,-377 619,-377 619,-319 905,-319 905,-377"/>
<text text-anchor="start" x="631" y="-357.2" font-family="Helvetica,sans-Serif" font-weight="bold" font-size="16.00" fill="#707070">IAM::Role</text>
<text text-anchor="start" x="631" y="-332.2" font-family="Helvetica,sans-Serif" font-size="16.00" fill="#383838">ApiEventbridgeStack&#45;EventBridgeI...</text>
</g>
<!-- Integration::integration::MyHttpApi::MyEventBus&#45;&gt;Role::ApiEventbridgeStack&#45;EventBridgeIntegrationRoleB322&#45;1LXDAK3DKUOQS -->
<g id="edge4" class="edge">
<title>Integration::integration::MyHttpApi::MyEventBus&#45;&gt;Role::ApiEventbridgeStack&#45;EventBridgeIntegrationRoleB322&#45;1LXDAK3DKUOQS</title>
<path fill="none" stroke="#707070" d="M578.36,-334.39C588.43,-335.14 598.62,-335.9 608.76,-336.65"/>
<polygon fill="#707070" stroke="#707070" points="608.64,-340.15 618.87,-337.41 609.16,-333.17 608.64,-340.15"/>
</g>
<!-- Route::route::MyHttpApi::POST / -->
<g id="node4" class="node">
<title>Route::route::MyHttpApi::POST /</title>
<polygon fill="#e5e5e5" stroke="#dddddd" points="246,-329 40,-329 40,-271 246,-271 246,-329"/>
<text text-anchor="start" x="52" y="-309.2" font-family="Helvetica,sans-Serif" font-weight="bold" font-size="16.00" fill="#707070">ApiGatewayV2::Route</text>
<text text-anchor="start" x="52" y="-284.2" font-family="Helvetica,sans-Serif" font-size="16.00" fill="#383838">route::MyHttpApi::POST /</text>
</g>
<!-- Route::route::MyHttpApi::POST /&#45;&gt;Api::MyHttpApi -->
<g id="edge5" class="edge">
<title>Route::route::MyHttpApi::POST /&#45;&gt;Api::MyHttpApi</title>
<path fill="none" stroke="#707070" d="M246.28,-290.42C263.54,-288.89 281.28,-287.36 298,-286 422.35,-275.91 453.58,-275.2 578,-266 606.44,-263.9 637.37,-261.55 665.56,-259.39"/>
<polygon fill="#707070" stroke="#707070" points="666.11,-262.86 675.82,-258.61 665.58,-255.88 666.11,-262.86"/>
</g>
<!-- Route::route::MyHttpApi::POST /&#45;&gt;Integration::integration::MyHttpApi::MyEventBus -->
<g id="edge6" class="edge">
<title>Route::route::MyHttpApi::POST /&#45;&gt;Integration::integration::MyHttpApi::MyEventBus</title>
<path fill="none" stroke="#707070" d="M246.07,-308.36C259.56,-309.47 273.6,-310.62 287.68,-311.77"/>
<polygon fill="#707070" stroke="#707070" points="287.68,-315.28 297.93,-312.61 288.25,-308.3 287.68,-315.28"/>
</g>
<!-- Deployment::deployment::MyHttpApi -->
<g id="node5" class="node">
<title>Deployment::deployment::MyHttpApi</title>
<polygon fill="#e5e5e5" stroke="#dddddd" points="262,-219 24,-219 24,-161 262,-161 262,-219"/>
<text text-anchor="start" x="36" y="-199.2" font-family="Helvetica,sans-Serif" font-weight="bold" font-size="16.00" fill="#707070">ApiGatewayV2::Deployment</text>
<text text-anchor="start" x="36" y="-174.2" font-family="Helvetica,sans-Serif" font-size="16.00" fill="#383838">deployment::MyHttpApi</text>
</g>
<!-- Deployment::deployment::MyHttpApi&#45;&gt;Api::MyHttpApi -->
<g id="edge7" class="edge">
<title>Deployment::deployment::MyHttpApi&#45;&gt;Api::MyHttpApi</title>
<path fill="none" stroke="#707070" d="M262.09,-182.36C370.02,-176.77 521.21,-172.81 578,-190 596.4,-195.57 596.45,-206.15 614,-214 630.34,-221.31 648.36,-227.41 666.02,-232.44"/>
<polygon fill="#707070" stroke="#707070" points="665.21,-235.85 675.78,-235.12 667.06,-229.1 665.21,-235.85"/>
</g>
<!-- Deployment::deployment::MyHttpApi&#45;&gt;Stage::$default -->
<g id="edge8" class="edge">
<title>Deployment::deployment::MyHttpApi&#45;&gt;Stage::$default</title>
<path fill="none" stroke="#707070" d="M262.33,-205.35C285.71,-208.38 310.09,-211.54 332.95,-214.51"/>
<polygon fill="#707070" stroke="#707070" points="332.63,-217.99 343,-215.81 333.53,-211.05 332.63,-217.99"/>
</g>
<!-- Rule::ApiEventbridgeStack&#45;EventLoggerRuleC0DD3E40&#45;G6CDILDRSIPL -->
<g id="node7" class="node">
<title>Rule::ApiEventbridgeStack&#45;EventLoggerRuleC0DD3E40&#45;G6CDILDRSIPL</title>
<polygon fill="#e5e5e5" stroke="#dddddd" points="910,-129 614,-129 614,-71 910,-71 910,-129"/>
<text text-anchor="start" x="626" y="-109.2" font-family="Helvetica,sans-Serif" font-weight="bold" font-size="16.00" fill="#707070">CloudWatchEvents::Rule</text>
<text text-anchor="start" x="626" y="-84.2" font-family="Helvetica,sans-Serif" font-size="16.00" fill="#383838">ApiEventbridgeStack&#45;EventLoggerR...</text>
</g>
<!-- Rule::ApiEventbridgeStack&#45;EventLoggerRuleC0DD3E40&#45;G6CDILDRSIPL&#45;&gt;EventBus::MyEventBus -->
<g id="edge9" class="edge">
<title>Rule::ApiEventbridgeStack&#45;EventLoggerRuleC0DD3E40&#45;G6CDILDRSIPL&#45;&gt;EventBus::MyEventBus</title>
<path fill="none" stroke="#707070" d="M892.47,-129.15C898.52,-131.85 904.4,-134.79 910,-138 965.43,-169.73 1014.96,-225.54 1044.12,-262.64"/>
<polygon fill="#707070" stroke="#707070" points="1041.49,-264.96 1050.38,-270.72 1047.02,-260.67 1041.49,-264.96"/>
</g>
<!-- Target::target::ApiEventbridgeStack&#45;EventLoggerRuleC0DD3E40&#45;G6CDILDRSIPL::Target0 -->
<g id="node8" class="node">
<title>Target::target::ApiEventbridgeStack&#45;EventLoggerRuleC0DD3E40&#45;G6CDILDRSIPL::Target0</title>
<polygon fill="#e5e5e5" stroke="#dddddd" points="578,-157 298,-157 298,-99 578,-99 578,-157"/>
<text text-anchor="start" x="310" y="-137.2" font-family="Helvetica,sans-Serif" font-weight="bold" font-size="16.00" fill="#707070">CloudWatchEvents::Target</text>
<text text-anchor="start" x="310" y="-112.2" font-family="Helvetica,sans-Serif" font-size="16.00" fill="#383838">target::ApiEventbridgeStack&#45;Even...</text>
</g>
<!-- Target::target::ApiEventbridgeStack&#45;EventLoggerRuleC0DD3E40&#45;G6CDILDRSIPL::Target0&#45;&gt;Rule::ApiEventbridgeStack&#45;EventLoggerRuleC0DD3E40&#45;G6CDILDRSIPL -->
<g id="edge10" class="edge">
<title>Target::target::ApiEventbridgeStack&#45;EventLoggerRuleC0DD3E40&#45;G6CDILDRSIPL::Target0&#45;&gt;Rule::ApiEventbridgeStack&#45;EventLoggerRuleC0DD3E40&#45;G6CDILDRSIPL</title>
<path fill="none" stroke="#707070" d="M578.36,-115.88C586.7,-115.16 595.12,-114.42 603.52,-113.69"/>
<polygon fill="#707070" stroke="#707070" points="604.1,-117.16 613.76,-112.8 603.49,-110.18 604.1,-117.16"/>
</g>
<!-- LogGroup::/aws/events/MyEventBus -->
<g id="node9" class="node">
<title>LogGroup::/aws/events/MyEventBus</title>
<polygon fill="#e5e5e5" stroke="#dddddd" points="883.5,-205 640.5,-205 640.5,-147 883.5,-147 883.5,-205"/>
<text text-anchor="start" x="653" y="-185.2" font-family="Helvetica,sans-Serif" font-weight="bold" font-size="16.00" fill="#707070">CloudWatchLogs::LogGroup</text>
<text text-anchor="start" x="653" y="-160.2" font-family="Helvetica,sans-Serif" font-size="16.00" fill="#383838">/aws/events/MyEventBus</text>
</g>
<!-- Target::target::ApiEventbridgeStack&#45;EventLoggerRuleC0DD3E40&#45;G6CDILDRSIPL::Target0&#45;&gt;LogGroup::/aws/events/MyEventBus -->
<g id="edge11" class="edge">
<title>Target::target::ApiEventbridgeStack&#45;EventLoggerRuleC0DD3E40&#45;G6CDILDRSIPL::Target0&#45;&gt;LogGroup::/aws/events/MyEventBus</title>
<path fill="none" stroke="#707070" d="M578.36,-148.77C595.55,-151.34 613.08,-153.95 630.14,-156.49"/>
<polygon fill="#707070" stroke="#707070" points="629.72,-159.97 640.12,-157.98 630.75,-153.04 629.72,-159.97"/>
</g>
<!-- Role::ApiEventbridgeStack&#45;EventBridgeIntegrationRoleB322&#45;1LXDAK3DKUOQS&#45;&gt;EventBus::MyEventBus -->
<g id="edge12" class="edge">
<title>Role::ApiEventbridgeStack&#45;EventBridgeIntegrationRoleB322&#45;1LXDAK3DKUOQS&#45;&gt;EventBus::MyEventBus</title>
<path fill="none" stroke="#707070" d="M905.06,-325.9C915.26,-324.31 925.53,-322.71 935.69,-321.13"/>
<polygon fill="#707070" stroke="#707070" points="936.47,-324.55 945.81,-319.56 935.4,-317.63 936.47,-324.55"/>
</g>
</g>
</svg>
