<?xml version="1.0" encoding="UTF-8" standalone="no"?>
<!DOCTYPE svg PUBLIC "-//W3C//DTD SVG 1.1//EN"
 "http://www.w3.org/Graphics/SVG/1.1/DTD/svg11.dtd">
<!-- Generated by graphviz version 3.0.0 (20220226.1711)
 -->
<!-- Title: graphname Pages: 1 -->
<svg width="990pt" height="465pt"
 viewBox="0.00 0.00 990.00 465.00" xmlns="http://www.w3.org/2000/svg" xmlns:xlink="http://www.w3.org/1999/xlink">
<g id="graph0" class="graph" transform="scale(1 1) rotate(0) translate(4 461)">
<title>graphname</title>
<polygon fill="#fafafa" stroke="transparent" points="-4,4 -4,-461 986,-461 986,4 -4,4"/>
<text text-anchor="start" x="287" y="-432.4" font-family="Helvetica,sans-Serif" font-weight="bold" font-size="22.00" fill="#383838">Project apigw&#45;http&#45;api&#45;eventbridge&#45;cdk</text>
<text text-anchor="start" x="487" y="-416.8" font-family="Helvetica,sans-Serif" font-size="14.00"> &#160;</text>
<text text-anchor="start" x="287" y="-395.2" font-family="Helvetica,sans-Serif" font-weight="bold" font-size="16.00" fill="#707070">Live Diagram</text>
<g id="clust1" class="cluster">
<title>cluster_aws</title>
<polygon fill="#f5f5f5" stroke="#f5f5f5" points="8,-8 8,-373 974,-373 974,-8 8,-8"/>
<text text-anchor="start" x="429" y="-23" font-family="Helvetica,sans-Serif" font-weight="bold" font-size="20.00" fill="#707070">Provider aws</text>
</g>
<g id="clust2" class="cluster">
<title>cluster_aws_</title>
<polygon fill="#eeeeee" stroke="#eeeeee" points="16,-54 16,-365 966,-365 966,-54 16,-54"/>
<text text-anchor="start" x="490.86" y="-58.3" font-family="Helvetica,sans-Serif" font-size="1.00" fill="#383838"> </text>
</g>
<!-- Api::::MyHttpApi -->
<g id="node1" class="node">
<title>Api::::MyHttpApi</title>
<polygon fill="#e5e5e5" stroke="#dddddd" points="901,-333 729,-333 729,-275 901,-275 901,-333"/>
<text text-anchor="start" x="741" y="-313.2" font-family="Helvetica,sans-Serif" font-weight="bold" font-size="16.00" fill="#707070">ApiGatewayV2::Api</text>
<text text-anchor="start" x="741" y="-288.2" font-family="Helvetica,sans-Serif" font-size="16.00" fill="#383838">MyHttpApi</text>
</g>
<!-- Deployment::::deployment::MyHttpApi -->
<g id="node2" class="node">
<title>Deployment::::deployment::MyHttpApi</title>
<polygon fill="#e5e5e5" stroke="#dddddd" points="283,-357 45,-357 45,-299 283,-299 283,-357"/>
<text text-anchor="start" x="57" y="-337.2" font-family="Helvetica,sans-Serif" font-weight="bold" font-size="16.00" fill="#707070">ApiGatewayV2::Deployment</text>
<text text-anchor="start" x="57" y="-312.2" font-family="Helvetica,sans-Serif" font-size="16.00" fill="#383838">deployment::MyHttpApi</text>
</g>
<!-- Deployment::::deployment::MyHttpApi&#45;&gt;Api::::MyHttpApi -->
<g id="edge1" class="edge">
<title>Deployment::::deployment::MyHttpApi&#45;&gt;Api::::MyHttpApi</title>
<path fill="none" stroke="#707070" d="M283.41,-333.02C378.86,-339.13 516.41,-345.62 636,-333 663.03,-330.15 691.99,-324.92 718.53,-319.58"/>
<polygon fill="#707070" stroke="#707070" points="719.48,-322.96 728.58,-317.53 718.08,-316.1 719.48,-322.96"/>
</g>
<!-- Deployment::::deployment::MyHttpApi&#45;&gt;Api::::MyHttpApi -->
<g id="edge3" class="edge">
<title>Deployment::::deployment::MyHttpApi&#45;&gt;Api::::MyHttpApi</title>
<path fill="none" stroke="#707070" d="M283.41,-347.61C378.86,-357.13 516.41,-363.62 636,-351 665.23,-347.91 696.73,-342.05 724.98,-335.41"/>
<polygon fill="#707070" stroke="#707070" points="725.93,-338.78 734.83,-333.03 724.28,-331.98 725.93,-338.78"/>
</g>
<!-- Stage::::$default -->
<g id="node5" class="node">
<title>Stage::::$default</title>
<polygon fill="#e5e5e5" stroke="#dddddd" points="583,-333 393,-333 393,-275 583,-275 583,-333"/>
<text text-anchor="start" x="405" y="-313.2" font-family="Helvetica,sans-Serif" font-weight="bold" font-size="16.00" fill="#707070">ApiGatewayV2::Stage</text>
<text text-anchor="start" x="405" y="-288.2" font-family="Helvetica,sans-Serif" font-size="16.00" fill="#383838">$default</text>
</g>
<!-- Deployment::::deployment::MyHttpApi&#45;&gt;Stage::::$default -->
<g id="edge2" class="edge">
<title>Deployment::::deployment::MyHttpApi&#45;&gt;Stage::::$default</title>
<path fill="none" stroke="#707070" d="M283.07,-319.2C315.71,-316.77 350.88,-314.15 382.68,-311.78"/>
<polygon fill="#707070" stroke="#707070" points="383.16,-315.25 392.87,-311.02 382.64,-308.27 383.16,-315.25"/>
</g>
<!-- Integration::::integration::MyHttpApi::MyEventBus -->
<g id="node3" class="node">
<title>Integration::::integration::MyHttpApi::MyEventBus</title>
<polygon fill="#e5e5e5" stroke="#dddddd" points="628,-237 348,-237 348,-179 628,-179 628,-237"/>
<text text-anchor="start" x="360" y="-217.2" font-family="Helvetica,sans-Serif" font-weight="bold" font-size="16.00" fill="#707070">ApiGatewayV2::Integration</text>
<text text-anchor="start" x="360" y="-192.2" font-family="Helvetica,sans-Serif" font-size="16.00" fill="#383838">integration::MyHttpApi::MyEventB...</text>
</g>
<!-- Integration::::integration::MyHttpApi::MyEventBus&#45;&gt;Api::::MyHttpApi -->
<g id="edge4" class="edge">
<title>Integration::::integration::MyHttpApi::MyEventBus&#45;&gt;Api::::MyHttpApi</title>
<path fill="none" stroke="#707070" d="M588.65,-237.08C604.49,-241.72 620.7,-246.48 636,-251 662.99,-258.97 692.27,-267.66 719.14,-275.66"/>
<polygon fill="#707070" stroke="#707070" points="718.33,-279.07 728.92,-278.58 720.33,-272.37 718.33,-279.07"/>
</g>
<!-- EventBus::::MyEventBus -->
<g id="node6" class="node">
<title>EventBus::::MyEventBus</title>
<polygon fill="#e5e5e5" stroke="#dddddd" points="941.5,-161 688.5,-161 688.5,-103 941.5,-103 941.5,-161"/>
<text text-anchor="start" x="701" y="-141.2" font-family="Helvetica,sans-Serif" font-weight="bold" font-size="16.00" fill="#707070">CloudWatchEvents::EventBus</text>
<text text-anchor="start" x="701" y="-116.2" font-family="Helvetica,sans-Serif" font-size="16.00" fill="#383838">MyEventBus</text>
</g>
<!-- Integration::::integration::MyHttpApi::MyEventBus&#45;&gt;EventBus::::MyEventBus -->
<g id="edge5" class="edge">
<title>Integration::::integration::MyHttpApi::MyEventBus&#45;&gt;EventBus::::MyEventBus</title>
<path fill="none" stroke="#707070" d="M613.26,-178.94C635.11,-173.83 657.95,-168.49 680.05,-163.32"/>
<polygon fill="#707070" stroke="#707070" points="680.87,-166.73 689.81,-161.04 679.27,-159.91 680.87,-166.73"/>
</g>
<!-- Role::::ApiEventbridgeStack&#45;EventBridgeIntegrationRoleB322&#45;1LXDAK3DKUOQS -->
<g id="node10" class="node">
<title>Role::::ApiEventbridgeStack&#45;EventBridgeIntegrationRoleB322&#45;1LXDAK3DKUOQS</title>
<polygon fill="#e5e5e5" stroke="#dddddd" points="958,-237 672,-237 672,-179 958,-179 958,-237"/>
<text text-anchor="start" x="684" y="-217.2" font-family="Helvetica,sans-Serif" font-weight="bold" font-size="16.00" fill="#707070">IAM::Role</text>
<text text-anchor="start" x="684" y="-192.2" font-family="Helvetica,sans-Serif" font-size="16.00" fill="#383838">ApiEventbridgeStack&#45;EventBridgeI...</text>
</g>
<!-- Integration::::integration::MyHttpApi::MyEventBus&#45;&gt;Role::::ApiEventbridgeStack&#45;EventBridgeIntegrationRoleB322&#45;1LXDAK3DKUOQS -->
<g id="edge6" class="edge">
<title>Integration::::integration::MyHttpApi::MyEventBus&#45;&gt;Role::::ApiEventbridgeStack&#45;EventBridgeIntegrationRoleB322&#45;1LXDAK3DKUOQS</title>
<path fill="none" stroke="#707070" d="M628.24,-208C639.32,-208 650.55,-208 661.71,-208"/>
<polygon fill="#707070" stroke="#707070" points="661.94,-211.5 671.94,-208 661.94,-204.5 661.94,-211.5"/>
</g>
<!-- Route::::route::MyHttpApi::POST / -->
<g id="node4" class="node">
<title>Route::::route::MyHttpApi::POST /</title>
<polygon fill="#e5e5e5" stroke="#dddddd" points="267,-281 61,-281 61,-223 267,-223 267,-281"/>
<text text-anchor="start" x="73" y="-261.2" font-family="Helvetica,sans-Serif" font-weight="bold" font-size="16.00" fill="#707070">ApiGatewayV2::Route</text>
<text text-anchor="start" x="73" y="-236.2" font-family="Helvetica,sans-Serif" font-size="16.00" fill="#383838">route::MyHttpApi::POST /</text>
</g>
<!-- Route::::route::MyHttpApi::POST /&#45;&gt;Api::::MyHttpApi -->
<g id="edge7" class="edge">
<title>Route::::route::MyHttpApi::POST /&#45;&gt;Api::::MyHttpApi</title>
<path fill="none" stroke="#707070" d="M267.38,-249.74C363.06,-248.88 509.71,-250.77 636,-266 663.12,-269.27 692.23,-274.67 718.88,-280.38"/>
<polygon fill="#707070" stroke="#707070" points="718.45,-283.87 728.97,-282.58 719.94,-277.03 718.45,-283.87"/>
</g>
<!-- Route::::route::MyHttpApi::POST /&#45;&gt;Integration::::integration::MyHttpApi::MyEventBus -->
<g id="edge8" class="edge">
<title>Route::::route::MyHttpApi::POST /&#45;&gt;Integration::::integration::MyHttpApi::MyEventBus</title>
<path fill="none" stroke="#707070" d="M267.33,-238.02C289.72,-234.96 313.88,-231.66 337.69,-228.4"/>
<polygon fill="#707070" stroke="#707070" points="338.43,-231.83 347.86,-227.01 337.48,-224.9 338.43,-231.83"/>
</g>
<!-- Stage::::$default&#45;&gt;Api::::MyHttpApi -->
<g id="edge9" class="edge">
<title>Stage::::$default&#45;&gt;Api::::MyHttpApi</title>
<path fill="none" stroke="#707070" d="M583,-304C625.61,-304 675.91,-304 718.68,-304"/>
<polygon fill="#707070" stroke="#707070" points="718.81,-307.5 728.81,-304 718.81,-300.5 718.81,-307.5"/>
</g>
<!-- Rule::::ApiEventbridgeStack&#45;EventLoggerRuleC0DD3E40&#45;G6CDILDRSIPL -->
<g id="node7" class="node">
<title>Rule::::ApiEventbridgeStack&#45;EventLoggerRuleC0DD3E40&#45;G6CDILDRSIPL</title>
<polygon fill="#e5e5e5" stroke="#dddddd" points="636,-161 340,-161 340,-103 636,-103 636,-161"/>
<text text-anchor="start" x="352" y="-141.2" font-family="Helvetica,sans-Serif" font-weight="bold" font-size="16.00" fill="#707070">CloudWatchEvents::Rule</text>
<text text-anchor="start" x="352" y="-116.2" font-family="Helvetica,sans-Serif" font-size="16.00" fill="#383838">ApiEventbridgeStack&#45;EventLoggerR...</text>
</g>
<!-- Rule::::ApiEventbridgeStack&#45;EventLoggerRuleC0DD3E40&#45;G6CDILDRSIPL&#45;&gt;EventBus::::MyEventBus -->
<g id="edge10" class="edge">
<title>Rule::::ApiEventbridgeStack&#45;EventLoggerRuleC0DD3E40&#45;G6CDILDRSIPL&#45;&gt;EventBus::::MyEventBus</title>
<path fill="none" stroke="#707070" d="M636.29,-132C650.21,-132 664.28,-132 678.08,-132"/>
<polygon fill="#707070" stroke="#707070" points="678.08,-135.5 688.08,-132 678.08,-128.5 678.08,-135.5"/>
</g>
<!-- Target::::target::ApiEventbridgeStack&#45;EventLoggerRuleC0DD3E40&#45;G6CDILDRSIPL::Target0 -->
<g id="node8" class="node">
<title>Target::::target::ApiEventbridgeStack&#45;EventLoggerRuleC0DD3E40&#45;G6CDILDRSIPL::Target0</title>
<polygon fill="#e5e5e5" stroke="#dddddd" points="304,-205 24,-205 24,-147 304,-147 304,-205"/>
<text text-anchor="start" x="36" y="-185.2" font-family="Helvetica,sans-Serif" font-weight="bold" font-size="16.00" fill="#707070">CloudWatchEvents::Target</text>
<text text-anchor="start" x="36" y="-160.2" font-family="Helvetica,sans-Serif" font-size="16.00" fill="#383838">target::ApiEventbridgeStack&#45;Even...</text>
</g>
<!-- Target::::target::ApiEventbridgeStack&#45;EventLoggerRuleC0DD3E40&#45;G6CDILDRSIPL::Target0&#45;&gt;Rule::::ApiEventbridgeStack&#45;EventLoggerRuleC0DD3E40&#45;G6CDILDRSIPL -->
<g id="edge11" class="edge">
<title>Target::::target::ApiEventbridgeStack&#45;EventLoggerRuleC0DD3E40&#45;G6CDILDRSIPL::Target0&#45;&gt;Rule::::ApiEventbridgeStack&#45;EventLoggerRuleC0DD3E40&#45;G6CDILDRSIPL</title>
<path fill="none" stroke="#707070" d="M304.36,-156.96C312.79,-155.81 321.3,-154.64 329.8,-153.48"/>
<polygon fill="#707070" stroke="#707070" points="330.32,-156.94 339.76,-152.12 329.38,-150.01 330.32,-156.94"/>
</g>
<!-- LogGroup::::/aws/events/MyEventBus -->
<g id="node9" class="node">
<title>LogGroup::::/aws/events/MyEventBus</title>
<polygon fill="#e5e5e5" stroke="#dddddd" points="285.5,-129 42.5,-129 42.5,-71 285.5,-71 285.5,-129"/>
<text text-anchor="start" x="55" y="-109.2" font-family="Helvetica,sans-Serif" font-weight="bold" font-size="16.00" fill="#707070">CloudWatchLogs::LogGroup</text>
<text text-anchor="start" x="55" y="-84.2" font-family="Helvetica,sans-Serif" font-size="16.00" fill="#383838">/aws/events/MyEventBus</text>
</g>
</g>
</svg>
