<?xml version="1.0" encoding="UTF-8" standalone="no"?>
<!DOCTYPE svg PUBLIC "-//W3C//DTD SVG 1.1//EN"
 "http://www.w3.org/Graphics/SVG/1.1/DTD/svg11.dtd">
<!-- Generated by graphviz version 2.44.1 (20200629.0846)
 -->
<!-- Title: graphname Pages: 1 -->
<svg width="963pt" height="545pt"
 viewBox="0.00 0.00 963.00 545.00" xmlns="http://www.w3.org/2000/svg" xmlns:xlink="http://www.w3.org/1999/xlink">
<g id="graph0" class="graph" transform="scale(1 1) rotate(0) translate(4 541)">
<title>graphname</title>
<polygon fill="#fafafa" stroke="transparent" points="-4,4 -4,-541 959,-541 959,4 -4,4"/>
<text text-anchor="start" x="374.5" y="-512.4" font-family="Helvetica,sans-Serif" font-weight="bold" font-size="22.00" fill="#383838">Project http&#45;lambda</text>
<text text-anchor="start" x="474" y="-496.8" font-family="Helvetica,sans-Serif" font-size="14.00"> &#160;</text>
<text text-anchor="start" x="374.5" y="-475.2" font-family="Helvetica,sans-Serif" font-weight="bold" font-size="16.00" fill="#707070">Target Diagram</text>
<g id="clust1" class="cluster">
<title>cluster_aws</title>
<polygon fill="#f5f5f5" stroke="#f5f5f5" points="8,-8 8,-453 947,-453 947,-8 8,-8"/>
<text text-anchor="start" x="415.5" y="-23" font-family="Helvetica,sans-Serif" font-weight="bold" font-size="20.00" fill="#707070">Provider aws</text>
</g>
<g id="clust2" class="cluster">
<title>cluster_aws_</title>
<polygon fill="#eeeeee" stroke="#eeeeee" points="16,-54 16,-445 939,-445 939,-54 16,-54"/>
<text text-anchor="start" x="477.36" y="-58.3" font-family="Helvetica,sans-Serif" font-size="1.00" fill="#383838"> </text>
</g>
<!-- Domain::grucloud.org -->
<g id="node1" class="node">
<title>Domain::grucloud.org</title>
<polygon fill="#e5e5e5" stroke="#dddddd" points="624,-437 509,-437 509,-379 624,-379 624,-437"/>
<text text-anchor="start" x="521.5" y="-417.2" font-family="Helvetica,sans-Serif" font-weight="bold" font-size="16.00" fill="#707070">Domain</text>
<text text-anchor="start" x="521.5" y="-392.2" font-family="Helvetica,sans-Serif" font-size="16.00" fill="#383838">grucloud.org</text>
</g>
<!-- HostedZone::grucloud.org. -->
<g id="node2" class="node">
<title>HostedZone::grucloud.org.</title>
<polygon fill="#e5e5e5" stroke="#dddddd" points="453,-437 334,-437 334,-379 453,-379 453,-437"/>
<text text-anchor="start" x="346.5" y="-417.2" font-family="Helvetica,sans-Serif" font-weight="bold" font-size="16.00" fill="#707070">HostedZone</text>
<text text-anchor="start" x="346.5" y="-392.2" font-family="Helvetica,sans-Serif" font-size="16.00" fill="#383838">grucloud.org.</text>
</g>
<!-- HostedZone::grucloud.org.&#45;&gt;Domain::grucloud.org -->
<g id="edge1" class="edge">
<title>HostedZone::grucloud.org.&#45;&gt;Domain::grucloud.org</title>
<path fill="none" stroke="#707070" d="M453.35,-408C467.95,-408 483.7,-408 498.65,-408"/>
<polygon fill="#707070" stroke="#707070" points="498.85,-411.5 508.85,-408 498.85,-404.5 498.85,-411.5"/>
</g>
<!-- Certificate::grucloud.org -->
<g id="node3" class="node">
<title>Certificate::grucloud.org</title>
<polygon fill="#e5e5e5" stroke="#dddddd" points="624,-351 509,-351 509,-293 624,-293 624,-351"/>
<text text-anchor="start" x="521.5" y="-331.2" font-family="Helvetica,sans-Serif" font-weight="bold" font-size="16.00" fill="#707070">Certificate</text>
<text text-anchor="start" x="521.5" y="-306.2" font-family="Helvetica,sans-Serif" font-size="16.00" fill="#383838">grucloud.org</text>
</g>
<!-- Record::certificate&#45;validation&#45;grucloud.org. -->
<g id="node4" class="node">
<title>Record::certificate&#45;validation&#45;grucloud.org.</title>
<polygon fill="#e5e5e5" stroke="#dddddd" points="278,-436 24,-436 24,-378 278,-378 278,-436"/>
<text text-anchor="start" x="36" y="-416.2" font-family="Helvetica,sans-Serif" font-weight="bold" font-size="16.00" fill="#707070">Record</text>
<text text-anchor="start" x="36" y="-391.2" font-family="Helvetica,sans-Serif" font-size="16.00" fill="#383838">certificate&#45;validation&#45;grucloud....</text>
</g>
<!-- Record::certificate&#45;validation&#45;grucloud.org.&#45;&gt;HostedZone::grucloud.org. -->
<g id="edge2" class="edge">
<title>Record::certificate&#45;validation&#45;grucloud.org.&#45;&gt;HostedZone::grucloud.org.</title>
<path fill="none" stroke="#707070" d="M278.24,-407.52C293.84,-407.59 309.31,-407.65 323.59,-407.71"/>
<polygon fill="#707070" stroke="#707070" points="323.75,-411.21 333.77,-407.76 323.78,-404.21 323.75,-411.21"/>
</g>
<!-- Record::certificate&#45;validation&#45;grucloud.org.&#45;&gt;Certificate::grucloud.org -->
<g id="edge3" class="edge">
<title>Record::certificate&#45;validation&#45;grucloud.org.&#45;&gt;Certificate::grucloud.org</title>
<path fill="none" stroke="#707070" d="M272.92,-378C286.74,-375.1 300.65,-372.36 314,-370 384.14,-357.61 403.33,-364.81 473,-350 481.47,-348.2 490.28,-345.99 498.95,-343.6"/>
<polygon fill="#707070" stroke="#707070" points="499.99,-346.95 508.65,-340.85 498.08,-340.21 499.99,-346.95"/>
</g>
<!-- Policy::lambda&#45;policy -->
<g id="node5" class="node">
<title>Policy::lambda&#45;policy</title>
<polygon fill="#e5e5e5" stroke="#dddddd" points="931,-269 806,-269 806,-211 931,-211 931,-269"/>
<text text-anchor="start" x="818.5" y="-249.2" font-family="Helvetica,sans-Serif" font-weight="bold" font-size="16.00" fill="#707070">Policy</text>
<text text-anchor="start" x="818.5" y="-224.2" font-family="Helvetica,sans-Serif" font-size="16.00" fill="#383838">lambda&#45;policy</text>
</g>
<!-- Role::lambda&#45;role -->
<g id="node6" class="node">
<title>Role::lambda&#45;role</title>
<polygon fill="#e5e5e5" stroke="#dddddd" points="770,-269 660,-269 660,-211 770,-211 770,-269"/>
<text text-anchor="start" x="672" y="-249.2" font-family="Helvetica,sans-Serif" font-weight="bold" font-size="16.00" fill="#707070">Role</text>
<text text-anchor="start" x="672" y="-224.2" font-family="Helvetica,sans-Serif" font-size="16.00" fill="#383838">lambda&#45;role</text>
</g>
<!-- Role::lambda&#45;role&#45;&gt;Policy::lambda&#45;policy -->
<g id="edge4" class="edge">
<title>Role::lambda&#45;role&#45;&gt;Policy::lambda&#45;policy</title>
<path fill="none" stroke="#707070" d="M770.27,-240C778.57,-240 787.24,-240 795.84,-240"/>
<polygon fill="#707070" stroke="#707070" points="795.89,-243.5 805.89,-240 795.89,-236.5 795.89,-243.5"/>
</g>
<!-- Function::my&#45;function -->
<g id="node7" class="node">
<title>Function::my&#45;function</title>
<polygon fill="#e5e5e5" stroke="#dddddd" points="621,-269 512,-269 512,-211 621,-211 621,-269"/>
<text text-anchor="start" x="524.5" y="-249.2" font-family="Helvetica,sans-Serif" font-weight="bold" font-size="16.00" fill="#707070">Function</text>
<text text-anchor="start" x="524.5" y="-224.2" font-family="Helvetica,sans-Serif" font-size="16.00" fill="#383838">my&#45;function</text>
</g>
<!-- Function::my&#45;function&#45;&gt;Role::lambda&#45;role -->
<g id="edge5" class="edge">
<title>Function::my&#45;function&#45;&gt;Role::lambda&#45;role</title>
<path fill="none" stroke="#707070" d="M621.22,-240C630.45,-240 640.14,-240 649.62,-240"/>
<polygon fill="#707070" stroke="#707070" points="649.8,-243.5 659.8,-240 649.8,-236.5 649.8,-243.5"/>
</g>
<!-- Api::my&#45;api -->
<g id="node8" class="node">
<title>Api::my&#45;api</title>
<polygon fill="#e5e5e5" stroke="#dddddd" points="603,-193 530,-193 530,-135 603,-135 603,-193"/>
<text text-anchor="start" x="542.5" y="-173.2" font-family="Helvetica,sans-Serif" font-weight="bold" font-size="16.00" fill="#707070">Api</text>
<text text-anchor="start" x="542.5" y="-148.2" font-family="Helvetica,sans-Serif" font-size="16.00" fill="#383838">my&#45;api</text>
</g>
<!-- DomainName::grucloud.org -->
<g id="node9" class="node">
<title>DomainName::grucloud.org</title>
<polygon fill="#e5e5e5" stroke="#dddddd" points="457,-341 330,-341 330,-283 457,-283 457,-341"/>
<text text-anchor="start" x="342.5" y="-321.2" font-family="Helvetica,sans-Serif" font-weight="bold" font-size="16.00" fill="#707070">DomainName</text>
<text text-anchor="start" x="342.5" y="-296.2" font-family="Helvetica,sans-Serif" font-size="16.00" fill="#383838">grucloud.org</text>
</g>
<!-- DomainName::grucloud.org&#45;&gt;Certificate::grucloud.org -->
<g id="edge6" class="edge">
<title>DomainName::grucloud.org&#45;&gt;Certificate::grucloud.org</title>
<path fill="none" stroke="#707070" d="M457.2,-315.67C470.65,-316.45 484.9,-317.29 498.5,-318.08"/>
<polygon fill="#707070" stroke="#707070" points="498.56,-321.59 508.75,-318.68 498.97,-314.6 498.56,-321.59"/>
</g>
<!-- Record::api&#45;gateway&#45;alias&#45;record -->
<g id="node10" class="node">
<title>Record::api&#45;gateway&#45;alias&#45;record</title>
<polygon fill="#e5e5e5" stroke="#dddddd" points="252,-359 50,-359 50,-301 252,-301 252,-359"/>
<text text-anchor="start" x="62" y="-339.2" font-family="Helvetica,sans-Serif" font-weight="bold" font-size="16.00" fill="#707070">Record</text>
<text text-anchor="start" x="62" y="-314.2" font-family="Helvetica,sans-Serif" font-size="16.00" fill="#383838">api&#45;gateway&#45;alias&#45;record</text>
</g>
<!-- Record::api&#45;gateway&#45;alias&#45;record&#45;&gt;HostedZone::grucloud.org. -->
<g id="edge8" class="edge">
<title>Record::api&#45;gateway&#45;alias&#45;record&#45;&gt;HostedZone::grucloud.org.</title>
<path fill="none" stroke="#707070" d="M247.03,-359.1C257.5,-362.4 267.98,-365.74 278,-369 292.91,-373.85 308.86,-379.18 323.97,-384.31"/>
<polygon fill="#707070" stroke="#707070" points="323.17,-387.73 333.77,-387.64 325.43,-381.11 323.17,-387.73"/>
</g>
<!-- Record::api&#45;gateway&#45;alias&#45;record&#45;&gt;DomainName::grucloud.org -->
<g id="edge7" class="edge">
<title>Record::api&#45;gateway&#45;alias&#45;record&#45;&gt;DomainName::grucloud.org</title>
<path fill="none" stroke="#707070" d="M252.25,-322.5C274.85,-320.81 298.41,-319.04 319.63,-317.45"/>
<polygon fill="#707070" stroke="#707070" points="320.14,-320.93 329.85,-316.69 319.62,-313.95 320.14,-320.93"/>
</g>
<!-- Integration::integration&#45;lambda -->
<g id="node11" class="node">
<title>Integration::integration&#45;lambda</title>
<polygon fill="#e5e5e5" stroke="#dddddd" points="473,-265 314,-265 314,-207 473,-207 473,-265"/>
<text text-anchor="start" x="326.5" y="-245.2" font-family="Helvetica,sans-Serif" font-weight="bold" font-size="16.00" fill="#707070">Integration</text>
<text text-anchor="start" x="326.5" y="-220.2" font-family="Helvetica,sans-Serif" font-size="16.00" fill="#383838">integration&#45;lambda</text>
</g>
<!-- Integration::integration&#45;lambda&#45;&gt;Function::my&#45;function -->
<g id="edge10" class="edge">
<title>Integration::integration&#45;lambda&#45;&gt;Function::my&#45;function</title>
<path fill="none" stroke="#707070" d="M473.49,-237.85C482.9,-238.07 492.42,-238.29 501.58,-238.5"/>
<polygon fill="#707070" stroke="#707070" points="501.67,-242.01 511.75,-238.74 501.83,-235.01 501.67,-242.01"/>
</g>
<!-- Integration::integration&#45;lambda&#45;&gt;Api::my&#45;api -->
<g id="edge9" class="edge">
<title>Integration::integration&#45;lambda&#45;&gt;Api::my&#45;api</title>
<path fill="none" stroke="#707070" d="M463.56,-206.92C482.64,-198.89 502.86,-190.37 520.22,-183.07"/>
<polygon fill="#707070" stroke="#707070" points="521.68,-186.25 529.54,-179.14 518.96,-179.8 521.68,-186.25"/>
</g>
<!-- Route::ANY /my&#45;function -->
<g id="node12" class="node">
<title>Route::ANY /my&#45;function</title>
<polygon fill="#e5e5e5" stroke="#dddddd" points="226,-281 76,-281 76,-223 226,-223 226,-281"/>
<text text-anchor="start" x="88" y="-261.2" font-family="Helvetica,sans-Serif" font-weight="bold" font-size="16.00" fill="#707070">Route</text>
<text text-anchor="start" x="88" y="-236.2" font-family="Helvetica,sans-Serif" font-size="16.00" fill="#383838">ANY /my&#45;function</text>
</g>
<!-- Route::ANY /my&#45;function&#45;&gt;Api::my&#45;api -->
<g id="edge11" class="edge">
<title>Route::ANY /my&#45;function&#45;&gt;Api::my&#45;api</title>
<path fill="none" stroke="#707070" d="M226.14,-231.33C243.3,-226.08 261.4,-220.16 278,-214 294.41,-207.9 297.16,-202.78 314,-198 351.57,-187.35 457.68,-175.15 519.41,-168.65"/>
<polygon fill="#707070" stroke="#707070" points="520.07,-172.1 529.65,-167.58 519.34,-165.14 520.07,-172.1"/>
</g>
<!-- Route::ANY /my&#45;function&#45;&gt;Integration::integration&#45;lambda -->
<g id="edge12" class="edge">
<title>Route::ANY /my&#45;function&#45;&gt;Integration::integration&#45;lambda</title>
<path fill="none" stroke="#707070" d="M226.12,-247.07C250.61,-245.44 278.11,-243.61 303.59,-241.91"/>
<polygon fill="#707070" stroke="#707070" points="303.87,-245.4 313.62,-241.25 303.41,-238.42 303.87,-245.4"/>
</g>
<!-- Stage::my&#45;api&#45;stage&#45;dev -->
<g id="node13" class="node">
<title>Stage::my&#45;api&#45;stage&#45;dev</title>
<polygon fill="#e5e5e5" stroke="#dddddd" points="468.5,-149 318.5,-149 318.5,-91 468.5,-91 468.5,-149"/>
<text text-anchor="start" x="330.5" y="-129.2" font-family="Helvetica,sans-Serif" font-weight="bold" font-size="16.00" fill="#707070">Stage</text>
<text text-anchor="start" x="330.5" y="-104.2" font-family="Helvetica,sans-Serif" font-size="16.00" fill="#383838">my&#45;api&#45;stage&#45;dev</text>
</g>
<!-- Stage::my&#45;api&#45;stage&#45;dev&#45;&gt;Api::my&#45;api -->
<g id="edge13" class="edge">
<title>Stage::my&#45;api&#45;stage&#45;dev&#45;&gt;Api::my&#45;api</title>
<path fill="none" stroke="#707070" d="M468.51,-139.04C485.98,-143.54 504.11,-148.2 519.9,-152.27"/>
<polygon fill="#707070" stroke="#707070" points="519.35,-155.74 529.9,-154.84 521.09,-148.96 519.35,-155.74"/>
</g>
<!-- ApiMapping::api&#45;mapping&#45;dev -->
<g id="node14" class="node">
<title>ApiMapping::api&#45;mapping&#45;dev</title>
<polygon fill="#e5e5e5" stroke="#dddddd" points="223.5,-205 78.5,-205 78.5,-147 223.5,-147 223.5,-205"/>
<text text-anchor="start" x="91" y="-185.2" font-family="Helvetica,sans-Serif" font-weight="bold" font-size="16.00" fill="#707070">ApiMapping</text>
<text text-anchor="start" x="91" y="-160.2" font-family="Helvetica,sans-Serif" font-size="16.00" fill="#383838">api&#45;mapping&#45;dev</text>
</g>
<!-- ApiMapping::api&#45;mapping&#45;dev&#45;&gt;Api::my&#45;api -->
<g id="edge14" class="edge">
<title>ApiMapping::api&#45;mapping&#45;dev&#45;&gt;Api::my&#45;api</title>
<path fill="none" stroke="#707070" d="M223.55,-173.92C308.6,-171.46 447.98,-167.41 519.7,-165.33"/>
<polygon fill="#707070" stroke="#707070" points="519.88,-168.83 529.78,-165.04 519.68,-161.83 519.88,-168.83"/>
</g>
<!-- ApiMapping::api&#45;mapping&#45;dev&#45;&gt;DomainName::grucloud.org -->
<g id="edge16" class="edge">
<title>ApiMapping::api&#45;mapping&#45;dev&#45;&gt;DomainName::grucloud.org</title>
<path fill="none" stroke="#707070" d="M223.73,-187.85C242.74,-193.49 262.32,-201.79 278,-214 302.54,-233.11 291.05,-253.02 314,-274 316.4,-276.2 318.96,-278.29 321.62,-280.29"/>
<polygon fill="#707070" stroke="#707070" points="319.66,-283.19 329.88,-285.98 323.63,-277.43 319.66,-283.19"/>
</g>
<!-- ApiMapping::api&#45;mapping&#45;dev&#45;&gt;Stage::my&#45;api&#45;stage&#45;dev -->
<g id="edge15" class="edge">
<title>ApiMapping::api&#45;mapping&#45;dev&#45;&gt;Stage::my&#45;api&#45;stage&#45;dev</title>
<path fill="none" stroke="#707070" d="M223.51,-159.35C250.14,-153.15 280.62,-146.05 308.29,-139.61"/>
<polygon fill="#707070" stroke="#707070" points="309.4,-142.94 318.35,-137.27 307.82,-136.13 309.4,-142.94"/>
</g>
<!-- Deployment::my&#45;api&#45;deployment -->
<g id="node15" class="node">
<title>Deployment::my&#45;api&#45;deployment</title>
<polygon fill="#e5e5e5" stroke="#dddddd" points="232.5,-129 69.5,-129 69.5,-71 232.5,-71 232.5,-129"/>
<text text-anchor="start" x="82" y="-109.2" font-family="Helvetica,sans-Serif" font-weight="bold" font-size="16.00" fill="#707070">Deployment</text>
<text text-anchor="start" x="82" y="-84.2" font-family="Helvetica,sans-Serif" font-size="16.00" fill="#383838">my&#45;api&#45;deployment</text>
</g>
<!-- Deployment::my&#45;api&#45;deployment&#45;&gt;Api::my&#45;api -->
<g id="edge17" class="edge">
<title>Deployment::my&#45;api&#45;deployment&#45;&gt;Api::my&#45;api</title>
<path fill="none" stroke="#707070" d="M232.6,-77.73C299.26,-63.43 395.24,-52.5 473,-82 497.19,-91.18 519.1,-109.89 535.53,-127.13"/>
<polygon fill="#707070" stroke="#707070" points="533.33,-129.91 542.67,-134.9 538.48,-125.17 533.33,-129.91"/>
</g>
<!-- Deployment::my&#45;api&#45;deployment&#45;&gt;Stage::my&#45;api&#45;stage&#45;dev -->
<g id="edge18" class="edge">
<title>Deployment::my&#45;api&#45;deployment&#45;&gt;Stage::my&#45;api&#45;stage&#45;dev</title>
<path fill="none" stroke="#707070" d="M232.75,-106.72C257.1,-108.74 283.88,-110.97 308.43,-113.01"/>
<polygon fill="#707070" stroke="#707070" points="308.19,-116.5 318.45,-113.84 308.77,-109.52 308.19,-116.5"/>
</g>
</g>
</svg>
