<?xml version="1.0" encoding="UTF-8" standalone="no"?><svg xmlns="http://www.w3.org/2000/svg" xmlns:xlink="http://www.w3.org/1999/xlink" contentScriptType="application/ecmascript" contentStyleType="text/css" height="850px" preserveAspectRatio="none" style="width:530px;height:850px;background:#FFFFFF;" version="1.1" viewBox="0 0 530 850" width="530px" zoomAndPan="magnify"><defs><filter height="300%" id="fd6lkhmml6qxf" width="300%" x="-1" y="-1"><feGaussianBlur result="blurOut" stdDeviation="2.0"/><feColorMatrix in="blurOut" result="blurOut2" type="matrix" values="0 0 0 0 0 0 0 0 0 0 0 0 0 0 0 0 0 0 .4 0"/><feOffset dx="4.0" dy="4.0" in="blurOut2" result="blurOut3"/><feBlend in="SourceGraphic" in2="blurOut3" mode="normal"/></filter></defs><g><rect fill="none" height="26.4883" style="stroke:none;stroke-width:1.0;" width="261" x="104.5" y="15"/><text fill="#000000" font-family="sans-serif" font-size="14" font-weight="bold" lengthAdjust="spacing" textLength="251" x="109.5" y="33.5352">Resources for project http-lambda</text><rect fill="#F8F8F8" filter="url(#fd6lkhmml6qxf)" height="36.4883" rx="12.5" ry="12.5" style="stroke:#383838;stroke-width:1.5;" width="52" x="10" y="424.6621"/><text fill="#000000" font-family="sans-serif" font-size="14" lengthAdjust="spacing" textLength="32" x="20" y="448.1973">Infra</text><rect fill="#F8F8F8" filter="url(#fd6lkhmml6qxf)" height="36.4883" rx="12.5" ry="12.5" style="stroke:#383838;stroke-width:1.5;" width="46" x="112" y="424.6621"/><text fill="#000000" font-family="sans-serif" font-size="14" lengthAdjust="spacing" textLength="26" x="122" y="448.1973">aws</text><rect fill="#F8F8F8" filter="url(#fd6lkhmml6qxf)" height="36.4883" rx="12.5" ry="12.5" style="stroke:#383838;stroke-width:1.5;" width="138" x="208" y="57.4883"/><text fill="#000000" font-family="sans-serif" font-size="14" lengthAdjust="spacing" textLength="118" x="218" y="81.0234">Route53Domains</text><rect fill="#F8F8F8" filter="url(#fd6lkhmml6qxf)" height="36.4883" rx="12.5" ry="12.5" style="stroke:#383838;stroke-width:1.5;" width="96" x="396" y="57.4883"/><text fill="#000000" font-family="sans-serif" font-size="14" lengthAdjust="spacing" textLength="76" x="406" y="81.0234">Domain (1)</text><path d="M346,75.7324 L356,75.7324 C371,75.7324 371,75.7324 386,75.7324 L396,75.7324 " fill="none" style="stroke:#383838;stroke-width:1.0;"/><path d="M158,442.9063 L168,442.9063 C183,442.9063 183,75.7324 198,75.7324 L208,75.7324 " fill="none" style="stroke:#383838;stroke-width:1.0;"/><rect fill="#F8F8F8" filter="url(#fd6lkhmml6qxf)" height="36.4883" rx="12.5" ry="12.5" style="stroke:#383838;stroke-width:1.5;" width="78" x="208" y="142.2207"/><text fill="#000000" font-family="sans-serif" font-size="14" lengthAdjust="spacing" textLength="58" x="218" y="165.7559">Route53</text><rect fill="#F8F8F8" filter="url(#fd6lkhmml6qxf)" height="36.4883" rx="12.5" ry="12.5" style="stroke:#383838;stroke-width:1.5;" width="125" x="336" y="113.9766"/><text fill="#000000" font-family="sans-serif" font-size="14" lengthAdjust="spacing" textLength="105" x="346" y="137.5117">HostedZone (1)</text><path d="M286,160.4648 L296,160.4648 C311,160.4648 311,132.2207 326,132.2207 L336,132.2207 " fill="none" style="stroke:#383838;stroke-width:1.0;"/><rect fill="#F8F8F8" filter="url(#fd6lkhmml6qxf)" height="36.4883" rx="12.5" ry="12.5" style="stroke:#383838;stroke-width:1.5;" width="91" x="336" y="170.4648"/><text fill="#000000" font-family="sans-serif" font-size="14" lengthAdjust="spacing" textLength="71" x="346" y="194">Record (2)</text><path d="M286,160.4648 L296,160.4648 C311,160.4648 311,188.709 326,188.709 L336,188.709 " fill="none" style="stroke:#383838;stroke-width:1.0;"/><path d="M158,442.9063 L168,442.9063 C183,442.9063 183,160.4648 198,160.4648 L208,160.4648 " fill="none" style="stroke:#383838;stroke-width:1.0;"/><rect fill="#F8F8F8" filter="url(#fd6lkhmml6qxf)" height="36.4883" rx="12.5" ry="12.5" style="stroke:#383838;stroke-width:1.5;" width="52" x="208" y="226.9531"/><text fill="#000000" font-family="sans-serif" font-size="14" lengthAdjust="spacing" textLength="32" x="218" y="250.4883">ACM</text><rect fill="#F8F8F8" filter="url(#fd6lkhmml6qxf)" height="36.4883" rx="12.5" ry="12.5" style="stroke:#383838;stroke-width:1.5;" width="113" x="310" y="226.9531"/><text fill="#000000" font-family="sans-serif" font-size="14" lengthAdjust="spacing" textLength="93" x="320" y="250.4883">Certificate (1)</text><path d="M260,245.1973 L270,245.1973 C285,245.1973 285,245.1973 300,245.1973 L310,245.1973 " fill="none" style="stroke:#383838;stroke-width:1.0;"/><path d="M158,442.9063 L168,442.9063 C183,442.9063 183,245.1973 198,245.1973 L208,245.1973 " fill="none" style="stroke:#383838;stroke-width:1.0;"/><rect fill="#F8F8F8" filter="url(#fd6lkhmml6qxf)" height="36.4883" rx="12.5" ry="12.5" style="stroke:#383838;stroke-width:1.5;" width="46" x="208" y="311.6855"/><text fill="#000000" font-family="sans-serif" font-size="14" lengthAdjust="spacing" textLength="26" x="218" y="335.2207">IAM</text><rect fill="#F8F8F8" filter="url(#fd6lkhmml6qxf)" height="36.4883" rx="12.5" ry="12.5" style="stroke:#383838;stroke-width:1.5;" width="82" x="304" y="283.4414"/><text fill="#000000" font-family="sans-serif" font-size="14" lengthAdjust="spacing" textLength="62" x="314" y="306.9766">Policy (1)</text><path d="M254,329.9297 L264,329.9297 C279,329.9297 279,301.6855 294,301.6855 L304,301.6855 " fill="none" style="stroke:#383838;stroke-width:1.0;"/><rect fill="#F8F8F8" filter="url(#fd6lkhmml6qxf)" height="36.4883" rx="12.5" ry="12.5" style="stroke:#383838;stroke-width:1.5;" width="73" x="304" y="339.9297"/><text fill="#000000" font-family="sans-serif" font-size="14" lengthAdjust="spacing" textLength="53" x="314" y="363.4648">Role (1)</text><path d="M254,329.9297 L264,329.9297 C279,329.9297 279,358.1738 294,358.1738 L304,358.1738 " fill="none" style="stroke:#383838;stroke-width:1.0;"/><path d="M158,442.9063 L168,442.9063 C183,442.9063 183,329.9297 198,329.9297 L208,329.9297 " fill="none" style="stroke:#383838;stroke-width:1.0;"/><rect fill="#F8F8F8" filter="url(#fd6lkhmml6qxf)" height="36.4883" rx="12.5" ry="12.5" style="stroke:#383838;stroke-width:1.5;" width="74" x="208" y="396.418"/><text fill="#000000" font-family="sans-serif" font-size="14" lengthAdjust="spacing" textLength="54" x="218" y="419.9531">Lambda</text><rect fill="#F8F8F8" filter="url(#fd6lkhmml6qxf)" height="36.4883" rx="12.5" ry="12.5" style="stroke:#383838;stroke-width:1.5;" width="103" x="332" y="396.418"/><text fill="#000000" font-family="sans-serif" font-size="14" lengthAdjust="spacing" textLength="83" x="342" y="419.9531">Function (1)</text><path d="M282,414.6621 L292,414.6621 C307,414.6621 307,414.6621 322,414.6621 L332,414.6621 " fill="none" style="stroke:#383838;stroke-width:1.0;"/><path d="M158,442.9063 L168,442.9063 C183,442.9063 183,414.6621 198,414.6621 L208,414.6621 " fill="none" style="stroke:#383838;stroke-width:1.0;"/><rect fill="#F8F8F8" filter="url(#fd6lkhmml6qxf)" height="36.4883" rx="12.5" ry="12.5" style="stroke:#383838;stroke-width:1.5;" width="118" x="208" y="622.3711"/><text fill="#000000" font-family="sans-serif" font-size="14" lengthAdjust="spacing" textLength="98" x="218" y="645.9063">ApiGatewayV2</text><rect fill="#F8F8F8" filter="url(#fd6lkhmml6qxf)" height="36.4883" rx="12.5" ry="12.5" style="stroke:#383838;stroke-width:1.5;" width="66" x="376" y="452.9063"/><text fill="#000000" font-family="sans-serif" font-size="14" lengthAdjust="spacing" textLength="46" x="386" y="476.4414">Api (1)</text><path d="M326,640.6152 L336,640.6152 C351,640.6152 351,471.1504 366,471.1504 L376,471.1504 " fill="none" style="stroke:#383838;stroke-width:1.0;"/><rect fill="#F8F8F8" filter="url(#fd6lkhmml6qxf)" height="36.4883" rx="12.5" ry="12.5" style="stroke:#383838;stroke-width:1.5;" width="135" x="376" y="509.3945"/><text fill="#000000" font-family="sans-serif" font-size="14" lengthAdjust="spacing" textLength="115" x="386" y="532.9297">DomainName (1)</text><path d="M326,640.6152 L336,640.6152 C351,640.6152 351,527.6387 366,527.6387 L376,527.6387 " fill="none" style="stroke:#383838;stroke-width:1.0;"/><rect fill="#F8F8F8" filter="url(#fd6lkhmml6qxf)" height="36.4883" rx="12.5" ry="12.5" style="stroke:#383838;stroke-width:1.5;" width="119" x="376" y="565.8828"/><text fill="#000000" font-family="sans-serif" font-size="14" lengthAdjust="spacing" textLength="99" x="386" y="589.418">Integration (1)</text><path d="M326,640.6152 L336,640.6152 C351,640.6152 351,584.127 366,584.127 L376,584.127 " fill="none" style="stroke:#383838;stroke-width:1.0;"/><rect fill="#F8F8F8" filter="url(#fd6lkhmml6qxf)" height="36.4883" rx="12.5" ry="12.5" style="stroke:#383838;stroke-width:1.5;" width="83" x="376" y="622.3711"/><text fill="#000000" font-family="sans-serif" font-size="14" lengthAdjust="spacing" textLength="63" x="386" y="645.9063">Route (1)</text><path d="M326,640.6152 L336,640.6152 C351,640.6152 351,640.6152 366,640.6152 L376,640.6152 " fill="none" style="stroke:#383838;stroke-width:1.0;"/><rect fill="#F8F8F8" filter="url(#fd6lkhmml6qxf)" height="36.4883" rx="12.5" ry="12.5" style="stroke:#383838;stroke-width:1.5;" width="81" x="376" y="678.8594"/><text fill="#000000" font-family="sans-serif" font-size="14" lengthAdjust="spacing" textLength="61" x="386" y="702.3945">Stage (1)</text><path d="M326,640.6152 L336,640.6152 C351,640.6152 351,697.1035 366,697.1035 L376,697.1035 " fill="none" style="stroke:#383838;stroke-width:1.0;"/><rect fill="#F8F8F8" filter="url(#fd6lkhmml6qxf)" height="36.4883" rx="12.5" ry="12.5" style="stroke:#383838;stroke-width:1.5;" width="126" x="376" y="735.3477"/><text fill="#000000" font-family="sans-serif" font-size="14" lengthAdjust="spacing" textLength="106" x="386" y="758.8828">ApiMapping (1)</text><path d="M326,640.6152 L336,640.6152 C351,640.6152 351,753.5918 366,753.5918 L376,753.5918 " fill="none" style="stroke:#383838;stroke-width:1.0;"/><rect fill="#F8F8F8" filter="url(#fd6lkhmml6qxf)" height="36.4883" rx="12.5" ry="12.5" style="stroke:#383838;stroke-width:1.5;" width="125" x="376" y="791.8359"/><text fill="#000000" font-family="sans-serif" font-size="14" lengthAdjust="spacing" textLength="105" x="386" y="815.3711">Deployment (1)</text><path d="M326,640.6152 L336,640.6152 C351,640.6152 351,810.0801 366,810.0801 L376,810.0801 " fill="none" style="stroke:#383838;stroke-width:1.0;"/><path d="M158,442.9063 L168,442.9063 C183,442.9063 183,640.6152 198,640.6152 L208,640.6152 " fill="none" style="stroke:#383838;stroke-width:1.0;"/><path d="M62,442.9063 L72,442.9063 C87,442.9063 87,442.9063 102,442.9063 L112,442.9063 " fill="none" style="stroke:#383838;stroke-width:1.0;"/><!--MD5=[ff2ce00492ead6983a3eef16df245314]
@startmindmap
title Resources for project http-lambda
skinparam monochrome true
+ Infra
++ aws
+++ Route53Domains
++++ Domain (1)
+++ Route53
++++ HostedZone (1)
++++ Record (2)
+++ ACM
++++ Certificate (1)
+++ IAM
++++ Policy (1)
++++ Role (1)
+++ Lambda
++++ Function (1)
+++ ApiGatewayV2
++++ Api (1)
++++ DomainName (1)
++++ Integration (1)
++++ Route (1)
++++ Stage (1)
++++ ApiMapping (1)
++++ Deployment (1)
@endmindmap

PlantUML version 1.2021.8(Sat Jun 26 05:20:59 BRT 2021)
(GPL source distribution)
Java Runtime: OpenJDK Runtime Environment
JVM: OpenJDK 64-Bit Server VM
Default Encoding: UTF-8
Language: en
Country: GB
--></g></svg>