<?xml version="1.0" encoding="UTF-8" standalone="no"?>
<!DOCTYPE svg PUBLIC "-//W3C//DTD SVG 1.1//EN"
 "http://www.w3.org/Graphics/SVG/1.1/DTD/svg11.dtd">
<!-- Generated by graphviz version 2.44.1 (20200629.0846)
 -->
<!-- Title: graphname Pages: 1 -->
<svg width="866pt" height="353pt"
 viewBox="0.00 0.00 866.00 353.00" xmlns="http://www.w3.org/2000/svg" xmlns:xlink="http://www.w3.org/1999/xlink">
<g id="graph0" class="graph" transform="scale(1 1) rotate(0) translate(4 349)">
<title>graphname</title>
<polygon fill="#fafafa" stroke="transparent" points="-4,4 -4,-349 862,-349 862,4 -4,4"/>
<text text-anchor="start" x="351" y="-320.4" font-family="Helvetica,sans-Serif" font-weight="bold" font-size="22.00" fill="#383838">Project lambda</text>
<text text-anchor="start" x="425.5" y="-304.8" font-family="Helvetica,sans-Serif" font-size="14.00"> &#160;</text>
<text text-anchor="start" x="351" y="-283.2" font-family="Helvetica,sans-Serif" font-weight="bold" font-size="16.00" fill="#707070">Target Diagram</text>
<g id="clust1" class="cluster">
<title>cluster_aws</title>
<polygon fill="#f5f5f5" stroke="#f5f5f5" points="8,-8 8,-261 850,-261 850,-8 8,-8"/>
<text text-anchor="start" x="367" y="-23" font-family="Helvetica,sans-Serif" font-weight="bold" font-size="20.00" fill="#707070">Provider aws</text>
</g>
<g id="clust2" class="cluster">
<title>cluster_aws_</title>
<polygon fill="#eeeeee" stroke="#eeeeee" points="16,-54 16,-253 842,-253 842,-54 16,-54"/>
<text text-anchor="start" x="428.86" y="-58.3" font-family="Helvetica,sans-Serif" font-size="1.00" fill="#383838"> </text>
</g>
<!-- Policy::lambda&#45;policy -->
<g id="node1" class="node">
<title>Policy::lambda&#45;policy</title>
<polygon fill="#e5e5e5" stroke="#dddddd" points="834,-245 709,-245 709,-187 834,-187 834,-245"/>
<text text-anchor="start" x="721.5" y="-225.2" font-family="Helvetica,sans-Serif" font-weight="bold" font-size="16.00" fill="#707070">Policy</text>
<text text-anchor="start" x="721.5" y="-200.2" font-family="Helvetica,sans-Serif" font-size="16.00" fill="#383838">lambda&#45;policy</text>
</g>
<!-- Role::lambda&#45;role -->
<g id="node2" class="node">
<title>Role::lambda&#45;role</title>
<polygon fill="#e5e5e5" stroke="#dddddd" points="673,-245 563,-245 563,-187 673,-187 673,-245"/>
<text text-anchor="start" x="575" y="-225.2" font-family="Helvetica,sans-Serif" font-weight="bold" font-size="16.00" fill="#707070">Role</text>
<text text-anchor="start" x="575" y="-200.2" font-family="Helvetica,sans-Serif" font-size="16.00" fill="#383838">lambda&#45;role</text>
</g>
<!-- Role::lambda&#45;role&#45;&gt;Policy::lambda&#45;policy -->
<g id="edge1" class="edge">
<title>Role::lambda&#45;role&#45;&gt;Policy::lambda&#45;policy</title>
<path fill="none" stroke="#707070" d="M673.27,-216C681.57,-216 690.24,-216 698.84,-216"/>
<polygon fill="#707070" stroke="#707070" points="698.89,-219.5 708.89,-216 698.89,-212.5 698.89,-219.5"/>
</g>
<!-- Function::my&#45;function -->
<g id="node3" class="node">
<title>Function::my&#45;function</title>
<polygon fill="#e5e5e5" stroke="#dddddd" points="527,-245 418,-245 418,-187 527,-187 527,-245"/>
<text text-anchor="start" x="430.5" y="-225.2" font-family="Helvetica,sans-Serif" font-weight="bold" font-size="16.00" fill="#707070">Function</text>
<text text-anchor="start" x="430.5" y="-200.2" font-family="Helvetica,sans-Serif" font-size="16.00" fill="#383838">my&#45;function</text>
</g>
<!-- Function::my&#45;function&#45;&gt;Role::lambda&#45;role -->
<g id="edge2" class="edge">
<title>Function::my&#45;function&#45;&gt;Role::lambda&#45;role</title>
<path fill="none" stroke="#707070" d="M527.34,-216C535.6,-216 544.19,-216 552.64,-216"/>
<polygon fill="#707070" stroke="#707070" points="552.86,-219.5 562.86,-216 552.86,-212.5 552.86,-219.5"/>
</g>
<!-- Api::my&#45;api -->
<g id="node4" class="node">
<title>Api::my&#45;api</title>
<polygon fill="#e5e5e5" stroke="#dddddd" points="509,-159 436,-159 436,-101 509,-101 509,-159"/>
<text text-anchor="start" x="448.5" y="-139.2" font-family="Helvetica,sans-Serif" font-weight="bold" font-size="16.00" fill="#707070">Api</text>
<text text-anchor="start" x="448.5" y="-114.2" font-family="Helvetica,sans-Serif" font-size="16.00" fill="#383838">my&#45;api</text>
</g>
<!-- Integration::integration&#45;lambda -->
<g id="node5" class="node">
<title>Integration::integration&#45;lambda</title>
<polygon fill="#e5e5e5" stroke="#dddddd" points="382,-245 223,-245 223,-187 382,-187 382,-245"/>
<text text-anchor="start" x="235.5" y="-225.2" font-family="Helvetica,sans-Serif" font-weight="bold" font-size="16.00" fill="#707070">Integration</text>
<text text-anchor="start" x="235.5" y="-200.2" font-family="Helvetica,sans-Serif" font-size="16.00" fill="#383838">integration&#45;lambda</text>
</g>
<!-- Integration::integration&#45;lambda&#45;&gt;Function::my&#45;function -->
<g id="edge4" class="edge">
<title>Integration::integration&#45;lambda&#45;&gt;Function::my&#45;function</title>
<path fill="none" stroke="#707070" d="M382.09,-216C390.71,-216 399.41,-216 407.82,-216"/>
<polygon fill="#707070" stroke="#707070" points="407.91,-219.5 417.91,-216 407.91,-212.5 407.91,-219.5"/>
</g>
<!-- Integration::integration&#45;lambda&#45;&gt;Api::my&#45;api -->
<g id="edge3" class="edge">
<title>Integration::integration&#45;lambda&#45;&gt;Api::my&#45;api</title>
<path fill="none" stroke="#707070" d="M360.38,-186.88C382.09,-175.77 406.51,-163.27 426.91,-152.83"/>
<polygon fill="#707070" stroke="#707070" points="428.67,-155.85 435.98,-148.18 425.48,-149.62 428.67,-155.85"/>
</g>
<!-- Route::ANY /my&#45;function -->
<g id="node6" class="node">
<title>Route::ANY /my&#45;function</title>
<polygon fill="#e5e5e5" stroke="#dddddd" points="180.5,-230 30.5,-230 30.5,-172 180.5,-172 180.5,-230"/>
<text text-anchor="start" x="42.5" y="-210.2" font-family="Helvetica,sans-Serif" font-weight="bold" font-size="16.00" fill="#707070">Route</text>
<text text-anchor="start" x="42.5" y="-185.2" font-family="Helvetica,sans-Serif" font-size="16.00" fill="#383838">ANY /my&#45;function</text>
</g>
<!-- Route::ANY /my&#45;function&#45;&gt;Api::my&#45;api -->
<g id="edge5" class="edge">
<title>Route::ANY /my&#45;function&#45;&gt;Api::my&#45;api</title>
<path fill="none" stroke="#707070" d="M180.63,-185.56C194.67,-182.86 209.26,-180.22 223,-178 293.31,-166.65 312.4,-173.14 382,-158 396.47,-154.85 411.95,-150.41 425.9,-145.99"/>
<polygon fill="#707070" stroke="#707070" points="427.32,-149.21 435.75,-142.79 425.16,-142.55 427.32,-149.21"/>
</g>
<!-- Route::ANY /my&#45;function&#45;&gt;Integration::integration&#45;lambda -->
<g id="edge6" class="edge">
<title>Route::ANY /my&#45;function&#45;&gt;Integration::integration&#45;lambda</title>
<path fill="none" stroke="#707070" d="M180.78,-206.71C191.22,-207.52 202.03,-208.35 212.71,-209.17"/>
<polygon fill="#707070" stroke="#707070" points="212.65,-212.68 222.89,-209.95 213.19,-205.7 212.65,-212.68"/>
</g>
<!-- Stage::my&#45;api&#45;stage&#45;dev -->
<g id="node7" class="node">
<title>Stage::my&#45;api&#45;stage&#45;dev</title>
<polygon fill="#e5e5e5" stroke="#dddddd" points="377.5,-149 227.5,-149 227.5,-91 377.5,-91 377.5,-149"/>
<text text-anchor="start" x="239.5" y="-129.2" font-family="Helvetica,sans-Serif" font-weight="bold" font-size="16.00" fill="#707070">Stage</text>
<text text-anchor="start" x="239.5" y="-104.2" font-family="Helvetica,sans-Serif" font-size="16.00" fill="#383838">my&#45;api&#45;stage&#45;dev</text>
</g>
<!-- Stage::my&#45;api&#45;stage&#45;dev&#45;&gt;Api::my&#45;api -->
<g id="edge7" class="edge">
<title>Stage::my&#45;api&#45;stage&#45;dev&#45;&gt;Api::my&#45;api</title>
<path fill="none" stroke="#707070" d="M377.68,-124.42C393.94,-125.38 410.71,-126.38 425.49,-127.26"/>
<polygon fill="#707070" stroke="#707070" points="425.67,-130.78 435.87,-127.88 426.09,-123.79 425.67,-130.78"/>
</g>
<!-- Deployment::my&#45;api&#45;deployment -->
<g id="node8" class="node">
<title>Deployment::my&#45;api&#45;deployment</title>
<polygon fill="#e5e5e5" stroke="#dddddd" points="187,-139 24,-139 24,-81 187,-81 187,-139"/>
<text text-anchor="start" x="36.5" y="-119.2" font-family="Helvetica,sans-Serif" font-weight="bold" font-size="16.00" fill="#707070">Deployment</text>
<text text-anchor="start" x="36.5" y="-94.2" font-family="Helvetica,sans-Serif" font-size="16.00" fill="#383838">my&#45;api&#45;deployment</text>
</g>
<!-- Deployment::my&#45;api&#45;deployment&#45;&gt;Api::my&#45;api -->
<g id="edge8" class="edge">
<title>Deployment::my&#45;api&#45;deployment&#45;&gt;Api::my&#45;api</title>
<path fill="none" stroke="#707070" d="M187.13,-87.33C242.62,-75.23 317.65,-65.83 382,-82 397.43,-85.88 413.1,-92.98 426.93,-100.56"/>
<polygon fill="#707070" stroke="#707070" points="425.31,-103.67 435.73,-105.58 428.78,-97.59 425.31,-103.67"/>
</g>
<!-- Deployment::my&#45;api&#45;deployment&#45;&gt;Stage::my&#45;api&#45;stage&#45;dev -->
<g id="edge9" class="edge">
<title>Deployment::my&#45;api&#45;deployment&#45;&gt;Stage::my&#45;api&#45;stage&#45;dev</title>
<path fill="none" stroke="#707070" d="M187.22,-114.14C197.1,-114.65 207.21,-115.16 217.14,-115.67"/>
<polygon fill="#707070" stroke="#707070" points="217.23,-119.18 227.4,-116.2 217.59,-112.19 217.23,-119.18"/>
</g>
</g>
</svg>
