<?xml version="1.0" encoding="UTF-8" standalone="no"?><svg xmlns="http://www.w3.org/2000/svg" xmlns:xlink="http://www.w3.org/1999/xlink" contentScriptType="application/ecmascript" contentStyleType="text/css" height="1130px" preserveAspectRatio="none" style="width:606px;height:1130px;background:#FFFFFF;" version="1.1" viewBox="0 0 606 1130" width="606px" zoomAndPan="magnify"><defs/><g><rect fill="#FFFFFF" height="1118.2998" style="stroke:#000000;stroke-width:2.0;" width="593" x="6" y="6"/><line style="stroke:#000000;stroke-width:2.0;" x1="6" x2="599" y1="27.0146" y2="27.0146"/><text fill="#000000" font-family="Verdana" font-size="14" lengthAdjust="spacing" textLength="132" x="236.5" y="22.0752">GCP Requirements</text><ellipse cx="250.25" cy="53.0146" fill="#000000" rx="10" ry="10" style="stroke:none;stroke-width:1.0;"/><rect fill="#FFFFFF" height="211.5986" style="stroke:#000000;stroke-width:2.0;" width="417" x="125.25" y="98.0146"/><path d="M225.25,98.0146 L225.25,108.0293 L215.25,118.0293 L125.25,118.0293 " fill="none" style="stroke:#000000;stroke-width:2.0;"/><text fill="#000000" font-family="Verdana" font-size="14" lengthAdjust="spacing" textLength="90" x="128.25" y="113.0898">GCP Account</text><rect fill="#FFFFFF" height="34.584" rx="12.5" ry="12.5" style="stroke:#000000;stroke-width:1.0;" width="230" x="135.25" y="135.0293"/><text fill="#000000" font-family="Verdana" font-size="12" lengthAdjust="spacing" textLength="79" x="145.25" y="157.0938">Access to the</text><a href="console.cloud.google.com/home/dashboard" target="_blank" title="console.cloud.google.com/home/dashboard" xlink:actuate="onRequest" xlink:href="console.cloud.google.com/home/dashboard" xlink:show="new" xlink:title="console.cloud.google.com/home/dashboard" xlink:type="simple"><text fill="#0000FF" font-family="Verdana" font-size="12" lengthAdjust="spacing" text-decoration="underline" textLength="127" x="228.25" y="157.0938">Google Cloud Console</text></a><polygon fill="#FFFFFF" points="216.25,265.6133,284.25,265.6133,296.25,277.6133,284.25,289.6133,216.25,289.6133,204.25,277.6133,216.25,265.6133" style="stroke:#000000;stroke-width:1.5;"/><text fill="#000000" font-family="Verdana" font-size="11" lengthAdjust="spacing" textLength="68" x="216.25" y="281.988">has access?</text><text fill="#000000" font-family="Verdana" font-size="11" lengthAdjust="spacing" textLength="14" x="296.25" y="275.3037">no</text><rect fill="#FFFFFF" height="34.584" rx="12.5" ry="12.5" style="stroke:#000000;stroke-width:1.0;" width="143" x="389.25" y="195.0293"/><text fill="#000000" font-family="Verdana" font-size="12" lengthAdjust="spacing" textLength="119" x="403.25" y="217.0938">Create GCP Account</text><rect fill="#FFFFFF" height="209.0146" style="stroke:#000000;stroke-width:2.0;" width="322" x="178.75" y="357.9819"/><path d="M263.75,357.9819 L263.75,367.9966 L253.75,377.9966 L178.75,377.9966 " fill="none" style="stroke:#000000;stroke-width:2.0;"/><text fill="#000000" font-family="Verdana" font-size="14" lengthAdjust="spacing" textLength="75" x="181.75" y="373.0571">gcloud CLI</text><rect fill="#FFFFFF" height="32" rx="12.5" ry="12.5" style="stroke:#000000;stroke-width:1.0;" width="118" x="191.25" y="394.9966"/><text fill="#000000" font-family="Courier" font-size="12" lengthAdjust="spacing" textLength="98" x="201.25" y="414.0435">gcloud version</text><polygon fill="#FFFFFF" points="200.75,522.9966,299.75,522.9966,311.75,534.9966,299.75,546.9966,200.75,546.9966,188.75,534.9966,200.75,522.9966" style="stroke:#000000;stroke-width:1.5;"/><text fill="#000000" font-family="Verdana" font-size="11" lengthAdjust="spacing" textLength="99" x="200.75" y="539.3713">version &gt;= 318 ?</text><text fill="#000000" font-family="Verdana" font-size="11" lengthAdjust="spacing" textLength="14" x="311.75" y="532.687">no</text><rect fill="#FFFFFF" height="34.584" rx="12.5" ry="12.5" style="stroke:#000000;stroke-width:1.0;" width="155" x="335.75" y="453.7046"/><text fill="#000000" font-family="Verdana" font-size="12" lengthAdjust="spacing" textLength="0" x="353.75" y="475.769"/><a href="https://docs.aws.amazon.com/cli/latest/userguide/install-cliv2.html" target="_blank" title="https://docs.aws.amazon.com/cli/latest/userguide/install-cliv2.html" xlink:actuate="onRequest" xlink:href="https://docs.aws.amazon.com/cli/latest/userguide/install-cliv2.html" xlink:show="new" xlink:title="https://docs.aws.amazon.com/cli/latest/userguide/install-cliv2.html" xlink:type="simple"><text fill="#0000FF" font-family="Verdana" font-size="12" lengthAdjust="spacing" text-decoration="underline" textLength="127" x="353.75" y="475.769">Install the gcloud CLI</text></a><rect fill="#FFFFFF" height="433.9346" style="stroke:#000000;stroke-width:2.0;" width="573" x="16" y="615.3652"/><path d="M100,615.3652 L100,625.3799 L90,635.3799 L16,635.3799 " fill="none" style="stroke:#000000;stroke-width:2.0;"/><text fill="#000000" font-family="Verdana" font-size="14" lengthAdjust="spacing" textLength="74" x="19" y="630.4404">gcloud init</text><rect fill="#FFFFFF" height="34.584" rx="12.5" ry="12.5" style="stroke:#000000;stroke-width:1.0;" width="101" x="199.75" y="652.3799"/><text fill="#000000" font-family="Verdana" font-size="12" lengthAdjust="spacing" textLength="0" x="213.75" y="674.4443"/><text fill="#000000" font-family="Courier" font-size="12" lengthAdjust="spacing" textLength="77" x="213.75" y="674.0107">gcloud init</text><polygon fill="#FFFFFF" points="219.75,721.9639,280.75,721.9639,292.75,733.9639,280.75,745.9639,219.75,745.9639,207.75,733.9639,219.75,721.9639" style="stroke:#000000;stroke-width:1.5;"/><text fill="#000000" font-family="Verdana" font-size="11" lengthAdjust="spacing" textLength="61" x="219.75" y="738.3386">first time ?</text><text fill="#000000" font-family="Verdana" font-size="11" lengthAdjust="spacing" textLength="20" x="187.75" y="731.6543">yes</text><text fill="#000000" font-family="Verdana" font-size="11" lengthAdjust="spacing" textLength="14" x="292.75" y="731.6543">no</text><rect fill="#FFFFFF" height="34.584" rx="12.5" ry="12.5" style="stroke:#000000;stroke-width:1.0;" width="152" x="36" y="755.9639"/><text fill="#000000" font-family="Verdana" font-size="12" lengthAdjust="spacing" textLength="128" x="50" y="778.0283">Authenticate account</text><rect fill="#FFFFFF" height="34.584" rx="12.5" ry="12.5" style="stroke:#000000;stroke-width:1.0;" width="361" x="208" y="755.9639"/><text fill="#000000" font-family="Verdana" font-size="12" lengthAdjust="spacing" textLength="341" x="218" y="778.0283">Re-initialize this configuration [default] with new settings</text><rect fill="#FFFFFF" height="34.584" rx="12.5" ry="12.5" style="stroke:#000000;stroke-width:1.0;" width="356" x="210.5" y="825.5479"/><text fill="#000000" font-family="Verdana" font-size="12" lengthAdjust="spacing" textLength="336" x="220.5" y="847.6123">Choose an existing account or log in with a new account</text><polygon fill="#FFFFFF" points="250.25,866.1318,262.25,878.1318,250.25,890.1318,238.25,878.1318,250.25,866.1318" style="stroke:#000000;stroke-width:1.5;"/><rect fill="#FFFFFF" height="34.584" rx="12.5" ry="12.5" style="stroke:#000000;stroke-width:1.0;" width="148" x="176.25" y="925.1318"/><text fill="#000000" font-family="Verdana" font-size="12" lengthAdjust="spacing" textLength="124" x="190.25" y="947.1963">Create a new project</text><rect fill="#FFFFFF" height="34.584" rx="12.5" ry="12.5" style="stroke:#000000;stroke-width:1.0;" width="101" x="199.75" y="994.7158"/><text fill="#000000" font-family="Verdana" font-size="12" lengthAdjust="spacing" textLength="0" x="213.75" y="1016.7803"/><text fill="#000000" font-family="Courier" font-size="12" lengthAdjust="spacing" textLength="77" x="213.75" y="1016.3467">gcloud info</text><ellipse cx="250.25" cy="1094.2998" fill="#FFFFFF" rx="10" ry="10" style="stroke:#000000;stroke-width:1.5;"/><line style="stroke:#000000;stroke-width:2.5;" x1="244.0628" x2="256.4372" y1="1088.1126" y2="1100.487"/><line style="stroke:#000000;stroke-width:2.5;" x1="256.4372" x2="244.0628" y1="1088.1126" y2="1100.487"/><line style="stroke:#000000;stroke-width:1.5;" x1="250.25" x2="250.25" y1="169.6133" y2="265.6133"/><polygon fill="#000000" points="246.25,255.6133,250.25,265.6133,254.25,255.6133,250.25,259.6133" style="stroke:#000000;stroke-width:1.0;"/><line style="stroke:#000000;stroke-width:1.5;" x1="296.25" x2="460.75" y1="277.6133" y2="277.6133"/><line style="stroke:#000000;stroke-width:1.5;" x1="460.75" x2="460.75" y1="229.6133" y2="277.6133"/><polygon fill="#000000" points="456.75,239.6133,460.75,229.6133,464.75,239.6133,460.75,235.6133" style="stroke:#000000;stroke-width:1.0;"/><line style="stroke:#000000;stroke-width:1.5;" x1="460.75" x2="460.75" y1="152.3213" y2="195.0293"/><line style="stroke:#000000;stroke-width:1.5;" x1="460.75" x2="365.25" y1="152.3213" y2="152.3213"/><polygon fill="#000000" points="375.25,148.3213,365.25,152.3213,375.25,156.3213,371.25,152.3213" style="stroke:#000000;stroke-width:1.0;"/><line style="stroke:#000000;stroke-width:1.5;" x1="250.25" x2="250.25" y1="63.0146" y2="135.0293"/><polygon fill="#000000" points="246.25,125.0293,250.25,135.0293,254.25,125.0293,250.25,129.0293" style="stroke:#000000;stroke-width:1.0;"/><line style="stroke:#000000;stroke-width:1.5;" x1="250.25" x2="250.25" y1="426.9966" y2="522.9966"/><polygon fill="#000000" points="246.25,512.9966,250.25,522.9966,254.25,512.9966,250.25,516.9966" style="stroke:#000000;stroke-width:1.0;"/><line style="stroke:#000000;stroke-width:1.5;" x1="311.75" x2="413.25" y1="534.9966" y2="534.9966"/><line style="stroke:#000000;stroke-width:1.5;" x1="413.25" x2="413.25" y1="488.2886" y2="534.9966"/><polygon fill="#000000" points="409.25,498.2886,413.25,488.2886,417.25,498.2886,413.25,494.2886" style="stroke:#000000;stroke-width:1.0;"/><line style="stroke:#000000;stroke-width:1.5;" x1="413.25" x2="413.25" y1="410.9966" y2="453.7046"/><line style="stroke:#000000;stroke-width:1.5;" x1="413.25" x2="309.25" y1="410.9966" y2="410.9966"/><polygon fill="#000000" points="319.25,406.9966,309.25,410.9966,319.25,414.9966,315.25,410.9966" style="stroke:#000000;stroke-width:1.0;"/><line style="stroke:#000000;stroke-width:1.5;" x1="250.25" x2="250.25" y1="289.6133" y2="394.9966"/><polygon fill="#000000" points="246.25,384.9966,250.25,394.9966,254.25,384.9966,250.25,388.9966" style="stroke:#000000;stroke-width:1.0;"/><text fill="#000000" font-family="Verdana" font-size="11" lengthAdjust="spacing" textLength="20" x="254.25" y="346.6797">yes</text><line style="stroke:#000000;stroke-width:1.5;" x1="388.5" x2="388.5" y1="790.5479" y2="825.5479"/><polygon fill="#000000" points="384.5,815.5479,388.5,825.5479,392.5,815.5479,388.5,819.5479" style="stroke:#000000;stroke-width:1.0;"/><line style="stroke:#000000;stroke-width:1.5;" x1="207.75" x2="112" y1="733.9639" y2="733.9639"/><line style="stroke:#000000;stroke-width:1.5;" x1="112" x2="112" y1="733.9639" y2="755.9639"/><polygon fill="#000000" points="108,745.9639,112,755.9639,116,745.9639,112,749.9639" style="stroke:#000000;stroke-width:1.0;"/><line style="stroke:#000000;stroke-width:1.5;" x1="292.75" x2="388.5" y1="733.9639" y2="733.9639"/><line style="stroke:#000000;stroke-width:1.5;" x1="388.5" x2="388.5" y1="733.9639" y2="755.9639"/><polygon fill="#000000" points="384.5,745.9639,388.5,755.9639,392.5,745.9639,388.5,749.9639" style="stroke:#000000;stroke-width:1.0;"/><line style="stroke:#000000;stroke-width:1.5;" x1="112" x2="112" y1="790.5479" y2="878.1318"/><line style="stroke:#000000;stroke-width:1.5;" x1="112" x2="238.25" y1="878.1318" y2="878.1318"/><polygon fill="#000000" points="228.25,874.1318,238.25,878.1318,228.25,882.1318,232.25,878.1318" style="stroke:#000000;stroke-width:1.0;"/><line style="stroke:#000000;stroke-width:1.5;" x1="388.5" x2="388.5" y1="860.1318" y2="878.1318"/><line style="stroke:#000000;stroke-width:1.5;" x1="388.5" x2="262.25" y1="878.1318" y2="878.1318"/><polygon fill="#000000" points="272.25,874.1318,262.25,878.1318,272.25,882.1318,268.25,878.1318" style="stroke:#000000;stroke-width:1.0;"/><line style="stroke:#000000;stroke-width:1.5;" x1="250.25" x2="250.25" y1="686.9639" y2="721.9639"/><polygon fill="#000000" points="246.25,711.9639,250.25,721.9639,254.25,711.9639,250.25,715.9639" style="stroke:#000000;stroke-width:1.0;"/><line style="stroke:#000000;stroke-width:1.5;" x1="250.25" x2="250.25" y1="890.1318" y2="925.1318"/><polygon fill="#000000" points="246.25,915.1318,250.25,925.1318,254.25,915.1318,250.25,919.1318" style="stroke:#000000;stroke-width:1.0;"/><line style="stroke:#000000;stroke-width:1.5;" x1="250.25" x2="250.25" y1="959.7158" y2="994.7158"/><polygon fill="#000000" points="246.25,984.7158,250.25,994.7158,254.25,984.7158,250.25,988.7158" style="stroke:#000000;stroke-width:1.0;"/><line style="stroke:#000000;stroke-width:1.5;" x1="250.25" x2="250.25" y1="546.9966" y2="652.3799"/><polygon fill="#000000" points="246.25,642.3799,250.25,652.3799,254.25,642.3799,250.25,646.3799" style="stroke:#000000;stroke-width:1.0;"/><text fill="#000000" font-family="Verdana" font-size="11" lengthAdjust="spacing" textLength="20" x="254.25" y="604.063">yes</text><line style="stroke:#000000;stroke-width:1.5;" x1="250.25" x2="250.25" y1="1029.2998" y2="1084.2998"/><polygon fill="#000000" points="246.25,1074.2998,250.25,1084.2998,254.25,1074.2998,250.25,1078.2998" style="stroke:#000000;stroke-width:1.0;"/><!--MD5=[5fd81482de1d904ed90483c4b7fea67f]
@startuml gcp-requirements
!theme plain

skinparam svgLinkTarget _blank

card "GCP Requirements" {
start
partition "GCP Account" {
repeat :Access to the [[console.cloud.google.com/home/dashboard Google Cloud Console]];
backward: Create GCP Account;
repeat while (has access?) is (no) 
->yes;
}

partition "gcloud CLI" {
repeat :""gcloud version"";
backward:  [[https://docs.aws.amazon.com/cli/latest/userguide/install-cliv2.html Install the gcloud CLI]];
repeat while (version >= 318 ?) is (no) 
->yes;
}

partition "gcloud init" {
: ""gcloud init"";
if (first time ?) then (yes)
: Authenticate account;
else (no)
  :Re-initialize this configuration [default] with new settings;
  :Choose an existing account or log in with a new account;
endif
: Create a new project;
: ""gcloud info"";

}

end


}
@enduml

@startuml gcp-requirements







<style>
  root {
    BackgroundColor white
    FontColor black
    FontName Verdana
    HyperLinkColor blue
    LineColor black
    LineThickness 1
    Margin 5
  }
  caption {
    LineThickness 0
  }
  footer {
    LineThickness 0
  }
  header {
    LineThickness 0
  }
  node {
    MaximumWidth 300
  }
  title {
    FontSize 22
    LineThickness 0
  }
</style>

skinparam ArrowLollipopColor black
skinparam BackgroundColor white
skinparam DefaultFontName Verdana
skinparam DefaultMonospacedFontName Courier
skinparam LifelineStrategy nosolid
skinparam ParticipantPadding 10
skinparam SequenceLifeLineBorderColor black
skinparam Shadowing false
skinparam UseBetaStyle true

skinparam Activity {
  BackgroundColor white
  BarColor black
  BorderColor black
  FontColor black
  FontName Verdana
}
skinparam Boundary {
  FontColor black
}
skinparam Box {
  Padding 5
}
skinparam CircledCharacter {
  FontColor black
  FontName Courier
  Radius 9
}
skinparam Class {
  BackgroundColor white
  BorderColor black
  FontColor black
  FontName Verdana
}
skinparam ClassAttribute {
  FontColor black
  FontName Verdana
}
skinparam ClassStereotype {
  FontColor black
  FontName Verdana
}
skinparam Footer {
  FontColor black
  FontName Verdana
}
skinparam Header {
  FontColor black
  FontName Verdana
}
skinparam Hyperlink {
  Color blue
}
skinparam IconPackage {
  Color black
  BackgroundColor white
}
skinparam IconPrivate {
  Color black
  BackgroundColor white
}
skinparam IconProtected {
  Color black
  BackgroundColor white
}
skinparam IconPublic {
  Color black
  BackgroundColor white
}
skinparam Note {
  FontColor black
  FontName Verdana
}
skinparam Package {
  BorderColor black
  FontColor black
  FontName Verdana
}
skinparam State {
  BackgroundColor white
  BorderColor black
}
skinparam StereotypeA {
  BackgroundColor white
  BorderColor black
}
skinparam StereotypeC {
  BackgroundColor white
  BorderColor black
}
skinparam StereotypeE {
  BackgroundColor white
  BorderColor black
}
skinparam StereotypeI {
  BackgroundColor white
  BorderColor black
}
skinparam StereotypeN {
  BackgroundColor white
  BorderColor black
}
skinparam UseCaseStereoType {
  FontColor black
  FontName Verdana
}

skinparam svgLinkTarget _blank

card "GCP Requirements" {
start
partition "GCP Account" {
repeat :Access to the [[console.cloud.google.com/home/dashboard Google Cloud Console]];
backward: Create GCP Account;
repeat while (has access?) is (no) 
->yes;
}

partition "gcloud CLI" {
repeat :""gcloud version"";
backward:  [[https://docs.aws.amazon.com/cli/latest/userguide/install-cliv2.html Install the gcloud CLI]];
repeat while (version >= 318 ?) is (no) 
->yes;
}

partition "gcloud init" {
: ""gcloud init"";
if (first time ?) then (yes)
: Authenticate account;
else (no)
  :Re-initialize this configuration [default] with new settings;
  :Choose an existing account or log in with a new account;
endif
: Create a new project;
: ""gcloud info"";

}

end


}
@enduml

PlantUML version 1.2021.7(Sun May 23 14:40:07 CEST 2021)
(GPL source distribution)
Java Runtime: OpenJDK Runtime Environment
JVM: OpenJDK 64-Bit Server VM
Default Encoding: UTF-8
Language: en
Country: GB
--></g></svg>