<?xml version="1.0" encoding="UTF-8" standalone="no"?><svg xmlns="http://www.w3.org/2000/svg" xmlns:xlink="http://www.w3.org/1999/xlink" contentStyleType="text/css" height="567px" preserveAspectRatio="none" style="width:557px;height:567px;background:#FFFFFF;" version="1.1" viewBox="0 0 557 567" width="557px" zoomAndPan="magnify"><defs/><g><rect height="26.4883" style="stroke:#00000000;stroke-width:1.0;fill:none;" width="239" x="132.5" y="15"/><text fill="#000000" font-family="sans-serif" font-size="14" font-weight="bold" lengthAdjust="spacing" textLength="229" x="137.5" y="33.5352">Resources for project vm-disks</text><rect fill="#F1F1F1" height="36.4883" rx="12.5" ry="12.5" style="stroke:#181818;stroke-width:1.5;" width="52" x="10" y="283.4414"/><text fill="#000000" font-family="sans-serif" font-size="14" lengthAdjust="spacing" textLength="32" x="20" y="306.9766">Infra</text><rect fill="#F1F1F1" height="36.4883" rx="12.5" ry="12.5" style="stroke:#181818;stroke-width:1.5;" width="59" x="112" y="283.4414"/><text fill="#000000" font-family="sans-serif" font-size="14" lengthAdjust="spacing" textLength="39" x="122" y="306.9766">azure</text><rect fill="#F1F1F1" height="36.4883" rx="12.5" ry="12.5" style="stroke:#181818;stroke-width:1.5;" width="83" x="221" y="113.9766"/><text fill="#000000" font-family="sans-serif" font-size="14" lengthAdjust="spacing" textLength="63" x="231" y="137.5117">Compute</text><rect fill="#F1F1F1" height="36.4883" rx="12.5" ry="12.5" style="stroke:#181818;stroke-width:1.5;" width="72" x="354" y="57.4883"/><text fill="#000000" font-family="sans-serif" font-size="14" lengthAdjust="spacing" textLength="52" x="364" y="81.0234">Disk (1)</text><path d="M304,132.2207 L314,132.2207 C329,132.2207 329,75.7324 344,75.7324 L354,75.7324 " fill="none" style="stroke:#181818;stroke-width:1.0;"/><rect fill="#F1F1F1" height="36.4883" rx="12.5" ry="12.5" style="stroke:#181818;stroke-width:1.5;" width="132" x="354" y="113.9766"/><text fill="#000000" font-family="sans-serif" font-size="14" lengthAdjust="spacing" textLength="112" x="364" y="137.5117">SshPublicKey (1)</text><path d="M304,132.2207 L314,132.2207 C329,132.2207 329,132.2207 344,132.2207 L354,132.2207 " fill="none" style="stroke:#181818;stroke-width:1.0;"/><rect fill="#F1F1F1" height="36.4883" rx="12.5" ry="12.5" style="stroke:#181818;stroke-width:1.5;" width="145" x="354" y="170.4648"/><text fill="#000000" font-family="sans-serif" font-size="14" lengthAdjust="spacing" textLength="125" x="364" y="194">VirtualMachine (1)</text><path d="M304,132.2207 L314,132.2207 C329,132.2207 329,188.709 344,188.709 L354,188.709 " fill="none" style="stroke:#181818;stroke-width:1.0;"/><path d="M171,301.6855 L181,301.6855 C196,301.6855 196,132.2207 211,132.2207 L221,132.2207 " fill="none" style="stroke:#181818;stroke-width:1.0;"/><rect fill="#F1F1F1" height="36.4883" rx="12.5" ry="12.5" style="stroke:#181818;stroke-width:1.5;" width="77" x="221" y="339.9297"/><text fill="#000000" font-family="sans-serif" font-size="14" lengthAdjust="spacing" textLength="57" x="231" y="363.4648">Network</text><rect fill="#F1F1F1" height="36.4883" rx="12.5" ry="12.5" style="stroke:#181818;stroke-width:1.5;" width="160" x="348" y="226.9531"/><text fill="#000000" font-family="sans-serif" font-size="14" lengthAdjust="spacing" textLength="140" x="358" y="250.4883">NetworkInterface (1)</text><path d="M298,358.1738 L308,358.1738 C323,358.1738 323,245.1973 338,245.1973 L348,245.1973 " fill="none" style="stroke:#181818;stroke-width:1.0;"/><rect fill="#F1F1F1" height="36.4883" rx="12.5" ry="12.5" style="stroke:#181818;stroke-width:1.5;" width="197" x="348" y="283.4414"/><text fill="#000000" font-family="sans-serif" font-size="14" lengthAdjust="spacing" textLength="177" x="358" y="306.9766">NetworkSecurityGroup (1)</text><path d="M298,358.1738 L308,358.1738 C323,358.1738 323,301.6855 338,301.6855 L348,301.6855 " fill="none" style="stroke:#181818;stroke-width:1.0;"/><rect fill="#F1F1F1" height="36.4883" rx="12.5" ry="12.5" style="stroke:#181818;stroke-width:1.5;" width="152" x="348" y="339.9297"/><text fill="#000000" font-family="sans-serif" font-size="14" lengthAdjust="spacing" textLength="132" x="358" y="363.4648">PublicIPAddress (1)</text><path d="M298,358.1738 L308,358.1738 C323,358.1738 323,358.1738 338,358.1738 L348,358.1738 " fill="none" style="stroke:#181818;stroke-width:1.0;"/><rect fill="#F1F1F1" height="36.4883" rx="12.5" ry="12.5" style="stroke:#181818;stroke-width:1.5;" width="91" x="348" y="396.418"/><text fill="#000000" font-family="sans-serif" font-size="14" lengthAdjust="spacing" textLength="71" x="358" y="419.9531">Subnet (1)</text><path d="M298,358.1738 L308,358.1738 C323,358.1738 323,414.6621 338,414.6621 L348,414.6621 " fill="none" style="stroke:#181818;stroke-width:1.0;"/><rect fill="#F1F1F1" height="36.4883" rx="12.5" ry="12.5" style="stroke:#181818;stroke-width:1.5;" width="145" x="348" y="452.9063"/><text fill="#000000" font-family="sans-serif" font-size="14" lengthAdjust="spacing" textLength="125" x="358" y="476.4414">VirtualNetwork (1)</text><path d="M298,358.1738 L308,358.1738 C323,358.1738 323,471.1504 338,471.1504 L348,471.1504 " fill="none" style="stroke:#181818;stroke-width:1.0;"/><path d="M171,301.6855 L181,301.6855 C196,301.6855 196,358.1738 211,358.1738 L221,358.1738 " fill="none" style="stroke:#181818;stroke-width:1.0;"/><rect fill="#F1F1F1" height="36.4883" rx="12.5" ry="12.5" style="stroke:#181818;stroke-width:1.5;" width="90" x="221" y="509.3945"/><text fill="#000000" font-family="sans-serif" font-size="14" lengthAdjust="spacing" textLength="70" x="231" y="532.9297">Resources</text><rect fill="#F1F1F1" height="36.4883" rx="12.5" ry="12.5" style="stroke:#181818;stroke-width:1.5;" width="149" x="361" y="509.3945"/><text fill="#000000" font-family="sans-serif" font-size="14" lengthAdjust="spacing" textLength="129" x="371" y="532.9297">ResourceGroup (1)</text><path d="M311,527.6387 L321,527.6387 C336,527.6387 336,527.6387 351,527.6387 L361,527.6387 " fill="none" style="stroke:#181818;stroke-width:1.0;"/><path d="M171,301.6855 L181,301.6855 C196,301.6855 196,527.6387 211,527.6387 L221,527.6387 " fill="none" style="stroke:#181818;stroke-width:1.0;"/><path d="M62,301.6855 L72,301.6855 C87,301.6855 87,301.6855 102,301.6855 L112,301.6855 " fill="none" style="stroke:#181818;stroke-width:1.0;"/><!--MD5=[58a00df50b8b1e8941784bb85287a716]
@startmindmap
title Resources for project vm-disks
skinparam monochrome true
+ Infra
++ azure
+++ Compute
++++ Disk (1)
++++ SshPublicKey (1)
++++ VirtualMachine (1)
+++ Network
++++ NetworkInterface (1)
++++ NetworkSecurityGroup (1)
++++ PublicIPAddress (1)
++++ Subnet (1)
++++ VirtualNetwork (1)
+++ Resources
++++ ResourceGroup (1)
@endmindmap

PlantUML version 1.2022.6(Tue Jun 21 19:34:49 CEST 2022)
(GPL source distribution)
Java Runtime: Java(TM) SE Runtime Environment
JVM: Java HotSpot(TM) 64-Bit Server VM
Default Encoding: UTF-8
Language: en
Country: GB
--></g></svg>