<?xml version="1.0" encoding="UTF-8" standalone="no"?>
<!DOCTYPE svg PUBLIC "-//W3C//DTD SVG 1.1//EN"
 "http://www.w3.org/Graphics/SVG/1.1/DTD/svg11.dtd">
<!-- Generated by graphviz version 3.0.0 (20220226.1711)
 -->
<!-- Title: graphname Pages: 1 -->
<svg width="1000pt" height="389pt"
 viewBox="0.00 0.00 1000.00 389.00" xmlns="http://www.w3.org/2000/svg" xmlns:xlink="http://www.w3.org/1999/xlink">
<g id="graph0" class="graph" transform="scale(1 1) rotate(0) translate(4 385)">
<title>graphname</title>
<polygon fill="#fafafa" stroke="transparent" points="-4,4 -4,-385 996,-385 996,4 -4,4"/>
<text text-anchor="start" x="374" y="-356.4" font-family="Helvetica,sans-Serif" font-weight="bold" font-size="22.00" fill="#383838">Project sfn&#45;eventbridge</text>
<text text-anchor="start" x="492.5" y="-340.8" font-family="Helvetica,sans-Serif" font-size="14.00"> &#160;</text>
<text text-anchor="start" x="374" y="-319.2" font-family="Helvetica,sans-Serif" font-weight="bold" font-size="16.00" fill="#707070">Target Diagram</text>
<g id="clust1" class="cluster">
<title>cluster_aws</title>
<polygon fill="#f5f5f5" stroke="#f5f5f5" points="8,-8 8,-297 984,-297 984,-8 8,-8"/>
<text text-anchor="start" x="434" y="-23" font-family="Helvetica,sans-Serif" font-weight="bold" font-size="20.00" fill="#707070">Provider aws</text>
</g>
<g id="clust2" class="cluster">
<title>cluster_aws_</title>
<polygon fill="#eeeeee" stroke="#eeeeee" points="16,-54 16,-289 976,-289 976,-54 16,-54"/>
<text text-anchor="start" x="495.86" y="-58.3" font-family="Helvetica,sans-Serif" font-size="1.00" fill="#383838"> </text>
</g>
<!-- EventBus::sam&#45;app&#45;EventBus -->
<g id="node1" class="node">
<title>EventBus::sam&#45;app&#45;EventBus</title>
<polygon fill="#e5e5e5" stroke="#dddddd" points="968,-167 715,-167 715,-109 968,-109 968,-167"/>
<text text-anchor="start" x="727.5" y="-147.2" font-family="Helvetica,sans-Serif" font-weight="bold" font-size="16.00" fill="#707070">CloudWatchEvents::EventBus</text>
<text text-anchor="start" x="727.5" y="-122.2" font-family="Helvetica,sans-Serif" font-size="16.00" fill="#383838">sam&#45;app&#45;EventBus</text>
</g>
<!-- Rule::sam&#45;app&#45;EventBusLogRule&#45;O6HEQDLDXZKV -->
<g id="node2" class="node">
<title>Rule::sam&#45;app&#45;EventBusLogRule&#45;O6HEQDLDXZKV</title>
<polygon fill="#e5e5e5" stroke="#dddddd" points="679,-205 351,-205 351,-147 679,-147 679,-205"/>
<text text-anchor="start" x="363" y="-185.2" font-family="Helvetica,sans-Serif" font-weight="bold" font-size="16.00" fill="#707070">CloudWatchEvents::Rule</text>
<text text-anchor="start" x="363" y="-160.2" font-family="Helvetica,sans-Serif" font-size="16.00" fill="#383838">sam&#45;app&#45;EventBusLogRule&#45;O6HEQDLD...</text>
</g>
<!-- Rule::sam&#45;app&#45;EventBusLogRule&#45;O6HEQDLDXZKV&#45;&gt;EventBus::sam&#45;app&#45;EventBus -->
<g id="edge1" class="edge">
<title>Rule::sam&#45;app&#45;EventBusLogRule&#45;O6HEQDLDXZKV&#45;&gt;EventBus::sam&#45;app&#45;EventBus</title>
<path fill="none" stroke="#707070" d="M679.2,-156.89C687.82,-155.88 696.44,-154.87 704.96,-153.87"/>
<polygon fill="#707070" stroke="#707070" points="705.38,-157.35 714.9,-152.71 704.56,-150.39 705.38,-157.35"/>
</g>
<!-- Target::target::sam&#45;app&#45;EventBusLogRule&#45;O6HEQDLDXZKV::CloudWatchLogTarget -->
<g id="node3" class="node">
<title>Target::target::sam&#45;app&#45;EventBusLogRule&#45;O6HEQDLDXZKV::CloudWatchLogTarget</title>
<polygon fill="#e5e5e5" stroke="#dddddd" points="315,-243 24,-243 24,-185 315,-185 315,-243"/>
<text text-anchor="start" x="36.5" y="-223.2" font-family="Helvetica,sans-Serif" font-weight="bold" font-size="16.00" fill="#707070">CloudWatchEvents::Target</text>
<text text-anchor="start" x="36.5" y="-198.2" font-family="Helvetica,sans-Serif" font-size="16.00" fill="#383838">target::sam&#45;app&#45;EventBusLogRule&#45;...</text>
</g>
<!-- Target::target::sam&#45;app&#45;EventBusLogRule&#45;O6HEQDLDXZKV::CloudWatchLogTarget&#45;&gt;Rule::sam&#45;app&#45;EventBusLogRule&#45;O6HEQDLDXZKV -->
<g id="edge2" class="edge">
<title>Target::target::sam&#45;app&#45;EventBusLogRule&#45;O6HEQDLDXZKV::CloudWatchLogTarget&#45;&gt;Rule::sam&#45;app&#45;EventBusLogRule&#45;O6HEQDLDXZKV</title>
<path fill="none" stroke="#707070" d="M315.18,-197.99C323.68,-197.05 332.27,-196.1 340.87,-195.15"/>
<polygon fill="#707070" stroke="#707070" points="341.4,-198.62 350.95,-194.04 340.63,-191.66 341.4,-198.62"/>
</g>
<!-- LogGroup::/aws/events/sam&#45;app -->
<g id="node4" class="node">
<title>LogGroup::/aws/events/sam&#45;app</title>
<polygon fill="#e5e5e5" stroke="#dddddd" points="636.5,-281 393.5,-281 393.5,-223 636.5,-223 636.5,-281"/>
<text text-anchor="start" x="406" y="-261.2" font-family="Helvetica,sans-Serif" font-weight="bold" font-size="16.00" fill="#707070">CloudWatchLogs::LogGroup</text>
<text text-anchor="start" x="406" y="-236.2" font-family="Helvetica,sans-Serif" font-size="16.00" fill="#383838">/aws/events/sam&#45;app</text>
</g>
<!-- Target::target::sam&#45;app&#45;EventBusLogRule&#45;O6HEQDLDXZKV::CloudWatchLogTarget&#45;&gt;LogGroup::/aws/events/sam&#45;app -->
<g id="edge3" class="edge">
<title>Target::target::sam&#45;app&#45;EventBusLogRule&#45;O6HEQDLDXZKV::CloudWatchLogTarget&#45;&gt;LogGroup::/aws/events/sam&#45;app</title>
<path fill="none" stroke="#707070" d="M315.18,-230.01C337.76,-232.5 360.98,-235.07 383.22,-237.53"/>
<polygon fill="#707070" stroke="#707070" points="383.04,-241.03 393.37,-238.65 383.81,-234.08 383.04,-241.03"/>
</g>
<!-- Role::sam&#45;app&#45;WorkflowExecutionRole&#45;WM87YTOPGZ2D -->
<g id="node5" class="node">
<title>Role::sam&#45;app&#45;WorkflowExecutionRole&#45;WM87YTOPGZ2D</title>
<polygon fill="#e5e5e5" stroke="#dddddd" points="670,-129 360,-129 360,-71 670,-71 670,-129"/>
<text text-anchor="start" x="372" y="-109.2" font-family="Helvetica,sans-Serif" font-weight="bold" font-size="16.00" fill="#707070">IAM::Role</text>
<text text-anchor="start" x="372" y="-84.2" font-family="Helvetica,sans-Serif" font-size="16.00" fill="#383838">sam&#45;app&#45;WorkflowExecutionRole&#45;WM...</text>
</g>
<!-- Role::sam&#45;app&#45;WorkflowExecutionRole&#45;WM87YTOPGZ2D&#45;&gt;EventBus::sam&#45;app&#45;EventBus -->
<g id="edge4" class="edge">
<title>Role::sam&#45;app&#45;WorkflowExecutionRole&#45;WM87YTOPGZ2D&#45;&gt;EventBus::sam&#45;app&#45;EventBus</title>
<path fill="none" stroke="#707070" d="M670.17,-118.05C681.68,-119.4 693.25,-120.76 704.63,-122.09"/>
<polygon fill="#707070" stroke="#707070" points="704.25,-125.57 714.59,-123.25 705.06,-118.62 704.25,-125.57"/>
</g>
<!-- StateMachine::MyStateMachine&#45;nfd2eDd0064T -->
<g id="node6" class="node">
<title>StateMachine::MyStateMachine&#45;nfd2eDd0064T</title>
<polygon fill="#e5e5e5" stroke="#dddddd" points="298,-129 41,-129 41,-71 298,-71 298,-129"/>
<text text-anchor="start" x="53.5" y="-109.2" font-family="Helvetica,sans-Serif" font-weight="bold" font-size="16.00" fill="#707070">StepFunctions::StateMachine</text>
<text text-anchor="start" x="53.5" y="-84.2" font-family="Helvetica,sans-Serif" font-size="16.00" fill="#383838">MyStateMachine&#45;nfd2eDd0064T</text>
</g>
<!-- StateMachine::MyStateMachine&#45;nfd2eDd0064T&#45;&gt;Role::sam&#45;app&#45;WorkflowExecutionRole&#45;WM87YTOPGZ2D -->
<g id="edge5" class="edge">
<title>StateMachine::MyStateMachine&#45;nfd2eDd0064T&#45;&gt;Role::sam&#45;app&#45;WorkflowExecutionRole&#45;WM87YTOPGZ2D</title>
<path fill="none" stroke="#707070" d="M298.41,-100C315.15,-100 332.49,-100 349.72,-100"/>
<polygon fill="#707070" stroke="#707070" points="349.86,-103.5 359.86,-100 349.86,-96.5 349.86,-103.5"/>
</g>
</g>
</svg>
