<?xml version="1.0" encoding="UTF-8" standalone="no"?><svg xmlns="http://www.w3.org/2000/svg" xmlns:xlink="http://www.w3.org/1999/xlink" contentScriptType="application/ecmascript" contentStyleType="text/css" height="172px" preserveAspectRatio="none" style="width:1164px;height:172px;background:#FFFFFF;" version="1.1" viewBox="0 0 1164 172" width="1164px" zoomAndPan="magnify"><defs><filter height="300%" id="f1bphm6adv64a1" width="300%" x="-1" y="-1"><feGaussianBlur result="blurOut" stdDeviation="2.0"/><feColorMatrix in="blurOut" result="blurOut2" type="matrix" values="0 0 0 0 0 0 0 0 0 0 0 0 0 0 0 0 0 0 .4 0"/><feOffset dx="4.0" dy="4.0" in="blurOut2" result="blurOut3"/><feBlend in="SourceGraphic" in2="blurOut3" mode="normal"/></filter></defs><g><rect fill="none" height="26.4883" style="stroke:none;stroke-width:1.0;" width="256" x="399" y="15"/><text fill="#000000" font-family="sans-serif" font-size="14" font-weight="bold" lengthAdjust="spacing" textLength="246" x="404" y="33.5352">Resources for project vpc-peering</text><rect fill="#F8F8F8" filter="url(#f1bphm6adv64a1)" height="36.4883" rx="12.5" ry="12.5" style="stroke:#383838;stroke-width:1.5;" width="52" x="590" y="85.7324"/><text fill="#000000" font-family="sans-serif" font-size="14" lengthAdjust="spacing" textLength="32" x="600" y="109.2676">Infra</text><rect fill="#F8F8F8" filter="url(#f1bphm6adv64a1)" height="36.4883" rx="12.5" ry="12.5" style="stroke:#383838;stroke-width:1.5;" width="107" x="692" y="85.7324"/><text fill="#000000" font-family="sans-serif" font-size="14" lengthAdjust="spacing" textLength="87" x="702" y="109.2676">aws-primary</text><rect fill="#F8F8F8" filter="url(#f1bphm6adv64a1)" height="36.4883" rx="12.5" ry="12.5" style="stroke:#383838;stroke-width:1.5;" width="47" x="849" y="85.7324"/><text fill="#000000" font-family="sans-serif" font-size="14" lengthAdjust="spacing" textLength="27" x="859" y="109.2676">EC2</text><rect fill="#F8F8F8" filter="url(#f1bphm6adv64a1)" height="36.4883" rx="12.5" ry="12.5" style="stroke:#383838;stroke-width:1.5;" width="68" x="946" y="57.4883"/><text fill="#000000" font-family="sans-serif" font-size="14" lengthAdjust="spacing" textLength="48" x="956" y="81.0234">Vpc (1)</text><path d="M896,103.9766 L906,103.9766 C921,103.9766 921,75.7324 936,75.7324 L946,75.7324 " fill="none" style="stroke:#383838;stroke-width:1.0;"/><rect fill="#F8F8F8" filter="url(#f1bphm6adv64a1)" height="36.4883" rx="12.5" ry="12.5" style="stroke:#383838;stroke-width:1.5;" width="199" x="946" y="113.9766"/><text fill="#000000" font-family="sans-serif" font-size="14" lengthAdjust="spacing" textLength="179" x="956" y="137.5117">VpcPeeringConnection (1)</text><path d="M896,103.9766 L906,103.9766 C921,103.9766 921,132.2207 936,132.2207 L946,132.2207 " fill="none" style="stroke:#383838;stroke-width:1.0;"/><path d="M799,103.9766 L809,103.9766 C824,103.9766 824,103.9766 839,103.9766 L849,103.9766 " fill="none" style="stroke:#383838;stroke-width:1.0;"/><path d="M642,103.9766 L652,103.9766 C667,103.9766 667,103.9766 682,103.9766 L692,103.9766 " fill="none" style="stroke:#383838;stroke-width:1.0;"/><rect fill="#F8F8F8" filter="url(#f1bphm6adv64a1)" height="36.4883" rx="12.5" ry="12.5" style="stroke:#383838;stroke-width:1.5;" width="124" x="416" y="85.7324"/><text fill="#000000" font-family="sans-serif" font-size="14" lengthAdjust="spacing" textLength="104" x="426" y="109.2676">aws-secondary</text><rect fill="#F8F8F8" filter="url(#f1bphm6adv64a1)" height="36.4883" rx="12.5" ry="12.5" style="stroke:#383838;stroke-width:1.5;" width="47" x="319" y="85.7324"/><text fill="#000000" font-family="sans-serif" font-size="14" lengthAdjust="spacing" textLength="27" x="329" y="109.2676">EC2</text><rect fill="#F8F8F8" filter="url(#f1bphm6adv64a1)" height="36.4883" rx="12.5" ry="12.5" style="stroke:#383838;stroke-width:1.5;" width="68" x="201" y="57.4883"/><text fill="#000000" font-family="sans-serif" font-size="14" lengthAdjust="spacing" textLength="48" x="211" y="81.0234">Vpc (1)</text><path d="M319,103.9766 L309,103.9766 C294,103.9766 294,75.7324 279,75.7324 L269,75.7324 " fill="none" style="stroke:#383838;stroke-width:1.0;"/><rect fill="#F8F8F8" filter="url(#f1bphm6adv64a1)" height="36.4883" rx="12.5" ry="12.5" style="stroke:#383838;stroke-width:1.5;" width="259" x="10" y="113.9766"/><text fill="#000000" font-family="sans-serif" font-size="14" lengthAdjust="spacing" textLength="239" x="20" y="137.5117">VpcPeeringConnectionAccepter (1)</text><path d="M319,103.9766 L309,103.9766 C294,103.9766 294,132.2207 279,132.2207 L269,132.2207 " fill="none" style="stroke:#383838;stroke-width:1.0;"/><path d="M416,103.9766 L406,103.9766 C391,103.9766 391,103.9766 376,103.9766 L366,103.9766 " fill="none" style="stroke:#383838;stroke-width:1.0;"/><path d="M590,103.9766 L580,103.9766 C565,103.9766 565,103.9766 550,103.9766 L540,103.9766 " fill="none" style="stroke:#383838;stroke-width:1.0;"/><!--MD5=[27f4789fdba0a27d68319bcaa352afe9]
@startmindmap
title Resources for project vpc-peering
skinparam monochrome true
+ Infra
++ aws-primary
+++ EC2
++++ Vpc (1)
++++ VpcPeeringConnection (1)
- - aws-secondary
- - - EC2
- - - - Vpc (1)
- - - - VpcPeeringConnectionAccepter (1)
@endmindmap

PlantUML version 1.2021.8(Sat Jun 26 10:20:59 CEST 2021)
(GPL source distribution)
Java Runtime: OpenJDK Runtime Environment
JVM: OpenJDK 64-Bit Server VM
Default Encoding: UTF-8
Language: en
Country: GB
--></g></svg>