<?xml version="1.0" encoding="UTF-8" standalone="no"?>
<!DOCTYPE svg PUBLIC "-//W3C//DTD SVG 1.1//EN"
 "http://www.w3.org/Graphics/SVG/1.1/DTD/svg11.dtd">
<!-- Generated by graphviz version 6.0.0 (20220910.1538)
 -->
<!-- Title: graphname Pages: 1 -->
<svg width="400pt" height="237pt"
 viewBox="0.00 0.00 400.00 237.00" xmlns="http://www.w3.org/2000/svg" xmlns:xlink="http://www.w3.org/1999/xlink">
<g id="graph0" class="graph" transform="scale(1 1) rotate(0) translate(4 233)">
<title>graphname</title>
<polygon fill="#fafafa" stroke="none" points="-4,4 -4,-233 396,-233 396,4 -4,4"/>
<text text-anchor="start" x="101" y="-204.4" font-family="Helvetica,sans-Serif" font-weight="bold" font-size="22.00" fill="#383838">Project mq&#45;simple</text>
<text text-anchor="start" x="192" y="-188.8" font-family="Helvetica,sans-Serif" font-size="14.00"> &#160;</text>
<text text-anchor="start" x="101" y="-167.2" font-family="Helvetica,sans-Serif" font-weight="bold" font-size="16.00" fill="#707070">Target Diagram</text>
<g id="clust1" class="cluster">
<title>cluster_aws</title>
<polygon fill="#f5f5f5" stroke="#f5f5f5" points="8,-8 8,-145 384,-145 384,-8 8,-8"/>
<text text-anchor="start" x="134" y="-23" font-family="Helvetica,sans-Serif" font-weight="bold" font-size="20.00" fill="#707070">Provider aws</text>
</g>
<g id="clust2" class="cluster">
<title>cluster_aws_</title>
<polygon fill="#eeeeee" stroke="#eeeeee" points="16,-54 16,-137 376,-137 376,-54 16,-54"/>
<text text-anchor="start" x="195.86" y="-58.3" font-family="Helvetica,sans-Serif" font-size="1.00" fill="#383838"> </text>
</g>
<!-- Broker::my&#45;broker -->
<g id="node1" class="node">
<title>Broker::my&#45;broker</title>
<polygon fill="#e5e5e5" stroke="#dddddd" points="136,-129 24,-129 24,-71 136,-71 136,-129"/>
<text text-anchor="start" x="36" y="-109.2" font-family="Helvetica,sans-Serif" font-weight="bold" font-size="16.00" fill="#707070">MQ::Broker</text>
<text text-anchor="start" x="36" y="-84.2" font-family="Helvetica,sans-Serif" font-size="16.00" fill="#383838">my&#45;broker</text>
</g>
<!-- Configuration::my&#45;broker&#45;configuration -->
<g id="node2" class="node">
<title>Configuration::my&#45;broker&#45;configuration</title>
<polygon fill="#e5e5e5" stroke="#dddddd" points="368,-129 172,-129 172,-71 368,-71 368,-129"/>
<text text-anchor="start" x="184" y="-109.2" font-family="Helvetica,sans-Serif" font-weight="bold" font-size="16.00" fill="#707070">MQ::Configuration</text>
<text text-anchor="start" x="184" y="-84.2" font-family="Helvetica,sans-Serif" font-size="16.00" fill="#383838">my&#45;broker&#45;configuration</text>
</g>
<!-- Broker::my&#45;broker&#45;&gt;Configuration::my&#45;broker&#45;configuration -->
<g id="edge1" class="edge">
<title>Broker::my&#45;broker&#45;&gt;Configuration::my&#45;broker&#45;configuration</title>
<path fill="none" stroke="#707070" d="M136.14,-100C144.32,-100 152.99,-100 161.81,-100"/>
<polygon fill="#707070" stroke="#707070" points="161.82,-103.5 171.82,-100 161.82,-96.5 161.82,-103.5"/>
</g>
</g>
</svg>
