<?xml version="1.0" encoding="UTF-8" standalone="no"?>
<!DOCTYPE svg PUBLIC "-//W3C//DTD SVG 1.1//EN"
 "http://www.w3.org/Graphics/SVG/1.1/DTD/svg11.dtd">
<!-- Generated by graphviz version 2.44.1 (20200629.0846)
 -->
<!-- Title: graphname Pages: 1 -->
<svg width="467pt" height="301pt"
 viewBox="0.00 0.00 467.00 301.00" xmlns="http://www.w3.org/2000/svg" xmlns:xlink="http://www.w3.org/1999/xlink">
<g id="graph0" class="graph" transform="scale(1 1) rotate(0) translate(4 297)">
<title>graphname</title>
<polygon fill="#fafafa" stroke="transparent" points="-4,4 -4,-297 463,-297 463,4 -4,4"/>
<text text-anchor="start" x="135.5" y="-268.4" font-family="Helvetica,sans-Serif" font-weight="bold" font-size="22.00" fill="#383838">Project iam&#45;policy</text>
<text text-anchor="start" x="135.5" y="-243.2" font-family="Helvetica,sans-Serif" font-weight="bold" font-size="16.00" fill="#707070">Target Diagram</text>
<g id="clust1" class="cluster">
<title>cluster_aws</title>
<polygon fill="#f5f5f5" stroke="#f5f5f5" points="8,-8 8,-221 451,-221 451,-8 8,-8"/>
<text text-anchor="start" x="167.5" y="-23" font-family="Helvetica,sans-Serif" font-weight="bold" font-size="20.00" fill="#707070">Provider aws</text>
</g>
<g id="clust2" class="cluster">
<title>cluster_aws_</title>
<polygon fill="#eeeeee" stroke="#eeeeee" points="16,-54 16,-213 443,-213 443,-54 16,-54"/>
<text text-anchor="start" x="229.36" y="-58.3" font-family="Helvetica,sans-Serif" font-size="1.00" fill="#383838"> </text>
</g>
<!-- IamPolicy::policy&#45;allow&#45;ec2 -->
<g id="node1" class="node">
<title>IamPolicy::policy&#45;allow&#45;ec2</title>
<polygon fill="#e5e5e5" stroke="#dddddd" points="380.5,-129 240.5,-129 240.5,-71 380.5,-71 380.5,-129"/>
<text text-anchor="start" x="252.5" y="-109.2" font-family="Helvetica,sans-Serif" font-weight="bold" font-size="16.00" fill="#707070">IamPolicy</text>
<text text-anchor="start" x="252.5" y="-84.2" font-family="Helvetica,sans-Serif" font-size="16.00" fill="#383838">policy&#45;allow&#45;ec2</text>
</g>
<!-- IamPolicy::AmazonEKSWorkerNodePolicy -->
<g id="node2" class="node">
<title>IamPolicy::AmazonEKSWorkerNodePolicy</title>
<polygon fill="#e5e5e5" stroke="#dddddd" points="435,-205 186,-205 186,-147 435,-147 435,-205"/>
<text text-anchor="start" x="198.5" y="-185.2" font-family="Helvetica,sans-Serif" font-weight="bold" font-size="16.00" fill="#707070">IamPolicy</text>
<text text-anchor="start" x="198.5" y="-160.2" font-family="Helvetica,sans-Serif" font-size="16.00" fill="#383838">AmazonEKSWorkerNodePolicy</text>
</g>
<!-- IamRole::role&#45;4&#45;policies -->
<g id="node3" class="node">
<title>IamRole::role&#45;4&#45;policies</title>
<polygon fill="#e5e5e5" stroke="#dddddd" points="150,-167 24,-167 24,-109 150,-109 150,-167"/>
<text text-anchor="start" x="36" y="-147.2" font-family="Helvetica,sans-Serif" font-weight="bold" font-size="16.00" fill="#707070">IamRole</text>
<text text-anchor="start" x="36" y="-122.2" font-family="Helvetica,sans-Serif" font-size="16.00" fill="#383838">role&#45;4&#45;policies</text>
</g>
<!-- IamRole::role&#45;4&#45;policies&#45;&gt;IamPolicy::policy&#45;allow&#45;ec2 -->
<g id="edge1" class="edge">
<title>IamRole::role&#45;4&#45;policies&#45;&gt;IamPolicy::policy&#45;allow&#45;ec2</title>
<path fill="none" stroke="#707070" d="M150.29,-127.31C175.14,-123.05 204.04,-118.09 230.35,-113.58"/>
<polygon fill="#707070" stroke="#707070" points="231.02,-117.01 240.29,-111.87 229.84,-110.12 231.02,-117.01"/>
</g>
<!-- IamRole::role&#45;4&#45;policies&#45;&gt;IamPolicy::AmazonEKSWorkerNodePolicy -->
<g id="edge2" class="edge">
<title>IamRole::role&#45;4&#45;policies&#45;&gt;IamPolicy::AmazonEKSWorkerNodePolicy</title>
<path fill="none" stroke="#707070" d="M150.29,-148.69C158.47,-150.09 167.09,-151.57 175.91,-153.08"/>
<polygon fill="#707070" stroke="#707070" points="175.5,-156.56 185.95,-154.8 176.68,-149.66 175.5,-156.56"/>
</g>
</g>
</svg>
