<?xml version="1.0" encoding="UTF-8" standalone="no"?>
<!DOCTYPE svg PUBLIC "-//W3C//DTD SVG 1.1//EN"
 "http://www.w3.org/Graphics/SVG/1.1/DTD/svg11.dtd">
<!-- Generated by graphviz version 2.44.1 (20200629.0846)
 -->
<!-- Title: graphname Pages: 1 -->
<svg width="396pt" height="183pt"
 viewBox="0.00 0.00 396.00 183.00" xmlns="http://www.w3.org/2000/svg" xmlns:xlink="http://www.w3.org/1999/xlink">
<g id="graph0" class="graph" transform="scale(1 1) rotate(0) translate(4 179)">
<title>graphname</title>
<polygon fill="white" stroke="transparent" points="-4,4 -4,-179 392,-179 392,4 -4,4"/>
<g id="clust1" class="cluster">
<title>cluster_aws</title>
<polygon fill="none" stroke="#383838" points="8,-8 8,-167 380,-167 380,-8 8,-8"/>
<text text-anchor="start" x="174.5" y="-148" font-family="Helvetica,sans-Serif" font-weight="bold" font-size="20.00" fill="#383838">aws</text>
</g>
<!-- IamPolicy::policy&#45;allow&#45;ec2 -->
<g id="node1" class="node">
<title>IamPolicy::policy&#45;allow&#45;ec2</title>
<polygon fill="none" stroke="#383838" points="327,-63.5 206,-63.5 206,-16.5 327,-16.5 327,-63.5"/>
<text text-anchor="start" x="218.5" y="-48" font-family="Helvetica,sans-Serif" font-weight="bold" font-size="10.00" fill="#707070">IamPolicy</text>
<text text-anchor="start" x="218.5" y="-27.6" font-family="Helvetica,sans-Serif" font-size="13.00" fill="#383838">policy&#45;allow&#45;ec2</text>
</g>
<!-- IamPolicy::AmazonEKSWorkerNodePolicy -->
<g id="node2" class="node">
<title>IamPolicy::AmazonEKSWorkerNodePolicy</title>
<polygon fill="none" stroke="#383838" points="372,-128.5 161,-128.5 161,-81.5 372,-81.5 372,-128.5"/>
<text text-anchor="start" x="173.5" y="-113" font-family="Helvetica,sans-Serif" font-weight="bold" font-size="10.00" fill="#707070">IamPolicy</text>
<text text-anchor="start" x="173.5" y="-92.6" font-family="Helvetica,sans-Serif" font-size="13.00" fill="#383838">AmazonEKSWorkerNodePolicy</text>
</g>
<!-- IamRole::role&#45;4&#45;policies -->
<g id="node3" class="node">
<title>IamRole::role&#45;4&#45;policies</title>
<polygon fill="none" stroke="#383838" points="125,-95.5 16,-95.5 16,-48.5 125,-48.5 125,-95.5"/>
<text text-anchor="start" x="28.5" y="-80" font-family="Helvetica,sans-Serif" font-weight="bold" font-size="10.00" fill="#707070">IamRole</text>
<text text-anchor="start" x="28.5" y="-59.6" font-family="Helvetica,sans-Serif" font-size="13.00" fill="#383838">role&#45;4&#45;policies</text>
</g>
<!-- IamRole::role&#45;4&#45;policies&#45;&gt;IamPolicy::policy&#45;allow&#45;ec2 -->
<g id="edge1" class="edge">
<title>IamRole::role&#45;4&#45;policies&#45;&gt;IamPolicy::policy&#45;allow&#45;ec2</title>
<path fill="none" stroke="#383838" d="M125.02,-63.17C146.81,-59.58 172.29,-55.38 195.52,-51.54"/>
<polygon fill="#383838" stroke="#383838" points="196.36,-54.95 205.66,-49.87 195.23,-48.04 196.36,-54.95"/>
</g>
<!-- IamRole::role&#45;4&#45;policies&#45;&gt;IamPolicy::AmazonEKSWorkerNodePolicy -->
<g id="edge2" class="edge">
<title>IamRole::role&#45;4&#45;policies&#45;&gt;IamPolicy::AmazonEKSWorkerNodePolicy</title>
<path fill="none" stroke="#383838" d="M125.02,-81.1C133.17,-82.49 141.84,-83.96 150.71,-85.47"/>
<polygon fill="#383838" stroke="#383838" points="150.35,-88.96 160.79,-87.19 151.52,-82.06 150.35,-88.96"/>
</g>
</g>
</svg>
