<?xml version="1.0" encoding="UTF-8" standalone="no"?><svg xmlns="http://www.w3.org/2000/svg" xmlns:xlink="http://www.w3.org/1999/xlink" contentStyleType="text/css" height="228px" preserveAspectRatio="none" style="width:590px;height:228px;background:#FFFFFF;" version="1.1" viewBox="0 0 590 228" width="590px" zoomAndPan="magnify"><defs/><g><rect height="26.4883" style="stroke:#00000000;stroke-width:1.0;fill:none;" width="557" x="15" y="15"/><text fill="#000000" font-family="sans-serif" font-size="14" font-weight="bold" lengthAdjust="spacing" textLength="547" x="20" y="33.5352">Resources for project eventbridge-pipes-kinesis-to-kinesis-with-filtering</text><rect fill="#F1F1F1" height="36.4883" rx="12.5" ry="12.5" style="stroke:#181818;stroke-width:1.5;" width="52" x="115.5" y="113.9766"/><text fill="#000000" font-family="sans-serif" font-size="14" lengthAdjust="spacing" textLength="32" x="125.5" y="137.5117">Infra</text><rect fill="#F1F1F1" height="36.4883" rx="12.5" ry="12.5" style="stroke:#181818;stroke-width:1.5;" width="46" x="217.5" y="113.9766"/><text fill="#000000" font-family="sans-serif" font-size="14" lengthAdjust="spacing" textLength="26" x="227.5" y="137.5117">aws</text><rect fill="#F1F1F1" height="36.4883" rx="12.5" ry="12.5" style="stroke:#181818;stroke-width:1.5;" width="46" x="313.5" y="57.4883"/><text fill="#000000" font-family="sans-serif" font-size="14" lengthAdjust="spacing" textLength="26" x="323.5" y="81.0234">IAM</text><rect fill="#F1F1F1" height="36.4883" rx="12.5" ry="12.5" style="stroke:#181818;stroke-width:1.5;" width="73" x="409.5" y="57.4883"/><text fill="#000000" font-family="sans-serif" font-size="14" lengthAdjust="spacing" textLength="53" x="419.5" y="81.0234">Role (1)</text><path d="M359.5,75.7324 L369.5,75.7324 C384.5,75.7324 384.5,75.7324 399.5,75.7324 L409.5,75.7324 " fill="none" style="stroke:#181818;stroke-width:1.0;"/><path d="M263.5,132.2207 L273.5,132.2207 C288.5,132.2207 288.5,75.7324 303.5,75.7324 L313.5,75.7324 " fill="none" style="stroke:#181818;stroke-width:1.0;"/><rect fill="#F1F1F1" height="36.4883" rx="12.5" ry="12.5" style="stroke:#181818;stroke-width:1.5;" width="68" x="313.5" y="113.9766"/><text fill="#000000" font-family="sans-serif" font-size="14" lengthAdjust="spacing" textLength="48" x="323.5" y="137.5117">Kinesis</text><rect fill="#F1F1F1" height="36.4883" rx="12.5" ry="12.5" style="stroke:#181818;stroke-width:1.5;" width="91" x="431.5" y="113.9766"/><text fill="#000000" font-family="sans-serif" font-size="14" lengthAdjust="spacing" textLength="71" x="441.5" y="137.5117">Stream (3)</text><path d="M381.5,132.2207 L391.5,132.2207 C406.5,132.2207 406.5,132.2207 421.5,132.2207 L431.5,132.2207 " fill="none" style="stroke:#181818;stroke-width:1.0;"/><path d="M263.5,132.2207 L273.5,132.2207 C288.5,132.2207 288.5,132.2207 303.5,132.2207 L313.5,132.2207 " fill="none" style="stroke:#181818;stroke-width:1.0;"/><rect fill="#F1F1F1" height="36.4883" rx="12.5" ry="12.5" style="stroke:#181818;stroke-width:1.5;" width="56" x="313.5" y="170.4648"/><text fill="#000000" font-family="sans-serif" font-size="14" lengthAdjust="spacing" textLength="36" x="323.5" y="194">Pipes</text><rect fill="#F1F1F1" height="36.4883" rx="12.5" ry="12.5" style="stroke:#181818;stroke-width:1.5;" width="72" x="419.5" y="170.4648"/><text fill="#000000" font-family="sans-serif" font-size="14" lengthAdjust="spacing" textLength="52" x="429.5" y="194">Pipe (2)</text><path d="M369.5,188.709 L379.5,188.709 C394.5,188.709 394.5,188.709 409.5,188.709 L419.5,188.709 " fill="none" style="stroke:#181818;stroke-width:1.0;"/><path d="M263.5,132.2207 L273.5,132.2207 C288.5,132.2207 288.5,188.709 303.5,188.709 L313.5,188.709 " fill="none" style="stroke:#181818;stroke-width:1.0;"/><path d="M167.5,132.2207 L177.5,132.2207 C192.5,132.2207 192.5,132.2207 207.5,132.2207 L217.5,132.2207 " fill="none" style="stroke:#181818;stroke-width:1.0;"/><!--MD5=[f44c0869de132a41ea07b24f1e87f8d1]
@startmindmap
title Resources for project eventbridge-pipes-kinesis-to-kinesis-with-filtering
skinparam monochrome true
+ Infra
++ aws
+++ IAM
++++ Role (1)
+++ Kinesis
++++ Stream (3)
+++ Pipes
++++ Pipe (2)
@endmindmap

PlantUML version 1.2022.6(Tue Jun 21 12:34:49 COT 2022)
(GPL source distribution)
Java Runtime: Java(TM) SE Runtime Environment
JVM: Java HotSpot(TM) 64-Bit Server VM
Default Encoding: UTF-8
Language: en
Country: GB
--></g></svg>