<?xml version="1.0" encoding="UTF-8" standalone="no"?>
<!DOCTYPE svg PUBLIC "-//W3C//DTD SVG 1.1//EN"
 "http://www.w3.org/Graphics/SVG/1.1/DTD/svg11.dtd">
<!-- Generated by graphviz version 2.44.1 (20200629.0846)
 -->
<!-- Title: graphname Pages: 1 -->
<svg width="988pt" height="404pt"
 viewBox="0.00 0.00 988.00 403.99" xmlns="http://www.w3.org/2000/svg" xmlns:xlink="http://www.w3.org/1999/xlink">
<g id="graph0" class="graph" transform="scale(1 1) rotate(0) translate(4 399.99)">
<title>graphname</title>
<polygon fill="#fafafa" stroke="transparent" points="-4,4 -4,-399.99 984,-399.99 984,4 -4,4"/>
<text text-anchor="start" x="400" y="-371.39" font-family="Helvetica,sans-Serif" font-weight="bold" font-size="22.00" fill="#383838">Project Azure VM</text>
<text text-anchor="start" x="486.5" y="-355.79" font-family="Helvetica,sans-Serif" font-size="14.00"> &#160;</text>
<text text-anchor="start" x="400" y="-334.19" font-family="Helvetica,sans-Serif" font-weight="bold" font-size="16.00" fill="#707070">Target Diagram</text>
<g id="clust1" class="cluster">
<title>cluster_azure</title>
<polygon fill="#f5f5f5" stroke="#f5f5f5" points="8,-8 8,-301 972,-301 972,-8 8,-8"/>
<text text-anchor="start" x="421" y="-23" font-family="Helvetica,sans-Serif" font-weight="bold" font-size="20.00" fill="#707070">Provider azure</text>
</g>
<g id="clust2" class="cluster">
<title>cluster_azure_</title>
<polygon fill="#eeeeee" stroke="#eeeeee" points="16,-54 16,-293 964,-293 964,-54 16,-54"/>
<text text-anchor="start" x="489.86" y="-58.3" font-family="Helvetica,sans-Serif" font-size="1.00" fill="#383838"> </text>
</g>
<!-- VirtualMachine::vm -->
<g id="node1" class="node">
<title>VirtualMachine::vm</title>
<polygon fill="#e5e5e5" stroke="#dddddd" points="163,-275 24,-275 24,-217 163,-217 163,-275"/>
<text text-anchor="start" x="36.5" y="-255.2" font-family="Helvetica,sans-Serif" font-weight="bold" font-size="16.00" fill="#707070">VirtualMachine</text>
<text text-anchor="start" x="36.5" y="-230.2" font-family="Helvetica,sans-Serif" font-size="16.00" fill="#383838">vm</text>
</g>
<!-- NetworkInterface::network&#45;interface -->
<g id="node2" class="node">
<title>NetworkInterface::network&#45;interface</title>
<polygon fill="#e5e5e5" stroke="#dddddd" points="353,-259 199,-259 199,-201 353,-201 353,-259"/>
<text text-anchor="start" x="211" y="-239.2" font-family="Helvetica,sans-Serif" font-weight="bold" font-size="16.00" fill="#707070">NetworkInterface</text>
<text text-anchor="start" x="211" y="-214.2" font-family="Helvetica,sans-Serif" font-size="16.00" fill="#383838">network&#45;interface</text>
</g>
<!-- VirtualMachine::vm&#45;&gt;NetworkInterface::network&#45;interface -->
<g id="edge2" class="edge">
<title>VirtualMachine::vm&#45;&gt;NetworkInterface::network&#45;interface</title>
<path fill="none" stroke="#707070" d="M163.25,-239.91C171.63,-239.16 180.27,-238.4 188.86,-237.64"/>
<polygon fill="#707070" stroke="#707070" points="189.25,-241.11 198.91,-236.75 188.64,-234.14 189.25,-241.11"/>
</g>
<!-- ResourceGroup::resource&#45;group -->
<g id="node7" class="node">
<title>ResourceGroup::resource&#45;group</title>
<polygon fill="#e5e5e5" stroke="#dddddd" points="956,-193 811,-193 811,-135 956,-135 956,-193"/>
<text text-anchor="start" x="823.5" y="-173.2" font-family="Helvetica,sans-Serif" font-weight="bold" font-size="16.00" fill="#707070">ResourceGroup</text>
<text text-anchor="start" x="823.5" y="-148.2" font-family="Helvetica,sans-Serif" font-size="16.00" fill="#383838">resource&#45;group</text>
</g>
<!-- VirtualMachine::vm&#45;&gt;ResourceGroup::resource&#45;group -->
<g id="edge1" class="edge">
<title>VirtualMachine::vm&#45;&gt;ResourceGroup::resource&#45;group</title>
<path fill="none" stroke="#707070" d="M163.08,-267.31C289.77,-302.76 566.58,-361.74 775,-274 809.98,-259.28 839.25,-227 858.37,-201.2"/>
<polygon fill="#707070" stroke="#707070" points="861.22,-203.24 864.22,-193.08 855.53,-199.15 861.22,-203.24"/>
</g>
<!-- NetworkSecurityGroup::security&#45;group -->
<g id="node3" class="node">
<title>NetworkSecurityGroup::security&#45;group</title>
<polygon fill="#e5e5e5" stroke="#dddddd" points="775,-265 576,-265 576,-207 775,-207 775,-265"/>
<text text-anchor="start" x="588.5" y="-245.2" font-family="Helvetica,sans-Serif" font-weight="bold" font-size="16.00" fill="#707070">NetworkSecurityGroup</text>
<text text-anchor="start" x="588.5" y="-220.2" font-family="Helvetica,sans-Serif" font-size="16.00" fill="#383838">security&#45;group</text>
</g>
<!-- NetworkInterface::network&#45;interface&#45;&gt;NetworkSecurityGroup::security&#45;group -->
<g id="edge6" class="edge">
<title>NetworkInterface::network&#45;interface&#45;&gt;NetworkSecurityGroup::security&#45;group</title>
<path fill="none" stroke="#707070" d="M353.3,-244.7C365.21,-246.49 377.4,-248.02 389,-249 447.29,-253.91 512.45,-251.54 565.78,-247.55"/>
<polygon fill="#707070" stroke="#707070" points="566.24,-251.03 575.94,-246.76 565.7,-244.05 566.24,-251.03"/>
</g>
<!-- PublicIPAddress::ip -->
<g id="node4" class="node">
<title>PublicIPAddress::ip</title>
<polygon fill="#e5e5e5" stroke="#dddddd" points="540,-129 389,-129 389,-71 540,-71 540,-129"/>
<text text-anchor="start" x="401.5" y="-109.2" font-family="Helvetica,sans-Serif" font-weight="bold" font-size="16.00" fill="#707070">PublicIPAddress</text>
<text text-anchor="start" x="401.5" y="-84.2" font-family="Helvetica,sans-Serif" font-size="16.00" fill="#383838">ip</text>
</g>
<!-- NetworkInterface::network&#45;interface&#45;&gt;PublicIPAddress::ip -->
<g id="edge5" class="edge">
<title>NetworkInterface::network&#45;interface&#45;&gt;PublicIPAddress::ip</title>
<path fill="none" stroke="#707070" d="M308.88,-200.66C330.55,-181.54 360.37,-156.75 389,-138 390.88,-136.77 392.8,-135.55 394.75,-134.35"/>
<polygon fill="#707070" stroke="#707070" points="396.67,-137.28 403.48,-129.16 393.09,-131.26 396.67,-137.28"/>
</g>
<!-- Subnet::subnet -->
<g id="node5" class="node">
<title>Subnet::subnet</title>
<polygon fill="#e5e5e5" stroke="#dddddd" points="504,-205 425,-205 425,-147 504,-147 504,-205"/>
<text text-anchor="start" x="437.5" y="-185.2" font-family="Helvetica,sans-Serif" font-weight="bold" font-size="16.00" fill="#707070">Subnet</text>
<text text-anchor="start" x="437.5" y="-160.2" font-family="Helvetica,sans-Serif" font-size="16.00" fill="#383838">subnet</text>
</g>
<!-- NetworkInterface::network&#45;interface&#45;&gt;Subnet::subnet -->
<g id="edge7" class="edge">
<title>NetworkInterface::network&#45;interface&#45;&gt;Subnet::subnet</title>
<path fill="none" stroke="#707070" d="M353.13,-207.96C374.04,-201.9 396.15,-195.5 415.04,-190.03"/>
<polygon fill="#707070" stroke="#707070" points="416.26,-193.32 424.89,-187.18 414.31,-186.6 416.26,-193.32"/>
</g>
<!-- VirtualNetwork::virtual&#45;network -->
<g id="node6" class="node">
<title>VirtualNetwork::virtual&#45;network</title>
<polygon fill="#e5e5e5" stroke="#dddddd" points="744,-169 607,-169 607,-111 744,-111 744,-169"/>
<text text-anchor="start" x="619.5" y="-149.2" font-family="Helvetica,sans-Serif" font-weight="bold" font-size="16.00" fill="#707070">VirtualNetwork</text>
<text text-anchor="start" x="619.5" y="-124.2" font-family="Helvetica,sans-Serif" font-size="16.00" fill="#383838">virtual&#45;network</text>
</g>
<!-- NetworkInterface::network&#45;interface&#45;&gt;VirtualNetwork::virtual&#45;network -->
<g id="edge4" class="edge">
<title>NetworkInterface::network&#45;interface&#45;&gt;VirtualNetwork::virtual&#45;network</title>
<path fill="none" stroke="#707070" d="M353.22,-237.95C407.31,-240.64 480.56,-238.14 540,-214 559.56,-206.05 558.12,-194.24 576,-183 582.78,-178.74 590.05,-174.7 597.45,-170.93"/>
<polygon fill="#707070" stroke="#707070" points="599.45,-173.84 606.89,-166.29 596.37,-167.56 599.45,-173.84"/>
</g>
<!-- NetworkInterface::network&#45;interface&#45;&gt;ResourceGroup::resource&#45;group -->
<g id="edge3" class="edge">
<title>NetworkInterface::network&#45;interface&#45;&gt;ResourceGroup::resource&#45;group</title>
<path fill="none" stroke="#707070" d="M353.21,-230.77C365.19,-230.87 377.43,-230.95 389,-231 456.11,-231.3 477.45,-255.33 540,-231 560.23,-223.13 556.19,-206.87 576,-198 657.13,-161.67 686.7,-188.19 775,-178 783.33,-177.04 792.02,-175.99 800.69,-174.91"/>
<polygon fill="#707070" stroke="#707070" points="801.35,-178.35 810.83,-173.63 800.47,-171.41 801.35,-178.35"/>
</g>
<!-- NetworkSecurityGroup::security&#45;group&#45;&gt;ResourceGroup::resource&#45;group -->
<g id="edge8" class="edge">
<title>NetworkSecurityGroup::security&#45;group&#45;&gt;ResourceGroup::resource&#45;group</title>
<path fill="none" stroke="#707070" d="M759.69,-206.92C773.35,-202.15 787.49,-197.21 801.11,-192.45"/>
<polygon fill="#707070" stroke="#707070" points="802.63,-195.62 810.91,-189.02 800.32,-189.02 802.63,-195.62"/>
</g>
<!-- PublicIPAddress::ip&#45;&gt;ResourceGroup::resource&#45;group -->
<g id="edge9" class="edge">
<title>PublicIPAddress::ip&#45;&gt;ResourceGroup::resource&#45;group</title>
<path fill="none" stroke="#707070" d="M540.28,-77.87C604.4,-62.73 698.3,-49.85 775,-77 803.7,-87.16 830.34,-108.6 849.92,-127.65"/>
<polygon fill="#707070" stroke="#707070" points="847.53,-130.21 857.07,-134.81 852.48,-125.26 847.53,-130.21"/>
</g>
<!-- Subnet::subnet&#45;&gt;VirtualNetwork::virtual&#45;network -->
<g id="edge11" class="edge">
<title>Subnet::subnet&#45;&gt;VirtualNetwork::virtual&#45;network</title>
<path fill="none" stroke="#707070" d="M504.32,-169.31C530.21,-164.85 565.13,-158.84 596.61,-153.42"/>
<polygon fill="#707070" stroke="#707070" points="597.43,-156.83 606.69,-151.68 596.24,-149.93 597.43,-156.83"/>
</g>
<!-- Subnet::subnet&#45;&gt;ResourceGroup::resource&#45;group -->
<g id="edge10" class="edge">
<title>Subnet::subnet&#45;&gt;ResourceGroup::resource&#45;group</title>
<path fill="none" stroke="#707070" d="M504.36,-159.06C516.26,-153.13 529.08,-145.94 540,-138 558.3,-124.7 555.09,-110.66 576,-102 657.71,-68.15 689.56,-79.13 775,-102 795.93,-107.6 817,-118.37 834.87,-129.38"/>
<polygon fill="#707070" stroke="#707070" points="833.06,-132.37 843.37,-134.78 836.81,-126.46 833.06,-132.37"/>
</g>
<!-- VirtualNetwork::virtual&#45;network&#45;&gt;ResourceGroup::resource&#45;group -->
<g id="edge12" class="edge">
<title>VirtualNetwork::virtual&#45;network&#45;&gt;ResourceGroup::resource&#45;group</title>
<path fill="none" stroke="#707070" d="M744.24,-147.89C762.33,-150 782.07,-152.3 800.83,-154.48"/>
<polygon fill="#707070" stroke="#707070" points="800.49,-157.97 810.83,-155.65 801.3,-151.02 800.49,-157.97"/>
</g>
</g>
</svg>
