<?xml version="1.0" encoding="UTF-8" standalone="no"?><svg xmlns="http://www.w3.org/2000/svg" xmlns:xlink="http://www.w3.org/1999/xlink" contentStyleType="text/css" height="511px" preserveAspectRatio="none" style="width:557px;height:511px;background:#FFFFFF;" version="1.1" viewBox="0 0 557 511" width="557px" zoomAndPan="magnify"><defs/><g><rect height="26.4883" style="stroke:#00000000;stroke-width:1.0;fill:none;" width="292" x="106" y="15"/><text fill="#000000" font-family="sans-serif" font-size="14" font-weight="bold" lengthAdjust="spacing" textLength="282" x="111" y="33.5352">Resources for project Azure VM simple</text><rect fill="#F1F1F1" height="36.4883" rx="12.5" ry="12.5" style="stroke:#181818;stroke-width:1.5;" width="52" x="10" y="255.1973"/><text fill="#000000" font-family="sans-serif" font-size="14" lengthAdjust="spacing" textLength="32" x="20" y="278.7324">Infra</text><rect fill="#F1F1F1" height="36.4883" rx="12.5" ry="12.5" style="stroke:#181818;stroke-width:1.5;" width="59" x="112" y="255.1973"/><text fill="#000000" font-family="sans-serif" font-size="14" lengthAdjust="spacing" textLength="39" x="122" y="278.7324">azure</text><rect fill="#F1F1F1" height="36.4883" rx="12.5" ry="12.5" style="stroke:#181818;stroke-width:1.5;" width="83" x="221" y="85.7324"/><text fill="#000000" font-family="sans-serif" font-size="14" lengthAdjust="spacing" textLength="63" x="231" y="109.2676">Compute</text><rect fill="#F1F1F1" height="36.4883" rx="12.5" ry="12.5" style="stroke:#181818;stroke-width:1.5;" width="132" x="354" y="57.4883"/><text fill="#000000" font-family="sans-serif" font-size="14" lengthAdjust="spacing" textLength="112" x="364" y="81.0234">SshPublicKey (1)</text><path d="M304,103.9766 L314,103.9766 C329,103.9766 329,75.7324 344,75.7324 L354,75.7324 " fill="none" style="stroke:#181818;stroke-width:1.0;"/><rect fill="#F1F1F1" height="36.4883" rx="12.5" ry="12.5" style="stroke:#181818;stroke-width:1.5;" width="145" x="354" y="113.9766"/><text fill="#000000" font-family="sans-serif" font-size="14" lengthAdjust="spacing" textLength="125" x="364" y="137.5117">VirtualMachine (1)</text><path d="M304,103.9766 L314,103.9766 C329,103.9766 329,132.2207 344,132.2207 L354,132.2207 " fill="none" style="stroke:#181818;stroke-width:1.0;"/><path d="M171,273.4414 L181,273.4414 C196,273.4414 196,103.9766 211,103.9766 L221,103.9766 " fill="none" style="stroke:#181818;stroke-width:1.0;"/><rect fill="#F1F1F1" height="36.4883" rx="12.5" ry="12.5" style="stroke:#181818;stroke-width:1.5;" width="77" x="221" y="283.4414"/><text fill="#000000" font-family="sans-serif" font-size="14" lengthAdjust="spacing" textLength="57" x="231" y="306.9766">Network</text><rect fill="#F1F1F1" height="36.4883" rx="12.5" ry="12.5" style="stroke:#181818;stroke-width:1.5;" width="160" x="348" y="170.4648"/><text fill="#000000" font-family="sans-serif" font-size="14" lengthAdjust="spacing" textLength="140" x="358" y="194">NetworkInterface (1)</text><path d="M298,301.6855 L308,301.6855 C323,301.6855 323,188.709 338,188.709 L348,188.709 " fill="none" style="stroke:#181818;stroke-width:1.0;"/><rect fill="#F1F1F1" height="36.4883" rx="12.5" ry="12.5" style="stroke:#181818;stroke-width:1.5;" width="197" x="348" y="226.9531"/><text fill="#000000" font-family="sans-serif" font-size="14" lengthAdjust="spacing" textLength="177" x="358" y="250.4883">NetworkSecurityGroup (1)</text><path d="M298,301.6855 L308,301.6855 C323,301.6855 323,245.1973 338,245.1973 L348,245.1973 " fill="none" style="stroke:#181818;stroke-width:1.0;"/><rect fill="#F1F1F1" height="36.4883" rx="12.5" ry="12.5" style="stroke:#181818;stroke-width:1.5;" width="152" x="348" y="283.4414"/><text fill="#000000" font-family="sans-serif" font-size="14" lengthAdjust="spacing" textLength="132" x="358" y="306.9766">PublicIPAddress (1)</text><path d="M298,301.6855 L308,301.6855 C323,301.6855 323,301.6855 338,301.6855 L348,301.6855 " fill="none" style="stroke:#181818;stroke-width:1.0;"/><rect fill="#F1F1F1" height="36.4883" rx="12.5" ry="12.5" style="stroke:#181818;stroke-width:1.5;" width="91" x="348" y="339.9297"/><text fill="#000000" font-family="sans-serif" font-size="14" lengthAdjust="spacing" textLength="71" x="358" y="363.4648">Subnet (1)</text><path d="M298,301.6855 L308,301.6855 C323,301.6855 323,358.1738 338,358.1738 L348,358.1738 " fill="none" style="stroke:#181818;stroke-width:1.0;"/><rect fill="#F1F1F1" height="36.4883" rx="12.5" ry="12.5" style="stroke:#181818;stroke-width:1.5;" width="145" x="348" y="396.418"/><text fill="#000000" font-family="sans-serif" font-size="14" lengthAdjust="spacing" textLength="125" x="358" y="419.9531">VirtualNetwork (1)</text><path d="M298,301.6855 L308,301.6855 C323,301.6855 323,414.6621 338,414.6621 L348,414.6621 " fill="none" style="stroke:#181818;stroke-width:1.0;"/><path d="M171,273.4414 L181,273.4414 C196,273.4414 196,301.6855 211,301.6855 L221,301.6855 " fill="none" style="stroke:#181818;stroke-width:1.0;"/><rect fill="#F1F1F1" height="36.4883" rx="12.5" ry="12.5" style="stroke:#181818;stroke-width:1.5;" width="90" x="221" y="452.9063"/><text fill="#000000" font-family="sans-serif" font-size="14" lengthAdjust="spacing" textLength="70" x="231" y="476.4414">Resources</text><rect fill="#F1F1F1" height="36.4883" rx="12.5" ry="12.5" style="stroke:#181818;stroke-width:1.5;" width="149" x="361" y="452.9063"/><text fill="#000000" font-family="sans-serif" font-size="14" lengthAdjust="spacing" textLength="129" x="371" y="476.4414">ResourceGroup (1)</text><path d="M311,471.1504 L321,471.1504 C336,471.1504 336,471.1504 351,471.1504 L361,471.1504 " fill="none" style="stroke:#181818;stroke-width:1.0;"/><path d="M171,273.4414 L181,273.4414 C196,273.4414 196,471.1504 211,471.1504 L221,471.1504 " fill="none" style="stroke:#181818;stroke-width:1.0;"/><path d="M62,273.4414 L72,273.4414 C87,273.4414 87,273.4414 102,273.4414 L112,273.4414 " fill="none" style="stroke:#181818;stroke-width:1.0;"/><!--MD5=[ebf98f10ae9e97e8f59f6f24d0ed4ebe]
@startmindmap
title Resources for project Azure VM simple
skinparam monochrome true
+ Infra
++ azure
+++ Compute
++++ SshPublicKey (1)
++++ VirtualMachine (1)
+++ Network
++++ NetworkInterface (1)
++++ NetworkSecurityGroup (1)
++++ PublicIPAddress (1)
++++ Subnet (1)
++++ VirtualNetwork (1)
+++ Resources
++++ ResourceGroup (1)
@endmindmap

PlantUML version 1.2022.6(Tue Jun 21 19:34:49 CEST 2022)
(GPL source distribution)
Java Runtime: Java(TM) SE Runtime Environment
JVM: Java HotSpot(TM) 64-Bit Server VM
Default Encoding: UTF-8
Language: en
Country: GB
--></g></svg>