<?xml version="1.0" encoding="UTF-8" standalone="no"?>
<!DOCTYPE svg PUBLIC "-//W3C//DTD SVG 1.1//EN"
 "http://www.w3.org/Graphics/SVG/1.1/DTD/svg11.dtd">
<!-- Generated by graphviz version 6.0.0 (20220910.1538)
 -->
<!-- Title: graphname Pages: 1 -->
<svg width="940pt" height="617pt"
 viewBox="0.00 0.00 940.00 617.00" xmlns="http://www.w3.org/2000/svg" xmlns:xlink="http://www.w3.org/1999/xlink">
<g id="graph0" class="graph" transform="scale(1 1) rotate(0) translate(4 613)">
<title>graphname</title>
<polygon fill="#fafafa" stroke="none" points="-4,4 -4,-613 936,-613 936,4 -4,4"/>
<text text-anchor="start" x="349" y="-584.4" font-family="Helvetica,sans-Serif" font-weight="bold" font-size="22.00" fill="#383838">Project backup&#45;simple</text>
<text text-anchor="start" x="462" y="-568.8" font-family="Helvetica,sans-Serif" font-size="14.00"> &#160;</text>
<text text-anchor="start" x="349" y="-547.2" font-family="Helvetica,sans-Serif" font-weight="bold" font-size="16.00" fill="#707070">Target Diagram</text>
<g id="clust1" class="cluster">
<title>cluster_aws</title>
<polygon fill="#f5f5f5" stroke="#f5f5f5" points="8,-8 8,-525 924,-525 924,-8 8,-8"/>
<text text-anchor="start" x="404" y="-23" font-family="Helvetica,sans-Serif" font-weight="bold" font-size="20.00" fill="#707070">Provider aws</text>
</g>
<g id="clust2" class="cluster">
<title>cluster_aws_</title>
<polygon fill="#eeeeee" stroke="#eeeeee" points="16,-54 16,-517 916,-517 916,-54 16,-54"/>
<text text-anchor="start" x="465.86" y="-58.3" font-family="Helvetica,sans-Serif" font-size="1.00" fill="#383838"> </text>
</g>
<!-- BackupPlan::my&#45;backup&#45;plan -->
<g id="node1" class="node">
<title>BackupPlan::my&#45;backup&#45;plan</title>
<polygon fill="#e5e5e5" stroke="#dddddd" points="609.5,-433 425.5,-433 425.5,-375 609.5,-375 609.5,-433"/>
<text text-anchor="start" x="437.5" y="-413.2" font-family="Helvetica,sans-Serif" font-weight="bold" font-size="16.00" fill="#707070">Backup::BackupPlan</text>
<text text-anchor="start" x="437.5" y="-388.2" font-family="Helvetica,sans-Serif" font-size="16.00" fill="#383838">my&#45;backup&#45;plan</text>
</g>
<!-- BackupVault::my&#45;vault -->
<g id="node3" class="node">
<title>BackupVault::my&#45;vault</title>
<polygon fill="#e5e5e5" stroke="#dddddd" points="908,-357 719,-357 719,-299 908,-299 908,-357"/>
<text text-anchor="start" x="731.5" y="-337.2" font-family="Helvetica,sans-Serif" font-weight="bold" font-size="16.00" fill="#707070">Backup::BackupVault</text>
<text text-anchor="start" x="731.5" y="-312.2" font-family="Helvetica,sans-Serif" font-size="16.00" fill="#383838">my&#45;vault</text>
</g>
<!-- BackupPlan::my&#45;backup&#45;plan&#45;&gt;BackupVault::my&#45;vault -->
<g id="edge1" class="edge">
<title>BackupPlan::my&#45;backup&#45;plan&#45;&gt;BackupVault::my&#45;vault</title>
<path fill="none" stroke="#707070" d="M609.66,-383.94C633.59,-378.4 659.32,-372.2 683,-366 691.57,-363.75 700.44,-361.34 709.32,-358.86"/>
<polygon fill="#707070" stroke="#707070" points="710.28,-362.23 718.96,-356.15 708.39,-355.49 710.28,-362.23"/>
</g>
<!-- BackupSelection::ec2 -->
<g id="node2" class="node">
<title>BackupSelection::ec2</title>
<polygon fill="#e5e5e5" stroke="#dddddd" points="281,-471 59,-471 59,-413 281,-413 281,-471"/>
<text text-anchor="start" x="71" y="-451.2" font-family="Helvetica,sans-Serif" font-weight="bold" font-size="16.00" fill="#707070">Backup::BackupSelection</text>
<text text-anchor="start" x="71" y="-426.2" font-family="Helvetica,sans-Serif" font-size="16.00" fill="#383838">ec2</text>
</g>
<!-- BackupSelection::ec2&#45;&gt;BackupPlan::my&#45;backup&#45;plan -->
<g id="edge2" class="edge">
<title>BackupSelection::ec2&#45;&gt;BackupPlan::my&#45;backup&#45;plan</title>
<path fill="none" stroke="#707070" d="M281.27,-429.87C324.32,-425.14 373.37,-419.74 415.49,-415.11"/>
<polygon fill="#707070" stroke="#707070" points="415.92,-418.58 425.48,-414.01 415.16,-411.63 415.92,-418.58"/>
</g>
<!-- Role::AWSBackupDefaultServiceRole -->
<g id="node10" class="node">
<title>Role::AWSBackupDefaultServiceRole</title>
<polygon fill="#e5e5e5" stroke="#dddddd" points="644,-509 391,-509 391,-451 644,-451 644,-509"/>
<text text-anchor="start" x="403.5" y="-489.2" font-family="Helvetica,sans-Serif" font-weight="bold" font-size="16.00" fill="#707070">IAM::Role</text>
<text text-anchor="start" x="403.5" y="-464.2" font-family="Helvetica,sans-Serif" font-size="16.00" fill="#383838">AWSBackupDefaultServiceRole</text>
</g>
<!-- BackupSelection::ec2&#45;&gt;Role::AWSBackupDefaultServiceRole -->
<g id="edge3" class="edge">
<title>BackupSelection::ec2&#45;&gt;Role::AWSBackupDefaultServiceRole</title>
<path fill="none" stroke="#707070" d="M281.27,-454.13C312.86,-457.6 347.67,-461.43 380.6,-465.05"/>
<polygon fill="#707070" stroke="#707070" points="380.43,-468.56 390.76,-466.17 381.2,-461.6 380.43,-468.56"/>
</g>
<!-- BackupVaultLockConfiguration::my&#45;vault -->
<g id="node4" class="node">
<title>BackupVaultLockConfiguration::my&#45;vault</title>
<polygon fill="#e5e5e5" stroke="#dddddd" points="683,-357 352,-357 352,-299 683,-299 683,-357"/>
<text text-anchor="start" x="364.5" y="-337.2" font-family="Helvetica,sans-Serif" font-weight="bold" font-size="16.00" fill="#707070">Backup::BackupVaultLockConfiguration</text>
<text text-anchor="start" x="364.5" y="-312.2" font-family="Helvetica,sans-Serif" font-size="16.00" fill="#383838">my&#45;vault</text>
</g>
<!-- BackupVaultLockConfiguration::my&#45;vault&#45;&gt;BackupVault::my&#45;vault -->
<g id="edge4" class="edge">
<title>BackupVaultLockConfiguration::my&#45;vault&#45;&gt;BackupVault::my&#45;vault</title>
<path fill="none" stroke="#707070" d="M683.12,-328C691.79,-328 700.39,-328 708.77,-328"/>
<polygon fill="#707070" stroke="#707070" points="708.89,-331.5 718.89,-328 708.89,-324.5 708.89,-331.5"/>
</g>
<!-- BackupVaultPolicy::my&#45;vault -->
<g id="node5" class="node">
<title>BackupVaultPolicy::my&#45;vault</title>
<polygon fill="#e5e5e5" stroke="#dddddd" points="635.5,-281 399.5,-281 399.5,-223 635.5,-223 635.5,-281"/>
<text text-anchor="start" x="411.5" y="-261.2" font-family="Helvetica,sans-Serif" font-weight="bold" font-size="16.00" fill="#707070">Backup::BackupVaultPolicy</text>
<text text-anchor="start" x="411.5" y="-236.2" font-family="Helvetica,sans-Serif" font-size="16.00" fill="#383838">my&#45;vault</text>
</g>
<!-- BackupVaultPolicy::my&#45;vault&#45;&gt;BackupVault::my&#45;vault -->
<g id="edge5" class="edge">
<title>BackupVaultPolicy::my&#45;vault&#45;&gt;BackupVault::my&#45;vault</title>
<path fill="none" stroke="#707070" d="M635.53,-278.15C651.52,-281.98 667.69,-285.99 683,-290 691.57,-292.25 700.44,-294.66 709.32,-297.14"/>
<polygon fill="#707070" stroke="#707070" points="708.39,-300.51 718.96,-299.85 710.28,-293.77 708.39,-300.51"/>
</g>
<!-- Framework::myframework -->
<g id="node6" class="node">
<title>Framework::myframework</title>
<polygon fill="#e5e5e5" stroke="#dddddd" points="606.5,-129 428.5,-129 428.5,-71 606.5,-71 606.5,-129"/>
<text text-anchor="start" x="440.5" y="-109.2" font-family="Helvetica,sans-Serif" font-weight="bold" font-size="16.00" fill="#707070">Backup::Framework</text>
<text text-anchor="start" x="440.5" y="-84.2" font-family="Helvetica,sans-Serif" font-size="16.00" fill="#383838">myframework</text>
</g>
<!-- GlobalSettings::global -->
<g id="node7" class="node">
<title>GlobalSettings::global</title>
<polygon fill="#e5e5e5" stroke="#dddddd" points="273,-395 67,-395 67,-337 273,-337 273,-395"/>
<text text-anchor="start" x="79" y="-375.2" font-family="Helvetica,sans-Serif" font-weight="bold" font-size="16.00" fill="#707070">Backup::GlobalSettings</text>
<text text-anchor="start" x="79" y="-350.2" font-family="Helvetica,sans-Serif" font-size="16.00" fill="#383838">global</text>
</g>
<!-- ReportPlan::backup_jobs_report_27_10_2022 -->
<g id="node8" class="node">
<title>ReportPlan::backup_jobs_report_27_10_2022</title>
<polygon fill="#e5e5e5" stroke="#dddddd" points="303,-281 37,-281 37,-223 303,-223 303,-281"/>
<text text-anchor="start" x="49" y="-261.2" font-family="Helvetica,sans-Serif" font-weight="bold" font-size="16.00" fill="#707070">Backup::ReportPlan</text>
<text text-anchor="start" x="49" y="-236.2" font-family="Helvetica,sans-Serif" font-size="16.00" fill="#383838">backup_jobs_report_27_10_2022</text>
</g>
<!-- Bucket::gc&#45;backup&#45;reportplan&#45;jobs -->
<g id="node12" class="node">
<title>Bucket::gc&#45;backup&#45;reportplan&#45;jobs</title>
<polygon fill="#e5e5e5" stroke="#dddddd" points="624,-205 411,-205 411,-147 624,-147 624,-205"/>
<text text-anchor="start" x="423.5" y="-185.2" font-family="Helvetica,sans-Serif" font-weight="bold" font-size="16.00" fill="#707070">S3::Bucket</text>
<text text-anchor="start" x="423.5" y="-160.2" font-family="Helvetica,sans-Serif" font-size="16.00" fill="#383838">gc&#45;backup&#45;reportplan&#45;jobs</text>
</g>
<!-- ReportPlan::backup_jobs_report_27_10_2022&#45;&gt;Bucket::gc&#45;backup&#45;reportplan&#45;jobs -->
<g id="edge6" class="edge">
<title>ReportPlan::backup_jobs_report_27_10_2022&#45;&gt;Bucket::gc&#45;backup&#45;reportplan&#45;jobs</title>
<path fill="none" stroke="#707070" d="M303.1,-222.94C335.24,-215.87 369.38,-208.36 400.7,-201.47"/>
<polygon fill="#707070" stroke="#707070" points="401.75,-204.83 410.77,-199.26 400.25,-197.99 401.75,-204.83"/>
</g>
<!-- ReportPlan::control_compliance_report_27_10_2022 -->
<g id="node9" class="node">
<title>ReportPlan::control_compliance_report_27_10_2022</title>
<polygon fill="#e5e5e5" stroke="#dddddd" points="316,-205 24,-205 24,-147 316,-147 316,-205"/>
<text text-anchor="start" x="36" y="-185.2" font-family="Helvetica,sans-Serif" font-weight="bold" font-size="16.00" fill="#707070">Backup::ReportPlan</text>
<text text-anchor="start" x="36" y="-160.2" font-family="Helvetica,sans-Serif" font-size="16.00" fill="#383838">control_compliance_report_27_10_...</text>
</g>
<!-- ReportPlan::control_compliance_report_27_10_2022&#45;&gt;Framework::myframework -->
<g id="edge8" class="edge">
<title>ReportPlan::control_compliance_report_27_10_2022&#45;&gt;Framework::myframework</title>
<path fill="none" stroke="#707070" d="M303.1,-146.94C341.41,-138.52 382.54,-129.47 418.37,-121.58"/>
<polygon fill="#707070" stroke="#707070" points="419.32,-124.96 428.33,-119.39 417.82,-118.12 419.32,-124.96"/>
</g>
<!-- ReportPlan::control_compliance_report_27_10_2022&#45;&gt;Bucket::gc&#45;backup&#45;reportplan&#45;jobs -->
<g id="edge7" class="edge">
<title>ReportPlan::control_compliance_report_27_10_2022&#45;&gt;Bucket::gc&#45;backup&#45;reportplan&#45;jobs</title>
<path fill="none" stroke="#707070" d="M316.02,-176C344.27,-176 373.53,-176 400.68,-176"/>
<polygon fill="#707070" stroke="#707070" points="400.98,-179.5 410.98,-176 400.98,-172.5 400.98,-179.5"/>
</g>
<!-- Bucket::config&#45;bucket&#45;840541460064 -->
<g id="node11" class="node">
<title>Bucket::config&#45;bucket&#45;840541460064</title>
<polygon fill="#e5e5e5" stroke="#dddddd" points="287.5,-129 52.5,-129 52.5,-71 287.5,-71 287.5,-129"/>
<text text-anchor="start" x="65" y="-109.2" font-family="Helvetica,sans-Serif" font-weight="bold" font-size="16.00" fill="#707070">S3::Bucket</text>
<text text-anchor="start" x="65" y="-84.2" font-family="Helvetica,sans-Serif" font-size="16.00" fill="#383838">config&#45;bucket&#45;840541460064</text>
</g>
</g>
</svg>
