<?xml version="1.0" encoding="UTF-8" standalone="no"?>
<!DOCTYPE svg PUBLIC "-//W3C//DTD SVG 1.1//EN"
 "http://www.w3.org/Graphics/SVG/1.1/DTD/svg11.dtd">
<!-- Generated by graphviz version 8.0.3 (20230416.2022)
 -->
<!-- Title: graphname Pages: 1 -->
<svg width="499pt" height="237pt"
 viewBox="0.00 0.00 499.00 237.00" xmlns="http://www.w3.org/2000/svg" xmlns:xlink="http://www.w3.org/1999/xlink">
<g id="graph0" class="graph" transform="scale(1 1) rotate(0) translate(4 233)">
<title>graphname</title>
<polygon fill="#fafafa" stroke="none" points="-4,4 -4,-233 495,-233 495,4 -4,4"/>
<text text-anchor="start" x="123" y="-204.4" font-family="Helvetica,sans-Serif" font-weight="bold" font-size="22.00" fill="#383838">Project kms&#45;replica&#45;key</text>
<text text-anchor="start" x="241.5" y="-188.8" font-family="Helvetica,sans-Serif" font-size="14.00"> &#160;</text>
<text text-anchor="start" x="123" y="-167.2" font-family="Helvetica,sans-Serif" font-weight="bold" font-size="16.00" fill="#707070">Target Diagram</text>
<g id="clust1" class="cluster">
<title>cluster_aws&#45;primary</title>
<polygon fill="#f5f5f5" stroke="#f5f5f5" points="263,-8 263,-145 491,-145 491,-8 263,-8"/>
<text text-anchor="start" x="275" y="-23" font-family="Helvetica,sans-Serif" font-weight="bold" font-size="20.00" fill="#707070">Provider aws&#45;primary</text>
</g>
<g id="clust2" class="cluster">
<title>cluster_aws&#45;primary_</title>
<polygon fill="#eeeeee" stroke="#eeeeee" points="280,-54 280,-137 474,-137 474,-54 280,-54"/>
<text text-anchor="start" x="376.86" y="-58.3" font-family="Helvetica,sans-Serif" font-size="1.00" fill="#383838"> </text>
</g>
<g id="clust3" class="cluster">
<title>cluster_aws&#45;secondary</title>
<polygon fill="#f5f5f5" stroke="#f5f5f5" points="0,-8 0,-145 255,-145 255,-8 0,-8"/>
<text text-anchor="start" x="12" y="-23" font-family="Helvetica,sans-Serif" font-weight="bold" font-size="20.00" fill="#707070">Provider aws&#45;secondary</text>
</g>
<g id="clust4" class="cluster">
<title>cluster_aws&#45;secondary_</title>
<polygon fill="#eeeeee" stroke="#eeeeee" points="30,-54 30,-137 224,-137 224,-54 30,-54"/>
<text text-anchor="start" x="126.86" y="-58.3" font-family="Helvetica,sans-Serif" font-size="1.00" fill="#383838"> </text>
</g>
<!-- Key::alias/multi&#45;region&#45;key -->
<g id="node1" class="node">
<title>Key::alias/multi&#45;region&#45;key</title>
<polygon fill="#e5e5e5" stroke="#dddddd" points="466,-129 288,-129 288,-71 466,-71 466,-129"/>
<text text-anchor="start" x="300" y="-109.2" font-family="Helvetica,sans-Serif" font-weight="bold" font-size="16.00" fill="#707070">KMS::Key</text>
<text text-anchor="start" x="300" y="-84.2" font-family="Helvetica,sans-Serif" font-size="16.00" fill="#383838">alias/multi&#45;region&#45;key</text>
</g>
<!-- ReplicaKey::alias/multi&#45;region&#45;key -->
<g id="node2" class="node">
<title>ReplicaKey::alias/multi&#45;region&#45;key</title>
<polygon fill="#e5e5e5" stroke="#dddddd" points="216,-129 38,-129 38,-71 216,-71 216,-129"/>
<text text-anchor="start" x="50" y="-109.2" font-family="Helvetica,sans-Serif" font-weight="bold" font-size="16.00" fill="#707070">KMS::ReplicaKey</text>
<text text-anchor="start" x="50" y="-84.2" font-family="Helvetica,sans-Serif" font-size="16.00" fill="#383838">alias/multi&#45;region&#45;key</text>
</g>
<!-- ReplicaKey::alias/multi&#45;region&#45;key&#45;&gt;Key::alias/multi&#45;region&#45;key -->
<g id="edge1" class="edge">
<title>ReplicaKey::alias/multi&#45;region&#45;key&#45;&gt;Key::alias/multi&#45;region&#45;key</title>
<path fill="none" stroke="#707070" d="M216.48,-100C235.97,-100 256.73,-100 276.61,-100"/>
<polygon fill="#707070" stroke="#707070" points="276.55,-103.5 286.55,-100 276.55,-96.5 276.55,-103.5"/>
</g>
</g>
</svg>
