<?xml version="1.0" encoding="UTF-8" standalone="no"?>
<!DOCTYPE svg PUBLIC "-//W3C//DTD SVG 1.1//EN"
 "http://www.w3.org/Graphics/SVG/1.1/DTD/svg11.dtd">
<!-- Generated by graphviz version 6.0.0 (20220910.1538)
 -->
<!-- Title: graphname Pages: 1 -->
<svg width="1200pt" height="389pt"
 viewBox="0.00 0.00 1200.00 389.00" xmlns="http://www.w3.org/2000/svg" xmlns:xlink="http://www.w3.org/1999/xlink">
<g id="graph0" class="graph" transform="scale(1 1) rotate(0) translate(4 385)">
<title>graphname</title>
<polygon fill="#fafafa" stroke="none" points="-4,4 -4,-385 1196,-385 1196,4 -4,4"/>
<text text-anchor="start" x="429" y="-356.4" font-family="Helvetica,sans-Serif" font-weight="bold" font-size="22.00" fill="#383838">Project firehose&#45;delivery&#45;stream</text>
<text text-anchor="start" x="592" y="-340.8" font-family="Helvetica,sans-Serif" font-size="14.00"> &#160;</text>
<text text-anchor="start" x="429" y="-319.2" font-family="Helvetica,sans-Serif" font-weight="bold" font-size="16.00" fill="#707070">Target Diagram</text>
<g id="clust1" class="cluster">
<title>cluster_aws</title>
<polygon fill="#f5f5f5" stroke="#f5f5f5" points="8,-8 8,-297 1184,-297 1184,-8 8,-8"/>
<text text-anchor="start" x="534" y="-23" font-family="Helvetica,sans-Serif" font-weight="bold" font-size="20.00" fill="#707070">Provider aws</text>
</g>
<g id="clust2" class="cluster">
<title>cluster_aws_</title>
<polygon fill="#eeeeee" stroke="#eeeeee" points="16,-54 16,-289 1176,-289 1176,-54 16,-54"/>
<text text-anchor="start" x="595.86" y="-58.3" font-family="Helvetica,sans-Serif" font-size="1.00" fill="#383838"> </text>
</g>
<!-- LogGroup::/aws/kinesisfirehose/delivery&#45;stream&#45;s3 -->
<g id="node1" class="node">
<title>LogGroup::/aws/kinesisfirehose/delivery&#45;stream&#45;s3</title>
<polygon fill="#e5e5e5" stroke="#dddddd" points="1168,-281 906,-281 906,-223 1168,-223 1168,-281"/>
<text text-anchor="start" x="918" y="-261.2" font-family="Helvetica,sans-Serif" font-weight="bold" font-size="16.00" fill="#707070">CloudWatchLogs::LogGroup</text>
<text text-anchor="start" x="918" y="-236.2" font-family="Helvetica,sans-Serif" font-size="16.00" fill="#383838">/aws/kinesisfirehose/delivery&#45;st...</text>
</g>
<!-- DeliveryStream::delivery&#45;stream&#45;s3 -->
<g id="node2" class="node">
<title>DeliveryStream::delivery&#45;stream&#45;s3</title>
<polygon fill="#e5e5e5" stroke="#dddddd" points="242,-281 24,-281 24,-223 242,-223 242,-281"/>
<text text-anchor="start" x="36" y="-261.2" font-family="Helvetica,sans-Serif" font-weight="bold" font-size="16.00" fill="#707070">Firehose::DeliveryStream</text>
<text text-anchor="start" x="36" y="-236.2" font-family="Helvetica,sans-Serif" font-size="16.00" fill="#383838">delivery&#45;stream&#45;s3</text>
</g>
<!-- Role::KinesisFirehoseServiceRole&#45;delivery&#45;stre&#45;us&#45;east&#45;1&#45;1667077117902 -->
<g id="node3" class="node">
<title>Role::KinesisFirehoseServiceRole&#45;delivery&#45;stre&#45;us&#45;east&#45;1&#45;1667077117902</title>
<polygon fill="#e5e5e5" stroke="#dddddd" points="556,-281 278,-281 278,-223 556,-223 556,-281"/>
<text text-anchor="start" x="290" y="-261.2" font-family="Helvetica,sans-Serif" font-weight="bold" font-size="16.00" fill="#707070">IAM::Role</text>
<text text-anchor="start" x="290" y="-236.2" font-family="Helvetica,sans-Serif" font-size="16.00" fill="#383838">KinesisFirehoseServiceRole&#45;deliv...</text>
</g>
<!-- DeliveryStream::delivery&#45;stream&#45;s3&#45;&gt;Role::KinesisFirehoseServiceRole&#45;delivery&#45;stre&#45;us&#45;east&#45;1&#45;1667077117902 -->
<g id="edge1" class="edge">
<title>DeliveryStream::delivery&#45;stream&#45;s3&#45;&gt;Role::KinesisFirehoseServiceRole&#45;delivery&#45;stre&#45;us&#45;east&#45;1&#45;1667077117902</title>
<path fill="none" stroke="#707070" d="M242.22,-252C250.59,-252 259.13,-252 267.7,-252"/>
<polygon fill="#707070" stroke="#707070" points="267.78,-255.5 277.78,-252 267.78,-248.5 267.78,-255.5"/>
</g>
<!-- Policy::KinesisFirehoseServicePolicy&#45;delivery&#45;stream&#45;s3&#45;us&#45;east&#45;1 -->
<g id="node4" class="node">
<title>Policy::KinesisFirehoseServicePolicy&#45;delivery&#45;stream&#45;s3&#45;us&#45;east&#45;1</title>
<polygon fill="#e5e5e5" stroke="#dddddd" points="870,-281 592,-281 592,-223 870,-223 870,-281"/>
<text text-anchor="start" x="604" y="-261.2" font-family="Helvetica,sans-Serif" font-weight="bold" font-size="16.00" fill="#707070">IAM::Policy</text>
<text text-anchor="start" x="604" y="-236.2" font-family="Helvetica,sans-Serif" font-size="16.00" fill="#383838">KinesisFirehoseServicePolicy&#45;del...</text>
</g>
<!-- Role::KinesisFirehoseServiceRole&#45;delivery&#45;stre&#45;us&#45;east&#45;1&#45;1667077117902&#45;&gt;Policy::KinesisFirehoseServicePolicy&#45;delivery&#45;stream&#45;s3&#45;us&#45;east&#45;1 -->
<g id="edge2" class="edge">
<title>Role::KinesisFirehoseServiceRole&#45;delivery&#45;stre&#45;us&#45;east&#45;1&#45;1667077117902&#45;&gt;Policy::KinesisFirehoseServicePolicy&#45;delivery&#45;stream&#45;s3&#45;us&#45;east&#45;1</title>
<path fill="none" stroke="#707070" d="M556.21,-252C564.55,-252 572.97,-252 581.35,-252"/>
<polygon fill="#707070" stroke="#707070" points="581.56,-255.5 591.56,-252 581.56,-248.5 581.56,-255.5"/>
</g>
<!-- Policy::KinesisFirehoseServicePolicy&#45;delivery&#45;stream&#45;s3&#45;us&#45;east&#45;1&#45;&gt;LogGroup::/aws/kinesisfirehose/delivery&#45;stream&#45;s3 -->
<g id="edge3" class="edge">
<title>Policy::KinesisFirehoseServicePolicy&#45;delivery&#45;stream&#45;s3&#45;us&#45;east&#45;1&#45;&gt;LogGroup::/aws/kinesisfirehose/delivery&#45;stream&#45;s3</title>
<path fill="none" stroke="#707070" d="M870.21,-252C878.58,-252 886.99,-252 895.37,-252"/>
<polygon fill="#707070" stroke="#707070" points="895.55,-255.5 905.55,-252 895.55,-248.5 895.55,-255.5"/>
</g>
<!-- Bucket::gc&#45;firehose&#45;destination -->
<g id="node5" class="node">
<title>Bucket::gc&#45;firehose&#45;destination</title>
<polygon fill="#e5e5e5" stroke="#dddddd" points="227.5,-205 38.5,-205 38.5,-147 227.5,-147 227.5,-205"/>
<text text-anchor="start" x="51" y="-185.2" font-family="Helvetica,sans-Serif" font-weight="bold" font-size="16.00" fill="#707070">S3::Bucket</text>
<text text-anchor="start" x="51" y="-160.2" font-family="Helvetica,sans-Serif" font-size="16.00" fill="#383838">gc&#45;firehose&#45;destination</text>
</g>
<!-- Bucket::gc&#45;firehose&#45;error -->
<g id="node6" class="node">
<title>Bucket::gc&#45;firehose&#45;error</title>
<polygon fill="#e5e5e5" stroke="#dddddd" points="205,-129 61,-129 61,-71 205,-71 205,-129"/>
<text text-anchor="start" x="73" y="-109.2" font-family="Helvetica,sans-Serif" font-weight="bold" font-size="16.00" fill="#707070">S3::Bucket</text>
<text text-anchor="start" x="73" y="-84.2" font-family="Helvetica,sans-Serif" font-size="16.00" fill="#383838">gc&#45;firehose&#45;error</text>
</g>
</g>
</svg>
