<?xml version="1.0" encoding="UTF-8" standalone="no"?><svg xmlns="http://www.w3.org/2000/svg" xmlns:xlink="http://www.w3.org/1999/xlink" contentStyleType="text/css" height="228px" preserveAspectRatio="none" style="width:514px;height:228px;background:#FFFFFF;" version="1.1" viewBox="0 0 514 228" width="514px" zoomAndPan="magnify"><defs/><g><rect height="26.4883" style="stroke:#00000000;stroke-width:1.0;fill:none;" width="324" x="68.5" y="15"/><text fill="#000000" font-family="sans-serif" font-size="14" font-weight="bold" lengthAdjust="spacing" textLength="314" x="73.5" y="33.5352">Resources for project mediaconvert-simple</text><rect fill="#F1F1F1" height="36.4883" rx="12.5" ry="12.5" style="stroke:#181818;stroke-width:1.5;" width="52" x="10" y="113.9766"/><text fill="#000000" font-family="sans-serif" font-size="14" lengthAdjust="spacing" textLength="32" x="20" y="137.5117">Infra</text><rect fill="#F1F1F1" height="36.4883" rx="12.5" ry="12.5" style="stroke:#181818;stroke-width:1.5;" width="46" x="112" y="113.9766"/><text fill="#000000" font-family="sans-serif" font-size="14" lengthAdjust="spacing" textLength="26" x="122" y="137.5117">aws</text><rect fill="#F1F1F1" height="36.4883" rx="12.5" ry="12.5" style="stroke:#181818;stroke-width:1.5;" width="115" x="208" y="113.9766"/><text fill="#000000" font-family="sans-serif" font-size="14" lengthAdjust="spacing" textLength="95" x="218" y="137.5117">MediaConvert</text><rect fill="#F1F1F1" height="36.4883" rx="12.5" ry="12.5" style="stroke:#181818;stroke-width:1.5;" width="129" x="373" y="57.4883"/><text fill="#000000" font-family="sans-serif" font-size="14" lengthAdjust="spacing" textLength="109" x="383" y="81.0234">JobTemplate (1)</text><path d="M323,132.2207 L333,132.2207 C348,132.2207 348,75.7324 363,75.7324 L373,75.7324 " fill="none" style="stroke:#181818;stroke-width:1.0;"/><rect fill="#F1F1F1" height="36.4883" rx="12.5" ry="12.5" style="stroke:#181818;stroke-width:1.5;" width="85" x="373" y="113.9766"/><text fill="#000000" font-family="sans-serif" font-size="14" lengthAdjust="spacing" textLength="65" x="383" y="137.5117">Preset (1)</text><path d="M323,132.2207 L333,132.2207 C348,132.2207 348,132.2207 363,132.2207 L373,132.2207 " fill="none" style="stroke:#181818;stroke-width:1.0;"/><rect fill="#F1F1F1" height="36.4883" rx="12.5" ry="12.5" style="stroke:#181818;stroke-width:1.5;" width="88" x="373" y="170.4648"/><text fill="#000000" font-family="sans-serif" font-size="14" lengthAdjust="spacing" textLength="68" x="383" y="194">Queue (1)</text><path d="M323,132.2207 L333,132.2207 C348,132.2207 348,188.709 363,188.709 L373,188.709 " fill="none" style="stroke:#181818;stroke-width:1.0;"/><path d="M158,132.2207 L168,132.2207 C183,132.2207 183,132.2207 198,132.2207 L208,132.2207 " fill="none" style="stroke:#181818;stroke-width:1.0;"/><path d="M62,132.2207 L72,132.2207 C87,132.2207 87,132.2207 102,132.2207 L112,132.2207 " fill="none" style="stroke:#181818;stroke-width:1.0;"/><!--MD5=[a438e5162cddb811c36961f88545127c]
@startmindmap
title Resources for project mediaconvert-simple
skinparam monochrome true
+ Infra
++ aws
+++ MediaConvert
++++ JobTemplate (1)
++++ Preset (1)
++++ Queue (1)
@endmindmap

PlantUML version 1.2022.6(Tue Jun 21 12:34:49 COT 2022)
(GPL source distribution)
Java Runtime: Java(TM) SE Runtime Environment
JVM: Java HotSpot(TM) 64-Bit Server VM
Default Encoding: UTF-8
Language: en
Country: GB
--></g></svg>