<?xml version="1.0" encoding="UTF-8" standalone="no"?>
<!DOCTYPE svg PUBLIC "-//W3C//DTD SVG 1.1//EN"
 "http://www.w3.org/Graphics/SVG/1.1/DTD/svg11.dtd">
<!-- Generated by graphviz version 2.44.1 (20200629.0846)
 -->
<!-- Title: graphname Pages: 1 -->
<svg width="1380pt" height="469pt"
 viewBox="0.00 0.00 1380.00 469.00" xmlns="http://www.w3.org/2000/svg" xmlns:xlink="http://www.w3.org/1999/xlink">
<g id="graph0" class="graph" transform="scale(1 1) rotate(0) translate(4 465)">
<title>graphname</title>
<polygon fill="#fafafa" stroke="transparent" points="-4,4 -4,-465 1376,-465 1376,4 -4,4"/>
<text text-anchor="start" x="601" y="-436.4" font-family="Helvetica,sans-Serif" font-weight="bold" font-size="22.00" fill="#383838">Project vm&#45;vault</text>
<text text-anchor="start" x="682.5" y="-420.8" font-family="Helvetica,sans-Serif" font-size="14.00"> &#160;</text>
<text text-anchor="start" x="601" y="-399.2" font-family="Helvetica,sans-Serif" font-weight="bold" font-size="16.00" fill="#707070">Live Diagram</text>
<g id="clust1" class="cluster">
<title>cluster_azure</title>
<polygon fill="#f5f5f5" stroke="#f5f5f5" points="8,-8 8,-377 1364,-377 1364,-8 8,-8"/>
<text text-anchor="start" x="617" y="-23" font-family="Helvetica,sans-Serif" font-weight="bold" font-size="20.00" fill="#707070">Provider azure</text>
</g>
<g id="clust2" class="cluster">
<title>cluster_azure_</title>
<polygon fill="#eeeeee" stroke="#eeeeee" points="16,-54 16,-369 1356,-369 1356,-54 16,-54"/>
<text text-anchor="start" x="685.86" y="-58.3" font-family="Helvetica,sans-Serif" font-size="1.00" fill="#383838"> </text>
</g>
<!-- SshPublicKey::::keypair&#45;vm&#45;vault -->
<g id="node1" class="node">
<title>SshPublicKey::::keypair&#45;vm&#45;vault</title>
<polygon fill="#e5e5e5" stroke="#dddddd" points="1043.5,-129 832.5,-129 832.5,-71 1043.5,-71 1043.5,-129"/>
<text text-anchor="start" x="845" y="-109.2" font-family="Helvetica,sans-Serif" font-weight="bold" font-size="16.00" fill="#707070">Compute::SshPublicKey</text>
<text text-anchor="start" x="845" y="-84.2" font-family="Helvetica,sans-Serif" font-size="16.00" fill="#383838">keypair&#45;vm&#45;vault</text>
</g>
<!-- ResourceGroup::::rg&#45;vm&#45;vault -->
<g id="node8" class="node">
<title>ResourceGroup::::rg&#45;vm&#45;vault</title>
<polygon fill="#e5e5e5" stroke="#dddddd" points="1348,-273 1110,-273 1110,-215 1348,-215 1348,-273"/>
<text text-anchor="start" x="1122" y="-253.2" font-family="Helvetica,sans-Serif" font-weight="bold" font-size="16.00" fill="#707070">Resources::ResourceGroup</text>
<text text-anchor="start" x="1122" y="-228.2" font-family="Helvetica,sans-Serif" font-size="16.00" fill="#383838">rg&#45;vm&#45;vault</text>
</g>
<!-- SshPublicKey::::keypair&#45;vm&#45;vault&#45;&gt;ResourceGroup::::rg&#45;vm&#45;vault -->
<g id="edge1" class="edge">
<title>SshPublicKey::::keypair&#45;vm&#45;vault&#45;&gt;ResourceGroup::::rg&#45;vm&#45;vault</title>
<path fill="none" stroke="#707070" d="M1040.79,-129.11C1052.17,-133.34 1063.45,-137.98 1074,-143 1112.23,-161.2 1152.12,-187.6 1181.72,-208.84"/>
<polygon fill="#707070" stroke="#707070" points="1180.02,-211.94 1190.17,-214.97 1184.13,-206.27 1180.02,-211.94"/>
</g>
<!-- VirtualMachine::::vm&#45;vault -->
<g id="node2" class="node">
<title>VirtualMachine::::vm&#45;vault</title>
<polygon fill="#e5e5e5" stroke="#dddddd" points="242,-273 24,-273 24,-215 242,-215 242,-273"/>
<text text-anchor="start" x="36" y="-253.2" font-family="Helvetica,sans-Serif" font-weight="bold" font-size="16.00" fill="#707070">Compute::VirtualMachine</text>
<text text-anchor="start" x="36" y="-228.2" font-family="Helvetica,sans-Serif" font-size="16.00" fill="#383838">vm&#45;vault</text>
</g>
<!-- VirtualMachine::::vm&#45;vault&#45;&gt;SshPublicKey::::keypair&#45;vm&#45;vault -->
<g id="edge4" class="edge">
<title>VirtualMachine::::vm&#45;vault&#45;&gt;SshPublicKey::::keypair&#45;vm&#45;vault</title>
<path fill="none" stroke="#707070" d="M242.1,-215.4C254.21,-212.22 266.37,-209.03 278,-206 395.24,-175.43 422.67,-158.98 542,-138 635.7,-121.53 743.25,-111.77 822.44,-106.28"/>
<polygon fill="#707070" stroke="#707070" points="822.71,-109.77 832.44,-105.59 822.23,-102.78 822.71,-109.77"/>
</g>
<!-- NetworkInterface::::vm&#45;vault738 -->
<g id="node3" class="node">
<title>NetworkInterface::::vm&#45;vault738</title>
<polygon fill="#e5e5e5" stroke="#dddddd" points="506,-273 278,-273 278,-215 506,-215 506,-273"/>
<text text-anchor="start" x="290" y="-253.2" font-family="Helvetica,sans-Serif" font-weight="bold" font-size="16.00" fill="#707070">Network::NetworkInterface</text>
<text text-anchor="start" x="290" y="-228.2" font-family="Helvetica,sans-Serif" font-size="16.00" fill="#383838">vm&#45;vault738</text>
</g>
<!-- VirtualMachine::::vm&#45;vault&#45;&gt;NetworkInterface::::vm&#45;vault738 -->
<g id="edge3" class="edge">
<title>VirtualMachine::::vm&#45;vault&#45;&gt;NetworkInterface::::vm&#45;vault738</title>
<path fill="none" stroke="#707070" d="M242.25,-244C250.73,-244 259.33,-244 267.89,-244"/>
<polygon fill="#707070" stroke="#707070" points="267.93,-247.5 277.93,-244 267.93,-240.5 267.93,-247.5"/>
</g>
<!-- VirtualMachine::::vm&#45;vault&#45;&gt;ResourceGroup::::rg&#45;vm&#45;vault -->
<g id="edge2" class="edge">
<title>VirtualMachine::::vm&#45;vault&#45;&gt;ResourceGroup::::rg&#45;vm&#45;vault</title>
<path fill="none" stroke="#707070" d="M219.5,-273.07C301.2,-299.19 428.37,-335.6 542,-350 776.59,-379.73 847.89,-412.21 1074,-343 1115.95,-330.16 1157.43,-302.39 1186.75,-279.52"/>
<polygon fill="#707070" stroke="#707070" points="1189.04,-282.17 1194.69,-273.21 1184.68,-276.69 1189.04,-282.17"/>
</g>
<!-- NetworkSecurityGroup::::vm&#45;vault&#45;nsg -->
<g id="node4" class="node">
<title>NetworkSecurityGroup::::vm&#45;vault&#45;nsg</title>
<polygon fill="#e5e5e5" stroke="#dddddd" points="1074,-321 802,-321 802,-263 1074,-263 1074,-321"/>
<text text-anchor="start" x="814" y="-301.2" font-family="Helvetica,sans-Serif" font-weight="bold" font-size="16.00" fill="#707070">Network::NetworkSecurityGroup</text>
<text text-anchor="start" x="814" y="-276.2" font-family="Helvetica,sans-Serif" font-size="16.00" fill="#383838">vm&#45;vault&#45;nsg</text>
</g>
<!-- NetworkInterface::::vm&#45;vault738&#45;&gt;NetworkSecurityGroup::::vm&#45;vault&#45;nsg -->
<g id="edge8" class="edge">
<title>NetworkInterface::::vm&#45;vault738&#45;&gt;NetworkSecurityGroup::::vm&#45;vault&#45;nsg</title>
<path fill="none" stroke="#707070" d="M506.1,-252.37C580.09,-258.02 678.83,-265.91 766,-274 774.33,-274.77 782.89,-275.59 791.52,-276.44"/>
<polygon fill="#707070" stroke="#707070" points="791.39,-279.94 801.68,-277.45 792.08,-272.98 791.39,-279.94"/>
</g>
<!-- PublicIPAddress::::vm&#45;vault&#45;ip -->
<g id="node5" class="node">
<title>PublicIPAddress::::vm&#45;vault&#45;ip</title>
<polygon fill="#e5e5e5" stroke="#dddddd" points="766,-341 542,-341 542,-283 766,-283 766,-341"/>
<text text-anchor="start" x="554" y="-321.2" font-family="Helvetica,sans-Serif" font-weight="bold" font-size="16.00" fill="#707070">Network::PublicIPAddress</text>
<text text-anchor="start" x="554" y="-296.2" font-family="Helvetica,sans-Serif" font-size="16.00" fill="#383838">vm&#45;vault&#45;ip</text>
</g>
<!-- NetworkInterface::::vm&#45;vault738&#45;&gt;PublicIPAddress::::vm&#45;vault&#45;ip -->
<g id="edge7" class="edge">
<title>NetworkInterface::::vm&#45;vault738&#45;&gt;PublicIPAddress::::vm&#45;vault&#45;ip</title>
<path fill="none" stroke="#707070" d="M504.02,-273.04C513.34,-275.47 522.79,-277.95 532.19,-280.4"/>
<polygon fill="#707070" stroke="#707070" points="531.38,-283.81 541.94,-282.95 533.15,-277.04 531.38,-283.81"/>
</g>
<!-- Subnet::::default -->
<g id="node6" class="node">
<title>Subnet::::default</title>
<polygon fill="#e5e5e5" stroke="#dddddd" points="730,-205 578,-205 578,-147 730,-147 730,-205"/>
<text text-anchor="start" x="590" y="-185.2" font-family="Helvetica,sans-Serif" font-weight="bold" font-size="16.00" fill="#707070">Network::Subnet</text>
<text text-anchor="start" x="590" y="-160.2" font-family="Helvetica,sans-Serif" font-size="16.00" fill="#383838">default</text>
</g>
<!-- NetworkInterface::::vm&#45;vault738&#45;&gt;Subnet::::default -->
<g id="edge9" class="edge">
<title>NetworkInterface::::vm&#45;vault738&#45;&gt;Subnet::::default</title>
<path fill="none" stroke="#707070" d="M504.02,-214.96C525.37,-209.38 547.42,-203.61 567.79,-198.29"/>
<polygon fill="#707070" stroke="#707070" points="568.86,-201.62 577.65,-195.71 567.09,-194.85 568.86,-201.62"/>
</g>
<!-- VirtualNetwork::::rg&#45;vm&#45;vault&#45;vnet -->
<g id="node7" class="node">
<title>VirtualNetwork::::rg&#45;vm&#45;vault&#45;vnet</title>
<polygon fill="#e5e5e5" stroke="#dddddd" points="1043.5,-225 832.5,-225 832.5,-167 1043.5,-167 1043.5,-225"/>
<text text-anchor="start" x="845" y="-205.2" font-family="Helvetica,sans-Serif" font-weight="bold" font-size="16.00" fill="#707070">Network::VirtualNetwork</text>
<text text-anchor="start" x="845" y="-180.2" font-family="Helvetica,sans-Serif" font-size="16.00" fill="#383838">rg&#45;vm&#45;vault&#45;vnet</text>
</g>
<!-- NetworkInterface::::vm&#45;vault738&#45;&gt;VirtualNetwork::::rg&#45;vm&#45;vault&#45;vnet -->
<g id="edge6" class="edge">
<title>NetworkInterface::::vm&#45;vault738&#45;&gt;VirtualNetwork::::rg&#45;vm&#45;vault&#45;vnet</title>
<path fill="none" stroke="#707070" d="M506.1,-235.63C580.09,-229.98 678.83,-222.09 766,-214 784.14,-212.32 803.35,-210.41 822.09,-208.49"/>
<polygon fill="#707070" stroke="#707070" points="822.55,-211.96 832.14,-207.45 821.83,-205 822.55,-211.96"/>
</g>
<!-- NetworkInterface::::vm&#45;vault738&#45;&gt;ResourceGroup::::rg&#45;vm&#45;vault -->
<g id="edge5" class="edge">
<title>NetworkInterface::::vm&#45;vault738&#45;&gt;ResourceGroup::::rg&#45;vm&#45;vault</title>
<path fill="none" stroke="#707070" d="M506.05,-244C660.75,-244 937.67,-244 1099.88,-244"/>
<polygon fill="#707070" stroke="#707070" points="1099.92,-247.5 1109.92,-244 1099.92,-240.5 1099.92,-247.5"/>
</g>
<!-- NetworkSecurityGroup::::vm&#45;vault&#45;nsg&#45;&gt;ResourceGroup::::rg&#45;vm&#45;vault -->
<g id="edge10" class="edge">
<title>NetworkSecurityGroup::::vm&#45;vault&#45;nsg&#45;&gt;ResourceGroup::::rg&#45;vm&#45;vault</title>
<path fill="none" stroke="#707070" d="M1074.19,-269.55C1082.74,-268.13 1091.34,-266.7 1099.86,-265.28"/>
<polygon fill="#707070" stroke="#707070" points="1100.53,-268.72 1109.82,-263.63 1099.38,-261.81 1100.53,-268.72"/>
</g>
<!-- PublicIPAddress::::vm&#45;vault&#45;ip&#45;&gt;ResourceGroup::::rg&#45;vm&#45;vault -->
<g id="edge11" class="edge">
<title>PublicIPAddress::::vm&#45;vault&#45;ip&#45;&gt;ResourceGroup::::rg&#45;vm&#45;vault</title>
<path fill="none" stroke="#707070" d="M766.27,-334.35C851.81,-347.35 972.18,-356.5 1074,-330 1112.57,-319.96 1151.73,-297.9 1180.91,-278.64"/>
<polygon fill="#707070" stroke="#707070" points="1182.9,-281.51 1189.24,-273.03 1178.99,-275.7 1182.9,-281.51"/>
</g>
<!-- Subnet::::default&#45;&gt;VirtualNetwork::::rg&#45;vm&#45;vault&#45;vnet -->
<g id="edge13" class="edge">
<title>Subnet::::default&#45;&gt;VirtualNetwork::::rg&#45;vm&#45;vault&#45;vnet</title>
<path fill="none" stroke="#707070" d="M730.2,-181.33C758.47,-183.34 791.28,-185.67 822.33,-187.87"/>
<polygon fill="#707070" stroke="#707070" points="822.12,-191.36 832.34,-188.58 822.62,-184.38 822.12,-191.36"/>
</g>
<!-- Subnet::::default&#45;&gt;ResourceGroup::::rg&#45;vm&#45;vault -->
<g id="edge12" class="edge">
<title>Subnet::::default&#45;&gt;ResourceGroup::::rg&#45;vm&#45;vault</title>
<path fill="none" stroke="#707070" d="M730.19,-159.67C815.15,-144.21 956.86,-127.51 1074,-158 1112.57,-168.04 1151.73,-190.1 1180.91,-209.36"/>
<polygon fill="#707070" stroke="#707070" points="1178.99,-212.3 1189.24,-214.97 1182.9,-206.49 1178.99,-212.3"/>
</g>
<!-- VirtualNetwork::::rg&#45;vm&#45;vault&#45;vnet&#45;&gt;ResourceGroup::::rg&#45;vm&#45;vault -->
<g id="edge14" class="edge">
<title>VirtualNetwork::::rg&#45;vm&#45;vault&#45;vnet&#45;&gt;ResourceGroup::::rg&#45;vm&#45;vault</title>
<path fill="none" stroke="#707070" d="M1043.74,-213.4C1061.96,-216.42 1081.08,-219.6 1099.83,-222.71"/>
<polygon fill="#707070" stroke="#707070" points="1099.46,-226.2 1109.9,-224.39 1100.61,-219.29 1099.46,-226.2"/>
</g>
</g>
</svg>
