<?xml version="1.0" encoding="UTF-8" standalone="no"?>
<!DOCTYPE svg PUBLIC "-//W3C//DTD SVG 1.1//EN"
 "http://www.w3.org/Graphics/SVG/1.1/DTD/svg11.dtd">
<!-- Generated by graphviz version 8.0.3 (20230416.2022)
 -->
<!-- Title: graphname Pages: 1 -->
<svg width="1668pt" height="753pt"
 viewBox="0.00 0.00 1668.00 753.00" xmlns="http://www.w3.org/2000/svg" xmlns:xlink="http://www.w3.org/1999/xlink">
<g id="graph0" class="graph" transform="scale(1 1) rotate(0) translate(4 749)">
<title>graphname</title>
<polygon fill="#fafafa" stroke="none" points="-4,4 -4,-749 1664,-749 1664,4 -4,4"/>
<text text-anchor="start" x="673" y="-720.4" font-family="Helvetica,sans-Serif" font-weight="bold" font-size="22.00" fill="#383838">Project verified&#45;access&#45;simple</text>
<text text-anchor="start" x="826" y="-704.8" font-family="Helvetica,sans-Serif" font-size="14.00"> &#160;</text>
<text text-anchor="start" x="673" y="-683.2" font-family="Helvetica,sans-Serif" font-weight="bold" font-size="16.00" fill="#707070">Target Diagram</text>
<g id="clust1" class="cluster">
<title>cluster_aws</title>
<polygon fill="#f5f5f5" stroke="#f5f5f5" points="8,-8 8,-661 1652,-661 1652,-8 8,-8"/>
<text text-anchor="start" x="768" y="-23" font-family="Helvetica,sans-Serif" font-weight="bold" font-size="20.00" fill="#707070">Provider aws</text>
</g>
<g id="clust2" class="cluster">
<title>cluster_aws_</title>
<polygon fill="#eeeeee" stroke="#eeeeee" points="16,-54 16,-653 1644,-653 1644,-54 16,-54"/>
<text text-anchor="start" x="829.86" y="-58.3" font-family="Helvetica,sans-Serif" font-size="1.00" fill="#383838"> </text>
</g>
<!-- Certificate::grucloud.org -->
<g id="node1" class="node">
<title>Certificate::grucloud.org</title>
<polygon fill="#e5e5e5" stroke="#dddddd" points="910,-417 761,-417 761,-359 910,-359 910,-417"/>
<text text-anchor="start" x="773" y="-397.2" font-family="Helvetica,sans-Serif" font-weight="bold" font-size="16.00" fill="#707070">ACM::Certificate</text>
<text text-anchor="start" x="773" y="-372.2" font-family="Helvetica,sans-Serif" font-size="16.00" fill="#383838">grucloud.org</text>
</g>
<!-- RouteTable::my&#45;vpc&#45;vpc::my&#45;vpc&#45;rtb&#45;private -->
<g id="node2" class="node">
<title>RouteTable::my&#45;vpc&#45;vpc::my&#45;vpc&#45;rtb&#45;private</title>
<polygon fill="#e5e5e5" stroke="#dddddd" points="1299.5,-301 1052.5,-301 1052.5,-243 1299.5,-243 1299.5,-301"/>
<text text-anchor="start" x="1064.5" y="-281.2" font-family="Helvetica,sans-Serif" font-weight="bold" font-size="16.00" fill="#707070">EC2::RouteTable</text>
<text text-anchor="start" x="1064.5" y="-256.2" font-family="Helvetica,sans-Serif" font-size="16.00" fill="#383838">my&#45;vpc&#45;vpc::my&#45;vpc&#45;rtb&#45;private</text>
</g>
<!-- Vpc::my&#45;vpc&#45;vpc -->
<g id="node12" class="node">
<title>Vpc::my&#45;vpc&#45;vpc</title>
<polygon fill="#e5e5e5" stroke="#dddddd" points="1548.5,-377 1440.5,-377 1440.5,-319 1548.5,-319 1548.5,-377"/>
<text text-anchor="start" x="1452.5" y="-357.2" font-family="Helvetica,sans-Serif" font-weight="bold" font-size="16.00" fill="#707070">EC2::Vpc</text>
<text text-anchor="start" x="1452.5" y="-332.2" font-family="Helvetica,sans-Serif" font-size="16.00" fill="#383838">my&#45;vpc&#45;vpc</text>
</g>
<!-- RouteTable::my&#45;vpc&#45;vpc::my&#45;vpc&#45;rtb&#45;private&#45;&gt;Vpc::my&#45;vpc&#45;vpc -->
<g id="edge1" class="edge">
<title>RouteTable::my&#45;vpc&#45;vpc::my&#45;vpc&#45;rtb&#45;private&#45;&gt;Vpc::my&#45;vpc&#45;vpc</title>
<path fill="none" stroke="#707070" d="M1299.82,-301.49C1344.1,-312.13 1392.29,-323.7 1429.52,-332.64"/>
<polygon fill="#707070" stroke="#707070" points="1428.67,-336.27 1439.21,-335.2 1430.3,-329.46 1428.67,-336.27"/>
</g>
<!-- RouteTableAssociation::rt&#45;assoc::my&#45;vpc&#45;vpc::my&#45;vpc&#45;rtb&#45;private::my&#45;vpc&#45;vpc::my&#45;vpc&#45;subnet&#45;private1&#45;us&#45;east&#45;1a -->
<g id="node3" class="node">
<title>RouteTableAssociation::rt&#45;assoc::my&#45;vpc&#45;vpc::my&#45;vpc&#45;rtb&#45;private::my&#45;vpc&#45;vpc::my&#45;vpc&#45;subnet&#45;private1&#45;us&#45;east&#45;1a</title>
<polygon fill="#e5e5e5" stroke="#dddddd" points="972.5,-225 698.5,-225 698.5,-167 972.5,-167 972.5,-225"/>
<text text-anchor="start" x="710.5" y="-205.2" font-family="Helvetica,sans-Serif" font-weight="bold" font-size="16.00" fill="#707070">EC2::RouteTableAssociation</text>
<text text-anchor="start" x="710.5" y="-180.2" font-family="Helvetica,sans-Serif" font-size="16.00" fill="#383838">rt&#45;assoc::my&#45;vpc&#45;vpc::my&#45;vpc&#45;rtb...</text>
</g>
<!-- RouteTableAssociation::rt&#45;assoc::my&#45;vpc&#45;vpc::my&#45;vpc&#45;rtb&#45;private::my&#45;vpc&#45;vpc::my&#45;vpc&#45;subnet&#45;private1&#45;us&#45;east&#45;1a&#45;&gt;RouteTable::my&#45;vpc&#45;vpc::my&#45;vpc&#45;rtb&#45;private -->
<g id="edge2" class="edge">
<title>RouteTableAssociation::rt&#45;assoc::my&#45;vpc&#45;vpc::my&#45;vpc&#45;rtb&#45;private::my&#45;vpc&#45;vpc::my&#45;vpc&#45;subnet&#45;private1&#45;us&#45;east&#45;1a&#45;&gt;RouteTable::my&#45;vpc&#45;vpc::my&#45;vpc&#45;rtb&#45;private</title>
<path fill="none" stroke="#707070" d="M967.86,-225.49C991.98,-230.91 1017.18,-236.57 1041.37,-242"/>
<polygon fill="#707070" stroke="#707070" points="1040.51,-245.62 1051.03,-244.39 1042.04,-238.79 1040.51,-245.62"/>
</g>
<!-- Subnet::my&#45;vpc&#45;vpc::my&#45;vpc&#45;subnet&#45;private1&#45;us&#45;east&#45;1a -->
<g id="node6" class="node">
<title>Subnet::my&#45;vpc&#45;vpc::my&#45;vpc&#45;subnet&#45;private1&#45;us&#45;east&#45;1a</title>
<polygon fill="#e5e5e5" stroke="#dddddd" points="1317,-225 1035,-225 1035,-167 1317,-167 1317,-225"/>
<text text-anchor="start" x="1047" y="-205.2" font-family="Helvetica,sans-Serif" font-weight="bold" font-size="16.00" fill="#707070">EC2::Subnet</text>
<text text-anchor="start" x="1047" y="-180.2" font-family="Helvetica,sans-Serif" font-size="16.00" fill="#383838">my&#45;vpc&#45;vpc::my&#45;vpc&#45;subnet&#45;privat...</text>
</g>
<!-- RouteTableAssociation::rt&#45;assoc::my&#45;vpc&#45;vpc::my&#45;vpc&#45;rtb&#45;private::my&#45;vpc&#45;vpc::my&#45;vpc&#45;subnet&#45;private1&#45;us&#45;east&#45;1a&#45;&gt;Subnet::my&#45;vpc&#45;vpc::my&#45;vpc&#45;subnet&#45;private1&#45;us&#45;east&#45;1a -->
<g id="edge3" class="edge">
<title>RouteTableAssociation::rt&#45;assoc::my&#45;vpc&#45;vpc::my&#45;vpc&#45;rtb&#45;private::my&#45;vpc&#45;vpc::my&#45;vpc&#45;subnet&#45;private1&#45;us&#45;east&#45;1a&#45;&gt;Subnet::my&#45;vpc&#45;vpc::my&#45;vpc&#45;subnet&#45;private1&#45;us&#45;east&#45;1a</title>
<path fill="none" stroke="#707070" d="M972.72,-196C989.6,-196 1006.95,-196 1024.04,-196"/>
<polygon fill="#707070" stroke="#707070" points="1023.64,-199.5 1033.64,-196 1023.64,-192.5 1023.64,-199.5"/>
</g>
<!-- RouteTableAssociation::rt&#45;assoc::my&#45;vpc&#45;vpc::my&#45;vpc&#45;rtb&#45;private::my&#45;vpc&#45;vpc::my&#45;vpc&#45;subnet&#45;private2&#45;us&#45;east&#45;1b -->
<g id="node4" class="node">
<title>RouteTableAssociation::rt&#45;assoc::my&#45;vpc&#45;vpc::my&#45;vpc&#45;rtb&#45;private::my&#45;vpc&#45;vpc::my&#45;vpc&#45;subnet&#45;private2&#45;us&#45;east&#45;1b</title>
<polygon fill="#e5e5e5" stroke="#dddddd" points="972.5,-301 698.5,-301 698.5,-243 972.5,-243 972.5,-301"/>
<text text-anchor="start" x="710.5" y="-281.2" font-family="Helvetica,sans-Serif" font-weight="bold" font-size="16.00" fill="#707070">EC2::RouteTableAssociation</text>
<text text-anchor="start" x="710.5" y="-256.2" font-family="Helvetica,sans-Serif" font-size="16.00" fill="#383838">rt&#45;assoc::my&#45;vpc&#45;vpc::my&#45;vpc&#45;rtb...</text>
</g>
<!-- RouteTableAssociation::rt&#45;assoc::my&#45;vpc&#45;vpc::my&#45;vpc&#45;rtb&#45;private::my&#45;vpc&#45;vpc::my&#45;vpc&#45;subnet&#45;private2&#45;us&#45;east&#45;1b&#45;&gt;RouteTable::my&#45;vpc&#45;vpc::my&#45;vpc&#45;rtb&#45;private -->
<g id="edge4" class="edge">
<title>RouteTableAssociation::rt&#45;assoc::my&#45;vpc&#45;vpc::my&#45;vpc&#45;rtb&#45;private::my&#45;vpc&#45;vpc::my&#45;vpc&#45;subnet&#45;private2&#45;us&#45;east&#45;1b&#45;&gt;RouteTable::my&#45;vpc&#45;vpc::my&#45;vpc&#45;rtb&#45;private</title>
<path fill="none" stroke="#707070" d="M972.72,-272C995.29,-272 1018.69,-272 1041.2,-272"/>
<polygon fill="#707070" stroke="#707070" points="1041.18,-275.5 1051.18,-272 1041.18,-268.5 1041.18,-275.5"/>
</g>
<!-- Subnet::my&#45;vpc&#45;vpc::my&#45;vpc&#45;subnet&#45;private2&#45;us&#45;east&#45;1b -->
<g id="node7" class="node">
<title>Subnet::my&#45;vpc&#45;vpc::my&#45;vpc&#45;subnet&#45;private2&#45;us&#45;east&#45;1b</title>
<polygon fill="#e5e5e5" stroke="#dddddd" points="1317,-377 1035,-377 1035,-319 1317,-319 1317,-377"/>
<text text-anchor="start" x="1047" y="-357.2" font-family="Helvetica,sans-Serif" font-weight="bold" font-size="16.00" fill="#707070">EC2::Subnet</text>
<text text-anchor="start" x="1047" y="-332.2" font-family="Helvetica,sans-Serif" font-size="16.00" fill="#383838">my&#45;vpc&#45;vpc::my&#45;vpc&#45;subnet&#45;privat...</text>
</g>
<!-- RouteTableAssociation::rt&#45;assoc::my&#45;vpc&#45;vpc::my&#45;vpc&#45;rtb&#45;private::my&#45;vpc&#45;vpc::my&#45;vpc&#45;subnet&#45;private2&#45;us&#45;east&#45;1b&#45;&gt;Subnet::my&#45;vpc&#45;vpc::my&#45;vpc&#45;subnet&#45;private2&#45;us&#45;east&#45;1b -->
<g id="edge5" class="edge">
<title>RouteTableAssociation::rt&#45;assoc::my&#45;vpc&#45;vpc::my&#45;vpc&#45;rtb&#45;private::my&#45;vpc&#45;vpc::my&#45;vpc&#45;subnet&#45;private2&#45;us&#45;east&#45;1b&#45;&gt;Subnet::my&#45;vpc&#45;vpc::my&#45;vpc&#45;subnet&#45;private2&#45;us&#45;east&#45;1b</title>
<path fill="none" stroke="#707070" d="M967.86,-301.49C989.26,-306.3 1011.51,-311.29 1033.15,-316.15"/>
<polygon fill="#707070" stroke="#707070" points="1032.19,-319.75 1042.72,-318.52 1033.73,-312.92 1032.19,-319.75"/>
</g>
<!-- SecurityGroup::sg::my&#45;vpc&#45;vpc::default -->
<g id="node5" class="node">
<title>SecurityGroup::sg::my&#45;vpc&#45;vpc::default</title>
<polygon fill="#e5e5e5" stroke="#dddddd" points="1272,-453 1080,-453 1080,-395 1272,-395 1272,-453"/>
<text text-anchor="start" x="1092" y="-433.2" font-family="Helvetica,sans-Serif" font-weight="bold" font-size="16.00" fill="#707070">EC2::SecurityGroup</text>
<text text-anchor="start" x="1092" y="-408.2" font-family="Helvetica,sans-Serif" font-size="16.00" fill="#383838">sg::my&#45;vpc&#45;vpc::default</text>
</g>
<!-- SecurityGroup::sg::my&#45;vpc&#45;vpc::default&#45;&gt;Vpc::my&#45;vpc&#45;vpc -->
<g id="edge6" class="edge">
<title>SecurityGroup::sg::my&#45;vpc&#45;vpc::default&#45;&gt;Vpc::my&#45;vpc&#45;vpc</title>
<path fill="none" stroke="#707070" d="M1272.39,-401.09C1323.28,-388.87 1384.52,-374.17 1429.64,-363.33"/>
<polygon fill="#707070" stroke="#707070" points="1430.26,-366.55 1439.16,-360.81 1428.62,-359.74 1430.26,-366.55"/>
</g>
<!-- Subnet::my&#45;vpc&#45;vpc::my&#45;vpc&#45;subnet&#45;private1&#45;us&#45;east&#45;1a&#45;&gt;Vpc::my&#45;vpc&#45;vpc -->
<g id="edge7" class="edge">
<title>Subnet::my&#45;vpc&#45;vpc::my&#45;vpc&#45;subnet&#45;private1&#45;us&#45;east&#45;1a&#45;&gt;Vpc::my&#45;vpc&#45;vpc</title>
<path fill="none" stroke="#707070" d="M1295.91,-225.5C1303.13,-228.14 1310.21,-230.98 1317,-234 1363.8,-254.86 1412.37,-287.14 1446.69,-312.04"/>
<polygon fill="#707070" stroke="#707070" points="1444.4,-315.43 1454.53,-318.52 1448.54,-309.79 1444.4,-315.43"/>
</g>
<!-- Subnet::my&#45;vpc&#45;vpc::my&#45;vpc&#45;subnet&#45;private2&#45;us&#45;east&#45;1b&#45;&gt;Vpc::my&#45;vpc&#45;vpc -->
<g id="edge8" class="edge">
<title>Subnet::my&#45;vpc&#45;vpc::my&#45;vpc&#45;subnet&#45;private2&#45;us&#45;east&#45;1b&#45;&gt;Vpc::my&#45;vpc&#45;vpc</title>
<path fill="none" stroke="#707070" d="M1317.2,-348C1356.42,-348 1397.14,-348 1429.55,-348"/>
<polygon fill="#707070" stroke="#707070" points="1429.21,-351.5 1439.21,-348 1429.21,-344.5 1429.21,-351.5"/>
</g>
<!-- VerifiedAccessEndpoint::ava&#45;workshop&#45;hr&#45;endpoint -->
<g id="node8" class="node">
<title>VerifiedAccessEndpoint::ava&#45;workshop&#45;hr&#45;endpoint</title>
<polygon fill="#e5e5e5" stroke="#dddddd" points="619,-245 370,-245 370,-187 619,-187 619,-245"/>
<text text-anchor="start" x="382" y="-225.2" font-family="Helvetica,sans-Serif" font-weight="bold" font-size="16.00" fill="#707070">EC2::VerifiedAccessEndpoint</text>
<text text-anchor="start" x="382" y="-200.2" font-family="Helvetica,sans-Serif" font-size="16.00" fill="#383838">ava&#45;workshop&#45;hr&#45;endpoint</text>
</g>
<!-- VerifiedAccessEndpoint::ava&#45;workshop&#45;hr&#45;endpoint&#45;&gt;Certificate::grucloud.org -->
<g id="edge9" class="edge">
<title>VerifiedAccessEndpoint::ava&#45;workshop&#45;hr&#45;endpoint&#45;&gt;Certificate::grucloud.org</title>
<path fill="none" stroke="#707070" d="M619.43,-241.91C625.33,-245.45 630.91,-249.45 636,-254 668.44,-282.98 639.48,-316.11 672,-345 693.57,-364.16 722.72,-374.94 750.37,-380.95"/>
<polygon fill="#707070" stroke="#707070" points="749.39,-384.52 759.88,-383.02 750.75,-377.65 749.39,-384.52"/>
</g>
<!-- VerifiedAccessEndpoint::ava&#45;workshop&#45;hr&#45;endpoint&#45;&gt;SecurityGroup::sg::my&#45;vpc&#45;vpc::default -->
<g id="edge11" class="edge">
<title>VerifiedAccessEndpoint::ava&#45;workshop&#45;hr&#45;endpoint&#45;&gt;SecurityGroup::sg::my&#45;vpc&#45;vpc::default</title>
<path fill="none" stroke="#707070" d="M619.33,-242.61C625.22,-245.97 630.83,-249.75 636,-254 663.94,-276.98 641.97,-306.83 672,-327 732.47,-367.62 932.72,-319.78 999,-350 1019.59,-359.39 1015.42,-374.65 1035,-386 1045.72,-392.22 1057.5,-397.45 1069.53,-401.84"/>
<polygon fill="#707070" stroke="#707070" points="1068.08,-405.39 1078.67,-405.34 1070.36,-398.77 1068.08,-405.39"/>
</g>
<!-- VerifiedAccessEndpoint::ava&#45;workshop&#45;hr&#45;endpoint&#45;&gt;Subnet::my&#45;vpc&#45;vpc::my&#45;vpc&#45;subnet&#45;private1&#45;us&#45;east&#45;1a -->
<g id="edge12" class="edge">
<title>VerifiedAccessEndpoint::ava&#45;workshop&#45;hr&#45;endpoint&#45;&gt;Subnet::my&#45;vpc&#45;vpc::my&#45;vpc&#45;subnet&#45;private1&#45;us&#45;east&#45;1a</title>
<path fill="none" stroke="#707070" d="M567.63,-186.55C599.11,-175.21 636.81,-163.63 672,-158 815.51,-135.03 854.49,-142.58 999,-158 1013.77,-159.58 1029.13,-161.88 1044.34,-164.58"/>
<polygon fill="#707070" stroke="#707070" points="1043.37,-168.14 1053.84,-166.51 1044.64,-161.26 1043.37,-168.14"/>
</g>
<!-- VerifiedAccessEndpoint::ava&#45;workshop&#45;hr&#45;endpoint&#45;&gt;Subnet::my&#45;vpc&#45;vpc::my&#45;vpc&#45;subnet&#45;private2&#45;us&#45;east&#45;1b -->
<g id="edge13" class="edge">
<title>VerifiedAccessEndpoint::ava&#45;workshop&#45;hr&#45;endpoint&#45;&gt;Subnet::my&#45;vpc&#45;vpc::my&#45;vpc&#45;subnet&#45;private2&#45;us&#45;east&#45;1b</title>
<path fill="none" stroke="#707070" d="M619.45,-243.69C625.24,-246.77 630.8,-250.19 636,-254 659.88,-271.47 646.58,-294.85 672,-310 672.96,-310.57 876.22,-325.79 1024.03,-336.79"/>
<polygon fill="#707070" stroke="#707070" points="1023.34,-340.33 1033.57,-337.58 1023.86,-333.34 1023.34,-340.33"/>
</g>
<!-- VerifiedAccessGroup::ava&#45;workshop&#45;hr&#45;group -->
<g id="node9" class="node">
<title>VerifiedAccessGroup::ava&#45;workshop&#45;hr&#45;group</title>
<polygon fill="#e5e5e5" stroke="#dddddd" points="949.5,-129 721.5,-129 721.5,-71 949.5,-71 949.5,-129"/>
<text text-anchor="start" x="733.5" y="-109.2" font-family="Helvetica,sans-Serif" font-weight="bold" font-size="16.00" fill="#707070">EC2::VerifiedAccessGroup</text>
<text text-anchor="start" x="733.5" y="-84.2" font-family="Helvetica,sans-Serif" font-size="16.00" fill="#383838">ava&#45;workshop&#45;hr&#45;group</text>
</g>
<!-- VerifiedAccessEndpoint::ava&#45;workshop&#45;hr&#45;endpoint&#45;&gt;VerifiedAccessGroup::ava&#45;workshop&#45;hr&#45;group -->
<g id="edge14" class="edge">
<title>VerifiedAccessEndpoint::ava&#45;workshop&#45;hr&#45;endpoint&#45;&gt;VerifiedAccessGroup::ava&#45;workshop&#45;hr&#45;group</title>
<path fill="none" stroke="#707070" d="M560.5,-186.68C593.5,-172.42 634.45,-155.67 672,-143 684.44,-138.8 697.52,-134.75 710.64,-130.93"/>
<polygon fill="#707070" stroke="#707070" points="711.51,-134.04 720.15,-127.91 709.57,-127.31 711.51,-134.04"/>
</g>
<!-- LoadBalancer::my&#45;lb -->
<g id="node15" class="node">
<title>LoadBalancer::my&#45;lb</title>
<polygon fill="#e5e5e5" stroke="#dddddd" points="999,-493 672,-493 672,-435 999,-435 999,-493"/>
<text text-anchor="start" x="684" y="-473.2" font-family="Helvetica,sans-Serif" font-weight="bold" font-size="16.00" fill="#707070">ElasticLoadBalancingV2::LoadBalancer</text>
<text text-anchor="start" x="684" y="-448.2" font-family="Helvetica,sans-Serif" font-size="16.00" fill="#383838">my&#45;lb</text>
</g>
<!-- VerifiedAccessEndpoint::ava&#45;workshop&#45;hr&#45;endpoint&#45;&gt;LoadBalancer::my&#45;lb -->
<g id="edge10" class="edge">
<title>VerifiedAccessEndpoint::ava&#45;workshop&#45;hr&#45;endpoint&#45;&gt;LoadBalancer::my&#45;lb</title>
<path fill="none" stroke="#707070" d="M619.45,-240.28C625.47,-244.22 631.06,-248.76 636,-254 689.61,-310.8 617.42,-370.13 672,-426 672.47,-426.49 672.95,-426.97 673.44,-427.44"/>
<polygon fill="#707070" stroke="#707070" points="670.85,-430.7 680.68,-434.64 675.45,-425.43 670.85,-430.7"/>
</g>
<!-- VerifiedAccessInstance::ava&#45;workshop&#45;instance -->
<g id="node10" class="node">
<title>VerifiedAccessInstance::ava&#45;workshop&#45;instance</title>
<polygon fill="#e5e5e5" stroke="#dddddd" points="1298.5,-129 1053.5,-129 1053.5,-71 1298.5,-71 1298.5,-129"/>
<text text-anchor="start" x="1065.5" y="-109.2" font-family="Helvetica,sans-Serif" font-weight="bold" font-size="16.00" fill="#707070">EC2::VerifiedAccessInstance</text>
<text text-anchor="start" x="1065.5" y="-84.2" font-family="Helvetica,sans-Serif" font-size="16.00" fill="#383838">ava&#45;workshop&#45;instance</text>
</g>
<!-- VerifiedAccessGroup::ava&#45;workshop&#45;hr&#45;group&#45;&gt;VerifiedAccessInstance::ava&#45;workshop&#45;instance -->
<g id="edge15" class="edge">
<title>VerifiedAccessGroup::ava&#45;workshop&#45;hr&#45;group&#45;&gt;VerifiedAccessInstance::ava&#45;workshop&#45;instance</title>
<path fill="none" stroke="#707070" d="M949.69,-100C979.43,-100 1011.78,-100 1042.44,-100"/>
<polygon fill="#707070" stroke="#707070" points="1042.2,-103.5 1052.2,-100 1042.2,-96.5 1042.2,-103.5"/>
</g>
<!-- VerifiedAccessTrustProvider::identitycenter&#45;trust&#45;provider -->
<g id="node11" class="node">
<title>VerifiedAccessTrustProvider::identitycenter&#45;trust&#45;provider</title>
<polygon fill="#e5e5e5" stroke="#dddddd" points="1636,-129 1353,-129 1353,-71 1636,-71 1636,-129"/>
<text text-anchor="start" x="1365" y="-109.2" font-family="Helvetica,sans-Serif" font-weight="bold" font-size="16.00" fill="#707070">EC2::VerifiedAccessTrustProvider</text>
<text text-anchor="start" x="1365" y="-84.2" font-family="Helvetica,sans-Serif" font-size="16.00" fill="#383838">identitycenter&#45;trust&#45;provider</text>
</g>
<!-- VerifiedAccessInstance::ava&#45;workshop&#45;instance&#45;&gt;VerifiedAccessTrustProvider::identitycenter&#45;trust&#45;provider -->
<g id="edge16" class="edge">
<title>VerifiedAccessInstance::ava&#45;workshop&#45;instance&#45;&gt;VerifiedAccessTrustProvider::identitycenter&#45;trust&#45;provider</title>
<path fill="none" stroke="#707070" d="M1298.91,-100C1312.93,-100 1327.35,-100 1341.69,-100"/>
<polygon fill="#707070" stroke="#707070" points="1341.64,-103.5 1351.64,-100 1341.64,-96.5 1341.64,-103.5"/>
</g>
<!-- Listener::listener::my&#45;lb::HTTP::80 -->
<g id="node13" class="node">
<title>Listener::listener::my&#45;lb::HTTP::80</title>
<polygon fill="#e5e5e5" stroke="#dddddd" points="636,-473 353,-473 353,-415 636,-415 636,-473"/>
<text text-anchor="start" x="365" y="-453.2" font-family="Helvetica,sans-Serif" font-weight="bold" font-size="16.00" fill="#707070">ElasticLoadBalancingV2::Listener</text>
<text text-anchor="start" x="365" y="-428.2" font-family="Helvetica,sans-Serif" font-size="16.00" fill="#383838">listener::my&#45;lb::HTTP::80</text>
</g>
<!-- Listener::listener::my&#45;lb::HTTP::80&#45;&gt;LoadBalancer::my&#45;lb -->
<g id="edge17" class="edge">
<title>Listener::listener::my&#45;lb::HTTP::80&#45;&gt;LoadBalancer::my&#45;lb</title>
<path fill="none" stroke="#707070" d="M636.32,-452.31C644.42,-452.79 652.6,-453.27 660.8,-453.75"/>
<polygon fill="#707070" stroke="#707070" points="660.39,-457.29 670.58,-454.39 660.8,-450.31 660.39,-457.29"/>
</g>
<!-- TargetGroup::my&#45;tg -->
<g id="node16" class="node">
<title>TargetGroup::my&#45;tg</title>
<polygon fill="#e5e5e5" stroke="#dddddd" points="993.5,-569 677.5,-569 677.5,-511 993.5,-511 993.5,-569"/>
<text text-anchor="start" x="689.5" y="-549.2" font-family="Helvetica,sans-Serif" font-weight="bold" font-size="16.00" fill="#707070">ElasticLoadBalancingV2::TargetGroup</text>
<text text-anchor="start" x="689.5" y="-524.2" font-family="Helvetica,sans-Serif" font-size="16.00" fill="#383838">my&#45;tg</text>
</g>
<!-- Listener::listener::my&#45;lb::HTTP::80&#45;&gt;TargetGroup::my&#45;tg -->
<g id="edge18" class="edge">
<title>Listener::listener::my&#45;lb::HTTP::80&#45;&gt;TargetGroup::my&#45;tg</title>
<path fill="none" stroke="#707070" d="M612.75,-473.38C620.69,-476.08 628.51,-478.96 636,-482 652.96,-488.88 654.92,-495.41 672,-502 676.73,-503.83 681.58,-505.58 686.5,-507.27"/>
<polygon fill="#707070" stroke="#707070" points="685.11,-510.82 695.7,-510.63 687.3,-504.17 685.11,-510.82"/>
</g>
<!-- Listener::listener::my&#45;lb::HTTPS::443 -->
<g id="node14" class="node">
<title>Listener::listener::my&#45;lb::HTTPS::443</title>
<polygon fill="#e5e5e5" stroke="#dddddd" points="636,-397 353,-397 353,-339 636,-339 636,-397"/>
<text text-anchor="start" x="365" y="-377.2" font-family="Helvetica,sans-Serif" font-weight="bold" font-size="16.00" fill="#707070">ElasticLoadBalancingV2::Listener</text>
<text text-anchor="start" x="365" y="-352.2" font-family="Helvetica,sans-Serif" font-size="16.00" fill="#383838">listener::my&#45;lb::HTTPS::443</text>
</g>
<!-- Listener::listener::my&#45;lb::HTTPS::443&#45;&gt;Certificate::grucloud.org -->
<g id="edge21" class="edge">
<title>Listener::listener::my&#45;lb::HTTPS::443&#45;&gt;Certificate::grucloud.org</title>
<path fill="none" stroke="#707070" d="M636.32,-376.31C674.9,-378.58 715.51,-380.98 749.86,-383.01"/>
<polygon fill="#707070" stroke="#707070" points="749.59,-386.56 759.78,-383.65 750.01,-379.57 749.59,-386.56"/>
</g>
<!-- Listener::listener::my&#45;lb::HTTPS::443&#45;&gt;LoadBalancer::my&#45;lb -->
<g id="edge19" class="edge">
<title>Listener::listener::my&#45;lb::HTTPS::443&#45;&gt;LoadBalancer::my&#45;lb</title>
<path fill="none" stroke="#707070" d="M612.75,-397.38C620.69,-400.08 628.51,-402.96 636,-406 652.96,-412.88 654.92,-419.41 672,-426 676.73,-427.83 681.58,-429.58 686.5,-431.27"/>
<polygon fill="#707070" stroke="#707070" points="685.11,-434.82 695.7,-434.63 687.3,-428.17 685.11,-434.82"/>
</g>
<!-- Listener::listener::my&#45;lb::HTTPS::443&#45;&gt;TargetGroup::my&#45;tg -->
<g id="edge20" class="edge">
<title>Listener::listener::my&#45;lb::HTTPS::443&#45;&gt;TargetGroup::my&#45;tg</title>
<path fill="none" stroke="#707070" d="M624.98,-397.31C628.85,-399.97 632.54,-402.85 636,-406 669.71,-436.66 637.77,-471.92 672,-502 672.9,-502.79 673.81,-503.56 674.73,-504.32"/>
<polygon fill="#707070" stroke="#707070" points="672.25,-507.58 682.37,-510.74 676.43,-501.96 672.25,-507.58"/>
</g>
<!-- LoadBalancer::my&#45;lb&#45;&gt;SecurityGroup::sg::my&#45;vpc&#45;vpc::default -->
<g id="edge24" class="edge">
<title>LoadBalancer::my&#45;lb&#45;&gt;SecurityGroup::sg::my&#45;vpc&#45;vpc::default</title>
<path fill="none" stroke="#707070" d="M999.31,-444.76C1023.03,-441.96 1046.92,-439.13 1069.12,-436.51"/>
<polygon fill="#707070" stroke="#707070" points="1069.35,-439.89 1078.87,-435.24 1068.53,-432.94 1069.35,-439.89"/>
</g>
<!-- LoadBalancer::my&#45;lb&#45;&gt;Subnet::my&#45;vpc&#45;vpc::my&#45;vpc&#45;subnet&#45;private1&#45;us&#45;east&#45;1a -->
<g id="edge22" class="edge">
<title>LoadBalancer::my&#45;lb&#45;&gt;Subnet::my&#45;vpc&#45;vpc::my&#45;vpc&#45;subnet&#45;private1&#45;us&#45;east&#45;1a</title>
<path fill="none" stroke="#707070" d="M989.4,-434.73C992.79,-432.04 996,-429.14 999,-426 1059.01,-363.26 976.1,-297.79 1035,-234 1035.45,-233.51 1035.91,-233.02 1036.38,-232.54"/>
<polygon fill="#707070" stroke="#707070" points="1038.31,-235.61 1043.36,-226.29 1033.61,-230.42 1038.31,-235.61"/>
</g>
<!-- LoadBalancer::my&#45;lb&#45;&gt;Subnet::my&#45;vpc&#45;vpc::my&#45;vpc&#45;subnet&#45;private2&#45;us&#45;east&#45;1b -->
<g id="edge23" class="edge">
<title>LoadBalancer::my&#45;lb&#45;&gt;Subnet::my&#45;vpc&#45;vpc::my&#45;vpc&#45;subnet&#45;private2&#45;us&#45;east&#45;1b</title>
<path fill="none" stroke="#707070" d="M982.66,-434.55C988.29,-431.94 993.76,-429.1 999,-426 1019.59,-413.83 1014.63,-398.53 1035,-386 1037.05,-384.74 1039.14,-383.52 1041.26,-382.34"/>
<polygon fill="#707070" stroke="#707070" points="1042.51,-385.12 1049.8,-377.42 1039.3,-378.9 1042.51,-385.12"/>
</g>
<!-- TargetGroup::my&#45;tg&#45;&gt;Vpc::my&#45;vpc&#45;vpc -->
<g id="edge25" class="edge">
<title>TargetGroup::my&#45;tg&#45;&gt;Vpc::my&#45;vpc&#45;vpc</title>
<path fill="none" stroke="#707070" d="M993.85,-530.85C1089.8,-521.31 1213.47,-501.82 1317,-462 1365.81,-443.23 1415.3,-409.73 1449.4,-383.89"/>
<polygon fill="#707070" stroke="#707070" points="1450.93,-386.36 1456.73,-377.5 1446.67,-380.81 1450.93,-386.36"/>
</g>
<!-- GroupMembership::membership::hr::hruser -->
<g id="node17" class="node">
<title>GroupMembership::membership::hr::hruser</title>
<polygon fill="#e5e5e5" stroke="#dddddd" points="308,-625 33,-625 33,-567 308,-567 308,-625"/>
<text text-anchor="start" x="45" y="-605.2" font-family="Helvetica,sans-Serif" font-weight="bold" font-size="16.00" fill="#707070">IdentityStore::GroupMembership</text>
<text text-anchor="start" x="45" y="-580.2" font-family="Helvetica,sans-Serif" font-size="16.00" fill="#383838">membership::hr::hruser</text>
</g>
<!-- User::hruser -->
<g id="node18" class="node">
<title>User::hruser</title>
<polygon fill="#e5e5e5" stroke="#dddddd" points="578.5,-549 410.5,-549 410.5,-491 578.5,-491 578.5,-549"/>
<text text-anchor="start" x="422.5" y="-529.2" font-family="Helvetica,sans-Serif" font-weight="bold" font-size="16.00" fill="#707070">IdentityStore::User</text>
<text text-anchor="start" x="422.5" y="-504.2" font-family="Helvetica,sans-Serif" font-size="16.00" fill="#383838">hruser</text>
</g>
<!-- GroupMembership::membership::hr::hruser&#45;&gt;User::hruser -->
<g id="edge28" class="edge">
<title>GroupMembership::membership::hr::hruser&#45;&gt;User::hruser</title>
<path fill="none" stroke="#707070" d="M296.45,-566.51C330.91,-558.38 367.69,-549.69 400.03,-542.06"/>
<polygon fill="#707070" stroke="#707070" points="400.43,-545.33 409.36,-539.62 398.82,-538.51 400.43,-545.33"/>
</g>
<!-- Group::hr -->
<g id="node19" class="node">
<title>Group::hr</title>
<polygon fill="#e5e5e5" stroke="#dddddd" points="585,-625 404,-625 404,-567 585,-567 585,-625"/>
<text text-anchor="start" x="416" y="-605.2" font-family="Helvetica,sans-Serif" font-weight="bold" font-size="16.00" fill="#707070">IdentityStore::Group</text>
<text text-anchor="start" x="416" y="-580.2" font-family="Helvetica,sans-Serif" font-size="16.00" fill="#383838">hr</text>
</g>
<!-- GroupMembership::membership::hr::hruser&#45;&gt;Group::hr -->
<g id="edge27" class="edge">
<title>GroupMembership::membership::hr::hruser&#45;&gt;Group::hr</title>
<path fill="none" stroke="#707070" d="M308.06,-596C336.53,-596 366.05,-596 392.93,-596"/>
<polygon fill="#707070" stroke="#707070" points="392.89,-599.5 402.89,-596 392.89,-592.5 392.89,-599.5"/>
</g>
<!-- Instance::default -->
<g id="node22" class="node">
<title>Instance::default</title>
<polygon fill="#e5e5e5" stroke="#dddddd" points="927.5,-645 743.5,-645 743.5,-587 927.5,-587 927.5,-645"/>
<text text-anchor="start" x="755.5" y="-625.2" font-family="Helvetica,sans-Serif" font-weight="bold" font-size="16.00" fill="#707070">SSOAdmin::Instance</text>
<text text-anchor="start" x="755.5" y="-600.2" font-family="Helvetica,sans-Serif" font-size="16.00" fill="#383838">default</text>
</g>
<!-- GroupMembership::membership::hr::hruser&#45;&gt;Instance::default -->
<g id="edge26" class="edge">
<title>GroupMembership::membership::hr::hruser&#45;&gt;Instance::default</title>
<path fill="none" stroke="#707070" d="M295.45,-625.49C314.62,-629.02 334.27,-632.06 353,-634 483.53,-647.52 634.88,-637.71 732.53,-628.09"/>
<polygon fill="#707070" stroke="#707070" points="732.69,-631.49 742.29,-627.01 731.99,-624.52 732.69,-631.49"/>
</g>
<!-- User::hruser&#45;&gt;Instance::default -->
<g id="edge29" class="edge">
<title>User::hruser&#45;&gt;Instance::default</title>
<path fill="none" stroke="#707070" d="M578.7,-538.92C597.82,-544.25 617.85,-550.63 636,-558 652.96,-564.88 654.92,-571.41 672,-578 691.22,-585.42 712.3,-591.65 732.72,-596.78"/>
<polygon fill="#707070" stroke="#707070" points="731.78,-600.39 742.33,-599.36 733.44,-593.59 731.78,-600.39"/>
</g>
<!-- Group::hr&#45;&gt;Instance::default -->
<g id="edge30" class="edge">
<title>Group::hr&#45;&gt;Instance::default</title>
<path fill="none" stroke="#707070" d="M585.46,-601.31C630.68,-603.98 685.67,-607.22 732.46,-609.98"/>
<polygon fill="#707070" stroke="#707070" points="732.05,-613.52 742.24,-610.62 732.46,-606.53 732.05,-613.52"/>
</g>
<!-- HostedZone::grucloud.org. -->
<g id="node20" class="node">
<title>HostedZone::grucloud.org.</title>
<polygon fill="#e5e5e5" stroke="#dddddd" points="589.5,-321 399.5,-321 399.5,-263 589.5,-263 589.5,-321"/>
<text text-anchor="start" x="411.5" y="-301.2" font-family="Helvetica,sans-Serif" font-weight="bold" font-size="16.00" fill="#707070">Route53::HostedZone</text>
<text text-anchor="start" x="411.5" y="-276.2" font-family="Helvetica,sans-Serif" font-size="16.00" fill="#383838">grucloud.org.</text>
</g>
<!-- Record::record::CNAME::my&#45;app.grucloud.org. -->
<g id="node21" class="node">
<title>Record::record::CNAME::my&#45;app.grucloud.org.</title>
<polygon fill="#e5e5e5" stroke="#dddddd" points="317,-283 24,-283 24,-225 317,-225 317,-283"/>
<text text-anchor="start" x="36" y="-263.2" font-family="Helvetica,sans-Serif" font-weight="bold" font-size="16.00" fill="#707070">Route53::Record</text>
<text text-anchor="start" x="36" y="-238.2" font-family="Helvetica,sans-Serif" font-size="16.00" fill="#383838">record::CNAME::my&#45;app.grucloud.o...</text>
</g>
<!-- Record::record::CNAME::my&#45;app.grucloud.org.&#45;&gt;VerifiedAccessEndpoint::ava&#45;workshop&#45;hr&#45;endpoint -->
<g id="edge32" class="edge">
<title>Record::record::CNAME::my&#45;app.grucloud.org.&#45;&gt;VerifiedAccessEndpoint::ava&#45;workshop&#45;hr&#45;endpoint</title>
<path fill="none" stroke="#707070" d="M317.43,-236.78C331.21,-235.15 345.15,-233.51 358.82,-231.89"/>
<polygon fill="#707070" stroke="#707070" points="359.21,-235.25 368.73,-230.61 358.38,-228.3 359.21,-235.25"/>
</g>
<!-- Record::record::CNAME::my&#45;app.grucloud.org.&#45;&gt;HostedZone::grucloud.org. -->
<g id="edge31" class="edge">
<title>Record::record::CNAME::my&#45;app.grucloud.org.&#45;&gt;HostedZone::grucloud.org.</title>
<path fill="none" stroke="#707070" d="M317.43,-271.22C341.42,-274.05 365.86,-276.94 388.59,-279.62"/>
<polygon fill="#707070" stroke="#707070" points="387.91,-283.18 398.25,-280.88 388.73,-276.23 387.91,-283.18"/>
</g>
</g>
</svg>
