<?xml version="1.0" encoding="UTF-8" standalone="no"?><svg xmlns="http://www.w3.org/2000/svg" xmlns:xlink="http://www.w3.org/1999/xlink" contentStyleType="text/css" height="398px" preserveAspectRatio="none" style="width:577px;height:398px;background:#FFFFFF;" version="1.1" viewBox="0 0 577 398" width="577px" zoomAndPan="magnify"><defs/><g><rect height="26.4883" style="stroke:#00000000;stroke-width:1.0;fill:none;" width="544" x="15" y="15"/><text fill="#000000" font-family="sans-serif" font-size="14" font-weight="bold" lengthAdjust="spacing" textLength="534" x="20" y="33.5352">Resources for project eventbridge-pipes-ddb-stream-lambda-sfn-enrich</text><rect fill="#F1F1F1" height="36.4883" rx="12.5" ry="12.5" style="stroke:#181818;stroke-width:1.5;" width="52" x="63" y="198.709"/><text fill="#000000" font-family="sans-serif" font-size="14" lengthAdjust="spacing" textLength="32" x="73" y="222.2441">Infra</text><rect fill="#F1F1F1" height="36.4883" rx="12.5" ry="12.5" style="stroke:#181818;stroke-width:1.5;" width="46" x="165" y="198.709"/><text fill="#000000" font-family="sans-serif" font-size="14" lengthAdjust="spacing" textLength="26" x="175" y="222.2441">aws</text><rect fill="#F1F1F1" height="36.4883" rx="12.5" ry="12.5" style="stroke:#181818;stroke-width:1.5;" width="134" x="261" y="57.4883"/><text fill="#000000" font-family="sans-serif" font-size="14" lengthAdjust="spacing" textLength="114" x="271" y="81.0234">CloudWatchLogs</text><rect fill="#F1F1F1" height="36.4883" rx="12.5" ry="12.5" style="stroke:#181818;stroke-width:1.5;" width="111" x="445" y="57.4883"/><text fill="#000000" font-family="sans-serif" font-size="14" lengthAdjust="spacing" textLength="91" x="455" y="81.0234">LogGroup (1)</text><path d="M395,75.7324 L405,75.7324 C420,75.7324 420,75.7324 435,75.7324 L445,75.7324 " fill="none" style="stroke:#181818;stroke-width:1.0;"/><path d="M211,216.9531 L221,216.9531 C236,216.9531 236,75.7324 251,75.7324 L261,75.7324 " fill="none" style="stroke:#181818;stroke-width:1.0;"/><rect fill="#F1F1F1" height="36.4883" rx="12.5" ry="12.5" style="stroke:#181818;stroke-width:1.5;" width="94" x="261" y="113.9766"/><text fill="#000000" font-family="sans-serif" font-size="14" lengthAdjust="spacing" textLength="74" x="271" y="137.5117">DynamoDB</text><rect fill="#F1F1F1" height="36.4883" rx="12.5" ry="12.5" style="stroke:#181818;stroke-width:1.5;" width="81" x="405" y="113.9766"/><text fill="#000000" font-family="sans-serif" font-size="14" lengthAdjust="spacing" textLength="61" x="415" y="137.5117">Table (1)</text><path d="M355,132.2207 L365,132.2207 C380,132.2207 380,132.2207 395,132.2207 L405,132.2207 " fill="none" style="stroke:#181818;stroke-width:1.0;"/><path d="M211,216.9531 L221,216.9531 C236,216.9531 236,132.2207 251,132.2207 L261,132.2207 " fill="none" style="stroke:#181818;stroke-width:1.0;"/><rect fill="#F1F1F1" height="36.4883" rx="12.5" ry="12.5" style="stroke:#181818;stroke-width:1.5;" width="46" x="261" y="170.4648"/><text fill="#000000" font-family="sans-serif" font-size="14" lengthAdjust="spacing" textLength="26" x="271" y="194">IAM</text><rect fill="#F1F1F1" height="36.4883" rx="12.5" ry="12.5" style="stroke:#181818;stroke-width:1.5;" width="73" x="357" y="170.4648"/><text fill="#000000" font-family="sans-serif" font-size="14" lengthAdjust="spacing" textLength="53" x="367" y="194">Role (3)</text><path d="M307,188.709 L317,188.709 C332,188.709 332,188.709 347,188.709 L357,188.709 " fill="none" style="stroke:#181818;stroke-width:1.0;"/><path d="M211,216.9531 L221,216.9531 C236,216.9531 236,188.709 251,188.709 L261,188.709 " fill="none" style="stroke:#181818;stroke-width:1.0;"/><rect fill="#F1F1F1" height="36.4883" rx="12.5" ry="12.5" style="stroke:#181818;stroke-width:1.5;" width="74" x="261" y="226.9531"/><text fill="#000000" font-family="sans-serif" font-size="14" lengthAdjust="spacing" textLength="54" x="271" y="250.4883">Lambda</text><rect fill="#F1F1F1" height="36.4883" rx="12.5" ry="12.5" style="stroke:#181818;stroke-width:1.5;" width="103" x="385" y="226.9531"/><text fill="#000000" font-family="sans-serif" font-size="14" lengthAdjust="spacing" textLength="83" x="395" y="250.4883">Function (1)</text><path d="M335,245.1973 L345,245.1973 C360,245.1973 360,245.1973 375,245.1973 L385,245.1973 " fill="none" style="stroke:#181818;stroke-width:1.0;"/><path d="M211,216.9531 L221,216.9531 C236,216.9531 236,245.1973 251,245.1973 L261,245.1973 " fill="none" style="stroke:#181818;stroke-width:1.0;"/><rect fill="#F1F1F1" height="36.4883" rx="12.5" ry="12.5" style="stroke:#181818;stroke-width:1.5;" width="56" x="261" y="283.4414"/><text fill="#000000" font-family="sans-serif" font-size="14" lengthAdjust="spacing" textLength="36" x="271" y="306.9766">Pipes</text><rect fill="#F1F1F1" height="36.4883" rx="12.5" ry="12.5" style="stroke:#181818;stroke-width:1.5;" width="72" x="367" y="283.4414"/><text fill="#000000" font-family="sans-serif" font-size="14" lengthAdjust="spacing" textLength="52" x="377" y="306.9766">Pipe (1)</text><path d="M317,301.6855 L327,301.6855 C342,301.6855 342,301.6855 357,301.6855 L367,301.6855 " fill="none" style="stroke:#181818;stroke-width:1.0;"/><path d="M211,216.9531 L221,216.9531 C236,216.9531 236,301.6855 251,301.6855 L261,301.6855 " fill="none" style="stroke:#181818;stroke-width:1.0;"/><rect fill="#F1F1F1" height="36.4883" rx="12.5" ry="12.5" style="stroke:#181818;stroke-width:1.5;" width="117" x="261" y="339.9297"/><text fill="#000000" font-family="sans-serif" font-size="14" lengthAdjust="spacing" textLength="97" x="271" y="363.4648">StepFunctions</text><rect fill="#F1F1F1" height="36.4883" rx="12.5" ry="12.5" style="stroke:#181818;stroke-width:1.5;" width="134" x="428" y="339.9297"/><text fill="#000000" font-family="sans-serif" font-size="14" lengthAdjust="spacing" textLength="114" x="438" y="363.4648">StateMachine (1)</text><path d="M378,358.1738 L388,358.1738 C403,358.1738 403,358.1738 418,358.1738 L428,358.1738 " fill="none" style="stroke:#181818;stroke-width:1.0;"/><path d="M211,216.9531 L221,216.9531 C236,216.9531 236,358.1738 251,358.1738 L261,358.1738 " fill="none" style="stroke:#181818;stroke-width:1.0;"/><path d="M115,216.9531 L125,216.9531 C140,216.9531 140,216.9531 155,216.9531 L165,216.9531 " fill="none" style="stroke:#181818;stroke-width:1.0;"/><!--MD5=[3ab3b6cc5452a410fdbc30cf88d6d6fb]
@startmindmap
title Resources for project eventbridge-pipes-ddb-stream-lambda-sfn-enrich
skinparam monochrome true
+ Infra
++ aws
+++ CloudWatchLogs
++++ LogGroup (1)
+++ DynamoDB
++++ Table (1)
+++ IAM
++++ Role (3)
+++ Lambda
++++ Function (1)
+++ Pipes
++++ Pipe (1)
+++ StepFunctions
++++ StateMachine (1)
@endmindmap

PlantUML version 1.2022.6(Tue Jun 21 12:34:49 COT 2022)
(GPL source distribution)
Java Runtime: Java(TM) SE Runtime Environment
JVM: Java HotSpot(TM) 64-Bit Server VM
Default Encoding: UTF-8
Language: en
Country: GB
--></g></svg>