<?xml version="1.0" encoding="UTF-8" standalone="no"?><svg xmlns="http://www.w3.org/2000/svg" xmlns:xlink="http://www.w3.org/1999/xlink" contentStyleType="text/css" height="963px" preserveAspectRatio="none" style="width:658px;height:963px;background:#FFFFFF;" version="1.1" viewBox="0 0 658 963" width="658px" zoomAndPan="magnify"><defs/><g><rect height="26.4883" style="stroke:#00000000;stroke-width:1.0;fill:none;" width="544" x="30.5" y="15"/><text fill="#000000" font-family="sans-serif" font-size="14" font-weight="bold" lengthAdjust="spacing" textLength="534" x="35.5" y="33.5352">Resources for project eventbridge-pipes-ddb-stream-lambda-sfn-enrich</text><rect fill="#F1F1F1" height="36.4883" rx="12.5" ry="12.5" style="stroke:#181818;stroke-width:1.5;" width="52" x="10" y="481.1504"/><text fill="#000000" font-family="sans-serif" font-size="14" lengthAdjust="spacing" textLength="32" x="20" y="504.6855">Infra</text><rect fill="#F1F1F1" height="36.4883" rx="12.5" ry="12.5" style="stroke:#181818;stroke-width:1.5;" width="46" x="112" y="481.1504"/><text fill="#000000" font-family="sans-serif" font-size="14" lengthAdjust="spacing" textLength="26" x="122" y="504.6855">aws</text><rect fill="#F1F1F1" height="36.4883" rx="12.5" ry="12.5" style="stroke:#181818;stroke-width:1.5;" width="118" x="208" y="198.709"/><text fill="#000000" font-family="sans-serif" font-size="14" lengthAdjust="spacing" textLength="98" x="218" y="222.2441">ApiGatewayV2</text><rect fill="#F1F1F1" height="36.4883" rx="12.5" ry="12.5" style="stroke:#181818;stroke-width:1.5;" width="66" x="376" y="57.4883"/><text fill="#000000" font-family="sans-serif" font-size="14" lengthAdjust="spacing" textLength="46" x="386" y="81.0234">Api (1)</text><path d="M326,216.9531 L336,216.9531 C351,216.9531 351,75.7324 366,75.7324 L376,75.7324 " fill="none" style="stroke:#181818;stroke-width:1.0;"/><rect fill="#F1F1F1" height="36.4883" rx="12.5" ry="12.5" style="stroke:#181818;stroke-width:1.5;" width="117" x="376" y="113.9766"/><text fill="#000000" font-family="sans-serif" font-size="14" lengthAdjust="spacing" textLength="97" x="386" y="137.5117">Authorizer (1)</text><path d="M326,216.9531 L336,216.9531 C351,216.9531 351,132.2207 366,132.2207 L376,132.2207 " fill="none" style="stroke:#181818;stroke-width:1.0;"/><rect fill="#F1F1F1" height="36.4883" rx="12.5" ry="12.5" style="stroke:#181818;stroke-width:1.5;" width="125" x="376" y="170.4648"/><text fill="#000000" font-family="sans-serif" font-size="14" lengthAdjust="spacing" textLength="105" x="386" y="194">Deployment (1)</text><path d="M326,216.9531 L336,216.9531 C351,216.9531 351,188.709 366,188.709 L376,188.709 " fill="none" style="stroke:#181818;stroke-width:1.0;"/><rect fill="#F1F1F1" height="36.4883" rx="12.5" ry="12.5" style="stroke:#181818;stroke-width:1.5;" width="119" x="376" y="226.9531"/><text fill="#000000" font-family="sans-serif" font-size="14" lengthAdjust="spacing" textLength="99" x="386" y="250.4883">Integration (1)</text><path d="M326,216.9531 L336,216.9531 C351,216.9531 351,245.1973 366,245.1973 L376,245.1973 " fill="none" style="stroke:#181818;stroke-width:1.0;"/><rect fill="#F1F1F1" height="36.4883" rx="12.5" ry="12.5" style="stroke:#181818;stroke-width:1.5;" width="83" x="376" y="283.4414"/><text fill="#000000" font-family="sans-serif" font-size="14" lengthAdjust="spacing" textLength="63" x="386" y="306.9766">Route (1)</text><path d="M326,216.9531 L336,216.9531 C351,216.9531 351,301.6855 366,301.6855 L376,301.6855 " fill="none" style="stroke:#181818;stroke-width:1.0;"/><rect fill="#F1F1F1" height="36.4883" rx="12.5" ry="12.5" style="stroke:#181818;stroke-width:1.5;" width="81" x="376" y="339.9297"/><text fill="#000000" font-family="sans-serif" font-size="14" lengthAdjust="spacing" textLength="61" x="386" y="363.4648">Stage (1)</text><path d="M326,216.9531 L336,216.9531 C351,216.9531 351,358.1738 366,358.1738 L376,358.1738 " fill="none" style="stroke:#181818;stroke-width:1.0;"/><path d="M158,499.3945 L168,499.3945 C183,499.3945 183,216.9531 198,216.9531 L208,216.9531 " fill="none" style="stroke:#181818;stroke-width:1.0;"/><rect fill="#F1F1F1" height="36.4883" rx="12.5" ry="12.5" style="stroke:#181818;stroke-width:1.5;" width="146" x="208" y="396.418"/><text fill="#000000" font-family="sans-serif" font-size="14" lengthAdjust="spacing" textLength="126" x="218" y="419.9531">CloudWatchEvents</text><rect fill="#F1F1F1" height="36.4883" rx="12.5" ry="12.5" style="stroke:#181818;stroke-width:1.5;" width="73" x="404" y="396.418"/><text fill="#000000" font-family="sans-serif" font-size="14" lengthAdjust="spacing" textLength="53" x="414" y="419.9531">Rule (2)</text><path d="M354,414.6621 L364,414.6621 C379,414.6621 379,414.6621 394,414.6621 L404,414.6621 " fill="none" style="stroke:#181818;stroke-width:1.0;"/><path d="M158,499.3945 L168,499.3945 C183,499.3945 183,414.6621 198,414.6621 L208,414.6621 " fill="none" style="stroke:#181818;stroke-width:1.0;"/><rect fill="#F1F1F1" height="36.4883" rx="12.5" ry="12.5" style="stroke:#181818;stroke-width:1.5;" width="134" x="208" y="452.9063"/><text fill="#000000" font-family="sans-serif" font-size="14" lengthAdjust="spacing" textLength="114" x="218" y="476.4414">CloudWatchLogs</text><rect fill="#F1F1F1" height="36.4883" rx="12.5" ry="12.5" style="stroke:#181818;stroke-width:1.5;" width="111" x="392" y="452.9063"/><text fill="#000000" font-family="sans-serif" font-size="14" lengthAdjust="spacing" textLength="91" x="402" y="476.4414">LogGroup (1)</text><path d="M342,471.1504 L352,471.1504 C367,471.1504 367,471.1504 382,471.1504 L392,471.1504 " fill="none" style="stroke:#181818;stroke-width:1.0;"/><path d="M158,499.3945 L168,499.3945 C183,499.3945 183,471.1504 198,471.1504 L208,471.1504 " fill="none" style="stroke:#181818;stroke-width:1.0;"/><rect fill="#F1F1F1" height="36.4883" rx="12.5" ry="12.5" style="stroke:#181818;stroke-width:1.5;" width="231" x="208" y="565.8828"/><text fill="#000000" font-family="sans-serif" font-size="14" lengthAdjust="spacing" textLength="211" x="218" y="589.418">CognitoIdentityServiceProvider</text><rect fill="#F1F1F1" height="36.4883" rx="12.5" ry="12.5" style="stroke:#181818;stroke-width:1.5;" width="104" x="489" y="509.3945"/><text fill="#000000" font-family="sans-serif" font-size="14" lengthAdjust="spacing" textLength="84" x="499" y="532.9297">UserPool (1)</text><path d="M439,584.127 L449,584.127 C464,584.127 464,527.6387 479,527.6387 L489,527.6387 " fill="none" style="stroke:#181818;stroke-width:1.0;"/><rect fill="#F1F1F1" height="36.4883" rx="12.5" ry="12.5" style="stroke:#181818;stroke-width:1.5;" width="144" x="489" y="565.8828"/><text fill="#000000" font-family="sans-serif" font-size="14" lengthAdjust="spacing" textLength="124" x="499" y="589.418">UserPoolClient (1)</text><path d="M439,584.127 L449,584.127 C464,584.127 464,584.127 479,584.127 L489,584.127 " fill="none" style="stroke:#181818;stroke-width:1.0;"/><rect fill="#F1F1F1" height="36.4883" rx="12.5" ry="12.5" style="stroke:#181818;stroke-width:1.5;" width="157" x="489" y="622.3711"/><text fill="#000000" font-family="sans-serif" font-size="14" lengthAdjust="spacing" textLength="137" x="499" y="645.9063">UserPoolDomain (1)</text><path d="M439,584.127 L449,584.127 C464,584.127 464,640.6152 479,640.6152 L489,640.6152 " fill="none" style="stroke:#181818;stroke-width:1.0;"/><path d="M158,499.3945 L168,499.3945 C183,499.3945 183,584.127 198,584.127 L208,584.127 " fill="none" style="stroke:#181818;stroke-width:1.0;"/><rect fill="#F1F1F1" height="36.4883" rx="12.5" ry="12.5" style="stroke:#181818;stroke-width:1.5;" width="94" x="208" y="622.3711"/><text fill="#000000" font-family="sans-serif" font-size="14" lengthAdjust="spacing" textLength="74" x="218" y="645.9063">DynamoDB</text><rect fill="#F1F1F1" height="36.4883" rx="12.5" ry="12.5" style="stroke:#181818;stroke-width:1.5;" width="81" x="352" y="622.3711"/><text fill="#000000" font-family="sans-serif" font-size="14" lengthAdjust="spacing" textLength="61" x="362" y="645.9063">Table (1)</text><path d="M302,640.6152 L312,640.6152 C327,640.6152 327,640.6152 342,640.6152 L352,640.6152 " fill="none" style="stroke:#181818;stroke-width:1.0;"/><path d="M158,499.3945 L168,499.3945 C183,499.3945 183,640.6152 198,640.6152 L208,640.6152 " fill="none" style="stroke:#181818;stroke-width:1.0;"/><rect fill="#F1F1F1" height="36.4883" rx="12.5" ry="12.5" style="stroke:#181818;stroke-width:1.5;" width="128" x="208" y="678.8594"/><text fill="#000000" font-family="sans-serif" font-size="14" lengthAdjust="spacing" textLength="108" x="218" y="702.3945">ElasticBeanstalk</text><rect fill="#F1F1F1" height="36.4883" rx="12.5" ry="12.5" style="stroke:#181818;stroke-width:1.5;" width="121" x="386" y="678.8594"/><text fill="#000000" font-family="sans-serif" font-size="14" lengthAdjust="spacing" textLength="101" x="396" y="702.3945">Application (1)</text><path d="M336,697.1035 L346,697.1035 C361,697.1035 361,697.1035 376,697.1035 L386,697.1035 " fill="none" style="stroke:#181818;stroke-width:1.0;"/><path d="M158,499.3945 L168,499.3945 C183,499.3945 183,697.1035 198,697.1035 L208,697.1035 " fill="none" style="stroke:#181818;stroke-width:1.0;"/><rect fill="#F1F1F1" height="36.4883" rx="12.5" ry="12.5" style="stroke:#181818;stroke-width:1.5;" width="46" x="208" y="735.3477"/><text fill="#000000" font-family="sans-serif" font-size="14" lengthAdjust="spacing" textLength="26" x="218" y="758.8828">IAM</text><rect fill="#F1F1F1" height="36.4883" rx="12.5" ry="12.5" style="stroke:#181818;stroke-width:1.5;" width="73" x="304" y="735.3477"/><text fill="#000000" font-family="sans-serif" font-size="14" lengthAdjust="spacing" textLength="53" x="314" y="758.8828">Role (3)</text><path d="M254,753.5918 L264,753.5918 C279,753.5918 279,753.5918 294,753.5918 L304,753.5918 " fill="none" style="stroke:#181818;stroke-width:1.0;"/><path d="M158,499.3945 L168,499.3945 C183,499.3945 183,753.5918 198,753.5918 L208,753.5918 " fill="none" style="stroke:#181818;stroke-width:1.0;"/><rect fill="#F1F1F1" height="36.4883" rx="12.5" ry="12.5" style="stroke:#181818;stroke-width:1.5;" width="74" x="208" y="791.8359"/><text fill="#000000" font-family="sans-serif" font-size="14" lengthAdjust="spacing" textLength="54" x="218" y="815.3711">Lambda</text><rect fill="#F1F1F1" height="36.4883" rx="12.5" ry="12.5" style="stroke:#181818;stroke-width:1.5;" width="103" x="332" y="791.8359"/><text fill="#000000" font-family="sans-serif" font-size="14" lengthAdjust="spacing" textLength="83" x="342" y="815.3711">Function (1)</text><path d="M282,810.0801 L292,810.0801 C307,810.0801 307,810.0801 322,810.0801 L332,810.0801 " fill="none" style="stroke:#181818;stroke-width:1.0;"/><path d="M158,499.3945 L168,499.3945 C183,499.3945 183,810.0801 198,810.0801 L208,810.0801 " fill="none" style="stroke:#181818;stroke-width:1.0;"/><rect fill="#F1F1F1" height="36.4883" rx="12.5" ry="12.5" style="stroke:#181818;stroke-width:1.5;" width="56" x="208" y="848.3242"/><text fill="#000000" font-family="sans-serif" font-size="14" lengthAdjust="spacing" textLength="36" x="218" y="871.8594">Pipes</text><rect fill="#F1F1F1" height="36.4883" rx="12.5" ry="12.5" style="stroke:#181818;stroke-width:1.5;" width="72" x="314" y="848.3242"/><text fill="#000000" font-family="sans-serif" font-size="14" lengthAdjust="spacing" textLength="52" x="324" y="871.8594">Pipe (1)</text><path d="M264,866.5684 L274,866.5684 C289,866.5684 289,866.5684 304,866.5684 L314,866.5684 " fill="none" style="stroke:#181818;stroke-width:1.0;"/><path d="M158,499.3945 L168,499.3945 C183,499.3945 183,866.5684 198,866.5684 L208,866.5684 " fill="none" style="stroke:#181818;stroke-width:1.0;"/><rect fill="#F1F1F1" height="36.4883" rx="12.5" ry="12.5" style="stroke:#181818;stroke-width:1.5;" width="117" x="208" y="904.8125"/><text fill="#000000" font-family="sans-serif" font-size="14" lengthAdjust="spacing" textLength="97" x="218" y="928.3477">StepFunctions</text><rect fill="#F1F1F1" height="36.4883" rx="12.5" ry="12.5" style="stroke:#181818;stroke-width:1.5;" width="134" x="375" y="904.8125"/><text fill="#000000" font-family="sans-serif" font-size="14" lengthAdjust="spacing" textLength="114" x="385" y="928.3477">StateMachine (1)</text><path d="M325,923.0566 L335,923.0566 C350,923.0566 350,923.0566 365,923.0566 L375,923.0566 " fill="none" style="stroke:#181818;stroke-width:1.0;"/><path d="M158,499.3945 L168,499.3945 C183,499.3945 183,923.0566 198,923.0566 L208,923.0566 " fill="none" style="stroke:#181818;stroke-width:1.0;"/><path d="M62,499.3945 L72,499.3945 C87,499.3945 87,499.3945 102,499.3945 L112,499.3945 " fill="none" style="stroke:#181818;stroke-width:1.0;"/><!--MD5=[1f40ed245ba5c4ef32d3feb1acb7dea0]
@startmindmap
title Resources for project eventbridge-pipes-ddb-stream-lambda-sfn-enrich
skinparam monochrome true
+ Infra
++ aws
+++ ApiGatewayV2
++++ Api (1)
++++ Authorizer (1)
++++ Deployment (1)
++++ Integration (1)
++++ Route (1)
++++ Stage (1)
+++ CloudWatchEvents
++++ Rule (2)
+++ CloudWatchLogs
++++ LogGroup (1)
+++ CognitoIdentityServiceProvider
++++ UserPool (1)
++++ UserPoolClient (1)
++++ UserPoolDomain (1)
+++ DynamoDB
++++ Table (1)
+++ ElasticBeanstalk
++++ Application (1)
+++ IAM
++++ Role (3)
+++ Lambda
++++ Function (1)
+++ Pipes
++++ Pipe (1)
+++ StepFunctions
++++ StateMachine (1)
@endmindmap

PlantUML version 1.2022.6(Tue Jun 21 12:34:49 COT 2022)
(GPL source distribution)
Java Runtime: Java(TM) SE Runtime Environment
JVM: Java HotSpot(TM) 64-Bit Server VM
Default Encoding: UTF-8
Language: en
Country: GB
--></g></svg>