<?xml version="1.0" encoding="UTF-8" standalone="no"?><svg xmlns="http://www.w3.org/2000/svg" xmlns:xlink="http://www.w3.org/1999/xlink" contentStyleType="text/css" height="341px" preserveAspectRatio="none" style="width:633px;height:341px;background:#FFFFFF;" version="1.1" viewBox="0 0 633 341" width="633px" zoomAndPan="magnify"><defs/><g><rect height="26.4883" style="stroke:#00000000;stroke-width:1.0;fill:none;" width="600" x="15" y="15"/><text fill="#000000" font-family="sans-serif" font-size="14" font-weight="bold" lengthAdjust="spacing" textLength="590" x="20" y="33.5352">Resources for project eventbridge-pipes-ddbstream-with-filters-to-eventbridge</text><rect fill="#F1F1F1" height="36.4883" rx="12.5" ry="12.5" style="stroke:#181818;stroke-width:1.5;" width="52" x="91.5" y="170.4648"/><text fill="#000000" font-family="sans-serif" font-size="14" lengthAdjust="spacing" textLength="32" x="101.5" y="194">Infra</text><rect fill="#F1F1F1" height="36.4883" rx="12.5" ry="12.5" style="stroke:#181818;stroke-width:1.5;" width="46" x="193.5" y="170.4648"/><text fill="#000000" font-family="sans-serif" font-size="14" lengthAdjust="spacing" textLength="26" x="203.5" y="194">aws</text><rect fill="#F1F1F1" height="36.4883" rx="12.5" ry="12.5" style="stroke:#181818;stroke-width:1.5;" width="146" x="289.5" y="57.4883"/><text fill="#000000" font-family="sans-serif" font-size="14" lengthAdjust="spacing" textLength="126" x="299.5" y="81.0234">CloudWatchEvents</text><rect fill="#F1F1F1" height="36.4883" rx="12.5" ry="12.5" style="stroke:#181818;stroke-width:1.5;" width="104" x="485.5" y="57.4883"/><text fill="#000000" font-family="sans-serif" font-size="14" lengthAdjust="spacing" textLength="84" x="495.5" y="81.0234">EventBus (1)</text><path d="M435.5,75.7324 L445.5,75.7324 C460.5,75.7324 460.5,75.7324 475.5,75.7324 L485.5,75.7324 " fill="none" style="stroke:#181818;stroke-width:1.0;"/><path d="M239.5,188.709 L249.5,188.709 C264.5,188.709 264.5,75.7324 279.5,75.7324 L289.5,75.7324 " fill="none" style="stroke:#181818;stroke-width:1.0;"/><rect fill="#F1F1F1" height="36.4883" rx="12.5" ry="12.5" style="stroke:#181818;stroke-width:1.5;" width="94" x="289.5" y="113.9766"/><text fill="#000000" font-family="sans-serif" font-size="14" lengthAdjust="spacing" textLength="74" x="299.5" y="137.5117">DynamoDB</text><rect fill="#F1F1F1" height="36.4883" rx="12.5" ry="12.5" style="stroke:#181818;stroke-width:1.5;" width="81" x="433.5" y="113.9766"/><text fill="#000000" font-family="sans-serif" font-size="14" lengthAdjust="spacing" textLength="61" x="443.5" y="137.5117">Table (1)</text><path d="M383.5,132.2207 L393.5,132.2207 C408.5,132.2207 408.5,132.2207 423.5,132.2207 L433.5,132.2207 " fill="none" style="stroke:#181818;stroke-width:1.0;"/><path d="M239.5,188.709 L249.5,188.709 C264.5,188.709 264.5,132.2207 279.5,132.2207 L289.5,132.2207 " fill="none" style="stroke:#181818;stroke-width:1.0;"/><rect fill="#F1F1F1" height="36.4883" rx="12.5" ry="12.5" style="stroke:#181818;stroke-width:1.5;" width="46" x="289.5" y="170.4648"/><text fill="#000000" font-family="sans-serif" font-size="14" lengthAdjust="spacing" textLength="26" x="299.5" y="194">IAM</text><rect fill="#F1F1F1" height="36.4883" rx="12.5" ry="12.5" style="stroke:#181818;stroke-width:1.5;" width="73" x="385.5" y="170.4648"/><text fill="#000000" font-family="sans-serif" font-size="14" lengthAdjust="spacing" textLength="53" x="395.5" y="194">Role (1)</text><path d="M335.5,188.709 L345.5,188.709 C360.5,188.709 360.5,188.709 375.5,188.709 L385.5,188.709 " fill="none" style="stroke:#181818;stroke-width:1.0;"/><path d="M239.5,188.709 L249.5,188.709 C264.5,188.709 264.5,188.709 279.5,188.709 L289.5,188.709 " fill="none" style="stroke:#181818;stroke-width:1.0;"/><rect fill="#F1F1F1" height="36.4883" rx="12.5" ry="12.5" style="stroke:#181818;stroke-width:1.5;" width="56" x="289.5" y="226.9531"/><text fill="#000000" font-family="sans-serif" font-size="14" lengthAdjust="spacing" textLength="36" x="299.5" y="250.4883">Pipes</text><rect fill="#F1F1F1" height="36.4883" rx="12.5" ry="12.5" style="stroke:#181818;stroke-width:1.5;" width="72" x="395.5" y="226.9531"/><text fill="#000000" font-family="sans-serif" font-size="14" lengthAdjust="spacing" textLength="52" x="405.5" y="250.4883">Pipe (2)</text><path d="M345.5,245.1973 L355.5,245.1973 C370.5,245.1973 370.5,245.1973 385.5,245.1973 L395.5,245.1973 " fill="none" style="stroke:#181818;stroke-width:1.0;"/><path d="M239.5,188.709 L249.5,188.709 C264.5,188.709 264.5,245.1973 279.5,245.1973 L289.5,245.1973 " fill="none" style="stroke:#181818;stroke-width:1.0;"/><rect fill="#F1F1F1" height="36.4883" rx="12.5" ry="12.5" style="stroke:#181818;stroke-width:1.5;" width="47" x="289.5" y="283.4414"/><text fill="#000000" font-family="sans-serif" font-size="14" lengthAdjust="spacing" textLength="27" x="299.5" y="306.9766">SQS</text><rect fill="#F1F1F1" height="36.4883" rx="12.5" ry="12.5" style="stroke:#181818;stroke-width:1.5;" width="88" x="386.5" y="283.4414"/><text fill="#000000" font-family="sans-serif" font-size="14" lengthAdjust="spacing" textLength="68" x="396.5" y="306.9766">Queue (1)</text><path d="M336.5,301.6855 L346.5,301.6855 C361.5,301.6855 361.5,301.6855 376.5,301.6855 L386.5,301.6855 " fill="none" style="stroke:#181818;stroke-width:1.0;"/><path d="M239.5,188.709 L249.5,188.709 C264.5,188.709 264.5,301.6855 279.5,301.6855 L289.5,301.6855 " fill="none" style="stroke:#181818;stroke-width:1.0;"/><path d="M143.5,188.709 L153.5,188.709 C168.5,188.709 168.5,188.709 183.5,188.709 L193.5,188.709 " fill="none" style="stroke:#181818;stroke-width:1.0;"/><!--MD5=[0fc2527ecde39e9986d20859dade1898]
@startmindmap
title Resources for project eventbridge-pipes-ddbstream-with-filters-to-eventbridge
skinparam monochrome true
+ Infra
++ aws
+++ CloudWatchEvents
++++ EventBus (1)
+++ DynamoDB
++++ Table (1)
+++ IAM
++++ Role (1)
+++ Pipes
++++ Pipe (2)
+++ SQS
++++ Queue (1)
@endmindmap

PlantUML version 1.2022.6(Tue Jun 21 12:34:49 COT 2022)
(GPL source distribution)
Java Runtime: Java(TM) SE Runtime Environment
JVM: Java HotSpot(TM) 64-Bit Server VM
Default Encoding: UTF-8
Language: en
Country: GB
--></g></svg>