<?xml version="1.0" encoding="UTF-8" standalone="no"?>
<!DOCTYPE svg PUBLIC "-//W3C//DTD SVG 1.1//EN"
 "http://www.w3.org/Graphics/SVG/1.1/DTD/svg11.dtd">
<!-- Generated by graphviz version 3.0.0 (20220226.1711)
 -->
<!-- Title: graphname Pages: 1 -->
<svg width="767pt" height="313pt"
 viewBox="0.00 0.00 767.00 313.00" xmlns="http://www.w3.org/2000/svg" xmlns:xlink="http://www.w3.org/1999/xlink">
<g id="graph0" class="graph" transform="scale(1 1) rotate(0) translate(4 309)">
<title>graphname</title>
<polygon fill="#fafafa" stroke="transparent" points="-4,4 -4,-309 763,-309 763,4 -4,4"/>
<text text-anchor="start" x="287.5" y="-280.4" font-family="Helvetica,sans-Serif" font-weight="bold" font-size="22.00" fill="#383838">Project ec2&#45;credit</text>
<text text-anchor="start" x="375.5" y="-264.8" font-family="Helvetica,sans-Serif" font-size="14.00"> &#160;</text>
<text text-anchor="start" x="287.5" y="-243.2" font-family="Helvetica,sans-Serif" font-weight="bold" font-size="16.00" fill="#707070">Target Diagram</text>
<g id="clust1" class="cluster">
<title>cluster_aws</title>
<polygon fill="#f5f5f5" stroke="#f5f5f5" points="8,-8 8,-221 751,-221 751,-8 8,-8"/>
<text text-anchor="start" x="317.5" y="-23" font-family="Helvetica,sans-Serif" font-weight="bold" font-size="20.00" fill="#707070">Provider aws</text>
</g>
<g id="clust2" class="cluster">
<title>cluster_aws_</title>
<polygon fill="#eeeeee" stroke="#eeeeee" points="16,-54 16,-213 743,-213 743,-54 16,-54"/>
<text text-anchor="start" x="379.36" y="-58.3" font-family="Helvetica,sans-Serif" font-size="1.00" fill="#383838"> </text>
</g>
<!-- Vpc::vpc&#45;default -->
<g id="node1" class="node">
<title>Vpc::vpc&#45;default</title>
<polygon fill="#e5e5e5" stroke="#dddddd" points="735,-167 631,-167 631,-109 735,-109 735,-167"/>
<text text-anchor="start" x="643" y="-147.2" font-family="Helvetica,sans-Serif" font-weight="bold" font-size="16.00" fill="#707070">EC2::Vpc</text>
<text text-anchor="start" x="643" y="-122.2" font-family="Helvetica,sans-Serif" font-size="16.00" fill="#383838">vpc&#45;default</text>
</g>
<!-- Subnet::subnet&#45;default&#45;d -->
<g id="node2" class="node">
<title>Subnet::subnet&#45;default&#45;d</title>
<polygon fill="#e5e5e5" stroke="#dddddd" points="532.5,-129 390.5,-129 390.5,-71 532.5,-71 532.5,-129"/>
<text text-anchor="start" x="402.5" y="-109.2" font-family="Helvetica,sans-Serif" font-weight="bold" font-size="16.00" fill="#707070">EC2::Subnet</text>
<text text-anchor="start" x="402.5" y="-84.2" font-family="Helvetica,sans-Serif" font-size="16.00" fill="#383838">subnet&#45;default&#45;d</text>
</g>
<!-- Subnet::subnet&#45;default&#45;d&#45;&gt;Vpc::vpc&#45;default -->
<g id="edge1" class="edge">
<title>Subnet::subnet&#45;default&#45;d&#45;&gt;Vpc::vpc&#45;default</title>
<path fill="none" stroke="#707070" d="M532.55,-112.13C560.81,-117.02 593.13,-122.61 620.46,-127.35"/>
<polygon fill="#707070" stroke="#707070" points="620.23,-130.86 630.68,-129.12 621.42,-123.96 620.23,-130.86"/>
</g>
<!-- SecurityGroup::sg::vpc&#45;default::launch&#45;wizard&#45;1 -->
<g id="node3" class="node">
<title>SecurityGroup::sg::vpc&#45;default::launch&#45;wizard&#45;1</title>
<polygon fill="#e5e5e5" stroke="#dddddd" points="595,-205 328,-205 328,-147 595,-147 595,-205"/>
<text text-anchor="start" x="340.5" y="-185.2" font-family="Helvetica,sans-Serif" font-weight="bold" font-size="16.00" fill="#707070">EC2::SecurityGroup</text>
<text text-anchor="start" x="340.5" y="-160.2" font-family="Helvetica,sans-Serif" font-size="16.00" fill="#383838">sg::vpc&#45;default::launch&#45;wizard&#45;1...</text>
</g>
<!-- SecurityGroup::sg::vpc&#45;default::launch&#45;wizard&#45;1&#45;&gt;Vpc::vpc&#45;default -->
<g id="edge2" class="edge">
<title>SecurityGroup::sg::vpc&#45;default::launch&#45;wizard&#45;1&#45;&gt;Vpc::vpc&#45;default</title>
<path fill="none" stroke="#707070" d="M595.25,-153.02C604.01,-151.5 612.56,-150.02 620.68,-148.62"/>
<polygon fill="#707070" stroke="#707070" points="621.45,-152.04 630.7,-146.88 620.25,-145.14 621.45,-152.04"/>
</g>
<!-- SecurityGroupRuleIngress::sg::vpc&#45;default::launch&#45;wizard&#45;1&#45;rule&#45;ingress&#45;tcp&#45;22 -->
<g id="node4" class="node">
<title>SecurityGroupRuleIngress::sg::vpc&#45;default::launch&#45;wizard&#45;1&#45;rule&#45;ingress&#45;tcp&#45;22</title>
<polygon fill="#e5e5e5" stroke="#dddddd" points="292,-205 24,-205 24,-147 292,-147 292,-205"/>
<text text-anchor="start" x="36" y="-185.2" font-family="Helvetica,sans-Serif" font-weight="bold" font-size="16.00" fill="#707070">EC2::SecurityGroupRuleIngress</text>
<text text-anchor="start" x="36" y="-160.2" font-family="Helvetica,sans-Serif" font-size="16.00" fill="#383838">sg::vpc&#45;default::launch&#45;wizard&#45;1...</text>
</g>
<!-- SecurityGroupRuleIngress::sg::vpc&#45;default::launch&#45;wizard&#45;1&#45;rule&#45;ingress&#45;tcp&#45;22&#45;&gt;SecurityGroup::sg::vpc&#45;default::launch&#45;wizard&#45;1 -->
<g id="edge3" class="edge">
<title>SecurityGroupRuleIngress::sg::vpc&#45;default::launch&#45;wizard&#45;1&#45;rule&#45;ingress&#45;tcp&#45;22&#45;&gt;SecurityGroup::sg::vpc&#45;default::launch&#45;wizard&#45;1</title>
<path fill="none" stroke="#707070" d="M292.12,-176C300.62,-176 309.2,-176 317.75,-176"/>
<polygon fill="#707070" stroke="#707070" points="317.76,-179.5 327.76,-176 317.76,-172.5 317.76,-179.5"/>
</g>
<!-- Instance::ec&#45;credit -->
<g id="node5" class="node">
<title>Instance::ec&#45;credit</title>
<polygon fill="#e5e5e5" stroke="#dddddd" points="223.5,-129 92.5,-129 92.5,-71 223.5,-71 223.5,-129"/>
<text text-anchor="start" x="105" y="-109.2" font-family="Helvetica,sans-Serif" font-weight="bold" font-size="16.00" fill="#707070">EC2::Instance</text>
<text text-anchor="start" x="105" y="-84.2" font-family="Helvetica,sans-Serif" font-size="16.00" fill="#383838">ec&#45;credit</text>
</g>
<!-- Instance::ec&#45;credit&#45;&gt;Subnet::subnet&#45;default&#45;d -->
<g id="edge4" class="edge">
<title>Instance::ec&#45;credit&#45;&gt;Subnet::subnet&#45;default&#45;d</title>
<path fill="none" stroke="#707070" d="M223.68,-100C269.48,-100 331.21,-100 380.16,-100"/>
<polygon fill="#707070" stroke="#707070" points="380.41,-103.5 390.41,-100 380.41,-96.5 380.41,-103.5"/>
</g>
<!-- Instance::ec&#45;credit&#45;&gt;SecurityGroup::sg::vpc&#45;default::launch&#45;wizard&#45;1 -->
<g id="edge5" class="edge">
<title>Instance::ec&#45;credit&#45;&gt;SecurityGroup::sg::vpc&#45;default::launch&#45;wizard&#45;1</title>
<path fill="none" stroke="#707070" d="M223.68,-116.3C256.38,-124.55 297.2,-134.84 335.7,-144.54"/>
<polygon fill="#707070" stroke="#707070" points="334.88,-147.94 345.43,-146.99 336.59,-141.16 334.88,-147.94"/>
</g>
</g>
</svg>
