<?xml version="1.0" encoding="UTF-8" standalone="no"?><svg xmlns="http://www.w3.org/2000/svg" xmlns:xlink="http://www.w3.org/1999/xlink" contentScriptType="application/ecmascript" contentStyleType="text/css" height="624px" preserveAspectRatio="none" style="width:522px;height:624px;background:#FFFFFF;" version="1.1" viewBox="0 0 522 624" width="522px" zoomAndPan="magnify"><defs><filter height="300%" id="f1lhfs4f15ka82" width="300%" x="-1" y="-1"><feGaussianBlur result="blurOut" stdDeviation="2.0"/><feColorMatrix in="blurOut" result="blurOut2" type="matrix" values="0 0 0 0 0 0 0 0 0 0 0 0 0 0 0 0 0 0 .4 0"/><feOffset dx="4.0" dy="4.0" in="blurOut2" result="blurOut3"/><feBlend in="SourceGraphic" in2="blurOut3" mode="normal"/></filter></defs><g><rect fill="none" height="26.4883" style="stroke:none;stroke-width:1.0;" width="374" x="44" y="15"/><text fill="#000000" font-family="sans-serif" font-size="14" font-weight="bold" lengthAdjust="spacing" textLength="364" x="49" y="33.5352">Resources for project apigw-dynamodb-terraform</text><rect fill="#F8F8F8" filter="url(#f1lhfs4f15ka82)" height="36.4883" rx="12.5" ry="12.5" style="stroke:#383838;stroke-width:1.5;" width="52" x="10" y="311.6855"/><text fill="#000000" font-family="sans-serif" font-size="14" lengthAdjust="spacing" textLength="32" x="20" y="335.2207">Infra</text><rect fill="#F8F8F8" filter="url(#f1lhfs4f15ka82)" height="36.4883" rx="12.5" ry="12.5" style="stroke:#383838;stroke-width:1.5;" width="46" x="112" y="311.6855"/><text fill="#000000" font-family="sans-serif" font-size="14" lengthAdjust="spacing" textLength="26" x="122" y="335.2207">aws</text><rect fill="#F8F8F8" filter="url(#f1lhfs4f15ka82)" height="36.4883" rx="12.5" ry="12.5" style="stroke:#383838;stroke-width:1.5;" width="99" x="208" y="198.709"/><text fill="#000000" font-family="sans-serif" font-size="14" lengthAdjust="spacing" textLength="79" x="218" y="222.2441">APIGateway</text><rect fill="#F8F8F8" filter="url(#f1lhfs4f15ka82)" height="36.4883" rx="12.5" ry="12.5" style="stroke:#383838;stroke-width:1.5;" width="99" x="357" y="57.4883"/><text fill="#000000" font-family="sans-serif" font-size="14" lengthAdjust="spacing" textLength="79" x="367" y="81.0234">Account (1)</text><path d="M307,216.9531 L317,216.9531 C332,216.9531 332,75.7324 347,75.7324 L357,75.7324 " fill="none" style="stroke:#383838;stroke-width:1.0;"/><rect fill="#F8F8F8" filter="url(#f1lhfs4f15ka82)" height="36.4883" rx="12.5" ry="12.5" style="stroke:#383838;stroke-width:1.5;" width="90" x="357" y="113.9766"/><text fill="#000000" font-family="sans-serif" font-size="14" lengthAdjust="spacing" textLength="70" x="367" y="137.5117">ApiKey (1)</text><path d="M307,216.9531 L317,216.9531 C332,216.9531 332,132.2207 347,132.2207 L357,132.2207 " fill="none" style="stroke:#383838;stroke-width:1.0;"/><rect fill="#F8F8F8" filter="url(#f1lhfs4f15ka82)" height="36.4883" rx="12.5" ry="12.5" style="stroke:#383838;stroke-width:1.5;" width="95" x="357" y="170.4648"/><text fill="#000000" font-family="sans-serif" font-size="14" lengthAdjust="spacing" textLength="75" x="367" y="194">RestApi (1)</text><path d="M307,216.9531 L317,216.9531 C332,216.9531 332,188.709 347,188.709 L357,188.709 " fill="none" style="stroke:#383838;stroke-width:1.0;"/><rect fill="#F8F8F8" filter="url(#f1lhfs4f15ka82)" height="36.4883" rx="12.5" ry="12.5" style="stroke:#383838;stroke-width:1.5;" width="81" x="357" y="226.9531"/><text fill="#000000" font-family="sans-serif" font-size="14" lengthAdjust="spacing" textLength="61" x="367" y="250.4883">Stage (1)</text><path d="M307,216.9531 L317,216.9531 C332,216.9531 332,245.1973 347,245.1973 L357,245.1973 " fill="none" style="stroke:#383838;stroke-width:1.0;"/><rect fill="#F8F8F8" filter="url(#f1lhfs4f15ka82)" height="36.4883" rx="12.5" ry="12.5" style="stroke:#383838;stroke-width:1.5;" width="114" x="357" y="283.4414"/><text fill="#000000" font-family="sans-serif" font-size="14" lengthAdjust="spacing" textLength="94" x="367" y="306.9766">UsagePlan (1)</text><path d="M307,216.9531 L317,216.9531 C332,216.9531 332,301.6855 347,301.6855 L357,301.6855 " fill="none" style="stroke:#383838;stroke-width:1.0;"/><rect fill="#F8F8F8" filter="url(#f1lhfs4f15ka82)" height="36.4883" rx="12.5" ry="12.5" style="stroke:#383838;stroke-width:1.5;" width="138" x="357" y="339.9297"/><text fill="#000000" font-family="sans-serif" font-size="14" lengthAdjust="spacing" textLength="118" x="367" y="363.4648">UsagePlanKey (1)</text><path d="M307,216.9531 L317,216.9531 C332,216.9531 332,358.1738 347,358.1738 L357,358.1738 " fill="none" style="stroke:#383838;stroke-width:1.0;"/><path d="M158,329.9297 L168,329.9297 C183,329.9297 183,216.9531 198,216.9531 L208,216.9531 " fill="none" style="stroke:#383838;stroke-width:1.0;"/><rect fill="#F8F8F8" filter="url(#f1lhfs4f15ka82)" height="36.4883" rx="12.5" ry="12.5" style="stroke:#383838;stroke-width:1.5;" width="134" x="208" y="396.418"/><text fill="#000000" font-family="sans-serif" font-size="14" lengthAdjust="spacing" textLength="114" x="218" y="419.9531">CloudWatchLogs</text><rect fill="#F8F8F8" filter="url(#f1lhfs4f15ka82)" height="36.4883" rx="12.5" ry="12.5" style="stroke:#383838;stroke-width:1.5;" width="111" x="392" y="396.418"/><text fill="#000000" font-family="sans-serif" font-size="14" lengthAdjust="spacing" textLength="91" x="402" y="419.9531">LogGroup (2)</text><path d="M342,414.6621 L352,414.6621 C367,414.6621 367,414.6621 382,414.6621 L392,414.6621 " fill="none" style="stroke:#383838;stroke-width:1.0;"/><path d="M158,329.9297 L168,329.9297 C183,329.9297 183,414.6621 198,414.6621 L208,414.6621 " fill="none" style="stroke:#383838;stroke-width:1.0;"/><rect fill="#F8F8F8" filter="url(#f1lhfs4f15ka82)" height="36.4883" rx="12.5" ry="12.5" style="stroke:#383838;stroke-width:1.5;" width="94" x="208" y="452.9063"/><text fill="#000000" font-family="sans-serif" font-size="14" lengthAdjust="spacing" textLength="74" x="218" y="476.4414">DynamoDB</text><rect fill="#F8F8F8" filter="url(#f1lhfs4f15ka82)" height="36.4883" rx="12.5" ry="12.5" style="stroke:#383838;stroke-width:1.5;" width="81" x="352" y="452.9063"/><text fill="#000000" font-family="sans-serif" font-size="14" lengthAdjust="spacing" textLength="61" x="362" y="476.4414">Table (1)</text><path d="M302,471.1504 L312,471.1504 C327,471.1504 327,471.1504 342,471.1504 L352,471.1504 " fill="none" style="stroke:#383838;stroke-width:1.0;"/><path d="M158,329.9297 L168,329.9297 C183,329.9297 183,471.1504 198,471.1504 L208,471.1504 " fill="none" style="stroke:#383838;stroke-width:1.0;"/><rect fill="#F8F8F8" filter="url(#f1lhfs4f15ka82)" height="36.4883" rx="12.5" ry="12.5" style="stroke:#383838;stroke-width:1.5;" width="46" x="208" y="537.6387"/><text fill="#000000" font-family="sans-serif" font-size="14" lengthAdjust="spacing" textLength="26" x="218" y="561.1738">IAM</text><rect fill="#F8F8F8" filter="url(#f1lhfs4f15ka82)" height="36.4883" rx="12.5" ry="12.5" style="stroke:#383838;stroke-width:1.5;" width="73" x="304" y="509.3945"/><text fill="#000000" font-family="sans-serif" font-size="14" lengthAdjust="spacing" textLength="53" x="314" y="532.9297">Role (2)</text><path d="M254,555.8828 L264,555.8828 C279,555.8828 279,527.6387 294,527.6387 L304,527.6387 " fill="none" style="stroke:#383838;stroke-width:1.0;"/><rect fill="#F8F8F8" filter="url(#f1lhfs4f15ka82)" height="36.4883" rx="12.5" ry="12.5" style="stroke:#383838;stroke-width:1.5;" width="82" x="304" y="565.8828"/><text fill="#000000" font-family="sans-serif" font-size="14" lengthAdjust="spacing" textLength="62" x="314" y="589.418">Policy (1)</text><path d="M254,555.8828 L264,555.8828 C279,555.8828 279,584.127 294,584.127 L304,584.127 " fill="none" style="stroke:#383838;stroke-width:1.0;"/><path d="M158,329.9297 L168,329.9297 C183,329.9297 183,555.8828 198,555.8828 L208,555.8828 " fill="none" style="stroke:#383838;stroke-width:1.0;"/><path d="M62,329.9297 L72,329.9297 C87,329.9297 87,329.9297 102,329.9297 L112,329.9297 " fill="none" style="stroke:#383838;stroke-width:1.0;"/><!--MD5=[a8c1642d879df3beb6921fdbcec70af4]
@startmindmap
title Resources for project apigw-dynamodb-terraform
skinparam monochrome true
+ Infra
++ aws
+++ APIGateway
++++ Account (1)
++++ ApiKey (1)
++++ RestApi (1)
++++ Stage (1)
++++ UsagePlan (1)
++++ UsagePlanKey (1)
+++ CloudWatchLogs
++++ LogGroup (2)
+++ DynamoDB
++++ Table (1)
+++ IAM
++++ Role (2)
++++ Policy (1)
@endmindmap

PlantUML version 1.2021.8(Sat Jun 26 10:20:59 CEST 2021)
(GPL source distribution)
Java Runtime: OpenJDK Runtime Environment
JVM: OpenJDK 64-Bit Server VM
Default Encoding: UTF-8
Language: en
Country: GB
--></g></svg>