<?xml version="1.0" encoding="UTF-8" standalone="no"?>
<!DOCTYPE svg PUBLIC "-//W3C//DTD SVG 1.1//EN"
 "http://www.w3.org/Graphics/SVG/1.1/DTD/svg11.dtd">
<!-- Generated by graphviz version 3.0.0 (20220226.1711)
 -->
<!-- Title: graphname Pages: 1 -->
<svg width="589pt" height="465pt"
 viewBox="0.00 0.00 589.00 465.00" xmlns="http://www.w3.org/2000/svg" xmlns:xlink="http://www.w3.org/1999/xlink">
<g id="graph0" class="graph" transform="scale(1 1) rotate(0) translate(4 461)">
<title>graphname</title>
<polygon fill="#fafafa" stroke="transparent" points="-4,4 -4,-461 585,-461 585,4 -4,4"/>
<text text-anchor="start" x="123.5" y="-432.4" font-family="Helvetica,sans-Serif" font-weight="bold" font-size="22.00" fill="#383838">Project Route Table Association</text>
<text text-anchor="start" x="286.5" y="-416.8" font-family="Helvetica,sans-Serif" font-size="14.00"> &#160;</text>
<text text-anchor="start" x="123.5" y="-395.2" font-family="Helvetica,sans-Serif" font-weight="bold" font-size="16.00" fill="#707070">Target Diagram</text>
<g id="clust1" class="cluster">
<title>cluster_aws</title>
<polygon fill="#f5f5f5" stroke="#f5f5f5" points="8,-8 8,-373 573,-373 573,-8 8,-8"/>
<text text-anchor="start" x="228.5" y="-23" font-family="Helvetica,sans-Serif" font-weight="bold" font-size="20.00" fill="#707070">Provider aws</text>
</g>
<g id="clust2" class="cluster">
<title>cluster_aws_</title>
<polygon fill="#eeeeee" stroke="#eeeeee" points="16,-54 16,-365 565,-365 565,-54 16,-54"/>
<text text-anchor="start" x="290.36" y="-58.3" font-family="Helvetica,sans-Serif" font-size="1.00" fill="#383838"> </text>
</g>
<!-- Vpc::vpc -->
<g id="node1" class="node">
<title>Vpc::vpc</title>
<polygon fill="#e5e5e5" stroke="#dddddd" points="557,-243 503,-243 503,-185 557,-185 557,-243"/>
<text text-anchor="start" x="515" y="-223.2" font-family="Helvetica,sans-Serif" font-weight="bold" font-size="16.00" fill="#707070">Vpc</text>
<text text-anchor="start" x="515" y="-198.2" font-family="Helvetica,sans-Serif" font-size="16.00" fill="#383838">vpc</text>
</g>
<!-- InternetGateway::internet&#45;gateway -->
<g id="node2" class="node">
<title>InternetGateway::internet&#45;gateway</title>
<polygon fill="#e5e5e5" stroke="#dddddd" points="467,-129 317,-129 317,-71 467,-71 467,-129"/>
<text text-anchor="start" x="329" y="-109.2" font-family="Helvetica,sans-Serif" font-weight="bold" font-size="16.00" fill="#707070">InternetGateway</text>
<text text-anchor="start" x="329" y="-84.2" font-family="Helvetica,sans-Serif" font-size="16.00" fill="#383838">internet&#45;gateway</text>
</g>
<!-- InternetGateway::internet&#45;gateway&#45;&gt;Vpc::vpc -->
<g id="edge1" class="edge">
<title>InternetGateway::internet&#45;gateway&#45;&gt;Vpc::vpc</title>
<path fill="none" stroke="#707070" d="M454.82,-129.2C459.08,-131.97 463.18,-134.91 467,-138 480.59,-149 493.25,-163.4 503.55,-176.71"/>
<polygon fill="#707070" stroke="#707070" points="500.83,-178.92 509.64,-184.81 506.43,-174.72 500.83,-178.92"/>
</g>
<!-- Subnet::subnet&#45;a -->
<g id="node3" class="node">
<title>Subnet::subnet&#45;a</title>
<polygon fill="#e5e5e5" stroke="#dddddd" points="436,-357 348,-357 348,-299 436,-299 436,-357"/>
<text text-anchor="start" x="360" y="-337.2" font-family="Helvetica,sans-Serif" font-weight="bold" font-size="16.00" fill="#707070">Subnet</text>
<text text-anchor="start" x="360" y="-312.2" font-family="Helvetica,sans-Serif" font-size="16.00" fill="#383838">subnet&#45;a</text>
</g>
<!-- Subnet::subnet&#45;a&#45;&gt;Vpc::vpc -->
<g id="edge2" class="edge">
<title>Subnet::subnet&#45;a&#45;&gt;Vpc::vpc</title>
<path fill="none" stroke="#707070" d="M436.33,-309.52C446.89,-304.03 457.79,-297.45 467,-290 480.59,-279 493.25,-264.6 503.55,-251.29"/>
<polygon fill="#707070" stroke="#707070" points="506.43,-253.28 509.64,-243.19 500.83,-249.08 506.43,-253.28"/>
</g>
<!-- Subnet::subnet&#45;b -->
<g id="node4" class="node">
<title>Subnet::subnet&#45;b</title>
<polygon fill="#e5e5e5" stroke="#dddddd" points="436,-281 348,-281 348,-223 436,-223 436,-281"/>
<text text-anchor="start" x="360" y="-261.2" font-family="Helvetica,sans-Serif" font-weight="bold" font-size="16.00" fill="#707070">Subnet</text>
<text text-anchor="start" x="360" y="-236.2" font-family="Helvetica,sans-Serif" font-size="16.00" fill="#383838">subnet&#45;b</text>
</g>
<!-- Subnet::subnet&#45;b&#45;&gt;Vpc::vpc -->
<g id="edge3" class="edge">
<title>Subnet::subnet&#45;b&#45;&gt;Vpc::vpc</title>
<path fill="none" stroke="#707070" d="M436.03,-239.98C454.38,-234.85 475.54,-228.94 493.03,-224.05"/>
<polygon fill="#707070" stroke="#707070" points="494.17,-227.37 502.86,-221.3 492.29,-220.62 494.17,-227.37"/>
</g>
<!-- RouteTable::rt&#45;default&#45;vpc -->
<g id="node5" class="node">
<title>RouteTable::rt&#45;default&#45;vpc</title>
<polygon fill="#e5e5e5" stroke="#dddddd" points="451.5,-205 332.5,-205 332.5,-147 451.5,-147 451.5,-205"/>
<text text-anchor="start" x="345" y="-185.2" font-family="Helvetica,sans-Serif" font-weight="bold" font-size="16.00" fill="#707070">RouteTable</text>
<text text-anchor="start" x="345" y="-160.2" font-family="Helvetica,sans-Serif" font-size="16.00" fill="#383838">rt&#45;default&#45;vpc</text>
</g>
<!-- RouteTable::rt&#45;default&#45;vpc&#45;&gt;Vpc::vpc -->
<g id="edge4" class="edge">
<title>RouteTable::rt&#45;default&#45;vpc&#45;&gt;Vpc::vpc</title>
<path fill="none" stroke="#707070" d="M451.86,-192.45C465.91,-196.37 480.49,-200.44 493.14,-203.98"/>
<polygon fill="#707070" stroke="#707070" points="492.25,-207.37 502.82,-206.69 494.13,-200.62 492.25,-207.37"/>
</g>
<!-- RouteTableAssociation::rt&#45;assoc::rt&#45;default&#45;vpc::subnet&#45;a -->
<g id="node6" class="node">
<title>RouteTableAssociation::rt&#45;assoc::rt&#45;default&#45;vpc::subnet&#45;a</title>
<polygon fill="#e5e5e5" stroke="#dddddd" points="281,-338 24,-338 24,-280 281,-280 281,-338"/>
<text text-anchor="start" x="36.5" y="-318.2" font-family="Helvetica,sans-Serif" font-weight="bold" font-size="16.00" fill="#707070">RouteTableAssociation</text>
<text text-anchor="start" x="36.5" y="-293.2" font-family="Helvetica,sans-Serif" font-size="16.00" fill="#383838">rt&#45;assoc::rt&#45;default&#45;vpc::subnet...</text>
</g>
<!-- RouteTableAssociation::rt&#45;assoc::rt&#45;default&#45;vpc::subnet&#45;a&#45;&gt;Subnet::subnet&#45;a -->
<g id="edge6" class="edge">
<title>RouteTableAssociation::rt&#45;assoc::rt&#45;default&#45;vpc::subnet&#45;a&#45;&gt;Subnet::subnet&#45;a</title>
<path fill="none" stroke="#707070" d="M281.29,-319.22C301.2,-320.82 320.77,-322.38 337.74,-323.74"/>
<polygon fill="#707070" stroke="#707070" points="337.71,-327.25 347.96,-324.56 338.27,-320.27 337.71,-327.25"/>
</g>
<!-- RouteTableAssociation::rt&#45;assoc::rt&#45;default&#45;vpc::subnet&#45;a&#45;&gt;RouteTable::rt&#45;default&#45;vpc -->
<g id="edge5" class="edge">
<title>RouteTableAssociation::rt&#45;assoc::rt&#45;default&#45;vpc::subnet&#45;a&#45;&gt;RouteTable::rt&#45;default&#45;vpc</title>
<path fill="none" stroke="#707070" d="M202.13,-279.86C234.45,-260.71 277.97,-235.34 317,-214 319.49,-212.64 322.04,-211.26 324.62,-209.87"/>
<polygon fill="#707070" stroke="#707070" points="326.29,-212.95 333.48,-205.17 323.01,-206.77 326.29,-212.95"/>
</g>
<!-- RouteTableAssociation::rt&#45;assoc::rt&#45;default&#45;vpc::subnet&#45;b -->
<g id="node7" class="node">
<title>RouteTableAssociation::rt&#45;assoc::rt&#45;default&#45;vpc::subnet&#45;b</title>
<polygon fill="#e5e5e5" stroke="#dddddd" points="281,-224 24,-224 24,-166 281,-166 281,-224"/>
<text text-anchor="start" x="36.5" y="-204.2" font-family="Helvetica,sans-Serif" font-weight="bold" font-size="16.00" fill="#707070">RouteTableAssociation</text>
<text text-anchor="start" x="36.5" y="-179.2" font-family="Helvetica,sans-Serif" font-size="16.00" fill="#383838">rt&#45;assoc::rt&#45;default&#45;vpc::subnet...</text>
</g>
<!-- RouteTableAssociation::rt&#45;assoc::rt&#45;default&#45;vpc::subnet&#45;b&#45;&gt;Subnet::subnet&#45;b -->
<g id="edge8" class="edge">
<title>RouteTableAssociation::rt&#45;assoc::rt&#45;default&#45;vpc::subnet&#45;b&#45;&gt;Subnet::subnet&#45;b</title>
<path fill="none" stroke="#707070" d="M274.34,-224C296.68,-229.36 318.92,-234.7 337.9,-239.26"/>
<polygon fill="#707070" stroke="#707070" points="337.26,-242.7 347.8,-241.63 338.89,-235.89 337.26,-242.7"/>
</g>
<!-- RouteTableAssociation::rt&#45;assoc::rt&#45;default&#45;vpc::subnet&#45;b&#45;&gt;RouteTable::rt&#45;default&#45;vpc -->
<g id="edge7" class="edge">
<title>RouteTableAssociation::rt&#45;assoc::rt&#45;default&#45;vpc::subnet&#45;b&#45;&gt;RouteTable::rt&#45;default&#45;vpc</title>
<path fill="none" stroke="#707070" d="M281.29,-184.78C295.32,-183.65 309.19,-182.54 322.09,-181.51"/>
<polygon fill="#707070" stroke="#707070" points="322.53,-184.99 332.22,-180.7 321.98,-178.01 322.53,-184.99"/>
</g>
<!-- Route::rt&#45;default&#45;vpc&#45;igw -->
<g id="node8" class="node">
<title>Route::rt&#45;default&#45;vpc&#45;igw</title>
<polygon fill="#e5e5e5" stroke="#dddddd" points="226.5,-148 78.5,-148 78.5,-90 226.5,-90 226.5,-148"/>
<text text-anchor="start" x="90.5" y="-128.2" font-family="Helvetica,sans-Serif" font-weight="bold" font-size="16.00" fill="#707070">Route</text>
<text text-anchor="start" x="90.5" y="-103.2" font-family="Helvetica,sans-Serif" font-size="16.00" fill="#383838">rt&#45;default&#45;vpc&#45;igw</text>
</g>
<!-- Route::rt&#45;default&#45;vpc&#45;igw&#45;&gt;InternetGateway::internet&#45;gateway -->
<g id="edge10" class="edge">
<title>Route::rt&#45;default&#45;vpc&#45;igw&#45;&gt;InternetGateway::internet&#45;gateway</title>
<path fill="none" stroke="#707070" d="M226.7,-113.14C251.96,-111.12 280.47,-108.84 306.57,-106.75"/>
<polygon fill="#707070" stroke="#707070" points="307.13,-110.22 316.82,-105.93 306.57,-103.24 307.13,-110.22"/>
</g>
<!-- Route::rt&#45;default&#45;vpc&#45;igw&#45;&gt;RouteTable::rt&#45;default&#45;vpc -->
<g id="edge9" class="edge">
<title>Route::rt&#45;default&#45;vpc&#45;igw&#45;&gt;RouteTable::rt&#45;default&#45;vpc</title>
<path fill="none" stroke="#707070" d="M226.7,-136.57C257.19,-143.88 292.4,-152.34 322.39,-159.53"/>
<polygon fill="#707070" stroke="#707070" points="321.8,-162.99 332.34,-161.92 323.44,-156.19 321.8,-162.99"/>
</g>
</g>
</svg>
