<?xml version="1.0" encoding="UTF-8" standalone="no"?>
<!DOCTYPE svg PUBLIC "-//W3C//DTD SVG 1.1//EN"
 "http://www.w3.org/Graphics/SVG/1.1/DTD/svg11.dtd">
<!-- Generated by graphviz version 3.0.0 (20220226.1711)
 -->
<!-- Title: graphname Pages: 1 -->
<svg width="986pt" height="429pt"
 viewBox="0.00 0.00 986.00 429.00" xmlns="http://www.w3.org/2000/svg" xmlns:xlink="http://www.w3.org/1999/xlink">
<g id="graph0" class="graph" transform="scale(1 1) rotate(0) translate(4 425)">
<title>graphname</title>
<polygon fill="#fafafa" stroke="transparent" points="-4,4 -4,-425 982,-425 982,4 -4,4"/>
<text text-anchor="start" x="328" y="-396.4" font-family="Helvetica,sans-Serif" font-weight="bold" font-size="22.00" fill="#383838">Project route&#45;table&#45;association</text>
<text text-anchor="start" x="485" y="-380.8" font-family="Helvetica,sans-Serif" font-size="14.00"> &#160;</text>
<text text-anchor="start" x="328" y="-359.2" font-family="Helvetica,sans-Serif" font-weight="bold" font-size="16.00" fill="#707070">Live Diagram</text>
<g id="clust1" class="cluster">
<title>cluster_aws</title>
<polygon fill="#f5f5f5" stroke="#f5f5f5" points="8,-8 8,-337 970,-337 970,-8 8,-8"/>
<text text-anchor="start" x="427" y="-23" font-family="Helvetica,sans-Serif" font-weight="bold" font-size="20.00" fill="#707070">Provider aws</text>
</g>
<g id="clust2" class="cluster">
<title>cluster_aws_</title>
<polygon fill="#eeeeee" stroke="#eeeeee" points="16,-54 16,-329 962,-329 962,-54 16,-54"/>
<text text-anchor="start" x="488.86" y="-58.3" font-family="Helvetica,sans-Serif" font-size="1.00" fill="#383838"> </text>
</g>
<!-- InternetGateway::::internet&#45;gateway -->
<g id="node1" class="node">
<title>InternetGateway::::internet&#45;gateway</title>
<polygon fill="#e5e5e5" stroke="#dddddd" points="823,-301 632,-301 632,-243 823,-243 823,-301"/>
<text text-anchor="start" x="644.5" y="-281.2" font-family="Helvetica,sans-Serif" font-weight="bold" font-size="16.00" fill="#707070">EC2::InternetGateway</text>
<text text-anchor="start" x="644.5" y="-256.2" font-family="Helvetica,sans-Serif" font-size="16.00" fill="#383838">internet&#45;gateway</text>
</g>
<!-- Vpc::::vpc -->
<g id="node9" class="node">
<title>Vpc::::vpc</title>
<polygon fill="#e5e5e5" stroke="#dddddd" points="954,-225 859,-225 859,-167 954,-167 954,-225"/>
<text text-anchor="start" x="871.5" y="-205.2" font-family="Helvetica,sans-Serif" font-weight="bold" font-size="16.00" fill="#707070">EC2::Vpc</text>
<text text-anchor="start" x="871.5" y="-180.2" font-family="Helvetica,sans-Serif" font-size="16.00" fill="#383838">vpc</text>
</g>
<!-- InternetGateway::::internet&#45;gateway&#45;&gt;Vpc::::vpc -->
<g id="edge1" class="edge">
<title>InternetGateway::::internet&#45;gateway&#45;&gt;Vpc::::vpc</title>
<path fill="none" stroke="#707070" d="M801.91,-242.9C809.05,-239.94 816.18,-236.94 823,-234 831.71,-230.25 840.87,-226.16 849.8,-222.11"/>
<polygon fill="#707070" stroke="#707070" points="851.35,-225.25 859,-217.91 848.45,-218.88 851.35,-225.25"/>
</g>
<!-- InternetGatewayAttachment::::ig&#45;attach::internet&#45;gateway::vpc -->
<g id="node2" class="node">
<title>InternetGatewayAttachment::::ig&#45;attach::internet&#45;gateway::vpc</title>
<polygon fill="#e5e5e5" stroke="#dddddd" points="596,-321 317,-321 317,-263 596,-263 596,-321"/>
<text text-anchor="start" x="329.5" y="-301.2" font-family="Helvetica,sans-Serif" font-weight="bold" font-size="16.00" fill="#707070">EC2::InternetGatewayAttachment</text>
<text text-anchor="start" x="329.5" y="-276.2" font-family="Helvetica,sans-Serif" font-size="16.00" fill="#383838">ig&#45;attach::internet&#45;gateway::vpc...</text>
</g>
<!-- InternetGatewayAttachment::::ig&#45;attach::internet&#45;gateway::vpc&#45;&gt;InternetGateway::::internet&#45;gateway -->
<g id="edge3" class="edge">
<title>InternetGatewayAttachment::::ig&#45;attach::internet&#45;gateway::vpc&#45;&gt;InternetGateway::::internet&#45;gateway</title>
<path fill="none" stroke="#707070" d="M596.33,-281.68C604.83,-281.05 613.3,-280.42 621.61,-279.8"/>
<polygon fill="#707070" stroke="#707070" points="621.95,-283.28 631.66,-279.05 621.43,-276.3 621.95,-283.28"/>
</g>
<!-- InternetGatewayAttachment::::ig&#45;attach::internet&#45;gateway::vpc&#45;&gt;Vpc::::vpc -->
<g id="edge2" class="edge">
<title>InternetGatewayAttachment::::ig&#45;attach::internet&#45;gateway::vpc&#45;&gt;Vpc::::vpc</title>
<path fill="none" stroke="#707070" d="M550.33,-321.09C627.6,-339.76 738.27,-353.27 823,-310 853.95,-294.2 875.97,-260.76 889.44,-234.17"/>
<polygon fill="#707070" stroke="#707070" points="892.63,-235.61 893.84,-225.09 886.33,-232.56 892.63,-235.61"/>
</g>
<!-- Route::::rt&#45;default&#45;vpc&#45;igw -->
<g id="node3" class="node">
<title>Route::::rt&#45;default&#45;vpc&#45;igw</title>
<polygon fill="#e5e5e5" stroke="#dddddd" points="226.5,-281 78.5,-281 78.5,-223 226.5,-223 226.5,-281"/>
<text text-anchor="start" x="90.5" y="-261.2" font-family="Helvetica,sans-Serif" font-weight="bold" font-size="16.00" fill="#707070">EC2::Route</text>
<text text-anchor="start" x="90.5" y="-236.2" font-family="Helvetica,sans-Serif" font-size="16.00" fill="#383838">rt&#45;default&#45;vpc&#45;igw</text>
</g>
<!-- Route::::rt&#45;default&#45;vpc&#45;igw&#45;&gt;InternetGateway::::internet&#45;gateway -->
<g id="edge5" class="edge">
<title>Route::::rt&#45;default&#45;vpc&#45;igw&#45;&gt;InternetGateway::::internet&#45;gateway</title>
<path fill="none" stroke="#707070" d="M226.82,-249.36C314.68,-246.89 466.3,-244.8 596,-254 604.36,-254.59 613.01,-255.39 621.68,-256.31"/>
<polygon fill="#707070" stroke="#707070" points="621.53,-259.81 631.86,-257.45 622.31,-252.86 621.53,-259.81"/>
</g>
<!-- RouteTable::::rt&#45;default&#45;vpc -->
<g id="node4" class="node">
<title>RouteTable::::rt&#45;default&#45;vpc</title>
<polygon fill="#e5e5e5" stroke="#dddddd" points="532,-177 381,-177 381,-119 532,-119 532,-177"/>
<text text-anchor="start" x="393.5" y="-157.2" font-family="Helvetica,sans-Serif" font-weight="bold" font-size="16.00" fill="#707070">EC2::RouteTable</text>
<text text-anchor="start" x="393.5" y="-132.2" font-family="Helvetica,sans-Serif" font-size="16.00" fill="#383838">rt&#45;default&#45;vpc</text>
</g>
<!-- Route::::rt&#45;default&#45;vpc&#45;igw&#45;&gt;RouteTable::::rt&#45;default&#45;vpc -->
<g id="edge4" class="edge">
<title>Route::::rt&#45;default&#45;vpc&#45;igw&#45;&gt;RouteTable::::rt&#45;default&#45;vpc</title>
<path fill="none" stroke="#707070" d="M226.6,-231.2C244.48,-225.84 263.49,-219.91 281,-214 311.05,-203.85 343.65,-191.81 372.44,-180.81"/>
<polygon fill="#707070" stroke="#707070" points="373.97,-183.97 382.05,-177.12 371.46,-177.44 373.97,-183.97"/>
</g>
<!-- Subnet::::subnet&#45;a -->
<g id="node7" class="node">
<title>Subnet::::subnet&#45;a</title>
<polygon fill="#e5e5e5" stroke="#dddddd" points="787.5,-225 667.5,-225 667.5,-167 787.5,-167 787.5,-225"/>
<text text-anchor="start" x="679.5" y="-205.2" font-family="Helvetica,sans-Serif" font-weight="bold" font-size="16.00" fill="#707070">EC2::Subnet</text>
<text text-anchor="start" x="679.5" y="-180.2" font-family="Helvetica,sans-Serif" font-size="16.00" fill="#383838">subnet&#45;a</text>
</g>
<!-- RouteTable::::rt&#45;default&#45;vpc&#45;&gt;Subnet::::subnet&#45;a -->
<g id="edge8" class="edge">
<title>RouteTable::::rt&#45;default&#45;vpc&#45;&gt;Subnet::::subnet&#45;a</title>
<path fill="none" stroke="#707070" d="M532.07,-161.31C571.18,-168.29 618.79,-176.78 657.1,-183.62"/>
<polygon fill="#707070" stroke="#707070" points="656.68,-187.1 667.14,-185.41 657.91,-180.21 656.68,-187.1"/>
</g>
<!-- Subnet::::subnet&#45;b -->
<g id="node8" class="node">
<title>Subnet::::subnet&#45;b</title>
<polygon fill="#e5e5e5" stroke="#dddddd" points="787.5,-129 667.5,-129 667.5,-71 787.5,-71 787.5,-129"/>
<text text-anchor="start" x="679.5" y="-109.2" font-family="Helvetica,sans-Serif" font-weight="bold" font-size="16.00" fill="#707070">EC2::Subnet</text>
<text text-anchor="start" x="679.5" y="-84.2" font-family="Helvetica,sans-Serif" font-size="16.00" fill="#383838">subnet&#45;b</text>
</g>
<!-- RouteTable::::rt&#45;default&#45;vpc&#45;&gt;Subnet::::subnet&#45;b -->
<g id="edge7" class="edge">
<title>RouteTable::::rt&#45;default&#45;vpc&#45;&gt;Subnet::::subnet&#45;b</title>
<path fill="none" stroke="#707070" d="M532.07,-134.69C571.18,-127.71 618.79,-119.22 657.1,-112.38"/>
<polygon fill="#707070" stroke="#707070" points="657.91,-115.79 667.14,-110.59 656.68,-108.9 657.91,-115.79"/>
</g>
<!-- RouteTable::::rt&#45;default&#45;vpc&#45;&gt;Vpc::::vpc -->
<g id="edge6" class="edge">
<title>RouteTable::::rt&#45;default&#45;vpc&#45;&gt;Vpc::::vpc</title>
<path fill="none" stroke="#707070" d="M532.12,-141.37C606.79,-136.75 724.41,-134.97 823,-158 831.8,-160.05 840.79,-163.09 849.44,-166.57"/>
<polygon fill="#707070" stroke="#707070" points="848.11,-169.81 858.68,-170.49 850.84,-163.36 848.11,-169.81"/>
</g>
<!-- RouteTableAssociation::::rt&#45;assoc::rt&#45;default&#45;vpc::subnet&#45;a -->
<g id="node5" class="node">
<title>RouteTableAssociation::::rt&#45;assoc::rt&#45;default&#45;vpc::subnet&#45;a</title>
<polygon fill="#e5e5e5" stroke="#dddddd" points="281,-205 24,-205 24,-147 281,-147 281,-205"/>
<text text-anchor="start" x="36.5" y="-185.2" font-family="Helvetica,sans-Serif" font-weight="bold" font-size="16.00" fill="#707070">EC2::RouteTableAssociation</text>
<text text-anchor="start" x="36.5" y="-160.2" font-family="Helvetica,sans-Serif" font-size="16.00" fill="#383838">rt&#45;assoc::rt&#45;default&#45;vpc::subnet...</text>
</g>
<!-- RouteTableAssociation::::rt&#45;assoc::rt&#45;default&#45;vpc::subnet&#45;a&#45;&gt;RouteTable::::rt&#45;default&#45;vpc -->
<g id="edge9" class="edge">
<title>RouteTableAssociation::::rt&#45;assoc::rt&#45;default&#45;vpc::subnet&#45;a&#45;&gt;RouteTable::::rt&#45;default&#45;vpc</title>
<path fill="none" stroke="#707070" d="M281.14,-164.17C311.39,-161.36 342.92,-158.44 370.72,-155.86"/>
<polygon fill="#707070" stroke="#707070" points="371.15,-159.34 380.79,-154.93 370.51,-152.37 371.15,-159.34"/>
</g>
<!-- RouteTableAssociation::::rt&#45;assoc::rt&#45;default&#45;vpc::subnet&#45;a&#45;&gt;Subnet::::subnet&#45;a -->
<g id="edge10" class="edge">
<title>RouteTableAssociation::::rt&#45;assoc::rt&#45;default&#45;vpc::subnet&#45;a&#45;&gt;Subnet::::subnet&#45;a</title>
<path fill="none" stroke="#707070" d="M281.11,-184.26C293.24,-184.91 305.35,-185.5 317,-186 436.58,-191.12 575.92,-193.83 657.35,-195.08"/>
<polygon fill="#707070" stroke="#707070" points="657.43,-198.59 667.48,-195.24 657.53,-191.59 657.43,-198.59"/>
</g>
<!-- RouteTableAssociation::::rt&#45;assoc::rt&#45;default&#45;vpc::subnet&#45;b -->
<g id="node6" class="node">
<title>RouteTableAssociation::::rt&#45;assoc::rt&#45;default&#45;vpc::subnet&#45;b</title>
<polygon fill="#e5e5e5" stroke="#dddddd" points="281,-129 24,-129 24,-71 281,-71 281,-129"/>
<text text-anchor="start" x="36.5" y="-109.2" font-family="Helvetica,sans-Serif" font-weight="bold" font-size="16.00" fill="#707070">EC2::RouteTableAssociation</text>
<text text-anchor="start" x="36.5" y="-84.2" font-family="Helvetica,sans-Serif" font-size="16.00" fill="#383838">rt&#45;assoc::rt&#45;default&#45;vpc::subnet...</text>
</g>
<!-- RouteTableAssociation::::rt&#45;assoc::rt&#45;default&#45;vpc::subnet&#45;b&#45;&gt;RouteTable::::rt&#45;default&#45;vpc -->
<g id="edge11" class="edge">
<title>RouteTableAssociation::::rt&#45;assoc::rt&#45;default&#45;vpc::subnet&#45;b&#45;&gt;RouteTable::::rt&#45;default&#45;vpc</title>
<path fill="none" stroke="#707070" d="M281.14,-120.29C311.39,-125.1 342.92,-130.11 370.72,-134.53"/>
<polygon fill="#707070" stroke="#707070" points="370.36,-138.01 380.79,-136.13 371.46,-131.1 370.36,-138.01"/>
</g>
<!-- RouteTableAssociation::::rt&#45;assoc::rt&#45;default&#45;vpc::subnet&#45;b&#45;&gt;Subnet::::subnet&#45;b -->
<g id="edge12" class="edge">
<title>RouteTableAssociation::::rt&#45;assoc::rt&#45;default&#45;vpc::subnet&#45;b&#45;&gt;Subnet::::subnet&#45;b</title>
<path fill="none" stroke="#707070" d="M281.02,-100C397.04,-100 563.95,-100 657.04,-100"/>
<polygon fill="#707070" stroke="#707070" points="657.19,-103.5 667.19,-100 657.19,-96.5 657.19,-103.5"/>
</g>
<!-- Subnet::::subnet&#45;a&#45;&gt;Vpc::::vpc -->
<g id="edge13" class="edge">
<title>Subnet::::subnet&#45;a&#45;&gt;Vpc::::vpc</title>
<path fill="none" stroke="#707070" d="M787.93,-196C807.51,-196 829.23,-196 848.61,-196"/>
<polygon fill="#707070" stroke="#707070" points="848.81,-199.5 858.81,-196 848.81,-192.5 848.81,-199.5"/>
</g>
<!-- Subnet::::subnet&#45;b&#45;&gt;Vpc::::vpc -->
<g id="edge14" class="edge">
<title>Subnet::::subnet&#45;b&#45;&gt;Vpc::::vpc</title>
<path fill="none" stroke="#707070" d="M787.62,-125.32C799.49,-130.84 811.76,-136.88 823,-143 833.17,-148.55 843.77,-154.89 853.84,-161.21"/>
<polygon fill="#707070" stroke="#707070" points="852.22,-164.33 862.54,-166.75 855.98,-158.42 852.22,-164.33"/>
</g>
</g>
</svg>
