<?xml version="1.0" encoding="UTF-8" standalone="no"?>
<!DOCTYPE svg PUBLIC "-//W3C//DTD SVG 1.1//EN"
 "http://www.w3.org/Graphics/SVG/1.1/DTD/svg11.dtd">
<!-- Generated by graphviz version 7.1.0 (20230121.1956)
 -->
<!-- Title: graphname Pages: 1 -->
<svg width="1013pt" height="313pt"
 viewBox="0.00 0.00 1013.00 313.00" xmlns="http://www.w3.org/2000/svg" xmlns:xlink="http://www.w3.org/1999/xlink">
<g id="graph0" class="graph" transform="scale(1 1) rotate(0) translate(4 309)">
<title>graphname</title>
<polygon fill="#fafafa" stroke="none" points="-4,4 -4,-309 1009,-309 1009,4 -4,4"/>
<text text-anchor="start" x="383.5" y="-280.4" font-family="Helvetica,sans-Serif" font-weight="bold" font-size="22.00" fill="#383838">Project kinesis&#45;lambda</text>
<text text-anchor="start" x="498.5" y="-264.8" font-family="Helvetica,sans-Serif" font-size="14.00"> &#160;</text>
<text text-anchor="start" x="383.5" y="-243.2" font-family="Helvetica,sans-Serif" font-weight="bold" font-size="16.00" fill="#707070">Target Diagram</text>
<g id="clust1" class="cluster">
<title>cluster_aws</title>
<polygon fill="#f5f5f5" stroke="#f5f5f5" points="8,-8 8,-221 997,-221 997,-8 8,-8"/>
<text text-anchor="start" x="440.5" y="-23" font-family="Helvetica,sans-Serif" font-weight="bold" font-size="20.00" fill="#707070">Provider aws</text>
</g>
<g id="clust2" class="cluster">
<title>cluster_aws_</title>
<polygon fill="#eeeeee" stroke="#eeeeee" points="16,-54 16,-213 989,-213 989,-54 16,-54"/>
<text text-anchor="start" x="502.36" y="-58.3" font-family="Helvetica,sans-Serif" font-size="1.00" fill="#383838"> </text>
</g>
<!-- Role::sam&#45;app&#45;ApplicationFunctionRole&#45;YS9MK7MA96OX -->
<g id="node1" class="node">
<title>Role::sam&#45;app&#45;ApplicationFunctionRole&#45;YS9MK7MA96OX</title>
<polygon fill="#e5e5e5" stroke="#dddddd" points="981,-205 695,-205 695,-147 981,-147 981,-205"/>
<text text-anchor="start" x="707" y="-185.2" font-family="Helvetica,sans-Serif" font-weight="bold" font-size="16.00" fill="#707070">IAM::Role</text>
<text text-anchor="start" x="707" y="-160.2" font-family="Helvetica,sans-Serif" font-size="16.00" fill="#383838">sam&#45;app&#45;ApplicationFunctionRole&#45;...</text>
</g>
<!-- Stream::sam&#45;app&#45;KinesisStream&#45;YpZDFXzi0Z4z -->
<g id="node2" class="node">
<title>Stream::sam&#45;app&#45;KinesisStream&#45;YpZDFXzi0Z4z</title>
<polygon fill="#e5e5e5" stroke="#dddddd" points="659,-129 353,-129 353,-71 659,-71 659,-129"/>
<text text-anchor="start" x="365" y="-109.2" font-family="Helvetica,sans-Serif" font-weight="bold" font-size="16.00" fill="#707070">Kinesis::Stream</text>
<text text-anchor="start" x="365" y="-84.2" font-family="Helvetica,sans-Serif" font-size="16.00" fill="#383838">sam&#45;app&#45;KinesisStream&#45;YpZDFXzi0Z...</text>
</g>
<!-- EventSourceMapping::mapping::sam&#45;app&#45;ApplicationFunction&#45;HBClwcgvRw7Z::sam&#45;app&#45;KinesisStream&#45;YpZDFXzi0Z4z -->
<g id="node3" class="node">
<title>EventSourceMapping::mapping::sam&#45;app&#45;ApplicationFunction&#45;HBClwcgvRw7Z::sam&#45;app&#45;KinesisStream&#45;YpZDFXzi0Z4z</title>
<polygon fill="#e5e5e5" stroke="#dddddd" points="317,-167 24,-167 24,-109 317,-109 317,-167"/>
<text text-anchor="start" x="36.5" y="-147.2" font-family="Helvetica,sans-Serif" font-weight="bold" font-size="16.00" fill="#707070">Lambda::EventSourceMapping</text>
<text text-anchor="start" x="36.5" y="-122.2" font-family="Helvetica,sans-Serif" font-size="16.00" fill="#383838">mapping::sam&#45;app&#45;ApplicationFunc...</text>
</g>
<!-- EventSourceMapping::mapping::sam&#45;app&#45;ApplicationFunction&#45;HBClwcgvRw7Z::sam&#45;app&#45;KinesisStream&#45;YpZDFXzi0Z4z&#45;&gt;Stream::sam&#45;app&#45;KinesisStream&#45;YpZDFXzi0Z4z -->
<g id="edge2" class="edge">
<title>EventSourceMapping::mapping::sam&#45;app&#45;ApplicationFunction&#45;HBClwcgvRw7Z::sam&#45;app&#45;KinesisStream&#45;YpZDFXzi0Z4z&#45;&gt;Stream::sam&#45;app&#45;KinesisStream&#45;YpZDFXzi0Z4z</title>
<path fill="none" stroke="#707070" d="M317.29,-121.39C325.27,-120.48 333.32,-119.56 341.36,-118.65"/>
<polygon fill="#707070" stroke="#707070" points="341.66,-122.13 351.2,-117.52 340.87,-115.18 341.66,-122.13"/>
</g>
<!-- Function::sam&#45;app&#45;ApplicationFunction&#45;HBClwcgvRw7Z -->
<g id="node4" class="node">
<title>Function::sam&#45;app&#45;ApplicationFunction&#45;HBClwcgvRw7Z</title>
<polygon fill="#e5e5e5" stroke="#dddddd" points="651,-205 361,-205 361,-147 651,-147 651,-205"/>
<text text-anchor="start" x="373" y="-185.2" font-family="Helvetica,sans-Serif" font-weight="bold" font-size="16.00" fill="#707070">Lambda::Function</text>
<text text-anchor="start" x="373" y="-160.2" font-family="Helvetica,sans-Serif" font-size="16.00" fill="#383838">sam&#45;app&#45;ApplicationFunction&#45;HBCl...</text>
</g>
<!-- EventSourceMapping::mapping::sam&#45;app&#45;ApplicationFunction&#45;HBClwcgvRw7Z::sam&#45;app&#45;KinesisStream&#45;YpZDFXzi0Z4z&#45;&gt;Function::sam&#45;app&#45;ApplicationFunction&#45;HBClwcgvRw7Z -->
<g id="edge1" class="edge">
<title>EventSourceMapping::mapping::sam&#45;app&#45;ApplicationFunction&#45;HBClwcgvRw7Z::sam&#45;app&#45;KinesisStream&#45;YpZDFXzi0Z4z&#45;&gt;Function::sam&#45;app&#45;ApplicationFunction&#45;HBClwcgvRw7Z</title>
<path fill="none" stroke="#707070" d="M317.29,-154.61C327.96,-155.83 338.74,-157.06 349.46,-158.28"/>
<polygon fill="#707070" stroke="#707070" points="348.77,-161.72 359.1,-159.38 349.56,-154.77 348.77,-161.72"/>
</g>
<!-- Function::sam&#45;app&#45;ApplicationFunction&#45;HBClwcgvRw7Z&#45;&gt;Role::sam&#45;app&#45;ApplicationFunctionRole&#45;YS9MK7MA96OX -->
<g id="edge3" class="edge">
<title>Function::sam&#45;app&#45;ApplicationFunction&#45;HBClwcgvRw7Z&#45;&gt;Role::sam&#45;app&#45;ApplicationFunctionRole&#45;YS9MK7MA96OX</title>
<path fill="none" stroke="#707070" d="M651.26,-176C661.83,-176 672.52,-176 683.15,-176"/>
<polygon fill="#707070" stroke="#707070" points="683.13,-179.5 693.13,-176 683.13,-172.5 683.13,-179.5"/>
</g>
</g>
</svg>
