<?xml version="1.0" encoding="UTF-8" standalone="no"?>
<!DOCTYPE svg PUBLIC "-//W3C//DTD SVG 1.1//EN"
 "http://www.w3.org/Graphics/SVG/1.1/DTD/svg11.dtd">
<!-- Generated by graphviz version 2.44.1 (20200629.0846)
 -->
<!-- Title: graphname Pages: 1 -->
<svg width="234pt" height="183pt"
 viewBox="0.00 0.00 234.00 183.00" xmlns="http://www.w3.org/2000/svg" xmlns:xlink="http://www.w3.org/1999/xlink">
<g id="graph0" class="graph" transform="scale(1 1) rotate(0) translate(4 179)">
<title>graphname</title>
<polygon fill="white" stroke="transparent" points="-4,4 -4,-179 230,-179 230,4 -4,4"/>
<g id="clust1" class="cluster">
<title>cluster_aws</title>
<polygon fill="none" stroke="#383838" points="8,-8 8,-167 218,-167 218,-8 8,-8"/>
<text text-anchor="start" x="93.5" y="-148" font-family="Helvetica,sans-Serif" font-weight="bold" font-size="20.00" fill="#383838">aws</text>
</g>
<!-- KeyPair::kp -->
<g id="node1" class="node">
<title>KeyPair::kp</title>
<polygon fill="none" stroke="#383838" points="188.5,-63.5 127.5,-63.5 127.5,-16.5 188.5,-16.5 188.5,-63.5"/>
<text text-anchor="start" x="140" y="-48" font-family="Helvetica,sans-Serif" font-weight="bold" font-size="10.00" fill="#707070">KeyPair</text>
<text text-anchor="start" x="140" y="-27.6" font-family="Helvetica,sans-Serif" font-size="13.00" fill="#383838">kp</text>
</g>
<!-- ElasticIpAddress::ip&#45;webserver -->
<g id="node2" class="node">
<title>ElasticIpAddress::ip&#45;webserver</title>
<polygon fill="none" stroke="#383838" points="210,-128.5 106,-128.5 106,-81.5 210,-81.5 210,-128.5"/>
<text text-anchor="start" x="118" y="-113" font-family="Helvetica,sans-Serif" font-weight="bold" font-size="10.00" fill="#707070">ElasticIpAddress</text>
<text text-anchor="start" x="118" y="-92.6" font-family="Helvetica,sans-Serif" font-size="13.00" fill="#383838">ip&#45;webserver</text>
</g>
<!-- EC2::web -->
<g id="node3" class="node">
<title>EC2::web</title>
<polygon fill="none" stroke="#383838" points="70,-95.5 16,-95.5 16,-48.5 70,-48.5 70,-95.5"/>
<text text-anchor="start" x="31" y="-80" font-family="Helvetica,sans-Serif" font-weight="bold" font-size="10.00" fill="#707070">EC2</text>
<text text-anchor="start" x="31" y="-59.6" font-family="Helvetica,sans-Serif" font-size="13.00" fill="#383838">web</text>
</g>
<!-- EC2::web&#45;&gt;KeyPair::kp -->
<g id="edge1" class="edge">
<title>EC2::web&#45;&gt;KeyPair::kp</title>
<path fill="none" stroke="#383838" d="M70.21,-64.58C84.22,-60.61 101.76,-55.64 117.4,-51.21"/>
<polygon fill="#383838" stroke="#383838" points="118.68,-54.49 127.35,-48.4 116.77,-47.75 118.68,-54.49"/>
</g>
<!-- EC2::web&#45;&gt;ElasticIpAddress::ip&#45;webserver -->
<g id="edge2" class="edge">
<title>EC2::web&#45;&gt;ElasticIpAddress::ip&#45;webserver</title>
<path fill="none" stroke="#383838" d="M70.21,-79.65C77.97,-81.92 86.8,-84.5 95.8,-87.13"/>
<polygon fill="#383838" stroke="#383838" points="95,-90.54 105.58,-89.98 96.97,-83.82 95,-90.54"/>
</g>
</g>
</svg>
