<?xml version="1.0" encoding="UTF-8" standalone="no"?>
<!DOCTYPE svg PUBLIC "-//W3C//DTD SVG 1.1//EN"
 "http://www.w3.org/Graphics/SVG/1.1/DTD/svg11.dtd">
<!-- Generated by graphviz version 3.0.0 (20220226.1711)
 -->
<!-- Title: graphname Pages: 1 -->
<svg width="339pt" height="237pt"
 viewBox="0.00 0.00 339.00 237.00" xmlns="http://www.w3.org/2000/svg" xmlns:xlink="http://www.w3.org/1999/xlink">
<g id="graph0" class="graph" transform="scale(1 1) rotate(0) translate(4 233)">
<title>graphname</title>
<polygon fill="#fafafa" stroke="transparent" points="-4,4 -4,-233 335,-233 335,4 -4,4"/>
<text text-anchor="start" x="12.5" y="-204.4" font-family="Helvetica,sans-Serif" font-weight="bold" font-size="22.00" fill="#383838">Project origin&#45;access&#45;identity</text>
<text text-anchor="start" x="162" y="-188.8" font-family="Helvetica,sans-Serif" font-size="14.00"> &#160;</text>
<text text-anchor="start" x="12.5" y="-167.2" font-family="Helvetica,sans-Serif" font-weight="bold" font-size="16.00" fill="#707070">Target Diagram</text>
<g id="clust1" class="cluster">
<title>cluster_aws</title>
<polygon fill="#f5f5f5" stroke="#f5f5f5" points="13,-8 13,-145 318,-145 318,-8 13,-8"/>
<text text-anchor="start" x="103.5" y="-23" font-family="Helvetica,sans-Serif" font-weight="bold" font-size="20.00" fill="#707070">Provider aws</text>
</g>
<g id="clust2" class="cluster">
<title>cluster_aws_</title>
<polygon fill="#eeeeee" stroke="#eeeeee" points="21,-54 21,-137 310,-137 310,-54 21,-54"/>
<text text-anchor="start" x="165.36" y="-58.3" font-family="Helvetica,sans-Serif" font-size="1.00" fill="#383838"> </text>
</g>
<!-- OriginAccessIdentity::access&#45;identity&#45;cloudfront&#45;demo.grucloud.org.s3.us&#45;east&#45;1.amazonaws.com -->
<g id="node1" class="node">
<title>OriginAccessIdentity::access&#45;identity&#45;cloudfront&#45;demo.grucloud.org.s3.us&#45;east&#45;1.amazonaws.com</title>
<polygon fill="#e5e5e5" stroke="#dddddd" points="302,-129 29,-129 29,-71 302,-71 302,-129"/>
<text text-anchor="start" x="41.5" y="-109.2" font-family="Helvetica,sans-Serif" font-weight="bold" font-size="16.00" fill="#707070">OriginAccessIdentity</text>
<text text-anchor="start" x="41.5" y="-84.2" font-family="Helvetica,sans-Serif" font-size="16.00" fill="#383838">access&#45;identity&#45;cloudfront&#45;demo....</text>
</g>
</g>
</svg>
