<?xml version="1.0" encoding="UTF-8" standalone="no"?><svg xmlns="http://www.w3.org/2000/svg" xmlns:xlink="http://www.w3.org/1999/xlink" contentScriptType="application/ecmascript" contentStyleType="text/css" height="511px" preserveAspectRatio="none" style="width:511px;height:511px;background:#FFFFFF;" version="1.1" viewBox="0 0 511 511" width="511px" zoomAndPan="magnify"><defs><filter height="300%" id="fedpf41dvpjm5" width="300%" x="-1" y="-1"><feGaussianBlur result="blurOut" stdDeviation="2.0"/><feColorMatrix in="blurOut" result="blurOut2" type="matrix" values="0 0 0 0 0 0 0 0 0 0 0 0 0 0 0 0 0 0 .4 0"/><feOffset dx="4.0" dy="4.0" in="blurOut2" result="blurOut3"/><feBlend in="SourceGraphic" in2="blurOut3" mode="normal"/></filter></defs><g><rect fill="none" height="26.4883" style="stroke:none;stroke-width:1.0;" width="299" x="76" y="15"/><text fill="#000000" font-family="sans-serif" font-size="14" font-weight="bold" lengthAdjust="spacing" textLength="289" x="81" y="33.5352">Resources for project code-pipeline-ecr</text><rect fill="#F8F8F8" filter="url(#fedpf41dvpjm5)" height="36.4883" rx="12.5" ry="12.5" style="stroke:#383838;stroke-width:1.5;" width="52" x="10" y="255.1973"/><text fill="#000000" font-family="sans-serif" font-size="14" lengthAdjust="spacing" textLength="32" x="20" y="278.7324">Infra</text><rect fill="#F8F8F8" filter="url(#fedpf41dvpjm5)" height="36.4883" rx="12.5" ry="12.5" style="stroke:#383838;stroke-width:1.5;" width="46" x="112" y="255.1973"/><text fill="#000000" font-family="sans-serif" font-size="14" lengthAdjust="spacing" textLength="26" x="122" y="278.7324">aws</text><rect fill="#F8F8F8" filter="url(#fedpf41dvpjm5)" height="36.4883" rx="12.5" ry="12.5" style="stroke:#383838;stroke-width:1.5;" width="146" x="208" y="85.7324"/><text fill="#000000" font-family="sans-serif" font-size="14" lengthAdjust="spacing" textLength="126" x="218" y="109.2676">CloudWatchEvents</text><rect fill="#F8F8F8" filter="url(#fedpf41dvpjm5)" height="36.4883" rx="12.5" ry="12.5" style="stroke:#383838;stroke-width:1.5;" width="73" x="404" y="57.4883"/><text fill="#000000" font-family="sans-serif" font-size="14" lengthAdjust="spacing" textLength="53" x="414" y="81.0234">Rule (1)</text><path d="M354,103.9766 L364,103.9766 C379,103.9766 379,75.7324 394,75.7324 L404,75.7324 " fill="none" style="stroke:#383838;stroke-width:1.0;"/><rect fill="#F8F8F8" filter="url(#fedpf41dvpjm5)" height="36.4883" rx="12.5" ry="12.5" style="stroke:#383838;stroke-width:1.5;" width="88" x="404" y="113.9766"/><text fill="#000000" font-family="sans-serif" font-size="14" lengthAdjust="spacing" textLength="68" x="414" y="137.5117">Target (1)</text><path d="M354,103.9766 L364,103.9766 C379,103.9766 379,132.2207 394,132.2207 L404,132.2207 " fill="none" style="stroke:#383838;stroke-width:1.0;"/><path d="M158,273.4414 L168,273.4414 C183,273.4414 183,103.9766 198,103.9766 L208,103.9766 " fill="none" style="stroke:#383838;stroke-width:1.0;"/><rect fill="#F8F8F8" filter="url(#fedpf41dvpjm5)" height="36.4883" rx="12.5" ry="12.5" style="stroke:#383838;stroke-width:1.5;" width="90" x="208" y="170.4648"/><text fill="#000000" font-family="sans-serif" font-size="14" lengthAdjust="spacing" textLength="70" x="218" y="194">CodeBuild</text><rect fill="#F8F8F8" filter="url(#fedpf41dvpjm5)" height="36.4883" rx="12.5" ry="12.5" style="stroke:#383838;stroke-width:1.5;" width="90" x="348" y="170.4648"/><text fill="#000000" font-family="sans-serif" font-size="14" lengthAdjust="spacing" textLength="70" x="358" y="194">Project (1)</text><path d="M298,188.709 L308,188.709 C323,188.709 323,188.709 338,188.709 L348,188.709 " fill="none" style="stroke:#383838;stroke-width:1.0;"/><path d="M158,273.4414 L168,273.4414 C183,273.4414 183,188.709 198,188.709 L208,188.709 " fill="none" style="stroke:#383838;stroke-width:1.0;"/><rect fill="#F8F8F8" filter="url(#fedpf41dvpjm5)" height="36.4883" rx="12.5" ry="12.5" style="stroke:#383838;stroke-width:1.5;" width="110" x="208" y="226.9531"/><text fill="#000000" font-family="sans-serif" font-size="14" lengthAdjust="spacing" textLength="90" x="218" y="250.4883">CodePipeline</text><rect fill="#F8F8F8" filter="url(#fedpf41dvpjm5)" height="36.4883" rx="12.5" ry="12.5" style="stroke:#383838;stroke-width:1.5;" width="97" x="368" y="226.9531"/><text fill="#000000" font-family="sans-serif" font-size="14" lengthAdjust="spacing" textLength="77" x="378" y="250.4883">Pipeline (1)</text><path d="M318,245.1973 L328,245.1973 C343,245.1973 343,245.1973 358,245.1973 L368,245.1973 " fill="none" style="stroke:#383838;stroke-width:1.0;"/><path d="M158,273.4414 L168,273.4414 C183,273.4414 183,245.1973 198,245.1973 L208,245.1973 " fill="none" style="stroke:#383838;stroke-width:1.0;"/><rect fill="#F8F8F8" filter="url(#fedpf41dvpjm5)" height="36.4883" rx="12.5" ry="12.5" style="stroke:#383838;stroke-width:1.5;" width="47" x="208" y="283.4414"/><text fill="#000000" font-family="sans-serif" font-size="14" lengthAdjust="spacing" textLength="27" x="218" y="306.9766">ECR</text><rect fill="#F8F8F8" filter="url(#fedpf41dvpjm5)" height="36.4883" rx="12.5" ry="12.5" style="stroke:#383838;stroke-width:1.5;" width="116" x="305" y="283.4414"/><text fill="#000000" font-family="sans-serif" font-size="14" lengthAdjust="spacing" textLength="96" x="315" y="306.9766">Repository (1)</text><path d="M255,301.6855 L265,301.6855 C280,301.6855 280,301.6855 295,301.6855 L305,301.6855 " fill="none" style="stroke:#383838;stroke-width:1.0;"/><path d="M158,273.4414 L168,273.4414 C183,273.4414 183,301.6855 198,301.6855 L208,301.6855 " fill="none" style="stroke:#383838;stroke-width:1.0;"/><rect fill="#F8F8F8" filter="url(#fedpf41dvpjm5)" height="36.4883" rx="12.5" ry="12.5" style="stroke:#383838;stroke-width:1.5;" width="46" x="208" y="368.1738"/><text fill="#000000" font-family="sans-serif" font-size="14" lengthAdjust="spacing" textLength="26" x="218" y="391.709">IAM</text><rect fill="#F8F8F8" filter="url(#fedpf41dvpjm5)" height="36.4883" rx="12.5" ry="12.5" style="stroke:#383838;stroke-width:1.5;" width="73" x="304" y="339.9297"/><text fill="#000000" font-family="sans-serif" font-size="14" lengthAdjust="spacing" textLength="53" x="314" y="363.4648">Role (3)</text><path d="M254,386.418 L264,386.418 C279,386.418 279,358.1738 294,358.1738 L304,358.1738 " fill="none" style="stroke:#383838;stroke-width:1.0;"/><rect fill="#F8F8F8" filter="url(#fedpf41dvpjm5)" height="36.4883" rx="12.5" ry="12.5" style="stroke:#383838;stroke-width:1.5;" width="82" x="304" y="396.418"/><text fill="#000000" font-family="sans-serif" font-size="14" lengthAdjust="spacing" textLength="62" x="314" y="419.9531">Policy (3)</text><path d="M254,386.418 L264,386.418 C279,386.418 279,414.6621 294,414.6621 L304,414.6621 " fill="none" style="stroke:#383838;stroke-width:1.0;"/><path d="M158,273.4414 L168,273.4414 C183,273.4414 183,386.418 198,386.418 L208,386.418 " fill="none" style="stroke:#383838;stroke-width:1.0;"/><rect fill="#F8F8F8" filter="url(#fedpf41dvpjm5)" height="36.4883" rx="12.5" ry="12.5" style="stroke:#383838;stroke-width:1.5;" width="37" x="208" y="452.9063"/><text fill="#000000" font-family="sans-serif" font-size="14" lengthAdjust="spacing" textLength="17" x="218" y="476.4414">S3</text><rect fill="#F8F8F8" filter="url(#fedpf41dvpjm5)" height="36.4883" rx="12.5" ry="12.5" style="stroke:#383838;stroke-width:1.5;" width="88" x="295" y="452.9063"/><text fill="#000000" font-family="sans-serif" font-size="14" lengthAdjust="spacing" textLength="68" x="305" y="476.4414">Bucket (1)</text><path d="M245,471.1504 L255,471.1504 C270,471.1504 270,471.1504 285,471.1504 L295,471.1504 " fill="none" style="stroke:#383838;stroke-width:1.0;"/><path d="M158,273.4414 L168,273.4414 C183,273.4414 183,471.1504 198,471.1504 L208,471.1504 " fill="none" style="stroke:#383838;stroke-width:1.0;"/><path d="M62,273.4414 L72,273.4414 C87,273.4414 87,273.4414 102,273.4414 L112,273.4414 " fill="none" style="stroke:#383838;stroke-width:1.0;"/><!--MD5=[29dc8a45c1b78260577c2668cd803e09]
@startmindmap
title Resources for project code-pipeline-ecr
skinparam monochrome true
+ Infra
++ aws
+++ CloudWatchEvents
++++ Rule (1)
++++ Target (1)
+++ CodeBuild
++++ Project (1)
+++ CodePipeline
++++ Pipeline (1)
+++ ECR
++++ Repository (1)
+++ IAM
++++ Role (3)
++++ Policy (3)
+++ S3
++++ Bucket (1)
@endmindmap

PlantUML version 1.2021.8(Sat Jun 26 10:20:59 CEST 2021)
(GPL source distribution)
Java Runtime: OpenJDK Runtime Environment
JVM: OpenJDK 64-Bit Server VM
Default Encoding: UTF-8
Language: en
Country: GB
--></g></svg>