<?xml version="1.0" encoding="UTF-8" standalone="no"?><svg xmlns="http://www.w3.org/2000/svg" xmlns:xlink="http://www.w3.org/1999/xlink" contentScriptType="application/ecmascript" contentStyleType="text/css" height="624px" preserveAspectRatio="none" style="width:435px;height:624px;background:#FFFFFF;" version="1.1" viewBox="0 0 435 624" width="435px" zoomAndPan="magnify"><defs><filter height="300%" id="f2m7ak1811hys" width="300%" x="-1" y="-1"><feGaussianBlur result="blurOut" stdDeviation="2.0"/><feColorMatrix in="blurOut" result="blurOut2" type="matrix" values="0 0 0 0 0 0 0 0 0 0 0 0 0 0 0 0 0 0 .4 0"/><feOffset dx="4.0" dy="4.0" in="blurOut2" result="blurOut3"/><feBlend in="SourceGraphic" in2="blurOut3" mode="normal"/></filter></defs><g><rect fill="none" height="26.4883" style="stroke:none;stroke-width:1.0;" width="381" x="15" y="15"/><text fill="#000000" font-family="sans-serif" font-size="14" font-weight="bold" lengthAdjust="spacing" textLength="371" x="20" y="33.5352">Resources for project K8S WebUiDashboard Module</text><rect fill="#F8F8F8" filter="url(#f2m7ak1811hys)" height="36.4883" rx="12.5" ry="12.5" style="stroke:#383838;stroke-width:1.5;" width="52" x="46" y="311.6855"/><text fill="#000000" font-family="sans-serif" font-size="14" lengthAdjust="spacing" textLength="32" x="56" y="335.2207">Infra</text><rect fill="#F8F8F8" filter="url(#f2m7ak1811hys)" height="36.4883" rx="12.5" ry="12.5" style="stroke:#383838;stroke-width:1.5;" width="44" x="148" y="311.6855"/><text fill="#000000" font-family="sans-serif" font-size="14" lengthAdjust="spacing" textLength="24" x="158" y="335.2207">k8s</text><rect fill="#F8F8F8" filter="url(#f2m7ak1811hys)" height="36.4883" rx="12.5" ry="12.5" style="stroke:#383838;stroke-width:1.5;" width="147" x="242" y="57.4883"/><text fill="#000000" font-family="sans-serif" font-size="14" lengthAdjust="spacing" textLength="127" x="252" y="81.0234">ServiceAccount (2)</text><path d="M192,329.9297 L202,329.9297 C217,329.9297 217,75.7324 232,75.7324 L242,75.7324 " fill="none" style="stroke:#383838;stroke-width:1.0;"/><rect fill="#F8F8F8" filter="url(#f2m7ak1811hys)" height="36.4883" rx="12.5" ry="12.5" style="stroke:#383838;stroke-width:1.5;" width="174" x="242" y="113.9766"/><text fill="#000000" font-family="sans-serif" font-size="14" lengthAdjust="spacing" textLength="154" x="252" y="137.5117">ClusterRoleBinding (2)</text><path d="M192,329.9297 L202,329.9297 C217,329.9297 217,132.2207 232,132.2207 L242,132.2207 " fill="none" style="stroke:#383838;stroke-width:1.0;"/><rect fill="#F8F8F8" filter="url(#f2m7ak1811hys)" height="36.4883" rx="12.5" ry="12.5" style="stroke:#383838;stroke-width:1.5;" width="121" x="242" y="170.4648"/><text fill="#000000" font-family="sans-serif" font-size="14" lengthAdjust="spacing" textLength="101" x="252" y="194">Namespace (1)</text><path d="M192,329.9297 L202,329.9297 C217,329.9297 217,188.709 232,188.709 L242,188.709 " fill="none" style="stroke:#383838;stroke-width:1.0;"/><rect fill="#F8F8F8" filter="url(#f2m7ak1811hys)" height="36.4883" rx="12.5" ry="12.5" style="stroke:#383838;stroke-width:1.5;" width="91" x="242" y="226.9531"/><text fill="#000000" font-family="sans-serif" font-size="14" lengthAdjust="spacing" textLength="71" x="252" y="250.4883">Service (2)</text><path d="M192,329.9297 L202,329.9297 C217,329.9297 217,245.1973 232,245.1973 L242,245.1973 " fill="none" style="stroke:#383838;stroke-width:1.0;"/><rect fill="#F8F8F8" filter="url(#f2m7ak1811hys)" height="36.4883" rx="12.5" ry="12.5" style="stroke:#383838;stroke-width:1.5;" width="85" x="242" y="283.4414"/><text fill="#000000" font-family="sans-serif" font-size="14" lengthAdjust="spacing" textLength="65" x="252" y="306.9766">Secret (3)</text><path d="M192,329.9297 L202,329.9297 C217,329.9297 217,301.6855 232,301.6855 L242,301.6855 " fill="none" style="stroke:#383838;stroke-width:1.0;"/><rect fill="#F8F8F8" filter="url(#f2m7ak1811hys)" height="36.4883" rx="12.5" ry="12.5" style="stroke:#383838;stroke-width:1.5;" width="118" x="242" y="339.9297"/><text fill="#000000" font-family="sans-serif" font-size="14" lengthAdjust="spacing" textLength="98" x="252" y="363.4648">ConfigMap (1)</text><path d="M192,329.9297 L202,329.9297 C217,329.9297 217,358.1738 232,358.1738 L242,358.1738 " fill="none" style="stroke:#383838;stroke-width:1.0;"/><rect fill="#F8F8F8" filter="url(#f2m7ak1811hys)" height="36.4883" rx="12.5" ry="12.5" style="stroke:#383838;stroke-width:1.5;" width="73" x="242" y="396.418"/><text fill="#000000" font-family="sans-serif" font-size="14" lengthAdjust="spacing" textLength="53" x="252" y="419.9531">Role (1)</text><path d="M192,329.9297 L202,329.9297 C217,329.9297 217,414.6621 232,414.6621 L242,414.6621 " fill="none" style="stroke:#383838;stroke-width:1.0;"/><rect fill="#F8F8F8" filter="url(#f2m7ak1811hys)" height="36.4883" rx="12.5" ry="12.5" style="stroke:#383838;stroke-width:1.5;" width="122" x="242" y="452.9063"/><text fill="#000000" font-family="sans-serif" font-size="14" lengthAdjust="spacing" textLength="102" x="252" y="476.4414">ClusterRole (1)</text><path d="M192,329.9297 L202,329.9297 C217,329.9297 217,471.1504 232,471.1504 L242,471.1504 " fill="none" style="stroke:#383838;stroke-width:1.0;"/><rect fill="#F8F8F8" filter="url(#f2m7ak1811hys)" height="36.4883" rx="12.5" ry="12.5" style="stroke:#383838;stroke-width:1.5;" width="125" x="242" y="509.3945"/><text fill="#000000" font-family="sans-serif" font-size="14" lengthAdjust="spacing" textLength="105" x="252" y="532.9297">RoleBinding (1)</text><path d="M192,329.9297 L202,329.9297 C217,329.9297 217,527.6387 232,527.6387 L242,527.6387 " fill="none" style="stroke:#383838;stroke-width:1.0;"/><rect fill="#F8F8F8" filter="url(#f2m7ak1811hys)" height="36.4883" rx="12.5" ry="12.5" style="stroke:#383838;stroke-width:1.5;" width="125" x="242" y="565.8828"/><text fill="#000000" font-family="sans-serif" font-size="14" lengthAdjust="spacing" textLength="105" x="252" y="589.418">Deployment (2)</text><path d="M192,329.9297 L202,329.9297 C217,329.9297 217,584.127 232,584.127 L242,584.127 " fill="none" style="stroke:#383838;stroke-width:1.0;"/><path d="M98,329.9297 L108,329.9297 C123,329.9297 123,329.9297 138,329.9297 L148,329.9297 " fill="none" style="stroke:#383838;stroke-width:1.0;"/><!--MD5=[24031fe20b704b4ed7b4601ca221240c]
@startmindmap
title Resources for project K8S WebUiDashboard Module
skinparam monochrome true
+ Infra
++ k8s
+++ ServiceAccount (2)
+++ ClusterRoleBinding (2)
+++ Namespace (1)
+++ Service (2)
+++ Secret (3)
+++ ConfigMap (1)
+++ Role (1)
+++ ClusterRole (1)
+++ RoleBinding (1)
+++ Deployment (2)
@endmindmap

PlantUML version 1.2021.8(Sat Jun 26 05:20:59 BRT 2021)
(GPL source distribution)
Java Runtime: OpenJDK Runtime Environment
JVM: OpenJDK 64-Bit Server VM
Default Encoding: UTF-8
Language: en
Country: GB
--></g></svg>