<?xml version="1.0" encoding="UTF-8" standalone="no"?>
<!DOCTYPE svg PUBLIC "-//W3C//DTD SVG 1.1//EN"
 "http://www.w3.org/Graphics/SVG/1.1/DTD/svg11.dtd">
<!-- Generated by graphviz version 3.0.0 (20220226.1711)
 -->
<!-- Title: graphname Pages: 1 -->
<svg width="725pt" height="541pt"
 viewBox="0.00 0.00 725.00 541.00" xmlns="http://www.w3.org/2000/svg" xmlns:xlink="http://www.w3.org/1999/xlink">
<g id="graph0" class="graph" transform="scale(1 1) rotate(0) translate(4 537)">
<title>graphname</title>
<polygon fill="#fafafa" stroke="transparent" points="-4,4 -4,-537 721,-537 721,4 -4,4"/>
<text text-anchor="start" x="160.5" y="-508.4" font-family="Helvetica,sans-Serif" font-weight="bold" font-size="22.00" fill="#383838">Project xray&#45;lambdalayers&#45;cdk&#45;python</text>
<text text-anchor="start" x="355" y="-492.8" font-family="Helvetica,sans-Serif" font-size="14.00"> &#160;</text>
<text text-anchor="start" x="160.5" y="-471.2" font-family="Helvetica,sans-Serif" font-weight="bold" font-size="16.00" fill="#707070">Target Diagram</text>
<g id="clust1" class="cluster">
<title>cluster_aws</title>
<polygon fill="#f5f5f5" stroke="#f5f5f5" points="8,-8 8,-449 709,-449 709,-8 8,-8"/>
<text text-anchor="start" x="296.5" y="-23" font-family="Helvetica,sans-Serif" font-weight="bold" font-size="20.00" fill="#707070">Provider aws</text>
</g>
<g id="clust2" class="cluster">
<title>cluster_aws_</title>
<polygon fill="#eeeeee" stroke="#eeeeee" points="16,-54 16,-441 701,-441 701,-54 16,-54"/>
<text text-anchor="start" x="358.36" y="-58.3" font-family="Helvetica,sans-Serif" font-size="1.00" fill="#383838"> </text>
</g>
<!-- LogGroup::/aws/lambda/LambdaLayerXRayStackStack&#45;BucketNotificationsHandl&#45;1XcDZ1JQT7M7 -->
<g id="node1" class="node">
<title>LogGroup::/aws/lambda/LambdaLayerXRayStackStack&#45;BucketNotificationsHandl&#45;1XcDZ1JQT7M7</title>
<polygon fill="#e5e5e5" stroke="#dddddd" points="336,-433 24,-433 24,-375 336,-375 336,-433"/>
<text text-anchor="start" x="36" y="-413.2" font-family="Helvetica,sans-Serif" font-weight="bold" font-size="16.00" fill="#707070">LogGroup</text>
<text text-anchor="start" x="36" y="-388.2" font-family="Helvetica,sans-Serif" font-size="16.00" fill="#383838">/aws/lambda/LambdaLayerXRayStack...</text>
</g>
<!-- Role::LambdaLayerXRayStackStack&#45;BucketNotificationsHandl&#45;L16QD0UXFZOK -->
<g id="node2" class="node">
<title>Role::LambdaLayerXRayStackStack&#45;BucketNotificationsHandl&#45;L16QD0UXFZOK</title>
<polygon fill="#e5e5e5" stroke="#dddddd" points="688.5,-357 376.5,-357 376.5,-299 688.5,-299 688.5,-357"/>
<text text-anchor="start" x="388.5" y="-337.2" font-family="Helvetica,sans-Serif" font-weight="bold" font-size="16.00" fill="#707070">Role</text>
<text text-anchor="start" x="388.5" y="-312.2" font-family="Helvetica,sans-Serif" font-size="16.00" fill="#383838">LambdaLayerXRayStackStack&#45;Bucket...</text>
</g>
<!-- Role::LambdaLayerXRayStackStack&#45;Lambdarole1548FC71&#45;4BIZWD58MRGT -->
<g id="node3" class="node">
<title>Role::LambdaLayerXRayStackStack&#45;Lambdarole1548FC71&#45;4BIZWD58MRGT</title>
<polygon fill="#e5e5e5" stroke="#dddddd" points="693,-205 372,-205 372,-147 693,-147 693,-205"/>
<text text-anchor="start" x="384.5" y="-185.2" font-family="Helvetica,sans-Serif" font-weight="bold" font-size="16.00" fill="#707070">Role</text>
<text text-anchor="start" x="384.5" y="-160.2" font-family="Helvetica,sans-Serif" font-size="16.00" fill="#383838">LambdaLayerXRayStackStack&#45;Lambda...</text>
</g>
<!-- Layer::xraylayerF67027DB -->
<g id="node4" class="node">
<title>Layer::xraylayerF67027DB</title>
<polygon fill="#e5e5e5" stroke="#dddddd" points="616,-281 449,-281 449,-223 616,-223 616,-281"/>
<text text-anchor="start" x="461.5" y="-261.2" font-family="Helvetica,sans-Serif" font-weight="bold" font-size="16.00" fill="#707070">Layer</text>
<text text-anchor="start" x="461.5" y="-236.2" font-family="Helvetica,sans-Serif" font-size="16.00" fill="#383838">xraylayerF67027DB</text>
</g>
<!-- Function::LambdaLayerXRayStackStack&#45;BucketNotificationsHandl&#45;1XcDZ1JQT7M7 -->
<g id="node5" class="node">
<title>Function::LambdaLayerXRayStackStack&#45;BucketNotificationsHandl&#45;1XcDZ1JQT7M7</title>
<polygon fill="#e5e5e5" stroke="#dddddd" points="336,-357 24,-357 24,-299 336,-299 336,-357"/>
<text text-anchor="start" x="36" y="-337.2" font-family="Helvetica,sans-Serif" font-weight="bold" font-size="16.00" fill="#707070">Function</text>
<text text-anchor="start" x="36" y="-312.2" font-family="Helvetica,sans-Serif" font-size="16.00" fill="#383838">LambdaLayerXRayStackStack&#45;Bucket...</text>
</g>
<!-- Function::LambdaLayerXRayStackStack&#45;BucketNotificationsHandl&#45;1XcDZ1JQT7M7&#45;&gt;Role::LambdaLayerXRayStackStack&#45;BucketNotificationsHandl&#45;L16QD0UXFZOK -->
<g id="edge1" class="edge">
<title>Function::LambdaLayerXRayStackStack&#45;BucketNotificationsHandl&#45;1XcDZ1JQT7M7&#45;&gt;Role::LambdaLayerXRayStackStack&#45;BucketNotificationsHandl&#45;L16QD0UXFZOK</title>
<path fill="none" stroke="#707070" d="M336.01,-328C346.04,-328 356.17,-328 366.24,-328"/>
<polygon fill="#707070" stroke="#707070" points="366.3,-331.5 376.3,-328 366.3,-324.5 366.3,-331.5"/>
</g>
<!-- Function::xray&#45;handler -->
<g id="node6" class="node">
<title>Function::xray&#45;handler</title>
<polygon fill="#e5e5e5" stroke="#dddddd" points="237.5,-281 122.5,-281 122.5,-223 237.5,-223 237.5,-281"/>
<text text-anchor="start" x="135" y="-261.2" font-family="Helvetica,sans-Serif" font-weight="bold" font-size="16.00" fill="#707070">Function</text>
<text text-anchor="start" x="135" y="-236.2" font-family="Helvetica,sans-Serif" font-size="16.00" fill="#383838">xray&#45;handler</text>
</g>
<!-- Function::xray&#45;handler&#45;&gt;Role::LambdaLayerXRayStackStack&#45;Lambdarole1548FC71&#45;4BIZWD58MRGT -->
<g id="edge3" class="edge">
<title>Function::xray&#45;handler&#45;&gt;Role::LambdaLayerXRayStackStack&#45;Lambdarole1548FC71&#45;4BIZWD58MRGT</title>
<path fill="none" stroke="#707070" d="M237.7,-239.7C278.38,-230.89 335.09,-218.59 387.85,-207.15"/>
<polygon fill="#707070" stroke="#707070" points="388.62,-210.56 397.65,-205.02 387.14,-203.72 388.62,-210.56"/>
</g>
<!-- Function::xray&#45;handler&#45;&gt;Layer::xraylayerF67027DB -->
<g id="edge2" class="edge">
<title>Function::xray&#45;handler&#45;&gt;Layer::xraylayerF67027DB</title>
<path fill="none" stroke="#707070" d="M237.7,-252C291.96,-252 374.75,-252 438.63,-252"/>
<polygon fill="#707070" stroke="#707070" points="438.71,-255.5 448.71,-252 438.71,-248.5 438.71,-255.5"/>
</g>
<!-- Bucket::paperino&#45;thumbnail&#45;upload&#45;372 -->
<g id="node7" class="node">
<title>Bucket::paperino&#45;thumbnail&#45;upload&#45;372</title>
<polygon fill="#e5e5e5" stroke="#dddddd" points="305,-205 55,-205 55,-147 305,-147 305,-205"/>
<text text-anchor="start" x="67" y="-185.2" font-family="Helvetica,sans-Serif" font-weight="bold" font-size="16.00" fill="#707070">Bucket</text>
<text text-anchor="start" x="67" y="-160.2" font-family="Helvetica,sans-Serif" font-size="16.00" fill="#383838">paperino&#45;thumbnail&#45;upload&#45;372</text>
</g>
<!-- Bucket::paperino&#45;thumbnail&#45;upload&#45;372&#45;resized -->
<g id="node8" class="node">
<title>Bucket::paperino&#45;thumbnail&#45;upload&#45;372&#45;resized</title>
<polygon fill="#e5e5e5" stroke="#dddddd" points="321.5,-129 38.5,-129 38.5,-71 321.5,-71 321.5,-129"/>
<text text-anchor="start" x="51" y="-109.2" font-family="Helvetica,sans-Serif" font-weight="bold" font-size="16.00" fill="#707070">Bucket</text>
<text text-anchor="start" x="51" y="-84.2" font-family="Helvetica,sans-Serif" font-size="16.00" fill="#383838">paperino&#45;thumbnail&#45;upload&#45;372&#45;re...</text>
</g>
</g>
</svg>
