<?xml version="1.0" encoding="UTF-8" standalone="no"?>
<!DOCTYPE svg PUBLIC "-//W3C//DTD SVG 1.1//EN"
 "http://www.w3.org/Graphics/SVG/1.1/DTD/svg11.dtd">
<!-- Generated by graphviz version 7.1.0 (20230121.1956)
 -->
<!-- Title: graphname Pages: 1 -->
<svg width="844pt" height="505pt"
 viewBox="0.00 0.00 844.00 505.00" xmlns="http://www.w3.org/2000/svg" xmlns:xlink="http://www.w3.org/1999/xlink">
<g id="graph0" class="graph" transform="scale(1 1) rotate(0) translate(4 501)">
<title>graphname</title>
<polygon fill="#fafafa" stroke="none" points="-4,4 -4,-501 840,-501 840,4 -4,4"/>
<text text-anchor="start" x="306" y="-472.4" font-family="Helvetica,sans-Serif" font-weight="bold" font-size="22.00" fill="#383838">Project appmesh&#45;ram</text>
<text text-anchor="start" x="414" y="-456.8" font-family="Helvetica,sans-Serif" font-size="14.00"> &#160;</text>
<text text-anchor="start" x="306" y="-435.2" font-family="Helvetica,sans-Serif" font-weight="bold" font-size="16.00" fill="#707070">Target Diagram</text>
<g id="clust1" class="cluster">
<title>cluster_aws&#45;primary</title>
<polygon fill="#f5f5f5" stroke="#f5f5f5" points="8,-8 8,-413 828,-413 828,-8 8,-8"/>
<text text-anchor="start" x="316" y="-23" font-family="Helvetica,sans-Serif" font-weight="bold" font-size="20.00" fill="#707070">Provider aws&#45;primary</text>
</g>
<g id="clust2" class="cluster">
<title>cluster_aws&#45;primary_</title>
<polygon fill="#eeeeee" stroke="#eeeeee" points="16,-54 16,-405 820,-405 820,-54 16,-54"/>
<text text-anchor="start" x="417.86" y="-58.3" font-family="Helvetica,sans-Serif" font-size="1.00" fill="#383838"> </text>
</g>
<!-- Mesh::my&#45;mesh -->
<g id="node1" class="node">
<title>Mesh::my&#45;mesh</title>
<polygon fill="#e5e5e5" stroke="#dddddd" points="792,-301 644,-301 644,-243 792,-243 792,-301"/>
<text text-anchor="start" x="656" y="-281.2" font-family="Helvetica,sans-Serif" font-weight="bold" font-size="16.00" fill="#707070">AppMesh::Mesh</text>
<text text-anchor="start" x="656" y="-256.2" font-family="Helvetica,sans-Serif" font-size="16.00" fill="#383838">my&#45;mesh</text>
</g>
<!-- Route::my&#45;mesh::my&#45;router::my&#45;route -->
<g id="node2" class="node">
<title>Route::my&#45;mesh::my&#45;router::my&#45;route</title>
<polygon fill="#e5e5e5" stroke="#dddddd" points="266,-380 24,-380 24,-322 266,-322 266,-380"/>
<text text-anchor="start" x="36" y="-360.2" font-family="Helvetica,sans-Serif" font-weight="bold" font-size="16.00" fill="#707070">AppMesh::Route</text>
<text text-anchor="start" x="36" y="-335.2" font-family="Helvetica,sans-Serif" font-size="16.00" fill="#383838">my&#45;mesh::my&#45;router::my&#45;route</text>
</g>
<!-- Route::my&#45;mesh::my&#45;router::my&#45;route&#45;&gt;Mesh::my&#45;mesh -->
<g id="edge1" class="edge">
<title>Route::my&#45;mesh::my&#45;router::my&#45;route&#45;&gt;Mesh::my&#45;mesh</title>
<path fill="none" stroke="#707070" d="M237.26,-380.47C328.95,-405.03 472.81,-429.6 588,-386 628.1,-370.82 663.77,-336.85 687.38,-309.92"/>
<polygon fill="#707070" stroke="#707070" points="689.8,-312.48 693.63,-302.6 684.48,-307.93 689.8,-312.48"/>
</g>
<!-- VirtualRouter::my&#45;mesh::my&#45;router -->
<g id="node4" class="node">
<title>VirtualRouter::my&#45;mesh::my&#45;router</title>
<polygon fill="#e5e5e5" stroke="#dddddd" points="549,-301 341,-301 341,-243 549,-243 549,-301"/>
<text text-anchor="start" x="353" y="-281.2" font-family="Helvetica,sans-Serif" font-weight="bold" font-size="16.00" fill="#707070">AppMesh::VirtualRouter</text>
<text text-anchor="start" x="353" y="-256.2" font-family="Helvetica,sans-Serif" font-size="16.00" fill="#383838">my&#45;mesh::my&#45;router</text>
</g>
<!-- Route::my&#45;mesh::my&#45;router::my&#45;route&#45;&gt;VirtualRouter::my&#45;mesh::my&#45;router -->
<g id="edge2" class="edge">
<title>Route::my&#45;mesh::my&#45;router::my&#45;route&#45;&gt;VirtualRouter::my&#45;mesh::my&#45;router</title>
<path fill="none" stroke="#707070" d="M256.96,-321.58C280.79,-315.27 306,-308.58 329.93,-302.24"/>
<polygon fill="#707070" stroke="#707070" points="330.6,-305.68 339.37,-299.74 328.81,-298.92 330.6,-305.68"/>
</g>
<!-- VirtualNode::my&#45;mesh::my&#45;node -->
<g id="node3" class="node">
<title>VirtualNode::my&#45;mesh::my&#45;node</title>
<polygon fill="#e5e5e5" stroke="#dddddd" points="543,-377 347,-377 347,-319 543,-319 543,-377"/>
<text text-anchor="start" x="359" y="-357.2" font-family="Helvetica,sans-Serif" font-weight="bold" font-size="16.00" fill="#707070">AppMesh::VirtualNode</text>
<text text-anchor="start" x="359" y="-332.2" font-family="Helvetica,sans-Serif" font-size="16.00" fill="#383838">my&#45;mesh::my&#45;node</text>
</g>
<!-- VirtualNode::my&#45;mesh::my&#45;node&#45;&gt;Mesh::my&#45;mesh -->
<g id="edge3" class="edge">
<title>VirtualNode::my&#45;mesh::my&#45;node&#45;&gt;Mesh::my&#45;mesh</title>
<path fill="none" stroke="#707070" d="M543.48,-322.26C558.41,-318.22 573.63,-314.04 588,-310 602.56,-305.91 618.01,-301.45 632.97,-297.08"/>
<polygon fill="#707070" stroke="#707070" points="633.69,-300.52 642.3,-294.35 631.72,-293.8 633.69,-300.52"/>
</g>
<!-- VirtualRouter::my&#45;mesh::my&#45;router&#45;&gt;Mesh::my&#45;mesh -->
<g id="edge4" class="edge">
<title>VirtualRouter::my&#45;mesh::my&#45;router&#45;&gt;Mesh::my&#45;mesh</title>
<path fill="none" stroke="#707070" d="M549.23,-272C576.59,-272 605.82,-272 632.08,-272"/>
<polygon fill="#707070" stroke="#707070" points="632.02,-275.5 642.02,-272 632.02,-268.5 632.02,-275.5"/>
</g>
<!-- VirtualService::my&#45;mesh::my&#45;service -->
<g id="node5" class="node">
<title>VirtualService::my&#45;mesh::my&#45;service</title>
<polygon fill="#e5e5e5" stroke="#dddddd" points="252,-270 38,-270 38,-212 252,-212 252,-270"/>
<text text-anchor="start" x="50" y="-250.2" font-family="Helvetica,sans-Serif" font-weight="bold" font-size="16.00" fill="#707070">AppMesh::VirtualService</text>
<text text-anchor="start" x="50" y="-225.2" font-family="Helvetica,sans-Serif" font-size="16.00" fill="#383838">my&#45;mesh::my&#45;service</text>
</g>
<!-- VirtualService::my&#45;mesh::my&#45;service&#45;&gt;Mesh::my&#45;mesh -->
<g id="edge5" class="edge">
<title>VirtualService::my&#45;mesh::my&#45;service&#45;&gt;Mesh::my&#45;mesh</title>
<path fill="none" stroke="#707070" d="M252.43,-229.91C342.34,-222.78 474.25,-217.59 588,-234 602.78,-236.13 618.23,-239.57 633.09,-243.53"/>
<polygon fill="#707070" stroke="#707070" points="631.76,-246.79 642.33,-246.09 633.63,-240.05 631.76,-246.79"/>
</g>
<!-- VirtualService::my&#45;mesh::my&#45;service&#45;&gt;VirtualRouter::my&#45;mesh::my&#45;router -->
<g id="edge6" class="edge">
<title>VirtualService::my&#45;mesh::my&#45;service&#45;&gt;VirtualRouter::my&#45;mesh::my&#45;router</title>
<path fill="none" stroke="#707070" d="M252.32,-252.06C277.37,-254.67 304.17,-257.45 329.55,-260.09"/>
<polygon fill="#707070" stroke="#707070" points="328.9,-263.55 339.21,-261.1 329.63,-256.58 328.9,-263.55"/>
</g>
<!-- ResourceShare::share&#45;mesh -->
<g id="node6" class="node">
<title>ResourceShare::share&#45;mesh</title>
<polygon fill="#e5e5e5" stroke="#dddddd" points="812,-167 624,-167 624,-109 812,-109 812,-167"/>
<text text-anchor="start" x="636" y="-147.2" font-family="Helvetica,sans-Serif" font-weight="bold" font-size="16.00" fill="#707070">RAM::ResourceShare</text>
<text text-anchor="start" x="636" y="-122.2" font-family="Helvetica,sans-Serif" font-size="16.00" fill="#383838">share&#45;mesh</text>
</g>
<!-- PrincipalAssociation::ram&#45;principal&#45;assoc::share&#45;mesh::548529576214 -->
<g id="node7" class="node">
<title>PrincipalAssociation::ram&#45;principal&#45;assoc::share&#45;mesh::548529576214</title>
<polygon fill="#e5e5e5" stroke="#dddddd" points="584.5,-129 305.5,-129 305.5,-71 584.5,-71 584.5,-129"/>
<text text-anchor="start" x="318" y="-109.2" font-family="Helvetica,sans-Serif" font-weight="bold" font-size="16.00" fill="#707070">RAM::PrincipalAssociation</text>
<text text-anchor="start" x="318" y="-84.2" font-family="Helvetica,sans-Serif" font-size="16.00" fill="#383838">ram&#45;principal&#45;assoc::share&#45;mesh:...</text>
</g>
<!-- PrincipalAssociation::ram&#45;principal&#45;assoc::share&#45;mesh::548529576214&#45;&gt;ResourceShare::share&#45;mesh -->
<g id="edge7" class="edge">
<title>PrincipalAssociation::ram&#45;principal&#45;assoc::share&#45;mesh::548529576214&#45;&gt;ResourceShare::share&#45;mesh</title>
<path fill="none" stroke="#707070" d="M584.68,-119.45C593.92,-120.74 603.15,-122.04 612.19,-123.3"/>
<polygon fill="#707070" stroke="#707070" points="611.63,-126.76 622.02,-124.68 612.6,-119.83 611.63,-126.76"/>
</g>
<!-- ResourceAssociation::ram&#45;resource&#45;assoc::share&#45;mesh::my&#45;mesh -->
<g id="node8" class="node">
<title>ResourceAssociation::ram&#45;resource&#45;assoc::share&#45;mesh::my&#45;mesh</title>
<polygon fill="#e5e5e5" stroke="#dddddd" points="588,-205 302,-205 302,-147 588,-147 588,-205"/>
<text text-anchor="start" x="314" y="-185.2" font-family="Helvetica,sans-Serif" font-weight="bold" font-size="16.00" fill="#707070">RAM::ResourceAssociation</text>
<text text-anchor="start" x="314" y="-160.2" font-family="Helvetica,sans-Serif" font-size="16.00" fill="#383838">ram&#45;resource&#45;assoc::share&#45;mesh::...</text>
</g>
<!-- ResourceAssociation::ram&#45;resource&#45;assoc::share&#45;mesh::my&#45;mesh&#45;&gt;Mesh::my&#45;mesh -->
<g id="edge9" class="edge">
<title>ResourceAssociation::ram&#45;resource&#45;assoc::share&#45;mesh::my&#45;mesh&#45;&gt;Mesh::my&#45;mesh</title>
<path fill="none" stroke="#707070" d="M547.62,-205.48C561.26,-209.81 575.02,-214.38 588,-219 604.53,-224.88 622.04,-231.68 638.64,-238.41"/>
<polygon fill="#707070" stroke="#707070" points="636.87,-241.46 647.45,-242 639.51,-234.98 636.87,-241.46"/>
</g>
<!-- ResourceAssociation::ram&#45;resource&#45;assoc::share&#45;mesh::my&#45;mesh&#45;&gt;ResourceShare::share&#45;mesh -->
<g id="edge8" class="edge">
<title>ResourceAssociation::ram&#45;resource&#45;assoc::share&#45;mesh::my&#45;mesh&#45;&gt;ResourceShare::share&#45;mesh</title>
<path fill="none" stroke="#707070" d="M588.25,-156.05C596.41,-154.91 604.54,-153.77 612.52,-152.65"/>
<polygon fill="#707070" stroke="#707070" points="612.78,-156.15 622.19,-151.29 611.8,-149.22 612.78,-156.15"/>
</g>
</g>
</svg>
