<?xml version="1.0" encoding="UTF-8" standalone="no"?><svg xmlns="http://www.w3.org/2000/svg" xmlns:xlink="http://www.w3.org/1999/xlink" contentStyleType="text/css" height="624px" preserveAspectRatio="none" style="width:566px;height:624px;background:#FFFFFF;" version="1.1" viewBox="0 0 566 624" width="566px" zoomAndPan="magnify"><defs/><g><rect height="26.4883" style="stroke:#00000000;stroke-width:1.0;fill:none;" width="276" x="118.5" y="15"/><text fill="#000000" font-family="sans-serif" font-size="14" font-weight="bold" lengthAdjust="spacing" textLength="266" x="123.5" y="33.5352">Resources for project kendra-simple</text><rect fill="#F1F1F1" height="36.4883" rx="12.5" ry="12.5" style="stroke:#181818;stroke-width:1.5;" width="52" x="10" y="311.6855"/><text fill="#000000" font-family="sans-serif" font-size="14" lengthAdjust="spacing" textLength="32" x="20" y="335.2207">Infra</text><rect fill="#F1F1F1" height="36.4883" rx="12.5" ry="12.5" style="stroke:#181818;stroke-width:1.5;" width="46" x="112" y="311.6855"/><text fill="#000000" font-family="sans-serif" font-size="14" lengthAdjust="spacing" textLength="26" x="122" y="335.2207">aws</text><rect fill="#F1F1F1" height="36.4883" rx="12.5" ry="12.5" style="stroke:#181818;stroke-width:1.5;" width="134" x="208" y="57.4883"/><text fill="#000000" font-family="sans-serif" font-size="14" lengthAdjust="spacing" textLength="114" x="218" y="81.0234">CloudWatchLogs</text><rect fill="#F1F1F1" height="36.4883" rx="12.5" ry="12.5" style="stroke:#181818;stroke-width:1.5;" width="111" x="392" y="57.4883"/><text fill="#000000" font-family="sans-serif" font-size="14" lengthAdjust="spacing" textLength="91" x="402" y="81.0234">LogGroup (1)</text><path d="M342,75.7324 L352,75.7324 C367,75.7324 367,75.7324 382,75.7324 L392,75.7324 " fill="none" style="stroke:#181818;stroke-width:1.0;"/><path d="M158,329.9297 L168,329.9297 C183,329.9297 183,75.7324 198,75.7324 L208,75.7324 " fill="none" style="stroke:#181818;stroke-width:1.0;"/><rect fill="#F1F1F1" height="36.4883" rx="12.5" ry="12.5" style="stroke:#181818;stroke-width:1.5;" width="46" x="208" y="142.2207"/><text fill="#000000" font-family="sans-serif" font-size="14" lengthAdjust="spacing" textLength="26" x="218" y="165.7559">IAM</text><rect fill="#F1F1F1" height="36.4883" rx="12.5" ry="12.5" style="stroke:#181818;stroke-width:1.5;" width="73" x="304" y="113.9766"/><text fill="#000000" font-family="sans-serif" font-size="14" lengthAdjust="spacing" textLength="53" x="314" y="137.5117">Role (5)</text><path d="M254,160.4648 L264,160.4648 C279,160.4648 279,132.2207 294,132.2207 L304,132.2207 " fill="none" style="stroke:#181818;stroke-width:1.0;"/><rect fill="#F1F1F1" height="36.4883" rx="12.5" ry="12.5" style="stroke:#181818;stroke-width:1.5;" width="82" x="304" y="170.4648"/><text fill="#000000" font-family="sans-serif" font-size="14" lengthAdjust="spacing" textLength="62" x="314" y="194">Policy (5)</text><path d="M254,160.4648 L264,160.4648 C279,160.4648 279,188.709 294,188.709 L304,188.709 " fill="none" style="stroke:#181818;stroke-width:1.0;"/><path d="M158,329.9297 L168,329.9297 C183,329.9297 183,160.4648 198,160.4648 L208,160.4648 " fill="none" style="stroke:#181818;stroke-width:1.0;"/><rect fill="#F1F1F1" height="36.4883" rx="12.5" ry="12.5" style="stroke:#181818;stroke-width:1.5;" width="69" x="208" y="339.9297"/><text fill="#000000" font-family="sans-serif" font-size="14" lengthAdjust="spacing" textLength="49" x="218" y="363.4648">Kendra</text><rect fill="#F1F1F1" height="36.4883" rx="12.5" ry="12.5" style="stroke:#181818;stroke-width:1.5;" width="121" x="327" y="226.9531"/><text fill="#000000" font-family="sans-serif" font-size="14" lengthAdjust="spacing" textLength="101" x="337" y="250.4883">DataSource (1)</text><path d="M277,358.1738 L287,358.1738 C302,358.1738 302,245.1973 317,245.1973 L327,245.1973 " fill="none" style="stroke:#181818;stroke-width:1.0;"/><rect fill="#F1F1F1" height="36.4883" rx="12.5" ry="12.5" style="stroke:#181818;stroke-width:1.5;" width="119" x="327" y="283.4414"/><text fill="#000000" font-family="sans-serif" font-size="14" lengthAdjust="spacing" textLength="99" x="337" y="306.9766">Experience (1)</text><path d="M277,358.1738 L287,358.1738 C302,358.1738 302,301.6855 317,301.6855 L327,301.6855 " fill="none" style="stroke:#181818;stroke-width:1.0;"/><rect fill="#F1F1F1" height="36.4883" rx="12.5" ry="12.5" style="stroke:#181818;stroke-width:1.5;" width="68" x="327" y="339.9297"/><text fill="#000000" font-family="sans-serif" font-size="14" lengthAdjust="spacing" textLength="48" x="337" y="363.4648">Faq (1)</text><path d="M277,358.1738 L287,358.1738 C302,358.1738 302,358.1738 317,358.1738 L327,358.1738 " fill="none" style="stroke:#181818;stroke-width:1.0;"/><rect fill="#F1F1F1" height="36.4883" rx="12.5" ry="12.5" style="stroke:#181818;stroke-width:1.5;" width="82" x="327" y="396.418"/><text fill="#000000" font-family="sans-serif" font-size="14" lengthAdjust="spacing" textLength="62" x="337" y="419.9531">Index (1)</text><path d="M277,358.1738 L287,358.1738 C302,358.1738 302,414.6621 317,414.6621 L327,414.6621 " fill="none" style="stroke:#181818;stroke-width:1.0;"/><rect fill="#F1F1F1" height="36.4883" rx="12.5" ry="12.5" style="stroke:#181818;stroke-width:1.5;" width="227" x="327" y="452.9063"/><text fill="#000000" font-family="sans-serif" font-size="14" lengthAdjust="spacing" textLength="207" x="337" y="476.4414">QuerySuggestionsBlockList (1)</text><path d="M277,358.1738 L287,358.1738 C302,358.1738 302,471.1504 317,471.1504 L327,471.1504 " fill="none" style="stroke:#181818;stroke-width:1.0;"/><path d="M158,329.9297 L168,329.9297 C183,329.9297 183,358.1738 198,358.1738 L208,358.1738 " fill="none" style="stroke:#181818;stroke-width:1.0;"/><rect fill="#F1F1F1" height="36.4883" rx="12.5" ry="12.5" style="stroke:#181818;stroke-width:1.5;" width="37" x="208" y="537.6387"/><text fill="#000000" font-family="sans-serif" font-size="14" lengthAdjust="spacing" textLength="17" x="218" y="561.1738">S3</text><rect fill="#F1F1F1" height="36.4883" rx="12.5" ry="12.5" style="stroke:#181818;stroke-width:1.5;" width="88" x="295" y="509.3945"/><text fill="#000000" font-family="sans-serif" font-size="14" lengthAdjust="spacing" textLength="68" x="305" y="532.9297">Bucket (1)</text><path d="M245,555.8828 L255,555.8828 C270,555.8828 270,527.6387 285,527.6387 L295,527.6387 " fill="none" style="stroke:#181818;stroke-width:1.0;"/><rect fill="#F1F1F1" height="36.4883" rx="12.5" ry="12.5" style="stroke:#181818;stroke-width:1.5;" width="87" x="295" y="565.8828"/><text fill="#000000" font-family="sans-serif" font-size="14" lengthAdjust="spacing" textLength="67" x="305" y="589.418">Object (2)</text><path d="M245,555.8828 L255,555.8828 C270,555.8828 270,584.127 285,584.127 L295,584.127 " fill="none" style="stroke:#181818;stroke-width:1.0;"/><path d="M158,329.9297 L168,329.9297 C183,329.9297 183,555.8828 198,555.8828 L208,555.8828 " fill="none" style="stroke:#181818;stroke-width:1.0;"/><path d="M62,329.9297 L72,329.9297 C87,329.9297 87,329.9297 102,329.9297 L112,329.9297 " fill="none" style="stroke:#181818;stroke-width:1.0;"/><!--MD5=[5a19ddbaa61cbccd4a74addedb55cf82]
@startmindmap
title Resources for project kendra-simple
skinparam monochrome true
+ Infra
++ aws
+++ CloudWatchLogs
++++ LogGroup (1)
+++ IAM
++++ Role (5)
++++ Policy (5)
+++ Kendra
++++ DataSource (1)
++++ Experience (1)
++++ Faq (1)
++++ Index (1)
++++ QuerySuggestionsBlockList (1)
+++ S3
++++ Bucket (1)
++++ Object (2)
@endmindmap

PlantUML version 1.2022.6(Tue Jun 21 19:34:49 CEST 2022)
(GPL source distribution)
Java Runtime: Java(TM) SE Runtime Environment
JVM: Java HotSpot(TM) 64-Bit Server VM
Default Encoding: UTF-8
Language: en
Country: GB
--></g></svg>