<?xml version="1.0" encoding="UTF-8" standalone="no"?>
<!DOCTYPE svg PUBLIC "-//W3C//DTD SVG 1.1//EN"
 "http://www.w3.org/Graphics/SVG/1.1/DTD/svg11.dtd">
<!-- Generated by graphviz version 7.1.0 (20230121.1956)
 -->
<!-- Title: graphname Pages: 1 -->
<svg width="447pt" height="237pt"
 viewBox="0.00 0.00 447.00 237.00" xmlns="http://www.w3.org/2000/svg" xmlns:xlink="http://www.w3.org/1999/xlink">
<g id="graph0" class="graph" transform="scale(1 1) rotate(0) translate(4 233)">
<title>graphname</title>
<polygon fill="#fafafa" stroke="none" points="-4,4 -4,-233 443,-233 443,4 -4,4"/>
<text text-anchor="start" x="12.5" y="-204.4" font-family="Helvetica,sans-Serif" font-weight="bold" font-size="22.00" fill="#383838">Project cloudfront&#45;origin&#45;request&#45;policy</text>
<text text-anchor="start" x="216" y="-188.8" font-family="Helvetica,sans-Serif" font-size="14.00"> &#160;</text>
<text text-anchor="start" x="12.5" y="-167.2" font-family="Helvetica,sans-Serif" font-weight="bold" font-size="16.00" fill="#707070">Target Diagram</text>
<g id="clust1" class="cluster">
<title>cluster_aws</title>
<polygon fill="#f5f5f5" stroke="#f5f5f5" points="64.5,-8 64.5,-145 374.5,-145 374.5,-8 64.5,-8"/>
<text text-anchor="start" x="157.5" y="-23" font-family="Helvetica,sans-Serif" font-weight="bold" font-size="20.00" fill="#707070">Provider aws</text>
</g>
<g id="clust2" class="cluster">
<title>cluster_aws_</title>
<polygon fill="#eeeeee" stroke="#eeeeee" points="72.5,-54 72.5,-137 366.5,-137 366.5,-54 72.5,-54"/>
<text text-anchor="start" x="219.36" y="-58.3" font-family="Helvetica,sans-Serif" font-size="1.00" fill="#383838"> </text>
</g>
<!-- OriginRequestPolicy::my&#45;origin&#45;request&#45;policy -->
<g id="node1" class="node">
<title>OriginRequestPolicy::my&#45;origin&#45;request&#45;policy</title>
<polygon fill="#e5e5e5" stroke="#dddddd" points="358.5,-129 80.5,-129 80.5,-71 358.5,-71 358.5,-129"/>
<text text-anchor="start" x="92.5" y="-109.2" font-family="Helvetica,sans-Serif" font-weight="bold" font-size="16.00" fill="#707070">CloudFront::OriginRequestPolicy</text>
<text text-anchor="start" x="92.5" y="-84.2" font-family="Helvetica,sans-Serif" font-size="16.00" fill="#383838">my&#45;origin&#45;request&#45;policy</text>
</g>
</g>
</svg>
