<?xml version="1.0" encoding="UTF-8" standalone="no"?>
<!DOCTYPE svg PUBLIC "-//W3C//DTD SVG 1.1//EN"
 "http://www.w3.org/Graphics/SVG/1.1/DTD/svg11.dtd">
<!-- Generated by graphviz version 7.1.0 (20230121.1956)
 -->
<!-- Title: graphname Pages: 1 -->
<svg width="1419pt" height="465pt"
 viewBox="0.00 0.00 1419.00 465.00" xmlns="http://www.w3.org/2000/svg" xmlns:xlink="http://www.w3.org/1999/xlink">
<g id="graph0" class="graph" transform="scale(1 1) rotate(0) translate(4 461)">
<title>graphname</title>
<polygon fill="#fafafa" stroke="none" points="-4,4 -4,-461 1415,-461 1415,4 -4,4"/>
<text text-anchor="start" x="533.5" y="-432.4" font-family="Helvetica,sans-Serif" font-weight="bold" font-size="22.00" fill="#383838">Project appsync&#45;lambda&#45;sfn&#45;sam</text>
<text text-anchor="start" x="702" y="-416.8" font-family="Helvetica,sans-Serif" font-size="14.00"> &#160;</text>
<text text-anchor="start" x="533.5" y="-395.2" font-family="Helvetica,sans-Serif" font-weight="bold" font-size="16.00" fill="#707070">Target Diagram</text>
<g id="clust1" class="cluster">
<title>cluster_aws</title>
<polygon fill="#f5f5f5" stroke="#f5f5f5" points="8,-8 8,-373 1403,-373 1403,-8 8,-8"/>
<text text-anchor="start" x="643.5" y="-23" font-family="Helvetica,sans-Serif" font-weight="bold" font-size="20.00" fill="#707070">Provider aws</text>
</g>
<g id="clust2" class="cluster">
<title>cluster_aws_</title>
<polygon fill="#eeeeee" stroke="#eeeeee" points="16,-54 16,-365 1395,-365 1395,-54 16,-54"/>
<text text-anchor="start" x="705.36" y="-58.3" font-family="Helvetica,sans-Serif" font-size="1.00" fill="#383838"> </text>
</g>
<!-- DataSource::SamStepFunctionsLambdaDirectResolver -->
<g id="node1" class="node">
<title>DataSource::SamStepFunctionsLambdaDirectResolver</title>
<polygon fill="#e5e5e5" stroke="#dddddd" points="682,-295 369,-295 369,-237 682,-237 682,-295"/>
<text text-anchor="start" x="381.5" y="-275.2" font-family="Helvetica,sans-Serif" font-weight="bold" font-size="16.00" fill="#707070">AppSync::DataSource</text>
<text text-anchor="start" x="381.5" y="-250.2" font-family="Helvetica,sans-Serif" font-size="16.00" fill="#383838">SamStepFunctionsLambdaDirectReso...</text>
</g>
<!-- GraphqlApi::SamStepFunctionsApi -->
<g id="node2" class="node">
<title>GraphqlApi::SamStepFunctionsApi</title>
<polygon fill="#e5e5e5" stroke="#dddddd" points="971,-357 780,-357 780,-299 971,-299 971,-357"/>
<text text-anchor="start" x="792.5" y="-337.2" font-family="Helvetica,sans-Serif" font-weight="bold" font-size="16.00" fill="#707070">AppSync::GraphqlApi</text>
<text text-anchor="start" x="792.5" y="-312.2" font-family="Helvetica,sans-Serif" font-size="16.00" fill="#383838">SamStepFunctionsApi</text>
</g>
<!-- DataSource::SamStepFunctionsLambdaDirectResolver&#45;&gt;GraphqlApi::SamStepFunctionsApi -->
<g id="edge1" class="edge">
<title>DataSource::SamStepFunctionsLambdaDirectResolver&#45;&gt;GraphqlApi::SamStepFunctionsApi</title>
<path fill="none" stroke="#707070" d="M682.43,-293.78C711.68,-298.99 741.61,-304.32 768.88,-309.18"/>
<polygon fill="#707070" stroke="#707070" points="768.04,-312.59 778.5,-310.9 769.26,-305.7 768.04,-312.59"/>
</g>
<!-- Role::sam&#45;app&#45;AppSyncServiceRole&#45;SVRP0GF12393 -->
<g id="node5" class="node">
<title>Role::sam&#45;app&#45;AppSyncServiceRole&#45;SVRP0GF12393</title>
<polygon fill="#e5e5e5" stroke="#dddddd" points="1033,-205 718,-205 718,-147 1033,-147 1033,-205"/>
<text text-anchor="start" x="730.5" y="-185.2" font-family="Helvetica,sans-Serif" font-weight="bold" font-size="16.00" fill="#707070">IAM::Role</text>
<text text-anchor="start" x="730.5" y="-160.2" font-family="Helvetica,sans-Serif" font-size="16.00" fill="#383838">sam&#45;app&#45;AppSyncServiceRole&#45;SVRP0...</text>
</g>
<!-- DataSource::SamStepFunctionsLambdaDirectResolver&#45;&gt;Role::sam&#45;app&#45;AppSyncServiceRole&#45;SVRP0GF12393 -->
<g id="edge2" class="edge">
<title>DataSource::SamStepFunctionsLambdaDirectResolver&#45;&gt;Role::sam&#45;app&#45;AppSyncServiceRole&#45;SVRP0GF12393</title>
<path fill="none" stroke="#707070" d="M632.97,-236.54C660.62,-229.04 690.39,-221.1 718,-214 725.45,-212.08 733.11,-210.14 740.85,-208.2"/>
<polygon fill="#707070" stroke="#707070" points="741.5,-211.64 750.36,-205.82 739.81,-204.85 741.5,-211.64"/>
</g>
<!-- Function::sam&#45;app&#45;SamStepFunctionFunction&#45;Xw0k7kc6dwJe -->
<g id="node10" class="node">
<title>Function::sam&#45;app&#45;SamStepFunctionFunction&#45;Xw0k7kc6dwJe</title>
<polygon fill="#e5e5e5" stroke="#dddddd" points="1026.5,-281 724.5,-281 724.5,-223 1026.5,-223 1026.5,-281"/>
<text text-anchor="start" x="736.5" y="-261.2" font-family="Helvetica,sans-Serif" font-weight="bold" font-size="16.00" fill="#707070">Lambda::Function</text>
<text text-anchor="start" x="736.5" y="-236.2" font-family="Helvetica,sans-Serif" font-size="16.00" fill="#383838">sam&#45;app&#45;SamStepFunctionFunction&#45;...</text>
</g>
<!-- DataSource::SamStepFunctionsLambdaDirectResolver&#45;&gt;Function::sam&#45;app&#45;SamStepFunctionFunction&#45;Xw0k7kc6dwJe -->
<g id="edge3" class="edge">
<title>DataSource::SamStepFunctionsLambdaDirectResolver&#45;&gt;Function::sam&#45;app&#45;SamStepFunctionFunction&#45;Xw0k7kc6dwJe</title>
<path fill="none" stroke="#707070" d="M682.43,-259.73C692.48,-259.32 702.62,-258.91 712.69,-258.51"/>
<polygon fill="#707070" stroke="#707070" points="712.68,-262.01 722.53,-258.11 712.39,-255.02 712.68,-262.01"/>
</g>
<!-- Role::sam&#45;app&#45;RoleAppSyncCloudWatch&#45;1QX3MJWO7NIQ4 -->
<g id="node7" class="node">
<title>Role::sam&#45;app&#45;RoleAppSyncCloudWatch&#45;1QX3MJWO7NIQ4</title>
<polygon fill="#e5e5e5" stroke="#dddddd" points="1387,-357 1069,-357 1069,-299 1387,-299 1387,-357"/>
<text text-anchor="start" x="1081" y="-337.2" font-family="Helvetica,sans-Serif" font-weight="bold" font-size="16.00" fill="#707070">IAM::Role</text>
<text text-anchor="start" x="1081" y="-312.2" font-family="Helvetica,sans-Serif" font-size="16.00" fill="#383838">sam&#45;app&#45;RoleAppSyncCloudWatch&#45;1Q...</text>
</g>
<!-- GraphqlApi::SamStepFunctionsApi&#45;&gt;Role::sam&#45;app&#45;RoleAppSyncCloudWatch&#45;1QX3MJWO7NIQ4 -->
<g id="edge4" class="edge">
<title>GraphqlApi::SamStepFunctionsApi&#45;&gt;Role::sam&#45;app&#45;RoleAppSyncCloudWatch&#45;1QX3MJWO7NIQ4</title>
<path fill="none" stroke="#707070" d="M971.35,-328C997.96,-328 1027.72,-328 1057.27,-328"/>
<polygon fill="#707070" stroke="#707070" points="1057.07,-331.5 1067.07,-328 1057.07,-324.5 1057.07,-331.5"/>
</g>
<!-- Resolver::resolver::Mutation::addStepFunctionExecution -->
<g id="node3" class="node">
<title>Resolver::resolver::Mutation::addStepFunctionExecution</title>
<polygon fill="#e5e5e5" stroke="#dddddd" points="317,-357 40,-357 40,-299 317,-299 317,-357"/>
<text text-anchor="start" x="52.5" y="-337.2" font-family="Helvetica,sans-Serif" font-weight="bold" font-size="16.00" fill="#707070">AppSync::Resolver</text>
<text text-anchor="start" x="52.5" y="-312.2" font-family="Helvetica,sans-Serif" font-size="16.00" fill="#383838">resolver::Mutation::addStepFunct...</text>
</g>
<!-- Resolver::resolver::Mutation::addStepFunctionExecution&#45;&gt;DataSource::SamStepFunctionsLambdaDirectResolver -->
<g id="edge5" class="edge">
<title>Resolver::resolver::Mutation::addStepFunctionExecution&#45;&gt;DataSource::SamStepFunctionsLambdaDirectResolver</title>
<path fill="none" stroke="#707070" d="M317.34,-303.23C330.54,-300.86 344.02,-298.43 357.45,-296.02"/>
<polygon fill="#707070" stroke="#707070" points="358.01,-299.48 367.23,-294.26 356.77,-292.59 358.01,-299.48"/>
</g>
<!-- Resolver::resolver::Mutation::addStepFunctionExecution&#45;&gt;GraphqlApi::SamStepFunctionsApi -->
<g id="edge6" class="edge">
<title>Resolver::resolver::Mutation::addStepFunctionExecution&#45;&gt;GraphqlApi::SamStepFunctionsApi</title>
<path fill="none" stroke="#707070" d="M317.22,-328C449.77,-328 647.39,-328 768.22,-328"/>
<polygon fill="#707070" stroke="#707070" points="768.15,-331.5 778.15,-328 768.15,-324.5 768.15,-331.5"/>
</g>
<!-- Table::sam&#45;app&#45;SamStepFunctionsTable&#45;1O67WMRRPTIDD -->
<g id="node4" class="node">
<title>Table::sam&#45;app&#45;SamStepFunctionsTable&#45;1O67WMRRPTIDD</title>
<polygon fill="#e5e5e5" stroke="#dddddd" points="333,-281 24,-281 24,-223 333,-223 333,-281"/>
<text text-anchor="start" x="36.5" y="-261.2" font-family="Helvetica,sans-Serif" font-weight="bold" font-size="16.00" fill="#707070">DynamoDB::Table</text>
<text text-anchor="start" x="36.5" y="-236.2" font-family="Helvetica,sans-Serif" font-size="16.00" fill="#383838">sam&#45;app&#45;SamStepFunctionsTable&#45;1O...</text>
</g>
<!-- Role::sam&#45;app&#45;lambdaStepFunctionRole&#45;1P92ECNW1QOVX -->
<g id="node6" class="node">
<title>Role::sam&#45;app&#45;lambdaStepFunctionRole&#45;1P92ECNW1QOVX</title>
<polygon fill="#e5e5e5" stroke="#dddddd" points="1379,-281 1077,-281 1077,-223 1379,-223 1379,-281"/>
<text text-anchor="start" x="1089" y="-261.2" font-family="Helvetica,sans-Serif" font-weight="bold" font-size="16.00" fill="#707070">IAM::Role</text>
<text text-anchor="start" x="1089" y="-236.2" font-family="Helvetica,sans-Serif" font-size="16.00" fill="#383838">sam&#45;app&#45;lambdaStepFunctionRole&#45;1...</text>
</g>
<!-- Role::sam&#45;app&#45;SamStepFunctionStateMachineRole&#45;15QEGFRVJ5CQ3 -->
<g id="node8" class="node">
<title>Role::sam&#45;app&#45;SamStepFunctionStateMachineRole&#45;15QEGFRVJ5CQ3</title>
<polygon fill="#e5e5e5" stroke="#dddddd" points="681.5,-129 369.5,-129 369.5,-71 681.5,-71 681.5,-129"/>
<text text-anchor="start" x="381.5" y="-109.2" font-family="Helvetica,sans-Serif" font-weight="bold" font-size="16.00" fill="#707070">IAM::Role</text>
<text text-anchor="start" x="381.5" y="-84.2" font-family="Helvetica,sans-Serif" font-size="16.00" fill="#383838">sam&#45;app&#45;SamStepFunctionStateMach...</text>
</g>
<!-- Role::sam&#45;app&#45;WorkflowExecutionRole&#45;WM87YTOPGZ2D -->
<g id="node9" class="node">
<title>Role::sam&#45;app&#45;WorkflowExecutionRole&#45;WM87YTOPGZ2D</title>
<polygon fill="#e5e5e5" stroke="#dddddd" points="680.5,-205 370.5,-205 370.5,-147 680.5,-147 680.5,-205"/>
<text text-anchor="start" x="382.5" y="-185.2" font-family="Helvetica,sans-Serif" font-weight="bold" font-size="16.00" fill="#707070">IAM::Role</text>
<text text-anchor="start" x="382.5" y="-160.2" font-family="Helvetica,sans-Serif" font-size="16.00" fill="#383838">sam&#45;app&#45;WorkflowExecutionRole&#45;WM...</text>
</g>
<!-- Function::sam&#45;app&#45;SamStepFunctionFunction&#45;Xw0k7kc6dwJe&#45;&gt;Role::sam&#45;app&#45;lambdaStepFunctionRole&#45;1P92ECNW1QOVX -->
<g id="edge7" class="edge">
<title>Function::sam&#45;app&#45;SamStepFunctionFunction&#45;Xw0k7kc6dwJe&#45;&gt;Role::sam&#45;app&#45;lambdaStepFunctionRole&#45;1P92ECNW1QOVX</title>
<path fill="none" stroke="#707070" d="M1026.92,-252C1039.63,-252 1052.52,-252 1065.31,-252"/>
<polygon fill="#707070" stroke="#707070" points="1065,-255.5 1075,-252 1065,-248.5 1065,-255.5"/>
</g>
<!-- StateMachine::MyStateMachine&#45;nfd2eDd0064T -->
<g id="node11" class="node">
<title>StateMachine::MyStateMachine&#45;nfd2eDd0064T</title>
<polygon fill="#e5e5e5" stroke="#dddddd" points="307,-205 50,-205 50,-147 307,-147 307,-205"/>
<text text-anchor="start" x="62.5" y="-185.2" font-family="Helvetica,sans-Serif" font-weight="bold" font-size="16.00" fill="#707070">StepFunctions::StateMachine</text>
<text text-anchor="start" x="62.5" y="-160.2" font-family="Helvetica,sans-Serif" font-size="16.00" fill="#383838">MyStateMachine&#45;nfd2eDd0064T</text>
</g>
<!-- StateMachine::MyStateMachine&#45;nfd2eDd0064T&#45;&gt;Role::sam&#45;app&#45;WorkflowExecutionRole&#45;WM87YTOPGZ2D -->
<g id="edge8" class="edge">
<title>StateMachine::MyStateMachine&#45;nfd2eDd0064T&#45;&gt;Role::sam&#45;app&#45;WorkflowExecutionRole&#45;WM87YTOPGZ2D</title>
<path fill="none" stroke="#707070" d="M307.47,-176C324.23,-176 341.58,-176 358.85,-176"/>
<polygon fill="#707070" stroke="#707070" points="358.66,-179.5 368.66,-176 358.66,-172.5 358.66,-179.5"/>
</g>
<!-- StateMachine::SamStepFunctionStateMachine&#45;lfaxL8lndjSb -->
<g id="node12" class="node">
<title>StateMachine::SamStepFunctionStateMachine&#45;lfaxL8lndjSb</title>
<polygon fill="#e5e5e5" stroke="#dddddd" points="326.5,-129 30.5,-129 30.5,-71 326.5,-71 326.5,-129"/>
<text text-anchor="start" x="42.5" y="-109.2" font-family="Helvetica,sans-Serif" font-weight="bold" font-size="16.00" fill="#707070">StepFunctions::StateMachine</text>
<text text-anchor="start" x="42.5" y="-84.2" font-family="Helvetica,sans-Serif" font-size="16.00" fill="#383838">SamStepFunctionStateMachine&#45;lfax...</text>
</g>
<!-- StateMachine::SamStepFunctionStateMachine&#45;lfaxL8lndjSb&#45;&gt;Role::sam&#45;app&#45;SamStepFunctionStateMachineRole&#45;15QEGFRVJ5CQ3 -->
<g id="edge9" class="edge">
<title>StateMachine::SamStepFunctionStateMachine&#45;lfaxL8lndjSb&#45;&gt;Role::sam&#45;app&#45;SamStepFunctionStateMachineRole&#45;15QEGFRVJ5CQ3</title>
<path fill="none" stroke="#707070" d="M326.81,-100C337.1,-100 347.51,-100 357.89,-100"/>
<polygon fill="#707070" stroke="#707070" points="357.63,-103.5 367.63,-100 357.63,-96.5 357.63,-103.5"/>
</g>
</g>
</svg>
