<?xml version="1.0" encoding="UTF-8" standalone="no"?><svg xmlns="http://www.w3.org/2000/svg" xmlns:xlink="http://www.w3.org/1999/xlink" contentStyleType="text/css" height="454px" preserveAspectRatio="none" style="width:521px;height:454px;background:#FFFFFF;" version="1.1" viewBox="0 0 521 454" width="521px" zoomAndPan="magnify"><defs/><g><rect height="26.4883" style="stroke:#00000000;stroke-width:1.0;fill:none;" width="360" x="54" y="15"/><text fill="#000000" font-family="sans-serif" font-size="14" font-weight="bold" lengthAdjust="spacing" textLength="350" x="59" y="33.5352">Resources for project appsync-lambda-sfn-sam</text><rect fill="#F1F1F1" height="36.4883" rx="12.5" ry="12.5" style="stroke:#181818;stroke-width:1.5;" width="52" x="10" y="226.9531"/><text fill="#000000" font-family="sans-serif" font-size="14" lengthAdjust="spacing" textLength="32" x="20" y="250.4883">Infra</text><rect fill="#F1F1F1" height="36.4883" rx="12.5" ry="12.5" style="stroke:#181818;stroke-width:1.5;" width="46" x="112" y="226.9531"/><text fill="#000000" font-family="sans-serif" font-size="14" lengthAdjust="spacing" textLength="26" x="122" y="250.4883">aws</text><rect fill="#F1F1F1" height="36.4883" rx="12.5" ry="12.5" style="stroke:#181818;stroke-width:1.5;" width="79" x="208" y="113.9766"/><text fill="#000000" font-family="sans-serif" font-size="14" lengthAdjust="spacing" textLength="59" x="218" y="137.5117">AppSync</text><rect fill="#F1F1F1" height="36.4883" rx="12.5" ry="12.5" style="stroke:#181818;stroke-width:1.5;" width="121" x="337" y="57.4883"/><text fill="#000000" font-family="sans-serif" font-size="14" lengthAdjust="spacing" textLength="101" x="347" y="81.0234">DataSource (1)</text><path d="M287,132.2207 L297,132.2207 C312,132.2207 312,75.7324 327,75.7324 L337,75.7324 " fill="none" style="stroke:#181818;stroke-width:1.0;"/><rect fill="#F1F1F1" height="36.4883" rx="12.5" ry="12.5" style="stroke:#181818;stroke-width:1.5;" width="121" x="337" y="113.9766"/><text fill="#000000" font-family="sans-serif" font-size="14" lengthAdjust="spacing" textLength="101" x="347" y="137.5117">GraphqlApi (1)</text><path d="M287,132.2207 L297,132.2207 C312,132.2207 312,132.2207 327,132.2207 L337,132.2207 " fill="none" style="stroke:#181818;stroke-width:1.0;"/><rect fill="#F1F1F1" height="36.4883" rx="12.5" ry="12.5" style="stroke:#181818;stroke-width:1.5;" width="101" x="337" y="170.4648"/><text fill="#000000" font-family="sans-serif" font-size="14" lengthAdjust="spacing" textLength="81" x="347" y="194">Resolver (1)</text><path d="M287,132.2207 L297,132.2207 C312,132.2207 312,188.709 327,188.709 L337,188.709 " fill="none" style="stroke:#181818;stroke-width:1.0;"/><path d="M158,245.1973 L168,245.1973 C183,245.1973 183,132.2207 198,132.2207 L208,132.2207 " fill="none" style="stroke:#181818;stroke-width:1.0;"/><rect fill="#F1F1F1" height="36.4883" rx="12.5" ry="12.5" style="stroke:#181818;stroke-width:1.5;" width="94" x="208" y="226.9531"/><text fill="#000000" font-family="sans-serif" font-size="14" lengthAdjust="spacing" textLength="74" x="218" y="250.4883">DynamoDB</text><rect fill="#F1F1F1" height="36.4883" rx="12.5" ry="12.5" style="stroke:#181818;stroke-width:1.5;" width="81" x="352" y="226.9531"/><text fill="#000000" font-family="sans-serif" font-size="14" lengthAdjust="spacing" textLength="61" x="362" y="250.4883">Table (1)</text><path d="M302,245.1973 L312,245.1973 C327,245.1973 327,245.1973 342,245.1973 L352,245.1973 " fill="none" style="stroke:#181818;stroke-width:1.0;"/><path d="M158,245.1973 L168,245.1973 C183,245.1973 183,245.1973 198,245.1973 L208,245.1973 " fill="none" style="stroke:#181818;stroke-width:1.0;"/><rect fill="#F1F1F1" height="36.4883" rx="12.5" ry="12.5" style="stroke:#181818;stroke-width:1.5;" width="46" x="208" y="283.4414"/><text fill="#000000" font-family="sans-serif" font-size="14" lengthAdjust="spacing" textLength="26" x="218" y="306.9766">IAM</text><rect fill="#F1F1F1" height="36.4883" rx="12.5" ry="12.5" style="stroke:#181818;stroke-width:1.5;" width="73" x="304" y="283.4414"/><text fill="#000000" font-family="sans-serif" font-size="14" lengthAdjust="spacing" textLength="53" x="314" y="306.9766">Role (5)</text><path d="M254,301.6855 L264,301.6855 C279,301.6855 279,301.6855 294,301.6855 L304,301.6855 " fill="none" style="stroke:#181818;stroke-width:1.0;"/><path d="M158,245.1973 L168,245.1973 C183,245.1973 183,301.6855 198,301.6855 L208,301.6855 " fill="none" style="stroke:#181818;stroke-width:1.0;"/><rect fill="#F1F1F1" height="36.4883" rx="12.5" ry="12.5" style="stroke:#181818;stroke-width:1.5;" width="74" x="208" y="339.9297"/><text fill="#000000" font-family="sans-serif" font-size="14" lengthAdjust="spacing" textLength="54" x="218" y="363.4648">Lambda</text><rect fill="#F1F1F1" height="36.4883" rx="12.5" ry="12.5" style="stroke:#181818;stroke-width:1.5;" width="103" x="332" y="339.9297"/><text fill="#000000" font-family="sans-serif" font-size="14" lengthAdjust="spacing" textLength="83" x="342" y="363.4648">Function (1)</text><path d="M282,358.1738 L292,358.1738 C307,358.1738 307,358.1738 322,358.1738 L332,358.1738 " fill="none" style="stroke:#181818;stroke-width:1.0;"/><path d="M158,245.1973 L168,245.1973 C183,245.1973 183,358.1738 198,358.1738 L208,358.1738 " fill="none" style="stroke:#181818;stroke-width:1.0;"/><rect fill="#F1F1F1" height="36.4883" rx="12.5" ry="12.5" style="stroke:#181818;stroke-width:1.5;" width="117" x="208" y="396.418"/><text fill="#000000" font-family="sans-serif" font-size="14" lengthAdjust="spacing" textLength="97" x="218" y="419.9531">StepFunctions</text><rect fill="#F1F1F1" height="36.4883" rx="12.5" ry="12.5" style="stroke:#181818;stroke-width:1.5;" width="134" x="375" y="396.418"/><text fill="#000000" font-family="sans-serif" font-size="14" lengthAdjust="spacing" textLength="114" x="385" y="419.9531">StateMachine (2)</text><path d="M325,414.6621 L335,414.6621 C350,414.6621 350,414.6621 365,414.6621 L375,414.6621 " fill="none" style="stroke:#181818;stroke-width:1.0;"/><path d="M158,245.1973 L168,245.1973 C183,245.1973 183,414.6621 198,414.6621 L208,414.6621 " fill="none" style="stroke:#181818;stroke-width:1.0;"/><path d="M62,245.1973 L72,245.1973 C87,245.1973 87,245.1973 102,245.1973 L112,245.1973 " fill="none" style="stroke:#181818;stroke-width:1.0;"/><!--MD5=[fa641567caefd69278f3be667e603f39]
@startmindmap
title Resources for project appsync-lambda-sfn-sam
skinparam monochrome true
+ Infra
++ aws
+++ AppSync
++++ DataSource (1)
++++ GraphqlApi (1)
++++ Resolver (1)
+++ DynamoDB
++++ Table (1)
+++ IAM
++++ Role (5)
+++ Lambda
++++ Function (1)
+++ StepFunctions
++++ StateMachine (2)
@endmindmap

PlantUML version 1.2022.6(Tue Jun 21 12:34:49 COT 2022)
(GPL source distribution)
Java Runtime: Java(TM) SE Runtime Environment
JVM: Java HotSpot(TM) 64-Bit Server VM
Default Encoding: UTF-8
Language: en
Country: GB
--></g></svg>