<?xml version="1.0" encoding="UTF-8" standalone="no"?>
<!DOCTYPE svg PUBLIC "-//W3C//DTD SVG 1.1//EN"
 "http://www.w3.org/Graphics/SVG/1.1/DTD/svg11.dtd">
<!-- Generated by graphviz version 4.0.0 (20220529.0937)
 -->
<!-- Title: graphname Pages: 1 -->
<svg width="807pt" height="313pt"
 viewBox="0.00 0.00 807.00 313.00" xmlns="http://www.w3.org/2000/svg" xmlns:xlink="http://www.w3.org/1999/xlink">
<g id="graph0" class="graph" transform="scale(1 1) rotate(0) translate(4 309)">
<title>graphname</title>
<polygon fill="#fafafa" stroke="transparent" points="-4,4 -4,-309 803,-309 803,4 -4,4"/>
<text text-anchor="start" x="258.5" y="-280.4" font-family="Helvetica,sans-Serif" font-weight="bold" font-size="22.00" fill="#383838">Project hostedzone&#45;private</text>
<text text-anchor="start" x="395.5" y="-264.8" font-family="Helvetica,sans-Serif" font-size="14.00"> &#160;</text>
<text text-anchor="start" x="258.5" y="-243.2" font-family="Helvetica,sans-Serif" font-weight="bold" font-size="16.00" fill="#707070">Live Diagram</text>
<g id="clust1" class="cluster">
<title>cluster_aws</title>
<polygon fill="#f5f5f5" stroke="#f5f5f5" points="8,-8 8,-221 791,-221 791,-8 8,-8"/>
<text text-anchor="start" x="337.5" y="-23" font-family="Helvetica,sans-Serif" font-weight="bold" font-size="20.00" fill="#707070">Provider aws</text>
</g>
<g id="clust2" class="cluster">
<title>cluster_aws_</title>
<polygon fill="#eeeeee" stroke="#eeeeee" points="16,-54 16,-213 783,-213 783,-54 16,-54"/>
<text text-anchor="start" x="399.36" y="-58.3" font-family="Helvetica,sans-Serif" font-size="1.00" fill="#383838"> </text>
</g>
<!-- Vpc::::vpc&#45;1 -->
<g id="node1" class="node">
<title>Vpc::::vpc&#45;1</title>
<polygon fill="#e5e5e5" stroke="#dddddd" points="710.5,-129 615.5,-129 615.5,-71 710.5,-71 710.5,-129"/>
<text text-anchor="start" x="628" y="-109.2" font-family="Helvetica,sans-Serif" font-weight="bold" font-size="16.00" fill="#707070">EC2::Vpc</text>
<text text-anchor="start" x="628" y="-84.2" font-family="Helvetica,sans-Serif" font-size="16.00" fill="#383838">vpc&#45;1</text>
</g>
<!-- Vpc::::vpc&#45;2 -->
<g id="node2" class="node">
<title>Vpc::::vpc&#45;2</title>
<polygon fill="#e5e5e5" stroke="#dddddd" points="204,-205 109,-205 109,-147 204,-147 204,-205"/>
<text text-anchor="start" x="121.5" y="-185.2" font-family="Helvetica,sans-Serif" font-weight="bold" font-size="16.00" fill="#707070">EC2::Vpc</text>
<text text-anchor="start" x="121.5" y="-160.2" font-family="Helvetica,sans-Serif" font-size="16.00" fill="#383838">vpc&#45;2</text>
</g>
<!-- HostedZone::::test.grucloud.org. -->
<g id="node3" class="node">
<title>HostedZone::::test.grucloud.org.</title>
<polygon fill="#e5e5e5" stroke="#dddddd" points="515,-177 325,-177 325,-119 515,-119 515,-177"/>
<text text-anchor="start" x="337" y="-157.2" font-family="Helvetica,sans-Serif" font-weight="bold" font-size="16.00" fill="#707070">Route53::HostedZone</text>
<text text-anchor="start" x="337" y="-132.2" font-family="Helvetica,sans-Serif" font-size="16.00" fill="#383838">test.grucloud.org.</text>
</g>
<!-- HostedZone::::test.grucloud.org.&#45;&gt;Vpc::::vpc&#45;1 -->
<g id="edge2" class="edge">
<title>HostedZone::::test.grucloud.org.&#45;&gt;Vpc::::vpc&#45;1</title>
<path fill="none" stroke="#707070" d="M515.21,-129.24C545.65,-123.17 578.44,-116.64 605.29,-111.3"/>
<polygon fill="#707070" stroke="#707070" points="606.15,-114.69 615.27,-109.31 604.78,-107.83 606.15,-114.69"/>
</g>
<!-- Domain::::grucloud.org -->
<g id="node5" class="node">
<title>Domain::::grucloud.org</title>
<polygon fill="#e5e5e5" stroke="#dddddd" points="775,-205 551,-205 551,-147 775,-147 775,-205"/>
<text text-anchor="start" x="563" y="-185.2" font-family="Helvetica,sans-Serif" font-weight="bold" font-size="16.00" fill="#707070">Route53Domains::Domain</text>
<text text-anchor="start" x="563" y="-160.2" font-family="Helvetica,sans-Serif" font-size="16.00" fill="#383838">grucloud.org</text>
</g>
<!-- HostedZone::::test.grucloud.org.&#45;&gt;Domain::::grucloud.org -->
<g id="edge1" class="edge">
<title>HostedZone::::test.grucloud.org.&#45;&gt;Domain::::grucloud.org</title>
<path fill="none" stroke="#707070" d="M515.21,-158.95C523.56,-159.92 532.09,-160.91 540.62,-161.9"/>
<polygon fill="#707070" stroke="#707070" points="540.3,-165.38 550.63,-163.06 541.1,-158.43 540.3,-165.38"/>
</g>
<!-- ZoneVpcAssociation::::zone&#45;assoc::test.grucloud.org.::vpc&#45;1 -->
<g id="node4" class="node">
<title>ZoneVpcAssociation::::zone&#45;assoc::test.grucloud.org.::vpc&#45;1</title>
<polygon fill="#e5e5e5" stroke="#dddddd" points="289,-129 24,-129 24,-71 289,-71 289,-129"/>
<text text-anchor="start" x="36.5" y="-109.2" font-family="Helvetica,sans-Serif" font-weight="bold" font-size="16.00" fill="#707070">Route53::ZoneVpcAssociation</text>
<text text-anchor="start" x="36.5" y="-84.2" font-family="Helvetica,sans-Serif" font-size="16.00" fill="#383838">zone&#45;assoc::test.grucloud.org.::...</text>
</g>
<!-- ZoneVpcAssociation::::zone&#45;assoc::test.grucloud.org.::vpc&#45;1&#45;&gt;Vpc::::vpc&#45;1 -->
<g id="edge3" class="edge">
<title>ZoneVpcAssociation::::zone&#45;assoc::test.grucloud.org.::vpc&#45;1&#45;&gt;Vpc::::vpc&#45;1</title>
<path fill="none" stroke="#707070" d="M289.06,-100C391.54,-100 528.77,-100 604.96,-100"/>
<polygon fill="#707070" stroke="#707070" points="605.29,-103.5 615.29,-100 605.29,-96.5 605.29,-103.5"/>
</g>
<!-- ZoneVpcAssociation::::zone&#45;assoc::test.grucloud.org.::vpc&#45;1&#45;&gt;HostedZone::::test.grucloud.org. -->
<g id="edge4" class="edge">
<title>ZoneVpcAssociation::::zone&#45;assoc::test.grucloud.org.::vpc&#45;1&#45;&gt;HostedZone::::test.grucloud.org.</title>
<path fill="none" stroke="#707070" d="M289.02,-124.14C297.7,-125.73 306.38,-127.33 314.9,-128.89"/>
<polygon fill="#707070" stroke="#707070" points="314.36,-132.35 324.82,-130.71 315.62,-125.47 314.36,-132.35"/>
</g>
</g>
</svg>
