<?xml version="1.0" encoding="UTF-8" standalone="no"?>
<!DOCTYPE svg PUBLIC "-//W3C//DTD SVG 1.1//EN"
 "http://www.w3.org/Graphics/SVG/1.1/DTD/svg11.dtd">
<!-- Generated by graphviz version 3.0.0 (20220226.1711)
 -->
<!-- Title: graphname Pages: 1 -->
<svg width="1296pt" height="545pt"
 viewBox="0.00 0.00 1296.00 545.00" xmlns="http://www.w3.org/2000/svg" xmlns:xlink="http://www.w3.org/1999/xlink">
<g id="graph0" class="graph" transform="scale(1 1) rotate(0) translate(4 541)">
<title>graphname</title>
<polygon fill="#fafafa" stroke="transparent" points="-4,4 -4,-541 1292,-541 1292,4 -4,4"/>
<text text-anchor="start" x="570" y="-512.4" font-family="Helvetica,sans-Serif" font-weight="bold" font-size="22.00" fill="#383838">Project ecs&#45;cli</text>
<text text-anchor="start" x="640" y="-496.8" font-family="Helvetica,sans-Serif" font-size="14.00"> &#160;</text>
<text text-anchor="start" x="570" y="-475.2" font-family="Helvetica,sans-Serif" font-weight="bold" font-size="16.00" fill="#707070">Live Diagram</text>
<g id="clust1" class="cluster">
<title>cluster_aws</title>
<polygon fill="#f5f5f5" stroke="#f5f5f5" points="8,-8 8,-453 1280,-453 1280,-8 8,-8"/>
<text text-anchor="start" x="582" y="-23" font-family="Helvetica,sans-Serif" font-weight="bold" font-size="20.00" fill="#707070">Provider aws</text>
</g>
<g id="clust2" class="cluster">
<title>cluster_aws_</title>
<polygon fill="#eeeeee" stroke="#eeeeee" points="16,-54 16,-445 1272,-445 1272,-54 16,-54"/>
<text text-anchor="start" x="643.86" y="-58.3" font-family="Helvetica,sans-Serif" font-size="1.00" fill="#383838"> </text>
</g>
<!-- AutoScalingGroup::::amazon&#45;ecs&#45;cli&#45;setup&#45;my&#45;cluster&#45;EcsInstanceAsg&#45;E1YAIKY8YI41 -->
<g id="node1" class="node">
<title>AutoScalingGroup::::amazon&#45;ecs&#45;cli&#45;setup&#45;my&#45;cluster&#45;EcsInstanceAsg&#45;E1YAIKY8YI41</title>
<polygon fill="#e5e5e5" stroke="#dddddd" points="305,-433 27,-433 27,-375 305,-375 305,-433"/>
<text text-anchor="start" x="39" y="-413.2" font-family="Helvetica,sans-Serif" font-weight="bold" font-size="16.00" fill="#707070">AutoScaling::AutoScalingGroup</text>
<text text-anchor="start" x="39" y="-388.2" font-family="Helvetica,sans-Serif" font-size="16.00" fill="#383838">amazon&#45;ecs&#45;cli&#45;setup&#45;my&#45;cluster&#45;...</text>
</g>
<!-- LaunchConfiguration::::amazon&#45;ecs&#45;cli&#45;setup&#45;my&#45;cluster&#45;EcsInstanceLc&#45;HWVeTO3QcmK1 -->
<g id="node2" class="node">
<title>LaunchConfiguration::::amazon&#45;ecs&#45;cli&#45;setup&#45;my&#45;cluster&#45;EcsInstanceLc&#45;HWVeTO3QcmK1</title>
<polygon fill="#e5e5e5" stroke="#dddddd" points="633,-437 344,-437 344,-379 633,-379 633,-437"/>
<text text-anchor="start" x="356.5" y="-417.2" font-family="Helvetica,sans-Serif" font-weight="bold" font-size="16.00" fill="#707070">AutoScaling::LaunchConfiguration</text>
<text text-anchor="start" x="356.5" y="-392.2" font-family="Helvetica,sans-Serif" font-size="16.00" fill="#383838">amazon&#45;ecs&#45;cli&#45;setup&#45;my&#45;cluster&#45;...</text>
</g>
<!-- AutoScalingGroup::::amazon&#45;ecs&#45;cli&#45;setup&#45;my&#45;cluster&#45;EcsInstanceAsg&#45;E1YAIKY8YI41&#45;&gt;LaunchConfiguration::::amazon&#45;ecs&#45;cli&#45;setup&#45;my&#45;cluster&#45;EcsInstanceLc&#45;HWVeTO3QcmK1 -->
<g id="edge1" class="edge">
<title>AutoScalingGroup::::amazon&#45;ecs&#45;cli&#45;setup&#45;my&#45;cluster&#45;EcsInstanceAsg&#45;E1YAIKY8YI41&#45;&gt;LaunchConfiguration::::amazon&#45;ecs&#45;cli&#45;setup&#45;my&#45;cluster&#45;EcsInstanceLc&#45;HWVeTO3QcmK1</title>
<path fill="none" stroke="#707070" d="M305.25,-405.73C314.64,-405.84 324.14,-405.96 333.6,-406.08"/>
<polygon fill="#707070" stroke="#707070" points="333.81,-409.58 343.86,-406.21 333.9,-402.58 333.81,-409.58"/>
</g>
<!-- Subnet::::PubSubnetAz1 -->
<g id="node8" class="node">
<title>Subnet::::PubSubnetAz1</title>
<polygon fill="#e5e5e5" stroke="#dddddd" points="875.5,-273 743.5,-273 743.5,-215 875.5,-215 875.5,-273"/>
<text text-anchor="start" x="755.5" y="-253.2" font-family="Helvetica,sans-Serif" font-weight="bold" font-size="16.00" fill="#707070">EC2::Subnet</text>
<text text-anchor="start" x="755.5" y="-228.2" font-family="Helvetica,sans-Serif" font-size="16.00" fill="#383838">PubSubnetAz1</text>
</g>
<!-- AutoScalingGroup::::amazon&#45;ecs&#45;cli&#45;setup&#45;my&#45;cluster&#45;EcsInstanceAsg&#45;E1YAIKY8YI41&#45;&gt;Subnet::::PubSubnetAz1 -->
<g id="edge2" class="edge">
<title>AutoScalingGroup::::amazon&#45;ecs&#45;cli&#45;setup&#45;my&#45;cluster&#45;EcsInstanceAsg&#45;E1YAIKY8YI41&#45;&gt;Subnet::::PubSubnetAz1</title>
<path fill="none" stroke="#707070" d="M295.54,-374.84C299.9,-372.15 304.07,-369.21 308,-366 335.7,-343.36 314.41,-314.1 344,-294 397.32,-257.78 568.96,-276.33 633,-269 665.83,-265.24 701.99,-260.24 732.91,-255.7"/>
<polygon fill="#707070" stroke="#707070" points="733.81,-259.1 743.19,-254.18 732.78,-252.18 733.81,-259.1"/>
</g>
<!-- Subnet::::PubSubnetAz2 -->
<g id="node9" class="node">
<title>Subnet::::PubSubnetAz2</title>
<polygon fill="#e5e5e5" stroke="#dddddd" points="875.5,-177 743.5,-177 743.5,-119 875.5,-119 875.5,-177"/>
<text text-anchor="start" x="755.5" y="-157.2" font-family="Helvetica,sans-Serif" font-weight="bold" font-size="16.00" fill="#707070">EC2::Subnet</text>
<text text-anchor="start" x="755.5" y="-132.2" font-family="Helvetica,sans-Serif" font-size="16.00" fill="#383838">PubSubnetAz2</text>
</g>
<!-- AutoScalingGroup::::amazon&#45;ecs&#45;cli&#45;setup&#45;my&#45;cluster&#45;EcsInstanceAsg&#45;E1YAIKY8YI41&#45;&gt;Subnet::::PubSubnetAz2 -->
<g id="edge3" class="edge">
<title>AutoScalingGroup::::amazon&#45;ecs&#45;cli&#45;setup&#45;my&#45;cluster&#45;EcsInstanceAsg&#45;E1YAIKY8YI41&#45;&gt;Subnet::::PubSubnetAz2</title>
<path fill="none" stroke="#707070" d="M296.63,-374.94C300.63,-372.22 304.44,-369.25 308,-366 341.98,-335.02 307.9,-297.48 344,-269 445.58,-188.86 513.37,-283.28 633,-234 651.74,-226.28 651.49,-216.2 669,-206 689.24,-194.21 712.32,-183.59 733.82,-174.76"/>
<polygon fill="#707070" stroke="#707070" points="735.27,-177.94 743.24,-170.95 732.65,-171.45 735.27,-177.94"/>
</g>
<!-- InstanceProfile::::amazon&#45;ecs&#45;cli&#45;setup&#45;my&#45;cluster&#45;EcsInstanceProfile&#45;1V2DBJVUCN7IT -->
<g id="node12" class="node">
<title>InstanceProfile::::amazon&#45;ecs&#45;cli&#45;setup&#45;my&#45;cluster&#45;EcsInstanceProfile&#45;1V2DBJVUCN7IT</title>
<polygon fill="#e5e5e5" stroke="#dddddd" points="948.5,-437 670.5,-437 670.5,-379 948.5,-379 948.5,-437"/>
<text text-anchor="start" x="682.5" y="-417.2" font-family="Helvetica,sans-Serif" font-weight="bold" font-size="16.00" fill="#707070">IAM::InstanceProfile</text>
<text text-anchor="start" x="682.5" y="-392.2" font-family="Helvetica,sans-Serif" font-size="16.00" fill="#383838">amazon&#45;ecs&#45;cli&#45;setup&#45;my&#45;cluster&#45;...</text>
</g>
<!-- LaunchConfiguration::::amazon&#45;ecs&#45;cli&#45;setup&#45;my&#45;cluster&#45;EcsInstanceLc&#45;HWVeTO3QcmK1&#45;&gt;InstanceProfile::::amazon&#45;ecs&#45;cli&#45;setup&#45;my&#45;cluster&#45;EcsInstanceProfile&#45;1V2DBJVUCN7IT -->
<g id="edge5" class="edge">
<title>LaunchConfiguration::::amazon&#45;ecs&#45;cli&#45;setup&#45;my&#45;cluster&#45;EcsInstanceLc&#45;HWVeTO3QcmK1&#45;&gt;InstanceProfile::::amazon&#45;ecs&#45;cli&#45;setup&#45;my&#45;cluster&#45;EcsInstanceProfile&#45;1V2DBJVUCN7IT</title>
<path fill="none" stroke="#707070" d="M633.14,-408C642.15,-408 651.23,-408 660.26,-408"/>
<polygon fill="#707070" stroke="#707070" points="660.43,-411.5 670.43,-408 660.43,-404.5 660.43,-411.5"/>
</g>
<!-- SecurityGroup::::sg::Vpc::amazon&#45;ecs&#45;cli&#45;setup&#45;my&#45;cluster&#45;EcsSecurityGroup&#45;1M3ZGBGN81ILF -->
<g id="node14" class="node">
<title>SecurityGroup::::sg::Vpc::amazon&#45;ecs&#45;cli&#45;setup&#45;my&#45;cluster&#45;EcsSecurityGroup&#45;1M3ZGBGN81ILF</title>
<polygon fill="#e5e5e5" stroke="#dddddd" points="950,-361 669,-361 669,-303 950,-303 950,-361"/>
<text text-anchor="start" x="681.5" y="-341.2" font-family="Helvetica,sans-Serif" font-weight="bold" font-size="16.00" fill="#707070">EC2::SecurityGroup</text>
<text text-anchor="start" x="681.5" y="-316.2" font-family="Helvetica,sans-Serif" font-size="16.00" fill="#383838">sg::Vpc::amazon&#45;ecs&#45;cli&#45;setup&#45;my...</text>
</g>
<!-- LaunchConfiguration::::amazon&#45;ecs&#45;cli&#45;setup&#45;my&#45;cluster&#45;EcsInstanceLc&#45;HWVeTO3QcmK1&#45;&gt;SecurityGroup::::sg::Vpc::amazon&#45;ecs&#45;cli&#45;setup&#45;my&#45;cluster&#45;EcsSecurityGroup&#45;1M3ZGBGN81ILF -->
<g id="edge4" class="edge">
<title>LaunchConfiguration::::amazon&#45;ecs&#45;cli&#45;setup&#45;my&#45;cluster&#45;EcsInstanceLc&#45;HWVeTO3QcmK1&#45;&gt;SecurityGroup::::sg::Vpc::amazon&#45;ecs&#45;cli&#45;setup&#45;my&#45;cluster&#45;EcsSecurityGroup&#45;1M3ZGBGN81ILF</title>
<path fill="none" stroke="#707070" d="M611.47,-378.94C632.82,-373.85 655.13,-368.54 676.73,-363.39"/>
<polygon fill="#707070" stroke="#707070" points="677.69,-366.76 686.6,-361.04 676.06,-359.95 677.69,-366.76"/>
</g>
<!-- InternetGateway::::InternetGateway -->
<g id="node3" class="node">
<title>InternetGateway::::InternetGateway</title>
<polygon fill="#e5e5e5" stroke="#dddddd" points="584,-129 393,-129 393,-71 584,-71 584,-129"/>
<text text-anchor="start" x="405.5" y="-109.2" font-family="Helvetica,sans-Serif" font-weight="bold" font-size="16.00" fill="#707070">EC2::InternetGateway</text>
<text text-anchor="start" x="405.5" y="-84.2" font-family="Helvetica,sans-Serif" font-size="16.00" fill="#383838">InternetGateway</text>
</g>
<!-- Vpc::::Vpc -->
<g id="node10" class="node">
<title>Vpc::::Vpc</title>
<polygon fill="#e5e5e5" stroke="#dddddd" points="1172.5,-225 1077.5,-225 1077.5,-167 1172.5,-167 1172.5,-225"/>
<text text-anchor="start" x="1090" y="-205.2" font-family="Helvetica,sans-Serif" font-weight="bold" font-size="16.00" fill="#707070">EC2::Vpc</text>
<text text-anchor="start" x="1090" y="-180.2" font-family="Helvetica,sans-Serif" font-size="16.00" fill="#383838">Vpc</text>
</g>
<!-- InternetGateway::::InternetGateway&#45;&gt;Vpc::::Vpc -->
<g id="edge6" class="edge">
<title>InternetGateway::::InternetGateway&#45;&gt;Vpc::::Vpc</title>
<path fill="none" stroke="#707070" d="M584.11,-90.21C678.31,-83.21 826.31,-79.68 950,-110 992.66,-120.46 1036.99,-142.56 1070.23,-161.74"/>
<polygon fill="#707070" stroke="#707070" points="1068.47,-164.77 1078.86,-166.8 1072.01,-158.73 1068.47,-164.77"/>
</g>
<!-- Route::::RouteViaIgw&#45;igw -->
<g id="node4" class="node">
<title>Route::::RouteViaIgw&#45;igw</title>
<polygon fill="#e5e5e5" stroke="#dddddd" points="238.5,-205 93.5,-205 93.5,-147 238.5,-147 238.5,-205"/>
<text text-anchor="start" x="106" y="-185.2" font-family="Helvetica,sans-Serif" font-weight="bold" font-size="16.00" fill="#707070">EC2::Route</text>
<text text-anchor="start" x="106" y="-160.2" font-family="Helvetica,sans-Serif" font-size="16.00" fill="#383838">RouteViaIgw&#45;igw</text>
</g>
<!-- Route::::RouteViaIgw&#45;igw&#45;&gt;InternetGateway::::InternetGateway -->
<g id="edge8" class="edge">
<title>Route::::RouteViaIgw&#45;igw&#45;&gt;InternetGateway::::InternetGateway</title>
<path fill="none" stroke="#707070" d="M238.53,-159.04C280.98,-148.97 335.57,-136.03 382.81,-124.82"/>
<polygon fill="#707070" stroke="#707070" points="383.85,-128.18 392.77,-122.46 382.24,-121.36 383.85,-128.18"/>
</g>
<!-- RouteTable::::RouteViaIgw -->
<g id="node5" class="node">
<title>RouteTable::::RouteViaIgw</title>
<polygon fill="#e5e5e5" stroke="#dddddd" points="564,-225 413,-225 413,-167 564,-167 564,-225"/>
<text text-anchor="start" x="425.5" y="-205.2" font-family="Helvetica,sans-Serif" font-weight="bold" font-size="16.00" fill="#707070">EC2::RouteTable</text>
<text text-anchor="start" x="425.5" y="-180.2" font-family="Helvetica,sans-Serif" font-size="16.00" fill="#383838">RouteViaIgw</text>
</g>
<!-- Route::::RouteViaIgw&#45;igw&#45;&gt;RouteTable::::RouteViaIgw -->
<g id="edge7" class="edge">
<title>Route::::RouteViaIgw&#45;igw&#45;&gt;RouteTable::::RouteViaIgw</title>
<path fill="none" stroke="#707070" d="M238.53,-180.46C287.13,-183.5 351.63,-187.52 402.8,-190.71"/>
<polygon fill="#707070" stroke="#707070" points="402.65,-194.21 412.85,-191.34 403.09,-187.23 402.65,-194.21"/>
</g>
<!-- RouteTable::::RouteViaIgw&#45;&gt;Subnet::::PubSubnetAz1 -->
<g id="edge10" class="edge">
<title>RouteTable::::RouteViaIgw&#45;&gt;Subnet::::PubSubnetAz1</title>
<path fill="none" stroke="#707070" d="M564.29,-207.25C615.22,-214.92 682.38,-225.02 733.38,-232.7"/>
<polygon fill="#707070" stroke="#707070" points="732.95,-236.17 743.36,-234.2 733.99,-229.25 732.95,-236.17"/>
</g>
<!-- RouteTable::::RouteViaIgw&#45;&gt;Subnet::::PubSubnetAz2 -->
<g id="edge11" class="edge">
<title>RouteTable::::RouteViaIgw&#45;&gt;Subnet::::PubSubnetAz2</title>
<path fill="none" stroke="#707070" d="M564.29,-184.75C615.22,-177.08 682.38,-166.98 733.38,-159.3"/>
<polygon fill="#707070" stroke="#707070" points="733.99,-162.75 743.36,-157.8 732.95,-155.83 733.99,-162.75"/>
</g>
<!-- RouteTable::::RouteViaIgw&#45;&gt;Vpc::::Vpc -->
<g id="edge9" class="edge">
<title>RouteTable::::RouteViaIgw&#45;&gt;Vpc::::Vpc</title>
<path fill="none" stroke="#707070" d="M564.15,-196C692.49,-196 952.21,-196 1067.11,-196"/>
<polygon fill="#707070" stroke="#707070" points="1067.44,-199.5 1077.44,-196 1067.44,-192.5 1067.44,-199.5"/>
</g>
<!-- RouteTableAssociation::::rt&#45;assoc::RouteViaIgw::PubSubnetAz1 -->
<g id="node6" class="node">
<title>RouteTableAssociation::::rt&#45;assoc::RouteViaIgw::PubSubnetAz1</title>
<polygon fill="#e5e5e5" stroke="#dddddd" points="308,-357 24,-357 24,-299 308,-299 308,-357"/>
<text text-anchor="start" x="36" y="-337.2" font-family="Helvetica,sans-Serif" font-weight="bold" font-size="16.00" fill="#707070">EC2::RouteTableAssociation</text>
<text text-anchor="start" x="36" y="-312.2" font-family="Helvetica,sans-Serif" font-size="16.00" fill="#383838">rt&#45;assoc::RouteViaIgw::PubSubnet...</text>
</g>
<!-- RouteTableAssociation::::rt&#45;assoc::RouteViaIgw::PubSubnetAz1&#45;&gt;RouteTable::::RouteViaIgw -->
<g id="edge12" class="edge">
<title>RouteTableAssociation::::rt&#45;assoc::RouteViaIgw::PubSubnetAz1&#45;&gt;RouteTable::::RouteViaIgw</title>
<path fill="none" stroke="#707070" d="M293.25,-298.98C298.38,-296.25 303.32,-293.27 308,-290 330.75,-274.11 321.48,-255.2 344,-239 361.41,-226.48 382.48,-217.56 403.06,-211.23"/>
<polygon fill="#707070" stroke="#707070" points="404.16,-214.55 412.79,-208.41 402.21,-207.83 404.16,-214.55"/>
</g>
<!-- RouteTableAssociation::::rt&#45;assoc::RouteViaIgw::PubSubnetAz1&#45;&gt;Subnet::::PubSubnetAz1 -->
<g id="edge13" class="edge">
<title>RouteTableAssociation::::rt&#45;assoc::RouteViaIgw::PubSubnetAz1&#45;&gt;Subnet::::PubSubnetAz1</title>
<path fill="none" stroke="#707070" d="M276.41,-298.9C287.1,-295.94 297.77,-292.94 308,-290 324.08,-285.38 327.56,-282.09 344,-279 479.59,-253.5 640.76,-246.44 733.19,-244.57"/>
<polygon fill="#707070" stroke="#707070" points="733.35,-248.07 743.29,-244.38 733.22,-241.07 733.35,-248.07"/>
</g>
<!-- RouteTableAssociation::::rt&#45;assoc::RouteViaIgw::PubSubnetAz2 -->
<g id="node7" class="node">
<title>RouteTableAssociation::::rt&#45;assoc::RouteViaIgw::PubSubnetAz2</title>
<polygon fill="#e5e5e5" stroke="#dddddd" points="308,-281 24,-281 24,-223 308,-223 308,-281"/>
<text text-anchor="start" x="36" y="-261.2" font-family="Helvetica,sans-Serif" font-weight="bold" font-size="16.00" fill="#707070">EC2::RouteTableAssociation</text>
<text text-anchor="start" x="36" y="-236.2" font-family="Helvetica,sans-Serif" font-size="16.00" fill="#383838">rt&#45;assoc::RouteViaIgw::PubSubnet...</text>
</g>
<!-- RouteTableAssociation::::rt&#45;assoc::RouteViaIgw::PubSubnetAz2&#45;&gt;RouteTable::::RouteViaIgw -->
<g id="edge14" class="edge">
<title>RouteTableAssociation::::rt&#45;assoc::RouteViaIgw::PubSubnetAz2&#45;&gt;RouteTable::::RouteViaIgw</title>
<path fill="none" stroke="#707070" d="M308.04,-227.36C340.34,-221.71 373.7,-215.88 402.76,-210.81"/>
<polygon fill="#707070" stroke="#707070" points="403.6,-214.21 412.85,-209.04 402.4,-207.32 403.6,-214.21"/>
</g>
<!-- RouteTableAssociation::::rt&#45;assoc::RouteViaIgw::PubSubnetAz2&#45;&gt;Subnet::::PubSubnetAz2 -->
<g id="edge15" class="edge">
<title>RouteTableAssociation::::rt&#45;assoc::RouteViaIgw::PubSubnetAz2&#45;&gt;Subnet::::PubSubnetAz2</title>
<path fill="none" stroke="#707070" d="M294.11,-222.86C298.94,-220.16 303.6,-217.22 308,-214 331.88,-196.54 318.18,-172.46 344,-158 376.94,-139.55 610.17,-142.74 733.09,-145.78"/>
<polygon fill="#707070" stroke="#707070" points="733.11,-149.29 743.19,-146.04 733.28,-142.29 733.11,-149.29"/>
</g>
<!-- Subnet::::PubSubnetAz1&#45;&gt;Vpc::::Vpc -->
<g id="edge18" class="edge">
<title>Subnet::::PubSubnetAz1&#45;&gt;Vpc::::Vpc</title>
<path fill="none" stroke="#707070" d="M875.84,-234C932.31,-225.35 1013.12,-212.98 1067.01,-204.73"/>
<polygon fill="#707070" stroke="#707070" points="1067.73,-208.16 1077.09,-203.18 1066.67,-201.24 1067.73,-208.16"/>
</g>
<!-- Subnet::::PubSubnetAz2&#45;&gt;Vpc::::Vpc -->
<g id="edge19" class="edge">
<title>Subnet::::PubSubnetAz2&#45;&gt;Vpc::::Vpc</title>
<path fill="none" stroke="#707070" d="M875.84,-158C932.31,-166.65 1013.12,-179.02 1067.01,-187.27"/>
<polygon fill="#707070" stroke="#707070" points="1066.67,-190.76 1077.09,-188.82 1067.73,-183.84 1066.67,-190.76"/>
</g>
<!-- Cluster::::my&#45;cluster -->
<g id="node11" class="node">
<title>Cluster::::my&#45;cluster</title>
<polygon fill="#e5e5e5" stroke="#dddddd" points="227,-129 105,-129 105,-71 227,-71 227,-129"/>
<text text-anchor="start" x="117" y="-109.2" font-family="Helvetica,sans-Serif" font-weight="bold" font-size="16.00" fill="#707070">ECS::Cluster</text>
<text text-anchor="start" x="117" y="-84.2" font-family="Helvetica,sans-Serif" font-size="16.00" fill="#383838">my&#45;cluster</text>
</g>
<!-- Role::::amazon&#45;ecs&#45;cli&#45;setup&#45;my&#45;cluster&#45;EcsInstanceRole&#45;TERDPQNAO5Q2 -->
<g id="node13" class="node">
<title>Role::::amazon&#45;ecs&#45;cli&#45;setup&#45;my&#45;cluster&#45;EcsInstanceRole&#45;TERDPQNAO5Q2</title>
<polygon fill="#e5e5e5" stroke="#dddddd" points="1264,-437 986,-437 986,-379 1264,-379 1264,-437"/>
<text text-anchor="start" x="998" y="-417.2" font-family="Helvetica,sans-Serif" font-weight="bold" font-size="16.00" fill="#707070">IAM::Role</text>
<text text-anchor="start" x="998" y="-392.2" font-family="Helvetica,sans-Serif" font-size="16.00" fill="#383838">amazon&#45;ecs&#45;cli&#45;setup&#45;my&#45;cluster&#45;...</text>
</g>
<!-- InstanceProfile::::amazon&#45;ecs&#45;cli&#45;setup&#45;my&#45;cluster&#45;EcsInstanceProfile&#45;1V2DBJVUCN7IT&#45;&gt;Role::::amazon&#45;ecs&#45;cli&#45;setup&#45;my&#45;cluster&#45;EcsInstanceRole&#45;TERDPQNAO5Q2 -->
<g id="edge20" class="edge">
<title>InstanceProfile::::amazon&#45;ecs&#45;cli&#45;setup&#45;my&#45;cluster&#45;EcsInstanceProfile&#45;1V2DBJVUCN7IT&#45;&gt;Role::::amazon&#45;ecs&#45;cli&#45;setup&#45;my&#45;cluster&#45;EcsInstanceRole&#45;TERDPQNAO5Q2</title>
<path fill="none" stroke="#707070" d="M948.92,-408C957.86,-408 966.88,-408 975.86,-408"/>
<polygon fill="#707070" stroke="#707070" points="975.97,-411.5 985.97,-408 975.97,-404.5 975.97,-411.5"/>
</g>
<!-- SecurityGroup::::sg::Vpc::amazon&#45;ecs&#45;cli&#45;setup&#45;my&#45;cluster&#45;EcsSecurityGroup&#45;1M3ZGBGN81ILF&#45;&gt;Vpc::::Vpc -->
<g id="edge16" class="edge">
<title>SecurityGroup::::sg::Vpc::amazon&#45;ecs&#45;cli&#45;setup&#45;my&#45;cluster&#45;EcsSecurityGroup&#45;1M3ZGBGN81ILF&#45;&gt;Vpc::::Vpc</title>
<path fill="none" stroke="#707070" d="M896.31,-303C914.2,-296.46 932.83,-289.29 950,-282 990.26,-264.9 1034.42,-243.04 1068.18,-225.63"/>
<polygon fill="#707070" stroke="#707070" points="1070.15,-228.55 1077.42,-220.85 1066.93,-222.34 1070.15,-228.55"/>
</g>
<!-- SecurityGroupRuleIngress::::sg::Vpc::amazon&#45;ecs&#45;cli&#45;setup&#45;my&#45;cluster&#45;EcsSecurityGroup&#45;1M3ZGBGN81ILF&#45;rule&#45;ingress&#45;tcp&#45;80 -->
<g id="node15" class="node">
<title>SecurityGroupRuleIngress::::sg::Vpc::amazon&#45;ecs&#45;cli&#45;setup&#45;my&#45;cluster&#45;EcsSecurityGroup&#45;1M3ZGBGN81ILF&#45;rule&#45;ingress&#45;tcp&#45;80</title>
<polygon fill="#e5e5e5" stroke="#dddddd" points="629,-361 348,-361 348,-303 629,-303 629,-361"/>
<text text-anchor="start" x="360.5" y="-341.2" font-family="Helvetica,sans-Serif" font-weight="bold" font-size="16.00" fill="#707070">EC2::SecurityGroupRuleIngress</text>
<text text-anchor="start" x="360.5" y="-316.2" font-family="Helvetica,sans-Serif" font-size="16.00" fill="#383838">sg::Vpc::amazon&#45;ecs&#45;cli&#45;setup&#45;my...</text>
</g>
<!-- SecurityGroupRuleIngress::::sg::Vpc::amazon&#45;ecs&#45;cli&#45;setup&#45;my&#45;cluster&#45;EcsSecurityGroup&#45;1M3ZGBGN81ILF&#45;rule&#45;ingress&#45;tcp&#45;80&#45;&gt;SecurityGroup::::sg::Vpc::amazon&#45;ecs&#45;cli&#45;setup&#45;my&#45;cluster&#45;EcsSecurityGroup&#45;1M3ZGBGN81ILF -->
<g id="edge17" class="edge">
<title>SecurityGroupRuleIngress::::sg::Vpc::amazon&#45;ecs&#45;cli&#45;setup&#45;my&#45;cluster&#45;EcsSecurityGroup&#45;1M3ZGBGN81ILF&#45;rule&#45;ingress&#45;tcp&#45;80&#45;&gt;SecurityGroup::::sg::Vpc::amazon&#45;ecs&#45;cli&#45;setup&#45;my&#45;cluster&#45;EcsSecurityGroup&#45;1M3ZGBGN81ILF</title>
<path fill="none" stroke="#707070" d="M629.42,-332C639.11,-332 648.9,-332 658.64,-332"/>
<polygon fill="#707070" stroke="#707070" points="658.77,-335.5 668.77,-332 658.77,-328.5 658.77,-335.5"/>
</g>
</g>
</svg>
