<?xml version="1.0" encoding="UTF-8" standalone="no"?>
<!DOCTYPE svg PUBLIC "-//W3C//DTD SVG 1.1//EN"
 "http://www.w3.org/Graphics/SVG/1.1/DTD/svg11.dtd">
<!-- Generated by graphviz version 3.0.0 (20220226.1711)
 -->
<!-- Title: graphname Pages: 1 -->
<svg width="1290pt" height="581pt"
 viewBox="0.00 0.00 1290.00 581.00" xmlns="http://www.w3.org/2000/svg" xmlns:xlink="http://www.w3.org/1999/xlink">
<g id="graph0" class="graph" transform="scale(1 1) rotate(0) translate(4 577)">
<title>graphname</title>
<polygon fill="#fafafa" stroke="transparent" points="-4,4 -4,-577 1286,-577 1286,4 -4,4"/>
<text text-anchor="start" x="567" y="-548.4" font-family="Helvetica,sans-Serif" font-weight="bold" font-size="22.00" fill="#383838">Project ecs&#45;cli</text>
<text text-anchor="start" x="637" y="-532.8" font-family="Helvetica,sans-Serif" font-size="14.00"> &#160;</text>
<text text-anchor="start" x="567" y="-511.2" font-family="Helvetica,sans-Serif" font-weight="bold" font-size="16.00" fill="#707070">Live Diagram</text>
<g id="clust1" class="cluster">
<title>cluster_aws</title>
<polygon fill="#f5f5f5" stroke="#f5f5f5" points="8,-8 8,-489 1274,-489 1274,-8 8,-8"/>
<text text-anchor="start" x="579" y="-23" font-family="Helvetica,sans-Serif" font-weight="bold" font-size="20.00" fill="#707070">Provider aws</text>
</g>
<g id="clust2" class="cluster">
<title>cluster_aws_</title>
<polygon fill="#eeeeee" stroke="#eeeeee" points="16,-54 16,-481 1266,-481 1266,-54 16,-54"/>
<text text-anchor="start" x="640.86" y="-58.3" font-family="Helvetica,sans-Serif" font-size="1.00" fill="#383838"> </text>
</g>
<!-- AutoScalingGroup::::amazon&#45;ecs&#45;cli&#45;setup&#45;my&#45;cluster&#45;EcsInstanceAsg&#45;E1YAIKY8YI41 -->
<g id="node1" class="node">
<title>AutoScalingGroup::::amazon&#45;ecs&#45;cli&#45;setup&#45;my&#45;cluster&#45;EcsInstanceAsg&#45;E1YAIKY8YI41</title>
<polygon fill="#e5e5e5" stroke="#dddddd" points="302,-433 24,-433 24,-375 302,-375 302,-433"/>
<text text-anchor="start" x="36" y="-413.2" font-family="Helvetica,sans-Serif" font-weight="bold" font-size="16.00" fill="#707070">AutoScaling::AutoScalingGroup</text>
<text text-anchor="start" x="36" y="-388.2" font-family="Helvetica,sans-Serif" font-size="16.00" fill="#383838">amazon&#45;ecs&#45;cli&#45;setup&#45;my&#45;cluster&#45;...</text>
</g>
<!-- LaunchConfiguration::::amazon&#45;ecs&#45;cli&#45;setup&#45;my&#45;cluster&#45;EcsInstanceLc&#45;HWVeTO3QcmK1 -->
<g id="node4" class="node">
<title>LaunchConfiguration::::amazon&#45;ecs&#45;cli&#45;setup&#45;my&#45;cluster&#45;EcsInstanceLc&#45;HWVeTO3QcmK1</title>
<polygon fill="#e5e5e5" stroke="#dddddd" points="627,-473 338,-473 338,-415 627,-415 627,-473"/>
<text text-anchor="start" x="350.5" y="-453.2" font-family="Helvetica,sans-Serif" font-weight="bold" font-size="16.00" fill="#707070">AutoScaling::LaunchConfiguration</text>
<text text-anchor="start" x="350.5" y="-428.2" font-family="Helvetica,sans-Serif" font-size="16.00" fill="#383838">amazon&#45;ecs&#45;cli&#45;setup&#45;my&#45;cluster&#45;...</text>
</g>
<!-- AutoScalingGroup::::amazon&#45;ecs&#45;cli&#45;setup&#45;my&#45;cluster&#45;EcsInstanceAsg&#45;E1YAIKY8YI41&#45;&gt;LaunchConfiguration::::amazon&#45;ecs&#45;cli&#45;setup&#45;my&#45;cluster&#45;EcsInstanceLc&#45;HWVeTO3QcmK1 -->
<g id="edge1" class="edge">
<title>AutoScalingGroup::::amazon&#45;ecs&#45;cli&#45;setup&#45;my&#45;cluster&#45;EcsInstanceAsg&#45;E1YAIKY8YI41&#45;&gt;LaunchConfiguration::::amazon&#45;ecs&#45;cli&#45;setup&#45;my&#45;cluster&#45;EcsInstanceLc&#45;HWVeTO3QcmK1</title>
<path fill="none" stroke="#707070" d="M302.34,-421.43C310.8,-422.5 319.35,-423.57 327.88,-424.65"/>
<polygon fill="#707070" stroke="#707070" points="327.51,-428.13 337.87,-425.91 328.39,-421.18 327.51,-428.13"/>
</g>
<!-- Subnet::::Vpc::PubSubnetAz1 -->
<g id="node11" class="node">
<title>Subnet::::Vpc::PubSubnetAz1</title>
<polygon fill="#e5e5e5" stroke="#dddddd" points="888,-245 719,-245 719,-187 888,-187 888,-245"/>
<text text-anchor="start" x="731.5" y="-225.2" font-family="Helvetica,sans-Serif" font-weight="bold" font-size="16.00" fill="#707070">EC2::Subnet</text>
<text text-anchor="start" x="731.5" y="-200.2" font-family="Helvetica,sans-Serif" font-size="16.00" fill="#383838">Vpc::PubSubnetAz1</text>
</g>
<!-- AutoScalingGroup::::amazon&#45;ecs&#45;cli&#45;setup&#45;my&#45;cluster&#45;EcsInstanceAsg&#45;E1YAIKY8YI41&#45;&gt;Subnet::::Vpc::PubSubnetAz1 -->
<g id="edge3" class="edge">
<title>AutoScalingGroup::::amazon&#45;ecs&#45;cli&#45;setup&#45;my&#45;cluster&#45;EcsInstanceAsg&#45;E1YAIKY8YI41&#45;&gt;Subnet::::Vpc::PubSubnetAz1</title>
<path fill="none" stroke="#707070" d="M288.56,-374.93C293.25,-372.22 297.76,-369.25 302,-366 327,-346.87 311.95,-322.67 338,-305 445.58,-232.02 499.6,-285.83 627,-260 653.75,-254.58 682.56,-247.76 708.96,-241.13"/>
<polygon fill="#707070" stroke="#707070" points="710.11,-244.45 718.94,-238.6 708.39,-237.66 710.11,-244.45"/>
</g>
<!-- Subnet::::Vpc::PubSubnetAz2 -->
<g id="node12" class="node">
<title>Subnet::::Vpc::PubSubnetAz2</title>
<polygon fill="#e5e5e5" stroke="#dddddd" points="888,-321 719,-321 719,-263 888,-263 888,-321"/>
<text text-anchor="start" x="731.5" y="-301.2" font-family="Helvetica,sans-Serif" font-weight="bold" font-size="16.00" fill="#707070">EC2::Subnet</text>
<text text-anchor="start" x="731.5" y="-276.2" font-family="Helvetica,sans-Serif" font-size="16.00" fill="#383838">Vpc::PubSubnetAz2</text>
</g>
<!-- AutoScalingGroup::::amazon&#45;ecs&#45;cli&#45;setup&#45;my&#45;cluster&#45;EcsInstanceAsg&#45;E1YAIKY8YI41&#45;&gt;Subnet::::Vpc::PubSubnetAz2 -->
<g id="edge2" class="edge">
<title>AutoScalingGroup::::amazon&#45;ecs&#45;cli&#45;setup&#45;my&#45;cluster&#45;EcsInstanceAsg&#45;E1YAIKY8YI41&#45;&gt;Subnet::::Vpc::PubSubnetAz2</title>
<path fill="none" stroke="#707070" d="M284.5,-374.97C290.54,-372.23 296.42,-369.25 302,-366 321.56,-354.62 317.47,-339.5 338,-330 342.17,-328.07 573.96,-309.77 708.49,-299.29"/>
<polygon fill="#707070" stroke="#707070" points="709.1,-302.75 718.8,-298.49 708.55,-295.77 709.1,-302.75"/>
</g>
<!-- SecurityGroup::::sg::Vpc::amazon&#45;ecs&#45;cli&#45;setup&#45;my&#45;cluster&#45;EcsSecurityGroup&#45;1M3ZGBGN81ILF -->
<g id="node2" class="node">
<title>SecurityGroup::::sg::Vpc::amazon&#45;ecs&#45;cli&#45;setup&#45;my&#45;cluster&#45;EcsSecurityGroup&#45;1M3ZGBGN81ILF</title>
<polygon fill="#e5e5e5" stroke="#dddddd" points="944,-397 663,-397 663,-339 944,-339 944,-397"/>
<text text-anchor="start" x="675.5" y="-377.2" font-family="Helvetica,sans-Serif" font-weight="bold" font-size="16.00" fill="#707070">EC2::SecurityGroup</text>
<text text-anchor="start" x="675.5" y="-352.2" font-family="Helvetica,sans-Serif" font-size="16.00" fill="#383838">sg::Vpc::amazon&#45;ecs&#45;cli&#45;setup&#45;my...</text>
</g>
<!-- Vpc::::Vpc -->
<g id="node13" class="node">
<title>Vpc::::Vpc</title>
<polygon fill="#e5e5e5" stroke="#dddddd" points="1166.5,-221 1071.5,-221 1071.5,-163 1166.5,-163 1166.5,-221"/>
<text text-anchor="start" x="1084" y="-201.2" font-family="Helvetica,sans-Serif" font-weight="bold" font-size="16.00" fill="#707070">EC2::Vpc</text>
<text text-anchor="start" x="1084" y="-176.2" font-family="Helvetica,sans-Serif" font-size="16.00" fill="#383838">Vpc</text>
</g>
<!-- SecurityGroup::::sg::Vpc::amazon&#45;ecs&#45;cli&#45;setup&#45;my&#45;cluster&#45;EcsSecurityGroup&#45;1M3ZGBGN81ILF&#45;&gt;Vpc::::Vpc -->
<g id="edge18" class="edge">
<title>SecurityGroup::::sg::Vpc::amazon&#45;ecs&#45;cli&#45;setup&#45;my&#45;cluster&#45;EcsSecurityGroup&#45;1M3ZGBGN81ILF&#45;&gt;Vpc::::Vpc</title>
<path fill="none" stroke="#707070" d="M924.07,-338.96C930.92,-336.21 937.62,-333.23 944,-330 996.56,-303.42 1048.34,-259.43 1081.57,-228.26"/>
<polygon fill="#707070" stroke="#707070" points="1084.35,-230.45 1089.19,-221.03 1079.53,-225.37 1084.35,-230.45"/>
</g>
<!-- SecurityGroupRuleIngress::::sg::Vpc::amazon&#45;ecs&#45;cli&#45;setup&#45;my&#45;cluster&#45;EcsSecurityGroup&#45;1M3ZGBGN81ILF&#45;rule&#45;ingress&#45;tcp&#45;80 -->
<g id="node3" class="node">
<title>SecurityGroupRuleIngress::::sg::Vpc::amazon&#45;ecs&#45;cli&#45;setup&#45;my&#45;cluster&#45;EcsSecurityGroup&#45;1M3ZGBGN81ILF&#45;rule&#45;ingress&#45;tcp&#45;80</title>
<polygon fill="#e5e5e5" stroke="#dddddd" points="623,-397 342,-397 342,-339 623,-339 623,-397"/>
<text text-anchor="start" x="354.5" y="-377.2" font-family="Helvetica,sans-Serif" font-weight="bold" font-size="16.00" fill="#707070">EC2::SecurityGroupRuleIngress</text>
<text text-anchor="start" x="354.5" y="-352.2" font-family="Helvetica,sans-Serif" font-size="16.00" fill="#383838">sg::Vpc::amazon&#45;ecs&#45;cli&#45;setup&#45;my...</text>
</g>
<!-- SecurityGroupRuleIngress::::sg::Vpc::amazon&#45;ecs&#45;cli&#45;setup&#45;my&#45;cluster&#45;EcsSecurityGroup&#45;1M3ZGBGN81ILF&#45;rule&#45;ingress&#45;tcp&#45;80&#45;&gt;SecurityGroup::::sg::Vpc::amazon&#45;ecs&#45;cli&#45;setup&#45;my&#45;cluster&#45;EcsSecurityGroup&#45;1M3ZGBGN81ILF -->
<g id="edge19" class="edge">
<title>SecurityGroupRuleIngress::::sg::Vpc::amazon&#45;ecs&#45;cli&#45;setup&#45;my&#45;cluster&#45;EcsSecurityGroup&#45;1M3ZGBGN81ILF&#45;rule&#45;ingress&#45;tcp&#45;80&#45;&gt;SecurityGroup::::sg::Vpc::amazon&#45;ecs&#45;cli&#45;setup&#45;my&#45;cluster&#45;EcsSecurityGroup&#45;1M3ZGBGN81ILF</title>
<path fill="none" stroke="#707070" d="M623.42,-368C633.11,-368 642.9,-368 652.64,-368"/>
<polygon fill="#707070" stroke="#707070" points="652.77,-371.5 662.77,-368 652.77,-364.5 652.77,-371.5"/>
</g>
<!-- LaunchConfiguration::::amazon&#45;ecs&#45;cli&#45;setup&#45;my&#45;cluster&#45;EcsInstanceLc&#45;HWVeTO3QcmK1&#45;&gt;SecurityGroup::::sg::Vpc::amazon&#45;ecs&#45;cli&#45;setup&#45;my&#45;cluster&#45;EcsSecurityGroup&#45;1M3ZGBGN81ILF -->
<g id="edge4" class="edge">
<title>LaunchConfiguration::::amazon&#45;ecs&#45;cli&#45;setup&#45;my&#45;cluster&#45;EcsInstanceLc&#45;HWVeTO3QcmK1&#45;&gt;SecurityGroup::::sg::Vpc::amazon&#45;ecs&#45;cli&#45;setup&#45;my&#45;cluster&#45;EcsSecurityGroup&#45;1M3ZGBGN81ILF</title>
<path fill="none" stroke="#707070" d="M605.47,-414.94C626.82,-409.85 649.13,-404.54 670.73,-399.39"/>
<polygon fill="#707070" stroke="#707070" points="671.69,-402.76 680.6,-397.04 670.06,-395.95 671.69,-402.76"/>
</g>
<!-- InstanceProfile::::amazon&#45;ecs&#45;cli&#45;setup&#45;my&#45;cluster&#45;EcsInstanceProfile&#45;1V2DBJVUCN7IT -->
<g id="node15" class="node">
<title>InstanceProfile::::amazon&#45;ecs&#45;cli&#45;setup&#45;my&#45;cluster&#45;EcsInstanceProfile&#45;1V2DBJVUCN7IT</title>
<polygon fill="#e5e5e5" stroke="#dddddd" points="942.5,-473 664.5,-473 664.5,-415 942.5,-415 942.5,-473"/>
<text text-anchor="start" x="676.5" y="-453.2" font-family="Helvetica,sans-Serif" font-weight="bold" font-size="16.00" fill="#707070">IAM::InstanceProfile</text>
<text text-anchor="start" x="676.5" y="-428.2" font-family="Helvetica,sans-Serif" font-size="16.00" fill="#383838">amazon&#45;ecs&#45;cli&#45;setup&#45;my&#45;cluster&#45;...</text>
</g>
<!-- LaunchConfiguration::::amazon&#45;ecs&#45;cli&#45;setup&#45;my&#45;cluster&#45;EcsInstanceLc&#45;HWVeTO3QcmK1&#45;&gt;InstanceProfile::::amazon&#45;ecs&#45;cli&#45;setup&#45;my&#45;cluster&#45;EcsInstanceProfile&#45;1V2DBJVUCN7IT -->
<g id="edge5" class="edge">
<title>LaunchConfiguration::::amazon&#45;ecs&#45;cli&#45;setup&#45;my&#45;cluster&#45;EcsInstanceLc&#45;HWVeTO3QcmK1&#45;&gt;InstanceProfile::::amazon&#45;ecs&#45;cli&#45;setup&#45;my&#45;cluster&#45;EcsInstanceProfile&#45;1V2DBJVUCN7IT</title>
<path fill="none" stroke="#707070" d="M627.14,-444C636.15,-444 645.23,-444 654.26,-444"/>
<polygon fill="#707070" stroke="#707070" points="654.43,-447.5 664.43,-444 654.43,-440.5 654.43,-447.5"/>
</g>
<!-- InternetGateway::::InternetGateway -->
<g id="node5" class="node">
<title>InternetGateway::::InternetGateway</title>
<polygon fill="#e5e5e5" stroke="#dddddd" points="899,-129 708,-129 708,-71 899,-71 899,-129"/>
<text text-anchor="start" x="720.5" y="-109.2" font-family="Helvetica,sans-Serif" font-weight="bold" font-size="16.00" fill="#707070">EC2::InternetGateway</text>
<text text-anchor="start" x="720.5" y="-84.2" font-family="Helvetica,sans-Serif" font-size="16.00" fill="#383838">InternetGateway</text>
</g>
<!-- InternetGateway::::InternetGateway&#45;&gt;Vpc::::Vpc -->
<g id="edge6" class="edge">
<title>InternetGateway::::InternetGateway&#45;&gt;Vpc::::Vpc</title>
<path fill="none" stroke="#707070" d="M899.41,-127.85C952.47,-143.42 1016.78,-162.3 1061.86,-175.53"/>
<polygon fill="#707070" stroke="#707070" points="1060.88,-178.89 1071.46,-178.34 1062.85,-172.17 1060.88,-178.89"/>
</g>
<!-- InternetGatewayAttachment::::ig&#45;attach::InternetGateway::Vpc -->
<g id="node6" class="node">
<title>InternetGatewayAttachment::::ig&#45;attach::InternetGateway::Vpc</title>
<polygon fill="#e5e5e5" stroke="#dddddd" points="622,-165 343,-165 343,-107 622,-107 622,-165"/>
<text text-anchor="start" x="355.5" y="-145.2" font-family="Helvetica,sans-Serif" font-weight="bold" font-size="16.00" fill="#707070">EC2::InternetGatewayAttachment</text>
<text text-anchor="start" x="355.5" y="-120.2" font-family="Helvetica,sans-Serif" font-size="16.00" fill="#383838">ig&#45;attach::InternetGateway::Vpc</text>
</g>
<!-- InternetGatewayAttachment::::ig&#45;attach::InternetGateway::Vpc&#45;&gt;InternetGateway::::InternetGateway -->
<g id="edge8" class="edge">
<title>InternetGatewayAttachment::::ig&#45;attach::InternetGateway::Vpc&#45;&gt;InternetGateway::::InternetGateway</title>
<path fill="none" stroke="#707070" d="M622.03,-120.37C647.33,-117.51 673.35,-114.57 697.49,-111.85"/>
<polygon fill="#707070" stroke="#707070" points="698.16,-115.3 707.7,-110.7 697.37,-108.34 698.16,-115.3"/>
</g>
<!-- InternetGatewayAttachment::::ig&#45;attach::InternetGateway::Vpc&#45;&gt;Vpc::::Vpc -->
<g id="edge7" class="edge">
<title>InternetGatewayAttachment::::ig&#45;attach::InternetGateway::Vpc&#45;&gt;Vpc::::Vpc</title>
<path fill="none" stroke="#707070" d="M622.23,-143.77C713.72,-149.43 836.15,-158.02 944,-169 983.15,-172.99 1027.08,-178.8 1061,-183.59"/>
<polygon fill="#707070" stroke="#707070" points="1060.8,-187.1 1071.19,-185.04 1061.79,-180.17 1060.8,-187.1"/>
</g>
<!-- Route::::Vpc::RouteViaIgw&#45;igw&#45;0.0.0.0/0 -->
<g id="node7" class="node">
<title>Route::::Vpc::RouteViaIgw&#45;igw&#45;0.0.0.0/0</title>
<polygon fill="#e5e5e5" stroke="#dddddd" points="288,-205 38,-205 38,-147 288,-147 288,-205"/>
<text text-anchor="start" x="50" y="-185.2" font-family="Helvetica,sans-Serif" font-weight="bold" font-size="16.00" fill="#707070">EC2::Route</text>
<text text-anchor="start" x="50" y="-160.2" font-family="Helvetica,sans-Serif" font-size="16.00" fill="#383838">Vpc::RouteViaIgw&#45;igw&#45;0.0.0.0/0</text>
</g>
<!-- Route::::Vpc::RouteViaIgw&#45;igw&#45;0.0.0.0/0&#45;&gt;InternetGateway::::InternetGateway -->
<g id="edge10" class="edge">
<title>Route::::Vpc::RouteViaIgw&#45;igw&#45;0.0.0.0/0&#45;&gt;InternetGateway::::InternetGateway</title>
<path fill="none" stroke="#707070" d="M285.4,-146.99C291.15,-144.25 296.71,-141.26 302,-138 322.35,-125.43 316.15,-107.73 338,-98 453.02,-46.77 600.53,-58.78 698.11,-75.94"/>
<polygon fill="#707070" stroke="#707070" points="697.52,-79.39 707.98,-77.72 698.76,-72.5 697.52,-79.39"/>
</g>
<!-- RouteTable::::Vpc::RouteViaIgw -->
<g id="node8" class="node">
<title>RouteTable::::Vpc::RouteViaIgw</title>
<polygon fill="#e5e5e5" stroke="#dddddd" points="558.5,-241 406.5,-241 406.5,-183 558.5,-183 558.5,-241"/>
<text text-anchor="start" x="418.5" y="-221.2" font-family="Helvetica,sans-Serif" font-weight="bold" font-size="16.00" fill="#707070">EC2::RouteTable</text>
<text text-anchor="start" x="418.5" y="-196.2" font-family="Helvetica,sans-Serif" font-size="16.00" fill="#383838">Vpc::RouteViaIgw</text>
</g>
<!-- Route::::Vpc::RouteViaIgw&#45;igw&#45;0.0.0.0/0&#45;&gt;RouteTable::::Vpc::RouteViaIgw -->
<g id="edge9" class="edge">
<title>Route::::Vpc::RouteViaIgw&#45;igw&#45;0.0.0.0/0&#45;&gt;RouteTable::::Vpc::RouteViaIgw</title>
<path fill="none" stroke="#707070" d="M288.12,-190.07C324.21,-194.17 362.82,-198.54 395.97,-202.3"/>
<polygon fill="#707070" stroke="#707070" points="395.74,-205.8 406.07,-203.45 396.53,-198.84 395.74,-205.8"/>
</g>
<!-- RouteTable::::Vpc::RouteViaIgw&#45;&gt;Subnet::::Vpc::PubSubnetAz1 -->
<g id="edge12" class="edge">
<title>RouteTable::::Vpc::RouteViaIgw&#45;&gt;Subnet::::Vpc::PubSubnetAz1</title>
<path fill="none" stroke="#707070" d="M558.69,-212.94C603.58,-213.51 660.96,-214.23 708.78,-214.82"/>
<polygon fill="#707070" stroke="#707070" points="708.79,-218.33 718.83,-214.95 708.88,-211.33 708.79,-218.33"/>
</g>
<!-- RouteTable::::Vpc::RouteViaIgw&#45;&gt;Subnet::::Vpc::PubSubnetAz2 -->
<g id="edge13" class="edge">
<title>RouteTable::::Vpc::RouteViaIgw&#45;&gt;Subnet::::Vpc::PubSubnetAz2</title>
<path fill="none" stroke="#707070" d="M558.69,-230.86C603.67,-242.14 661.2,-256.56 709.08,-268.57"/>
<polygon fill="#707070" stroke="#707070" points="708.28,-271.98 718.83,-271.02 709.98,-265.19 708.28,-271.98"/>
</g>
<!-- RouteTable::::Vpc::RouteViaIgw&#45;&gt;Vpc::::Vpc -->
<g id="edge11" class="edge">
<title>RouteTable::::Vpc::RouteViaIgw&#45;&gt;Vpc::::Vpc</title>
<path fill="none" stroke="#707070" d="M558.6,-194.53C590.58,-187.94 628.42,-181.25 663,-178 805.9,-164.59 975.05,-177.25 1061.28,-185.74"/>
<polygon fill="#707070" stroke="#707070" points="1061.08,-189.24 1071.37,-186.76 1061.77,-182.28 1061.08,-189.24"/>
</g>
<!-- RouteTableAssociation::::rt&#45;assoc::Vpc::RouteViaIgw::Vpc::PubSubnetAz1 -->
<g id="node9" class="node">
<title>RouteTableAssociation::::rt&#45;assoc::Vpc::RouteViaIgw::Vpc::PubSubnetAz1</title>
<polygon fill="#e5e5e5" stroke="#dddddd" points="300,-281 26,-281 26,-223 300,-223 300,-281"/>
<text text-anchor="start" x="38" y="-261.2" font-family="Helvetica,sans-Serif" font-weight="bold" font-size="16.00" fill="#707070">EC2::RouteTableAssociation</text>
<text text-anchor="start" x="38" y="-236.2" font-family="Helvetica,sans-Serif" font-size="16.00" fill="#383838">rt&#45;assoc::Vpc::RouteViaIgw::Vpc:...</text>
</g>
<!-- RouteTableAssociation::::rt&#45;assoc::Vpc::RouteViaIgw::Vpc::PubSubnetAz1&#45;&gt;RouteTable::::Vpc::RouteViaIgw -->
<g id="edge14" class="edge">
<title>RouteTableAssociation::::rt&#45;assoc::Vpc::RouteViaIgw::Vpc::PubSubnetAz1&#45;&gt;RouteTable::::Vpc::RouteViaIgw</title>
<path fill="none" stroke="#707070" d="M300.03,-234.86C332.55,-230.77 366.37,-226.5 395.88,-222.79"/>
<polygon fill="#707070" stroke="#707070" points="396.64,-226.22 406.12,-221.5 395.77,-219.27 396.64,-226.22"/>
</g>
<!-- RouteTableAssociation::::rt&#45;assoc::Vpc::RouteViaIgw::Vpc::PubSubnetAz1&#45;&gt;Subnet::::Vpc::PubSubnetAz1 -->
<g id="edge15" class="edge">
<title>RouteTableAssociation::::rt&#45;assoc::Vpc::RouteViaIgw::Vpc::PubSubnetAz1&#45;&gt;Subnet::::Vpc::PubSubnetAz1</title>
<path fill="none" stroke="#707070" d="M300.08,-258.08C392.51,-260.57 517.4,-260.76 627,-250 653.7,-247.38 682.39,-242.65 708.67,-237.54"/>
<polygon fill="#707070" stroke="#707070" points="709.49,-240.94 718.61,-235.56 708.12,-234.08 709.49,-240.94"/>
</g>
<!-- RouteTableAssociation::::rt&#45;assoc::Vpc::RouteViaIgw::Vpc::PubSubnetAz2 -->
<g id="node10" class="node">
<title>RouteTableAssociation::::rt&#45;assoc::Vpc::RouteViaIgw::Vpc::PubSubnetAz2</title>
<polygon fill="#e5e5e5" stroke="#dddddd" points="300,-357 26,-357 26,-299 300,-299 300,-357"/>
<text text-anchor="start" x="38" y="-337.2" font-family="Helvetica,sans-Serif" font-weight="bold" font-size="16.00" fill="#707070">EC2::RouteTableAssociation</text>
<text text-anchor="start" x="38" y="-312.2" font-family="Helvetica,sans-Serif" font-size="16.00" fill="#383838">rt&#45;assoc::Vpc::RouteViaIgw::Vpc:...</text>
</g>
<!-- RouteTableAssociation::::rt&#45;assoc::Vpc::RouteViaIgw::Vpc::PubSubnetAz2&#45;&gt;RouteTable::::Vpc::RouteViaIgw -->
<g id="edge16" class="edge">
<title>RouteTableAssociation::::rt&#45;assoc::Vpc::RouteViaIgw::Vpc::PubSubnetAz2&#45;&gt;RouteTable::::Vpc::RouteViaIgw</title>
<path fill="none" stroke="#707070" d="M274.78,-298.99C284.04,-296.11 293.21,-293.1 302,-290 307.54,-288.05 359.47,-265.44 406.05,-245.07"/>
<polygon fill="#707070" stroke="#707070" points="407.53,-248.25 415.28,-241.03 404.72,-241.83 407.53,-248.25"/>
</g>
<!-- RouteTableAssociation::::rt&#45;assoc::Vpc::RouteViaIgw::Vpc::PubSubnetAz2&#45;&gt;Subnet::::Vpc::PubSubnetAz2 -->
<g id="edge17" class="edge">
<title>RouteTableAssociation::::rt&#45;assoc::Vpc::RouteViaIgw::Vpc::PubSubnetAz2&#45;&gt;Subnet::::Vpc::PubSubnetAz2</title>
<path fill="none" stroke="#707070" d="M300.28,-317.49C313.03,-316.61 325.76,-315.76 338,-315 466.49,-307.02 615.1,-300.06 708.94,-295.94"/>
<polygon fill="#707070" stroke="#707070" points="709.14,-299.44 718.97,-295.5 708.83,-292.44 709.14,-299.44"/>
</g>
<!-- Subnet::::Vpc::PubSubnetAz1&#45;&gt;Vpc::::Vpc -->
<g id="edge20" class="edge">
<title>Subnet::::Vpc::PubSubnetAz1&#45;&gt;Vpc::::Vpc</title>
<path fill="none" stroke="#707070" d="M888.1,-209.6C942.68,-205.42 1012.52,-200.08 1060.83,-196.38"/>
<polygon fill="#707070" stroke="#707070" points="1061.39,-199.84 1071.1,-195.59 1060.86,-192.86 1061.39,-199.84"/>
</g>
<!-- Subnet::::Vpc::PubSubnetAz2&#45;&gt;Vpc::::Vpc -->
<g id="edge21" class="edge">
<title>Subnet::::Vpc::PubSubnetAz2&#45;&gt;Vpc::::Vpc</title>
<path fill="none" stroke="#707070" d="M888.16,-270.33C906.63,-265.23 926.04,-259.64 944,-254 983.68,-241.54 1027.82,-225.8 1061.71,-213.29"/>
<polygon fill="#707070" stroke="#707070" points="1063.27,-216.44 1071.43,-209.69 1060.84,-209.88 1063.27,-216.44"/>
</g>
<!-- Cluster::::my&#45;cluster -->
<g id="node14" class="node">
<title>Cluster::::my&#45;cluster</title>
<polygon fill="#e5e5e5" stroke="#dddddd" points="224,-129 102,-129 102,-71 224,-71 224,-129"/>
<text text-anchor="start" x="114" y="-109.2" font-family="Helvetica,sans-Serif" font-weight="bold" font-size="16.00" fill="#707070">ECS::Cluster</text>
<text text-anchor="start" x="114" y="-84.2" font-family="Helvetica,sans-Serif" font-size="16.00" fill="#383838">my&#45;cluster</text>
</g>
<!-- Role::::amazon&#45;ecs&#45;cli&#45;setup&#45;my&#45;cluster&#45;EcsInstanceRole&#45;TERDPQNAO5Q2 -->
<g id="node16" class="node">
<title>Role::::amazon&#45;ecs&#45;cli&#45;setup&#45;my&#45;cluster&#45;EcsInstanceRole&#45;TERDPQNAO5Q2</title>
<polygon fill="#e5e5e5" stroke="#dddddd" points="1258,-473 980,-473 980,-415 1258,-415 1258,-473"/>
<text text-anchor="start" x="992" y="-453.2" font-family="Helvetica,sans-Serif" font-weight="bold" font-size="16.00" fill="#707070">IAM::Role</text>
<text text-anchor="start" x="992" y="-428.2" font-family="Helvetica,sans-Serif" font-size="16.00" fill="#383838">amazon&#45;ecs&#45;cli&#45;setup&#45;my&#45;cluster&#45;...</text>
</g>
<!-- InstanceProfile::::amazon&#45;ecs&#45;cli&#45;setup&#45;my&#45;cluster&#45;EcsInstanceProfile&#45;1V2DBJVUCN7IT&#45;&gt;Role::::amazon&#45;ecs&#45;cli&#45;setup&#45;my&#45;cluster&#45;EcsInstanceRole&#45;TERDPQNAO5Q2 -->
<g id="edge22" class="edge">
<title>InstanceProfile::::amazon&#45;ecs&#45;cli&#45;setup&#45;my&#45;cluster&#45;EcsInstanceProfile&#45;1V2DBJVUCN7IT&#45;&gt;Role::::amazon&#45;ecs&#45;cli&#45;setup&#45;my&#45;cluster&#45;EcsInstanceRole&#45;TERDPQNAO5Q2</title>
<path fill="none" stroke="#707070" d="M942.92,-444C951.86,-444 960.88,-444 969.86,-444"/>
<polygon fill="#707070" stroke="#707070" points="969.97,-447.5 979.97,-444 969.97,-440.5 969.97,-447.5"/>
</g>
</g>
</svg>
