<?xml version="1.0" encoding="UTF-8" standalone="no"?>
<!DOCTYPE svg PUBLIC "-//W3C//DTD SVG 1.1//EN"
 "http://www.w3.org/Graphics/SVG/1.1/DTD/svg11.dtd">
<!-- Generated by graphviz version 6.0.0 (20220910.1538)
 -->
<!-- Title: graphname Pages: 1 -->
<svg width="1290pt" height="657pt"
 viewBox="0.00 0.00 1290.00 657.00" xmlns="http://www.w3.org/2000/svg" xmlns:xlink="http://www.w3.org/1999/xlink">
<g id="graph0" class="graph" transform="scale(1 1) rotate(0) translate(4 653)">
<title>graphname</title>
<polygon fill="#fafafa" stroke="none" points="-4,4 -4,-653 1286,-653 1286,4 -4,4"/>
<text text-anchor="start" x="484" y="-624.4" font-family="Helvetica,sans-Serif" font-weight="bold" font-size="22.00" fill="#383838">Project ECS created by ecs&#45;cli</text>
<text text-anchor="start" x="637.5" y="-608.8" font-family="Helvetica,sans-Serif" font-size="14.00"> &#160;</text>
<text text-anchor="start" x="484" y="-587.2" font-family="Helvetica,sans-Serif" font-weight="bold" font-size="16.00" fill="#707070">Target Diagram</text>
<g id="clust1" class="cluster">
<title>cluster_aws</title>
<polygon fill="#f5f5f5" stroke="#f5f5f5" points="8,-8 8,-565 1274,-565 1274,-8 8,-8"/>
<text text-anchor="start" x="579" y="-23" font-family="Helvetica,sans-Serif" font-weight="bold" font-size="20.00" fill="#707070">Provider aws</text>
</g>
<g id="clust2" class="cluster">
<title>cluster_aws_</title>
<polygon fill="#eeeeee" stroke="#eeeeee" points="16,-54 16,-557 1266,-557 1266,-54 16,-54"/>
<text text-anchor="start" x="640.86" y="-58.3" font-family="Helvetica,sans-Serif" font-size="1.00" fill="#383838"> </text>
</g>
<!-- AutoScalingGroup::amazon&#45;ecs&#45;cli&#45;setup&#45;my&#45;cluster&#45;EcsInstanceAsg&#45;E1YAIKY8YI41 -->
<g id="node1" class="node">
<title>AutoScalingGroup::amazon&#45;ecs&#45;cli&#45;setup&#45;my&#45;cluster&#45;EcsInstanceAsg&#45;E1YAIKY8YI41</title>
<polygon fill="#e5e5e5" stroke="#dddddd" points="302,-349 24,-349 24,-291 302,-291 302,-349"/>
<text text-anchor="start" x="36" y="-329.2" font-family="Helvetica,sans-Serif" font-weight="bold" font-size="16.00" fill="#707070">AutoScaling::AutoScalingGroup</text>
<text text-anchor="start" x="36" y="-304.2" font-family="Helvetica,sans-Serif" font-size="16.00" fill="#383838">amazon&#45;ecs&#45;cli&#45;setup&#45;my&#45;cluster&#45;...</text>
</g>
<!-- LaunchConfiguration::amazon&#45;ecs&#45;cli&#45;setup&#45;my&#45;cluster&#45;EcsInstanceLc&#45;HWVeTO3QcmK1 -->
<g id="node2" class="node">
<title>LaunchConfiguration::amazon&#45;ecs&#45;cli&#45;setup&#45;my&#45;cluster&#45;EcsInstanceLc&#45;HWVeTO3QcmK1</title>
<polygon fill="#e5e5e5" stroke="#dddddd" points="627,-549 338,-549 338,-491 627,-491 627,-549"/>
<text text-anchor="start" x="350.5" y="-529.2" font-family="Helvetica,sans-Serif" font-weight="bold" font-size="16.00" fill="#707070">AutoScaling::LaunchConfiguration</text>
<text text-anchor="start" x="350.5" y="-504.2" font-family="Helvetica,sans-Serif" font-size="16.00" fill="#383838">amazon&#45;ecs&#45;cli&#45;setup&#45;my&#45;cluster&#45;...</text>
</g>
<!-- AutoScalingGroup::amazon&#45;ecs&#45;cli&#45;setup&#45;my&#45;cluster&#45;EcsInstanceAsg&#45;E1YAIKY8YI41&#45;&gt;LaunchConfiguration::amazon&#45;ecs&#45;cli&#45;setup&#45;my&#45;cluster&#45;EcsInstanceLc&#45;HWVeTO3QcmK1 -->
<g id="edge3" class="edge">
<title>AutoScalingGroup::amazon&#45;ecs&#45;cli&#45;setup&#45;my&#45;cluster&#45;EcsInstanceAsg&#45;E1YAIKY8YI41&#45;&gt;LaunchConfiguration::amazon&#45;ecs&#45;cli&#45;setup&#45;my&#45;cluster&#45;EcsInstanceLc&#45;HWVeTO3QcmK1</title>
<path fill="none" stroke="#707070" d="M187.3,-349.16C218,-385.65 275.48,-447.5 338,-482 340.93,-483.62 343.94,-485.17 347,-486.66"/>
<polygon fill="#707070" stroke="#707070" points="345.8,-489.96 356.35,-490.94 348.71,-483.59 345.8,-489.96"/>
</g>
<!-- Subnet::Vpc::PubSubnetAz1 -->
<g id="node6" class="node">
<title>Subnet::Vpc::PubSubnetAz1</title>
<polygon fill="#e5e5e5" stroke="#dddddd" points="888,-301 719,-301 719,-243 888,-243 888,-301"/>
<text text-anchor="start" x="731.5" y="-281.2" font-family="Helvetica,sans-Serif" font-weight="bold" font-size="16.00" fill="#707070">EC2::Subnet</text>
<text text-anchor="start" x="731.5" y="-256.2" font-family="Helvetica,sans-Serif" font-size="16.00" fill="#383838">Vpc::PubSubnetAz1</text>
</g>
<!-- AutoScalingGroup::amazon&#45;ecs&#45;cli&#45;setup&#45;my&#45;cluster&#45;EcsInstanceAsg&#45;E1YAIKY8YI41&#45;&gt;Subnet::Vpc::PubSubnetAz1 -->
<g id="edge1" class="edge">
<title>AutoScalingGroup::amazon&#45;ecs&#45;cli&#45;setup&#45;my&#45;cluster&#45;EcsInstanceAsg&#45;E1YAIKY8YI41&#45;&gt;Subnet::Vpc::PubSubnetAz1</title>
<path fill="none" stroke="#707070" d="M302.24,-323.91C394.52,-324.83 518.41,-322.81 627,-310 653.77,-306.84 682.47,-301.48 708.75,-295.77"/>
<polygon fill="#707070" stroke="#707070" points="709.69,-299.15 718.69,-293.57 708.17,-292.31 709.69,-299.15"/>
</g>
<!-- Subnet::Vpc::PubSubnetAz2 -->
<g id="node7" class="node">
<title>Subnet::Vpc::PubSubnetAz2</title>
<polygon fill="#e5e5e5" stroke="#dddddd" points="888,-149 719,-149 719,-91 888,-91 888,-149"/>
<text text-anchor="start" x="731.5" y="-129.2" font-family="Helvetica,sans-Serif" font-weight="bold" font-size="16.00" fill="#707070">EC2::Subnet</text>
<text text-anchor="start" x="731.5" y="-104.2" font-family="Helvetica,sans-Serif" font-size="16.00" fill="#383838">Vpc::PubSubnetAz2</text>
</g>
<!-- AutoScalingGroup::amazon&#45;ecs&#45;cli&#45;setup&#45;my&#45;cluster&#45;EcsInstanceAsg&#45;E1YAIKY8YI41&#45;&gt;Subnet::Vpc::PubSubnetAz2 -->
<g id="edge2" class="edge">
<title>AutoScalingGroup::amazon&#45;ecs&#45;cli&#45;setup&#45;my&#45;cluster&#45;EcsInstanceAsg&#45;E1YAIKY8YI41&#45;&gt;Subnet::Vpc::PubSubnetAz2</title>
<path fill="none" stroke="#707070" d="M214.7,-290.85C244.19,-271.46 279.8,-243.44 302,-210 334.68,-160.76 290.89,-117.68 338,-82 452.49,4.73 631.56,-47.1 730.59,-87.02"/>
<polygon fill="#707070" stroke="#707070" points="729.34,-90.29 739.92,-90.85 731.99,-83.82 729.34,-90.29"/>
</g>
<!-- SecurityGroup::sg::Vpc::amazon&#45;ecs&#45;cli&#45;setup&#45;my&#45;cluster&#45;EcsSecurityGroup&#45;1M3ZGBGN81ILF -->
<g id="node12" class="node">
<title>SecurityGroup::sg::Vpc::amazon&#45;ecs&#45;cli&#45;setup&#45;my&#45;cluster&#45;EcsSecurityGroup&#45;1M3ZGBGN81ILF</title>
<polygon fill="#e5e5e5" stroke="#dddddd" points="944,-473 663,-473 663,-415 944,-415 944,-473"/>
<text text-anchor="start" x="675.5" y="-453.2" font-family="Helvetica,sans-Serif" font-weight="bold" font-size="16.00" fill="#707070">EC2::SecurityGroup</text>
<text text-anchor="start" x="675.5" y="-428.2" font-family="Helvetica,sans-Serif" font-size="16.00" fill="#383838">sg::Vpc::amazon&#45;ecs&#45;cli&#45;setup&#45;my...</text>
</g>
<!-- LaunchConfiguration::amazon&#45;ecs&#45;cli&#45;setup&#45;my&#45;cluster&#45;EcsInstanceLc&#45;HWVeTO3QcmK1&#45;&gt;SecurityGroup::sg::Vpc::amazon&#45;ecs&#45;cli&#45;setup&#45;my&#45;cluster&#45;EcsSecurityGroup&#45;1M3ZGBGN81ILF -->
<g id="edge5" class="edge">
<title>LaunchConfiguration::amazon&#45;ecs&#45;cli&#45;setup&#45;my&#45;cluster&#45;EcsInstanceLc&#45;HWVeTO3QcmK1&#45;&gt;SecurityGroup::sg::Vpc::amazon&#45;ecs&#45;cli&#45;setup&#45;my&#45;cluster&#45;EcsSecurityGroup&#45;1M3ZGBGN81ILF</title>
<path fill="none" stroke="#707070" d="M605.47,-490.94C626.82,-485.85 649.13,-480.54 670.73,-475.39"/>
<polygon fill="#707070" stroke="#707070" points="671.69,-478.76 680.6,-473.04 670.06,-471.95 671.69,-478.76"/>
</g>
<!-- InstanceProfile::amazon&#45;ecs&#45;cli&#45;setup&#45;my&#45;cluster&#45;EcsInstanceProfile&#45;1V2DBJVUCN7IT -->
<g id="node16" class="node">
<title>InstanceProfile::amazon&#45;ecs&#45;cli&#45;setup&#45;my&#45;cluster&#45;EcsInstanceProfile&#45;1V2DBJVUCN7IT</title>
<polygon fill="#e5e5e5" stroke="#dddddd" points="942.5,-549 664.5,-549 664.5,-491 942.5,-491 942.5,-549"/>
<text text-anchor="start" x="676.5" y="-529.2" font-family="Helvetica,sans-Serif" font-weight="bold" font-size="16.00" fill="#707070">IAM::InstanceProfile</text>
<text text-anchor="start" x="676.5" y="-504.2" font-family="Helvetica,sans-Serif" font-size="16.00" fill="#383838">amazon&#45;ecs&#45;cli&#45;setup&#45;my&#45;cluster&#45;...</text>
</g>
<!-- LaunchConfiguration::amazon&#45;ecs&#45;cli&#45;setup&#45;my&#45;cluster&#45;EcsInstanceLc&#45;HWVeTO3QcmK1&#45;&gt;InstanceProfile::amazon&#45;ecs&#45;cli&#45;setup&#45;my&#45;cluster&#45;EcsInstanceProfile&#45;1V2DBJVUCN7IT -->
<g id="edge4" class="edge">
<title>LaunchConfiguration::amazon&#45;ecs&#45;cli&#45;setup&#45;my&#45;cluster&#45;EcsInstanceLc&#45;HWVeTO3QcmK1&#45;&gt;InstanceProfile::amazon&#45;ecs&#45;cli&#45;setup&#45;my&#45;cluster&#45;EcsInstanceProfile&#45;1V2DBJVUCN7IT</title>
<path fill="none" stroke="#707070" d="M627.14,-520C636.15,-520 645.23,-520 654.26,-520"/>
<polygon fill="#707070" stroke="#707070" points="654.43,-523.5 664.43,-520 654.43,-516.5 654.43,-523.5"/>
</g>
<!-- Vpc::Vpc -->
<g id="node3" class="node">
<title>Vpc::Vpc</title>
<polygon fill="#e5e5e5" stroke="#dddddd" points="1166.5,-301 1071.5,-301 1071.5,-243 1166.5,-243 1166.5,-301"/>
<text text-anchor="start" x="1084" y="-281.2" font-family="Helvetica,sans-Serif" font-weight="bold" font-size="16.00" fill="#707070">EC2::Vpc</text>
<text text-anchor="start" x="1084" y="-256.2" font-family="Helvetica,sans-Serif" font-size="16.00" fill="#383838">Vpc</text>
</g>
<!-- InternetGateway::InternetGateway -->
<g id="node4" class="node">
<title>InternetGateway::InternetGateway</title>
<polygon fill="#e5e5e5" stroke="#dddddd" points="899,-377 708,-377 708,-319 899,-319 899,-377"/>
<text text-anchor="start" x="720.5" y="-357.2" font-family="Helvetica,sans-Serif" font-weight="bold" font-size="16.00" fill="#707070">EC2::InternetGateway</text>
<text text-anchor="start" x="720.5" y="-332.2" font-family="Helvetica,sans-Serif" font-size="16.00" fill="#383838">InternetGateway</text>
</g>
<!-- InternetGatewayAttachment::ig&#45;attach::InternetGateway::Vpc -->
<g id="node5" class="node">
<title>InternetGatewayAttachment::ig&#45;attach::InternetGateway::Vpc</title>
<polygon fill="#e5e5e5" stroke="#dddddd" points="622,-397 343,-397 343,-339 622,-339 622,-397"/>
<text text-anchor="start" x="355.5" y="-377.2" font-family="Helvetica,sans-Serif" font-weight="bold" font-size="16.00" fill="#707070">EC2::InternetGatewayAttachment</text>
<text text-anchor="start" x="355.5" y="-352.2" font-family="Helvetica,sans-Serif" font-size="16.00" fill="#383838">ig&#45;attach::InternetGateway::Vpc</text>
</g>
<!-- InternetGatewayAttachment::ig&#45;attach::InternetGateway::Vpc&#45;&gt;Vpc::Vpc -->
<g id="edge6" class="edge">
<title>InternetGatewayAttachment::ig&#45;attach::InternetGateway::Vpc&#45;&gt;Vpc::Vpc</title>
<path fill="none" stroke="#707070" d="M622.02,-383.21C735.31,-393.84 885.92,-403.33 944,-386 995.04,-370.77 1045.03,-335.24 1078.23,-307.87"/>
<polygon fill="#707070" stroke="#707070" points="1080.89,-310.21 1086.3,-301.1 1076.39,-304.84 1080.89,-310.21"/>
</g>
<!-- InternetGatewayAttachment::ig&#45;attach::InternetGateway::Vpc&#45;&gt;InternetGateway::InternetGateway -->
<g id="edge7" class="edge">
<title>InternetGatewayAttachment::ig&#45;attach::InternetGateway::Vpc&#45;&gt;InternetGateway::InternetGateway</title>
<path fill="none" stroke="#707070" d="M622.03,-359.31C647.33,-357.73 673.35,-356.1 697.49,-354.58"/>
<polygon fill="#707070" stroke="#707070" points="697.94,-358.06 707.7,-353.94 697.5,-351.08 697.94,-358.06"/>
</g>
<!-- Subnet::Vpc::PubSubnetAz1&#45;&gt;Vpc::Vpc -->
<g id="edge8" class="edge">
<title>Subnet::Vpc::PubSubnetAz1&#45;&gt;Vpc::Vpc</title>
<path fill="none" stroke="#707070" d="M888.1,-272C942.68,-272 1012.52,-272 1060.83,-272"/>
<polygon fill="#707070" stroke="#707070" points="1061.1,-275.5 1071.1,-272 1061.1,-268.5 1061.1,-275.5"/>
</g>
<!-- Subnet::Vpc::PubSubnetAz2&#45;&gt;Vpc::Vpc -->
<g id="edge9" class="edge">
<title>Subnet::Vpc::PubSubnetAz2&#45;&gt;Vpc::Vpc</title>
<path fill="none" stroke="#707070" d="M888.25,-138.22C906.99,-143.55 926.49,-150.12 944,-158 990.6,-178.98 1038.85,-211.6 1072.68,-236.58"/>
<polygon fill="#707070" stroke="#707070" points="1070.86,-239.58 1080.97,-242.75 1075.04,-233.97 1070.86,-239.58"/>
</g>
<!-- RouteTable::Vpc::RouteViaIgw -->
<g id="node8" class="node">
<title>RouteTable::Vpc::RouteViaIgw</title>
<polygon fill="#e5e5e5" stroke="#dddddd" points="879.5,-225 727.5,-225 727.5,-167 879.5,-167 879.5,-225"/>
<text text-anchor="start" x="739.5" y="-205.2" font-family="Helvetica,sans-Serif" font-weight="bold" font-size="16.00" fill="#707070">EC2::RouteTable</text>
<text text-anchor="start" x="739.5" y="-180.2" font-family="Helvetica,sans-Serif" font-size="16.00" fill="#383838">Vpc::RouteViaIgw</text>
</g>
<!-- RouteTable::Vpc::RouteViaIgw&#45;&gt;Vpc::Vpc -->
<g id="edge10" class="edge">
<title>RouteTable::Vpc::RouteViaIgw&#45;&gt;Vpc::Vpc</title>
<path fill="none" stroke="#707070" d="M879.59,-214.2C935.46,-227.75 1010.54,-245.95 1061.4,-258.28"/>
<polygon fill="#707070" stroke="#707070" points="1060.7,-261.71 1071.24,-260.66 1062.35,-254.91 1060.7,-261.71"/>
</g>
<!-- RouteTableAssociation::rt&#45;assoc::Vpc::RouteViaIgw::Vpc::PubSubnetAz1 -->
<g id="node9" class="node">
<title>RouteTableAssociation::rt&#45;assoc::Vpc::RouteViaIgw::Vpc::PubSubnetAz1</title>
<polygon fill="#e5e5e5" stroke="#dddddd" points="619.5,-225 345.5,-225 345.5,-167 619.5,-167 619.5,-225"/>
<text text-anchor="start" x="357.5" y="-205.2" font-family="Helvetica,sans-Serif" font-weight="bold" font-size="16.00" fill="#707070">EC2::RouteTableAssociation</text>
<text text-anchor="start" x="357.5" y="-180.2" font-family="Helvetica,sans-Serif" font-size="16.00" fill="#383838">rt&#45;assoc::Vpc::RouteViaIgw::Vpc:...</text>
</g>
<!-- RouteTableAssociation::rt&#45;assoc::Vpc::RouteViaIgw::Vpc::PubSubnetAz1&#45;&gt;Subnet::Vpc::PubSubnetAz1 -->
<g id="edge12" class="edge">
<title>RouteTableAssociation::rt&#45;assoc::Vpc::RouteViaIgw::Vpc::PubSubnetAz1&#45;&gt;Subnet::Vpc::PubSubnetAz1</title>
<path fill="none" stroke="#707070" d="M605.47,-225.06C639.74,-233.22 676.46,-241.97 708.8,-249.68"/>
<polygon fill="#707070" stroke="#707070" points="708.15,-253.12 718.69,-252.03 709.78,-246.31 708.15,-253.12"/>
</g>
<!-- RouteTableAssociation::rt&#45;assoc::Vpc::RouteViaIgw::Vpc::PubSubnetAz1&#45;&gt;RouteTable::Vpc::RouteViaIgw -->
<g id="edge11" class="edge">
<title>RouteTableAssociation::rt&#45;assoc::Vpc::RouteViaIgw::Vpc::PubSubnetAz1&#45;&gt;RouteTable::Vpc::RouteViaIgw</title>
<path fill="none" stroke="#707070" d="M619.71,-196C652.73,-196 687.12,-196 717.04,-196"/>
<polygon fill="#707070" stroke="#707070" points="717.42,-199.5 727.42,-196 717.42,-192.5 717.42,-199.5"/>
</g>
<!-- RouteTableAssociation::rt&#45;assoc::Vpc::RouteViaIgw::Vpc::PubSubnetAz2 -->
<g id="node10" class="node">
<title>RouteTableAssociation::rt&#45;assoc::Vpc::RouteViaIgw::Vpc::PubSubnetAz2</title>
<polygon fill="#e5e5e5" stroke="#dddddd" points="619.5,-149 345.5,-149 345.5,-91 619.5,-91 619.5,-149"/>
<text text-anchor="start" x="357.5" y="-129.2" font-family="Helvetica,sans-Serif" font-weight="bold" font-size="16.00" fill="#707070">EC2::RouteTableAssociation</text>
<text text-anchor="start" x="357.5" y="-104.2" font-family="Helvetica,sans-Serif" font-size="16.00" fill="#383838">rt&#45;assoc::Vpc::RouteViaIgw::Vpc:...</text>
</g>
<!-- RouteTableAssociation::rt&#45;assoc::Vpc::RouteViaIgw::Vpc::PubSubnetAz2&#45;&gt;Subnet::Vpc::PubSubnetAz2 -->
<g id="edge14" class="edge">
<title>RouteTableAssociation::rt&#45;assoc::Vpc::RouteViaIgw::Vpc::PubSubnetAz2&#45;&gt;Subnet::Vpc::PubSubnetAz2</title>
<path fill="none" stroke="#707070" d="M619.71,-120C649.72,-120 680.86,-120 708.75,-120"/>
<polygon fill="#707070" stroke="#707070" points="708.87,-123.5 718.87,-120 708.87,-116.5 708.87,-123.5"/>
</g>
<!-- RouteTableAssociation::rt&#45;assoc::Vpc::RouteViaIgw::Vpc::PubSubnetAz2&#45;&gt;RouteTable::Vpc::RouteViaIgw -->
<g id="edge13" class="edge">
<title>RouteTableAssociation::rt&#45;assoc::Vpc::RouteViaIgw::Vpc::PubSubnetAz2&#45;&gt;RouteTable::Vpc::RouteViaIgw</title>
<path fill="none" stroke="#707070" d="M605.47,-149.06C642.77,-157.94 682.97,-167.52 717.27,-175.69"/>
<polygon fill="#707070" stroke="#707070" points="716.71,-179.16 727.25,-178.07 718.33,-172.35 716.71,-179.16"/>
</g>
<!-- Route::Vpc::RouteViaIgw::igw::0.0.0.0/0 -->
<g id="node11" class="node">
<title>Route::Vpc::RouteViaIgw::igw::0.0.0.0/0</title>
<polygon fill="#e5e5e5" stroke="#dddddd" points="618,-301 347,-301 347,-243 618,-243 618,-301"/>
<text text-anchor="start" x="359.5" y="-281.2" font-family="Helvetica,sans-Serif" font-weight="bold" font-size="16.00" fill="#707070">EC2::Route</text>
<text text-anchor="start" x="359.5" y="-256.2" font-family="Helvetica,sans-Serif" font-size="16.00" fill="#383838">Vpc::RouteViaIgw::igw::0.0.0.0/0...</text>
</g>
<!-- Route::Vpc::RouteViaIgw::igw::0.0.0.0/0&#45;&gt;InternetGateway::InternetGateway -->
<g id="edge15" class="edge">
<title>Route::Vpc::RouteViaIgw::igw::0.0.0.0/0&#45;&gt;InternetGateway::InternetGateway</title>
<path fill="none" stroke="#707070" d="M605.47,-301.06C635.96,-308.32 668.4,-316.05 697.97,-323.1"/>
<polygon fill="#707070" stroke="#707070" points="697.34,-326.55 707.88,-325.46 698.97,-319.74 697.34,-326.55"/>
</g>
<!-- Route::Vpc::RouteViaIgw::igw::0.0.0.0/0&#45;&gt;RouteTable::Vpc::RouteViaIgw -->
<g id="edge16" class="edge">
<title>Route::Vpc::RouteViaIgw::igw::0.0.0.0/0&#45;&gt;RouteTable::Vpc::RouteViaIgw</title>
<path fill="none" stroke="#707070" d="M605.47,-242.94C642.77,-234.06 682.97,-224.48 717.27,-216.31"/>
<polygon fill="#707070" stroke="#707070" points="718.33,-219.65 727.25,-213.93 716.71,-212.84 718.33,-219.65"/>
</g>
<!-- SecurityGroup::sg::Vpc::amazon&#45;ecs&#45;cli&#45;setup&#45;my&#45;cluster&#45;EcsSecurityGroup&#45;1M3ZGBGN81ILF&#45;&gt;Vpc::Vpc -->
<g id="edge17" class="edge">
<title>SecurityGroup::sg::Vpc::amazon&#45;ecs&#45;cli&#45;setup&#45;my&#45;cluster&#45;EcsSecurityGroup&#45;1M3ZGBGN81ILF&#45;&gt;Vpc::Vpc</title>
<path fill="none" stroke="#707070" d="M912.21,-414.87C923.16,-410.71 933.94,-406.09 944,-401 993.86,-375.77 1044.46,-336.37 1078.14,-307.75"/>
<polygon fill="#707070" stroke="#707070" points="1080.6,-310.25 1085.91,-301.08 1076.04,-304.94 1080.6,-310.25"/>
</g>
<!-- SecurityGroupRuleIngress::sg::Vpc::amazon&#45;ecs&#45;cli&#45;setup&#45;my&#45;cluster&#45;EcsSecurityGroup&#45;1M3ZGBGN81ILF&#45;rule&#45;ingress&#45;tcp&#45;80 -->
<g id="node13" class="node">
<title>SecurityGroupRuleIngress::sg::Vpc::amazon&#45;ecs&#45;cli&#45;setup&#45;my&#45;cluster&#45;EcsSecurityGroup&#45;1M3ZGBGN81ILF&#45;rule&#45;ingress&#45;tcp&#45;80</title>
<polygon fill="#e5e5e5" stroke="#dddddd" points="623,-473 342,-473 342,-415 623,-415 623,-473"/>
<text text-anchor="start" x="354.5" y="-453.2" font-family="Helvetica,sans-Serif" font-weight="bold" font-size="16.00" fill="#707070">EC2::SecurityGroupRuleIngress</text>
<text text-anchor="start" x="354.5" y="-428.2" font-family="Helvetica,sans-Serif" font-size="16.00" fill="#383838">sg::Vpc::amazon&#45;ecs&#45;cli&#45;setup&#45;my...</text>
</g>
<!-- SecurityGroupRuleIngress::sg::Vpc::amazon&#45;ecs&#45;cli&#45;setup&#45;my&#45;cluster&#45;EcsSecurityGroup&#45;1M3ZGBGN81ILF&#45;rule&#45;ingress&#45;tcp&#45;80&#45;&gt;SecurityGroup::sg::Vpc::amazon&#45;ecs&#45;cli&#45;setup&#45;my&#45;cluster&#45;EcsSecurityGroup&#45;1M3ZGBGN81ILF -->
<g id="edge18" class="edge">
<title>SecurityGroupRuleIngress::sg::Vpc::amazon&#45;ecs&#45;cli&#45;setup&#45;my&#45;cluster&#45;EcsSecurityGroup&#45;1M3ZGBGN81ILF&#45;rule&#45;ingress&#45;tcp&#45;80&#45;&gt;SecurityGroup::sg::Vpc::amazon&#45;ecs&#45;cli&#45;setup&#45;my&#45;cluster&#45;EcsSecurityGroup&#45;1M3ZGBGN81ILF</title>
<path fill="none" stroke="#707070" d="M623.42,-444C633.11,-444 642.9,-444 652.64,-444"/>
<polygon fill="#707070" stroke="#707070" points="652.77,-447.5 662.77,-444 652.77,-440.5 652.77,-447.5"/>
</g>
<!-- Cluster::my&#45;cluster -->
<g id="node14" class="node">
<title>Cluster::my&#45;cluster</title>
<polygon fill="#e5e5e5" stroke="#dddddd" points="224,-201 102,-201 102,-143 224,-143 224,-201"/>
<text text-anchor="start" x="114" y="-181.2" font-family="Helvetica,sans-Serif" font-weight="bold" font-size="16.00" fill="#707070">ECS::Cluster</text>
<text text-anchor="start" x="114" y="-156.2" font-family="Helvetica,sans-Serif" font-size="16.00" fill="#383838">my&#45;cluster</text>
</g>
<!-- Role::amazon&#45;ecs&#45;cli&#45;setup&#45;my&#45;cluster&#45;EcsInstanceRole&#45;TERDPQNAO5Q2 -->
<g id="node15" class="node">
<title>Role::amazon&#45;ecs&#45;cli&#45;setup&#45;my&#45;cluster&#45;EcsInstanceRole&#45;TERDPQNAO5Q2</title>
<polygon fill="#e5e5e5" stroke="#dddddd" points="1258,-549 980,-549 980,-491 1258,-491 1258,-549"/>
<text text-anchor="start" x="992" y="-529.2" font-family="Helvetica,sans-Serif" font-weight="bold" font-size="16.00" fill="#707070">IAM::Role</text>
<text text-anchor="start" x="992" y="-504.2" font-family="Helvetica,sans-Serif" font-size="16.00" fill="#383838">amazon&#45;ecs&#45;cli&#45;setup&#45;my&#45;cluster&#45;...</text>
</g>
<!-- InstanceProfile::amazon&#45;ecs&#45;cli&#45;setup&#45;my&#45;cluster&#45;EcsInstanceProfile&#45;1V2DBJVUCN7IT&#45;&gt;Role::amazon&#45;ecs&#45;cli&#45;setup&#45;my&#45;cluster&#45;EcsInstanceRole&#45;TERDPQNAO5Q2 -->
<g id="edge19" class="edge">
<title>InstanceProfile::amazon&#45;ecs&#45;cli&#45;setup&#45;my&#45;cluster&#45;EcsInstanceProfile&#45;1V2DBJVUCN7IT&#45;&gt;Role::amazon&#45;ecs&#45;cli&#45;setup&#45;my&#45;cluster&#45;EcsInstanceRole&#45;TERDPQNAO5Q2</title>
<path fill="none" stroke="#707070" d="M942.92,-520C951.86,-520 960.88,-520 969.86,-520"/>
<polygon fill="#707070" stroke="#707070" points="969.97,-523.5 979.97,-520 969.97,-516.5 969.97,-523.5"/>
</g>
</g>
</svg>
