<?xml version="1.0" encoding="UTF-8" standalone="no"?><svg xmlns="http://www.w3.org/2000/svg" xmlns:xlink="http://www.w3.org/1999/xlink" contentScriptType="application/ecmascript" contentStyleType="text/css" height="172px" preserveAspectRatio="none" style="width:491px;height:172px;background:#FFFFFF;" version="1.1" viewBox="0 0 491 172" width="491px" zoomAndPan="magnify"><defs><filter height="300%" id="f1u1d2dq8jyiq1" width="300%" x="-1" y="-1"><feGaussianBlur result="blurOut" stdDeviation="2.0"/><feColorMatrix in="blurOut" result="blurOut2" type="matrix" values="0 0 0 0 0 0 0 0 0 0 0 0 0 0 0 0 0 0 .4 0"/><feOffset dx="4.0" dy="4.0" in="blurOut2" result="blurOut3"/><feBlend in="SourceGraphic" in2="blurOut3" mode="normal"/></filter></defs><g><rect fill="none" height="26.4883" style="stroke:none;stroke-width:1.0;" width="248" x="91.5" y="15"/><text fill="#000000" font-family="sans-serif" font-size="14" font-weight="bold" lengthAdjust="spacing" textLength="238" x="96.5" y="33.5352">Resources for project iam-policy</text><rect fill="#F8F8F8" filter="url(#f1u1d2dq8jyiq1)" height="36.4883" rx="12.5" ry="12.5" style="stroke:#383838;stroke-width:1.5;" width="52" x="10" y="85.7324"/><text fill="#000000" font-family="sans-serif" font-size="14" lengthAdjust="spacing" textLength="32" x="20" y="109.2676">Infra</text><rect fill="#F8F8F8" filter="url(#f1u1d2dq8jyiq1)" height="36.4883" rx="12.5" ry="12.5" style="stroke:#383838;stroke-width:1.5;" width="68" x="112" y="85.7324"/><text fill="#000000" font-family="sans-serif" font-size="14" lengthAdjust="spacing" textLength="48" x="122" y="109.2676">google</text><rect fill="#F8F8F8" filter="url(#f1u1d2dq8jyiq1)" height="36.4883" rx="12.5" ry="12.5" style="stroke:#383838;stroke-width:1.5;" width="45" x="230" y="85.7324"/><text fill="#000000" font-family="sans-serif" font-size="14" lengthAdjust="spacing" textLength="25" x="240" y="109.2676">iam</text><rect fill="#F8F8F8" filter="url(#f1u1d2dq8jyiq1)" height="36.4883" rx="12.5" ry="12.5" style="stroke:#383838;stroke-width:1.5;" width="147" x="325" y="57.4883"/><text fill="#000000" font-family="sans-serif" font-size="14" lengthAdjust="spacing" textLength="127" x="335" y="81.0234">ServiceAccount (1)</text><path d="M275,103.9766 L285,103.9766 C300,103.9766 300,75.7324 315,75.7324 L325,75.7324 " fill="none" style="stroke:#383838;stroke-width:1.0;"/><rect fill="#F8F8F8" filter="url(#f1u1d2dq8jyiq1)" height="36.4883" rx="12.5" ry="12.5" style="stroke:#383838;stroke-width:1.5;" width="82" x="325" y="113.9766"/><text fill="#000000" font-family="sans-serif" font-size="14" lengthAdjust="spacing" textLength="62" x="335" y="137.5117">Policy (1)</text><path d="M275,103.9766 L285,103.9766 C300,103.9766 300,132.2207 315,132.2207 L325,132.2207 " fill="none" style="stroke:#383838;stroke-width:1.0;"/><path d="M180,103.9766 L190,103.9766 C205,103.9766 205,103.9766 220,103.9766 L230,103.9766 " fill="none" style="stroke:#383838;stroke-width:1.0;"/><path d="M62,103.9766 L72,103.9766 C87,103.9766 87,103.9766 102,103.9766 L112,103.9766 " fill="none" style="stroke:#383838;stroke-width:1.0;"/><!--MD5=[08b5a561f6b137117492c9e999002f85]
@startmindmap
title Resources for project iam-policy
skinparam monochrome true
+ Infra
++ google
+++ iam
++++ ServiceAccount (1)
++++ Policy (1)
@endmindmap

PlantUML version 1.2021.8(Sat Jun 26 05:20:59 BRT 2021)
(GPL source distribution)
Java Runtime: OpenJDK Runtime Environment
JVM: OpenJDK 64-Bit Server VM
Default Encoding: UTF-8
Language: en
Country: GB
--></g></svg>