<?xml version="1.0" encoding="UTF-8" standalone="no"?>
<!DOCTYPE svg PUBLIC "-//W3C//DTD SVG 1.1//EN"
 "http://www.w3.org/Graphics/SVG/1.1/DTD/svg11.dtd">
<!-- Generated by graphviz version 8.0.3 (20230416.2022)
 -->
<!-- Title: graphname Pages: 1 -->
<svg width="1185pt" height="465pt"
 viewBox="0.00 0.00 1185.00 465.00" xmlns="http://www.w3.org/2000/svg" xmlns:xlink="http://www.w3.org/1999/xlink">
<g id="graph0" class="graph" transform="scale(1 1) rotate(0) translate(4 461)">
<title>graphname</title>
<polygon fill="#fafafa" stroke="none" points="-4,4 -4,-461 1181,-461 1181,4 -4,4"/>
<text text-anchor="start" x="453" y="-432.4" font-family="Helvetica,sans-Serif" font-weight="bold" font-size="22.00" fill="#383838">Project autoScalingGroup</text>
<text text-anchor="start" x="584.5" y="-416.8" font-family="Helvetica,sans-Serif" font-size="14.00"> &#160;</text>
<text text-anchor="start" x="453" y="-395.2" font-family="Helvetica,sans-Serif" font-weight="bold" font-size="16.00" fill="#707070">Target Diagram</text>
<g id="clust1" class="cluster">
<title>cluster_aws</title>
<polygon fill="#f5f5f5" stroke="#f5f5f5" points="8,-8 8,-373 1169,-373 1169,-8 8,-8"/>
<text text-anchor="start" x="526.5" y="-23" font-family="Helvetica,sans-Serif" font-weight="bold" font-size="20.00" fill="#707070">Provider aws</text>
</g>
<g id="clust2" class="cluster">
<title>cluster_aws_</title>
<polygon fill="#eeeeee" stroke="#eeeeee" points="16,-54 16,-365 1161,-365 1161,-54 16,-54"/>
<text text-anchor="start" x="588.36" y="-58.3" font-family="Helvetica,sans-Serif" font-size="1.00" fill="#383838"> </text>
</g>
<!-- AutoScalingGroup::asg -->
<g id="node1" class="node">
<title>AutoScalingGroup::asg</title>
<polygon fill="#e5e5e5" stroke="#dddddd" points="547,-281 278,-281 278,-223 547,-223 547,-281"/>
<text text-anchor="start" x="290" y="-261.2" font-family="Helvetica,sans-Serif" font-weight="bold" font-size="16.00" fill="#707070">AutoScaling::AutoScalingGroup</text>
<text text-anchor="start" x="290" y="-236.2" font-family="Helvetica,sans-Serif" font-size="16.00" fill="#383838">asg</text>
</g>
<!-- LaunchTemplate::lt&#45;ec2&#45;micro -->
<g id="node5" class="node">
<title>LaunchTemplate::lt&#45;ec2&#45;micro</title>
<polygon fill="#e5e5e5" stroke="#dddddd" points="790,-357 598,-357 598,-299 790,-299 790,-357"/>
<text text-anchor="start" x="610" y="-337.2" font-family="Helvetica,sans-Serif" font-weight="bold" font-size="16.00" fill="#707070">EC2::LaunchTemplate</text>
<text text-anchor="start" x="610" y="-312.2" font-family="Helvetica,sans-Serif" font-size="16.00" fill="#383838">lt&#45;ec2&#45;micro</text>
</g>
<!-- AutoScalingGroup::asg&#45;&gt;LaunchTemplate::lt&#45;ec2&#45;micro -->
<g id="edge3" class="edge">
<title>AutoScalingGroup::asg&#45;&gt;LaunchTemplate::lt&#45;ec2&#45;micro</title>
<path fill="none" stroke="#707070" d="M521.96,-281.49C543.46,-287.34 565.99,-293.46 587.39,-299.28"/>
<polygon fill="#707070" stroke="#707070" points="586.23,-302.87 596.79,-302.11 588.06,-296.11 586.23,-302.87"/>
</g>
<!-- Subnet::Vpc::PubSubnetAz1 -->
<g id="node8" class="node">
<title>Subnet::Vpc::PubSubnetAz1</title>
<polygon fill="#e5e5e5" stroke="#dddddd" points="778.5,-205 609.5,-205 609.5,-147 778.5,-147 778.5,-205"/>
<text text-anchor="start" x="621.5" y="-185.2" font-family="Helvetica,sans-Serif" font-weight="bold" font-size="16.00" fill="#707070">EC2::Subnet</text>
<text text-anchor="start" x="621.5" y="-160.2" font-family="Helvetica,sans-Serif" font-size="16.00" fill="#383838">Vpc::PubSubnetAz1</text>
</g>
<!-- AutoScalingGroup::asg&#45;&gt;Subnet::Vpc::PubSubnetAz1 -->
<g id="edge1" class="edge">
<title>AutoScalingGroup::asg&#45;&gt;Subnet::Vpc::PubSubnetAz1</title>
<path fill="none" stroke="#707070" d="M521.96,-222.51C547.34,-215.61 574.17,-208.31 598.86,-201.6"/>
<polygon fill="#707070" stroke="#707070" points="599.57,-204.76 608.3,-198.76 597.73,-198.01 599.57,-204.76"/>
</g>
<!-- Subnet::Vpc::PubSubnetAz2 -->
<g id="node9" class="node">
<title>Subnet::Vpc::PubSubnetAz2</title>
<polygon fill="#e5e5e5" stroke="#dddddd" points="778.5,-281 609.5,-281 609.5,-223 778.5,-223 778.5,-281"/>
<text text-anchor="start" x="621.5" y="-261.2" font-family="Helvetica,sans-Serif" font-weight="bold" font-size="16.00" fill="#707070">EC2::Subnet</text>
<text text-anchor="start" x="621.5" y="-236.2" font-family="Helvetica,sans-Serif" font-size="16.00" fill="#383838">Vpc::PubSubnetAz2</text>
</g>
<!-- AutoScalingGroup::asg&#45;&gt;Subnet::Vpc::PubSubnetAz2 -->
<g id="edge2" class="edge">
<title>AutoScalingGroup::asg&#45;&gt;Subnet::Vpc::PubSubnetAz2</title>
<path fill="none" stroke="#707070" d="M547.11,-252C564.5,-252 582.01,-252 598.57,-252"/>
<polygon fill="#707070" stroke="#707070" points="598.3,-255.5 608.3,-252 598.3,-248.5 598.3,-255.5"/>
</g>
<!-- Notification::asg::autoscaling&#45;topic -->
<g id="node2" class="node">
<title>Notification::asg::autoscaling&#45;topic</title>
<polygon fill="#e5e5e5" stroke="#dddddd" points="240,-357 24,-357 24,-299 240,-299 240,-357"/>
<text text-anchor="start" x="36" y="-337.2" font-family="Helvetica,sans-Serif" font-weight="bold" font-size="16.00" fill="#707070">AutoScaling::Notification</text>
<text text-anchor="start" x="36" y="-312.2" font-family="Helvetica,sans-Serif" font-size="16.00" fill="#383838">asg::autoscaling&#45;topic</text>
</g>
<!-- Notification::asg::autoscaling&#45;topic&#45;&gt;AutoScalingGroup::asg -->
<g id="edge4" class="edge">
<title>Notification::asg::autoscaling&#45;topic&#45;&gt;AutoScalingGroup::asg</title>
<path fill="none" stroke="#707070" d="M240.28,-298.73C257.7,-293.97 275.82,-289.02 293.48,-284.21"/>
<polygon fill="#707070" stroke="#707070" points="294.09,-287.39 302.82,-281.39 292.25,-280.64 294.09,-287.39"/>
</g>
<!-- Topic::autoscaling&#45;topic -->
<g id="node13" class="node">
<title>Topic::autoscaling&#45;topic</title>
<polygon fill="#e5e5e5" stroke="#dddddd" points="486,-357 339,-357 339,-299 486,-299 486,-357"/>
<text text-anchor="start" x="351" y="-337.2" font-family="Helvetica,sans-Serif" font-weight="bold" font-size="16.00" fill="#707070">SNS::Topic</text>
<text text-anchor="start" x="351" y="-312.2" font-family="Helvetica,sans-Serif" font-size="16.00" fill="#383838">autoscaling&#45;topic</text>
</g>
<!-- Notification::asg::autoscaling&#45;topic&#45;&gt;Topic::autoscaling&#45;topic -->
<g id="edge5" class="edge">
<title>Notification::asg::autoscaling&#45;topic&#45;&gt;Topic::autoscaling&#45;topic</title>
<path fill="none" stroke="#707070" d="M240.28,-328C269.36,-328 300.41,-328 327.98,-328"/>
<polygon fill="#707070" stroke="#707070" points="327.75,-331.5 337.75,-328 327.75,-324.5 327.75,-331.5"/>
</g>
<!-- Policy::Target Tracking Policy -->
<g id="node3" class="node">
<title>Policy::Target Tracking Policy</title>
<polygon fill="#e5e5e5" stroke="#dddddd" points="224,-281 40,-281 40,-223 224,-223 224,-281"/>
<text text-anchor="start" x="52" y="-261.2" font-family="Helvetica,sans-Serif" font-weight="bold" font-size="16.00" fill="#707070">AutoScaling::Policy</text>
<text text-anchor="start" x="52" y="-236.2" font-family="Helvetica,sans-Serif" font-size="16.00" fill="#383838">Target Tracking Policy</text>
</g>
<!-- Policy::Target Tracking Policy&#45;&gt;AutoScalingGroup::asg -->
<g id="edge6" class="edge">
<title>Policy::Target Tracking Policy&#45;&gt;AutoScalingGroup::asg</title>
<path fill="none" stroke="#707070" d="M224.19,-252C237.98,-252 252.48,-252 267.06,-252"/>
<polygon fill="#707070" stroke="#707070" points="266.68,-255.5 276.68,-252 266.68,-248.5 266.68,-255.5"/>
</g>
<!-- KeyPair::kp&#45;ecs -->
<g id="node4" class="node">
<title>KeyPair::kp&#45;ecs</title>
<polygon fill="#e5e5e5" stroke="#dddddd" points="991,-357 866,-357 866,-299 991,-299 991,-357"/>
<text text-anchor="start" x="878" y="-337.2" font-family="Helvetica,sans-Serif" font-weight="bold" font-size="16.00" fill="#707070">EC2::KeyPair</text>
<text text-anchor="start" x="878" y="-312.2" font-family="Helvetica,sans-Serif" font-size="16.00" fill="#383838">kp&#45;ecs</text>
</g>
<!-- LaunchTemplate::lt&#45;ec2&#45;micro&#45;&gt;KeyPair::kp&#45;ecs -->
<g id="edge7" class="edge">
<title>LaunchTemplate::lt&#45;ec2&#45;micro&#45;&gt;KeyPair::kp&#45;ecs</title>
<path fill="none" stroke="#707070" d="M790.24,-328C811.82,-328 834.4,-328 854.86,-328"/>
<polygon fill="#707070" stroke="#707070" points="854.68,-331.5 864.68,-328 854.68,-324.5 854.68,-331.5"/>
</g>
<!-- InstanceProfile::role&#45;ecs -->
<g id="node11" class="node">
<title>InstanceProfile::role&#45;ecs</title>
<polygon fill="#e5e5e5" stroke="#dddddd" points="1018,-281 839,-281 839,-223 1018,-223 1018,-281"/>
<text text-anchor="start" x="851" y="-261.2" font-family="Helvetica,sans-Serif" font-weight="bold" font-size="16.00" fill="#707070">IAM::InstanceProfile</text>
<text text-anchor="start" x="851" y="-236.2" font-family="Helvetica,sans-Serif" font-size="16.00" fill="#383838">role&#45;ecs</text>
</g>
<!-- LaunchTemplate::lt&#45;ec2&#45;micro&#45;&gt;InstanceProfile::role&#45;ecs -->
<g id="edge8" class="edge">
<title>LaunchTemplate::lt&#45;ec2&#45;micro&#45;&gt;InstanceProfile::role&#45;ecs</title>
<path fill="none" stroke="#707070" d="M785.22,-298.51C799.4,-293.87 814.12,-289.06 828.48,-284.37"/>
<polygon fill="#707070" stroke="#707070" points="829.44,-287.41 837.86,-280.98 827.26,-280.76 829.44,-287.41"/>
</g>
<!-- SecurityGroup::sg::Vpc::EcsSecurityGroup -->
<g id="node6" class="node">
<title>SecurityGroup::sg::Vpc::EcsSecurityGroup</title>
<polygon fill="#e5e5e5" stroke="#dddddd" points="803,-129 585,-129 585,-71 803,-71 803,-129"/>
<text text-anchor="start" x="597" y="-109.2" font-family="Helvetica,sans-Serif" font-weight="bold" font-size="16.00" fill="#707070">EC2::SecurityGroup</text>
<text text-anchor="start" x="597" y="-84.2" font-family="Helvetica,sans-Serif" font-size="16.00" fill="#383838">sg::Vpc::EcsSecurityGroup</text>
</g>
<!-- Vpc::Vpc -->
<g id="node10" class="node">
<title>Vpc::Vpc</title>
<polygon fill="#e5e5e5" stroke="#dddddd" points="976,-205 881,-205 881,-147 976,-147 976,-205"/>
<text text-anchor="start" x="893" y="-185.2" font-family="Helvetica,sans-Serif" font-weight="bold" font-size="16.00" fill="#707070">EC2::Vpc</text>
<text text-anchor="start" x="893" y="-160.2" font-family="Helvetica,sans-Serif" font-size="16.00" fill="#383838">Vpc</text>
</g>
<!-- SecurityGroup::sg::Vpc::EcsSecurityGroup&#45;&gt;Vpc::Vpc -->
<g id="edge9" class="edge">
<title>SecurityGroup::sg::Vpc::EcsSecurityGroup&#45;&gt;Vpc::Vpc</title>
<path fill="none" stroke="#707070" d="M785.22,-129.49C813.83,-138.84 844.66,-148.92 870.27,-157.29"/>
<polygon fill="#707070" stroke="#707070" points="868.96,-160.87 879.55,-160.65 871.13,-154.22 868.96,-160.87"/>
</g>
<!-- SecurityGroupRuleIngress::sg::Vpc::EcsSecurityGroup&#45;rule&#45;ingress&#45;tcp&#45;80 -->
<g id="node7" class="node">
<title>SecurityGroupRuleIngress::sg::Vpc::EcsSecurityGroup&#45;rule&#45;ingress&#45;tcp&#45;80</title>
<polygon fill="#e5e5e5" stroke="#dddddd" points="549,-129 276,-129 276,-71 549,-71 549,-129"/>
<text text-anchor="start" x="288" y="-109.2" font-family="Helvetica,sans-Serif" font-weight="bold" font-size="16.00" fill="#707070">EC2::SecurityGroupRuleIngress</text>
<text text-anchor="start" x="288" y="-84.2" font-family="Helvetica,sans-Serif" font-size="16.00" fill="#383838">sg::Vpc::EcsSecurityGroup&#45;rule&#45;i...</text>
</g>
<!-- SecurityGroupRuleIngress::sg::Vpc::EcsSecurityGroup&#45;rule&#45;ingress&#45;tcp&#45;80&#45;&gt;SecurityGroup::sg::Vpc::EcsSecurityGroup -->
<g id="edge10" class="edge">
<title>SecurityGroupRuleIngress::sg::Vpc::EcsSecurityGroup&#45;rule&#45;ingress&#45;tcp&#45;80&#45;&gt;SecurityGroup::sg::Vpc::EcsSecurityGroup</title>
<path fill="none" stroke="#707070" d="M549.16,-100C557.47,-100 565.81,-100 574.05,-100"/>
<polygon fill="#707070" stroke="#707070" points="573.81,-103.5 583.81,-100 573.81,-96.5 573.81,-103.5"/>
</g>
<!-- Subnet::Vpc::PubSubnetAz1&#45;&gt;Vpc::Vpc -->
<g id="edge11" class="edge">
<title>Subnet::Vpc::PubSubnetAz1&#45;&gt;Vpc::Vpc</title>
<path fill="none" stroke="#707070" d="M778.94,-176C809,-176 842.2,-176 869.58,-176"/>
<polygon fill="#707070" stroke="#707070" points="869.54,-179.5 879.54,-176 869.54,-172.5 869.54,-179.5"/>
</g>
<!-- Subnet::Vpc::PubSubnetAz2&#45;&gt;Vpc::Vpc -->
<g id="edge12" class="edge">
<title>Subnet::Vpc::PubSubnetAz2&#45;&gt;Vpc::Vpc</title>
<path fill="none" stroke="#707070" d="M778.94,-224.56C809.27,-214.65 842.79,-203.69 870.31,-194.7"/>
<polygon fill="#707070" stroke="#707070" points="871.12,-197.79 879.54,-191.35 868.95,-191.13 871.12,-197.79"/>
</g>
<!-- Role::role&#45;ecs -->
<g id="node12" class="node">
<title>Role::role&#45;ecs</title>
<polygon fill="#e5e5e5" stroke="#dddddd" points="1153,-281 1054,-281 1054,-223 1153,-223 1153,-281"/>
<text text-anchor="start" x="1066" y="-261.2" font-family="Helvetica,sans-Serif" font-weight="bold" font-size="16.00" fill="#707070">IAM::Role</text>
<text text-anchor="start" x="1066" y="-236.2" font-family="Helvetica,sans-Serif" font-size="16.00" fill="#383838">role&#45;ecs</text>
</g>
<!-- InstanceProfile::role&#45;ecs&#45;&gt;Role::role&#45;ecs -->
<g id="edge13" class="edge">
<title>InstanceProfile::role&#45;ecs&#45;&gt;Role::role&#45;ecs</title>
<path fill="none" stroke="#707070" d="M1018.28,-252C1026.72,-252 1035.13,-252 1043.2,-252"/>
<polygon fill="#707070" stroke="#707070" points="1042.94,-255.5 1052.94,-252 1042.94,-248.5 1042.94,-255.5"/>
</g>
</g>
</svg>
