<?xml version="1.0" encoding="UTF-8" standalone="no"?><svg xmlns="http://www.w3.org/2000/svg" xmlns:xlink="http://www.w3.org/1999/xlink" contentStyleType="text/css" height="228px" preserveAspectRatio="none" style="width:538px;height:228px;background:#FFFFFF;" version="1.1" viewBox="0 0 538 228" width="538px" zoomAndPan="magnify"><defs/><g><rect height="26.4883" style="stroke:#00000000;stroke-width:1.0;fill:none;" width="246" x="119.5" y="15"/><text fill="#000000" font-family="sans-serif" font-size="14" font-weight="bold" lengthAdjust="spacing" textLength="236" x="124.5" y="33.5352">Resources for project 5-zendesk</text><rect fill="#F1F1F1" height="36.4883" rx="12.5" ry="12.5" style="stroke:#181818;stroke-width:1.5;" width="52" x="10" y="113.9766"/><text fill="#000000" font-family="sans-serif" font-size="14" lengthAdjust="spacing" textLength="32" x="20" y="137.5117">Infra</text><rect fill="#F1F1F1" height="36.4883" rx="12.5" ry="12.5" style="stroke:#181818;stroke-width:1.5;" width="46" x="112" y="113.9766"/><text fill="#000000" font-family="sans-serif" font-size="14" lengthAdjust="spacing" textLength="26" x="122" y="137.5117">aws</text><rect fill="#F1F1F1" height="36.4883" rx="12.5" ry="12.5" style="stroke:#181818;stroke-width:1.5;" width="146" x="208" y="85.7324"/><text fill="#000000" font-family="sans-serif" font-size="14" lengthAdjust="spacing" textLength="126" x="218" y="109.2676">CloudWatchEvents</text><rect fill="#F1F1F1" height="36.4883" rx="12.5" ry="12.5" style="stroke:#181818;stroke-width:1.5;" width="122" x="404" y="57.4883"/><text fill="#000000" font-family="sans-serif" font-size="14" lengthAdjust="spacing" textLength="102" x="414" y="81.0234">Connection (1)</text><path d="M354,103.9766 L364,103.9766 C379,103.9766 379,75.7324 394,75.7324 L404,75.7324 " fill="none" style="stroke:#181818;stroke-width:1.0;"/><rect fill="#F1F1F1" height="36.4883" rx="12.5" ry="12.5" style="stroke:#181818;stroke-width:1.5;" width="104" x="404" y="113.9766"/><text fill="#000000" font-family="sans-serif" font-size="14" lengthAdjust="spacing" textLength="84" x="414" y="137.5117">EventBus (1)</text><path d="M354,103.9766 L364,103.9766 C379,103.9766 379,132.2207 394,132.2207 L404,132.2207 " fill="none" style="stroke:#181818;stroke-width:1.0;"/><path d="M158,132.2207 L168,132.2207 C183,132.2207 183,103.9766 198,103.9766 L208,103.9766 " fill="none" style="stroke:#181818;stroke-width:1.0;"/><rect fill="#F1F1F1" height="36.4883" rx="12.5" ry="12.5" style="stroke:#181818;stroke-width:1.5;" width="47" x="208" y="170.4648"/><text fill="#000000" font-family="sans-serif" font-size="14" lengthAdjust="spacing" textLength="27" x="218" y="194">SQS</text><rect fill="#F1F1F1" height="36.4883" rx="12.5" ry="12.5" style="stroke:#181818;stroke-width:1.5;" width="88" x="305" y="170.4648"/><text fill="#000000" font-family="sans-serif" font-size="14" lengthAdjust="spacing" textLength="68" x="315" y="194">Queue (1)</text><path d="M255,188.709 L265,188.709 C280,188.709 280,188.709 295,188.709 L305,188.709 " fill="none" style="stroke:#181818;stroke-width:1.0;"/><path d="M158,132.2207 L168,132.2207 C183,132.2207 183,188.709 198,188.709 L208,188.709 " fill="none" style="stroke:#181818;stroke-width:1.0;"/><path d="M62,132.2207 L72,132.2207 C87,132.2207 87,132.2207 102,132.2207 L112,132.2207 " fill="none" style="stroke:#181818;stroke-width:1.0;"/><!--MD5=[8166965857e2e674c2a3ab3b311b7658]
@startmindmap
title Resources for project 5-zendesk
skinparam monochrome true
+ Infra
++ aws
+++ CloudWatchEvents
++++ Connection (1)
++++ EventBus (1)
+++ SQS
++++ Queue (1)
@endmindmap

PlantUML version 1.2022.6(Tue Jun 21 12:34:49 COT 2022)
(GPL source distribution)
Java Runtime: Java(TM) SE Runtime Environment
JVM: Java HotSpot(TM) 64-Bit Server VM
Default Encoding: UTF-8
Language: en
Country: GB
--></g></svg>