<?xml version="1.0" encoding="UTF-8" standalone="no"?>
<!DOCTYPE svg PUBLIC "-//W3C//DTD SVG 1.1//EN"
 "http://www.w3.org/Graphics/SVG/1.1/DTD/svg11.dtd">
<!-- Generated by graphviz version 2.50.0 (20211204.2007)
 -->
<!-- Title: graphname Pages: 1 -->
<svg width="949pt" height="237pt"
 viewBox="0.00 0.00 949.00 237.00" xmlns="http://www.w3.org/2000/svg" xmlns:xlink="http://www.w3.org/1999/xlink">
<g id="graph0" class="graph" transform="scale(1 1) rotate(0) translate(4 233)">
<title>graphname</title>
<polygon fill="#fafafa" stroke="transparent" points="-4,4 -4,-233 945,-233 945,4 -4,4"/>
<text text-anchor="start" x="303.5" y="-204.4" font-family="Helvetica,sans-Serif" font-weight="bold" font-size="22.00" fill="#383838">Project aks&#45;application&#45;gateway</text>
<text text-anchor="start" x="466.5" y="-188.8" font-family="Helvetica,sans-Serif" font-size="14.00"> &#160;</text>
<text text-anchor="start" x="303.5" y="-167.2" font-family="Helvetica,sans-Serif" font-weight="bold" font-size="16.00" fill="#707070">Live Diagram</text>
<g id="clust1" class="cluster">
<title>cluster_azure</title>
<polygon fill="#f5f5f5" stroke="#f5f5f5" points="8,-8 8,-145 933,-145 933,-8 8,-8"/>
<text text-anchor="start" x="401.5" y="-23" font-family="Helvetica,sans-Serif" font-weight="bold" font-size="20.00" fill="#707070">Provider azure</text>
</g>
<g id="clust2" class="cluster">
<title>cluster_azure_</title>
<polygon fill="#eeeeee" stroke="#eeeeee" points="16,-54 16,-137 925,-137 925,-54 16,-54"/>
<text text-anchor="start" x="470.36" y="-58.3" font-family="Helvetica,sans-Serif" font-size="1.00" fill="#383838"> </text>
</g>
<!-- RoleAssignment::::eef1bc65&#45;5f03&#45;4a78&#45;8610&#45;41dd1f4f7efb -->
<g id="node1" class="node">
<title>RoleAssignment::::eef1bc65&#45;5f03&#45;4a78&#45;8610&#45;41dd1f4f7efb</title>
<polygon fill="#e5e5e5" stroke="#dddddd" points="316,-129 24,-129 24,-71 316,-71 316,-129"/>
<text text-anchor="start" x="36" y="-109.2" font-family="Helvetica,sans-Serif" font-weight="bold" font-size="16.00" fill="#707070">Authorization::RoleAssignment</text>
<text text-anchor="start" x="36" y="-84.2" font-family="Helvetica,sans-Serif" font-size="16.00" fill="#383838">eef1bc65&#45;5f03&#45;4a78&#45;8610&#45;41dd1f4f...</text>
</g>
<!-- ManagedCluster::::rg&#45;aks&#45;ag::cluster -->
<g id="node2" class="node">
<title>ManagedCluster::::rg&#45;aks&#45;ag::cluster</title>
<polygon fill="#e5e5e5" stroke="#dddddd" points="643,-129 352,-129 352,-71 643,-71 643,-129"/>
<text text-anchor="start" x="364.5" y="-109.2" font-family="Helvetica,sans-Serif" font-weight="bold" font-size="16.00" fill="#707070">ContainerService::ManagedCluster</text>
<text text-anchor="start" x="364.5" y="-84.2" font-family="Helvetica,sans-Serif" font-size="16.00" fill="#383838">rg&#45;aks&#45;ag::cluster</text>
</g>
<!-- RoleAssignment::::eef1bc65&#45;5f03&#45;4a78&#45;8610&#45;41dd1f4f7efb&#45;&gt;ManagedCluster::::rg&#45;aks&#45;ag::cluster -->
<g id="edge1" class="edge">
<title>RoleAssignment::::eef1bc65&#45;5f03&#45;4a78&#45;8610&#45;41dd1f4f7efb&#45;&gt;ManagedCluster::::rg&#45;aks&#45;ag::cluster</title>
<path fill="none" stroke="#707070" d="M316.14,-100C324.67,-100 333.26,-100 341.83,-100"/>
<polygon fill="#707070" stroke="#707070" points="341.86,-103.5 351.86,-100 341.86,-96.5 341.86,-103.5"/>
</g>
<!-- ResourceGroup::::rg&#45;aks&#45;ag -->
<g id="node3" class="node">
<title>ResourceGroup::::rg&#45;aks&#45;ag</title>
<polygon fill="#e5e5e5" stroke="#dddddd" points="917,-129 679,-129 679,-71 917,-71 917,-129"/>
<text text-anchor="start" x="691" y="-109.2" font-family="Helvetica,sans-Serif" font-weight="bold" font-size="16.00" fill="#707070">Resources::ResourceGroup</text>
<text text-anchor="start" x="691" y="-84.2" font-family="Helvetica,sans-Serif" font-size="16.00" fill="#383838">rg&#45;aks&#45;ag</text>
</g>
<!-- ManagedCluster::::rg&#45;aks&#45;ag::cluster&#45;&gt;ResourceGroup::::rg&#45;aks&#45;ag -->
<g id="edge2" class="edge">
<title>ManagedCluster::::rg&#45;aks&#45;ag::cluster&#45;&gt;ResourceGroup::::rg&#45;aks&#45;ag</title>
<path fill="none" stroke="#707070" d="M643.38,-100C651.83,-100 660.29,-100 668.67,-100"/>
<polygon fill="#707070" stroke="#707070" points="668.84,-103.5 678.84,-100 668.84,-96.5 668.84,-103.5"/>
</g>
</g>
</svg>
