<?xml version="1.0" encoding="UTF-8" standalone="no"?><svg xmlns="http://www.w3.org/2000/svg" xmlns:xlink="http://www.w3.org/1999/xlink" contentStyleType="text/css" height="115px" preserveAspectRatio="none" style="width:496px;height:115px;background:#FFFFFF;" version="1.1" viewBox="0 0 496 115" width="496px" zoomAndPan="magnify"><defs/><g><rect height="26.4883" style="stroke:#00000000;stroke-width:1.0;fill:none;" width="315" x="64" y="15"/><text fill="#000000" font-family="sans-serif" font-size="14" font-weight="bold" lengthAdjust="spacing" textLength="305" x="69" y="33.5352">Resources for project codecommit-simple</text><rect fill="#F1F1F1" height="36.4883" rx="12.5" ry="12.5" style="stroke:#181818;stroke-width:1.5;" width="52" x="10" y="57.4883"/><text fill="#000000" font-family="sans-serif" font-size="14" lengthAdjust="spacing" textLength="32" x="20" y="81.0234">Infra</text><rect fill="#F1F1F1" height="36.4883" rx="12.5" ry="12.5" style="stroke:#181818;stroke-width:1.5;" width="46" x="112" y="57.4883"/><text fill="#000000" font-family="sans-serif" font-size="14" lengthAdjust="spacing" textLength="26" x="122" y="81.0234">aws</text><rect fill="#F1F1F1" height="36.4883" rx="12.5" ry="12.5" style="stroke:#181818;stroke-width:1.5;" width="110" x="208" y="57.4883"/><text fill="#000000" font-family="sans-serif" font-size="14" lengthAdjust="spacing" textLength="90" x="218" y="81.0234">CodeCommit</text><rect fill="#F1F1F1" height="36.4883" rx="12.5" ry="12.5" style="stroke:#181818;stroke-width:1.5;" width="116" x="368" y="57.4883"/><text fill="#000000" font-family="sans-serif" font-size="14" lengthAdjust="spacing" textLength="96" x="378" y="81.0234">Repository (1)</text><path d="M318,75.7324 L328,75.7324 C343,75.7324 343,75.7324 358,75.7324 L368,75.7324 " fill="none" style="stroke:#181818;stroke-width:1.0;"/><path d="M158,75.7324 L168,75.7324 C183,75.7324 183,75.7324 198,75.7324 L208,75.7324 " fill="none" style="stroke:#181818;stroke-width:1.0;"/><path d="M62,75.7324 L72,75.7324 C87,75.7324 87,75.7324 102,75.7324 L112,75.7324 " fill="none" style="stroke:#181818;stroke-width:1.0;"/><!--MD5=[b50f44fae89466d56f3e8eaf2149830b]
@startmindmap
title Resources for project codecommit-simple
skinparam monochrome true
+ Infra
++ aws
+++ CodeCommit
++++ Repository (1)
@endmindmap

PlantUML version 1.2022.6(Tue Jun 21 12:34:49 COT 2022)
(GPL source distribution)
Java Runtime: Java(TM) SE Runtime Environment
JVM: Java HotSpot(TM) 64-Bit Server VM
Default Encoding: UTF-8
Language: en
Country: GB
--></g></svg>