<?xml version="1.0" encoding="UTF-8" standalone="no"?>
<!DOCTYPE svg PUBLIC "-//W3C//DTD SVG 1.1//EN"
 "http://www.w3.org/Graphics/SVG/1.1/DTD/svg11.dtd">
<!-- Generated by graphviz version 8.0.3 (20230416.2022)
 -->
<!-- Title: graphname Pages: 1 -->
<svg width="1045pt" height="389pt"
 viewBox="0.00 0.00 1045.00 389.00" xmlns="http://www.w3.org/2000/svg" xmlns:xlink="http://www.w3.org/1999/xlink">
<g id="graph0" class="graph" transform="scale(1 1) rotate(0) translate(4 385)">
<title>graphname</title>
<polygon fill="#fafafa" stroke="none" points="-4,4 -4,-385 1041,-385 1041,4 -4,4"/>
<text text-anchor="start" x="302.5" y="-356.4" font-family="Helvetica,sans-Serif" font-weight="bold" font-size="22.00" fill="#383838">Project route53&#45;resolver&#45;query&#45;log&#45;config</text>
<text text-anchor="start" x="514.5" y="-340.8" font-family="Helvetica,sans-Serif" font-size="14.00"> &#160;</text>
<text text-anchor="start" x="302.5" y="-319.2" font-family="Helvetica,sans-Serif" font-weight="bold" font-size="16.00" fill="#707070">Target Diagram</text>
<g id="clust1" class="cluster">
<title>cluster_aws</title>
<polygon fill="#f5f5f5" stroke="#f5f5f5" points="8,-8 8,-297 1029,-297 1029,-8 8,-8"/>
<text text-anchor="start" x="456.5" y="-23" font-family="Helvetica,sans-Serif" font-weight="bold" font-size="20.00" fill="#707070">Provider aws</text>
</g>
<g id="clust2" class="cluster">
<title>cluster_aws_</title>
<polygon fill="#eeeeee" stroke="#eeeeee" points="16,-54 16,-289 1021,-289 1021,-54 16,-54"/>
<text text-anchor="start" x="518.36" y="-58.3" font-family="Helvetica,sans-Serif" font-size="1.00" fill="#383838"> </text>
</g>
<!-- LogGroup::my&#45;project&#45;dns&#45;query -->
<g id="node1" class="node">
<title>LogGroup::my&#45;project&#45;dns&#45;query</title>
<polygon fill="#e5e5e5" stroke="#dddddd" points="1013,-129 770,-129 770,-71 1013,-71 1013,-129"/>
<text text-anchor="start" x="782" y="-109.2" font-family="Helvetica,sans-Serif" font-weight="bold" font-size="16.00" fill="#707070">CloudWatchLogs::LogGroup</text>
<text text-anchor="start" x="782" y="-84.2" font-family="Helvetica,sans-Serif" font-size="16.00" fill="#383838">my&#45;project&#45;dns&#45;query</text>
</g>
<!-- Vpc::vpc&#45;default -->
<g id="node2" class="node">
<title>Vpc::vpc&#45;default</title>
<polygon fill="#e5e5e5" stroke="#dddddd" points="640,-205 536,-205 536,-147 640,-147 640,-205"/>
<text text-anchor="start" x="548" y="-185.2" font-family="Helvetica,sans-Serif" font-weight="bold" font-size="16.00" fill="#707070">EC2::Vpc</text>
<text text-anchor="start" x="548" y="-160.2" font-family="Helvetica,sans-Serif" font-size="16.00" fill="#383838">vpc&#45;default</text>
</g>
<!-- QueryLogConfig::my&#45;dns&#45;query&#45;config -->
<g id="node3" class="node">
<title>QueryLogConfig::my&#45;dns&#45;query&#45;config</title>
<polygon fill="#e5e5e5" stroke="#dddddd" points="734,-129 442,-129 442,-71 734,-71 734,-129"/>
<text text-anchor="start" x="454" y="-109.2" font-family="Helvetica,sans-Serif" font-weight="bold" font-size="16.00" fill="#707070">Route53Resolver::QueryLogConfig</text>
<text text-anchor="start" x="454" y="-84.2" font-family="Helvetica,sans-Serif" font-size="16.00" fill="#383838">my&#45;dns&#45;query&#45;config</text>
</g>
<!-- QueryLogConfig::my&#45;dns&#45;query&#45;config&#45;&gt;LogGroup::my&#45;project&#45;dns&#45;query -->
<g id="edge1" class="edge">
<title>QueryLogConfig::my&#45;dns&#45;query&#45;config&#45;&gt;LogGroup::my&#45;project&#45;dns&#45;query</title>
<path fill="none" stroke="#707070" d="M734.45,-100C742.53,-100 750.62,-100 758.64,-100"/>
<polygon fill="#707070" stroke="#707070" points="758.53,-103.5 768.53,-100 758.53,-96.5 758.53,-103.5"/>
</g>
<!-- QueryLogConfig::my&#45;dns&#45;query&#45;config&#45;s3 -->
<g id="node4" class="node">
<title>QueryLogConfig::my&#45;dns&#45;query&#45;config&#45;s3</title>
<polygon fill="#e5e5e5" stroke="#dddddd" points="734,-281 442,-281 442,-223 734,-223 734,-281"/>
<text text-anchor="start" x="454" y="-261.2" font-family="Helvetica,sans-Serif" font-weight="bold" font-size="16.00" fill="#707070">Route53Resolver::QueryLogConfig</text>
<text text-anchor="start" x="454" y="-236.2" font-family="Helvetica,sans-Serif" font-size="16.00" fill="#383838">my&#45;dns&#45;query&#45;config&#45;s3</text>
</g>
<!-- Bucket::gc&#45;dns&#45;query&#45;config -->
<g id="node7" class="node">
<title>Bucket::gc&#45;dns&#45;query&#45;config</title>
<polygon fill="#e5e5e5" stroke="#dddddd" points="975.5,-281 807.5,-281 807.5,-223 975.5,-223 975.5,-281"/>
<text text-anchor="start" x="819.5" y="-261.2" font-family="Helvetica,sans-Serif" font-weight="bold" font-size="16.00" fill="#707070">S3::Bucket</text>
<text text-anchor="start" x="819.5" y="-236.2" font-family="Helvetica,sans-Serif" font-size="16.00" fill="#383838">gc&#45;dns&#45;query&#45;config</text>
</g>
<!-- QueryLogConfig::my&#45;dns&#45;query&#45;config&#45;s3&#45;&gt;Bucket::gc&#45;dns&#45;query&#45;config -->
<g id="edge2" class="edge">
<title>QueryLogConfig::my&#45;dns&#45;query&#45;config&#45;s3&#45;&gt;Bucket::gc&#45;dns&#45;query&#45;config</title>
<path fill="none" stroke="#707070" d="M734.45,-252C755.54,-252 776.77,-252 796.49,-252"/>
<polygon fill="#707070" stroke="#707070" points="796.27,-255.5 806.27,-252 796.27,-248.5 796.27,-255.5"/>
</g>
<!-- QueryLogConfigAssociation::my&#45;dns&#45;query&#45;config&#45;s3::vpc&#45;default -->
<g id="node5" class="node">
<title>QueryLogConfigAssociation::my&#45;dns&#45;query&#45;config&#45;s3::vpc&#45;default</title>
<polygon fill="#e5e5e5" stroke="#dddddd" points="406,-243 24,-243 24,-185 406,-185 406,-243"/>
<text text-anchor="start" x="36" y="-223.2" font-family="Helvetica,sans-Serif" font-weight="bold" font-size="16.00" fill="#707070">Route53Resolver::QueryLogConfigAssociation</text>
<text text-anchor="start" x="36" y="-198.2" font-family="Helvetica,sans-Serif" font-size="16.00" fill="#383838">my&#45;dns&#45;query&#45;config&#45;s3::vpc&#45;defa...</text>
</g>
<!-- QueryLogConfigAssociation::my&#45;dns&#45;query&#45;config&#45;s3::vpc&#45;default&#45;&gt;Vpc::vpc&#45;default -->
<g id="edge4" class="edge">
<title>QueryLogConfigAssociation::my&#45;dns&#45;query&#45;config&#45;s3::vpc&#45;default&#45;&gt;Vpc::vpc&#45;default</title>
<path fill="none" stroke="#707070" d="M406.39,-194.5C449.23,-190.11 491.72,-185.76 524.71,-182.38"/>
<polygon fill="#707070" stroke="#707070" points="524.94,-185.77 534.53,-181.27 524.22,-178.81 524.94,-185.77"/>
</g>
<!-- QueryLogConfigAssociation::my&#45;dns&#45;query&#45;config&#45;s3::vpc&#45;default&#45;&gt;QueryLogConfig::my&#45;dns&#45;query&#45;config&#45;s3 -->
<g id="edge3" class="edge">
<title>QueryLogConfigAssociation::my&#45;dns&#45;query&#45;config&#45;s3::vpc&#45;default&#45;&gt;QueryLogConfig::my&#45;dns&#45;query&#45;config&#45;s3</title>
<path fill="none" stroke="#707070" d="M406.39,-233.5C414.52,-234.33 422.65,-235.17 430.69,-235.99"/>
<polygon fill="#707070" stroke="#707070" points="430.31,-239.57 440.61,-237.11 431.02,-232.61 430.31,-239.57"/>
</g>
<!-- QueryLogConfigAssociation::my&#45;dns&#45;query&#45;config::vpc&#45;default -->
<g id="node6" class="node">
<title>QueryLogConfigAssociation::my&#45;dns&#45;query&#45;config::vpc&#45;default</title>
<polygon fill="#e5e5e5" stroke="#dddddd" points="406,-167 24,-167 24,-109 406,-109 406,-167"/>
<text text-anchor="start" x="36" y="-147.2" font-family="Helvetica,sans-Serif" font-weight="bold" font-size="16.00" fill="#707070">Route53Resolver::QueryLogConfigAssociation</text>
<text text-anchor="start" x="36" y="-122.2" font-family="Helvetica,sans-Serif" font-size="16.00" fill="#383838">my&#45;dns&#45;query&#45;config::vpc&#45;default...</text>
</g>
<!-- QueryLogConfigAssociation::my&#45;dns&#45;query&#45;config::vpc&#45;default&#45;&gt;Vpc::vpc&#45;default -->
<g id="edge6" class="edge">
<title>QueryLogConfigAssociation::my&#45;dns&#45;query&#45;config::vpc&#45;default&#45;&gt;Vpc::vpc&#45;default</title>
<path fill="none" stroke="#707070" d="M406.39,-157.5C449.23,-161.89 491.72,-166.24 524.71,-169.62"/>
<polygon fill="#707070" stroke="#707070" points="524.22,-173.19 534.53,-170.73 524.94,-166.23 524.22,-173.19"/>
</g>
<!-- QueryLogConfigAssociation::my&#45;dns&#45;query&#45;config::vpc&#45;default&#45;&gt;QueryLogConfig::my&#45;dns&#45;query&#45;config -->
<g id="edge5" class="edge">
<title>QueryLogConfigAssociation::my&#45;dns&#45;query&#45;config::vpc&#45;default&#45;&gt;QueryLogConfig::my&#45;dns&#45;query&#45;config</title>
<path fill="none" stroke="#707070" d="M406.39,-118.5C414.52,-117.67 422.65,-116.83 430.69,-116.01"/>
<polygon fill="#707070" stroke="#707070" points="431.02,-119.39 440.61,-114.89 430.31,-112.43 431.02,-119.39"/>
</g>
</g>
</svg>
