<?xml version="1.0" encoding="UTF-8" standalone="no"?><svg xmlns="http://www.w3.org/2000/svg" xmlns:xlink="http://www.w3.org/1999/xlink" contentStyleType="text/css" height="341px" preserveAspectRatio="none" style="width:640px;height:341px;background:#FFFFFF;" version="1.1" viewBox="0 0 640 341" width="640px" zoomAndPan="magnify"><defs/><g><rect height="26.4883" style="stroke:#00000000;stroke-width:1.0;fill:none;" width="427" x="80" y="15"/><text fill="#000000" font-family="sans-serif" font-size="14" font-weight="bold" lengthAdjust="spacing" textLength="417" x="85" y="33.5352">Resources for project route53-resolver-query-log-config</text><rect fill="#F1F1F1" height="36.4883" rx="12.5" ry="12.5" style="stroke:#181818;stroke-width:1.5;" width="52" x="10" y="170.4648"/><text fill="#000000" font-family="sans-serif" font-size="14" lengthAdjust="spacing" textLength="32" x="20" y="194">Infra</text><rect fill="#F1F1F1" height="36.4883" rx="12.5" ry="12.5" style="stroke:#181818;stroke-width:1.5;" width="46" x="112" y="170.4648"/><text fill="#000000" font-family="sans-serif" font-size="14" lengthAdjust="spacing" textLength="26" x="122" y="194">aws</text><rect fill="#F1F1F1" height="36.4883" rx="12.5" ry="12.5" style="stroke:#181818;stroke-width:1.5;" width="134" x="208" y="57.4883"/><text fill="#000000" font-family="sans-serif" font-size="14" lengthAdjust="spacing" textLength="114" x="218" y="81.0234">CloudWatchLogs</text><rect fill="#F1F1F1" height="36.4883" rx="12.5" ry="12.5" style="stroke:#181818;stroke-width:1.5;" width="111" x="392" y="57.4883"/><text fill="#000000" font-family="sans-serif" font-size="14" lengthAdjust="spacing" textLength="91" x="402" y="81.0234">LogGroup (1)</text><path d="M342,75.7324 L352,75.7324 C367,75.7324 367,75.7324 382,75.7324 L392,75.7324 " fill="none" style="stroke:#181818;stroke-width:1.0;"/><path d="M158,188.709 L168,188.709 C183,188.709 183,75.7324 198,75.7324 L208,75.7324 " fill="none" style="stroke:#181818;stroke-width:1.0;"/><rect fill="#F1F1F1" height="36.4883" rx="12.5" ry="12.5" style="stroke:#181818;stroke-width:1.5;" width="47" x="208" y="113.9766"/><text fill="#000000" font-family="sans-serif" font-size="14" lengthAdjust="spacing" textLength="27" x="218" y="137.5117">EC2</text><rect fill="#F1F1F1" height="36.4883" rx="12.5" ry="12.5" style="stroke:#181818;stroke-width:1.5;" width="68" x="305" y="113.9766"/><text fill="#000000" font-family="sans-serif" font-size="14" lengthAdjust="spacing" textLength="48" x="315" y="137.5117">Vpc (1)</text><path d="M255,132.2207 L265,132.2207 C280,132.2207 280,132.2207 295,132.2207 L305,132.2207 " fill="none" style="stroke:#181818;stroke-width:1.0;"/><path d="M158,188.709 L168,188.709 C183,188.709 183,132.2207 198,132.2207 L208,132.2207 " fill="none" style="stroke:#181818;stroke-width:1.0;"/><rect fill="#F1F1F1" height="36.4883" rx="12.5" ry="12.5" style="stroke:#181818;stroke-width:1.5;" width="136" x="208" y="198.709"/><text fill="#000000" font-family="sans-serif" font-size="14" lengthAdjust="spacing" textLength="116" x="218" y="222.2441">Route53Resolver</text><rect fill="#F1F1F1" height="36.4883" rx="12.5" ry="12.5" style="stroke:#181818;stroke-width:1.5;" width="155" x="394" y="170.4648"/><text fill="#000000" font-family="sans-serif" font-size="14" lengthAdjust="spacing" textLength="135" x="404" y="194">QueryLogConfig (2)</text><path d="M344,216.9531 L354,216.9531 C369,216.9531 369,188.709 384,188.709 L394,188.709 " fill="none" style="stroke:#181818;stroke-width:1.0;"/><rect fill="#F1F1F1" height="36.4883" rx="12.5" ry="12.5" style="stroke:#181818;stroke-width:1.5;" width="234" x="394" y="226.9531"/><text fill="#000000" font-family="sans-serif" font-size="14" lengthAdjust="spacing" textLength="214" x="404" y="250.4883">QueryLogConfigAssociation (2)</text><path d="M344,216.9531 L354,216.9531 C369,216.9531 369,245.1973 384,245.1973 L394,245.1973 " fill="none" style="stroke:#181818;stroke-width:1.0;"/><path d="M158,188.709 L168,188.709 C183,188.709 183,216.9531 198,216.9531 L208,216.9531 " fill="none" style="stroke:#181818;stroke-width:1.0;"/><rect fill="#F1F1F1" height="36.4883" rx="12.5" ry="12.5" style="stroke:#181818;stroke-width:1.5;" width="37" x="208" y="283.4414"/><text fill="#000000" font-family="sans-serif" font-size="14" lengthAdjust="spacing" textLength="17" x="218" y="306.9766">S3</text><rect fill="#F1F1F1" height="36.4883" rx="12.5" ry="12.5" style="stroke:#181818;stroke-width:1.5;" width="88" x="295" y="283.4414"/><text fill="#000000" font-family="sans-serif" font-size="14" lengthAdjust="spacing" textLength="68" x="305" y="306.9766">Bucket (1)</text><path d="M245,301.6855 L255,301.6855 C270,301.6855 270,301.6855 285,301.6855 L295,301.6855 " fill="none" style="stroke:#181818;stroke-width:1.0;"/><path d="M158,188.709 L168,188.709 C183,188.709 183,301.6855 198,301.6855 L208,301.6855 " fill="none" style="stroke:#181818;stroke-width:1.0;"/><path d="M62,188.709 L72,188.709 C87,188.709 87,188.709 102,188.709 L112,188.709 " fill="none" style="stroke:#181818;stroke-width:1.0;"/><!--MD5=[9f03cb015f028b9793a65de2a968d4d9]
@startmindmap
title Resources for project route53-resolver-query-log-config
skinparam monochrome true
+ Infra
++ aws
+++ CloudWatchLogs
++++ LogGroup (1)
+++ EC2
++++ Vpc (1)
+++ Route53Resolver
++++ QueryLogConfig (2)
++++ QueryLogConfigAssociation (2)
+++ S3
++++ Bucket (1)
@endmindmap

PlantUML version 1.2022.6(Tue Jun 21 19:34:49 CEST 2022)
(GPL source distribution)
Java Runtime: Java(TM) SE Runtime Environment
JVM: Java HotSpot(TM) 64-Bit Server VM
Default Encoding: UTF-8
Language: en
Country: GB
--></g></svg>