<?xml version="1.0" encoding="UTF-8" standalone="no"?>
<!DOCTYPE svg PUBLIC "-//W3C//DTD SVG 1.1//EN"
 "http://www.w3.org/Graphics/SVG/1.1/DTD/svg11.dtd">
<!-- Generated by graphviz version 2.44.1 (20200629.0846)
 -->
<!-- Title: graphname Pages: 1 -->
<svg width="711pt" height="277pt"
 viewBox="0.00 0.00 711.00 277.00" xmlns="http://www.w3.org/2000/svg" xmlns:xlink="http://www.w3.org/1999/xlink">
<g id="graph0" class="graph" transform="scale(1 1) rotate(0) translate(4 273)">
<title>graphname</title>
<polygon fill="#fafafa" stroke="transparent" points="-4,4 -4,-273 707,-273 707,4 -4,4"/>
<text text-anchor="start" x="265.5" y="-244.4" font-family="Helvetica,sans-Serif" font-weight="bold" font-size="22.00" fill="#383838">Project plantuml</text>
<text text-anchor="start" x="347.5" y="-228.8" font-family="Helvetica,sans-Serif" font-size="14.00"> &#160;</text>
<text text-anchor="start" x="265.5" y="-207.2" font-family="Helvetica,sans-Serif" font-weight="bold" font-size="16.00" fill="#707070">Target Diagram</text>
<g id="clust1" class="cluster">
<title>cluster_azure</title>
<polygon fill="#f5f5f5" stroke="#f5f5f5" points="8,-8 8,-185 695,-185 695,-8 8,-8"/>
<text text-anchor="start" x="282.5" y="-23" font-family="Helvetica,sans-Serif" font-weight="bold" font-size="20.00" fill="#707070">Provider azure</text>
</g>
<g id="clust2" class="cluster">
<title>cluster_azure_</title>
<polygon fill="#eeeeee" stroke="#eeeeee" points="16,-54 16,-177 687,-177 687,-54 16,-54"/>
<text text-anchor="start" x="351.36" y="-58.3" font-family="Helvetica,sans-Serif" font-size="1.00" fill="#383838"> </text>
</g>
<!-- Workspace::logs -->
<g id="node1" class="node">
<title>Workspace::logs</title>
<polygon fill="#e5e5e5" stroke="#dddddd" points="498,-149 388,-149 388,-91 498,-91 498,-149"/>
<text text-anchor="start" x="400" y="-129.2" font-family="Helvetica,sans-Serif" font-weight="bold" font-size="16.00" fill="#707070">Workspace</text>
<text text-anchor="start" x="400" y="-104.2" font-family="Helvetica,sans-Serif" font-size="16.00" fill="#383838">logs</text>
</g>
<!-- ResourceGroup::rg -->
<g id="node2" class="node">
<title>ResourceGroup::rg</title>
<polygon fill="#e5e5e5" stroke="#dddddd" points="679,-149 534,-149 534,-91 679,-91 679,-149"/>
<text text-anchor="start" x="546.5" y="-129.2" font-family="Helvetica,sans-Serif" font-weight="bold" font-size="16.00" fill="#707070">ResourceGroup</text>
<text text-anchor="start" x="546.5" y="-104.2" font-family="Helvetica,sans-Serif" font-size="16.00" fill="#383838">rg</text>
</g>
<!-- Workspace::logs&#45;&gt;ResourceGroup::rg -->
<g id="edge1" class="edge">
<title>Workspace::logs&#45;&gt;ResourceGroup::rg</title>
<path fill="none" stroke="#707070" d="M498.23,-120C506.46,-120 515.11,-120 523.77,-120"/>
<polygon fill="#707070" stroke="#707070" points="523.92,-123.5 533.92,-120 523.92,-116.5 523.92,-123.5"/>
</g>
<!-- ContainerApp::plantuml -->
<g id="node3" class="node">
<title>ContainerApp::plantuml</title>
<polygon fill="#e5e5e5" stroke="#dddddd" points="154,-139 24,-139 24,-81 154,-81 154,-139"/>
<text text-anchor="start" x="36" y="-119.2" font-family="Helvetica,sans-Serif" font-weight="bold" font-size="16.00" fill="#707070">ContainerApp</text>
<text text-anchor="start" x="36" y="-94.2" font-family="Helvetica,sans-Serif" font-size="16.00" fill="#383838">plantuml</text>
</g>
<!-- ContainerApp::plantuml&#45;&gt;ResourceGroup::rg -->
<g id="edge2" class="edge">
<title>ContainerApp::plantuml&#45;&gt;ResourceGroup::rg</title>
<path fill="none" stroke="#707070" d="M154.01,-89.3C165.85,-86.26 178.21,-83.62 190,-82 325.62,-63.37 363.08,-58.86 498,-82 506.65,-83.48 515.52,-85.59 524.29,-88.07"/>
<polygon fill="#707070" stroke="#707070" points="523.53,-91.49 534.12,-91 525.54,-84.79 523.53,-91.49"/>
</g>
<!-- KubeEnvironment::dev -->
<g id="node4" class="node">
<title>KubeEnvironment::dev</title>
<polygon fill="#e5e5e5" stroke="#dddddd" points="352,-149 190,-149 190,-91 352,-91 352,-149"/>
<text text-anchor="start" x="202" y="-129.2" font-family="Helvetica,sans-Serif" font-weight="bold" font-size="16.00" fill="#707070">KubeEnvironment</text>
<text text-anchor="start" x="202" y="-104.2" font-family="Helvetica,sans-Serif" font-size="16.00" fill="#383838">dev</text>
</g>
<!-- ContainerApp::plantuml&#45;&gt;KubeEnvironment::dev -->
<g id="edge3" class="edge">
<title>ContainerApp::plantuml&#45;&gt;KubeEnvironment::dev</title>
<path fill="none" stroke="#707070" d="M154.22,-113.57C162.49,-114.03 171.08,-114.5 179.68,-114.98"/>
<polygon fill="#707070" stroke="#707070" points="179.57,-118.48 189.75,-115.54 179.96,-111.49 179.57,-118.48"/>
</g>
<!-- KubeEnvironment::dev&#45;&gt;Workspace::logs -->
<g id="edge5" class="edge">
<title>KubeEnvironment::dev&#45;&gt;Workspace::logs</title>
<path fill="none" stroke="#707070" d="M352.02,-120C360.59,-120 369.23,-120 377.59,-120"/>
<polygon fill="#707070" stroke="#707070" points="377.62,-123.5 387.62,-120 377.62,-116.5 377.62,-123.5"/>
</g>
<!-- KubeEnvironment::dev&#45;&gt;ResourceGroup::rg -->
<g id="edge4" class="edge">
<title>KubeEnvironment::dev&#45;&gt;ResourceGroup::rg</title>
<path fill="none" stroke="#707070" d="M349.16,-149.01C361.97,-152.74 375.23,-155.96 388,-158 436.28,-165.71 449.81,-166.27 498,-158 506.65,-156.52 515.52,-154.41 524.29,-151.93"/>
<polygon fill="#707070" stroke="#707070" points="525.54,-155.21 534.12,-149 523.53,-148.51 525.54,-155.21"/>
</g>
</g>
</svg>
