<?xml version="1.0" encoding="UTF-8" standalone="no"?><svg xmlns="http://www.w3.org/2000/svg" xmlns:xlink="http://www.w3.org/1999/xlink" contentScriptType="application/ecmascript" contentStyleType="text/css" height="285px" preserveAspectRatio="none" style="width:562px;height:285px;background:#FFFFFF;" version="1.1" viewBox="0 0 562 285" width="562px" zoomAndPan="magnify"><defs><filter height="300%" id="f11bg2igyxy8yh" width="300%" x="-1" y="-1"><feGaussianBlur result="blurOut" stdDeviation="2.0"/><feColorMatrix in="blurOut" result="blurOut2" type="matrix" values="0 0 0 0 0 0 0 0 0 0 0 0 0 0 0 0 0 0 .4 0"/><feOffset dx="4.0" dy="4.0" in="blurOut2" result="blurOut3"/><feBlend in="SourceGraphic" in2="blurOut3" mode="normal"/></filter></defs><g><rect fill="none" height="26.4883" style="stroke:none;stroke-width:1.0;" width="234" x="134" y="15"/><text fill="#000000" font-family="sans-serif" font-size="14" font-weight="bold" lengthAdjust="spacing" textLength="224" x="139" y="33.5352">Resources for project plantuml</text><rect fill="#F8F8F8" filter="url(#f11bg2igyxy8yh)" height="36.4883" rx="12.5" ry="12.5" style="stroke:#383838;stroke-width:1.5;" width="52" x="10" y="142.2207"/><text fill="#000000" font-family="sans-serif" font-size="14" lengthAdjust="spacing" textLength="32" x="20" y="165.7559">Infra</text><rect fill="#F8F8F8" filter="url(#f11bg2igyxy8yh)" height="36.4883" rx="12.5" ry="12.5" style="stroke:#383838;stroke-width:1.5;" width="59" x="112" y="142.2207"/><text fill="#000000" font-family="sans-serif" font-size="14" lengthAdjust="spacing" textLength="39" x="122" y="165.7559">azure</text><rect fill="#F8F8F8" filter="url(#f11bg2igyxy8yh)" height="36.4883" rx="12.5" ry="12.5" style="stroke:#383838;stroke-width:1.5;" width="155" x="221" y="57.4883"/><text fill="#000000" font-family="sans-serif" font-size="14" lengthAdjust="spacing" textLength="135" x="231" y="81.0234">OperationalInsights</text><rect fill="#F8F8F8" filter="url(#f11bg2igyxy8yh)" height="36.4883" rx="12.5" ry="12.5" style="stroke:#383838;stroke-width:1.5;" width="117" x="426" y="57.4883"/><text fill="#000000" font-family="sans-serif" font-size="14" lengthAdjust="spacing" textLength="97" x="436" y="81.0234">Workspace (1)</text><path d="M376,75.7324 L386,75.7324 C401,75.7324 401,75.7324 416,75.7324 L426,75.7324 " fill="none" style="stroke:#383838;stroke-width:1.0;"/><path d="M171,160.4648 L181,160.4648 C196,160.4648 196,75.7324 211,75.7324 L221,75.7324 " fill="none" style="stroke:#383838;stroke-width:1.0;"/><rect fill="#F8F8F8" filter="url(#f11bg2igyxy8yh)" height="36.4883" rx="12.5" ry="12.5" style="stroke:#383838;stroke-width:1.5;" width="90" x="221" y="113.9766"/><text fill="#000000" font-family="sans-serif" font-size="14" lengthAdjust="spacing" textLength="70" x="231" y="137.5117">Resources</text><rect fill="#F8F8F8" filter="url(#f11bg2igyxy8yh)" height="36.4883" rx="12.5" ry="12.5" style="stroke:#383838;stroke-width:1.5;" width="149" x="361" y="113.9766"/><text fill="#000000" font-family="sans-serif" font-size="14" lengthAdjust="spacing" textLength="129" x="371" y="137.5117">ResourceGroup (1)</text><path d="M311,132.2207 L321,132.2207 C336,132.2207 336,132.2207 351,132.2207 L361,132.2207 " fill="none" style="stroke:#383838;stroke-width:1.0;"/><path d="M171,160.4648 L181,160.4648 C196,160.4648 196,132.2207 211,132.2207 L221,132.2207 " fill="none" style="stroke:#383838;stroke-width:1.0;"/><rect fill="#F8F8F8" filter="url(#f11bg2igyxy8yh)" height="36.4883" rx="12.5" ry="12.5" style="stroke:#383838;stroke-width:1.5;" width="49" x="221" y="198.709"/><text fill="#000000" font-family="sans-serif" font-size="14" lengthAdjust="spacing" textLength="29" x="231" y="222.2441">Web</text><rect fill="#F8F8F8" filter="url(#f11bg2igyxy8yh)" height="36.4883" rx="12.5" ry="12.5" style="stroke:#383838;stroke-width:1.5;" width="139" x="320" y="170.4648"/><text fill="#000000" font-family="sans-serif" font-size="14" lengthAdjust="spacing" textLength="119" x="330" y="194">ContainerApp (1)</text><path d="M270,216.9531 L280,216.9531 C295,216.9531 295,188.709 310,188.709 L320,188.709 " fill="none" style="stroke:#383838;stroke-width:1.0;"/><rect fill="#F8F8F8" filter="url(#f11bg2igyxy8yh)" height="36.4883" rx="12.5" ry="12.5" style="stroke:#383838;stroke-width:1.5;" width="165" x="320" y="226.9531"/><text fill="#000000" font-family="sans-serif" font-size="14" lengthAdjust="spacing" textLength="145" x="330" y="250.4883">KubeEnvironment (1)</text><path d="M270,216.9531 L280,216.9531 C295,216.9531 295,245.1973 310,245.1973 L320,245.1973 " fill="none" style="stroke:#383838;stroke-width:1.0;"/><path d="M171,160.4648 L181,160.4648 C196,160.4648 196,216.9531 211,216.9531 L221,216.9531 " fill="none" style="stroke:#383838;stroke-width:1.0;"/><path d="M62,160.4648 L72,160.4648 C87,160.4648 87,160.4648 102,160.4648 L112,160.4648 " fill="none" style="stroke:#383838;stroke-width:1.0;"/><!--MD5=[115bc5caed68afcb8aa0c5d717b4a02f]
@startmindmap
title Resources for project plantuml
skinparam monochrome true
+ Infra
++ azure
+++ OperationalInsights
++++ Workspace (1)
+++ Resources
++++ ResourceGroup (1)
+++ Web
++++ ContainerApp (1)
++++ KubeEnvironment (1)
@endmindmap

PlantUML version 1.2021.8(Sat Jun 26 03:20:59 COT 2021)
(GPL source distribution)
Java Runtime: OpenJDK Runtime Environment
JVM: OpenJDK 64-Bit Server VM
Default Encoding: UTF-8
Language: en
Country: GB
--></g></svg>