<?xml version="1.0" encoding="UTF-8" standalone="no"?>
<!DOCTYPE svg PUBLIC "-//W3C//DTD SVG 1.1//EN"
 "http://www.w3.org/Graphics/SVG/1.1/DTD/svg11.dtd">
<!-- Generated by graphviz version 6.0.0 (20220910.1538)
 -->
<!-- Title: graphname Pages: 1 -->
<svg width="941pt" height="541pt"
 viewBox="0.00 0.00 941.00 541.00" xmlns="http://www.w3.org/2000/svg" xmlns:xlink="http://www.w3.org/1999/xlink">
<g id="graph0" class="graph" transform="scale(1 1) rotate(0) translate(4 537)">
<title>graphname</title>
<polygon fill="#fafafa" stroke="none" points="-4,4 -4,-537 937,-537 937,4 -4,4"/>
<text text-anchor="start" x="206.5" y="-508.4" font-family="Helvetica,sans-Serif" font-weight="bold" font-size="22.00" fill="#383838">Project apigw&#45;lambda&#45;json&#45;xml&#45;vtl&#45;transformation</text>
<text text-anchor="start" x="462.5" y="-492.8" font-family="Helvetica,sans-Serif" font-size="14.00"> &#160;</text>
<text text-anchor="start" x="206.5" y="-471.2" font-family="Helvetica,sans-Serif" font-weight="bold" font-size="16.00" fill="#707070">Target Diagram</text>
<g id="clust1" class="cluster">
<title>cluster_aws</title>
<polygon fill="#f5f5f5" stroke="#f5f5f5" points="8,-8 8,-449 925,-449 925,-8 8,-8"/>
<text text-anchor="start" x="404.5" y="-23" font-family="Helvetica,sans-Serif" font-weight="bold" font-size="20.00" fill="#707070">Provider aws</text>
</g>
<g id="clust2" class="cluster">
<title>cluster_aws_</title>
<polygon fill="#eeeeee" stroke="#eeeeee" points="16,-54 16,-441 917,-441 917,-54 16,-54"/>
<text text-anchor="start" x="466.36" y="-58.3" font-family="Helvetica,sans-Serif" font-size="1.00" fill="#383838"> </text>
</g>
<!-- RestApi::MyApi -->
<g id="node1" class="node">
<title>RestApi::MyApi</title>
<polygon fill="#e5e5e5" stroke="#dddddd" points="557,-357 369,-357 369,-299 557,-299 557,-357"/>
<text text-anchor="start" x="381" y="-337.2" font-family="Helvetica,sans-Serif" font-weight="bold" font-size="16.00" fill="#707070">APIGateway::RestApi</text>
<text text-anchor="start" x="381" y="-312.2" font-family="Helvetica,sans-Serif" font-size="16.00" fill="#383838">MyApi</text>
</g>
<!-- Stage::MyApi::Prod -->
<g id="node2" class="node">
<title>Stage::MyApi::Prod</title>
<polygon fill="#e5e5e5" stroke="#dddddd" points="264.5,-433 92.5,-433 92.5,-375 264.5,-375 264.5,-433"/>
<text text-anchor="start" x="104.5" y="-413.2" font-family="Helvetica,sans-Serif" font-weight="bold" font-size="16.00" fill="#707070">APIGateway::Stage</text>
<text text-anchor="start" x="104.5" y="-388.2" font-family="Helvetica,sans-Serif" font-size="16.00" fill="#383838">MyApi::Prod</text>
</g>
<!-- Stage::MyApi::Prod&#45;&gt;RestApi::MyApi -->
<g id="edge1" class="edge">
<title>Stage::MyApi::Prod&#45;&gt;RestApi::MyApi</title>
<path fill="none" stroke="#707070" d="M264.52,-383.66C286.85,-378.12 310.87,-371.99 333,-366 341.43,-363.72 350.16,-361.29 358.9,-358.81"/>
<polygon fill="#707070" stroke="#707070" points="360.12,-362.1 368.78,-355.99 358.2,-355.37 360.12,-362.1"/>
</g>
<!-- Stage::MyApi::Stage -->
<g id="node3" class="node">
<title>Stage::MyApi::Stage</title>
<polygon fill="#e5e5e5" stroke="#dddddd" points="264.5,-357 92.5,-357 92.5,-299 264.5,-299 264.5,-357"/>
<text text-anchor="start" x="104.5" y="-337.2" font-family="Helvetica,sans-Serif" font-weight="bold" font-size="16.00" fill="#707070">APIGateway::Stage</text>
<text text-anchor="start" x="104.5" y="-312.2" font-family="Helvetica,sans-Serif" font-size="16.00" fill="#383838">MyApi::Stage</text>
</g>
<!-- Stage::MyApi::Stage&#45;&gt;RestApi::MyApi -->
<g id="edge2" class="edge">
<title>Stage::MyApi::Stage&#45;&gt;RestApi::MyApi</title>
<path fill="none" stroke="#707070" d="M264.64,-328C294.13,-328 327.51,-328 358.31,-328"/>
<polygon fill="#707070" stroke="#707070" points="358.65,-331.5 368.65,-328 358.65,-324.5 358.65,-331.5"/>
</g>
<!-- LogGroup::MyApi&#45;Access&#45;Logs -->
<g id="node4" class="node">
<title>LogGroup::MyApi&#45;Access&#45;Logs</title>
<polygon fill="#e5e5e5" stroke="#dddddd" points="300,-281 57,-281 57,-223 300,-223 300,-281"/>
<text text-anchor="start" x="69.5" y="-261.2" font-family="Helvetica,sans-Serif" font-weight="bold" font-size="16.00" fill="#707070">CloudWatchLogs::LogGroup</text>
<text text-anchor="start" x="69.5" y="-236.2" font-family="Helvetica,sans-Serif" font-size="16.00" fill="#383838">MyApi&#45;Access&#45;Logs</text>
</g>
<!-- Role::sam&#45;app&#45;MyApiRole&#45;1RYJ13NKW98YP -->
<g id="node5" class="node">
<title>Role::sam&#45;app&#45;MyApiRole&#45;1RYJ13NKW98YP</title>
<polygon fill="#e5e5e5" stroke="#dddddd" points="333,-205 24,-205 24,-147 333,-147 333,-205"/>
<text text-anchor="start" x="36.5" y="-185.2" font-family="Helvetica,sans-Serif" font-weight="bold" font-size="16.00" fill="#707070">IAM::Role</text>
<text text-anchor="start" x="36.5" y="-160.2" font-family="Helvetica,sans-Serif" font-size="16.00" fill="#383838">sam&#45;app&#45;MyApiRole&#45;1RYJ13NKW98YP</text>
</g>
<!-- Role::sam&#45;app&#45;MyLambdaFunctionRole&#45;D038JJQN1V0Z -->
<g id="node6" class="node">
<title>Role::sam&#45;app&#45;MyLambdaFunctionRole&#45;D038JJQN1V0Z</title>
<polygon fill="#e5e5e5" stroke="#dddddd" points="909,-129 593,-129 593,-71 909,-71 909,-129"/>
<text text-anchor="start" x="605" y="-109.2" font-family="Helvetica,sans-Serif" font-weight="bold" font-size="16.00" fill="#707070">IAM::Role</text>
<text text-anchor="start" x="605" y="-84.2" font-family="Helvetica,sans-Serif" font-size="16.00" fill="#383838">sam&#45;app&#45;MyLambdaFunctionRole&#45;D03...</text>
</g>
<!-- Function::MyLambdaFunction -->
<g id="node7" class="node">
<title>Function::MyLambdaFunction</title>
<polygon fill="#e5e5e5" stroke="#dddddd" points="546.5,-129 379.5,-129 379.5,-71 546.5,-71 546.5,-129"/>
<text text-anchor="start" x="392" y="-109.2" font-family="Helvetica,sans-Serif" font-weight="bold" font-size="16.00" fill="#707070">Lambda::Function</text>
<text text-anchor="start" x="392" y="-84.2" font-family="Helvetica,sans-Serif" font-size="16.00" fill="#383838">MyLambdaFunction</text>
</g>
<!-- Function::MyLambdaFunction&#45;&gt;Role::sam&#45;app&#45;MyLambdaFunctionRole&#45;D038JJQN1V0Z -->
<g id="edge3" class="edge">
<title>Function::MyLambdaFunction&#45;&gt;Role::sam&#45;app&#45;MyLambdaFunctionRole&#45;D038JJQN1V0Z</title>
<path fill="none" stroke="#707070" d="M546.72,-100C558.13,-100 570.16,-100 582.44,-100"/>
<polygon fill="#707070" stroke="#707070" points="582.81,-103.5 592.81,-100 582.81,-96.5 582.81,-103.5"/>
</g>
<!-- Permission::MyLambdaFunction -->
<g id="node8" class="node">
<title>Permission::MyLambdaFunction</title>
<polygon fill="#e5e5e5" stroke="#dddddd" points="270,-129 87,-129 87,-71 270,-71 270,-129"/>
<text text-anchor="start" x="99.5" y="-109.2" font-family="Helvetica,sans-Serif" font-weight="bold" font-size="16.00" fill="#707070">Lambda::Permission</text>
<text text-anchor="start" x="99.5" y="-84.2" font-family="Helvetica,sans-Serif" font-size="16.00" fill="#383838">MyLambdaFunction</text>
</g>
<!-- Permission::MyLambdaFunction&#45;&gt;RestApi::MyApi -->
<g id="edge5" class="edge">
<title>Permission::MyLambdaFunction&#45;&gt;RestApi::MyApi</title>
<path fill="none" stroke="#707070" d="M270.24,-110.97C292.14,-116.61 314.53,-125.13 333,-138 387.9,-176.25 426.25,-245.99 446.16,-289.51"/>
<polygon fill="#707070" stroke="#707070" points="443.09,-291.2 450.37,-298.9 449.48,-288.35 443.09,-291.2"/>
</g>
<!-- Permission::MyLambdaFunction&#45;&gt;Function::MyLambdaFunction -->
<g id="edge4" class="edge">
<title>Permission::MyLambdaFunction&#45;&gt;Function::MyLambdaFunction</title>
<path fill="none" stroke="#707070" d="M270.05,-100C301.65,-100 337.16,-100 368.96,-100"/>
<polygon fill="#707070" stroke="#707070" points="369.14,-103.5 379.14,-100 369.14,-96.5 369.14,-103.5"/>
</g>
</g>
</svg>
