<?xml version="1.0" encoding="UTF-8" standalone="no"?>
<!DOCTYPE svg PUBLIC "-//W3C//DTD SVG 1.1//EN"
 "http://www.w3.org/Graphics/SVG/1.1/DTD/svg11.dtd">
<!-- Generated by graphviz version 3.0.0 (20220226.1711)
 -->
<!-- Title: graphname Pages: 1 -->
<svg width="921pt" height="465pt"
 viewBox="0.00 0.00 921.00 465.00" xmlns="http://www.w3.org/2000/svg" xmlns:xlink="http://www.w3.org/1999/xlink">
<g id="graph0" class="graph" transform="scale(1 1) rotate(0) translate(4 461)">
<title>graphname</title>
<polygon fill="#fafafa" stroke="transparent" points="-4,4 -4,-461 917,-461 917,4 -4,4"/>
<text text-anchor="start" x="297.5" y="-432.4" font-family="Helvetica,sans-Serif" font-weight="bold" font-size="22.00" fill="#383838">Project cloudfront&#45;distribution</text>
<text text-anchor="start" x="452.5" y="-416.8" font-family="Helvetica,sans-Serif" font-size="14.00"> &#160;</text>
<text text-anchor="start" x="297.5" y="-395.2" font-family="Helvetica,sans-Serif" font-weight="bold" font-size="16.00" fill="#707070">Live Diagram</text>
<g id="clust1" class="cluster">
<title>cluster_aws</title>
<polygon fill="#f5f5f5" stroke="#f5f5f5" points="8,-8 8,-373 905,-373 905,-8 8,-8"/>
<text text-anchor="start" x="394.5" y="-23" font-family="Helvetica,sans-Serif" font-weight="bold" font-size="20.00" fill="#707070">Provider aws</text>
</g>
<g id="clust2" class="cluster">
<title>cluster_aws_</title>
<polygon fill="#eeeeee" stroke="#eeeeee" points="16,-54 16,-365 897,-365 897,-54 16,-54"/>
<text text-anchor="start" x="456.36" y="-58.3" font-family="Helvetica,sans-Serif" font-size="1.00" fill="#383838"> </text>
</g>
<!-- Certificate::::cloudfront&#45;demo.grucloud.org -->
<g id="node1" class="node">
<title>Certificate::::cloudfront&#45;demo.grucloud.org</title>
<polygon fill="#e5e5e5" stroke="#dddddd" points="572,-261 336,-261 336,-203 572,-203 572,-261"/>
<text text-anchor="start" x="348" y="-241.2" font-family="Helvetica,sans-Serif" font-weight="bold" font-size="16.00" fill="#707070">ACM::Certificate</text>
<text text-anchor="start" x="348" y="-216.2" font-family="Helvetica,sans-Serif" font-size="16.00" fill="#383838">cloudfront&#45;demo.grucloud.org</text>
</g>
<!-- Distribution::::cloudfront&#45;demo.grucloud.org.s3.us&#45;east&#45;1.amazonaws.com -->
<g id="node2" class="node">
<title>Distribution::::cloudfront&#45;demo.grucloud.org.s3.us&#45;east&#45;1.amazonaws.com</title>
<polygon fill="#e5e5e5" stroke="#dddddd" points="300,-357 24,-357 24,-299 300,-299 300,-357"/>
<text text-anchor="start" x="36" y="-337.2" font-family="Helvetica,sans-Serif" font-weight="bold" font-size="16.00" fill="#707070">CloudFront::Distribution</text>
<text text-anchor="start" x="36" y="-312.2" font-family="Helvetica,sans-Serif" font-size="16.00" fill="#383838">cloudfront&#45;demo.grucloud.org.s3....</text>
</g>
<!-- Distribution::::cloudfront&#45;demo.grucloud.org.s3.us&#45;east&#45;1.amazonaws.com&#45;&gt;Certificate::::cloudfront&#45;demo.grucloud.org -->
<g id="edge1" class="edge">
<title>Distribution::::cloudfront&#45;demo.grucloud.org.s3.us&#45;east&#45;1.amazonaws.com&#45;&gt;Certificate::::cloudfront&#45;demo.grucloud.org</title>
<path fill="none" stroke="#707070" d="M272.55,-298.93C281.88,-296.05 291.13,-293.06 300,-290 316.38,-284.34 319.86,-281.32 336,-275 344.75,-271.57 353.89,-268.07 363.05,-264.62"/>
<polygon fill="#707070" stroke="#707070" points="364.45,-267.83 372.58,-261.04 361.99,-261.28 364.45,-267.83"/>
</g>
<!-- OriginAccessIdentity::::access&#45;identity&#45;cloudfront&#45;demo.grucloud.org.s3.us&#45;east&#45;1.amazonaws.com -->
<g id="node3" class="node">
<title>OriginAccessIdentity::::access&#45;identity&#45;cloudfront&#45;demo.grucloud.org.s3.us&#45;east&#45;1.amazonaws.com</title>
<polygon fill="#e5e5e5" stroke="#dddddd" points="889,-333 608,-333 608,-275 889,-275 889,-333"/>
<text text-anchor="start" x="620.5" y="-313.2" font-family="Helvetica,sans-Serif" font-weight="bold" font-size="16.00" fill="#707070">CloudFront::OriginAccessIdentity</text>
<text text-anchor="start" x="620.5" y="-288.2" font-family="Helvetica,sans-Serif" font-size="16.00" fill="#383838">access&#45;identity&#45;cloudfront&#45;demo....</text>
</g>
<!-- Distribution::::cloudfront&#45;demo.grucloud.org.s3.us&#45;east&#45;1.amazonaws.com&#45;&gt;OriginAccessIdentity::::access&#45;identity&#45;cloudfront&#45;demo.grucloud.org.s3.us&#45;east&#45;1.amazonaws.com -->
<g id="edge3" class="edge">
<title>Distribution::::cloudfront&#45;demo.grucloud.org.s3.us&#45;east&#45;1.amazonaws.com&#45;&gt;OriginAccessIdentity::::access&#45;identity&#45;cloudfront&#45;demo.grucloud.org.s3.us&#45;east&#45;1.amazonaws.com</title>
<path fill="none" stroke="#707070" d="M278.75,-298.97C297.77,-295.24 317.35,-292.02 336,-290 422.2,-280.64 519.11,-283.3 597.21,-288.68"/>
<polygon fill="#707070" stroke="#707070" points="597.39,-292.2 607.62,-289.42 597.89,-285.22 597.39,-292.2"/>
</g>
<!-- Bucket::::cloudfront&#45;demo.grucloud.org -->
<g id="node9" class="node">
<title>Bucket::::cloudfront&#45;demo.grucloud.org</title>
<polygon fill="#e5e5e5" stroke="#dddddd" points="572,-357 336,-357 336,-299 572,-299 572,-357"/>
<text text-anchor="start" x="348" y="-337.2" font-family="Helvetica,sans-Serif" font-weight="bold" font-size="16.00" fill="#707070">S3::Bucket</text>
<text text-anchor="start" x="348" y="-312.2" font-family="Helvetica,sans-Serif" font-size="16.00" fill="#383838">cloudfront&#45;demo.grucloud.org</text>
</g>
<!-- Distribution::::cloudfront&#45;demo.grucloud.org.s3.us&#45;east&#45;1.amazonaws.com&#45;&gt;Bucket::::cloudfront&#45;demo.grucloud.org -->
<g id="edge2" class="edge">
<title>Distribution::::cloudfront&#45;demo.grucloud.org.s3.us&#45;east&#45;1.amazonaws.com&#45;&gt;Bucket::::cloudfront&#45;demo.grucloud.org</title>
<path fill="none" stroke="#707070" d="M300.36,-328C308.79,-328 317.25,-328 325.64,-328"/>
<polygon fill="#707070" stroke="#707070" points="325.82,-331.5 335.82,-328 325.82,-324.5 325.82,-331.5"/>
</g>
<!-- HostedZone::::grucloud.org. -->
<g id="node4" class="node">
<title>HostedZone::::grucloud.org.</title>
<polygon fill="#e5e5e5" stroke="#dddddd" points="549,-185 359,-185 359,-127 549,-127 549,-185"/>
<text text-anchor="start" x="371" y="-165.2" font-family="Helvetica,sans-Serif" font-weight="bold" font-size="16.00" fill="#707070">Route53::HostedZone</text>
<text text-anchor="start" x="371" y="-140.2" font-family="Helvetica,sans-Serif" font-size="16.00" fill="#383838">grucloud.org.</text>
</g>
<!-- Domain::::grucloud.org -->
<g id="node8" class="node">
<title>Domain::::grucloud.org</title>
<polygon fill="#e5e5e5" stroke="#dddddd" points="860.5,-185 636.5,-185 636.5,-127 860.5,-127 860.5,-185"/>
<text text-anchor="start" x="648.5" y="-165.2" font-family="Helvetica,sans-Serif" font-weight="bold" font-size="16.00" fill="#707070">Route53Domains::Domain</text>
<text text-anchor="start" x="648.5" y="-140.2" font-family="Helvetica,sans-Serif" font-size="16.00" fill="#383838">grucloud.org</text>
</g>
<!-- HostedZone::::grucloud.org.&#45;&gt;Domain::::grucloud.org -->
<g id="edge4" class="edge">
<title>HostedZone::::grucloud.org.&#45;&gt;Domain::::grucloud.org</title>
<path fill="none" stroke="#707070" d="M549.16,-156C573.71,-156 600.51,-156 626.24,-156"/>
<polygon fill="#707070" stroke="#707070" points="626.43,-159.5 636.43,-156 626.43,-152.5 626.43,-159.5"/>
</g>
<!-- Record::::record::ACM::Certificate::cloudfront&#45;demo.grucloud.org -->
<g id="node5" class="node">
<title>Record::::record::ACM::Certificate::cloudfront&#45;demo.grucloud.org</title>
<polygon fill="#e5e5e5" stroke="#dddddd" points="293,-281 31,-281 31,-223 293,-223 293,-281"/>
<text text-anchor="start" x="43" y="-261.2" font-family="Helvetica,sans-Serif" font-weight="bold" font-size="16.00" fill="#707070">Route53::Record</text>
<text text-anchor="start" x="43" y="-236.2" font-family="Helvetica,sans-Serif" font-size="16.00" fill="#383838">record::ACM::Certificate::cloudf...</text>
</g>
<!-- Record::::record::ACM::Certificate::cloudfront&#45;demo.grucloud.org&#45;&gt;Certificate::::cloudfront&#45;demo.grucloud.org -->
<g id="edge6" class="edge">
<title>Record::::record::ACM::Certificate::cloudfront&#45;demo.grucloud.org&#45;&gt;Certificate::::cloudfront&#45;demo.grucloud.org</title>
<path fill="none" stroke="#707070" d="M293.15,-243.02C303.88,-242.28 314.72,-241.54 325.42,-240.8"/>
<polygon fill="#707070" stroke="#707070" points="325.91,-244.27 335.64,-240.09 325.42,-237.29 325.91,-244.27"/>
</g>
<!-- Record::::record::ACM::Certificate::cloudfront&#45;demo.grucloud.org&#45;&gt;HostedZone::::grucloud.org. -->
<g id="edge5" class="edge">
<title>Record::::record::ACM::Certificate::cloudfront&#45;demo.grucloud.org&#45;&gt;HostedZone::::grucloud.org.</title>
<path fill="none" stroke="#707070" d="M276.24,-222.89C284.35,-220.1 292.35,-217.13 300,-214 316.94,-207.06 319.22,-201.31 336,-194 340.36,-192.1 344.85,-190.25 349.41,-188.44"/>
<polygon fill="#707070" stroke="#707070" points="350.77,-191.67 358.84,-184.81 348.25,-185.13 350.77,-191.67"/>
</g>
<!-- Record::::record::grucloud.org.::NS -->
<g id="node6" class="node">
<title>Record::::record::grucloud.org.::NS</title>
<polygon fill="#e5e5e5" stroke="#dddddd" points="264.5,-205 59.5,-205 59.5,-147 264.5,-147 264.5,-205"/>
<text text-anchor="start" x="72" y="-185.2" font-family="Helvetica,sans-Serif" font-weight="bold" font-size="16.00" fill="#707070">Route53::Record</text>
<text text-anchor="start" x="72" y="-160.2" font-family="Helvetica,sans-Serif" font-size="16.00" fill="#383838">record::grucloud.org.::NS</text>
</g>
<!-- Record::::record::grucloud.org.::NS&#45;&gt;HostedZone::::grucloud.org. -->
<g id="edge7" class="edge">
<title>Record::::record::grucloud.org.::NS&#45;&gt;HostedZone::::grucloud.org.</title>
<path fill="none" stroke="#707070" d="M264.84,-168.98C291.9,-167.11 321.17,-165.09 348.37,-163.22"/>
<polygon fill="#707070" stroke="#707070" points="348.96,-166.68 358.69,-162.5 348.48,-159.7 348.96,-166.68"/>
</g>
<!-- Record::::record::grucloud.org.::SOA -->
<g id="node7" class="node">
<title>Record::::record::grucloud.org.::SOA</title>
<polygon fill="#e5e5e5" stroke="#dddddd" points="270.5,-129 53.5,-129 53.5,-71 270.5,-71 270.5,-129"/>
<text text-anchor="start" x="66" y="-109.2" font-family="Helvetica,sans-Serif" font-weight="bold" font-size="16.00" fill="#707070">Route53::Record</text>
<text text-anchor="start" x="66" y="-84.2" font-family="Helvetica,sans-Serif" font-size="16.00" fill="#383838">record::grucloud.org.::SOA</text>
</g>
<!-- Record::::record::grucloud.org.::SOA&#45;&gt;HostedZone::::grucloud.org. -->
<g id="edge8" class="edge">
<title>Record::::record::grucloud.org.::SOA&#45;&gt;HostedZone::::grucloud.org.</title>
<path fill="none" stroke="#707070" d="M270.57,-120.77C296.19,-125.72 323.48,-130.99 348.93,-135.9"/>
<polygon fill="#707070" stroke="#707070" points="348.48,-139.38 358.96,-137.84 349.81,-132.51 348.48,-139.38"/>
</g>
<!-- Bucket::::cloudfront&#45;demo.grucloud.org&#45;&gt;OriginAccessIdentity::::access&#45;identity&#45;cloudfront&#45;demo.grucloud.org.s3.us&#45;east&#45;1.amazonaws.com -->
<g id="edge9" class="edge">
<title>Bucket::::cloudfront&#45;demo.grucloud.org&#45;&gt;OriginAccessIdentity::::access&#45;identity&#45;cloudfront&#45;demo.grucloud.org.s3.us&#45;east&#45;1.amazonaws.com</title>
<path fill="none" stroke="#707070" d="M572.29,-318.38C580.53,-317.7 588.91,-317.01 597.3,-316.32"/>
<polygon fill="#707070" stroke="#707070" points="597.86,-319.79 607.54,-315.48 597.29,-312.81 597.86,-319.79"/>
</g>
</g>
</svg>
