<?xml version="1.0" encoding="UTF-8" standalone="no"?><svg xmlns="http://www.w3.org/2000/svg" xmlns:xlink="http://www.w3.org/1999/xlink" contentStyleType="text/css" height="341px" preserveAspectRatio="none" style="width:520px;height:341px;background:#FFFFFF;" version="1.1" viewBox="0 0 520 341" width="520px" zoomAndPan="magnify"><defs/><g><rect height="26.4883" style="stroke:#00000000;stroke-width:1.0;fill:none;" width="374" x="46.5" y="15"/><text fill="#000000" font-family="sans-serif" font-size="14" font-weight="bold" lengthAdjust="spacing" textLength="364" x="51.5" y="33.5352">Resources for project delayed-eventbridge-events</text><rect fill="#F1F1F1" height="36.4883" rx="12.5" ry="12.5" style="stroke:#181818;stroke-width:1.5;" width="52" x="10" y="170.4648"/><text fill="#000000" font-family="sans-serif" font-size="14" lengthAdjust="spacing" textLength="32" x="20" y="194">Infra</text><rect fill="#F1F1F1" height="36.4883" rx="12.5" ry="12.5" style="stroke:#181818;stroke-width:1.5;" width="46" x="112" y="170.4648"/><text fill="#000000" font-family="sans-serif" font-size="14" lengthAdjust="spacing" textLength="26" x="122" y="194">aws</text><rect fill="#F1F1F1" height="36.4883" rx="12.5" ry="12.5" style="stroke:#181818;stroke-width:1.5;" width="146" x="208" y="113.9766"/><text fill="#000000" font-family="sans-serif" font-size="14" lengthAdjust="spacing" textLength="126" x="218" y="137.5117">CloudWatchEvents</text><rect fill="#F1F1F1" height="36.4883" rx="12.5" ry="12.5" style="stroke:#181818;stroke-width:1.5;" width="104" x="404" y="57.4883"/><text fill="#000000" font-family="sans-serif" font-size="14" lengthAdjust="spacing" textLength="84" x="414" y="81.0234">EventBus (1)</text><path d="M354,132.2207 L364,132.2207 C379,132.2207 379,75.7324 394,75.7324 L404,75.7324 " fill="none" style="stroke:#181818;stroke-width:1.0;"/><rect fill="#F1F1F1" height="36.4883" rx="12.5" ry="12.5" style="stroke:#181818;stroke-width:1.5;" width="73" x="404" y="113.9766"/><text fill="#000000" font-family="sans-serif" font-size="14" lengthAdjust="spacing" textLength="53" x="414" y="137.5117">Rule (2)</text><path d="M354,132.2207 L364,132.2207 C379,132.2207 379,132.2207 394,132.2207 L404,132.2207 " fill="none" style="stroke:#181818;stroke-width:1.0;"/><rect fill="#F1F1F1" height="36.4883" rx="12.5" ry="12.5" style="stroke:#181818;stroke-width:1.5;" width="88" x="404" y="170.4648"/><text fill="#000000" font-family="sans-serif" font-size="14" lengthAdjust="spacing" textLength="68" x="414" y="194">Target (1)</text><path d="M354,132.2207 L364,132.2207 C379,132.2207 379,188.709 394,188.709 L404,188.709 " fill="none" style="stroke:#181818;stroke-width:1.0;"/><path d="M158,188.709 L168,188.709 C183,188.709 183,132.2207 198,132.2207 L208,132.2207 " fill="none" style="stroke:#181818;stroke-width:1.0;"/><rect fill="#F1F1F1" height="36.4883" rx="12.5" ry="12.5" style="stroke:#181818;stroke-width:1.5;" width="46" x="208" y="226.9531"/><text fill="#000000" font-family="sans-serif" font-size="14" lengthAdjust="spacing" textLength="26" x="218" y="250.4883">IAM</text><rect fill="#F1F1F1" height="36.4883" rx="12.5" ry="12.5" style="stroke:#181818;stroke-width:1.5;" width="73" x="304" y="226.9531"/><text fill="#000000" font-family="sans-serif" font-size="14" lengthAdjust="spacing" textLength="53" x="314" y="250.4883">Role (3)</text><path d="M254,245.1973 L264,245.1973 C279,245.1973 279,245.1973 294,245.1973 L304,245.1973 " fill="none" style="stroke:#181818;stroke-width:1.0;"/><path d="M158,188.709 L168,188.709 C183,188.709 183,245.1973 198,245.1973 L208,245.1973 " fill="none" style="stroke:#181818;stroke-width:1.0;"/><rect fill="#F1F1F1" height="36.4883" rx="12.5" ry="12.5" style="stroke:#181818;stroke-width:1.5;" width="74" x="208" y="283.4414"/><text fill="#000000" font-family="sans-serif" font-size="14" lengthAdjust="spacing" textLength="54" x="218" y="306.9766">Lambda</text><rect fill="#F1F1F1" height="36.4883" rx="12.5" ry="12.5" style="stroke:#181818;stroke-width:1.5;" width="103" x="332" y="283.4414"/><text fill="#000000" font-family="sans-serif" font-size="14" lengthAdjust="spacing" textLength="83" x="342" y="306.9766">Function (2)</text><path d="M282,301.6855 L292,301.6855 C307,301.6855 307,301.6855 322,301.6855 L332,301.6855 " fill="none" style="stroke:#181818;stroke-width:1.0;"/><path d="M158,188.709 L168,188.709 C183,188.709 183,301.6855 198,301.6855 L208,301.6855 " fill="none" style="stroke:#181818;stroke-width:1.0;"/><path d="M62,188.709 L72,188.709 C87,188.709 87,188.709 102,188.709 L112,188.709 " fill="none" style="stroke:#181818;stroke-width:1.0;"/><!--MD5=[4d84eb4eaf493154d15ce0e89d200e42]
@startmindmap
title Resources for project delayed-eventbridge-events
skinparam monochrome true
+ Infra
++ aws
+++ CloudWatchEvents
++++ EventBus (1)
++++ Rule (2)
++++ Target (1)
+++ IAM
++++ Role (3)
+++ Lambda
++++ Function (2)
@endmindmap

PlantUML version 1.2022.6(Tue Jun 21 12:34:49 COT 2022)
(GPL source distribution)
Java Runtime: Java(TM) SE Runtime Environment
JVM: Java HotSpot(TM) 64-Bit Server VM
Default Encoding: UTF-8
Language: en
Country: GB
--></g></svg>