<?xml version="1.0" encoding="UTF-8" standalone="no"?>
<!DOCTYPE svg PUBLIC "-//W3C//DTD SVG 1.1//EN"
 "http://www.w3.org/Graphics/SVG/1.1/DTD/svg11.dtd">
<!-- Generated by graphviz version 7.1.0 (20230121.1956)
 -->
<!-- Title: graphname Pages: 1 -->
<svg width="1385pt" height="465pt"
 viewBox="0.00 0.00 1385.00 465.00" xmlns="http://www.w3.org/2000/svg" xmlns:xlink="http://www.w3.org/1999/xlink">
<g id="graph0" class="graph" transform="scale(1 1) rotate(0) translate(4 461)">
<title>graphname</title>
<polygon fill="#fafafa" stroke="none" points="-4,4 -4,-461 1381,-461 1381,4 -4,4"/>
<text text-anchor="start" x="489.5" y="-432.4" font-family="Helvetica,sans-Serif" font-weight="bold" font-size="22.00" fill="#383838">Project apigw&#45;websocket&#45;api&#45;sfn&#45;sync</text>
<text text-anchor="start" x="685" y="-416.8" font-family="Helvetica,sans-Serif" font-size="14.00"> &#160;</text>
<text text-anchor="start" x="489.5" y="-395.2" font-family="Helvetica,sans-Serif" font-weight="bold" font-size="16.00" fill="#707070">Target Diagram</text>
<g id="clust1" class="cluster">
<title>cluster_aws</title>
<polygon fill="#f5f5f5" stroke="#f5f5f5" points="8,-8 8,-373 1369,-373 1369,-8 8,-8"/>
<text text-anchor="start" x="626.5" y="-23" font-family="Helvetica,sans-Serif" font-weight="bold" font-size="20.00" fill="#707070">Provider aws</text>
</g>
<g id="clust2" class="cluster">
<title>cluster_aws_</title>
<polygon fill="#eeeeee" stroke="#eeeeee" points="16,-54 16,-365 1361,-365 1361,-54 16,-54"/>
<text text-anchor="start" x="688.36" y="-58.3" font-family="Helvetica,sans-Serif" font-size="1.00" fill="#383838"> </text>
</g>
<!-- Api::sam&#45;app&#45;WebSocketApi -->
<g id="node1" class="node">
<title>Api::sam&#45;app&#45;WebSocketApi</title>
<polygon fill="#e5e5e5" stroke="#dddddd" points="1303,-309 1104,-309 1104,-251 1303,-251 1303,-309"/>
<text text-anchor="start" x="1116.5" y="-289.2" font-family="Helvetica,sans-Serif" font-weight="bold" font-size="16.00" fill="#707070">ApiGatewayV2::Api</text>
<text text-anchor="start" x="1116.5" y="-264.2" font-family="Helvetica,sans-Serif" font-size="16.00" fill="#383838">sam&#45;app&#45;WebSocketApi</text>
</g>
<!-- Deployment::deployment::sam&#45;app&#45;WebSocketApi -->
<g id="node2" class="node">
<title>Deployment::deployment::sam&#45;app&#45;WebSocketApi</title>
<polygon fill="#e5e5e5" stroke="#dddddd" points="674,-357 369,-357 369,-299 674,-299 674,-357"/>
<text text-anchor="start" x="381.5" y="-337.2" font-family="Helvetica,sans-Serif" font-weight="bold" font-size="16.00" fill="#707070">ApiGatewayV2::Deployment</text>
<text text-anchor="start" x="381.5" y="-312.2" font-family="Helvetica,sans-Serif" font-size="16.00" fill="#383838">deployment::sam&#45;app&#45;WebSocketApi...</text>
</g>
<!-- Deployment::deployment::sam&#45;app&#45;WebSocketApi&#45;&gt;Api::sam&#45;app&#45;WebSocketApi -->
<g id="edge1" class="edge">
<title>Deployment::deployment::sam&#45;app&#45;WebSocketApi&#45;&gt;Api::sam&#45;app&#45;WebSocketApi</title>
<path fill="none" stroke="#707070" d="M663.14,-298.53C683.8,-295.1 704.9,-292.08 725,-290 850.55,-276.99 995.62,-275.92 1092.61,-277.19"/>
<polygon fill="#707070" stroke="#707070" points="1092.34,-280.68 1102.38,-277.33 1092.44,-273.68 1092.34,-280.68"/>
</g>
<!-- Stage::sam&#45;app&#45;WebSocketApi::api -->
<g id="node7" class="node">
<title>Stage::sam&#45;app&#45;WebSocketApi::api</title>
<polygon fill="#e5e5e5" stroke="#dddddd" points="986,-357 757,-357 757,-299 986,-299 986,-357"/>
<text text-anchor="start" x="769.5" y="-337.2" font-family="Helvetica,sans-Serif" font-weight="bold" font-size="16.00" fill="#707070">ApiGatewayV2::Stage</text>
<text text-anchor="start" x="769.5" y="-312.2" font-family="Helvetica,sans-Serif" font-size="16.00" fill="#383838">sam&#45;app&#45;WebSocketApi::api</text>
</g>
<!-- Deployment::deployment::sam&#45;app&#45;WebSocketApi&#45;&gt;Stage::sam&#45;app&#45;WebSocketApi::api -->
<g id="edge2" class="edge">
<title>Deployment::deployment::sam&#45;app&#45;WebSocketApi&#45;&gt;Stage::sam&#45;app&#45;WebSocketApi::api</title>
<path fill="none" stroke="#707070" d="M674.38,-328C698.13,-328 722.44,-328 745.5,-328"/>
<polygon fill="#707070" stroke="#707070" points="745.2,-331.5 755.2,-328 745.2,-324.5 745.2,-331.5"/>
</g>
<!-- Integration::integration::sam&#45;app&#45;WebSocketApi::arn:aws:apigateway:us&#45;east&#45;1:states:action/StartSyncExecution -->
<g id="node3" class="node">
<title>Integration::integration::sam&#45;app&#45;WebSocketApi::arn:aws:apigateway:us&#45;east&#45;1:states:action/StartSyncExecution</title>
<polygon fill="#e5e5e5" stroke="#dddddd" points="1018,-233 725,-233 725,-175 1018,-175 1018,-233"/>
<text text-anchor="start" x="737.5" y="-213.2" font-family="Helvetica,sans-Serif" font-weight="bold" font-size="16.00" fill="#707070">ApiGatewayV2::Integration</text>
<text text-anchor="start" x="737.5" y="-188.2" font-family="Helvetica,sans-Serif" font-size="16.00" fill="#383838">integration::sam&#45;app&#45;WebSocketAp...</text>
</g>
<!-- Integration::integration::sam&#45;app&#45;WebSocketApi::arn:aws:apigateway:us&#45;east&#45;1:states:action/StartSyncExecution&#45;&gt;Api::sam&#45;app&#45;WebSocketApi -->
<g id="edge3" class="edge">
<title>Integration::integration::sam&#45;app&#45;WebSocketApi::arn:aws:apigateway:us&#45;east&#45;1:states:action/StartSyncExecution&#45;&gt;Api::sam&#45;app&#45;WebSocketApi</title>
<path fill="none" stroke="#707070" d="M1000.56,-233.49C1030.92,-240.49 1063.04,-247.88 1092.52,-254.67"/>
<polygon fill="#707070" stroke="#707070" points="1091.67,-258.07 1102.2,-256.9 1093.24,-251.25 1091.67,-258.07"/>
</g>
<!-- Role::sam&#45;app&#45;StepFunctionsSyncExecutionRole&#45;196375L2OVLO7 -->
<g id="node8" class="node">
<title>Role::sam&#45;app&#45;StepFunctionsSyncExecutionRole&#45;196375L2OVLO7</title>
<polygon fill="#e5e5e5" stroke="#dddddd" points="1353,-233 1054,-233 1054,-175 1353,-175 1353,-233"/>
<text text-anchor="start" x="1066.5" y="-213.2" font-family="Helvetica,sans-Serif" font-weight="bold" font-size="16.00" fill="#707070">IAM::Role</text>
<text text-anchor="start" x="1066.5" y="-188.2" font-family="Helvetica,sans-Serif" font-size="16.00" fill="#383838">sam&#45;app&#45;StepFunctionsSyncExecuti...</text>
</g>
<!-- Integration::integration::sam&#45;app&#45;WebSocketApi::arn:aws:apigateway:us&#45;east&#45;1:states:action/StartSyncExecution&#45;&gt;Role::sam&#45;app&#45;StepFunctionsSyncExecutionRole&#45;196375L2OVLO7 -->
<g id="edge4" class="edge">
<title>Integration::integration::sam&#45;app&#45;WebSocketApi::arn:aws:apigateway:us&#45;east&#45;1:states:action/StartSyncExecution&#45;&gt;Role::sam&#45;app&#45;StepFunctionsSyncExecutionRole&#45;196375L2OVLO7</title>
<path fill="none" stroke="#707070" d="M1018.2,-204C1026.18,-204 1034.22,-204 1042.25,-204"/>
<polygon fill="#707070" stroke="#707070" points="1042.07,-207.5 1052.07,-204 1042.07,-200.5 1042.07,-207.5"/>
</g>
<!-- IntegrationResponse::integration::sam&#45;app&#45;WebSocketApi::arn:aws:apigateway:us&#45;east&#45;1:states:action/StartSyncExecution::$default -->
<g id="node4" class="node">
<title>IntegrationResponse::integration::sam&#45;app&#45;WebSocketApi::arn:aws:apigateway:us&#45;east&#45;1:states:action/StartSyncExecution::$default</title>
<polygon fill="#e5e5e5" stroke="#dddddd" points="674.5,-205 368.5,-205 368.5,-147 674.5,-147 674.5,-205"/>
<text text-anchor="start" x="380.5" y="-185.2" font-family="Helvetica,sans-Serif" font-weight="bold" font-size="16.00" fill="#707070">ApiGatewayV2::IntegrationResponse</text>
<text text-anchor="start" x="380.5" y="-160.2" font-family="Helvetica,sans-Serif" font-size="16.00" fill="#383838">integration::sam&#45;app&#45;WebSocketAp...</text>
</g>
<!-- IntegrationResponse::integration::sam&#45;app&#45;WebSocketApi::arn:aws:apigateway:us&#45;east&#45;1:states:action/StartSyncExecution::$default&#45;&gt;Integration::integration::sam&#45;app&#45;WebSocketApi::arn:aws:apigateway:us&#45;east&#45;1:states:action/StartSyncExecution -->
<g id="edge5" class="edge">
<title>IntegrationResponse::integration::sam&#45;app&#45;WebSocketApi::arn:aws:apigateway:us&#45;east&#45;1:states:action/StartSyncExecution::$default&#45;&gt;Integration::integration::sam&#45;app&#45;WebSocketApi::arn:aws:apigateway:us&#45;east&#45;1:states:action/StartSyncExecution</title>
<path fill="none" stroke="#707070" d="M674.88,-188.26C687.68,-189.29 700.63,-190.33 713.45,-191.36"/>
<polygon fill="#707070" stroke="#707070" points="712.93,-194.83 723.18,-192.15 713.49,-187.86 712.93,-194.83"/>
</g>
<!-- Route::route::sam&#45;app&#45;WebSocketApi::$default -->
<g id="node5" class="node">
<title>Route::route::sam&#45;app&#45;WebSocketApi::$default</title>
<polygon fill="#e5e5e5" stroke="#dddddd" points="668.5,-281 374.5,-281 374.5,-223 668.5,-223 668.5,-281"/>
<text text-anchor="start" x="386.5" y="-261.2" font-family="Helvetica,sans-Serif" font-weight="bold" font-size="16.00" fill="#707070">ApiGatewayV2::Route</text>
<text text-anchor="start" x="386.5" y="-236.2" font-family="Helvetica,sans-Serif" font-size="16.00" fill="#383838">route::sam&#45;app&#45;WebSocketApi::$de...</text>
</g>
<!-- Route::route::sam&#45;app&#45;WebSocketApi::$default&#45;&gt;Api::sam&#45;app&#45;WebSocketApi -->
<g id="edge6" class="edge">
<title>Route::route::sam&#45;app&#45;WebSocketApi::$default&#45;&gt;Api::sam&#45;app&#45;WebSocketApi</title>
<path fill="none" stroke="#707070" d="M668.79,-258.02C795.91,-263.26 977.24,-270.72 1092.39,-275.47"/>
<polygon fill="#707070" stroke="#707070" points="1092.02,-278.95 1102.15,-275.87 1092.31,-271.96 1092.02,-278.95"/>
</g>
<!-- Route::route::sam&#45;app&#45;WebSocketApi::$default&#45;&gt;Integration::integration::sam&#45;app&#45;WebSocketApi::arn:aws:apigateway:us&#45;east&#45;1:states:action/StartSyncExecution -->
<g id="edge7" class="edge">
<title>Route::route::sam&#45;app&#45;WebSocketApi::$default&#45;&gt;Integration::integration::sam&#45;app&#45;WebSocketApi::arn:aws:apigateway:us&#45;east&#45;1:states:action/StartSyncExecution</title>
<path fill="none" stroke="#707070" d="M668.82,-231.82C683.56,-229.78 698.57,-227.71 713.42,-225.67"/>
<polygon fill="#707070" stroke="#707070" points="713.8,-229.15 723.23,-224.31 712.84,-222.21 713.8,-229.15"/>
</g>
<!-- RouteResponse::route::sam&#45;app&#45;WebSocketApi::$default::$default -->
<g id="node6" class="node">
<title>RouteResponse::route::sam&#45;app&#45;WebSocketApi::$default::$default</title>
<polygon fill="#e5e5e5" stroke="#dddddd" points="318,-281 24,-281 24,-223 318,-223 318,-281"/>
<text text-anchor="start" x="36" y="-261.2" font-family="Helvetica,sans-Serif" font-weight="bold" font-size="16.00" fill="#707070">ApiGatewayV2::RouteResponse</text>
<text text-anchor="start" x="36" y="-236.2" font-family="Helvetica,sans-Serif" font-size="16.00" fill="#383838">route::sam&#45;app&#45;WebSocketApi::$de...</text>
</g>
<!-- RouteResponse::route::sam&#45;app&#45;WebSocketApi::$default::$default&#45;&gt;Route::route::sam&#45;app&#45;WebSocketApi::$default -->
<g id="edge8" class="edge">
<title>RouteResponse::route::sam&#45;app&#45;WebSocketApi::$default::$default&#45;&gt;Route::route::sam&#45;app&#45;WebSocketApi::$default</title>
<path fill="none" stroke="#707070" d="M318.28,-252C332.98,-252 347.94,-252 362.75,-252"/>
<polygon fill="#707070" stroke="#707070" points="362.52,-255.5 372.52,-252 362.52,-248.5 362.52,-255.5"/>
</g>
<!-- Stage::sam&#45;app&#45;WebSocketApi::api&#45;&gt;Api::sam&#45;app&#45;WebSocketApi -->
<g id="edge9" class="edge">
<title>Stage::sam&#45;app&#45;WebSocketApi::api&#45;&gt;Api::sam&#45;app&#45;WebSocketApi</title>
<path fill="none" stroke="#707070" d="M986.07,-311.48C1020.56,-306.46 1058.37,-300.96 1092.61,-295.98"/>
<polygon fill="#707070" stroke="#707070" points="1092.71,-299.51 1102.1,-294.6 1091.7,-292.58 1092.71,-299.51"/>
</g>
<!-- Role::sam&#45;app&#45;SyncSFnRole&#45;1QD6CF0EHAZNE -->
<g id="node9" class="node">
<title>Role::sam&#45;app&#45;SyncSFnRole&#45;1QD6CF0EHAZNE</title>
<polygon fill="#e5e5e5" stroke="#dddddd" points="689,-129 354,-129 354,-71 689,-71 689,-129"/>
<text text-anchor="start" x="366.5" y="-109.2" font-family="Helvetica,sans-Serif" font-weight="bold" font-size="16.00" fill="#707070">IAM::Role</text>
<text text-anchor="start" x="366.5" y="-84.2" font-family="Helvetica,sans-Serif" font-size="16.00" fill="#383838">sam&#45;app&#45;SyncSFnRole&#45;1QD6CF0EHAZN...</text>
</g>
<!-- StateMachine::SyncSFn&#45;pN3JqWwqQJ60 -->
<g id="node10" class="node">
<title>StateMachine::SyncSFn&#45;pN3JqWwqQJ60</title>
<polygon fill="#e5e5e5" stroke="#dddddd" points="296,-129 46,-129 46,-71 296,-71 296,-129"/>
<text text-anchor="start" x="58" y="-109.2" font-family="Helvetica,sans-Serif" font-weight="bold" font-size="16.00" fill="#707070">StepFunctions::StateMachine</text>
<text text-anchor="start" x="58" y="-84.2" font-family="Helvetica,sans-Serif" font-size="16.00" fill="#383838">SyncSFn&#45;pN3JqWwqQJ60</text>
</g>
<!-- StateMachine::SyncSFn&#45;pN3JqWwqQJ60&#45;&gt;Role::sam&#45;app&#45;SyncSFnRole&#45;1QD6CF0EHAZNE -->
<g id="edge10" class="edge">
<title>StateMachine::SyncSFn&#45;pN3JqWwqQJ60&#45;&gt;Role::sam&#45;app&#45;SyncSFnRole&#45;1QD6CF0EHAZNE</title>
<path fill="none" stroke="#707070" d="M296.34,-100C311.28,-100 326.76,-100 342.28,-100"/>
<polygon fill="#707070" stroke="#707070" points="342.07,-103.5 352.07,-100 342.07,-96.5 342.07,-103.5"/>
</g>
</g>
</svg>
