<?xml version="1.0" encoding="UTF-8" standalone="no"?>
<!DOCTYPE svg PUBLIC "-//W3C//DTD SVG 1.1//EN"
 "http://www.w3.org/Graphics/SVG/1.1/DTD/svg11.dtd">
<!-- Generated by graphviz version 6.0.0 (20220910.1538)
 -->
<!-- Title: graphname Pages: 1 -->
<svg width="1066pt" height="429pt"
 viewBox="0.00 0.00 1066.00 429.00" xmlns="http://www.w3.org/2000/svg" xmlns:xlink="http://www.w3.org/1999/xlink">
<g id="graph0" class="graph" transform="scale(1 1) rotate(0) translate(4 425)">
<title>graphname</title>
<polygon fill="#fafafa" stroke="none" points="-4,4 -4,-425 1062,-425 1062,4 -4,4"/>
<text text-anchor="start" x="330" y="-396.4" font-family="Helvetica,sans-Serif" font-weight="bold" font-size="22.00" fill="#383838">Project apigw&#45;websocket&#45;api&#45;sfn&#45;sync</text>
<text text-anchor="start" x="525.5" y="-380.8" font-family="Helvetica,sans-Serif" font-size="14.00"> &#160;</text>
<text text-anchor="start" x="330" y="-359.2" font-family="Helvetica,sans-Serif" font-weight="bold" font-size="16.00" fill="#707070">Target Diagram</text>
<g id="clust1" class="cluster">
<title>cluster_aws</title>
<polygon fill="#f5f5f5" stroke="#f5f5f5" points="8,-8 8,-337 1050,-337 1050,-8 8,-8"/>
<text text-anchor="start" x="467" y="-23" font-family="Helvetica,sans-Serif" font-weight="bold" font-size="20.00" fill="#707070">Provider aws</text>
</g>
<g id="clust2" class="cluster">
<title>cluster_aws_</title>
<polygon fill="#eeeeee" stroke="#eeeeee" points="16,-54 16,-329 1042,-329 1042,-54 16,-54"/>
<text text-anchor="start" x="528.86" y="-58.3" font-family="Helvetica,sans-Serif" font-size="1.00" fill="#383838"> </text>
</g>
<!-- Api::sam&#45;app&#45;WebSocketApi -->
<g id="node1" class="node">
<title>Api::sam&#45;app&#45;WebSocketApi</title>
<polygon fill="#e5e5e5" stroke="#dddddd" points="984,-291 785,-291 785,-233 984,-233 984,-291"/>
<text text-anchor="start" x="797.5" y="-271.2" font-family="Helvetica,sans-Serif" font-weight="bold" font-size="16.00" fill="#707070">ApiGatewayV2::Api</text>
<text text-anchor="start" x="797.5" y="-246.2" font-family="Helvetica,sans-Serif" font-size="16.00" fill="#383838">sam&#45;app&#45;WebSocketApi</text>
</g>
<!-- Deployment::deployment::sam&#45;app&#45;WebSocketApi -->
<g id="node2" class="node">
<title>Deployment::deployment::sam&#45;app&#45;WebSocketApi</title>
<polygon fill="#e5e5e5" stroke="#dddddd" points="329,-311 24,-311 24,-253 329,-253 329,-311"/>
<text text-anchor="start" x="36.5" y="-291.2" font-family="Helvetica,sans-Serif" font-weight="bold" font-size="16.00" fill="#707070">ApiGatewayV2::Deployment</text>
<text text-anchor="start" x="36.5" y="-266.2" font-family="Helvetica,sans-Serif" font-size="16.00" fill="#383838">deployment::sam&#45;app&#45;WebSocketApi...</text>
</g>
<!-- Deployment::deployment::sam&#45;app&#45;WebSocketApi&#45;&gt;Api::sam&#45;app&#45;WebSocketApi -->
<g id="edge1" class="edge">
<title>Deployment::deployment::sam&#45;app&#45;WebSocketApi&#45;&gt;Api::sam&#45;app&#45;WebSocketApi</title>
<path fill="none" stroke="#707070" d="M329.25,-306.61C341.32,-307.97 353.35,-309.13 365,-310 513.04,-320.99 551.76,-328.84 699,-310 725.78,-306.57 754.23,-300.46 780.56,-293.71"/>
<polygon fill="#707070" stroke="#707070" points="781.76,-297.02 790.54,-291.1 779.98,-290.25 781.76,-297.02"/>
</g>
<!-- Stage::sam&#45;app&#45;WebSocketApi::api -->
<g id="node5" class="node">
<title>Stage::sam&#45;app&#45;WebSocketApi::api</title>
<polygon fill="#e5e5e5" stroke="#dddddd" points="646.5,-301 417.5,-301 417.5,-243 646.5,-243 646.5,-301"/>
<text text-anchor="start" x="430" y="-281.2" font-family="Helvetica,sans-Serif" font-weight="bold" font-size="16.00" fill="#707070">ApiGatewayV2::Stage</text>
<text text-anchor="start" x="430" y="-256.2" font-family="Helvetica,sans-Serif" font-size="16.00" fill="#383838">sam&#45;app&#45;WebSocketApi::api</text>
</g>
<!-- Deployment::deployment::sam&#45;app&#45;WebSocketApi&#45;&gt;Stage::sam&#45;app&#45;WebSocketApi::api -->
<g id="edge2" class="edge">
<title>Deployment::deployment::sam&#45;app&#45;WebSocketApi&#45;&gt;Stage::sam&#45;app&#45;WebSocketApi::api</title>
<path fill="none" stroke="#707070" d="M329.21,-277.71C355.22,-276.97 381.96,-276.22 407.13,-275.5"/>
<polygon fill="#707070" stroke="#707070" points="407.54,-278.99 417.43,-275.21 407.34,-272 407.54,-278.99"/>
</g>
<!-- Integration::integration::sam&#45;app&#45;WebSocketApi::arn:aws:apigateway:us&#45;east&#45;1:states:action/StartSyncExecution -->
<g id="node3" class="node">
<title>Integration::integration::sam&#45;app&#45;WebSocketApi::arn:aws:apigateway:us&#45;east&#45;1:states:action/StartSyncExecution</title>
<polygon fill="#e5e5e5" stroke="#dddddd" points="678.5,-205 385.5,-205 385.5,-147 678.5,-147 678.5,-205"/>
<text text-anchor="start" x="398" y="-185.2" font-family="Helvetica,sans-Serif" font-weight="bold" font-size="16.00" fill="#707070">ApiGatewayV2::Integration</text>
<text text-anchor="start" x="398" y="-160.2" font-family="Helvetica,sans-Serif" font-size="16.00" fill="#383838">integration::sam&#45;app&#45;WebSocketAp...</text>
</g>
<!-- Integration::integration::sam&#45;app&#45;WebSocketApi::arn:aws:apigateway:us&#45;east&#45;1:states:action/StartSyncExecution&#45;&gt;Api::sam&#45;app&#45;WebSocketApi -->
<g id="edge3" class="edge">
<title>Integration::integration::sam&#45;app&#45;WebSocketApi::arn:aws:apigateway:us&#45;east&#45;1:states:action/StartSyncExecution&#45;&gt;Api::sam&#45;app&#45;WebSocketApi</title>
<path fill="none" stroke="#707070" d="M651.66,-205.12C691.58,-214.91 735.87,-225.78 774.97,-235.37"/>
<polygon fill="#707070" stroke="#707070" points="774.24,-238.8 784.79,-237.78 775.91,-232 774.24,-238.8"/>
</g>
<!-- Role::sam&#45;app&#45;StepFunctionsSyncExecutionRole&#45;ZX33IQBOJ97A -->
<g id="node6" class="node">
<title>Role::sam&#45;app&#45;StepFunctionsSyncExecutionRole&#45;ZX33IQBOJ97A</title>
<polygon fill="#e5e5e5" stroke="#dddddd" points="1034,-205 735,-205 735,-147 1034,-147 1034,-205"/>
<text text-anchor="start" x="747.5" y="-185.2" font-family="Helvetica,sans-Serif" font-weight="bold" font-size="16.00" fill="#707070">IAM::Role</text>
<text text-anchor="start" x="747.5" y="-160.2" font-family="Helvetica,sans-Serif" font-size="16.00" fill="#383838">sam&#45;app&#45;StepFunctionsSyncExecuti...</text>
</g>
<!-- Integration::integration::sam&#45;app&#45;WebSocketApi::arn:aws:apigateway:us&#45;east&#45;1:states:action/StartSyncExecution&#45;&gt;Role::sam&#45;app&#45;StepFunctionsSyncExecutionRole&#45;ZX33IQBOJ97A -->
<g id="edge4" class="edge">
<title>Integration::integration::sam&#45;app&#45;WebSocketApi::arn:aws:apigateway:us&#45;east&#45;1:states:action/StartSyncExecution&#45;&gt;Role::sam&#45;app&#45;StepFunctionsSyncExecutionRole&#45;ZX33IQBOJ97A</title>
<path fill="none" stroke="#707070" d="M678.6,-176C693.87,-176 709.46,-176 724.87,-176"/>
<polygon fill="#707070" stroke="#707070" points="724.97,-179.5 734.97,-176 724.97,-172.5 724.97,-179.5"/>
</g>
<!-- Route::route::sam&#45;app&#45;WebSocketApi::$default -->
<g id="node4" class="node">
<title>Route::route::sam&#45;app&#45;WebSocketApi::$default</title>
<polygon fill="#e5e5e5" stroke="#dddddd" points="323.5,-220 29.5,-220 29.5,-162 323.5,-162 323.5,-220"/>
<text text-anchor="start" x="41.5" y="-200.2" font-family="Helvetica,sans-Serif" font-weight="bold" font-size="16.00" fill="#707070">ApiGatewayV2::Route</text>
<text text-anchor="start" x="41.5" y="-175.2" font-family="Helvetica,sans-Serif" font-size="16.00" fill="#383838">route::sam&#45;app&#45;WebSocketApi::$de...</text>
</g>
<!-- Route::route::sam&#45;app&#45;WebSocketApi::$default&#45;&gt;Api::sam&#45;app&#45;WebSocketApi -->
<g id="edge5" class="edge">
<title>Route::route::sam&#45;app&#45;WebSocketApi::$default&#45;&gt;Api::sam&#45;app&#45;WebSocketApi</title>
<path fill="none" stroke="#707070" d="M323.52,-209.81C337.53,-211.34 351.53,-212.77 365,-214 513.1,-227.5 551.11,-218.38 699,-234 723.49,-236.59 749.71,-240.11 774.47,-243.78"/>
<polygon fill="#707070" stroke="#707070" points="774.2,-247.28 784.61,-245.3 775.24,-240.35 774.2,-247.28"/>
</g>
<!-- Route::route::sam&#45;app&#45;WebSocketApi::$default&#45;&gt;Integration::integration::sam&#45;app&#45;WebSocketApi::arn:aws:apigateway:us&#45;east&#45;1:states:action/StartSyncExecution -->
<g id="edge6" class="edge">
<title>Route::route::sam&#45;app&#45;WebSocketApi::$default&#45;&gt;Integration::integration::sam&#45;app&#45;WebSocketApi::arn:aws:apigateway:us&#45;east&#45;1:states:action/StartSyncExecution</title>
<path fill="none" stroke="#707070" d="M323.58,-184.8C340.66,-184.08 358.13,-183.34 375.34,-182.61"/>
<polygon fill="#707070" stroke="#707070" points="375.59,-186.1 385.43,-182.18 375.29,-179.1 375.59,-186.1"/>
</g>
<!-- Stage::sam&#45;app&#45;WebSocketApi::api&#45;&gt;Api::sam&#45;app&#45;WebSocketApi -->
<g id="edge7" class="edge">
<title>Stage::sam&#45;app&#45;WebSocketApi::api&#45;&gt;Api::sam&#45;app&#45;WebSocketApi</title>
<path fill="none" stroke="#707070" d="M646.8,-268.75C687.89,-267.58 734.14,-266.26 774.79,-265.1"/>
<polygon fill="#707070" stroke="#707070" points="775.1,-268.59 785,-264.81 774.9,-261.6 775.1,-268.59"/>
</g>
<!-- Role::sam&#45;app&#45;SyncSFnRole&#45;JQXXDR4PTU8K -->
<g id="node7" class="node">
<title>Role::sam&#45;app&#45;SyncSFnRole&#45;JQXXDR4PTU8K</title>
<polygon fill="#e5e5e5" stroke="#dddddd" points="699,-129 365,-129 365,-71 699,-71 699,-129"/>
<text text-anchor="start" x="377" y="-109.2" font-family="Helvetica,sans-Serif" font-weight="bold" font-size="16.00" fill="#707070">IAM::Role</text>
<text text-anchor="start" x="377" y="-84.2" font-family="Helvetica,sans-Serif" font-size="16.00" fill="#383838">sam&#45;app&#45;SyncSFnRole&#45;JQXXDR4PTU8K...</text>
</g>
<!-- StateMachine::SyncSFn&#45;XlyVIunWzoVO -->
<g id="node8" class="node">
<title>StateMachine::SyncSFn&#45;XlyVIunWzoVO</title>
<polygon fill="#e5e5e5" stroke="#dddddd" points="301.5,-129 51.5,-129 51.5,-71 301.5,-71 301.5,-129"/>
<text text-anchor="start" x="63.5" y="-109.2" font-family="Helvetica,sans-Serif" font-weight="bold" font-size="16.00" fill="#707070">StepFunctions::StateMachine</text>
<text text-anchor="start" x="63.5" y="-84.2" font-family="Helvetica,sans-Serif" font-size="16.00" fill="#383838">SyncSFn&#45;XlyVIunWzoVO</text>
</g>
<!-- StateMachine::SyncSFn&#45;XlyVIunWzoVO&#45;&gt;Role::sam&#45;app&#45;SyncSFnRole&#45;JQXXDR4PTU8K -->
<g id="edge8" class="edge">
<title>StateMachine::SyncSFn&#45;XlyVIunWzoVO&#45;&gt;Role::sam&#45;app&#45;SyncSFnRole&#45;JQXXDR4PTU8K</title>
<path fill="none" stroke="#707070" d="M301.63,-100C318.92,-100 336.95,-100 354.97,-100"/>
<polygon fill="#707070" stroke="#707070" points="354.97,-103.5 364.97,-100 354.97,-96.5 354.97,-103.5"/>
</g>
</g>
</svg>
