<?xml version="1.0" encoding="UTF-8" standalone="no"?>
<!DOCTYPE svg PUBLIC "-//W3C//DTD SVG 1.1//EN"
 "http://www.w3.org/Graphics/SVG/1.1/DTD/svg11.dtd">
<!-- Generated by graphviz version 3.0.0 (20220226.1711)
 -->
<!-- Title: graphname Pages: 1 -->
<svg width="952pt" height="485pt"
 viewBox="0.00 0.00 952.00 485.00" xmlns="http://www.w3.org/2000/svg" xmlns:xlink="http://www.w3.org/1999/xlink">
<g id="graph0" class="graph" transform="scale(1 1) rotate(0) translate(4 481)">
<title>graphname</title>
<polygon fill="#fafafa" stroke="transparent" points="-4,4 -4,-481 948,-481 948,4 -4,4"/>
<text text-anchor="start" x="414" y="-452.4" font-family="Helvetica,sans-Serif" font-weight="bold" font-size="22.00" fill="#383838">Project ec2</text>
<text text-anchor="start" x="468.5" y="-436.8" font-family="Helvetica,sans-Serif" font-size="14.00"> &#160;</text>
<text text-anchor="start" x="414" y="-415.2" font-family="Helvetica,sans-Serif" font-weight="bold" font-size="16.00" fill="#707070">Live Diagram</text>
<g id="clust1" class="cluster">
<title>cluster_aws</title>
<polygon fill="#f5f5f5" stroke="#f5f5f5" points="8,-8 8,-393 936,-393 936,-8 8,-8"/>
<text text-anchor="start" x="410" y="-23" font-family="Helvetica,sans-Serif" font-weight="bold" font-size="20.00" fill="#707070">Provider aws</text>
</g>
<g id="clust2" class="cluster">
<title>cluster_aws_</title>
<polygon fill="#eeeeee" stroke="#eeeeee" points="16,-54 16,-385 928,-385 928,-54 16,-54"/>
<text text-anchor="start" x="471.86" y="-58.3" font-family="Helvetica,sans-Serif" font-size="1.00" fill="#383838"> </text>
</g>
<!-- ElasticIpAddress::::eip -->
<g id="node1" class="node">
<title>ElasticIpAddress::::eip</title>
<polygon fill="#e5e5e5" stroke="#dddddd" points="780,-129 584,-129 584,-71 780,-71 780,-129"/>
<text text-anchor="start" x="596" y="-109.2" font-family="Helvetica,sans-Serif" font-weight="bold" font-size="16.00" fill="#707070">EC2::ElasticIpAddress</text>
<text text-anchor="start" x="596" y="-84.2" font-family="Helvetica,sans-Serif" font-size="16.00" fill="#383838">eip</text>
</g>
<!-- ElasticIpAddressAssociation::::eip&#45;attach::eip::web&#45;server&#45;ec2&#45;example -->
<g id="node2" class="node">
<title>ElasticIpAddressAssociation::::eip&#45;attach::eip::web&#45;server&#45;ec2&#45;example</title>
<polygon fill="#e5e5e5" stroke="#dddddd" points="310,-167 24,-167 24,-109 310,-109 310,-167"/>
<text text-anchor="start" x="36" y="-147.2" font-family="Helvetica,sans-Serif" font-weight="bold" font-size="16.00" fill="#707070">EC2::ElasticIpAddressAssociation</text>
<text text-anchor="start" x="36" y="-122.2" font-family="Helvetica,sans-Serif" font-size="16.00" fill="#383838">eip&#45;attach::eip::web&#45;server&#45;ec2&#45;...</text>
</g>
<!-- ElasticIpAddressAssociation::::eip&#45;attach::eip::web&#45;server&#45;ec2&#45;example&#45;&gt;ElasticIpAddress::::eip -->
<g id="edge2" class="edge">
<title>ElasticIpAddressAssociation::::eip&#45;attach::eip::web&#45;server&#45;ec2&#45;example&#45;&gt;ElasticIpAddress::::eip</title>
<path fill="none" stroke="#707070" d="M310.22,-127.47C393.65,-121.29 497.36,-113.6 573.86,-107.94"/>
<polygon fill="#707070" stroke="#707070" points="574.28,-111.41 584,-107.19 573.77,-104.43 574.28,-111.41"/>
</g>
<!-- Instance::::web&#45;server&#45;ec2&#45;example -->
<g id="node3" class="node">
<title>Instance::::web&#45;server&#45;ec2&#45;example</title>
<polygon fill="#e5e5e5" stroke="#dddddd" points="548,-243 346,-243 346,-185 548,-185 548,-243"/>
<text text-anchor="start" x="358" y="-223.2" font-family="Helvetica,sans-Serif" font-weight="bold" font-size="16.00" fill="#707070">EC2::Instance</text>
<text text-anchor="start" x="358" y="-198.2" font-family="Helvetica,sans-Serif" font-size="16.00" fill="#383838">web&#45;server&#45;ec2&#45;example</text>
</g>
<!-- ElasticIpAddressAssociation::::eip&#45;attach::eip::web&#45;server&#45;ec2&#45;example&#45;&gt;Instance::::web&#45;server&#45;ec2&#45;example -->
<g id="edge1" class="edge">
<title>ElasticIpAddressAssociation::::eip&#45;attach::eip::web&#45;server&#45;ec2&#45;example&#45;&gt;Instance::::web&#45;server&#45;ec2&#45;example</title>
<path fill="none" stroke="#707070" d="M274.29,-167.06C294.44,-172.57 315.57,-178.34 335.84,-183.88"/>
<polygon fill="#707070" stroke="#707070" points="335.15,-187.32 345.72,-186.58 336.99,-180.57 335.15,-187.32"/>
</g>
<!-- Instance::::web&#45;server&#45;ec2&#45;example&#45;&gt;ElasticIpAddress::::eip -->
<g id="edge6" class="edge">
<title>Instance::::web&#45;server&#45;ec2&#45;example&#45;&gt;ElasticIpAddress::::eip</title>
<path fill="none" stroke="#707070" d="M496.26,-184.92C521.88,-170.02 554.17,-152.1 584,-138 587.53,-136.33 591.16,-134.67 594.84,-133.04"/>
<polygon fill="#707070" stroke="#707070" points="596.3,-136.22 604.07,-129.02 593.51,-129.8 596.3,-136.22"/>
</g>
<!-- KeyPair::::kp&#45;ec2&#45;example -->
<g id="node4" class="node">
<title>KeyPair::::kp&#45;ec2&#45;example</title>
<polygon fill="#e5e5e5" stroke="#dddddd" points="752,-205 612,-205 612,-147 752,-147 752,-205"/>
<text text-anchor="start" x="624" y="-185.2" font-family="Helvetica,sans-Serif" font-weight="bold" font-size="16.00" fill="#707070">EC2::KeyPair</text>
<text text-anchor="start" x="624" y="-160.2" font-family="Helvetica,sans-Serif" font-size="16.00" fill="#383838">kp&#45;ec2&#45;example</text>
</g>
<!-- Instance::::web&#45;server&#45;ec2&#45;example&#45;&gt;KeyPair::::kp&#45;ec2&#45;example -->
<g id="edge4" class="edge">
<title>Instance::::web&#45;server&#45;ec2&#45;example&#45;&gt;KeyPair::::kp&#45;ec2&#45;example</title>
<path fill="none" stroke="#707070" d="M548.17,-197.66C566.11,-194.74 584.57,-191.73 601.82,-188.91"/>
<polygon fill="#707070" stroke="#707070" points="602.52,-192.35 611.82,-187.28 601.39,-185.44 602.52,-192.35"/>
</g>
<!-- SecurityGroup::::sg::vpc&#45;default::default -->
<g id="node5" class="node">
<title>SecurityGroup::::sg::vpc&#45;default::default</title>
<polygon fill="#e5e5e5" stroke="#dddddd" points="776,-281 588,-281 588,-223 776,-223 776,-281"/>
<text text-anchor="start" x="600" y="-261.2" font-family="Helvetica,sans-Serif" font-weight="bold" font-size="16.00" fill="#707070">EC2::SecurityGroup</text>
<text text-anchor="start" x="600" y="-236.2" font-family="Helvetica,sans-Serif" font-size="16.00" fill="#383838">sg::vpc&#45;default::default</text>
</g>
<!-- Instance::::web&#45;server&#45;ec2&#45;example&#45;&gt;SecurityGroup::::sg::vpc&#45;default::default -->
<g id="edge7" class="edge">
<title>Instance::::web&#45;server&#45;ec2&#45;example&#45;&gt;SecurityGroup::::sg::vpc&#45;default::default</title>
<path fill="none" stroke="#707070" d="M548.17,-230.34C558.06,-231.95 568.12,-233.59 578.05,-235.21"/>
<polygon fill="#707070" stroke="#707070" points="577.49,-238.66 587.92,-236.82 578.61,-231.76 577.49,-238.66"/>
</g>
<!-- Subnet::::subnet&#45;default&#45;a -->
<g id="node6" class="node">
<title>Subnet::::subnet&#45;default&#45;a</title>
<polygon fill="#e5e5e5" stroke="#dddddd" points="753,-357 611,-357 611,-299 753,-299 753,-357"/>
<text text-anchor="start" x="623" y="-337.2" font-family="Helvetica,sans-Serif" font-weight="bold" font-size="16.00" fill="#707070">EC2::Subnet</text>
<text text-anchor="start" x="623" y="-312.2" font-family="Helvetica,sans-Serif" font-size="16.00" fill="#383838">subnet&#45;default&#45;a</text>
</g>
<!-- Instance::::web&#45;server&#45;ec2&#45;example&#45;&gt;Subnet::::subnet&#45;default&#45;a -->
<g id="edge5" class="edge">
<title>Instance::::web&#45;server&#45;ec2&#45;example&#45;&gt;Subnet::::subnet&#45;default&#45;a</title>
<path fill="none" stroke="#707070" d="M496.26,-243.08C521.88,-257.98 554.17,-275.9 584,-290 589.63,-292.66 595.51,-295.3 601.46,-297.86"/>
<polygon fill="#707070" stroke="#707070" points="600.27,-301.16 610.84,-301.83 602.99,-294.71 600.27,-301.16"/>
</g>
<!-- Vpc::::vpc&#45;default -->
<g id="node7" class="node">
<title>Vpc::::vpc&#45;default</title>
<polygon fill="#e5e5e5" stroke="#dddddd" points="920,-357 816,-357 816,-299 920,-299 920,-357"/>
<text text-anchor="start" x="828" y="-337.2" font-family="Helvetica,sans-Serif" font-weight="bold" font-size="16.00" fill="#707070">EC2::Vpc</text>
<text text-anchor="start" x="828" y="-312.2" font-family="Helvetica,sans-Serif" font-size="16.00" fill="#383838">vpc&#45;default</text>
</g>
<!-- Instance::::web&#45;server&#45;ec2&#45;example&#45;&gt;Vpc::::vpc&#45;default -->
<g id="edge3" class="edge">
<title>Instance::::web&#45;server&#45;ec2&#45;example&#45;&gt;Vpc::::vpc&#45;default</title>
<path fill="none" stroke="#707070" d="M463.61,-243.05C485.14,-279.67 527.75,-340.85 584,-366 663.52,-401.56 694.73,-383.81 780,-366 788.67,-364.19 797.54,-361.46 806.14,-358.28"/>
<polygon fill="#707070" stroke="#707070" points="807.68,-361.44 815.71,-354.53 805.12,-354.92 807.68,-361.44"/>
</g>
<!-- SecurityGroup::::sg::vpc&#45;default::default&#45;&gt;Vpc::::vpc&#45;default -->
<g id="edge8" class="edge">
<title>SecurityGroup::::sg::vpc&#45;default::default&#45;&gt;Vpc::::vpc&#45;default</title>
<path fill="none" stroke="#707070" d="M758.05,-281.07C765.48,-284.05 772.9,-287.06 780,-290 788.5,-293.52 797.43,-297.31 806.19,-301.09"/>
<polygon fill="#707070" stroke="#707070" points="805.05,-304.41 815.62,-305.17 807.83,-297.98 805.05,-304.41"/>
</g>
<!-- Subnet::::subnet&#45;default&#45;a&#45;&gt;Vpc::::vpc&#45;default -->
<g id="edge9" class="edge">
<title>Subnet::::subnet&#45;default&#45;a&#45;&gt;Vpc::::vpc&#45;default</title>
<path fill="none" stroke="#707070" d="M753.09,-328C770.41,-328 788.84,-328 805.71,-328"/>
<polygon fill="#707070" stroke="#707070" points="805.99,-331.5 815.99,-328 805.99,-324.5 805.99,-331.5"/>
</g>
</g>
</svg>
