<?xml version="1.0" encoding="UTF-8" standalone="no"?>
<!DOCTYPE svg PUBLIC "-//W3C//DTD SVG 1.1//EN"
 "http://www.w3.org/Graphics/SVG/1.1/DTD/svg11.dtd">
<!-- Generated by graphviz version 5.0.0 (20220707.1540)
 -->
<!-- Title: graphname Pages: 1 -->
<svg width="986pt" height="389pt"
 viewBox="0.00 0.00 986.00 389.00" xmlns="http://www.w3.org/2000/svg" xmlns:xlink="http://www.w3.org/1999/xlink">
<g id="graph0" class="graph" transform="scale(1 1) rotate(0) translate(4 385)">
<title>graphname</title>
<polygon fill="#fafafa" stroke="transparent" points="-4,4 -4,-385 982,-385 982,4 -4,4"/>
<text text-anchor="start" x="431" y="-356.4" font-family="Helvetica,sans-Serif" font-weight="bold" font-size="22.00" fill="#383838">Project ec2</text>
<text text-anchor="start" x="485.5" y="-340.8" font-family="Helvetica,sans-Serif" font-size="14.00"> &#160;</text>
<text text-anchor="start" x="431" y="-319.2" font-family="Helvetica,sans-Serif" font-weight="bold" font-size="16.00" fill="#707070">Target Diagram</text>
<g id="clust1" class="cluster">
<title>cluster_aws</title>
<polygon fill="#f5f5f5" stroke="#f5f5f5" points="8,-8 8,-297 970,-297 970,-8 8,-8"/>
<text text-anchor="start" x="427" y="-23" font-family="Helvetica,sans-Serif" font-weight="bold" font-size="20.00" fill="#707070">Provider aws</text>
</g>
<g id="clust2" class="cluster">
<title>cluster_aws_</title>
<polygon fill="#eeeeee" stroke="#eeeeee" points="16,-54 16,-289 962,-289 962,-54 16,-54"/>
<text text-anchor="start" x="488.86" y="-58.3" font-family="Helvetica,sans-Serif" font-size="1.00" fill="#383838"> </text>
</g>
<!-- KeyPair::kp&#45;ec2&#45;example -->
<g id="node1" class="node">
<title>KeyPair::kp&#45;ec2&#45;example</title>
<polygon fill="#e5e5e5" stroke="#dddddd" points="769,-129 629,-129 629,-71 769,-71 769,-129"/>
<text text-anchor="start" x="641" y="-109.2" font-family="Helvetica,sans-Serif" font-weight="bold" font-size="16.00" fill="#707070">EC2::KeyPair</text>
<text text-anchor="start" x="641" y="-84.2" font-family="Helvetica,sans-Serif" font-size="16.00" fill="#383838">kp&#45;ec2&#45;example</text>
</g>
<!-- Vpc::vpc&#45;default -->
<g id="node2" class="node">
<title>Vpc::vpc&#45;default</title>
<polygon fill="#e5e5e5" stroke="#dddddd" points="954,-243 850,-243 850,-185 954,-185 954,-243"/>
<text text-anchor="start" x="862" y="-223.2" font-family="Helvetica,sans-Serif" font-weight="bold" font-size="16.00" fill="#707070">EC2::Vpc</text>
<text text-anchor="start" x="862" y="-198.2" font-family="Helvetica,sans-Serif" font-size="16.00" fill="#383838">vpc&#45;default</text>
</g>
<!-- Subnet::vpc&#45;default::subnet&#45;default&#45;a -->
<g id="node3" class="node">
<title>Subnet::vpc&#45;default::subnet&#45;default&#45;a</title>
<polygon fill="#e5e5e5" stroke="#dddddd" points="814,-205 584,-205 584,-147 814,-147 814,-205"/>
<text text-anchor="start" x="596" y="-185.2" font-family="Helvetica,sans-Serif" font-weight="bold" font-size="16.00" fill="#707070">EC2::Subnet</text>
<text text-anchor="start" x="596" y="-160.2" font-family="Helvetica,sans-Serif" font-size="16.00" fill="#383838">vpc&#45;default::subnet&#45;default&#45;a</text>
</g>
<!-- Subnet::vpc&#45;default::subnet&#45;default&#45;a&#45;&gt;Vpc::vpc&#45;default -->
<g id="edge1" class="edge">
<title>Subnet::vpc&#45;default::subnet&#45;default&#45;a&#45;&gt;Vpc::vpc&#45;default</title>
<path fill="none" stroke="#707070" d="M814.01,-197.55C822.83,-199.22 831.5,-200.86 839.76,-202.42"/>
<polygon fill="#707070" stroke="#707070" points="839.13,-205.87 849.61,-204.28 840.43,-198.99 839.13,-205.87"/>
</g>
<!-- SecurityGroup::sg::vpc&#45;default::default -->
<g id="node4" class="node">
<title>SecurityGroup::sg::vpc&#45;default::default</title>
<polygon fill="#e5e5e5" stroke="#dddddd" points="793,-281 605,-281 605,-223 793,-223 793,-281"/>
<text text-anchor="start" x="617" y="-261.2" font-family="Helvetica,sans-Serif" font-weight="bold" font-size="16.00" fill="#707070">EC2::SecurityGroup</text>
<text text-anchor="start" x="617" y="-236.2" font-family="Helvetica,sans-Serif" font-size="16.00" fill="#383838">sg::vpc&#45;default::default</text>
</g>
<!-- SecurityGroup::sg::vpc&#45;default::default&#45;&gt;Vpc::vpc&#45;default -->
<g id="edge2" class="edge">
<title>SecurityGroup::sg::vpc&#45;default::default&#45;&gt;Vpc::vpc&#45;default</title>
<path fill="none" stroke="#707070" d="M793.15,-234.39C809,-231.39 825.1,-228.35 839.85,-225.56"/>
<polygon fill="#707070" stroke="#707070" points="840.66,-228.97 849.83,-223.67 839.36,-222.09 840.66,-228.97"/>
</g>
<!-- ElasticIpAddress::eip -->
<g id="node5" class="node">
<title>ElasticIpAddress::eip</title>
<polygon fill="#e5e5e5" stroke="#dddddd" points="545,-129 349,-129 349,-71 545,-71 545,-129"/>
<text text-anchor="start" x="361" y="-109.2" font-family="Helvetica,sans-Serif" font-weight="bold" font-size="16.00" fill="#707070">EC2::ElasticIpAddress</text>
<text text-anchor="start" x="361" y="-84.2" font-family="Helvetica,sans-Serif" font-size="16.00" fill="#383838">eip</text>
</g>
<!-- ElasticIpAddressAssociation::eip&#45;attach::eip::web&#45;server&#45;ec2&#45;example -->
<g id="node6" class="node">
<title>ElasticIpAddressAssociation::eip&#45;attach::eip::web&#45;server&#45;ec2&#45;example</title>
<polygon fill="#e5e5e5" stroke="#dddddd" points="310,-167 24,-167 24,-109 310,-109 310,-167"/>
<text text-anchor="start" x="36" y="-147.2" font-family="Helvetica,sans-Serif" font-weight="bold" font-size="16.00" fill="#707070">EC2::ElasticIpAddressAssociation</text>
<text text-anchor="start" x="36" y="-122.2" font-family="Helvetica,sans-Serif" font-size="16.00" fill="#383838">eip&#45;attach::eip::web&#45;server&#45;ec2&#45;...</text>
</g>
<!-- ElasticIpAddressAssociation::eip&#45;attach::eip::web&#45;server&#45;ec2&#45;example&#45;&gt;ElasticIpAddress::eip -->
<g id="edge3" class="edge">
<title>ElasticIpAddressAssociation::eip&#45;attach::eip::web&#45;server&#45;ec2&#45;example&#45;&gt;ElasticIpAddress::eip</title>
<path fill="none" stroke="#707070" d="M310.26,-118.55C319.87,-117.24 329.47,-115.93 338.85,-114.65"/>
<polygon fill="#707070" stroke="#707070" points="339.52,-118.09 348.95,-113.27 338.57,-111.15 339.52,-118.09"/>
</g>
<!-- Instance::web&#45;server&#45;ec2&#45;example -->
<g id="node7" class="node">
<title>Instance::web&#45;server&#45;ec2&#45;example</title>
<polygon fill="#e5e5e5" stroke="#dddddd" points="548,-205 346,-205 346,-147 548,-147 548,-205"/>
<text text-anchor="start" x="358" y="-185.2" font-family="Helvetica,sans-Serif" font-weight="bold" font-size="16.00" fill="#707070">EC2::Instance</text>
<text text-anchor="start" x="358" y="-160.2" font-family="Helvetica,sans-Serif" font-size="16.00" fill="#383838">web&#45;server&#45;ec2&#45;example</text>
</g>
<!-- ElasticIpAddressAssociation::eip&#45;attach::eip::web&#45;server&#45;ec2&#45;example&#45;&gt;Instance::web&#45;server&#45;ec2&#45;example -->
<g id="edge4" class="edge">
<title>ElasticIpAddressAssociation::eip&#45;attach::eip::web&#45;server&#45;ec2&#45;example&#45;&gt;Instance::web&#45;server&#45;ec2&#45;example</title>
<path fill="none" stroke="#707070" d="M310.26,-157.45C318.81,-158.61 327.34,-159.78 335.72,-160.93"/>
<polygon fill="#707070" stroke="#707070" points="335.49,-164.43 345.87,-162.31 336.44,-157.49 335.49,-164.43"/>
</g>
<!-- Instance::web&#45;server&#45;ec2&#45;example&#45;&gt;KeyPair::kp&#45;ec2&#45;example -->
<g id="edge6" class="edge">
<title>Instance::web&#45;server&#45;ec2&#45;example&#45;&gt;KeyPair::kp&#45;ec2&#45;example</title>
<path fill="none" stroke="#707070" d="M543.58,-146.94C568.54,-139.36 595.16,-131.26 619.14,-123.97"/>
<polygon fill="#707070" stroke="#707070" points="620.34,-127.27 628.89,-121.01 618.3,-120.57 620.34,-127.27"/>
</g>
<!-- Instance::web&#45;server&#45;ec2&#45;example&#45;&gt;Subnet::vpc&#45;default::subnet&#45;default&#45;a -->
<g id="edge5" class="edge">
<title>Instance::web&#45;server&#45;ec2&#45;example&#45;&gt;Subnet::vpc&#45;default::subnet&#45;default&#45;a</title>
<path fill="none" stroke="#707070" d="M548.24,-176C556.64,-176 565.19,-176 573.74,-176"/>
<polygon fill="#707070" stroke="#707070" points="573.76,-179.5 583.76,-176 573.76,-172.5 573.76,-179.5"/>
</g>
<!-- Instance::web&#45;server&#45;ec2&#45;example&#45;&gt;SecurityGroup::sg::vpc&#45;default::default -->
<g id="edge7" class="edge">
<title>Instance::web&#45;server&#45;ec2&#45;example&#45;&gt;SecurityGroup::sg::vpc&#45;default::default</title>
<path fill="none" stroke="#707070" d="M543.58,-205.06C560.41,-210.17 577.98,-215.52 595,-220.69"/>
<polygon fill="#707070" stroke="#707070" points="594.36,-224.15 604.94,-223.71 596.39,-217.45 594.36,-224.15"/>
</g>
</g>
</svg>
