<?xml version="1.0" encoding="UTF-8" standalone="no"?>
<!DOCTYPE svg PUBLIC "-//W3C//DTD SVG 1.1//EN"
 "http://www.w3.org/Graphics/SVG/1.1/DTD/svg11.dtd">
<!-- Generated by graphviz version 2.44.1 (20200629.0846)
 -->
<!-- Title: graphname Pages: 1 -->
<svg width="1574pt" height="617pt"
 viewBox="0.00 0.00 1574.00 617.00" xmlns="http://www.w3.org/2000/svg" xmlns:xlink="http://www.w3.org/1999/xlink">
<g id="graph0" class="graph" transform="scale(1 1) rotate(0) translate(4 613)">
<title>graphname</title>
<polygon fill="#fafafa" stroke="transparent" points="-4,4 -4,-613 1570,-613 1570,4 -4,4"/>
<text text-anchor="start" x="703" y="-584.4" font-family="Helvetica,sans-Serif" font-weight="bold" font-size="22.00" fill="#383838">Project graphql</text>
<text text-anchor="start" x="779.5" y="-568.8" font-family="Helvetica,sans-Serif" font-size="14.00"> &#160;</text>
<text text-anchor="start" x="703" y="-547.2" font-family="Helvetica,sans-Serif" font-weight="bold" font-size="16.00" fill="#707070">Target Diagram</text>
<g id="clust1" class="cluster">
<title>cluster_aws</title>
<polygon fill="#f5f5f5" stroke="#f5f5f5" points="8,-8 8,-525 1558,-525 1558,-8 8,-8"/>
<text text-anchor="start" x="721" y="-23" font-family="Helvetica,sans-Serif" font-weight="bold" font-size="20.00" fill="#707070">Provider aws</text>
</g>
<g id="clust2" class="cluster">
<title>cluster_aws_</title>
<polygon fill="#eeeeee" stroke="#eeeeee" points="16,-54 16,-517 1550,-517 1550,-54 16,-54"/>
<text text-anchor="start" x="782.86" y="-58.3" font-family="Helvetica,sans-Serif" font-size="1.00" fill="#383838"> </text>
</g>
<!-- GraphqlApi::cdk&#45;notes&#45;appsync&#45;api -->
<g id="node1" class="node">
<title>GraphqlApi::cdk&#45;notes&#45;appsync&#45;api</title>
<polygon fill="#e5e5e5" stroke="#dddddd" points="823.5,-372 635.5,-372 635.5,-314 823.5,-314 823.5,-372"/>
<text text-anchor="start" x="647.5" y="-352.2" font-family="Helvetica,sans-Serif" font-weight="bold" font-size="16.00" fill="#707070">GraphqlApi</text>
<text text-anchor="start" x="647.5" y="-327.2" font-family="Helvetica,sans-Serif" font-size="16.00" fill="#383838">cdk&#45;notes&#45;appsync&#45;api</text>
</g>
<!-- DataSource::lambdaDatasource -->
<g id="node2" class="node">
<title>DataSource::lambdaDatasource</title>
<polygon fill="#e5e5e5" stroke="#dddddd" points="537,-300 377,-300 377,-242 537,-242 537,-300"/>
<text text-anchor="start" x="389" y="-280.2" font-family="Helvetica,sans-Serif" font-weight="bold" font-size="16.00" fill="#707070">DataSource</text>
<text text-anchor="start" x="389" y="-255.2" font-family="Helvetica,sans-Serif" font-size="16.00" fill="#383838">lambdaDatasource</text>
</g>
<!-- DataSource::lambdaDatasource&#45;&gt;GraphqlApi::cdk&#45;notes&#45;appsync&#45;api -->
<g id="edge2" class="edge">
<title>DataSource::lambdaDatasource&#45;&gt;GraphqlApi::cdk&#45;notes&#45;appsync&#45;api</title>
<path fill="none" stroke="#707070" d="M537.04,-294.91C549.06,-298.39 561.34,-301.85 573,-305 589.98,-309.58 608.07,-314.22 625.67,-318.61"/>
<polygon fill="#707070" stroke="#707070" points="624.85,-322.01 635.4,-321.02 626.53,-315.21 624.85,-322.01"/>
</g>
<!-- Role::AppsyncCdkAppStack&#45;ApilambdaDatasourceServiceRole2&#45;1BX1MTO4H3KAG -->
<g id="node9" class="node">
<title>Role::AppsyncCdkAppStack&#45;ApilambdaDatasourceServiceRole2&#45;1BX1MTO4H3KAG</title>
<polygon fill="#e5e5e5" stroke="#dddddd" points="886,-220 573,-220 573,-162 886,-162 886,-220"/>
<text text-anchor="start" x="585.5" y="-200.2" font-family="Helvetica,sans-Serif" font-weight="bold" font-size="16.00" fill="#707070">Role</text>
<text text-anchor="start" x="585.5" y="-175.2" font-family="Helvetica,sans-Serif" font-size="16.00" fill="#383838">AppsyncCdkAppStack&#45;ApilambdaData...</text>
</g>
<!-- DataSource::lambdaDatasource&#45;&gt;Role::AppsyncCdkAppStack&#45;ApilambdaDatasourceServiceRole2&#45;1BX1MTO4H3KAG -->
<g id="edge1" class="edge">
<title>DataSource::lambdaDatasource&#45;&gt;Role::AppsyncCdkAppStack&#45;ApilambdaDatasourceServiceRole2&#45;1BX1MTO4H3KAG</title>
<path fill="none" stroke="#707070" d="M534,-241.91C546.93,-237.34 560.29,-232.86 573,-229 579.95,-226.89 587.1,-224.81 594.33,-222.79"/>
<polygon fill="#707070" stroke="#707070" points="595.53,-226.09 604.24,-220.06 593.67,-219.34 595.53,-226.09"/>
</g>
<!-- Function::lambda&#45;fns -->
<g id="node12" class="node">
<title>Function::lambda&#45;fns</title>
<polygon fill="#e5e5e5" stroke="#dddddd" points="782,-296 677,-296 677,-238 782,-238 782,-296"/>
<text text-anchor="start" x="689.5" y="-276.2" font-family="Helvetica,sans-Serif" font-weight="bold" font-size="16.00" fill="#707070">Function</text>
<text text-anchor="start" x="689.5" y="-251.2" font-family="Helvetica,sans-Serif" font-size="16.00" fill="#383838">lambda&#45;fns</text>
</g>
<!-- DataSource::lambdaDatasource&#45;&gt;Function::lambda&#45;fns -->
<g id="edge3" class="edge">
<title>DataSource::lambdaDatasource&#45;&gt;Function::lambda&#45;fns</title>
<path fill="none" stroke="#707070" d="M537.33,-269.83C578.69,-269.22 628.51,-268.48 666.92,-267.91"/>
<polygon fill="#707070" stroke="#707070" points="666.99,-271.41 676.94,-267.76 666.88,-264.41 666.99,-271.41"/>
</g>
<!-- Resolver::resolver::Mutation::createNote -->
<g id="node3" class="node">
<title>Resolver::resolver::Mutation::createNote</title>
<polygon fill="#e5e5e5" stroke="#dddddd" points="303,-205 62,-205 62,-147 303,-147 303,-205"/>
<text text-anchor="start" x="74.5" y="-185.2" font-family="Helvetica,sans-Serif" font-weight="bold" font-size="16.00" fill="#707070">Resolver</text>
<text text-anchor="start" x="74.5" y="-160.2" font-family="Helvetica,sans-Serif" font-size="16.00" fill="#383838">resolver::Mutation::createNote</text>
</g>
<!-- Resolver::resolver::Mutation::createNote&#45;&gt;GraphqlApi::cdk&#45;notes&#45;appsync&#45;api -->
<g id="edge4" class="edge">
<title>Resolver::resolver::Mutation::createNote&#45;&gt;GraphqlApi::cdk&#45;notes&#45;appsync&#45;api</title>
<path fill="none" stroke="#707070" d="M303.33,-168.93C377.2,-170.53 470.24,-183.96 537,-233 565.83,-254.18 545.03,-282.69 573,-305 588.17,-317.1 606.63,-325.43 625.46,-331.14"/>
<polygon fill="#707070" stroke="#707070" points="624.76,-334.58 635.33,-333.9 626.64,-327.84 624.76,-334.58"/>
</g>
<!-- Resolver::resolver::Mutation::createNote&#45;&gt;DataSource::lambdaDatasource -->
<g id="edge5" class="edge">
<title>Resolver::resolver::Mutation::createNote&#45;&gt;DataSource::lambdaDatasource</title>
<path fill="none" stroke="#707070" d="M303.02,-201.84C315.96,-205.52 328.84,-209.58 341,-214 358.76,-220.45 377.37,-228.88 394.32,-237.28"/>
<polygon fill="#707070" stroke="#707070" points="393.05,-240.55 403.55,-241.92 396.19,-234.3 393.05,-240.55"/>
</g>
<!-- Resolver::resolver::Mutation::deleteNote -->
<g id="node4" class="node">
<title>Resolver::resolver::Mutation::deleteNote</title>
<polygon fill="#e5e5e5" stroke="#dddddd" points="303,-509 62,-509 62,-451 303,-451 303,-509"/>
<text text-anchor="start" x="74.5" y="-489.2" font-family="Helvetica,sans-Serif" font-weight="bold" font-size="16.00" fill="#707070">Resolver</text>
<text text-anchor="start" x="74.5" y="-464.2" font-family="Helvetica,sans-Serif" font-size="16.00" fill="#383838">resolver::Mutation::deleteNote</text>
</g>
<!-- Resolver::resolver::Mutation::deleteNote&#45;&gt;GraphqlApi::cdk&#45;notes&#45;appsync&#45;api -->
<g id="edge6" class="edge">
<title>Resolver::resolver::Mutation::deleteNote&#45;&gt;GraphqlApi::cdk&#45;notes&#45;appsync&#45;api</title>
<path fill="none" stroke="#707070" d="M303.08,-451.33C315.88,-448.2 328.72,-445.05 341,-442 437.61,-418 547.55,-389.84 625.58,-369.69"/>
<polygon fill="#707070" stroke="#707070" points="626.61,-373.04 635.41,-367.15 624.86,-366.27 626.61,-373.04"/>
</g>
<!-- Resolver::resolver::Mutation::deleteNote&#45;&gt;DataSource::lambdaDatasource -->
<g id="edge7" class="edge">
<title>Resolver::resolver::Mutation::deleteNote&#45;&gt;DataSource::lambdaDatasource</title>
<path fill="none" stroke="#707070" d="M303.3,-461.23C316.67,-456.25 329.57,-449.95 341,-442 388.65,-408.85 422.1,-349.03 440.2,-309.67"/>
<polygon fill="#707070" stroke="#707070" points="443.58,-310.68 444.47,-300.13 437.19,-307.82 443.58,-310.68"/>
</g>
<!-- Resolver::resolver::Mutation::updateNote -->
<g id="node5" class="node">
<title>Resolver::resolver::Mutation::updateNote</title>
<polygon fill="#e5e5e5" stroke="#dddddd" points="305.5,-433 59.5,-433 59.5,-375 305.5,-375 305.5,-433"/>
<text text-anchor="start" x="71.5" y="-413.2" font-family="Helvetica,sans-Serif" font-weight="bold" font-size="16.00" fill="#707070">Resolver</text>
<text text-anchor="start" x="71.5" y="-388.2" font-family="Helvetica,sans-Serif" font-size="16.00" fill="#383838">resolver::Mutation::updateNote</text>
</g>
<!-- Resolver::resolver::Mutation::updateNote&#45;&gt;GraphqlApi::cdk&#45;notes&#45;appsync&#45;api -->
<g id="edge8" class="edge">
<title>Resolver::resolver::Mutation::updateNote&#45;&gt;GraphqlApi::cdk&#45;notes&#45;appsync&#45;api</title>
<path fill="none" stroke="#707070" d="M305.81,-390.31C402,-379.54 534.51,-364.71 625.38,-354.54"/>
<polygon fill="#707070" stroke="#707070" points="625.87,-358.01 635.42,-353.42 625.09,-351.05 625.87,-358.01"/>
</g>
<!-- Resolver::resolver::Mutation::updateNote&#45;&gt;DataSource::lambdaDatasource -->
<g id="edge9" class="edge">
<title>Resolver::resolver::Mutation::updateNote&#45;&gt;DataSource::lambdaDatasource</title>
<path fill="none" stroke="#707070" d="M305.87,-380.37C318.01,-376.29 329.93,-371.53 341,-366 370.84,-351.08 399.76,-327.13 421.14,-307"/>
<polygon fill="#707070" stroke="#707070" points="423.58,-309.51 428.38,-300.06 418.74,-304.46 423.58,-309.51"/>
</g>
<!-- Resolver::resolver::Query::getNoteById -->
<g id="node6" class="node">
<title>Resolver::resolver::Query::getNoteById</title>
<polygon fill="#e5e5e5" stroke="#dddddd" points="299,-357 66,-357 66,-299 299,-299 299,-357"/>
<text text-anchor="start" x="78.5" y="-337.2" font-family="Helvetica,sans-Serif" font-weight="bold" font-size="16.00" fill="#707070">Resolver</text>
<text text-anchor="start" x="78.5" y="-312.2" font-family="Helvetica,sans-Serif" font-size="16.00" fill="#383838">resolver::Query::getNoteById</text>
</g>
<!-- Resolver::resolver::Query::getNoteById&#45;&gt;GraphqlApi::cdk&#45;notes&#45;appsync&#45;api -->
<g id="edge10" class="edge">
<title>Resolver::resolver::Query::getNoteById&#45;&gt;GraphqlApi::cdk&#45;notes&#45;appsync&#45;api</title>
<path fill="none" stroke="#707070" d="M299.08,-331.18C395.61,-333.84 531.98,-337.59 624.98,-340.15"/>
<polygon fill="#707070" stroke="#707070" points="625.15,-343.66 635.25,-340.43 625.35,-336.66 625.15,-343.66"/>
</g>
<!-- Resolver::resolver::Query::getNoteById&#45;&gt;DataSource::lambdaDatasource -->
<g id="edge11" class="edge">
<title>Resolver::resolver::Query::getNoteById&#45;&gt;DataSource::lambdaDatasource</title>
<path fill="none" stroke="#707070" d="M299.06,-303.83C321.83,-299.06 345.39,-294.14 367.11,-289.59"/>
<polygon fill="#707070" stroke="#707070" points="367.88,-293.01 376.96,-287.53 366.45,-286.16 367.88,-293.01"/>
</g>
<!-- Resolver::resolver::Query::listNotes -->
<g id="node7" class="node">
<title>Resolver::resolver::Query::listNotes</title>
<polygon fill="#e5e5e5" stroke="#dddddd" points="286,-281 79,-281 79,-223 286,-223 286,-281"/>
<text text-anchor="start" x="91.5" y="-261.2" font-family="Helvetica,sans-Serif" font-weight="bold" font-size="16.00" fill="#707070">Resolver</text>
<text text-anchor="start" x="91.5" y="-236.2" font-family="Helvetica,sans-Serif" font-size="16.00" fill="#383838">resolver::Query::listNotes</text>
</g>
<!-- Resolver::resolver::Query::listNotes&#45;&gt;GraphqlApi::cdk&#45;notes&#45;appsync&#45;api -->
<g id="edge12" class="edge">
<title>Resolver::resolver::Query::listNotes&#45;&gt;GraphqlApi::cdk&#45;notes&#45;appsync&#45;api</title>
<path fill="none" stroke="#707070" d="M286.29,-272.88C304.75,-277.74 323.63,-283.44 341,-290 357.92,-296.39 359.67,-303.81 377,-309 400.3,-315.98 529.82,-327.37 624.89,-335.03"/>
<polygon fill="#707070" stroke="#707070" points="624.9,-338.54 635.14,-335.85 625.45,-331.56 624.9,-338.54"/>
</g>
<!-- Resolver::resolver::Query::listNotes&#45;&gt;DataSource::lambdaDatasource -->
<g id="edge13" class="edge">
<title>Resolver::resolver::Query::listNotes&#45;&gt;DataSource::lambdaDatasource</title>
<path fill="none" stroke="#707070" d="M286.13,-259.16C312.64,-261 340.95,-262.98 366.71,-264.77"/>
<polygon fill="#707070" stroke="#707070" points="366.61,-268.28 376.83,-265.48 367.1,-261.29 366.61,-268.28"/>
</g>
<!-- Policy::AWSLambdaBasicExecutionRole -->
<g id="node8" class="node">
<title>Policy::AWSLambdaBasicExecutionRole</title>
<polygon fill="#e5e5e5" stroke="#dddddd" points="1542,-296 1279,-296 1279,-238 1542,-238 1542,-296"/>
<text text-anchor="start" x="1291.5" y="-276.2" font-family="Helvetica,sans-Serif" font-weight="bold" font-size="16.00" fill="#707070">Policy</text>
<text text-anchor="start" x="1291.5" y="-251.2" font-family="Helvetica,sans-Serif" font-size="16.00" fill="#383838">AWSLambdaBasicExecutionRole</text>
</g>
<!-- Role::AppsyncCdkAppStack&#45;AppSyncNotesHandlerServiceRole3&#45;V8HWDRIU57TV -->
<g id="node10" class="node">
<title>Role::AppsyncCdkAppStack&#45;AppSyncNotesHandlerServiceRole3&#45;V8HWDRIU57TV</title>
<polygon fill="#e5e5e5" stroke="#dddddd" points="1243,-296 922,-296 922,-238 1243,-238 1243,-296"/>
<text text-anchor="start" x="934.5" y="-276.2" font-family="Helvetica,sans-Serif" font-weight="bold" font-size="16.00" fill="#707070">Role</text>
<text text-anchor="start" x="934.5" y="-251.2" font-family="Helvetica,sans-Serif" font-size="16.00" fill="#383838">AppsyncCdkAppStack&#45;AppSyncNotesH...</text>
</g>
<!-- Role::AppsyncCdkAppStack&#45;AppSyncNotesHandlerServiceRole3&#45;V8HWDRIU57TV&#45;&gt;Policy::AWSLambdaBasicExecutionRole -->
<g id="edge14" class="edge">
<title>Role::AppsyncCdkAppStack&#45;AppSyncNotesHandlerServiceRole3&#45;V8HWDRIU57TV&#45;&gt;Policy::AWSLambdaBasicExecutionRole</title>
<path fill="none" stroke="#707070" d="M1243.16,-267C1251.64,-267 1260.14,-267 1268.56,-267"/>
<polygon fill="#707070" stroke="#707070" points="1268.79,-270.5 1278.79,-267 1268.79,-263.5 1268.79,-270.5"/>
</g>
<!-- Table::AppsyncCdkAppStack&#45;CDKNotesTable254A7FD1&#45;1K1O8M7V6LS1R -->
<g id="node11" class="node">
<title>Table::AppsyncCdkAppStack&#45;CDKNotesTable254A7FD1&#45;1K1O8M7V6LS1R</title>
<polygon fill="#e5e5e5" stroke="#dddddd" points="341,-129 24,-129 24,-71 341,-71 341,-129"/>
<text text-anchor="start" x="36.5" y="-109.2" font-family="Helvetica,sans-Serif" font-weight="bold" font-size="16.00" fill="#707070">Table</text>
<text text-anchor="start" x="36.5" y="-84.2" font-family="Helvetica,sans-Serif" font-size="16.00" fill="#383838">AppsyncCdkAppStack&#45;CDKNotesTable...</text>
</g>
<!-- Function::lambda&#45;fns&#45;&gt;Role::AppsyncCdkAppStack&#45;AppSyncNotesHandlerServiceRole3&#45;V8HWDRIU57TV -->
<g id="edge15" class="edge">
<title>Function::lambda&#45;fns&#45;&gt;Role::AppsyncCdkAppStack&#45;AppSyncNotesHandlerServiceRole3&#45;V8HWDRIU57TV</title>
<path fill="none" stroke="#707070" d="M782.29,-267C816.92,-267 864.62,-267 911.76,-267"/>
<polygon fill="#707070" stroke="#707070" points="911.81,-270.5 921.81,-267 911.81,-263.5 911.81,-270.5"/>
</g>
</g>
</svg>
