<?xml version="1.0" encoding="UTF-8" standalone="no"?>
<!DOCTYPE svg PUBLIC "-//W3C//DTD SVG 1.1//EN"
 "http://www.w3.org/Graphics/SVG/1.1/DTD/svg11.dtd">
<!-- Generated by graphviz version 3.0.0 (20220226.1711)
 -->
<!-- Title: graphname Pages: 1 -->
<svg width="1557pt" height="541pt"
 viewBox="0.00 0.00 1557.00 541.00" xmlns="http://www.w3.org/2000/svg" xmlns:xlink="http://www.w3.org/1999/xlink">
<g id="graph0" class="graph" transform="scale(1 1) rotate(0) translate(4 537)">
<title>graphname</title>
<polygon fill="#fafafa" stroke="transparent" points="-4,4 -4,-537 1553,-537 1553,4 -4,4"/>
<text text-anchor="start" x="694.5" y="-508.4" font-family="Helvetica,sans-Serif" font-weight="bold" font-size="22.00" fill="#383838">Project graphql</text>
<text text-anchor="start" x="771" y="-492.8" font-family="Helvetica,sans-Serif" font-size="14.00"> &#160;</text>
<text text-anchor="start" x="694.5" y="-471.2" font-family="Helvetica,sans-Serif" font-weight="bold" font-size="16.00" fill="#707070">Target Diagram</text>
<g id="clust1" class="cluster">
<title>cluster_aws</title>
<polygon fill="#f5f5f5" stroke="#f5f5f5" points="8,-8 8,-449 1541,-449 1541,-8 8,-8"/>
<text text-anchor="start" x="712.5" y="-23" font-family="Helvetica,sans-Serif" font-weight="bold" font-size="20.00" fill="#707070">Provider aws</text>
</g>
<g id="clust2" class="cluster">
<title>cluster_aws_</title>
<polygon fill="#eeeeee" stroke="#eeeeee" points="16,-54 16,-441 1533,-441 1533,-54 16,-54"/>
<text text-anchor="start" x="774.36" y="-58.3" font-family="Helvetica,sans-Serif" font-size="1.00" fill="#383838"> </text>
</g>
<!-- GraphqlApi::cdk&#45;notes&#45;appsync&#45;api -->
<g id="node1" class="node">
<title>GraphqlApi::cdk&#45;notes&#45;appsync&#45;api</title>
<polygon fill="#e5e5e5" stroke="#dddddd" points="752.5,-299 564.5,-299 564.5,-241 752.5,-241 752.5,-299"/>
<text text-anchor="start" x="576.5" y="-279.2" font-family="Helvetica,sans-Serif" font-weight="bold" font-size="16.00" fill="#707070">GraphqlApi</text>
<text text-anchor="start" x="576.5" y="-254.2" font-family="Helvetica,sans-Serif" font-size="16.00" fill="#383838">cdk&#45;notes&#45;appsync&#45;api</text>
</g>
<!-- DataSource::lambdaDatasource -->
<g id="node2" class="node">
<title>DataSource::lambdaDatasource</title>
<polygon fill="#e5e5e5" stroke="#dddddd" points="466,-224 306,-224 306,-166 466,-166 466,-224"/>
<text text-anchor="start" x="318" y="-204.2" font-family="Helvetica,sans-Serif" font-weight="bold" font-size="16.00" fill="#707070">DataSource</text>
<text text-anchor="start" x="318" y="-179.2" font-family="Helvetica,sans-Serif" font-size="16.00" fill="#383838">lambdaDatasource</text>
</g>
<!-- DataSource::lambdaDatasource&#45;&gt;GraphqlApi::cdk&#45;notes&#45;appsync&#45;api -->
<g id="edge1" class="edge">
<title>DataSource::lambdaDatasource&#45;&gt;GraphqlApi::cdk&#45;notes&#45;appsync&#45;api</title>
<path fill="none" stroke="#707070" d="M466.27,-221.32C478.2,-225.05 490.4,-228.72 502,-232 518.92,-236.78 536.98,-241.52 554.58,-245.95"/>
<polygon fill="#707070" stroke="#707070" points="553.75,-249.35 564.3,-248.38 555.44,-242.56 553.75,-249.35"/>
</g>
<!-- Role::AppsyncCdkAppStack&#45;ApilambdaDatasourceServiceRole2&#45;1BX1MTO4H3KAG -->
<g id="node9" class="node">
<title>Role::AppsyncCdkAppStack&#45;ApilambdaDatasourceServiceRole2&#45;1BX1MTO4H3KAG</title>
<polygon fill="#e5e5e5" stroke="#dddddd" points="815,-147 502,-147 502,-89 815,-89 815,-147"/>
<text text-anchor="start" x="514.5" y="-127.2" font-family="Helvetica,sans-Serif" font-weight="bold" font-size="16.00" fill="#707070">Role</text>
<text text-anchor="start" x="514.5" y="-102.2" font-family="Helvetica,sans-Serif" font-size="16.00" fill="#383838">AppsyncCdkAppStack&#45;ApilambdaData...</text>
</g>
<!-- DataSource::lambdaDatasource&#45;&gt;Role::AppsyncCdkAppStack&#45;ApilambdaDatasourceServiceRole2&#45;1BX1MTO4H3KAG -->
<g id="edge2" class="edge">
<title>DataSource::lambdaDatasource&#45;&gt;Role::AppsyncCdkAppStack&#45;ApilambdaDatasourceServiceRole2&#45;1BX1MTO4H3KAG</title>
<path fill="none" stroke="#707070" d="M466.21,-167.13C478.15,-163.22 490.36,-159.39 502,-156 509.32,-153.87 516.85,-151.76 524.47,-149.69"/>
<polygon fill="#707070" stroke="#707070" points="525.41,-153.06 534.16,-147.09 523.59,-146.3 525.41,-153.06"/>
</g>
<!-- Function::lambda&#45;fns -->
<g id="node11" class="node">
<title>Function::lambda&#45;fns</title>
<polygon fill="#e5e5e5" stroke="#dddddd" points="711,-223 606,-223 606,-165 711,-165 711,-223"/>
<text text-anchor="start" x="618.5" y="-203.2" font-family="Helvetica,sans-Serif" font-weight="bold" font-size="16.00" fill="#707070">Function</text>
<text text-anchor="start" x="618.5" y="-178.2" font-family="Helvetica,sans-Serif" font-size="16.00" fill="#383838">lambda&#45;fns</text>
</g>
<!-- DataSource::lambdaDatasource&#45;&gt;Function::lambda&#45;fns -->
<g id="edge3" class="edge">
<title>DataSource::lambdaDatasource&#45;&gt;Function::lambda&#45;fns</title>
<path fill="none" stroke="#707070" d="M466.33,-194.71C507.69,-194.55 557.51,-194.37 595.92,-194.23"/>
<polygon fill="#707070" stroke="#707070" points="595.95,-197.73 605.94,-194.19 595.92,-190.73 595.95,-197.73"/>
</g>
<!-- Resolver::resolver::Mutation::createNote -->
<g id="node3" class="node">
<title>Resolver::resolver::Mutation::createNote</title>
<polygon fill="#e5e5e5" stroke="#dddddd" points="267.5,-129 26.5,-129 26.5,-71 267.5,-71 267.5,-129"/>
<text text-anchor="start" x="39" y="-109.2" font-family="Helvetica,sans-Serif" font-weight="bold" font-size="16.00" fill="#707070">Resolver</text>
<text text-anchor="start" x="39" y="-84.2" font-family="Helvetica,sans-Serif" font-size="16.00" fill="#383838">resolver::Mutation::createNote</text>
</g>
<!-- Resolver::resolver::Mutation::createNote&#45;&gt;GraphqlApi::cdk&#45;notes&#45;appsync&#45;api -->
<g id="edge4" class="edge">
<title>Resolver::resolver::Mutation::createNote&#45;&gt;GraphqlApi::cdk&#45;notes&#45;appsync&#45;api</title>
<path fill="none" stroke="#707070" d="M267.6,-96.09C332.15,-99.79 409.87,-114.3 466,-157 495.43,-179.39 473.28,-208.71 502,-232 517.07,-244.22 535.49,-252.61 554.31,-258.33"/>
<polygon fill="#707070" stroke="#707070" points="553.6,-261.77 564.17,-261.09 555.48,-255.03 553.6,-261.77"/>
</g>
<!-- Resolver::resolver::Mutation::createNote&#45;&gt;DataSource::lambdaDatasource -->
<g id="edge5" class="edge">
<title>Resolver::resolver::Mutation::createNote&#45;&gt;DataSource::lambdaDatasource</title>
<path fill="none" stroke="#707070" d="M246.04,-129.03C254.2,-131.9 262.28,-134.91 270,-138 287.1,-144.85 305.16,-153.22 321.76,-161.42"/>
<polygon fill="#707070" stroke="#707070" points="320.31,-164.61 330.82,-165.94 323.44,-158.35 320.31,-164.61"/>
</g>
<!-- Resolver::resolver::Mutation::deleteNote -->
<g id="node4" class="node">
<title>Resolver::resolver::Mutation::deleteNote</title>
<polygon fill="#e5e5e5" stroke="#dddddd" points="267.5,-433 26.5,-433 26.5,-375 267.5,-375 267.5,-433"/>
<text text-anchor="start" x="39" y="-413.2" font-family="Helvetica,sans-Serif" font-weight="bold" font-size="16.00" fill="#707070">Resolver</text>
<text text-anchor="start" x="39" y="-388.2" font-family="Helvetica,sans-Serif" font-size="16.00" fill="#383838">resolver::Mutation::deleteNote</text>
</g>
<!-- Resolver::resolver::Mutation::deleteNote&#45;&gt;GraphqlApi::cdk&#45;notes&#45;appsync&#45;api -->
<g id="edge6" class="edge">
<title>Resolver::resolver::Mutation::deleteNote&#45;&gt;GraphqlApi::cdk&#45;notes&#45;appsync&#45;api</title>
<path fill="none" stroke="#707070" d="M258.55,-374.92C346.48,-351.8 468.57,-319.69 554.47,-297.1"/>
<polygon fill="#707070" stroke="#707070" points="555.45,-300.46 564.24,-294.53 553.67,-293.69 555.45,-300.46"/>
</g>
<!-- Resolver::resolver::Mutation::deleteNote&#45;&gt;DataSource::lambdaDatasource -->
<g id="edge7" class="edge">
<title>Resolver::resolver::Mutation::deleteNote&#45;&gt;DataSource::lambdaDatasource</title>
<path fill="none" stroke="#707070" d="M256.17,-374.94C261,-372.22 265.64,-369.25 270,-366 316.28,-331.51 349.9,-272.58 368.44,-233.71"/>
<polygon fill="#707070" stroke="#707070" points="371.78,-234.83 372.83,-224.29 365.43,-231.88 371.78,-234.83"/>
</g>
<!-- Resolver::resolver::Mutation::updateNote -->
<g id="node5" class="node">
<title>Resolver::resolver::Mutation::updateNote</title>
<polygon fill="#e5e5e5" stroke="#dddddd" points="270,-357 24,-357 24,-299 270,-299 270,-357"/>
<text text-anchor="start" x="36" y="-337.2" font-family="Helvetica,sans-Serif" font-weight="bold" font-size="16.00" fill="#707070">Resolver</text>
<text text-anchor="start" x="36" y="-312.2" font-family="Helvetica,sans-Serif" font-size="16.00" fill="#383838">resolver::Mutation::updateNote</text>
</g>
<!-- Resolver::resolver::Mutation::updateNote&#45;&gt;GraphqlApi::cdk&#45;notes&#45;appsync&#45;api -->
<g id="edge8" class="edge">
<title>Resolver::resolver::Mutation::updateNote&#45;&gt;GraphqlApi::cdk&#45;notes&#45;appsync&#45;api</title>
<path fill="none" stroke="#707070" d="M270.04,-314.11C356.8,-304.23 472.05,-291.11 554.25,-281.75"/>
<polygon fill="#707070" stroke="#707070" points="554.82,-285.21 564.36,-280.6 554.03,-278.26 554.82,-285.21"/>
</g>
<!-- Resolver::resolver::Mutation::updateNote&#45;&gt;DataSource::lambdaDatasource -->
<g id="edge9" class="edge">
<title>Resolver::resolver::Mutation::updateNote&#45;&gt;DataSource::lambdaDatasource</title>
<path fill="none" stroke="#707070" d="M251.37,-298.99C257.79,-296.21 264.05,-293.22 270,-290 298.8,-274.41 327.21,-251.04 348.59,-231.38"/>
<polygon fill="#707070" stroke="#707070" points="351.22,-233.71 356.13,-224.32 346.44,-228.6 351.22,-233.71"/>
</g>
<!-- Resolver::resolver::Query::getNoteById -->
<g id="node6" class="node">
<title>Resolver::resolver::Query::getNoteById</title>
<polygon fill="#e5e5e5" stroke="#dddddd" points="263.5,-281 30.5,-281 30.5,-223 263.5,-223 263.5,-281"/>
<text text-anchor="start" x="43" y="-261.2" font-family="Helvetica,sans-Serif" font-weight="bold" font-size="16.00" fill="#707070">Resolver</text>
<text text-anchor="start" x="43" y="-236.2" font-family="Helvetica,sans-Serif" font-size="16.00" fill="#383838">resolver::Query::getNoteById</text>
</g>
<!-- Resolver::resolver::Query::getNoteById&#45;&gt;GraphqlApi::cdk&#45;notes&#45;appsync&#45;api -->
<g id="edge10" class="edge">
<title>Resolver::resolver::Query::getNoteById&#45;&gt;GraphqlApi::cdk&#45;notes&#45;appsync&#45;api</title>
<path fill="none" stroke="#707070" d="M263.61,-256.08C351.07,-259.17 470.1,-263.38 554.35,-266.36"/>
<polygon fill="#707070" stroke="#707070" points="554.33,-269.86 564.45,-266.71 554.58,-262.86 554.33,-269.86"/>
</g>
<!-- Resolver::resolver::Query::getNoteById&#45;&gt;DataSource::lambdaDatasource -->
<g id="edge11" class="edge">
<title>Resolver::resolver::Query::getNoteById&#45;&gt;DataSource::lambdaDatasource</title>
<path fill="none" stroke="#707070" d="M263.72,-224.17C274.5,-221.58 285.3,-218.98 295.78,-216.46"/>
<polygon fill="#707070" stroke="#707070" points="296.81,-219.81 305.72,-214.07 295.18,-213 296.81,-219.81"/>
</g>
<!-- Resolver::resolver::Query::listNotes -->
<g id="node7" class="node">
<title>Resolver::resolver::Query::listNotes</title>
<polygon fill="#e5e5e5" stroke="#dddddd" points="250.5,-205 43.5,-205 43.5,-147 250.5,-147 250.5,-205"/>
<text text-anchor="start" x="56" y="-185.2" font-family="Helvetica,sans-Serif" font-weight="bold" font-size="16.00" fill="#707070">Resolver</text>
<text text-anchor="start" x="56" y="-160.2" font-family="Helvetica,sans-Serif" font-size="16.00" fill="#383838">resolver::Query::listNotes</text>
</g>
<!-- Resolver::resolver::Query::listNotes&#45;&gt;GraphqlApi::cdk&#45;notes&#45;appsync&#45;api -->
<g id="edge12" class="edge">
<title>Resolver::resolver::Query::listNotes&#45;&gt;GraphqlApi::cdk&#45;notes&#45;appsync&#45;api</title>
<path fill="none" stroke="#707070" d="M246.78,-205.05C254.7,-207.9 262.52,-210.89 270,-214 286.71,-220.94 288.69,-227.74 306,-233 329.29,-240.08 458.82,-252.61 553.89,-261.1"/>
<polygon fill="#707070" stroke="#707070" points="553.87,-264.61 564.14,-262.01 554.49,-257.64 553.87,-264.61"/>
</g>
<!-- Resolver::resolver::Query::listNotes&#45;&gt;DataSource::lambdaDatasource -->
<g id="edge13" class="edge">
<title>Resolver::resolver::Query::listNotes&#45;&gt;DataSource::lambdaDatasource</title>
<path fill="none" stroke="#707070" d="M250.57,-184.22C265.62,-185.43 281.01,-186.66 295.76,-187.85"/>
<polygon fill="#707070" stroke="#707070" points="295.6,-191.34 305.85,-188.65 296.16,-184.37 295.6,-191.34"/>
</g>
<!-- Table::AppsyncCdkAppStack&#45;CDKNotesTable254A7FD1&#45;1K1O8M7V6LS1R -->
<g id="node8" class="node">
<title>Table::AppsyncCdkAppStack&#45;CDKNotesTable254A7FD1&#45;1K1O8M7V6LS1R</title>
<polygon fill="#e5e5e5" stroke="#dddddd" points="1525,-223 1208,-223 1208,-165 1525,-165 1525,-223"/>
<text text-anchor="start" x="1220.5" y="-203.2" font-family="Helvetica,sans-Serif" font-weight="bold" font-size="16.00" fill="#707070">Table</text>
<text text-anchor="start" x="1220.5" y="-178.2" font-family="Helvetica,sans-Serif" font-size="16.00" fill="#383838">AppsyncCdkAppStack&#45;CDKNotesTable...</text>
</g>
<!-- Role::AppsyncCdkAppStack&#45;AppSyncNotesHandlerServiceRole3&#45;V8HWDRIU57TV -->
<g id="node10" class="node">
<title>Role::AppsyncCdkAppStack&#45;AppSyncNotesHandlerServiceRole3&#45;V8HWDRIU57TV</title>
<polygon fill="#e5e5e5" stroke="#dddddd" points="1172,-247 851,-247 851,-189 1172,-189 1172,-247"/>
<text text-anchor="start" x="863.5" y="-227.2" font-family="Helvetica,sans-Serif" font-weight="bold" font-size="16.00" fill="#707070">Role</text>
<text text-anchor="start" x="863.5" y="-202.2" font-family="Helvetica,sans-Serif" font-size="16.00" fill="#383838">AppsyncCdkAppStack&#45;AppSyncNotesH...</text>
</g>
<!-- Role::AppsyncCdkAppStack&#45;AppSyncNotesHandlerServiceRole3&#45;V8HWDRIU57TV&#45;&gt;Table::AppsyncCdkAppStack&#45;CDKNotesTable254A7FD1&#45;1K1O8M7V6LS1R -->
<g id="edge14" class="edge">
<title>Role::AppsyncCdkAppStack&#45;AppSyncNotesHandlerServiceRole3&#45;V8HWDRIU57TV&#45;&gt;Table::AppsyncCdkAppStack&#45;CDKNotesTable254A7FD1&#45;1K1O8M7V6LS1R</title>
<path fill="none" stroke="#707070" d="M1172.22,-207.14C1180.75,-206.56 1189.33,-205.98 1197.88,-205.4"/>
<polygon fill="#707070" stroke="#707070" points="1198.17,-208.88 1207.91,-204.71 1197.69,-201.9 1198.17,-208.88"/>
</g>
<!-- Function::lambda&#45;fns&#45;&gt;Table::AppsyncCdkAppStack&#45;CDKNotesTable254A7FD1&#45;1K1O8M7V6LS1R -->
<g id="edge16" class="edge">
<title>Function::lambda&#45;fns&#45;&gt;Table::AppsyncCdkAppStack&#45;CDKNotesTable254A7FD1&#45;1K1O8M7V6LS1R</title>
<path fill="none" stroke="#707070" d="M711.06,-189.21C749.57,-185.87 803.53,-181.73 851,-180 993.57,-174.8 1029.43,-174.85 1172,-180 1180.41,-180.3 1189.02,-180.68 1197.71,-181.12"/>
<polygon fill="#707070" stroke="#707070" points="1197.77,-184.62 1207.94,-181.65 1198.13,-177.63 1197.77,-184.62"/>
</g>
<!-- Function::lambda&#45;fns&#45;&gt;Role::AppsyncCdkAppStack&#45;AppSyncNotesHandlerServiceRole3&#45;V8HWDRIU57TV -->
<g id="edge15" class="edge">
<title>Function::lambda&#45;fns&#45;&gt;Role::AppsyncCdkAppStack&#45;AppSyncNotesHandlerServiceRole3&#45;V8HWDRIU57TV</title>
<path fill="none" stroke="#707070" d="M711.29,-197.54C745.92,-199.91 793.62,-203.17 840.76,-206.39"/>
<polygon fill="#707070" stroke="#707070" points="840.6,-209.89 850.81,-207.08 841.07,-202.91 840.6,-209.89"/>
</g>
</g>
</svg>
