<?xml version="1.0" encoding="UTF-8" standalone="no"?>
<!DOCTYPE svg PUBLIC "-//W3C//DTD SVG 1.1//EN"
 "http://www.w3.org/Graphics/SVG/1.1/DTD/svg11.dtd">
<!-- Generated by graphviz version 2.44.1 (20200629.0846)
 -->
<!-- Title: graphname Pages: 1 -->
<svg width="1607pt" height="617pt"
 viewBox="0.00 0.00 1607.00 617.00" xmlns="http://www.w3.org/2000/svg" xmlns:xlink="http://www.w3.org/1999/xlink">
<g id="graph0" class="graph" transform="scale(1 1) rotate(0) translate(4 613)">
<title>graphname</title>
<polygon fill="#fafafa" stroke="transparent" points="-4,4 -4,-613 1603,-613 1603,4 -4,4"/>
<text text-anchor="start" x="719.5" y="-584.4" font-family="Helvetica,sans-Serif" font-weight="bold" font-size="22.00" fill="#383838">Project graphql</text>
<text text-anchor="start" x="796" y="-568.8" font-family="Helvetica,sans-Serif" font-size="14.00"> &#160;</text>
<text text-anchor="start" x="719.5" y="-547.2" font-family="Helvetica,sans-Serif" font-weight="bold" font-size="16.00" fill="#707070">Live Diagram</text>
<g id="clust1" class="cluster">
<title>cluster_aws</title>
<polygon fill="#f5f5f5" stroke="#f5f5f5" points="8,-8 8,-525 1591,-525 1591,-8 8,-8"/>
<text text-anchor="start" x="737.5" y="-23" font-family="Helvetica,sans-Serif" font-weight="bold" font-size="20.00" fill="#707070">Provider aws</text>
</g>
<g id="clust2" class="cluster">
<title>cluster_aws_</title>
<polygon fill="#eeeeee" stroke="#eeeeee" points="16,-54 16,-517 1583,-517 1583,-54 16,-54"/>
<text text-anchor="start" x="799.36" y="-58.3" font-family="Helvetica,sans-Serif" font-size="1.00" fill="#383838"> </text>
</g>
<!-- DataSource::::lambdaDatasource -->
<g id="node1" class="node">
<title>DataSource::::lambdaDatasource</title>
<polygon fill="#e5e5e5" stroke="#dddddd" points="570,-300 377,-300 377,-242 570,-242 570,-300"/>
<text text-anchor="start" x="389.5" y="-280.2" font-family="Helvetica,sans-Serif" font-weight="bold" font-size="16.00" fill="#707070">AppSync::DataSource</text>
<text text-anchor="start" x="389.5" y="-255.2" font-family="Helvetica,sans-Serif" font-size="16.00" fill="#383838">lambdaDatasource</text>
</g>
<!-- GraphqlApi::::cdk&#45;notes&#45;appsync&#45;api -->
<g id="node2" class="node">
<title>GraphqlApi::::cdk&#45;notes&#45;appsync&#45;api</title>
<polygon fill="#e5e5e5" stroke="#dddddd" points="858,-372 667,-372 667,-314 858,-314 858,-372"/>
<text text-anchor="start" x="679.5" y="-352.2" font-family="Helvetica,sans-Serif" font-weight="bold" font-size="16.00" fill="#707070">AppSync::GraphqlApi</text>
<text text-anchor="start" x="679.5" y="-327.2" font-family="Helvetica,sans-Serif" font-size="16.00" fill="#383838">cdk&#45;notes&#45;appsync&#45;api</text>
</g>
<!-- DataSource::::lambdaDatasource&#45;&gt;GraphqlApi::::cdk&#45;notes&#45;appsync&#45;api -->
<g id="edge1" class="edge">
<title>DataSource::::lambdaDatasource&#45;&gt;GraphqlApi::::cdk&#45;notes&#45;appsync&#45;api</title>
<path fill="none" stroke="#707070" d="M570.34,-295.94C582.34,-299.01 594.45,-302.1 606,-305 622.45,-309.14 639.89,-313.46 656.92,-317.65"/>
<polygon fill="#707070" stroke="#707070" points="656.34,-321.11 666.88,-320.09 658.01,-314.31 656.34,-321.11"/>
</g>
<!-- Role::::AppsyncCdkAppStack&#45;ApilambdaDatasourceServiceRole2&#45;1BX1MTO4H3KAG -->
<g id="node10" class="node">
<title>Role::::AppsyncCdkAppStack&#45;ApilambdaDatasourceServiceRole2&#45;1BX1MTO4H3KAG</title>
<polygon fill="#e5e5e5" stroke="#dddddd" points="919,-220 606,-220 606,-162 919,-162 919,-220"/>
<text text-anchor="start" x="618.5" y="-200.2" font-family="Helvetica,sans-Serif" font-weight="bold" font-size="16.00" fill="#707070">IAM::Role</text>
<text text-anchor="start" x="618.5" y="-175.2" font-family="Helvetica,sans-Serif" font-size="16.00" fill="#383838">AppsyncCdkAppStack&#45;ApilambdaData...</text>
</g>
<!-- DataSource::::lambdaDatasource&#45;&gt;Role::::AppsyncCdkAppStack&#45;ApilambdaDatasourceServiceRole2&#45;1BX1MTO4H3KAG -->
<g id="edge2" class="edge">
<title>DataSource::::lambdaDatasource&#45;&gt;Role::::AppsyncCdkAppStack&#45;ApilambdaDatasourceServiceRole2&#45;1BX1MTO4H3KAG</title>
<path fill="none" stroke="#707070" d="M562.66,-241.91C577.1,-237.42 591.93,-232.96 606,-229 613.61,-226.86 621.44,-224.72 629.36,-222.62"/>
<polygon fill="#707070" stroke="#707070" points="630.27,-226 639.06,-220.07 628.49,-219.23 630.27,-226"/>
</g>
<!-- Function::::lambda&#45;fns -->
<g id="node12" class="node">
<title>Function::::lambda&#45;fns</title>
<polygon fill="#e5e5e5" stroke="#dddddd" points="844.5,-296 680.5,-296 680.5,-238 844.5,-238 844.5,-296"/>
<text text-anchor="start" x="692.5" y="-276.2" font-family="Helvetica,sans-Serif" font-weight="bold" font-size="16.00" fill="#707070">Lambda::Function</text>
<text text-anchor="start" x="692.5" y="-251.2" font-family="Helvetica,sans-Serif" font-size="16.00" fill="#383838">lambda&#45;fns</text>
</g>
<!-- DataSource::::lambdaDatasource&#45;&gt;Function::::lambda&#45;fns -->
<g id="edge3" class="edge">
<title>DataSource::::lambdaDatasource&#45;&gt;Function::::lambda&#45;fns</title>
<path fill="none" stroke="#707070" d="M570.07,-269.67C602.29,-269.22 638.16,-268.72 670.05,-268.27"/>
<polygon fill="#707070" stroke="#707070" points="670.31,-271.77 680.26,-268.13 670.21,-264.77 670.31,-271.77"/>
</g>
<!-- Resolver::::resolver::Mutation::createNote -->
<g id="node3" class="node">
<title>Resolver::::resolver::Mutation::createNote</title>
<polygon fill="#e5e5e5" stroke="#dddddd" points="303,-205 62,-205 62,-147 303,-147 303,-205"/>
<text text-anchor="start" x="74.5" y="-185.2" font-family="Helvetica,sans-Serif" font-weight="bold" font-size="16.00" fill="#707070">AppSync::Resolver</text>
<text text-anchor="start" x="74.5" y="-160.2" font-family="Helvetica,sans-Serif" font-size="16.00" fill="#383838">resolver::Mutation::createNote</text>
</g>
<!-- Resolver::::resolver::Mutation::createNote&#45;&gt;DataSource::::lambdaDatasource -->
<g id="edge5" class="edge">
<title>Resolver::::resolver::Mutation::createNote&#45;&gt;DataSource::::lambdaDatasource</title>
<path fill="none" stroke="#707070" d="M303.22,-202.59C316.06,-206.12 328.86,-209.94 341,-214 361.18,-220.75 382.55,-229.35 402.06,-237.81"/>
<polygon fill="#707070" stroke="#707070" points="400.91,-241.13 411.48,-241.95 403.73,-234.72 400.91,-241.13"/>
</g>
<!-- Resolver::::resolver::Mutation::createNote&#45;&gt;GraphqlApi::::cdk&#45;notes&#45;appsync&#45;api -->
<g id="edge4" class="edge">
<title>Resolver::::resolver::Mutation::createNote&#45;&gt;GraphqlApi::::cdk&#45;notes&#45;appsync&#45;api</title>
<path fill="none" stroke="#707070" d="M303.17,-166.19C385.49,-165.56 493.37,-177.5 570,-233 598.98,-253.98 578.03,-282.69 606,-305 620.8,-316.81 638.73,-325.02 657.09,-330.72"/>
<polygon fill="#707070" stroke="#707070" points="656.13,-334.09 666.71,-333.47 658.06,-327.36 656.13,-334.09"/>
</g>
<!-- Resolver::::resolver::Mutation::deleteNote -->
<g id="node4" class="node">
<title>Resolver::::resolver::Mutation::deleteNote</title>
<polygon fill="#e5e5e5" stroke="#dddddd" points="303,-509 62,-509 62,-451 303,-451 303,-509"/>
<text text-anchor="start" x="74.5" y="-489.2" font-family="Helvetica,sans-Serif" font-weight="bold" font-size="16.00" fill="#707070">AppSync::Resolver</text>
<text text-anchor="start" x="74.5" y="-464.2" font-family="Helvetica,sans-Serif" font-size="16.00" fill="#383838">resolver::Mutation::deleteNote</text>
</g>
<!-- Resolver::::resolver::Mutation::deleteNote&#45;&gt;DataSource::::lambdaDatasource -->
<g id="edge7" class="edge">
<title>Resolver::::resolver::Mutation::deleteNote&#45;&gt;DataSource::::lambdaDatasource</title>
<path fill="none" stroke="#707070" d="M303.23,-460.37C316.54,-455.53 329.44,-449.51 341,-442 392.18,-408.76 431.48,-348.56 453.29,-309.19"/>
<polygon fill="#707070" stroke="#707070" points="456.5,-310.6 458.2,-300.14 450.35,-307.26 456.5,-310.6"/>
</g>
<!-- Resolver::::resolver::Mutation::deleteNote&#45;&gt;GraphqlApi::::cdk&#45;notes&#45;appsync&#45;api -->
<g id="edge6" class="edge">
<title>Resolver::::resolver::Mutation::deleteNote&#45;&gt;GraphqlApi::::cdk&#45;notes&#45;appsync&#45;api</title>
<path fill="none" stroke="#707070" d="M303.26,-451.61C407.58,-426.89 557.33,-391.39 656.91,-367.79"/>
<polygon fill="#707070" stroke="#707070" points="657.77,-371.18 666.69,-365.47 656.15,-364.37 657.77,-371.18"/>
</g>
<!-- Resolver::::resolver::Mutation::updateNote -->
<g id="node5" class="node">
<title>Resolver::::resolver::Mutation::updateNote</title>
<polygon fill="#e5e5e5" stroke="#dddddd" points="305.5,-433 59.5,-433 59.5,-375 305.5,-375 305.5,-433"/>
<text text-anchor="start" x="71.5" y="-413.2" font-family="Helvetica,sans-Serif" font-weight="bold" font-size="16.00" fill="#707070">AppSync::Resolver</text>
<text text-anchor="start" x="71.5" y="-388.2" font-family="Helvetica,sans-Serif" font-size="16.00" fill="#383838">resolver::Mutation::updateNote</text>
</g>
<!-- Resolver::::resolver::Mutation::updateNote&#45;&gt;DataSource::::lambdaDatasource -->
<g id="edge9" class="edge">
<title>Resolver::::resolver::Mutation::updateNote&#45;&gt;DataSource::::lambdaDatasource</title>
<path fill="none" stroke="#707070" d="M305.51,-379.62C317.72,-375.69 329.76,-371.17 341,-366 374.13,-350.76 407.39,-326.63 432.17,-306.51"/>
<polygon fill="#707070" stroke="#707070" points="434.42,-309.19 439.91,-300.13 429.96,-303.79 434.42,-309.19"/>
</g>
<!-- Resolver::::resolver::Mutation::updateNote&#45;&gt;GraphqlApi::::cdk&#45;notes&#45;appsync&#45;api -->
<g id="edge8" class="edge">
<title>Resolver::::resolver::Mutation::updateNote&#45;&gt;GraphqlApi::::cdk&#45;notes&#45;appsync&#45;api</title>
<path fill="none" stroke="#707070" d="M305.73,-391.1C409.82,-380.11 557.8,-364.5 656.6,-354.07"/>
<polygon fill="#707070" stroke="#707070" points="657.03,-357.55 666.6,-353.01 656.29,-350.58 657.03,-357.55"/>
</g>
<!-- Resolver::::resolver::Query::getNoteById -->
<g id="node6" class="node">
<title>Resolver::::resolver::Query::getNoteById</title>
<polygon fill="#e5e5e5" stroke="#dddddd" points="299,-357 66,-357 66,-299 299,-299 299,-357"/>
<text text-anchor="start" x="78.5" y="-337.2" font-family="Helvetica,sans-Serif" font-weight="bold" font-size="16.00" fill="#707070">AppSync::Resolver</text>
<text text-anchor="start" x="78.5" y="-312.2" font-family="Helvetica,sans-Serif" font-size="16.00" fill="#383838">resolver::Query::getNoteById</text>
</g>
<!-- Resolver::::resolver::Query::getNoteById&#45;&gt;DataSource::::lambdaDatasource -->
<g id="edge11" class="edge">
<title>Resolver::::resolver::Query::getNoteById&#45;&gt;DataSource::::lambdaDatasource</title>
<path fill="none" stroke="#707070" d="M299.38,-305.14C321.72,-300.74 345,-296.15 366.98,-291.81"/>
<polygon fill="#707070" stroke="#707070" points="367.85,-295.21 376.98,-289.84 366.49,-288.34 367.85,-295.21"/>
</g>
<!-- Resolver::::resolver::Query::getNoteById&#45;&gt;GraphqlApi::::cdk&#45;notes&#45;appsync&#45;api -->
<g id="edge10" class="edge">
<title>Resolver::::resolver::Query::getNoteById&#45;&gt;GraphqlApi::::cdk&#45;notes&#45;appsync&#45;api</title>
<path fill="none" stroke="#707070" d="M299.08,-331C403.39,-333.71 555.53,-337.65 656.45,-340.27"/>
<polygon fill="#707070" stroke="#707070" points="656.58,-343.78 666.67,-340.54 656.76,-336.78 656.58,-343.78"/>
</g>
<!-- Resolver::::resolver::Query::listNotes -->
<g id="node7" class="node">
<title>Resolver::::resolver::Query::listNotes</title>
<polygon fill="#e5e5e5" stroke="#dddddd" points="286,-281 79,-281 79,-223 286,-223 286,-281"/>
<text text-anchor="start" x="91.5" y="-261.2" font-family="Helvetica,sans-Serif" font-weight="bold" font-size="16.00" fill="#707070">AppSync::Resolver</text>
<text text-anchor="start" x="91.5" y="-236.2" font-family="Helvetica,sans-Serif" font-size="16.00" fill="#383838">resolver::Query::listNotes</text>
</g>
<!-- Resolver::::resolver::Query::listNotes&#45;&gt;DataSource::::lambdaDatasource -->
<g id="edge13" class="edge">
<title>Resolver::::resolver::Query::listNotes&#45;&gt;DataSource::::lambdaDatasource</title>
<path fill="none" stroke="#707070" d="M286.2,-258.75C312.39,-260.47 340.57,-262.33 366.9,-264.06"/>
<polygon fill="#707070" stroke="#707070" points="366.68,-267.55 376.89,-264.71 367.14,-260.57 366.68,-267.55"/>
</g>
<!-- Resolver::::resolver::Query::listNotes&#45;&gt;GraphqlApi::::cdk&#45;notes&#45;appsync&#45;api -->
<g id="edge12" class="edge">
<title>Resolver::::resolver::Query::listNotes&#45;&gt;GraphqlApi::::cdk&#45;notes&#45;appsync&#45;api</title>
<path fill="none" stroke="#707070" d="M286.29,-272.88C304.75,-277.74 323.63,-283.44 341,-290 357.92,-296.39 359.65,-303.88 377,-309 390.3,-312.93 547.25,-326 656.46,-334.74"/>
<polygon fill="#707070" stroke="#707070" points="656.3,-338.24 666.55,-335.55 656.86,-331.26 656.3,-338.24"/>
</g>
<!-- Table::::AppsyncCdkAppStack&#45;CDKNotesTable254A7FD1&#45;1K1O8M7V6LS1R -->
<g id="node8" class="node">
<title>Table::::AppsyncCdkAppStack&#45;CDKNotesTable254A7FD1&#45;1K1O8M7V6LS1R</title>
<polygon fill="#e5e5e5" stroke="#dddddd" points="341,-129 24,-129 24,-71 341,-71 341,-129"/>
<text text-anchor="start" x="36.5" y="-109.2" font-family="Helvetica,sans-Serif" font-weight="bold" font-size="16.00" fill="#707070">DynamoDB::Table</text>
<text text-anchor="start" x="36.5" y="-84.2" font-family="Helvetica,sans-Serif" font-size="16.00" fill="#383838">AppsyncCdkAppStack&#45;CDKNotesTable...</text>
</g>
<!-- Policy::::AWSLambdaBasicExecutionRole -->
<g id="node9" class="node">
<title>Policy::::AWSLambdaBasicExecutionRole</title>
<polygon fill="#e5e5e5" stroke="#dddddd" points="1575,-296 1312,-296 1312,-238 1575,-238 1575,-296"/>
<text text-anchor="start" x="1324.5" y="-276.2" font-family="Helvetica,sans-Serif" font-weight="bold" font-size="16.00" fill="#707070">IAM::Policy</text>
<text text-anchor="start" x="1324.5" y="-251.2" font-family="Helvetica,sans-Serif" font-size="16.00" fill="#383838">AWSLambdaBasicExecutionRole</text>
</g>
<!-- Role::::AppsyncCdkAppStack&#45;AppSyncNotesHandlerServiceRole3&#45;V8HWDRIU57TV -->
<g id="node11" class="node">
<title>Role::::AppsyncCdkAppStack&#45;AppSyncNotesHandlerServiceRole3&#45;V8HWDRIU57TV</title>
<polygon fill="#e5e5e5" stroke="#dddddd" points="1276,-296 955,-296 955,-238 1276,-238 1276,-296"/>
<text text-anchor="start" x="967.5" y="-276.2" font-family="Helvetica,sans-Serif" font-weight="bold" font-size="16.00" fill="#707070">IAM::Role</text>
<text text-anchor="start" x="967.5" y="-251.2" font-family="Helvetica,sans-Serif" font-size="16.00" fill="#383838">AppsyncCdkAppStack&#45;AppSyncNotesH...</text>
</g>
<!-- Role::::AppsyncCdkAppStack&#45;AppSyncNotesHandlerServiceRole3&#45;V8HWDRIU57TV&#45;&gt;Policy::::AWSLambdaBasicExecutionRole -->
<g id="edge14" class="edge">
<title>Role::::AppsyncCdkAppStack&#45;AppSyncNotesHandlerServiceRole3&#45;V8HWDRIU57TV&#45;&gt;Policy::::AWSLambdaBasicExecutionRole</title>
<path fill="none" stroke="#707070" d="M1276.16,-267C1284.64,-267 1293.14,-267 1301.56,-267"/>
<polygon fill="#707070" stroke="#707070" points="1301.79,-270.5 1311.79,-267 1301.79,-263.5 1301.79,-270.5"/>
</g>
<!-- Function::::lambda&#45;fns&#45;&gt;Role::::AppsyncCdkAppStack&#45;AppSyncNotesHandlerServiceRole3&#45;V8HWDRIU57TV -->
<g id="edge15" class="edge">
<title>Function::::lambda&#45;fns&#45;&gt;Role::::AppsyncCdkAppStack&#45;AppSyncNotesHandlerServiceRole3&#45;V8HWDRIU57TV</title>
<path fill="none" stroke="#707070" d="M844.91,-267C874.77,-267 909.79,-267 944.52,-267"/>
<polygon fill="#707070" stroke="#707070" points="944.79,-270.5 954.79,-267 944.79,-263.5 944.79,-270.5"/>
</g>
</g>
</svg>
