<?xml version="1.0" encoding="UTF-8" standalone="no"?><svg xmlns="http://www.w3.org/2000/svg" xmlns:xlink="http://www.w3.org/1999/xlink" contentScriptType="application/ecmascript" contentStyleType="text/css" height="454px" preserveAspectRatio="none" style="width:477px;height:454px;background:#FFFFFF;" version="1.1" viewBox="0 0 477 454" width="477px" zoomAndPan="magnify"><defs><filter height="300%" id="f5swttk2lx9u1" width="300%" x="-1" y="-1"><feGaussianBlur result="blurOut" stdDeviation="2.0"/><feColorMatrix in="blurOut" result="blurOut2" type="matrix" values="0 0 0 0 0 0 0 0 0 0 0 0 0 0 0 0 0 0 .4 0"/><feOffset dx="4.0" dy="4.0" in="blurOut2" result="blurOut3"/><feBlend in="SourceGraphic" in2="blurOut3" mode="normal"/></filter></defs><g><rect fill="none" height="26.4883" style="stroke:none;stroke-width:1.0;" width="224" x="96.5" y="15"/><text fill="#000000" font-family="sans-serif" font-size="14" font-weight="bold" lengthAdjust="spacing" textLength="214" x="101.5" y="33.5352">Resources for project graphql</text><rect fill="#F8F8F8" filter="url(#f5swttk2lx9u1)" height="36.4883" rx="12.5" ry="12.5" style="stroke:#383838;stroke-width:1.5;" width="52" x="10" y="226.9531"/><text fill="#000000" font-family="sans-serif" font-size="14" lengthAdjust="spacing" textLength="32" x="20" y="250.4883">Infra</text><rect fill="#F8F8F8" filter="url(#f5swttk2lx9u1)" height="36.4883" rx="12.5" ry="12.5" style="stroke:#383838;stroke-width:1.5;" width="46" x="112" y="226.9531"/><text fill="#000000" font-family="sans-serif" font-size="14" lengthAdjust="spacing" textLength="26" x="122" y="250.4883">aws</text><rect fill="#F8F8F8" filter="url(#f5swttk2lx9u1)" height="36.4883" rx="12.5" ry="12.5" style="stroke:#383838;stroke-width:1.5;" width="46" x="208" y="85.7324"/><text fill="#000000" font-family="sans-serif" font-size="14" lengthAdjust="spacing" textLength="26" x="218" y="109.2676">IAM</text><rect fill="#F8F8F8" filter="url(#f5swttk2lx9u1)" height="36.4883" rx="12.5" ry="12.5" style="stroke:#383838;stroke-width:1.5;" width="82" x="304" y="57.4883"/><text fill="#000000" font-family="sans-serif" font-size="14" lengthAdjust="spacing" textLength="62" x="314" y="81.0234">Policy (1)</text><path d="M254,103.9766 L264,103.9766 C279,103.9766 279,75.7324 294,75.7324 L304,75.7324 " fill="none" style="stroke:#383838;stroke-width:1.0;"/><rect fill="#F8F8F8" filter="url(#f5swttk2lx9u1)" height="36.4883" rx="12.5" ry="12.5" style="stroke:#383838;stroke-width:1.5;" width="73" x="304" y="113.9766"/><text fill="#000000" font-family="sans-serif" font-size="14" lengthAdjust="spacing" textLength="53" x="314" y="137.5117">Role (2)</text><path d="M254,103.9766 L264,103.9766 C279,103.9766 279,132.2207 294,132.2207 L304,132.2207 " fill="none" style="stroke:#383838;stroke-width:1.0;"/><path d="M158,245.1973 L168,245.1973 C183,245.1973 183,103.9766 198,103.9766 L208,103.9766 " fill="none" style="stroke:#383838;stroke-width:1.0;"/><rect fill="#F8F8F8" filter="url(#f5swttk2lx9u1)" height="36.4883" rx="12.5" ry="12.5" style="stroke:#383838;stroke-width:1.5;" width="94" x="208" y="170.4648"/><text fill="#000000" font-family="sans-serif" font-size="14" lengthAdjust="spacing" textLength="74" x="218" y="194">DynamoDB</text><rect fill="#F8F8F8" filter="url(#f5swttk2lx9u1)" height="36.4883" rx="12.5" ry="12.5" style="stroke:#383838;stroke-width:1.5;" width="81" x="352" y="170.4648"/><text fill="#000000" font-family="sans-serif" font-size="14" lengthAdjust="spacing" textLength="61" x="362" y="194">Table (1)</text><path d="M302,188.709 L312,188.709 C327,188.709 327,188.709 342,188.709 L352,188.709 " fill="none" style="stroke:#383838;stroke-width:1.0;"/><path d="M158,245.1973 L168,245.1973 C183,245.1973 183,188.709 198,188.709 L208,188.709 " fill="none" style="stroke:#383838;stroke-width:1.0;"/><rect fill="#F8F8F8" filter="url(#f5swttk2lx9u1)" height="36.4883" rx="12.5" ry="12.5" style="stroke:#383838;stroke-width:1.5;" width="79" x="208" y="283.4414"/><text fill="#000000" font-family="sans-serif" font-size="14" lengthAdjust="spacing" textLength="59" x="218" y="306.9766">AppSync</text><rect fill="#F8F8F8" filter="url(#f5swttk2lx9u1)" height="36.4883" rx="12.5" ry="12.5" style="stroke:#383838;stroke-width:1.5;" width="121" x="337" y="226.9531"/><text fill="#000000" font-family="sans-serif" font-size="14" lengthAdjust="spacing" textLength="101" x="347" y="250.4883">GraphqlApi (1)</text><path d="M287,301.6855 L297,301.6855 C312,301.6855 312,245.1973 327,245.1973 L337,245.1973 " fill="none" style="stroke:#383838;stroke-width:1.0;"/><rect fill="#F8F8F8" filter="url(#f5swttk2lx9u1)" height="36.4883" rx="12.5" ry="12.5" style="stroke:#383838;stroke-width:1.5;" width="101" x="337" y="283.4414"/><text fill="#000000" font-family="sans-serif" font-size="14" lengthAdjust="spacing" textLength="81" x="347" y="306.9766">Resolver (5)</text><path d="M287,301.6855 L297,301.6855 C312,301.6855 312,301.6855 327,301.6855 L337,301.6855 " fill="none" style="stroke:#383838;stroke-width:1.0;"/><rect fill="#F8F8F8" filter="url(#f5swttk2lx9u1)" height="36.4883" rx="12.5" ry="12.5" style="stroke:#383838;stroke-width:1.5;" width="121" x="337" y="339.9297"/><text fill="#000000" font-family="sans-serif" font-size="14" lengthAdjust="spacing" textLength="101" x="347" y="363.4648">DataSource (1)</text><path d="M287,301.6855 L297,301.6855 C312,301.6855 312,358.1738 327,358.1738 L337,358.1738 " fill="none" style="stroke:#383838;stroke-width:1.0;"/><path d="M158,245.1973 L168,245.1973 C183,245.1973 183,301.6855 198,301.6855 L208,301.6855 " fill="none" style="stroke:#383838;stroke-width:1.0;"/><rect fill="#F8F8F8" filter="url(#f5swttk2lx9u1)" height="36.4883" rx="12.5" ry="12.5" style="stroke:#383838;stroke-width:1.5;" width="74" x="208" y="396.418"/><text fill="#000000" font-family="sans-serif" font-size="14" lengthAdjust="spacing" textLength="54" x="218" y="419.9531">Lambda</text><rect fill="#F8F8F8" filter="url(#f5swttk2lx9u1)" height="36.4883" rx="12.5" ry="12.5" style="stroke:#383838;stroke-width:1.5;" width="103" x="332" y="396.418"/><text fill="#000000" font-family="sans-serif" font-size="14" lengthAdjust="spacing" textLength="83" x="342" y="419.9531">Function (1)</text><path d="M282,414.6621 L292,414.6621 C307,414.6621 307,414.6621 322,414.6621 L332,414.6621 " fill="none" style="stroke:#383838;stroke-width:1.0;"/><path d="M158,245.1973 L168,245.1973 C183,245.1973 183,414.6621 198,414.6621 L208,414.6621 " fill="none" style="stroke:#383838;stroke-width:1.0;"/><path d="M62,245.1973 L72,245.1973 C87,245.1973 87,245.1973 102,245.1973 L112,245.1973 " fill="none" style="stroke:#383838;stroke-width:1.0;"/><!--MD5=[86f4f65c2f12a496b888ef03745913fe]
@startmindmap
title Resources for project graphql
skinparam monochrome true
+ Infra
++ aws
+++ IAM
++++ Policy (1)
++++ Role (2)
+++ DynamoDB
++++ Table (1)
+++ AppSync
++++ GraphqlApi (1)
++++ Resolver (5)
++++ DataSource (1)
+++ Lambda
++++ Function (1)
@endmindmap

PlantUML version 1.2021.8(Sat Jun 26 05:20:59 BRT 2021)
(GPL source distribution)
Java Runtime: OpenJDK Runtime Environment
JVM: OpenJDK 64-Bit Server VM
Default Encoding: UTF-8
Language: en
Country: GB
--></g></svg>