<?xml version="1.0" encoding="UTF-8" standalone="no"?>
<!DOCTYPE svg PUBLIC "-//W3C//DTD SVG 1.1//EN"
 "http://www.w3.org/Graphics/SVG/1.1/DTD/svg11.dtd">
<!-- Generated by graphviz version 5.0.0 (20220707.1540)
 -->
<!-- Title: graphname Pages: 1 -->
<svg width="983pt" height="485pt"
 viewBox="0.00 0.00 983.00 485.00" xmlns="http://www.w3.org/2000/svg" xmlns:xlink="http://www.w3.org/1999/xlink">
<g id="graph0" class="graph" transform="scale(1 1) rotate(0) translate(4 481)">
<title>graphname</title>
<polygon fill="#fafafa" stroke="transparent" points="-4,4 -4,-481 979,-481 979,4 -4,4"/>
<text text-anchor="start" x="427.5" y="-452.4" font-family="Helvetica,sans-Serif" font-weight="bold" font-size="22.00" fill="#383838">Project vpn</text>
<text text-anchor="start" x="483.5" y="-436.8" font-family="Helvetica,sans-Serif" font-size="14.00"> &#160;</text>
<text text-anchor="start" x="427.5" y="-415.2" font-family="Helvetica,sans-Serif" font-weight="bold" font-size="16.00" fill="#707070">Target Diagram</text>
<g id="clust1" class="cluster">
<title>cluster_google</title>
<polygon fill="#f5f5f5" stroke="#f5f5f5" points="8,-8 8,-393 967,-393 967,-8 8,-8"/>
<text text-anchor="start" x="412.5" y="-23" font-family="Helvetica,sans-Serif" font-weight="bold" font-size="20.00" fill="#707070">Provider google</text>
</g>
<g id="clust2" class="cluster">
<title>cluster_google_</title>
<polygon fill="#eeeeee" stroke="#eeeeee" points="16,-54 16,-385 959,-385 959,-54 16,-54"/>
<text text-anchor="start" x="487.36" y="-58.3" font-family="Helvetica,sans-Serif" font-size="1.00" fill="#383838"> </text>
</g>
<!-- Address::ip&#45;vpn&#45;1 -->
<g id="node1" class="node">
<title>Address::ip&#45;vpn&#45;1</title>
<polygon fill="#e5e5e5" stroke="#dddddd" points="710,-357 544,-357 544,-299 710,-299 710,-357"/>
<text text-anchor="start" x="556" y="-337.2" font-family="Helvetica,sans-Serif" font-weight="bold" font-size="16.00" fill="#707070">compute::Address</text>
<text text-anchor="start" x="556" y="-312.2" font-family="Helvetica,sans-Serif" font-size="16.00" fill="#383838">ip&#45;vpn&#45;1</text>
</g>
<!-- ForwardingRule::vpn&#45;1&#45;rule&#45;esp -->
<g id="node2" class="node">
<title>ForwardingRule::vpn&#45;1&#45;rule&#45;esp</title>
<polygon fill="#e5e5e5" stroke="#dddddd" points="468,-357 245,-357 245,-299 468,-299 468,-357"/>
<text text-anchor="start" x="257.5" y="-337.2" font-family="Helvetica,sans-Serif" font-weight="bold" font-size="16.00" fill="#707070">compute::ForwardingRule</text>
<text text-anchor="start" x="257.5" y="-312.2" font-family="Helvetica,sans-Serif" font-size="16.00" fill="#383838">vpn&#45;1&#45;rule&#45;esp</text>
</g>
<!-- ForwardingRule::vpn&#45;1&#45;rule&#45;esp&#45;&gt;Address::ip&#45;vpn&#45;1 -->
<g id="edge1" class="edge">
<title>ForwardingRule::vpn&#45;1&#45;rule&#45;esp&#45;&gt;Address::ip&#45;vpn&#45;1</title>
<path fill="none" stroke="#707070" d="M468.26,-328C489.98,-328 512.56,-328 533.6,-328"/>
<polygon fill="#707070" stroke="#707070" points="533.8,-331.5 543.8,-328 533.8,-324.5 533.8,-331.5"/>
</g>
<!-- TargetVpnGateway::vpn&#45;1 -->
<g id="node8" class="node">
<title>TargetVpnGateway::vpn&#45;1</title>
<polygon fill="#e5e5e5" stroke="#dddddd" points="750,-205 504,-205 504,-147 750,-147 750,-205"/>
<text text-anchor="start" x="516" y="-185.2" font-family="Helvetica,sans-Serif" font-weight="bold" font-size="16.00" fill="#707070">compute::TargetVpnGateway</text>
<text text-anchor="start" x="516" y="-160.2" font-family="Helvetica,sans-Serif" font-size="16.00" fill="#383838">vpn&#45;1</text>
</g>
<!-- ForwardingRule::vpn&#45;1&#45;rule&#45;esp&#45;&gt;TargetVpnGateway::vpn&#45;1 -->
<g id="edge2" class="edge">
<title>ForwardingRule::vpn&#45;1&#45;rule&#45;esp&#45;&gt;TargetVpnGateway::vpn&#45;1</title>
<path fill="none" stroke="#707070" d="M456.33,-298.94C460.45,-296.22 464.37,-293.25 468,-290 495.86,-265.08 475.78,-238.51 504,-214 505.18,-212.98 506.38,-211.98 507.61,-211.01"/>
<polygon fill="#707070" stroke="#707070" points="509.95,-213.65 516.07,-205 505.89,-207.94 509.95,-213.65"/>
</g>
<!-- ForwardingRule::vpn&#45;1&#45;rule&#45;udp4500 -->
<g id="node3" class="node">
<title>ForwardingRule::vpn&#45;1&#45;rule&#45;udp4500</title>
<polygon fill="#e5e5e5" stroke="#dddddd" points="468,-281 245,-281 245,-223 468,-223 468,-281"/>
<text text-anchor="start" x="257.5" y="-261.2" font-family="Helvetica,sans-Serif" font-weight="bold" font-size="16.00" fill="#707070">compute::ForwardingRule</text>
<text text-anchor="start" x="257.5" y="-236.2" font-family="Helvetica,sans-Serif" font-size="16.00" fill="#383838">vpn&#45;1&#45;rule&#45;udp4500</text>
</g>
<!-- ForwardingRule::vpn&#45;1&#45;rule&#45;udp4500&#45;&gt;Address::ip&#45;vpn&#45;1 -->
<g id="edge3" class="edge">
<title>ForwardingRule::vpn&#45;1&#45;rule&#45;udp4500&#45;&gt;Address::ip&#45;vpn&#45;1</title>
<path fill="none" stroke="#707070" d="M460.16,-281.06C484.49,-287.94 510.29,-295.25 534.11,-301.99"/>
<polygon fill="#707070" stroke="#707070" points="533.25,-305.39 543.83,-304.74 535.16,-298.65 533.25,-305.39"/>
</g>
<!-- ForwardingRule::vpn&#45;1&#45;rule&#45;udp4500&#45;&gt;TargetVpnGateway::vpn&#45;1 -->
<g id="edge4" class="edge">
<title>ForwardingRule::vpn&#45;1&#45;rule&#45;udp4500&#45;&gt;TargetVpnGateway::vpn&#45;1</title>
<path fill="none" stroke="#707070" d="M460.16,-222.94C477.65,-217.99 495.89,-212.83 513.61,-207.81"/>
<polygon fill="#707070" stroke="#707070" points="514.73,-211.13 523.4,-205.04 512.82,-204.4 514.73,-211.13"/>
</g>
<!-- ForwardingRule::vpn&#45;1&#45;rule&#45;udp500 -->
<g id="node4" class="node">
<title>ForwardingRule::vpn&#45;1&#45;rule&#45;udp500</title>
<polygon fill="#e5e5e5" stroke="#dddddd" points="468,-205 245,-205 245,-147 468,-147 468,-205"/>
<text text-anchor="start" x="257.5" y="-185.2" font-family="Helvetica,sans-Serif" font-weight="bold" font-size="16.00" fill="#707070">compute::ForwardingRule</text>
<text text-anchor="start" x="257.5" y="-160.2" font-family="Helvetica,sans-Serif" font-size="16.00" fill="#383838">vpn&#45;1&#45;rule&#45;udp500</text>
</g>
<!-- ForwardingRule::vpn&#45;1&#45;rule&#45;udp500&#45;&gt;Address::ip&#45;vpn&#45;1 -->
<g id="edge5" class="edge">
<title>ForwardingRule::vpn&#45;1&#45;rule&#45;udp500&#45;&gt;Address::ip&#45;vpn&#45;1</title>
<path fill="none" stroke="#707070" d="M456.33,-205.06C460.45,-207.78 464.37,-210.75 468,-214 495.86,-238.92 475.78,-265.49 504,-290 512.96,-297.79 523.51,-303.98 534.59,-308.9"/>
<polygon fill="#707070" stroke="#707070" points="533.41,-312.2 543.99,-312.74 536.06,-305.72 533.41,-312.2"/>
</g>
<!-- ForwardingRule::vpn&#45;1&#45;rule&#45;udp500&#45;&gt;TargetVpnGateway::vpn&#45;1 -->
<g id="edge6" class="edge">
<title>ForwardingRule::vpn&#45;1&#45;rule&#45;udp500&#45;&gt;TargetVpnGateway::vpn&#45;1</title>
<path fill="none" stroke="#707070" d="M468.26,-176C476.58,-176 485.02,-176 493.45,-176"/>
<polygon fill="#707070" stroke="#707070" points="493.73,-179.5 503.73,-176 493.73,-172.5 493.73,-179.5"/>
</g>
<!-- Network::network -->
<g id="node5" class="node">
<title>Network::network</title>
<polygon fill="#e5e5e5" stroke="#dddddd" points="951,-281 786,-281 786,-223 951,-223 951,-281"/>
<text text-anchor="start" x="798.5" y="-261.2" font-family="Helvetica,sans-Serif" font-weight="bold" font-size="16.00" fill="#707070">compute::Network</text>
<text text-anchor="start" x="798.5" y="-236.2" font-family="Helvetica,sans-Serif" font-size="16.00" fill="#383838">network</text>
</g>
<!-- Route::vpn&#45;1&#45;tunnel&#45;1&#45;route&#45;1 -->
<g id="node6" class="node">
<title>Route::vpn&#45;1&#45;tunnel&#45;1&#45;route&#45;1</title>
<polygon fill="#e5e5e5" stroke="#dddddd" points="209,-253 24,-253 24,-195 209,-195 209,-253"/>
<text text-anchor="start" x="36.5" y="-233.2" font-family="Helvetica,sans-Serif" font-weight="bold" font-size="16.00" fill="#707070">compute::Route</text>
<text text-anchor="start" x="36.5" y="-208.2" font-family="Helvetica,sans-Serif" font-size="16.00" fill="#383838">vpn&#45;1&#45;tunnel&#45;1&#45;route&#45;1</text>
</g>
<!-- Route::vpn&#45;1&#45;tunnel&#45;1&#45;route&#45;1&#45;&gt;Network::network -->
<g id="edge7" class="edge">
<title>Route::vpn&#45;1&#45;tunnel&#45;1&#45;route&#45;1&#45;&gt;Network::network</title>
<path fill="none" stroke="#707070" d="M133.4,-253.24C153.98,-287.64 193.41,-342.99 245,-366 347.49,-411.72 646,-408.16 750,-366 788.07,-350.57 820.61,-316.22 841.73,-289.23"/>
<polygon fill="#707070" stroke="#707070" points="844.63,-291.2 847.91,-281.12 839.06,-286.96 844.63,-291.2"/>
</g>
<!-- VpnTunnel::vpn&#45;1&#45;tunnel&#45;1 -->
<g id="node9" class="node">
<title>VpnTunnel::vpn&#45;1&#45;tunnel&#45;1</title>
<polygon fill="#e5e5e5" stroke="#dddddd" points="448,-129 265,-129 265,-71 448,-71 448,-129"/>
<text text-anchor="start" x="277.5" y="-109.2" font-family="Helvetica,sans-Serif" font-weight="bold" font-size="16.00" fill="#707070">compute::VpnTunnel</text>
<text text-anchor="start" x="277.5" y="-84.2" font-family="Helvetica,sans-Serif" font-size="16.00" fill="#383838">vpn&#45;1&#45;tunnel&#45;1</text>
</g>
<!-- Route::vpn&#45;1&#45;tunnel&#45;1&#45;route&#45;1&#45;&gt;VpnTunnel::vpn&#45;1&#45;tunnel&#45;1 -->
<g id="edge8" class="edge">
<title>Route::vpn&#45;1&#45;tunnel&#45;1&#45;route&#45;1&#45;&gt;VpnTunnel::vpn&#45;1&#45;tunnel&#45;1</title>
<path fill="none" stroke="#707070" d="M154.95,-194.89C179.55,-176.77 212.98,-153.96 245,-138 248.38,-136.32 251.84,-134.68 255.37,-133.09"/>
<polygon fill="#707070" stroke="#707070" points="257.06,-136.17 264.84,-128.98 254.27,-129.75 257.06,-136.17"/>
</g>
<!-- Subnetwork::subnet&#45;1 -->
<g id="node7" class="node">
<title>Subnetwork::subnet&#45;1</title>
<polygon fill="#e5e5e5" stroke="#dddddd" points="723.5,-281 530.5,-281 530.5,-223 723.5,-223 723.5,-281"/>
<text text-anchor="start" x="543" y="-261.2" font-family="Helvetica,sans-Serif" font-weight="bold" font-size="16.00" fill="#707070">compute::Subnetwork</text>
<text text-anchor="start" x="543" y="-236.2" font-family="Helvetica,sans-Serif" font-size="16.00" fill="#383838">subnet&#45;1</text>
</g>
<!-- Subnetwork::subnet&#45;1&#45;&gt;Network::network -->
<g id="edge9" class="edge">
<title>Subnetwork::subnet&#45;1&#45;&gt;Network::network</title>
<path fill="none" stroke="#707070" d="M723.69,-252C740.74,-252 758.46,-252 775.41,-252"/>
<polygon fill="#707070" stroke="#707070" points="775.85,-255.5 785.85,-252 775.85,-248.5 775.85,-255.5"/>
</g>
<!-- TargetVpnGateway::vpn&#45;1&#45;&gt;Network::network -->
<g id="edge10" class="edge">
<title>TargetVpnGateway::vpn&#45;1&#45;&gt;Network::network</title>
<path fill="none" stroke="#707070" d="M721.62,-205.05C731.21,-208.06 740.8,-211.08 750,-214 758.55,-216.72 767.45,-219.56 776.35,-222.42"/>
<polygon fill="#707070" stroke="#707070" points="775.41,-225.79 786,-225.52 777.55,-219.12 775.41,-225.79"/>
</g>
<!-- VpnTunnel::vpn&#45;1&#45;tunnel&#45;1&#45;&gt;TargetVpnGateway::vpn&#45;1 -->
<g id="edge11" class="edge">
<title>VpnTunnel::vpn&#45;1&#45;tunnel&#45;1&#45;&gt;TargetVpnGateway::vpn&#45;1</title>
<path fill="none" stroke="#707070" d="M448.03,-125.62C469.11,-131.59 491.82,-138.02 513.72,-144.22"/>
<polygon fill="#707070" stroke="#707070" points="512.8,-147.6 523.38,-146.95 514.71,-140.86 512.8,-147.6"/>
</g>
</g>
</svg>
