<?xml version="1.0" encoding="UTF-8" standalone="no"?>
<!DOCTYPE svg PUBLIC "-//W3C//DTD SVG 1.1//EN"
 "http://www.w3.org/Graphics/SVG/1.1/DTD/svg11.dtd">
<!-- Generated by graphviz version 7.1.0 (20230121.1956)
 -->
<!-- Title: graphname Pages: 1 -->
<svg width="1396pt" height="541pt"
 viewBox="0.00 0.00 1396.00 541.00" xmlns="http://www.w3.org/2000/svg" xmlns:xlink="http://www.w3.org/1999/xlink">
<g id="graph0" class="graph" transform="scale(1 1) rotate(0) translate(4 537)">
<title>graphname</title>
<polygon fill="#fafafa" stroke="none" points="-4,4 -4,-537 1392,-537 1392,4 -4,4"/>
<text text-anchor="start" x="540" y="-508.4" font-family="Helvetica,sans-Serif" font-weight="bold" font-size="22.00" fill="#383838">Project servicecatalog&#45;simple</text>
<text text-anchor="start" x="690" y="-492.8" font-family="Helvetica,sans-Serif" font-size="14.00"> &#160;</text>
<text text-anchor="start" x="540" y="-471.2" font-family="Helvetica,sans-Serif" font-weight="bold" font-size="16.00" fill="#707070">Target Diagram</text>
<g id="clust1" class="cluster">
<title>cluster_aws</title>
<polygon fill="#f5f5f5" stroke="#f5f5f5" points="8,-8 8,-449 1380,-449 1380,-8 8,-8"/>
<text text-anchor="start" x="632" y="-23" font-family="Helvetica,sans-Serif" font-weight="bold" font-size="20.00" fill="#707070">Provider aws</text>
</g>
<g id="clust2" class="cluster">
<title>cluster_aws_</title>
<polygon fill="#eeeeee" stroke="#eeeeee" points="16,-54 16,-441 1372,-441 1372,-54 16,-54"/>
<text text-anchor="start" x="693.86" y="-58.3" font-family="Helvetica,sans-Serif" font-size="1.00" fill="#383838"> </text>
</g>
<!-- Role::AdminRole -->
<g id="node1" class="node">
<title>Role::AdminRole</title>
<polygon fill="#e5e5e5" stroke="#dddddd" points="628.5,-129 525.5,-129 525.5,-71 628.5,-71 628.5,-129"/>
<text text-anchor="start" x="538" y="-109.2" font-family="Helvetica,sans-Serif" font-weight="bold" font-size="16.00" fill="#707070">IAM::Role</text>
<text text-anchor="start" x="538" y="-84.2" font-family="Helvetica,sans-Serif" font-size="16.00" fill="#383838">AdminRole</text>
</g>
<!-- Role::SC&#45;Constrain -->
<g id="node2" class="node">
<title>Role::SC&#45;Constrain</title>
<polygon fill="#e5e5e5" stroke="#dddddd" points="637.5,-433 516.5,-433 516.5,-375 637.5,-375 637.5,-433"/>
<text text-anchor="start" x="529" y="-413.2" font-family="Helvetica,sans-Serif" font-weight="bold" font-size="16.00" fill="#707070">IAM::Role</text>
<text text-anchor="start" x="529" y="-388.2" font-family="Helvetica,sans-Serif" font-size="16.00" fill="#383838">SC&#45;Constrain</text>
</g>
<!-- OrganisationalUnit::e2etest -->
<g id="node3" class="node">
<title>OrganisationalUnit::e2etest</title>
<polygon fill="#e5e5e5" stroke="#dddddd" points="720,-205 434,-205 434,-147 720,-147 720,-205"/>
<text text-anchor="start" x="446" y="-185.2" font-family="Helvetica,sans-Serif" font-weight="bold" font-size="16.00" fill="#707070">Organisations::OrganisationalUnit</text>
<text text-anchor="start" x="446" y="-160.2" font-family="Helvetica,sans-Serif" font-size="16.00" fill="#383838">e2etest</text>
</g>
<!-- Root::Root -->
<g id="node4" class="node">
<title>Root::Root</title>
<polygon fill="#e5e5e5" stroke="#dddddd" points="988.5,-205 809.5,-205 809.5,-147 988.5,-147 988.5,-205"/>
<text text-anchor="start" x="822" y="-185.2" font-family="Helvetica,sans-Serif" font-weight="bold" font-size="16.00" fill="#707070">Organisations::Root</text>
<text text-anchor="start" x="822" y="-160.2" font-family="Helvetica,sans-Serif" font-size="16.00" fill="#383838">Root</text>
</g>
<!-- OrganisationalUnit::e2etest&#45;&gt;Root::Root -->
<g id="edge1" class="edge">
<title>OrganisationalUnit::e2etest&#45;&gt;Root::Root</title>
<path fill="none" stroke="#707070" d="M720.22,-176C746.3,-176 773.02,-176 797.56,-176"/>
<polygon fill="#707070" stroke="#707070" points="797.53,-179.5 807.53,-176 797.53,-172.5 797.53,-179.5"/>
</g>
<!-- Bucket::cf&#45;templates&#45;x7lcu52auzd7&#45;us&#45;east&#45;1 -->
<g id="node5" class="node">
<title>Bucket::cf&#45;templates&#45;x7lcu52auzd7&#45;us&#45;east&#45;1</title>
<polygon fill="#e5e5e5" stroke="#dddddd" points="1364,-395 1078,-395 1078,-337 1364,-337 1364,-395"/>
<text text-anchor="start" x="1090" y="-375.2" font-family="Helvetica,sans-Serif" font-weight="bold" font-size="16.00" fill="#707070">S3::Bucket</text>
<text text-anchor="start" x="1090" y="-350.2" font-family="Helvetica,sans-Serif" font-size="16.00" fill="#383838">cf&#45;templates&#45;x7lcu52auzd7&#45;us&#45;eas...</text>
</g>
<!-- Object::cf&#45;templates&#45;x7lcu52auzd7&#45;us&#45;east&#45;1/2023&#45;03&#45;06T231452.907Z0w7&#45;sc&#45;roles.yaml -->
<g id="node6" class="node">
<title>Object::cf&#45;templates&#45;x7lcu52auzd7&#45;us&#45;east&#45;1/2023&#45;03&#45;06T231452.907Z0w7&#45;sc&#45;roles.yaml</title>
<polygon fill="#e5e5e5" stroke="#dddddd" points="1042,-433 756,-433 756,-375 1042,-375 1042,-433"/>
<text text-anchor="start" x="768" y="-413.2" font-family="Helvetica,sans-Serif" font-weight="bold" font-size="16.00" fill="#707070">S3::Object</text>
<text text-anchor="start" x="768" y="-388.2" font-family="Helvetica,sans-Serif" font-size="16.00" fill="#383838">cf&#45;templates&#45;x7lcu52auzd7&#45;us&#45;eas...</text>
</g>
<!-- Object::cf&#45;templates&#45;x7lcu52auzd7&#45;us&#45;east&#45;1/2023&#45;03&#45;06T231452.907Z0w7&#45;sc&#45;roles.yaml&#45;&gt;Bucket::cf&#45;templates&#45;x7lcu52auzd7&#45;us&#45;east&#45;1 -->
<g id="edge2" class="edge">
<title>Object::cf&#45;templates&#45;x7lcu52auzd7&#45;us&#45;east&#45;1/2023&#45;03&#45;06T231452.907Z0w7&#45;sc&#45;roles.yaml&#45;&gt;Bucket::cf&#45;templates&#45;x7lcu52auzd7&#45;us&#45;east&#45;1</title>
<path fill="none" stroke="#707070" d="M1042.22,-387.11C1050.22,-386.16 1058.28,-385.2 1066.31,-384.25"/>
<polygon fill="#707070" stroke="#707070" points="1066.63,-387.74 1076.15,-383.08 1065.81,-380.79 1066.63,-387.74"/>
</g>
<!-- Object::cf&#45;templates&#45;x7lcu52auzd7&#45;us&#45;east&#45;1/servicecatalog&#45;product&#45;2023065qIW&#45;Network.yaml -->
<g id="node7" class="node">
<title>Object::cf&#45;templates&#45;x7lcu52auzd7&#45;us&#45;east&#45;1/servicecatalog&#45;product&#45;2023065qIW&#45;Network.yaml</title>
<polygon fill="#e5e5e5" stroke="#dddddd" points="1042,-357 756,-357 756,-299 1042,-299 1042,-357"/>
<text text-anchor="start" x="768" y="-337.2" font-family="Helvetica,sans-Serif" font-weight="bold" font-size="16.00" fill="#707070">S3::Object</text>
<text text-anchor="start" x="768" y="-312.2" font-family="Helvetica,sans-Serif" font-size="16.00" fill="#383838">cf&#45;templates&#45;x7lcu52auzd7&#45;us&#45;eas...</text>
</g>
<!-- Object::cf&#45;templates&#45;x7lcu52auzd7&#45;us&#45;east&#45;1/servicecatalog&#45;product&#45;2023065qIW&#45;Network.yaml&#45;&gt;Bucket::cf&#45;templates&#45;x7lcu52auzd7&#45;us&#45;east&#45;1 -->
<g id="edge3" class="edge">
<title>Object::cf&#45;templates&#45;x7lcu52auzd7&#45;us&#45;east&#45;1/servicecatalog&#45;product&#45;2023065qIW&#45;Network.yaml&#45;&gt;Bucket::cf&#45;templates&#45;x7lcu52auzd7&#45;us&#45;east&#45;1</title>
<path fill="none" stroke="#707070" d="M1042.22,-344.89C1050.22,-345.84 1058.28,-346.8 1066.31,-347.75"/>
<polygon fill="#707070" stroke="#707070" points="1065.81,-351.21 1076.15,-348.92 1066.63,-344.26 1065.81,-351.21"/>
</g>
<!-- Constraint::my&#45;portfolio::Vpc::LAUNCH -->
<g id="node8" class="node">
<title>Constraint::my&#45;portfolio::Vpc::LAUNCH</title>
<polygon fill="#e5e5e5" stroke="#dddddd" points="326,-433 96,-433 96,-375 326,-375 326,-433"/>
<text text-anchor="start" x="108" y="-413.2" font-family="Helvetica,sans-Serif" font-weight="bold" font-size="16.00" fill="#707070">ServiceCatalog::Constraint</text>
<text text-anchor="start" x="108" y="-388.2" font-family="Helvetica,sans-Serif" font-size="16.00" fill="#383838">my&#45;portfolio::Vpc::LAUNCH</text>
</g>
<!-- Constraint::my&#45;portfolio::Vpc::LAUNCH&#45;&gt;Role::SC&#45;Constrain -->
<g id="edge4" class="edge">
<title>Constraint::my&#45;portfolio::Vpc::LAUNCH&#45;&gt;Role::SC&#45;Constrain</title>
<path fill="none" stroke="#707070" d="M326.17,-404C384.71,-404 454.17,-404 504.98,-404"/>
<polygon fill="#707070" stroke="#707070" points="504.66,-407.5 514.66,-404 504.66,-400.5 504.66,-407.5"/>
</g>
<!-- Portfolio::my&#45;portfolio -->
<g id="node10" class="node">
<title>Portfolio::my&#45;portfolio</title>
<polygon fill="#e5e5e5" stroke="#dddddd" points="685,-281 469,-281 469,-223 685,-223 685,-281"/>
<text text-anchor="start" x="481" y="-261.2" font-family="Helvetica,sans-Serif" font-weight="bold" font-size="16.00" fill="#707070">ServiceCatalog::Portfolio</text>
<text text-anchor="start" x="481" y="-236.2" font-family="Helvetica,sans-Serif" font-size="16.00" fill="#383838">my&#45;portfolio</text>
</g>
<!-- Constraint::my&#45;portfolio::Vpc::LAUNCH&#45;&gt;Portfolio::my&#45;portfolio -->
<g id="edge5" class="edge">
<title>Constraint::my&#45;portfolio::Vpc::LAUNCH&#45;&gt;Portfolio::my&#45;portfolio</title>
<path fill="none" stroke="#707070" d="M326.41,-397.66C351.95,-391.84 377.51,-382.07 398,-366 427.41,-342.94 405.29,-313.93 434,-290 441.33,-283.89 449.54,-278.76 458.23,-274.44"/>
<polygon fill="#707070" stroke="#707070" points="459.57,-277.68 467.24,-270.37 456.68,-271.3 459.57,-277.68"/>
</g>
<!-- Product::Vpc -->
<g id="node12" class="node">
<title>Product::Vpc</title>
<polygon fill="#e5e5e5" stroke="#dddddd" points="682.5,-357 471.5,-357 471.5,-299 682.5,-299 682.5,-357"/>
<text text-anchor="start" x="484" y="-337.2" font-family="Helvetica,sans-Serif" font-weight="bold" font-size="16.00" fill="#707070">ServiceCatalog::Product</text>
<text text-anchor="start" x="484" y="-312.2" font-family="Helvetica,sans-Serif" font-size="16.00" fill="#383838">Vpc</text>
</g>
<!-- Constraint::my&#45;portfolio::Vpc::LAUNCH&#45;&gt;Product::Vpc -->
<g id="edge6" class="edge">
<title>Constraint::my&#45;portfolio::Vpc::LAUNCH&#45;&gt;Product::Vpc</title>
<path fill="none" stroke="#707070" d="M326.14,-380.85C349.9,-375.98 374.77,-370.85 398,-366 418.06,-361.81 439.38,-357.3 460.03,-352.91"/>
<polygon fill="#707070" stroke="#707070" points="460.55,-356.38 469.61,-350.87 459.1,-349.53 460.55,-356.38"/>
</g>
<!-- OrganizationsAccess::default -->
<g id="node9" class="node">
<title>OrganizationsAccess::default</title>
<polygon fill="#e5e5e5" stroke="#dddddd" points="368,-357 54,-357 54,-299 368,-299 368,-357"/>
<text text-anchor="start" x="66" y="-337.2" font-family="Helvetica,sans-Serif" font-weight="bold" font-size="16.00" fill="#707070">ServiceCatalog::OrganizationsAccess</text>
<text text-anchor="start" x="66" y="-312.2" font-family="Helvetica,sans-Serif" font-size="16.00" fill="#383838">default</text>
</g>
<!-- PortfolioShare::my&#45;portfolio::e2etest -->
<g id="node11" class="node">
<title>PortfolioShare::my&#45;portfolio::e2etest</title>
<polygon fill="#e5e5e5" stroke="#dddddd" points="341,-205 81,-205 81,-147 341,-147 341,-205"/>
<text text-anchor="start" x="93" y="-185.2" font-family="Helvetica,sans-Serif" font-weight="bold" font-size="16.00" fill="#707070">ServiceCatalog::PortfolioShare</text>
<text text-anchor="start" x="93" y="-160.2" font-family="Helvetica,sans-Serif" font-size="16.00" fill="#383838">my&#45;portfolio::e2etest</text>
</g>
<!-- PortfolioShare::my&#45;portfolio::e2etest&#45;&gt;OrganisationalUnit::e2etest -->
<g id="edge7" class="edge">
<title>PortfolioShare::my&#45;portfolio::e2etest&#45;&gt;OrganisationalUnit::e2etest</title>
<path fill="none" stroke="#707070" d="M341.36,-176C367.55,-176 395.34,-176 422.28,-176"/>
<polygon fill="#707070" stroke="#707070" points="422.25,-179.5 432.25,-176 422.25,-172.5 422.25,-179.5"/>
</g>
<!-- PortfolioShare::my&#45;portfolio::e2etest&#45;&gt;Portfolio::my&#45;portfolio -->
<g id="edge8" class="edge">
<title>PortfolioShare::my&#45;portfolio::e2etest&#45;&gt;Portfolio::my&#45;portfolio</title>
<path fill="none" stroke="#707070" d="M341.36,-202.28C360.36,-206.18 379.69,-210.18 398,-214 417.31,-218.03 437.79,-222.36 457.72,-226.6"/>
<polygon fill="#707070" stroke="#707070" points="456.74,-229.97 467.25,-228.62 458.2,-223.12 456.74,-229.97"/>
</g>
<!-- Product::Vpc&#45;&gt;Object::cf&#45;templates&#45;x7lcu52auzd7&#45;us&#45;east&#45;1/servicecatalog&#45;product&#45;2023065qIW&#45;Network.yaml -->
<g id="edge9" class="edge">
<title>Product::Vpc&#45;&gt;Object::cf&#45;templates&#45;x7lcu52auzd7&#45;us&#45;east&#45;1/servicecatalog&#45;product&#45;2023065qIW&#45;Network.yaml</title>
<path fill="none" stroke="#707070" d="M682.78,-328C702.56,-328 723.62,-328 744.53,-328"/>
<polygon fill="#707070" stroke="#707070" points="744.27,-331.5 754.27,-328 744.27,-324.5 744.27,-331.5"/>
</g>
<!-- ProductPortfolioAssociation::my&#45;portfolio::Vpc -->
<g id="node13" class="node">
<title>ProductPortfolioAssociation::my&#45;portfolio::Vpc</title>
<polygon fill="#e5e5e5" stroke="#dddddd" points="394.5,-281 27.5,-281 27.5,-223 394.5,-223 394.5,-281"/>
<text text-anchor="start" x="40" y="-261.2" font-family="Helvetica,sans-Serif" font-weight="bold" font-size="16.00" fill="#707070">ServiceCatalog::ProductPortfolioAssociation</text>
<text text-anchor="start" x="40" y="-236.2" font-family="Helvetica,sans-Serif" font-size="16.00" fill="#383838">my&#45;portfolio::Vpc</text>
</g>
<!-- ProductPortfolioAssociation::my&#45;portfolio::Vpc&#45;&gt;Portfolio::my&#45;portfolio -->
<g id="edge10" class="edge">
<title>ProductPortfolioAssociation::my&#45;portfolio::Vpc&#45;&gt;Portfolio::my&#45;portfolio</title>
<path fill="none" stroke="#707070" d="M394.8,-252C416.08,-252 437.35,-252 457.44,-252"/>
<polygon fill="#707070" stroke="#707070" points="457.28,-255.5 467.28,-252 457.28,-248.5 457.28,-255.5"/>
</g>
<!-- ProductPortfolioAssociation::my&#45;portfolio::Vpc&#45;&gt;Product::Vpc -->
<g id="edge11" class="edge">
<title>ProductPortfolioAssociation::my&#45;portfolio::Vpc&#45;&gt;Product::Vpc</title>
<path fill="none" stroke="#707070" d="M356.97,-281.49C370.84,-284.35 384.69,-287.22 398,-290 418.06,-294.19 439.38,-298.7 460.03,-303.09"/>
<polygon fill="#707070" stroke="#707070" points="459.1,-306.47 469.61,-305.13 460.55,-299.62 459.1,-306.47"/>
</g>
<!-- PrincipalPortfolioAssociation::my&#45;portfolio::AdminRole -->
<g id="node14" class="node">
<title>PrincipalPortfolioAssociation::my&#45;portfolio::AdminRole</title>
<polygon fill="#e5e5e5" stroke="#dddddd" points="398,-129 24,-129 24,-71 398,-71 398,-129"/>
<text text-anchor="start" x="36" y="-109.2" font-family="Helvetica,sans-Serif" font-weight="bold" font-size="16.00" fill="#707070">ServiceCatalog::PrincipalPortfolioAssociation</text>
<text text-anchor="start" x="36" y="-84.2" font-family="Helvetica,sans-Serif" font-size="16.00" fill="#383838">my&#45;portfolio::AdminRole</text>
</g>
<!-- PrincipalPortfolioAssociation::my&#45;portfolio::AdminRole&#45;&gt;Role::AdminRole -->
<g id="edge12" class="edge">
<title>PrincipalPortfolioAssociation::my&#45;portfolio::AdminRole&#45;&gt;Role::AdminRole</title>
<path fill="none" stroke="#707070" d="M398.27,-100C440.02,-100 481.47,-100 513.82,-100"/>
<polygon fill="#707070" stroke="#707070" points="513.8,-103.5 523.8,-100 513.8,-96.5 513.8,-103.5"/>
</g>
<!-- PrincipalPortfolioAssociation::my&#45;portfolio::AdminRole&#45;&gt;Portfolio::my&#45;portfolio -->
<g id="edge13" class="edge">
<title>PrincipalPortfolioAssociation::my&#45;portfolio::AdminRole&#45;&gt;Portfolio::my&#45;portfolio</title>
<path fill="none" stroke="#707070" d="M385.39,-129.25C389.76,-131.94 393.98,-134.85 398,-138 427.41,-161.06 405.29,-190.07 434,-214 441.33,-220.11 449.54,-225.24 458.23,-229.56"/>
<polygon fill="#707070" stroke="#707070" points="456.68,-232.7 467.24,-233.63 459.57,-226.32 456.68,-232.7"/>
</g>
</g>
</svg>
