<?xml version="1.0" encoding="UTF-8" standalone="no"?>
<!DOCTYPE svg PUBLIC "-//W3C//DTD SVG 1.1//EN"
 "http://www.w3.org/Graphics/SVG/1.1/DTD/svg11.dtd">
<!-- Generated by graphviz version 7.1.0 (20230121.1956)
 -->
<!-- Title: graphname Pages: 1 -->
<svg width="916pt" height="313pt"
 viewBox="0.00 0.00 916.00 313.00" xmlns="http://www.w3.org/2000/svg" xmlns:xlink="http://www.w3.org/1999/xlink">
<g id="graph0" class="graph" transform="scale(1 1) rotate(0) translate(4 309)">
<title>graphname</title>
<polygon fill="#fafafa" stroke="none" points="-4,4 -4,-309 912,-309 912,4 -4,4"/>
<text text-anchor="start" x="300" y="-280.4" font-family="Helvetica,sans-Serif" font-weight="bold" font-size="22.00" fill="#383838">Project servicecatalog&#45;simple</text>
<text text-anchor="start" x="450" y="-264.8" font-family="Helvetica,sans-Serif" font-size="14.00"> &#160;</text>
<text text-anchor="start" x="300" y="-243.2" font-family="Helvetica,sans-Serif" font-weight="bold" font-size="16.00" fill="#707070">Target Diagram</text>
<g id="clust1" class="cluster">
<title>cluster_aws</title>
<polygon fill="#f5f5f5" stroke="#f5f5f5" points="8,-8 8,-221 900,-221 900,-8 8,-8"/>
<text text-anchor="start" x="392" y="-23" font-family="Helvetica,sans-Serif" font-weight="bold" font-size="20.00" fill="#707070">Provider aws</text>
</g>
<g id="clust2" class="cluster">
<title>cluster_aws_</title>
<polygon fill="#eeeeee" stroke="#eeeeee" points="16,-54 16,-213 892,-213 892,-54 16,-54"/>
<text text-anchor="start" x="453.86" y="-58.3" font-family="Helvetica,sans-Serif" font-size="1.00" fill="#383838"> </text>
</g>
<!-- Bucket::cf&#45;templates&#45;x7lcu52auzd7&#45;us&#45;east&#45;1 -->
<g id="node1" class="node">
<title>Bucket::cf&#45;templates&#45;x7lcu52auzd7&#45;us&#45;east&#45;1</title>
<polygon fill="#e5e5e5" stroke="#dddddd" points="884,-129 598,-129 598,-71 884,-71 884,-129"/>
<text text-anchor="start" x="610" y="-109.2" font-family="Helvetica,sans-Serif" font-weight="bold" font-size="16.00" fill="#707070">S3::Bucket</text>
<text text-anchor="start" x="610" y="-84.2" font-family="Helvetica,sans-Serif" font-size="16.00" fill="#383838">cf&#45;templates&#45;x7lcu52auzd7&#45;us&#45;eas...</text>
</g>
<!-- Object::cf&#45;templates&#45;x7lcu52auzd7&#45;us&#45;east&#45;1/servicecatalog&#45;product&#45;2023065qIW&#45;Network.yaml -->
<g id="node2" class="node">
<title>Object::cf&#45;templates&#45;x7lcu52auzd7&#45;us&#45;east&#45;1/servicecatalog&#45;product&#45;2023065qIW&#45;Network.yaml</title>
<polygon fill="#e5e5e5" stroke="#dddddd" points="562,-129 276,-129 276,-71 562,-71 562,-129"/>
<text text-anchor="start" x="288" y="-109.2" font-family="Helvetica,sans-Serif" font-weight="bold" font-size="16.00" fill="#707070">S3::Object</text>
<text text-anchor="start" x="288" y="-84.2" font-family="Helvetica,sans-Serif" font-size="16.00" fill="#383838">cf&#45;templates&#45;x7lcu52auzd7&#45;us&#45;eas...</text>
</g>
<!-- Object::cf&#45;templates&#45;x7lcu52auzd7&#45;us&#45;east&#45;1/servicecatalog&#45;product&#45;2023065qIW&#45;Network.yaml&#45;&gt;Bucket::cf&#45;templates&#45;x7lcu52auzd7&#45;us&#45;east&#45;1 -->
<g id="edge1" class="edge">
<title>Object::cf&#45;templates&#45;x7lcu52auzd7&#45;us&#45;east&#45;1/servicecatalog&#45;product&#45;2023065qIW&#45;Network.yaml&#45;&gt;Bucket::cf&#45;templates&#45;x7lcu52auzd7&#45;us&#45;east&#45;1</title>
<path fill="none" stroke="#707070" d="M562.22,-100C570.22,-100 578.28,-100 586.31,-100"/>
<polygon fill="#707070" stroke="#707070" points="586.14,-103.5 596.14,-100 586.14,-96.5 586.14,-103.5"/>
</g>
<!-- Portfolio::my&#45;portfolio -->
<g id="node3" class="node">
<title>Portfolio::my&#45;portfolio</title>
<polygon fill="#e5e5e5" stroke="#dddddd" points="240,-205 24,-205 24,-147 240,-147 240,-205"/>
<text text-anchor="start" x="36" y="-185.2" font-family="Helvetica,sans-Serif" font-weight="bold" font-size="16.00" fill="#707070">ServiceCatalog::Portfolio</text>
<text text-anchor="start" x="36" y="-160.2" font-family="Helvetica,sans-Serif" font-size="16.00" fill="#383838">my&#45;portfolio</text>
</g>
<!-- Product::Vpc -->
<g id="node4" class="node">
<title>Product::Vpc</title>
<polygon fill="#e5e5e5" stroke="#dddddd" points="237.5,-129 26.5,-129 26.5,-71 237.5,-71 237.5,-129"/>
<text text-anchor="start" x="39" y="-109.2" font-family="Helvetica,sans-Serif" font-weight="bold" font-size="16.00" fill="#707070">ServiceCatalog::Product</text>
<text text-anchor="start" x="39" y="-84.2" font-family="Helvetica,sans-Serif" font-size="16.00" fill="#383838">Vpc</text>
</g>
<!-- Product::Vpc&#45;&gt;Object::cf&#45;templates&#45;x7lcu52auzd7&#45;us&#45;east&#45;1/servicecatalog&#45;product&#45;2023065qIW&#45;Network.yaml -->
<g id="edge2" class="edge">
<title>Product::Vpc&#45;&gt;Object::cf&#45;templates&#45;x7lcu52auzd7&#45;us&#45;east&#45;1/servicecatalog&#45;product&#45;2023065qIW&#45;Network.yaml</title>
<path fill="none" stroke="#707070" d="M237.91,-100C246.61,-100 255.52,-100 264.48,-100"/>
<polygon fill="#707070" stroke="#707070" points="264.35,-103.5 274.35,-100 264.35,-96.5 264.35,-103.5"/>
</g>
</g>
</svg>
