<?xml version="1.0" encoding="UTF-8" standalone="no"?>
<!DOCTYPE svg PUBLIC "-//W3C//DTD SVG 1.1//EN"
 "http://www.w3.org/Graphics/SVG/1.1/DTD/svg11.dtd">
<!-- Generated by graphviz version 2.44.1 (20200629.0846)
 -->
<!-- Title: graphname Pages: 1 -->
<svg width="455pt" height="389pt"
 viewBox="0.00 0.00 455.00 389.00" xmlns="http://www.w3.org/2000/svg" xmlns:xlink="http://www.w3.org/1999/xlink">
<g id="graph0" class="graph" transform="scale(1 1) rotate(0) translate(4 385)">
<title>graphname</title>
<polygon fill="#fafafa" stroke="transparent" points="-4,4 -4,-385 451,-385 451,4 -4,4"/>
<text text-anchor="start" x="70.5" y="-356.4" font-family="Helvetica,sans-Serif" font-weight="bold" font-size="22.00" fill="#383838">Project SecurityGroupDefault</text>
<text text-anchor="start" x="220" y="-340.8" font-family="Helvetica,sans-Serif" font-size="14.00"> &#160;</text>
<text text-anchor="start" x="70.5" y="-319.2" font-family="Helvetica,sans-Serif" font-weight="bold" font-size="16.00" fill="#707070">Target Diagram</text>
<g id="clust1" class="cluster">
<title>cluster_aws</title>
<polygon fill="#f5f5f5" stroke="#f5f5f5" points="8,-8 8,-297 439,-297 439,-8 8,-8"/>
<text text-anchor="start" x="161.5" y="-23" font-family="Helvetica,sans-Serif" font-weight="bold" font-size="20.00" fill="#707070">Provider aws</text>
</g>
<g id="clust2" class="cluster">
<title>cluster_aws_</title>
<polygon fill="#eeeeee" stroke="#eeeeee" points="16,-54 16,-289 431,-289 431,-54 16,-54"/>
<text text-anchor="start" x="223.36" y="-58.3" font-family="Helvetica,sans-Serif" font-size="1.00" fill="#383838"> </text>
</g>
<!-- Vpc::vpc&#45;default -->
<g id="node1" class="node">
<title>Vpc::vpc&#45;default</title>
<polygon fill="#e5e5e5" stroke="#dddddd" points="189.5,-281 85.5,-281 85.5,-223 189.5,-223 189.5,-281"/>
<text text-anchor="start" x="97.5" y="-261.2" font-family="Helvetica,sans-Serif" font-weight="bold" font-size="16.00" fill="#707070">Vpc</text>
<text text-anchor="start" x="97.5" y="-236.2" font-family="Helvetica,sans-Serif" font-size="16.00" fill="#383838">vpc&#45;default</text>
</g>
<!-- SecurityGroup::sgCluster&#45;test -->
<g id="node2" class="node">
<title>SecurityGroup::sgCluster&#45;test</title>
<polygon fill="#e5e5e5" stroke="#dddddd" points="423,-167 287,-167 287,-109 423,-109 423,-167"/>
<text text-anchor="start" x="299" y="-147.2" font-family="Helvetica,sans-Serif" font-weight="bold" font-size="16.00" fill="#707070">SecurityGroup</text>
<text text-anchor="start" x="299" y="-122.2" font-family="Helvetica,sans-Serif" font-size="16.00" fill="#383838">sgCluster&#45;test</text>
</g>
<!-- SecurityGroupRuleIngress::sg&#45;rule&#45;ingress&#45;test -->
<g id="node3" class="node">
<title>SecurityGroupRuleIngress::sg&#45;rule&#45;ingress&#45;test</title>
<polygon fill="#e5e5e5" stroke="#dddddd" points="251,-205 24,-205 24,-147 251,-147 251,-205"/>
<text text-anchor="start" x="36.5" y="-185.2" font-family="Helvetica,sans-Serif" font-weight="bold" font-size="16.00" fill="#707070">SecurityGroupRuleIngress</text>
<text text-anchor="start" x="36.5" y="-160.2" font-family="Helvetica,sans-Serif" font-size="16.00" fill="#383838">sg&#45;rule&#45;ingress&#45;test</text>
</g>
<!-- SecurityGroupRuleIngress::sg&#45;rule&#45;ingress&#45;test&#45;&gt;SecurityGroup::sgCluster&#45;test -->
<g id="edge1" class="edge">
<title>SecurityGroupRuleIngress::sg&#45;rule&#45;ingress&#45;test&#45;&gt;SecurityGroup::sgCluster&#45;test</title>
<path fill="none" stroke="#707070" d="M251.3,-156.11C259.91,-154.59 268.49,-153.08 276.8,-151.61"/>
<polygon fill="#707070" stroke="#707070" points="277.54,-155.04 286.78,-149.85 276.33,-148.14 277.54,-155.04"/>
</g>
<!-- SecurityGroupRuleEgress::sg&#45;rule&#45;egress&#45;test -->
<g id="node4" class="node">
<title>SecurityGroupRuleEgress::sg&#45;rule&#45;egress&#45;test</title>
<polygon fill="#e5e5e5" stroke="#dddddd" points="249,-129 26,-129 26,-71 249,-71 249,-129"/>
<text text-anchor="start" x="38.5" y="-109.2" font-family="Helvetica,sans-Serif" font-weight="bold" font-size="16.00" fill="#707070">SecurityGroupRuleEgress</text>
<text text-anchor="start" x="38.5" y="-84.2" font-family="Helvetica,sans-Serif" font-size="16.00" fill="#383838">sg&#45;rule&#45;egress&#45;test</text>
</g>
<!-- SecurityGroupRuleEgress::sg&#45;rule&#45;egress&#45;test&#45;&gt;SecurityGroup::sgCluster&#45;test -->
<g id="edge2" class="edge">
<title>SecurityGroupRuleEgress::sg&#45;rule&#45;egress&#45;test&#45;&gt;SecurityGroup::sgCluster&#45;test</title>
<path fill="none" stroke="#707070" d="M249.09,-119.5C258.48,-121.16 267.83,-122.81 276.88,-124.4"/>
<polygon fill="#707070" stroke="#707070" points="276.48,-127.88 286.94,-126.17 277.7,-120.99 276.48,-127.88"/>
</g>
</g>
</svg>
