<?xml version="1.0" encoding="UTF-8" standalone="no"?>
<!DOCTYPE svg PUBLIC "-//W3C//DTD SVG 1.1//EN"
 "http://www.w3.org/Graphics/SVG/1.1/DTD/svg11.dtd">
<!-- Generated by graphviz version 3.0.0 (20220226.1711)
 -->
<!-- Title: graphname Pages: 1 -->
<svg width="681pt" height="313pt"
 viewBox="0.00 0.00 681.00 313.00" xmlns="http://www.w3.org/2000/svg" xmlns:xlink="http://www.w3.org/1999/xlink">
<g id="graph0" class="graph" transform="scale(1 1) rotate(0) translate(4 309)">
<title>graphname</title>
<polygon fill="#fafafa" stroke="transparent" points="-4,4 -4,-309 677,-309 677,4 -4,4"/>
<text text-anchor="start" x="184.5" y="-280.4" font-family="Helvetica,sans-Serif" font-weight="bold" font-size="22.00" fill="#383838">Project securityGroupDefault</text>
<text text-anchor="start" x="332.5" y="-264.8" font-family="Helvetica,sans-Serif" font-size="14.00"> &#160;</text>
<text text-anchor="start" x="184.5" y="-243.2" font-family="Helvetica,sans-Serif" font-weight="bold" font-size="16.00" fill="#707070">Live Diagram</text>
<g id="clust1" class="cluster">
<title>cluster_aws</title>
<polygon fill="#f5f5f5" stroke="#f5f5f5" points="8,-8 8,-221 665,-221 665,-8 8,-8"/>
<text text-anchor="start" x="274.5" y="-23" font-family="Helvetica,sans-Serif" font-weight="bold" font-size="20.00" fill="#707070">Provider aws</text>
</g>
<g id="clust2" class="cluster">
<title>cluster_aws_</title>
<polygon fill="#eeeeee" stroke="#eeeeee" points="16,-54 16,-213 657,-213 657,-54 16,-54"/>
<text text-anchor="start" x="336.36" y="-58.3" font-family="Helvetica,sans-Serif" font-size="1.00" fill="#383838"> </text>
</g>
<!-- SecurityGroup::::sg&#45;default&#45;vpc&#45;default -->
<g id="node1" class="node">
<title>SecurityGroup::::sg&#45;default&#45;vpc&#45;default</title>
<polygon fill="#e5e5e5" stroke="#dddddd" points="509,-167 328,-167 328,-109 509,-109 509,-167"/>
<text text-anchor="start" x="340.5" y="-147.2" font-family="Helvetica,sans-Serif" font-weight="bold" font-size="16.00" fill="#707070">EC2::SecurityGroup</text>
<text text-anchor="start" x="340.5" y="-122.2" font-family="Helvetica,sans-Serif" font-size="16.00" fill="#383838">sg&#45;default&#45;vpc&#45;default</text>
</g>
<!-- Vpc::::vpc&#45;default -->
<g id="node4" class="node">
<title>Vpc::::vpc&#45;default</title>
<polygon fill="#e5e5e5" stroke="#dddddd" points="649,-167 545,-167 545,-109 649,-109 649,-167"/>
<text text-anchor="start" x="557" y="-147.2" font-family="Helvetica,sans-Serif" font-weight="bold" font-size="16.00" fill="#707070">EC2::Vpc</text>
<text text-anchor="start" x="557" y="-122.2" font-family="Helvetica,sans-Serif" font-size="16.00" fill="#383838">vpc&#45;default</text>
</g>
<!-- SecurityGroup::::sg&#45;default&#45;vpc&#45;default&#45;&gt;Vpc::::vpc&#45;default -->
<g id="edge1" class="edge">
<title>SecurityGroup::::sg&#45;default&#45;vpc&#45;default&#45;&gt;Vpc::::vpc&#45;default</title>
<path fill="none" stroke="#707070" d="M509.04,-138C517.68,-138 526.31,-138 534.58,-138"/>
<polygon fill="#707070" stroke="#707070" points="534.85,-141.5 544.85,-138 534.85,-134.5 534.85,-141.5"/>
</g>
<!-- SecurityGroupRuleEgress::::sg&#45;default&#45;vpc&#45;default&#45;rule&#45;egress&#45;tcp&#45;1024&#45;65535 -->
<g id="node2" class="node">
<title>SecurityGroupRuleEgress::::sg&#45;default&#45;vpc&#45;default&#45;rule&#45;egress&#45;tcp&#45;1024&#45;65535</title>
<polygon fill="#e5e5e5" stroke="#dddddd" points="290.5,-205 25.5,-205 25.5,-147 290.5,-147 290.5,-205"/>
<text text-anchor="start" x="38" y="-185.2" font-family="Helvetica,sans-Serif" font-weight="bold" font-size="16.00" fill="#707070">EC2::SecurityGroupRuleEgress</text>
<text text-anchor="start" x="38" y="-160.2" font-family="Helvetica,sans-Serif" font-size="16.00" fill="#383838">sg&#45;default&#45;vpc&#45;default&#45;rule&#45;egre...</text>
</g>
<!-- SecurityGroupRuleEgress::::sg&#45;default&#45;vpc&#45;default&#45;rule&#45;egress&#45;tcp&#45;1024&#45;65535&#45;&gt;SecurityGroup::::sg&#45;default&#45;vpc&#45;default -->
<g id="edge2" class="edge">
<title>SecurityGroupRuleEgress::::sg&#45;default&#45;vpc&#45;default&#45;rule&#45;egress&#45;tcp&#45;1024&#45;65535&#45;&gt;SecurityGroup::::sg&#45;default&#45;vpc&#45;default</title>
<path fill="none" stroke="#707070" d="M290.52,-156.67C299.67,-155.32 308.81,-153.98 317.75,-152.66"/>
<polygon fill="#707070" stroke="#707070" points="318.36,-156.11 327.75,-151.19 317.35,-149.19 318.36,-156.11"/>
</g>
<!-- SecurityGroupRuleIngress::::sg&#45;default&#45;vpc&#45;default&#45;rule&#45;ingress&#45;tcp&#45;22 -->
<g id="node3" class="node">
<title>SecurityGroupRuleIngress::::sg&#45;default&#45;vpc&#45;default&#45;rule&#45;ingress&#45;tcp&#45;22</title>
<polygon fill="#e5e5e5" stroke="#dddddd" points="292,-129 24,-129 24,-71 292,-71 292,-129"/>
<text text-anchor="start" x="36" y="-109.2" font-family="Helvetica,sans-Serif" font-weight="bold" font-size="16.00" fill="#707070">EC2::SecurityGroupRuleIngress</text>
<text text-anchor="start" x="36" y="-84.2" font-family="Helvetica,sans-Serif" font-size="16.00" fill="#383838">sg&#45;default&#45;vpc&#45;default&#45;rule&#45;ingr...</text>
</g>
<!-- SecurityGroupRuleIngress::::sg&#45;default&#45;vpc&#45;default&#45;rule&#45;ingress&#45;tcp&#45;22&#45;&gt;SecurityGroup::::sg&#45;default&#45;vpc&#45;default -->
<g id="edge3" class="edge">
<title>SecurityGroupRuleIngress::::sg&#45;default&#45;vpc&#45;default&#45;rule&#45;ingress&#45;tcp&#45;22&#45;&gt;SecurityGroup::::sg&#45;default&#45;vpc&#45;default</title>
<path fill="none" stroke="#707070" d="M292.04,-119.56C300.75,-120.84 309.44,-122.12 317.95,-123.37"/>
<polygon fill="#707070" stroke="#707070" points="317.44,-126.83 327.85,-124.82 318.46,-119.9 317.44,-126.83"/>
</g>
</g>
</svg>
