<?xml version="1.0" encoding="UTF-8" standalone="no"?>
<!DOCTYPE svg PUBLIC "-//W3C//DTD SVG 1.1//EN"
 "http://www.w3.org/Graphics/SVG/1.1/DTD/svg11.dtd">
<!-- Generated by graphviz version 2.44.1 (20200629.0846)
 -->
<!-- Title: graphname Pages: 1 -->
<svg width="500pt" height="313pt"
 viewBox="0.00 0.00 500.00 313.00" xmlns="http://www.w3.org/2000/svg" xmlns:xlink="http://www.w3.org/1999/xlink">
<g id="graph0" class="graph" transform="scale(1 1) rotate(0) translate(4 309)">
<title>graphname</title>
<polygon fill="#fafafa" stroke="transparent" points="-4,4 -4,-309 496,-309 496,4 -4,4"/>
<text text-anchor="start" x="93" y="-280.4" font-family="Helvetica,sans-Serif" font-weight="bold" font-size="22.00" fill="#383838">Project SecurityGroupDefault</text>
<text text-anchor="start" x="242.5" y="-264.8" font-family="Helvetica,sans-Serif" font-size="14.00"> &#160;</text>
<text text-anchor="start" x="93" y="-243.2" font-family="Helvetica,sans-Serif" font-weight="bold" font-size="16.00" fill="#707070">Target Diagram</text>
<g id="clust1" class="cluster">
<title>cluster_aws</title>
<polygon fill="#f5f5f5" stroke="#f5f5f5" points="8,-8 8,-221 484,-221 484,-8 8,-8"/>
<text text-anchor="start" x="184" y="-23" font-family="Helvetica,sans-Serif" font-weight="bold" font-size="20.00" fill="#707070">Provider aws</text>
</g>
<g id="clust2" class="cluster">
<title>cluster_aws_</title>
<polygon fill="#eeeeee" stroke="#eeeeee" points="16,-54 16,-213 476,-213 476,-54 16,-54"/>
<text text-anchor="start" x="245.86" y="-58.3" font-family="Helvetica,sans-Serif" font-size="1.00" fill="#383838"> </text>
</g>
<!-- SecurityGroup::sg&#45;default&#45;vpc&#45;default -->
<g id="node1" class="node">
<title>SecurityGroup::sg&#45;default&#45;vpc&#45;default</title>
<polygon fill="#e5e5e5" stroke="#dddddd" points="468,-167 287,-167 287,-109 468,-109 468,-167"/>
<text text-anchor="start" x="299.5" y="-147.2" font-family="Helvetica,sans-Serif" font-weight="bold" font-size="16.00" fill="#707070">SecurityGroup</text>
<text text-anchor="start" x="299.5" y="-122.2" font-family="Helvetica,sans-Serif" font-size="16.00" fill="#383838">sg&#45;default&#45;vpc&#45;default</text>
</g>
<!-- SecurityGroupRuleIngress::sg&#45;rule&#45;ingress&#45;test -->
<g id="node2" class="node">
<title>SecurityGroupRuleIngress::sg&#45;rule&#45;ingress&#45;test</title>
<polygon fill="#e5e5e5" stroke="#dddddd" points="251,-205 24,-205 24,-147 251,-147 251,-205"/>
<text text-anchor="start" x="36.5" y="-185.2" font-family="Helvetica,sans-Serif" font-weight="bold" font-size="16.00" fill="#707070">SecurityGroupRuleIngress</text>
<text text-anchor="start" x="36.5" y="-160.2" font-family="Helvetica,sans-Serif" font-size="16.00" fill="#383838">sg&#45;rule&#45;ingress&#45;test</text>
</g>
<!-- SecurityGroupRuleIngress::sg&#45;rule&#45;ingress&#45;test&#45;&gt;SecurityGroup::sg&#45;default&#45;vpc&#45;default -->
<g id="edge1" class="edge">
<title>SecurityGroupRuleIngress::sg&#45;rule&#45;ingress&#45;test&#45;&gt;SecurityGroup::sg&#45;default&#45;vpc&#45;default</title>
<path fill="none" stroke="#707070" d="M251.23,-158C259.68,-156.65 268.18,-155.29 276.55,-153.96"/>
<polygon fill="#707070" stroke="#707070" points="277.36,-157.37 286.69,-152.34 276.26,-150.46 277.36,-157.37"/>
</g>
<!-- SecurityGroupRuleEgress::sg&#45;rule&#45;egress&#45;test -->
<g id="node3" class="node">
<title>SecurityGroupRuleEgress::sg&#45;rule&#45;egress&#45;test</title>
<polygon fill="#e5e5e5" stroke="#dddddd" points="249,-129 26,-129 26,-71 249,-71 249,-129"/>
<text text-anchor="start" x="38.5" y="-109.2" font-family="Helvetica,sans-Serif" font-weight="bold" font-size="16.00" fill="#707070">SecurityGroupRuleEgress</text>
<text text-anchor="start" x="38.5" y="-84.2" font-family="Helvetica,sans-Serif" font-size="16.00" fill="#383838">sg&#45;rule&#45;egress&#45;test</text>
</g>
<!-- SecurityGroupRuleEgress::sg&#45;rule&#45;egress&#45;test&#45;&gt;SecurityGroup::sg&#45;default&#45;vpc&#45;default -->
<g id="edge2" class="edge">
<title>SecurityGroupRuleEgress::sg&#45;rule&#45;egress&#45;test&#45;&gt;SecurityGroup::sg&#45;default&#45;vpc&#45;default</title>
<path fill="none" stroke="#707070" d="M249.14,-117.67C258.41,-119.15 267.75,-120.64 276.93,-122.1"/>
<polygon fill="#707070" stroke="#707070" points="276.39,-125.56 286.82,-123.68 277.5,-118.65 276.39,-125.56"/>
</g>
</g>
</svg>
