<?xml version="1.0" encoding="UTF-8" standalone="no"?>
<!DOCTYPE svg PUBLIC "-//W3C//DTD SVG 1.1//EN"
 "http://www.w3.org/Graphics/SVG/1.1/DTD/svg11.dtd">
<!-- Generated by graphviz version 2.44.1 (20200629.0846)
 -->
<!-- Title: graphname Pages: 1 -->
<svg width="1269pt" height="1001pt"
 viewBox="0.00 0.00 1269.00 1001.00" xmlns="http://www.w3.org/2000/svg" xmlns:xlink="http://www.w3.org/1999/xlink">
<g id="graph0" class="graph" transform="scale(1 1) rotate(0) translate(4 997)">
<title>graphname</title>
<polygon fill="#fafafa" stroke="transparent" points="-4,4 -4,-997 1265,-997 1265,4 -4,4"/>
<text text-anchor="start" x="549.5" y="-968.4" font-family="Helvetica,sans-Serif" font-weight="bold" font-size="22.00" fill="#383838">Project ec2&#45;vpc</text>
<text text-anchor="start" x="626.5" y="-952.8" font-family="Helvetica,sans-Serif" font-size="14.00"> &#160;</text>
<text text-anchor="start" x="549.5" y="-931.2" font-family="Helvetica,sans-Serif" font-weight="bold" font-size="16.00" fill="#707070">Live Diagram</text>
<g id="clust1" class="cluster">
<title>cluster_aws</title>
<polygon fill="#f5f5f5" stroke="#f5f5f5" points="8,-8 8,-909 1253,-909 1253,-8 8,-8"/>
<text text-anchor="start" x="568.5" y="-23" font-family="Helvetica,sans-Serif" font-weight="bold" font-size="20.00" fill="#707070">Provider aws</text>
</g>
<g id="clust2" class="cluster">
<title>cluster_aws_</title>
<polygon fill="#eeeeee" stroke="#eeeeee" points="16,-54 16,-901 1245,-901 1245,-54 16,-54"/>
<text text-anchor="start" x="630.36" y="-58.3" font-family="Helvetica,sans-Serif" font-size="1.00" fill="#383838"> </text>
</g>
<!-- ElasticIpAddress::::myip -->
<g id="node1" class="node">
<title>ElasticIpAddress::::myip</title>
<polygon fill="#e5e5e5" stroke="#dddddd" points="460.5,-757 306.5,-757 306.5,-699 460.5,-699 460.5,-757"/>
<text text-anchor="start" x="318.5" y="-737.2" font-family="Helvetica,sans-Serif" font-weight="bold" font-size="16.00" fill="#707070">ElasticIpAddress</text>
<text text-anchor="start" x="318.5" y="-712.2" font-family="Helvetica,sans-Serif" font-size="16.00" fill="#383838">myip</text>
</g>
<!-- NetworkInterface::::eni&#45;03f055e004ea669c4 -->
<g id="node21" class="node">
<title>NetworkInterface::::eni&#45;03f055e004ea669c4</title>
<polygon fill="#e5e5e5" stroke="#dddddd" points="753.5,-701 554.5,-701 554.5,-643 753.5,-643 753.5,-701"/>
<text text-anchor="start" x="567" y="-681.2" font-family="Helvetica,sans-Serif" font-weight="bold" font-size="16.00" fill="#707070">NetworkInterface</text>
<text text-anchor="start" x="567" y="-656.2" font-family="Helvetica,sans-Serif" font-size="16.00" fill="#383838">eni&#45;03f055e004ea669c4</text>
</g>
<!-- ElasticIpAddress::::myip&#45;&gt;NetworkInterface::::eni&#45;03f055e004ea669c4 -->
<g id="edge1" class="edge">
<title>ElasticIpAddress::::myip&#45;&gt;NetworkInterface::::eni&#45;03f055e004ea669c4</title>
<path fill="none" stroke="#707070" d="M460.72,-712.1C486.8,-706.66 516.49,-700.47 544.6,-694.61"/>
<polygon fill="#707070" stroke="#707070" points="545.4,-698.02 554.47,-692.55 543.97,-691.16 545.4,-698.02"/>
</g>
<!-- Image::::Amazon Linux 2 -->
<g id="node2" class="node">
<title>Image::::Amazon Linux 2</title>
<polygon fill="#e5e5e5" stroke="#dddddd" points="454,-433 313,-433 313,-375 454,-375 454,-433"/>
<text text-anchor="start" x="325.5" y="-413.2" font-family="Helvetica,sans-Serif" font-weight="bold" font-size="16.00" fill="#707070">Image</text>
<text text-anchor="start" x="325.5" y="-388.2" font-family="Helvetica,sans-Serif" font-size="16.00" fill="#383838">Amazon Linux 2</text>
</g>
<!-- Instance::::web&#45;server&#45;ec2&#45;vpc -->
<g id="node3" class="node">
<title>Instance::::web&#45;server&#45;ec2&#45;vpc</title>
<polygon fill="#e5e5e5" stroke="#dddddd" points="220.5,-757 54.5,-757 54.5,-699 220.5,-699 220.5,-757"/>
<text text-anchor="start" x="66.5" y="-737.2" font-family="Helvetica,sans-Serif" font-weight="bold" font-size="16.00" fill="#707070">Instance</text>
<text text-anchor="start" x="66.5" y="-712.2" font-family="Helvetica,sans-Serif" font-size="16.00" fill="#383838">web&#45;server&#45;ec2&#45;vpc</text>
</g>
<!-- Instance::::web&#45;server&#45;ec2&#45;vpc&#45;&gt;ElasticIpAddress::::myip -->
<g id="edge9" class="edge">
<title>Instance::::web&#45;server&#45;ec2&#45;vpc&#45;&gt;ElasticIpAddress::::myip</title>
<path fill="none" stroke="#707070" d="M220.77,-728C245.09,-728 271.77,-728 296.33,-728"/>
<polygon fill="#707070" stroke="#707070" points="296.35,-731.5 306.35,-728 296.35,-724.5 296.35,-731.5"/>
</g>
<!-- Instance::::web&#45;server&#45;ec2&#45;vpc&#45;&gt;Image::::Amazon Linux 2 -->
<g id="edge2" class="edge">
<title>Instance::::web&#45;server&#45;ec2&#45;vpc&#45;&gt;Image::::Amazon Linux 2</title>
<path fill="none" stroke="#707070" d="M146.25,-698.61C162.73,-641.51 206.5,-514.81 287,-442 292.07,-437.42 297.76,-433.35 303.77,-429.76"/>
<polygon fill="#707070" stroke="#707070" points="305.69,-432.7 312.77,-424.82 302.32,-426.56 305.69,-432.7"/>
</g>
<!-- KeyPair::::kp&#45;ec2&#45;vpc -->
<g id="node6" class="node">
<title>KeyPair::::kp&#45;ec2&#45;vpc</title>
<polygon fill="#e5e5e5" stroke="#dddddd" points="435.5,-509 331.5,-509 331.5,-451 435.5,-451 435.5,-509"/>
<text text-anchor="start" x="343.5" y="-489.2" font-family="Helvetica,sans-Serif" font-weight="bold" font-size="16.00" fill="#707070">KeyPair</text>
<text text-anchor="start" x="343.5" y="-464.2" font-family="Helvetica,sans-Serif" font-size="16.00" fill="#383838">kp&#45;ec2&#45;vpc</text>
</g>
<!-- Instance::::web&#45;server&#45;ec2&#45;vpc&#45;&gt;KeyPair::::kp&#45;ec2&#45;vpc -->
<g id="edge3" class="edge">
<title>Instance::::web&#45;server&#45;ec2&#45;vpc&#45;&gt;KeyPair::::kp&#45;ec2&#45;vpc</title>
<path fill="none" stroke="#707070" d="M152.18,-698.84C174.5,-654.14 222.8,-568.55 287,-518 297.28,-509.91 309.5,-503.33 321.71,-498.07"/>
<polygon fill="#707070" stroke="#707070" points="323.06,-501.3 331.02,-494.3 320.43,-494.81 323.06,-501.3"/>
</g>
<!-- Subnet::::subnet -->
<g id="node15" class="node">
<title>Subnet::::subnet</title>
<polygon fill="#e5e5e5" stroke="#dddddd" points="980,-653 901,-653 901,-595 980,-595 980,-653"/>
<text text-anchor="start" x="913.5" y="-633.2" font-family="Helvetica,sans-Serif" font-weight="bold" font-size="16.00" fill="#707070">Subnet</text>
<text text-anchor="start" x="913.5" y="-608.2" font-family="Helvetica,sans-Serif" font-size="16.00" fill="#383838">subnet</text>
</g>
<!-- Instance::::web&#45;server&#45;ec2&#45;vpc&#45;&gt;Subnet::::subnet -->
<g id="edge5" class="edge">
<title>Instance::::web&#45;server&#45;ec2&#45;vpc&#45;&gt;Subnet::::subnet</title>
<path fill="none" stroke="#707070" d="M164.71,-698.98C192.06,-671.07 237.76,-630.72 287,-614 398.5,-576.14 759.14,-606.36 890.81,-619.06"/>
<polygon fill="#707070" stroke="#707070" points="890.7,-622.56 900.99,-620.05 891.38,-615.6 890.7,-622.56"/>
</g>
<!-- Volume::::vol&#45;web&#45;server&#45;ec2&#45;vpc -->
<g id="node17" class="node">
<title>Volume::::vol&#45;web&#45;server&#45;ec2&#45;vpc</title>
<polygon fill="#e5e5e5" stroke="#dddddd" points="480,-681 287,-681 287,-623 480,-623 480,-681"/>
<text text-anchor="start" x="299.5" y="-661.2" font-family="Helvetica,sans-Serif" font-weight="bold" font-size="16.00" fill="#707070">Volume</text>
<text text-anchor="start" x="299.5" y="-636.2" font-family="Helvetica,sans-Serif" font-size="16.00" fill="#383838">vol&#45;web&#45;server&#45;ec2&#45;vpc</text>
</g>
<!-- Instance::::web&#45;server&#45;ec2&#45;vpc&#45;&gt;Volume::::vol&#45;web&#45;server&#45;ec2&#45;vpc -->
<g id="edge6" class="edge">
<title>Instance::::web&#45;server&#45;ec2&#45;vpc&#45;&gt;Volume::::vol&#45;web&#45;server&#45;ec2&#45;vpc</title>
<path fill="none" stroke="#707070" d="M220.77,-702.38C239.67,-696.49 260,-690.15 279.66,-684.03"/>
<polygon fill="#707070" stroke="#707070" points="280.73,-687.36 289.24,-681.05 278.65,-680.68 280.73,-687.36"/>
</g>
<!-- Volume::::volume -->
<g id="node18" class="node">
<title>Volume::::volume</title>
<polygon fill="#e5e5e5" stroke="#dddddd" points="424,-833 343,-833 343,-775 424,-775 424,-833"/>
<text text-anchor="start" x="355.5" y="-813.2" font-family="Helvetica,sans-Serif" font-weight="bold" font-size="16.00" fill="#707070">Volume</text>
<text text-anchor="start" x="355.5" y="-788.2" font-family="Helvetica,sans-Serif" font-size="16.00" fill="#383838">volume</text>
</g>
<!-- Instance::::web&#45;server&#45;ec2&#45;vpc&#45;&gt;Volume::::volume -->
<g id="edge7" class="edge">
<title>Instance::::web&#45;server&#45;ec2&#45;vpc&#45;&gt;Volume::::volume</title>
<path fill="none" stroke="#707070" d="M220.77,-753.62C258.13,-765.26 301.08,-778.64 333.32,-788.68"/>
<polygon fill="#707070" stroke="#707070" points="332.37,-792.05 342.96,-791.69 334.46,-785.37 332.37,-792.05"/>
</g>
<!-- Vpc::::vpc&#45;ec2&#45;example -->
<g id="node20" class="node">
<title>Vpc::::vpc&#45;ec2&#45;example</title>
<polygon fill="#e5e5e5" stroke="#dddddd" points="1237,-629 1089,-629 1089,-571 1237,-571 1237,-629"/>
<text text-anchor="start" x="1101" y="-609.2" font-family="Helvetica,sans-Serif" font-weight="bold" font-size="16.00" fill="#707070">Vpc</text>
<text text-anchor="start" x="1101" y="-584.2" font-family="Helvetica,sans-Serif" font-size="16.00" fill="#383838">vpc&#45;ec2&#45;example</text>
</g>
<!-- Instance::::web&#45;server&#45;ec2&#45;vpc&#45;&gt;Vpc::::vpc&#45;ec2&#45;example -->
<g id="edge4" class="edge">
<title>Instance::::web&#45;server&#45;ec2&#45;vpc&#45;&gt;Vpc::::vpc&#45;ec2&#45;example</title>
<path fill="none" stroke="#707070" d="M157.74,-757.22C182.75,-792.31 230.03,-849.52 287,-874 322.84,-889.4 789.57,-882.55 792,-882 917.28,-853.75 955.21,-841.25 1053,-758 1092.6,-724.29 1124.43,-672.97 1143.24,-638.03"/>
<polygon fill="#707070" stroke="#707070" points="1146.39,-639.56 1147.97,-629.08 1140.2,-636.29 1146.39,-639.56"/>
</g>
<!-- Instance::::web&#45;server&#45;ec2&#45;vpc&#45;&gt;NetworkInterface::::eni&#45;03f055e004ea669c4 -->
<g id="edge8" class="edge">
<title>Instance::::web&#45;server&#45;ec2&#45;vpc&#45;&gt;NetworkInterface::::eni&#45;03f055e004ea669c4</title>
<path fill="none" stroke="#707070" d="M164.71,-757.02C192.06,-784.93 237.76,-825.28 287,-842 327.61,-855.79 445.79,-867.86 480,-842 526.8,-806.62 475.1,-757.06 516,-715 524.35,-706.41 534.39,-699.54 545.2,-694.03"/>
<polygon fill="#707070" stroke="#707070" points="546.85,-697.12 554.43,-689.71 543.89,-690.77 546.85,-697.12"/>
</g>
<!-- SecurityGroup::::security&#45;group -->
<g id="node22" class="node">
<title>SecurityGroup::::security&#45;group</title>
<polygon fill="#e5e5e5" stroke="#dddddd" points="1008.5,-749 872.5,-749 872.5,-691 1008.5,-691 1008.5,-749"/>
<text text-anchor="start" x="884.5" y="-729.2" font-family="Helvetica,sans-Serif" font-weight="bold" font-size="16.00" fill="#707070">SecurityGroup</text>
<text text-anchor="start" x="884.5" y="-704.2" font-family="Helvetica,sans-Serif" font-size="16.00" fill="#383838">security&#45;group</text>
</g>
<!-- Instance::::web&#45;server&#45;ec2&#45;vpc&#45;&gt;SecurityGroup::::security&#45;group -->
<g id="edge10" class="edge">
<title>Instance::::web&#45;server&#45;ec2&#45;vpc&#45;&gt;SecurityGroup::::security&#45;group</title>
<path fill="none" stroke="#707070" d="M161.6,-757.16C188.08,-787.99 234.63,-834.78 287,-854 367.52,-883.56 411.41,-905.51 480,-854 525.89,-819.54 470.52,-765 516,-730 542.66,-709.48 747.57,-713.19 862.29,-716.97"/>
<polygon fill="#707070" stroke="#707070" points="862.31,-720.47 872.43,-717.31 862.55,-713.47 862.31,-720.47"/>
</g>
<!-- InternetGateway::::default -->
<g id="node4" class="node">
<title>InternetGateway::::default</title>
<polygon fill="#e5e5e5" stroke="#dddddd" points="458.5,-357 308.5,-357 308.5,-299 458.5,-299 458.5,-357"/>
<text text-anchor="start" x="320.5" y="-337.2" font-family="Helvetica,sans-Serif" font-weight="bold" font-size="16.00" fill="#707070">InternetGateway</text>
<text text-anchor="start" x="320.5" y="-312.2" font-family="Helvetica,sans-Serif" font-size="16.00" fill="#383838">default</text>
</g>
<!-- Vpc::::vpc&#45;default -->
<g id="node19" class="node">
<title>Vpc::::vpc&#45;default</title>
<polygon fill="#e5e5e5" stroke="#dddddd" points="706,-243 602,-243 602,-185 706,-185 706,-243"/>
<text text-anchor="start" x="614" y="-223.2" font-family="Helvetica,sans-Serif" font-weight="bold" font-size="16.00" fill="#707070">Vpc</text>
<text text-anchor="start" x="614" y="-198.2" font-family="Helvetica,sans-Serif" font-size="16.00" fill="#383838">vpc&#45;default</text>
</g>
<!-- InternetGateway::::default&#45;&gt;Vpc::::vpc&#45;default -->
<g id="edge11" class="edge">
<title>InternetGateway::::default&#45;&gt;Vpc::::vpc&#45;default</title>
<path fill="none" stroke="#707070" d="M458.38,-298.9C465.7,-295.93 473,-292.93 480,-290 517.46,-274.33 559.14,-256.04 592.2,-241.33"/>
<polygon fill="#707070" stroke="#707070" points="594.02,-244.36 601.73,-237.09 591.17,-237.96 594.02,-244.36"/>
</g>
<!-- InternetGateway::::ig -->
<g id="node5" class="node">
<title>InternetGateway::::ig</title>
<polygon fill="#e5e5e5" stroke="#dddddd" points="1015.5,-481 865.5,-481 865.5,-423 1015.5,-423 1015.5,-481"/>
<text text-anchor="start" x="877.5" y="-461.2" font-family="Helvetica,sans-Serif" font-weight="bold" font-size="16.00" fill="#707070">InternetGateway</text>
<text text-anchor="start" x="877.5" y="-436.2" font-family="Helvetica,sans-Serif" font-size="16.00" fill="#383838">ig</text>
</g>
<!-- InternetGateway::::ig&#45;&gt;Vpc::::vpc&#45;ec2&#45;example -->
<g id="edge12" class="edge">
<title>InternetGateway::::ig&#45;&gt;Vpc::::vpc&#45;ec2&#45;example</title>
<path fill="none" stroke="#707070" d="M1015.68,-471.89C1028.61,-476.84 1041.56,-482.84 1053,-490 1083.92,-509.35 1112.68,-539.08 1132.88,-562.76"/>
<polygon fill="#707070" stroke="#707070" points="1130.29,-565.12 1139.4,-570.53 1135.66,-560.62 1130.29,-565.12"/>
</g>
<!-- Route::::route&#45;ig -->
<g id="node7" class="node">
<title>Route::::route&#45;ig</title>
<polygon fill="#e5e5e5" stroke="#dddddd" points="423,-585 344,-585 344,-527 423,-527 423,-585"/>
<text text-anchor="start" x="356.5" y="-565.2" font-family="Helvetica,sans-Serif" font-weight="bold" font-size="16.00" fill="#707070">Route</text>
<text text-anchor="start" x="356.5" y="-540.2" font-family="Helvetica,sans-Serif" font-size="16.00" fill="#383838">route&#45;ig</text>
</g>
<!-- Route::::route&#45;ig&#45;&gt;InternetGateway::::ig -->
<g id="edge17" class="edge">
<title>Route::::route&#45;ig&#45;&gt;InternetGateway::::ig</title>
<path fill="none" stroke="#707070" d="M423.01,-543.47C449.05,-535.35 484.33,-525.01 516,-518 632.53,-492.19 769.29,-472.81 855.18,-461.94"/>
<polygon fill="#707070" stroke="#707070" points="855.66,-465.41 865.14,-460.69 854.78,-458.46 855.66,-465.41"/>
</g>
<!-- RouteTable::::route&#45;table -->
<g id="node8" class="node">
<title>RouteTable::::route&#45;table</title>
<polygon fill="#e5e5e5" stroke="#dddddd" points="709,-585 599,-585 599,-527 709,-527 709,-585"/>
<text text-anchor="start" x="611" y="-565.2" font-family="Helvetica,sans-Serif" font-weight="bold" font-size="16.00" fill="#707070">RouteTable</text>
<text text-anchor="start" x="611" y="-540.2" font-family="Helvetica,sans-Serif" font-size="16.00" fill="#383838">route&#45;table</text>
</g>
<!-- Route::::route&#45;ig&#45;&gt;RouteTable::::route&#45;table -->
<g id="edge16" class="edge">
<title>Route::::route&#45;ig&#45;&gt;RouteTable::::route&#45;table</title>
<path fill="none" stroke="#707070" d="M423.26,-556C466.55,-556 537.32,-556 588.89,-556"/>
<polygon fill="#707070" stroke="#707070" points="588.93,-559.5 598.93,-556 588.93,-552.5 588.93,-559.5"/>
</g>
<!-- RouteTable::::route&#45;table&#45;&gt;Subnet::::subnet -->
<g id="edge19" class="edge">
<title>RouteTable::::route&#45;table&#45;&gt;Subnet::::subnet</title>
<path fill="none" stroke="#707070" d="M709.18,-568.95C761.52,-581.46 840.08,-600.24 890.57,-612.31"/>
<polygon fill="#707070" stroke="#707070" points="890.05,-615.78 900.59,-614.7 891.68,-608.97 890.05,-615.78"/>
</g>
<!-- RouteTable::::route&#45;table&#45;&gt;Vpc::::vpc&#45;ec2&#45;example -->
<g id="edge18" class="edge">
<title>RouteTable::::route&#45;table&#45;&gt;Vpc::::vpc&#45;ec2&#45;example</title>
<path fill="none" stroke="#707070" d="M709.15,-559.18C785.81,-563.88 930.29,-573.5 1053,-586 1061.32,-586.85 1069.99,-587.82 1078.64,-588.84"/>
<polygon fill="#707070" stroke="#707070" points="1078.42,-592.34 1088.77,-590.06 1079.26,-585.39 1078.42,-592.34"/>
</g>
<!-- RouteTable::::rt&#45;default&#45;vpc&#45;default -->
<g id="node9" class="node">
<title>RouteTable::::rt&#45;default&#45;vpc&#45;default</title>
<polygon fill="#e5e5e5" stroke="#dddddd" points="470,-281 297,-281 297,-223 470,-223 470,-281"/>
<text text-anchor="start" x="309.5" y="-261.2" font-family="Helvetica,sans-Serif" font-weight="bold" font-size="16.00" fill="#707070">RouteTable</text>
<text text-anchor="start" x="309.5" y="-236.2" font-family="Helvetica,sans-Serif" font-size="16.00" fill="#383838">rt&#45;default&#45;vpc&#45;default</text>
</g>
<!-- RouteTable::::rt&#45;default&#45;vpc&#45;default&#45;&gt;Vpc::::vpc&#45;default -->
<g id="edge20" class="edge">
<title>RouteTable::::rt&#45;default&#45;vpc&#45;default&#45;&gt;Vpc::::vpc&#45;default</title>
<path fill="none" stroke="#707070" d="M470.19,-239.87C509.58,-234.3 555.42,-227.81 591.34,-222.73"/>
<polygon fill="#707070" stroke="#707070" points="592.26,-226.13 601.67,-221.26 591.28,-219.2 592.26,-226.13"/>
</g>
<!-- RouteTable::::rt&#45;default&#45;vpc&#45;ec2&#45;example -->
<g id="node10" class="node">
<title>RouteTable::::rt&#45;default&#45;vpc&#45;ec2&#45;example</title>
<polygon fill="#e5e5e5" stroke="#dddddd" points="1049,-557 832,-557 832,-499 1049,-499 1049,-557"/>
<text text-anchor="start" x="844.5" y="-537.2" font-family="Helvetica,sans-Serif" font-weight="bold" font-size="16.00" fill="#707070">RouteTable</text>
<text text-anchor="start" x="844.5" y="-512.2" font-family="Helvetica,sans-Serif" font-size="16.00" fill="#383838">rt&#45;default&#45;vpc&#45;ec2&#45;example</text>
</g>
<!-- RouteTable::::rt&#45;default&#45;vpc&#45;ec2&#45;example&#45;&gt;Vpc::::vpc&#45;ec2&#45;example -->
<g id="edge21" class="edge">
<title>RouteTable::::rt&#45;default&#45;vpc&#45;ec2&#45;example&#45;&gt;Vpc::::vpc&#45;ec2&#45;example</title>
<path fill="none" stroke="#707070" d="M1030.55,-557.08C1046.59,-562.31 1063.24,-567.75 1079.09,-572.93"/>
<polygon fill="#707070" stroke="#707070" points="1078.25,-576.34 1088.85,-576.11 1080.43,-569.68 1078.25,-576.34"/>
</g>
<!-- SecurityGroupRuleIngress::::sg&#45;default&#45;vpc&#45;ec2&#45;example&#45;rule&#45;ingress&#45;all -->
<g id="node11" class="node">
<title>SecurityGroupRuleIngress::::sg&#45;default&#45;vpc&#45;ec2&#45;example&#45;rule&#45;ingress&#45;all</title>
<polygon fill="#e5e5e5" stroke="#dddddd" points="792,-387 516,-387 516,-329 792,-329 792,-387"/>
<text text-anchor="start" x="528" y="-367.2" font-family="Helvetica,sans-Serif" font-weight="bold" font-size="16.00" fill="#707070">SecurityGroupRuleIngress</text>
<text text-anchor="start" x="528" y="-342.2" font-family="Helvetica,sans-Serif" font-size="16.00" fill="#383838">sg&#45;default&#45;vpc&#45;ec2&#45;example&#45;rule&#45;...</text>
</g>
<!-- SecurityGroup::::sg&#45;default&#45;vpc&#45;ec2&#45;example -->
<g id="node24" class="node">
<title>SecurityGroup::::sg&#45;default&#45;vpc&#45;ec2&#45;example</title>
<polygon fill="#e5e5e5" stroke="#dddddd" points="1053,-387 828,-387 828,-329 1053,-329 1053,-387"/>
<text text-anchor="start" x="840.5" y="-367.2" font-family="Helvetica,sans-Serif" font-weight="bold" font-size="16.00" fill="#707070">SecurityGroup</text>
<text text-anchor="start" x="840.5" y="-342.2" font-family="Helvetica,sans-Serif" font-size="16.00" fill="#383838">sg&#45;default&#45;vpc&#45;ec2&#45;example</text>
</g>
<!-- SecurityGroupRuleIngress::::sg&#45;default&#45;vpc&#45;ec2&#45;example&#45;rule&#45;ingress&#45;all&#45;&gt;SecurityGroup::::sg&#45;default&#45;vpc&#45;ec2&#45;example -->
<g id="edge26" class="edge">
<title>SecurityGroupRuleIngress::::sg&#45;default&#45;vpc&#45;ec2&#45;example&#45;rule&#45;ingress&#45;all&#45;&gt;SecurityGroup::::sg&#45;default&#45;vpc&#45;ec2&#45;example</title>
<path fill="none" stroke="#707070" d="M792.25,-358C800.74,-358 809.25,-358 817.66,-358"/>
<polygon fill="#707070" stroke="#707070" points="817.86,-361.5 827.86,-358 817.86,-354.5 817.86,-361.5"/>
</g>
<!-- SecurityGroupRuleIngress::::sg&#45;rule&#45;ingress&#45;icmp -->
<g id="node12" class="node">
<title>SecurityGroupRuleIngress::::sg&#45;rule&#45;ingress&#45;icmp</title>
<polygon fill="#e5e5e5" stroke="#dddddd" points="767.5,-873 540.5,-873 540.5,-815 767.5,-815 767.5,-873"/>
<text text-anchor="start" x="553" y="-853.2" font-family="Helvetica,sans-Serif" font-weight="bold" font-size="16.00" fill="#707070">SecurityGroupRuleIngress</text>
<text text-anchor="start" x="553" y="-828.2" font-family="Helvetica,sans-Serif" font-size="16.00" fill="#383838">sg&#45;rule&#45;ingress&#45;icmp</text>
</g>
<!-- SecurityGroupRuleIngress::::sg&#45;rule&#45;ingress&#45;icmp&#45;&gt;SecurityGroup::::security&#45;group -->
<g id="edge27" class="edge">
<title>SecurityGroupRuleIngress::::sg&#45;rule&#45;ingress&#45;icmp&#45;&gt;SecurityGroup::::security&#45;group</title>
<path fill="none" stroke="#707070" d="M767.59,-815.32C775.93,-812.42 784.15,-809.31 792,-806 825.27,-791.96 860.28,-771.81 887.83,-754.55"/>
<polygon fill="#707070" stroke="#707070" points="889.93,-757.36 896.5,-749.05 886.18,-751.45 889.93,-757.36"/>
</g>
<!-- SecurityGroupRuleIngress::::sg&#45;rule&#45;ingress&#45;ssh -->
<g id="node13" class="node">
<title>SecurityGroupRuleIngress::::sg&#45;rule&#45;ingress&#45;ssh</title>
<polygon fill="#e5e5e5" stroke="#dddddd" points="767.5,-797 540.5,-797 540.5,-739 767.5,-739 767.5,-797"/>
<text text-anchor="start" x="553" y="-777.2" font-family="Helvetica,sans-Serif" font-weight="bold" font-size="16.00" fill="#707070">SecurityGroupRuleIngress</text>
<text text-anchor="start" x="553" y="-752.2" font-family="Helvetica,sans-Serif" font-size="16.00" fill="#383838">sg&#45;rule&#45;ingress&#45;ssh</text>
</g>
<!-- SecurityGroupRuleIngress::::sg&#45;rule&#45;ingress&#45;ssh&#45;&gt;SecurityGroup::::security&#45;group -->
<g id="edge28" class="edge">
<title>SecurityGroupRuleIngress::::sg&#45;rule&#45;ingress&#45;ssh&#45;&gt;SecurityGroup::::security&#45;group</title>
<path fill="none" stroke="#707070" d="M767.85,-748.96C799.49,-743.62 833.16,-737.94 862.22,-733.04"/>
<polygon fill="#707070" stroke="#707070" points="863.02,-736.45 872.3,-731.34 861.86,-729.55 863.02,-736.45"/>
</g>
<!-- SecurityGroupRuleIngress::::sg&#45;rule&#45;ingress&#45;test -->
<g id="node14" class="node">
<title>SecurityGroupRuleIngress::::sg&#45;rule&#45;ingress&#45;test</title>
<polygon fill="#e5e5e5" stroke="#dddddd" points="251,-205 24,-205 24,-147 251,-147 251,-205"/>
<text text-anchor="start" x="36.5" y="-185.2" font-family="Helvetica,sans-Serif" font-weight="bold" font-size="16.00" fill="#707070">SecurityGroupRuleIngress</text>
<text text-anchor="start" x="36.5" y="-160.2" font-family="Helvetica,sans-Serif" font-size="16.00" fill="#383838">sg&#45;rule&#45;ingress&#45;test</text>
</g>
<!-- SecurityGroup::::sg&#45;default&#45;vpc&#45;default -->
<g id="node23" class="node">
<title>SecurityGroup::::sg&#45;default&#45;vpc&#45;default</title>
<polygon fill="#e5e5e5" stroke="#dddddd" points="474,-205 293,-205 293,-147 474,-147 474,-205"/>
<text text-anchor="start" x="305.5" y="-185.2" font-family="Helvetica,sans-Serif" font-weight="bold" font-size="16.00" fill="#707070">SecurityGroup</text>
<text text-anchor="start" x="305.5" y="-160.2" font-family="Helvetica,sans-Serif" font-size="16.00" fill="#383838">sg&#45;default&#45;vpc&#45;default</text>
</g>
<!-- SecurityGroupRuleIngress::::sg&#45;rule&#45;ingress&#45;test&#45;&gt;SecurityGroup::::sg&#45;default&#45;vpc&#45;default -->
<g id="edge29" class="edge">
<title>SecurityGroupRuleIngress::::sg&#45;rule&#45;ingress&#45;test&#45;&gt;SecurityGroup::::sg&#45;default&#45;vpc&#45;default</title>
<path fill="none" stroke="#707070" d="M251.22,-176C261.7,-176 272.28,-176 282.65,-176"/>
<polygon fill="#707070" stroke="#707070" points="282.92,-179.5 292.92,-176 282.92,-172.5 282.92,-179.5"/>
</g>
<!-- Subnet::::subnet&#45;&gt;Vpc::::vpc&#45;ec2&#45;example -->
<g id="edge30" class="edge">
<title>Subnet::::subnet&#45;&gt;Vpc::::vpc&#45;ec2&#45;example</title>
<path fill="none" stroke="#707070" d="M980.16,-619.79C1007.25,-616.84 1044.49,-612.79 1078.23,-609.12"/>
<polygon fill="#707070" stroke="#707070" points="1079,-612.55 1088.57,-607.99 1078.25,-605.6 1079,-612.55"/>
</g>
<!-- Subnet::::subnet&#45;default -->
<g id="node16" class="node">
<title>Subnet::::subnet&#45;default</title>
<polygon fill="#e5e5e5" stroke="#dddddd" points="447,-129 320,-129 320,-71 447,-71 447,-129"/>
<text text-anchor="start" x="332.5" y="-109.2" font-family="Helvetica,sans-Serif" font-weight="bold" font-size="16.00" fill="#707070">Subnet</text>
<text text-anchor="start" x="332.5" y="-84.2" font-family="Helvetica,sans-Serif" font-size="16.00" fill="#383838">subnet&#45;default</text>
</g>
<!-- Subnet::::subnet&#45;default&#45;&gt;Vpc::::vpc&#45;default -->
<g id="edge31" class="edge">
<title>Subnet::::subnet&#45;default&#45;&gt;Vpc::::vpc&#45;default</title>
<path fill="none" stroke="#707070" d="M447.04,-124.52C458.05,-128.94 469.38,-133.56 480,-138 517.46,-153.67 559.14,-171.96 592.2,-186.67"/>
<polygon fill="#707070" stroke="#707070" points="591.17,-190.04 601.73,-190.91 594.02,-183.64 591.17,-190.04"/>
</g>
<!-- NetworkInterface::::eni&#45;03f055e004ea669c4&#45;&gt;Subnet::::subnet -->
<g id="edge15" class="edge">
<title>NetworkInterface::::eni&#45;03f055e004ea669c4&#45;&gt;Subnet::::subnet</title>
<path fill="none" stroke="#707070" d="M753.71,-655.35C800.06,-647.53 853.25,-638.55 890.8,-632.22"/>
<polygon fill="#707070" stroke="#707070" points="891.68,-635.62 900.96,-630.5 890.52,-628.71 891.68,-635.62"/>
</g>
<!-- NetworkInterface::::eni&#45;03f055e004ea669c4&#45;&gt;Vpc::::vpc&#45;ec2&#45;example -->
<g id="edge14" class="edge">
<title>NetworkInterface::::eni&#45;03f055e004ea669c4&#45;&gt;Vpc::::vpc&#45;ec2&#45;example</title>
<path fill="none" stroke="#707070" d="M753.84,-674.99C853.11,-677.02 998.89,-677.04 1053,-662 1074,-656.16 1095.25,-645.41 1113.33,-634.48"/>
<polygon fill="#707070" stroke="#707070" points="1115.3,-637.37 1121.94,-629.12 1111.6,-631.43 1115.3,-637.37"/>
</g>
<!-- NetworkInterface::::eni&#45;03f055e004ea669c4&#45;&gt;SecurityGroup::::security&#45;group -->
<g id="edge13" class="edge">
<title>NetworkInterface::::eni&#45;03f055e004ea669c4&#45;&gt;SecurityGroup::::security&#45;group</title>
<path fill="none" stroke="#707070" d="M753.71,-688.65C789.19,-694.64 828.68,-701.3 862.1,-706.94"/>
<polygon fill="#707070" stroke="#707070" points="861.82,-710.44 872.26,-708.66 862.98,-703.54 861.82,-710.44"/>
</g>
<!-- SecurityGroup::::security&#45;group&#45;&gt;Vpc::::vpc&#45;ec2&#45;example -->
<g id="edge22" class="edge">
<title>SecurityGroup::::security&#45;group&#45;&gt;Vpc::::vpc&#45;ec2&#45;example</title>
<path fill="none" stroke="#707070" d="M1008.74,-697.16C1023.62,-691.26 1039.1,-684.44 1053,-677 1075.24,-665.09 1098.28,-649.38 1117.42,-635.26"/>
<polygon fill="#707070" stroke="#707070" points="1119.73,-637.91 1125.64,-629.11 1115.54,-632.3 1119.73,-637.91"/>
</g>
<!-- SecurityGroup::::sg&#45;default&#45;vpc&#45;default&#45;&gt;Vpc::::vpc&#45;default -->
<g id="edge23" class="edge">
<title>SecurityGroup::::sg&#45;default&#45;vpc&#45;default&#45;&gt;Vpc::::vpc&#45;default</title>
<path fill="none" stroke="#707070" d="M474.28,-188.71C512.85,-194.17 556.95,-200.41 591.69,-205.32"/>
<polygon fill="#707070" stroke="#707070" points="591.3,-208.8 601.69,-206.74 592.28,-201.87 591.3,-208.8"/>
</g>
<!-- SecurityGroup::::sg&#45;default&#45;vpc&#45;ec2&#45;example&#45;&gt;Vpc::::vpc&#45;ec2&#45;example -->
<g id="edge24" class="edge">
<title>SecurityGroup::::sg&#45;default&#45;vpc&#45;ec2&#45;example&#45;&gt;Vpc::::vpc&#45;ec2&#45;example</title>
<path fill="none" stroke="#707070" d="M1014.74,-387.15C1028.4,-394.62 1041.86,-403.56 1053,-414 1097.75,-455.94 1129.87,-520.4 1147.19,-561.36"/>
<polygon fill="#707070" stroke="#707070" points="1144.02,-562.84 1151.07,-570.74 1150.48,-560.16 1144.02,-562.84"/>
</g>
<!-- SecurityGroup::::sg&#45;default&#45;vpc&#45;ec2&#45;example&#45;&gt;SecurityGroup::::sg&#45;default&#45;vpc&#45;ec2&#45;example -->
<g id="edge25" class="edge">
<title>SecurityGroup::::sg&#45;default&#45;vpc&#45;ec2&#45;example&#45;&gt;SecurityGroup::::sg&#45;default&#45;vpc&#45;ec2&#45;example</title>
<path fill="none" stroke="#707070" d="M898.88,-387.38C898.88,-397.17 912.75,-405 940.5,-405 958.71,-405 970.95,-401.63 977.21,-396.54"/>
<polygon fill="#707070" stroke="#707070" points="980.48,-397.84 982.12,-387.38 974.31,-394.53 980.48,-397.84"/>
</g>
</g>
</svg>
