<?xml version="1.0" encoding="UTF-8" standalone="no"?><svg xmlns="http://www.w3.org/2000/svg" xmlns:xlink="http://www.w3.org/1999/xlink" contentStyleType="text/css" height="228px" preserveAspectRatio="none" style="width:533px;height:228px;background:#FFFFFF;" version="1.1" viewBox="0 0 533 228" width="533px" zoomAndPan="magnify"><defs/><g><rect height="26.4883" style="stroke:#00000000;stroke-width:1.0;fill:none;" width="478" x="15" y="15"/><text fill="#000000" font-family="sans-serif" font-size="14" font-weight="bold" lengthAdjust="spacing" textLength="468" x="20" y="33.5352">Resources for project eventbridge-schedule-to-eventbridge-cdk</text><rect fill="#F1F1F1" height="36.4883" rx="12.5" ry="12.5" style="stroke:#181818;stroke-width:1.5;" width="52" x="37.5" y="113.9766"/><text fill="#000000" font-family="sans-serif" font-size="14" lengthAdjust="spacing" textLength="32" x="47.5" y="137.5117">Infra</text><rect fill="#F1F1F1" height="36.4883" rx="12.5" ry="12.5" style="stroke:#181818;stroke-width:1.5;" width="46" x="139.5" y="113.9766"/><text fill="#000000" font-family="sans-serif" font-size="14" lengthAdjust="spacing" textLength="26" x="149.5" y="137.5117">aws</text><rect fill="#F1F1F1" height="36.4883" rx="12.5" ry="12.5" style="stroke:#181818;stroke-width:1.5;" width="46" x="235.5" y="57.4883"/><text fill="#000000" font-family="sans-serif" font-size="14" lengthAdjust="spacing" textLength="26" x="245.5" y="81.0234">IAM</text><rect fill="#F1F1F1" height="36.4883" rx="12.5" ry="12.5" style="stroke:#181818;stroke-width:1.5;" width="73" x="331.5" y="57.4883"/><text fill="#000000" font-family="sans-serif" font-size="14" lengthAdjust="spacing" textLength="53" x="341.5" y="81.0234">Role (1)</text><path d="M281.5,75.7324 L291.5,75.7324 C306.5,75.7324 306.5,75.7324 321.5,75.7324 L331.5,75.7324 " fill="none" style="stroke:#181818;stroke-width:1.0;"/><path d="M185.5,132.2207 L195.5,132.2207 C210.5,132.2207 210.5,75.7324 225.5,75.7324 L235.5,75.7324 " fill="none" style="stroke:#181818;stroke-width:1.0;"/><rect fill="#F1F1F1" height="36.4883" rx="12.5" ry="12.5" style="stroke:#181818;stroke-width:1.5;" width="88" x="235.5" y="142.2207"/><text fill="#000000" font-family="sans-serif" font-size="14" lengthAdjust="spacing" textLength="68" x="245.5" y="165.7559">Scheduler</text><rect fill="#F1F1F1" height="36.4883" rx="12.5" ry="12.5" style="stroke:#181818;stroke-width:1.5;" width="105" x="373.5" y="113.9766"/><text fill="#000000" font-family="sans-serif" font-size="14" lengthAdjust="spacing" textLength="85" x="383.5" y="137.5117">Schedule (1)</text><path d="M323.5,160.4648 L333.5,160.4648 C348.5,160.4648 348.5,132.2207 363.5,132.2207 L373.5,132.2207 " fill="none" style="stroke:#181818;stroke-width:1.0;"/><rect fill="#F1F1F1" height="36.4883" rx="12.5" ry="12.5" style="stroke:#181818;stroke-width:1.5;" width="148" x="373.5" y="170.4648"/><text fill="#000000" font-family="sans-serif" font-size="14" lengthAdjust="spacing" textLength="128" x="383.5" y="194">ScheduleGroup (1)</text><path d="M323.5,160.4648 L333.5,160.4648 C348.5,160.4648 348.5,188.709 363.5,188.709 L373.5,188.709 " fill="none" style="stroke:#181818;stroke-width:1.0;"/><path d="M185.5,132.2207 L195.5,132.2207 C210.5,132.2207 210.5,160.4648 225.5,160.4648 L235.5,160.4648 " fill="none" style="stroke:#181818;stroke-width:1.0;"/><path d="M89.5,132.2207 L99.5,132.2207 C114.5,132.2207 114.5,132.2207 129.5,132.2207 L139.5,132.2207 " fill="none" style="stroke:#181818;stroke-width:1.0;"/><!--MD5=[f8719e19551f192d3e5cde7584f3f413]
@startmindmap
title Resources for project eventbridge-schedule-to-eventbridge-cdk
skinparam monochrome true
+ Infra
++ aws
+++ IAM
++++ Role (1)
+++ Scheduler
++++ Schedule (1)
++++ ScheduleGroup (1)
@endmindmap

PlantUML version 1.2022.6(Tue Jun 21 12:34:49 COT 2022)
(GPL source distribution)
Java Runtime: Java(TM) SE Runtime Environment
JVM: Java HotSpot(TM) 64-Bit Server VM
Default Encoding: UTF-8
Language: en
Country: GB
--></g></svg>