<?xml version="1.0" encoding="UTF-8" standalone="no"?>
<!DOCTYPE svg PUBLIC "-//W3C//DTD SVG 1.1//EN"
 "http://www.w3.org/Graphics/SVG/1.1/DTD/svg11.dtd">
<!-- Generated by graphviz version 7.1.0 (20230121.1956)
 -->
<!-- Title: graphname Pages: 1 -->
<svg width="837pt" height="389pt"
 viewBox="0.00 0.00 837.00 389.00" xmlns="http://www.w3.org/2000/svg" xmlns:xlink="http://www.w3.org/1999/xlink">
<g id="graph0" class="graph" transform="scale(1 1) rotate(0) translate(4 385)">
<title>graphname</title>
<polygon fill="#fafafa" stroke="none" points="-4,4 -4,-385 833,-385 833,4 -4,4"/>
<text text-anchor="start" x="280.5" y="-356.4" font-family="Helvetica,sans-Serif" font-weight="bold" font-size="22.00" fill="#383838">Project cognito&#45;user&#45;pool</text>
<text text-anchor="start" x="410.5" y="-340.8" font-family="Helvetica,sans-Serif" font-size="14.00"> &#160;</text>
<text text-anchor="start" x="280.5" y="-319.2" font-family="Helvetica,sans-Serif" font-weight="bold" font-size="16.00" fill="#707070">Target Diagram</text>
<g id="clust1" class="cluster">
<title>cluster_aws</title>
<polygon fill="#f5f5f5" stroke="#f5f5f5" points="8,-8 8,-297 821,-297 821,-8 8,-8"/>
<text text-anchor="start" x="352.5" y="-23" font-family="Helvetica,sans-Serif" font-weight="bold" font-size="20.00" fill="#707070">Provider aws</text>
</g>
<g id="clust2" class="cluster">
<title>cluster_aws_</title>
<polygon fill="#eeeeee" stroke="#eeeeee" points="16,-54 16,-289 813,-289 813,-54 16,-54"/>
<text text-anchor="start" x="414.36" y="-58.3" font-family="Helvetica,sans-Serif" font-size="1.00" fill="#383838"> </text>
</g>
<!-- ResourceServer::com.apigw -->
<g id="node1" class="node">
<title>ResourceServer::com.apigw</title>
<polygon fill="#e5e5e5" stroke="#dddddd" points="423,-281 27,-281 27,-223 423,-223 423,-281"/>
<text text-anchor="start" x="39" y="-261.2" font-family="Helvetica,sans-Serif" font-weight="bold" font-size="16.00" fill="#707070">CognitoIdentityServiceProvider::ResourceServer</text>
<text text-anchor="start" x="39" y="-236.2" font-family="Helvetica,sans-Serif" font-size="16.00" fill="#383838">com.apigw</text>
</g>
<!-- UserPool::cognito&#45;user&#45;pool&#45;userpool -->
<g id="node2" class="node">
<title>UserPool::cognito&#45;user&#45;pool&#45;userpool</title>
<polygon fill="#e5e5e5" stroke="#dddddd" points="805,-205 462,-205 462,-147 805,-147 805,-205"/>
<text text-anchor="start" x="474.5" y="-185.2" font-family="Helvetica,sans-Serif" font-weight="bold" font-size="16.00" fill="#707070">CognitoIdentityServiceProvider::UserPool</text>
<text text-anchor="start" x="474.5" y="-160.2" font-family="Helvetica,sans-Serif" font-size="16.00" fill="#383838">cognito&#45;user&#45;pool&#45;userpool</text>
</g>
<!-- ResourceServer::com.apigw&#45;&gt;UserPool::cognito&#45;user&#45;pool&#45;userpool -->
<g id="edge1" class="edge">
<title>ResourceServer::com.apigw&#45;&gt;UserPool::cognito&#45;user&#45;pool&#45;userpool</title>
<path fill="none" stroke="#707070" d="M383.75,-222.51C409.91,-217.62 437.14,-212.52 463.57,-207.58"/>
<polygon fill="#707070" stroke="#707070" points="464.17,-211.03 473.36,-205.75 462.88,-204.15 464.17,-211.03"/>
</g>
<!-- UserPoolClient::cognito&#45;user&#45;pool&#45;client -->
<g id="node3" class="node">
<title>UserPoolClient::cognito&#45;user&#45;pool&#45;client</title>
<polygon fill="#e5e5e5" stroke="#dddddd" points="419,-205 31,-205 31,-147 419,-147 419,-205"/>
<text text-anchor="start" x="43" y="-185.2" font-family="Helvetica,sans-Serif" font-weight="bold" font-size="16.00" fill="#707070">CognitoIdentityServiceProvider::UserPoolClient</text>
<text text-anchor="start" x="43" y="-160.2" font-family="Helvetica,sans-Serif" font-size="16.00" fill="#383838">cognito&#45;user&#45;pool&#45;client</text>
</g>
<!-- UserPoolClient::cognito&#45;user&#45;pool&#45;client&#45;&gt;UserPool::cognito&#45;user&#45;pool&#45;userpool -->
<g id="edge2" class="edge">
<title>UserPoolClient::cognito&#45;user&#45;pool&#45;client&#45;&gt;UserPool::cognito&#45;user&#45;pool&#45;userpool</title>
<path fill="none" stroke="#707070" d="M419.43,-176C429.69,-176 439.98,-176 450.21,-176"/>
<polygon fill="#707070" stroke="#707070" points="450.2,-179.5 460.2,-176 450.2,-172.5 450.2,-179.5"/>
</g>
<!-- UserPoolDomain::user&#45;pool&#45;domain&#45;840541460064 -->
<g id="node4" class="node">
<title>UserPoolDomain::user&#45;pool&#45;domain&#45;840541460064</title>
<polygon fill="#e5e5e5" stroke="#dddddd" points="426,-129 24,-129 24,-71 426,-71 426,-129"/>
<text text-anchor="start" x="36" y="-109.2" font-family="Helvetica,sans-Serif" font-weight="bold" font-size="16.00" fill="#707070">CognitoIdentityServiceProvider::UserPoolDomain</text>
<text text-anchor="start" x="36" y="-84.2" font-family="Helvetica,sans-Serif" font-size="16.00" fill="#383838">user&#45;pool&#45;domain&#45;840541460064</text>
</g>
<!-- UserPoolDomain::user&#45;pool&#45;domain&#45;840541460064&#45;&gt;UserPool::cognito&#45;user&#45;pool&#45;userpool -->
<g id="edge3" class="edge">
<title>UserPoolDomain::user&#45;pool&#45;domain&#45;840541460064&#45;&gt;UserPool::cognito&#45;user&#45;pool&#45;userpool</title>
<path fill="none" stroke="#707070" d="M383.75,-129.49C409.91,-134.38 437.14,-139.48 463.57,-144.42"/>
<polygon fill="#707070" stroke="#707070" points="462.88,-147.85 473.36,-146.25 464.17,-140.97 462.88,-147.85"/>
</g>
</g>
</svg>
