<?xml version="1.0" encoding="UTF-8" standalone="no"?>
<!DOCTYPE svg PUBLIC "-//W3C//DTD SVG 1.1//EN"
 "http://www.w3.org/Graphics/SVG/1.1/DTD/svg11.dtd">
<!-- Generated by graphviz version 3.0.0 (20220226.1711)
 -->
<!-- Title: graphname Pages: 1 -->
<svg width="358pt" height="237pt"
 viewBox="0.00 0.00 358.00 237.00" xmlns="http://www.w3.org/2000/svg" xmlns:xlink="http://www.w3.org/1999/xlink">
<g id="graph0" class="graph" transform="scale(1 1) rotate(0) translate(4 233)">
<title>graphname</title>
<polygon fill="#fafafa" stroke="transparent" points="-4,4 -4,-233 354,-233 354,4 -4,4"/>
<text text-anchor="start" x="81" y="-204.4" font-family="Helvetica,sans-Serif" font-weight="bold" font-size="22.00" fill="#383838">Project iam&#45;policy</text>
<text text-anchor="start" x="171.5" y="-188.8" font-family="Helvetica,sans-Serif" font-size="14.00"> &#160;</text>
<text text-anchor="start" x="81" y="-167.2" font-family="Helvetica,sans-Serif" font-weight="bold" font-size="16.00" fill="#707070">Live Diagram</text>
<g id="clust1" class="cluster">
<title>cluster_aws</title>
<polygon fill="#f5f5f5" stroke="#f5f5f5" points="8,-8 8,-145 342,-145 342,-8 8,-8"/>
<text text-anchor="start" x="113" y="-23" font-family="Helvetica,sans-Serif" font-weight="bold" font-size="20.00" fill="#707070">Provider aws</text>
</g>
<g id="clust2" class="cluster">
<title>cluster_aws_</title>
<polygon fill="#eeeeee" stroke="#eeeeee" points="16,-54 16,-137 334,-137 334,-54 16,-54"/>
<text text-anchor="start" x="174.86" y="-58.3" font-family="Helvetica,sans-Serif" font-size="1.00" fill="#383838"> </text>
</g>
<!-- Policy::::policy&#45;allow&#45;ec2 -->
<g id="node1" class="node">
<title>Policy::::policy&#45;allow&#45;ec2</title>
<polygon fill="#e5e5e5" stroke="#dddddd" points="326,-129 186,-129 186,-71 326,-71 326,-129"/>
<text text-anchor="start" x="198" y="-109.2" font-family="Helvetica,sans-Serif" font-weight="bold" font-size="16.00" fill="#707070">IAM::Policy</text>
<text text-anchor="start" x="198" y="-84.2" font-family="Helvetica,sans-Serif" font-size="16.00" fill="#383838">policy&#45;allow&#45;ec2</text>
</g>
<!-- Role::::role&#45;4&#45;policies -->
<g id="node2" class="node">
<title>Role::::role&#45;4&#45;policies</title>
<polygon fill="#e5e5e5" stroke="#dddddd" points="150,-129 24,-129 24,-71 150,-71 150,-129"/>
<text text-anchor="start" x="36" y="-109.2" font-family="Helvetica,sans-Serif" font-weight="bold" font-size="16.00" fill="#707070">IAM::Role</text>
<text text-anchor="start" x="36" y="-84.2" font-family="Helvetica,sans-Serif" font-size="16.00" fill="#383838">role&#45;4&#45;policies</text>
</g>
<!-- Role::::role&#45;4&#45;policies&#45;&gt;Policy::::policy&#45;allow&#45;ec2 -->
<g id="edge1" class="edge">
<title>Role::::role&#45;4&#45;policies&#45;&gt;Policy::::policy&#45;allow&#45;ec2</title>
<path fill="none" stroke="#707070" d="M150.18,-100C158.52,-100 167.15,-100 175.73,-100"/>
<polygon fill="#707070" stroke="#707070" points="175.74,-103.5 185.74,-100 175.74,-96.5 175.74,-103.5"/>
</g>
</g>
</svg>
