<?xml version="1.0" encoding="UTF-8" standalone="no"?>
<!DOCTYPE svg PUBLIC "-//W3C//DTD SVG 1.1//EN"
 "http://www.w3.org/Graphics/SVG/1.1/DTD/svg11.dtd">
<!-- Generated by graphviz version 2.44.1 (20200629.0846)
 -->
<!-- Title: graphname Pages: 1 -->
<svg width="514pt" height="313pt"
 viewBox="0.00 0.00 514.00 313.00" xmlns="http://www.w3.org/2000/svg" xmlns:xlink="http://www.w3.org/1999/xlink">
<g id="graph0" class="graph" transform="scale(1 1) rotate(0) translate(4 309)">
<title>graphname</title>
<polygon fill="#fafafa" stroke="transparent" points="-4,4 -4,-309 510,-309 510,4 -4,4"/>
<text text-anchor="start" x="159" y="-280.4" font-family="Helvetica,sans-Serif" font-weight="bold" font-size="22.00" fill="#383838">Project iam&#45;policy</text>
<text text-anchor="start" x="249.5" y="-264.8" font-family="Helvetica,sans-Serif" font-size="14.00"> &#160;</text>
<text text-anchor="start" x="159" y="-243.2" font-family="Helvetica,sans-Serif" font-weight="bold" font-size="16.00" fill="#707070">Target Diagram</text>
<g id="clust1" class="cluster">
<title>cluster_aws</title>
<polygon fill="#f5f5f5" stroke="#f5f5f5" points="8,-8 8,-221 498,-221 498,-8 8,-8"/>
<text text-anchor="start" x="191" y="-23" font-family="Helvetica,sans-Serif" font-weight="bold" font-size="20.00" fill="#707070">Provider aws</text>
</g>
<g id="clust2" class="cluster">
<title>cluster_aws_</title>
<polygon fill="#eeeeee" stroke="#eeeeee" points="16,-54 16,-213 490,-213 490,-54 16,-54"/>
<text text-anchor="start" x="252.86" y="-58.3" font-family="Helvetica,sans-Serif" font-size="1.00" fill="#383838"> </text>
</g>
<!-- Policy::policy&#45;allow&#45;ec2 -->
<g id="node1" class="node">
<title>Policy::policy&#45;allow&#45;ec2</title>
<polygon fill="#e5e5e5" stroke="#dddddd" points="404,-129 264,-129 264,-71 404,-71 404,-129"/>
<text text-anchor="start" x="276" y="-109.2" font-family="Helvetica,sans-Serif" font-weight="bold" font-size="16.00" fill="#707070">Policy</text>
<text text-anchor="start" x="276" y="-84.2" font-family="Helvetica,sans-Serif" font-size="16.00" fill="#383838">policy&#45;allow&#45;ec2</text>
</g>
<!-- Policy::arn:aws:IAM::aws:policy/AmazonEKSWorkerNodePolicy -->
<g id="node2" class="node">
<title>Policy::arn:aws:IAM::aws:policy/AmazonEKSWorkerNodePolicy</title>
<polygon fill="#e5e5e5" stroke="#dddddd" points="482,-205 186,-205 186,-147 482,-147 482,-205"/>
<text text-anchor="start" x="198" y="-185.2" font-family="Helvetica,sans-Serif" font-weight="bold" font-size="16.00" fill="#707070">Policy</text>
<text text-anchor="start" x="198" y="-160.2" font-family="Helvetica,sans-Serif" font-size="16.00" fill="#383838">arn:aws:IAM::aws:policy/AmazonEK...</text>
</g>
<!-- Role::role&#45;4&#45;policies -->
<g id="node3" class="node">
<title>Role::role&#45;4&#45;policies</title>
<polygon fill="#e5e5e5" stroke="#dddddd" points="150,-167 24,-167 24,-109 150,-109 150,-167"/>
<text text-anchor="start" x="36" y="-147.2" font-family="Helvetica,sans-Serif" font-weight="bold" font-size="16.00" fill="#707070">Role</text>
<text text-anchor="start" x="36" y="-122.2" font-family="Helvetica,sans-Serif" font-size="16.00" fill="#383838">role&#45;4&#45;policies</text>
</g>
<!-- Role::role&#45;4&#45;policies&#45;&gt;Policy::policy&#45;allow&#45;ec2 -->
<g id="edge1" class="edge">
<title>Role::role&#45;4&#45;policies&#45;&gt;Policy::policy&#45;allow&#45;ec2</title>
<path fill="none" stroke="#707070" d="M150.14,-128.36C181.49,-123.5 219.87,-117.55 253.36,-112.35"/>
<polygon fill="#707070" stroke="#707070" points="254.23,-115.76 263.58,-110.77 253.16,-108.84 254.23,-115.76"/>
</g>
<!-- Role::role&#45;4&#45;policies&#45;&gt;Policy::arn:aws:IAM::aws:policy/AmazonEKSWorkerNodePolicy -->
<g id="edge2" class="edge">
<title>Role::role&#45;4&#45;policies&#45;&gt;Policy::arn:aws:IAM::aws:policy/AmazonEKSWorkerNodePolicy</title>
<path fill="none" stroke="#707070" d="M150.14,-147.64C158.28,-148.9 166.89,-150.24 175.76,-151.61"/>
<polygon fill="#707070" stroke="#707070" points="175.47,-155.11 185.89,-153.18 176.54,-148.19 175.47,-155.11"/>
</g>
</g>
</svg>
