<?xml version="1.0" encoding="UTF-8" standalone="no"?>
<!DOCTYPE svg PUBLIC "-//W3C//DTD SVG 1.1//EN"
 "http://www.w3.org/Graphics/SVG/1.1/DTD/svg11.dtd">
<!-- Generated by graphviz version 7.1.0 (20230121.1956)
 -->
<!-- Title: graphname Pages: 1 -->
<svg width="688pt" height="313pt"
 viewBox="0.00 0.00 688.00 313.00" xmlns="http://www.w3.org/2000/svg" xmlns:xlink="http://www.w3.org/1999/xlink">
<g id="graph0" class="graph" transform="scale(1 1) rotate(0) translate(4 309)">
<title>graphname</title>
<polygon fill="#fafafa" stroke="none" points="-4,4 -4,-309 684,-309 684,4 -4,4"/>
<text text-anchor="start" x="261" y="-280.4" font-family="Helvetica,sans-Serif" font-weight="bold" font-size="22.00" fill="#383838">Project sfn&#45;sqs</text>
<text text-anchor="start" x="336.5" y="-264.8" font-family="Helvetica,sans-Serif" font-size="14.00"> &#160;</text>
<text text-anchor="start" x="261" y="-243.2" font-family="Helvetica,sans-Serif" font-weight="bold" font-size="16.00" fill="#707070">Target Diagram</text>
<g id="clust1" class="cluster">
<title>cluster_aws</title>
<polygon fill="#f5f5f5" stroke="#f5f5f5" points="8,-8 8,-221 672,-221 672,-8 8,-8"/>
<text text-anchor="start" x="278" y="-23" font-family="Helvetica,sans-Serif" font-weight="bold" font-size="20.00" fill="#707070">Provider aws</text>
</g>
<g id="clust2" class="cluster">
<title>cluster_aws_</title>
<polygon fill="#eeeeee" stroke="#eeeeee" points="16,-54 16,-213 664,-213 664,-54 16,-54"/>
<text text-anchor="start" x="339.86" y="-58.3" font-family="Helvetica,sans-Serif" font-size="1.00" fill="#383838"> </text>
</g>
<!-- Role::sam&#45;app&#45;MyStateMachineExecutionRole&#45;QOU5CX1BS6DH -->
<g id="node1" class="node">
<title>Role::sam&#45;app&#45;MyStateMachineExecutionRole&#45;QOU5CX1BS6DH</title>
<polygon fill="#e5e5e5" stroke="#dddddd" points="656,-129 346,-129 346,-71 656,-71 656,-129"/>
<text text-anchor="start" x="358" y="-109.2" font-family="Helvetica,sans-Serif" font-weight="bold" font-size="16.00" fill="#707070">IAM::Role</text>
<text text-anchor="start" x="358" y="-84.2" font-family="Helvetica,sans-Serif" font-size="16.00" fill="#383838">sam&#45;app&#45;MyStateMachineExecutionR...</text>
</g>
<!-- Queue::sam&#45;app&#45;MyQueue&#45;AqSTiBlPUT32 -->
<g id="node2" class="node">
<title>Queue::sam&#45;app&#45;MyQueue&#45;AqSTiBlPUT32</title>
<polygon fill="#e5e5e5" stroke="#dddddd" points="638.5,-205 363.5,-205 363.5,-147 638.5,-147 638.5,-205"/>
<text text-anchor="start" x="376" y="-185.2" font-family="Helvetica,sans-Serif" font-weight="bold" font-size="16.00" fill="#707070">SQS::Queue</text>
<text text-anchor="start" x="376" y="-160.2" font-family="Helvetica,sans-Serif" font-size="16.00" fill="#383838">sam&#45;app&#45;MyQueue&#45;AqSTiBlPUT32</text>
</g>
<!-- StateMachine::StateMachinetoSQS&#45;Fy79sSx0sTLU -->
<g id="node3" class="node">
<title>StateMachine::StateMachinetoSQS&#45;Fy79sSx0sTLU</title>
<polygon fill="#e5e5e5" stroke="#dddddd" points="310,-167 24,-167 24,-109 310,-109 310,-167"/>
<text text-anchor="start" x="36" y="-147.2" font-family="Helvetica,sans-Serif" font-weight="bold" font-size="16.00" fill="#707070">StepFunctions::StateMachine</text>
<text text-anchor="start" x="36" y="-122.2" font-family="Helvetica,sans-Serif" font-size="16.00" fill="#383838">StateMachinetoSQS&#45;Fy79sSx0sTLU</text>
</g>
<!-- StateMachine::StateMachinetoSQS&#45;Fy79sSx0sTLU&#45;&gt;Role::sam&#45;app&#45;MyStateMachineExecutionRole&#45;QOU5CX1BS6DH -->
<g id="edge1" class="edge">
<title>StateMachine::StateMachinetoSQS&#45;Fy79sSx0sTLU&#45;&gt;Role::sam&#45;app&#45;MyStateMachineExecutionRole&#45;QOU5CX1BS6DH</title>
<path fill="none" stroke="#707070" d="M310.24,-121.72C318.2,-120.81 326.23,-119.89 334.26,-118.97"/>
<polygon fill="#707070" stroke="#707070" points="334.56,-122.46 344.09,-117.84 333.76,-115.5 334.56,-122.46"/>
</g>
<!-- StateMachine::StateMachinetoSQS&#45;Fy79sSx0sTLU&#45;&gt;Queue::sam&#45;app&#45;MyQueue&#45;AqSTiBlPUT32 -->
<g id="edge2" class="edge">
<title>StateMachine::StateMachinetoSQS&#45;Fy79sSx0sTLU&#45;&gt;Queue::sam&#45;app&#45;MyQueue&#45;AqSTiBlPUT32</title>
<path fill="none" stroke="#707070" d="M310.24,-154.28C324.06,-155.86 338.1,-157.47 351.98,-159.06"/>
<polygon fill="#707070" stroke="#707070" points="351.22,-162.49 361.55,-160.15 352.02,-155.54 351.22,-162.49"/>
</g>
</g>
</svg>
