<?xml version="1.0" encoding="UTF-8" standalone="no"?>
<!DOCTYPE svg PUBLIC "-//W3C//DTD SVG 1.1//EN"
 "http://www.w3.org/Graphics/SVG/1.1/DTD/svg11.dtd">
<!-- Generated by graphviz version 3.0.0 (20220226.1711)
 -->
<!-- Title: graphname Pages: 1 -->
<svg width="1052pt" height="257pt"
 viewBox="0.00 0.00 1052.00 257.00" xmlns="http://www.w3.org/2000/svg" xmlns:xlink="http://www.w3.org/1999/xlink">
<g id="graph0" class="graph" transform="scale(1 1) rotate(0) translate(4 253)">
<title>graphname</title>
<polygon fill="#fafafa" stroke="transparent" points="-4,4 -4,-253 1048,-253 1048,4 -4,4"/>
<text text-anchor="start" x="443" y="-224.4" font-family="Helvetica,sans-Serif" font-weight="bold" font-size="22.00" fill="#383838">Project sfn&#45;sns</text>
<text text-anchor="start" x="518.5" y="-208.8" font-family="Helvetica,sans-Serif" font-size="14.00"> &#160;</text>
<text text-anchor="start" x="443" y="-187.2" font-family="Helvetica,sans-Serif" font-weight="bold" font-size="16.00" fill="#707070">Target Diagram</text>
<g id="clust1" class="cluster">
<title>cluster_aws</title>
<polygon fill="#f5f5f5" stroke="#f5f5f5" points="8,-8 8,-165 1036,-165 1036,-8 8,-8"/>
<text text-anchor="start" x="460" y="-23" font-family="Helvetica,sans-Serif" font-weight="bold" font-size="20.00" fill="#707070">Provider aws</text>
</g>
<g id="clust2" class="cluster">
<title>cluster_aws_</title>
<polygon fill="#eeeeee" stroke="#eeeeee" points="16,-54 16,-157 1028,-157 1028,-54 16,-54"/>
<text text-anchor="start" x="521.86" y="-58.3" font-family="Helvetica,sans-Serif" font-size="1.00" fill="#383838"> </text>
</g>
<!-- Role::sam&#45;app&#45;StatesExecutionRole&#45;NOZF6W7MEIVB -->
<g id="node1" class="node">
<title>Role::sam&#45;app&#45;StatesExecutionRole&#45;NOZF6W7MEIVB</title>
<polygon fill="#e5e5e5" stroke="#dddddd" points="668,-129 364,-129 364,-71 668,-71 668,-129"/>
<text text-anchor="start" x="376" y="-109.2" font-family="Helvetica,sans-Serif" font-weight="bold" font-size="16.00" fill="#707070">IAM::Role</text>
<text text-anchor="start" x="376" y="-84.2" font-family="Helvetica,sans-Serif" font-size="16.00" fill="#383838">sam&#45;app&#45;StatesExecutionRole&#45;NOZF...</text>
</g>
<!-- Topic::sam&#45;app&#45;StateMachineSNSTopic&#45;C6WGCI64MKY2 -->
<g id="node3" class="node">
<title>Topic::sam&#45;app&#45;StateMachineSNSTopic&#45;C6WGCI64MKY2</title>
<polygon fill="#e5e5e5" stroke="#dddddd" points="1020,-139 704,-139 704,-81 1020,-81 1020,-139"/>
<text text-anchor="start" x="716" y="-119.2" font-family="Helvetica,sans-Serif" font-weight="bold" font-size="16.00" fill="#707070">SNS::Topic</text>
<text text-anchor="start" x="716" y="-94.2" font-family="Helvetica,sans-Serif" font-size="16.00" fill="#383838">sam&#45;app&#45;StateMachineSNSTopic&#45;C6W...</text>
</g>
<!-- Role::sam&#45;app&#45;StatesExecutionRole&#45;NOZF6W7MEIVB&#45;&gt;Topic::sam&#45;app&#45;StateMachineSNSTopic&#45;C6WGCI64MKY2 -->
<g id="edge1" class="edge">
<title>Role::sam&#45;app&#45;StatesExecutionRole&#45;NOZF6W7MEIVB&#45;&gt;Topic::sam&#45;app&#45;StateMachineSNSTopic&#45;C6WGCI64MKY2</title>
<path fill="none" stroke="#707070" d="M668.13,-104.39C676.63,-104.64 685.19,-104.89 693.73,-105.14"/>
<polygon fill="#707070" stroke="#707070" points="693.66,-108.64 703.75,-105.43 693.86,-101.64 693.66,-108.64"/>
</g>
<!-- StateMachine::StateMachineExpressSynctoSNS&#45;s4flfbpCO2tF -->
<g id="node2" class="node">
<title>StateMachine::StateMachineExpressSynctoSNS&#45;s4flfbpCO2tF</title>
<polygon fill="#e5e5e5" stroke="#dddddd" points="328,-139 24,-139 24,-81 328,-81 328,-139"/>
<text text-anchor="start" x="36" y="-119.2" font-family="Helvetica,sans-Serif" font-weight="bold" font-size="16.00" fill="#707070">StepFunctions::StateMachine</text>
<text text-anchor="start" x="36" y="-94.2" font-family="Helvetica,sans-Serif" font-size="16.00" fill="#383838">StateMachineExpressSynctoSNS&#45;s4f...</text>
</g>
<!-- StateMachine::StateMachineExpressSynctoSNS&#45;s4flfbpCO2tF&#45;&gt;Role::sam&#45;app&#45;StatesExecutionRole&#45;NOZF6W7MEIVB -->
<g id="edge2" class="edge">
<title>StateMachine::StateMachineExpressSynctoSNS&#45;s4flfbpCO2tF&#45;&gt;Role::sam&#45;app&#45;StatesExecutionRole&#45;NOZF6W7MEIVB</title>
<path fill="none" stroke="#707070" d="M328.21,-105.53C336.73,-105.27 345.32,-105.02 353.88,-104.77"/>
<polygon fill="#707070" stroke="#707070" points="354.02,-108.26 363.92,-104.47 353.82,-101.27 354.02,-108.26"/>
</g>
<!-- StateMachine::StateMachineExpressSynctoSNS&#45;s4flfbpCO2tF&#45;&gt;Topic::sam&#45;app&#45;StateMachineSNSTopic&#45;C6WGCI64MKY2 -->
<g id="edge3" class="edge">
<title>StateMachine::StateMachineExpressSynctoSNS&#45;s4flfbpCO2tF&#45;&gt;Topic::sam&#45;app&#45;StateMachineSNSTopic&#45;C6WGCI64MKY2</title>
<path fill="none" stroke="#707070" d="M328.09,-134.58C340.22,-135.95 352.3,-137.13 364,-138 498.74,-148.03 533.24,-147.72 668,-138 676.53,-137.38 685.25,-136.62 694.04,-135.74"/>
<polygon fill="#707070" stroke="#707070" points="694.42,-139.22 704,-134.69 693.69,-132.26 694.42,-139.22"/>
</g>
</g>
</svg>
