<?xml version="1.0" encoding="UTF-8" standalone="no"?>
<!DOCTYPE svg PUBLIC "-//W3C//DTD SVG 1.1//EN"
 "http://www.w3.org/Graphics/SVG/1.1/DTD/svg11.dtd">
<!-- Generated by graphviz version 3.0.0 (20220226.1711)
 -->
<!-- Title: graphname Pages: 1 -->
<svg width="1335pt" height="313pt"
 viewBox="0.00 0.00 1335.00 313.00" xmlns="http://www.w3.org/2000/svg" xmlns:xlink="http://www.w3.org/1999/xlink">
<g id="graph0" class="graph" transform="scale(1 1) rotate(0) translate(4 309)">
<title>graphname</title>
<polygon fill="#fafafa" stroke="transparent" points="-4,4 -4,-309 1331,-309 1331,4 -4,4"/>
<text text-anchor="start" x="469.5" y="-280.4" font-family="Helvetica,sans-Serif" font-weight="bold" font-size="22.00" fill="#383838">Project sqs&#45;lambda&#45;terraform&#45;python</text>
<text text-anchor="start" x="659.5" y="-264.8" font-family="Helvetica,sans-Serif" font-size="14.00"> &#160;</text>
<text text-anchor="start" x="469.5" y="-243.2" font-family="Helvetica,sans-Serif" font-weight="bold" font-size="16.00" fill="#707070">Live Diagram</text>
<g id="clust1" class="cluster">
<title>cluster_aws</title>
<polygon fill="#f5f5f5" stroke="#f5f5f5" points="8,-8 8,-221 1319,-221 1319,-8 8,-8"/>
<text text-anchor="start" x="601.5" y="-23" font-family="Helvetica,sans-Serif" font-weight="bold" font-size="20.00" fill="#707070">Provider aws</text>
</g>
<g id="clust2" class="cluster">
<title>cluster_aws_</title>
<polygon fill="#eeeeee" stroke="#eeeeee" points="16,-54 16,-213 1311,-213 1311,-54 16,-54"/>
<text text-anchor="start" x="663.36" y="-58.3" font-family="Helvetica,sans-Serif" font-size="1.00" fill="#383838"> </text>
</g>
<!-- LogGroup::::/aws/lambda/sqs&#45;lambda&#45;demo -->
<g id="node1" class="node">
<title>LogGroup::::/aws/lambda/sqs&#45;lambda&#45;demo</title>
<polygon fill="#e5e5e5" stroke="#dddddd" points="302.5,-205 52.5,-205 52.5,-147 302.5,-147 302.5,-205"/>
<text text-anchor="start" x="64.5" y="-185.2" font-family="Helvetica,sans-Serif" font-weight="bold" font-size="16.00" fill="#707070">CloudWatchLogs::LogGroup</text>
<text text-anchor="start" x="64.5" y="-160.2" font-family="Helvetica,sans-Serif" font-size="16.00" fill="#383838">/aws/lambda/sqs&#45;lambda&#45;demo</text>
</g>
<!-- Policy::::sqs&#45;lambda&#45;demo&#45;lambdapolicy -->
<g id="node2" class="node">
<title>Policy::::sqs&#45;lambda&#45;demo&#45;lambdapolicy</title>
<polygon fill="#e5e5e5" stroke="#dddddd" points="1113,-129 858,-129 858,-71 1113,-71 1113,-129"/>
<text text-anchor="start" x="870.5" y="-109.2" font-family="Helvetica,sans-Serif" font-weight="bold" font-size="16.00" fill="#707070">IAM::Policy</text>
<text text-anchor="start" x="870.5" y="-84.2" font-family="Helvetica,sans-Serif" font-size="16.00" fill="#383838">sqs&#45;lambda&#45;demo&#45;lambdapolicy</text>
</g>
<!-- Queue::::sqs&#45;lambda&#45;demo -->
<g id="node6" class="node">
<title>Queue::::sqs&#45;lambda&#45;demo</title>
<polygon fill="#e5e5e5" stroke="#dddddd" points="1303,-153 1149,-153 1149,-95 1303,-95 1303,-153"/>
<text text-anchor="start" x="1161" y="-133.2" font-family="Helvetica,sans-Serif" font-weight="bold" font-size="16.00" fill="#707070">SQS::Queue</text>
<text text-anchor="start" x="1161" y="-108.2" font-family="Helvetica,sans-Serif" font-size="16.00" fill="#383838">sqs&#45;lambda&#45;demo</text>
</g>
<!-- Policy::::sqs&#45;lambda&#45;demo&#45;lambdapolicy&#45;&gt;Queue::::sqs&#45;lambda&#45;demo -->
<g id="edge1" class="edge">
<title>Policy::::sqs&#45;lambda&#45;demo&#45;lambdapolicy&#45;&gt;Queue::::sqs&#45;lambda&#45;demo</title>
<path fill="none" stroke="#707070" d="M1113.08,-112.74C1121.72,-113.61 1130.31,-114.47 1138.66,-115.31"/>
<polygon fill="#707070" stroke="#707070" points="1138.43,-118.81 1148.73,-116.32 1139.13,-111.84 1138.43,-118.81"/>
</g>
<!-- Role::::sqs_lambda_demo_functionrole -->
<g id="node3" class="node">
<title>Role::::sqs_lambda_demo_functionrole</title>
<polygon fill="#e5e5e5" stroke="#dddddd" points="822,-129 567,-129 567,-71 822,-71 822,-129"/>
<text text-anchor="start" x="579.5" y="-109.2" font-family="Helvetica,sans-Serif" font-weight="bold" font-size="16.00" fill="#707070">IAM::Role</text>
<text text-anchor="start" x="579.5" y="-84.2" font-family="Helvetica,sans-Serif" font-size="16.00" fill="#383838">sqs_lambda_demo_functionrole</text>
</g>
<!-- Role::::sqs_lambda_demo_functionrole&#45;&gt;Policy::::sqs&#45;lambda&#45;demo&#45;lambdapolicy -->
<g id="edge2" class="edge">
<title>Role::::sqs_lambda_demo_functionrole&#45;&gt;Policy::::sqs&#45;lambda&#45;demo&#45;lambdapolicy</title>
<path fill="none" stroke="#707070" d="M822.26,-100C830.76,-100 839.35,-100 847.9,-100"/>
<polygon fill="#707070" stroke="#707070" points="847.91,-103.5 857.91,-100 847.91,-96.5 847.91,-103.5"/>
</g>
<!-- EventSourceMapping::::mapping&#45;sqs&#45;lambda&#45;demo&#45;sqs&#45;lambda&#45;demo -->
<g id="node4" class="node">
<title>EventSourceMapping::::mapping&#45;sqs&#45;lambda&#45;demo&#45;sqs&#45;lambda&#45;demo</title>
<polygon fill="#e5e5e5" stroke="#dddddd" points="331,-129 24,-129 24,-71 331,-71 331,-129"/>
<text text-anchor="start" x="36.5" y="-109.2" font-family="Helvetica,sans-Serif" font-weight="bold" font-size="16.00" fill="#707070">Lambda::EventSourceMapping</text>
<text text-anchor="start" x="36.5" y="-84.2" font-family="Helvetica,sans-Serif" font-size="16.00" fill="#383838">mapping&#45;sqs&#45;lambda&#45;demo&#45;sqs&#45;lamb...</text>
</g>
<!-- Function::::sqs&#45;lambda&#45;demo -->
<g id="node5" class="node">
<title>Function::::sqs&#45;lambda&#45;demo</title>
<polygon fill="#e5e5e5" stroke="#dddddd" points="531,-129 367,-129 367,-71 531,-71 531,-129"/>
<text text-anchor="start" x="379" y="-109.2" font-family="Helvetica,sans-Serif" font-weight="bold" font-size="16.00" fill="#707070">Lambda::Function</text>
<text text-anchor="start" x="379" y="-84.2" font-family="Helvetica,sans-Serif" font-size="16.00" fill="#383838">sqs&#45;lambda&#45;demo</text>
</g>
<!-- EventSourceMapping::::mapping&#45;sqs&#45;lambda&#45;demo&#45;sqs&#45;lambda&#45;demo&#45;&gt;Function::::sqs&#45;lambda&#45;demo -->
<g id="edge3" class="edge">
<title>EventSourceMapping::::mapping&#45;sqs&#45;lambda&#45;demo&#45;sqs&#45;lambda&#45;demo&#45;&gt;Function::::sqs&#45;lambda&#45;demo</title>
<path fill="none" stroke="#707070" d="M331.36,-100C339.88,-100 348.3,-100 356.49,-100"/>
<polygon fill="#707070" stroke="#707070" points="356.72,-103.5 366.72,-100 356.72,-96.5 356.72,-103.5"/>
</g>
<!-- EventSourceMapping::::mapping&#45;sqs&#45;lambda&#45;demo&#45;sqs&#45;lambda&#45;demo&#45;&gt;Queue::::sqs&#45;lambda&#45;demo -->
<g id="edge4" class="edge">
<title>EventSourceMapping::::mapping&#45;sqs&#45;lambda&#45;demo&#45;sqs&#45;lambda&#45;demo&#45;&gt;Queue::::sqs&#45;lambda&#45;demo</title>
<path fill="none" stroke="#707070" d="M304.72,-129.04C325.43,-132.76 346.74,-135.98 367,-138 696.92,-170.92 782.09,-158.6 1113,-138 1121.36,-137.48 1130.06,-136.74 1138.74,-135.87"/>
<polygon fill="#707070" stroke="#707070" points="1139.33,-139.33 1148.91,-134.8 1138.59,-132.37 1139.33,-139.33"/>
</g>
<!-- Function::::sqs&#45;lambda&#45;demo&#45;&gt;Role::::sqs_lambda_demo_functionrole -->
<g id="edge5" class="edge">
<title>Function::::sqs&#45;lambda&#45;demo&#45;&gt;Role::::sqs_lambda_demo_functionrole</title>
<path fill="none" stroke="#707070" d="M531.08,-100C539.34,-100 547.87,-100 556.51,-100"/>
<polygon fill="#707070" stroke="#707070" points="556.69,-103.5 566.69,-100 556.69,-96.5 556.69,-103.5"/>
</g>
</g>
</svg>
