<?xml version="1.0" encoding="UTF-8" standalone="no"?>
<!DOCTYPE svg PUBLIC "-//W3C//DTD SVG 1.1//EN"
 "http://www.w3.org/Graphics/SVG/1.1/DTD/svg11.dtd">
<!-- Generated by graphviz version 6.0.0 (20220910.1538)
 -->
<!-- Title: graphname Pages: 1 -->
<svg width="1320pt" height="257pt"
 viewBox="0.00 0.00 1320.00 257.00" xmlns="http://www.w3.org/2000/svg" xmlns:xlink="http://www.w3.org/1999/xlink">
<g id="graph0" class="graph" transform="scale(1 1) rotate(0) translate(4 253)">
<title>graphname</title>
<polygon fill="#fafafa" stroke="none" points="-4,4 -4,-253 1316,-253 1316,4 -4,4"/>
<text text-anchor="start" x="462" y="-224.4" font-family="Helvetica,sans-Serif" font-weight="bold" font-size="22.00" fill="#383838">Project sqs&#45;lambda&#45;terraform&#45;python</text>
<text text-anchor="start" x="652" y="-208.8" font-family="Helvetica,sans-Serif" font-size="14.00"> &#160;</text>
<text text-anchor="start" x="462" y="-187.2" font-family="Helvetica,sans-Serif" font-weight="bold" font-size="16.00" fill="#707070">Target Diagram</text>
<g id="clust1" class="cluster">
<title>cluster_aws</title>
<polygon fill="#f5f5f5" stroke="#f5f5f5" points="8,-8 8,-165 1304,-165 1304,-8 8,-8"/>
<text text-anchor="start" x="594" y="-23" font-family="Helvetica,sans-Serif" font-weight="bold" font-size="20.00" fill="#707070">Provider aws</text>
</g>
<g id="clust2" class="cluster">
<title>cluster_aws_</title>
<polygon fill="#eeeeee" stroke="#eeeeee" points="16,-54 16,-157 1296,-157 1296,-54 16,-54"/>
<text text-anchor="start" x="655.86" y="-58.3" font-family="Helvetica,sans-Serif" font-size="1.00" fill="#383838"> </text>
</g>
<!-- Role::sqs_lambda_demo_functionrole -->
<g id="node1" class="node">
<title>Role::sqs_lambda_demo_functionrole</title>
<polygon fill="#e5e5e5" stroke="#dddddd" points="807,-129 552,-129 552,-71 807,-71 807,-129"/>
<text text-anchor="start" x="564.5" y="-109.2" font-family="Helvetica,sans-Serif" font-weight="bold" font-size="16.00" fill="#707070">IAM::Role</text>
<text text-anchor="start" x="564.5" y="-84.2" font-family="Helvetica,sans-Serif" font-size="16.00" fill="#383838">sqs_lambda_demo_functionrole</text>
</g>
<!-- Policy::sqs&#45;lambda&#45;demo&#45;lambdapolicy -->
<g id="node2" class="node">
<title>Policy::sqs&#45;lambda&#45;demo&#45;lambdapolicy</title>
<polygon fill="#e5e5e5" stroke="#dddddd" points="1098,-129 843,-129 843,-71 1098,-71 1098,-129"/>
<text text-anchor="start" x="855.5" y="-109.2" font-family="Helvetica,sans-Serif" font-weight="bold" font-size="16.00" fill="#707070">IAM::Policy</text>
<text text-anchor="start" x="855.5" y="-84.2" font-family="Helvetica,sans-Serif" font-size="16.00" fill="#383838">sqs&#45;lambda&#45;demo&#45;lambdapolicy</text>
</g>
<!-- Role::sqs_lambda_demo_functionrole&#45;&gt;Policy::sqs&#45;lambda&#45;demo&#45;lambdapolicy -->
<g id="edge1" class="edge">
<title>Role::sqs_lambda_demo_functionrole&#45;&gt;Policy::sqs&#45;lambda&#45;demo&#45;lambdapolicy</title>
<path fill="none" stroke="#707070" d="M807.26,-100C815.76,-100 824.35,-100 832.9,-100"/>
<polygon fill="#707070" stroke="#707070" points="832.91,-103.5 842.91,-100 832.91,-96.5 832.91,-103.5"/>
</g>
<!-- Queue::sqs&#45;lambda&#45;demo -->
<g id="node5" class="node">
<title>Queue::sqs&#45;lambda&#45;demo</title>
<polygon fill="#e5e5e5" stroke="#dddddd" points="1288,-139 1134,-139 1134,-81 1288,-81 1288,-139"/>
<text text-anchor="start" x="1146" y="-119.2" font-family="Helvetica,sans-Serif" font-weight="bold" font-size="16.00" fill="#707070">SQS::Queue</text>
<text text-anchor="start" x="1146" y="-94.2" font-family="Helvetica,sans-Serif" font-size="16.00" fill="#383838">sqs&#45;lambda&#45;demo</text>
</g>
<!-- Policy::sqs&#45;lambda&#45;demo&#45;lambdapolicy&#45;&gt;Queue::sqs&#45;lambda&#45;demo -->
<g id="edge2" class="edge">
<title>Policy::sqs&#45;lambda&#45;demo&#45;lambdapolicy&#45;&gt;Queue::sqs&#45;lambda&#45;demo</title>
<path fill="none" stroke="#707070" d="M1098.08,-105.31C1106.72,-105.67 1115.31,-106.03 1123.66,-106.38"/>
<polygon fill="#707070" stroke="#707070" points="1123.59,-109.88 1133.73,-106.8 1123.88,-102.89 1123.59,-109.88"/>
</g>
<!-- Function::sqs&#45;lambda&#45;demo -->
<g id="node3" class="node">
<title>Function::sqs&#45;lambda&#45;demo</title>
<polygon fill="#e5e5e5" stroke="#dddddd" points="516,-129 352,-129 352,-71 516,-71 516,-129"/>
<text text-anchor="start" x="364" y="-109.2" font-family="Helvetica,sans-Serif" font-weight="bold" font-size="16.00" fill="#707070">Lambda::Function</text>
<text text-anchor="start" x="364" y="-84.2" font-family="Helvetica,sans-Serif" font-size="16.00" fill="#383838">sqs&#45;lambda&#45;demo</text>
</g>
<!-- Function::sqs&#45;lambda&#45;demo&#45;&gt;Role::sqs_lambda_demo_functionrole -->
<g id="edge3" class="edge">
<title>Function::sqs&#45;lambda&#45;demo&#45;&gt;Role::sqs_lambda_demo_functionrole</title>
<path fill="none" stroke="#707070" d="M516.08,-100C524.34,-100 532.87,-100 541.51,-100"/>
<polygon fill="#707070" stroke="#707070" points="541.69,-103.5 551.69,-100 541.69,-96.5 541.69,-103.5"/>
</g>
<!-- EventSourceMapping::mapping::sqs&#45;lambda&#45;demo::sqs&#45;lambda&#45;demo -->
<g id="node4" class="node">
<title>EventSourceMapping::mapping::sqs&#45;lambda&#45;demo::sqs&#45;lambda&#45;demo</title>
<polygon fill="#e5e5e5" stroke="#dddddd" points="316,-139 24,-139 24,-81 316,-81 316,-139"/>
<text text-anchor="start" x="36" y="-119.2" font-family="Helvetica,sans-Serif" font-weight="bold" font-size="16.00" fill="#707070">Lambda::EventSourceMapping</text>
<text text-anchor="start" x="36" y="-94.2" font-family="Helvetica,sans-Serif" font-size="16.00" fill="#383838">mapping::sqs&#45;lambda&#45;demo::sqs&#45;la...</text>
</g>
<!-- EventSourceMapping::mapping::sqs&#45;lambda&#45;demo::sqs&#45;lambda&#45;demo&#45;&gt;Function::sqs&#45;lambda&#45;demo -->
<g id="edge4" class="edge">
<title>EventSourceMapping::mapping::sqs&#45;lambda&#45;demo::sqs&#45;lambda&#45;demo&#45;&gt;Function::sqs&#45;lambda&#45;demo</title>
<path fill="none" stroke="#707070" d="M316.18,-104.46C324.82,-104.13 333.38,-103.8 341.71,-103.48"/>
<polygon fill="#707070" stroke="#707070" points="341.88,-106.98 351.74,-103.1 341.61,-99.99 341.88,-106.98"/>
</g>
<!-- EventSourceMapping::mapping::sqs&#45;lambda&#45;demo::sqs&#45;lambda&#45;demo&#45;&gt;Queue::sqs&#45;lambda&#45;demo -->
<g id="edge5" class="edge">
<title>EventSourceMapping::mapping::sqs&#45;lambda&#45;demo::sqs&#45;lambda&#45;demo&#45;&gt;Queue::sqs&#45;lambda&#45;demo</title>
<path fill="none" stroke="#707070" d="M316.49,-134.49C328.48,-135.9 340.43,-137.11 352,-138 682.58,-163.42 768.93,-178.51 1098,-138 1106.53,-136.95 1115.34,-135.47 1124.1,-133.72"/>
<polygon fill="#707070" stroke="#707070" points="1124.89,-137.14 1133.96,-131.66 1123.45,-130.29 1124.89,-137.14"/>
</g>
</g>
</svg>
