<?xml version="1.0" encoding="UTF-8" standalone="no"?>
<!DOCTYPE svg PUBLIC "-//W3C//DTD SVG 1.1//EN"
 "http://www.w3.org/Graphics/SVG/1.1/DTD/svg11.dtd">
<!-- Generated by graphviz version 7.1.0 (20230121.1956)
 -->
<!-- Title: graphname Pages: 1 -->
<svg width="992pt" height="1301pt"
 viewBox="0.00 0.00 992.00 1301.00" xmlns="http://www.w3.org/2000/svg" xmlns:xlink="http://www.w3.org/1999/xlink">
<g id="graph0" class="graph" transform="scale(1 1) rotate(0) translate(4 1297)">
<title>graphname</title>
<polygon fill="#fafafa" stroke="none" points="-4,4 -4,-1297 988,-1297 988,4 -4,4"/>
<text text-anchor="start" x="352" y="-1268.4" font-family="Helvetica,sans-Serif" font-weight="bold" font-size="22.00" fill="#383838">Project securityhub&#45;simple</text>
<text text-anchor="start" x="488.5" y="-1252.8" font-family="Helvetica,sans-Serif" font-size="14.00"> &#160;</text>
<text text-anchor="start" x="352" y="-1231.2" font-family="Helvetica,sans-Serif" font-weight="bold" font-size="16.00" fill="#707070">Target Diagram</text>
<g id="clust1" class="cluster">
<title>cluster_aws</title>
<polygon fill="#f5f5f5" stroke="#f5f5f5" points="8,-8 8,-1209 976,-1209 976,-8 8,-8"/>
<text text-anchor="start" x="430" y="-23" font-family="Helvetica,sans-Serif" font-weight="bold" font-size="20.00" fill="#707070">Provider aws</text>
</g>
<g id="clust2" class="cluster">
<title>cluster_aws_</title>
<polygon fill="#eeeeee" stroke="#eeeeee" points="16,-54 16,-1201 968,-1201 968,-54 16,-54"/>
<text text-anchor="start" x="491.86" y="-58.3" font-family="Helvetica,sans-Serif" font-size="1.00" fill="#383838"> </text>
</g>
<!-- Account::frederic heem -->
<g id="node1" class="node">
<title>Account::frederic heem</title>
<polygon fill="#e5e5e5" stroke="#dddddd" points="669,-1041 462,-1041 462,-983 669,-983 669,-1041"/>
<text text-anchor="start" x="474.5" y="-1021.2" font-family="Helvetica,sans-Serif" font-weight="bold" font-size="16.00" fill="#707070">Organisations::Account</text>
<text text-anchor="start" x="474.5" y="-996.2" font-family="Helvetica,sans-Serif" font-size="16.00" fill="#383838">frederic heem</text>
</g>
<!-- Account::test account -->
<g id="node2" class="node">
<title>Account::test account</title>
<polygon fill="#e5e5e5" stroke="#dddddd" points="669,-1117 462,-1117 462,-1059 669,-1059 669,-1117"/>
<text text-anchor="start" x="474.5" y="-1097.2" font-family="Helvetica,sans-Serif" font-weight="bold" font-size="16.00" fill="#707070">Organisations::Account</text>
<text text-anchor="start" x="474.5" y="-1072.2" font-family="Helvetica,sans-Serif" font-size="16.00" fill="#383838">test account</text>
</g>
<!-- Account::default -->
<g id="node3" class="node">
<title>Account::default</title>
<polygon fill="#e5e5e5" stroke="#dddddd" points="960,-585 767,-585 767,-527 960,-527 960,-585"/>
<text text-anchor="start" x="779.5" y="-565.2" font-family="Helvetica,sans-Serif" font-weight="bold" font-size="16.00" fill="#707070">SecurityHub::Account</text>
<text text-anchor="start" x="779.5" y="-540.2" font-family="Helvetica,sans-Serif" font-size="16.00" fill="#383838">default</text>
</g>
<!-- FindingAggregator::SPECIFIED_REGIONS::eu&#45;west&#45;2 -->
<g id="node4" class="node">
<title>FindingAggregator::SPECIFIED_REGIONS::eu&#45;west&#45;2</title>
<polygon fill="#e5e5e5" stroke="#dddddd" points="701.5,-1193 429.5,-1193 429.5,-1135 701.5,-1135 701.5,-1193"/>
<text text-anchor="start" x="441.5" y="-1173.2" font-family="Helvetica,sans-Serif" font-weight="bold" font-size="16.00" fill="#707070">SecurityHub::FindingAggregator</text>
<text text-anchor="start" x="441.5" y="-1148.2" font-family="Helvetica,sans-Serif" font-size="16.00" fill="#383838">SPECIFIED_REGIONS::eu&#45;west&#45;2</text>
</g>
<!-- FindingAggregator::SPECIFIED_REGIONS::eu&#45;west&#45;2&#45;&gt;Account::default -->
<g id="edge1" class="edge">
<title>FindingAggregator::SPECIFIED_REGIONS::eu&#45;west&#45;2&#45;&gt;Account::default</title>
<path fill="none" stroke="#707070" d="M701.71,-1146.6C712.51,-1141.25 722.5,-1134.5 731,-1126 806.49,-1050.49 846.69,-714.45 858.64,-596.82"/>
<polygon fill="#707070" stroke="#707070" points="862.11,-597.3 859.62,-587 855.14,-596.61 862.11,-597.3"/>
</g>
<!-- Member::test account -->
<g id="node5" class="node">
<title>Member::test account</title>
<polygon fill="#e5e5e5" stroke="#dddddd" points="289,-1117 99,-1117 99,-1059 289,-1059 289,-1117"/>
<text text-anchor="start" x="111" y="-1097.2" font-family="Helvetica,sans-Serif" font-weight="bold" font-size="16.00" fill="#707070">SecurityHub::Member</text>
<text text-anchor="start" x="111" y="-1072.2" font-family="Helvetica,sans-Serif" font-size="16.00" fill="#383838">test account</text>
</g>
<!-- Member::test account&#45;&gt;Account::test account -->
<g id="edge2" class="edge">
<title>Member::test account&#45;&gt;Account::test account</title>
<path fill="none" stroke="#707070" d="M289.2,-1088C338.3,-1088 398.74,-1088 450.47,-1088"/>
<polygon fill="#707070" stroke="#707070" points="450.19,-1091.5 460.19,-1088 450.19,-1084.5 450.19,-1091.5"/>
</g>
<!-- OrganizationAdminAccount::frederic heem -->
<g id="node6" class="node">
<title>OrganizationAdminAccount::frederic heem</title>
<polygon fill="#e5e5e5" stroke="#dddddd" points="364,-1041 24,-1041 24,-983 364,-983 364,-1041"/>
<text text-anchor="start" x="36" y="-1021.2" font-family="Helvetica,sans-Serif" font-weight="bold" font-size="16.00" fill="#707070">SecurityHub::OrganizationAdminAccount</text>
<text text-anchor="start" x="36" y="-996.2" font-family="Helvetica,sans-Serif" font-size="16.00" fill="#383838">frederic heem</text>
</g>
<!-- OrganizationAdminAccount::frederic heem&#45;&gt;Account::frederic heem -->
<g id="edge3" class="edge">
<title>OrganizationAdminAccount::frederic heem&#45;&gt;Account::frederic heem</title>
<path fill="none" stroke="#707070" d="M364.34,-1012C393.41,-1012 423,-1012 450.19,-1012"/>
<polygon fill="#707070" stroke="#707070" points="450.18,-1015.5 460.18,-1012 450.18,-1008.5 450.18,-1015.5"/>
</g>
<!-- OrganizationConfiguration::default -->
<g id="node7" class="node">
<title>OrganizationConfiguration::default</title>
<polygon fill="#e5e5e5" stroke="#dddddd" points="731,-965 400,-965 400,-907 731,-907 731,-965"/>
<text text-anchor="start" x="412.5" y="-945.2" font-family="Helvetica,sans-Serif" font-weight="bold" font-size="16.00" fill="#707070">SecurityHub::OrganizationConfiguration</text>
<text text-anchor="start" x="412.5" y="-920.2" font-family="Helvetica,sans-Serif" font-size="16.00" fill="#383838">default</text>
</g>
<!-- OrganizationConfiguration::default&#45;&gt;Account::default -->
<g id="edge4" class="edge">
<title>OrganizationConfiguration::default&#45;&gt;Account::default</title>
<path fill="none" stroke="#707070" d="M719.82,-906.54C723.72,-903.92 727.46,-901.08 731,-898 822.2,-818.76 850.46,-668.85 858.97,-596.75"/>
<polygon fill="#707070" stroke="#707070" points="862.43,-597.29 860.05,-586.96 855.47,-596.52 862.43,-597.29"/>
</g>
<!-- ProductSubscription::arn:aws:securityhub:us&#45;east&#45;1::product/aws/access&#45;analyzer -->
<g id="node8" class="node">
<title>ProductSubscription::arn:aws:securityhub:us&#45;east&#45;1::product/aws/access&#45;analyzer</title>
<polygon fill="#e5e5e5" stroke="#dddddd" points="708.5,-889 422.5,-889 422.5,-831 708.5,-831 708.5,-889"/>
<text text-anchor="start" x="434.5" y="-869.2" font-family="Helvetica,sans-Serif" font-weight="bold" font-size="16.00" fill="#707070">SecurityHub::ProductSubscription</text>
<text text-anchor="start" x="434.5" y="-844.2" font-family="Helvetica,sans-Serif" font-size="16.00" fill="#383838">arn:aws:securityhub:us&#45;east&#45;1::p...</text>
</g>
<!-- ProductSubscription::arn:aws:securityhub:us&#45;east&#45;1::product/aws/access&#45;analyzer&#45;&gt;Account::default -->
<g id="edge5" class="edge">
<title>ProductSubscription::arn:aws:securityhub:us&#45;east&#45;1::product/aws/access&#45;analyzer&#45;&gt;Account::default</title>
<path fill="none" stroke="#707070" d="M708.63,-836.2C716.57,-832.16 724.1,-827.46 731,-822 804.1,-764.17 839.56,-655.2 854.07,-596.28"/>
<polygon fill="#707070" stroke="#707070" points="857.45,-597.2 856.35,-586.66 850.63,-595.59 857.45,-597.2"/>
</g>
<!-- ProductSubscription::arn:aws:securityhub:us&#45;east&#45;1::product/aws/config -->
<g id="node9" class="node">
<title>ProductSubscription::arn:aws:securityhub:us&#45;east&#45;1::product/aws/config</title>
<polygon fill="#e5e5e5" stroke="#dddddd" points="708.5,-813 422.5,-813 422.5,-755 708.5,-755 708.5,-813"/>
<text text-anchor="start" x="434.5" y="-793.2" font-family="Helvetica,sans-Serif" font-weight="bold" font-size="16.00" fill="#707070">SecurityHub::ProductSubscription</text>
<text text-anchor="start" x="434.5" y="-768.2" font-family="Helvetica,sans-Serif" font-size="16.00" fill="#383838">arn:aws:securityhub:us&#45;east&#45;1::p...</text>
</g>
<!-- ProductSubscription::arn:aws:securityhub:us&#45;east&#45;1::product/aws/config&#45;&gt;Account::default -->
<g id="edge6" class="edge">
<title>ProductSubscription::arn:aws:securityhub:us&#45;east&#45;1::product/aws/config&#45;&gt;Account::default</title>
<path fill="none" stroke="#707070" d="M708.96,-758.42C716.68,-754.81 724.09,-750.69 731,-746 786.35,-708.44 825.39,-639.2 845.88,-595.48"/>
<polygon fill="#707070" stroke="#707070" points="848.97,-597.15 849.94,-586.6 842.6,-594.24 848.97,-597.15"/>
</g>
<!-- ProductSubscription::arn:aws:securityhub:us&#45;east&#45;1::product/aws/firewall&#45;manager -->
<g id="node10" class="node">
<title>ProductSubscription::arn:aws:securityhub:us&#45;east&#45;1::product/aws/firewall&#45;manager</title>
<polygon fill="#e5e5e5" stroke="#dddddd" points="708.5,-737 422.5,-737 422.5,-679 708.5,-679 708.5,-737"/>
<text text-anchor="start" x="434.5" y="-717.2" font-family="Helvetica,sans-Serif" font-weight="bold" font-size="16.00" fill="#707070">SecurityHub::ProductSubscription</text>
<text text-anchor="start" x="434.5" y="-692.2" font-family="Helvetica,sans-Serif" font-size="16.00" fill="#383838">arn:aws:securityhub:us&#45;east&#45;1::p...</text>
</g>
<!-- ProductSubscription::arn:aws:securityhub:us&#45;east&#45;1::product/aws/firewall&#45;manager&#45;&gt;Account::default -->
<g id="edge7" class="edge">
<title>ProductSubscription::arn:aws:securityhub:us&#45;east&#45;1::product/aws/firewall&#45;manager&#45;&gt;Account::default</title>
<path fill="none" stroke="#707070" d="M708.96,-679.79C716.55,-676.84 723.95,-673.59 731,-670 768.5,-650.92 804.12,-618.87 828.8,-593.6"/>
<polygon fill="#707070" stroke="#707070" points="831.3,-596.05 835.69,-586.41 826.24,-591.2 831.3,-596.05"/>
</g>
<!-- ProductSubscription::arn:aws:securityhub:us&#45;east&#45;1::product/aws/guardduty -->
<g id="node11" class="node">
<title>ProductSubscription::arn:aws:securityhub:us&#45;east&#45;1::product/aws/guardduty</title>
<polygon fill="#e5e5e5" stroke="#dddddd" points="708.5,-661 422.5,-661 422.5,-603 708.5,-603 708.5,-661"/>
<text text-anchor="start" x="434.5" y="-641.2" font-family="Helvetica,sans-Serif" font-weight="bold" font-size="16.00" fill="#707070">SecurityHub::ProductSubscription</text>
<text text-anchor="start" x="434.5" y="-616.2" font-family="Helvetica,sans-Serif" font-size="16.00" fill="#383838">arn:aws:securityhub:us&#45;east&#45;1::p...</text>
</g>
<!-- ProductSubscription::arn:aws:securityhub:us&#45;east&#45;1::product/aws/guardduty&#45;&gt;Account::default -->
<g id="edge8" class="edge">
<title>ProductSubscription::arn:aws:securityhub:us&#45;east&#45;1::product/aws/guardduty&#45;&gt;Account::default</title>
<path fill="none" stroke="#707070" d="M696.86,-602.57C708.43,-599.75 719.94,-596.87 731,-594 739.08,-591.9 747.41,-589.66 755.78,-587.37"/>
<polygon fill="#707070" stroke="#707070" points="756.63,-590.76 765.33,-584.72 754.76,-584.02 756.63,-590.76"/>
</g>
<!-- ProductSubscription::arn:aws:securityhub:us&#45;east&#45;1::product/aws/health -->
<g id="node12" class="node">
<title>ProductSubscription::arn:aws:securityhub:us&#45;east&#45;1::product/aws/health</title>
<polygon fill="#e5e5e5" stroke="#dddddd" points="708.5,-585 422.5,-585 422.5,-527 708.5,-527 708.5,-585"/>
<text text-anchor="start" x="434.5" y="-565.2" font-family="Helvetica,sans-Serif" font-weight="bold" font-size="16.00" fill="#707070">SecurityHub::ProductSubscription</text>
<text text-anchor="start" x="434.5" y="-540.2" font-family="Helvetica,sans-Serif" font-size="16.00" fill="#383838">arn:aws:securityhub:us&#45;east&#45;1::p...</text>
</g>
<!-- ProductSubscription::arn:aws:securityhub:us&#45;east&#45;1::product/aws/health&#45;&gt;Account::default -->
<g id="edge9" class="edge">
<title>ProductSubscription::arn:aws:securityhub:us&#45;east&#45;1::product/aws/health&#45;&gt;Account::default</title>
<path fill="none" stroke="#707070" d="M708.86,-556C724.44,-556 740.11,-556 755.16,-556"/>
<polygon fill="#707070" stroke="#707070" points="755.03,-559.5 765.03,-556 755.03,-552.5 755.03,-559.5"/>
</g>
<!-- ProductSubscription::arn:aws:securityhub:us&#45;east&#45;1::product/aws/inspector -->
<g id="node13" class="node">
<title>ProductSubscription::arn:aws:securityhub:us&#45;east&#45;1::product/aws/inspector</title>
<polygon fill="#e5e5e5" stroke="#dddddd" points="708.5,-509 422.5,-509 422.5,-451 708.5,-451 708.5,-509"/>
<text text-anchor="start" x="434.5" y="-489.2" font-family="Helvetica,sans-Serif" font-weight="bold" font-size="16.00" fill="#707070">SecurityHub::ProductSubscription</text>
<text text-anchor="start" x="434.5" y="-464.2" font-family="Helvetica,sans-Serif" font-size="16.00" fill="#383838">arn:aws:securityhub:us&#45;east&#45;1::p...</text>
</g>
<!-- ProductSubscription::arn:aws:securityhub:us&#45;east&#45;1::product/aws/inspector&#45;&gt;Account::default -->
<g id="edge10" class="edge">
<title>ProductSubscription::arn:aws:securityhub:us&#45;east&#45;1::product/aws/inspector&#45;&gt;Account::default</title>
<path fill="none" stroke="#707070" d="M696.86,-509.43C708.43,-512.25 719.94,-515.13 731,-518 739.08,-520.1 747.41,-522.34 755.78,-524.63"/>
<polygon fill="#707070" stroke="#707070" points="754.76,-527.98 765.33,-527.28 756.63,-521.24 754.76,-527.98"/>
</g>
<!-- ProductSubscription::arn:aws:securityhub:us&#45;east&#45;1::product/aws/macie -->
<g id="node14" class="node">
<title>ProductSubscription::arn:aws:securityhub:us&#45;east&#45;1::product/aws/macie</title>
<polygon fill="#e5e5e5" stroke="#dddddd" points="708.5,-433 422.5,-433 422.5,-375 708.5,-375 708.5,-433"/>
<text text-anchor="start" x="434.5" y="-413.2" font-family="Helvetica,sans-Serif" font-weight="bold" font-size="16.00" fill="#707070">SecurityHub::ProductSubscription</text>
<text text-anchor="start" x="434.5" y="-388.2" font-family="Helvetica,sans-Serif" font-size="16.00" fill="#383838">arn:aws:securityhub:us&#45;east&#45;1::p...</text>
</g>
<!-- ProductSubscription::arn:aws:securityhub:us&#45;east&#45;1::product/aws/macie&#45;&gt;Account::default -->
<g id="edge11" class="edge">
<title>ProductSubscription::arn:aws:securityhub:us&#45;east&#45;1::product/aws/macie&#45;&gt;Account::default</title>
<path fill="none" stroke="#707070" d="M708.96,-432.21C716.55,-435.16 723.95,-438.41 731,-442 768.5,-461.08 804.12,-493.13 828.8,-518.4"/>
<polygon fill="#707070" stroke="#707070" points="826.24,-520.8 835.69,-525.59 831.3,-515.95 826.24,-520.8"/>
</g>
<!-- ProductSubscription::arn:aws:securityhub:us&#45;east&#45;1::product/aws/securityhub -->
<g id="node15" class="node">
<title>ProductSubscription::arn:aws:securityhub:us&#45;east&#45;1::product/aws/securityhub</title>
<polygon fill="#e5e5e5" stroke="#dddddd" points="708.5,-357 422.5,-357 422.5,-299 708.5,-299 708.5,-357"/>
<text text-anchor="start" x="434.5" y="-337.2" font-family="Helvetica,sans-Serif" font-weight="bold" font-size="16.00" fill="#707070">SecurityHub::ProductSubscription</text>
<text text-anchor="start" x="434.5" y="-312.2" font-family="Helvetica,sans-Serif" font-size="16.00" fill="#383838">arn:aws:securityhub:us&#45;east&#45;1::p...</text>
</g>
<!-- ProductSubscription::arn:aws:securityhub:us&#45;east&#45;1::product/aws/securityhub&#45;&gt;Account::default -->
<g id="edge12" class="edge">
<title>ProductSubscription::arn:aws:securityhub:us&#45;east&#45;1::product/aws/securityhub&#45;&gt;Account::default</title>
<path fill="none" stroke="#707070" d="M708.96,-353.58C716.68,-357.19 724.09,-361.31 731,-366 786.35,-403.56 825.39,-472.8 845.88,-516.52"/>
<polygon fill="#707070" stroke="#707070" points="842.6,-517.76 849.94,-525.4 848.97,-514.85 842.6,-517.76"/>
</g>
<!-- ProductSubscription::arn:aws:securityhub:us&#45;east&#45;1::product/aws/ssm&#45;patch&#45;manager -->
<g id="node16" class="node">
<title>ProductSubscription::arn:aws:securityhub:us&#45;east&#45;1::product/aws/ssm&#45;patch&#45;manager</title>
<polygon fill="#e5e5e5" stroke="#dddddd" points="708.5,-281 422.5,-281 422.5,-223 708.5,-223 708.5,-281"/>
<text text-anchor="start" x="434.5" y="-261.2" font-family="Helvetica,sans-Serif" font-weight="bold" font-size="16.00" fill="#707070">SecurityHub::ProductSubscription</text>
<text text-anchor="start" x="434.5" y="-236.2" font-family="Helvetica,sans-Serif" font-size="16.00" fill="#383838">arn:aws:securityhub:us&#45;east&#45;1::p...</text>
</g>
<!-- ProductSubscription::arn:aws:securityhub:us&#45;east&#45;1::product/aws/ssm&#45;patch&#45;manager&#45;&gt;Account::default -->
<g id="edge13" class="edge">
<title>ProductSubscription::arn:aws:securityhub:us&#45;east&#45;1::product/aws/ssm&#45;patch&#45;manager&#45;&gt;Account::default</title>
<path fill="none" stroke="#707070" d="M708.63,-275.8C716.57,-279.84 724.1,-284.54 731,-290 804.1,-347.83 839.56,-456.8 854.07,-515.72"/>
<polygon fill="#707070" stroke="#707070" points="850.63,-516.41 856.35,-525.34 857.45,-514.8 850.63,-516.41"/>
</g>
<!-- StandardsControl::arn:aws:securityhub:us&#45;east&#45;1:840541460064:control/aws&#45;foundational&#45;security&#45;best&#45;practices/v/1.0.0/CloudFront.1 -->
<g id="node17" class="node">
<title>StandardsControl::arn:aws:securityhub:us&#45;east&#45;1:840541460064:control/aws&#45;foundational&#45;security&#45;best&#45;practices/v/1.0.0/CloudFront.1</title>
<polygon fill="#e5e5e5" stroke="#dddddd" points="332.5,-205 55.5,-205 55.5,-147 332.5,-147 332.5,-205"/>
<text text-anchor="start" x="68" y="-185.2" font-family="Helvetica,sans-Serif" font-weight="bold" font-size="16.00" fill="#707070">SecurityHub::StandardsControl</text>
<text text-anchor="start" x="68" y="-160.2" font-family="Helvetica,sans-Serif" font-size="16.00" fill="#383838">arn:aws:securityhub:us&#45;east&#45;1:84...</text>
</g>
<!-- StandardsSubscription::arn:aws:securityhub:us&#45;east&#45;1::standards/aws&#45;foundational&#45;security&#45;best&#45;practices/v/1.0.0 -->
<g id="node19" class="node">
<title>StandardsSubscription::arn:aws:securityhub:us&#45;east&#45;1::standards/aws&#45;foundational&#45;security&#45;best&#45;practices/v/1.0.0</title>
<polygon fill="#e5e5e5" stroke="#dddddd" points="717.5,-205 413.5,-205 413.5,-147 717.5,-147 717.5,-205"/>
<text text-anchor="start" x="425.5" y="-185.2" font-family="Helvetica,sans-Serif" font-weight="bold" font-size="16.00" fill="#707070">SecurityHub::StandardsSubscription</text>
<text text-anchor="start" x="425.5" y="-160.2" font-family="Helvetica,sans-Serif" font-size="16.00" fill="#383838">arn:aws:securityhub:us&#45;east&#45;1::s...</text>
</g>
<!-- StandardsControl::arn:aws:securityhub:us&#45;east&#45;1:840541460064:control/aws&#45;foundational&#45;security&#45;best&#45;practices/v/1.0.0/CloudFront.1&#45;&gt;StandardsSubscription::arn:aws:securityhub:us&#45;east&#45;1::standards/aws&#45;foundational&#45;security&#45;best&#45;practices/v/1.0.0 -->
<g id="edge14" class="edge">
<title>StandardsControl::arn:aws:securityhub:us&#45;east&#45;1:840541460064:control/aws&#45;foundational&#45;security&#45;best&#45;practices/v/1.0.0/CloudFront.1&#45;&gt;StandardsSubscription::arn:aws:securityhub:us&#45;east&#45;1::standards/aws&#45;foundational&#45;security&#45;best&#45;practices/v/1.0.0</title>
<path fill="none" stroke="#707070" d="M332.85,-176C355.32,-176 378.78,-176 401.78,-176"/>
<polygon fill="#707070" stroke="#707070" points="401.52,-179.5 411.52,-176 401.52,-172.5 401.52,-179.5"/>
</g>
<!-- StandardsSubscription::arn:aws:securityhub:::ruleset/cis&#45;aws&#45;foundations&#45;benchmark/v/1.2.0 -->
<g id="node18" class="node">
<title>StandardsSubscription::arn:aws:securityhub:::ruleset/cis&#45;aws&#45;foundations&#45;benchmark/v/1.2.0</title>
<polygon fill="#e5e5e5" stroke="#dddddd" points="717.5,-129 413.5,-129 413.5,-71 717.5,-71 717.5,-129"/>
<text text-anchor="start" x="425.5" y="-109.2" font-family="Helvetica,sans-Serif" font-weight="bold" font-size="16.00" fill="#707070">SecurityHub::StandardsSubscription</text>
<text text-anchor="start" x="425.5" y="-84.2" font-family="Helvetica,sans-Serif" font-size="16.00" fill="#383838">arn:aws:securityhub:::ruleset/ci...</text>
</g>
<!-- StandardsSubscription::arn:aws:securityhub:::ruleset/cis&#45;aws&#45;foundations&#45;benchmark/v/1.2.0&#45;&gt;Account::default -->
<g id="edge15" class="edge">
<title>StandardsSubscription::arn:aws:securityhub:::ruleset/cis&#45;aws&#45;foundations&#45;benchmark/v/1.2.0&#45;&gt;Account::default</title>
<path fill="none" stroke="#707070" d="M717.9,-127.68C722.52,-130.79 726.91,-134.22 731,-138 840.76,-239.54 859.49,-431.55 862.28,-515.26"/>
<polygon fill="#707070" stroke="#707070" points="858.77,-515.15 862.54,-525.06 865.77,-514.97 858.77,-515.15"/>
</g>
<!-- StandardsSubscription::arn:aws:securityhub:us&#45;east&#45;1::standards/aws&#45;foundational&#45;security&#45;best&#45;practices/v/1.0.0&#45;&gt;Account::default -->
<g id="edge16" class="edge">
<title>StandardsSubscription::arn:aws:securityhub:us&#45;east&#45;1::standards/aws&#45;foundational&#45;security&#45;best&#45;practices/v/1.0.0&#45;&gt;Account::default</title>
<path fill="none" stroke="#707070" d="M717.98,-204.25C722.55,-207.2 726.91,-210.44 731,-214 822.2,-293.24 850.46,-443.15 858.97,-515.25"/>
<polygon fill="#707070" stroke="#707070" points="855.47,-515.48 860.05,-525.04 862.43,-514.71 855.47,-515.48"/>
</g>
</g>
</svg>
