<?xml version="1.0" encoding="UTF-8" standalone="no"?>
<!DOCTYPE svg PUBLIC "-//W3C//DTD SVG 1.1//EN"
 "http://www.w3.org/Graphics/SVG/1.1/DTD/svg11.dtd">
<!-- Generated by graphviz version 6.0.0 (20220910.1538)
 -->
<!-- Title: graphname Pages: 1 -->
<svg width="589pt" height="313pt"
 viewBox="0.00 0.00 589.00 313.00" xmlns="http://www.w3.org/2000/svg" xmlns:xlink="http://www.w3.org/1999/xlink">
<g id="graph0" class="graph" transform="scale(1 1) rotate(0) translate(4 309)">
<title>graphname</title>
<polygon fill="#fafafa" stroke="none" points="-4,4 -4,-309 585,-309 585,4 -4,4"/>
<text text-anchor="start" x="150.5" y="-280.4" font-family="Helvetica,sans-Serif" font-weight="bold" font-size="22.00" fill="#383838">Project securityhub&#45;simple</text>
<text text-anchor="start" x="287" y="-264.8" font-family="Helvetica,sans-Serif" font-size="14.00"> &#160;</text>
<text text-anchor="start" x="150.5" y="-243.2" font-family="Helvetica,sans-Serif" font-weight="bold" font-size="16.00" fill="#707070">Target Diagram</text>
<g id="clust1" class="cluster">
<title>cluster_aws</title>
<polygon fill="#f5f5f5" stroke="#f5f5f5" points="8,-8 8,-221 573,-221 573,-8 8,-8"/>
<text text-anchor="start" x="228.5" y="-23" font-family="Helvetica,sans-Serif" font-weight="bold" font-size="20.00" fill="#707070">Provider aws</text>
</g>
<g id="clust2" class="cluster">
<title>cluster_aws_</title>
<polygon fill="#eeeeee" stroke="#eeeeee" points="16,-54 16,-213 565,-213 565,-54 16,-54"/>
<text text-anchor="start" x="290.36" y="-58.3" font-family="Helvetica,sans-Serif" font-size="1.00" fill="#383838"> </text>
</g>
<!-- Account::default -->
<g id="node1" class="node">
<title>Account::default</title>
<polygon fill="#e5e5e5" stroke="#dddddd" points="557,-167 364,-167 364,-109 557,-109 557,-167"/>
<text text-anchor="start" x="376.5" y="-147.2" font-family="Helvetica,sans-Serif" font-weight="bold" font-size="16.00" fill="#707070">SecurityHub::Account</text>
<text text-anchor="start" x="376.5" y="-122.2" font-family="Helvetica,sans-Serif" font-size="16.00" fill="#383838">default</text>
</g>
<!-- StandardsSubscription::arn:aws:securityhub:::ruleset/cis&#45;aws&#45;foundations&#45;benchmark/v/1.2.0 -->
<g id="node2" class="node">
<title>StandardsSubscription::arn:aws:securityhub:::ruleset/cis&#45;aws&#45;foundations&#45;benchmark/v/1.2.0</title>
<polygon fill="#e5e5e5" stroke="#dddddd" points="328,-205 24,-205 24,-147 328,-147 328,-205"/>
<text text-anchor="start" x="36" y="-185.2" font-family="Helvetica,sans-Serif" font-weight="bold" font-size="16.00" fill="#707070">SecurityHub::StandardsSubscription</text>
<text text-anchor="start" x="36" y="-160.2" font-family="Helvetica,sans-Serif" font-size="16.00" fill="#383838">arn:aws:securityhub:::ruleset/ci...</text>
</g>
<!-- StandardsSubscription::arn:aws:securityhub:::ruleset/cis&#45;aws&#45;foundations&#45;benchmark/v/1.2.0&#45;&gt;Account::default -->
<g id="edge1" class="edge">
<title>StandardsSubscription::arn:aws:securityhub:::ruleset/cis&#45;aws&#45;foundations&#45;benchmark/v/1.2.0&#45;&gt;Account::default</title>
<path fill="none" stroke="#707070" d="M328.17,-155.67C336.75,-154.51 345.29,-153.36 353.64,-152.24"/>
<polygon fill="#707070" stroke="#707070" points="354.29,-155.68 363.74,-150.88 353.36,-148.75 354.29,-155.68"/>
</g>
<!-- StandardsSubscription::arn:aws:securityhub:us&#45;east&#45;1::standards/aws&#45;foundational&#45;security&#45;best&#45;practices/v/1.0.0 -->
<g id="node3" class="node">
<title>StandardsSubscription::arn:aws:securityhub:us&#45;east&#45;1::standards/aws&#45;foundational&#45;security&#45;best&#45;practices/v/1.0.0</title>
<polygon fill="#e5e5e5" stroke="#dddddd" points="328,-129 24,-129 24,-71 328,-71 328,-129"/>
<text text-anchor="start" x="36" y="-109.2" font-family="Helvetica,sans-Serif" font-weight="bold" font-size="16.00" fill="#707070">SecurityHub::StandardsSubscription</text>
<text text-anchor="start" x="36" y="-84.2" font-family="Helvetica,sans-Serif" font-size="16.00" fill="#383838">arn:aws:securityhub:us&#45;east&#45;1::s...</text>
</g>
<!-- StandardsSubscription::arn:aws:securityhub:us&#45;east&#45;1::standards/aws&#45;foundational&#45;security&#45;best&#45;practices/v/1.0.0&#45;&gt;Account::default -->
<g id="edge2" class="edge">
<title>StandardsSubscription::arn:aws:securityhub:us&#45;east&#45;1::standards/aws&#45;foundational&#45;security&#45;best&#45;practices/v/1.0.0&#45;&gt;Account::default</title>
<path fill="none" stroke="#707070" d="M328.17,-120.33C336.75,-121.49 345.29,-122.64 353.64,-123.76"/>
<polygon fill="#707070" stroke="#707070" points="353.36,-127.25 363.74,-125.12 354.29,-120.32 353.36,-127.25"/>
</g>
</g>
</svg>
