<?xml version="1.0" encoding="UTF-8" standalone="no"?><svg xmlns="http://www.w3.org/2000/svg" xmlns:xlink="http://www.w3.org/1999/xlink" contentStyleType="text/css" height="285px" preserveAspectRatio="none" style="width:532px;height:285px;background:#FFFFFF;" version="1.1" viewBox="0 0 532 285" width="532px" zoomAndPan="magnify"><defs/><g><rect height="26.4883" style="stroke:#00000000;stroke-width:1.0;fill:none;" width="451" x="15" y="15"/><text fill="#000000" font-family="sans-serif" font-size="14" font-weight="bold" lengthAdjust="spacing" textLength="441" x="20" y="33.5352">Resources for project dynamodb-streams-lambda-terraform</text><rect fill="#F1F1F1" height="36.4883" rx="12.5" ry="12.5" style="stroke:#181818;stroke-width:1.5;" width="52" x="11.5" y="142.2207"/><text fill="#000000" font-family="sans-serif" font-size="14" lengthAdjust="spacing" textLength="32" x="21.5" y="165.7559">Infra</text><rect fill="#F1F1F1" height="36.4883" rx="12.5" ry="12.5" style="stroke:#181818;stroke-width:1.5;" width="46" x="113.5" y="142.2207"/><text fill="#000000" font-family="sans-serif" font-size="14" lengthAdjust="spacing" textLength="26" x="123.5" y="165.7559">aws</text><rect fill="#F1F1F1" height="36.4883" rx="12.5" ry="12.5" style="stroke:#181818;stroke-width:1.5;" width="94" x="209.5" y="57.4883"/><text fill="#000000" font-family="sans-serif" font-size="14" lengthAdjust="spacing" textLength="74" x="219.5" y="81.0234">DynamoDB</text><rect fill="#F1F1F1" height="36.4883" rx="12.5" ry="12.5" style="stroke:#181818;stroke-width:1.5;" width="81" x="353.5" y="57.4883"/><text fill="#000000" font-family="sans-serif" font-size="14" lengthAdjust="spacing" textLength="61" x="363.5" y="81.0234">Table (1)</text><path d="M303.5,75.7324 L313.5,75.7324 C328.5,75.7324 328.5,75.7324 343.5,75.7324 L353.5,75.7324 " fill="none" style="stroke:#181818;stroke-width:1.0;"/><path d="M159.5,160.4648 L169.5,160.4648 C184.5,160.4648 184.5,75.7324 199.5,75.7324 L209.5,75.7324 " fill="none" style="stroke:#181818;stroke-width:1.0;"/><rect fill="#F1F1F1" height="36.4883" rx="12.5" ry="12.5" style="stroke:#181818;stroke-width:1.5;" width="46" x="209.5" y="113.9766"/><text fill="#000000" font-family="sans-serif" font-size="14" lengthAdjust="spacing" textLength="26" x="219.5" y="137.5117">IAM</text><rect fill="#F1F1F1" height="36.4883" rx="12.5" ry="12.5" style="stroke:#181818;stroke-width:1.5;" width="73" x="305.5" y="113.9766"/><text fill="#000000" font-family="sans-serif" font-size="14" lengthAdjust="spacing" textLength="53" x="315.5" y="137.5117">Role (1)</text><path d="M255.5,132.2207 L265.5,132.2207 C280.5,132.2207 280.5,132.2207 295.5,132.2207 L305.5,132.2207 " fill="none" style="stroke:#181818;stroke-width:1.0;"/><path d="M159.5,160.4648 L169.5,160.4648 C184.5,160.4648 184.5,132.2207 199.5,132.2207 L209.5,132.2207 " fill="none" style="stroke:#181818;stroke-width:1.0;"/><rect fill="#F1F1F1" height="36.4883" rx="12.5" ry="12.5" style="stroke:#181818;stroke-width:1.5;" width="74" x="209.5" y="198.709"/><text fill="#000000" font-family="sans-serif" font-size="14" lengthAdjust="spacing" textLength="54" x="219.5" y="222.2441">Lambda</text><rect fill="#F1F1F1" height="36.4883" rx="12.5" ry="12.5" style="stroke:#181818;stroke-width:1.5;" width="187" x="333.5" y="170.4648"/><text fill="#000000" font-family="sans-serif" font-size="14" lengthAdjust="spacing" textLength="167" x="343.5" y="194">EventSourceMapping (1)</text><path d="M283.5,216.9531 L293.5,216.9531 C308.5,216.9531 308.5,188.709 323.5,188.709 L333.5,188.709 " fill="none" style="stroke:#181818;stroke-width:1.0;"/><rect fill="#F1F1F1" height="36.4883" rx="12.5" ry="12.5" style="stroke:#181818;stroke-width:1.5;" width="103" x="333.5" y="226.9531"/><text fill="#000000" font-family="sans-serif" font-size="14" lengthAdjust="spacing" textLength="83" x="343.5" y="250.4883">Function (1)</text><path d="M283.5,216.9531 L293.5,216.9531 C308.5,216.9531 308.5,245.1973 323.5,245.1973 L333.5,245.1973 " fill="none" style="stroke:#181818;stroke-width:1.0;"/><path d="M159.5,160.4648 L169.5,160.4648 C184.5,160.4648 184.5,216.9531 199.5,216.9531 L209.5,216.9531 " fill="none" style="stroke:#181818;stroke-width:1.0;"/><path d="M63.5,160.4648 L73.5,160.4648 C88.5,160.4648 88.5,160.4648 103.5,160.4648 L113.5,160.4648 " fill="none" style="stroke:#181818;stroke-width:1.0;"/><!--MD5=[0db4deb5359158bfc91717b89c964035]
@startmindmap
title Resources for project dynamodb-streams-lambda-terraform
skinparam monochrome true
+ Infra
++ aws
+++ DynamoDB
++++ Table (1)
+++ IAM
++++ Role (1)
+++ Lambda
++++ EventSourceMapping (1)
++++ Function (1)
@endmindmap

PlantUML version 1.2022.6(Tue Jun 21 12:34:49 COT 2022)
(GPL source distribution)
Java Runtime: Java(TM) SE Runtime Environment
JVM: Java HotSpot(TM) 64-Bit Server VM
Default Encoding: UTF-8
Language: en
Country: GB
--></g></svg>