<?xml version="1.0" encoding="UTF-8" standalone="no"?>
<!DOCTYPE svg PUBLIC "-//W3C//DTD SVG 1.1//EN"
 "http://www.w3.org/Graphics/SVG/1.1/DTD/svg11.dtd">
<!-- Generated by graphviz version 6.0.0 (20220910.1538)
 -->
<!-- Title: graphname Pages: 1 -->
<svg width="979pt" height="333pt"
 viewBox="0.00 0.00 979.00 333.00" xmlns="http://www.w3.org/2000/svg" xmlns:xlink="http://www.w3.org/1999/xlink">
<g id="graph0" class="graph" transform="scale(1 1) rotate(0) translate(4 329)">
<title>graphname</title>
<polygon fill="#fafafa" stroke="none" points="-4,4 -4,-329 975,-329 975,4 -4,4"/>
<text text-anchor="start" x="336.5" y="-300.4" font-family="Helvetica,sans-Serif" font-weight="bold" font-size="22.00" fill="#383838">Project cdk&#45;lambda&#45;appsync</text>
<text text-anchor="start" x="481.5" y="-284.8" font-family="Helvetica,sans-Serif" font-size="14.00"> &#160;</text>
<text text-anchor="start" x="336.5" y="-263.2" font-family="Helvetica,sans-Serif" font-weight="bold" font-size="16.00" fill="#707070">Target Diagram</text>
<g id="clust1" class="cluster">
<title>cluster_aws</title>
<polygon fill="#f5f5f5" stroke="#f5f5f5" points="8,-8 8,-241 963,-241 963,-8 8,-8"/>
<text text-anchor="start" x="423.5" y="-23" font-family="Helvetica,sans-Serif" font-weight="bold" font-size="20.00" fill="#707070">Provider aws</text>
</g>
<g id="clust2" class="cluster">
<title>cluster_aws_</title>
<polygon fill="#eeeeee" stroke="#eeeeee" points="16,-54 16,-233 955,-233 955,-54 16,-54"/>
<text text-anchor="start" x="485.36" y="-58.3" font-family="Helvetica,sans-Serif" font-size="1.00" fill="#383838"> </text>
</g>
<!-- DataSource::NONE -->
<g id="node1" class="node">
<title>DataSource::NONE</title>
<polygon fill="#e5e5e5" stroke="#dddddd" points="551.5,-225 358.5,-225 358.5,-167 551.5,-167 551.5,-225"/>
<text text-anchor="start" x="371" y="-205.2" font-family="Helvetica,sans-Serif" font-weight="bold" font-size="16.00" fill="#707070">AppSync::DataSource</text>
<text text-anchor="start" x="371" y="-180.2" font-family="Helvetica,sans-Serif" font-size="16.00" fill="#383838">NONE</text>
</g>
<!-- GraphqlApi::TriggeredByLambda -->
<g id="node2" class="node">
<title>GraphqlApi::TriggeredByLambda</title>
<polygon fill="#e5e5e5" stroke="#dddddd" points="890.5,-205 699.5,-205 699.5,-147 890.5,-147 890.5,-205"/>
<text text-anchor="start" x="712" y="-185.2" font-family="Helvetica,sans-Serif" font-weight="bold" font-size="16.00" fill="#707070">AppSync::GraphqlApi</text>
<text text-anchor="start" x="712" y="-160.2" font-family="Helvetica,sans-Serif" font-size="16.00" fill="#383838">TriggeredByLambda</text>
</g>
<!-- DataSource::NONE&#45;&gt;GraphqlApi::TriggeredByLambda -->
<g id="edge1" class="edge">
<title>DataSource::NONE&#45;&gt;GraphqlApi::TriggeredByLambda</title>
<path fill="none" stroke="#707070" d="M551.5,-190.35C594.42,-187.81 645.2,-184.8 689.17,-182.2"/>
<polygon fill="#707070" stroke="#707070" points="689.54,-185.69 699.32,-181.6 689.13,-178.7 689.54,-185.69"/>
</g>
<!-- Resolver::resolver::Mutation::createTodo -->
<g id="node3" class="node">
<title>Resolver::resolver::Mutation::createTodo</title>
<polygon fill="#e5e5e5" stroke="#dddddd" points="267,-201 24,-201 24,-143 267,-143 267,-201"/>
<text text-anchor="start" x="36.5" y="-181.2" font-family="Helvetica,sans-Serif" font-weight="bold" font-size="16.00" fill="#707070">AppSync::Resolver</text>
<text text-anchor="start" x="36.5" y="-156.2" font-family="Helvetica,sans-Serif" font-size="16.00" fill="#383838">resolver::Mutation::createTodo</text>
</g>
<!-- Resolver::resolver::Mutation::createTodo&#45;&gt;DataSource::NONE -->
<g id="edge3" class="edge">
<title>Resolver::resolver::Mutation::createTodo&#45;&gt;DataSource::NONE</title>
<path fill="none" stroke="#707070" d="M267.15,-181.42C293.89,-183.5 322.03,-185.7 348.12,-187.74"/>
<polygon fill="#707070" stroke="#707070" points="348.16,-191.25 358.4,-188.54 348.7,-184.27 348.16,-191.25"/>
</g>
<!-- Resolver::resolver::Mutation::createTodo&#45;&gt;GraphqlApi::TriggeredByLambda -->
<g id="edge2" class="edge">
<title>Resolver::resolver::Mutation::createTodo&#45;&gt;GraphqlApi::TriggeredByLambda</title>
<path fill="none" stroke="#707070" d="M267.33,-160.11C279.37,-159.25 291.42,-158.52 303,-158 437.98,-151.97 472.04,-151.52 607,-158 633.72,-159.28 662.52,-161.59 689.31,-164.14"/>
<polygon fill="#707070" stroke="#707070" points="689.18,-167.64 699.48,-165.12 689.86,-160.67 689.18,-167.64"/>
</g>
<!-- Role::CdkLambdaCallAppSyncStack&#45;triggerServiceRole07E9AB&#45;5S1U4A7Y9DDX -->
<g id="node4" class="node">
<title>Role::CdkLambdaCallAppSyncStack&#45;triggerServiceRole07E9AB&#45;5S1U4A7Y9DDX</title>
<polygon fill="#e5e5e5" stroke="#dddddd" points="947,-129 643,-129 643,-71 947,-71 947,-129"/>
<text text-anchor="start" x="655" y="-109.2" font-family="Helvetica,sans-Serif" font-weight="bold" font-size="16.00" fill="#707070">IAM::Role</text>
<text text-anchor="start" x="655" y="-84.2" font-family="Helvetica,sans-Serif" font-size="16.00" fill="#383838">CdkLambdaCallAppSyncStack&#45;trigge...</text>
</g>
<!-- Function::CdkLambdaCallAppSyncStack&#45;trigger73DC69F8&#45;Fn5wBU5v76VC -->
<g id="node5" class="node">
<title>Function::CdkLambdaCallAppSyncStack&#45;trigger73DC69F8&#45;Fn5wBU5v76VC</title>
<polygon fill="#e5e5e5" stroke="#dddddd" points="607,-129 303,-129 303,-71 607,-71 607,-129"/>
<text text-anchor="start" x="315" y="-109.2" font-family="Helvetica,sans-Serif" font-weight="bold" font-size="16.00" fill="#707070">Lambda::Function</text>
<text text-anchor="start" x="315" y="-84.2" font-family="Helvetica,sans-Serif" font-size="16.00" fill="#383838">CdkLambdaCallAppSyncStack&#45;trigge...</text>
</g>
<!-- Function::CdkLambdaCallAppSyncStack&#45;trigger73DC69F8&#45;Fn5wBU5v76VC&#45;&gt;GraphqlApi::TriggeredByLambda -->
<g id="edge5" class="edge">
<title>Function::CdkLambdaCallAppSyncStack&#45;trigger73DC69F8&#45;Fn5wBU5v76VC&#45;&gt;GraphqlApi::TriggeredByLambda</title>
<path fill="none" stroke="#707070" d="M585.23,-129.06C619.6,-136.79 656.3,-145.04 689.18,-152.43"/>
<polygon fill="#707070" stroke="#707070" points="688.74,-155.92 699.26,-154.7 690.27,-149.09 688.74,-155.92"/>
</g>
<!-- Function::CdkLambdaCallAppSyncStack&#45;trigger73DC69F8&#45;Fn5wBU5v76VC&#45;&gt;Role::CdkLambdaCallAppSyncStack&#45;triggerServiceRole07E9AB&#45;5S1U4A7Y9DDX -->
<g id="edge4" class="edge">
<title>Function::CdkLambdaCallAppSyncStack&#45;trigger73DC69F8&#45;Fn5wBU5v76VC&#45;&gt;Role::CdkLambdaCallAppSyncStack&#45;triggerServiceRole07E9AB&#45;5S1U4A7Y9DDX</title>
<path fill="none" stroke="#707070" d="M607.21,-100C615.73,-100 624.32,-100 632.88,-100"/>
<polygon fill="#707070" stroke="#707070" points="632.92,-103.5 642.92,-100 632.92,-96.5 632.92,-103.5"/>
</g>
</g>
</svg>
