<?xml version="1.0" encoding="UTF-8" standalone="no"?>
<!DOCTYPE svg PUBLIC "-//W3C//DTD SVG 1.1//EN"
 "http://www.w3.org/Graphics/SVG/1.1/DTD/svg11.dtd">
<!-- Generated by graphviz version 2.44.1 (20200629.0846)
 -->
<!-- Title: graphname Pages: 1 -->
<svg width="312pt" height="237pt"
 viewBox="0.00 0.00 312.00 237.00" xmlns="http://www.w3.org/2000/svg" xmlns:xlink="http://www.w3.org/1999/xlink">
<g id="graph0" class="graph" transform="scale(1 1) rotate(0) translate(4 233)">
<title>graphname</title>
<polygon fill="#fafafa" stroke="transparent" points="-4,4 -4,-233 308,-233 308,4 -4,4"/>
<text text-anchor="start" x="12" y="-204.4" font-family="Helvetica,sans-Serif" font-weight="bold" font-size="22.00" fill="#383838">Project Gcp Storate simple</text>
<text text-anchor="start" x="148" y="-188.8" font-family="Helvetica,sans-Serif" font-size="14.00"> &#160;</text>
<text text-anchor="start" x="12" y="-167.2" font-family="Helvetica,sans-Serif" font-weight="bold" font-size="16.00" fill="#707070">Target Diagram</text>
<g id="clust1" class="cluster">
<title>cluster_google</title>
<polygon fill="#f5f5f5" stroke="#f5f5f5" points="21.5,-8 21.5,-145 282.5,-145 282.5,-8 21.5,-8"/>
<text text-anchor="start" x="77" y="-23" font-family="Helvetica,sans-Serif" font-weight="bold" font-size="20.00" fill="#707070">Provider google</text>
</g>
<g id="clust2" class="cluster">
<title>cluster_google_</title>
<polygon fill="#eeeeee" stroke="#eeeeee" points="29.5,-54 29.5,-137 274.5,-137 274.5,-54 29.5,-54"/>
<text text-anchor="start" x="151.86" y="-58.3" font-family="Helvetica,sans-Serif" font-size="1.00" fill="#383838"> </text>
</g>
<!-- Bucket::grucloud&#45;test -->
<g id="node1" class="node">
<title>Bucket::grucloud&#45;test</title>
<polygon fill="#e5e5e5" stroke="#dddddd" points="266.5,-129 148.5,-129 148.5,-71 266.5,-71 266.5,-129"/>
<text text-anchor="start" x="160.5" y="-109.2" font-family="Helvetica,sans-Serif" font-weight="bold" font-size="16.00" fill="#707070">Bucket</text>
<text text-anchor="start" x="160.5" y="-84.2" font-family="Helvetica,sans-Serif" font-size="16.00" fill="#383838">grucloud&#45;test</text>
</g>
<!-- Object::myfile -->
<g id="node2" class="node">
<title>Object::myfile</title>
<polygon fill="#e5e5e5" stroke="#dddddd" points="112.5,-129 37.5,-129 37.5,-71 112.5,-71 112.5,-129"/>
<text text-anchor="start" x="50" y="-109.2" font-family="Helvetica,sans-Serif" font-weight="bold" font-size="16.00" fill="#707070">Object</text>
<text text-anchor="start" x="50" y="-84.2" font-family="Helvetica,sans-Serif" font-size="16.00" fill="#383838">myfile</text>
</g>
<!-- Object::myfile&#45;&gt;Bucket::grucloud&#45;test -->
<g id="edge1" class="edge">
<title>Object::myfile&#45;&gt;Bucket::grucloud&#45;test</title>
<path fill="none" stroke="#707070" d="M112.7,-100C120.61,-100 129.22,-100 137.91,-100"/>
<polygon fill="#707070" stroke="#707070" points="138.1,-103.5 148.1,-100 138.1,-96.5 138.1,-103.5"/>
</g>
</g>
</svg>
