<?xml version="1.0" encoding="UTF-8" standalone="no"?><svg xmlns="http://www.w3.org/2000/svg" xmlns:xlink="http://www.w3.org/1999/xlink" contentScriptType="application/ecmascript" contentStyleType="text/css" height="115px" preserveAspectRatio="none" style="width:421px;height:115px;background:#FFFFFF;" version="1.1" viewBox="0 0 421 115" width="421px" zoomAndPan="magnify"><defs><filter height="300%" id="f15e77iddos44p" width="300%" x="-1" y="-1"><feGaussianBlur result="blurOut" stdDeviation="2.0"/><feColorMatrix in="blurOut" result="blurOut2" type="matrix" values="0 0 0 0 0 0 0 0 0 0 0 0 0 0 0 0 0 0 .4 0"/><feOffset dx="4.0" dy="4.0" in="blurOut2" result="blurOut3"/><feBlend in="SourceGraphic" in2="blurOut3" mode="normal"/></filter></defs><g><rect fill="none" height="26.4883" style="stroke:none;stroke-width:1.0;" width="197" x="82" y="15"/><text fill="#000000" font-family="sans-serif" font-size="14" font-weight="bold" lengthAdjust="spacing" textLength="187" x="87" y="33.5352">Resources for project aws</text><rect fill="#F8F8F8" filter="url(#f15e77iddos44p)" height="36.4883" rx="12.5" ry="12.5" style="stroke:#383838;stroke-width:1.5;" width="52" x="10" y="57.4883"/><text fill="#000000" font-family="sans-serif" font-size="14" lengthAdjust="spacing" textLength="32" x="20" y="81.0234">Infra</text><rect fill="#F8F8F8" filter="url(#f15e77iddos44p)" height="36.4883" rx="12.5" ry="12.5" style="stroke:#383838;stroke-width:1.5;" width="46" x="112" y="57.4883"/><text fill="#000000" font-family="sans-serif" font-size="14" lengthAdjust="spacing" textLength="26" x="122" y="81.0234">aws</text><rect fill="#F8F8F8" filter="url(#f15e77iddos44p)" height="36.4883" rx="12.5" ry="12.5" style="stroke:#383838;stroke-width:1.5;" width="44" x="208" y="57.4883"/><text fill="#000000" font-family="sans-serif" font-size="14" lengthAdjust="spacing" textLength="24" x="218" y="81.0234">ec2</text><rect fill="#F8F8F8" filter="url(#f15e77iddos44p)" height="36.4883" rx="12.5" ry="12.5" style="stroke:#383838;stroke-width:1.5;" width="100" x="302" y="57.4883"/><text fill="#000000" font-family="sans-serif" font-size="14" lengthAdjust="spacing" textLength="80" x="312" y="81.0234">Instance (1)</text><path d="M252,75.7324 L262,75.7324 C277,75.7324 277,75.7324 292,75.7324 L302,75.7324 " fill="none" style="stroke:#383838;stroke-width:1.0;"/><path d="M158,75.7324 L168,75.7324 C183,75.7324 183,75.7324 198,75.7324 L208,75.7324 " fill="none" style="stroke:#383838;stroke-width:1.0;"/><path d="M62,75.7324 L72,75.7324 C87,75.7324 87,75.7324 102,75.7324 L112,75.7324 " fill="none" style="stroke:#383838;stroke-width:1.0;"/><!--MD5=[6f1bd0a968ff40eda51f57ee8901bd49]
@startmindmap
title Resources for project aws
skinparam monochrome true
+ Infra
++ aws
+++ ec2
++++ Instance (1)
@endmindmap

PlantUML version 1.2021.8(Sat Jun 26 05:20:59 BRT 2021)
(GPL source distribution)
Java Runtime: OpenJDK Runtime Environment
JVM: OpenJDK 64-Bit Server VM
Default Encoding: UTF-8
Language: en
Country: GB
--></g></svg>