<?xml version="1.0" encoding="UTF-8" standalone="no"?>
<!DOCTYPE svg PUBLIC "-//W3C//DTD SVG 1.1//EN"
 "http://www.w3.org/Graphics/SVG/1.1/DTD/svg11.dtd">
<!-- Generated by graphviz version 7.1.0 (20230121.1956)
 -->
<!-- Title: graphname Pages: 1 -->
<svg width="640pt" height="389pt"
 viewBox="0.00 0.00 640.00 389.00" xmlns="http://www.w3.org/2000/svg" xmlns:xlink="http://www.w3.org/1999/xlink">
<g id="graph0" class="graph" transform="scale(1 1) rotate(0) translate(4 385)">
<title>graphname</title>
<polygon fill="#fafafa" stroke="none" points="-4,4 -4,-385 636,-385 636,4 -4,4"/>
<text text-anchor="start" x="196" y="-356.4" font-family="Helvetica,sans-Serif" font-weight="bold" font-size="22.00" fill="#383838">Project transfer&#45;sftp&#45;s3</text>
<text text-anchor="start" x="312.5" y="-340.8" font-family="Helvetica,sans-Serif" font-size="14.00"> &#160;</text>
<text text-anchor="start" x="196" y="-319.2" font-family="Helvetica,sans-Serif" font-weight="bold" font-size="16.00" fill="#707070">Target Diagram</text>
<g id="clust1" class="cluster">
<title>cluster_aws</title>
<polygon fill="#f5f5f5" stroke="#f5f5f5" points="8,-8 8,-297 624,-297 624,-8 8,-8"/>
<text text-anchor="start" x="254" y="-23" font-family="Helvetica,sans-Serif" font-weight="bold" font-size="20.00" fill="#707070">Provider aws</text>
</g>
<g id="clust2" class="cluster">
<title>cluster_aws_</title>
<polygon fill="#eeeeee" stroke="#eeeeee" points="16,-54 16,-289 616,-289 616,-54 16,-54"/>
<text text-anchor="start" x="315.86" y="-58.3" font-family="Helvetica,sans-Serif" font-size="1.00" fill="#383838"> </text>
</g>
<!-- Role::AWSTransferLoggingAccess -->
<g id="node1" class="node">
<title>Role::AWSTransferLoggingAccess</title>
<polygon fill="#e5e5e5" stroke="#dddddd" points="608,-205 377,-205 377,-147 608,-147 608,-205"/>
<text text-anchor="start" x="389.5" y="-185.2" font-family="Helvetica,sans-Serif" font-weight="bold" font-size="16.00" fill="#707070">IAM::Role</text>
<text text-anchor="start" x="389.5" y="-160.2" font-family="Helvetica,sans-Serif" font-size="16.00" fill="#383838">AWSTransferLoggingAccess</text>
</g>
<!-- Role::role&#45;transfer -->
<g id="node2" class="node">
<title>Role::role&#45;transfer</title>
<polygon fill="#e5e5e5" stroke="#dddddd" points="323,-129 211,-129 211,-71 323,-71 323,-129"/>
<text text-anchor="start" x="223" y="-109.2" font-family="Helvetica,sans-Serif" font-weight="bold" font-size="16.00" fill="#707070">IAM::Role</text>
<text text-anchor="start" x="223" y="-84.2" font-family="Helvetica,sans-Serif" font-size="16.00" fill="#383838">role&#45;transfer</text>
</g>
<!-- Bucket::gc&#45;transfer&#45;s3 -->
<g id="node3" class="node">
<title>Bucket::gc&#45;transfer&#45;s3</title>
<polygon fill="#e5e5e5" stroke="#dddddd" points="329,-205 205,-205 205,-147 329,-147 329,-205"/>
<text text-anchor="start" x="217" y="-185.2" font-family="Helvetica,sans-Serif" font-weight="bold" font-size="16.00" fill="#707070">S3::Bucket</text>
<text text-anchor="start" x="217" y="-160.2" font-family="Helvetica,sans-Serif" font-size="16.00" fill="#383838">gc&#45;transfer&#45;s3</text>
</g>
<!-- Server::S3::PUBLIC -->
<g id="node4" class="node">
<title>Server::S3::PUBLIC</title>
<polygon fill="#e5e5e5" stroke="#dddddd" points="341,-281 193,-281 193,-223 341,-223 341,-281"/>
<text text-anchor="start" x="205" y="-261.2" font-family="Helvetica,sans-Serif" font-weight="bold" font-size="16.00" fill="#707070">Transfer::Server</text>
<text text-anchor="start" x="205" y="-236.2" font-family="Helvetica,sans-Serif" font-size="16.00" fill="#383838">S3::PUBLIC</text>
</g>
<!-- Server::S3::PUBLIC&#45;&gt;Role::AWSTransferLoggingAccess -->
<g id="edge1" class="edge">
<title>Server::S3::PUBLIC&#45;&gt;Role::AWSTransferLoggingAccess</title>
<path fill="none" stroke="#707070" d="M341.24,-226.3C353.18,-222.16 365.43,-217.94 377,-214 381.76,-212.38 386.63,-210.73 391.55,-209.07"/>
<polygon fill="#707070" stroke="#707070" points="392.58,-212.42 400.95,-205.91 390.35,-205.78 392.58,-212.42"/>
</g>
<!-- Workflow::my&#45;workflow -->
<g id="node6" class="node">
<title>Workflow::my&#45;workflow</title>
<polygon fill="#e5e5e5" stroke="#dddddd" points="577.5,-281 407.5,-281 407.5,-223 577.5,-223 577.5,-281"/>
<text text-anchor="start" x="419.5" y="-261.2" font-family="Helvetica,sans-Serif" font-weight="bold" font-size="16.00" fill="#707070">Transfer::Workflow</text>
<text text-anchor="start" x="419.5" y="-236.2" font-family="Helvetica,sans-Serif" font-size="16.00" fill="#383838">my&#45;workflow</text>
</g>
<!-- Server::S3::PUBLIC&#45;&gt;Workflow::my&#45;workflow -->
<g id="edge2" class="edge">
<title>Server::S3::PUBLIC&#45;&gt;Workflow::my&#45;workflow</title>
<path fill="none" stroke="#707070" d="M341.49,-252C358.79,-252 377.49,-252 395.61,-252"/>
<polygon fill="#707070" stroke="#707070" points="395.6,-255.5 405.6,-252 395.6,-248.5 395.6,-255.5"/>
</g>
<!-- User::my&#45;user -->
<g id="node5" class="node">
<title>User::my&#45;user</title>
<polygon fill="#e5e5e5" stroke="#dddddd" points="157,-205 24,-205 24,-147 157,-147 157,-205"/>
<text text-anchor="start" x="36.5" y="-185.2" font-family="Helvetica,sans-Serif" font-weight="bold" font-size="16.00" fill="#707070">Transfer::User</text>
<text text-anchor="start" x="36.5" y="-160.2" font-family="Helvetica,sans-Serif" font-size="16.00" fill="#383838">my&#45;user</text>
</g>
<!-- User::my&#45;user&#45;&gt;Role::role&#45;transfer -->
<g id="edge3" class="edge">
<title>User::my&#45;user&#45;&gt;Role::role&#45;transfer</title>
<path fill="none" stroke="#707070" d="M157.47,-147.27C171.47,-141.17 186.24,-134.74 200.23,-128.64"/>
<polygon fill="#707070" stroke="#707070" points="201.6,-131.87 209.37,-124.67 198.8,-125.45 201.6,-131.87"/>
</g>
<!-- User::my&#45;user&#45;&gt;Bucket::gc&#45;transfer&#45;s3 -->
<g id="edge5" class="edge">
<title>User::my&#45;user&#45;&gt;Bucket::gc&#45;transfer&#45;s3</title>
<path fill="none" stroke="#707070" d="M157.47,-176C169.17,-176 181.42,-176 193.3,-176"/>
<polygon fill="#707070" stroke="#707070" points="193.03,-179.5 203.03,-176 193.03,-172.5 193.03,-179.5"/>
</g>
<!-- User::my&#45;user&#45;&gt;Server::S3::PUBLIC -->
<g id="edge4" class="edge">
<title>User::my&#45;user&#45;&gt;Server::S3::PUBLIC</title>
<path fill="none" stroke="#707070" d="M157.47,-204.73C167.43,-209.07 177.78,-213.58 187.96,-218.01"/>
<polygon fill="#707070" stroke="#707070" points="186.53,-221.21 197.1,-221.99 189.33,-214.79 186.53,-221.21"/>
</g>
</g>
</svg>
