<?xml version="1.0" encoding="UTF-8" standalone="no"?>
<!DOCTYPE svg PUBLIC "-//W3C//DTD SVG 1.1//EN"
 "http://www.w3.org/Graphics/SVG/1.1/DTD/svg11.dtd">
<!-- Generated by graphviz version 3.0.0 (20220226.1711)
 -->
<!-- Title: graphname Pages: 1 -->
<svg width="1590pt" height="961pt"
 viewBox="0.00 0.00 1590.00 961.00" xmlns="http://www.w3.org/2000/svg" xmlns:xlink="http://www.w3.org/1999/xlink">
<g id="graph0" class="graph" transform="scale(1 1) rotate(0) translate(4 957)">
<title>graphname</title>
<polygon fill="#fafafa" stroke="transparent" points="-4,4 -4,-957 1586,-957 1586,4 -4,4"/>
<text text-anchor="start" x="680" y="-928.4" font-family="Helvetica,sans-Serif" font-weight="bold" font-size="22.00" fill="#383838">Project load&#45;balancer</text>
<text text-anchor="start" x="787.5" y="-912.8" font-family="Helvetica,sans-Serif" font-size="14.00"> &#160;</text>
<text text-anchor="start" x="680" y="-891.2" font-family="Helvetica,sans-Serif" font-weight="bold" font-size="16.00" fill="#707070">Live Diagram</text>
<g id="clust1" class="cluster">
<title>cluster_aws</title>
<polygon fill="#f5f5f5" stroke="#f5f5f5" points="8,-8 8,-869 1574,-869 1574,-8 8,-8"/>
<text text-anchor="start" x="729" y="-23" font-family="Helvetica,sans-Serif" font-weight="bold" font-size="20.00" fill="#707070">Provider aws</text>
</g>
<g id="clust2" class="cluster">
<title>cluster_aws_</title>
<polygon fill="#eeeeee" stroke="#eeeeee" points="16,-54 16,-861 1566,-861 1566,-54 16,-54"/>
<text text-anchor="start" x="790.86" y="-58.3" font-family="Helvetica,sans-Serif" font-size="1.00" fill="#383838"> </text>
</g>
<!-- Certificate::::grucloud.org -->
<g id="node1" class="node">
<title>Certificate::::grucloud.org</title>
<polygon fill="#e5e5e5" stroke="#dddddd" points="873.5,-453 724.5,-453 724.5,-395 873.5,-395 873.5,-453"/>
<text text-anchor="start" x="737" y="-433.2" font-family="Helvetica,sans-Serif" font-weight="bold" font-size="16.00" fill="#707070">ACM::Certificate</text>
<text text-anchor="start" x="737" y="-408.2" font-family="Helvetica,sans-Serif" font-size="16.00" fill="#383838">grucloud.org</text>
</g>
<!-- AutoScalingAttachment::::attachment::ag::target&#45;group&#45;rest -->
<g id="node2" class="node">
<title>AutoScalingAttachment::::attachment::ag::target&#45;group&#45;rest</title>
<polygon fill="#e5e5e5" stroke="#dddddd" points="623,-577 314,-577 314,-519 623,-519 623,-577"/>
<text text-anchor="start" x="326.5" y="-557.2" font-family="Helvetica,sans-Serif" font-weight="bold" font-size="16.00" fill="#707070">AutoScaling::AutoScalingAttachment</text>
<text text-anchor="start" x="326.5" y="-532.2" font-family="Helvetica,sans-Serif" font-size="16.00" fill="#383838">attachment::ag::target&#45;group&#45;res...</text>
</g>
<!-- AutoScalingGroup::::ag -->
<g id="node4" class="node">
<title>AutoScalingGroup::::ag</title>
<polygon fill="#e5e5e5" stroke="#dddddd" points="933.5,-549 664.5,-549 664.5,-491 933.5,-491 933.5,-549"/>
<text text-anchor="start" x="677" y="-529.2" font-family="Helvetica,sans-Serif" font-weight="bold" font-size="16.00" fill="#707070">AutoScaling::AutoScalingGroup</text>
<text text-anchor="start" x="677" y="-504.2" font-family="Helvetica,sans-Serif" font-size="16.00" fill="#383838">ag</text>
</g>
<!-- AutoScalingAttachment::::attachment::ag::target&#45;group&#45;rest&#45;&gt;AutoScalingGroup::::ag -->
<g id="edge2" class="edge">
<title>AutoScalingAttachment::::attachment::ag::target&#45;group&#45;rest&#45;&gt;AutoScalingGroup::::ag</title>
<path fill="none" stroke="#707070" d="M623.17,-534.9C633.44,-534.03 643.76,-533.15 653.98,-532.28"/>
<polygon fill="#707070" stroke="#707070" points="654.49,-535.74 664.16,-531.41 653.9,-528.77 654.49,-535.74"/>
</g>
<!-- TargetGroup::::target&#45;group&#45;rest -->
<g id="node15" class="node">
<title>TargetGroup::::target&#45;group&#45;rest</title>
<polygon fill="#e5e5e5" stroke="#dddddd" points="889,-625 709,-625 709,-567 889,-567 889,-625"/>
<text text-anchor="start" x="721" y="-605.2" font-family="Helvetica,sans-Serif" font-weight="bold" font-size="16.00" fill="#707070">ELBv2::TargetGroup</text>
<text text-anchor="start" x="721" y="-580.2" font-family="Helvetica,sans-Serif" font-size="16.00" fill="#383838">target&#45;group&#45;rest</text>
</g>
<!-- AutoScalingAttachment::::attachment::ag::target&#45;group&#45;rest&#45;&gt;TargetGroup::::target&#45;group&#45;rest -->
<g id="edge1" class="edge">
<title>AutoScalingAttachment::::attachment::ag::target&#45;group&#45;rest&#45;&gt;TargetGroup::::target&#45;group&#45;rest</title>
<path fill="none" stroke="#707070" d="M623.17,-570.45C648.89,-574.21 674.95,-578.02 698.82,-581.51"/>
<polygon fill="#707070" stroke="#707070" points="698.51,-585 708.91,-582.98 699.52,-578.07 698.51,-585"/>
</g>
<!-- AutoScalingAttachment::::attachment::ag::target&#45;group&#45;web -->
<g id="node3" class="node">
<title>AutoScalingAttachment::::attachment::ag::target&#45;group&#45;web</title>
<polygon fill="#e5e5e5" stroke="#dddddd" points="623,-425 314,-425 314,-367 623,-367 623,-425"/>
<text text-anchor="start" x="326.5" y="-405.2" font-family="Helvetica,sans-Serif" font-weight="bold" font-size="16.00" fill="#707070">AutoScaling::AutoScalingAttachment</text>
<text text-anchor="start" x="326.5" y="-380.2" font-family="Helvetica,sans-Serif" font-size="16.00" fill="#383838">attachment::ag::target&#45;group&#45;web...</text>
</g>
<!-- AutoScalingAttachment::::attachment::ag::target&#45;group&#45;web&#45;&gt;AutoScalingGroup::::ag -->
<g id="edge4" class="edge">
<title>AutoScalingAttachment::::attachment::ag::target&#45;group&#45;web&#45;&gt;AutoScalingGroup::::ag</title>
<path fill="none" stroke="#707070" d="M602.23,-425.05C609.36,-427.79 616.33,-430.76 623,-434 641.24,-442.85 641.49,-451.78 659,-462 674.53,-471.06 691.75,-479.44 708.62,-486.85"/>
<polygon fill="#707070" stroke="#707070" points="707.38,-490.12 717.95,-490.86 710.15,-483.69 707.38,-490.12"/>
</g>
<!-- TargetGroup::::target&#45;group&#45;web -->
<g id="node16" class="node">
<title>TargetGroup::::target&#45;group&#45;web</title>
<polygon fill="#e5e5e5" stroke="#dddddd" points="889,-377 709,-377 709,-319 889,-319 889,-377"/>
<text text-anchor="start" x="721" y="-357.2" font-family="Helvetica,sans-Serif" font-weight="bold" font-size="16.00" fill="#707070">ELBv2::TargetGroup</text>
<text text-anchor="start" x="721" y="-332.2" font-family="Helvetica,sans-Serif" font-size="16.00" fill="#383838">target&#45;group&#45;web</text>
</g>
<!-- AutoScalingAttachment::::attachment::ag::target&#45;group&#45;web&#45;&gt;TargetGroup::::target&#45;group&#45;web -->
<g id="edge3" class="edge">
<title>AutoScalingAttachment::::attachment::ag::target&#45;group&#45;web&#45;&gt;TargetGroup::::target&#45;group&#45;web</title>
<path fill="none" stroke="#707070" d="M623.17,-373.55C648.89,-369.79 674.95,-365.98 698.82,-362.49"/>
<polygon fill="#707070" stroke="#707070" points="699.52,-365.93 708.91,-361.02 698.51,-359 699.52,-365.93"/>
</g>
<!-- LaunchTemplate::::my&#45;template -->
<g id="node6" class="node">
<title>LaunchTemplate::::my&#45;template</title>
<polygon fill="#e5e5e5" stroke="#dddddd" points="1167,-605 975,-605 975,-547 1167,-547 1167,-605"/>
<text text-anchor="start" x="987" y="-585.2" font-family="Helvetica,sans-Serif" font-weight="bold" font-size="16.00" fill="#707070">EC2::LaunchTemplate</text>
<text text-anchor="start" x="987" y="-560.2" font-family="Helvetica,sans-Serif" font-size="16.00" fill="#383838">my&#45;template</text>
</g>
<!-- AutoScalingGroup::::ag&#45;&gt;LaunchTemplate::::my&#45;template -->
<g id="edge5" class="edge">
<title>AutoScalingGroup::::ag&#45;&gt;LaunchTemplate::::my&#45;template</title>
<path fill="none" stroke="#707070" d="M933.81,-547.75C944.16,-549.9 954.51,-552.05 964.63,-554.15"/>
<polygon fill="#707070" stroke="#707070" points="964.16,-557.62 974.66,-556.23 965.58,-550.77 964.16,-557.62"/>
</g>
<!-- Subnet::::subnet&#45;a -->
<g id="node11" class="node">
<title>Subnet::::subnet&#45;a</title>
<polygon fill="#e5e5e5" stroke="#dddddd" points="1375,-701 1255,-701 1255,-643 1375,-643 1375,-701"/>
<text text-anchor="start" x="1267" y="-681.2" font-family="Helvetica,sans-Serif" font-weight="bold" font-size="16.00" fill="#707070">EC2::Subnet</text>
<text text-anchor="start" x="1267" y="-656.2" font-family="Helvetica,sans-Serif" font-size="16.00" fill="#383838">subnet&#45;a</text>
</g>
<!-- AutoScalingGroup::::ag&#45;&gt;Subnet::::subnet&#45;a -->
<g id="edge7" class="edge">
<title>AutoScalingGroup::::ag&#45;&gt;Subnet::::subnet&#45;a</title>
<path fill="none" stroke="#707070" d="M933.57,-523.35C1034.41,-526.39 1157.12,-531.4 1167,-538 1198.08,-558.75 1177.09,-587.06 1203,-614 1215.03,-626.51 1230.35,-636.86 1245.74,-645.18"/>
<polygon fill="#707070" stroke="#707070" points="1244.3,-648.37 1254.79,-649.84 1247.5,-642.15 1244.3,-648.37"/>
</g>
<!-- Subnet::::subnet&#45;b -->
<g id="node12" class="node">
<title>Subnet::::subnet&#45;b</title>
<polygon fill="#e5e5e5" stroke="#dddddd" points="1375,-605 1255,-605 1255,-547 1375,-547 1375,-605"/>
<text text-anchor="start" x="1267" y="-585.2" font-family="Helvetica,sans-Serif" font-weight="bold" font-size="16.00" fill="#707070">EC2::Subnet</text>
<text text-anchor="start" x="1267" y="-560.2" font-family="Helvetica,sans-Serif" font-size="16.00" fill="#383838">subnet&#45;b</text>
</g>
<!-- AutoScalingGroup::::ag&#45;&gt;Subnet::::subnet&#45;b -->
<g id="edge6" class="edge">
<title>AutoScalingGroup::::ag&#45;&gt;Subnet::::subnet&#45;b</title>
<path fill="none" stroke="#707070" d="M933.93,-510.33C1003.9,-507.99 1090.64,-509.33 1167,-523 1193.29,-527.7 1221.09,-536.63 1245.36,-545.83"/>
<polygon fill="#707070" stroke="#707070" points="1244.24,-549.15 1254.83,-549.5 1246.77,-542.62 1244.24,-549.15"/>
</g>
<!-- InternetGateway::::internet&#45;gateway -->
<g id="node5" class="node">
<title>InternetGateway::::internet&#45;gateway</title>
<polygon fill="#e5e5e5" stroke="#dddddd" points="1410.5,-813 1219.5,-813 1219.5,-755 1410.5,-755 1410.5,-813"/>
<text text-anchor="start" x="1232" y="-793.2" font-family="Helvetica,sans-Serif" font-weight="bold" font-size="16.00" fill="#707070">EC2::InternetGateway</text>
<text text-anchor="start" x="1232" y="-768.2" font-family="Helvetica,sans-Serif" font-size="16.00" fill="#383838">internet&#45;gateway</text>
</g>
<!-- Vpc::::vpc -->
<g id="node13" class="node">
<title>Vpc::::vpc</title>
<polygon fill="#e5e5e5" stroke="#dddddd" points="1558,-653 1463,-653 1463,-595 1558,-595 1558,-653"/>
<text text-anchor="start" x="1475.5" y="-633.2" font-family="Helvetica,sans-Serif" font-weight="bold" font-size="16.00" fill="#707070">EC2::Vpc</text>
<text text-anchor="start" x="1475.5" y="-608.2" font-family="Helvetica,sans-Serif" font-size="16.00" fill="#383838">vpc</text>
</g>
<!-- InternetGateway::::internet&#45;gateway&#45;&gt;Vpc::::vpc -->
<g id="edge8" class="edge">
<title>InternetGateway::::internet&#45;gateway&#45;&gt;Vpc::::vpc</title>
<path fill="none" stroke="#707070" d="M1381.25,-754.86C1397.01,-746.36 1413.25,-736.28 1427,-725 1449.15,-706.82 1469.56,-681.93 1484.54,-661.41"/>
<polygon fill="#707070" stroke="#707070" points="1487.44,-663.37 1490.42,-653.2 1481.75,-659.3 1487.44,-663.37"/>
</g>
<!-- Route::::rt&#45;default&#45;vpc&#45;igw -->
<g id="node7" class="node">
<title>Route::::rt&#45;default&#45;vpc&#45;igw</title>
<polygon fill="#e5e5e5" stroke="#dddddd" points="873,-853 725,-853 725,-795 873,-795 873,-853"/>
<text text-anchor="start" x="737" y="-833.2" font-family="Helvetica,sans-Serif" font-weight="bold" font-size="16.00" fill="#707070">EC2::Route</text>
<text text-anchor="start" x="737" y="-808.2" font-family="Helvetica,sans-Serif" font-size="16.00" fill="#383838">rt&#45;default&#45;vpc&#45;igw</text>
</g>
<!-- Route::::rt&#45;default&#45;vpc&#45;igw&#45;&gt;InternetGateway::::internet&#45;gateway -->
<g id="edge10" class="edge">
<title>Route::::rt&#45;default&#45;vpc&#45;igw&#45;&gt;InternetGateway::::internet&#45;gateway</title>
<path fill="none" stroke="#707070" d="M873.1,-818.31C960.99,-811.47 1109.14,-799.94 1209.19,-792.16"/>
<polygon fill="#707070" stroke="#707070" points="1209.62,-795.63 1219.32,-791.37 1209.08,-788.65 1209.62,-795.63"/>
</g>
<!-- RouteTable::::rt&#45;default&#45;vpc -->
<g id="node8" class="node">
<title>RouteTable::::rt&#45;default&#45;vpc</title>
<polygon fill="#e5e5e5" stroke="#dddddd" points="1146.5,-749 995.5,-749 995.5,-691 1146.5,-691 1146.5,-749"/>
<text text-anchor="start" x="1008" y="-729.2" font-family="Helvetica,sans-Serif" font-weight="bold" font-size="16.00" fill="#707070">EC2::RouteTable</text>
<text text-anchor="start" x="1008" y="-704.2" font-family="Helvetica,sans-Serif" font-size="16.00" fill="#383838">rt&#45;default&#45;vpc</text>
</g>
<!-- Route::::rt&#45;default&#45;vpc&#45;igw&#45;&gt;RouteTable::::rt&#45;default&#45;vpc -->
<g id="edge9" class="edge">
<title>Route::::rt&#45;default&#45;vpc&#45;igw&#45;&gt;RouteTable::::rt&#45;default&#45;vpc</title>
<path fill="none" stroke="#707070" d="M873.03,-806.97C894.56,-801.17 917.98,-794.07 939,-786 962.51,-776.97 987.4,-765.07 1009.09,-753.86"/>
<polygon fill="#707070" stroke="#707070" points="1010.94,-756.85 1018.19,-749.11 1007.7,-750.64 1010.94,-756.85"/>
</g>
<!-- RouteTable::::rt&#45;default&#45;vpc&#45;&gt;Subnet::::subnet&#45;a -->
<g id="edge12" class="edge">
<title>RouteTable::::rt&#45;default&#45;vpc&#45;&gt;Subnet::::subnet&#45;a</title>
<path fill="none" stroke="#707070" d="M1146.58,-705.21C1177.78,-699.02 1213.82,-691.87 1244.46,-685.79"/>
<polygon fill="#707070" stroke="#707070" points="1245.5,-689.16 1254.62,-683.78 1244.13,-682.29 1245.5,-689.16"/>
</g>
<!-- RouteTable::::rt&#45;default&#45;vpc&#45;&gt;Subnet::::subnet&#45;b -->
<g id="edge13" class="edge">
<title>RouteTable::::rt&#45;default&#45;vpc&#45;&gt;Subnet::::subnet&#45;b</title>
<path fill="none" stroke="#707070" d="M1114.1,-690.83C1139.46,-673.65 1172.62,-651.85 1203,-634 1216.97,-625.79 1232.22,-617.45 1246.81,-609.74"/>
<polygon fill="#707070" stroke="#707070" points="1248.56,-612.77 1255.79,-605.03 1245.31,-606.57 1248.56,-612.77"/>
</g>
<!-- RouteTable::::rt&#45;default&#45;vpc&#45;&gt;Vpc::::vpc -->
<g id="edge11" class="edge">
<title>RouteTable::::rt&#45;default&#45;vpc&#45;&gt;Vpc::::vpc</title>
<path fill="none" stroke="#707070" d="M1146.62,-733.75C1221.05,-743.9 1336.95,-749.91 1427,-710 1450.13,-699.75 1469.98,-679.67 1484.42,-661.49"/>
<polygon fill="#707070" stroke="#707070" points="1487.37,-663.39 1490.66,-653.32 1481.81,-659.14 1487.37,-663.39"/>
</g>
<!-- RouteTableAssociation::::rt&#45;assoc::rt&#45;default&#45;vpc::subnet&#45;a -->
<g id="node9" class="node">
<title>RouteTableAssociation::::rt&#45;assoc::rt&#45;default&#45;vpc::subnet&#45;a</title>
<polygon fill="#e5e5e5" stroke="#dddddd" points="927.5,-777 670.5,-777 670.5,-719 927.5,-719 927.5,-777"/>
<text text-anchor="start" x="683" y="-757.2" font-family="Helvetica,sans-Serif" font-weight="bold" font-size="16.00" fill="#707070">EC2::RouteTableAssociation</text>
<text text-anchor="start" x="683" y="-732.2" font-family="Helvetica,sans-Serif" font-size="16.00" fill="#383838">rt&#45;assoc::rt&#45;default&#45;vpc::subnet...</text>
</g>
<!-- RouteTableAssociation::::rt&#45;assoc::rt&#45;default&#45;vpc::subnet&#45;a&#45;&gt;RouteTable::::rt&#45;default&#45;vpc -->
<g id="edge14" class="edge">
<title>RouteTableAssociation::::rt&#45;assoc::rt&#45;default&#45;vpc::subnet&#45;a&#45;&gt;RouteTable::::rt&#45;default&#45;vpc</title>
<path fill="none" stroke="#707070" d="M927.88,-734.74C947.43,-732.71 967.19,-730.66 985.49,-728.76"/>
<polygon fill="#707070" stroke="#707070" points="985.91,-732.24 995.5,-727.73 985.19,-725.28 985.91,-732.24"/>
</g>
<!-- RouteTableAssociation::::rt&#45;assoc::rt&#45;default&#45;vpc::subnet&#45;a&#45;&gt;Subnet::::subnet&#45;a -->
<g id="edge15" class="edge">
<title>RouteTableAssociation::::rt&#45;assoc::rt&#45;default&#45;vpc::subnet&#45;a&#45;&gt;Subnet::::subnet&#45;a</title>
<path fill="none" stroke="#707070" d="M919.11,-718.87C925.94,-716.14 932.62,-713.19 939,-710 957.13,-700.93 955.93,-688.86 975,-682 1063.98,-650 1174.74,-654.21 1244.93,-661.8"/>
<polygon fill="#707070" stroke="#707070" points="1244.65,-665.29 1254.98,-662.94 1245.44,-658.33 1244.65,-665.29"/>
</g>
<!-- RouteTableAssociation::::rt&#45;assoc::rt&#45;default&#45;vpc::subnet&#45;b -->
<g id="node10" class="node">
<title>RouteTableAssociation::::rt&#45;assoc::rt&#45;default&#45;vpc::subnet&#45;b</title>
<polygon fill="#e5e5e5" stroke="#dddddd" points="927.5,-701 670.5,-701 670.5,-643 927.5,-643 927.5,-701"/>
<text text-anchor="start" x="683" y="-681.2" font-family="Helvetica,sans-Serif" font-weight="bold" font-size="16.00" fill="#707070">EC2::RouteTableAssociation</text>
<text text-anchor="start" x="683" y="-656.2" font-family="Helvetica,sans-Serif" font-size="16.00" fill="#383838">rt&#45;assoc::rt&#45;default&#45;vpc::subnet...</text>
</g>
<!-- RouteTableAssociation::::rt&#45;assoc::rt&#45;default&#45;vpc::subnet&#45;b&#45;&gt;RouteTable::::rt&#45;default&#45;vpc -->
<g id="edge16" class="edge">
<title>RouteTableAssociation::::rt&#45;assoc::rt&#45;default&#45;vpc::subnet&#45;b&#45;&gt;RouteTable::::rt&#45;default&#45;vpc</title>
<path fill="none" stroke="#707070" d="M927.88,-694.73C947.43,-698.21 967.19,-701.72 985.49,-704.98"/>
<polygon fill="#707070" stroke="#707070" points="985.04,-708.45 995.5,-706.76 986.27,-701.56 985.04,-708.45"/>
</g>
<!-- RouteTableAssociation::::rt&#45;assoc::rt&#45;default&#45;vpc::subnet&#45;b&#45;&gt;Subnet::::subnet&#45;b -->
<g id="edge17" class="edge">
<title>RouteTableAssociation::::rt&#45;assoc::rt&#45;default&#45;vpc::subnet&#45;b&#45;&gt;Subnet::::subnet&#45;b</title>
<path fill="none" stroke="#707070" d="M927.51,-654.93C998.35,-644.67 1087.9,-630.44 1167,-614 1192.63,-608.67 1220.5,-601.76 1245.01,-595.29"/>
<polygon fill="#707070" stroke="#707070" points="1246.18,-598.61 1254.94,-592.65 1244.37,-591.84 1246.18,-598.61"/>
</g>
<!-- Subnet::::subnet&#45;a&#45;&gt;Vpc::::vpc -->
<g id="edge20" class="edge">
<title>Subnet::::subnet&#45;a&#45;&gt;Vpc::::vpc</title>
<path fill="none" stroke="#707070" d="M1375.11,-657.34C1399.82,-651.21 1428.42,-644.11 1452.86,-638.05"/>
<polygon fill="#707070" stroke="#707070" points="1453.85,-641.41 1462.71,-635.61 1452.16,-634.62 1453.85,-641.41"/>
</g>
<!-- Subnet::::subnet&#45;b&#45;&gt;Vpc::::vpc -->
<g id="edge21" class="edge">
<title>Subnet::::subnet&#45;b&#45;&gt;Vpc::::vpc</title>
<path fill="none" stroke="#707070" d="M1375.11,-590.66C1399.82,-596.79 1428.42,-603.89 1452.86,-609.95"/>
<polygon fill="#707070" stroke="#707070" points="1452.16,-613.38 1462.71,-612.39 1453.85,-606.59 1452.16,-613.38"/>
</g>
<!-- LoadBalancer::::load&#45;balancer -->
<g id="node14" class="node">
<title>LoadBalancer::::load&#45;balancer</title>
<polygon fill="#e5e5e5" stroke="#dddddd" points="1166,-489 976,-489 976,-431 1166,-431 1166,-489"/>
<text text-anchor="start" x="988" y="-469.2" font-family="Helvetica,sans-Serif" font-weight="bold" font-size="16.00" fill="#707070">ELBv2::LoadBalancer</text>
<text text-anchor="start" x="988" y="-444.2" font-family="Helvetica,sans-Serif" font-size="16.00" fill="#383838">load&#45;balancer</text>
</g>
<!-- LoadBalancer::::load&#45;balancer&#45;&gt;Subnet::::subnet&#45;a -->
<g id="edge28" class="edge">
<title>LoadBalancer::::load&#45;balancer&#45;&gt;Subnet::::subnet&#45;a</title>
<path fill="none" stroke="#707070" d="M1128.36,-489.28C1142.38,-498.59 1156.41,-509.93 1167,-523 1194.38,-556.79 1173.9,-581.68 1203,-614 1214.74,-627.03 1230.1,-637.61 1245.63,-645.99"/>
<polygon fill="#707070" stroke="#707070" points="1244.28,-649.23 1254.78,-650.67 1247.47,-643 1244.28,-649.23"/>
</g>
<!-- LoadBalancer::::load&#45;balancer&#45;&gt;Subnet::::subnet&#45;b -->
<g id="edge27" class="edge">
<title>LoadBalancer::::load&#45;balancer&#45;&gt;Subnet::::subnet&#45;b</title>
<path fill="none" stroke="#707070" d="M1139.88,-489.09C1149.11,-493.52 1158.37,-498.21 1167,-503 1183.82,-512.33 1186.14,-517.75 1203,-527 1216.48,-534.4 1231.3,-541.56 1245.6,-548.02"/>
<polygon fill="#707070" stroke="#707070" points="1244.34,-551.29 1254.9,-552.16 1247.19,-544.9 1244.34,-551.29"/>
</g>
<!-- SecurityGroup::::sg&#45;default&#45;vpc -->
<g id="node22" class="node">
<title>SecurityGroup::::sg&#45;default&#45;vpc</title>
<polygon fill="#e5e5e5" stroke="#dddddd" points="1403.5,-500 1226.5,-500 1226.5,-442 1403.5,-442 1403.5,-500"/>
<text text-anchor="start" x="1239" y="-480.2" font-family="Helvetica,sans-Serif" font-weight="bold" font-size="16.00" fill="#707070">EC2::SecurityGroup</text>
<text text-anchor="start" x="1239" y="-455.2" font-family="Helvetica,sans-Serif" font-size="16.00" fill="#383838">sg&#45;default&#45;vpc</text>
</g>
<!-- LoadBalancer::::load&#45;balancer&#45;&gt;SecurityGroup::::sg&#45;default&#45;vpc -->
<g id="edge29" class="edge">
<title>LoadBalancer::::load&#45;balancer&#45;&gt;SecurityGroup::::sg&#45;default&#45;vpc</title>
<path fill="none" stroke="#707070" d="M1166.26,-464.28C1182.63,-465.03 1199.7,-465.8 1216.16,-466.55"/>
<polygon fill="#707070" stroke="#707070" points="1216.18,-470.06 1226.33,-467.02 1216.5,-463.06 1216.18,-470.06"/>
</g>
<!-- TargetGroup::::target&#45;group&#45;rest&#45;&gt;Vpc::::vpc -->
<g id="edge35" class="edge">
<title>TargetGroup::::target&#45;group&#45;rest&#45;&gt;Vpc::::vpc</title>
<path fill="none" stroke="#707070" d="M889.36,-606.65C916.79,-609.53 947.11,-612.31 975,-614 1148.85,-624.55 1355.04,-625.01 1452.74,-624.5"/>
<polygon fill="#707070" stroke="#707070" points="1453,-628 1462.98,-624.44 1452.96,-621 1453,-628"/>
</g>
<!-- TargetGroup::::target&#45;group&#45;rest&#45;&gt;LoadBalancer::::load&#45;balancer -->
<g id="edge36" class="edge">
<title>TargetGroup::::target&#45;group&#45;rest&#45;&gt;LoadBalancer::::load&#45;balancer</title>
<path fill="none" stroke="#707070" d="M889.32,-576.93C906.24,-571.83 923.49,-565.58 939,-558 972.39,-541.68 1005.87,-516.45 1030.62,-495.67"/>
<polygon fill="#707070" stroke="#707070" points="1033,-498.24 1038.34,-489.1 1028.46,-492.91 1033,-498.24"/>
</g>
<!-- TargetGroup::::target&#45;group&#45;web&#45;&gt;Vpc::::vpc -->
<g id="edge37" class="edge">
<title>TargetGroup::::target&#45;group&#45;web&#45;&gt;Vpc::::vpc</title>
<path fill="none" stroke="#707070" d="M889.12,-334.67C1020.75,-320.11 1268.58,-312.85 1427,-433 1475.36,-469.68 1495.78,-540.49 1504.1,-584.83"/>
<polygon fill="#707070" stroke="#707070" points="1500.7,-585.71 1505.88,-594.95 1507.6,-584.5 1500.7,-585.71"/>
</g>
<!-- TargetGroup::::target&#45;group&#45;web&#45;&gt;LoadBalancer::::load&#45;balancer -->
<g id="edge38" class="edge">
<title>TargetGroup::::target&#45;group&#45;web&#45;&gt;LoadBalancer::::load&#45;balancer</title>
<path fill="none" stroke="#707070" d="M889.34,-368.9C906.09,-373.81 923.27,-379.52 939,-386 965.45,-396.89 993.24,-412 1016.39,-425.74"/>
<polygon fill="#707070" stroke="#707070" points="1014.65,-428.77 1025.02,-430.92 1018.25,-422.77 1014.65,-428.77"/>
</g>
<!-- HostedZone::::grucloud.org. -->
<g id="node17" class="node">
<title>HostedZone::::grucloud.org.</title>
<polygon fill="#e5e5e5" stroke="#dddddd" points="1166,-205 976,-205 976,-147 1166,-147 1166,-205"/>
<text text-anchor="start" x="988" y="-185.2" font-family="Helvetica,sans-Serif" font-weight="bold" font-size="16.00" fill="#707070">Route53::HostedZone</text>
<text text-anchor="start" x="988" y="-160.2" font-family="Helvetica,sans-Serif" font-size="16.00" fill="#383838">grucloud.org.</text>
</g>
<!-- Domain::::grucloud.org -->
<g id="node21" class="node">
<title>Domain::::grucloud.org</title>
<polygon fill="#e5e5e5" stroke="#dddddd" points="1427,-205 1203,-205 1203,-147 1427,-147 1427,-205"/>
<text text-anchor="start" x="1215" y="-185.2" font-family="Helvetica,sans-Serif" font-weight="bold" font-size="16.00" fill="#707070">Route53Domains::Domain</text>
<text text-anchor="start" x="1215" y="-160.2" font-family="Helvetica,sans-Serif" font-size="16.00" fill="#383838">grucloud.org</text>
</g>
<!-- HostedZone::::grucloud.org.&#45;&gt;Domain::::grucloud.org -->
<g id="edge39" class="edge">
<title>HostedZone::::grucloud.org.&#45;&gt;Domain::::grucloud.org</title>
<path fill="none" stroke="#707070" d="M1166.26,-176C1174.93,-176 1183.81,-176 1192.68,-176"/>
<polygon fill="#707070" stroke="#707070" points="1192.69,-179.5 1202.69,-176 1192.69,-172.5 1192.69,-179.5"/>
</g>
<!-- Record::::record::ELBv2::LoadBalancer::load&#45;balancer -->
<g id="node18" class="node">
<title>Record::::record::ELBv2::LoadBalancer::load&#45;balancer</title>
<polygon fill="#e5e5e5" stroke="#dddddd" points="939,-281 659,-281 659,-223 939,-223 939,-281"/>
<text text-anchor="start" x="671" y="-261.2" font-family="Helvetica,sans-Serif" font-weight="bold" font-size="16.00" fill="#707070">Route53::Record</text>
<text text-anchor="start" x="671" y="-236.2" font-family="Helvetica,sans-Serif" font-size="16.00" fill="#383838">record::ELBv2::LoadBalancer::loa...</text>
</g>
<!-- Record::::record::ELBv2::LoadBalancer::load&#45;balancer&#45;&gt;LoadBalancer::::load&#45;balancer -->
<g id="edge41" class="edge">
<title>Record::::record::ELBv2::LoadBalancer::load&#45;balancer&#45;&gt;LoadBalancer::::load&#45;balancer</title>
<path fill="none" stroke="#707070" d="M914.54,-281.15C923.12,-285.2 931.39,-289.79 939,-295 987.49,-328.17 1026.7,-384.67 1049.19,-422.17"/>
<polygon fill="#707070" stroke="#707070" points="1046.18,-423.96 1054.27,-430.8 1052.22,-420.41 1046.18,-423.96"/>
</g>
<!-- Record::::record::ELBv2::LoadBalancer::load&#45;balancer&#45;&gt;HostedZone::::grucloud.org. -->
<g id="edge40" class="edge">
<title>Record::::record::ELBv2::LoadBalancer::load&#45;balancer&#45;&gt;HostedZone::::grucloud.org.</title>
<path fill="none" stroke="#707070" d="M907.05,-222.91C917.85,-219.93 928.65,-216.92 939,-214 947.88,-211.5 957.09,-208.88 966.33,-206.23"/>
<polygon fill="#707070" stroke="#707070" points="967.31,-209.59 975.95,-203.47 965.38,-202.86 967.31,-209.59"/>
</g>
<!-- Record::::record::grucloud.org.::NS -->
<g id="node19" class="node">
<title>Record::::record::grucloud.org.::NS</title>
<polygon fill="#e5e5e5" stroke="#dddddd" points="901.5,-129 696.5,-129 696.5,-71 901.5,-71 901.5,-129"/>
<text text-anchor="start" x="709" y="-109.2" font-family="Helvetica,sans-Serif" font-weight="bold" font-size="16.00" fill="#707070">Route53::Record</text>
<text text-anchor="start" x="709" y="-84.2" font-family="Helvetica,sans-Serif" font-size="16.00" fill="#383838">record::grucloud.org.::NS</text>
</g>
<!-- Record::::record::grucloud.org.::NS&#45;&gt;HostedZone::::grucloud.org. -->
<g id="edge42" class="edge">
<title>Record::::record::grucloud.org.::NS&#45;&gt;HostedZone::::grucloud.org.</title>
<path fill="none" stroke="#707070" d="M901.78,-127.63C914.32,-131.09 926.96,-134.61 939,-138 947.88,-140.5 957.09,-143.12 966.33,-145.77"/>
<polygon fill="#707070" stroke="#707070" points="965.38,-149.14 975.95,-148.53 967.31,-142.41 965.38,-149.14"/>
</g>
<!-- Record::::record::grucloud.org.::SOA -->
<g id="node20" class="node">
<title>Record::::record::grucloud.org.::SOA</title>
<polygon fill="#e5e5e5" stroke="#dddddd" points="907.5,-205 690.5,-205 690.5,-147 907.5,-147 907.5,-205"/>
<text text-anchor="start" x="703" y="-185.2" font-family="Helvetica,sans-Serif" font-weight="bold" font-size="16.00" fill="#707070">Route53::Record</text>
<text text-anchor="start" x="703" y="-160.2" font-family="Helvetica,sans-Serif" font-size="16.00" fill="#383838">record::grucloud.org.::SOA</text>
</g>
<!-- Record::::record::grucloud.org.::SOA&#45;&gt;HostedZone::::grucloud.org. -->
<g id="edge43" class="edge">
<title>Record::::record::grucloud.org.::SOA&#45;&gt;HostedZone::::grucloud.org.</title>
<path fill="none" stroke="#707070" d="M907.88,-176C926.93,-176 946.73,-176 965.68,-176"/>
<polygon fill="#707070" stroke="#707070" points="965.8,-179.5 975.8,-176 965.8,-172.5 965.8,-179.5"/>
</g>
<!-- SecurityGroup::::sg&#45;default&#45;vpc&#45;&gt;Vpc::::vpc -->
<g id="edge18" class="edge">
<title>SecurityGroup::::sg&#45;default&#45;vpc&#45;&gt;Vpc::::vpc</title>
<path fill="none" stroke="#707070" d="M1370.69,-500.15C1389.26,-511.04 1409.69,-524.15 1427,-538 1445.19,-552.55 1463.34,-570.93 1477.96,-586.97"/>
<polygon fill="#707070" stroke="#707070" points="1475.55,-589.52 1484.84,-594.62 1480.76,-584.84 1475.55,-589.52"/>
</g>
<!-- SecurityGroup::::sg&#45;default&#45;vpc&#45;&gt;SecurityGroup::::sg&#45;default&#45;vpc -->
<g id="edge19" class="edge">
<title>SecurityGroup::::sg&#45;default&#45;vpc&#45;&gt;SecurityGroup::::sg&#45;default&#45;vpc</title>
<path fill="none" stroke="#707070" d="M1278.62,-500.38C1278.62,-510.17 1290.75,-518 1315,-518 1330.91,-518 1341.61,-514.63 1347.08,-509.54"/>
<polygon fill="#707070" stroke="#707070" points="1350.3,-510.91 1351.38,-500.38 1343.96,-507.94 1350.3,-510.91"/>
</g>
<!-- Listener::::listener::load&#45;balancer::HTTP::80 -->
<g id="node23" class="node">
<title>Listener::::listener::load&#45;balancer::HTTP::80</title>
<polygon fill="#e5e5e5" stroke="#dddddd" points="601.5,-329 335.5,-329 335.5,-271 601.5,-271 601.5,-329"/>
<text text-anchor="start" x="347.5" y="-309.2" font-family="Helvetica,sans-Serif" font-weight="bold" font-size="16.00" fill="#707070">ELBv2::Listener</text>
<text text-anchor="start" x="347.5" y="-284.2" font-family="Helvetica,sans-Serif" font-size="16.00" fill="#383838">listener::load&#45;balancer::HTTP::8...</text>
</g>
<!-- Listener::::listener::load&#45;balancer::HTTP::80&#45;&gt;LoadBalancer::::load&#45;balancer -->
<g id="edge22" class="edge">
<title>Listener::::listener::load&#45;balancer::HTTP::80&#45;&gt;LoadBalancer::::load&#45;balancer</title>
<path fill="none" stroke="#707070" d="M601.71,-297.39C729.85,-295.73 909.15,-296.05 939,-310 988.96,-333.34 1027.51,-385.82 1049.48,-422.07"/>
<polygon fill="#707070" stroke="#707070" points="1046.61,-424.08 1054.71,-430.91 1052.63,-420.52 1046.61,-424.08"/>
</g>
<!-- Listener::::listener::load&#45;balancer::HTTP::80&#45;&gt;TargetGroup::::target&#45;group&#45;web -->
<g id="edge23" class="edge">
<title>Listener::::listener::load&#45;balancer::HTTP::80&#45;&gt;TargetGroup::::target&#45;group&#45;web</title>
<path fill="none" stroke="#707070" d="M601.69,-319.32C634.05,-324.04 668.13,-329.02 698.65,-333.48"/>
<polygon fill="#707070" stroke="#707070" points="698.46,-336.99 708.86,-334.97 699.47,-330.07 698.46,-336.99"/>
</g>
<!-- Listener::::listener::load&#45;balancer::HTTPS::443 -->
<g id="node24" class="node">
<title>Listener::::listener::load&#45;balancer::HTTPS::443</title>
<polygon fill="#e5e5e5" stroke="#dddddd" points="602.5,-501 334.5,-501 334.5,-443 602.5,-443 602.5,-501"/>
<text text-anchor="start" x="346.5" y="-481.2" font-family="Helvetica,sans-Serif" font-weight="bold" font-size="16.00" fill="#707070">ELBv2::Listener</text>
<text text-anchor="start" x="346.5" y="-456.2" font-family="Helvetica,sans-Serif" font-size="16.00" fill="#383838">listener::load&#45;balancer::HTTPS::...</text>
</g>
<!-- Listener::::listener::load&#45;balancer::HTTPS::443&#45;&gt;Certificate::::grucloud.org -->
<g id="edge26" class="edge">
<title>Listener::::listener::load&#45;balancer::HTTPS::443&#45;&gt;Certificate::::grucloud.org</title>
<path fill="none" stroke="#707070" d="M602.64,-452.55C640.19,-447.06 680,-441.24 713.81,-436.3"/>
<polygon fill="#707070" stroke="#707070" points="714.72,-439.71 724.11,-434.8 713.71,-432.78 714.72,-439.71"/>
</g>
<!-- Listener::::listener::load&#45;balancer::HTTPS::443&#45;&gt;LoadBalancer::::load&#45;balancer -->
<g id="edge24" class="edge">
<title>Listener::::listener::load&#45;balancer::HTTPS::443&#45;&gt;LoadBalancer::::load&#45;balancer</title>
<path fill="none" stroke="#707070" d="M602.77,-469.34C712.17,-467.15 864.95,-464.1 965.61,-462.09"/>
<polygon fill="#707070" stroke="#707070" points="965.87,-465.58 975.8,-461.88 965.73,-458.58 965.87,-465.58"/>
</g>
<!-- Listener::::listener::load&#45;balancer::HTTPS::443&#45;&gt;TargetGroup::::target&#45;group&#45;rest -->
<g id="edge25" class="edge">
<title>Listener::::listener::load&#45;balancer::HTTPS::443&#45;&gt;TargetGroup::::target&#45;group&#45;rest</title>
<path fill="none" stroke="#707070" d="M602.64,-498.63C609.75,-501.98 616.59,-505.76 623,-510 645.23,-524.73 636.95,-543.01 659,-558 671.1,-566.23 684.93,-572.68 699.07,-577.74"/>
<polygon fill="#707070" stroke="#707070" points="698.29,-581.17 708.89,-581.02 700.51,-574.53 698.29,-581.17"/>
</g>
<!-- Rule::::rule::listener::load&#45;balancer::HTTP::80::1 -->
<g id="node25" class="node">
<title>Rule::::rule::listener::load&#45;balancer::HTTP::80::1</title>
<polygon fill="#e5e5e5" stroke="#dddddd" points="278,-329 24,-329 24,-271 278,-271 278,-329"/>
<text text-anchor="start" x="36" y="-309.2" font-family="Helvetica,sans-Serif" font-weight="bold" font-size="16.00" fill="#707070">ELBv2::Rule</text>
<text text-anchor="start" x="36" y="-284.2" font-family="Helvetica,sans-Serif" font-size="16.00" fill="#383838">rule::listener::load&#45;balancer::H...</text>
</g>
<!-- Rule::::rule::listener::load&#45;balancer::HTTP::80::1&#45;&gt;Listener::::listener::load&#45;balancer::HTTP::80 -->
<g id="edge30" class="edge">
<title>Rule::::rule::listener::load&#45;balancer::HTTP::80::1&#45;&gt;Listener::::listener::load&#45;balancer::HTTP::80</title>
<path fill="none" stroke="#707070" d="M278.05,-300C293.54,-300 309.45,-300 325.16,-300"/>
<polygon fill="#707070" stroke="#707070" points="325.45,-303.5 335.45,-300 325.45,-296.5 325.45,-303.5"/>
</g>
<!-- Rule::::rule::listener::load&#45;balancer::HTTPS::443::1 -->
<g id="node26" class="node">
<title>Rule::::rule::listener::load&#45;balancer::HTTPS::443::1</title>
<polygon fill="#e5e5e5" stroke="#dddddd" points="278,-544 24,-544 24,-486 278,-486 278,-544"/>
<text text-anchor="start" x="36" y="-524.2" font-family="Helvetica,sans-Serif" font-weight="bold" font-size="16.00" fill="#707070">ELBv2::Rule</text>
<text text-anchor="start" x="36" y="-499.2" font-family="Helvetica,sans-Serif" font-size="16.00" fill="#383838">rule::listener::load&#45;balancer::H...</text>
</g>
<!-- Rule::::rule::listener::load&#45;balancer::HTTPS::443::1&#45;&gt;TargetGroup::::target&#45;group&#45;rest -->
<g id="edge32" class="edge">
<title>Rule::::rule::listener::load&#45;balancer::HTTPS::443::1&#45;&gt;TargetGroup::::target&#45;group&#45;rest</title>
<path fill="none" stroke="#707070" d="M204.21,-544.16C235.11,-559.79 275.61,-577.54 314,-586 444.6,-614.77 599.84,-611.64 698.63,-605.15"/>
<polygon fill="#707070" stroke="#707070" points="699.16,-608.62 708.9,-604.45 698.68,-601.64 699.16,-608.62"/>
</g>
<!-- Rule::::rule::listener::load&#45;balancer::HTTPS::443::1&#45;&gt;Listener::::listener::load&#45;balancer::HTTPS::443 -->
<g id="edge31" class="edge">
<title>Rule::::rule::listener::load&#45;balancer::HTTPS::443::1&#45;&gt;Listener::::listener::load&#45;balancer::HTTPS::443</title>
<path fill="none" stroke="#707070" d="M278.05,-497.82C293.26,-495.75 308.88,-493.62 324.3,-491.52"/>
<polygon fill="#707070" stroke="#707070" points="324.97,-494.96 334.41,-490.14 324.03,-488.02 324.97,-494.96"/>
</g>
<!-- Rule::::rule::listener::load&#45;balancer::HTTPS::443::2 -->
<g id="node27" class="node">
<title>Rule::::rule::listener::load&#45;balancer::HTTPS::443::2</title>
<polygon fill="#e5e5e5" stroke="#dddddd" points="278,-458 24,-458 24,-400 278,-400 278,-458"/>
<text text-anchor="start" x="36" y="-438.2" font-family="Helvetica,sans-Serif" font-weight="bold" font-size="16.00" fill="#707070">ELBv2::Rule</text>
<text text-anchor="start" x="36" y="-413.2" font-family="Helvetica,sans-Serif" font-size="16.00" fill="#383838">rule::listener::load&#45;balancer::H...</text>
</g>
<!-- Rule::::rule::listener::load&#45;balancer::HTTPS::443::2&#45;&gt;TargetGroup::::target&#45;group&#45;web -->
<g id="edge34" class="edge">
<title>Rule::::rule::listener::load&#45;balancer::HTTPS::443::2&#45;&gt;TargetGroup::::target&#45;group&#45;web</title>
<path fill="none" stroke="#707070" d="M204.21,-399.84C235.11,-384.21 275.61,-366.46 314,-358 384.58,-342.45 578.78,-343.28 698.64,-345.5"/>
<polygon fill="#707070" stroke="#707070" points="698.86,-349 708.92,-345.7 698.99,-342.01 698.86,-349"/>
</g>
<!-- Rule::::rule::listener::load&#45;balancer::HTTPS::443::2&#45;&gt;Listener::::listener::load&#45;balancer::HTTPS::443 -->
<g id="edge33" class="edge">
<title>Rule::::rule::listener::load&#45;balancer::HTTPS::443::2&#45;&gt;Listener::::listener::load&#45;balancer::HTTPS::443</title>
<path fill="none" stroke="#707070" d="M278.05,-446.18C293.26,-448.25 308.88,-450.38 324.3,-452.48"/>
<polygon fill="#707070" stroke="#707070" points="324.03,-455.98 334.41,-453.86 324.97,-449.04 324.03,-455.98"/>
</g>
</g>
</svg>
