<?xml version="1.0" encoding="UTF-8" standalone="no"?><svg xmlns="http://www.w3.org/2000/svg" xmlns:xlink="http://www.w3.org/1999/xlink" contentScriptType="application/ecmascript" contentStyleType="text/css" height="1076px" preserveAspectRatio="none" style="width:583px;height:1076px;background:#FFFFFF;" version="1.1" viewBox="0 0 583 1076" width="583px" zoomAndPan="magnify"><defs><filter height="300%" id="flfp7n8iup0df" width="300%" x="-1" y="-1"><feGaussianBlur result="blurOut" stdDeviation="2.0"/><feColorMatrix in="blurOut" result="blurOut2" type="matrix" values="0 0 0 0 0 0 0 0 0 0 0 0 0 0 0 0 0 0 .4 0"/><feOffset dx="4.0" dy="4.0" in="blurOut2" result="blurOut3"/><feBlend in="SourceGraphic" in2="blurOut3" mode="normal"/></filter></defs><g><rect fill="none" height="26.4883" style="stroke:none;stroke-width:1.0;" width="304" x="109.5" y="15"/><text fill="#000000" font-family="sans-serif" font-size="14" font-weight="bold" lengthAdjust="spacing" textLength="294" x="114.5" y="33.5352">Resources for project AWS Load Balancer</text><rect fill="#F8F8F8" filter="url(#flfp7n8iup0df)" height="36.4883" rx="12.5" ry="12.5" style="stroke:#383838;stroke-width:1.5;" width="52" x="10" y="537.6387"/><text fill="#000000" font-family="sans-serif" font-size="14" lengthAdjust="spacing" textLength="32" x="20" y="561.1738">Infra</text><rect fill="#F8F8F8" filter="url(#flfp7n8iup0df)" height="36.4883" rx="12.5" ry="12.5" style="stroke:#383838;stroke-width:1.5;" width="46" x="112" y="537.6387"/><text fill="#000000" font-family="sans-serif" font-size="14" lengthAdjust="spacing" textLength="26" x="122" y="561.1738">aws</text><rect fill="#F8F8F8" filter="url(#flfp7n8iup0df)" height="36.4883" rx="12.5" ry="12.5" style="stroke:#383838;stroke-width:1.5;" width="52" x="208" y="57.4883"/><text fill="#000000" font-family="sans-serif" font-size="14" lengthAdjust="spacing" textLength="32" x="218" y="81.0234">ACM</text><rect fill="#F8F8F8" filter="url(#flfp7n8iup0df)" height="36.4883" rx="12.5" ry="12.5" style="stroke:#383838;stroke-width:1.5;" width="113" x="310" y="57.4883"/><text fill="#000000" font-family="sans-serif" font-size="14" lengthAdjust="spacing" textLength="93" x="320" y="81.0234">Certificate (1)</text><path d="M260,75.7324 L270,75.7324 C285,75.7324 285,75.7324 300,75.7324 L310,75.7324 " fill="none" style="stroke:#383838;stroke-width:1.0;"/><path d="M158,555.8828 L168,555.8828 C183,555.8828 183,75.7324 198,75.7324 L208,75.7324 " fill="none" style="stroke:#383838;stroke-width:1.0;"/><rect fill="#F8F8F8" filter="url(#flfp7n8iup0df)" height="36.4883" rx="12.5" ry="12.5" style="stroke:#383838;stroke-width:1.5;" width="102" x="208" y="142.2207"/><text fill="#000000" font-family="sans-serif" font-size="14" lengthAdjust="spacing" textLength="82" x="218" y="165.7559">AutoScaling</text><rect fill="#F8F8F8" filter="url(#flfp7n8iup0df)" height="36.4883" rx="12.5" ry="12.5" style="stroke:#383838;stroke-width:1.5;" width="168" x="360" y="113.9766"/><text fill="#000000" font-family="sans-serif" font-size="14" lengthAdjust="spacing" textLength="148" x="370" y="137.5117">AutoScalingGroup (1)</text><path d="M310,160.4648 L320,160.4648 C335,160.4648 335,132.2207 350,132.2207 L360,132.2207 " fill="none" style="stroke:#383838;stroke-width:1.0;"/><rect fill="#F8F8F8" filter="url(#flfp7n8iup0df)" height="36.4883" rx="12.5" ry="12.5" style="stroke:#383838;stroke-width:1.5;" width="204" x="360" y="170.4648"/><text fill="#000000" font-family="sans-serif" font-size="14" lengthAdjust="spacing" textLength="184" x="370" y="194">AutoScalingAttachment (2)</text><path d="M310,160.4648 L320,160.4648 C335,160.4648 335,188.709 350,188.709 L360,188.709 " fill="none" style="stroke:#383838;stroke-width:1.0;"/><path d="M158,555.8828 L168,555.8828 C183,555.8828 183,160.4648 198,160.4648 L208,160.4648 " fill="none" style="stroke:#383838;stroke-width:1.0;"/><rect fill="#F8F8F8" filter="url(#flfp7n8iup0df)" height="36.4883" rx="12.5" ry="12.5" style="stroke:#383838;stroke-width:1.5;" width="47" x="208" y="424.6621"/><text fill="#000000" font-family="sans-serif" font-size="14" lengthAdjust="spacing" textLength="27" x="218" y="448.1973">EC2</text><rect fill="#F8F8F8" filter="url(#flfp7n8iup0df)" height="36.4883" rx="12.5" ry="12.5" style="stroke:#383838;stroke-width:1.5;" width="68" x="305" y="226.9531"/><text fill="#000000" font-family="sans-serif" font-size="14" lengthAdjust="spacing" textLength="48" x="315" y="250.4883">Vpc (1)</text><path d="M255,442.9063 L265,442.9063 C280,442.9063 280,245.1973 295,245.1973 L305,245.1973 " fill="none" style="stroke:#383838;stroke-width:1.0;"/><rect fill="#F8F8F8" filter="url(#flfp7n8iup0df)" height="36.4883" rx="12.5" ry="12.5" style="stroke:#383838;stroke-width:1.5;" width="154" x="305" y="283.4414"/><text fill="#000000" font-family="sans-serif" font-size="14" lengthAdjust="spacing" textLength="134" x="315" y="306.9766">InternetGateway (1)</text><path d="M255,442.9063 L265,442.9063 C280,442.9063 280,301.6855 295,301.6855 L305,301.6855 " fill="none" style="stroke:#383838;stroke-width:1.0;"/><rect fill="#F8F8F8" filter="url(#flfp7n8iup0df)" height="36.4883" rx="12.5" ry="12.5" style="stroke:#383838;stroke-width:1.5;" width="91" x="305" y="339.9297"/><text fill="#000000" font-family="sans-serif" font-size="14" lengthAdjust="spacing" textLength="71" x="315" y="363.4648">Subnet (2)</text><path d="M255,442.9063 L265,442.9063 C280,442.9063 280,358.1738 295,358.1738 L305,358.1738 " fill="none" style="stroke:#383838;stroke-width:1.0;"/><rect fill="#F8F8F8" filter="url(#flfp7n8iup0df)" height="36.4883" rx="12.5" ry="12.5" style="stroke:#383838;stroke-width:1.5;" width="121" x="305" y="396.418"/><text fill="#000000" font-family="sans-serif" font-size="14" lengthAdjust="spacing" textLength="101" x="315" y="419.9531">RouteTable (1)</text><path d="M255,442.9063 L265,442.9063 C280,442.9063 280,414.6621 295,414.6621 L305,414.6621 " fill="none" style="stroke:#383838;stroke-width:1.0;"/><rect fill="#F8F8F8" filter="url(#flfp7n8iup0df)" height="36.4883" rx="12.5" ry="12.5" style="stroke:#383838;stroke-width:1.5;" width="200" x="305" y="452.9063"/><text fill="#000000" font-family="sans-serif" font-size="14" lengthAdjust="spacing" textLength="180" x="315" y="476.4414">RouteTableAssociation (2)</text><path d="M255,442.9063 L265,442.9063 C280,442.9063 280,471.1504 295,471.1504 L305,471.1504 " fill="none" style="stroke:#383838;stroke-width:1.0;"/><rect fill="#F8F8F8" filter="url(#flfp7n8iup0df)" height="36.4883" rx="12.5" ry="12.5" style="stroke:#383838;stroke-width:1.5;" width="83" x="305" y="509.3945"/><text fill="#000000" font-family="sans-serif" font-size="14" lengthAdjust="spacing" textLength="63" x="315" y="532.9297">Route (1)</text><path d="M255,442.9063 L265,442.9063 C280,442.9063 280,527.6387 295,527.6387 L305,527.6387 " fill="none" style="stroke:#383838;stroke-width:1.0;"/><rect fill="#F8F8F8" filter="url(#flfp7n8iup0df)" height="36.4883" rx="12.5" ry="12.5" style="stroke:#383838;stroke-width:1.5;" width="140" x="305" y="565.8828"/><text fill="#000000" font-family="sans-serif" font-size="14" lengthAdjust="spacing" textLength="120" x="315" y="589.418">SecurityGroup (1)</text><path d="M255,442.9063 L265,442.9063 C280,442.9063 280,584.127 295,584.127 L305,584.127 " fill="none" style="stroke:#383838;stroke-width:1.0;"/><rect fill="#F8F8F8" filter="url(#flfp7n8iup0df)" height="36.4883" rx="12.5" ry="12.5" style="stroke:#383838;stroke-width:1.5;" width="156" x="305" y="622.3711"/><text fill="#000000" font-family="sans-serif" font-size="14" lengthAdjust="spacing" textLength="136" x="315" y="645.9063">LaunchTemplate (1)</text><path d="M255,442.9063 L265,442.9063 C280,442.9063 280,640.6152 295,640.6152 L305,640.6152 " fill="none" style="stroke:#383838;stroke-width:1.0;"/><path d="M158,555.8828 L168,555.8828 C183,555.8828 183,442.9063 198,442.9063 L208,442.9063 " fill="none" style="stroke:#383838;stroke-width:1.0;"/><rect fill="#F8F8F8" filter="url(#flfp7n8iup0df)" height="36.4883" rx="12.5" ry="12.5" style="stroke:#383838;stroke-width:1.5;" width="59" x="208" y="763.5918"/><text fill="#000000" font-family="sans-serif" font-size="14" lengthAdjust="spacing" textLength="39" x="218" y="787.127">ELBv2</text><rect fill="#F8F8F8" filter="url(#flfp7n8iup0df)" height="36.4883" rx="12.5" ry="12.5" style="stroke:#383838;stroke-width:1.5;" width="134" x="317" y="678.8594"/><text fill="#000000" font-family="sans-serif" font-size="14" lengthAdjust="spacing" textLength="114" x="327" y="702.3945">LoadBalancer (1)</text><path d="M267,781.8359 L277,781.8359 C292,781.8359 292,697.1035 307,697.1035 L317,697.1035 " fill="none" style="stroke:#383838;stroke-width:1.0;"/><rect fill="#F8F8F8" filter="url(#flfp7n8iup0df)" height="36.4883" rx="12.5" ry="12.5" style="stroke:#383838;stroke-width:1.5;" width="131" x="317" y="735.3477"/><text fill="#000000" font-family="sans-serif" font-size="14" lengthAdjust="spacing" textLength="111" x="327" y="758.8828">TargetGroup (2)</text><path d="M267,781.8359 L277,781.8359 C292,781.8359 292,753.5918 307,753.5918 L317,753.5918 " fill="none" style="stroke:#383838;stroke-width:1.0;"/><rect fill="#F8F8F8" filter="url(#flfp7n8iup0df)" height="36.4883" rx="12.5" ry="12.5" style="stroke:#383838;stroke-width:1.5;" width="97" x="317" y="791.8359"/><text fill="#000000" font-family="sans-serif" font-size="14" lengthAdjust="spacing" textLength="77" x="327" y="815.3711">Listener (2)</text><path d="M267,781.8359 L277,781.8359 C292,781.8359 292,810.0801 307,810.0801 L317,810.0801 " fill="none" style="stroke:#383838;stroke-width:1.0;"/><rect fill="#F8F8F8" filter="url(#flfp7n8iup0df)" height="36.4883" rx="12.5" ry="12.5" style="stroke:#383838;stroke-width:1.5;" width="73" x="317" y="848.3242"/><text fill="#000000" font-family="sans-serif" font-size="14" lengthAdjust="spacing" textLength="53" x="327" y="871.8594">Rule (3)</text><path d="M267,781.8359 L277,781.8359 C292,781.8359 292,866.5684 307,866.5684 L317,866.5684 " fill="none" style="stroke:#383838;stroke-width:1.0;"/><path d="M158,555.8828 L168,555.8828 C183,555.8828 183,781.8359 198,781.8359 L208,781.8359 " fill="none" style="stroke:#383838;stroke-width:1.0;"/><rect fill="#F8F8F8" filter="url(#flfp7n8iup0df)" height="36.4883" rx="12.5" ry="12.5" style="stroke:#383838;stroke-width:1.5;" width="78" x="208" y="933.0566"/><text fill="#000000" font-family="sans-serif" font-size="14" lengthAdjust="spacing" textLength="58" x="218" y="956.5918">Route53</text><rect fill="#F8F8F8" filter="url(#flfp7n8iup0df)" height="36.4883" rx="12.5" ry="12.5" style="stroke:#383838;stroke-width:1.5;" width="125" x="336" y="904.8125"/><text fill="#000000" font-family="sans-serif" font-size="14" lengthAdjust="spacing" textLength="105" x="346" y="928.3477">HostedZone (1)</text><path d="M286,951.3008 L296,951.3008 C311,951.3008 311,923.0566 326,923.0566 L336,923.0566 " fill="none" style="stroke:#383838;stroke-width:1.0;"/><rect fill="#F8F8F8" filter="url(#flfp7n8iup0df)" height="36.4883" rx="12.5" ry="12.5" style="stroke:#383838;stroke-width:1.5;" width="91" x="336" y="961.3008"/><text fill="#000000" font-family="sans-serif" font-size="14" lengthAdjust="spacing" textLength="71" x="346" y="984.8359">Record (1)</text><path d="M286,951.3008 L296,951.3008 C311,951.3008 311,979.5449 326,979.5449 L336,979.5449 " fill="none" style="stroke:#383838;stroke-width:1.0;"/><path d="M158,555.8828 L168,555.8828 C183,555.8828 183,951.3008 198,951.3008 L208,951.3008 " fill="none" style="stroke:#383838;stroke-width:1.0;"/><rect fill="#F8F8F8" filter="url(#flfp7n8iup0df)" height="36.4883" rx="12.5" ry="12.5" style="stroke:#383838;stroke-width:1.5;" width="138" x="208" y="1017.7891"/><text fill="#000000" font-family="sans-serif" font-size="14" lengthAdjust="spacing" textLength="118" x="218" y="1041.3242">Route53Domains</text><rect fill="#F8F8F8" filter="url(#flfp7n8iup0df)" height="36.4883" rx="12.5" ry="12.5" style="stroke:#383838;stroke-width:1.5;" width="96" x="396" y="1017.7891"/><text fill="#000000" font-family="sans-serif" font-size="14" lengthAdjust="spacing" textLength="76" x="406" y="1041.3242">Domain (1)</text><path d="M346,1036.0332 L356,1036.0332 C371,1036.0332 371,1036.0332 386,1036.0332 L396,1036.0332 " fill="none" style="stroke:#383838;stroke-width:1.0;"/><path d="M158,555.8828 L168,555.8828 C183,555.8828 183,1036.0332 198,1036.0332 L208,1036.0332 " fill="none" style="stroke:#383838;stroke-width:1.0;"/><path d="M62,555.8828 L72,555.8828 C87,555.8828 87,555.8828 102,555.8828 L112,555.8828 " fill="none" style="stroke:#383838;stroke-width:1.0;"/><!--MD5=[3d559cd489f700cd2a241656ffa39c56]
@startmindmap
title Resources for project AWS Load Balancer
skinparam monochrome true
+ Infra
++ aws
+++ ACM
++++ Certificate (1)
+++ AutoScaling
++++ AutoScalingGroup (1)
++++ AutoScalingAttachment (2)
+++ EC2
++++ Vpc (1)
++++ InternetGateway (1)
++++ Subnet (2)
++++ RouteTable (1)
++++ RouteTableAssociation (2)
++++ Route (1)
++++ SecurityGroup (1)
++++ LaunchTemplate (1)
+++ ELBv2
++++ LoadBalancer (1)
++++ TargetGroup (2)
++++ Listener (2)
++++ Rule (3)
+++ Route53
++++ HostedZone (1)
++++ Record (1)
+++ Route53Domains
++++ Domain (1)
@endmindmap

PlantUML version 1.2021.8(Sat Jun 26 10:20:59 CEST 2021)
(GPL source distribution)
Java Runtime: OpenJDK Runtime Environment
JVM: OpenJDK 64-Bit Server VM
Default Encoding: UTF-8
Language: en
Country: GB
--></g></svg>