<?xml version="1.0" encoding="UTF-8" standalone="no"?>
<!DOCTYPE svg PUBLIC "-//W3C//DTD SVG 1.1//EN"
 "http://www.w3.org/Graphics/SVG/1.1/DTD/svg11.dtd">
<!-- Generated by graphviz version 3.0.0 (20220226.1711)
 -->
<!-- Title: graphname Pages: 1 -->
<svg width="824pt" height="389pt"
 viewBox="0.00 0.00 824.00 389.00" xmlns="http://www.w3.org/2000/svg" xmlns:xlink="http://www.w3.org/1999/xlink">
<g id="graph0" class="graph" transform="scale(1 1) rotate(0) translate(4 385)">
<title>graphname</title>
<polygon fill="#fafafa" stroke="transparent" points="-4,4 -4,-385 820,-385 820,4 -4,4"/>
<text text-anchor="start" x="252" y="-356.4" font-family="Helvetica,sans-Serif" font-weight="bold" font-size="22.00" fill="#383838">Project dns&#45;record&#45;ip&#45;address</text>
<text text-anchor="start" x="404.5" y="-340.8" font-family="Helvetica,sans-Serif" font-size="14.00"> &#160;</text>
<text text-anchor="start" x="252" y="-319.2" font-family="Helvetica,sans-Serif" font-weight="bold" font-size="16.00" fill="#707070">Live Diagram</text>
<g id="clust1" class="cluster">
<title>cluster_aws</title>
<polygon fill="#f5f5f5" stroke="#f5f5f5" points="8,-8 8,-297 808,-297 808,-8 8,-8"/>
<text text-anchor="start" x="346" y="-23" font-family="Helvetica,sans-Serif" font-weight="bold" font-size="20.00" fill="#707070">Provider aws</text>
</g>
<g id="clust2" class="cluster">
<title>cluster_aws_</title>
<polygon fill="#eeeeee" stroke="#eeeeee" points="16,-54 16,-289 800,-289 800,-54 16,-54"/>
<text text-anchor="start" x="407.86" y="-58.3" font-family="Helvetica,sans-Serif" font-size="1.00" fill="#383838"> </text>
</g>
<!-- ElasticIpAddress::::myip -->
<g id="node1" class="node">
<title>ElasticIpAddress::::myip</title>
<polygon fill="#e5e5e5" stroke="#dddddd" points="532,-281 336,-281 336,-223 532,-223 532,-281"/>
<text text-anchor="start" x="348" y="-261.2" font-family="Helvetica,sans-Serif" font-weight="bold" font-size="16.00" fill="#707070">EC2::ElasticIpAddress</text>
<text text-anchor="start" x="348" y="-236.2" font-family="Helvetica,sans-Serif" font-size="16.00" fill="#383838">myip</text>
</g>
<!-- HostedZone::::grucloud.org. -->
<g id="node2" class="node">
<title>HostedZone::::grucloud.org.</title>
<polygon fill="#e5e5e5" stroke="#dddddd" points="529,-205 339,-205 339,-147 529,-147 529,-205"/>
<text text-anchor="start" x="351" y="-185.2" font-family="Helvetica,sans-Serif" font-weight="bold" font-size="16.00" fill="#707070">Route53::HostedZone</text>
<text text-anchor="start" x="351" y="-160.2" font-family="Helvetica,sans-Serif" font-size="16.00" fill="#383838">grucloud.org.</text>
</g>
<!-- Domain::::grucloud.org -->
<g id="node6" class="node">
<title>Domain::::grucloud.org</title>
<polygon fill="#e5e5e5" stroke="#dddddd" points="792,-205 568,-205 568,-147 792,-147 792,-205"/>
<text text-anchor="start" x="580" y="-185.2" font-family="Helvetica,sans-Serif" font-weight="bold" font-size="16.00" fill="#707070">Route53Domains::Domain</text>
<text text-anchor="start" x="580" y="-160.2" font-family="Helvetica,sans-Serif" font-size="16.00" fill="#383838">grucloud.org</text>
</g>
<!-- HostedZone::::grucloud.org.&#45;&gt;Domain::::grucloud.org -->
<g id="edge1" class="edge">
<title>HostedZone::::grucloud.org.&#45;&gt;Domain::::grucloud.org</title>
<path fill="none" stroke="#707070" d="M529.34,-176C538.59,-176 548.08,-176 557.55,-176"/>
<polygon fill="#707070" stroke="#707070" points="557.82,-179.5 567.82,-176 557.82,-172.5 557.82,-179.5"/>
</g>
<!-- Record::::record::EC2::ElasticIpAddress::myip -->
<g id="node3" class="node">
<title>Record::::record::EC2::ElasticIpAddress::myip</title>
<polygon fill="#e5e5e5" stroke="#dddddd" points="300,-281 24,-281 24,-223 300,-223 300,-281"/>
<text text-anchor="start" x="36" y="-261.2" font-family="Helvetica,sans-Serif" font-weight="bold" font-size="16.00" fill="#707070">Route53::Record</text>
<text text-anchor="start" x="36" y="-236.2" font-family="Helvetica,sans-Serif" font-size="16.00" fill="#383838">record::EC2::ElasticIpAddress::m...</text>
</g>
<!-- Record::::record::EC2::ElasticIpAddress::myip&#45;&gt;ElasticIpAddress::::myip -->
<g id="edge3" class="edge">
<title>Record::::record::EC2::ElasticIpAddress::myip&#45;&gt;ElasticIpAddress::::myip</title>
<path fill="none" stroke="#707070" d="M300.37,-252C308.89,-252 317.4,-252 325.76,-252"/>
<polygon fill="#707070" stroke="#707070" points="325.88,-255.5 335.88,-252 325.88,-248.5 325.88,-255.5"/>
</g>
<!-- Record::::record::EC2::ElasticIpAddress::myip&#45;&gt;HostedZone::::grucloud.org. -->
<g id="edge2" class="edge">
<title>Record::::record::EC2::ElasticIpAddress::myip&#45;&gt;HostedZone::::grucloud.org.</title>
<path fill="none" stroke="#707070" d="M268.11,-222.93C278.89,-219.93 289.66,-216.91 300,-214 309.45,-211.34 319.27,-208.56 329.11,-205.77"/>
<polygon fill="#707070" stroke="#707070" points="330.27,-209.08 338.93,-202.97 328.36,-202.34 330.27,-209.08"/>
</g>
<!-- Record::::record::grucloud.org.::NS -->
<g id="node4" class="node">
<title>Record::::record::grucloud.org.::NS</title>
<polygon fill="#e5e5e5" stroke="#dddddd" points="264.5,-205 59.5,-205 59.5,-147 264.5,-147 264.5,-205"/>
<text text-anchor="start" x="72" y="-185.2" font-family="Helvetica,sans-Serif" font-weight="bold" font-size="16.00" fill="#707070">Route53::Record</text>
<text text-anchor="start" x="72" y="-160.2" font-family="Helvetica,sans-Serif" font-size="16.00" fill="#383838">record::grucloud.org.::NS</text>
</g>
<!-- Record::::record::grucloud.org.::NS&#45;&gt;HostedZone::::grucloud.org. -->
<g id="edge4" class="edge">
<title>Record::::record::grucloud.org.::NS&#45;&gt;HostedZone::::grucloud.org.</title>
<path fill="none" stroke="#707070" d="M264.69,-176C285.63,-176 307.71,-176 328.74,-176"/>
<polygon fill="#707070" stroke="#707070" points="328.97,-179.5 338.97,-176 328.97,-172.5 328.97,-179.5"/>
</g>
<!-- Record::::record::grucloud.org.::SOA -->
<g id="node5" class="node">
<title>Record::::record::grucloud.org.::SOA</title>
<polygon fill="#e5e5e5" stroke="#dddddd" points="270.5,-129 53.5,-129 53.5,-71 270.5,-71 270.5,-129"/>
<text text-anchor="start" x="66" y="-109.2" font-family="Helvetica,sans-Serif" font-weight="bold" font-size="16.00" fill="#707070">Route53::Record</text>
<text text-anchor="start" x="66" y="-84.2" font-family="Helvetica,sans-Serif" font-size="16.00" fill="#383838">record::grucloud.org.::SOA</text>
</g>
<!-- Record::::record::grucloud.org.::SOA&#45;&gt;HostedZone::::grucloud.org. -->
<g id="edge5" class="edge">
<title>Record::::record::grucloud.org.::SOA&#45;&gt;HostedZone::::grucloud.org.</title>
<path fill="none" stroke="#707070" d="M268.11,-129.07C278.89,-132.07 289.66,-135.09 300,-138 309.45,-140.66 319.27,-143.44 329.11,-146.23"/>
<polygon fill="#707070" stroke="#707070" points="328.36,-149.66 338.93,-149.03 330.27,-142.92 328.36,-149.66"/>
</g>
</g>
</svg>
