<?xml version="1.0" encoding="UTF-8" standalone="no"?>
<!DOCTYPE svg PUBLIC "-//W3C//DTD SVG 1.1//EN"
 "http://www.w3.org/Graphics/SVG/1.1/DTD/svg11.dtd">
<!-- Generated by graphviz version 2.44.1 (20200629.0846)
 -->
<!-- Title: graphname Pages: 1 -->
<svg width="1371pt" height="1921pt"
 viewBox="0.00 0.00 1371.24 1920.69" xmlns="http://www.w3.org/2000/svg" xmlns:xlink="http://www.w3.org/1999/xlink">
<g id="graph0" class="graph" transform="scale(1 1) rotate(0) translate(4 1916.69)">
<title>graphname</title>
<polygon fill="#fafafa" stroke="transparent" points="-4,4 -4,-1916.69 1367.24,-1916.69 1367.24,4 -4,4"/>
<text text-anchor="start" x="614.62" y="-1888.09" font-family="Helvetica,sans-Serif" font-weight="bold" font-size="22.00" fill="#383838">Project tuto1</text>
<text text-anchor="start" x="614.62" y="-1862.89" font-family="Helvetica,sans-Serif" font-weight="bold" font-size="16.00" fill="#707070">Live Diagram</text>
<g id="clust1" class="cluster">
<title>cluster_k8s</title>
<polygon fill="#f5f5f5" stroke="#f5f5f5" points="8,-430.69 8,-1840.69 1355.24,-1840.69 1355.24,-430.69 8,-430.69"/>
<text text-anchor="start" x="621.62" y="-445.69" font-family="Helvetica,sans-Serif" font-weight="bold" font-size="20.00" fill="#707070">Provider k8s</text>
</g>
<g id="clust2" class="cluster">
<title>cluster_k8s_default</title>
<polygon fill="#eeeeee" stroke="#eeeeee" points="16,-740.69 16,-1832.69 766.12,-1832.69 766.12,-740.69 16,-740.69"/>
<text text-anchor="start" x="358.06" y="-751.69" font-family="Helvetica,sans-Serif" font-weight="bold" font-size="20.00" fill="#383838">default</text>
</g>
<g id="clust3" class="cluster">
<title>cluster_k8s_myapp</title>
<polygon fill="#eeeeee" stroke="#eeeeee" points="18,-476.69 18,-732.69 1347.24,-732.69 1347.24,-476.69 18,-476.69"/>
<text text-anchor="start" x="650.12" y="-487.69" font-family="Helvetica,sans-Serif" font-weight="bold" font-size="20.00" fill="#383838">myapp</text>
</g>
<!-- Secret::default::default&#45;token&#45;k2v52 -->
<g id="node1" class="node">
<title>Secret::default::default&#45;token&#45;k2v52</title>
<polygon fill="#e5e5e5" stroke="#dddddd" points="757.62,-1824.69 590.62,-1824.69 590.62,-1766.69 757.62,-1766.69 757.62,-1824.69"/>
<text text-anchor="start" x="603.12" y="-1804.89" font-family="Helvetica,sans-Serif" font-weight="bold" font-size="16.00" fill="#707070">Secret</text>
<text text-anchor="start" x="603.12" y="-1779.89" font-family="Helvetica,sans-Serif" font-size="16.00" fill="#383838">default&#45;token&#45;k2v52</text>
</g>
<!-- ServiceAccount::default::default -->
<g id="node2" class="node">
<title>ServiceAccount::default::default</title>
<polygon fill="#e5e5e5" stroke="#dddddd" points="244,-1824.69 99,-1824.69 99,-1766.69 244,-1766.69 244,-1824.69"/>
<text text-anchor="start" x="111.5" y="-1804.89" font-family="Helvetica,sans-Serif" font-weight="bold" font-size="16.00" fill="#707070">ServiceAccount</text>
<text text-anchor="start" x="111.5" y="-1779.89" font-family="Helvetica,sans-Serif" font-size="16.00" fill="#383838">default</text>
</g>
<!-- ServiceAccount::default::default&#45;&gt;Secret::default::default&#45;token&#45;k2v52 -->
<g id="edge1" class="edge">
<title>ServiceAccount::default::default&#45;&gt;Secret::default::default&#45;token&#45;k2v52</title>
<path fill="none" stroke="#707070" d="M244.23,-1795.69C332.62,-1795.69 483,-1795.69 580.17,-1795.69"/>
<polygon fill="#707070" stroke="#707070" points="580.28,-1799.19 590.28,-1795.69 580.28,-1792.19 580.28,-1799.19"/>
</g>
<!-- ClusterRole::default::admin -->
<g id="node3" class="node">
<title>ClusterRole::default::admin</title>
<polygon fill="#e5e5e5" stroke="#dddddd" points="228.5,-1748.69 114.5,-1748.69 114.5,-1690.69 228.5,-1690.69 228.5,-1748.69"/>
<text text-anchor="start" x="126.5" y="-1728.89" font-family="Helvetica,sans-Serif" font-weight="bold" font-size="16.00" fill="#707070">ClusterRole</text>
<text text-anchor="start" x="126.5" y="-1703.89" font-family="Helvetica,sans-Serif" font-size="16.00" fill="#383838">admin</text>
</g>
<!-- ClusterRole::default::cluster&#45;admin -->
<g id="node4" class="node">
<title>ClusterRole::default::cluster&#45;admin</title>
<polygon fill="#e5e5e5" stroke="#dddddd" points="735.12,-1254.69 613.12,-1254.69 613.12,-1196.69 735.12,-1196.69 735.12,-1254.69"/>
<text text-anchor="start" x="625.12" y="-1234.89" font-family="Helvetica,sans-Serif" font-weight="bold" font-size="16.00" fill="#707070">ClusterRole</text>
<text text-anchor="start" x="625.12" y="-1209.89" font-family="Helvetica,sans-Serif" font-size="16.00" fill="#383838">cluster&#45;admin</text>
</g>
<!-- ClusterRole::default::edit -->
<g id="node5" class="node">
<title>ClusterRole::default::edit</title>
<polygon fill="#e5e5e5" stroke="#dddddd" points="228.5,-1672.69 114.5,-1672.69 114.5,-1614.69 228.5,-1614.69 228.5,-1672.69"/>
<text text-anchor="start" x="126.5" y="-1652.89" font-family="Helvetica,sans-Serif" font-weight="bold" font-size="16.00" fill="#707070">ClusterRole</text>
<text text-anchor="start" x="126.5" y="-1627.89" font-family="Helvetica,sans-Serif" font-size="16.00" fill="#383838">edit</text>
</g>
<!-- ClusterRole::default::kubeadm:get&#45;nodes -->
<g id="node6" class="node">
<title>ClusterRole::default::kubeadm:get&#45;nodes</title>
<polygon fill="#e5e5e5" stroke="#dddddd" points="758.12,-1368.69 590.12,-1368.69 590.12,-1310.69 758.12,-1310.69 758.12,-1368.69"/>
<text text-anchor="start" x="602.12" y="-1348.89" font-family="Helvetica,sans-Serif" font-weight="bold" font-size="16.00" fill="#707070">ClusterRole</text>
<text text-anchor="start" x="602.12" y="-1323.89" font-family="Helvetica,sans-Serif" font-size="16.00" fill="#383838">kubeadm:get&#45;nodes</text>
</g>
<!-- ClusterRole::default::view -->
<g id="node7" class="node">
<title>ClusterRole::default::view</title>
<polygon fill="#e5e5e5" stroke="#dddddd" points="228.5,-1596.69 114.5,-1596.69 114.5,-1538.69 228.5,-1538.69 228.5,-1596.69"/>
<text text-anchor="start" x="126.5" y="-1576.89" font-family="Helvetica,sans-Serif" font-weight="bold" font-size="16.00" fill="#707070">ClusterRole</text>
<text text-anchor="start" x="126.5" y="-1551.89" font-family="Helvetica,sans-Serif" font-size="16.00" fill="#383838">view</text>
</g>
<!-- ConfigMap::default::kube&#45;root&#45;ca.crt -->
<g id="node8" class="node">
<title>ConfigMap::default::kube&#45;root&#45;ca.crt</title>
<polygon fill="#e5e5e5" stroke="#dddddd" points="240.5,-1520.69 102.5,-1520.69 102.5,-1462.69 240.5,-1462.69 240.5,-1520.69"/>
<text text-anchor="start" x="114.5" y="-1500.89" font-family="Helvetica,sans-Serif" font-weight="bold" font-size="16.00" fill="#707070">ConfigMap</text>
<text text-anchor="start" x="114.5" y="-1475.89" font-family="Helvetica,sans-Serif" font-size="16.00" fill="#383838">kube&#45;root&#45;ca.crt</text>
</g>
<!-- Service::default::kubernetes -->
<g id="node9" class="node">
<title>Service::default::kubernetes</title>
<polygon fill="#e5e5e5" stroke="#dddddd" points="224,-1444.69 119,-1444.69 119,-1386.69 224,-1386.69 224,-1444.69"/>
<text text-anchor="start" x="131.5" y="-1424.89" font-family="Helvetica,sans-Serif" font-weight="bold" font-size="16.00" fill="#707070">Service</text>
<text text-anchor="start" x="131.5" y="-1399.89" font-family="Helvetica,sans-Serif" font-size="16.00" fill="#383838">kubernetes</text>
</g>
<!-- ClusterRoleBinding::default::cluster&#45;admin -->
<g id="node10" class="node">
<title>ClusterRoleBinding::default::cluster&#45;admin</title>
<polygon fill="#e5e5e5" stroke="#dddddd" points="258,-1292.69 85,-1292.69 85,-1234.69 258,-1234.69 258,-1292.69"/>
<text text-anchor="start" x="97.5" y="-1272.89" font-family="Helvetica,sans-Serif" font-weight="bold" font-size="16.00" fill="#707070">ClusterRoleBinding</text>
<text text-anchor="start" x="97.5" y="-1247.89" font-family="Helvetica,sans-Serif" font-size="16.00" fill="#383838">cluster&#45;admin</text>
</g>
<!-- ClusterRoleBinding::default::cluster&#45;admin&#45;&gt;ClusterRole::default::cluster&#45;admin -->
<g id="edge3" class="edge">
<title>ClusterRoleBinding::default::cluster&#45;admin&#45;&gt;ClusterRole::default::cluster&#45;admin</title>
<path fill="none" stroke="#707070" d="M258.28,-1257.18C355.53,-1249.8 512.29,-1237.9 602.69,-1231.04"/>
<polygon fill="#707070" stroke="#707070" points="603.14,-1234.51 612.84,-1230.27 602.61,-1227.53 603.14,-1234.51"/>
</g>
<!-- ClusterRoleBinding::default::kubeadm:get&#45;nodes -->
<g id="node11" class="node">
<title>ClusterRoleBinding::default::kubeadm:get&#45;nodes</title>
<polygon fill="#e5e5e5" stroke="#dddddd" points="258,-1368.69 85,-1368.69 85,-1310.69 258,-1310.69 258,-1368.69"/>
<text text-anchor="start" x="97.5" y="-1348.89" font-family="Helvetica,sans-Serif" font-weight="bold" font-size="16.00" fill="#707070">ClusterRoleBinding</text>
<text text-anchor="start" x="97.5" y="-1323.89" font-family="Helvetica,sans-Serif" font-size="16.00" fill="#383838">kubeadm:get&#45;nodes</text>
</g>
<!-- ClusterRoleBinding::default::kubeadm:get&#45;nodes&#45;&gt;ClusterRole::default::kubeadm:get&#45;nodes -->
<g id="edge4" class="edge">
<title>ClusterRoleBinding::default::kubeadm:get&#45;nodes&#45;&gt;ClusterRole::default::kubeadm:get&#45;nodes</title>
<path fill="none" stroke="#707070" d="M258.28,-1339.69C347.69,-1339.69 487.39,-1339.69 579.59,-1339.69"/>
<polygon fill="#707070" stroke="#707070" points="579.75,-1343.19 589.75,-1339.69 579.75,-1336.19 579.75,-1343.19"/>
</g>
<!-- ClusterRoleBinding::default::kubeadm:kubelet&#45;bootstrap -->
<g id="node12" class="node">
<title>ClusterRoleBinding::default::kubeadm:kubelet&#45;bootstrap</title>
<polygon fill="#e5e5e5" stroke="#dddddd" points="282,-1140.69 61,-1140.69 61,-1082.69 282,-1082.69 282,-1140.69"/>
<text text-anchor="start" x="73.5" y="-1120.89" font-family="Helvetica,sans-Serif" font-weight="bold" font-size="16.00" fill="#707070">ClusterRoleBinding</text>
<text text-anchor="start" x="73.5" y="-1095.89" font-family="Helvetica,sans-Serif" font-size="16.00" fill="#383838">kubeadm:kubelet&#45;bootstrap</text>
</g>
<!-- ClusterRole::default::system:node&#45;bootstrapper -->
<g id="node25" class="node">
<title>ClusterRole::default::system:node&#45;bootstrapper</title>
<ellipse fill="none" stroke="black" cx="674.12" cy="-350.69" rx="178.17" ry="18"/>
<text text-anchor="middle" x="674.12" y="-346.99" font-family="Times,serif" font-size="14.00">ClusterRole::default::system:node&#45;bootstrapper</text>
</g>
<!-- ClusterRoleBinding::default::kubeadm:kubelet&#45;bootstrap&#45;&gt;ClusterRole::default::system:node&#45;bootstrapper -->
<g id="edge5" class="edge">
<title>ClusterRoleBinding::default::kubeadm:kubelet&#45;bootstrap&#45;&gt;ClusterRole::default::system:node&#45;bootstrapper</title>
<path fill="none" stroke="#707070" d="M282.2,-1100C296.36,-1094.05 309.28,-1085.6 319,-1073.69 367.95,-1013.69 301.15,-433.34 355,-377.69 416.29,-314.34 524.19,-319.28 597.14,-332.11"/>
<polygon fill="#707070" stroke="#707070" points="596.72,-335.59 607.19,-333.96 597.99,-328.71 596.72,-335.59"/>
</g>
<!-- ClusterRoleBinding::default::kubeadm:node&#45;autoapprove&#45;bootstrap -->
<g id="node13" class="node">
<title>ClusterRoleBinding::default::kubeadm:node&#45;autoapprove&#45;bootstrap</title>
<polygon fill="#e5e5e5" stroke="#dddddd" points="319,-1064.69 24,-1064.69 24,-1006.69 319,-1006.69 319,-1064.69"/>
<text text-anchor="start" x="36.5" y="-1044.89" font-family="Helvetica,sans-Serif" font-weight="bold" font-size="16.00" fill="#707070">ClusterRoleBinding</text>
<text text-anchor="start" x="36.5" y="-1019.89" font-family="Helvetica,sans-Serif" font-size="16.00" fill="#383838">kubeadm:node&#45;autoapprove&#45;bootstr...</text>
</g>
<!-- ClusterRole::default::system:certificates.k8s.io:certificatesigningrequests:nodeclient -->
<g id="node26" class="node">
<title>ClusterRole::default::system:certificates.k8s.io:certificatesigningrequests:nodeclient</title>
<ellipse fill="none" stroke="black" cx="674.12" cy="-296.69" rx="306.55" ry="18"/>
<text text-anchor="middle" x="674.12" y="-292.99" font-family="Times,serif" font-size="14.00">ClusterRole::default::system:certificates.k8s.io:certificatesigningrequests:nodeclient</text>
</g>
<!-- ClusterRoleBinding::default::kubeadm:node&#45;autoapprove&#45;bootstrap&#45;&gt;ClusterRole::default::system:certificates.k8s.io:certificatesigningrequests:nodeclient -->
<g id="edge6" class="edge">
<title>ClusterRoleBinding::default::kubeadm:node&#45;autoapprove&#45;bootstrap&#45;&gt;ClusterRole::default::system:certificates.k8s.io:certificatesigningrequests:nodeclient</title>
<path fill="none" stroke="#707070" d="M310.63,-1006.44C313.62,-1003.75 316.42,-1000.84 319,-997.69 366.46,-939.62 302.81,-377.54 355,-323.69 415.15,-261.63 520.03,-265.15 592.85,-277.39"/>
<polygon fill="#707070" stroke="#707070" points="592.45,-280.87 602.9,-279.17 593.67,-273.98 592.45,-280.87"/>
</g>
<!-- ClusterRoleBinding::default::kubeadm:node&#45;autoapprove&#45;certificate&#45;rotation -->
<g id="node14" class="node">
<title>ClusterRoleBinding::default::kubeadm:node&#45;autoapprove&#45;certificate&#45;rotation</title>
<polygon fill="#e5e5e5" stroke="#dddddd" points="314,-988.69 29,-988.69 29,-930.69 314,-930.69 314,-988.69"/>
<text text-anchor="start" x="41.5" y="-968.89" font-family="Helvetica,sans-Serif" font-weight="bold" font-size="16.00" fill="#707070">ClusterRoleBinding</text>
<text text-anchor="start" x="41.5" y="-943.89" font-family="Helvetica,sans-Serif" font-size="16.00" fill="#383838">kubeadm:node&#45;autoapprove&#45;certifi...</text>
</g>
<!-- ClusterRole::default::system:certificates.k8s.io:certificatesigningrequests:selfnodeclient -->
<g id="node27" class="node">
<title>ClusterRole::default::system:certificates.k8s.io:certificatesigningrequests:selfnodeclient</title>
<ellipse fill="none" stroke="black" cx="674.12" cy="-242.69" rx="319.24" ry="18"/>
<text text-anchor="middle" x="674.12" y="-238.99" font-family="Times,serif" font-size="14.00">ClusterRole::default::system:certificates.k8s.io:certificatesigningrequests:selfnodeclient</text>
</g>
<!-- ClusterRoleBinding::default::kubeadm:node&#45;autoapprove&#45;certificate&#45;rotation&#45;&gt;ClusterRole::default::system:certificates.k8s.io:certificatesigningrequests:selfnodeclient -->
<g id="edge7" class="edge">
<title>ClusterRoleBinding::default::kubeadm:node&#45;autoapprove&#45;certificate&#45;rotation&#45;&gt;ClusterRole::default::system:certificates.k8s.io:certificatesigningrequests:selfnodeclient</title>
<path fill="none" stroke="#707070" d="M310.62,-930.43C313.62,-927.75 316.42,-924.84 319,-921.69 410.93,-809.41 253.92,-373.8 355,-269.69 415.11,-207.78 519.75,-211.18 592.54,-223.36"/>
<polygon fill="#707070" stroke="#707070" points="592.14,-226.84 602.59,-225.13 593.35,-219.95 592.14,-226.84"/>
</g>
<!-- ClusterRoleBinding::default::kubeadm:node&#45;proxier -->
<g id="node15" class="node">
<title>ClusterRoleBinding::default::kubeadm:node&#45;proxier</title>
<polygon fill="#e5e5e5" stroke="#dddddd" points="265,-912.69 78,-912.69 78,-854.69 265,-854.69 265,-912.69"/>
<text text-anchor="start" x="90.5" y="-892.89" font-family="Helvetica,sans-Serif" font-weight="bold" font-size="16.00" fill="#707070">ClusterRoleBinding</text>
<text text-anchor="start" x="90.5" y="-867.89" font-family="Helvetica,sans-Serif" font-size="16.00" fill="#383838">kubeadm:node&#45;proxier</text>
</g>
<!-- ClusterRole::default::system:node&#45;proxier -->
<g id="node28" class="node">
<title>ClusterRole::default::system:node&#45;proxier</title>
<ellipse fill="none" stroke="black" cx="674.12" cy="-188.69" rx="159.47" ry="18"/>
<text text-anchor="middle" x="674.12" y="-184.99" font-family="Times,serif" font-size="14.00">ClusterRole::default::system:node&#45;proxier</text>
</g>
<!-- ClusterRoleBinding::default::kubeadm:node&#45;proxier&#45;&gt;ClusterRole::default::system:node&#45;proxier -->
<g id="edge8" class="edge">
<title>ClusterRoleBinding::default::kubeadm:node&#45;proxier&#45;&gt;ClusterRole::default::system:node&#45;proxier</title>
<path fill="none" stroke="#707070" d="M265.36,-877.76C285.88,-871.99 305.5,-862.14 319,-845.69 407.94,-737.28 257.22,-316.21 355,-215.69 416.83,-152.13 525.61,-157.47 598.52,-170.41"/>
<polygon fill="#707070" stroke="#707070" points="598.09,-173.89 608.56,-172.28 599.37,-167.01 598.09,-173.89"/>
</g>
<!-- ServiceAccount::kube&#45;system::kube&#45;proxy -->
<g id="node29" class="node">
<title>ServiceAccount::kube&#45;system::kube&#45;proxy</title>
<ellipse fill="none" stroke="black" cx="674.12" cy="-134.69" rx="161.67" ry="18"/>
<text text-anchor="middle" x="674.12" y="-130.99" font-family="Times,serif" font-size="14.00">ServiceAccount::kube&#45;system::kube&#45;proxy</text>
</g>
<!-- ClusterRoleBinding::default::kubeadm:node&#45;proxier&#45;&gt;ServiceAccount::kube&#45;system::kube&#45;proxy -->
<g id="edge9" class="edge">
<title>ClusterRoleBinding::default::kubeadm:node&#45;proxier&#45;&gt;ServiceAccount::kube&#45;system::kube&#45;proxy</title>
<path fill="none" stroke="#707070" d="M265.03,-877.91C285.69,-872.15 305.45,-862.28 319,-845.69 367.14,-786.74 302.06,-216.36 355,-161.69 416.69,-97.99 525.5,-103.36 598.46,-116.35"/>
<polygon fill="#707070" stroke="#707070" points="598.04,-119.83 608.51,-118.23 599.32,-112.95 598.04,-119.83"/>
</g>
<!-- ClusterRoleBinding::default::minikube&#45;rbac -->
<g id="node16" class="node">
<title>ClusterRoleBinding::default::minikube&#45;rbac</title>
<polygon fill="#e5e5e5" stroke="#dddddd" points="258,-1216.69 85,-1216.69 85,-1158.69 258,-1158.69 258,-1216.69"/>
<text text-anchor="start" x="97.5" y="-1196.89" font-family="Helvetica,sans-Serif" font-weight="bold" font-size="16.00" fill="#707070">ClusterRoleBinding</text>
<text text-anchor="start" x="97.5" y="-1171.89" font-family="Helvetica,sans-Serif" font-size="16.00" fill="#383838">minikube&#45;rbac</text>
</g>
<!-- ClusterRoleBinding::default::minikube&#45;rbac&#45;&gt;ClusterRole::default::cluster&#45;admin -->
<g id="edge10" class="edge">
<title>ClusterRoleBinding::default::minikube&#45;rbac&#45;&gt;ClusterRole::default::cluster&#45;admin</title>
<path fill="none" stroke="#707070" d="M258.28,-1194.2C355.53,-1201.58 512.29,-1213.48 602.69,-1220.34"/>
<polygon fill="#707070" stroke="#707070" points="602.61,-1223.85 612.84,-1221.11 603.14,-1216.87 602.61,-1223.85"/>
</g>
<!-- ServiceAccount::kube&#45;system::default -->
<g id="node30" class="node">
<title>ServiceAccount::kube&#45;system::default</title>
<ellipse fill="none" stroke="black" cx="674.12" cy="-404.69" rx="145.67" ry="18"/>
<text text-anchor="middle" x="674.12" y="-400.99" font-family="Times,serif" font-size="14.00">ServiceAccount::kube&#45;system::default</text>
</g>
<!-- ClusterRoleBinding::default::minikube&#45;rbac&#45;&gt;ServiceAccount::kube&#45;system::default -->
<g id="edge11" class="edge">
<title>ClusterRoleBinding::default::minikube&#45;rbac&#45;&gt;ServiceAccount::kube&#45;system::default</title>
<path fill="none" stroke="#707070" d="M258.15,-1183.67C281.24,-1178.25 303.95,-1168.1 319,-1149.69 414.32,-1033.02 257.18,-587.27 355,-472.69 397.21,-423.26 465.76,-404.53 528.44,-398.88"/>
<polygon fill="#707070" stroke="#707070" points="528.76,-402.37 538.45,-398.09 528.2,-395.39 528.76,-402.37"/>
</g>
<!-- ClusterRoleBinding::default::storage&#45;provisioner -->
<g id="node17" class="node">
<title>ClusterRoleBinding::default::storage&#45;provisioner</title>
<polygon fill="#e5e5e5" stroke="#dddddd" points="258,-836.69 85,-836.69 85,-778.69 258,-778.69 258,-836.69"/>
<text text-anchor="start" x="97.5" y="-816.89" font-family="Helvetica,sans-Serif" font-weight="bold" font-size="16.00" fill="#707070">ClusterRoleBinding</text>
<text text-anchor="start" x="97.5" y="-791.89" font-family="Helvetica,sans-Serif" font-size="16.00" fill="#383838">storage&#45;provisioner</text>
</g>
<!-- ClusterRole::default::system:persistent&#45;volume&#45;provisioner -->
<g id="node31" class="node">
<title>ClusterRole::default::system:persistent&#45;volume&#45;provisioner</title>
<ellipse fill="none" stroke="black" cx="674.12" cy="-26.69" rx="220.16" ry="18"/>
<text text-anchor="middle" x="674.12" y="-22.99" font-family="Times,serif" font-size="14.00">ClusterRole::default::system:persistent&#45;volume&#45;provisioner</text>
</g>
<!-- ClusterRoleBinding::default::storage&#45;provisioner&#45;&gt;ClusterRole::default::system:persistent&#45;volume&#45;provisioner -->
<g id="edge12" class="edge">
<title>ClusterRoleBinding::default::storage&#45;provisioner&#45;&gt;ClusterRole::default::system:persistent&#45;volume&#45;provisioner</title>
<path fill="none" stroke="#707070" d="M258.13,-784.28C281.65,-773.62 304.62,-758.35 319,-736.69 361.03,-673.38 302.13,-108.28 355,-53.69 415.68,8.96 521.95,4.79 594.84,-7.72"/>
<polygon fill="#707070" stroke="#707070" points="594.43,-11.2 604.9,-9.53 595.68,-4.31 594.43,-11.2"/>
</g>
<!-- ServiceAccount::kube&#45;system::storage&#45;provisioner -->
<g id="node32" class="node">
<title>ServiceAccount::kube&#45;system::storage&#45;provisioner</title>
<ellipse fill="none" stroke="black" cx="674.12" cy="-80.69" rx="189.57" ry="18"/>
<text text-anchor="middle" x="674.12" y="-76.99" font-family="Times,serif" font-size="14.00">ServiceAccount::kube&#45;system::storage&#45;provisioner</text>
</g>
<!-- ClusterRoleBinding::default::storage&#45;provisioner&#45;&gt;ServiceAccount::kube&#45;system::storage&#45;provisioner -->
<g id="edge13" class="edge">
<title>ClusterRoleBinding::default::storage&#45;provisioner&#45;&gt;ServiceAccount::kube&#45;system::storage&#45;provisioner</title>
<path fill="none" stroke="#707070" d="M258.07,-784.24C281.59,-773.57 304.57,-758.32 319,-736.69 357.85,-678.46 306.19,-157.87 355,-107.69 416.19,-44.8 523.35,-49.36 596.23,-62.01"/>
<polygon fill="#707070" stroke="#707070" points="595.81,-65.49 606.27,-63.84 597.06,-58.6 595.81,-65.49"/>
</g>
<!-- Secret::myapp::default&#45;token&#45;6hczw -->
<g id="node18" class="node">
<title>Secret::myapp::default&#45;token&#45;6hczw</title>
<polygon fill="#e5e5e5" stroke="#dddddd" points="758.62,-686.69 589.62,-686.69 589.62,-628.69 758.62,-628.69 758.62,-686.69"/>
<text text-anchor="start" x="602.12" y="-666.89" font-family="Helvetica,sans-Serif" font-weight="bold" font-size="16.00" fill="#707070">Secret</text>
<text text-anchor="start" x="602.12" y="-641.89" font-family="Helvetica,sans-Serif" font-size="16.00" fill="#383838">default&#45;token&#45;6hczw</text>
</g>
<!-- ServiceAccount::myapp::default -->
<g id="node19" class="node">
<title>ServiceAccount::myapp::default</title>
<polygon fill="#e5e5e5" stroke="#dddddd" points="244,-724.69 99,-724.69 99,-666.69 244,-666.69 244,-724.69"/>
<text text-anchor="start" x="111.5" y="-704.89" font-family="Helvetica,sans-Serif" font-weight="bold" font-size="16.00" fill="#707070">ServiceAccount</text>
<text text-anchor="start" x="111.5" y="-679.89" font-family="Helvetica,sans-Serif" font-size="16.00" fill="#383838">default</text>
</g>
<!-- ServiceAccount::myapp::default&#45;&gt;Secret::myapp::default&#45;token&#45;6hczw -->
<g id="edge2" class="edge">
<title>ServiceAccount::myapp::default&#45;&gt;Secret::myapp::default&#45;token&#45;6hczw</title>
<path fill="none" stroke="#707070" d="M244.23,-690.25C332.36,-683.56 482.11,-672.19 579.3,-664.81"/>
<polygon fill="#707070" stroke="#707070" points="579.71,-668.29 589.42,-664.04 579.18,-661.31 579.71,-668.29"/>
</g>
<!-- ConfigMap::myapp::kube&#45;root&#45;ca.crt -->
<g id="node20" class="node">
<title>ConfigMap::myapp::kube&#45;root&#45;ca.crt</title>
<polygon fill="#e5e5e5" stroke="#dddddd" points="240.5,-648.69 102.5,-648.69 102.5,-590.69 240.5,-590.69 240.5,-648.69"/>
<text text-anchor="start" x="114.5" y="-628.89" font-family="Helvetica,sans-Serif" font-weight="bold" font-size="16.00" fill="#707070">ConfigMap</text>
<text text-anchor="start" x="114.5" y="-603.89" font-family="Helvetica,sans-Serif" font-size="16.00" fill="#383838">kube&#45;root&#45;ca.crt</text>
</g>
<!-- Service::myapp::nginx&#45;service -->
<g id="node21" class="node">
<title>Service::myapp::nginx&#45;service</title>
<polygon fill="#e5e5e5" stroke="#dddddd" points="1339.24,-572.69 1218.24,-572.69 1218.24,-514.69 1339.24,-514.69 1339.24,-572.69"/>
<text text-anchor="start" x="1230.74" y="-552.89" font-family="Helvetica,sans-Serif" font-weight="bold" font-size="16.00" fill="#707070">Service</text>
<text text-anchor="start" x="1230.74" y="-527.89" font-family="Helvetica,sans-Serif" font-size="16.00" fill="#383838">nginx&#45;service</text>
</g>
<!-- ReplicaSet::myapp::nginx&#45;deployment&#45;66cdc8d56b -->
<g id="node22" class="node">
<title>ReplicaSet::myapp::nginx&#45;deployment&#45;66cdc8d56b</title>
<polygon fill="#e5e5e5" stroke="#dddddd" points="797.62,-572.69 550.62,-572.69 550.62,-514.69 797.62,-514.69 797.62,-572.69"/>
<text text-anchor="start" x="563.12" y="-552.89" font-family="Helvetica,sans-Serif" font-weight="bold" font-size="16.00" fill="#707070">ReplicaSet</text>
<text text-anchor="start" x="563.12" y="-527.89" font-family="Helvetica,sans-Serif" font-size="16.00" fill="#383838">nginx&#45;deployment&#45;66cdc8d56b</text>
</g>
<!-- Deployment::myapp::nginx&#45;deployment -->
<g id="node23" class="node">
<title>Deployment::myapp::nginx&#45;deployment</title>
<polygon fill="#e5e5e5" stroke="#dddddd" points="1182.24,-572.69 1029.24,-572.69 1029.24,-514.69 1182.24,-514.69 1182.24,-572.69"/>
<text text-anchor="start" x="1041.74" y="-552.89" font-family="Helvetica,sans-Serif" font-weight="bold" font-size="16.00" fill="#707070">Deployment</text>
<text text-anchor="start" x="1041.74" y="-527.89" font-family="Helvetica,sans-Serif" font-size="16.00" fill="#383838">nginx&#45;deployment</text>
</g>
<!-- ReplicaSet::myapp::nginx&#45;deployment&#45;66cdc8d56b&#45;&gt;Deployment::myapp::nginx&#45;deployment -->
<g id="edge14" class="edge">
<title>ReplicaSet::myapp::nginx&#45;deployment&#45;66cdc8d56b&#45;&gt;Deployment::myapp::nginx&#45;deployment</title>
<path fill="none" stroke="#707070" d="M797.66,-543.69C868.26,-543.69 955.27,-543.69 1018.63,-543.69"/>
<polygon fill="#707070" stroke="#707070" points="1018.99,-547.19 1028.99,-543.69 1018.99,-540.19 1018.99,-547.19"/>
</g>
<!-- Deployment::myapp::nginx&#45;deployment&#45;&gt;Service::myapp::nginx&#45;service -->
<g id="edge15" class="edge">
<title>Deployment::myapp::nginx&#45;deployment&#45;&gt;Service::myapp::nginx&#45;service</title>
<path fill="none" stroke="#707070" d="M1182.24,-543.69C1190.77,-543.69 1199.43,-543.69 1207.87,-543.69"/>
<polygon fill="#707070" stroke="#707070" points="1208.05,-547.19 1218.05,-543.69 1208.05,-540.19 1208.05,-547.19"/>
</g>
<!-- Pod::myapp::nginx&#45;deployment&#45;66cdc8d56b&#45;cbflt -->
<g id="node24" class="node">
<title>Pod::myapp::nginx&#45;deployment&#45;66cdc8d56b&#45;cbflt</title>
<polygon fill="#e5e5e5" stroke="#dddddd" points="317,-572.69 26,-572.69 26,-514.69 317,-514.69 317,-572.69"/>
<text text-anchor="start" x="38.5" y="-552.89" font-family="Helvetica,sans-Serif" font-weight="bold" font-size="16.00" fill="#707070">Pod</text>
<text text-anchor="start" x="38.5" y="-527.89" font-family="Helvetica,sans-Serif" font-size="16.00" fill="#383838">nginx&#45;deployment&#45;66cdc8d56b&#45;cbfl...</text>
</g>
<!-- Pod::myapp::nginx&#45;deployment&#45;66cdc8d56b&#45;cbflt&#45;&gt;Secret::myapp::default&#45;token&#45;6hczw -->
<g id="edge17" class="edge">
<title>Pod::myapp::nginx&#45;deployment&#45;66cdc8d56b&#45;cbflt&#45;&gt;Secret::myapp::default&#45;token&#45;6hczw</title>
<path fill="none" stroke="#707070" d="M300.12,-572.75C387.22,-592.58 500.64,-618.41 579.44,-636.36"/>
<polygon fill="#707070" stroke="#707070" points="578.82,-639.81 589.35,-638.61 580.38,-632.98 578.82,-639.81"/>
</g>
<!-- Pod::myapp::nginx&#45;deployment&#45;66cdc8d56b&#45;cbflt&#45;&gt;ReplicaSet::myapp::nginx&#45;deployment&#45;66cdc8d56b -->
<g id="edge16" class="edge">
<title>Pod::myapp::nginx&#45;deployment&#45;66cdc8d56b&#45;cbflt&#45;&gt;ReplicaSet::myapp::nginx&#45;deployment&#45;66cdc8d56b</title>
<path fill="none" stroke="#707070" d="M317.3,-543.69C387.62,-543.69 471.55,-543.69 540.22,-543.69"/>
<polygon fill="#707070" stroke="#707070" points="540.24,-547.19 550.24,-543.69 540.24,-540.19 540.24,-547.19"/>
</g>
</g>
</svg>
