<?xml version="1.0" encoding="UTF-8" standalone="no"?>
<!DOCTYPE svg PUBLIC "-//W3C//DTD SVG 1.1//EN"
 "http://www.w3.org/Graphics/SVG/1.1/DTD/svg11.dtd">
<!-- Generated by graphviz version 3.0.0 (20220226.1711)
 -->
<!-- Title: graphname Pages: 1 -->
<svg width="372pt" height="313pt"
 viewBox="0.00 0.00 372.00 313.00" xmlns="http://www.w3.org/2000/svg" xmlns:xlink="http://www.w3.org/1999/xlink">
<g id="graph0" class="graph" transform="scale(1 1) rotate(0) translate(4 309)">
<title>graphname</title>
<polygon fill="#fafafa" stroke="transparent" points="-4,4 -4,-309 368,-309 368,4 -4,4"/>
<text text-anchor="start" x="101" y="-280.4" font-family="Helvetica,sans-Serif" font-weight="bold" font-size="22.00" fill="#383838">Project sns&#45;sqs</text>
<text text-anchor="start" x="178.5" y="-264.8" font-family="Helvetica,sans-Serif" font-size="14.00"> &#160;</text>
<text text-anchor="start" x="101" y="-243.2" font-family="Helvetica,sans-Serif" font-weight="bold" font-size="16.00" fill="#707070">Live Diagram</text>
<g id="clust1" class="cluster">
<title>cluster_aws</title>
<polygon fill="#f5f5f5" stroke="#f5f5f5" points="8,-8 8,-221 356,-221 356,-8 8,-8"/>
<text text-anchor="start" x="120" y="-23" font-family="Helvetica,sans-Serif" font-weight="bold" font-size="20.00" fill="#707070">Provider aws</text>
</g>
<g id="clust2" class="cluster">
<title>cluster_aws_</title>
<polygon fill="#eeeeee" stroke="#eeeeee" points="16,-54 16,-213 348,-213 348,-54 16,-54"/>
<text text-anchor="start" x="181.86" y="-58.3" font-family="Helvetica,sans-Serif" font-size="1.00" fill="#383838"> </text>
</g>
<!-- Topic::::sam&#45;app&#45;MySnsTopic&#45;7ZOEL49PL4BA -->
<g id="node1" class="node">
<title>Topic::::sam&#45;app&#45;MySnsTopic&#45;7ZOEL49PL4BA</title>
<polygon fill="#e5e5e5" stroke="#dddddd" points="334,-205 30,-205 30,-147 334,-147 334,-205"/>
<text text-anchor="start" x="42" y="-185.2" font-family="Helvetica,sans-Serif" font-weight="bold" font-size="16.00" fill="#707070">SNS::Topic</text>
<text text-anchor="start" x="42" y="-160.2" font-family="Helvetica,sans-Serif" font-size="16.00" fill="#383838">sam&#45;app&#45;MySnsTopic&#45;7ZOEL49PL4BA</text>
</g>
<!-- Queue::::sam&#45;app&#45;MySqsQueue&#45;KMqXSqHYypds -->
<g id="node2" class="node">
<title>Queue::::sam&#45;app&#45;MySqsQueue&#45;KMqXSqHYypds</title>
<polygon fill="#e5e5e5" stroke="#dddddd" points="340,-129 24,-129 24,-71 340,-71 340,-129"/>
<text text-anchor="start" x="36" y="-109.2" font-family="Helvetica,sans-Serif" font-weight="bold" font-size="16.00" fill="#707070">SQS::Queue</text>
<text text-anchor="start" x="36" y="-84.2" font-family="Helvetica,sans-Serif" font-size="16.00" fill="#383838">sam&#45;app&#45;MySqsQueue&#45;KMqXSqHYypds</text>
</g>
</g>
</svg>
