<?xml version="1.0" encoding="UTF-8" standalone="no"?>
<!DOCTYPE svg PUBLIC "-//W3C//DTD SVG 1.1//EN"
 "http://www.w3.org/Graphics/SVG/1.1/DTD/svg11.dtd">
<!-- Generated by graphviz version 7.1.0 (20230121.1956)
 -->
<!-- Title: graphname Pages: 1 -->
<svg width="1040pt" height="617pt"
 viewBox="0.00 0.00 1040.00 617.00" xmlns="http://www.w3.org/2000/svg" xmlns:xlink="http://www.w3.org/1999/xlink">
<g id="graph0" class="graph" transform="scale(1 1) rotate(0) translate(4 613)">
<title>graphname</title>
<polygon fill="#fafafa" stroke="none" points="-4,4 -4,-613 1036,-613 1036,4 -4,4"/>
<text text-anchor="start" x="382" y="-584.4" font-family="Helvetica,sans-Serif" font-weight="bold" font-size="22.00" fill="#383838">Project appstream&#45;simple</text>
<text text-anchor="start" x="512" y="-568.8" font-family="Helvetica,sans-Serif" font-size="14.00"> &#160;</text>
<text text-anchor="start" x="382" y="-547.2" font-family="Helvetica,sans-Serif" font-weight="bold" font-size="16.00" fill="#707070">Target Diagram</text>
<g id="clust1" class="cluster">
<title>cluster_aws</title>
<polygon fill="#f5f5f5" stroke="#f5f5f5" points="8,-8 8,-525 1024,-525 1024,-8 8,-8"/>
<text text-anchor="start" x="454" y="-23" font-family="Helvetica,sans-Serif" font-weight="bold" font-size="20.00" fill="#707070">Provider aws</text>
</g>
<g id="clust2" class="cluster">
<title>cluster_aws_</title>
<polygon fill="#eeeeee" stroke="#eeeeee" points="16,-54 16,-517 1016,-517 1016,-54 16,-54"/>
<text text-anchor="start" x="515.86" y="-58.3" font-family="Helvetica,sans-Serif" font-size="1.00" fill="#383838"> </text>
</g>
<!-- AppBlock::myappblock -->
<g id="node1" class="node">
<title>AppBlock::myappblock</title>
<polygon fill="#e5e5e5" stroke="#dddddd" points="795,-409 601,-409 601,-351 795,-351 795,-409"/>
<text text-anchor="start" x="613" y="-389.2" font-family="Helvetica,sans-Serif" font-weight="bold" font-size="16.00" fill="#707070">AppStream::AppBlock</text>
<text text-anchor="start" x="613" y="-364.2" font-family="Helvetica,sans-Serif" font-size="16.00" fill="#383838">myappblock</text>
</g>
<!-- Bucket::gc&#45;appstream&#45;bucket -->
<g id="node9" class="node">
<title>Bucket::gc&#45;appstream&#45;bucket</title>
<polygon fill="#e5e5e5" stroke="#dddddd" points="1008,-409 831,-409 831,-351 1008,-351 1008,-409"/>
<text text-anchor="start" x="843.5" y="-389.2" font-family="Helvetica,sans-Serif" font-weight="bold" font-size="16.00" fill="#707070">S3::Bucket</text>
<text text-anchor="start" x="843.5" y="-364.2" font-family="Helvetica,sans-Serif" font-size="16.00" fill="#383838">gc&#45;appstream&#45;bucket</text>
</g>
<!-- AppBlock::myappblock&#45;&gt;Bucket::gc&#45;appstream&#45;bucket -->
<g id="edge1" class="edge">
<title>AppBlock::myappblock&#45;&gt;Bucket::gc&#45;appstream&#45;bucket</title>
<path fill="none" stroke="#707070" d="M795.28,-373.3C803.26,-373.24 811.34,-373.24 819.35,-373.28"/>
<polygon fill="#707070" stroke="#707070" points="819.06,-376.78 829.09,-373.36 819.12,-369.78 819.06,-376.78"/>
</g>
<!-- AppBlock::myappblock&#45;&gt;Bucket::gc&#45;appstream&#45;bucket -->
<g id="edge2" class="edge">
<title>AppBlock::myappblock&#45;&gt;Bucket::gc&#45;appstream&#45;bucket</title>
<path fill="none" stroke="#707070" d="M795.28,-386.7C803.26,-386.76 811.34,-386.76 819.35,-386.72"/>
<polygon fill="#707070" stroke="#707070" points="819.12,-390.22 829.09,-386.64 819.06,-383.22 819.12,-390.22"/>
</g>
<!-- Application::myapp -->
<g id="node2" class="node">
<title>Application::myapp</title>
<polygon fill="#e5e5e5" stroke="#dddddd" points="565,-433 358,-433 358,-375 565,-375 565,-433"/>
<text text-anchor="start" x="370.5" y="-413.2" font-family="Helvetica,sans-Serif" font-weight="bold" font-size="16.00" fill="#707070">AppStream::Application</text>
<text text-anchor="start" x="370.5" y="-388.2" font-family="Helvetica,sans-Serif" font-size="16.00" fill="#383838">myapp</text>
</g>
<!-- Application::myapp&#45;&gt;AppBlock::myappblock -->
<g id="edge3" class="edge">
<title>Application::myapp&#45;&gt;AppBlock::myappblock</title>
<path fill="none" stroke="#707070" d="M565.36,-393.47C573.3,-392.66 581.34,-391.84 589.31,-391.02"/>
<polygon fill="#707070" stroke="#707070" points="589.44,-394.53 599.03,-390.03 588.72,-387.56 589.44,-394.53"/>
</g>
<!-- Application::myapp&#45;&gt;Bucket::gc&#45;appstream&#45;bucket -->
<g id="edge4" class="edge">
<title>Application::myapp&#45;&gt;Bucket::gc&#45;appstream&#45;bucket</title>
<path fill="none" stroke="#707070" d="M565.28,-418.39C631.25,-425.15 718.58,-429.49 795,-418 804.33,-416.6 813.92,-414.63 823.45,-412.32"/>
<polygon fill="#707070" stroke="#707070" points="824.29,-415.72 833.11,-409.85 822.55,-408.94 824.29,-415.72"/>
</g>
<!-- DirectoryConfig::corp.grucloud.org -->
<g id="node3" class="node">
<title>DirectoryConfig::corp.grucloud.org</title>
<polygon fill="#e5e5e5" stroke="#dddddd" points="293,-509 53,-509 53,-451 293,-451 293,-509"/>
<text text-anchor="start" x="65" y="-489.2" font-family="Helvetica,sans-Serif" font-weight="bold" font-size="16.00" fill="#707070">AppStream::DirectoryConfig</text>
<text text-anchor="start" x="65" y="-464.2" font-family="Helvetica,sans-Serif" font-size="16.00" fill="#383838">corp.grucloud.org</text>
</g>
<!-- Fleet::myfleet -->
<g id="node4" class="node">
<title>Fleet::myfleet</title>
<polygon fill="#e5e5e5" stroke="#dddddd" points="251.5,-433 94.5,-433 94.5,-375 251.5,-375 251.5,-433"/>
<text text-anchor="start" x="107" y="-413.2" font-family="Helvetica,sans-Serif" font-weight="bold" font-size="16.00" fill="#707070">AppStream::Fleet</text>
<text text-anchor="start" x="107" y="-388.2" font-family="Helvetica,sans-Serif" font-size="16.00" fill="#383838">myfleet</text>
</g>
<!-- Fleet::myfleet&#45;&gt;Application::myapp -->
<g id="edge5" class="edge">
<title>Fleet::myfleet&#45;&gt;Application::myapp</title>
<path fill="none" stroke="#707070" d="M251.91,-404C281.03,-404 314.75,-404 346.46,-404"/>
<polygon fill="#707070" stroke="#707070" points="346.08,-407.5 356.08,-404 346.08,-400.5 346.08,-407.5"/>
</g>
<!-- User::fred@grucloud.com -->
<g id="node5" class="node">
<title>User::fred@grucloud.com</title>
<polygon fill="#e5e5e5" stroke="#dddddd" points="256,-357 90,-357 90,-299 256,-299 256,-357"/>
<text text-anchor="start" x="102" y="-337.2" font-family="Helvetica,sans-Serif" font-weight="bold" font-size="16.00" fill="#707070">AppStream::User</text>
<text text-anchor="start" x="102" y="-312.2" font-family="Helvetica,sans-Serif" font-size="16.00" fill="#383838">fred@grucloud.com</text>
</g>
<!-- Role::AmazonAppStreamPCAAccess -->
<g id="node6" class="node">
<title>Role::AmazonAppStreamPCAAccess</title>
<polygon fill="#e5e5e5" stroke="#dddddd" points="297.5,-281 48.5,-281 48.5,-223 297.5,-223 297.5,-281"/>
<text text-anchor="start" x="61" y="-261.2" font-family="Helvetica,sans-Serif" font-weight="bold" font-size="16.00" fill="#707070">IAM::Role</text>
<text text-anchor="start" x="61" y="-236.2" font-family="Helvetica,sans-Serif" font-size="16.00" fill="#383838">AmazonAppStreamPCAAccess</text>
</g>
<!-- Role::AmazonAppStreamServiceAccess -->
<g id="node7" class="node">
<title>Role::AmazonAppStreamServiceAccess</title>
<polygon fill="#e5e5e5" stroke="#dddddd" points="308.5,-205 37.5,-205 37.5,-147 308.5,-147 308.5,-205"/>
<text text-anchor="start" x="50" y="-185.2" font-family="Helvetica,sans-Serif" font-weight="bold" font-size="16.00" fill="#707070">IAM::Role</text>
<text text-anchor="start" x="50" y="-160.2" font-family="Helvetica,sans-Serif" font-size="16.00" fill="#383838">AmazonAppStreamServiceAccess</text>
</g>
<!-- Role::ApplicationAutoScalingForAmazonAppStreamAccess -->
<g id="node8" class="node">
<title>Role::ApplicationAutoScalingForAmazonAppStreamAccess</title>
<polygon fill="#e5e5e5" stroke="#dddddd" points="322,-129 24,-129 24,-71 322,-71 322,-129"/>
<text text-anchor="start" x="36" y="-109.2" font-family="Helvetica,sans-Serif" font-weight="bold" font-size="16.00" fill="#707070">IAM::Role</text>
<text text-anchor="start" x="36" y="-84.2" font-family="Helvetica,sans-Serif" font-size="16.00" fill="#383838">ApplicationAutoScalingForAmazonA...</text>
</g>
</g>
</svg>
