<?xml version="1.0" encoding="UTF-8" standalone="no"?>
<!DOCTYPE svg PUBLIC "-//W3C//DTD SVG 1.1//EN"
 "http://www.w3.org/Graphics/SVG/1.1/DTD/svg11.dtd">
<!-- Generated by graphviz version 7.1.0 (20230121.1956)
 -->
<!-- Title: graphname Pages: 1 -->
<svg width="963pt" height="485pt"
 viewBox="0.00 0.00 963.00 485.00" xmlns="http://www.w3.org/2000/svg" xmlns:xlink="http://www.w3.org/1999/xlink">
<g id="graph0" class="graph" transform="scale(1 1) rotate(0) translate(4 481)">
<title>graphname</title>
<polygon fill="#fafafa" stroke="none" points="-4,4 -4,-481 959,-481 959,4 -4,4"/>
<text text-anchor="start" x="373.5" y="-452.4" font-family="Helvetica,sans-Serif" font-weight="bold" font-size="22.00" fill="#383838">Project cloudhsmv2</text>
<text text-anchor="start" x="473.5" y="-436.8" font-family="Helvetica,sans-Serif" font-size="14.00"> &#160;</text>
<text text-anchor="start" x="373.5" y="-415.2" font-family="Helvetica,sans-Serif" font-weight="bold" font-size="16.00" fill="#707070">Target Diagram</text>
<g id="clust1" class="cluster">
<title>cluster_aws</title>
<polygon fill="#f5f5f5" stroke="#f5f5f5" points="8,-8 8,-393 947,-393 947,-8 8,-8"/>
<text text-anchor="start" x="415.5" y="-23" font-family="Helvetica,sans-Serif" font-weight="bold" font-size="20.00" fill="#707070">Provider aws</text>
</g>
<g id="clust2" class="cluster">
<title>cluster_aws_</title>
<polygon fill="#eeeeee" stroke="#eeeeee" points="16,-54 16,-385 939,-385 939,-54 16,-54"/>
<text text-anchor="start" x="477.36" y="-58.3" font-family="Helvetica,sans-Serif" font-size="1.00" fill="#383838"> </text>
</g>
<!-- Cluster::cluster::vpc -->
<g id="node1" class="node">
<title>Cluster::cluster::vpc</title>
<polygon fill="#e5e5e5" stroke="#dddddd" points="477,-357 287,-357 287,-299 477,-299 477,-357"/>
<text text-anchor="start" x="299" y="-337.2" font-family="Helvetica,sans-Serif" font-weight="bold" font-size="16.00" fill="#707070">CloudHSMV2::Cluster</text>
<text text-anchor="start" x="299" y="-312.2" font-family="Helvetica,sans-Serif" font-size="16.00" fill="#383838">cluster::vpc</text>
</g>
<!-- Vpc::vpc -->
<g id="node3" class="node">
<title>Vpc::vpc</title>
<polygon fill="#e5e5e5" stroke="#dddddd" points="931,-281 836,-281 836,-223 931,-223 931,-281"/>
<text text-anchor="start" x="848.5" y="-261.2" font-family="Helvetica,sans-Serif" font-weight="bold" font-size="16.00" fill="#707070">EC2::Vpc</text>
<text text-anchor="start" x="848.5" y="-236.2" font-family="Helvetica,sans-Serif" font-size="16.00" fill="#383838">vpc</text>
</g>
<!-- Cluster::cluster::vpc&#45;&gt;Vpc::vpc -->
<g id="edge1" class="edge">
<title>Cluster::cluster::vpc&#45;&gt;Vpc::vpc</title>
<path fill="none" stroke="#707070" d="M456.45,-357.41C543.47,-387.32 690.43,-421.96 800,-366 830.44,-350.45 852.26,-317.84 865.77,-291.47"/>
<polygon fill="#707070" stroke="#707070" points="868.81,-293.23 870.06,-282.71 862.52,-290.16 868.81,-293.23"/>
</g>
<!-- Subnet::vpc::subnet&#45;private1&#45;us&#45;east&#45;1a -->
<g id="node4" class="node">
<title>Subnet::vpc::subnet&#45;private1&#45;us&#45;east&#45;1a</title>
<polygon fill="#e5e5e5" stroke="#dddddd" points="800,-357 547,-357 547,-299 800,-299 800,-357"/>
<text text-anchor="start" x="559.5" y="-337.2" font-family="Helvetica,sans-Serif" font-weight="bold" font-size="16.00" fill="#707070">EC2::Subnet</text>
<text text-anchor="start" x="559.5" y="-312.2" font-family="Helvetica,sans-Serif" font-size="16.00" fill="#383838">vpc::subnet&#45;private1&#45;us&#45;east&#45;1a</text>
</g>
<!-- Cluster::cluster::vpc&#45;&gt;Subnet::vpc::subnet&#45;private1&#45;us&#45;east&#45;1a -->
<g id="edge2" class="edge">
<title>Cluster::cluster::vpc&#45;&gt;Subnet::vpc::subnet&#45;private1&#45;us&#45;east&#45;1a</title>
<path fill="none" stroke="#707070" d="M477.39,-328C495.88,-328 515.61,-328 535.16,-328"/>
<polygon fill="#707070" stroke="#707070" points="535.13,-331.5 545.13,-328 535.13,-324.5 535.13,-331.5"/>
</g>
<!-- Subnet::vpc::subnet&#45;private2&#45;us&#45;east&#45;1b -->
<g id="node5" class="node">
<title>Subnet::vpc::subnet&#45;private2&#45;us&#45;east&#45;1b</title>
<polygon fill="#e5e5e5" stroke="#dddddd" points="800,-205 547,-205 547,-147 800,-147 800,-205"/>
<text text-anchor="start" x="559.5" y="-185.2" font-family="Helvetica,sans-Serif" font-weight="bold" font-size="16.00" fill="#707070">EC2::Subnet</text>
<text text-anchor="start" x="559.5" y="-160.2" font-family="Helvetica,sans-Serif" font-size="16.00" fill="#383838">vpc::subnet&#45;private2&#45;us&#45;east&#45;1b</text>
</g>
<!-- Cluster::cluster::vpc&#45;&gt;Subnet::vpc::subnet&#45;private2&#45;us&#45;east&#45;1b -->
<g id="edge3" class="edge">
<title>Cluster::cluster::vpc&#45;&gt;Subnet::vpc::subnet&#45;private2&#45;us&#45;east&#45;1b</title>
<path fill="none" stroke="#707070" d="M477.26,-310.13C489.47,-305.02 501.14,-298.45 511,-290 539.38,-265.68 518.69,-238.4 547,-214 547.79,-213.32 548.6,-212.65 549.41,-211.99"/>
<polygon fill="#707070" stroke="#707070" points="551.27,-214.97 557.32,-206.27 547.17,-209.29 551.27,-214.97"/>
</g>
<!-- Hsm::cluster::vpc::us&#45;east&#45;1a -->
<g id="node2" class="node">
<title>Hsm::cluster::vpc::us&#45;east&#45;1a</title>
<polygon fill="#e5e5e5" stroke="#dddddd" points="217,-357 24,-357 24,-299 217,-299 217,-357"/>
<text text-anchor="start" x="36.5" y="-337.2" font-family="Helvetica,sans-Serif" font-weight="bold" font-size="16.00" fill="#707070">CloudHSMV2::Hsm</text>
<text text-anchor="start" x="36.5" y="-312.2" font-family="Helvetica,sans-Serif" font-size="16.00" fill="#383838">cluster::vpc::us&#45;east&#45;1a</text>
</g>
<!-- Hsm::cluster::vpc::us&#45;east&#45;1a&#45;&gt;Cluster::cluster::vpc -->
<g id="edge4" class="edge">
<title>Hsm::cluster::vpc::us&#45;east&#45;1a&#45;&gt;Cluster::cluster::vpc</title>
<path fill="none" stroke="#707070" d="M217.39,-328C236.25,-328 256.14,-328 275.3,-328"/>
<polygon fill="#707070" stroke="#707070" points="275.29,-331.5 285.29,-328 275.29,-324.5 275.29,-331.5"/>
</g>
<!-- Subnet::vpc::subnet&#45;private1&#45;us&#45;east&#45;1a&#45;&gt;Vpc::vpc -->
<g id="edge5" class="edge">
<title>Subnet::vpc::subnet&#45;private1&#45;us&#45;east&#45;1a&#45;&gt;Vpc::vpc</title>
<path fill="none" stroke="#707070" d="M775.94,-298.6C784.13,-295.83 792.23,-292.95 800,-290 808.38,-286.82 817.12,-283.17 825.63,-279.43"/>
<polygon fill="#707070" stroke="#707070" points="826.79,-282.74 834.48,-275.46 823.92,-276.36 826.79,-282.74"/>
</g>
<!-- Subnet::vpc::subnet&#45;private2&#45;us&#45;east&#45;1b&#45;&gt;Vpc::vpc -->
<g id="edge6" class="edge">
<title>Subnet::vpc::subnet&#45;private2&#45;us&#45;east&#45;1b&#45;&gt;Vpc::vpc</title>
<path fill="none" stroke="#707070" d="M775.94,-205.4C784.13,-208.17 792.23,-211.05 800,-214 808.38,-217.18 817.12,-220.83 825.63,-224.57"/>
<polygon fill="#707070" stroke="#707070" points="823.92,-227.64 834.48,-228.54 826.79,-221.26 823.92,-227.64"/>
</g>
<!-- RouteTable::vpc::rtb&#45;private1&#45;us&#45;east&#45;1a -->
<g id="node6" class="node">
<title>RouteTable::vpc::rtb&#45;private1&#45;us&#45;east&#45;1a</title>
<polygon fill="#e5e5e5" stroke="#dddddd" points="785,-281 562,-281 562,-223 785,-223 785,-281"/>
<text text-anchor="start" x="574.5" y="-261.2" font-family="Helvetica,sans-Serif" font-weight="bold" font-size="16.00" fill="#707070">EC2::RouteTable</text>
<text text-anchor="start" x="574.5" y="-236.2" font-family="Helvetica,sans-Serif" font-size="16.00" fill="#383838">vpc::rtb&#45;private1&#45;us&#45;east&#45;1a</text>
</g>
<!-- RouteTable::vpc::rtb&#45;private1&#45;us&#45;east&#45;1a&#45;&gt;Vpc::vpc -->
<g id="edge7" class="edge">
<title>RouteTable::vpc::rtb&#45;private1&#45;us&#45;east&#45;1a&#45;&gt;Vpc::vpc</title>
<path fill="none" stroke="#707070" d="M785.2,-252C798.73,-252 812.1,-252 824.41,-252"/>
<polygon fill="#707070" stroke="#707070" points="824.33,-255.5 834.33,-252 824.33,-248.5 824.33,-255.5"/>
</g>
<!-- RouteTable::vpc::rtb&#45;private2&#45;us&#45;east&#45;1b -->
<g id="node7" class="node">
<title>RouteTable::vpc::rtb&#45;private2&#45;us&#45;east&#45;1b</title>
<polygon fill="#e5e5e5" stroke="#dddddd" points="785,-129 562,-129 562,-71 785,-71 785,-129"/>
<text text-anchor="start" x="574.5" y="-109.2" font-family="Helvetica,sans-Serif" font-weight="bold" font-size="16.00" fill="#707070">EC2::RouteTable</text>
<text text-anchor="start" x="574.5" y="-84.2" font-family="Helvetica,sans-Serif" font-size="16.00" fill="#383838">vpc::rtb&#45;private2&#45;us&#45;east&#45;1b</text>
</g>
<!-- RouteTable::vpc::rtb&#45;private2&#45;us&#45;east&#45;1b&#45;&gt;Vpc::vpc -->
<g id="edge8" class="edge">
<title>RouteTable::vpc::rtb&#45;private2&#45;us&#45;east&#45;1b&#45;&gt;Vpc::vpc</title>
<path fill="none" stroke="#707070" d="M785.32,-128.92C790.44,-131.68 795.37,-134.7 800,-138 826.93,-157.19 848.44,-187.96 862.74,-212.69"/>
<polygon fill="#707070" stroke="#707070" points="859.57,-214.18 867.5,-221.21 865.68,-210.77 859.57,-214.18"/>
</g>
<!-- RouteTableAssociation::rt&#45;assoc::vpc::rtb&#45;private1&#45;us&#45;east&#45;1a::vpc::subnet&#45;private1&#45;us&#45;east&#45;1a -->
<g id="node8" class="node">
<title>RouteTableAssociation::rt&#45;assoc::vpc::rtb&#45;private1&#45;us&#45;east&#45;1a::vpc::subnet&#45;private1&#45;us&#45;east&#45;1a</title>
<polygon fill="#e5e5e5" stroke="#dddddd" points="511,-281 253,-281 253,-223 511,-223 511,-281"/>
<text text-anchor="start" x="265" y="-261.2" font-family="Helvetica,sans-Serif" font-weight="bold" font-size="16.00" fill="#707070">EC2::RouteTableAssociation</text>
<text text-anchor="start" x="265" y="-236.2" font-family="Helvetica,sans-Serif" font-size="16.00" fill="#383838">rt&#45;assoc::vpc::rtb&#45;private1&#45;us&#45;e...</text>
</g>
<!-- RouteTableAssociation::rt&#45;assoc::vpc::rtb&#45;private1&#45;us&#45;east&#45;1a::vpc::subnet&#45;private1&#45;us&#45;east&#45;1a&#45;&gt;Subnet::vpc::subnet&#45;private1&#45;us&#45;east&#45;1a -->
<g id="edge10" class="edge">
<title>RouteTableAssociation::rt&#45;assoc::vpc::rtb&#45;private1&#45;us&#45;east&#45;1a::vpc::subnet&#45;private1&#45;us&#45;east&#45;1a&#45;&gt;Subnet::vpc::subnet&#45;private1&#45;us&#45;east&#45;1a</title>
<path fill="none" stroke="#707070" d="M495.34,-281.49C512.98,-286.12 531.29,-290.93 549.16,-295.62"/>
<polygon fill="#707070" stroke="#707070" points="548.2,-298.99 558.76,-298.14 549.97,-292.22 548.2,-298.99"/>
</g>
<!-- RouteTableAssociation::rt&#45;assoc::vpc::rtb&#45;private1&#45;us&#45;east&#45;1a::vpc::subnet&#45;private1&#45;us&#45;east&#45;1a&#45;&gt;RouteTable::vpc::rtb&#45;private1&#45;us&#45;east&#45;1a -->
<g id="edge9" class="edge">
<title>RouteTableAssociation::rt&#45;assoc::vpc::rtb&#45;private1&#45;us&#45;east&#45;1a::vpc::subnet&#45;private1&#45;us&#45;east&#45;1a&#45;&gt;RouteTable::vpc::rtb&#45;private1&#45;us&#45;east&#45;1a</title>
<path fill="none" stroke="#707070" d="M511.24,-252C524.23,-252 537.39,-252 550.31,-252"/>
<polygon fill="#707070" stroke="#707070" points="550.07,-255.5 560.07,-252 550.07,-248.5 550.07,-255.5"/>
</g>
<!-- RouteTableAssociation::rt&#45;assoc::vpc::rtb&#45;private2&#45;us&#45;east&#45;1b::vpc::subnet&#45;private2&#45;us&#45;east&#45;1b -->
<g id="node9" class="node">
<title>RouteTableAssociation::rt&#45;assoc::vpc::rtb&#45;private2&#45;us&#45;east&#45;1b::vpc::subnet&#45;private2&#45;us&#45;east&#45;1b</title>
<polygon fill="#e5e5e5" stroke="#dddddd" points="511,-167 253,-167 253,-109 511,-109 511,-167"/>
<text text-anchor="start" x="265" y="-147.2" font-family="Helvetica,sans-Serif" font-weight="bold" font-size="16.00" fill="#707070">EC2::RouteTableAssociation</text>
<text text-anchor="start" x="265" y="-122.2" font-family="Helvetica,sans-Serif" font-size="16.00" fill="#383838">rt&#45;assoc::vpc::rtb&#45;private2&#45;us&#45;e...</text>
</g>
<!-- RouteTableAssociation::rt&#45;assoc::vpc::rtb&#45;private2&#45;us&#45;east&#45;1b::vpc::subnet&#45;private2&#45;us&#45;east&#45;1b&#45;&gt;Subnet::vpc::subnet&#45;private2&#45;us&#45;east&#45;1b -->
<g id="edge12" class="edge">
<title>RouteTableAssociation::rt&#45;assoc::vpc::rtb&#45;private2&#45;us&#45;east&#45;1b::vpc::subnet&#45;private2&#45;us&#45;east&#45;1b&#45;&gt;Subnet::vpc::subnet&#45;private2&#45;us&#45;east&#45;1b</title>
<path fill="none" stroke="#707070" d="M511.24,-154.83C519.26,-155.89 527.35,-156.95 535.4,-158"/>
<polygon fill="#707070" stroke="#707070" points="534.89,-161.47 545.26,-159.3 535.8,-154.53 534.89,-161.47"/>
</g>
<!-- RouteTableAssociation::rt&#45;assoc::vpc::rtb&#45;private2&#45;us&#45;east&#45;1b::vpc::subnet&#45;private2&#45;us&#45;east&#45;1b&#45;&gt;RouteTable::vpc::rtb&#45;private2&#45;us&#45;east&#45;1b -->
<g id="edge11" class="edge">
<title>RouteTableAssociation::rt&#45;assoc::vpc::rtb&#45;private2&#45;us&#45;east&#45;1b::vpc::subnet&#45;private2&#45;us&#45;east&#45;1b&#45;&gt;RouteTable::vpc::rtb&#45;private2&#45;us&#45;east&#45;1b</title>
<path fill="none" stroke="#707070" d="M511.24,-121.17C524.23,-119.46 537.39,-117.73 550.31,-116.04"/>
<polygon fill="#707070" stroke="#707070" points="550.63,-119.53 560.09,-114.76 549.72,-112.59 550.63,-119.53"/>
</g>
</g>
</svg>
