<?xml version="1.0" encoding="UTF-8" standalone="no"?>
<!DOCTYPE svg PUBLIC "-//W3C//DTD SVG 1.1//EN"
 "http://www.w3.org/Graphics/SVG/1.1/DTD/svg11.dtd">
<!-- Generated by graphviz version 8.0.3 (20230416.2022)
 -->
<!-- Title: graphname Pages: 1 -->
<svg width="963pt" height="485pt"
 viewBox="0.00 0.00 963.00 485.00" xmlns="http://www.w3.org/2000/svg" xmlns:xlink="http://www.w3.org/1999/xlink">
<g id="graph0" class="graph" transform="scale(1 1) rotate(0) translate(4 481)">
<title>graphname</title>
<polygon fill="#fafafa" stroke="none" points="-4,4 -4,-481 959,-481 959,4 -4,4"/>
<text text-anchor="start" x="373.5" y="-452.4" font-family="Helvetica,sans-Serif" font-weight="bold" font-size="22.00" fill="#383838">Project cloudhsmv2</text>
<text text-anchor="start" x="473.5" y="-436.8" font-family="Helvetica,sans-Serif" font-size="14.00"> &#160;</text>
<text text-anchor="start" x="373.5" y="-415.2" font-family="Helvetica,sans-Serif" font-weight="bold" font-size="16.00" fill="#707070">Target Diagram</text>
<g id="clust1" class="cluster">
<title>cluster_aws</title>
<polygon fill="#f5f5f5" stroke="#f5f5f5" points="8,-8 8,-393 947,-393 947,-8 8,-8"/>
<text text-anchor="start" x="415.5" y="-23" font-family="Helvetica,sans-Serif" font-weight="bold" font-size="20.00" fill="#707070">Provider aws</text>
</g>
<g id="clust2" class="cluster">
<title>cluster_aws_</title>
<polygon fill="#eeeeee" stroke="#eeeeee" points="16,-54 16,-385 939,-385 939,-54 16,-54"/>
<text text-anchor="start" x="477.36" y="-58.3" font-family="Helvetica,sans-Serif" font-size="1.00" fill="#383838"> </text>
</g>
<!-- Cluster::cluster::vpc -->
<g id="node1" class="node">
<title>Cluster::cluster::vpc</title>
<polygon fill="#e5e5e5" stroke="#dddddd" points="477,-357 287,-357 287,-299 477,-299 477,-357"/>
<text text-anchor="start" x="299" y="-337.2" font-family="Helvetica,sans-Serif" font-weight="bold" font-size="16.00" fill="#707070">CloudHSMV2::Cluster</text>
<text text-anchor="start" x="299" y="-312.2" font-family="Helvetica,sans-Serif" font-size="16.00" fill="#383838">cluster::vpc</text>
</g>
<!-- Vpc::vpc -->
<g id="node3" class="node">
<title>Vpc::vpc</title>
<polygon fill="#e5e5e5" stroke="#dddddd" points="931,-281 836,-281 836,-223 931,-223 931,-281"/>
<text text-anchor="start" x="848" y="-261.2" font-family="Helvetica,sans-Serif" font-weight="bold" font-size="16.00" fill="#707070">EC2::Vpc</text>
<text text-anchor="start" x="848" y="-236.2" font-family="Helvetica,sans-Serif" font-size="16.00" fill="#383838">vpc</text>
</g>
<!-- Cluster::cluster::vpc&#45;&gt;Vpc::vpc -->
<g id="edge1" class="edge">
<title>Cluster::cluster::vpc&#45;&gt;Vpc::vpc</title>
<path fill="none" stroke="#707070" d="M456.45,-357.41C543.47,-387.32 690.43,-421.96 800,-366 830.58,-350.38 852.45,-317.55 865.95,-291.12"/>
<polygon fill="#707070" stroke="#707070" points="869.48,-292.87 870.72,-282.35 863.19,-289.8 869.48,-292.87"/>
</g>
<!-- Subnet::vpc::subnet&#45;private1&#45;us&#45;east&#45;1a -->
<g id="node4" class="node">
<title>Subnet::vpc::subnet&#45;private1&#45;us&#45;east&#45;1a</title>
<polygon fill="#e5e5e5" stroke="#dddddd" points="800,-357 547,-357 547,-299 800,-299 800,-357"/>
<text text-anchor="start" x="559" y="-337.2" font-family="Helvetica,sans-Serif" font-weight="bold" font-size="16.00" fill="#707070">EC2::Subnet</text>
<text text-anchor="start" x="559" y="-312.2" font-family="Helvetica,sans-Serif" font-size="16.00" fill="#383838">vpc::subnet&#45;private1&#45;us&#45;east&#45;1a</text>
</g>
<!-- Cluster::cluster::vpc&#45;&gt;Subnet::vpc::subnet&#45;private1&#45;us&#45;east&#45;1a -->
<g id="edge2" class="edge">
<title>Cluster::cluster::vpc&#45;&gt;Subnet::vpc::subnet&#45;private1&#45;us&#45;east&#45;1a</title>
<path fill="none" stroke="#707070" d="M477.39,-328C496.05,-328 515.98,-328 535.71,-328"/>
<polygon fill="#707070" stroke="#707070" points="535.64,-331.5 545.64,-328 535.64,-324.5 535.64,-331.5"/>
</g>
<!-- Subnet::vpc::subnet&#45;private2&#45;us&#45;east&#45;1b -->
<g id="node5" class="node">
<title>Subnet::vpc::subnet&#45;private2&#45;us&#45;east&#45;1b</title>
<polygon fill="#e5e5e5" stroke="#dddddd" points="800,-205 547,-205 547,-147 800,-147 800,-205"/>
<text text-anchor="start" x="559" y="-185.2" font-family="Helvetica,sans-Serif" font-weight="bold" font-size="16.00" fill="#707070">EC2::Subnet</text>
<text text-anchor="start" x="559" y="-160.2" font-family="Helvetica,sans-Serif" font-size="16.00" fill="#383838">vpc::subnet&#45;private2&#45;us&#45;east&#45;1b</text>
</g>
<!-- Cluster::cluster::vpc&#45;&gt;Subnet::vpc::subnet&#45;private2&#45;us&#45;east&#45;1b -->
<g id="edge3" class="edge">
<title>Cluster::cluster::vpc&#45;&gt;Subnet::vpc::subnet&#45;private2&#45;us&#45;east&#45;1b</title>
<path fill="none" stroke="#707070" d="M477.26,-310.13C489.47,-305.02 501.14,-298.45 511,-290 539.38,-265.68 518.69,-238.4 547,-214 547.91,-213.22 548.83,-212.46 549.76,-211.71"/>
<polygon fill="#707070" stroke="#707070" points="551.48,-214.07 557.55,-205.39 547.39,-208.38 551.48,-214.07"/>
</g>
<!-- Hsm::cluster::vpc::us&#45;east&#45;1a -->
<g id="node2" class="node">
<title>Hsm::cluster::vpc::us&#45;east&#45;1a</title>
<polygon fill="#e5e5e5" stroke="#dddddd" points="217,-357 24,-357 24,-299 217,-299 217,-357"/>
<text text-anchor="start" x="36" y="-337.2" font-family="Helvetica,sans-Serif" font-weight="bold" font-size="16.00" fill="#707070">CloudHSMV2::Hsm</text>
<text text-anchor="start" x="36" y="-312.2" font-family="Helvetica,sans-Serif" font-size="16.00" fill="#383838">cluster::vpc::us&#45;east&#45;1a</text>
</g>
<!-- Hsm::cluster::vpc::us&#45;east&#45;1a&#45;&gt;Cluster::cluster::vpc -->
<g id="edge4" class="edge">
<title>Hsm::cluster::vpc::us&#45;east&#45;1a&#45;&gt;Cluster::cluster::vpc</title>
<path fill="none" stroke="#707070" d="M217.39,-328C236.43,-328 256.51,-328 275.84,-328"/>
<polygon fill="#707070" stroke="#707070" points="275.8,-331.5 285.8,-328 275.8,-324.5 275.8,-331.5"/>
</g>
<!-- Subnet::vpc::subnet&#45;private1&#45;us&#45;east&#45;1a&#45;&gt;Vpc::vpc -->
<g id="edge5" class="edge">
<title>Subnet::vpc::subnet&#45;private1&#45;us&#45;east&#45;1a&#45;&gt;Vpc::vpc</title>
<path fill="none" stroke="#707070" d="M775.94,-298.6C784.13,-295.83 792.23,-292.95 800,-290 808.48,-286.78 817.31,-283.09 825.91,-279.31"/>
<polygon fill="#707070" stroke="#707070" points="827.17,-282.13 834.86,-274.84 824.3,-275.74 827.17,-282.13"/>
</g>
<!-- Subnet::vpc::subnet&#45;private2&#45;us&#45;east&#45;1b&#45;&gt;Vpc::vpc -->
<g id="edge6" class="edge">
<title>Subnet::vpc::subnet&#45;private2&#45;us&#45;east&#45;1b&#45;&gt;Vpc::vpc</title>
<path fill="none" stroke="#707070" d="M775.94,-205.4C784.13,-208.17 792.23,-211.05 800,-214 808.48,-217.22 817.31,-220.91 825.91,-224.69"/>
<polygon fill="#707070" stroke="#707070" points="824.3,-228.26 834.86,-229.16 827.17,-221.87 824.3,-228.26"/>
</g>
<!-- RouteTable::vpc::rtb&#45;private1&#45;us&#45;east&#45;1a -->
<g id="node6" class="node">
<title>RouteTable::vpc::rtb&#45;private1&#45;us&#45;east&#45;1a</title>
<polygon fill="#e5e5e5" stroke="#dddddd" points="785,-281 562,-281 562,-223 785,-223 785,-281"/>
<text text-anchor="start" x="574" y="-261.2" font-family="Helvetica,sans-Serif" font-weight="bold" font-size="16.00" fill="#707070">EC2::RouteTable</text>
<text text-anchor="start" x="574" y="-236.2" font-family="Helvetica,sans-Serif" font-size="16.00" fill="#383838">vpc::rtb&#45;private1&#45;us&#45;east&#45;1a</text>
</g>
<!-- RouteTable::vpc::rtb&#45;private1&#45;us&#45;east&#45;1a&#45;&gt;Vpc::vpc -->
<g id="edge7" class="edge">
<title>RouteTable::vpc::rtb&#45;private1&#45;us&#45;east&#45;1a&#45;&gt;Vpc::vpc</title>
<path fill="none" stroke="#707070" d="M785.2,-252C799.01,-252 812.65,-252 825.17,-252"/>
<polygon fill="#707070" stroke="#707070" points="824.85,-255.5 834.85,-252 824.84,-248.5 824.85,-255.5"/>
</g>
<!-- RouteTable::vpc::rtb&#45;private2&#45;us&#45;east&#45;1b -->
<g id="node7" class="node">
<title>RouteTable::vpc::rtb&#45;private2&#45;us&#45;east&#45;1b</title>
<polygon fill="#e5e5e5" stroke="#dddddd" points="785,-129 562,-129 562,-71 785,-71 785,-129"/>
<text text-anchor="start" x="574" y="-109.2" font-family="Helvetica,sans-Serif" font-weight="bold" font-size="16.00" fill="#707070">EC2::RouteTable</text>
<text text-anchor="start" x="574" y="-84.2" font-family="Helvetica,sans-Serif" font-size="16.00" fill="#383838">vpc::rtb&#45;private2&#45;us&#45;east&#45;1b</text>
</g>
<!-- RouteTable::vpc::rtb&#45;private2&#45;us&#45;east&#45;1b&#45;&gt;Vpc::vpc -->
<g id="edge8" class="edge">
<title>RouteTable::vpc::rtb&#45;private2&#45;us&#45;east&#45;1b&#45;&gt;Vpc::vpc</title>
<path fill="none" stroke="#707070" d="M785.32,-128.92C790.44,-131.68 795.37,-134.7 800,-138 827.05,-157.28 848.64,-188.23 862.93,-213.02"/>
<polygon fill="#707070" stroke="#707070" points="860.31,-214.5 868.24,-221.53 866.42,-211.09 860.31,-214.5"/>
</g>
<!-- RouteTableAssociation::rt&#45;assoc::vpc::rtb&#45;private1&#45;us&#45;east&#45;1a::vpc::subnet&#45;private1&#45;us&#45;east&#45;1a -->
<g id="node8" class="node">
<title>RouteTableAssociation::rt&#45;assoc::vpc::rtb&#45;private1&#45;us&#45;east&#45;1a::vpc::subnet&#45;private1&#45;us&#45;east&#45;1a</title>
<polygon fill="#e5e5e5" stroke="#dddddd" points="511,-281 253,-281 253,-223 511,-223 511,-281"/>
<text text-anchor="start" x="265" y="-261.2" font-family="Helvetica,sans-Serif" font-weight="bold" font-size="16.00" fill="#707070">EC2::RouteTableAssociation</text>
<text text-anchor="start" x="265" y="-236.2" font-family="Helvetica,sans-Serif" font-size="16.00" fill="#383838">rt&#45;assoc::vpc::rtb&#45;private1&#45;us&#45;e...</text>
</g>
<!-- RouteTableAssociation::rt&#45;assoc::vpc::rtb&#45;private1&#45;us&#45;east&#45;1a::vpc::subnet&#45;private1&#45;us&#45;east&#45;1a&#45;&gt;Subnet::vpc::subnet&#45;private1&#45;us&#45;east&#45;1a -->
<g id="edge10" class="edge">
<title>RouteTableAssociation::rt&#45;assoc::vpc::rtb&#45;private1&#45;us&#45;east&#45;1a::vpc::subnet&#45;private1&#45;us&#45;east&#45;1a&#45;&gt;Subnet::vpc::subnet&#45;private1&#45;us&#45;east&#45;1a</title>
<path fill="none" stroke="#707070" d="M495.34,-281.49C513.15,-286.17 531.64,-291.02 549.67,-295.75"/>
<polygon fill="#707070" stroke="#707070" points="548.66,-299.37 559.22,-298.52 550.44,-292.6 548.66,-299.37"/>
</g>
<!-- RouteTableAssociation::rt&#45;assoc::vpc::rtb&#45;private1&#45;us&#45;east&#45;1a::vpc::subnet&#45;private1&#45;us&#45;east&#45;1a&#45;&gt;RouteTable::vpc::rtb&#45;private1&#45;us&#45;east&#45;1a -->
<g id="edge9" class="edge">
<title>RouteTableAssociation::rt&#45;assoc::vpc::rtb&#45;private1&#45;us&#45;east&#45;1a::vpc::subnet&#45;private1&#45;us&#45;east&#45;1a&#45;&gt;RouteTable::vpc::rtb&#45;private1&#45;us&#45;east&#45;1a</title>
<path fill="none" stroke="#707070" d="M511.24,-252C524.36,-252 537.66,-252 550.7,-252"/>
<polygon fill="#707070" stroke="#707070" points="550.59,-255.5 560.59,-252 550.59,-248.5 550.59,-255.5"/>
</g>
<!-- RouteTableAssociation::rt&#45;assoc::vpc::rtb&#45;private2&#45;us&#45;east&#45;1b::vpc::subnet&#45;private2&#45;us&#45;east&#45;1b -->
<g id="node9" class="node">
<title>RouteTableAssociation::rt&#45;assoc::vpc::rtb&#45;private2&#45;us&#45;east&#45;1b::vpc::subnet&#45;private2&#45;us&#45;east&#45;1b</title>
<polygon fill="#e5e5e5" stroke="#dddddd" points="511,-167 253,-167 253,-109 511,-109 511,-167"/>
<text text-anchor="start" x="265" y="-147.2" font-family="Helvetica,sans-Serif" font-weight="bold" font-size="16.00" fill="#707070">EC2::RouteTableAssociation</text>
<text text-anchor="start" x="265" y="-122.2" font-family="Helvetica,sans-Serif" font-size="16.00" fill="#383838">rt&#45;assoc::vpc::rtb&#45;private2&#45;us&#45;e...</text>
</g>
<!-- RouteTableAssociation::rt&#45;assoc::vpc::rtb&#45;private2&#45;us&#45;east&#45;1b::vpc::subnet&#45;private2&#45;us&#45;east&#45;1b&#45;&gt;Subnet::vpc::subnet&#45;private2&#45;us&#45;east&#45;1b -->
<g id="edge12" class="edge">
<title>RouteTableAssociation::rt&#45;assoc::vpc::rtb&#45;private2&#45;us&#45;east&#45;1b::vpc::subnet&#45;private2&#45;us&#45;east&#45;1b&#45;&gt;Subnet::vpc::subnet&#45;private2&#45;us&#45;east&#45;1b</title>
<path fill="none" stroke="#707070" d="M511.24,-154.83C519.45,-155.91 527.72,-157 535.96,-158.08"/>
<polygon fill="#707070" stroke="#707070" points="535.39,-161.66 545.76,-159.5 536.3,-154.72 535.39,-161.66"/>
</g>
<!-- RouteTableAssociation::rt&#45;assoc::vpc::rtb&#45;private2&#45;us&#45;east&#45;1b::vpc::subnet&#45;private2&#45;us&#45;east&#45;1b&#45;&gt;RouteTable::vpc::rtb&#45;private2&#45;us&#45;east&#45;1b -->
<g id="edge11" class="edge">
<title>RouteTableAssociation::rt&#45;assoc::vpc::rtb&#45;private2&#45;us&#45;east&#45;1b::vpc::subnet&#45;private2&#45;us&#45;east&#45;1b&#45;&gt;RouteTable::vpc::rtb&#45;private2&#45;us&#45;east&#45;1b</title>
<path fill="none" stroke="#707070" d="M511.24,-121.17C524.36,-119.45 537.66,-117.7 550.7,-115.99"/>
<polygon fill="#707070" stroke="#707070" points="551.13,-119.33 560.59,-114.56 550.22,-112.39 551.13,-119.33"/>
</g>
</g>
</svg>
