<?xml version="1.0" encoding="UTF-8" standalone="no"?>
<!DOCTYPE svg PUBLIC "-//W3C//DTD SVG 1.1//EN"
 "http://www.w3.org/Graphics/SVG/1.1/DTD/svg11.dtd">
<!-- Generated by graphviz version 3.0.0 (20220226.1711)
 -->
<!-- Title: graphname Pages: 1 -->
<svg width="812pt" height="237pt"
 viewBox="0.00 0.00 812.00 237.00" xmlns="http://www.w3.org/2000/svg" xmlns:xlink="http://www.w3.org/1999/xlink">
<g id="graph0" class="graph" transform="scale(1 1) rotate(0) translate(4 233)">
<title>graphname</title>
<polygon fill="#fafafa" stroke="transparent" points="-4,4 -4,-233 808,-233 808,4 -4,4"/>
<text text-anchor="start" x="311" y="-204.4" font-family="Helvetica,sans-Serif" font-weight="bold" font-size="22.00" fill="#383838">Project txt&#45;record</text>
<text text-anchor="start" x="398.5" y="-188.8" font-family="Helvetica,sans-Serif" font-size="14.00"> &#160;</text>
<text text-anchor="start" x="311" y="-167.2" font-family="Helvetica,sans-Serif" font-weight="bold" font-size="16.00" fill="#707070">Target Diagram</text>
<g id="clust1" class="cluster">
<title>cluster_aws</title>
<polygon fill="#f5f5f5" stroke="#f5f5f5" points="8,-8 8,-145 796,-145 796,-8 8,-8"/>
<text text-anchor="start" x="340" y="-23" font-family="Helvetica,sans-Serif" font-weight="bold" font-size="20.00" fill="#707070">Provider aws</text>
</g>
<g id="clust2" class="cluster">
<title>cluster_aws_</title>
<polygon fill="#eeeeee" stroke="#eeeeee" points="16,-54 16,-137 788,-137 788,-54 16,-54"/>
<text text-anchor="start" x="401.86" y="-58.3" font-family="Helvetica,sans-Serif" font-size="1.00" fill="#383838"> </text>
</g>
<!-- HostedZone::grucloud.org. -->
<g id="node1" class="node">
<title>HostedZone::grucloud.org.</title>
<polygon fill="#e5e5e5" stroke="#dddddd" points="520,-129 330,-129 330,-71 520,-71 520,-129"/>
<text text-anchor="start" x="342" y="-109.2" font-family="Helvetica,sans-Serif" font-weight="bold" font-size="16.00" fill="#707070">Route53::HostedZone</text>
<text text-anchor="start" x="342" y="-84.2" font-family="Helvetica,sans-Serif" font-size="16.00" fill="#383838">grucloud.org.</text>
</g>
<!-- Domain::grucloud.org -->
<g id="node3" class="node">
<title>Domain::grucloud.org</title>
<polygon fill="#e5e5e5" stroke="#dddddd" points="780,-129 556,-129 556,-71 780,-71 780,-129"/>
<text text-anchor="start" x="568" y="-109.2" font-family="Helvetica,sans-Serif" font-weight="bold" font-size="16.00" fill="#707070">Route53Domains::Domain</text>
<text text-anchor="start" x="568" y="-84.2" font-family="Helvetica,sans-Serif" font-size="16.00" fill="#383838">grucloud.org</text>
</g>
<!-- HostedZone::grucloud.org.&#45;&gt;Domain::grucloud.org -->
<g id="edge1" class="edge">
<title>HostedZone::grucloud.org.&#45;&gt;Domain::grucloud.org</title>
<path fill="none" stroke="#707070" d="M520.21,-100C528.56,-100 537.09,-100 545.62,-100"/>
<polygon fill="#707070" stroke="#707070" points="545.63,-103.5 555.63,-100 545.63,-96.5 545.63,-103.5"/>
</g>
<!-- Record::record::TXT::gcrun.grucloud.org. -->
<g id="node2" class="node">
<title>Record::record::TXT::gcrun.grucloud.org.</title>
<polygon fill="#e5e5e5" stroke="#dddddd" points="294,-129 24,-129 24,-71 294,-71 294,-129"/>
<text text-anchor="start" x="36" y="-109.2" font-family="Helvetica,sans-Serif" font-weight="bold" font-size="16.00" fill="#707070">Route53::Record</text>
<text text-anchor="start" x="36" y="-84.2" font-family="Helvetica,sans-Serif" font-size="16.00" fill="#383838">record::TXT::gcrun.grucloud.org....</text>
</g>
<!-- Record::record::TXT::gcrun.grucloud.org.&#45;&gt;HostedZone::grucloud.org. -->
<g id="edge2" class="edge">
<title>Record::record::TXT::gcrun.grucloud.org.&#45;&gt;HostedZone::grucloud.org.</title>
<path fill="none" stroke="#707070" d="M294.32,-100C302.83,-100 311.33,-100 319.68,-100"/>
<polygon fill="#707070" stroke="#707070" points="319.77,-103.5 329.77,-100 319.77,-96.5 319.77,-103.5"/>
</g>
</g>
</svg>
