<?xml version="1.0" encoding="UTF-8" standalone="no"?>
<!DOCTYPE svg PUBLIC "-//W3C//DTD SVG 1.1//EN"
 "http://www.w3.org/Graphics/SVG/1.1/DTD/svg11.dtd">
<!-- Generated by graphviz version 3.0.0 (20220226.1711)
 -->
<!-- Title: graphname Pages: 1 -->
<svg width="812pt" height="389pt"
 viewBox="0.00 0.00 812.00 389.00" xmlns="http://www.w3.org/2000/svg" xmlns:xlink="http://www.w3.org/1999/xlink">
<g id="graph0" class="graph" transform="scale(1 1) rotate(0) translate(4 385)">
<title>graphname</title>
<polygon fill="#fafafa" stroke="transparent" points="-4,4 -4,-385 808,-385 808,4 -4,4"/>
<text text-anchor="start" x="311" y="-356.4" font-family="Helvetica,sans-Serif" font-weight="bold" font-size="22.00" fill="#383838">Project txt&#45;record</text>
<text text-anchor="start" x="398.5" y="-340.8" font-family="Helvetica,sans-Serif" font-size="14.00"> &#160;</text>
<text text-anchor="start" x="311" y="-319.2" font-family="Helvetica,sans-Serif" font-weight="bold" font-size="16.00" fill="#707070">Live Diagram</text>
<g id="clust1" class="cluster">
<title>cluster_aws</title>
<polygon fill="#f5f5f5" stroke="#f5f5f5" points="8,-8 8,-297 796,-297 796,-8 8,-8"/>
<text text-anchor="start" x="340" y="-23" font-family="Helvetica,sans-Serif" font-weight="bold" font-size="20.00" fill="#707070">Provider aws</text>
</g>
<g id="clust2" class="cluster">
<title>cluster_aws_</title>
<polygon fill="#eeeeee" stroke="#eeeeee" points="16,-54 16,-289 788,-289 788,-54 16,-54"/>
<text text-anchor="start" x="401.86" y="-58.3" font-family="Helvetica,sans-Serif" font-size="1.00" fill="#383838"> </text>
</g>
<!-- HostedZone::::grucloud.org. -->
<g id="node1" class="node">
<title>HostedZone::::grucloud.org.</title>
<polygon fill="#e5e5e5" stroke="#dddddd" points="520,-205 330,-205 330,-147 520,-147 520,-205"/>
<text text-anchor="start" x="342" y="-185.2" font-family="Helvetica,sans-Serif" font-weight="bold" font-size="16.00" fill="#707070">Route53::HostedZone</text>
<text text-anchor="start" x="342" y="-160.2" font-family="Helvetica,sans-Serif" font-size="16.00" fill="#383838">grucloud.org.</text>
</g>
<!-- Domain::::grucloud.org -->
<g id="node5" class="node">
<title>Domain::::grucloud.org</title>
<polygon fill="#e5e5e5" stroke="#dddddd" points="780,-205 556,-205 556,-147 780,-147 780,-205"/>
<text text-anchor="start" x="568" y="-185.2" font-family="Helvetica,sans-Serif" font-weight="bold" font-size="16.00" fill="#707070">Route53Domains::Domain</text>
<text text-anchor="start" x="568" y="-160.2" font-family="Helvetica,sans-Serif" font-size="16.00" fill="#383838">grucloud.org</text>
</g>
<!-- HostedZone::::grucloud.org.&#45;&gt;Domain::::grucloud.org -->
<g id="edge1" class="edge">
<title>HostedZone::::grucloud.org.&#45;&gt;Domain::::grucloud.org</title>
<path fill="none" stroke="#707070" d="M520.21,-176C528.56,-176 537.09,-176 545.62,-176"/>
<polygon fill="#707070" stroke="#707070" points="545.63,-179.5 555.63,-176 545.63,-172.5 545.63,-179.5"/>
</g>
<!-- Record::::record::NS::grucloud.org. -->
<g id="node2" class="node">
<title>Record::::record::NS::grucloud.org.</title>
<polygon fill="#e5e5e5" stroke="#dddddd" points="261.5,-281 56.5,-281 56.5,-223 261.5,-223 261.5,-281"/>
<text text-anchor="start" x="69" y="-261.2" font-family="Helvetica,sans-Serif" font-weight="bold" font-size="16.00" fill="#707070">Route53::Record</text>
<text text-anchor="start" x="69" y="-236.2" font-family="Helvetica,sans-Serif" font-size="16.00" fill="#383838">record::NS::grucloud.org.</text>
</g>
<!-- Record::::record::NS::grucloud.org.&#45;&gt;HostedZone::::grucloud.org. -->
<g id="edge2" class="edge">
<title>Record::::record::NS::grucloud.org.&#45;&gt;HostedZone::::grucloud.org.</title>
<path fill="none" stroke="#707070" d="M261.72,-223.25C272.62,-220.14 283.54,-217.01 294,-214 302.55,-211.54 311.4,-208.98 320.3,-206.39"/>
<polygon fill="#707070" stroke="#707070" points="321.32,-209.74 329.94,-203.59 319.36,-203.02 321.32,-209.74"/>
</g>
<!-- Record::::record::SOA::grucloud.org. -->
<g id="node3" class="node">
<title>Record::::record::SOA::grucloud.org.</title>
<polygon fill="#e5e5e5" stroke="#dddddd" points="267.5,-205 50.5,-205 50.5,-147 267.5,-147 267.5,-205"/>
<text text-anchor="start" x="63" y="-185.2" font-family="Helvetica,sans-Serif" font-weight="bold" font-size="16.00" fill="#707070">Route53::Record</text>
<text text-anchor="start" x="63" y="-160.2" font-family="Helvetica,sans-Serif" font-size="16.00" fill="#383838">record::SOA::grucloud.org.</text>
</g>
<!-- Record::::record::SOA::grucloud.org.&#45;&gt;HostedZone::::grucloud.org. -->
<g id="edge3" class="edge">
<title>Record::::record::SOA::grucloud.org.&#45;&gt;HostedZone::::grucloud.org.</title>
<path fill="none" stroke="#707070" d="M267.76,-176C284.76,-176 302.32,-176 319.25,-176"/>
<polygon fill="#707070" stroke="#707070" points="319.7,-179.5 329.7,-176 319.7,-172.5 319.7,-179.5"/>
</g>
<!-- Record::::record::TXT::gcrun.grucloud.org. -->
<g id="node4" class="node">
<title>Record::::record::TXT::gcrun.grucloud.org.</title>
<polygon fill="#e5e5e5" stroke="#dddddd" points="294,-129 24,-129 24,-71 294,-71 294,-129"/>
<text text-anchor="start" x="36" y="-109.2" font-family="Helvetica,sans-Serif" font-weight="bold" font-size="16.00" fill="#707070">Route53::Record</text>
<text text-anchor="start" x="36" y="-84.2" font-family="Helvetica,sans-Serif" font-size="16.00" fill="#383838">record::TXT::gcrun.grucloud.org....</text>
</g>
<!-- Record::::record::TXT::gcrun.grucloud.org.&#45;&gt;HostedZone::::grucloud.org. -->
<g id="edge4" class="edge">
<title>Record::::record::TXT::gcrun.grucloud.org.&#45;&gt;HostedZone::::grucloud.org.</title>
<path fill="none" stroke="#707070" d="M262.81,-129.06C273.35,-132.07 283.89,-135.09 294,-138 302.55,-140.46 311.4,-143.02 320.3,-145.61"/>
<polygon fill="#707070" stroke="#707070" points="319.36,-148.98 329.94,-148.41 321.32,-142.26 319.36,-148.98"/>
</g>
</g>
</svg>
