<?xml version="1.0" encoding="UTF-8" standalone="no"?>
<!DOCTYPE svg PUBLIC "-//W3C//DTD SVG 1.1//EN"
 "http://www.w3.org/Graphics/SVG/1.1/DTD/svg11.dtd">
<!-- Generated by graphviz version 7.1.0 (20230121.1956)
 -->
<!-- Title: graphname Pages: 1 -->
<svg width="1054pt" height="389pt"
 viewBox="0.00 0.00 1054.00 389.00" xmlns="http://www.w3.org/2000/svg" xmlns:xlink="http://www.w3.org/1999/xlink">
<g id="graph0" class="graph" transform="scale(1 1) rotate(0) translate(4 385)">
<title>graphname</title>
<polygon fill="#fafafa" stroke="none" points="-4,4 -4,-385 1050,-385 1050,4 -4,4"/>
<text text-anchor="start" x="334" y="-356.4" font-family="Helvetica,sans-Serif" font-weight="bold" font-size="22.00" fill="#383838">Project firehose&#45;transformation&#45;sam</text>
<text text-anchor="start" x="519.5" y="-340.8" font-family="Helvetica,sans-Serif" font-size="14.00"> &#160;</text>
<text text-anchor="start" x="334" y="-319.2" font-family="Helvetica,sans-Serif" font-weight="bold" font-size="16.00" fill="#707070">Target Diagram</text>
<g id="clust1" class="cluster">
<title>cluster_aws</title>
<polygon fill="#f5f5f5" stroke="#f5f5f5" points="8,-8 8,-297 1038,-297 1038,-8 8,-8"/>
<text text-anchor="start" x="461" y="-23" font-family="Helvetica,sans-Serif" font-weight="bold" font-size="20.00" fill="#707070">Provider aws</text>
</g>
<g id="clust2" class="cluster">
<title>cluster_aws_</title>
<polygon fill="#eeeeee" stroke="#eeeeee" points="16,-54 16,-289 1030,-289 1030,-54 16,-54"/>
<text text-anchor="start" x="522.86" y="-58.3" font-family="Helvetica,sans-Serif" font-size="1.00" fill="#383838"> </text>
</g>
<!-- DeliveryStream::sam&#45;app&#45;DeliveryStream&#45;MWI7LZiHIxjA -->
<g id="node1" class="node">
<title>DeliveryStream::sam&#45;app&#45;DeliveryStream&#45;MWI7LZiHIxjA</title>
<polygon fill="#e5e5e5" stroke="#dddddd" points="334,-205 32,-205 32,-147 334,-147 334,-205"/>
<text text-anchor="start" x="44" y="-185.2" font-family="Helvetica,sans-Serif" font-weight="bold" font-size="16.00" fill="#707070">Firehose::DeliveryStream</text>
<text text-anchor="start" x="44" y="-160.2" font-family="Helvetica,sans-Serif" font-size="16.00" fill="#383838">sam&#45;app&#45;DeliveryStream&#45;MWI7LZiHI...</text>
</g>
<!-- Role::sam&#45;app&#45;DeliveryStreamRole&#45;D5I7Y6QOSJ7W -->
<g id="node2" class="node">
<title>Role::sam&#45;app&#45;DeliveryStreamRole&#45;D5I7Y6QOSJ7W</title>
<polygon fill="#e5e5e5" stroke="#dddddd" points="676,-129 378,-129 378,-71 676,-71 676,-129"/>
<text text-anchor="start" x="390" y="-109.2" font-family="Helvetica,sans-Serif" font-weight="bold" font-size="16.00" fill="#707070">IAM::Role</text>
<text text-anchor="start" x="390" y="-84.2" font-family="Helvetica,sans-Serif" font-size="16.00" fill="#383838">sam&#45;app&#45;DeliveryStreamRole&#45;D5I7Y...</text>
</g>
<!-- DeliveryStream::sam&#45;app&#45;DeliveryStream&#45;MWI7LZiHIxjA&#45;&gt;Role::sam&#45;app&#45;DeliveryStreamRole&#45;D5I7Y6QOSJ7W -->
<g id="edge3" class="edge">
<title>DeliveryStream::sam&#45;app&#45;DeliveryStream&#45;MWI7LZiHIxjA&#45;&gt;Role::sam&#45;app&#45;DeliveryStreamRole&#45;D5I7Y6QOSJ7W</title>
<path fill="none" stroke="#707070" d="M316.72,-146.51C338.24,-141.72 360.62,-136.75 382.38,-131.91"/>
<polygon fill="#707070" stroke="#707070" points="382.88,-135.39 391.88,-129.8 381.36,-128.56 382.88,-135.39"/>
</g>
<!-- Function::TransformationFunction -->
<g id="node5" class="node">
<title>Function::TransformationFunction</title>
<polygon fill="#e5e5e5" stroke="#dddddd" points="625,-205 429,-205 429,-147 625,-147 625,-205"/>
<text text-anchor="start" x="441" y="-185.2" font-family="Helvetica,sans-Serif" font-weight="bold" font-size="16.00" fill="#707070">Lambda::Function</text>
<text text-anchor="start" x="441" y="-160.2" font-family="Helvetica,sans-Serif" font-size="16.00" fill="#383838">TransformationFunction</text>
</g>
<!-- DeliveryStream::sam&#45;app&#45;DeliveryStream&#45;MWI7LZiHIxjA&#45;&gt;Function::TransformationFunction -->
<g id="edge2" class="edge">
<title>DeliveryStream::sam&#45;app&#45;DeliveryStream&#45;MWI7LZiHIxjA&#45;&gt;Function::TransformationFunction</title>
<path fill="none" stroke="#707070" d="M334.01,-176C362.12,-176 391,-176 417.54,-176"/>
<polygon fill="#707070" stroke="#707070" points="417.25,-179.5 427.25,-176 417.25,-172.5 417.25,-179.5"/>
</g>
<!-- Bucket::gc&#45;firehose&#45;transformation&#45;sam -->
<g id="node6" class="node">
<title>Bucket::gc&#45;firehose&#45;transformation&#45;sam</title>
<polygon fill="#e5e5e5" stroke="#dddddd" points="652,-281 402,-281 402,-223 652,-223 652,-281"/>
<text text-anchor="start" x="414" y="-261.2" font-family="Helvetica,sans-Serif" font-weight="bold" font-size="16.00" fill="#707070">S3::Bucket</text>
<text text-anchor="start" x="414" y="-236.2" font-family="Helvetica,sans-Serif" font-size="16.00" fill="#383838">gc&#45;firehose&#45;transformation&#45;sam</text>
</g>
<!-- DeliveryStream::sam&#45;app&#45;DeliveryStream&#45;MWI7LZiHIxjA&#45;&gt;Bucket::gc&#45;firehose&#45;transformation&#45;sam -->
<g id="edge1" class="edge">
<title>DeliveryStream::sam&#45;app&#45;DeliveryStream&#45;MWI7LZiHIxjA&#45;&gt;Bucket::gc&#45;firehose&#45;transformation&#45;sam</title>
<path fill="none" stroke="#707070" d="M316.72,-205.49C340.98,-210.88 366.32,-216.52 390.66,-221.92"/>
<polygon fill="#707070" stroke="#707070" points="389.76,-225.31 400.28,-224.06 391.28,-218.48 389.76,-225.31"/>
</g>
<!-- Role::sam&#45;app&#45;LambdaRole&#45;EMMY2SYBP5ZK -->
<g id="node3" class="node">
<title>Role::sam&#45;app&#45;LambdaRole&#45;EMMY2SYBP5ZK</title>
<polygon fill="#e5e5e5" stroke="#dddddd" points="342,-129 24,-129 24,-71 342,-71 342,-129"/>
<text text-anchor="start" x="36" y="-109.2" font-family="Helvetica,sans-Serif" font-weight="bold" font-size="16.00" fill="#707070">IAM::Role</text>
<text text-anchor="start" x="36" y="-84.2" font-family="Helvetica,sans-Serif" font-size="16.00" fill="#383838">sam&#45;app&#45;LambdaRole&#45;EMMY2SYBP5ZK</text>
</g>
<!-- Role::sam&#45;app&#45;TransformationLambdaFunctionRole&#45;U7V289O17IF6 -->
<g id="node4" class="node">
<title>Role::sam&#45;app&#45;TransformationLambdaFunctionRole&#45;U7V289O17IF6</title>
<polygon fill="#e5e5e5" stroke="#dddddd" points="1022,-205 712,-205 712,-147 1022,-147 1022,-205"/>
<text text-anchor="start" x="724" y="-185.2" font-family="Helvetica,sans-Serif" font-weight="bold" font-size="16.00" fill="#707070">IAM::Role</text>
<text text-anchor="start" x="724" y="-160.2" font-family="Helvetica,sans-Serif" font-size="16.00" fill="#383838">sam&#45;app&#45;TransformationLambdaFunc...</text>
</g>
<!-- Function::TransformationFunction&#45;&gt;Role::sam&#45;app&#45;TransformationLambdaFunctionRole&#45;U7V289O17IF6 -->
<g id="edge4" class="edge">
<title>Function::TransformationFunction&#45;&gt;Role::sam&#45;app&#45;TransformationLambdaFunctionRole&#45;U7V289O17IF6</title>
<path fill="none" stroke="#707070" d="M625.31,-176C648.84,-176 674.64,-176 700.35,-176"/>
<polygon fill="#707070" stroke="#707070" points="700.23,-179.5 710.23,-176 700.23,-172.5 700.23,-179.5"/>
</g>
</g>
</svg>
