<?xml version="1.0" encoding="UTF-8" standalone="no"?>
<!DOCTYPE svg PUBLIC "-//W3C//DTD SVG 1.1//EN"
 "http://www.w3.org/Graphics/SVG/1.1/DTD/svg11.dtd">
<!-- Generated by graphviz version 2.44.1 (20200629.0846)
 -->
<!-- Title: graphname Pages: 1 -->
<svg width="620pt" height="465pt"
 viewBox="0.00 0.00 620.00 465.00" xmlns="http://www.w3.org/2000/svg" xmlns:xlink="http://www.w3.org/1999/xlink">
<g id="graph0" class="graph" transform="scale(1 1) rotate(0) translate(4 461)">
<title>graphname</title>
<polygon fill="#fafafa" stroke="transparent" points="-4,4 -4,-461 616,-461 616,4 -4,4"/>
<text text-anchor="start" x="75" y="-432.4" font-family="Helvetica,sans-Serif" font-weight="bold" font-size="22.00" fill="#383838">Project grucloud&#45;example&#45;azure&#45;app&#45;service</text>
<text text-anchor="start" x="302" y="-416.8" font-family="Helvetica,sans-Serif" font-size="14.00"> &#160;</text>
<text text-anchor="start" x="75" y="-395.2" font-family="Helvetica,sans-Serif" font-weight="bold" font-size="16.00" fill="#707070">Target Diagram</text>
<g id="clust1" class="cluster">
<title>cluster_azure</title>
<polygon fill="#f5f5f5" stroke="#f5f5f5" points="8,-8 8,-373 604,-373 604,-8 8,-8"/>
<text text-anchor="start" x="237" y="-23" font-family="Helvetica,sans-Serif" font-weight="bold" font-size="20.00" fill="#707070">Provider azure</text>
</g>
<g id="clust2" class="cluster">
<title>cluster_azure_</title>
<polygon fill="#eeeeee" stroke="#eeeeee" points="16,-54 16,-365 596,-365 596,-54 16,-54"/>
<text text-anchor="start" x="305.86" y="-58.3" font-family="Helvetica,sans-Serif" font-size="1.00" fill="#383838"> </text>
</g>
<!-- BlobContainer::bucket -->
<g id="node1" class="node">
<title>BlobContainer::bucket</title>
<polygon fill="#e5e5e5" stroke="#dddddd" points="158,-357 24,-357 24,-299 158,-299 158,-357"/>
<text text-anchor="start" x="36" y="-337.2" font-family="Helvetica,sans-Serif" font-weight="bold" font-size="16.00" fill="#707070">BlobContainer</text>
<text text-anchor="start" x="36" y="-312.2" font-family="Helvetica,sans-Serif" font-size="16.00" fill="#383838">bucket</text>
</g>
<!-- StorageAccount::grucloudstorageaccount -->
<g id="node4" class="node">
<title>StorageAccount::grucloudstorageaccount</title>
<polygon fill="#e5e5e5" stroke="#dddddd" points="392,-243 194,-243 194,-185 392,-185 392,-243"/>
<text text-anchor="start" x="206" y="-223.2" font-family="Helvetica,sans-Serif" font-weight="bold" font-size="16.00" fill="#707070">StorageAccount</text>
<text text-anchor="start" x="206" y="-198.2" font-family="Helvetica,sans-Serif" font-size="16.00" fill="#383838">grucloudstorageaccount</text>
</g>
<!-- BlobContainer::bucket&#45;&gt;StorageAccount::grucloudstorageaccount -->
<g id="edge2" class="edge">
<title>BlobContainer::bucket&#45;&gt;StorageAccount::grucloudstorageaccount</title>
<path fill="none" stroke="#707070" d="M142.99,-298.94C170.14,-283.46 203.69,-264.33 232.09,-248.15"/>
<polygon fill="#707070" stroke="#707070" points="234.15,-251 241.11,-243.01 230.69,-244.92 234.15,-251"/>
</g>
<!-- ResourceGroup::rg&#45;storage&#45;account -->
<g id="node6" class="node">
<title>ResourceGroup::rg&#45;storage&#45;account</title>
<polygon fill="#e5e5e5" stroke="#dddddd" points="588,-243 428,-243 428,-185 588,-185 588,-243"/>
<text text-anchor="start" x="440" y="-223.2" font-family="Helvetica,sans-Serif" font-weight="bold" font-size="16.00" fill="#707070">ResourceGroup</text>
<text text-anchor="start" x="440" y="-198.2" font-family="Helvetica,sans-Serif" font-size="16.00" fill="#383838">rg&#45;storage&#45;account</text>
</g>
<!-- BlobContainer::bucket&#45;&gt;ResourceGroup::rg&#45;storage&#45;account -->
<g id="edge1" class="edge">
<title>BlobContainer::bucket&#45;&gt;ResourceGroup::rg&#45;storage&#45;account</title>
<path fill="none" stroke="#707070" d="M158.09,-316.55C219.44,-305.15 312.94,-285.79 392,-261 405.08,-256.9 418.76,-251.93 431.93,-246.79"/>
<polygon fill="#707070" stroke="#707070" points="433.41,-249.97 441.41,-243.02 430.83,-243.46 433.41,-249.97"/>
</g>
<!-- FileShare::my&#45;share -->
<g id="node2" class="node">
<title>FileShare::my&#45;share</title>
<polygon fill="#e5e5e5" stroke="#dddddd" points="139.5,-281 42.5,-281 42.5,-223 139.5,-223 139.5,-281"/>
<text text-anchor="start" x="55" y="-261.2" font-family="Helvetica,sans-Serif" font-weight="bold" font-size="16.00" fill="#707070">FileShare</text>
<text text-anchor="start" x="55" y="-236.2" font-family="Helvetica,sans-Serif" font-size="16.00" fill="#383838">my&#45;share</text>
</g>
<!-- FileShare::my&#45;share&#45;&gt;StorageAccount::grucloudstorageaccount -->
<g id="edge4" class="edge">
<title>FileShare::my&#45;share&#45;&gt;StorageAccount::grucloudstorageaccount</title>
<path fill="none" stroke="#707070" d="M139.65,-242.95C153.01,-240.41 168.12,-237.54 183.49,-234.62"/>
<polygon fill="#707070" stroke="#707070" points="184.44,-238 193.61,-232.69 183.13,-231.12 184.44,-238"/>
</g>
<!-- FileShare::my&#45;share&#45;&gt;ResourceGroup::rg&#45;storage&#45;account -->
<g id="edge3" class="edge">
<title>FileShare::my&#45;share&#45;&gt;ResourceGroup::rg&#45;storage&#45;account</title>
<path fill="none" stroke="#707070" d="M139.65,-256.64C199.14,-261.37 303.81,-266.19 392,-252 401.4,-250.49 411.07,-248.32 420.62,-245.78"/>
<polygon fill="#707070" stroke="#707070" points="421.83,-249.08 430.52,-243.01 419.95,-242.34 421.83,-249.08"/>
</g>
<!-- Queue::my&#45;queue -->
<g id="node3" class="node">
<title>Queue::my&#45;queue</title>
<polygon fill="#e5e5e5" stroke="#dddddd" points="139.5,-205 42.5,-205 42.5,-147 139.5,-147 139.5,-205"/>
<text text-anchor="start" x="55" y="-185.2" font-family="Helvetica,sans-Serif" font-weight="bold" font-size="16.00" fill="#707070">Queue</text>
<text text-anchor="start" x="55" y="-160.2" font-family="Helvetica,sans-Serif" font-size="16.00" fill="#383838">my&#45;queue</text>
</g>
<!-- Queue::my&#45;queue&#45;&gt;StorageAccount::grucloudstorageaccount -->
<g id="edge6" class="edge">
<title>Queue::my&#45;queue&#45;&gt;StorageAccount::grucloudstorageaccount</title>
<path fill="none" stroke="#707070" d="M139.65,-185.05C153.01,-187.59 168.12,-190.46 183.49,-193.38"/>
<polygon fill="#707070" stroke="#707070" points="183.13,-196.88 193.61,-195.31 184.44,-190 183.13,-196.88"/>
</g>
<!-- Queue::my&#45;queue&#45;&gt;ResourceGroup::rg&#45;storage&#45;account -->
<g id="edge5" class="edge">
<title>Queue::my&#45;queue&#45;&gt;ResourceGroup::rg&#45;storage&#45;account</title>
<path fill="none" stroke="#707070" d="M139.65,-171.36C199.14,-166.63 303.81,-161.81 392,-176 401.4,-177.51 411.07,-179.68 420.62,-182.22"/>
<polygon fill="#707070" stroke="#707070" points="419.95,-185.66 430.52,-184.99 421.83,-178.92 419.95,-185.66"/>
</g>
<!-- StorageAccount::grucloudstorageaccount&#45;&gt;ResourceGroup::rg&#45;storage&#45;account -->
<g id="edge7" class="edge">
<title>StorageAccount::grucloudstorageaccount&#45;&gt;ResourceGroup::rg&#45;storage&#45;account</title>
<path fill="none" stroke="#707070" d="M392.08,-214C400.62,-214 409.23,-214 417.7,-214"/>
<polygon fill="#707070" stroke="#707070" points="417.93,-217.5 427.93,-214 417.93,-210.5 417.93,-217.5"/>
</g>
<!-- Table::mytable -->
<g id="node5" class="node">
<title>Table::mytable</title>
<polygon fill="#e5e5e5" stroke="#dddddd" points="132,-129 50,-129 50,-71 132,-71 132,-129"/>
<text text-anchor="start" x="62" y="-109.2" font-family="Helvetica,sans-Serif" font-weight="bold" font-size="16.00" fill="#707070">Table</text>
<text text-anchor="start" x="62" y="-84.2" font-family="Helvetica,sans-Serif" font-size="16.00" fill="#383838">mytable</text>
</g>
<!-- Table::mytable&#45;&gt;StorageAccount::grucloudstorageaccount -->
<g id="edge9" class="edge">
<title>Table::mytable&#45;&gt;StorageAccount::grucloudstorageaccount</title>
<path fill="none" stroke="#707070" d="M132.47,-123.07C161.06,-139.36 199.85,-161.48 232.02,-179.81"/>
<polygon fill="#707070" stroke="#707070" points="230.49,-182.97 240.91,-184.88 233.95,-176.89 230.49,-182.97"/>
</g>
<!-- Table::mytable&#45;&gt;ResourceGroup::rg&#45;storage&#45;account -->
<g id="edge8" class="edge">
<title>Table::mytable&#45;&gt;ResourceGroup::rg&#45;storage&#45;account</title>
<path fill="none" stroke="#707070" d="M132.04,-105.4C190.25,-113.88 301.21,-132.49 392,-162 407.88,-167.16 424.49,-173.85 439.99,-180.71"/>
<polygon fill="#707070" stroke="#707070" points="438.93,-184.07 449.49,-184.99 441.81,-177.69 438.93,-184.07"/>
</g>
</g>
</svg>
