<?xml version="1.0" encoding="UTF-8" standalone="no"?>
<!DOCTYPE svg PUBLIC "-//W3C//DTD SVG 1.1//EN"
 "http://www.w3.org/Graphics/SVG/1.1/DTD/svg11.dtd">
<!-- Generated by graphviz version 6.0.0 (20220910.1538)
 -->
<!-- Title: graphname Pages: 1 -->
<svg width="730pt" height="389pt"
 viewBox="0.00 0.00 730.00 389.00" xmlns="http://www.w3.org/2000/svg" xmlns:xlink="http://www.w3.org/1999/xlink">
<g id="graph0" class="graph" transform="scale(1 1) rotate(0) translate(4 385)">
<title>graphname</title>
<polygon fill="#fafafa" stroke="none" points="-4,4 -4,-385 726,-385 726,4 -4,4"/>
<text text-anchor="start" x="272" y="-356.4" font-family="Helvetica,sans-Serif" font-weight="bold" font-size="22.00" fill="#383838">Project fsx&#45;lustre</text>
<text text-anchor="start" x="357.5" y="-340.8" font-family="Helvetica,sans-Serif" font-size="14.00"> &#160;</text>
<text text-anchor="start" x="272" y="-319.2" font-family="Helvetica,sans-Serif" font-weight="bold" font-size="16.00" fill="#707070">Target Diagram</text>
<g id="clust1" class="cluster">
<title>cluster_aws</title>
<polygon fill="#f5f5f5" stroke="#f5f5f5" points="8,-8 8,-297 714,-297 714,-8 8,-8"/>
<text text-anchor="start" x="299" y="-23" font-family="Helvetica,sans-Serif" font-weight="bold" font-size="20.00" fill="#707070">Provider aws</text>
</g>
<g id="clust2" class="cluster">
<title>cluster_aws_</title>
<polygon fill="#eeeeee" stroke="#eeeeee" points="16,-54 16,-289 706,-289 706,-54 16,-54"/>
<text text-anchor="start" x="360.86" y="-58.3" font-family="Helvetica,sans-Serif" font-size="1.00" fill="#383838"> </text>
</g>
<!-- LogGroup::/aws/fsx/lustre -->
<g id="node1" class="node">
<title>LogGroup::/aws/fsx/lustre</title>
<polygon fill="#e5e5e5" stroke="#dddddd" points="279.5,-281 36.5,-281 36.5,-223 279.5,-223 279.5,-281"/>
<text text-anchor="start" x="49" y="-261.2" font-family="Helvetica,sans-Serif" font-weight="bold" font-size="16.00" fill="#707070">CloudWatchLogs::LogGroup</text>
<text text-anchor="start" x="49" y="-236.2" font-family="Helvetica,sans-Serif" font-size="16.00" fill="#383838">/aws/fsx/lustre</text>
</g>
<!-- Vpc::vpc&#45;default -->
<g id="node2" class="node">
<title>Vpc::vpc&#45;default</title>
<polygon fill="#e5e5e5" stroke="#dddddd" points="698,-167 594,-167 594,-109 698,-109 698,-167"/>
<text text-anchor="start" x="606" y="-147.2" font-family="Helvetica,sans-Serif" font-weight="bold" font-size="16.00" fill="#707070">EC2::Vpc</text>
<text text-anchor="start" x="606" y="-122.2" font-family="Helvetica,sans-Serif" font-size="16.00" fill="#383838">vpc&#45;default</text>
</g>
<!-- Subnet::vpc&#45;default::subnet&#45;default&#45;a -->
<g id="node3" class="node">
<title>Subnet::vpc&#45;default::subnet&#45;default&#45;a</title>
<polygon fill="#e5e5e5" stroke="#dddddd" points="558,-129 328,-129 328,-71 558,-71 558,-129"/>
<text text-anchor="start" x="340" y="-109.2" font-family="Helvetica,sans-Serif" font-weight="bold" font-size="16.00" fill="#707070">EC2::Subnet</text>
<text text-anchor="start" x="340" y="-84.2" font-family="Helvetica,sans-Serif" font-size="16.00" fill="#383838">vpc&#45;default::subnet&#45;default&#45;a</text>
</g>
<!-- Subnet::vpc&#45;default::subnet&#45;default&#45;a&#45;&gt;Vpc::vpc&#45;default -->
<g id="edge1" class="edge">
<title>Subnet::vpc&#45;default::subnet&#45;default&#45;a&#45;&gt;Vpc::vpc&#45;default</title>
<path fill="none" stroke="#707070" d="M558.01,-121.55C566.83,-123.22 575.5,-124.86 583.76,-126.42"/>
<polygon fill="#707070" stroke="#707070" points="583.13,-129.87 593.61,-128.28 584.43,-122.99 583.13,-129.87"/>
</g>
<!-- SecurityGroup::sg::vpc&#45;default::default -->
<g id="node4" class="node">
<title>SecurityGroup::sg::vpc&#45;default::default</title>
<polygon fill="#e5e5e5" stroke="#dddddd" points="537,-205 349,-205 349,-147 537,-147 537,-205"/>
<text text-anchor="start" x="361" y="-185.2" font-family="Helvetica,sans-Serif" font-weight="bold" font-size="16.00" fill="#707070">EC2::SecurityGroup</text>
<text text-anchor="start" x="361" y="-160.2" font-family="Helvetica,sans-Serif" font-size="16.00" fill="#383838">sg::vpc&#45;default::default</text>
</g>
<!-- SecurityGroup::sg::vpc&#45;default::default&#45;&gt;Vpc::vpc&#45;default -->
<g id="edge2" class="edge">
<title>SecurityGroup::sg::vpc&#45;default::default&#45;&gt;Vpc::vpc&#45;default</title>
<path fill="none" stroke="#707070" d="M537.15,-158.39C553,-155.39 569.1,-152.35 583.85,-149.56"/>
<polygon fill="#707070" stroke="#707070" points="584.66,-152.97 593.83,-147.67 583.36,-146.09 584.66,-152.97"/>
</g>
<!-- SecurityGroupRuleIngress::sg::vpc&#45;default::default&#45;rule&#45;ingress&#45;tcp&#45;988 -->
<g id="node5" class="node">
<title>SecurityGroupRuleIngress::sg::vpc&#45;default::default&#45;rule&#45;ingress&#45;tcp&#45;988</title>
<polygon fill="#e5e5e5" stroke="#dddddd" points="292,-205 24,-205 24,-147 292,-147 292,-205"/>
<text text-anchor="start" x="36" y="-185.2" font-family="Helvetica,sans-Serif" font-weight="bold" font-size="16.00" fill="#707070">EC2::SecurityGroupRuleIngress</text>
<text text-anchor="start" x="36" y="-160.2" font-family="Helvetica,sans-Serif" font-size="16.00" fill="#383838">sg::vpc&#45;default::default&#45;rule&#45;in...</text>
</g>
<!-- SecurityGroupRuleIngress::sg::vpc&#45;default::default&#45;rule&#45;ingress&#45;tcp&#45;988&#45;&gt;SecurityGroup::sg::vpc&#45;default::default -->
<g id="edge3" class="edge">
<title>SecurityGroupRuleIngress::sg::vpc&#45;default::default&#45;rule&#45;ingress&#45;tcp&#45;988&#45;&gt;SecurityGroup::sg::vpc&#45;default::default</title>
<path fill="none" stroke="#707070" d="M292.21,-176C307.71,-176 323.33,-176 338.34,-176"/>
<polygon fill="#707070" stroke="#707070" points="338.63,-179.5 348.63,-176 338.63,-172.5 338.63,-179.5"/>
</g>
<!-- FileSystem::my&#45;lustre&#45;fs -->
<g id="node6" class="node">
<title>FileSystem::my&#45;lustre&#45;fs</title>
<polygon fill="#e5e5e5" stroke="#dddddd" points="232.5,-129 83.5,-129 83.5,-71 232.5,-71 232.5,-129"/>
<text text-anchor="start" x="96" y="-109.2" font-family="Helvetica,sans-Serif" font-weight="bold" font-size="16.00" fill="#707070">FSx::FileSystem</text>
<text text-anchor="start" x="96" y="-84.2" font-family="Helvetica,sans-Serif" font-size="16.00" fill="#383838">my&#45;lustre&#45;fs</text>
</g>
<!-- FileSystem::my&#45;lustre&#45;fs&#45;&gt;Subnet::vpc&#45;default::subnet&#45;default&#45;a -->
<g id="edge4" class="edge">
<title>FileSystem::my&#45;lustre&#45;fs&#45;&gt;Subnet::vpc&#45;default::subnet&#45;default&#45;a</title>
<path fill="none" stroke="#707070" d="M232.62,-100C258.62,-100 288.63,-100 317.67,-100"/>
<polygon fill="#707070" stroke="#707070" points="317.89,-103.5 327.89,-100 317.89,-96.5 317.89,-103.5"/>
</g>
</g>
</svg>
