<?xml version="1.0" encoding="UTF-8" standalone="no"?>
<!DOCTYPE svg PUBLIC "-//W3C//DTD SVG 1.1//EN"
 "http://www.w3.org/Graphics/SVG/1.1/DTD/svg11.dtd">
<!-- Generated by graphviz version 6.0.0 (20220910.1538)
 -->
<!-- Title: graphname Pages: 1 -->
<svg width="1159pt" height="465pt"
 viewBox="0.00 0.00 1159.00 465.00" xmlns="http://www.w3.org/2000/svg" xmlns:xlink="http://www.w3.org/1999/xlink">
<g id="graph0" class="graph" transform="scale(1 1) rotate(0) translate(4 461)">
<title>graphname</title>
<polygon fill="#fafafa" stroke="none" points="-4,4 -4,-461 1155,-461 1155,4 -4,4"/>
<text text-anchor="start" x="448.5" y="-432.4" font-family="Helvetica,sans-Serif" font-weight="bold" font-size="22.00" fill="#383838">Project appstream&#45;stack</text>
<text text-anchor="start" x="571.5" y="-416.8" font-family="Helvetica,sans-Serif" font-size="14.00"> &#160;</text>
<text text-anchor="start" x="448.5" y="-395.2" font-family="Helvetica,sans-Serif" font-weight="bold" font-size="16.00" fill="#707070">Target Diagram</text>
<g id="clust1" class="cluster">
<title>cluster_aws</title>
<polygon fill="#f5f5f5" stroke="#f5f5f5" points="8,-8 8,-373 1143,-373 1143,-8 8,-8"/>
<text text-anchor="start" x="513.5" y="-23" font-family="Helvetica,sans-Serif" font-weight="bold" font-size="20.00" fill="#707070">Provider aws</text>
</g>
<g id="clust2" class="cluster">
<title>cluster_aws_</title>
<polygon fill="#eeeeee" stroke="#eeeeee" points="16,-54 16,-365 1135,-365 1135,-54 16,-54"/>
<text text-anchor="start" x="575.36" y="-58.3" font-family="Helvetica,sans-Serif" font-size="1.00" fill="#383838"> </text>
</g>
<!-- Entitlement::my&#45;entitlement -->
<g id="node1" class="node">
<title>Entitlement::my&#45;entitlement</title>
<polygon fill="#e5e5e5" stroke="#dddddd" points="276.5,-357 69.5,-357 69.5,-299 276.5,-299 276.5,-357"/>
<text text-anchor="start" x="82" y="-337.2" font-family="Helvetica,sans-Serif" font-weight="bold" font-size="16.00" fill="#707070">AppStream::Entitlement</text>
<text text-anchor="start" x="82" y="-312.2" font-family="Helvetica,sans-Serif" font-size="16.00" fill="#383838">my&#45;entitlement</text>
</g>
<!-- Stack::stack -->
<g id="node3" class="node">
<title>Stack::stack</title>
<polygon fill="#e5e5e5" stroke="#dddddd" points="521,-338 358,-338 358,-280 521,-280 521,-338"/>
<text text-anchor="start" x="370.5" y="-318.2" font-family="Helvetica,sans-Serif" font-weight="bold" font-size="16.00" fill="#707070">AppStream::Stack</text>
<text text-anchor="start" x="370.5" y="-293.2" font-family="Helvetica,sans-Serif" font-size="16.00" fill="#383838">stack</text>
</g>
<!-- Entitlement::my&#45;entitlement&#45;&gt;Stack::stack -->
<g id="edge1" class="edge">
<title>Entitlement::my&#45;entitlement&#45;&gt;Stack::stack</title>
<path fill="none" stroke="#707070" d="M276.64,-320.63C300.04,-318.95 324.75,-317.17 347.62,-315.53"/>
<polygon fill="#707070" stroke="#707070" points="347.92,-319.02 357.64,-314.81 347.41,-312.03 347.92,-319.02"/>
</g>
<!-- Fleet::my&#45;ondemand&#45;fleet -->
<g id="node2" class="node">
<title>Fleet::my&#45;ondemand&#45;fleet</title>
<polygon fill="#e5e5e5" stroke="#dddddd" points="721,-300 557,-300 557,-242 721,-242 721,-300"/>
<text text-anchor="start" x="569" y="-280.2" font-family="Helvetica,sans-Serif" font-weight="bold" font-size="16.00" fill="#707070">AppStream::Fleet</text>
<text text-anchor="start" x="569" y="-255.2" font-family="Helvetica,sans-Serif" font-size="16.00" fill="#383838">my&#45;ondemand&#45;fleet</text>
</g>
<!-- Subnet::vpc&#45;default::subnet&#45;default&#45;a -->
<g id="node5" class="node">
<title>Subnet::vpc&#45;default::subnet&#45;default&#45;a</title>
<polygon fill="#e5e5e5" stroke="#dddddd" points="987,-205 757,-205 757,-147 987,-147 987,-205"/>
<text text-anchor="start" x="769" y="-185.2" font-family="Helvetica,sans-Serif" font-weight="bold" font-size="16.00" fill="#707070">EC2::Subnet</text>
<text text-anchor="start" x="769" y="-160.2" font-family="Helvetica,sans-Serif" font-size="16.00" fill="#383838">vpc&#45;default::subnet&#45;default&#45;a</text>
</g>
<!-- Fleet::my&#45;ondemand&#45;fleet&#45;&gt;Subnet::vpc&#45;default::subnet&#45;default&#45;a -->
<g id="edge3" class="edge">
<title>Fleet::my&#45;ondemand&#45;fleet&#45;&gt;Subnet::vpc&#45;default::subnet&#45;default&#45;a</title>
<path fill="none" stroke="#707070" d="M695.85,-241.93C715,-232.47 736.71,-222.28 757,-214 761.42,-212.2 765.95,-210.41 770.55,-208.66"/>
<polygon fill="#707070" stroke="#707070" points="771.92,-211.89 780.06,-205.11 769.47,-205.33 771.92,-211.89"/>
</g>
<!-- Subnet::vpc&#45;default::subnet&#45;default&#45;b -->
<g id="node6" class="node">
<title>Subnet::vpc&#45;default::subnet&#45;default&#45;b</title>
<polygon fill="#e5e5e5" stroke="#dddddd" points="987,-281 757,-281 757,-223 987,-223 987,-281"/>
<text text-anchor="start" x="769" y="-261.2" font-family="Helvetica,sans-Serif" font-weight="bold" font-size="16.00" fill="#707070">EC2::Subnet</text>
<text text-anchor="start" x="769" y="-236.2" font-family="Helvetica,sans-Serif" font-size="16.00" fill="#383838">vpc&#45;default::subnet&#45;default&#45;b</text>
</g>
<!-- Fleet::my&#45;ondemand&#45;fleet&#45;&gt;Subnet::vpc&#45;default::subnet&#45;default&#45;b -->
<g id="edge4" class="edge">
<title>Fleet::my&#45;ondemand&#45;fleet&#45;&gt;Subnet::vpc&#45;default::subnet&#45;default&#45;b</title>
<path fill="none" stroke="#707070" d="M721.12,-264.33C729.43,-263.64 738.01,-262.94 746.65,-262.23"/>
<polygon fill="#707070" stroke="#707070" points="747.14,-265.7 756.82,-261.39 746.57,-258.72 747.14,-265.7"/>
</g>
<!-- SecurityGroup::sg::vpc&#45;default::default -->
<g id="node7" class="node">
<title>SecurityGroup::sg::vpc&#45;default::default</title>
<polygon fill="#e5e5e5" stroke="#dddddd" points="966,-357 778,-357 778,-299 966,-299 966,-357"/>
<text text-anchor="start" x="790" y="-337.2" font-family="Helvetica,sans-Serif" font-weight="bold" font-size="16.00" fill="#707070">EC2::SecurityGroup</text>
<text text-anchor="start" x="790" y="-312.2" font-family="Helvetica,sans-Serif" font-size="16.00" fill="#383838">sg::vpc&#45;default::default</text>
</g>
<!-- Fleet::my&#45;ondemand&#45;fleet&#45;&gt;SecurityGroup::sg::vpc&#45;default::default -->
<g id="edge2" class="edge">
<title>Fleet::my&#45;ondemand&#45;fleet&#45;&gt;SecurityGroup::sg::vpc&#45;default::default</title>
<path fill="none" stroke="#707070" d="M721.12,-291.02C736.3,-294.76 752.35,-298.72 768.08,-302.61"/>
<polygon fill="#707070" stroke="#707070" points="767.28,-306.01 777.83,-305.01 768.96,-299.22 767.28,-306.01"/>
</g>
<!-- Stack::stack&#45;&gt;Fleet::my&#45;ondemand&#45;fleet -->
<g id="edge5" class="edge">
<title>Stack::stack&#45;&gt;Fleet::my&#45;ondemand&#45;fleet</title>
<path fill="none" stroke="#707070" d="M521.12,-293.49C529.55,-291.87 538.16,-290.21 546.71,-288.57"/>
<polygon fill="#707070" stroke="#707070" points="547.52,-291.97 556.68,-286.65 546.2,-285.1 547.52,-291.97"/>
</g>
<!-- Vpc::vpc&#45;default -->
<g id="node4" class="node">
<title>Vpc::vpc&#45;default</title>
<polygon fill="#e5e5e5" stroke="#dddddd" points="1127,-281 1023,-281 1023,-223 1127,-223 1127,-281"/>
<text text-anchor="start" x="1035" y="-261.2" font-family="Helvetica,sans-Serif" font-weight="bold" font-size="16.00" fill="#707070">EC2::Vpc</text>
<text text-anchor="start" x="1035" y="-236.2" font-family="Helvetica,sans-Serif" font-size="16.00" fill="#383838">vpc&#45;default</text>
</g>
<!-- Subnet::vpc&#45;default::subnet&#45;default&#45;a&#45;&gt;Vpc::vpc&#45;default -->
<g id="edge6" class="edge">
<title>Subnet::vpc&#45;default::subnet&#45;default&#45;a&#45;&gt;Vpc::vpc&#45;default</title>
<path fill="none" stroke="#707070" d="M962.58,-205.01C970.87,-207.95 979.11,-210.97 987,-214 995.59,-217.3 1004.57,-220.97 1013.36,-224.68"/>
<polygon fill="#707070" stroke="#707070" points="1012.22,-228 1022.79,-228.72 1014.98,-221.57 1012.22,-228"/>
</g>
<!-- Subnet::vpc&#45;default::subnet&#45;default&#45;b&#45;&gt;Vpc::vpc&#45;default -->
<g id="edge7" class="edge">
<title>Subnet::vpc&#45;default::subnet&#45;default&#45;b&#45;&gt;Vpc::vpc&#45;default</title>
<path fill="none" stroke="#707070" d="M987.01,-252C995.73,-252 1004.31,-252 1012.49,-252"/>
<polygon fill="#707070" stroke="#707070" points="1012.61,-255.5 1022.61,-252 1012.61,-248.5 1012.61,-255.5"/>
</g>
<!-- SecurityGroup::sg::vpc&#45;default::default&#45;&gt;Vpc::vpc&#45;default -->
<g id="edge8" class="edge">
<title>SecurityGroup::sg::vpc&#45;default::default&#45;&gt;Vpc::vpc&#45;default</title>
<path fill="none" stroke="#707070" d="M962.58,-298.99C970.87,-296.05 979.11,-293.03 987,-290 995.59,-286.7 1004.57,-283.03 1013.36,-279.32"/>
<polygon fill="#707070" stroke="#707070" points="1014.98,-282.43 1022.79,-275.28 1012.22,-276 1014.98,-282.43"/>
</g>
<!-- Role::AmazonAppStreamPCAAccess -->
<g id="node8" class="node">
<title>Role::AmazonAppStreamPCAAccess</title>
<polygon fill="#e5e5e5" stroke="#dddddd" points="297.5,-281 48.5,-281 48.5,-223 297.5,-223 297.5,-281"/>
<text text-anchor="start" x="61" y="-261.2" font-family="Helvetica,sans-Serif" font-weight="bold" font-size="16.00" fill="#707070">IAM::Role</text>
<text text-anchor="start" x="61" y="-236.2" font-family="Helvetica,sans-Serif" font-size="16.00" fill="#383838">AmazonAppStreamPCAAccess</text>
</g>
<!-- Role::AmazonAppStreamServiceAccess -->
<g id="node9" class="node">
<title>Role::AmazonAppStreamServiceAccess</title>
<polygon fill="#e5e5e5" stroke="#dddddd" points="308.5,-205 37.5,-205 37.5,-147 308.5,-147 308.5,-205"/>
<text text-anchor="start" x="50" y="-185.2" font-family="Helvetica,sans-Serif" font-weight="bold" font-size="16.00" fill="#707070">IAM::Role</text>
<text text-anchor="start" x="50" y="-160.2" font-family="Helvetica,sans-Serif" font-size="16.00" fill="#383838">AmazonAppStreamServiceAccess</text>
</g>
<!-- Role::ApplicationAutoScalingForAmazonAppStreamAccess -->
<g id="node10" class="node">
<title>Role::ApplicationAutoScalingForAmazonAppStreamAccess</title>
<polygon fill="#e5e5e5" stroke="#dddddd" points="322,-129 24,-129 24,-71 322,-71 322,-129"/>
<text text-anchor="start" x="36" y="-109.2" font-family="Helvetica,sans-Serif" font-weight="bold" font-size="16.00" fill="#707070">IAM::Role</text>
<text text-anchor="start" x="36" y="-84.2" font-family="Helvetica,sans-Serif" font-size="16.00" fill="#383838">ApplicationAutoScalingForAmazonA...</text>
</g>
</g>
</svg>
