<?xml version="1.0" encoding="UTF-8" standalone="no"?><svg xmlns="http://www.w3.org/2000/svg" xmlns:xlink="http://www.w3.org/1999/xlink" contentStyleType="text/css" height="398px" preserveAspectRatio="none" style="width:457px;height:398px;background:#FFFFFF;" version="1.1" viewBox="0 0 457 398" width="457px" zoomAndPan="magnify"><defs/><g><rect height="26.4883" style="stroke:#00000000;stroke-width:1.0;fill:none;" width="292" x="56" y="15"/><text fill="#000000" font-family="sans-serif" font-size="14" font-weight="bold" lengthAdjust="spacing" textLength="282" x="61" y="33.5352">Resources for project appstream-stack</text><rect fill="#F1F1F1" height="36.4883" rx="12.5" ry="12.5" style="stroke:#181818;stroke-width:1.5;" width="52" x="10" y="198.709"/><text fill="#000000" font-family="sans-serif" font-size="14" lengthAdjust="spacing" textLength="32" x="20" y="222.2441">Infra</text><rect fill="#F1F1F1" height="36.4883" rx="12.5" ry="12.5" style="stroke:#181818;stroke-width:1.5;" width="46" x="112" y="198.709"/><text fill="#000000" font-family="sans-serif" font-size="14" lengthAdjust="spacing" textLength="26" x="122" y="222.2441">aws</text><rect fill="#F1F1F1" height="36.4883" rx="12.5" ry="12.5" style="stroke:#181818;stroke-width:1.5;" width="96" x="208" y="85.7324"/><text fill="#000000" font-family="sans-serif" font-size="14" lengthAdjust="spacing" textLength="76" x="218" y="109.2676">AppStream</text><rect fill="#F1F1F1" height="36.4883" rx="12.5" ry="12.5" style="stroke:#181818;stroke-width:1.5;" width="76" x="354" y="57.4883"/><text fill="#000000" font-family="sans-serif" font-size="14" lengthAdjust="spacing" textLength="56" x="364" y="81.0234">Fleet (1)</text><path d="M304,103.9766 L314,103.9766 C329,103.9766 329,75.7324 344,75.7324 L354,75.7324 " fill="none" style="stroke:#181818;stroke-width:1.0;"/><rect fill="#F1F1F1" height="36.4883" rx="12.5" ry="12.5" style="stroke:#181818;stroke-width:1.5;" width="79" x="354" y="113.9766"/><text fill="#000000" font-family="sans-serif" font-size="14" lengthAdjust="spacing" textLength="59" x="364" y="137.5117">Stack (1)</text><path d="M304,103.9766 L314,103.9766 C329,103.9766 329,132.2207 344,132.2207 L354,132.2207 " fill="none" style="stroke:#181818;stroke-width:1.0;"/><path d="M158,216.9531 L168,216.9531 C183,216.9531 183,103.9766 198,103.9766 L208,103.9766 " fill="none" style="stroke:#181818;stroke-width:1.0;"/><rect fill="#F1F1F1" height="36.4883" rx="12.5" ry="12.5" style="stroke:#181818;stroke-width:1.5;" width="47" x="208" y="226.9531"/><text fill="#000000" font-family="sans-serif" font-size="14" lengthAdjust="spacing" textLength="27" x="218" y="250.4883">EC2</text><rect fill="#F1F1F1" height="36.4883" rx="12.5" ry="12.5" style="stroke:#181818;stroke-width:1.5;" width="68" x="305" y="170.4648"/><text fill="#000000" font-family="sans-serif" font-size="14" lengthAdjust="spacing" textLength="48" x="315" y="194">Vpc (1)</text><path d="M255,245.1973 L265,245.1973 C280,245.1973 280,188.709 295,188.709 L305,188.709 " fill="none" style="stroke:#181818;stroke-width:1.0;"/><rect fill="#F1F1F1" height="36.4883" rx="12.5" ry="12.5" style="stroke:#181818;stroke-width:1.5;" width="91" x="305" y="226.9531"/><text fill="#000000" font-family="sans-serif" font-size="14" lengthAdjust="spacing" textLength="71" x="315" y="250.4883">Subnet (2)</text><path d="M255,245.1973 L265,245.1973 C280,245.1973 280,245.1973 295,245.1973 L305,245.1973 " fill="none" style="stroke:#181818;stroke-width:1.0;"/><rect fill="#F1F1F1" height="36.4883" rx="12.5" ry="12.5" style="stroke:#181818;stroke-width:1.5;" width="140" x="305" y="283.4414"/><text fill="#000000" font-family="sans-serif" font-size="14" lengthAdjust="spacing" textLength="120" x="315" y="306.9766">SecurityGroup (1)</text><path d="M255,245.1973 L265,245.1973 C280,245.1973 280,301.6855 295,301.6855 L305,301.6855 " fill="none" style="stroke:#181818;stroke-width:1.0;"/><path d="M158,216.9531 L168,216.9531 C183,216.9531 183,245.1973 198,245.1973 L208,245.1973 " fill="none" style="stroke:#181818;stroke-width:1.0;"/><rect fill="#F1F1F1" height="36.4883" rx="12.5" ry="12.5" style="stroke:#181818;stroke-width:1.5;" width="46" x="208" y="339.9297"/><text fill="#000000" font-family="sans-serif" font-size="14" lengthAdjust="spacing" textLength="26" x="218" y="363.4648">IAM</text><rect fill="#F1F1F1" height="36.4883" rx="12.5" ry="12.5" style="stroke:#181818;stroke-width:1.5;" width="73" x="304" y="339.9297"/><text fill="#000000" font-family="sans-serif" font-size="14" lengthAdjust="spacing" textLength="53" x="314" y="363.4648">Role (3)</text><path d="M254,358.1738 L264,358.1738 C279,358.1738 279,358.1738 294,358.1738 L304,358.1738 " fill="none" style="stroke:#181818;stroke-width:1.0;"/><path d="M158,216.9531 L168,216.9531 C183,216.9531 183,358.1738 198,358.1738 L208,358.1738 " fill="none" style="stroke:#181818;stroke-width:1.0;"/><path d="M62,216.9531 L72,216.9531 C87,216.9531 87,216.9531 102,216.9531 L112,216.9531 " fill="none" style="stroke:#181818;stroke-width:1.0;"/><!--MD5=[712108100507638933a1b965a21fa1c5]
@startmindmap
title Resources for project appstream-stack
skinparam monochrome true
+ Infra
++ aws
+++ AppStream
++++ Fleet (1)
++++ Stack (1)
+++ EC2
++++ Vpc (1)
++++ Subnet (2)
++++ SecurityGroup (1)
+++ IAM
++++ Role (3)
@endmindmap

PlantUML version 1.2022.6(Tue Jun 21 12:34:49 COT 2022)
(GPL source distribution)
Java Runtime: Java(TM) SE Runtime Environment
JVM: Java HotSpot(TM) 64-Bit Server VM
Default Encoding: UTF-8
Language: en
Country: GB
--></g></svg>