<?xml version="1.0" encoding="UTF-8" standalone="no"?>
<!DOCTYPE svg PUBLIC "-//W3C//DTD SVG 1.1//EN"
 "http://www.w3.org/Graphics/SVG/1.1/DTD/svg11.dtd">
<!-- Generated by graphviz version 2.44.1 (20200629.0846)
 -->
<!-- Title: graphname Pages: 1 -->
<svg width="657pt" height="540pt"
 viewBox="0.00 0.00 657.00 540.00" xmlns="http://www.w3.org/2000/svg" xmlns:xlink="http://www.w3.org/1999/xlink">
<g id="graph0" class="graph" transform="scale(1 1) rotate(0) translate(4 536)">
<title>graphname</title>
<polygon fill="white" stroke="transparent" points="-4,4 -4,-536 653,-536 653,4 -4,4"/>
<g id="clust3" class="cluster">
<title>cluster_k8s</title>
<polygon fill="#f5f5f5" stroke="#f5f5f5" points="303,-8 303,-262 641,-262 641,-8 303,-8"/>
<text text-anchor="start" x="431" y="-225.4" font-family="Helvetica,sans-Serif" font-weight="bold" font-size="42.00" fill="#383838">K8S</text>
</g>
<g id="clust4" class="cluster">
<title>cluster_k8s_default</title>
<polygon fill="#eeeeee" stroke="#eeeeee" points="311,-16 311,-200 633,-200 633,-16 311,-16"/>
<text text-anchor="start" x="431.5" y="-177.8" font-family="Helvetica,sans-Serif" font-weight="bold" font-size="24.00" fill="#383838">default</text>
</g>
<g id="clust1" class="cluster">
<title>cluster_aws</title>
<polygon fill="#f5f5f5" stroke="#f5f5f5" points="8,-270 8,-524 472.5,-524 472.5,-270 8,-270"/>
<text text-anchor="start" x="192.25" y="-487.4" font-family="Helvetica,sans-Serif" font-weight="bold" font-size="42.00" fill="#383838">AWS</text>
</g>
<g id="clust2" class="cluster">
<title>cluster_aws_default</title>
<polygon fill="#eeeeee" stroke="#eeeeee" points="16,-278 16,-462 464.5,-462 464.5,-278 16,-278"/>
<text text-anchor="start" x="199.75" y="-439.8" font-family="Helvetica,sans-Serif" font-weight="bold" font-size="24.00" fill="#383838">default</text>
</g>
<!-- IamPolicy::PodPolicy -->
<g id="node1" class="node">
<title>IamPolicy::PodPolicy</title>
<polygon fill="#e5e5e5" stroke="#dddddd" points="447,-420 355,-420 355,-362 447,-362 447,-420"/>
<text text-anchor="start" x="363" y="-400.2" font-family="Helvetica,sans-Serif" font-weight="bold" font-size="16.00" fill="#707070">IamPolicy</text>
<text text-anchor="start" x="363" y="-375.2" font-family="Helvetica,sans-Serif" font-size="16.00" fill="#383838">PodPolicy</text>
</g>
<!-- IamRole::role&#45;pod -->
<g id="node2" class="node">
<title>IamRole::role&#45;pod</title>
<polygon fill="#e5e5e5" stroke="#dddddd" points="193,-420 114,-420 114,-362 193,-362 193,-420"/>
<text text-anchor="start" x="122.5" y="-400.2" font-family="Helvetica,sans-Serif" font-weight="bold" font-size="16.00" fill="#707070">IamRole</text>
<text text-anchor="start" x="122.5" y="-375.2" font-family="Helvetica,sans-Serif" font-size="16.00" fill="#383838">role&#45;pod</text>
</g>
<!-- IamRole::role&#45;pod&#45;&gt;IamPolicy::PodPolicy -->
<g id="edge1" class="edge">
<title>IamRole::role&#45;pod&#45;&gt;IamPolicy::PodPolicy</title>
<path fill="none" stroke="#707070" d="M193.13,-391C233.93,-391 298.62,-391 344.79,-391"/>
<polygon fill="#707070" stroke="#707070" points="344.93,-394.5 354.93,-391 344.93,-387.5 344.93,-394.5"/>
</g>
<!-- HostedZone::grucloud.org. -->
<g id="node3" class="node">
<title>HostedZone::grucloud.org.</title>
<polygon fill="#e5e5e5" stroke="#dddddd" points="456.5,-344 345.5,-344 345.5,-286 456.5,-286 456.5,-344"/>
<text text-anchor="start" x="354" y="-324.2" font-family="Helvetica,sans-Serif" font-weight="bold" font-size="16.00" fill="#707070">HostedZone</text>
<text text-anchor="start" x="354" y="-299.2" font-family="Helvetica,sans-Serif" font-size="16.00" fill="#383838">grucloud.org.</text>
</g>
<!-- Route53Record::record&#45;alias&#45;load&#45;balancer&#45;grucloud.org. -->
<g id="node4" class="node">
<title>Route53Record::record&#45;alias&#45;load&#45;balancer&#45;grucloud.org.</title>
<polygon fill="#e5e5e5" stroke="#dddddd" points="283,-344 24,-344 24,-286 283,-286 283,-344"/>
<text text-anchor="start" x="32.5" y="-324.2" font-family="Helvetica,sans-Serif" font-weight="bold" font-size="16.00" fill="#707070">Route53Record</text>
<text text-anchor="start" x="32.5" y="-299.2" font-family="Helvetica,sans-Serif" font-size="16.00" fill="#383838">record&#45;alias&#45;load&#45;balancer&#45;grucl...</text>
</g>
<!-- Route53Record::record&#45;alias&#45;load&#45;balancer&#45;grucloud.org.&#45;&gt;HostedZone::grucloud.org. -->
<g id="edge2" class="edge">
<title>Route53Record::record&#45;alias&#45;load&#45;balancer&#45;grucloud.org.&#45;&gt;HostedZone::grucloud.org.</title>
<path fill="none" stroke="#707070" d="M283,-315C300.99,-315 318.81,-315 334.92,-315"/>
<polygon fill="#707070" stroke="#707070" points="335.24,-318.5 345.24,-315 335.24,-311.5 335.24,-318.5"/>
</g>
<!-- Ingress::ingress -->
<g id="node7" class="node">
<title>Ingress::ingress</title>
<polygon fill="#e5e5e5" stroke="#dddddd" points="438,-82 364,-82 364,-24 438,-24 438,-82"/>
<text text-anchor="start" x="372" y="-62.2" font-family="Helvetica,sans-Serif" font-weight="bold" font-size="16.00" fill="#707070">Ingress</text>
<text text-anchor="start" x="372" y="-37.2" font-family="Helvetica,sans-Serif" font-size="16.00" fill="#383838">ingress</text>
</g>
<!-- Route53Record::record&#45;alias&#45;load&#45;balancer&#45;grucloud.org.&#45;&gt;Ingress::ingress -->
<g id="edge3" class="edge">
<title>Route53Record::record&#45;alias&#45;load&#45;balancer&#45;grucloud.org.&#45;&gt;Ingress::ingress</title>
<path fill="none" stroke="#707070" d="M166.76,-285.77C187.94,-238.57 235.67,-145.38 303,-91 317.7,-79.13 336.56,-70.61 353.74,-64.7"/>
<polygon fill="#707070" stroke="#707070" points="355.17,-67.91 363.61,-61.51 353.02,-61.25 355.17,-67.91"/>
</g>
<!-- Namespace::default -->
<g id="node5" class="node">
<title>Namespace::default</title>
<polygon fill="#e5e5e5" stroke="#dddddd" points="625,-120 519,-120 519,-62 625,-62 625,-120"/>
<text text-anchor="start" x="527" y="-100.2" font-family="Helvetica,sans-Serif" font-weight="bold" font-size="16.00" fill="#707070">Namespace</text>
<text text-anchor="start" x="527" y="-75.2" font-family="Helvetica,sans-Serif" font-size="16.00" fill="#383838">default</text>
</g>
<!-- ServiceAccount::service&#45;account&#45;aws -->
<g id="node6" class="node">
<title>ServiceAccount::service&#45;account&#45;aws</title>
<polygon fill="#e5e5e5" stroke="#dddddd" points="483,-158 319,-158 319,-100 483,-100 483,-158"/>
<text text-anchor="start" x="327" y="-138.2" font-family="Helvetica,sans-Serif" font-weight="bold" font-size="16.00" fill="#707070">ServiceAccount</text>
<text text-anchor="start" x="327" y="-113.2" font-family="Helvetica,sans-Serif" font-size="16.00" fill="#383838">service&#45;account&#45;aws</text>
</g>
<!-- ServiceAccount::service&#45;account&#45;aws&#45;&gt;IamRole::role&#45;pod -->
<g id="edge5" class="edge">
<title>ServiceAccount::service&#45;account&#45;aws&#45;&gt;IamRole::role&#45;pod</title>
<path fill="none" stroke="#707070" d="M376.17,-158.06C354.23,-186.15 322.27,-230.7 303,-274 288.27,-307.09 308.1,-326.89 283,-353 262.34,-374.49 230.17,-383.99 203.19,-388.11"/>
<polygon fill="#707070" stroke="#707070" points="202.59,-384.66 193.14,-389.45 203.51,-391.6 202.59,-384.66"/>
</g>
<!-- ServiceAccount::service&#45;account&#45;aws&#45;&gt;Namespace::default -->
<g id="edge4" class="edge">
<title>ServiceAccount::service&#45;account&#45;aws&#45;&gt;Namespace::default</title>
<path fill="none" stroke="#707070" d="M483.04,-110.78C491.8,-108.81 500.62,-106.83 509.11,-104.92"/>
<polygon fill="#707070" stroke="#707070" points="509.91,-108.32 518.9,-102.71 508.38,-101.49 509.91,-108.32"/>
</g>
<!-- Ingress::ingress&#45;&gt;Namespace::default -->
<g id="edge6" class="edge">
<title>Ingress::ingress&#45;&gt;Namespace::default</title>
<path fill="none" stroke="#707070" d="M438.25,-61.15C458.79,-65.77 485.05,-71.67 508.78,-77.01"/>
<polygon fill="#707070" stroke="#707070" points="508.25,-80.48 518.77,-79.26 509.78,-73.65 508.25,-80.48"/>
</g>
</g>
</svg>
