<?xml version="1.0" encoding="UTF-8" standalone="no"?>
<!DOCTYPE svg PUBLIC "-//W3C//DTD SVG 1.1//EN"
 "http://www.w3.org/Graphics/SVG/1.1/DTD/svg11.dtd">
<!-- Generated by graphviz version 2.44.1 (20200629.0846)
 -->
<!-- Title: graphname Pages: 1 -->
<svg width="604pt" height="350pt"
 viewBox="0.00 0.00 604.00 350.00" xmlns="http://www.w3.org/2000/svg" xmlns:xlink="http://www.w3.org/1999/xlink">
<g id="graph0" class="graph" transform="scale(1 1) rotate(0) translate(4 346)">
<title>graphname</title>
<polygon fill="white" stroke="transparent" points="-4,4 -4,-346 600,-346 600,4 -4,4"/>
<g id="clust1" class="cluster">
<title>cluster_aws</title>
<polygon fill="none" stroke="#383838" points="8,-175 8,-334 450.5,-334 450.5,-175 8,-175"/>
<text text-anchor="start" x="209.75" y="-315" font-family="Helvetica,sans-Serif" font-weight="bold" font-size="20.00" fill="#383838">aws</text>
</g>
<g id="clust2" class="cluster">
<title>cluster_k8s</title>
<polygon fill="none" stroke="#383838" points="309,-8 309,-167 588,-167 588,-8 309,-8"/>
<text text-anchor="start" x="431.5" y="-148" font-family="Helvetica,sans-Serif" font-weight="bold" font-size="20.00" fill="#383838">k8s</text>
</g>
<!-- IamPolicy::PodPolicy -->
<g id="node1" class="node">
<title>IamPolicy::PodPolicy</title>
<polygon fill="none" stroke="#383838" points="433.5,-295.5 348.5,-295.5 348.5,-248.5 433.5,-248.5 433.5,-295.5"/>
<text text-anchor="start" x="361" y="-280" font-family="Helvetica,sans-Serif" font-weight="bold" font-size="10.00" fill="#707070">IamPolicy</text>
<text text-anchor="start" x="361" y="-259.6" font-family="Helvetica,sans-Serif" font-size="13.00" fill="#383838">PodPolicy</text>
</g>
<!-- IamRole::role&#45;pod -->
<g id="node2" class="node">
<title>IamRole::role&#45;pod</title>
<polygon fill="none" stroke="#383838" points="185.5,-295.5 111.5,-295.5 111.5,-248.5 185.5,-248.5 185.5,-295.5"/>
<text text-anchor="start" x="123.5" y="-280" font-family="Helvetica,sans-Serif" font-weight="bold" font-size="10.00" fill="#707070">IamRole</text>
<text text-anchor="start" x="123.5" y="-259.6" font-family="Helvetica,sans-Serif" font-size="13.00" fill="#383838">role&#45;pod</text>
</g>
<!-- IamRole::role&#45;pod&#45;&gt;IamPolicy::PodPolicy -->
<g id="edge1" class="edge">
<title>IamRole::role&#45;pod&#45;&gt;IamPolicy::PodPolicy</title>
<path fill="none" stroke="#383838" d="M185.51,-272C226.07,-272 292.35,-272 338.41,-272"/>
<polygon fill="#383838" stroke="#383838" points="338.49,-275.5 348.49,-272 338.49,-268.5 338.49,-275.5"/>
</g>
<!-- HostedZone::grucloud.org. -->
<g id="node3" class="node">
<title>HostedZone::grucloud.org.</title>
<polygon fill="none" stroke="#383838" points="442.5,-230.5 339.5,-230.5 339.5,-183.5 442.5,-183.5 442.5,-230.5"/>
<text text-anchor="start" x="352" y="-215" font-family="Helvetica,sans-Serif" font-weight="bold" font-size="10.00" fill="#707070">HostedZone</text>
<text text-anchor="start" x="352" y="-194.6" font-family="Helvetica,sans-Serif" font-size="13.00" fill="#383838">grucloud.org.</text>
</g>
<!-- Route53Record::record&#45;alias&#45;load&#45;balancer&#45;grucloud.org. -->
<g id="node4" class="node">
<title>Route53Record::record&#45;alias&#45;load&#45;balancer&#45;grucloud.org.</title>
<polygon fill="none" stroke="#383838" points="281,-230.5 16,-230.5 16,-183.5 281,-183.5 281,-230.5"/>
<text text-anchor="start" x="28.5" y="-215" font-family="Helvetica,sans-Serif" font-weight="bold" font-size="10.00" fill="#707070">Route53Record</text>
<text text-anchor="start" x="28.5" y="-194.6" font-family="Helvetica,sans-Serif" font-size="13.00" fill="#383838">record&#45;alias&#45;load&#45;balancer&#45;grucloud.org.</text>
</g>
<!-- Route53Record::record&#45;alias&#45;load&#45;balancer&#45;grucloud.org.&#45;&gt;HostedZone::grucloud.org. -->
<g id="edge2" class="edge">
<title>Route53Record::record&#45;alias&#45;load&#45;balancer&#45;grucloud.org.&#45;&gt;HostedZone::grucloud.org.</title>
<path fill="none" stroke="#383838" d="M281.01,-207C297.85,-207 314.39,-207 329.3,-207"/>
<polygon fill="#383838" stroke="#383838" points="329.35,-210.5 339.35,-207 329.35,-203.5 329.35,-210.5"/>
</g>
<!-- Ingress::ingress -->
<g id="node7" class="node">
<title>Ingress::ingress</title>
<polygon fill="none" stroke="#383838" points="425,-63.5 357,-63.5 357,-16.5 425,-16.5 425,-63.5"/>
<text text-anchor="start" x="369" y="-48" font-family="Helvetica,sans-Serif" font-weight="bold" font-size="10.00" fill="#707070">Ingress</text>
<text text-anchor="start" x="369" y="-27.6" font-family="Helvetica,sans-Serif" font-size="13.00" fill="#383838">ingress</text>
</g>
<!-- Route53Record::record&#45;alias&#45;load&#45;balancer&#45;grucloud.org.&#45;&gt;Ingress::ingress -->
<g id="edge3" class="edge">
<title>Route53Record::record&#45;alias&#45;load&#45;balancer&#45;grucloud.org.&#45;&gt;Ingress::ingress</title>
<path fill="none" stroke="#383838" d="M172.8,-183.31C202.36,-154.29 255.89,-105.04 309,-73 320.92,-65.81 334.68,-59.54 347.44,-54.45"/>
<polygon fill="#383838" stroke="#383838" points="348.88,-57.65 356.96,-50.8 346.37,-51.12 348.88,-57.65"/>
</g>
<!-- Namespace::default -->
<g id="node5" class="node">
<title>Namespace::default</title>
<polygon fill="none" stroke="#383838" points="580,-95.5 501,-95.5 501,-48.5 580,-48.5 580,-95.5"/>
<text text-anchor="start" x="513.5" y="-80" font-family="Helvetica,sans-Serif" font-weight="bold" font-size="10.00" fill="#707070">Namespace</text>
<text text-anchor="start" x="513.5" y="-59.6" font-family="Helvetica,sans-Serif" font-size="13.00" fill="#383838">default</text>
</g>
<!-- ServiceAccount::service&#45;account&#45;aws -->
<g id="node6" class="node">
<title>ServiceAccount::service&#45;account&#45;aws</title>
<polygon fill="none" stroke="#383838" points="465,-128.5 317,-128.5 317,-81.5 465,-81.5 465,-128.5"/>
<text text-anchor="start" x="329" y="-113" font-family="Helvetica,sans-Serif" font-weight="bold" font-size="10.00" fill="#707070">ServiceAccount</text>
<text text-anchor="start" x="329" y="-92.6" font-family="Helvetica,sans-Serif" font-size="13.00" fill="#383838">service&#45;account&#45;aws</text>
</g>
<!-- ServiceAccount::service&#45;account&#45;aws&#45;&gt;IamRole::role&#45;pod -->
<g id="edge5" class="edge">
<title>ServiceAccount::service&#45;account&#45;aws&#45;&gt;IamRole::role&#45;pod</title>
<path fill="none" stroke="#383838" d="M353.41,-128.64C338.09,-139.98 321.07,-154.66 309,-171 289.33,-197.62 306.06,-218.38 281,-240 257.58,-260.21 223.46,-268.1 195.85,-270.99"/>
<polygon fill="#383838" stroke="#383838" points="195.28,-267.53 185.62,-271.87 195.88,-274.5 195.28,-267.53"/>
</g>
<!-- ServiceAccount::service&#45;account&#45;aws&#45;&gt;Namespace::default -->
<g id="edge4" class="edge">
<title>ServiceAccount::service&#45;account&#45;aws&#45;&gt;Namespace::default</title>
<path fill="none" stroke="#383838" d="M465.32,-88.6C474.06,-86.64 482.8,-84.68 491.07,-82.84"/>
<polygon fill="#383838" stroke="#383838" points="491.88,-86.24 500.87,-80.64 490.35,-79.41 491.88,-86.24"/>
</g>
<!-- Ingress::ingress&#45;&gt;Namespace::default -->
<g id="edge6" class="edge">
<title>Ingress::ingress&#45;&gt;Namespace::default</title>
<path fill="none" stroke="#383838" d="M425.1,-47.18C444.46,-51.38 469.25,-56.76 490.8,-61.44"/>
<polygon fill="#383838" stroke="#383838" points="490.25,-64.9 500.76,-63.6 491.73,-58.06 490.25,-64.9"/>
</g>
</g>
</svg>
